<REAPER_PROJECT 0.1 "7.0" 1700000000
  TEMPO 72.000000 4 4
  SAMPLERATE 48000 0 0
  RENDER_FILE ""
  RENDER_FMT 0 2 0
  RENDER_1X 0
  RENDER_RANGE 1 0 95.338761 0 0
  RENDER_RESAMPLE 3 0 1
  <MASTERTRACK
    VOLPAN 1 0 1 -1
    DEFCHAN 0
  >
  <TRACK
    NAME "Lead"
    PEAKCOL 4284506208
    VOLPAN 1.000000 0 1 -1
    MIDIOUT -1
    ISBUS 0 0
    <ITEM
      POSITION 0.208831
      LENGTH 86.598647
      NAME "Lead"
      VOLPAN 1 0 1 -1
      <SOURCE MIDI
        HASDATA 1 960 QN
        E 0 c0 47 00
        E 241 90 4d 4c
        E 943 90 4d 4c
        E 190 80 4d 00
        E 934 80 4d 00
        E 86 90 4f 50
        E 607 90 4c 4c
        E 415 80 4f 00
        E 607 80 4c 00
        E 177 90 4c 5d
        E 1022 80 4c 00
        E 171 90 4d 68
        E 258 80 4d 00
        E 937 90 4f 4c
        E 854 90 4f 4c
        E 66 80 4f 00
        E 854 80 4f 00
        E 34 90 4d 4c
        E 1124 80 4d 00
        E 68 90 4f 6b
        E 1030 80 4f 00
        E 765 90 4c 4e
        E 515 80 4c 00
        E 683 90 4d 50
        E 1022 80 4d 00
        E 541 90 4f 4c
        E 258 80 4f 00
        E 927 90 4c 4c
        E 232 80 4c 00
        E 1206 90 4d 4c
        E 567 80 4d 00
        E 868 90 4c 66
        E 971 90 4d 5d
        E 51 80 4c 00
        E 207 80 4d 00
        E 947 90 4f 50
        E 1022 80 4f 00
        E 153 90 53 59
        E 920 80 53 00
        E 520 90 51 4c
        E 489 90 4f 4c
        E 240 80 4f 00
        E 191 80 51 00
        E 57 90 4c 68
        E 850 80 4c 00
        E 329 90 4d 4e
        E 1022 80 4d 00
        E 177 90 4f 5b
        E 724 90 4c 4c
        E 298 80 4f 00
        E 724 80 4c 00
        E 62 90 4d 57
        E 1022 80 4d 00
        E 173 90 4c 4c
        E 920 80 4c 00
        E 288 90 4f 4c
        E 920 80 4f 00
        E 862 90 4f 56
        E 258 80 4f 00
        E 944 90 53 57
        E 1022 80 53 00
        E 300 90 4f 52
        E 1022 80 4f 00
        E 53 90 4f 5b
        E 1022 80 4f 00
        E 174 90 4f 52
        E 920 80 4f 00
        E 526 90 53 59
        E 232 80 53 00
        E 242 90 4f 4c
        E 232 80 4f 00
        E 242 90 4c 5f
        E 1124 80 4c 00
        E 94 90 4c 54
        E 590 90 4f 4c
        E 240 80 4f 00
        E 192 80 4c 00
        E 157 90 53 52
        E 1022 80 53 00
        E 193 90 53 5f
        E 592 90 4f 4c
        E 240 80 4f 00
        E 190 80 53 00
        E 161 90 4c 64
        E 1022 80 4c 00
        E 183 90 4d 56
        E 920 80 4d 00
        E 277 90 4c 4c
        E 1124 80 4c 00
        E 64 90 4f 6b
        E 1022 80 4f 00
        E 196 90 4d 56
        E 357 90 4f 4c
        E 240 80 4f 00
        E 116 90 51 4c
        E 240 80 51 00
        E 69 80 4d 00
        E 48 90 54 4c
        E 240 80 54 00
        E 117 90 56 6a
        E 959 90 54 4c
        E 63 80 56 00
        E 452 80 54 00
        E 83 90 51 4c
        E 240 80 51 00
        E 358 90 4f 56
        E 927 80 4f 00
        E 865 90 4f 50
        E 1124 80 4f 00
        E 71 90 4c 66
        E 1022 80 4c 00
        E 175 90 4d 4c
        E 1022 80 4d 00
        E 185 90 4f 54
        E 606 90 51 4c
        E 167 80 4f 00
        E 73 80 51 00
        E 366 90 56 57
        E 1022 80 56 00
        E 775 90 54 4c
        E 920 80 54 00
        E 276 90 53 5f
        E 283 80 53 00
        E 905 90 51 4e
        E 515 80 51 00
        E 1039 90 4f 4c
        E 515 80 4f 00
        E 333 90 4d 5d
        E 1022 80 4d 00
        E 534 90 4f 4c
        E 827 90 4c 4c
        E 195 80 4f 00
        E 725 80 4c 00
        E 1128 90 4d 4c
        E 944 90 4c 4c
        E 189 80 4d 00
        E 833 80 4c 00
        E 198 90 4c 57
        E 515 80 4c 00
        E 671 90 4c 4c
        E 1022 80 4c 00
        E 303 90 4c 56
        E 1060 90 4c 4c
        E 603 90 4a 4c
        E 240 80 4a 00
        E 77 80 4c 00
        E 81 80 4c 00
        E 205 90 47 5b
        E 1124 80 47 00
        E 430 90 48 56
        E 1022 80 48 00
        E 77 90 4c 4c
        E 942 90 56 4e
        E 80 80 4c 00
        E 435 80 56 00
        E 684 90 4c 4c
        E 1022 80 4c 00
        E 179 90 4c 50
        E 695 80 4c 00
        E 512 90 4d 4c
        E 232 80 4d 00
        E 962 90 4c 4c
        E 567 80 4c 00
        E 632 90 4d 62
        E 515 80 4d 00
        E 327 90 4c 59
        E 515 80 4c 00
        E 441 90 4a 50
        E 1022 80 4a 00
        E 530 90 4c 68
        E 846 90 4d 4c
        E 176 80 4c 00
        E 56 80 4d 00
        E 1428 90 4f 4c
        E 1124 80 4f 00
        E 788 90 4f 50
        E 1022 80 4f 00
        E 661 90 4f 4c
        E 1022 80 4f 00
        E 190 90 4d 4c
        E 1022 80 4d 00
        E 414 90 4c 50
        E 920 80 4c 00
        E 0 b0 7b 00
        E 1 ff 2f 00
      >
    >
  >
  <TRACK
    NAME "Cello"
    PEAKCOL 4284186559
    VOLPAN 1.000000 0 1 -1
    MIDIOUT -1
    ISBUS 0 0
    <ITEM
      POSITION 3.341177
      LENGTH 83.433211
      NAME "Cello"
      VOLPAN 1 0 1 -1
      <SOURCE MIDI
        HASDATA 1 960 QN
        E 0 c1 2a 00
        E 3849 91 34 64
        E 3840 81 34 00
        E 3843 91 32 60
        E 3840 81 32 00
        E 7681 91 2f 60
        E 3837 91 2f 60
        E 3 81 2f 00
        E 3827 91 34 64
        E 10 81 2f 00
        E 3830 81 34 00
        E 13 91 30 5f
        E 3830 91 2d 5f
        E 10 81 30 00
        E 3830 81 2d 00
        E 8 91 2b 5f
        E 3840 81 2b 00
        E 1 91 2b 5f
        E 3840 81 2b 00
        E 2 91 28 62
        E 3837 91 24 60
        E 3 81 28 00
        E 3829 91 24 60
        E 8 81 24 00
        E 3832 81 24 00
        E 3 91 28 62
        E 3840 81 28 00
        E 2 91 28 5f
        E 3835 91 26 5f
        E 5 81 28 00
        E 3835 81 26 00
        E 2 91 2b 62
        E 3840 81 2b 00
        E 8 91 2b 5f
        E 3840 81 2b 00
        E 3835 91 24 5f
        E 3840 81 24 00
        E 3834 91 28 60
        E 3840 81 28 00
        E 7 91 2b 64
        E 3840 81 2b 00
        E 0 b1 7b 00
        E 1 ff 2f 00
      >
    >
  >
  <TRACK
    NAME "Strings"
    PEAKCOL 4284186559
    VOLPAN 1.000000 0 1 -1
    MIDIOUT -1
    ISBUS 0 0
    <ITEM
      POSITION 0.003871
      LENGTH 86.770288
      NAME "Strings"
      VOLPAN 1 0 1 -1
      <SOURCE MIDI
        HASDATA 1 960 QN
        E 0 c2 30 00
        E 4 92 43 40
        E 4 92 43 40
        E 6 92 43 40
        E 1896 92 40 40
        E 3 92 43 40
        E 0 92 40 40
        E 4 92 43 40
        E 5 82 43 00
        E 10 82 43 00
        E 21 82 43 00
        E 1873 82 43 00
        E 1 82 40 00
        E 8 82 40 00
        E 0 92 43 40
        E 3 92 43 40
        E 2 92 3c 40
        E 14 82 43 00
        E 1887 82 43 00
        E 4 82 43 00
        E 2 92 30 40
        E 13 82 3c 00
        E 3 92 43 40
        E 1899 82 30 00
        E 24 82 43 00
        E 1902 92 43 40
        E 5 92 43 40
        E 5 92 43 40
        E 1 92 41 40
        E 14 92 43 40
        E 1895 82 43 00
        E 16 92 43 40
        E 1 82 41 00
        E 2 82 43 00
        E 6 82 43 00
        E 1 82 43 00
        E 1899 92 40 40
        E 7 92 3b 42
        E 17 82 43 00
        E 1897 92 30 40
        E 4 92 43 40
        E 2 82 3b 00
        E 4 82 40 00
        E 6 92 43 40
        E 1903 82 30 00
        E 5 82 43 00
        E 7 92 43 40
        E 5 82 43 00
        E 1911 92 30 40
        E 8 82 43 00
        E 1901 92 43 40
        E 7 92 43 40
        E 0 92 43 40
        E 3 92 3c 49
        E 2 92 30 40
        E 0 92 43 40
        E 1 92 43 40
        E 3 92 30 40
        E 14 82 30 00
        E 1890 92 43 40
        E 1 82 30 00
        E 0 92 43 40
        E 3 92 43 40
        E 3 92 43 40
        E 3 82 43 00
        E 0 82 3c 00
        E 0 92 3c 49
        E 0 92 43 40
        E 3 92 43 40
        E 1 82 30 00
        E 0 92 43 40
        E 2 82 43 00
        E 2 82 43 00
        E 0 82 43 00
        E 5 82 43 00
        E 1894 92 43 40
        E 1 92 43 40
        E 4 92 30 40
        E 5 82 43 00
        E 2 92 43 40
        E 0 92 43 40
        E 1 82 43 00
        E 0 82 3c 00
        E 0 92 3c 4b
        E 2 92 41 40
        E 4 92 43 40
        E 1 82 43 00
        E 1 82 43 00
        E 4 82 43 00
        E 1 82 43 00
        E 1 82 43 00
        E 1886 82 30 00
        E 3 82 43 00
        E 11 82 43 00
        E 0 92 43 40
        E 1 92 43 40
        E 0 92 40 40
        E 2 82 43 00
        E 2 92 30 40
        E 1 82 3c 00
        E 0 92 3b 4c
        E 0 92 43 40
        E 3 82 43 00
        E 6 92 43 40
        E 1 92 43 40
        E 7 82 41 00
        E 1 82 43 00
        E 1879 82 43 00
        E 4 82 30 00
        E 3 82 43 00
        E 5 92 30 40
        E 0 92 43 40
        E 0 92 43 40
        E 3 82 43 00
        E 5 82 43 00
        E 3 82 3b 00
        E 0 92 3b 4e
        E 1 92 43 40
        E 1 92 43 40
        E 2 82 40 00
        E 2 92 43 40
        E 3 92 40 40
        E 6 82 43 00
        E 1882 82 43 00
        E 7 82 43 00
        E 2 92 43 40
        E 5 92 30 40
        E 5 92 43 40
        E 1 92 40 40
        E 3 82 3b 00
        E 0 92 3b 50
        E 6 82 43 00
        E 2 82 30 00
        E 0 92 30 40
        E 3 82 40 00
        E 0 92 30 40
        E 1 92 43 40
        E 8 82 43 00
        E 4 82 43 00
        E 1874 82 43 00
        E 4 82 43 00
        E 7 92 40 40
        E 1 82 30 00
        E 0 92 43 40
        E 3 92 40 40
        E 7 82 3b 00
        E 0 92 3b 52
        E 2 82 43 00
        E 2 92 43 40
        E 2 92 43 40
        E 0 92 43 40
        E 3 82 30 00
        E 1 82 40 00
        E 0 92 43 40
        E 6 82 30 00
        E 1892 92 43 40
        E 3 82 43 00
        E 2 82 40 00
        E 1 82 43 00
        E 2 92 43 40
        E 4 82 3b 00
        E 0 92 39 52
        E 1 82 43 00
        E 0 92 30 40
        E 3 92 3c 40
        E 3 82 40 00
        E 1 82 43 00
        E 1 82 43 00
        E 1 92 43 40
        E 0 92 43 40
        E 3 92 30 40
        E 1891 82 43 00
        E 10 82 43 00
        E 4 92 43 40
        E 2 82 39 00
        E 0 92 39 54
        E 1 82 30 00
        E 3 82 30 00
        E 4 92 3c 40
        E 1 92 43 40
        E 1 82 43 00
        E 2 92 40 40
        E 0 92 43 40
        E 1 92 43 40
        E 1 92 43 40
        E 8 82 3c 00
        E 0 82 43 00
        E 1886 92 43 40
        E 4 92 43 40
        E 1 92 43 40
        E 0 92 41 40
        E 1 82 3c 00
        E 3 82 43 00
        E 3 82 39 00
        E 0 92 39 56
        E 1 82 43 00
        E 1 92 41 40
        E 2 92 30 40
        E 1 82 43 00
        E 0 82 43 00
        E 1 92 30 40
        E 7 82 43 00
        E 13 82 40 00
        E 1867 82 43 00
        E 5 82 43 00
        E 8 92 43 40
        E 0 92 43 40
        E 1 92 41 40
        E 4 82 41 00
        E 4 82 41 00
        E 5 82 39 00
        E 0 92 39 57
        E 3 92 43 40
        E 2 82 30 00
        E 3 92 43 40
        E 1 92 30 40
        E 1 82 43 00
        E 0 82 30 00
        E 3 92 30 40
        E 1881 82 41 00
        E 3 82 43 00
        E 9 92 43 40
        E 2 82 43 00
        E 1 92 30 40
        E 8 92 43 40
        E 1 82 43 00
        E 0 82 30 00
        E 2 82 39 00
        E 0 92 37 59
        E 3 82 43 00
        E 0 92 43 40
        E 1 92 43 40
        E 5 92 43 40
        E 1 82 30 00
        E 2 92 30 40
        E 1880 82 43 00
        E 15 82 43 00
        E 2 92 43 40
        E 1 92 43 40
        E 2 82 43 00
        E 1 92 30 40
        E 4 82 30 00
        E 1 92 3b 40
        E 2 82 37 00
        E 0 82 43 00
        E 0 92 37 59
        E 4 92 43 40
        E 3 92 43 40
        E 4 82 43 00
        E 2 92 43 40
        E 9 82 30 00
        E 1879 82 30 00
        E 2 82 43 00
        E 4 82 43 00
        E 7 82 43 00
        E 3 92 43 40
        E 2 82 43 00
        E 0 92 43 40
        E 1 82 37 00
        E 0 82 43 00
        E 0 92 37 5b
        E 0 92 43 40
        E 4 92 40 40
        E 6 92 43 40
        E 1 92 3b 40
        E 2 92 40 40
        E 1 82 3b 00
        E 1892 92 30 40
        E 6 92 43 40
        E 2 82 43 00
        E 1 82 3b 00
        E 5 82 37 00
        E 0 92 37 5d
        E 1 92 43 40
        E 1 92 30 40
        E 6 92 43 40
        E 2 92 43 40
        E 2 92 43 40
        E 3 82 43 00
        E 1 82 40 00
        E 2 82 43 00
        E 2 82 40 00
        E 7 82 43 00
        E 1879 82 43 00
        E 0 92 43 40
        E 3 82 30 00
        E 0 92 43 40
        E 2 82 43 00
        E 1 92 30 40
        E 6 82 43 00
        E 0 92 30 40
        E 2 82 37 00
        E 0 92 37 5d
        E 1 92 43 40
        E 1 92 43 40
        E 1 82 30 00
        E 0 92 43 40
        E 1 82 43 00
        E 25 82 43 00
        E 1869 82 43 00
        E 12 92 43 40
        E 2 92 43 40
        E 1 82 30 00
        E 1 92 43 40
        E 3 82 43 00
        E 2 82 43 00
        E 1 82 37 00
        E 0 92 37 5b
        E 0 92 43 40
        E 3 92 40 40
        E 4 82 30 00
        E 0 82 43 00
        E 2 92 43 40
        E 1 92 30 40
        E 5 82 43 00
        E 1886 82 43 00
        E 10 82 30 00
        E 2 92 30 40
        E 1 92 43 40
        E 5 92 3c 40
        E 1 82 37 00
        E 0 92 39 59
        E 1 92 43 40
        E 1 82 43 00
        E 0 92 43 40
        E 2 82 43 00
        E 3 92 30 40
        E 1 82 43 00
        E 5 82 43 00
        E 0 92 43 40
        E 2 82 40 00
        E 1885 82 43 00
        E 2 82 3c 00
        E 1 82 30 00
        E 5 92 30 40
        E 2 92 43 40
        E 6 92 43 40
        E 4 82 39 00
        E 0 82 43 00
        E 0 92 39 59
        E 0 92 43 40
        E 2 92 3c 40
        E 5 92 41 40
        E 1 92 43 40
        E 4 82 43 00
        E 1 82 43 00
        E 9 82 30 00
        E 1881 82 43 00
        E 0 82 3c 00
        E 3 82 43 00
        E 1 92 40 40
        E 1 92 43 40
        E 4 92 43 40
        E 3 92 43 40
        E 2 82 30 00
        E 0 82 41 00
        E 3 82 39 00
        E 0 92 3b 57
        E 2 82 43 00
        E 1 92 43 40
        E 3 92 30 40
        E 3 92 43 40
        E 4 82 43 00
        E 1894 82 43 00
        E 1 92 43 40
        E 2 82 43 00
        E 0 92 43 40
        E 1 92 43 40
        E 3 92 43 40
        E 3 82 43 00
        E 1 82 40 00
        E 0 92 43 40
        E 2 82 3b 00
        E 0 92 3b 56
        E 6 92 40 40
        E 1 82 43 00
        E 2 82 30 00
        E 0 82 43 00
        E 0 92 30 40
        E 1886 82 43 00
        E 5 82 43 00
        E 1 82 43 00
        E 5 82 43 00
        E 0 82 43 00
        E 4 92 43 40
        E 1 82 30 00
        E 1 92 40 40
        E 7 92 30 40
        E 1 82 3b 00
        E 0 92 3b 54
        E 6 92 30 40
        E 3 92 43 40
        E 1 92 30 40
        E 2 92 43 40
        E 2 82 40 00
        E 1889 82 43 00
        E 7 92 43 40
        E 2 92 40 40
        E 0 92 40 40
        E 0 92 43 40
        E 6 82 40 00
        E 2 82 3b 00
        E 0 92 3b 52
        E 4 82 30 00
        E 0 92 43 40
        E 4 82 30 00
        E 2 82 30 00
        E 1 92 43 40
        E 3 92 43 40
        E 6 82 43 00
        E 4 82 43 00
        E 1881 82 40 00
        E 1 82 40 00
        E 0 92 43 40
        E 1 82 43 00
        E 0 82 43 00
        E 4 92 43 40
        E 0 92 43 40
        E 2 82 43 00
        E 2 92 30 40
        E 4 92 43 40
        E 1 82 3b 00
        E 0 92 48 52
        E 2 82 43 00
        E 5 92 43 40
        E 4 92 40 40
        E 7 82 43 00
        E 1881 82 43 00
        E 3 82 30 00
        E 3 82 43 00
        E 1 92 43 40
        E 2 82 43 00
        E 10 92 43 40
        E 2 82 48 00
        E 0 92 3c 50
        E 6 82 40 00
        E 1 92 43 40
        E 1 92 43 40
        E 0 92 43 40
        E 1 92 43 40
        E 2 92 43 40
        E 2 82 43 00
        E 7 82 43 00
        E 1868 82 43 00
        E 21 92 43 40
        E 8 92 43 40
        E 2 82 43 00
        E 1 82 3c 00
        E 0 92 3c 4e
        E 0 92 41 40
        E 3 82 43 00
        E 0 82 43 00
        E 6 82 43 00
        E 1 82 43 00
        E 0 92 43 40
        E 2 92 43 40
        E 1 92 30 40
        E 1 92 30 40
        E 10 82 43 00
        E 1867 82 43 00
        E 12 82 43 00
        E 4 92 30 40
        E 1 92 43 40
        E 7 92 30 40
        E 3 92 30 40
        E 0 92 43 40
        E 2 82 3c 00
        E 0 92 3c 4c
        E 4 92 43 40
        E 2 92 43 40
        E 2 82 41 00
        E 5 82 43 00
        E 12 82 30 00
        E 1 82 43 00
        E 3 82 30 00
        E 1869 82 30 00
        E 6 82 30 00
        E 4 92 30 40
        E 2 92 30 40
        E 2 82 43 00
        E 4 82 43 00
        E 2 92 43 40
        E 1 92 43 40
        E 1 82 3c 00
        E 0 92 3b 4b
        E 3 82 30 00
        E 1 92 43 40
        E 1 92 43 40
        E 2 82 43 00
        E 1 92 30 40
        E 10 82 43 00
        E 1889 82 43 00
        E 2 92 43 40
        E 7 92 43 40
        E 2 82 43 00
        E 1 92 43 40
        E 1 82 30 00
        E 0 82 3b 00
        E 0 92 3b 49
        E 2 82 43 00
        E 1 92 43 40
        E 2 92 40 40
        E 1 92 43 40
        E 1 82 30 00
        E 3 92 43 40
        E 7 82 43 00
        E 10 82 30 00
        E 1872 82 43 00
        E 5 82 43 00
        E 3 92 30 40
        E 4 92 30 40
        E 2 92 43 40
        E 0 92 43 40
        E 5 92 43 40
        E 2 82 3b 00
        E 0 82 40 00
        E 0 92 43 40
        E 0 92 3b 49
        E 2 92 30 40
        E 1 82 43 00
        E 17 82 43 00
        E 3 82 43 00
        E 4 82 43 00
        E 1878 82 30 00
        E 1 82 30 00
        E 1 92 30 40
        E 11 92 43 40
        E 1 82 43 00
        E 1 82 30 00
        E 0 82 3b 00
        E 0 92 3b 47
        E 2 82 43 00
        E 2 92 43 40
        E 0 92 40 40
        E 1 92 43 40
        E 0 92 40 40
        E 3 82 43 00
        E 1 92 43 40
        E 1 82 43 00
        E 1892 82 43 00
        E 11 92 43 40
        E 1 82 43 00
        E 6 82 3b 00
        E 0 92 39 45
        E 6 82 30 00
        E 0 92 40 40
        E 4 82 43 00
        E 2 92 43 40
        E 1 82 40 00
        E 1 82 40 00
        E 4 82 43 00
        E 1895 82 43 00
        E 7 82 39 00
        E 7 82 43 00
        E 0 92 30 40
        E 7 82 40 00
        E 1896 82 30 00
        E 8 92 41 40
        E 1910 92 30 40
        E 6 92 30 40
        E 19 82 41 00
        E 1885 82 30 00
        E 8 92 43 40
        E 3 82 30 00
        E 23 92 43 40
        E 1894 82 43 00
        E 4 92 43 40
        E 19 92 43 40
        E 10 82 43 00
        E 1900 82 43 00
        E 1 92 37 40
        E 3 92 43 40
        E 2 82 43 00
        E 1910 92 30 40
        E 5 82 37 00
        E 0 82 43 00
        E 9 92 43 40
        E 1901 92 43 40
        E 5 92 43 40
        E 1 82 30 00
        E 0 82 43 00
        E 2 92 43 40
        E 2 92 43 40
        E 1909 92 43 40
        E 3 92 43 40
        E 4 82 43 00
        E 4 92 37 40
        E 1 82 43 00
        E 0 92 43 40
        E 2 82 43 00
        E 0 82 43 00
        E 1895 82 43 00
        E 3 82 43 00
        E 19 82 37 00
        E 8 82 43 00
        E 0 b2 7b 00
        E 1 ff 2f 00
      >
    >
  >
  <TRACK
    NAME "Choir"
    PEAKCOL 4284506208
    VOLPAN 1.000000 0 1 -1
    MIDIOUT -1
    ISBUS 0 0
    <ITEM
      POSITION 0.010027
      LENGTH 86.502257
      NAME "Choir"
      VOLPAN 1 0 1 -1
      <SOURCE MIDI
        HASDATA 1 960 QN
        E 0 c3 34 00
        E 12 93 3b 57
        E 5 93 34 5f
        E 3528 83 3b 00
        E 5 83 34 00
        E 306 93 32 57
        E 3533 83 32 00
        E 300 93 41 5f
        E 6 93 39 57
        E 3527 83 41 00
        E 6 83 39 00
        E 296 93 40 5f
        E 5 93 37 5b
        E 3528 83 40 00
        E 5 83 37 00
        E 298 93 40 5b
        E 20 93 34 5f
        E 3513 83 40 00
        E 20 83 34 00
        E 306 93 32 59
        E 3533 83 32 00
        E 291 93 3c 59
        E 2 93 41 5f
        E 11 93 39 59
        E 0 93 32 59
        E 3520 83 3c 00
        E 2 83 41 00
        E 11 83 39 00
        E 0 83 32 00
        E 299 93 40 57
        E 0 93 37 5d
        E 5 93 3b 5b
        E 6 93 34 57
        E 3522 83 40 00
        E 0 83 37 00
        E 5 83 3b 00
        E 6 83 34 00
        E 293 93 40 5f
        E 0 93 37 5d
        E 13 93 3b 5b
        E 1 93 34 5d
        E 3519 83 40 00
        E 0 83 37 00
        E 13 83 3b 00
        E 1 83 34 00
        E 295 93 3c 5f
        E 5 93 40 5f
        E 6 93 39 5f
        E 9 93 32 57
        E 3513 83 3c 00
        E 5 83 40 00
        E 6 83 39 00
        E 9 83 32 00
        E 281 93 3c 59
        E 10 93 39 57
        E 0 93 41 5d
        E 7 93 32 57
        E 3516 83 3c 00
        E 10 83 39 00
        E 0 83 41 00
        E 7 83 32 00
        E 290 93 40 5f
        E 7 93 37 5f
        E 5 93 3b 59
        E 12 93 34 59
        E 3509 83 40 00
        E 7 83 37 00
        E 5 83 3b 00
        E 12 83 34 00
        E 287 93 40 5f
        E 8 93 37 5d
        E 1 93 3b 57
        E 8 93 34 5f
        E 3516 83 40 00
        E 8 83 37 00
        E 1 83 3b 00
        E 8 83 34 00
        E 286 93 3c 57
        E 8 93 40 5f
        E 7 93 37 5b
        E 13 93 32 5b
        E 3505 83 3c 00
        E 8 83 40 00
        E 7 83 37 00
        E 13 83 32 00
        E 286 93 3c 57
        E 4 93 41 59
        E 7 93 32 5b
        E 0 93 39 5d
        E 3522 83 3c 00
        E 4 83 41 00
        E 7 83 32 00
        E 0 83 39 00
        E 291 93 40 5d
        E 4 93 37 5b
        E 4 93 3b 5f
        E 9 93 34 57
        E 3516 83 40 00
        E 4 83 37 00
        E 4 83 3b 00
        E 9 83 34 00
        E 288 93 40 57
        E 8 93 37 5b
        E 2 93 3b 59
        E 10 93 34 5b
        E 3513 83 40 00
        E 8 83 37 00
        E 2 83 3b 00
        E 10 83 34 00
        E 293 93 40 5b
        E 2 93 3c 59
        E 1 93 37 5f
        E 11 93 32 5d
        E 3519 83 40 00
        E 2 83 3c 00
        E 1 83 37 00
        E 11 83 32 00
        E 288 93 3c 5d
        E 10 93 41 5f
        E 3 93 39 5f
        E 0 93 32 5f
        E 3520 83 3c 00
        E 10 83 41 00
        E 3 83 39 00
        E 0 83 32 00
        E 298 93 40 5f
        E 8 93 37 5f
        E 1 93 3b 5f
        E 2 93 34 5f
        E 3522 83 40 00
        E 8 83 37 00
        E 1 83 3b 00
        E 2 83 34 00
        E 295 93 37 57
        E 1 93 40 5f
        E 9 93 3b 5b
        E 9 93 34 57
        E 3514 83 37 00
        E 1 83 40 00
        E 9 83 3b 00
        E 9 83 34 00
        E 297 93 40 57
        E 16 93 32 5b
        E 3517 83 40 00
        E 16 83 32 00
        E 11804 93 40 5d
        E 7 93 37 57
        E 3526 83 40 00
        E 7 83 37 00
        E 0 b3 7b 00
        E 1 ff 2f 00
      >
    >
  >
  <TRACK
    NAME "Oboe"
    PEAKCOL 4282040170
    VOLPAN 1.000000 0 1 -1
    MIDIOUT -1
    ISBUS 0 0
    <ITEM
      POSITION 10.009933
      LENGTH 83.428827
      NAME "Oboe"
      VOLPAN 1 0 1 -1
      <SOURCE MIDI
        HASDATA 1 960 QN
        E 0 c4 44 00
        E 11531 94 48 5b
        E 3840 84 48 00
        E 7679 94 4c 59
        E 3840 84 4c 00
        E 3839 94 48 59
        E 3832 94 4c 57
        E 8 84 48 00
        E 3832 84 4c 00
        E 3841 94 48 57
        E 3840 84 48 00
        E 3 94 4c 56
        E 3840 84 4c 00
        E 3837 94 4c 54
        E 3839 94 4c 57
        E 1 84 4c 00
        E 3839 84 4c 00
        E 3849 94 47 56
        E 3834 94 4c 56
        E 6 84 47 00
        E 3834 84 4c 00
        E 3837 94 51 57
        E 3840 84 51 00
        E 6 94 56 5d
        E 3840 84 56 00
        E 19199 94 54 5d
        E 3840 84 54 00
        E 0 b4 7b 00
        E 1 ff 2f 00
      >
    >
  >
  <TRACK
    NAME "Bass"
    PEAKCOL 4286528191
    VOLPAN 1.000000 0 1 -1
    MIDIOUT -1
    ISBUS 0 0
    <ITEM
      POSITION 0.000000
      LENGTH 86.683333
      NAME "Bass"
      VOLPAN 1 0 1 -1
      <SOURCE MIDI
        HASDATA 1 960 QN
        E 0 c5 2b 00
        E 0 95 28 75
        E 864 85 28 00
        E 96 95 2b 6a
        E 864 85 2b 00
        E 96 95 2f 75
        E 864 85 2f 00
        E 96 95 2f 6a
        E 864 85 2f 00
        E 96 95 30 75
        E 864 85 30 00
        E 96 95 32 6a
        E 864 85 32 00
        E 96 95 37 75
        E 864 85 37 00
        E 96 95 37 6a
        E 864 85 37 00
        E 96 95 37 75
        E 864 85 37 00
        E 96 95 32 6a
        E 864 85 32 00
        E 96 95 2d 75
        E 864 85 2d 00
        E 96 95 32 6a
        E 864 85 32 00
        E 96 95 34 75
        E 864 85 34 00
        E 96 95 30 6a
        E 864 85 30 00
        E 96 95 2f 75
        E 864 85 2f 00
        E 96 95 2d 6a
        E 864 85 2d 00
        E 96 95 28 75
        E 864 85 28 00
        E 96 95 2d 6a
        E 864 85 2d 00
        E 96 95 2f 75
        E 864 85 2f 00
        E 96 95 32 6a
        E 864 85 32 00
        E 96 95 30 75
        E 864 85 30 00
        E 96 95 2d 6a
        E 864 85 2d 00
        E 96 95 2b 75
        E 864 85 2b 00
        E 96 95 28 6a
        E 864 85 28 00
        E 96 95 24 75
        E 864 85 24 00
        E 96 95 21 6a
        E 864 85 21 00
        E 96 95 21 75
        E 864 85 21 00
        E 96 95 1f 6a
        E 864 85 1f 00
        E 96 95 1c 75
        E 864 85 1c 00
        E 96 95 21 6a
        E 864 85 21 00
        E 96 95 23 75
        E 864 85 23 00
        E 96 95 24 6a
        E 864 85 24 00
        E 96 95 28 75
        E 864 85 28 00
        E 96 95 28 6a
        E 864 85 28 00
        E 96 95 23 75
        E 864 85 23 00
        E 96 95 28 6a
        E 864 85 28 00
        E 96 95 24 75
        E 864 85 24 00
        E 96 95 21 6a
        E 864 85 21 00
        E 96 95 21 75
        E 864 85 21 00
        E 96 95 1f 6a
        E 864 85 1f 00
        E 96 95 24 75
        E 864 85 24 00
        E 96 95 28 6a
        E 864 85 28 00
        E 96 95 2d 75
        E 864 85 2d 00
        E 96 95 2d 6a
        E 864 85 2d 00
        E 96 95 28 75
        E 864 85 28 00
        E 96 95 29 6a
        E 864 85 29 00
        E 96 95 2f 75
        E 864 85 2f 00
        E 96 95 2d 6a
        E 864 85 2d 00
        E 96 95 28 75
        E 864 85 28 00
        E 96 95 2b 6a
        E 864 85 2b 00
        E 96 95 2f 75
        E 864 85 2f 00
        E 96 95 32 6a
        E 864 85 32 00
        E 96 95 30 75
        E 864 85 30 00
        E 96 95 2d 6a
        E 864 85 2d 00
        E 96 95 2b 75
        E 864 85 2b 00
        E 96 95 29 6a
        E 864 85 29 00
        E 96 95 24 75
        E 864 85 24 00
        E 96 95 24 6a
        E 864 85 24 00
        E 96 95 21 75
        E 864 85 21 00
        E 96 95 1c 6a
        E 864 85 1c 00
        E 96 95 1c 75
        E 864 85 1c 00
        E 96 95 1d 6a
        E 864 85 1d 00
        E 96 95 23 75
        E 864 85 23 00
        E 96 95 24 6a
        E 864 85 24 00
        E 96 95 28 75
        E 864 85 28 00
        E 96 95 2d 6a
        E 864 85 2d 00
        E 96 95 2f 75
        E 864 85 2f 00
        E 96 95 2b 6a
        E 864 85 2b 00
        E 96 95 30 75
        E 864 85 30 00
        E 96 95 30 6a
        E 864 85 30 00
        E 96 95 2b 75
        E 864 85 2b 00
        E 96 95 2f 6a
        E 864 85 2f 00
        E 96 95 30 75
        E 864 85 30 00
        E 96 95 2b 6a
        E 864 85 2b 00
        E 96 95 2d 75
        E 864 85 2d 00
        E 96 95 29 6a
        E 864 85 29 00
        E 96 95 28 75
        E 864 85 28 00
        E 96 95 28 6a
        E 864 85 28 00
        E 96 95 23 75
        E 864 85 23 00
        E 96 95 1f 6a
        E 864 85 1f 00
        E 96 95 1c 75
        E 864 85 1c 00
        E 96 95 1c 6a
        E 864 85 1c 00
        E 96 95 1c 75
        E 864 85 1c 00
        E 96 95 1c 6a
        E 864 85 1c 00
        E 96 95 1c 75
        E 864 85 1c 00
        E 96 95 21 6a
        E 864 85 21 00
        E 96 95 21 75
        E 864 85 21 00
        E 96 95 23 6a
        E 864 85 23 00
        E 96 95 24 75
        E 864 85 24 00
        E 96 95 28 6a
        E 864 85 28 00
        E 96 95 2d 75
        E 864 85 2d 00
        E 96 95 2b 6a
        E 864 85 2b 00
        E 96 95 28 75
        E 864 85 28 00
        E 96 95 29 6a
        E 864 85 29 00
        E 96 95 2f 75
        E 864 85 2f 00
        E 96 95 2d 6a
        E 864 85 2d 00
        E 96 95 28 75
        E 864 85 28 00
        E 96 95 24 6a
        E 864 85 24 00
        E 96 95 23 75
        E 864 85 23 00
        E 96 95 24 6a
        E 864 85 24 00
        E 96 95 24 75
        E 864 85 24 00
        E 96 95 29 6a
        E 864 85 29 00
        E 96 95 2b 75
        E 864 85 2b 00
        E 96 95 2b 6a
        E 864 85 2b 00
        E 0 b5 7b 00
        E 1 ff 2f 00
      >
    >
  >
  <TRACK
    NAME "Drone"
    PEAKCOL 4284506208
    VOLPAN 1.000000 0 1 -1
    MIDIOUT -1
    ISBUS 0 0
    <ITEM
      POSITION 0.000000
      LENGTH 86.766667
      NAME "Drone"
      VOLPAN 1 0 1 -1
      <SOURCE MIDI
        HASDATA 1 960 QN
        E 0 c6 2b 00
        E 0 96 1c 43
        E 0 96 23 43
        E 7680 86 1c 00
        E 0 86 23 00
        E 0 96 1c 43
        E 0 96 23 43
        E 7680 86 1c 00
        E 0 86 23 00
        E 0 96 1c 43
        E 0 96 23 43
        E 7680 86 1c 00
        E 0 86 23 00
        E 0 96 1c 43
        E 0 96 23 43
        E 7680 86 1c 00
        E 0 86 23 00
        E 0 96 1c 43
        E 0 96 23 43
        E 7680 86 1c 00
        E 0 86 23 00
        E 0 96 1c 43
        E 0 96 23 43
        E 7680 86 1c 00
        E 0 86 23 00
        E 0 96 1c 43
        E 0 96 23 43
        E 7680 86 1c 00
        E 0 86 23 00
        E 0 96 1c 43
        E 0 96 23 43
        E 7680 86 1c 00
        E 0 86 23 00
        E 0 96 1c 43
        E 0 96 23 43
        E 7680 86 1c 00
        E 0 86 23 00
        E 0 96 1c 43
        E 0 96 23 43
        E 7680 86 1c 00
        E 0 86 23 00
        E 0 96 1c 43
        E 0 96 23 43
        E 7680 86 1c 00
        E 0 86 23 00
        E 0 96 1c 43
        E 0 96 23 43
        E 7680 86 1c 00
        E 0 86 23 00
        E 0 96 1c 43
        E 0 96 23 43
        E 7680 86 1c 00
        E 0 86 23 00
        E 0 b6 7b 00
        E 1 ff 2f 00
      >
    >
  >
  <TRACK
    NAME "Timpani"
    PEAKCOL 4290722362
    VOLPAN 1.000000 0 1 -1
    MIDIOUT -1
    ISBUS 0 0
    <ITEM
      POSITION 1.666667
      LENGTH 84.600000
      NAME "Timpani"
      VOLPAN 1 0 1 -1
      <SOURCE MIDI
        HASDATA 1 960 QN
        E 0 c7 2f 00
        E 1920 97 2f 79
        E 1536 87 2f 00
        E 2304 97 2b 7a
        E 1536 87 2b 00
        E 6144 97 2f 79
        E 1536 87 2f 00
        E 2304 97 2f 7b
        E 1536 87 2f 00
        E 384 97 24 7d
        E 1920 97 2b 79
        E 1344 87 24 00
        E 192 87 2b 00
        E 384 97 24 7d
        E 1920 97 39 79
        E 1344 87 24 00
        E 192 87 39 00
        E 384 97 28 7d
        E 1920 97 2f 7b
        E 1344 87 28 00
        E 192 87 2f 00
        E 384 97 28 7d
        E 1920 97 2f 7a
        E 1344 87 28 00
        E 192 87 2f 00
        E 384 97 24 7d
        E 1920 97 39 77
        E 1344 87 24 00
        E 192 87 39 00
        E 384 97 24 7d
        E 1920 97 39 78
        E 1344 87 24 00
        E 192 87 39 00
        E 384 97 28 7d
        E 1920 97 2f 7a
        E 1344 87 28 00
        E 192 87 2f 00
        E 384 97 28 7d
        E 1920 97 2f 7b
        E 1344 87 28 00
        E 192 87 2f 00
        E 384 97 24 7d
        E 1920 97 2b 7a
        E 1344 87 24 00
        E 192 87 2b 00
        E 384 97 24 7d
        E 1920 97 39 79
        E 1344 87 24 00
        E 192 87 39 00
        E 384 97 28 7d
        E 1920 97 2f 7b
        E 1344 87 28 00
        E 192 87 2f 00
        E 384 97 28 7d
        E 1920 97 2f 7b
        E 1344 87 28 00
        E 192 87 2f 00
        E 384 97 24 7d
        E 1920 97 2b 77
        E 1344 87 24 00
        E 192 87 2b 00
        E 384 97 24 7d
        E 1920 97 39 79
        E 1344 87 24 00
        E 192 87 39 00
        E 384 97 28 7d
        E 1920 97 2f 7a
        E 1344 87 28 00
        E 192 87 2f 00
        E 384 97 28 7d
        E 1920 97 2f 7b
        E 1344 87 28 00
        E 192 87 2f 00
        E 2304 97 39 78
        E 1536 87 39 00
        E 384 97 24 7d
        E 3264 87 24 00
        E 2496 97 2f 77
        E 1536 87 2f 00
        E 4224 97 24 7d
        E 3264 87 24 00
        E 0 b7 7b 00
        E 1 ff 2f 00
      >
    >
  >
>
