<REAPER_PROJECT 0.1 "7.0" 1700000000
  TEMPO 92.000000 4 4
  SAMPLERATE 48000 0 0
  RENDER_FILE ""
  RENDER_FMT 0 2 0
  RENDER_1X 0
  RENDER_RANGE 1 0 65.090271 0 0
  RENDER_RESAMPLE 3 0 1
  <MASTERTRACK
    VOLPAN 1 0 1 -1
    DEFCHAN 0
  >
  <TRACK
    NAME "Lead"
    PEAKCOL 4284506208
    VOLPAN 1.000000 0 1 -1
    MIDIOUT -1
    ISBUS 0 0
    <ITEM
      POSITION 0.000721
      LENGTH 63.189549
      NAME "Lead"
      VOLPAN 1 0 1 -1
      <SOURCE MIDI
        HASDATA 1 960 QN
        E 0 c0 28 00
        E 1 90 55 6c
        E 954 80 55 00
        E 74 90 52 50
        E 954 80 52 00
        E 41 90 55 50
        E 867 80 55 00
        E 399 90 52 59
        E 268 90 52 55
        E 599 80 52 00
        E 268 80 52 00
        E 160 90 52 50
        E 438 80 52 00
        E 582 90 56 50
        E 867 80 56 00
        E 262 90 55 50
        E 780 80 55 00
        E 127 90 58 50
        E 780 80 58 00
        E 229 90 55 5e
        E 954 80 55 00
        E 308 90 58 50
        E 385 90 55 50
        E 240 80 55 00
        E 146 90 51 50
        E 96 80 58 00
        E 771 80 51 00
        E 139 90 52 52
        E 867 80 52 00
        E 176 90 51 50
        E 656 80 51 00
        E 340 90 52 50
        E 867 80 52 00
        E 662 90 51 50
        E 780 80 51 00
        E 368 90 4f 59
        E 224 90 51 50
        E 225 90 52 50
        E 15 80 51 00
        E 210 90 56 50
        E 15 80 52 00
        E 209 90 58 7a
        E 16 80 56 00
        E 49 80 4f 00
        E 802 80 58 00
        E 135 90 55 62
        E 867 80 55 00
        E 396 90 58 5b
        E 867 80 58 00
        E 269 90 58 50
        E 867 80 58 00
        E 46 90 55 52
        E 867 80 55 00
        E 146 90 58 50
        E 394 80 58 00
        E 382 90 58 50
        E 633 90 55 67
        E 321 80 58 00
        E 401 80 55 00
        E 173 90 58 75
        E 251 90 55 50
        E 240 80 55 00
        E 11 90 52 54
        E 867 80 52 00
        E 145 90 55 59
        E 236 80 58 00
        E 631 80 55 00
        E 166 90 52 69
        E 867 80 52 00
        E 149 90 52 55
        E 867 80 52 00
        E 642 90 55 50
        E 394 80 55 00
        E 650 90 55 50
        E 954 80 55 00
        E 55 90 56 50
        E 513 90 55 50
        E 240 80 55 00
        E 201 80 56 00
        E 73 90 51 50
        E 867 80 51 00
        E 489 90 52 50
        E 867 80 52 00
        E 157 90 51 5b
        E 513 90 55 60
        E 240 80 55 00
        E 114 80 51 00
        E 160 90 58 7d
        E 636 90 55 50
        E 231 80 58 00
        E 163 80 55 00
        E 629 90 55 50
        E 780 80 55 00
        E 362 90 58 50
        E 910 90 56 50
        E 44 80 58 00
        E 823 80 56 00
        E 638 90 56 60
        E 258 90 55 50
        E 180 80 56 00
        E 60 80 55 00
        E 18 90 51 50
        E 219 80 51 00
        E 796 90 52 75
        E 867 80 52 00
        E 151 90 52 50
        E 219 80 52 00
        E 914 90 4f 50
        E 591 80 4f 00
        E 329 90 51 50
        E 954 80 51 00
        E 48 90 4f 50
        E 205 90 51 50
        E 206 90 55 50
        E 34 80 51 00
        E 171 90 56 50
        E 35 80 55 00
        E 171 90 58 50
        E 34 80 56 00
        E 98 80 4f 00
        E 74 90 5b 73
        E 34 80 58 00
        E 833 80 5b 00
        E 649 90 58 52
        E 438 80 58 00
        E 711 90 55 59
        E 867 80 55 00
        E 24 90 58 62
        E 867 80 58 00
        E 275 90 55 50
        E 394 80 55 00
        E 1129 90 58 50
        E 906 90 56 50
        E 48 80 58 00
        E 819 80 56 00
        E 147 90 56 50
        E 867 80 56 00
        E 512 90 59 50
        E 438 80 59 00
        E 467 90 58 50
        E 762 90 58 71
        E 105 80 58 00
        E 770 80 58 00
        E 391 90 55 50
        E 780 80 55 00
        E 1 90 56 50
        E 954 80 56 00
        E 297 90 55 50
        E 954 80 55 00
        E 318 90 51 50
        E 867 80 51 00
        E 155 90 52 50
        E 438 80 52 00
        E 86 90 51 50
        E 867 80 51 00
        E 150 90 52 54
        E 867 80 52 00
        E 150 90 52 50
        E 394 80 52 00
        E 852 90 51 50
        E 283 90 51 75
        E 497 80 51 00
        E 457 80 51 00
        E 169 90 55 50
        E 905 90 52 52
        E 49 80 55 00
        E 607 80 52 00
        E 373 90 52 52
        E 867 80 52 00
        E 139 90 52 50
        E 867 80 52 00
        E 147 90 55 54
        E 656 80 55 00
        E 365 90 52 50
        E 780 80 52 00
        E 463 90 52 50
        E 780 80 52 00
        E 1 90 51 50
        E 481 80 51 00
        E 554 90 4f 57
        E 731 90 51 57
        E 136 80 4f 00
        E 641 90 55 50
        E 90 80 51 00
        E 777 80 55 00
        E 146 90 52 50
        E 438 80 52 00
        E 605 90 52 50
        E 867 80 52 00
        E 652 90 52 50
        E 780 80 52 00
        E 236 90 51 50
        E 494 90 4f 50
        E 286 80 51 00
        E 668 80 4f 00
        E 88 90 51 50
        E 954 80 51 00
        E 46 90 55 50
        E 867 80 55 00
        E 165 90 52 50
        E 867 80 52 00
        E 387 90 52 6e
        E 219 80 52 00
        E 550 90 51 50
        E 867 80 51 00
        E 160 90 52 50
        E 780 80 52 00
        E 228 90 51 50
        E 780 80 51 00
        E 0 b0 7b 00
        E 1 ff 2f 00
      >
    >
  >
  <TRACK
    NAME "Trumpet"
    PEAKCOL 4290740026
    VOLPAN 1.000000 0 1 -1
    MIDIOUT -1
    ISBUS 0 0
    <ITEM
      POSITION 0.652174
      LENGTH 59.350000
      NAME "Trumpet"
      VOLPAN 1 0 1 -1
      <SOURCE MIDI
        HASDATA 1 960 QN
        E 0 c1 38 00
        E 960 91 4c 69
        E 816 81 4c 00
        E 1104 91 52 77
        E 816 81 52 00
        E 6864 91 52 77
        E 816 81 52 00
        E 4944 91 52 69
        E 816 81 52 00
        E 144 91 52 73
        E 816 81 52 00
        E 4944 91 52 5e
        E 816 81 52 00
        E 144 91 52 69
        E 816 81 52 00
        E 144 91 52 73
        E 816 81 52 00
        E 144 91 52 77
        E 816 81 52 00
        E 3984 91 52 5e
        E 816 81 52 00
        E 144 91 52 69
        E 816 81 52 00
        E 144 91 52 73
        E 816 81 52 00
        E 144 91 52 77
        E 816 81 52 00
        E 3984 91 52 5e
        E 816 81 52 00
        E 144 91 52 69
        E 816 81 52 00
        E 144 91 52 73
        E 816 81 52 00
        E 144 91 52 77
        E 816 81 52 00
        E 3984 91 52 5e
        E 816 81 52 00
        E 144 91 52 69
        E 816 81 52 00
        E 144 91 52 73
        E 816 81 52 00
        E 144 91 52 77
        E 816 81 52 00
        E 3984 91 52 5e
        E 816 81 52 00
        E 144 91 52 69
        E 816 81 52 00
        E 144 91 52 73
        E 816 81 52 00
        E 144 91 52 77
        E 816 81 52 00
        E 3984 91 52 5e
        E 816 81 52 00
        E 144 91 52 69
        E 816 81 52 00
        E 144 91 52 73
        E 816 81 52 00
        E 144 91 52 77
        E 816 81 52 00
        E 3984 91 52 5e
        E 816 81 52 00
        E 144 91 52 69
        E 816 81 52 00
        E 144 91 52 73
        E 816 81 52 00
        E 144 91 52 77
        E 816 81 52 00
        E 3984 91 52 5e
        E 816 81 52 00
        E 144 91 52 69
        E 816 81 52 00
        E 5904 91 52 5e
        E 816 81 52 00
        E 2064 91 52 77
        E 816 81 52 00
        E 0 b1 7b 00
        E 1 ff 2f 00
      >
    >
  >
  <TRACK
    NAME "Brass"
    PEAKCOL 4290740026
    VOLPAN 1.000000 0 1 -1
    MIDIOUT -1
    ISBUS 0 0
    <ITEM
      POSITION 5.223691
      LENGTH 57.425668
      NAME "Brass"
      VOLPAN 1 0 1 -1
      <SOURCE MIDI
        HASDATA 1 960 QN
        E 0 c2 3d 00
        E 7689 92 39 78
        E 0 92 45 78
        E 1152 82 39 00
        E 0 82 45 00
        E 1008 92 39 78
        E 1 92 39 78
        E 1151 82 39 00
        E 1 82 39 00
        E 998 92 46 78
        E 10 92 3a 78
        E 1 92 3a 78
        E 1141 82 46 00
        E 10 82 3a 00
        E 1 82 3a 00
        E 1007 92 3a 78
        E 2 92 46 78
        E 1150 82 3a 00
        E 2 82 46 00
        E 1009 92 39 78
        E 1152 82 39 00
        E 995 92 45 78
        E 8 92 45 78
        E 1 92 39 78
        E 1 92 39 78
        E 1 92 39 78
        E 1141 82 45 00
        E 8 82 45 00
        E 1 82 39 00
        E 1 82 39 00
        E 1 82 39 00
        E 997 92 45 78
        E 7 92 39 78
        E 3 92 39 78
        E 1 92 45 78
        E 1 92 39 78
        E 1140 82 45 00
        E 7 82 39 00
        E 3 82 39 00
        E 1 82 45 00
        E 1 82 39 00
        E 996 92 45 78
        E 8 92 39 78
        E 2 92 39 78
        E 0 92 45 78
        E 3 92 39 78
        E 1139 82 45 00
        E 8 82 39 00
        E 2 82 39 00
        E 0 82 45 00
        E 3 82 39 00
        E 995 92 45 78
        E 7 92 45 78
        E 1 92 39 78
        E 3 92 39 78
        E 2 92 39 78
        E 1139 82 45 00
        E 7 82 45 00
        E 1 82 39 00
        E 3 82 39 00
        E 2 82 39 00
        E 995 92 46 78
        E 7 92 3a 78
        E 1 92 46 78
        E 2 92 3a 78
        E 1 92 3a 78
        E 1141 82 46 00
        E 7 82 3a 00
        E 1 82 46 00
        E 2 82 3a 00
        E 1 82 3a 00
        E 997 92 46 78
        E 8 92 3a 78
        E 3 92 3a 78
        E 0 92 46 78
        E 2 92 3a 78
        E 1139 82 46 00
        E 8 82 3a 00
        E 3 82 3a 00
        E 0 82 46 00
        E 2 82 3a 00
        E 995 92 45 78
        E 8 92 45 78
        E 2 92 39 78
        E 1 92 39 78
        E 1 92 39 78
        E 1140 82 45 00
        E 8 82 45 00
        E 2 82 39 00
        E 1 82 39 00
        E 1 82 39 00
        E 996 92 45 78
        E 5 92 39 78
        E 1 92 45 78
        E 1 92 39 78
        E 5 92 39 78
        E 1140 82 45 00
        E 5 82 39 00
        E 1 82 45 00
        E 1 82 39 00
        E 5 82 39 00
        E 996 92 45 78
        E 8 92 39 78
        E 1 92 39 78
        E 3 92 39 78
        E 0 92 45 78
        E 1140 82 45 00
        E 8 82 39 00
        E 1 82 39 00
        E 3 82 39 00
        E 0 82 45 00
        E 996 92 45 78
        E 6 92 39 78
        E 0 92 39 78
        E 1 92 45 78
        E 4 92 39 78
        E 1141 82 45 00
        E 6 82 39 00
        E 0 82 39 00
        E 1 82 45 00
        E 4 82 39 00
        E 997 92 45 78
        E 7 92 39 78
        E 4 92 45 78
        E 0 92 39 78
        E 2 92 39 78
        E 1139 82 45 00
        E 7 82 39 00
        E 4 82 45 00
        E 0 82 39 00
        E 2 82 39 00
        E 995 92 46 78
        E 5 92 46 78
        E 0 92 3a 78
        E 6 92 3a 78
        E 2 92 3a 78
        E 1139 82 46 00
        E 5 82 46 00
        E 0 82 3a 00
        E 6 82 3a 00
        E 2 82 3a 00
        E 995 92 46 78
        E 6 92 3a 78
        E 2 92 3a 78
        E 2 92 46 78
        E 3 92 3a 78
        E 1139 82 46 00
        E 6 82 3a 00
        E 2 82 3a 00
        E 2 82 46 00
        E 3 82 3a 00
        E 995 92 46 78
        E 7 92 3a 78
        E 1 92 3a 78
        E 1 92 46 78
        E 5 92 3a 78
        E 1138 82 46 00
        E 7 82 3a 00
        E 1 82 3a 00
        E 1 82 46 00
        E 5 82 3a 00
        E 994 92 46 78
        E 7 92 3a 78
        E 2 92 46 78
        E 4 92 3a 78
        E 0 92 3a 78
        E 1139 82 46 00
        E 7 82 3a 00
        E 2 82 46 00
        E 4 82 3a 00
        E 0 82 3a 00
        E 995 92 45 78
        E 9 92 45 78
        E 0 92 39 78
        E 2 92 39 78
        E 1 92 39 78
        E 1140 82 45 00
        E 9 82 45 00
        E 0 82 39 00
        E 2 82 39 00
        E 1 82 39 00
        E 996 92 45 78
        E 6 92 39 78
        E 1 92 45 78
        E 2 92 39 78
        E 1 92 39 78
        E 1142 82 45 00
        E 6 82 39 00
        E 1 82 45 00
        E 2 82 39 00
        E 1 82 39 00
        E 998 92 45 78
        E 10 92 45 78
        E 1 92 39 78
        E 3 92 39 78
        E 0 92 39 78
        E 1138 82 45 00
        E 10 82 45 00
        E 1 82 39 00
        E 3 82 39 00
        E 0 82 39 00
        E 994 92 45 78
        E 7 92 45 78
        E 3 92 39 78
        E 1 92 39 78
        E 3 92 39 78
        E 1138 82 45 00
        E 7 82 45 00
        E 3 82 39 00
        E 1 82 39 00
        E 3 82 39 00
        E 994 92 46 78
        E 5 92 3a 78
        E 2 92 3a 78
        E 0 92 46 78
        E 6 92 3a 78
        E 1139 82 46 00
        E 5 82 3a 00
        E 2 82 3a 00
        E 0 82 46 00
        E 6 82 3a 00
        E 995 92 45 78
        E 8 92 39 78
        E 1 92 39 78
        E 1 92 45 78
        E 4 92 39 78
        E 1138 82 45 00
        E 8 82 39 00
        E 1 82 39 00
        E 1 82 45 00
        E 4 82 39 00
        E 994 92 45 78
        E 8 92 39 78
        E 1 92 39 78
        E 3 92 39 78
        E 1 92 45 78
        E 1139 82 45 00
        E 8 82 39 00
        E 1 82 39 00
        E 3 82 39 00
        E 1 82 45 00
        E 995 92 45 78
        E 7 92 39 78
        E 1 92 39 78
        E 4 92 45 78
        E 2 92 39 78
        E 1138 82 45 00
        E 7 82 39 00
        E 1 82 39 00
        E 4 82 45 00
        E 2 82 39 00
        E 994 92 45 78
        E 8 92 45 78
        E 0 92 39 78
        E 1 92 39 78
        E 2 92 39 78
        E 1141 82 45 00
        E 8 82 45 00
        E 0 82 39 00
        E 1 82 39 00
        E 2 82 39 00
        E 997 92 45 78
        E 6 92 39 78
        E 3 92 45 78
        E 2 92 39 78
        E 1 92 39 78
        E 1140 82 45 00
        E 6 82 39 00
        E 3 82 45 00
        E 2 82 39 00
        E 1 82 39 00
        E 996 92 45 78
        E 11 92 45 78
        E 1 92 39 78
        E 1 92 39 78
        E 0 92 39 78
        E 1139 82 45 00
        E 11 82 45 00
        E 1 82 39 00
        E 1 82 39 00
        E 0 82 39 00
        E 1001 92 3a 78
        E 3 92 46 78
        E 1149 82 3a 00
        E 3 82 46 00
        E 5324 92 39 78
        E 3 92 45 78
        E 5 92 39 78
        E 1144 82 39 00
        E 3 82 45 00
        E 5 82 39 00
        E 995 92 45 78
        E 7 92 45 78
        E 1145 82 45 00
        E 7 82 45 00
        E 1010 92 45 78
        E 1152 82 45 00
        E 1012 92 39 78
        E 0 92 45 78
        E 1152 82 39 00
        E 0 82 45 00
        E 3162 92 46 78
        E 2 92 3a 78
        E 142 82 46 00
        E 2 82 3a 00
        E 0 b2 7b 00
        E 1 ff 2f 00
      >
    >
  >
  <TRACK
    NAME "Horns"
    PEAKCOL 4290740026
    VOLPAN 1.000000 0 1 -1
    MIDIOUT -1
    ISBUS 0 0
    <ITEM
      POSITION 2.612616
      LENGTH 49.663010
      NAME "Horns"
      VOLPAN 1 0 1 -1
      <SOURCE MIDI
        HASDATA 1 960 QN
        E 0 c3 3c 00
        E 3846 93 2d 52
        E 3840 83 2d 00
        E 7682 93 2d 54
        E 3840 83 2d 00
        E 3839 93 28 54
        E 3836 93 29 54
        E 4 83 28 00
        E 3836 83 29 00
        E 3844 93 2b 54
        E 3839 93 26 50
        E 1 83 2b 00
        E 3839 83 26 00
        E 3835 93 25 50
        E 3840 83 25 00
        E 4 93 25 4e
        E 3840 83 25 00
        E 3838 93 22 54
        E 3840 83 22 00
        E 0 93 25 50
        E 3840 83 25 00
        E 3844 93 22 50
        E 3836 93 22 4e
        E 4 83 22 00
        E 3836 83 22 00
        E 0 b3 7b 00
        E 1 ff 2f 00
      >
    >
  >
  <TRACK
    NAME "Harp"
    PEAKCOL 4290756410
    VOLPAN 1.000000 0 1 -1
    MIDIOUT -1
    ISBUS 0 0
    <ITEM
      POSITION 0.080216
      LENGTH 62.597720
      NAME "Harp"
      VOLPAN 1 0 1 -1
      <SOURCE MIDI
        HASDATA 1 960 QN
        E 0 c4 2e 00
        E 118 94 34 57
        E 244 94 3d 4b
        E 480 94 4c 36
        E 236 94 55 36
        E 120 94 58 36
        E 243 94 58 36
        E 120 94 55 36
        E 241 84 4c 00
        E 120 94 49 36
        E 116 84 55 00
        E 120 84 58 00
        E 123 94 3d 36
        E 120 84 58 00
        E 120 84 55 00
        E 361 84 49 00
        E 116 84 34 00
        E 244 84 3d 00
        E 551 84 3d 00
        E 47 94 32 62
        E 359 94 3e 47
        E 123 94 41 40
        E 1681 94 41 36
        E 117 94 3e 36
        E 241 94 35 36
        E 120 94 32 36
        E 239 84 32 00
        E 359 84 3e 00
        E 123 84 41 00
        E 430 84 3e 00
        E 1 84 35 00
        E 0 84 32 00
        E 2 84 41 00
        E 44 94 31 62
        E 601 94 45 3f
        E 601 94 58 36
        E 240 94 58 36
        E 720 84 58 00
        E 237 94 39 36
        E 3 84 58 00
        E 121 94 34 36
        E 357 84 31 00
        E 601 84 45 00
        E 310 84 39 00
        E 4 84 34 00
        E 168 94 35 5b
        E 1079 94 59 36
        E 719 94 4a 36
        E 241 84 59 00
        E 120 94 3e 36
        E 117 94 39 36
        E 123 94 35 36
        E 359 84 4a 00
        E 122 84 35 00
        E 788 84 39 00
        E 3 84 3e 00
        E 0 84 35 00
        E 288 94 39 50
        E 719 94 51 36
        E 721 94 51 36
        E 239 84 51 00
        E 598 94 34 36
        E 123 84 51 00
        E 480 84 39 00
        E 669 84 34 00
        E 52 94 32 63
        E 118 94 35 57
        E 123 94 3a 4e
        E 120 94 3e 47
        E 118 94 41 40
        E 116 94 46 39
        E 125 94 4a 36
        E 116 94 4d 36
        E 125 94 52 36
        E 116 94 56 36
        E 120 94 59 36
        E 122 94 5e 36
        E 120 94 59 36
        E 116 94 56 36
        E 123 94 52 36
        E 2 84 4a 00
        E 116 84 4d 00
        E 1 94 4d 36
        E 122 94 4a 36
        E 2 84 52 00
        E 116 84 56 00
        E 0 94 46 36
        E 120 84 59 00
        E 1 94 41 36
        E 121 84 5e 00
        E 0 94 3e 36
        E 119 94 3a 36
        E 1 84 59 00
        E 116 84 56 00
        E 2 94 35 36
        E 119 94 32 36
        E 2 84 52 00
        E 119 84 4d 00
        E 122 84 4a 00
        E 1 84 32 00
        E 118 84 35 00
        E 123 84 3a 00
        E 120 84 3e 00
        E 118 84 41 00
        E 116 84 46 00
        E 313 84 32 00
        E 1 84 46 00
        E 0 84 35 00
        E 1 84 41 00
        E 0 84 3a 00
        E 1 84 3e 00
        E 48 94 31 60
        E 120 94 34 57
        E 122 94 39 52
        E 117 94 3d 4e
        E 119 94 40 42
        E 121 94 45 3b
        E 121 94 49 3d
        E 119 94 4c 36
        E 118 94 51 36
        E 120 94 55 36
        E 123 94 58 36
        E 117 94 5d 36
        E 123 94 58 36
        E 117 94 55 36
        E 123 84 49 00
        E 0 94 51 36
        E 116 94 4c 36
        E 3 84 4c 00
        E 118 84 51 00
        E 2 94 49 36
        E 118 84 55 00
        E 1 94 45 36
        E 120 94 40 36
        E 2 84 58 00
        E 117 84 5d 00
        E 1 94 3d 36
        E 122 84 58 00
        E 1 94 39 36
        E 116 84 55 00
        E 2 94 34 36
        E 117 94 31 36
        E 4 84 51 00
        E 116 84 4c 00
        E 123 84 49 00
        E 1 84 31 00
        E 120 84 34 00
        E 122 84 39 00
        E 117 84 3d 00
        E 119 84 40 00
        E 121 84 45 00
        E 309 84 31 00
        E 2 84 45 00
        E 0 84 40 00
        E 0 84 3d 00
        E 1 84 34 00
        E 2 84 39 00
        E 46 94 32 63
        E 118 94 35 59
        E 122 94 39 4e
        E 118 94 3e 4b
        E 124 94 41 42
        E 118 94 45 3f
        E 122 94 4a 3d
        E 121 94 4d 38
        E 117 94 51 36
        E 122 94 56 36
        E 119 94 59 36
        E 122 94 5d 36
        E 119 94 59 36
        E 120 94 56 36
        E 118 94 51 36
        E 2 84 4a 00
        E 117 94 4d 36
        E 4 84 4d 00
        E 117 84 51 00
        E 2 94 4a 36
        E 120 84 56 00
        E 0 94 45 36
        E 117 94 41 36
        E 2 84 59 00
        E 121 94 3e 36
        E 1 84 5d 00
        E 115 94 39 36
        E 4 84 59 00
        E 116 94 35 36
        E 4 84 56 00
        E 118 84 51 00
        E 3 94 32 36
        E 116 84 4d 00
        E 121 84 32 00
        E 2 84 4a 00
        E 116 84 35 00
        E 122 84 39 00
        E 118 84 3e 00
        E 124 84 41 00
        E 118 84 45 00
        E 310 84 39 00
        E 0 84 35 00
        E 1 84 41 00
        E 3 84 45 00
        E 0 84 3e 00
        E 1 84 32 00
        E 43 94 31 5e
        E 123 94 34 52
        E 119 94 39 52
        E 118 94 3d 47
        E 120 94 40 47
        E 120 94 45 40
        E 124 94 49 36
        E 117 94 4c 38
        E 121 94 51 36
        E 122 94 55 36
        E 120 94 58 36
        E 116 94 5d 36
        E 125 94 58 36
        E 117 94 55 36
        E 122 84 49 00
        E 0 94 51 36
        E 116 94 4c 36
        E 1 84 4c 00
        E 121 84 51 00
        E 3 94 49 36
        E 119 84 55 00
        E 1 94 45 36
        E 116 94 40 36
        E 3 84 58 00
        E 116 84 5d 00
        E 0 94 3d 36
        E 123 94 39 36
        E 2 84 58 00
        E 117 84 55 00
        E 2 94 34 36
        E 120 84 51 00
        E 0 94 31 36
        E 116 84 4c 00
        E 120 84 31 00
        E 5 84 49 00
        E 118 84 34 00
        E 119 84 39 00
        E 118 84 3d 00
        E 120 84 40 00
        E 120 84 45 00
        E 312 84 3d 00
        E 1 84 40 00
        E 2 84 39 00
        E 1 84 34 00
        E 0 84 31 00
        E 1 84 45 00
        E 43 94 32 63
        E 123 94 37 55
        E 119 94 3a 50
        E 122 94 3e 46
        E 119 94 43 42
        E 121 94 46 3d
        E 119 94 4a 38
        E 120 94 4f 36
        E 117 94 52 36
        E 125 94 56 36
        E 119 94 5b 36
        E 117 94 5e 36
        E 122 94 5b 36
        E 120 94 56 36
        E 120 84 4a 00
        E 2 94 52 36
        E 116 94 4f 36
        E 2 84 4f 00
        E 117 84 52 00
        E 5 94 4a 36
        E 119 94 46 36
        E 1 84 56 00
        E 117 94 43 36
        E 2 84 5b 00
        E 117 84 5e 00
        E 1 94 3e 36
        E 121 84 5b 00
        E 1 94 3a 36
        E 116 94 37 36
        E 3 84 56 00
        E 119 94 32 36
        E 3 84 52 00
        E 116 84 4f 00
        E 119 84 32 00
        E 5 84 4a 00
        E 118 84 37 00
        E 119 84 3a 00
        E 122 84 3e 00
        E 119 84 43 00
        E 121 84 46 00
        E 308 84 37 00
        E 2 84 43 00
        E 0 84 3e 00
        E 0 84 32 00
        E 2 84 46 00
        E 0 84 3a 00
        E 47 94 32 5b
        E 121 94 35 5b
        E 116 94 3a 50
        E 120 94 3e 49
        E 121 94 41 42
        E 121 94 46 42
        E 120 94 4a 3d
        E 123 94 4d 36
        E 119 94 52 36
        E 118 94 56 36
        E 121 94 59 36
        E 118 94 5e 36
        E 119 94 59 36
        E 122 94 56 36
        E 118 94 52 36
        E 2 84 4a 00
        E 122 94 4d 36
        E 1 84 4d 00
        E 116 94 4a 36
        E 3 84 52 00
        E 118 84 56 00
        E 0 94 46 36
        E 120 94 41 36
        E 1 84 59 00
        E 117 94 3e 36
        E 1 84 5e 00
        E 119 84 59 00
        E 3 94 3a 36
        E 119 84 56 00
        E 1 94 35 36
        E 116 94 32 36
        E 1 84 52 00
        E 124 84 4d 00
        E 117 84 4a 00
        E 2 84 32 00
        E 121 84 35 00
        E 116 84 3a 00
        E 120 84 3e 00
        E 121 84 41 00
        E 121 84 46 00
        E 309 84 32 00
        E 1 84 3e 00
        E 2 84 46 00
        E 0 84 41 00
        E 1 84 3a 00
        E 0 84 35 00
        E 45 94 31 62
        E 124 94 34 55
        E 118 94 39 4d
        E 121 94 3d 46
        E 117 94 40 3f
        E 123 94 45 3f
        E 116 94 49 36
        E 121 94 4c 36
        E 122 94 51 36
        E 121 94 55 36
        E 121 94 58 36
        E 117 94 5d 36
        E 121 94 58 36
        E 117 94 55 36
        E 120 84 49 00
        E 6 94 51 36
        E 115 84 4c 00
        E 3 94 4c 36
        E 119 84 51 00
        E 0 94 49 36
        E 121 84 55 00
        E 0 94 45 36
        E 117 94 40 36
        E 4 84 58 00
        E 117 84 5d 00
        E 2 94 3d 36
        E 119 84 58 00
        E 1 94 39 36
        E 116 84 55 00
        E 3 94 34 36
        E 120 94 31 36
        E 3 84 51 00
        E 118 84 4c 00
        E 117 84 31 00
        E 2 84 49 00
        E 122 84 34 00
        E 118 84 39 00
        E 121 84 3d 00
        E 117 84 40 00
        E 123 84 45 00
        E 309 84 40 00
        E 2 84 34 00
        E 0 84 31 00
        E 1 84 45 00
        E 0 84 3d 00
        E 0 84 39 00
        E 47 94 31 5c
        E 118 94 34 52
        E 123 94 39 50
        E 120 94 3d 47
        E 122 94 40 3f
        E 118 94 45 3f
        E 119 94 49 36
        E 118 94 4c 36
        E 123 94 51 36
        E 121 94 55 36
        E 115 94 58 36
        E 123 94 5d 36
        E 120 94 58 36
        E 118 94 55 36
        E 122 84 49 00
        E 2 94 51 36
        E 116 84 4c 00
        E 5 94 4c 36
        E 118 84 51 00
        E 0 94 49 36
        E 118 94 45 36
        E 3 84 55 00
        E 115 84 58 00
        E 3 94 40 36
        E 119 94 3d 36
        E 1 84 5d 00
        E 120 84 58 00
        E 0 94 39 36
        E 118 84 55 00
        E 1 94 34 36
        E 121 94 31 36
        E 2 84 51 00
        E 121 84 4c 00
        E 117 84 31 00
        E 1 84 49 00
        E 117 84 34 00
        E 123 84 39 00
        E 120 84 3d 00
        E 122 84 40 00
        E 118 84 45 00
        E 310 84 45 00
        E 0 84 3d 00
        E 0 84 34 00
        E 1 84 40 00
        E 0 84 39 00
        E 0 84 31 00
        E 48 94 32 5e
        E 118 94 35 55
        E 120 94 3a 54
        E 119 94 3e 4d
        E 123 94 41 46
        E 120 94 46 42
        E 120 94 4a 36
        E 119 94 4d 36
        E 119 94 52 36
        E 124 94 56 36
        E 118 94 59 36
        E 121 94 5e 36
        E 116 94 59 36
        E 121 94 56 36
        E 120 94 52 36
        E 2 84 4a 00
        E 118 94 4d 36
        E 1 84 4d 00
        E 119 84 52 00
        E 3 94 4a 36
        E 117 94 46 36
        E 4 84 56 00
        E 118 84 59 00
        E 0 94 41 36
        E 120 94 3e 36
        E 1 84 5e 00
        E 116 84 59 00
        E 5 94 3a 36
        E 116 84 56 00
        E 2 94 35 36
        E 118 84 52 00
        E 3 94 32 36
        E 117 84 4d 00
        E 122 84 32 00
        E 1 84 4a 00
        E 117 84 35 00
        E 120 84 3a 00
        E 119 84 3e 00
        E 123 84 41 00
        E 120 84 46 00
        E 310 84 46 00
        E 2 84 41 00
        E 0 84 3e 00
        E 0 84 35 00
        E 1 84 32 00
        E 1 84 3a 00
        E 48 94 31 63
        E 117 94 34 59
        E 121 94 39 4e
        E 121 94 3d 47
        E 122 94 40 3f
        E 119 94 45 40
        E 115 94 49 3b
        E 125 94 4c 38
        E 115 94 51 36
        E 123 94 55 36
        E 118 94 58 36
        E 122 94 5d 36
        E 120 94 58 36
        E 123 94 55 36
        E 114 84 49 00
        E 4 94 51 36
        E 119 94 4c 36
        E 2 84 4c 00
        E 115 84 51 00
        E 4 94 49 36
        E 119 84 55 00
        E 0 94 45 36
        E 118 84 58 00
        E 4 94 40 36
        E 118 84 5d 00
        E 2 94 3d 36
        E 118 84 58 00
        E 0 94 39 36
        E 121 94 34 36
        E 2 84 55 00
        E 117 94 31 36
        E 1 84 51 00
        E 119 84 4c 00
        E 121 84 49 00
        E 1 84 31 00
        E 117 84 34 00
        E 121 84 39 00
        E 121 84 3d 00
        E 122 84 40 00
        E 119 84 45 00
        E 310 84 45 00
        E 0 84 39 00
        E 0 84 31 00
        E 1 84 34 00
        E 1 84 40 00
        E 0 84 3d 00
        E 47 94 32 5e
        E 120 94 35 57
        E 119 94 39 54
        E 119 94 3e 49
        E 118 94 41 44
        E 125 94 45 3d
        E 120 94 4a 3d
        E 116 94 4d 36
        E 121 94 51 36
        E 123 94 56 36
        E 120 94 59 36
        E 116 94 5d 36
        E 121 94 59 36
        E 119 94 56 36
        E 123 94 51 36
        E 1 84 4a 00
        E 116 84 4d 00
        E 3 94 4d 36
        E 118 84 51 00
        E 3 94 4a 36
        E 115 94 45 36
        E 5 84 56 00
        E 120 84 59 00
        E 0 94 41 36
        E 115 94 3e 36
        E 1 84 5d 00
        E 121 84 59 00
        E 2 94 39 36
        E 117 84 56 00
        E 4 94 35 36
        E 119 84 51 00
        E 1 94 32 36
        E 119 84 4d 00
        E 120 84 32 00
        E 1 84 4a 00
        E 119 84 35 00
        E 119 84 39 00
        E 119 84 3e 00
        E 118 84 41 00
        E 125 84 45 00
        E 307 84 45 00
        E 0 84 3e 00
        E 4 84 39 00
        E 1 84 41 00
        E 0 84 35 00
        E 0 84 32 00
        E 44 94 31 5b
        E 121 94 34 5b
        E 120 94 39 4d
        E 121 94 3d 4e
        E 121 94 40 47
        E 118 94 45 40
        E 123 94 49 36
        E 117 94 4c 36
        E 120 94 51 36
        E 120 94 55 36
        E 124 94 58 36
        E 120 94 5d 36
        E 117 94 58 36
        E 119 94 55 36
        E 123 84 49 00
        E 0 94 51 36
        E 117 84 4c 00
        E 1 94 4c 36
        E 119 84 51 00
        E 3 94 49 36
        E 117 84 55 00
        E 1 94 45 36
        E 120 94 40 36
        E 3 84 58 00
        E 115 94 3d 36
        E 5 84 5d 00
        E 117 84 58 00
        E 0 94 39 36
        E 119 84 55 00
        E 3 94 34 36
        E 117 94 31 36
        E 3 84 51 00
        E 118 84 4c 00
        E 118 84 31 00
        E 4 84 49 00
        E 117 84 34 00
        E 120 84 39 00
        E 121 84 3d 00
        E 121 84 40 00
        E 118 84 45 00
        E 311 84 3d 00
        E 1 84 31 00
        E 1 84 45 00
        E 0 84 40 00
        E 0 84 39 00
        E 2 84 34 00
        E 47 94 32 60
        E 120 94 35 55
        E 122 94 3a 54
        E 115 94 3e 49
        E 120 94 41 40
        E 121 94 46 3b
        E 119 94 4a 3b
        E 120 94 4d 36
        E 122 94 52 36
        E 118 94 56 36
        E 120 94 59 36
        E 122 94 5e 36
        E 118 94 59 36
        E 119 94 56 36
        E 121 84 4a 00
        E 5 94 52 36
        E 115 84 4d 00
        E 2 94 4d 36
        E 120 84 52 00
        E 2 94 4a 36
        E 116 84 56 00
        E 2 94 46 36
        E 118 84 59 00
        E 3 94 41 36
        E 119 84 5e 00
        E 1 94 3e 36
        E 117 84 59 00
        E 0 94 3a 36
        E 119 84 56 00
        E 4 94 35 36
        E 117 94 32 36
        E 5 84 52 00
        E 117 84 4d 00
        E 121 84 32 00
        E 1 84 4a 00
        E 119 84 35 00
        E 122 84 3a 00
        E 115 84 3e 00
        E 120 84 41 00
        E 121 84 46 00
        E 311 84 3a 00
        E 0 84 32 00
        E 2 84 46 00
        E 1 84 41 00
        E 0 84 3e 00
        E 0 84 35 00
        E 48 94 31 5b
        E 118 94 34 5b
        E 120 94 39 4d
        E 118 94 3d 47
        E 121 94 40 46
        E 122 94 45 39
        E 121 94 49 39
        E 120 94 4c 36
        E 120 94 51 36
        E 120 94 55 36
        E 118 94 58 36
        E 123 94 5d 36
        E 119 94 58 36
        E 119 94 55 36
        E 120 94 51 36
        E 1 84 49 00
        E 118 94 4c 36
        E 2 84 4c 00
        E 117 94 49 36
        E 3 84 51 00
        E 118 94 45 36
        E 2 84 55 00
        E 118 84 58 00
        E 4 94 40 36
        E 116 94 3d 36
        E 3 84 5d 00
        E 119 84 58 00
        E 2 94 39 36
        E 117 84 55 00
        E 0 94 34 36
        E 120 84 51 00
        E 0 94 31 36
        E 119 84 4c 00
        E 119 84 49 00
        E 3 84 31 00
        E 118 84 34 00
        E 120 84 39 00
        E 118 84 3d 00
        E 121 84 40 00
        E 122 84 45 00
        E 311 84 45 00
        E 0 84 3d 00
        E 1 84 34 00
        E 0 84 31 00
        E 3 84 40 00
        E 0 84 39 00
        E 42 94 32 60
        E 122 94 35 57
        E 121 94 39 50
        E 117 94 3e 47
        E 123 94 41 40
        E 121 94 45 42
        E 119 94 4a 38
        E 602 94 5d 36
        E 358 84 4a 00
        E 241 94 4a 36
        E 239 94 41 36
        E 122 84 5d 00
        E 595 84 32 00
        E 4 84 4a 00
        E 118 84 35 00
        E 121 84 39 00
        E 117 84 3e 00
        E 123 84 41 00
        E 121 84 45 00
        E 311 84 41 00
        E 46 94 31 60
        E 361 94 3d 49
        E 238 94 45 42
        E 364 94 51 36
        E 718 94 51 36
        E 242 84 51 00
        E 116 94 45 36
        E 602 84 51 00
        E 239 84 31 00
        E 361 84 3d 00
        E 238 84 45 00
        E 312 84 45 00
        E 50 94 32 5e
        E 122 94 37 52
        E 360 94 43 40
        E 121 94 46 3f
        E 120 94 4a 38
        E 239 94 52 36
        E 356 94 5e 36
        E 124 94 5b 36
        E 241 84 4a 00
        E 1 94 52 36
        E 117 94 4f 36
        E 121 84 52 00
        E 356 84 5e 00
        E 124 84 5b 00
        E 116 94 37 36
        E 122 94 32 36
        E 4 84 52 00
        E 117 84 4f 00
        E 119 84 32 00
        E 122 84 37 00
        E 360 84 43 00
        E 121 84 46 00
        E 307 84 37 00
        E 2 84 32 00
        E 768 94 4a 3b
        E 479 94 59 36
        E 123 94 5e 36
        E 358 84 4a 00
        E 119 94 4d 36
        E 360 84 59 00
        E 123 84 5e 00
        E 118 94 3a 36
        E 359 84 4d 00
        E 1033 84 3a 00
        E 407 94 3d 4d
        E 242 94 45 42
        E 239 94 4c 36
        E 960 84 4c 00
        E 364 94 40 36
        E 1075 84 3d 00
        E 242 84 45 00
        E 315 84 40 00
        E 0 b4 7b 00
        E 1 ff 2f 00
      >
    >
  >
  <TRACK
    NAME "Strings"
    PEAKCOL 4284186559
    VOLPAN 1.000000 0 1 -1
    MIDIOUT -1
    ISBUS 0 0
    <ITEM
      POSITION 0.000000
      LENGTH 62.703101
      NAME "Strings"
      VOLPAN 1 0 1 -1
      <SOURCE MIDI
        HASDATA 1 960 QN
        E 0 c5 30 00
        E 0 95 40 46
        E 3 95 4a 46
        E 11 95 49 46
        E 1894 95 4a 46
        E 1 85 40 00
        E 9 95 32 46
        E 5 85 4a 00
        E 1 95 4a 46
        E 3 95 32 46
        E 12 85 49 00
        E 1870 85 4a 00
        E 20 95 4a 46
        E 5 85 32 00
        E 6 95 3e 46
        E 5 85 32 00
        E 9 95 4a 46
        E 4 85 4a 00
        E 1889 85 4a 00
        E 13 85 3e 00
        E 8 95 4a 46
        E 6 95 32 46
        E 1 85 4a 00
        E 1909 85 4a 00
        E 10 85 32 00
        E 1894 95 4a 46
        E 6 95 4a 46
        E 0 95 4a 46
        E 1 95 32 46
        E 8 95 4a 46
        E 1893 85 4a 00
        E 15 95 32 46
        E 1 85 4a 00
        E 7 85 4a 00
        E 6 85 32 00
        E 7 85 4a 00
        E 1882 85 32 00
        E 20 95 4a 46
        E 6 95 41 46
        E 1906 85 4a 00
        E 14 85 41 00
        E 0 95 32 46
        E 10 95 4a 46
        E 1 95 4a 46
        E 1918 95 32 46
        E 2 85 32 00
        E 2 85 4a 00
        E 3 85 4a 00
        E 1894 95 4a 46
        E 3 85 32 00
        E 4 95 32 46
        E 3 95 41 46
        E 3 95 4a 46
        E 2 95 4a 46
        E 1 95 46 46
        E 2 95 4a 46
        E 6 95 4a 46
        E 1892 95 4a 46
        E 0 95 32 46
        E 6 85 4a 00
        E 0 95 4a 46
        E 2 85 4a 00
        E 3 85 32 00
        E 0 95 4a 46
        E 3 85 41 00
        E 0 95 41 46
        E 3 95 4a 46
        E 4 95 46 46
        E 3 95 4a 46
        E 9 85 46 00
        E 0 85 4a 00
        E 2 85 4a 00
        E 5 85 4a 00
        E 1862 85 32 00
        E 9 85 4a 00
        E 0 85 4a 00
        E 6 85 4a 00
        E 11 95 32 46
        E 6 85 41 00
        E 0 85 4a 00
        E 0 95 40 46
        E 2 95 45 46
        E 2 95 4a 46
        E 3 95 4a 46
        E 0 95 32 46
        E 4 95 4a 46
        E 0 95 49 46
        E 5 85 46 00
        E 1 85 4a 00
        E 1890 95 4a 46
        E 0 95 4a 46
        E 1 85 4a 00
        E 1 95 49 46
        E 2 95 32 46
        E 1 85 49 00
        E 8 85 40 00
        E 0 95 4a 46
        E 0 95 40 46
        E 1 85 4a 00
        E 4 85 32 00
        E 2 85 4a 00
        E 0 85 32 00
        E 1 95 32 46
        E 1 95 32 46
        E 3 85 45 00
        E 1895 95 32 46
        E 4 85 4a 00
        E 0 85 32 00
        E 2 95 32 46
        E 3 95 32 46
        E 1 95 32 46
        E 3 85 4a 00
        E 0 85 40 00
        E 0 95 3e 46
        E 1 85 4a 00
        E 2 95 4a 46
        E 3 85 49 00
        E 1 95 32 46
        E 6 85 32 00
        E 0 95 4a 46
        E 5 85 32 00
        E 1872 85 32 00
        E 21 95 4a 46
        E 2 95 4a 46
        E 2 95 4a 46
        E 2 85 32 00
        E 0 85 32 00
        E 3 85 32 00
        E 0 85 3e 00
        E 0 95 3e 46
        E 1 95 4a 46
        E 2 85 32 00
        E 0 95 32 46
        E 2 85 4a 00
        E 6 95 4a 46
        E 1 95 4a 46
        E 3 85 4a 00
        E 1891 85 4a 00
        E 1 85 4a 00
        E 0 95 4a 46
        E 3 95 4a 46
        E 7 85 32 00
        E 0 95 4a 46
        E 3 85 4a 00
        E 0 85 3e 00
        E 0 95 3d 46
        E 1 85 4a 00
        E 0 95 45 46
        E 3 95 4a 46
        E 1 85 4a 00
        E 9 95 4a 46
        E 0 95 49 46
        E 10 85 4a 00
        E 1871 85 4a 00
        E 7 85 4a 00
        E 9 95 4a 46
        E 2 85 4a 00
        E 2 95 4a 46
        E 1 95 49 46
        E 4 85 3d 00
        E 0 95 3d 46
        E 2 85 4a 00
        E 6 95 4a 46
        E 0 95 4a 46
        E 1 95 4a 46
        E 2 95 4a 46
        E 2 85 4a 00
        E 3 85 49 00
        E 3 85 45 00
        E 1881 85 4a 00
        E 8 95 4a 46
        E 1 95 4a 46
        E 4 85 4a 00
        E 0 85 4a 00
        E 2 95 4a 46
        E 0 95 4a 46
        E 2 95 4a 46
        E 3 85 3d 00
        E 0 95 4a 46
        E 0 95 3e 46
        E 9 85 49 00
        E 2 85 4a 00
        E 0 85 4a 00
        E 0 95 43 46
        E 4 85 4a 00
        E 1884 85 4a 00
        E 7 95 43 46
        E 1 85 4a 00
        E 2 95 4a 46
        E 1 85 4a 00
        E 8 95 4a 46
        E 2 85 3e 00
        E 0 95 3e 46
        E 1 85 4a 00
        E 0 85 4a 00
        E 4 85 4a 00
        E 0 95 4a 46
        E 3 95 46 46
        E 2 95 4a 46
        E 1 95 4a 46
        E 18 85 43 00
        E 1879 95 32 46
        E 2 95 4a 46
        E 3 95 4a 46
        E 1 95 46 46
        E 3 85 43 00
        E 2 85 4a 00
        E 0 95 4a 46
        E 1 85 3e 00
        E 0 95 3e 46
        E 1 85 4a 00
        E 1 85 4a 00
        E 1 85 46 00
        E 5 85 4a 00
        E 5 95 41 46
        E 1 85 4a 00
        E 0 95 32 46
        E 1895 95 4a 46
        E 1 95 41 46
        E 5 85 41 00
        E 4 85 32 00
        E 1 85 3e 00
        E 0 95 4a 47
        E 1 95 4a 46
        E 0 95 4a 46
        E 1 95 4a 46
        E 1 95 4a 47
        E 3 85 4a 00
        E 3 85 4a 00
        E 2 85 46 00
        E 0 95 4a 46
        E 1 85 4a 00
        E 19 85 32 00
        E 1877 85 4a 00
        E 5 85 4a 00
        E 4 85 4a 00
        E 2 95 4a 46
        E 0 95 32 46
        E 1 85 4a 00
        E 0 95 3d 47
        E 1 85 41 00
        E 9 95 49 46
        E 0 95 4a 46
        E 1 85 4a 00
        E 0 85 4a 00
        E 2 95 4a 46
        E 0 95 49 46
        E 0 95 4a 46
        E 5 85 4a 00
        E 1889 95 49 46
        E 2 85 32 00
        E 2 95 4a 46
        E 1 85 49 00
        E 4 95 49 46
        E 4 85 3d 00
        E 0 85 4a 00
        E 0 95 3d 49
        E 1 95 32 46
        E 0 95 45 46
        E 0 95 4a 46
        E 3 95 32 46
        E 5 85 4a 00
        E 5 85 4a 00
        E 1 85 49 00
        E 2 85 4a 00
        E 1880 85 49 00
        E 11 95 4a 46
        E 2 85 4a 00
        E 5 85 45 00
        E 2 95 4a 46
        E 3 85 3d 00
        E 0 95 3d 49
        E 6 85 32 00
        E 0 95 4a 46
        E 1 85 49 00
        E 0 95 40 46
        E 2 95 4a 46
        E 0 95 32 46
        E 2 95 4a 46
        E 3 85 32 00
        E 2 85 4a 00
        E 1891 95 32 46
        E 1 95 4a 46
        E 1 85 4a 00
        E 1 85 4a 00
        E 0 85 4a 00
        E 0 95 4a 46
        E 9 95 4a 46
        E 1 85 3d 00
        E 0 95 3d 4b
        E 4 85 40 00
        E 0 95 32 46
        E 4 95 49 46
        E 2 85 32 00
        E 3 95 4a 46
        E 1 85 4a 00
        E 7 85 4a 00
        E 1867 85 32 00
        E 15 85 4a 00
        E 6 95 4a 46
        E 2 85 49 00
        E 0 95 41 46
        E 4 85 4a 00
        E 2 95 32 46
        E 2 95 32 46
        E 1 85 3d 00
        E 0 95 3e 4b
        E 1 85 4a 00
        E 0 95 4a 46
        E 2 95 4a 46
        E 1 95 4a 46
        E 3 85 32 00
        E 19 85 4a 00
        E 1878 85 4a 00
        E 3 95 46 46
        E 2 95 32 46
        E 3 95 4a 46
        E 4 95 4a 46
        E 2 85 41 00
        E 2 85 3e 00
        E 0 95 3e 4b
        E 1 95 4a 46
        E 1 85 4a 00
        E 2 85 32 00
        E 0 85 4a 00
        E 4 95 32 46
        E 3 85 4a 00
        E 3 95 41 46
        E 2 85 32 00
        E 1877 85 46 00
        E 10 85 4a 00
        E 5 95 4a 46
        E 3 85 4a 00
        E 2 85 4a 00
        E 2 95 32 46
        E 2 95 4a 46
        E 2 85 32 00
        E 1 85 3e 00
        E 0 95 40 4d
        E 4 85 41 00
        E 1 85 32 00
        E 2 95 45 46
        E 0 95 49 46
        E 3 95 4a 46
        E 1 95 4a 46
        E 1896 95 32 46
        E 6 85 4a 00
        E 0 95 4a 46
        E 2 95 4a 46
        E 3 85 4a 00
        E 0 95 4a 46
        E 0 95 45 46
        E 2 85 32 00
        E 0 85 40 00
        E 0 95 40 4d
        E 4 95 4a 46
        E 3 95 49 46
        E 7 85 4a 00
        E 1 85 45 00
        E 6 85 49 00
        E 6 85 4a 00
        E 1871 85 32 00
        E 1 85 4a 00
        E 4 85 4a 00
        E 2 85 4a 00
        E 4 95 4a 46
        E 5 95 4a 46
        E 3 95 35 46
        E 3 85 40 00
        E 0 95 41 4e
        E 1 85 4a 00
        E 1 95 4a 46
        E 3 95 4a 46
        E 1 85 49 00
        E 4 95 4a 46
        E 4 95 45 46
        E 1 85 45 00
        E 1887 85 4a 00
        E 6 95 4a 46
        E 1 95 35 46
        E 2 85 4a 00
        E 1 95 4a 46
        E 1 85 35 00
        E 0 95 4a 46
        E 1 85 4a 00
        E 6 85 41 00
        E 0 95 4a 46
        E 0 95 41 4e
        E 4 95 4a 46
        E 5 95 4a 46
        E 1 85 4a 00
        E 1 85 4a 00
        E 21 85 45 00
        E 1869 85 4a 00
        E 2 85 35 00
        E 2 85 4a 00
        E 2 95 45 46
        E 1 85 4a 00
        E 4 85 4a 00
        E 1 85 4a 00
        E 1 95 4a 46
        E 6 85 41 00
        E 0 95 4a 46
        E 0 95 40 50
        E 1 95 4a 46
        E 3 95 32 46
        E 8 85 4a 00
        E 0 95 4a 46
        E 2 95 45 46
        E 1875 85 45 00
        E 12 85 4a 00
        E 10 85 4a 00
        E 2 95 4a 46
        E 1 95 32 46
        E 2 85 4a 00
        E 0 95 4a 46
        E 1 95 4a 46
        E 2 95 4a 46
        E 0 95 4a 46
        E 1 85 40 00
        E 0 95 40 50
        E 3 85 45 00
        E 9 95 45 46
        E 3 85 32 00
        E 1 85 4a 00
        E 1894 95 4a 46
        E 0 95 4a 46
        E 2 85 32 00
        E 1 95 4a 46
        E 3 85 4a 00
        E 0 95 4a 46
        E 2 85 4a 00
        E 2 85 40 00
        E 0 95 3e 52
        E 3 95 4a 46
        E 2 85 4a 00
        E 4 95 46 46
        E 1 95 41 46
        E 2 85 45 00
        E 1 85 4a 00
        E 0 85 4a 00
        E 1893 85 4a 00
        E 2 85 4a 00
        E 0 95 4a 46
        E 2 85 4a 00
        E 4 85 4a 00
        E 3 95 41 46
        E 3 85 3e 00
        E 0 95 3e 52
        E 1 95 4a 46
        E 2 95 4a 46
        E 1 95 4a 46
        E 4 85 4a 00
        E 0 95 46 46
        E 4 95 4a 46
        E 3 85 41 00
        E 3 85 46 00
        E 1892 95 49 46
        E 2 85 46 00
        E 1 85 4a 00
        E 0 85 4a 00
        E 1 95 4a 46
        E 4 95 4a 46
        E 2 85 3e 00
        E 0 95 3d 54
        E 3 85 4a 00
        E 0 95 4a 46
        E 2 85 41 00
        E 0 85 4a 00
        E 3 95 40 46
        E 4 95 4a 46
        E 2 95 4a 46
        E 3 85 4a 00
        E 1874 85 49 00
        E 11 85 4a 00
        E 4 95 45 46
        E 6 95 4a 46
        E 5 85 4a 00
        E 0 95 4a 46
        E 0 95 4a 46
        E 3 85 3d 00
        E 0 95 3d 54
        E 4 85 4a 00
        E 3 85 4a 00
        E 1 85 4a 00
        E 1 95 49 46
        E 1 95 4a 46
        E 3 95 40 46
        E 5 85 40 00
        E 1882 85 45 00
        E 3 85 4a 00
        E 7 85 4a 00
        E 2 95 4a 46
        E 2 85 49 00
        E 0 95 4a 46
        E 3 95 4a 46
        E 1 85 4a 00
        E 1 85 4a 00
        E 0 95 45 46
        E 1 85 3d 00
        E 0 95 3e 54
        E 5 95 4a 46
        E 7 95 4a 46
        E 2 95 4a 46
        E 2 85 40 00
        E 1882 85 4a 00
        E 12 85 4a 00
        E 5 85 4a 00
        E 3 85 4a 00
        E 2 85 4a 00
        E 0 85 3e 00
        E 2 85 45 00
        E 5 95 4a 46
        E 8 85 4a 00
        E 1891 95 45 46
        E 1 95 4a 46
        E 2 95 4a 46
        E 11 95 40 55
        E 10 85 4a 00
        E 1904 85 4a 00
        E 2 85 4a 00
        E 4 85 40 00
        E 4 85 45 00
        E 6 95 4a 46
        E 1906 95 4a 46
        E 2 85 4a 00
        E 1913 95 43 46
        E 4 85 4a 00
        E 8 95 4a 46
        E 1911 85 4a 00
        E 12 85 43 00
        E 6 95 4a 46
        E 2 95 4a 46
        E 1913 85 4a 00
        E 0 95 46 46
        E 7 95 4a 46
        E 1 85 4a 00
        E 1899 95 4a 46
        E 5 85 46 00
        E 1 95 40 5b
        E 10 85 4a 00
        E 1896 95 34 46
        E 4 95 4a 46
        E 10 85 40 00
        E 4 85 4a 00
        E 1901 85 34 00
        E 6 85 4a 00
        E 0 b5 7b 00
        E 1 ff 2f 00
      >
    >
  >
  <TRACK
    NAME "Viola"
    PEAKCOL 4284186559
    VOLPAN 1.000000 0 1 -1
    MIDIOUT -1
    ISBUS 0 0
    <ITEM
      POSITION 2.609085
      LENGTH 57.499377
      NAME "Viola"
      VOLPAN 1 0 1 -1
      <SOURCE MIDI
        HASDATA 1 960 QN
        E 0 c6 29 00
        E 3841 96 3a 50
        E 3840 86 3a 00
        E 3848 96 39 52
        E 3840 86 39 00
        E 3841 96 3e 4e
        E 3840 86 3e 00
        E 1 96 40 52
        E 3829 96 3e 4d
        E 11 86 40 00
        E 3829 86 3e 00
        E 14 96 3d 52
        E 3828 96 43 52
        E 12 86 3d 00
        E 3828 86 43 00
        E 1 96 4a 4e
        E 3840 86 4a 00
        E 0 96 39 4d
        E 3840 86 39 00
        E 0 96 39 4e
        E 3840 86 39 00
        E 3 96 3a 4d
        E 3840 86 3a 00
        E 1 96 3d 50
        E 3840 86 3d 00
        E 1 96 41 50
        E 3840 86 41 00
        E 4 96 45 52
        E 3840 86 45 00
        E 2 96 46 52
        E 3827 96 45 52
        E 13 86 46 00
        E 3827 86 45 00
        E 8 96 41 52
        E 3840 86 41 00
        E 7683 96 4a 50
        E 3840 86 4a 00
        E 0 b6 7b 00
        E 1 ff 2f 00
      >
    >
  >
  <TRACK
    NAME "Bass"
    PEAKCOL 4286528191
    VOLPAN 1.000000 0 1 -1
    MIDIOUT -1
    ISBUS 0 0
    <ITEM
      POSITION 0.000000
      LENGTH 62.643478
      NAME "Bass"
      VOLPAN 1 0 1 -1
      <SOURCE MIDI
        HASDATA 1 960 QN
        E 0 c7 2b 00
        E 0 97 25 75
        E 864 87 25 00
        E 96 97 26 6c
        E 864 87 26 00
        E 96 97 21 75
        E 864 87 21 00
        E 96 97 25 6c
        E 864 87 25 00
        E 96 97 26 75
        E 864 87 26 00
        E 96 97 22 6c
        E 864 87 22 00
        E 96 97 22 75
        E 864 87 22 00
        E 96 97 28 6c
        E 864 87 28 00
        E 96 97 25 75
        E 864 87 25 00
        E 96 97 26 6c
        E 864 87 26 00
        E 96 97 21 75
        E 864 87 21 00
        E 96 97 1f 6c
        E 864 87 1f 00
        E 96 97 1c 75
        E 864 87 1c 00
        E 96 97 1d 6c
        E 864 87 1d 00
        E 96 97 21 75
        E 864 87 21 00
        E 96 97 22 6c
        E 864 87 22 00
        E 96 97 25 75
        E 864 87 25 00
        E 96 97 2b 6c
        E 864 87 2b 00
        E 96 97 2d 75
        E 864 87 2d 00
        E 96 97 2d 6c
        E 864 87 2d 00
        E 96 97 32 75
        E 864 87 32 00
        E 96 97 2d 6c
        E 864 87 2d 00
        E 96 97 2e 75
        E 864 87 2e 00
        E 96 97 2b 6c
        E 864 87 2b 00
        E 96 97 31 75
        E 864 87 31 00
        E 96 97 2e 6c
        E 864 87 2e 00
        E 96 97 2d 75
        E 864 87 2d 00
        E 96 97 2d 6c
        E 864 87 2d 00
        E 96 97 32 75
        E 864 87 32 00
        E 96 97 32 6c
        E 864 87 32 00
        E 96 97 2d 75
        E 864 87 2d 00
        E 96 97 31 6c
        E 864 87 31 00
        E 96 97 31 75
        E 864 87 31 00
        E 96 97 32 6c
        E 864 87 32 00
        E 96 97 2d 75
        E 864 87 2d 00
        E 96 97 32 6c
        E 864 87 32 00
        E 96 97 32 75
        E 864 87 32 00
        E 96 97 37 6c
        E 864 87 37 00
        E 96 97 37 75
        E 864 87 37 00
        E 96 97 37 6c
        E 864 87 37 00
        E 96 97 32 75
        E 864 87 32 00
        E 96 97 32 6c
        E 864 87 32 00
        E 96 97 2e 75
        E 864 87 2e 00
        E 96 97 31 6c
        E 864 87 31 00
        E 96 97 31 75
        E 864 87 31 00
        E 96 97 34 6c
        E 864 87 34 00
        E 96 97 37 75
        E 864 87 37 00
        E 96 97 37 6c
        E 864 87 37 00
        E 96 97 37 75
        E 864 87 37 00
        E 96 97 35 6c
        E 864 87 35 00
        E 96 97 37 75
        E 864 87 37 00
        E 96 97 37 6c
        E 864 87 37 00
        E 96 97 32 75
        E 864 87 32 00
        E 96 97 35 6c
        E 864 87 35 00
        E 96 97 37 75
        E 864 87 37 00
        E 96 97 37 6c
        E 864 87 37 00
        E 96 97 37 75
        E 864 87 37 00
        E 96 97 35 6c
        E 864 87 35 00
        E 96 97 37 75
        E 864 87 37 00
        E 96 97 37 6c
        E 864 87 37 00
        E 96 97 32 75
        E 864 87 32 00
        E 96 97 31 6c
        E 864 87 31 00
        E 96 97 2d 75
        E 864 87 2d 00
        E 96 97 2d 6c
        E 864 87 2d 00
        E 96 97 31 75
        E 864 87 31 00
        E 96 97 2e 6c
        E 864 87 2e 00
        E 96 97 2d 75
        E 864 87 2d 00
        E 96 97 2d 6c
        E 864 87 2d 00
        E 96 97 32 75
        E 864 87 32 00
        E 96 97 37 6c
        E 864 87 37 00
        E 96 97 37 75
        E 864 87 37 00
        E 96 97 34 6c
        E 864 87 34 00
        E 96 97 31 75
        E 864 87 31 00
        E 96 97 31 6c
        E 864 87 31 00
        E 96 97 2d 75
        E 864 87 2d 00
        E 96 97 2e 6c
        E 864 87 2e 00
        E 96 97 32 75
        E 864 87 32 00
        E 96 97 32 6c
        E 864 87 32 00
        E 96 97 2d 75
        E 864 87 2d 00
        E 96 97 2e 6c
        E 864 87 2e 00
        E 96 97 31 75
        E 864 87 31 00
        E 96 97 2d 6c
        E 864 87 2d 00
        E 96 97 2d 75
        E 864 87 2d 00
        E 96 97 31 6c
        E 864 87 31 00
        E 96 97 32 75
        E 864 87 32 00
        E 96 97 37 6c
        E 864 87 37 00
        E 96 97 37 75
        E 864 87 37 00
        E 96 97 35 6c
        E 864 87 35 00
        E 96 97 32 75
        E 864 87 32 00
        E 96 97 31 6c
        E 864 87 31 00
        E 96 97 2e 75
        E 864 87 2e 00
        E 96 97 29 6c
        E 864 87 29 00
        E 96 97 25 75
        E 864 87 25 00
        E 96 97 28 6c
        E 864 87 28 00
        E 96 97 2d 75
        E 864 87 2d 00
        E 96 97 2e 6c
        E 864 87 2e 00
        E 0 b7 7b 00
        E 1 ff 2f 00
      >
    >
  >
  <TRACK
    NAME "Pedal"
    PEAKCOL 4284506208
    VOLPAN 1.000000 0 1 -1
    MIDIOUT -1
    ISBUS 0 0
    <ITEM
      POSITION 0.000000
      LENGTH 62.708696
      NAME "Pedal"
      VOLPAN 1 0 1 -1
      <SOURCE MIDI
        HASDATA 1 960 QN
        E 0 c8 2b 00
        E 0 98 21 46
        E 3840 88 21 00
        E 0 98 21 46
        E 3840 88 21 00
        E 0 98 21 46
        E 3840 88 21 00
        E 0 98 21 46
        E 3840 88 21 00
        E 0 98 21 46
        E 3840 88 21 00
        E 0 98 21 46
        E 3840 88 21 00
        E 0 98 21 46
        E 3840 88 21 00
        E 0 98 21 46
        E 3840 88 21 00
        E 0 98 21 46
        E 3840 88 21 00
        E 0 98 21 46
        E 3840 88 21 00
        E 0 98 21 46
        E 3840 88 21 00
        E 0 98 21 46
        E 3840 88 21 00
        E 0 98 21 46
        E 3840 88 21 00
        E 0 98 21 46
        E 3840 88 21 00
        E 0 98 21 46
        E 3840 88 21 00
        E 0 98 21 46
        E 3840 88 21 00
        E 0 98 21 46
        E 3840 88 21 00
        E 0 98 21 46
        E 3840 88 21 00
        E 0 98 21 46
        E 3840 88 21 00
        E 0 98 21 46
        E 3840 88 21 00
        E 0 98 21 46
        E 3840 88 21 00
        E 0 98 21 46
        E 3840 88 21 00
        E 0 98 21 46
        E 3840 88 21 00
        E 0 98 21 46
        E 3840 88 21 00
        E 0 b8 7b 00
        E 1 ff 2f 00
      >
    >
  >
  <TRACK
    NAME "Timpani"
    PEAKCOL 4290722362
    VOLPAN 1.000000 0 1 -1
    MIDIOUT -1
    ISBUS 0 0
    <ITEM
      POSITION 1.304348
      LENGTH 58.534783
      NAME "Timpani"
      VOLPAN 1 0 1 -1
      <SOURCE MIDI
        HASDATA 1 960 QN
        E 0 ca 2f 00
        E 1920 9a 39 75
        E 1536 8a 39 00
        E 2304 9a 3a 77
        E 1536 8a 3a 00
        E 6144 9a 2d 78
        E 1536 8a 2d 00
        E 2304 9a 39 7b
        E 1536 8a 39 00
        E 384 9a 26 7c
        E 1920 9a 3a 77
        E 1344 8a 26 00
        E 192 8a 3a 00
        E 384 9a 25 7d
        E 1920 9a 39 7b
        E 1344 8a 25 00
        E 192 8a 39 00
        E 384 9a 26 7d
        E 1920 9a 2d 7b
        E 1344 8a 26 00
        E 192 8a 2d 00
        E 384 9a 25 7c
        E 1920 9a 39 75
        E 1344 8a 25 00
        E 192 8a 39 00
        E 384 9a 26 7c
        E 1920 9a 3a 77
        E 1344 8a 26 00
        E 192 8a 3a 00
        E 384 9a 26 7d
        E 1920 9a 3a 79
        E 1344 8a 26 00
        E 192 8a 3a 00
        E 384 9a 25 7c
        E 1920 9a 39 77
        E 1344 8a 25 00
        E 192 8a 39 00
        E 384 9a 25 7d
        E 1920 9a 39 79
        E 1344 8a 25 00
        E 192 8a 39 00
        E 384 9a 26 7c
        E 1920 9a 3a 75
        E 1344 8a 26 00
        E 192 8a 3a 00
        E 384 9a 25 7d
        E 1920 9a 39 7b
        E 1344 8a 25 00
        E 192 8a 39 00
        E 384 9a 26 7b
        E 1920 9a 2d 75
        E 1344 8a 26 00
        E 192 8a 2d 00
        E 384 9a 25 7d
        E 1920 9a 39 7b
        E 1344 8a 25 00
        E 192 8a 39 00
        E 384 9a 26 7c
        E 1920 9a 3a 75
        E 1344 8a 26 00
        E 192 8a 3a 00
        E 384 9a 25 7c
        E 1920 9a 39 77
        E 1344 8a 25 00
        E 192 8a 39 00
        E 384 9a 26 7d
        E 1920 9a 2d 78
        E 1344 8a 26 00
        E 192 8a 2d 00
        E 2304 9a 39 75
        E 1536 8a 39 00
        E 384 9a 26 7c
        E 3264 8a 26 00
        E 2496 9a 3a 7a
        E 1536 8a 3a 00
        E 0 ba 7b 00
        E 1 ff 2f 00
      >
    >
  >
>
