<REAPER_PROJECT 0.1 "7.0" 1700000000
  TEMPO 84.000000 4 4
  SAMPLERATE 48000 0 0
  RENDER_FILE ""
  RENDER_FMT 0 2 0
  RENDER_1X 0
  RENDER_RANGE 1 0 73.798665 0 0
  RENDER_RESAMPLE 3 0 1
  <MASTERTRACK
    VOLPAN 1 0 1 -1
    DEFCHAN 0
  >
  <TRACK
    NAME "Lead"
    PEAKCOL 4284506208
    VOLPAN 1.000000 0 1 -1
    MIDIOUT -1
    ISBUS 0 0
    <ITEM
      POSITION 0.001435
      LENGTH 71.897230
      NAME "Lead"
      VOLPAN 1 0 1 -1
      <SOURCE MIDI
        HASDATA 1 960 QN
        E 0 c0 47 00
        E 2 90 56 7c
        E 954 80 56 00
        E 422 90 55 4d
        E 666 90 56 52
        E 778 80 55 00
        E 89 80 56 00
        E 140 90 55 54
        E 867 80 55 00
        E 145 90 56 5d
        E 867 80 56 00
        E 153 90 57 5b
        E 867 80 57 00
        E 141 90 56 50
        E 867 80 56 00
        E 176 90 56 54
        E 197 80 56 00
        E 2041 90 55 4d
        E 481 80 55 00
        E 285 90 56 5b
        E 517 90 55 4d
        E 240 80 55 00
        E 110 80 56 00
        E 167 90 51 64
        E 507 90 52 4d
        E 240 80 52 00
        E 120 80 51 00
        E 147 90 56 4d
        E 867 80 56 00
        E 143 90 55 4d
        E 438 80 55 00
        E 570 90 55 4d
        E 780 80 55 00
        E 259 90 56 4d
        E 200 90 55 4d
        E 200 90 51 4d
        E 40 80 55 00
        E 161 90 4f 4d
        E 39 80 51 00
        E 140 80 56 00
        E 21 90 4b 4d
        E 40 80 4f 00
        E 160 90 4a 66
        E 40 80 4b 00
        E 914 80 4a 00
        E 572 90 4b 4d
        E 867 80 4b 00
        E 165 90 4a 60
        E 867 80 4a 00
        E 153 90 57 66
        E 438 80 57 00
        E 798 90 4e 7c
        E 790 90 4b 4d
        E 77 80 4e 00
        E 703 80 4b 00
        E 239 90 4e 4d
        E 780 80 4e 00
        E 237 90 4b 4d
        E 954 80 4b 00
        E 55 90 4e 7c
        E 867 80 4e 00
        E 165 90 4b 5e
        E 867 80 4b 00
        E 399 90 4b 4d
        E 778 90 4b 56
        E 89 80 4b 00
        E 778 80 4b 00
        E 505 90 4a 4d
        E 640 90 4e 4d
        E 197 80 4e 00
        E 30 80 4a 00
        E 1314 90 4b 52
        E 954 80 4b 00
        E 49 90 4b 4d
        E 438 80 4b 00
        E 723 90 4b 60
        E 875 80 4b 00
        E 23 90 4e 7c
        E 867 80 4e 00
        E 141 90 4b 62
        E 506 90 4e 69
        E 369 80 4b 00
        E 498 80 4e 00
        E 399 90 4b 66
        E 761 90 4b 4d
        E 19 80 4b 00
        E 761 80 4b 00
        E 232 90 4a 4d
        E 954 80 4a 00
        E 204 90 4e 76
        E 867 80 4e 00
        E 27 90 4b 69
        E 867 80 4b 00
        E 134 90 4e 4d
        E 219 80 4e 00
        E 805 90 4b 5d
        E 867 80 4b 00
        E 162 90 4e 75
        E 867 80 4e 00
        E 137 90 4b 4d
        E 591 80 4b 00
        E 438 90 4b 4d
        E 954 80 4b 00
        E 54 90 4e 4d
        E 954 80 4e 00
        E 76 90 4b 4d
        E 867 80 4b 00
        E 133 90 4b 5d
        E 438 80 4b 00
        E 839 90 4a 5d
        E 867 80 4a 00
        E 650 90 4b 4d
        E 261 90 4b 4d
        E 780 80 4b 00
        E 272 80 4b 00
        E 334 90 56 4d
        E 653 90 4b 4d
        E 127 80 56 00
        E 395 90 4b 4d
        E 432 80 4b 00
        E 324 90 4e 4d
        E 198 80 4b 00
        E 42 80 4e 00
        E 517 90 52 4d
        E 656 80 52 00
        E 375 90 51 4d
        E 438 80 51 00
        E 62 90 55 4d
        E 240 80 55 00
        E 259 90 57 5d
        E 867 80 57 00
        E 519 90 55 4d
        E 662 90 56 5e
        E 205 80 55 00
        E 297 90 55 4d
        E 89 80 56 00
        E 151 80 55 00
        E 262 90 51 75
        E 633 90 52 4d
        E 240 80 52 00
        E 81 80 51 00
        E 313 90 56 5d
        E 771 90 55 54
        E 183 80 56 00
        E 684 80 55 00
        E 163 90 56 4d
        E 867 80 56 00
        E 157 90 55 54
        E 867 80 55 00
        E 391 90 52 4d
        E 771 90 56 4e
        E 96 80 52 00
        E 101 80 56 00
        E 817 90 55 4e
        E 394 80 55 00
        E 631 90 56 54
        E 631 90 55 4d
        E 240 80 55 00
        E 83 80 56 00
        E 309 90 51 6e
        E 753 90 55 4d
        E 114 80 51 00
        E 753 80 55 00
        E 157 90 51 4d
        E 867 80 51 00
        E 167 90 55 4d
        E 656 80 55 00
        E 356 90 51 4d
        E 438 80 51 00
        E 67 90 52 4d
        E 240 80 52 00
        E 265 90 56 50
        E 204 90 55 4d
        E 204 90 51 4d
        E 36 80 55 00
        E 168 90 4f 4d
        E 36 80 51 00
        E 132 80 56 00
        E 35 90 4b 4d
        E 37 80 4f 00
        E 167 90 4a 77
        E 36 80 4b 00
        E 918 80 4a 00
        E 50 90 4b 76
        E 954 80 4b 00
        E 90 90 4e 4d
        E 867 80 4e 00
        E 244 90 4b 4d
        E 438 80 4b 00
        E 474 90 4e 4d
        E 438 80 4e 00
        E 568 90 4a 50
        E 867 80 4a 00
        E 519 90 4b 4d
        E 867 80 4b 00
        E 296 90 4b 4d
        E 780 80 4b 00
        E 242 90 4a 69
        E 963 80 4a 00
        E 409 90 4b 52
        E 656 90 4b 54
        E 211 80 4b 00
        E 656 80 4b 00
        E 167 90 4b 50
        E 219 80 4b 00
        E 794 90 4e 4d
        E 867 80 4e 00
        E 145 90 4e 4d
        E 867 80 4e 00
        E 165 90 4a 4d
        E 780 80 4a 00
        E 472 90 4b 59
        E 481 80 4b 00
        E 636 90 4e 4d
        E 671 90 4b 60
        E 283 80 4e 00
        E 584 80 4b 00
        E 157 90 4a 4e
        E 867 80 4a 00
        E 0 b0 7b 00
        E 1 ff 2f 00
      >
    >
  >
  <TRACK
    NAME "Ostinato"
    PEAKCOL 4284506208
    VOLPAN 1.000000 0 1 -1
    MIDIOUT -1
    ISBUS 0 0
    <ITEM
      POSITION 0.178571
      LENGTH 71.314286
      NAME "Ostinato"
      VOLPAN 1 0 1 -1
      <SOURCE MIDI
        HASDATA 1 960 QN
        E 0 c1 2d 00
        E 240 91 36 69
        E 192 81 36 00
        E 288 91 36 69
        E 192 81 36 00
        E 768 91 36 56
        E 192 81 36 00
        E 288 91 36 69
        E 192 81 36 00
        E 48 91 39 69
        E 192 81 39 00
        E 288 91 32 60
        E 192 81 32 00
        E 48 91 36 60
        E 192 81 36 00
        E 528 91 32 69
        E 192 81 32 00
        E 528 91 36 69
        E 192 81 36 00
        E 768 91 36 56
        E 192 81 36 00
        E 528 91 39 69
        E 192 81 39 00
        E 48 91 36 69
        E 192 81 36 00
        E 3168 91 36 69
        E 192 81 36 00
        E 48 91 39 69
        E 192 81 39 00
        E 288 91 32 60
        E 192 81 32 00
        E 48 91 36 60
        E 192 81 36 00
        E 48 91 39 60
        E 192 81 39 00
        E 1008 91 36 69
        E 192 81 36 00
        E 1008 91 32 69
        E 192 81 32 00
        E 288 91 39 69
        E 192 81 39 00
        E 1728 91 39 69
        E 192 81 39 00
        E 48 91 36 69
        E 192 81 36 00
        E 528 91 39 56
        E 192 81 39 00
        E 1968 91 36 60
        E 192 81 36 00
        E 48 91 32 69
        E 192 81 32 00
        E 48 91 36 69
        E 192 81 36 00
        E 48 91 39 69
        E 192 81 39 00
        E 48 91 36 69
        E 192 81 36 00
        E 48 91 32 56
        E 192 81 32 00
        E 48 91 36 56
        E 192 81 36 00
        E 48 91 39 56
        E 192 81 39 00
        E 48 91 36 56
        E 192 81 36 00
        E 48 91 32 69
        E 192 81 32 00
        E 48 91 36 69
        E 192 81 36 00
        E 48 91 39 69
        E 192 81 39 00
        E 48 91 36 69
        E 192 81 36 00
        E 48 91 32 60
        E 192 81 32 00
        E 48 91 36 60
        E 192 81 36 00
        E 48 91 39 60
        E 192 81 39 00
        E 48 91 36 60
        E 192 81 36 00
        E 48 91 32 69
        E 192 81 32 00
        E 48 91 36 69
        E 192 81 36 00
        E 48 91 39 69
        E 192 81 39 00
        E 48 91 36 69
        E 192 81 36 00
        E 48 91 32 56
        E 192 81 32 00
        E 48 91 36 56
        E 192 81 36 00
        E 48 91 39 56
        E 192 81 39 00
        E 48 91 36 56
        E 192 81 36 00
        E 48 91 32 69
        E 192 81 32 00
        E 48 91 36 69
        E 192 81 36 00
        E 48 91 39 69
        E 192 81 39 00
        E 48 91 36 69
        E 192 81 36 00
        E 48 91 32 60
        E 192 81 32 00
        E 48 91 36 60
        E 192 81 36 00
        E 48 91 39 60
        E 192 81 39 00
        E 48 91 36 60
        E 192 81 36 00
        E 48 91 32 69
        E 192 81 32 00
        E 48 91 36 69
        E 192 81 36 00
        E 48 91 39 69
        E 192 81 39 00
        E 48 91 36 69
        E 192 81 36 00
        E 48 91 32 56
        E 192 81 32 00
        E 48 91 36 56
        E 192 81 36 00
        E 48 91 39 56
        E 192 81 39 00
        E 48 91 36 56
        E 192 81 36 00
        E 48 91 32 69
        E 192 81 32 00
        E 48 91 36 69
        E 192 81 36 00
        E 48 91 39 69
        E 192 81 39 00
        E 48 91 36 69
        E 192 81 36 00
        E 48 91 32 60
        E 192 81 32 00
        E 48 91 36 60
        E 192 81 36 00
        E 48 91 39 60
        E 192 81 39 00
        E 48 91 36 60
        E 192 81 36 00
        E 48 91 32 69
        E 192 81 32 00
        E 48 91 36 69
        E 192 81 36 00
        E 48 91 39 69
        E 192 81 39 00
        E 48 91 36 69
        E 192 81 36 00
        E 48 91 32 56
        E 192 81 32 00
        E 48 91 36 56
        E 192 81 36 00
        E 48 91 39 56
        E 192 81 39 00
        E 48 91 36 56
        E 192 81 36 00
        E 48 91 32 69
        E 192 81 32 00
        E 48 91 36 69
        E 192 81 36 00
        E 48 91 39 69
        E 192 81 39 00
        E 48 91 36 69
        E 192 81 36 00
        E 48 91 32 60
        E 192 81 32 00
        E 48 91 36 60
        E 192 81 36 00
        E 48 91 39 60
        E 192 81 39 00
        E 48 91 36 60
        E 192 81 36 00
        E 48 91 32 69
        E 192 81 32 00
        E 48 91 36 69
        E 192 81 36 00
        E 48 91 39 69
        E 192 81 39 00
        E 48 91 36 69
        E 192 81 36 00
        E 48 91 32 56
        E 192 81 32 00
        E 48 91 36 56
        E 192 81 36 00
        E 48 91 39 56
        E 192 81 39 00
        E 48 91 36 56
        E 192 81 36 00
        E 48 91 32 69
        E 192 81 32 00
        E 48 91 36 69
        E 192 81 36 00
        E 48 91 39 69
        E 192 81 39 00
        E 48 91 36 69
        E 192 81 36 00
        E 48 91 32 60
        E 192 81 32 00
        E 48 91 36 60
        E 192 81 36 00
        E 48 91 39 60
        E 192 81 39 00
        E 48 91 36 60
        E 192 81 36 00
        E 48 91 32 69
        E 192 81 32 00
        E 48 91 36 69
        E 192 81 36 00
        E 48 91 39 69
        E 192 81 39 00
        E 48 91 36 69
        E 192 81 36 00
        E 48 91 32 56
        E 192 81 32 00
        E 48 91 36 56
        E 192 81 36 00
        E 48 91 39 56
        E 192 81 39 00
        E 48 91 36 56
        E 192 81 36 00
        E 48 91 32 69
        E 192 81 32 00
        E 48 91 36 69
        E 192 81 36 00
        E 48 91 39 69
        E 192 81 39 00
        E 48 91 36 69
        E 192 81 36 00
        E 48 91 32 60
        E 192 81 32 00
        E 48 91 36 60
        E 192 81 36 00
        E 48 91 39 60
        E 192 81 39 00
        E 48 91 36 60
        E 192 81 36 00
        E 48 91 32 69
        E 192 81 32 00
        E 48 91 36 69
        E 192 81 36 00
        E 48 91 39 69
        E 192 81 39 00
        E 48 91 36 69
        E 192 81 36 00
        E 48 91 32 56
        E 192 81 32 00
        E 48 91 36 56
        E 192 81 36 00
        E 48 91 39 56
        E 192 81 39 00
        E 48 91 36 56
        E 192 81 36 00
        E 48 91 32 69
        E 192 81 32 00
        E 48 91 36 69
        E 192 81 36 00
        E 48 91 39 69
        E 192 81 39 00
        E 48 91 36 69
        E 192 81 36 00
        E 48 91 32 60
        E 192 81 32 00
        E 48 91 36 60
        E 192 81 36 00
        E 48 91 39 60
        E 192 81 39 00
        E 48 91 36 60
        E 192 81 36 00
        E 48 91 32 69
        E 192 81 32 00
        E 48 91 36 69
        E 192 81 36 00
        E 48 91 39 69
        E 192 81 39 00
        E 48 91 36 69
        E 192 81 36 00
        E 48 91 32 56
        E 192 81 32 00
        E 48 91 36 56
        E 192 81 36 00
        E 48 91 39 56
        E 192 81 39 00
        E 48 91 36 56
        E 192 81 36 00
        E 48 91 32 69
        E 192 81 32 00
        E 48 91 36 69
        E 192 81 36 00
        E 48 91 39 69
        E 192 81 39 00
        E 48 91 36 69
        E 192 81 36 00
        E 48 91 32 60
        E 192 81 32 00
        E 48 91 36 60
        E 192 81 36 00
        E 48 91 39 60
        E 192 81 39 00
        E 48 91 36 60
        E 192 81 36 00
        E 48 91 32 69
        E 192 81 32 00
        E 48 91 36 69
        E 192 81 36 00
        E 48 91 39 69
        E 192 81 39 00
        E 48 91 36 69
        E 192 81 36 00
        E 48 91 32 56
        E 192 81 32 00
        E 48 91 36 56
        E 192 81 36 00
        E 48 91 39 56
        E 192 81 39 00
        E 48 91 36 56
        E 192 81 36 00
        E 48 91 32 69
        E 192 81 32 00
        E 48 91 36 69
        E 192 81 36 00
        E 48 91 39 69
        E 192 81 39 00
        E 48 91 36 69
        E 192 81 36 00
        E 48 91 32 60
        E 192 81 32 00
        E 48 91 36 60
        E 192 81 36 00
        E 48 91 39 60
        E 192 81 39 00
        E 48 91 36 60
        E 192 81 36 00
        E 48 91 32 69
        E 192 81 32 00
        E 48 91 36 69
        E 192 81 36 00
        E 48 91 39 69
        E 192 81 39 00
        E 48 91 36 69
        E 192 81 36 00
        E 48 91 32 56
        E 192 81 32 00
        E 48 91 36 56
        E 192 81 36 00
        E 48 91 39 56
        E 192 81 39 00
        E 48 91 36 56
        E 192 81 36 00
        E 48 91 32 69
        E 192 81 32 00
        E 48 91 36 69
        E 192 81 36 00
        E 48 91 39 69
        E 192 81 39 00
        E 48 91 36 69
        E 192 81 36 00
        E 48 91 32 60
        E 192 81 32 00
        E 48 91 36 60
        E 192 81 36 00
        E 48 91 39 60
        E 192 81 39 00
        E 48 91 36 60
        E 192 81 36 00
        E 48 91 32 69
        E 192 81 32 00
        E 48 91 36 69
        E 192 81 36 00
        E 48 91 39 69
        E 192 81 39 00
        E 48 91 36 69
        E 192 81 36 00
        E 48 91 32 56
        E 192 81 32 00
        E 48 91 36 56
        E 192 81 36 00
        E 48 91 39 56
        E 192 81 39 00
        E 48 91 36 56
        E 192 81 36 00
        E 48 91 32 69
        E 192 81 32 00
        E 48 91 36 69
        E 192 81 36 00
        E 48 91 39 69
        E 192 81 39 00
        E 48 91 36 69
        E 192 81 36 00
        E 48 91 32 60
        E 192 81 32 00
        E 48 91 36 60
        E 192 81 36 00
        E 48 91 39 60
        E 192 81 39 00
        E 48 91 36 60
        E 192 81 36 00
        E 48 91 32 69
        E 192 81 32 00
        E 48 91 36 69
        E 192 81 36 00
        E 48 91 39 69
        E 192 81 39 00
        E 48 91 36 69
        E 192 81 36 00
        E 48 91 32 56
        E 192 81 32 00
        E 48 91 36 56
        E 192 81 36 00
        E 48 91 39 56
        E 192 81 39 00
        E 48 91 36 56
        E 192 81 36 00
        E 48 91 32 69
        E 192 81 32 00
        E 48 91 36 69
        E 192 81 36 00
        E 48 91 39 69
        E 192 81 39 00
        E 48 91 36 69
        E 192 81 36 00
        E 48 91 32 60
        E 192 81 32 00
        E 48 91 36 60
        E 192 81 36 00
        E 48 91 39 60
        E 192 81 39 00
        E 48 91 36 60
        E 192 81 36 00
        E 48 91 32 69
        E 192 81 32 00
        E 48 91 36 69
        E 192 81 36 00
        E 48 91 39 69
        E 192 81 39 00
        E 48 91 36 69
        E 192 81 36 00
        E 48 91 32 56
        E 192 81 32 00
        E 48 91 36 56
        E 192 81 36 00
        E 48 91 39 56
        E 192 81 39 00
        E 48 91 36 56
        E 192 81 36 00
        E 48 91 32 69
        E 192 81 32 00
        E 48 91 36 69
        E 192 81 36 00
        E 48 91 39 69
        E 192 81 39 00
        E 48 91 36 69
        E 192 81 36 00
        E 48 91 32 60
        E 192 81 32 00
        E 48 91 36 60
        E 192 81 36 00
        E 48 91 39 60
        E 192 81 39 00
        E 48 91 36 60
        E 192 81 36 00
        E 48 91 32 69
        E 192 81 32 00
        E 48 91 36 69
        E 192 81 36 00
        E 48 91 39 69
        E 192 81 39 00
        E 48 91 36 69
        E 192 81 36 00
        E 48 91 32 56
        E 192 81 32 00
        E 48 91 36 56
        E 192 81 36 00
        E 48 91 39 56
        E 192 81 39 00
        E 48 91 36 56
        E 192 81 36 00
        E 48 91 32 69
        E 192 81 32 00
        E 48 91 36 69
        E 192 81 36 00
        E 48 91 39 69
        E 192 81 39 00
        E 48 91 36 69
        E 192 81 36 00
        E 48 91 32 60
        E 192 81 32 00
        E 48 91 36 60
        E 192 81 36 00
        E 48 91 39 60
        E 192 81 39 00
        E 48 91 36 60
        E 192 81 36 00
        E 48 91 32 69
        E 192 81 32 00
        E 48 91 36 69
        E 192 81 36 00
        E 48 91 39 69
        E 192 81 39 00
        E 48 91 36 69
        E 192 81 36 00
        E 48 91 32 56
        E 192 81 32 00
        E 48 91 36 56
        E 192 81 36 00
        E 48 91 39 56
        E 192 81 39 00
        E 48 91 36 56
        E 192 81 36 00
        E 48 91 32 69
        E 192 81 32 00
        E 48 91 36 69
        E 192 81 36 00
        E 48 91 39 69
        E 192 81 39 00
        E 48 91 36 69
        E 192 81 36 00
        E 48 91 32 60
        E 192 81 32 00
        E 48 91 36 60
        E 192 81 36 00
        E 48 91 39 60
        E 192 81 39 00
        E 48 91 36 60
        E 192 81 36 00
        E 1248 91 36 56
        E 192 81 36 00
        E 528 91 32 69
        E 192 81 32 00
        E 48 91 36 69
        E 192 81 36 00
        E 48 91 39 69
        E 192 81 39 00
        E 768 91 39 60
        E 192 81 39 00
        E 1248 91 32 56
        E 192 81 32 00
        E 1248 91 39 69
        E 192 81 39 00
        E 1488 91 36 69
        E 192 81 36 00
        E 1248 91 36 56
        E 192 81 36 00
        E 1008 91 32 60
        E 192 81 32 00
        E 288 91 39 60
        E 192 81 39 00
        E 1008 91 36 69
        E 192 81 36 00
        E 528 91 39 56
        E 192 81 39 00
        E 288 91 32 69
        E 192 81 32 00
        E 528 91 36 69
        E 192 81 36 00
        E 1248 91 36 69
        E 192 81 36 00
        E 528 91 32 56
        E 192 81 32 00
        E 1248 91 39 69
        E 192 81 39 00
        E 48 91 36 69
        E 192 81 36 00
        E 528 91 39 60
        E 192 81 39 00
        E 48 91 36 60
        E 192 81 36 00
        E 0 b1 7b 00
        E 1 ff 2f 00
      >
    >
  >
  <TRACK
    NAME "Counter"
    PEAKCOL 4284506208
    VOLPAN 1.000000 0 1 -1
    MIDIOUT -1
    ISBUS 0 0
    <ITEM
      POSITION 0.000000
      LENGTH 71.471429
      NAME "Counter"
      VOLPAN 1 0 1 -1
      <SOURCE MIDI
        HASDATA 1 960 QN
        E 0 c2 47 00
        E 0 92 3e 4b
        E 3763 82 3e 00
        E 77 92 3f 4b
        E 3763 82 3f 00
        E 3917 92 42 4b
        E 3763 82 42 00
        E 77 92 4a 4b
        E 3763 82 4a 00
        E 77 92 37 50
        E 0 92 3f 4b
        E 3763 82 37 00
        E 0 82 3f 00
        E 77 92 37 50
        E 0 92 3e 4b
        E 3763 82 37 00
        E 0 82 3e 00
        E 77 92 3d 50
        E 0 92 42 4b
        E 3763 82 3d 00
        E 0 82 42 00
        E 77 92 37 50
        E 0 92 3e 4b
        E 3763 82 37 00
        E 0 82 3e 00
        E 77 92 37 50
        E 0 92 3e 4b
        E 3763 82 37 00
        E 0 82 3e 00
        E 77 92 37 50
        E 0 92 3f 4b
        E 3763 82 37 00
        E 0 82 3f 00
        E 77 92 37 50
        E 0 92 3e 4b
        E 3763 82 37 00
        E 0 82 3e 00
        E 77 92 37 50
        E 0 92 3e 4b
        E 3763 82 37 00
        E 0 82 3e 00
        E 77 92 37 50
        E 0 92 3f 4b
        E 3763 82 37 00
        E 0 82 3f 00
        E 77 92 37 50
        E 0 92 3e 4b
        E 3763 82 37 00
        E 0 82 3e 00
        E 77 92 3d 50
        E 0 92 42 4b
        E 3763 82 3d 00
        E 0 82 42 00
        E 77 92 37 50
        E 0 92 3e 4b
        E 3763 82 37 00
        E 0 82 3e 00
        E 77 92 37 50
        E 0 92 3f 4b
        E 3763 82 37 00
        E 0 82 3f 00
        E 77 92 37 50
        E 0 92 3e 4b
        E 3763 82 37 00
        E 0 82 3e 00
        E 77 92 3d 50
        E 0 92 42 4b
        E 3763 82 3d 00
        E 0 82 42 00
        E 77 92 37 50
        E 3763 82 37 00
        E 77 92 37 50
        E 0 92 3e 4b
        E 3763 82 37 00
        E 0 82 3e 00
        E 3917 92 37 50
        E 3763 82 37 00
        E 77 92 3e 4b
        E 3763 82 3e 00
        E 0 b2 7b 00
        E 1 ff 2f 00
      >
    >
  >
  <TRACK
    NAME "Clarinet"
    PEAKCOL 4282040170
    VOLPAN 1.000000 0 1 -1
    MIDIOUT -1
    ISBUS 0 0
    <ITEM
      POSITION 2.862511
      LENGTH 54.387424
      NAME "Clarinet"
      VOLPAN 1 0 1 -1
      <SOURCE MIDI
        HASDATA 1 960 QN
        E 0 c3 47 00
        E 3847 93 46 5b
        E 3840 83 46 00
        E 7677 93 4a 5b
        E 3840 83 4a 00
        E 3846 93 4a 5b
        E 3831 93 45 5b
        E 9 83 4a 00
        E 3831 83 45 00
        E 3849 93 4a 5b
        E 3838 93 46 5b
        E 2 83 4a 00
        E 3838 83 46 00
        E 3840 93 42 5b
        E 3835 93 3f 5b
        E 5 83 42 00
        E 3835 83 3f 00
        E 3846 93 42 5b
        E 3840 83 42 00
        E 0 93 3e 5b
        E 3840 83 3e 00
        E 3838 93 3e 5b
        E 3840 83 3e 00
        E 3 93 3d 5b
        E 3840 83 3d 00
        E 0 b3 7b 00
        E 1 ff 2f 00
      >
    >
  >
  <TRACK
    NAME "Bassoon"
    PEAKCOL 4286528191
    VOLPAN 1.000000 0 1 -1
    MIDIOUT -1
    ISBUS 0 0
    <ITEM
      POSITION 2.862439
      LENGTH 54.388568
      NAME "Bassoon"
      VOLPAN 1 0 1 -1
      <SOURCE MIDI
        HASDATA 1 960 QN
        E 0 c4 46 00
        E 3847 94 33 52
        E 3840 84 33 00
        E 7674 94 32 52
        E 3840 84 32 00
        E 3844 94 32 52
        E 3840 84 32 00
        E 3 94 31 52
        E 3840 84 31 00
        E 3837 94 33 52
        E 3840 84 33 00
        E 6 94 2e 52
        E 3840 84 2e 00
        E 3837 94 32 52
        E 3833 94 33 52
        E 7 84 32 00
        E 3833 84 33 00
        E 3842 94 31 52
        E 3840 84 31 00
        E 4 94 2e 52
        E 3840 84 2e 00
        E 3844 94 32 52
        E 3840 84 32 00
        E 0 94 2d 52
        E 3840 84 2d 00
        E 0 b4 7b 00
        E 1 ff 2f 00
      >
    >
  >
  <TRACK
    NAME "Tremolo"
    PEAKCOL 4284186559
    VOLPAN 1.000000 0 1 -1
    MIDIOUT -1
    ISBUS 0 0
    <ITEM
      POSITION 0.214203
      LENGTH 71.018780
      NAME "Tremolo"
      VOLPAN 1 0 1 -1
      <SOURCE MIDI
        HASDATA 1 960 QN
        E 0 c5 2c 00
        E 288 95 32 2e
        E 274 85 32 00
        E 204 95 32 37
        E 182 85 32 00
        E 585 95 32 39
        E 182 85 32 00
        E 207 95 32 3e
        E 182 85 32 00
        E 5 95 32 44
        E 182 85 32 00
        E 207 95 32 44
        E 182 85 32 00
        E 8 95 32 3b
        E 182 85 32 00
        E 390 95 32 3d
        E 182 85 32 00
        E 395 95 33 2e
        E 274 85 33 00
        E 688 95 33 3d
        E 182 85 33 00
        E 396 95 33 3b
        E 182 85 33 00
        E 6 95 33 44
        E 182 85 33 00
        E 2699 95 32 34
        E 182 85 32 00
        E 15 95 32 3e
        E 182 85 32 00
        E 197 95 32 44
        E 182 85 32 00
        E 15 95 32 39
        E 182 85 32 00
        E 11 95 32 44
        E 182 85 32 00
        E 772 95 32 3b
        E 182 85 32 00
        E 783 95 32 2e
        E 182 85 32 00
        E 290 95 36 2e
        E 274 85 36 00
        E 1361 95 36 44
        E 182 85 36 00
        E 17 95 36 44
        E 182 85 36 00
        E 391 95 36 3b
        E 182 85 36 00
        E 1740 95 32 37
        E 182 85 32 00
        E 967 95 32 44
        E 182 85 32 00
        E 392 95 32 40
        E 182 85 32 00
        E 9 95 32 37
        E 182 85 32 00
        E 11 95 32 42
        E 182 85 32 00
        E 590 95 32 2e
        E 182 85 32 00
        E 294 95 33 2e
        E 274 85 33 00
        E 19 95 33 46
        E 182 85 33 00
        E 2 95 33 37
        E 182 85 33 00
        E 18 95 33 3d
        E 182 85 33 00
        E 6 95 33 37
        E 182 85 33 00
        E 14 95 33 46
        E 182 85 33 00
        E 4 95 33 3e
        E 182 85 33 00
        E 14 95 33 49
        E 182 85 33 00
        E 13 95 33 40
        E 182 85 33 00
        E 5 95 33 44
        E 182 85 33 00
        E 8 95 33 3d
        E 182 85 33 00
        E 10 95 33 44
        E 182 85 33 00
        E 12 95 33 37
        E 182 85 33 00
        E 12 95 33 42
        E 182 85 33 00
        E 6 95 33 34
        E 182 85 33 00
        E 7 95 33 39
        E 182 85 33 00
        E 12 95 33 2e
        E 182 85 33 00
        E 16 95 33 2e
        E 182 85 33 00
        E 9 95 32 2e
        E 274 85 32 00
        E 14 95 32 2e
        E 274 85 32 00
        E 15 95 32 46
        E 182 85 32 00
        E 9 95 32 34
        E 182 85 32 00
        E 8 95 32 3d
        E 182 85 32 00
        E 10 95 32 37
        E 182 85 32 00
        E 12 95 32 44
        E 182 85 32 00
        E 9 95 32 3b
        E 182 85 32 00
        E 7 95 32 47
        E 182 85 32 00
        E 11 95 32 42
        E 182 85 32 00
        E 15 95 32 46
        E 182 85 32 00
        E 6 95 32 3e
        E 182 85 32 00
        E 8 95 32 44
        E 182 85 32 00
        E 10 95 32 39
        E 182 85 32 00
        E 12 95 32 42
        E 182 85 32 00
        E 12 95 32 35
        E 182 85 32 00
        E 8 95 32 39
        E 182 85 32 00
        E 15 95 32 2e
        E 182 85 32 00
        E 2 95 32 2e
        E 182 85 32 00
        E 15 95 36 2e
        E 274 85 36 00
        E 12 95 36 2e
        E 274 85 36 00
        E 14 95 36 44
        E 182 85 36 00
        E 14 95 36 35
        E 182 85 36 00
        E 3 95 36 3d
        E 182 85 36 00
        E 8 95 36 37
        E 182 85 36 00
        E 18 95 36 40
        E 182 85 36 00
        E 4 95 36 39
        E 182 85 36 00
        E 11 95 36 47
        E 182 85 36 00
        E 10 95 36 40
        E 182 85 36 00
        E 14 95 36 49
        E 182 85 36 00
        E 12 95 36 39
        E 182 85 36 00
        E 3 95 36 42
        E 182 85 36 00
        E 10 95 36 39
        E 182 85 36 00
        E 10 95 36 42
        E 182 85 36 00
        E 15 95 36 35
        E 182 85 36 00
        E 12 95 36 39
        E 182 85 36 00
        E 2 95 36 2e
        E 182 85 36 00
        E 12 95 36 2e
        E 182 85 36 00
        E 13 95 32 2e
        E 274 85 32 00
        E 10 95 32 2e
        E 274 85 32 00
        E 13 95 32 49
        E 182 85 32 00
        E 10 95 32 32
        E 182 85 32 00
        E 14 95 32 42
        E 182 85 32 00
        E 6 95 32 37
        E 182 85 32 00
        E 16 95 32 40
        E 182 85 32 00
        E 8 95 32 3d
        E 182 85 32 00
        E 6 95 32 46
        E 182 85 32 00
        E 15 95 32 3e
        E 182 85 32 00
        E 12 95 32 46
        E 182 85 32 00
        E 7 95 32 3b
        E 182 85 32 00
        E 12 95 32 44
        E 182 85 32 00
        E 5 95 32 37
        E 182 85 32 00
        E 14 95 32 3e
        E 182 85 32 00
        E 13 95 32 34
        E 182 85 32 00
        E 7 95 32 3b
        E 182 85 32 00
        E 12 95 32 2e
        E 237 85 32 00
        E 9 95 32 2e
        E 128 85 32 00
        E 11 95 37 2e
        E 274 85 37 00
        E 14 95 37 2e
        E 274 85 37 00
        E 12 95 37 47
        E 182 85 37 00
        E 9 95 37 35
        E 182 85 37 00
        E 10 95 37 40
        E 182 85 37 00
        E 13 95 37 35
        E 182 85 37 00
        E 3 95 37 46
        E 182 85 37 00
        E 11 95 37 3d
        E 182 85 37 00
        E 14 95 37 44
        E 182 85 37 00
        E 4 95 37 3e
        E 182 85 37 00
        E 16 95 37 49
        E 182 85 37 00
        E 10 95 37 3d
        E 182 85 37 00
        E 8 95 37 44
        E 182 85 37 00
        E 7 95 37 3b
        E 182 85 37 00
        E 9 95 37 3e
        E 182 85 37 00
        E 16 95 37 35
        E 182 85 37 00
        E 11 95 37 3d
        E 182 85 37 00
        E 6 95 37 2e
        E 237 85 37 00
        E 9 95 37 2e
        E 128 85 37 00
        E 7 95 33 2e
        E 274 85 33 00
        E 19 95 33 2e
        E 274 85 33 00
        E 11 95 33 47
        E 182 85 33 00
        E 15 95 33 35
        E 182 85 33 00
        E 3 95 33 3d
        E 182 85 33 00
        E 14 95 33 35
        E 182 85 33 00
        E 14 95 33 44
        E 182 85 33 00
        E 2 95 33 3d
        E 182 85 33 00
        E 16 95 33 49
        E 182 85 33 00
        E 10 95 33 44
        E 182 85 33 00
        E 12 95 33 47
        E 182 85 33 00
        E 9 95 33 3b
        E 182 85 33 00
        E 9 95 33 46
        E 182 85 33 00
        E 12 95 33 37
        E 182 85 33 00
        E 5 95 33 42
        E 182 85 33 00
        E 11 95 33 32
        E 182 85 33 00
        E 13 95 33 3d
        E 182 85 33 00
        E 4 95 33 2e
        E 237 85 33 00
        E 17 95 33 2e
        E 128 85 33 00
        E 0 95 32 2e
        E 274 85 32 00
        E 23 95 32 2e
        E 274 85 32 00
        E 11 95 32 47
        E 182 85 32 00
        E 6 95 32 35
        E 182 85 32 00
        E 14 95 32 42
        E 182 85 32 00
        E 5 95 32 3b
        E 182 85 32 00
        E 12 95 32 46
        E 182 85 32 00
        E 11 95 32 3d
        E 182 85 32 00
        E 12 95 32 49
        E 182 85 32 00
        E 9 95 32 40
        E 182 85 32 00
        E 12 95 32 46
        E 182 85 32 00
        E 11 95 32 39
        E 182 85 32 00
        E 4 95 32 44
        E 182 85 32 00
        E 8 95 32 39
        E 182 85 32 00
        E 15 95 32 42
        E 182 85 32 00
        E 12 95 32 34
        E 182 85 32 00
        E 10 95 32 39
        E 182 85 32 00
        E 11 95 32 2e
        E 237 85 32 00
        E 7 95 32 2e
        E 128 85 32 00
        E 10 95 32 2e
        E 274 85 32 00
        E 13 95 32 2e
        E 274 85 32 00
        E 14 95 32 47
        E 182 85 32 00
        E 15 95 32 34
        E 182 85 32 00
        E 6 95 32 3e
        E 182 85 32 00
        E 13 95 32 35
        E 182 85 32 00
        E 3 95 32 40
        E 182 85 32 00
        E 17 95 32 3b
        E 182 85 32 00
        E 5 95 32 49
        E 182 85 32 00
        E 12 95 32 44
        E 182 85 32 00
        E 13 95 32 49
        E 182 85 32 00
        E 2 95 32 3b
        E 182 85 32 00
        E 14 95 32 42
        E 182 85 32 00
        E 6 95 32 37
        E 182 85 32 00
        E 10 95 32 3e
        E 182 85 32 00
        E 14 95 32 32
        E 182 85 32 00
        E 14 95 32 37
        E 182 85 32 00
        E 6 95 32 2e
        E 237 85 32 00
        E 16 95 32 2e
        E 128 85 32 00
        E 3 95 33 2e
        E 274 85 33 00
        E 14 95 33 2e
        E 274 85 33 00
        E 18 95 33 49
        E 182 85 33 00
        E 2 95 33 35
        E 182 85 33 00
        E 10 95 33 3d
        E 182 85 33 00
        E 12 95 33 3b
        E 182 85 33 00
        E 17 95 33 46
        E 182 85 33 00
        E 8 95 33 3d
        E 182 85 33 00
        E 4 95 33 47
        E 182 85 33 00
        E 16 95 33 3d
        E 182 85 33 00
        E 6 95 33 49
        E 182 85 33 00
        E 8 95 33 39
        E 182 85 33 00
        E 10 95 33 44
        E 182 85 33 00
        E 15 95 33 35
        E 182 85 33 00
        E 8 95 33 42
        E 182 85 33 00
        E 15 95 33 34
        E 182 85 33 00
        E 5 95 33 3b
        E 182 85 33 00
        E 6 95 33 2e
        E 237 85 33 00
        E 16 95 33 2e
        E 128 85 33 00
        E 9 95 32 2e
        E 274 85 32 00
        E 12 95 32 2e
        E 274 85 32 00
        E 17 95 32 49
        E 182 85 32 00
        E 9 95 32 32
        E 182 85 32 00
        E 3 95 32 3d
        E 182 85 32 00
        E 19 95 32 37
        E 182 85 32 00
        E 2 95 32 44
        E 182 85 32 00
        E 12 95 32 39
        E 182 85 32 00
        E 12 95 32 47
        E 182 85 32 00
        E 11 95 32 40
        E 182 85 32 00
        E 14 95 32 49
        E 182 85 32 00
        E 3 95 32 3e
        E 182 85 32 00
        E 16 95 32 46
        E 182 85 32 00
        E 2 95 32 3b
        E 182 85 32 00
        E 14 95 32 40
        E 182 85 32 00
        E 12 95 32 32
        E 182 85 32 00
        E 7 95 32 3d
        E 182 85 32 00
        E 7 95 32 2e
        E 237 85 32 00
        E 16 95 32 2e
        E 128 85 32 00
        E 3 95 36 2e
        E 274 85 36 00
        E 22 95 36 2e
        E 274 85 36 00
        E 14 95 36 49
        E 182 85 36 00
        E 8 95 36 32
        E 182 85 36 00
        E 7 95 36 42
        E 182 85 36 00
        E 13 95 36 3b
        E 182 85 36 00
        E 9 95 36 44
        E 182 85 36 00
        E 8 95 36 3d
        E 182 85 36 00
        E 8 95 36 49
        E 182 85 36 00
        E 16 95 36 40
        E 182 85 36 00
        E 11 95 36 46
        E 182 85 36 00
        E 2 95 36 3e
        E 182 85 36 00
        E 10 95 36 42
        E 182 85 36 00
        E 13 95 36 35
        E 182 85 36 00
        E 11 95 36 3e
        E 182 85 36 00
        E 7 95 36 35
        E 182 85 36 00
        E 18 95 36 39
        E 182 85 36 00
        E 1 95 36 2e
        E 237 85 36 00
        E 21 95 36 2e
        E 128 85 36 00
        E 1 95 32 2e
        E 274 85 32 00
        E 19 95 32 2e
        E 274 85 32 00
        E 12 95 32 49
        E 182 85 32 00
        E 13 95 32 37
        E 182 85 32 00
        E 2 95 32 3d
        E 182 85 32 00
        E 16 95 32 3b
        E 182 85 32 00
        E 8 95 32 42
        E 182 85 32 00
        E 11 95 32 39
        E 182 85 32 00
        E 7 95 32 49
        E 182 85 32 00
        E 10 95 32 44
        E 182 85 32 00
        E 8 95 32 44
        E 182 85 32 00
        E 12 95 32 3d
        E 182 85 32 00
        E 13 95 32 44
        E 182 85 32 00
        E 13 95 32 37
        E 182 85 32 00
        E 3 95 32 3e
        E 182 85 32 00
        E 10 95 32 32
        E 182 85 32 00
        E 12 95 32 3b
        E 182 85 32 00
        E 9 95 32 2e
        E 237 85 32 00
        E 12 95 32 2e
        E 128 85 32 00
        E 3 95 33 2e
        E 274 85 33 00
        E 21 95 33 2e
        E 274 85 33 00
        E 10 95 33 49
        E 182 85 33 00
        E 14 95 33 37
        E 182 85 33 00
        E 12 95 33 3d
        E 182 85 33 00
        E 6 95 33 37
        E 182 85 33 00
        E 12 95 33 40
        E 182 85 33 00
        E 5 95 33 3d
        E 182 85 33 00
        E 18 95 33 47
        E 182 85 33 00
        E 4 95 33 3d
        E 182 85 33 00
        E 13 95 33 49
        E 182 85 33 00
        E 5 95 33 3d
        E 182 85 33 00
        E 11 95 33 44
        E 182 85 33 00
        E 14 95 33 3b
        E 182 85 33 00
        E 11 95 33 40
        E 182 85 33 00
        E 9 95 33 37
        E 182 85 33 00
        E 4 95 33 3b
        E 182 85 33 00
        E 16 95 33 2e
        E 237 85 33 00
        E 10 95 33 2e
        E 128 85 33 00
        E 6 95 32 2e
        E 274 85 32 00
        E 15 95 32 2e
        E 274 85 32 00
        E 9 95 32 46
        E 182 85 32 00
        E 17 95 32 32
        E 182 85 32 00
        E 5 95 32 3e
        E 182 85 32 00
        E 15 95 32 37
        E 182 85 32 00
        E 8 95 32 44
        E 182 85 32 00
        E 15 95 32 3d
        E 182 85 32 00
        E 4 95 32 46
        E 182 85 32 00
        E 15 95 32 44
        E 182 85 32 00
        E 7 95 32 46
        E 182 85 32 00
        E 4 95 32 3e
        E 182 85 32 00
        E 15 95 32 40
        E 182 85 32 00
        E 12 95 32 37
        E 182 85 32 00
        E 7 95 32 42
        E 182 85 32 00
        E 9 95 32 37
        E 182 85 32 00
        E 16 95 32 37
        E 182 85 32 00
        E 6 95 32 2e
        E 237 85 32 00
        E 15 95 32 2e
        E 128 85 32 00
        E 6 95 36 2e
        E 274 85 36 00
        E 8 95 36 2e
        E 274 85 36 00
        E 13 95 36 49
        E 182 85 36 00
        E 15 95 36 34
        E 182 85 36 00
        E 12 95 36 42
        E 182 85 36 00
        E 10 95 36 35
        E 182 85 36 00
        E 11 95 36 42
        E 182 85 36 00
        E 10 95 36 3d
        E 182 85 36 00
        E 3 95 36 49
        E 182 85 36 00
        E 12 95 36 42
        E 182 85 36 00
        E 12 95 36 49
        E 182 85 36 00
        E 10 95 36 3e
        E 182 85 36 00
        E 12 95 36 40
        E 182 85 36 00
        E 7 95 36 37
        E 182 85 36 00
        E 13 95 36 42
        E 182 85 36 00
        E 9 95 36 37
        E 182 85 36 00
        E 14 95 36 3d
        E 182 85 36 00
        E 7 95 36 2e
        E 237 85 36 00
        E 12 95 36 2e
        E 128 85 36 00
        E 963 95 32 40
        E 182 85 32 00
        E 973 95 32 47
        E 182 85 32 00
        E 1160 95 32 2e
        E 237 85 32 00
        E 1106 95 37 3e
        E 182 85 37 00
        E 782 95 37 44
        E 182 85 37 00
        E 197 95 37 39
        E 182 85 37 00
        E 781 95 37 37
        E 182 85 37 00
        E 395 95 33 2e
        E 274 85 33 00
        E 301 95 33 49
        E 182 85 33 00
        E 398 95 33 39
        E 182 85 33 00
        E 967 95 33 3d
        E 182 85 33 00
        E 389 95 33 3d
        E 182 85 33 00
        E 1073 95 32 2e
        E 274 85 32 00
        E 9 95 32 44
        E 182 85 32 00
        E 399 95 32 3b
        E 182 85 32 00
        E 9 95 32 46
        E 182 85 32 00
        E 11 95 32 3b
        E 182 85 32 00
        E 198 95 32 44
        E 182 85 32 00
        E 398 95 32 42
        E 182 85 32 00
        E 4 95 32 37
        E 182 85 32 00
        E 202 95 32 34
        E 182 85 32 00
        E 14 95 32 3d
        E 182 85 32 00
        E 1159 95 32 34
        E 182 85 32 00
        E 14 95 32 3e
        E 182 85 32 00
        E 1157 95 32 3e
        E 182 85 32 00
        E 585 95 32 32
        E 182 85 32 00
        E 10 95 32 39
        E 182 85 32 00
        E 0 b5 7b 00
        E 1 ff 2f 00
      >
    >
  >
  <TRACK
    NAME "Choir"
    PEAKCOL 4284506208
    VOLPAN 1.000000 0 1 -1
    MIDIOUT -1
    ISBUS 0 0
    <ITEM
      POSITION 0.004626
      LENGTH 62.741892
      NAME "Choir"
      VOLPAN 1 0 1 -1
      <SOURCE MIDI
        HASDATA 1 960 QN
        E 0 c6 34 00
        E 6 96 36 5d
        E 10 96 32 57
        E 3523 86 36 00
        E 10 86 32 00
        E 318 96 33 56
        E 3533 86 33 00
        E 293 96 39 56
        E 1 96 36 56
        E 3532 86 39 00
        E 1 86 36 00
        E 302 96 3d 59
        E 3 96 39 5b
        E 3530 86 3d 00
        E 3 86 39 00
        E 302 96 36 5d
        E 14 96 32 56
        E 3519 86 36 00
        E 14 86 32 00
        E 290 96 3f 56
        E 2 96 37 56
        E 5 96 3a 56
        E 7 96 33 5b
        E 3519 86 3f 00
        E 2 86 37 00
        E 5 86 3a 00
        E 7 86 33 00
        E 294 96 3e 56
        E 0 96 36 5b
        E 14 96 32 5b
        E 1 96 39 5d
        E 3518 86 3e 00
        E 0 86 36 00
        E 14 86 32 00
        E 1 86 39 00
        E 293 96 3d 5b
        E 5 96 36 5b
        E 2 96 39 5d
        E 2 96 31 56
        E 3524 86 3d 00
        E 5 86 36 00
        E 2 86 39 00
        E 2 86 31 00
        E 301 96 36 5d
        E 0 96 3e 59
        E 3 96 39 56
        E 5 96 32 59
        E 3525 86 36 00
        E 0 86 3e 00
        E 3 86 39 00
        E 5 86 32 00
        E 294 96 3e 56
        E 5 96 37 56
        E 3 96 3a 57
        E 6 96 32 57
        E 3519 86 3e 00
        E 5 86 37 00
        E 3 86 3a 00
        E 6 86 32 00
        E 293 96 3f 5d
        E 8 96 37 57
        E 6 96 33 5d
        E 3 96 3a 59
        E 3516 86 3f 00
        E 8 86 37 00
        E 6 86 33 00
        E 3 86 3a 00
        E 288 96 3e 5b
        E 9 96 39 56
        E 1 96 36 56
        E 15 96 32 57
        E 3508 86 3e 00
        E 9 86 39 00
        E 1 86 36 00
        E 15 86 32 00
        E 284 96 3e 57
        E 9 96 36 57
        E 6 96 39 5b
        E 10 96 32 56
        E 3508 86 3e 00
        E 9 86 36 00
        E 6 86 39 00
        E 10 86 32 00
        E 287 96 37 56
        E 0 96 3f 56
        E 2 96 3a 59
        E 19 96 33 56
        E 3512 86 37 00
        E 0 86 3f 00
        E 2 86 3a 00
        E 19 86 33 00
        E 279 96 3e 56
        E 3 96 36 5d
        E 12 96 39 5d
        E 6 96 32 5d
        E 3512 86 3e 00
        E 3 86 36 00
        E 12 86 39 00
        E 6 86 32 00
        E 286 96 3d 59
        E 8 96 36 57
        E 6 96 39 56
        E 4 96 31 56
        E 3515 86 3d 00
        E 8 86 36 00
        E 6 86 39 00
        E 4 86 31 00
        E 288 96 3e 5b
        E 8 96 36 56
        E 11 96 39 57
        E 7 96 32 56
        E 3507 86 3e 00
        E 8 86 36 00
        E 11 86 39 00
        E 7 86 32 00
        E 282 96 3f 59
        E 11 96 37 5b
        E 1 96 3a 57
        E 10 96 33 57
        E 3511 86 3f 00
        E 11 86 37 00
        E 1 86 3a 00
        E 10 86 33 00
        E 288 96 3e 5d
        E 6 96 36 57
        E 9 96 39 57
        E 2 96 32 56
        E 3516 86 3e 00
        E 6 86 36 00
        E 9 86 39 00
        E 2 86 32 00
        E 291 96 3d 56
        E 7 96 36 5d
        E 2 96 39 57
        E 11 96 31 5d
        E 3513 86 3d 00
        E 7 86 36 00
        E 2 86 39 00
        E 11 86 31 00
        E 311 96 32 5b
        E 3533 86 32 00
        E 292 96 3a 5d
        E 9 96 32 57
        E 3524 86 3a 00
        E 9 86 32 00
        E 0 b6 7b 00
        E 1 ff 2f 00
      >
    >
  >
  <TRACK
    NAME "Mallet"
    PEAKCOL 4290756410
    VOLPAN 1.000000 0 1 -1
    MIDIOUT -1
    ISBUS 0 0
    <ITEM
      POSITION 0.232143
      LENGTH 65.721429
      NAME "Mallet"
      VOLPAN 1 0 1 -1
      <SOURCE MIDI
        HASDATA 1 960 QN
        E 0 c7 0d 00
        E 312 97 3f 57
        E 187 87 3f 00
        E 22541 97 3f 59
        E 187 87 3f 00
        E 7493 97 3d 57
        E 187 87 3d 00
        E 7493 97 3e 57
        E 187 87 3e 00
        E 3653 97 3f 52
        E 187 87 3f 00
        E 7493 97 3e 54
        E 187 87 3e 00
        E 3653 97 3f 50
        E 187 87 3f 00
        E 3653 97 3e 5b
        E 187 87 3e 00
        E 3653 97 3d 57
        E 187 87 3d 00
        E 3653 97 3e 50
        E 187 87 3e 00
        E 3653 97 3f 5b
        E 187 87 3f 00
        E 3653 97 3e 4e
        E 187 87 3e 00
        E 15173 97 3f 52
        E 187 87 3f 00
        E 0 b7 7b 00
        E 1 ff 2f 00
      >
    >
  >
  <TRACK
    NAME "Bass"
    PEAKCOL 4286528191
    VOLPAN 1.000000 0 1 -1
    MIDIOUT -1
    ISBUS 0 0
    <ITEM
      POSITION 0.000000
      LENGTH 70.891429
      NAME "Bass"
      VOLPAN 1 0 1 -1
      <SOURCE MIDI
        HASDATA 1 960 QN
        E 0 c8 2b 00
        E 0 98 26 77
        E 104 88 26 00
        E 856 98 26 77
        E 104 88 26 00
        E 856 98 21 77
        E 104 88 21 00
        E 856 98 21 77
        E 104 88 21 00
        E 856 98 27 77
        E 104 88 27 00
        E 856 98 27 77
        E 104 88 27 00
        E 856 98 22 77
        E 104 88 22 00
        E 856 98 25 77
        E 104 88 25 00
        E 856 98 26 77
        E 104 88 26 00
        E 856 98 27 77
        E 104 88 27 00
        E 856 98 2d 77
        E 104 88 2d 00
        E 856 98 2b 77
        E 104 88 2b 00
        E 856 98 31 77
        E 104 88 31 00
        E 856 98 32 77
        E 104 88 32 00
        E 856 98 2d 77
        E 104 88 2d 00
        E 856 98 2a 77
        E 104 88 2a 00
        E 856 98 26 77
        E 104 88 26 00
        E 856 98 2b 77
        E 104 88 2b 00
        E 856 98 2d 77
        E 104 88 2d 00
        E 856 98 2a 77
        E 104 88 2a 00
        E 856 98 27 77
        E 104 88 27 00
        E 856 98 26 77
        E 104 88 26 00
        E 856 98 22 77
        E 104 88 22 00
        E 856 98 21 77
        E 104 88 21 00
        E 856 98 26 77
        E 104 88 26 00
        E 856 98 26 77
        E 104 88 26 00
        E 856 98 21 77
        E 104 88 21 00
        E 856 98 27 77
        E 104 88 27 00
        E 856 98 25 77
        E 104 88 25 00
        E 856 98 22 77
        E 104 88 22 00
        E 856 98 21 77
        E 104 88 21 00
        E 856 98 1e 77
        E 104 88 1e 00
        E 856 98 1c 77
        E 104 88 1c 00
        E 856 98 1c 77
        E 104 88 1c 00
        E 856 98 21 77
        E 104 88 21 00
        E 856 98 22 77
        E 104 88 22 00
        E 856 98 26 77
        E 104 88 26 00
        E 856 98 21 77
        E 104 88 21 00
        E 856 98 22 77
        E 104 88 22 00
        E 856 98 27 77
        E 104 88 27 00
        E 856 98 27 77
        E 104 88 27 00
        E 856 98 2d 77
        E 104 88 2d 00
        E 856 98 2e 77
        E 104 88 2e 00
        E 856 98 2b 77
        E 104 88 2b 00
        E 856 98 26 77
        E 104 88 26 00
        E 856 98 27 77
        E 104 88 27 00
        E 856 98 2d 77
        E 104 88 2d 00
        E 856 98 2d 77
        E 104 88 2d 00
        E 856 98 32 77
        E 104 88 32 00
        E 856 98 32 77
        E 104 88 32 00
        E 856 98 2d 77
        E 104 88 2d 00
        E 856 98 2d 77
        E 104 88 2d 00
        E 856 98 33 77
        E 104 88 33 00
        E 856 98 37 77
        E 104 88 37 00
        E 856 98 37 77
        E 104 88 37 00
        E 856 98 37 77
        E 104 88 37 00
        E 856 98 32 77
        E 104 88 32 00
        E 856 98 2d 77
        E 104 88 2d 00
        E 856 98 2d 77
        E 104 88 2d 00
        E 856 98 33 77
        E 104 88 33 00
        E 856 98 31 77
        E 104 88 31 00
        E 856 98 31 77
        E 104 88 31 00
        E 856 98 2d 77
        E 104 88 2d 00
        E 856 98 33 77
        E 104 88 33 00
        E 856 98 32 77
        E 104 88 32 00
        E 856 98 37 77
        E 104 88 37 00
        E 856 98 37 77
        E 104 88 37 00
        E 856 98 33 77
        E 104 88 33 00
        E 856 98 33 77
        E 104 88 33 00
        E 856 98 2e 77
        E 104 88 2e 00
        E 856 98 2e 77
        E 104 88 2e 00
        E 856 98 2b 77
        E 104 88 2b 00
        E 856 98 26 77
        E 104 88 26 00
        E 856 98 22 77
        E 104 88 22 00
        E 856 98 21 77
        E 104 88 21 00
        E 856 98 27 77
        E 104 88 27 00
        E 856 98 25 77
        E 104 88 25 00
        E 856 98 26 77
        E 104 88 26 00
        E 856 98 21 77
        E 104 88 21 00
        E 856 98 25 77
        E 104 88 25 00
        E 856 98 26 77
        E 104 88 26 00
        E 856 98 25 77
        E 104 88 25 00
        E 856 98 21 77
        E 104 88 21 00
        E 856 98 27 77
        E 104 88 27 00
        E 856 98 26 77
        E 104 88 26 00
        E 856 98 22 77
        E 104 88 22 00
        E 856 98 22 77
        E 104 88 22 00
        E 856 98 22 77
        E 104 88 22 00
        E 856 98 27 77
        E 104 88 27 00
        E 856 98 2d 77
        E 104 88 2d 00
        E 856 98 2e 77
        E 104 88 2e 00
        E 856 98 2a 77
        E 104 88 2a 00
        E 856 98 26 77
        E 104 88 26 00
        E 856 98 2a 77
        E 104 88 2a 00
        E 856 98 2d 77
        E 104 88 2d 00
        E 856 98 33 77
        E 104 88 33 00
        E 856 98 32 77
        E 104 88 32 00
        E 856 98 33 77
        E 104 88 33 00
        E 856 98 37 77
        E 104 88 37 00
        E 856 98 37 77
        E 104 88 37 00
        E 0 b8 7b 00
        E 1 ff 2f 00
      >
    >
  >
  <TRACK
    NAME "Drone"
    PEAKCOL 4284506208
    VOLPAN 1.000000 0 1 -1
    MIDIOUT -1
    ISBUS 0 0
    <ITEM
      POSITION 0.000000
      LENGTH 71.528571
      NAME "Drone"
      VOLPAN 1 0 1 -1
      <SOURCE MIDI
        HASDATA 1 960 QN
        E 0 ca 2b 00
        E 0 9a 1a 42
        E 0 9a 21 42
        E 7680 8a 1a 00
        E 0 8a 21 00
        E 0 9a 1a 42
        E 0 9a 21 42
        E 7680 8a 1a 00
        E 0 8a 21 00
        E 0 9a 1a 42
        E 0 9a 21 42
        E 7680 8a 1a 00
        E 0 8a 21 00
        E 0 9a 1a 42
        E 0 9a 21 42
        E 7680 8a 1a 00
        E 0 8a 21 00
        E 0 9a 1a 42
        E 0 9a 21 42
        E 7680 8a 1a 00
        E 0 8a 21 00
        E 0 9a 1a 42
        E 0 9a 21 42
        E 7680 8a 1a 00
        E 0 8a 21 00
        E 0 9a 1a 42
        E 0 9a 21 42
        E 7680 8a 1a 00
        E 0 8a 21 00
        E 0 9a 1a 42
        E 0 9a 21 42
        E 7680 8a 1a 00
        E 0 8a 21 00
        E 0 9a 1a 42
        E 0 9a 21 42
        E 7680 8a 1a 00
        E 0 8a 21 00
        E 0 9a 1a 42
        E 0 9a 21 42
        E 7680 8a 1a 00
        E 0 8a 21 00
        E 0 9a 1a 42
        E 0 9a 21 42
        E 7680 8a 1a 00
        E 0 8a 21 00
        E 0 9a 1a 42
        E 0 9a 21 42
        E 7680 8a 1a 00
        E 0 8a 21 00
        E 0 9a 1a 42
        E 0 9a 21 42
        E 3840 8a 1a 00
        E 0 8a 21 00
        E 0 ba 7b 00
        E 1 ff 2f 00
      >
    >
  >
>
