<REAPER_PROJECT 0.1 "7.0" 1700000000
  TEMPO 120.000000 4 4
  SAMPLERATE 48000 0 0
  RENDER_FILE ""
  RENDER_FMT 0 2 0
  RENDER_1X 0
  RENDER_RANGE 1 0 46.150000 0 0
  RENDER_RESAMPLE 3 0 1
  <MASTERTRACK
    VOLPAN 1 0 1 -1
    DEFCHAN 0
  >
  <TRACK
    NAME "Lead"
    PEAKCOL 4284506208
    VOLPAN 1.000000 0 1 -1
    MIDIOUT -1
    ISBUS 0 0
    <ITEM
      POSITION 0.000000
      LENGTH 44.035956
      NAME "Lead"
      VOLPAN 1 0 1 -1
      <SOURCE MIDI
        HASDATA 1 960 QN
        E 0 c0 28 00
        E 0 90 4e 5e
        E 375 90 4f 4d
        E 240 80 4f 00
        E 82 80 4e 00
        E 52 90 53 4d
        E 697 80 53 00
        E 53 90 52 4d
        E 697 80 52 00
        E 41 90 55 4d
        E 634 80 55 00
        E 108 90 53 4d
        E 634 80 53 00
        E 107 90 52 4d
        E 389 90 53 4d
        E 245 80 52 00
        E 389 80 53 00
        E 124 90 55 60
        E 634 80 55 00
        E 99 90 56 4d
        E 634 80 56 00
        E 238 90 56 4d
        E 571 80 56 00
        E 58 90 56 4d
        E 434 80 56 00
        E 784 90 55 4d
        E 697 80 55 00
        E 54 90 53 4d
        E 377 90 56 4d
        E 153 80 53 00
        E 87 80 56 00
        E 136 90 5a 5b
        E 369 90 5a 53
        E 265 80 5a 00
        E 217 80 5a 00
        E 9 90 56 4d
        E 482 80 56 00
        E 521 90 56 4d
        E 634 80 56 00
        E 104 90 56 5b
        E 634 80 56 00
        E 356 90 56 6c
        E 482 80 56 00
        E 28 90 56 4d
        E 571 80 56 00
        E 181 90 56 4d
        E 145 80 56 00
        E 591 90 56 68
        E 697 80 56 00
        E 53 90 56 4d
        E 369 90 56 4d
        E 328 80 56 00
        E 369 80 56 00
        E 67 90 56 5b
        E 634 80 56 00
        E 98 90 53 4d
        E 634 80 53 00
        E 114 90 55 50
        E 634 80 55 00
        E 112 90 53 4d
        E 634 80 53 00
        E 488 90 56 4d
        E 634 80 56 00
        E 113 90 55 4d
        E 634 80 55 00
        E 127 90 53 4d
        E 738 90 52 4d
        E 129 80 53 00
        E 442 80 52 00
        E 411 90 56 4d
        E 697 80 56 00
        E 187 90 55 4d
        E 161 80 55 00
        E 216 90 56 4d
        E 161 80 56 00
        E 215 90 5a 4d
        E 634 80 5a 00
        E 93 90 56 4d
        E 321 80 56 00
        E 435 90 56 4d
        E 634 80 56 00
        E 102 90 56 4d
        E 321 80 56 00
        E 692 90 56 79
        E 498 90 56 4d
        E 136 80 56 00
        E 435 80 56 00
        E 161 90 5a 4d
        E 274 90 59 4d
        E 160 80 5a 00
        E 80 80 59 00
        E 33 90 55 4d
        E 240 80 55 00
        E 34 90 53 4d
        E 240 80 53 00
        E 33 90 4f 4d
        E 240 80 4f 00
        E 34 90 4e 53
        E 353 80 4e 00
        E 25 90 4f 4d
        E 240 80 4f 00
        E 139 90 53 4d
        E 244 90 52 4d
        E 240 80 52 00
        E 5 90 4e 6b
        E 208 80 53 00
        E 40 90 52 4d
        E 240 80 52 00
        E 8 90 55 50
        E 138 80 4e 00
        E 496 80 55 00
        E 385 90 55 4e
        E 161 80 55 00
        E 706 90 55 4d
        E 161 80 55 00
        E 447 90 56 6e
        E 634 80 56 00
        E 487 90 55 4d
        E 195 90 56 4d
        E 195 90 5a 4d
        E 45 80 56 00
        E 47 80 55 00
        E 479 80 5a 00
        E 179 90 5a 4d
        E 289 80 5a 00
        E 694 90 5a 4d
        E 530 80 5a 00
        E 563 90 5b 53
        E 376 90 59 4d
        E 240 80 59 00
        E 81 80 5b 00
        E 55 90 56 4d
        E 634 80 56 00
        E 351 90 56 4d
        E 510 90 56 4d
        E 124 80 56 00
        E 197 80 56 00
        E 28 90 55 4e
        E 321 80 55 00
        E 70 90 53 4d
        E 634 80 53 00
        E 97 90 55 4d
        E 321 80 55 00
        E 183 90 56 4d
        E 240 80 56 00
        E 264 90 5a 4d
        E 245 90 59 4d
        E 240 80 59 00
        E 4 90 55 4d
        E 145 80 5a 00
        E 289 80 55 00
        E 570 90 56 65
        E 434 80 56 00
        E 50 90 56 4d
        E 389 90 56 58
        E 308 80 56 00
        E 222 80 56 00
        E 440 90 56 5e
        E 634 80 56 00
        E 239 90 55 4d
        E 191 90 56 4d
        E 191 90 5a 4e
        E 49 80 56 00
        E 203 80 55 00
        E 137 90 56 4d
        E 245 80 5a 00
        E 121 90 59 4d
        E 240 80 59 00
        E 28 80 56 00
        E 98 90 5b 4d
        E 634 80 5b 00
        E 116 90 5a 4d
        E 482 80 5a 00
        E 260 90 5a 59
        E 881 90 5a 4d
        E 82 80 5a 00
        E 352 80 5a 00
        E 178 90 5a 4d
        E 289 80 5a 00
        E 702 90 56 4d
        E 177 80 56 00
        E 345 90 56 4d
        E 697 80 56 00
        E 430 90 56 4d
        E 634 80 56 00
        E 461 90 53 59
        E 482 80 53 00
        E 282 90 55 50
        E 321 80 55 00
        E 409 90 56 63
        E 634 80 56 00
        E 846 90 53 4d
        E 407 90 55 4d
        E 227 80 53 00
        E 148 90 56 4d
        E 196 80 55 00
        E 44 80 56 00
        E 136 90 5a 4d
        E 289 80 5a 00
        E 457 90 5a 4d
        E 353 80 5a 00
        E 496 90 56 4e
        E 644 90 56 65
        E 53 80 56 00
        E 676 90 55 4d
        E 234 80 56 00
        E 400 80 55 00
        E 109 90 56 50
        E 321 80 56 00
        E 451 90 56 4d
        E 161 80 56 00
        E 579 90 56 4e
        E 634 80 56 00
        E 227 90 56 6e
        E 634 80 56 00
        E 246 90 55 4d
        E 360 90 56 4d
        E 211 80 55 00
        E 360 80 56 00
        E 304 90 53 4d
        E 366 90 53 4d
        E 177 80 53 00
        E 14 90 52 4d
        E 140 80 53 00
        E 37 80 52 00
        E 14 90 4f 4d
        E 177 80 4f 00
        E 14 90 4d 4d
        E 177 80 4d 00
        E 13 90 4a 50
        E 697 80 4a 00
        E 36 90 4a 4d
        E 321 80 4a 00
        E 449 90 49 53
        E 642 80 49 00
        E 342 90 4a 71
        E 321 80 4a 00
        E 180 90 49 60
        E 634 80 49 00
        E 118 90 47 4d
        E 375 90 46 4d
        E 240 80 46 00
        E 19 80 47 00
        E 117 90 42 4d
        E 146 90 43 4d
        E 145 90 47 4d
        E 95 80 43 00
        E 51 90 49 4d
        E 94 80 47 00
        E 52 90 4d 4d
        E 51 80 42 00
        E 43 80 49 00
        E 52 90 4e 4d
        E 94 80 4d 00
        E 477 80 4e 00
        E 192 90 4a 4d
        E 289 80 4a 00
        E 437 90 4a 4d
        E 530 80 4a 00
        E 598 90 4e 4d
        E 177 80 4e 00
        E 207 90 4a 69
        E 212 90 4d 4d
        E 211 90 4e 4d
        E 29 80 4d 00
        E 182 80 4a 00
        E 0 90 52 4d
        E 29 80 4e 00
        E 183 90 53 6c
        E 28 80 52 00
        E 601 90 53 50
        E 5 80 53 00
        E 629 80 53 00
        E 137 90 55 51
        E 634 80 55 00
        E 461 90 56 58
        E 377 90 56 68
        E 257 80 56 00
        E 377 80 56 00
        E 241 90 53 4d
        E 571 80 53 00
        E 299 90 53 4d
        E 145 80 53 00
        E 0 b0 7b 00
        E 1 ff 2f 00
      >
    >
  >
  <TRACK
    NAME "Violin1"
    PEAKCOL 4284186559
    VOLPAN 1.000000 0 1 -1
    MIDIOUT -1
    ISBUS 0 0
    <ITEM
      POSITION 2.006449
      LENGTH 38.397568
      NAME "Violin1"
      VOLPAN 1 0 1 -1
      <SOURCE MIDI
        HASDATA 1 960 QN
        E 0 c1 28 00
        E 3852 91 4a 74
        E 576 81 4a 00
        E 7094 91 53 71
        E 576 81 53 00
        E 7115 91 53 74
        E 576 81 53 00
        E 3253 91 4f 70
        E 576 81 4f 00
        E 3266 91 53 71
        E 576 81 53 00
        E 3264 91 4e 73
        E 576 81 4e 00
        E 3262 91 52 71
        E 576 81 52 00
        E 3263 91 55 73
        E 576 81 55 00
        E 3270 91 56 74
        E 576 81 56 00
        E 3259 91 53 74
        E 576 81 53 00
        E 3265 91 53 74
        E 576 81 53 00
        E 3272 91 55 74
        E 576 81 55 00
        E 3265 91 56 74
        E 576 81 56 00
        E 3252 91 56 73
        E 576 81 56 00
        E 3274 91 53 71
        E 576 81 53 00
        E 10942 91 56 74
        E 576 81 56 00
        E 0 b1 7b 00
        E 1 ff 2f 00
      >
    >
  >
  <TRACK
    NAME "Pizzicato"
    PEAKCOL 4284186559
    VOLPAN 1.000000 0 1 -1
    MIDIOUT -1
    ISBUS 0 0
    <ITEM
      POSITION 2.004878
      LENGTH 40.335783
      NAME "Pizzicato"
      VOLPAN 1 0 1 -1
      <SOURCE MIDI
        HASDATA 1 960 QN
        E 0 c2 2a 00
        E 3849 92 37 7d
        E 461 82 37 00
        E 18744 92 3d 7c
        E 461 82 3d 00
        E 3369 92 41 7d
        E 461 82 41 00
        E 3378 92 3e 7d
        E 461 82 3e 00
        E 3382 92 43 7d
        E 461 82 43 00
        E 3384 92 48 7d
        E 461 82 48 00
        E 3380 92 47 7d
        E 461 82 47 00
        E 3367 92 48 7d
        E 461 82 48 00
        E 3383 92 48 7c
        E 461 82 48 00
        E 3375 92 48 7d
        E 461 82 48 00
        E 3385 92 47 7d
        E 461 82 47 00
        E 3382 92 43 7c
        E 461 82 43 00
        E 3381 92 47 7d
        E 461 82 47 00
        E 7211 92 48 7d
        E 461 82 48 00
        E 7217 92 46 7c
        E 461 82 46 00
        E 0 b2 7b 00
        E 1 ff 2f 00
      >
    >
  >
  <TRACK
    NAME "Flute"
    PEAKCOL 4282040170
    VOLPAN 1.000000 0 1 -1
    MIDIOUT -1
    ISBUS 0 0
    <ITEM
      POSITION 5.003315
      LENGTH 36.601070
      NAME "Flute"
      VOLPAN 1 0 1 -1
      <SOURCE MIDI
        HASDATA 1 960 QN
        E 0 c3 49 00
        E 9606 93 4f 63
        E 960 83 4f 00
        E 6717 93 53 63
        E 960 83 53 00
        E 2877 93 4e 63
        E 960 83 4e 00
        E 6727 93 4f 63
        E 960 83 4f 00
        E 2880 93 4e 63
        E 960 83 4e 00
        E 6722 93 53 63
        E 960 83 53 00
        E 2876 93 4f 63
        E 960 83 4f 00
        E 6718 93 4a 63
        E 960 83 4a 00
        E 2878 93 4a 63
        E 960 83 4a 00
        E 6723 93 4a 63
        E 960 83 4a 00
        E 2887 93 4e 63
        E 960 83 4e 00
        E 10557 93 53 63
        E 960 83 53 00
        E 0 b3 7b 00
        E 1 ff 2f 00
      >
    >
  >
  <TRACK
    NAME "Mallet"
    PEAKCOL 4290756410
    VOLPAN 1.000000 0 1 -1
    MIDIOUT -1
    ISBUS 0 0
    <ITEM
      POSITION 0.145000
      LENGTH 30.042000
      NAME "Mallet"
      VOLPAN 1 0 1 -1
      <SOURCE MIDI
        HASDATA 1 960 QN
        E 0 c4 0d 00
        E 278 94 3e 51
        E 167 84 3e 00
        E 11075 94 3d 4d
        E 167 84 3d 00
        E 11353 94 3e 4d
        E 167 84 3e 00
        E 3673 94 3d 51
        E 167 84 3d 00
        E 7513 94 3e 48
        E 167 84 3e 00
        E 7513 94 3d 4b
        E 167 84 3d 00
        E 11353 94 3e 48
        E 167 84 3e 00
        E 3673 94 3d 50
        E 167 84 3d 00
        E 0 b4 7b 00
        E 1 ff 2f 00
      >
    >
  >
  <TRACK
    NAME "Glock"
    PEAKCOL 4290756410
    VOLPAN 1.000000 0 1 -1
    MIDIOUT -1
    ISBUS 0 0
    <ITEM
      POSITION 4.500000
      LENGTH 39.750000
      NAME "Glock"
      VOLPAN 1 0 1 -1
      <SOURCE MIDI
        HASDATA 1 960 QN
        E 0 c5 09 00
        E 8640 95 68 55
        E 288 85 68 00
        E 1632 95 68 55
        E 288 85 68 00
        E 3552 95 68 55
        E 288 85 68 00
        E 1632 95 68 50
        E 288 85 68 00
        E 672 95 68 53
        E 288 85 68 00
        E 672 95 68 55
        E 288 85 68 00
        E 672 95 68 55
        E 288 85 68 00
        E 672 95 68 55
        E 288 85 68 00
        E 672 95 68 55
        E 288 85 68 00
        E 672 95 68 55
        E 288 85 68 00
        E 672 95 68 55
        E 288 85 68 00
        E 672 95 68 55
        E 288 85 68 00
        E 672 95 68 55
        E 288 85 68 00
        E 672 95 68 55
        E 288 85 68 00
        E 672 95 68 55
        E 288 85 68 00
        E 672 95 67 55
        E 288 85 67 00
        E 672 95 68 55
        E 288 85 68 00
        E 672 95 68 55
        E 288 85 68 00
        E 672 95 68 50
        E 288 85 68 00
        E 672 95 68 55
        E 288 85 68 00
        E 672 95 68 55
        E 288 85 68 00
        E 672 95 68 50
        E 288 85 68 00
        E 672 95 68 55
        E 288 85 68 00
        E 672 95 68 55
        E 288 85 68 00
        E 672 95 68 55
        E 288 85 68 00
        E 672 95 68 55
        E 288 85 68 00
        E 672 95 68 55
        E 288 85 68 00
        E 672 95 68 55
        E 288 85 68 00
        E 672 95 68 50
        E 288 85 68 00
        E 672 95 68 55
        E 288 85 68 00
        E 672 95 68 51
        E 288 85 68 00
        E 672 95 68 55
        E 288 85 68 00
        E 672 95 68 53
        E 288 85 68 00
        E 672 95 68 55
        E 288 85 68 00
        E 672 95 68 55
        E 288 85 68 00
        E 672 95 68 55
        E 288 85 68 00
        E 672 95 68 50
        E 288 85 68 00
        E 672 95 68 53
        E 288 85 68 00
        E 672 95 68 55
        E 288 85 68 00
        E 672 95 68 50
        E 288 85 68 00
        E 672 95 68 55
        E 288 85 68 00
        E 672 95 68 55
        E 288 85 68 00
        E 672 95 68 55
        E 288 85 68 00
        E 672 95 68 55
        E 288 85 68 00
        E 672 95 68 55
        E 288 85 68 00
        E 672 95 68 55
        E 288 85 68 00
        E 672 95 68 51
        E 288 85 68 00
        E 672 95 67 55
        E 288 85 67 00
        E 672 95 68 55
        E 288 85 68 00
        E 672 95 68 55
        E 288 85 68 00
        E 672 95 68 55
        E 288 85 68 00
        E 672 95 68 55
        E 288 85 68 00
        E 672 95 68 51
        E 288 85 68 00
        E 672 95 68 55
        E 288 85 68 00
        E 672 95 68 55
        E 288 85 68 00
        E 672 95 68 55
        E 288 85 68 00
        E 672 95 68 51
        E 288 85 68 00
        E 672 95 68 55
        E 288 85 68 00
        E 1632 95 68 55
        E 288 85 68 00
        E 672 95 68 55
        E 288 85 68 00
        E 2592 95 67 51
        E 288 85 67 00
        E 2592 95 68 55
        E 288 85 68 00
        E 3552 95 68 55
        E 288 85 68 00
        E 2592 95 68 55
        E 288 85 68 00
        E 672 95 68 55
        E 288 85 68 00
        E 0 b5 7b 00
        E 1 ff 2f 00
      >
    >
  >
  <TRACK
    NAME "Strings"
    PEAKCOL 4284186559
    VOLPAN 1.000000 0 1 -1
    MIDIOUT -1
    ISBUS 0 0
    <ITEM
      POSITION 0.000000
      LENGTH 44.106422
      NAME "Strings"
      VOLPAN 1 0 1 -1
      <SOURCE MIDI
        HASDATA 1 960 QN
        E 0 c6 30 00
        E 0 96 43 3d
        E 5 96 43 3d
        E 1902 96 43 3d
        E 2 86 43 00
        E 14 86 43 00
        E 1 96 42 3d
        E 1896 86 43 00
        E 12 96 43 3d
        E 27 86 42 00
        E 1896 86 43 00
        E 0 96 43 3d
        E 8 96 43 3d
        E 1896 86 43 00
        E 15 86 43 00
        E 1930 96 43 3d
        E 2 96 43 3d
        E 3 96 43 3d
        E 1913 86 43 00
        E 0 86 43 00
        E 4 86 43 00
        E 3836 96 43 3d
        E 1928 86 43 00
        E 3827 96 43 3d
        E 3 96 3b 3d
        E 3 96 3e 3d
        E 0 96 43 3d
        E 4 96 43 3d
        E 4 96 43 3d
        E 0 96 43 3d
        E 2 96 43 3d
        E 1896 96 32 3d
        E 1 96 32 3d
        E 1 86 3e 00
        E 2 86 43 00
        E 2 86 43 00
        E 1 96 43 3d
        E 3 96 43 3d
        E 1 86 3b 00
        E 0 96 3d 3d
        E 1 86 43 00
        E 1 96 32 3d
        E 1 86 43 00
        E 1 86 43 00
        E 0 96 43 3d
        E 9 96 32 3d
        E 11 86 43 00
        E 1876 86 43 00
        E 8 86 32 00
        E 0 86 32 00
        E 0 96 43 3d
        E 7 86 32 00
        E 5 86 3d 00
        E 0 96 43 3d
        E 0 96 3d 3d
        E 1 96 32 3d
        E 1 96 43 3d
        E 4 86 43 00
        E 0 86 43 00
        E 0 96 43 3d
        E 3 96 32 3d
        E 5 96 43 3d
        E 15 86 32 00
        E 1873 86 43 00
        E 2 86 43 00
        E 2 96 43 3d
        E 1 96 32 3d
        E 9 86 43 00
        E 2 96 32 3d
        E 2 86 3d 00
        E 0 96 3b 3d
        E 2 86 32 00
        E 1 96 3e 3d
        E 1 96 43 3d
        E 4 96 43 3d
        E 0 96 42 3d
        E 1 86 43 00
        E 3 86 43 00
        E 12 86 32 00
        E 1867 86 32 00
        E 16 96 43 3d
        E 1 86 43 00
        E 0 96 43 3d
        E 1 86 3e 00
        E 3 86 43 00
        E 1 86 43 00
        E 1 96 3e 3d
        E 3 86 32 00
        E 3 86 3b 00
        E 0 96 3b 3d
        E 4 96 43 3d
        E 1 96 43 3d
        E 0 96 43 3d
        E 1 96 43 3d
        E 17 86 42 00
        E 1873 86 43 00
        E 5 86 43 00
        E 5 96 32 3d
        E 7 96 43 3d
        E 7 86 3b 00
        E 0 96 3b 3d
        E 0 96 3e 3d
        E 1 96 43 3d
        E 2 86 43 00
        E 1 86 43 00
        E 0 96 43 3d
        E 1 86 3e 00
        E 2 96 43 3d
        E 2 86 43 00
        E 3 96 32 3d
        E 5 86 43 00
        E 1876 86 32 00
        E 14 86 43 00
        E 0 96 43 3d
        E 2 96 32 3d
        E 3 96 43 3d
        E 2 96 43 3d
        E 4 86 43 00
        E 2 86 3b 00
        E 0 96 3b 3e
        E 1 86 43 00
        E 0 96 42 3d
        E 1 86 3e 00
        E 1 96 42 3d
        E 2 96 43 3d
        E 9 86 43 00
        E 10 86 32 00
        E 1871 86 43 00
        E 3 86 43 00
        E 9 96 43 3d
        E 0 96 43 3d
        E 2 96 43 3d
        E 0 96 32 3d
        E 3 96 42 3d
        E 3 86 32 00
        E 1 96 43 3d
        E 1 86 42 00
        E 3 86 43 00
        E 0 86 3b 00
        E 0 96 3a 3e
        E 1 86 42 00
        E 5 86 43 00
        E 0 96 32 3d
        E 1891 86 43 00
        E 2 86 43 00
        E 4 86 43 00
        E 3 96 42 3d
        E 1 86 32 00
        E 0 86 32 00
        E 0 96 43 3d
        E 1 96 43 3d
        E 5 86 43 00
        E 6 96 32 3d
        E 1 86 3a 00
        E 0 96 3a 40
        E 3 96 43 3d
        E 0 96 43 3d
        E 4 86 42 00
        E 2 96 32 3d
        E 1882 86 43 00
        E 1 86 42 00
        E 16 86 43 00
        E 3 86 32 00
        E 0 86 43 00
        E 4 96 43 3d
        E 1 96 32 3d
        E 1 96 43 3d
        E 3 86 3a 00
        E 0 96 38 40
        E 0 96 43 3d
        E 3 96 32 3d
        E 1 96 3d 3d
        E 3 86 43 00
        E 1 96 43 3d
        E 8 86 32 00
        E 1888 86 32 00
        E 6 86 3d 00
        E 1 96 43 3d
        E 3 86 43 00
        E 4 96 43 3d
        E 0 96 43 3d
        E 2 86 43 00
        E 0 86 38 00
        E 0 86 43 00
        E 0 96 38 41
        E 1 96 43 3d
        E 1 96 43 3d
        E 1 86 32 00
        E 0 96 41 3d
        E 9 96 43 3d
        E 11 86 43 00
        E 1878 86 43 00
        E 2 86 43 00
        E 4 96 43 3d
        E 7 96 43 3d
        E 3 86 43 00
        E 0 86 43 00
        E 1 86 43 00
        E 1 96 3b 3d
        E 1 86 38 00
        E 0 96 32 3d
        E 0 96 36 41
        E 4 86 43 00
        E 1 86 41 00
        E 1 96 43 3d
        E 5 96 43 3d
        E 3 96 43 3d
        E 1877 86 43 00
        E 17 96 43 3d
        E 1 96 3b 3d
        E 2 86 32 00
        E 1 96 43 3d
        E 6 86 43 00
        E 0 96 42 3d
        E 2 86 36 00
        E 0 96 36 43
        E 2 96 43 3d
        E 1 86 43 00
        E 1 96 32 3d
        E 6 86 43 00
        E 3 96 43 3d
        E 1 86 3b 00
        E 0 86 43 00
        E 1878 86 43 00
        E 17 96 3b 3d
        E 1 86 42 00
        E 2 86 3b 00
        E 1 86 32 00
        E 0 96 43 3d
        E 3 86 43 00
        E 2 96 43 3d
        E 2 86 36 00
        E 0 96 3e 3d
        E 0 96 36 43
        E 4 86 43 00
        E 5 86 43 00
        E 0 96 43 3d
        E 2 96 43 3d
        E 0 96 43 3d
        E 1896 86 3b 00
        E 0 96 3e 3d
        E 6 86 43 00
        E 0 96 43 3d
        E 1 86 43 00
        E 4 96 3e 3d
        E 1 86 43 00
        E 0 96 43 3d
        E 1 86 36 00
        E 0 96 36 45
        E 8 96 32 3d
        E 1 86 43 00
        E 0 96 43 3d
        E 4 86 3e 00
        E 0 96 43 3d
        E 9 86 43 00
        E 1886 86 43 00
        E 2 96 32 3d
        E 1 86 3e 00
        E 1 96 32 3d
        E 1 96 43 3d
        E 1 96 32 3d
        E 1 86 3e 00
        E 1 86 43 00
        E 1 86 43 00
        E 0 96 43 3d
        E 3 86 36 00
        E 0 96 37 45
        E 5 86 32 00
        E 2 96 32 3d
        E 5 86 43 00
        E 0 96 43 3d
        E 1888 86 32 00
        E 10 96 3e 3d
        E 3 86 32 00
        E 1 96 43 3d
        E 1 96 43 3d
        E 0 96 43 3d
        E 2 86 43 00
        E 1 86 32 00
        E 2 86 37 00
        E 0 96 37 46
        E 1 86 32 00
        E 4 86 43 00
        E 5 96 3b 3d
        E 2 96 43 3d
        E 0 96 43 3d
        E 10 86 43 00
        E 1885 86 43 00
        E 3 86 43 00
        E 0 96 43 3d
        E 0 96 41 3d
        E 8 96 3d 3d
        E 0 96 43 3d
        E 2 86 37 00
        E 0 96 38 46
        E 1 86 3e 00
        E 4 96 32 3d
        E 1 86 43 00
        E 3 86 43 00
        E 0 86 43 00
        E 1 96 32 3d
        E 4 96 43 3d
        E 1 86 3b 00
        E 1886 86 3d 00
        E 6 86 41 00
        E 1 96 43 3d
        E 9 86 43 00
        E 3 86 38 00
        E 0 96 38 48
        E 1 86 43 00
        E 2 86 43 00
        E 2 96 43 3d
        E 0 96 43 3d
        E 1 96 43 3d
        E 2 96 43 3d
        E 4 96 32 3d
        E 0 96 3d 3d
        E 8 86 32 00
        E 3 86 32 00
        E 1867 86 43 00
        E 17 86 43 00
        E 1 86 43 00
        E 4 86 43 00
        E 0 96 3b 3d
        E 2 96 43 3d
        E 5 96 3b 3d
        E 1 86 38 00
        E 0 96 36 48
        E 2 96 43 3d
        E 1 96 42 3d
        E 1 86 43 00
        E 0 86 3d 00
        E 6 96 43 3d
        E 1 96 43 3d
        E 3 86 32 00
        E 1895 96 42 3d
        E 0 96 32 3d
        E 1 86 42 00
        E 4 86 43 00
        E 3 96 32 3d
        E 3 86 36 00
        E 0 96 36 49
        E 3 86 3b 00
        E 0 86 43 00
        E 2 96 3b 3d
        E 3 96 43 3d
        E 1 96 43 3d
        E 2 86 43 00
        E 0 96 43 3d
        E 3 86 3b 00
        E 3 86 43 00
        E 1886 86 32 00
        E 5 96 43 3d
        E 1 86 42 00
        E 1 96 43 3d
        E 3 96 43 3d
        E 5 96 3e 3d
        E 2 86 36 00
        E 0 96 36 49
        E 2 96 42 3d
        E 0 96 43 3d
        E 5 86 43 00
        E 4 86 32 00
        E 2 96 43 3d
        E 2 86 43 00
        E 1 86 43 00
        E 6 86 3b 00
        E 1873 86 43 00
        E 12 86 43 00
        E 2 86 43 00
        E 0 96 43 3d
        E 1 96 32 3d
        E 1 96 42 3d
        E 1 86 3e 00
        E 3 86 43 00
        E 5 86 36 00
        E 0 96 36 4b
        E 2 96 32 3d
        E 0 96 32 3d
        E 2 96 3b 3d
        E 4 86 43 00
        E 3 96 43 3d
        E 8 86 42 00
        E 1875 86 43 00
        E 11 86 42 00
        E 4 96 43 3d
        E 2 86 32 00
        E 0 86 32 00
        E 2 86 3b 00
        E 0 96 43 3d
        E 6 86 32 00
        E 1 86 36 00
        E 0 96 37 4b
        E 2 96 43 3d
        E 1 96 3e 3d
        E 2 96 43 3d
        E 2 86 43 00
        E 5 96 43 3d
        E 0 96 43 3d
        E 1888 86 43 00
        E 9 86 43 00
        E 7 86 43 00
        E 4 86 37 00
        E 0 96 37 4d
        E 1 96 3e 3d
        E 3 96 43 3d
        E 5 86 3e 00
        E 1 86 43 00
        E 9 86 43 00
        E 10 86 43 00
        E 1885 86 43 00
        E 6 86 37 00
        E 11 86 3e 00
        E 0 96 32 3d
        E 1907 96 3d 3d
        E 24 86 32 00
        E 1898 86 3d 00
        E 1913 96 43 3d
        E 6 96 43 3d
        E 1907 96 32 3d
        E 8 96 43 3d
        E 4 86 43 00
        E 0 86 43 00
        E 2 96 43 3d
        E 1904 86 43 00
        E 4 86 43 00
        E 0 96 32 3d
        E 13 86 32 00
        E 1917 86 32 00
        E 1925 96 3a 3d
        E 7 96 43 3d
        E 1908 86 3a 00
        E 14 86 43 00
        E 0 b6 7b 00
        E 1 ff 2f 00
      >
    >
  >
  <TRACK
    NAME "Bass"
    PEAKCOL 4286528191
    VOLPAN 1.000000 0 1 -1
    MIDIOUT -1
    ISBUS 0 0
    <ITEM
      POSITION 0.000000
      LENGTH 43.654000
      NAME "Bass"
      VOLPAN 1 0 1 -1
      <SOURCE MIDI
        HASDATA 1 960 QN
        E 0 c7 2b 00
        E 0 97 26 74
        E 104 87 26 00
        E 856 97 29 74
        E 104 87 29 00
        E 856 97 2f 74
        E 104 87 2f 00
        E 856 97 2e 74
        E 104 87 2e 00
        E 856 97 32 74
        E 104 87 32 00
        E 856 97 36 74
        E 104 87 36 00
        E 856 97 37 74
        E 104 87 37 00
        E 856 97 37 74
        E 104 87 37 00
        E 856 97 37 74
        E 104 87 37 00
        E 856 97 37 74
        E 104 87 37 00
        E 856 97 37 74
        E 104 87 37 00
        E 856 97 37 74
        E 104 87 37 00
        E 856 97 32 74
        E 104 87 32 00
        E 856 97 2e 74
        E 104 87 2e 00
        E 856 97 2f 74
        E 104 87 2f 00
        E 856 97 2b 74
        E 104 87 2b 00
        E 856 97 26 74
        E 104 87 26 00
        E 856 97 25 74
        E 104 87 25 00
        E 856 97 23 74
        E 104 87 23 00
        E 856 97 1f 74
        E 104 87 1f 00
        E 856 97 1c 74
        E 104 87 1c 00
        E 856 97 1c 74
        E 104 87 1c 00
        E 856 97 1c 74
        E 104 87 1c 00
        E 856 97 1c 74
        E 104 87 1c 00
        E 856 97 1c 74
        E 104 87 1c 00
        E 856 97 1d 74
        E 104 87 1d 00
        E 856 97 1f 74
        E 104 87 1f 00
        E 856 97 1e 74
        E 104 87 1e 00
        E 856 97 1c 74
        E 104 87 1c 00
        E 856 97 1f 74
        E 104 87 1f 00
        E 856 97 23 74
        E 104 87 23 00
        E 856 97 1e 74
        E 104 87 1e 00
        E 856 97 1c 74
        E 104 87 1c 00
        E 856 97 1c 74
        E 104 87 1c 00
        E 856 97 1c 74
        E 104 87 1c 00
        E 856 97 1c 74
        E 104 87 1c 00
        E 856 97 1c 74
        E 104 87 1c 00
        E 856 97 1f 74
        E 104 87 1f 00
        E 856 97 22 74
        E 104 87 22 00
        E 856 97 22 74
        E 104 87 22 00
        E 856 97 25 74
        E 104 87 25 00
        E 856 97 23 74
        E 104 87 23 00
        E 856 97 1f 74
        E 104 87 1f 00
        E 856 97 1f 74
        E 104 87 1f 00
        E 856 97 1c 74
        E 104 87 1c 00
        E 856 97 1f 74
        E 104 87 1f 00
        E 856 97 23 74
        E 104 87 23 00
        E 856 97 29 74
        E 104 87 29 00
        E 856 97 26 74
        E 104 87 26 00
        E 856 97 2b 74
        E 104 87 2b 00
        E 856 97 2f 74
        E 104 87 2f 00
        E 856 97 2a 74
        E 104 87 2a 00
        E 856 97 26 74
        E 104 87 26 00
        E 856 97 22 74
        E 104 87 22 00
        E 856 97 23 74
        E 104 87 23 00
        E 856 97 26 74
        E 104 87 26 00
        E 856 97 25 74
        E 104 87 25 00
        E 856 97 22 74
        E 104 87 22 00
        E 856 97 1f 74
        E 104 87 1f 00
        E 856 97 22 74
        E 104 87 22 00
        E 856 97 26 74
        E 104 87 26 00
        E 856 97 2a 74
        E 104 87 2a 00
        E 856 97 2f 74
        E 104 87 2f 00
        E 856 97 32 74
        E 104 87 32 00
        E 856 97 32 74
        E 104 87 32 00
        E 856 97 32 74
        E 104 87 32 00
        E 856 97 2f 74
        E 104 87 2f 00
        E 856 97 2b 74
        E 104 87 2b 00
        E 856 97 26 74
        E 104 87 26 00
        E 856 97 29 74
        E 104 87 29 00
        E 856 97 2f 74
        E 104 87 2f 00
        E 856 97 2f 74
        E 104 87 2f 00
        E 856 97 31 74
        E 104 87 31 00
        E 856 97 35 74
        E 104 87 35 00
        E 856 97 37 74
        E 104 87 37 00
        E 856 97 37 74
        E 104 87 37 00
        E 856 97 32 74
        E 104 87 32 00
        E 856 97 2e 74
        E 104 87 2e 00
        E 856 97 2f 74
        E 104 87 2f 00
        E 856 97 2e 74
        E 104 87 2e 00
        E 856 97 32 74
        E 104 87 32 00
        E 856 97 36 74
        E 104 87 36 00
        E 856 97 37 74
        E 104 87 37 00
        E 856 97 35 74
        E 104 87 35 00
        E 856 97 31 74
        E 104 87 31 00
        E 856 97 35 74
        E 104 87 35 00
        E 856 97 37 74
        E 104 87 37 00
        E 856 97 37 74
        E 104 87 37 00
        E 0 b7 7b 00
        E 1 ff 2f 00
      >
    >
  >
  <TRACK
    NAME "Pedal"
    PEAKCOL 4284506208
    VOLPAN 1.000000 0 1 -1
    MIDIOUT -1
    ISBUS 0 0
    <ITEM
      POSITION 0.000000
      LENGTH 44.100000
      NAME "Pedal"
      VOLPAN 1 0 1 -1
      <SOURCE MIDI
        HASDATA 1 960 QN
        E 0 c8 2b 00
        E 0 98 23 40
        E 1920 88 23 00
        E 0 98 23 40
        E 1920 88 23 00
        E 0 98 23 40
        E 1920 88 23 00
        E 0 98 23 40
        E 1920 88 23 00
        E 0 98 23 40
        E 1920 88 23 00
        E 0 98 23 40
        E 1920 88 23 00
        E 0 98 23 40
        E 1920 88 23 00
        E 0 98 23 40
        E 1920 88 23 00
        E 0 98 23 40
        E 1920 88 23 00
        E 0 98 23 40
        E 1920 88 23 00
        E 0 98 23 40
        E 1920 88 23 00
        E 0 98 23 40
        E 1920 88 23 00
        E 0 98 23 40
        E 1920 88 23 00
        E 0 98 23 40
        E 1920 88 23 00
        E 0 98 23 40
        E 1920 88 23 00
        E 0 98 23 40
        E 1920 88 23 00
        E 0 98 23 40
        E 1920 88 23 00
        E 0 98 23 40
        E 1920 88 23 00
        E 0 98 23 40
        E 1920 88 23 00
        E 0 98 23 40
        E 1920 88 23 00
        E 0 98 23 40
        E 1920 88 23 00
        E 0 98 23 40
        E 1920 88 23 00
        E 0 98 23 40
        E 1920 88 23 00
        E 0 98 23 40
        E 1920 88 23 00
        E 0 98 23 40
        E 1920 88 23 00
        E 0 98 23 40
        E 1920 88 23 00
        E 0 98 23 40
        E 1920 88 23 00
        E 0 98 23 40
        E 1920 88 23 00
        E 0 98 23 40
        E 1920 88 23 00
        E 0 98 23 40
        E 1920 88 23 00
        E 0 98 23 40
        E 1920 88 23 00
        E 0 98 23 40
        E 1920 88 23 00
        E 0 98 23 40
        E 1920 88 23 00
        E 0 98 23 40
        E 1920 88 23 00
        E 0 98 23 40
        E 1920 88 23 00
        E 0 98 23 40
        E 1920 88 23 00
        E 0 98 23 40
        E 1920 88 23 00
        E 0 98 23 40
        E 1920 88 23 00
        E 0 98 23 40
        E 1920 88 23 00
        E 0 98 23 40
        E 1920 88 23 00
        E 0 98 23 40
        E 1920 88 23 00
        E 0 98 23 40
        E 1920 88 23 00
        E 0 98 23 40
        E 1920 88 23 00
        E 0 98 23 40
        E 1920 88 23 00
        E 0 b8 7b 00
        E 1 ff 2f 00
      >
    >
  >
  <TRACK
    NAME "Timpani"
    PEAKCOL 4290722362
    VOLPAN 1.000000 0 1 -1
    MIDIOUT -1
    ISBUS 0 0
    <ITEM
      POSITION 1.000000
      LENGTH 42.900000
      NAME "Timpani"
      VOLPAN 1 0 1 -1
      <SOURCE MIDI
        HASDATA 1 960 QN
        E 0 ca 2f 00
        E 1920 9a 3b 71
        E 1536 8a 3b 00
        E 2304 9a 3b 74
        E 1536 8a 3b 00
        E 6144 9a 3b 73
        E 1536 8a 3b 00
        E 2304 9a 3b 77
        E 1536 8a 3b 00
        E 384 9a 26 79
        E 1920 9a 3b 73
        E 1344 8a 26 00
        E 192 8a 3b 00
        E 384 9a 25 7a
        E 1920 9a 38 74
        E 1344 8a 25 00
        E 192 8a 38 00
        E 384 9a 26 7a
        E 1920 9a 3b 74
        E 1344 8a 26 00
        E 192 8a 3b 00
        E 384 9a 26 79
        E 1920 9a 3b 73
        E 1344 8a 26 00
        E 192 8a 3b 00
        E 384 9a 25 7a
        E 1920 9a 3a 77
        E 1344 8a 25 00
        E 192 8a 3a 00
        E 384 9a 25 79
        E 1920 9a 38 71
        E 1344 8a 25 00
        E 192 8a 38 00
        E 384 9a 26 79
        E 1920 9a 3b 70
        E 1344 8a 26 00
        E 192 8a 3b 00
        E 384 9a 26 79
        E 1920 9a 3b 71
        E 1344 8a 26 00
        E 192 8a 3b 00
        E 384 9a 26 7a
        E 1920 9a 3b 77
        E 1344 8a 26 00
        E 192 8a 3b 00
        E 384 9a 25 7a
        E 1920 9a 38 74
        E 1344 8a 25 00
        E 192 8a 38 00
        E 384 9a 26 7a
        E 1920 9a 3b 77
        E 1344 8a 26 00
        E 192 8a 3b 00
        E 384 9a 26 7a
        E 1920 9a 3b 75
        E 1344 8a 26 00
        E 192 8a 3b 00
        E 384 9a 26 7a
        E 1920 9a 3b 74
        E 1344 8a 26 00
        E 192 8a 3b 00
        E 384 9a 25 7a
        E 1920 9a 38 75
        E 1344 8a 25 00
        E 192 8a 38 00
        E 2304 9a 3b 74
        E 1536 8a 3b 00
        E 384 9a 26 79
        E 3264 8a 26 00
        E 2496 9a 3a 74
        E 1536 8a 3a 00
        E 0 ba 7b 00
        E 1 ff 2f 00
      >
    >
  >
>
