<REAPER_PROJECT 0.1 "7.0" 1700000000
  TEMPO 96.000000 4 4
  SAMPLERATE 48000 0 0
  RENDER_FILE ""
  RENDER_FMT 0 2 0
  RENDER_1X 0
  RENDER_RANGE 1 0 72.351410 0 0
  RENDER_RESAMPLE 3 0 1
  <MASTERTRACK
    VOLPAN 1 0 1 -1
    DEFCHAN 0
  >
  <TRACK
    NAME "Lead"
    PEAKCOL 4284506208
    VOLPAN 1.000000 0 1 -1
    MIDIOUT -1
    ISBUS 0 0
    <ITEM
      POSITION 0.007559
      LENGTH 70.443851
      NAME "Lead"
      VOLPAN 1 0 1 -1
      <SOURCE MIDI
        HASDATA 1 960 QN
        E 0 c0 28 00
        E 12 90 54 66
        E 954 80 54 00
        E 404 90 54 44
        E 674 90 57 44
        E 289 80 54 00
        E 578 80 57 00
        E 270 90 57 44
        E 438 80 57 00
        E 700 90 54 44
        E 771 90 55 44
        E 96 80 54 00
        E 771 80 55 00
        E 137 90 54 44
        E 867 80 54 00
        E 161 90 55 44
        E 780 80 55 00
        E 242 90 54 44
        E 518 90 55 44
        E 436 80 54 00
        E 527 80 55 00
        E 400 90 54 44
        E 514 90 57 47
        E 353 80 54 00
        E 85 80 57 00
        E 209 90 55 44
        E 867 80 55 00
        E 392 90 57 4e
        E 438 80 57 00
        E 710 90 54 44
        E 666 90 55 44
        E 201 80 54 00
        E 193 80 55 00
        E 599 90 55 44
        E 780 80 55 00
        E 263 90 57 5a
        E 499 90 57 44
        E 455 80 57 00
        E 499 80 57 00
        E 58 90 55 44
        E 867 80 55 00
        E 162 90 54 56
        E 867 80 54 00
        E 131 90 55 44
        E 219 80 55 00
        E 811 90 55 44
        E 656 80 55 00
        E 369 90 55 44
        E 780 80 55 00
        E 353 90 54 44
        E 220 90 52 44
        E 219 90 50 44
        E 21 80 52 00
        E 199 90 4d 44
        E 20 80 50 00
        E 101 80 54 00
        E 98 90 4b 44
        E 21 80 4d 00
        E 942 80 4b 00
        E 61 90 4b 47
        E 867 80 4b 00
        E 153 90 4d 55
        E 867 80 4d 00
        E 657 90 4f 44
        E 438 80 4f 00
        E 581 90 4b 44
        E 517 90 4b 44
        E 350 80 4b 00
        E 517 80 4b 00
        E 653 90 4b 44
        E 394 80 4b 00
        E 622 90 4b 44
        E 954 80 4b 00
        E 78 90 4b 60
        E 867 80 4b 00
        E 145 90 48 44
        E 206 90 49 55
        E 206 90 4d 55
        E 34 80 49 00
        E 172 90 4f 55
        E 34 80 4d 00
        E 172 90 52 55
        E 34 80 4f 00
        E 17 80 48 00
        E 155 90 54 73
        E 34 80 52 00
        E 833 80 54 00
        E 136 90 52 44
        E 867 80 52 00
        E 164 90 52 44
        E 867 80 52 00
        E 149 90 52 44
        E 780 80 52 00
        E 225 90 4f 44
        E 225 90 50 44
        E 225 90 54 44
        E 15 80 50 00
        E 210 90 55 44
        E 15 80 54 00
        E 32 80 4f 00
        E 178 90 57 44
        E 15 80 55 00
        E 211 90 5b 55
        E 14 80 57 00
        E 227 80 5b 00
        E 663 90 5b 48
        E 438 80 5b 00
        E 592 90 57 44
        E 867 80 57 00
        E 135 90 57 4e
        E 867 80 57 00
        E 162 90 57 47
        E 867 80 57 00
        E 134 90 5b 4e
        E 394 80 5b 00
        E 254 90 57 44
        E 780 80 57 00
        E 1083 90 57 44
        E 241 80 57 00
        E 754 90 55 44
        E 867 80 55 00
        E 161 90 55 44
        E 867 80 55 00
        E 511 90 54 46
        E 867 80 54 00
        E 552 90 54 44
        E 778 90 57 44
        E 97 80 54 00
        E 398 90 55 44
        E 285 80 57 00
        E 495 80 55 00
        E 251 90 57 44
        E 481 80 57 00
        E 521 90 55 44
        E 867 80 55 00
        E 153 90 54 44
        E 867 80 54 00
        E 155 90 55 44
        E 867 80 55 00
        E 387 90 54 44
        E 774 90 54 5d
        E 93 80 54 00
        E 928 90 55 48
        E 729 80 54 00
        E 51 80 55 00
        E 481 90 54 44
        E 772 90 52 44
        E 182 80 54 00
        E 772 80 52 00
        E 70 90 54 44
        E 867 80 54 00
        E 149 90 57 44
        E 656 80 57 00
        E 355 90 55 44
        E 219 80 55 00
        E 1165 90 57 44
        E 438 80 57 00
        E 457 90 55 44
        E 780 80 55 00
        E 495 90 55 56
        E 963 80 55 00
        E 73 90 54 5a
        E 623 90 55 44
        E 99 80 54 00
        E 141 80 55 00
        E 383 90 59 44
        E 771 90 57 44
        E 96 80 59 00
        E 771 80 57 00
        E 685 90 57 44
        E 438 80 57 00
        E 566 90 54 44
        E 867 80 54 00
        E 140 90 55 44
        E 780 80 55 00
        E 503 90 54 44
        E 780 80 54 00
        E 470 90 52 47
        E 954 80 52 00
        E 187 90 54 44
        E 501 90 52 44
        E 240 80 52 00
        E 126 80 54 00
        E 135 90 4f 44
        E 867 80 4f 00
        E 162 90 4f 44
        E 219 80 4f 00
        E 671 90 4b 44
        E 867 80 4b 00
        E 404 90 4b 48
        E 591 80 4b 00
        E 185 90 4b 44
        E 780 80 4b 00
        E 221 90 4d 46
        E 954 80 4d 00
        E 64 90 4b 4f
        E 512 90 4d 44
        E 240 80 4d 00
        E 115 80 4b 00
        E 158 90 52 64
        E 867 80 52 00
        E 158 90 4f 44
        E 438 80 4f 00
        E 68 90 50 44
        E 240 80 50 00
        E 267 90 54 44
        E 867 80 54 00
        E 157 90 52 44
        E 867 80 52 00
        E 369 90 4f 44
        E 780 80 4f 00
        E 16 90 4f 44
        E 954 80 4f 00
        E 54 90 4b 44
        E 954 80 4b 00
        E 69 90 4b 52
        E 867 80 4b 00
        E 395 90 4b 44
        E 768 90 4b 46
        E 99 80 4b 00
        E 768 80 4b 00
        E 379 90 4b 4f
        E 391 90 4d 44
        E 47 80 4b 00
        E 193 80 4d 00
        E 151 90 52 44
        E 509 90 4f 44
        E 271 80 52 00
        E 495 90 50 44
        E 14 80 4f 00
        E 226 80 50 00
        E 527 90 54 44
        E 481 80 54 00
        E 19 90 52 44
        E 954 80 52 00
        E 67 90 54 44
        E 867 80 54 00
        E 152 90 54 44
        E 867 80 54 00
        E 160 90 54 4c
        E 867 80 54 00
        E 388 90 55 44
        E 867 80 55 00
        E 258 90 55 44
        E 680 90 54 44
        E 100 80 55 00
        E 680 80 54 00
        E 0 b0 7b 00
        E 1 ff 2f 00
      >
    >
  >
  <TRACK
    NAME "Trumpet"
    PEAKCOL 4290740026
    VOLPAN 1.000000 0 1 -1
    MIDIOUT -1
    ISBUS 0 0
    <ITEM
      POSITION 0.625000
      LENGTH 65.631250
      NAME "Trumpet"
      VOLPAN 1 0 1 -1
      <SOURCE MIDI
        HASDATA 1 960 QN
        E 0 c1 38 00
        E 960 91 4b 53
        E 816 81 4b 00
        E 1104 91 52 64
        E 816 81 52 00
        E 6864 91 52 64
        E 816 81 52 00
        E 4944 91 52 53
        E 816 81 52 00
        E 144 91 52 5c
        E 816 81 52 00
        E 4944 91 52 4b
        E 816 81 52 00
        E 144 91 52 53
        E 816 81 52 00
        E 144 91 52 5c
        E 816 81 52 00
        E 144 91 52 64
        E 816 81 52 00
        E 3984 91 52 4b
        E 816 81 52 00
        E 144 91 52 53
        E 816 81 52 00
        E 144 91 52 5c
        E 816 81 52 00
        E 144 91 52 64
        E 816 81 52 00
        E 3984 91 52 4b
        E 816 81 52 00
        E 144 91 52 53
        E 816 81 52 00
        E 144 91 52 5c
        E 816 81 52 00
        E 144 91 52 64
        E 816 81 52 00
        E 3984 91 52 4b
        E 816 81 52 00
        E 144 91 52 53
        E 816 81 52 00
        E 144 91 52 5c
        E 816 81 52 00
        E 144 91 52 64
        E 816 81 52 00
        E 3984 91 52 4b
        E 816 81 52 00
        E 144 91 52 53
        E 816 81 52 00
        E 144 91 52 5c
        E 816 81 52 00
        E 144 91 52 64
        E 816 81 52 00
        E 3984 91 52 4b
        E 816 81 52 00
        E 144 91 52 53
        E 816 81 52 00
        E 144 91 52 5c
        E 816 81 52 00
        E 144 91 52 64
        E 816 81 52 00
        E 3984 91 52 4b
        E 816 81 52 00
        E 144 91 52 53
        E 816 81 52 00
        E 144 91 52 5c
        E 816 81 52 00
        E 144 91 52 64
        E 816 81 52 00
        E 3984 91 52 4b
        E 816 81 52 00
        E 144 91 52 53
        E 816 81 52 00
        E 144 91 52 5c
        E 816 81 52 00
        E 144 91 52 64
        E 816 81 52 00
        E 3984 91 52 4b
        E 816 81 52 00
        E 144 91 52 53
        E 816 81 52 00
        E 144 91 52 5c
        E 816 81 52 00
        E 144 91 52 64
        E 816 81 52 00
        E 5904 91 52 5c
        E 816 81 52 00
        E 5904 91 52 53
        E 816 81 52 00
        E 0 b1 7b 00
        E 1 ff 2f 00
      >
    >
  >
  <TRACK
    NAME "Brass"
    PEAKCOL 4290740026
    VOLPAN 1.000000 0 1 -1
    MIDIOUT -1
    ISBUS 0 0
    <ITEM
      POSITION 2.505910
      LENGTH 66.945460
      NAME "Brass"
      VOLPAN 1 0 1 -1
      <SOURCE MIDI
        HASDATA 1 960 QN
        E 0 c2 3d 00
        E 3849 92 43 68
        E 2 92 37 68
        E 1150 82 43 00
        E 2 82 37 00
        E 1004 92 37 68
        E 3 92 37 68
        E 1149 82 37 00
        E 3 82 37 00
        E 998 92 44 68
        E 7 92 38 68
        E 5 92 38 68
        E 1140 82 44 00
        E 7 82 38 00
        E 5 82 38 00
        E 1003 92 38 68
        E 6 92 44 68
        E 1146 82 38 00
        E 6 82 44 00
        E 1000 92 37 68
        E 1152 82 37 00
        E 1013 92 37 68
        E 2 92 43 68
        E 1150 82 37 00
        E 2 82 43 00
        E 5321 92 37 68
        E 1 92 43 68
        E 7 92 37 68
        E 1144 82 37 00
        E 1 82 43 00
        E 7 82 37 00
        E 995 92 44 68
        E 7 92 38 68
        E 3 92 38 68
        E 1 92 44 68
        E 3 92 38 68
        E 1138 82 44 00
        E 7 82 38 00
        E 3 82 38 00
        E 1 82 44 00
        E 3 82 38 00
        E 994 92 44 68
        E 6 92 44 68
        E 1 92 38 68
        E 0 92 38 68
        E 5 92 38 68
        E 1140 82 44 00
        E 6 82 44 00
        E 1 82 38 00
        E 0 82 38 00
        E 5 82 38 00
        E 996 92 43 68
        E 7 92 37 68
        E 1 92 43 68
        E 4 92 37 68
        E 1 92 37 68
        E 1139 82 43 00
        E 7 82 37 00
        E 1 82 43 00
        E 4 82 37 00
        E 1 82 37 00
        E 995 92 43 68
        E 10 92 37 68
        E 1 92 37 68
        E 1 92 37 68
        E 2 92 43 68
        E 1138 82 43 00
        E 10 82 37 00
        E 1 82 37 00
        E 1 82 37 00
        E 2 82 43 00
        E 994 92 44 68
        E 5 92 38 68
        E 3 92 38 68
        E 1 92 44 68
        E 1 92 38 68
        E 1142 82 44 00
        E 5 82 38 00
        E 3 82 38 00
        E 1 82 44 00
        E 1 82 38 00
        E 998 92 44 68
        E 7 92 38 68
        E 2 92 38 68
        E 4 92 44 68
        E 1 92 38 68
        E 1138 82 44 00
        E 7 82 38 00
        E 2 82 38 00
        E 4 82 44 00
        E 1 82 38 00
        E 994 92 43 68
        E 6 92 43 68
        E 3 92 37 68
        E 4 92 37 68
        E 0 92 37 68
        E 1139 82 43 00
        E 6 82 43 00
        E 3 82 37 00
        E 4 82 37 00
        E 0 82 37 00
        E 995 92 44 68
        E 6 92 38 68
        E 0 92 38 68
        E 2 92 44 68
        E 5 92 38 68
        E 1139 82 44 00
        E 6 82 38 00
        E 0 82 38 00
        E 2 82 44 00
        E 5 82 38 00
        E 995 92 44 68
        E 10 92 38 68
        E 1 92 44 68
        E 2 92 38 68
        E 1 92 38 68
        E 1138 82 44 00
        E 10 82 38 00
        E 1 82 44 00
        E 2 82 38 00
        E 1 82 38 00
        E 994 92 44 68
        E 7 92 44 68
        E 1 92 38 68
        E 2 92 38 68
        E 4 92 38 68
        E 1138 82 44 00
        E 7 82 44 00
        E 1 82 38 00
        E 2 82 38 00
        E 4 82 38 00
        E 994 92 44 68
        E 8 92 38 68
        E 1 92 38 68
        E 1 92 44 68
        E 3 92 38 68
        E 1139 82 44 00
        E 8 82 38 00
        E 1 82 38 00
        E 1 82 44 00
        E 3 82 38 00
        E 995 92 43 68
        E 6 92 37 68
        E 1 92 43 68
        E 6 92 37 68
        E 0 92 37 68
        E 1139 82 43 00
        E 6 82 37 00
        E 1 82 43 00
        E 6 82 37 00
        E 0 82 37 00
        E 995 92 43 68
        E 6 92 37 68
        E 7 92 37 68
        E 0 92 43 68
        E 0 92 37 68
        E 1139 82 43 00
        E 6 82 37 00
        E 7 82 37 00
        E 0 82 43 00
        E 0 82 37 00
        E 995 92 43 68
        E 6 92 43 68
        E 0 92 37 68
        E 6 92 37 68
        E 2 92 37 68
        E 1138 82 43 00
        E 6 82 43 00
        E 0 82 37 00
        E 6 82 37 00
        E 2 82 37 00
        E 994 92 43 68
        E 6 92 43 68
        E 2 92 37 68
        E 3 92 37 68
        E 3 92 37 68
        E 1138 82 43 00
        E 6 82 43 00
        E 2 82 37 00
        E 3 82 37 00
        E 3 82 37 00
        E 994 92 44 68
        E 6 92 38 68
        E 3 92 38 68
        E 1 92 38 68
        E 4 92 44 68
        E 1138 82 44 00
        E 6 82 38 00
        E 3 82 38 00
        E 1 82 38 00
        E 4 82 44 00
        E 994 92 43 68
        E 9 92 37 68
        E 1 92 37 68
        E 0 92 43 68
        E 2 92 37 68
        E 1140 82 43 00
        E 9 82 37 00
        E 1 82 37 00
        E 0 82 43 00
        E 2 82 37 00
        E 996 92 43 68
        E 5 92 37 68
        E 3 92 37 68
        E 0 92 43 68
        E 6 92 37 68
        E 1138 82 43 00
        E 5 82 37 00
        E 3 82 37 00
        E 0 82 43 00
        E 6 82 37 00
        E 994 92 44 68
        E 5 92 38 68
        E 3 92 44 68
        E 6 92 38 68
        E 0 92 38 68
        E 1138 82 44 00
        E 5 82 38 00
        E 3 82 44 00
        E 6 82 38 00
        E 0 82 38 00
        E 994 92 44 68
        E 6 92 38 68
        E 0 92 38 68
        E 4 92 44 68
        E 4 92 38 68
        E 1138 82 44 00
        E 6 82 38 00
        E 0 82 38 00
        E 4 82 44 00
        E 4 82 38 00
        E 994 92 43 68
        E 5 92 37 68
        E 4 92 43 68
        E 5 92 37 68
        E 0 92 37 68
        E 1138 82 43 00
        E 5 82 37 00
        E 4 82 43 00
        E 5 82 37 00
        E 0 82 37 00
        E 994 92 43 68
        E 9 92 37 68
        E 0 92 37 68
        E 2 92 43 68
        E 1 92 37 68
        E 1140 82 43 00
        E 9 82 37 00
        E 0 82 37 00
        E 2 82 43 00
        E 1 82 37 00
        E 996 92 44 68
        E 7 92 38 68
        E 1 92 38 68
        E 2 92 38 68
        E 4 92 44 68
        E 1138 82 44 00
        E 7 82 38 00
        E 1 82 38 00
        E 2 82 38 00
        E 4 82 44 00
        E 994 92 43 68
        E 7 92 37 68
        E 1 92 43 68
        E 3 92 37 68
        E 0 92 37 68
        E 1141 82 43 00
        E 7 82 37 00
        E 1 82 43 00
        E 3 82 37 00
        E 0 82 37 00
        E 997 92 43 68
        E 5 92 37 68
        E 8 92 37 68
        E 0 92 43 68
        E 1 92 37 68
        E 1138 82 43 00
        E 5 82 37 00
        E 8 82 37 00
        E 0 82 43 00
        E 1 82 37 00
        E 994 92 44 68
        E 5 92 38 68
        E 4 92 38 68
        E 3 92 44 68
        E 2 92 38 68
        E 1138 82 44 00
        E 5 82 38 00
        E 4 82 38 00
        E 3 82 44 00
        E 2 82 38 00
        E 994 92 44 68
        E 7 92 38 68
        E 1 92 38 68
        E 2 92 38 68
        E 3 92 44 68
        E 1139 82 44 00
        E 7 82 38 00
        E 1 82 38 00
        E 2 82 38 00
        E 3 82 44 00
        E 995 92 43 68
        E 7 92 37 68
        E 2 92 43 68
        E 4 92 37 68
        E 0 92 37 68
        E 1139 82 43 00
        E 7 82 37 00
        E 2 82 43 00
        E 4 82 37 00
        E 0 82 37 00
        E 995 92 43 68
        E 6 92 37 68
        E 2 92 37 68
        E 0 92 37 68
        E 6 92 43 68
        E 1138 82 43 00
        E 6 82 37 00
        E 2 82 37 00
        E 0 82 37 00
        E 6 82 43 00
        E 994 92 44 68
        E 5 92 44 68
        E 2 92 38 68
        E 1 92 38 68
        E 2 92 38 68
        E 1142 82 44 00
        E 5 82 44 00
        E 2 82 38 00
        E 1 82 38 00
        E 2 82 38 00
        E 998 92 44 68
        E 9 92 44 68
        E 1143 82 44 00
        E 9 82 44 00
        E 1012 92 44 68
        E 1152 82 44 00
        E 1004 92 43 68
        E 4 92 37 68
        E 1148 82 43 00
        E 4 82 37 00
        E 3160 92 43 68
        E 8 92 37 68
        E 1144 82 43 00
        E 8 82 37 00
        E 995 92 43 68
        E 1152 82 43 00
        E 1013 92 38 68
        E 1152 82 38 00
        E 3163 92 43 68
        E 11 92 37 68
        E 1 92 37 68
        E 1140 82 43 00
        E 11 82 37 00
        E 1 82 37 00
        E 0 b2 7b 00
        E 1 ff 2f 00
      >
    >
  >
  <TRACK
    NAME "Violin1"
    PEAKCOL 4284186559
    VOLPAN 1.000000 0 1 -1
    MIDIOUT -1
    ISBUS 0 0
    <ITEM
      POSITION 2.500012
      LENGTH 67.605818
      NAME "Violin1"
      VOLPAN 1 0 1 -1
      <SOURCE MIDI
        HASDATA 1 960 QN
        E 0 c3 28 00
        E 3840 93 52 4c
        E 3840 83 52 00
        E 3842 93 54 4f
        E 3840 83 54 00
        E 7686 93 4f 51
        E 3840 83 4f 00
        E 4 93 50 51
        E 3838 93 54 4e
        E 2 83 50 00
        E 3838 83 54 00
        E 2 93 54 52
        E 3839 93 50 4c
        E 1 83 54 00
        E 3838 93 4b 51
        E 1 83 50 00
        E 3839 83 4b 00
        E 2 93 4f 4c
        E 3840 83 4f 00
        E 1 93 55 4c
        E 3838 93 59 51
        E 2 83 55 00
        E 3835 93 5c 52
        E 3 83 59 00
        E 3832 93 5b 52
        E 5 83 5c 00
        E 3834 93 60 4c
        E 1 83 5b 00
        E 3839 83 60 00
        E 6 93 60 51
        E 3840 83 60 00
        E 1 93 60 4e
        E 3840 83 60 00
        E 0 93 5b 4c
        E 3840 83 5b 00
        E 3 93 57 4c
        E 3837 93 55 4c
        E 3 83 57 00
        E 3837 83 55 00
        E 3839 93 54 4c
        E 3840 83 54 00
        E 3837 93 54 52
        E 3840 83 54 00
        E 4 93 50 52
        E 3840 83 50 00
        E 0 b3 7b 00
        E 1 ff 2f 00
      >
    >
  >
  <TRACK
    NAME "Strings"
    PEAKCOL 4284186559
    VOLPAN 1.000000 0 1 -1
    MIDIOUT -1
    ISBUS 0 0
    <ITEM
      POSITION 0.000000
      LENGTH 70.113509
      NAME "Strings"
      VOLPAN 1 0 1 -1
      <SOURCE MIDI
        HASDATA 1 960 QN
        E 0 c4 30 00
        E 0 94 30 3d
        E 6 94 48 3d
        E 4 94 48 3d
        E 1898 94 48 3d
        E 10 94 48 3d
        E 1 94 48 3d
        E 7 84 30 00
        E 6 84 48 00
        E 0 94 48 3d
        E 1 84 48 00
        E 1890 84 48 00
        E 2 84 48 00
        E 15 94 3d 3d
        E 2 84 48 00
        E 5 84 48 00
        E 1 94 48 3d
        E 1 94 48 3d
        E 1902 84 48 00
        E 1 94 48 3d
        E 3 94 48 3d
        E 3 84 48 00
        E 2 84 3d 00
        E 1901 84 48 00
        E 18 84 48 00
        E 1915 94 43 3d
        E 4 94 48 3d
        E 6 94 48 3d
        E 2 94 48 3d
        E 5 94 43 3d
        E 1885 84 43 00
        E 19 84 48 00
        E 4 84 43 00
        E 4 84 48 00
        E 3 84 48 00
        E 4 94 48 3d
        E 1906 94 30 3d
        E 1 84 48 00
        E 3 94 3c 3d
        E 1909 94 48 3d
        E 3 94 48 3d
        E 2 94 30 3d
        E 6 84 3c 00
        E 1 84 30 00
        E 1910 84 48 00
        E 5 84 30 00
        E 2 84 48 00
        E 1 94 48 3d
        E 1919 84 48 00
        E 5 94 48 3d
        E 1903 94 41 3d
        E 9 94 48 3d
        E 5 94 3d 3d
        E 10 94 30 3d
        E 12 84 48 00
        E 1887 94 30 3d
        E 1 94 48 3d
        E 6 94 48 3d
        E 1 94 3f 3d
        E 2 94 48 3d
        E 1 84 48 00
        E 0 84 3d 00
        E 0 94 3c 3d
        E 1 84 41 00
        E 7 94 48 3d
        E 3 94 48 3d
        E 17 84 30 00
        E 1877 84 48 00
        E 1 84 48 00
        E 1 94 48 3d
        E 1 94 43 3d
        E 4 84 48 00
        E 3 84 3f 00
        E 1 94 48 3d
        E 0 94 30 3d
        E 4 84 3c 00
        E 0 94 48 3d
        E 6 94 48 3d
        E 2 84 30 00
        E 2 94 30 3d
        E 2 84 48 00
        E 1 94 48 3d
        E 3 84 48 00
        E 1884 84 43 00
        E 9 94 44 3d
        E 5 84 48 00
        E 0 94 48 3d
        E 0 94 48 3d
        E 3 84 30 00
        E 0 94 48 3d
        E 2 84 30 00
        E 1 84 48 00
        E 0 94 48 3d
        E 3 94 48 3d
        E 2 94 48 3d
        E 3 84 48 00
        E 1 84 48 00
        E 3 94 48 3d
        E 8 84 48 00
        E 1875 84 44 00
        E 11 84 48 00
        E 2 84 48 00
        E 1 94 48 3d
        E 3 94 3f 3d
        E 6 84 48 00
        E 0 94 48 3d
        E 1 94 30 3d
        E 1 84 48 00
        E 0 94 3c 3d
        E 0 94 48 3d
        E 3 84 48 00
        E 1 84 48 00
        E 3 94 48 3d
        E 3 84 48 00
        E 2 94 48 3d
        E 1886 84 48 00
        E 8 84 48 00
        E 1 84 48 00
        E 0 94 30 3d
        E 0 94 48 3d
        E 3 94 30 3d
        E 3 84 3f 00
        E 0 94 30 3d
        E 6 94 3f 3d
        E 1 84 3c 00
        E 0 94 48 3d
        E 0 94 3c 3d
        E 2 84 30 00
        E 4 84 48 00
        E 5 94 30 3d
        E 11 84 48 00
        E 1869 84 30 00
        E 10 84 48 00
        E 6 84 30 00
        E 13 84 3f 00
        E 0 84 3c 00
        E 0 94 3c 3d
        E 1 84 30 00
        E 0 94 30 3d
        E 1 94 48 3d
        E 2 94 30 3d
        E 6 94 48 3d
        E 1 94 48 3d
        E 0 94 48 3d
        E 1 94 43 3d
        E 5 84 48 00
        E 4 84 30 00
        E 1884 84 30 00
        E 8 84 48 00
        E 1 84 43 00
        E 1 94 48 3d
        E 1 94 48 3d
        E 4 84 3c 00
        E 0 94 48 3d
        E 0 94 3c 3d
        E 1 84 48 00
        E 5 94 44 3d
        E 3 84 48 00
        E 0 94 48 3d
        E 1 94 48 3d
        E 1 84 48 00
        E 0 84 30 00
        E 2 94 30 3d
        E 1892 84 48 00
        E 3 84 44 00
        E 1 94 48 3d
        E 2 94 48 3d
        E 0 94 44 3d
        E 2 84 48 00
        E 2 84 48 00
        E 1 94 48 3d
        E 4 84 3c 00
        E 0 94 48 3d
        E 3 84 48 00
        E 0 94 48 3d
        E 3 84 48 00
        E 1 84 30 00
        E 3 94 48 3d
        E 2 94 44 3d
        E 1888 84 44 00
        E 6 84 48 00
        E 6 94 30 3d
        E 2 84 48 00
        E 4 94 30 3d
        E 2 84 48 00
        E 0 84 48 00
        E 0 94 3d 3d
        E 1 94 48 3d
        E 1 94 48 3d
        E 1 94 48 3d
        E 1 84 48 00
        E 3 94 30 3d
        E 2 94 44 3d
        E 9 84 48 00
        E 8 84 44 00
        E 1872 84 30 00
        E 9 94 41 3d
        E 4 84 48 00
        E 1 94 48 3d
        E 1 94 48 3d
        E 4 84 30 00
        E 2 84 48 00
        E 0 94 30 3d
        E 1 84 3d 00
        E 0 84 48 00
        E 0 94 3d 3d
        E 2 94 48 3d
        E 2 84 44 00
        E 7 94 48 3d
        E 1 84 30 00
        E 2 94 48 3d
        E 1879 84 41 00
        E 9 84 48 00
        E 2 84 48 00
        E 2 84 48 00
        E 1 94 3f 3d
        E 5 94 48 3d
        E 7 94 48 3d
        E 0 94 48 3d
        E 1 84 3d 00
        E 0 84 48 00
        E 0 94 3c 3d
        E 6 84 30 00
        E 0 94 48 3d
        E 4 94 48 3d
        E 3 94 48 3d
        E 12 84 48 00
        E 1881 94 48 3d
        E 1 94 48 3d
        E 1 84 48 00
        E 1 84 48 00
        E 3 94 30 3d
        E 1 94 30 3d
        E 0 94 48 3d
        E 1 84 48 00
        E 1 84 3f 00
        E 0 94 48 3d
        E 1 84 48 00
        E 4 84 3c 00
        E 0 94 3c 3d
        E 7 94 48 3d
        E 10 84 48 00
        E 5 84 48 00
        E 1878 84 48 00
        E 0 84 30 00
        E 10 84 48 00
        E 1 94 43 3d
        E 1 84 48 00
        E 4 84 48 00
        E 4 84 3c 00
        E 0 94 48 3d
        E 0 94 48 3d
        E 1 94 48 3d
        E 1 94 48 3d
        E 4 84 30 00
        E 1 94 43 3d
        E 5 94 48 3d
        E 0 94 3f 3d
        E 7 84 48 00
        E 1877 84 43 00
        E 10 94 48 3d
        E 7 94 48 3d
        E 1 94 48 3d
        E 2 84 48 00
        E 0 84 48 00
        E 2 94 48 3d
        E 2 84 48 00
        E 0 94 3c 3d
        E 1 84 3f 00
        E 7 84 48 00
        E 0 94 30 3d
        E 3 94 30 3d
        E 1 84 48 00
        E 1 94 3f 3d
        E 8 84 43 00
        E 1879 84 48 00
        E 7 94 30 3d
        E 1 94 48 3d
        E 2 94 48 3d
        E 1 94 48 3d
        E 1 94 48 3d
        E 2 94 31 3d
        E 4 84 48 00
        E 2 84 3c 00
        E 0 94 3d 3d
        E 4 84 48 00
        E 0 84 30 00
        E 1 94 48 3d
        E 1 84 30 00
        E 2 84 3f 00
        E 8 84 48 00
        E 1881 84 48 00
        E 8 84 48 00
        E 2 84 30 00
        E 1 84 48 00
        E 0 94 48 3d
        E 0 94 48 3d
        E 10 94 48 3d
        E 1 84 48 00
        E 1 84 3d 00
        E 0 94 3d 3d
        E 0 94 48 3d
        E 3 84 31 00
        E 3 94 48 3d
        E 2 94 30 3d
        E 3 94 48 3d
        E 5 84 48 00
        E 1892 84 48 00
        E 2 94 48 3d
        E 2 84 48 00
        E 0 94 48 3d
        E 1 84 48 00
        E 1 84 48 00
        E 0 94 43 3d
        E 1 94 30 3d
        E 1 84 30 00
        E 4 84 3d 00
        E 0 94 3f 3d
        E 1 84 48 00
        E 2 84 48 00
        E 4 94 48 3d
        E 0 94 48 3d
        E 5 94 48 3d
        E 1885 84 43 00
        E 17 84 48 00
        E 0 94 48 3d
        E 1 94 48 3d
        E 2 94 48 3d
        E 2 94 30 3d
        E 1 84 3f 00
        E 0 94 3f 3d
        E 1 94 43 3d
        E 1 94 48 3d
        E 2 84 48 00
        E 0 84 48 00
        E 0 84 48 00
        E 0 94 48 3d
        E 2 84 30 00
        E 12 84 48 00
        E 1886 84 30 00
        E 2 94 48 3d
        E 2 94 48 3d
        E 1 84 48 00
        E 10 84 48 00
        E 1 84 3f 00
        E 0 94 3f 3d
        E 1 94 48 3d
        E 0 94 44 3d
        E 4 94 48 3d
        E 0 94 30 3d
        E 1 84 48 00
        E 7 84 48 00
        E 0 94 44 3d
        E 1 84 43 00
        E 1 84 48 00
        E 1877 84 48 00
        E 14 84 48 00
        E 2 94 48 3d
        E 2 84 44 00
        E 1 94 48 3d
        E 2 94 48 3d
        E 3 94 48 3d
        E 4 84 3f 00
        E 0 94 3f 3d
        E 5 94 48 3d
        E 3 84 48 00
        E 0 94 44 3d
        E 1 94 30 3d
        E 7 84 30 00
        E 3 84 48 00
        E 7 84 44 00
        E 1867 84 48 00
        E 2 84 48 00
        E 15 84 44 00
        E 6 84 48 00
        E 4 84 3f 00
        E 0 94 3f 3d
        E 1 84 48 00
        E 2 94 48 3d
        E 1 84 30 00
        E 2 94 48 3d
        E 1 94 48 3d
        E 4 84 48 00
        E 1 94 48 3d
        E 0 94 48 3d
        E 1 94 30 3d
        E 1 94 48 3d
        E 1903 94 30 3d
        E 3 84 3f 00
        E 0 94 3f 3f
        E 1 84 48 00
        E 3 94 48 3d
        E 2 84 48 00
        E 0 94 48 3d
        E 2 94 48 3d
        E 2 94 48 3d
        E 1 94 48 3d
        E 1 94 48 3d
        E 4 84 48 00
        E 1 84 30 00
        E 2 84 48 00
        E 2 84 48 00
        E 3 84 48 00
        E 1885 94 41 3d
        E 2 94 48 3d
        E 2 94 44 3d
        E 3 84 48 00
        E 2 84 30 00
        E 1 94 48 3d
        E 1 84 3f 00
        E 0 84 48 00
        E 0 94 3d 3f
        E 1 94 30 3d
        E 0 94 48 3d
        E 1 94 48 3d
        E 12 84 48 00
        E 3 84 48 00
        E 2 84 48 00
        E 4 84 48 00
        E 1874 84 41 00
        E 8 84 48 00
        E 3 94 30 3d
        E 0 94 30 3d
        E 1 94 48 3d
        E 1 94 44 3d
        E 0 94 48 3d
        E 2 84 30 00
        E 4 84 48 00
        E 0 94 30 3d
        E 3 84 44 00
        E 1 84 3d 00
        E 0 94 3d 40
        E 1 84 48 00
        E 0 84 48 00
        E 1 94 48 3d
        E 1887 84 30 00
        E 5 84 48 00
        E 3 84 48 00
        E 2 84 30 00
        E 10 94 48 3d
        E 9 94 48 3d
        E 1 84 44 00
        E 1 84 3d 00
        E 0 94 3c 40
        E 1 94 48 3d
        E 3 94 30 3d
        E 1 84 30 00
        E 2 94 43 3d
        E 4 94 3f 3d
        E 1 94 48 3d
        E 3 84 48 00
        E 1891 94 48 3d
        E 4 84 48 00
        E 0 94 48 3d
        E 4 84 48 00
        E 1 84 48 00
        E 0 94 43 3d
        E 1 94 30 3d
        E 2 84 30 00
        E 0 94 48 3d
        E 2 84 3c 00
        E 0 94 48 3d
        E 0 94 3c 40
        E 4 94 48 3d
        E 13 84 48 00
        E 9 84 43 00
        E 2 84 3f 00
        E 1865 84 48 00
        E 12 84 48 00
        E 2 94 3f 3d
        E 5 94 48 42
        E 3 84 30 00
        E 2 84 43 00
        E 1 94 30 3d
        E 2 84 3c 00
        E 0 94 48 42
        E 1 94 44 3d
        E 1 84 48 00
        E 1 94 48 3d
        E 2 84 48 00
        E 5 84 48 00
        E 1 94 48 3d
        E 0 94 48 3d
        E 1883 84 3f 00
        E 11 84 30 00
        E 2 94 3f 3d
        E 0 94 48 3d
        E 3 94 48 3d
        E 2 84 48 00
        E 2 84 48 00
        E 6 84 48 00
        E 0 84 44 00
        E 0 94 3c 42
        E 6 94 48 3d
        E 1 94 48 3d
        E 3 94 48 3d
        E 1 94 48 3d
        E 8 84 48 00
        E 4 84 48 00
        E 1874 84 48 00
        E 6 84 48 00
        E 2 84 3f 00
        E 8 94 48 3d
        E 3 94 30 3d
        E 4 84 3c 00
        E 0 94 3c 43
        E 4 94 3f 3d
        E 1 94 48 3d
        E 1 94 48 3d
        E 2 94 30 3d
        E 4 94 48 3d
        E 5 84 48 00
        E 2 84 48 00
        E 5 84 48 00
        E 1 84 48 00
        E 1884 94 30 3d
        E 1 94 48 43
        E 1 94 48 3d
        E 3 94 48 3d
        E 5 84 48 00
        E 1 84 30 00
        E 0 84 3c 00
        E 0 84 48 00
        E 0 94 48 43
        E 1 94 48 3d
        E 2 94 48 3d
        E 4 84 48 00
        E 4 84 48 00
        E 1 94 48 3d
        E 4 84 3f 00
        E 11 84 30 00
        E 1869 84 30 00
        E 7 84 48 00
        E 3 84 48 00
        E 1 94 48 3d
        E 1 84 48 00
        E 2 94 41 3d
        E 5 94 41 3d
        E 5 84 48 00
        E 0 94 48 43
        E 5 94 48 3d
        E 1 94 48 43
        E 1 84 48 00
        E 2 94 48 3d
        E 2 84 48 00
        E 2 94 48 3d
        E 2 84 48 00
        E 1876 84 48 00
        E 14 84 41 00
        E 1 84 41 00
        E 13 94 48 3d
        E 1 84 48 00
        E 0 94 3c 44
        E 3 84 48 00
        E 2 94 30 3d
        E 0 94 48 3d
        E 3 94 44 3d
        E 1 94 41 3d
        E 2 84 48 00
        E 0 94 44 3d
        E 1 94 48 3d
        E 12 84 48 00
        E 3 84 48 00
        E 1879 84 48 00
        E 7 94 41 3d
        E 5 84 41 00
        E 1 94 48 3d
        E 1 84 3c 00
        E 0 94 49 44
        E 2 94 44 3d
        E 3 84 30 00
        E 0 94 48 3d
        E 7 94 48 3d
        E 1 94 48 3d
        E 1 94 48 3d
        E 2 84 48 00
        E 9 84 44 00
        E 2 84 44 00
        E 2 84 48 00
        E 1867 84 41 00
        E 11 84 44 00
        E 2 84 48 00
        E 3 84 48 00
        E 6 94 48 3d
        E 2 84 49 00
        E 1 84 48 00
        E 11 84 48 00
        E 3 84 48 00
        E 1896 94 48 3d
        E 19 84 48 00
        E 1890 84 48 00
        E 12 94 48 3d
        E 12 94 48 3d
        E 1901 84 48 00
        E 23 94 48 3d
        E 4 94 30 3d
        E 11 84 48 00
        E 1895 94 48 3d
        E 12 94 48 3d
        E 2 84 30 00
        E 1 84 48 00
        E 1906 94 48 3d
        E 1 94 3d 48
        E 15 84 48 00
        E 1 84 48 00
        E 1894 84 48 00
        E 8 94 48 3d
        E 2 84 3d 00
        E 14 94 41 3d
        E 1896 94 48 3d
        E 6 94 30 3d
        E 3 94 48 3d
        E 3 94 48 3d
        E 6 84 48 00
        E 7 84 41 00
        E 1887 84 48 00
        E 7 94 48 3d
        E 3 84 48 00
        E 5 94 43 3d
        E 3 94 48 4a
        E 2 84 48 00
        E 9 94 48 3d
        E 1 84 30 00
        E 1897 84 48 00
        E 7 94 48 3d
        E 4 84 48 00
        E 0 94 48 4a
        E 5 94 30 3d
        E 4 84 43 00
        E 11 84 48 00
        E 1895 84 30 00
        E 4 84 48 00
        E 1 84 48 00
        E 0 94 3c 4b
        E 5 94 48 3d
        E 1915 84 3c 00
        E 21 84 48 00
        E 0 b4 7b 00
        E 1 ff 2f 00
      >
    >
  >
  <TRACK
    NAME "Choir"
    PEAKCOL 4284506208
    VOLPAN 1.000000 0 1 -1
    MIDIOUT -1
    ISBUS 0 0
    <ITEM
      POSITION 0.004067
      LENGTH 69.907681
      NAME "Choir"
      VOLPAN 1 0 1 -1
      <SOURCE MIDI
        HASDATA 1 960 QN
        E 0 c5 34 00
        E 6 95 3f 57
        E 19 95 32 57
        E 3514 85 3f 00
        E 19 85 32 00
        E 307 95 32 53
        E 3533 85 32 00
        E 291 95 3f 55
        E 9 95 37 55
        E 3524 85 3f 00
        E 9 85 37 00
        E 290 95 3c 56
        E 8 95 3f 56
        E 3525 85 3c 00
        E 8 85 3f 00
        E 301 95 3c 57
        E 27 95 32 59
        E 3506 85 3c 00
        E 27 85 32 00
        E 295 95 32 55
        E 3533 85 32 00
        E 297 95 3c 57
        E 4 95 37 5a
        E 2 95 3f 59
        E 16 95 32 55
        E 3511 85 3c 00
        E 4 85 37 00
        E 2 85 3f 00
        E 16 85 32 00
        E 279 95 3c 57
        E 4 95 3f 55
        E 8 95 38 5a
        E 14 95 32 56
        E 3507 85 3c 00
        E 4 85 3f 00
        E 8 85 38 00
        E 14 85 32 00
        E 287 95 3c 53
        E 2 95 37 53
        E 1 95 3f 57
        E 14 95 32 56
        E 3516 85 3c 00
        E 2 85 37 00
        E 1 85 3f 00
        E 14 85 32 00
        E 289 95 3c 53
        E 0 95 41 5a
        E 11 95 38 59
        E 7 95 32 57
        E 3515 85 3c 00
        E 0 85 41 00
        E 11 85 38 00
        E 7 85 32 00
        E 290 95 3d 55
        E 5 95 41 59
        E 5 95 32 59
        E 0 95 38 5a
        E 3523 85 3d 00
        E 5 85 41 00
        E 5 85 32 00
        E 0 85 38 00
        E 292 95 3c 56
        E 3 95 3f 56
        E 6 95 37 56
        E 18 95 32 53
        E 3506 85 3c 00
        E 3 85 3f 00
        E 6 85 37 00
        E 18 85 32 00
        E 282 95 3c 57
        E 3 95 3f 57
        E 11 95 37 55
        E 5 95 32 57
        E 3514 85 3c 00
        E 3 85 3f 00
        E 11 85 37 00
        E 5 85 32 00
        E 285 95 3d 53
        E 3 95 41 53
        E 15 95 38 57
        E 6 95 32 57
        E 3509 85 3d 00
        E 3 85 41 00
        E 15 85 38 00
        E 6 85 32 00
        E 282 95 3c 56
        E 11 95 3f 59
        E 1 95 37 53
        E 11 95 32 56
        E 3510 85 3c 00
        E 11 85 3f 00
        E 1 85 37 00
        E 11 85 32 00
        E 284 95 3c 57
        E 5 95 3f 53
        E 9 95 38 56
        E 3 95 32 59
        E 3516 85 3c 00
        E 5 85 3f 00
        E 9 85 38 00
        E 3 85 32 00
        E 292 95 3c 59
        E 6 95 3f 53
        E 6 95 32 56
        E 1 95 37 53
        E 3520 85 3c 00
        E 6 85 3f 00
        E 6 85 32 00
        E 1 85 37 00
        E 298 95 41 53
        E 0 95 3d 53
        E 6 95 38 53
        E 6 95 32 57
        E 3521 85 41 00
        E 0 85 3d 00
        E 6 85 38 00
        E 6 85 32 00
        E 291 95 3c 53
        E 11 95 3f 57
        E 7 95 37 59
        E 0 95 32 56
        E 3515 85 3c 00
        E 11 85 3f 00
        E 7 85 37 00
        E 0 85 32 00
        E 289 95 3c 57
        E 10 95 3f 57
        E 2 95 38 59
        E 6 95 32 5a
        E 3515 85 3c 00
        E 10 85 3f 00
        E 2 85 38 00
        E 6 85 32 00
        E 286 95 3c 5a
        E 9 95 3f 53
        E 9 95 37 55
        E 6 95 32 55
        E 3509 85 3c 00
        E 9 85 3f 00
        E 9 85 37 00
        E 6 85 32 00
        E 285 95 3c 53
        E 5 95 41 57
        E 9 95 38 53
        E 12 95 32 56
        E 3507 85 3c 00
        E 5 85 41 00
        E 9 85 38 00
        E 12 85 32 00
        E 285 95 41 53
        E 2 95 3d 53
        E 11 95 32 57
        E 1 95 38 57
        E 3519 85 41 00
        E 2 85 3d 00
        E 11 85 32 00
        E 1 85 38 00
        E 301 95 3f 59
        E 15 95 32 59
        E 3518 85 3f 00
        E 15 85 32 00
        E 11803 95 3f 57
        E 13 95 38 59
        E 3520 85 3f 00
        E 13 85 38 00
        E 0 b5 7b 00
        E 1 ff 2f 00
      >
    >
  >
  <TRACK
    NAME "Harp"
    PEAKCOL 4290756410
    VOLPAN 1.000000 0 1 -1
    MIDIOUT -1
    ISBUS 0 0
    <ITEM
      POSITION 0.078693
      LENGTH 69.991629
      NAME "Harp"
      VOLPAN 1 0 1 -1
      <SOURCE MIDI
        HASDATA 1 960 QN
        E 0 c6 2e 00
        E 121 96 37 4a
        E 238 96 3f 43
        E 480 96 4f 2d
        E 243 96 4f 2c
        E 119 96 4b 2c
        E 241 96 43 2c
        E 119 96 3f 2c
        E 238 86 4f 00
        E 122 96 33 2c
        E 121 86 4f 00
        E 119 86 4b 00
        E 840 86 37 00
        E 238 86 3f 00
        E 554 86 3f 00
        E 0 86 33 00
        E 1 86 43 00
        E 286 96 38 44
        E 479 96 49 34
        E 358 96 4d 2c
        E 121 96 49 2c
        E 481 86 49 00
        E 358 86 4d 00
        E 121 86 49 00
        E 962 86 38 00
        E 1558 96 4f 2d
        E 122 96 54 2c
        E 240 96 4b 2c
        E 122 96 48 2c
        E 121 96 43 2c
        E 355 86 4f 00
        E 122 86 54 00
        E 240 86 4b 00
        E 122 86 48 00
        E 1513 86 43 00
        E 42 96 33 52
        E 602 96 48 39
        E 239 96 50 30
        E 721 86 48 00
        E 239 86 50 00
        E 2 96 38 2c
        E 119 96 33 2c
        E 958 86 33 00
        E 914 86 33 00
        E 1 86 38 00
        E 287 96 3c 44
        E 1079 96 48 2c
        E 960 86 48 00
        E 841 86 3c 00
        E 723 96 31 56
        E 357 96 3d 44
        E 120 96 41 3b
        E 122 96 44 35
        E 478 96 4d 2c
        E 721 96 35 2c
        E 239 86 4d 00
        E 843 86 31 00
        E 357 86 3d 00
        E 120 86 41 00
        E 122 86 44 00
        E 311 86 35 00
        E 48 96 33 53
        E 120 96 37 4e
        E 123 96 3c 46
        E 115 96 3f 44
        E 123 96 43 39
        E 117 96 48 35
        E 124 96 4b 30
        E 121 96 4f 30
        E 115 96 54 2c
        E 124 96 4f 2c
        E 116 96 4b 2c
        E 121 96 48 2c
        E 124 96 43 2c
        E 115 86 48 00
        E 4 96 3f 2c
        E 119 96 3c 2c
        E 1 86 4b 00
        E 120 96 37 2c
        E 1 86 4f 00
        E 115 86 54 00
        E 3 96 33 2c
        E 121 86 4f 00
        E 116 86 4b 00
        E 121 86 48 00
        E 601 86 33 00
        E 120 86 37 00
        E 123 86 3c 00
        E 115 86 3f 00
        E 123 86 43 00
        E 432 86 3c 00
        E 0 86 33 00
        E 1 86 3f 00
        E 0 86 37 00
        E 1 86 43 00
        E 43 96 33 56
        E 122 96 38 4c
        E 123 96 3c 4a
        E 117 96 3f 3d
        E 120 96 44 38
        E 118 96 48 39
        E 123 96 4b 35
        E 121 96 50 2d
        E 119 96 54 2c
        E 121 96 50 2c
        E 116 96 4b 2c
        E 122 96 48 2c
        E 120 96 44 2c
        E 118 86 48 00
        E 0 96 3f 2c
        E 123 86 4b 00
        E 0 96 3c 2c
        E 117 96 38 2c
        E 4 86 50 00
        E 119 86 54 00
        E 2 96 33 2c
        E 119 86 50 00
        E 116 86 4b 00
        E 122 86 48 00
        E 598 86 33 00
        E 122 86 38 00
        E 123 86 3c 00
        E 117 86 3f 00
        E 120 86 44 00
        E 430 86 3f 00
        E 0 86 38 00
        E 2 86 44 00
        E 1 86 3c 00
        E 2 86 33 00
        E 47 96 33 51
        E 116 96 37 51
        E 123 96 3c 47
        E 121 96 3f 40
        E 121 96 43 38
        E 116 96 48 37
        E 118 96 4b 30
        E 123 96 4f 2c
        E 122 96 54 2c
        E 119 96 4f 2c
        E 120 96 4b 2c
        E 118 96 48 2c
        E 123 96 43 2c
        E 117 86 48 00
        E 3 96 3f 2c
        E 115 86 4b 00
        E 6 96 3c 2c
        E 116 96 37 2c
        E 1 86 4f 00
        E 119 96 33 2c
        E 3 86 54 00
        E 119 86 4f 00
        E 120 86 4b 00
        E 118 86 48 00
        E 603 86 33 00
        E 116 86 37 00
        E 123 86 3c 00
        E 121 86 3f 00
        E 121 86 43 00
        E 428 86 37 00
        E 0 86 33 00
        E 3 86 43 00
        E 0 86 3f 00
        E 1 86 3c 00
        E 47 96 35 53
        E 116 96 38 51
        E 122 96 3c 44
        E 119 96 41 3f
        E 120 96 44 38
        E 120 96 48 33
        E 123 96 4d 30
        E 120 96 50 30
        E 119 96 54 2c
        E 121 96 50 2c
        E 120 96 4d 2c
        E 120 96 48 2c
        E 115 96 44 2c
        E 122 86 48 00
        E 0 96 41 2c
        E 119 96 3c 2c
        E 4 86 4d 00
        E 119 96 38 2c
        E 1 86 50 00
        E 117 96 35 2c
        E 2 86 54 00
        E 121 86 50 00
        E 120 86 4d 00
        E 120 86 48 00
        E 600 86 35 00
        E 116 86 38 00
        E 122 86 3c 00
        E 119 86 41 00
        E 120 86 44 00
        E 430 86 44 00
        E 1 86 3c 00
        E 1 86 41 00
        E 0 86 35 00
        E 2 86 38 00
        E 45 96 31 55
        E 124 96 35 51
        E 115 96 38 43
        E 122 96 3d 42
        E 120 96 41 39
        E 123 96 44 35
        E 117 96 49 30
        E 123 96 4d 30
        E 116 96 50 2c
        E 125 96 4d 2c
        E 115 96 49 2c
        E 122 96 44 2c
        E 121 96 41 2c
        E 119 96 3d 2c
        E 119 86 49 00
        E 1 96 38 2c
        E 118 96 35 2c
        E 4 86 4d 00
        E 116 86 50 00
        E 4 96 31 2c
        E 121 86 4d 00
        E 115 86 49 00
        E 720 86 31 00
        E 124 86 35 00
        E 115 86 38 00
        E 122 86 3d 00
        E 120 86 41 00
        E 123 86 44 00
        E 308 86 35 00
        E 2 86 44 00
        E 0 86 3d 00
        E 0 86 38 00
        E 1 86 41 00
        E 1 86 31 00
        E 45 96 33 56
        E 118 96 37 4b
        E 125 96 3c 4a
        E 120 96 3f 3d
        E 116 96 43 3b
        E 122 96 48 39
        E 123 96 4b 33
        E 114 96 4f 2c
        E 121 96 54 2c
        E 125 96 4f 2c
        E 118 96 4b 2c
        E 120 96 48 2c
        E 117 96 43 2c
        E 122 86 48 00
        E 1 96 3f 2c
        E 117 96 3c 2c
        E 5 86 4b 00
        E 114 86 4f 00
        E 6 96 37 2c
        E 115 86 54 00
        E 3 96 33 2c
        E 122 86 4f 00
        E 118 86 4b 00
        E 120 86 48 00
        E 598 86 33 00
        E 118 86 37 00
        E 125 86 3c 00
        E 120 86 3f 00
        E 116 86 43 00
        E 432 86 43 00
        E 0 86 3c 00
        E 3 86 3f 00
        E 0 86 33 00
        E 2 86 37 00
        E 47 96 33 56
        E 118 96 37 4b
        E 121 96 3c 46
        E 116 96 3f 40
        E 125 96 43 38
        E 116 96 48 38
        E 120 96 4b 30
        E 121 96 4f 2e
        E 120 96 54 2c
        E 123 96 4f 2c
        E 118 96 4b 2c
        E 119 96 48 2c
        E 120 96 43 2c
        E 118 96 3f 2c
        E 1 86 48 00
        E 120 86 4b 00
        E 0 96 3c 2c
        E 120 96 37 2c
        E 1 86 4f 00
        E 120 86 54 00
        E 1 96 33 2c
        E 122 86 4f 00
        E 118 86 4b 00
        E 119 86 48 00
        E 603 86 33 00
        E 118 86 37 00
        E 121 86 3c 00
        E 116 86 3f 00
        E 125 86 43 00
        E 427 86 3f 00
        E 1 86 3c 00
        E 0 86 37 00
        E 1 86 43 00
        E 1 86 33 00
        E 47 96 31 56
        E 123 96 35 4a
        E 116 96 38 48
        E 122 96 3d 43
        E 123 96 41 3b
        E 118 96 44 39
        E 116 96 49 35
        E 120 96 4d 2d
        E 122 96 50 2c
        E 119 96 4d 2c
        E 123 96 49 2c
        E 119 96 44 2c
        E 120 96 41 2c
        E 121 96 3d 2c
        E 116 86 49 00
        E 4 96 38 2c
        E 116 86 4d 00
        E 0 96 35 2c
        E 122 86 50 00
        E 2 96 31 2c
        E 117 86 4d 00
        E 123 86 49 00
        E 718 86 31 00
        E 123 86 35 00
        E 116 86 38 00
        E 122 86 3d 00
        E 123 86 41 00
        E 118 86 44 00
        E 308 86 35 00
        E 3 86 44 00
        E 0 86 41 00
        E 1 86 3d 00
        E 0 86 38 00
        E 0 86 31 00
        E 46 96 33 56
        E 121 96 37 51
        E 123 96 3c 4a
        E 116 96 3f 44
        E 122 96 43 39
        E 120 96 48 35
        E 118 96 4b 33
        E 120 96 4f 31
        E 123 96 54 2c
        E 120 96 4f 2c
        E 117 96 4b 2c
        E 123 96 48 2c
        E 116 96 43 2c
        E 120 96 3f 2c
        E 3 86 48 00
        E 117 96 3c 2c
        E 1 86 4b 00
        E 120 86 4f 00
        E 2 96 37 2c
        E 118 96 33 2c
        E 3 86 54 00
        E 120 86 4f 00
        E 117 86 4b 00
        E 123 86 48 00
        E 597 86 33 00
        E 121 86 37 00
        E 123 86 3c 00
        E 116 86 3f 00
        E 122 86 43 00
        E 429 86 43 00
        E 0 86 3f 00
        E 0 86 3c 00
        E 1 86 33 00
        E 2 86 37 00
        E 45 96 33 51
        E 124 96 38 4f
        E 117 96 3c 48
        E 122 96 3f 3d
        E 118 96 44 38
        E 121 96 48 38
        E 122 96 4b 31
        E 120 96 50 30
        E 116 96 54 2c
        E 122 96 50 2c
        E 119 96 4b 2c
        E 119 96 48 2c
        E 120 96 44 2c
        E 122 86 48 00
        E 1 96 3f 2c
        E 117 96 3c 2c
        E 4 86 4b 00
        E 119 96 38 2c
        E 1 86 50 00
        E 116 86 54 00
        E 0 96 33 2c
        E 122 86 50 00
        E 119 86 4b 00
        E 119 86 48 00
        E 600 86 33 00
        E 124 86 38 00
        E 117 86 3c 00
        E 122 86 3f 00
        E 118 86 44 00
        E 431 86 44 00
        E 0 86 3c 00
        E 0 86 33 00
        E 3 86 3f 00
        E 0 86 38 00
        E 45 96 33 55
        E 124 96 37 4f
        E 116 96 3c 44
        E 124 96 3f 40
        E 118 96 43 3b
        E 119 96 48 33
        E 121 96 4b 31
        E 123 96 4f 2e
        E 118 96 54 2d
        E 119 96 4f 2c
        E 121 96 4b 2c
        E 119 96 48 2c
        E 119 96 43 2c
        E 119 96 3f 2c
        E 1 86 48 00
        E 119 96 3c 2c
        E 2 86 4b 00
        E 121 96 37 2c
        E 2 86 4f 00
        E 116 96 33 2c
        E 2 86 54 00
        E 119 86 4f 00
        E 121 86 4b 00
        E 119 86 48 00
        E 598 86 33 00
        E 124 86 37 00
        E 116 86 3c 00
        E 124 86 3f 00
        E 118 86 43 00
        E 430 86 3f 00
        E 0 86 3c 00
        E 1 86 43 00
        E 0 86 33 00
        E 2 86 37 00
        E 47 96 31 51
        E 120 96 35 4a
        E 119 96 38 43
        E 123 96 3d 40
        E 115 96 41 3d
        E 123 96 44 34
        E 120 96 49 34
        E 120 96 4d 2c
        E 120 96 50 2c
        E 117 96 4d 2c
        E 123 96 49 2c
        E 118 96 44 2c
        E 122 96 41 2c
        E 123 96 3d 2c
        E 117 86 49 00
        E 0 96 38 2c
        E 120 86 4d 00
        E 1 96 35 2c
        E 119 86 50 00
        E 1 96 31 2c
        E 116 86 4d 00
        E 123 86 49 00
        E 720 86 31 00
        E 120 86 35 00
        E 119 86 38 00
        E 123 86 3d 00
        E 115 86 41 00
        E 123 86 44 00
        E 310 86 44 00
        E 2 86 41 00
        E 0 86 38 00
        E 1 86 35 00
        E 0 86 31 00
        E 2 86 3d 00
        E 44 96 33 51
        E 122 96 37 4e
        E 118 96 3c 43
        E 123 96 3f 40
        E 118 96 43 39
        E 122 96 48 34
        E 119 96 4b 2e
        E 121 96 4f 30
        E 117 96 54 2d
        E 123 96 4f 2c
        E 116 96 4b 2c
        E 123 96 48 2c
        E 120 96 43 2c
        E 118 96 3f 2c
        E 3 86 48 00
        E 119 86 4b 00
        E 0 96 3c 2c
        E 119 96 37 2c
        E 2 86 4f 00
        E 117 86 54 00
        E 2 96 33 2c
        E 121 86 4f 00
        E 116 86 4b 00
        E 123 86 48 00
        E 598 86 33 00
        E 122 86 37 00
        E 118 86 3c 00
        E 123 86 3f 00
        E 118 86 43 00
        E 431 86 3f 00
        E 1 86 37 00
        E 1 86 43 00
        E 0 86 3c 00
        E 0 86 33 00
        E 45 96 33 56
        E 124 96 38 4b
        E 117 96 3c 44
        E 121 96 3f 3d
        E 119 96 44 3b
        E 119 96 48 38
        E 124 96 4b 33
        E 116 96 50 2e
        E 122 96 54 2c
        E 121 96 50 2c
        E 117 96 4b 2c
        E 122 96 48 2c
        E 117 96 44 2c
        E 121 86 48 00
        E 1 96 3f 2c
        E 118 96 3c 2c
        E 5 86 4b 00
        E 116 86 50 00
        E 5 96 38 2c
        E 117 86 54 00
        E 3 96 33 2c
        E 118 86 50 00
        E 117 86 4b 00
        E 122 86 48 00
        E 598 86 33 00
        E 124 86 38 00
        E 117 86 3c 00
        E 121 86 3f 00
        E 119 86 44 00
        E 430 86 44 00
        E 0 86 3c 00
        E 2 86 3f 00
        E 4 86 38 00
        E 0 86 33 00
        E 46 96 33 55
        E 122 96 37 4f
        E 120 96 3c 48
        E 119 96 3f 3d
        E 120 96 43 38
        E 118 96 48 38
        E 120 96 4b 33
        E 120 96 4f 2c
        E 121 96 54 2c
        E 121 96 4f 2c
        E 118 96 4b 2c
        E 122 96 48 2c
        E 116 96 43 2c
        E 122 86 48 00
        E 0 96 3f 2c
        E 120 86 4b 00
        E 0 96 3c 2c
        E 119 96 37 2c
        E 1 86 4f 00
        E 118 96 33 2c
        E 3 86 54 00
        E 121 86 4f 00
        E 118 86 4b 00
        E 122 86 48 00
        E 599 86 33 00
        E 122 86 37 00
        E 120 86 3c 00
        E 119 86 3f 00
        E 120 86 43 00
        E 428 86 43 00
        E 0 86 33 00
        E 1 86 37 00
        E 1 86 3f 00
        E 0 86 3c 00
        E 47 96 35 56
        E 122 96 38 4f
        E 117 96 3c 44
        E 123 96 41 3d
        E 116 96 44 3b
        E 123 96 48 34
        E 118 96 4d 31
        E 121 96 50 31
        E 119 96 54 2c
        E 122 96 50 2c
        E 119 96 4d 2c
        E 121 96 48 2c
        E 117 96 44 2c
        E 120 96 41 2c
        E 3 86 48 00
        E 118 86 4d 00
        E 0 96 3c 2c
        E 121 86 50 00
        E 2 96 38 2c
        E 117 86 54 00
        E 1 96 35 2c
        E 121 86 50 00
        E 119 86 4d 00
        E 121 86 48 00
        E 599 86 35 00
        E 122 86 38 00
        E 117 86 3c 00
        E 123 86 41 00
        E 116 86 44 00
        E 432 86 44 00
        E 0 86 41 00
        E 1 86 3c 00
        E 1 86 35 00
        E 2 86 38 00
        E 47 96 31 53
        E 119 96 35 4e
        E 121 96 38 46
        E 119 96 49 3f
        E 120 96 41 3d
        E 123 96 44 35
        E 120 96 49 30
        E 118 96 4d 2c
        E 119 96 50 2c
        E 119 96 4d 2c
        E 124 96 49 2c
        E 119 96 44 2c
        E 118 96 41 2c
        E 243 86 49 00
        E 118 86 4d 00
        E 119 86 50 00
        E 119 86 4d 00
        E 124 86 49 00
        E 718 86 31 00
        E 119 86 35 00
        E 121 86 38 00
        E 119 86 49 00
        E 120 86 41 00
        E 123 86 44 00
        E 309 86 41 00
        E 2 86 44 00
        E 48 96 33 56
        E 837 96 4f 2c
        E 720 96 3f 2c
        E 240 86 4f 00
        E 1083 86 33 00
        E 909 86 3f 00
        E 170 96 37 4a
        E 240 96 3f 3d
        E 599 96 54 2c
        E 362 96 48 2c
        E 241 96 3f 2c
        E 357 86 54 00
        E 4 96 33 2c
        E 358 86 48 00
        E 719 86 37 00
        E 240 86 3f 00
        E 554 86 3f 00
        E 1 86 33 00
        E 643 96 44 33
        E 361 96 50 2c
        E 723 96 38 2c
        E 119 96 35 2c
        E 118 86 50 00
        E 1559 86 44 00
        E 315 86 35 00
        E 1 86 38 00
        E 165 96 37 51
        E 121 96 3c 43
        E 118 96 3f 43
        E 243 96 48 38
        E 361 96 54 2d
        E 117 96 4f 2c
        E 240 96 48 2c
        E 122 96 43 2c
        E 120 86 48 00
        E 361 86 54 00
        E 117 86 4f 00
        E 240 86 48 00
        E 720 86 37 00
        E 121 86 3c 00
        E 118 86 3f 00
        E 555 86 43 00
        E 170 96 38 51
        E 116 96 3c 48
        E 840 96 50 2c
        E 483 96 3f 2c
        E 120 96 3c 2c
        E 357 86 50 00
        E 964 86 38 00
        E 116 86 3c 00
        E 675 86 3f 00
        E 0 86 3c 00
        E 0 b6 7b 00
        E 1 ff 2f 00
      >
    >
  >
  <TRACK
    NAME "Glock"
    PEAKCOL 4290756410
    VOLPAN 1.000000 0 1 -1
    MIDIOUT -1
    ISBUS 0 0
    <ITEM
      POSITION 0.625000
      LENGTH 69.037500
      NAME "Glock"
      VOLPAN 1 0 1 -1
      <SOURCE MIDI
        HASDATA 1 960 QN
        E 0 c7 09 00
        E 960 97 68 44
        E 288 87 68 00
        E 1632 97 68 46
        E 288 87 68 00
        E 3552 97 68 4a
        E 288 87 68 00
        E 1632 97 68 4a
        E 288 87 68 00
        E 672 97 68 52
        E 288 87 68 00
        E 1632 97 68 4c
        E 288 87 68 00
        E 672 97 68 4a
        E 288 87 68 00
        E 2592 97 68 4a
        E 288 87 68 00
        E 2592 97 68 46
        E 288 87 68 00
        E 3552 97 68 4c
        E 288 87 68 00
        E 672 97 68 4f
        E 288 87 68 00
        E 672 97 68 52
        E 288 87 68 00
        E 672 97 68 4a
        E 288 87 68 00
        E 672 97 68 46
        E 288 87 68 00
        E 672 97 68 51
        E 288 87 68 00
        E 672 97 68 4e
        E 288 87 68 00
        E 672 97 68 46
        E 288 87 68 00
        E 672 97 68 52
        E 288 87 68 00
        E 672 97 68 48
        E 288 87 68 00
        E 672 97 68 48
        E 288 87 68 00
        E 672 97 68 4e
        E 288 87 68 00
        E 672 97 68 52
        E 288 87 68 00
        E 672 97 68 52
        E 288 87 68 00
        E 672 97 68 47
        E 288 87 68 00
        E 672 97 68 4c
        E 288 87 68 00
        E 672 97 68 48
        E 288 87 68 00
        E 672 97 68 4f
        E 288 87 68 00
        E 672 97 68 4b
        E 288 87 68 00
        E 672 97 68 4e
        E 288 87 68 00
        E 672 97 68 4b
        E 288 87 68 00
        E 672 97 68 52
        E 288 87 68 00
        E 672 97 68 46
        E 288 87 68 00
        E 672 97 68 4f
        E 288 87 68 00
        E 672 97 68 4e
        E 288 87 68 00
        E 672 97 68 46
        E 288 87 68 00
        E 672 97 68 51
        E 288 87 68 00
        E 672 97 68 4c
        E 288 87 68 00
        E 672 97 68 47
        E 288 87 68 00
        E 672 97 68 46
        E 288 87 68 00
        E 672 97 68 47
        E 288 87 68 00
        E 672 97 68 4f
        E 288 87 68 00
        E 672 97 68 4e
        E 288 87 68 00
        E 672 97 68 48
        E 288 87 68 00
        E 672 97 68 51
        E 288 87 68 00
        E 672 97 68 51
        E 288 87 68 00
        E 672 97 68 52
        E 288 87 68 00
        E 672 97 68 4e
        E 288 87 68 00
        E 672 97 68 4a
        E 288 87 68 00
        E 672 97 68 44
        E 288 87 68 00
        E 672 97 68 4c
        E 288 87 68 00
        E 672 97 68 52
        E 288 87 68 00
        E 672 97 68 51
        E 288 87 68 00
        E 672 97 68 4c
        E 288 87 68 00
        E 672 97 68 52
        E 288 87 68 00
        E 672 97 68 47
        E 288 87 68 00
        E 672 97 68 48
        E 288 87 68 00
        E 672 97 68 46
        E 288 87 68 00
        E 672 97 68 4c
        E 288 87 68 00
        E 672 97 68 51
        E 288 87 68 00
        E 672 97 68 4c
        E 288 87 68 00
        E 672 97 68 4c
        E 288 87 68 00
        E 672 97 68 4a
        E 288 87 68 00
        E 672 97 68 4b
        E 288 87 68 00
        E 672 97 68 52
        E 288 87 68 00
        E 672 97 68 51
        E 288 87 68 00
        E 672 97 68 46
        E 288 87 68 00
        E 672 97 68 52
        E 288 87 68 00
        E 672 97 68 51
        E 288 87 68 00
        E 672 97 68 4a
        E 288 87 68 00
        E 672 97 68 51
        E 288 87 68 00
        E 672 97 68 4b
        E 288 87 68 00
        E 672 97 68 4e
        E 288 87 68 00
        E 672 97 68 44
        E 288 87 68 00
        E 672 97 68 46
        E 288 87 68 00
        E 672 97 68 4f
        E 288 87 68 00
        E 672 97 68 51
        E 288 87 68 00
        E 672 97 68 4c
        E 288 87 68 00
        E 2592 97 68 52
        E 288 87 68 00
        E 672 97 68 44
        E 288 87 68 00
        E 13152 97 68 4e
        E 288 87 68 00
        E 672 97 68 44
        E 288 87 68 00
        E 1632 97 68 51
        E 288 87 68 00
        E 0 b7 7b 00
        E 1 ff 2f 00
      >
    >
  >
  <TRACK
    NAME "Tuba"
    PEAKCOL 4290740026
    VOLPAN 1.000000 0 1 -1
    MIDIOUT -1
    ISBUS 0 0
    <ITEM
      POSITION 2.500000
      LENGTH 67.412500
      NAME "Tuba"
      VOLPAN 1 0 1 -1
      <SOURCE MIDI
        HASDATA 1 960 QN
        E 0 c8 3a 00
        E 3840 98 25 59
        E 3552 88 25 00
        E 4128 98 24 57
        E 3552 88 24 00
        E 7968 98 24 5d
        E 3552 88 24 00
        E 288 98 24 5d
        E 3552 88 24 00
        E 288 98 24 5d
        E 3552 88 24 00
        E 288 98 24 5d
        E 3552 88 24 00
        E 288 98 25 56
        E 3552 88 25 00
        E 288 98 24 5c
        E 3552 88 24 00
        E 288 98 24 5e
        E 3552 88 24 00
        E 288 98 25 56
        E 3552 88 25 00
        E 288 98 24 5d
        E 3552 88 24 00
        E 288 98 24 5e
        E 3552 88 24 00
        E 288 98 24 56
        E 3552 88 24 00
        E 288 98 25 5e
        E 3552 88 25 00
        E 288 98 24 57
        E 3552 88 24 00
        E 288 98 24 5a
        E 3552 88 24 00
        E 288 98 24 5d
        E 3552 88 24 00
        E 288 98 24 5a
        E 3552 88 24 00
        E 288 98 25 56
        E 3552 88 25 00
        E 4128 98 24 5a
        E 3552 88 24 00
        E 4128 98 24 56
        E 3552 88 24 00
        E 288 98 24 60
        E 3552 88 24 00
        E 0 b8 7b 00
        E 1 ff 2f 00
      >
    >
  >
  <TRACK
    NAME "Bass"
    PEAKCOL 4286528191
    VOLPAN 1.000000 0 1 -1
    MIDIOUT -1
    ISBUS 0 0
    <ITEM
      POSITION 0.000000
      LENGTH 70.037500
      NAME "Bass"
      VOLPAN 1 0 1 -1
      <SOURCE MIDI
        HASDATA 1 960 QN
        E 0 ca 2b 00
        E 0 9a 24 60
        E 864 8a 24 00
        E 96 9a 25 56
        E 864 8a 25 00
        E 96 9a 2b 60
        E 864 8a 2b 00
        E 96 9a 29 56
        E 864 8a 29 00
        E 96 9a 25 60
        E 864 8a 25 00
        E 96 9a 2b 56
        E 864 8a 2b 00
        E 96 9a 2c 60
        E 864 8a 2c 00
        E 96 9a 2b 56
        E 864 8a 2b 00
        E 96 9a 30 60
        E 864 8a 30 00
        E 96 9a 35 56
        E 864 8a 35 00
        E 96 9a 37 60
        E 864 8a 37 00
        E 96 9a 37 56
        E 864 8a 37 00
        E 96 9a 37 60
        E 864 8a 37 00
        E 96 9a 37 56
        E 864 8a 37 00
        E 96 9a 37 60
        E 864 8a 37 00
        E 96 9a 37 56
        E 864 8a 37 00
        E 96 9a 37 60
        E 864 8a 37 00
        E 96 9a 37 56
        E 864 8a 37 00
        E 96 9a 37 60
        E 864 8a 37 00
        E 96 9a 37 56
        E 864 8a 37 00
        E 96 9a 37 60
        E 864 8a 37 00
        E 96 9a 37 56
        E 864 8a 37 00
        E 96 9a 37 60
        E 864 8a 37 00
        E 96 9a 37 56
        E 864 8a 37 00
        E 96 9a 37 60
        E 864 8a 37 00
        E 96 9a 37 56
        E 864 8a 37 00
        E 96 9a 37 60
        E 864 8a 37 00
        E 96 9a 37 56
        E 864 8a 37 00
        E 96 9a 37 60
        E 864 8a 37 00
        E 96 9a 37 56
        E 864 8a 37 00
        E 96 9a 37 60
        E 864 8a 37 00
        E 96 9a 37 56
        E 864 8a 37 00
        E 96 9a 37 60
        E 864 8a 37 00
        E 96 9a 37 56
        E 864 8a 37 00
        E 96 9a 37 60
        E 864 8a 37 00
        E 96 9a 33 56
        E 864 8a 33 00
        E 96 9a 30 60
        E 864 8a 30 00
        E 96 9a 30 56
        E 864 8a 30 00
        E 96 9a 2c 60
        E 864 8a 2c 00
        E 96 9a 2e 56
        E 864 8a 2e 00
        E 96 9a 31 60
        E 864 8a 31 00
        E 96 9a 35 56
        E 864 8a 35 00
        E 96 9a 37 60
        E 864 8a 37 00
        E 96 9a 37 56
        E 864 8a 37 00
        E 96 9a 37 60
        E 864 8a 37 00
        E 96 9a 37 56
        E 864 8a 37 00
        E 96 9a 37 60
        E 864 8a 37 00
        E 96 9a 37 56
        E 864 8a 37 00
        E 96 9a 37 60
        E 864 8a 37 00
        E 96 9a 35 56
        E 864 8a 35 00
        E 96 9a 37 60
        E 864 8a 37 00
        E 96 9a 37 56
        E 864 8a 37 00
        E 96 9a 37 60
        E 864 8a 37 00
        E 96 9a 37 56
        E 864 8a 37 00
        E 96 9a 37 60
        E 864 8a 37 00
        E 96 9a 37 56
        E 864 8a 37 00
        E 96 9a 37 60
        E 864 8a 37 00
        E 96 9a 37 56
        E 864 8a 37 00
        E 96 9a 37 60
        E 864 8a 37 00
        E 96 9a 37 56
        E 864 8a 37 00
        E 96 9a 37 60
        E 864 8a 37 00
        E 96 9a 37 56
        E 864 8a 37 00
        E 96 9a 37 60
        E 864 8a 37 00
        E 96 9a 37 56
        E 864 8a 37 00
        E 96 9a 37 60
        E 864 8a 37 00
        E 96 9a 37 56
        E 864 8a 37 00
        E 96 9a 37 60
        E 864 8a 37 00
        E 96 9a 37 56
        E 864 8a 37 00
        E 96 9a 37 60
        E 864 8a 37 00
        E 96 9a 33 56
        E 864 8a 33 00
        E 96 9a 37 60
        E 864 8a 37 00
        E 96 9a 35 56
        E 864 8a 35 00
        E 96 9a 30 60
        E 864 8a 30 00
        E 96 9a 2b 56
        E 864 8a 2b 00
        E 96 9a 2b 60
        E 864 8a 2b 00
        E 96 9a 2b 56
        E 864 8a 2b 00
        E 96 9a 30 60
        E 864 8a 30 00
        E 96 9a 33 56
        E 864 8a 33 00
        E 96 9a 37 60
        E 864 8a 37 00
        E 96 9a 37 56
        E 864 8a 37 00
        E 96 9a 37 60
        E 864 8a 37 00
        E 96 9a 37 56
        E 864 8a 37 00
        E 96 9a 37 60
        E 864 8a 37 00
        E 96 9a 37 56
        E 864 8a 37 00
        E 96 9a 37 60
        E 864 8a 37 00
        E 96 9a 37 56
        E 864 8a 37 00
        E 96 9a 37 60
        E 864 8a 37 00
        E 96 9a 37 56
        E 864 8a 37 00
        E 96 9a 37 60
        E 864 8a 37 00
        E 96 9a 37 56
        E 864 8a 37 00
        E 96 9a 37 60
        E 864 8a 37 00
        E 96 9a 35 56
        E 864 8a 35 00
        E 96 9a 30 60
        E 864 8a 30 00
        E 96 9a 2b 56
        E 864 8a 2b 00
        E 96 9a 2b 60
        E 864 8a 2b 00
        E 96 9a 2e 56
        E 864 8a 2e 00
        E 96 9a 30 60
        E 864 8a 30 00
        E 96 9a 33 56
        E 864 8a 33 00
        E 96 9a 37 60
        E 864 8a 37 00
        E 96 9a 35 56
        E 864 8a 35 00
        E 96 9a 31 60
        E 864 8a 31 00
        E 96 9a 30 56
        E 864 8a 30 00
        E 96 9a 2c 60
        E 864 8a 2c 00
        E 96 9a 2b 56
        E 864 8a 2b 00
        E 96 9a 30 60
        E 864 8a 30 00
        E 96 9a 2c 56
        E 864 8a 2c 00
        E 96 9a 2b 60
        E 864 8a 2b 00
        E 96 9a 2c 56
        E 864 8a 2c 00
        E 96 9a 30 60
        E 864 8a 30 00
        E 96 9a 2c 56
        E 864 8a 2c 00
        E 96 9a 2c 60
        E 864 8a 2c 00
        E 96 9a 27 56
        E 864 8a 27 00
        E 0 ba 7b 00
        E 1 ff 2f 00
      >
    >
  >
  <TRACK
    NAME "Pedal"
    PEAKCOL 4284506208
    VOLPAN 1.000000 0 1 -1
    MIDIOUT -1
    ISBUS 0 0
    <ITEM
      POSITION 0.000000
      LENGTH 70.100000
      NAME "Pedal"
      VOLPAN 1 0 1 -1
      <SOURCE MIDI
        HASDATA 1 960 QN
        E 0 cb 2b 00
        E 0 9b 18 38
        E 3840 8b 18 00
        E 0 9b 18 38
        E 3840 8b 18 00
        E 0 9b 18 38
        E 3840 8b 18 00
        E 0 9b 18 38
        E 3840 8b 18 00
        E 0 9b 18 38
        E 3840 8b 18 00
        E 0 9b 18 38
        E 3840 8b 18 00
        E 0 9b 18 38
        E 3840 8b 18 00
        E 0 9b 18 38
        E 3840 8b 18 00
        E 0 9b 18 38
        E 3840 8b 18 00
        E 0 9b 18 38
        E 3840 8b 18 00
        E 0 9b 18 38
        E 3840 8b 18 00
        E 0 9b 18 38
        E 3840 8b 18 00
        E 0 9b 18 38
        E 3840 8b 18 00
        E 0 9b 18 38
        E 3840 8b 18 00
        E 0 9b 18 38
        E 3840 8b 18 00
        E 0 9b 18 38
        E 3840 8b 18 00
        E 0 9b 18 38
        E 3840 8b 18 00
        E 0 9b 18 38
        E 3840 8b 18 00
        E 0 9b 18 38
        E 3840 8b 18 00
        E 0 9b 18 38
        E 3840 8b 18 00
        E 0 9b 18 38
        E 3840 8b 18 00
        E 0 9b 18 38
        E 3840 8b 18 00
        E 0 9b 18 38
        E 3840 8b 18 00
        E 0 9b 18 38
        E 3840 8b 18 00
        E 0 9b 18 38
        E 3840 8b 18 00
        E 0 9b 18 38
        E 3840 8b 18 00
        E 0 9b 18 38
        E 3840 8b 18 00
        E 0 9b 18 38
        E 3840 8b 18 00
        E 0 bb 7b 00
        E 1 ff 2f 00
      >
    >
  >
  <TRACK
    NAME "Timpani"
    PEAKCOL 4290722362
    VOLPAN 1.000000 0 1 -1
    MIDIOUT -1
    ISBUS 0 0
    <ITEM
      POSITION 0.078125
      LENGTH 70.006250
      NAME "Timpani"
      VOLPAN 1 0 1 -1
      <SOURCE MIDI
        HASDATA 1 960 QN
        E 0 cc 2f 00
        E 120 9c 24 5d
        E 96 8c 24 00
        E 144 9c 24 5e
        E 96 8c 24 00
        E 384 9c 24 6b
        E 96 8c 24 00
        E 144 9c 24 6b
        E 96 8c 24 00
        E 24 9c 24 6b
        E 96 8c 24 00
        E 144 9c 24 73
        E 96 8c 24 00
        E 24 9c 24 6b
        E 96 8c 24 00
        E 264 9c 24 71
        E 96 8c 24 00
        E 264 9c 24 6f
        E 96 8c 24 00
        E 384 9c 24 6f
        E 96 8c 24 00
        E 264 9c 24 6c
        E 96 8c 24 00
        E 24 9c 24 6b
        E 96 8c 24 00
        E 1584 9c 25 68
        E 96 8c 25 00
        E 24 9c 25 6b
        E 96 8c 25 00
        E 144 9c 25 73
        E 96 8c 25 00
        E 24 9c 25 73
        E 96 8c 25 00
        E 24 9c 25 73
        E 96 8c 25 00
        E 504 9c 25 73
        E 96 8c 25 00
        E 504 9c 25 65
        E 96 8c 25 00
        E 144 9c 25 69
        E 96 8c 25 00
        E 864 9c 24 65
        E 96 8c 24 00
        E 24 9c 24 64
        E 96 8c 24 00
        E 264 9c 24 6c
        E 96 8c 24 00
        E 984 9c 24 73
        E 96 8c 24 00
        E 624 9c 24 73
        E 96 8c 24 00
        E 264 9c 24 70
        E 96 8c 24 00
        E 24 9c 24 69
        E 96 8c 24 00
        E 24 9c 24 65
        E 96 8c 24 00
        E 384 9c 24 64
        E 96 8c 24 00
        E 624 9c 24 65
        E 96 8c 24 00
        E 624 9c 24 6b
        E 96 8c 24 00
        E 744 9c 24 6d
        E 96 8c 24 00
        E 624 9c 24 70
        E 96 8c 24 00
        E 504 9c 24 65
        E 96 8c 24 00
        E 144 9c 24 5d
        E 96 8c 24 00
        E 504 9c 24 5d
        E 96 8c 24 00
        E 264 9c 24 68
        E 96 8c 24 00
        E 144 9c 24 68
        E 96 8c 24 00
        E 264 9c 24 71
        E 96 8c 24 00
        E 624 9c 24 71
        E 96 8c 24 00
        E 264 9c 24 73
        E 96 8c 24 00
        E 624 9c 24 6d
        E 96 8c 24 00
        E 24 9c 24 64
        E 96 8c 24 00
        E 264 9c 24 5d
        E 96 8c 24 00
        E 24 9c 24 5c
        E 96 8c 24 00
        E 24 9c 25 5d
        E 96 8c 25 00
        E 144 9c 25 62
        E 96 8c 25 00
        E 264 9c 25 69
        E 96 8c 25 00
        E 24 9c 25 62
        E 96 8c 25 00
        E 144 9c 25 6b
        E 96 8c 25 00
        E 24 9c 25 6f
        E 96 8c 25 00
        E 624 9c 25 73
        E 96 8c 25 00
        E 24 9c 25 73
        E 96 8c 25 00
        E 384 9c 25 73
        E 96 8c 25 00
        E 24 9c 25 70
        E 96 8c 25 00
        E 24 9c 25 6c
        E 96 8c 25 00
        E 24 9c 25 73
        E 96 8c 25 00
        E 24 9c 25 71
        E 96 8c 25 00
        E 24 9c 25 68
        E 96 8c 25 00
        E 24 9c 25 68
        E 96 8c 25 00
        E 24 9c 25 64
        E 96 8c 25 00
        E 24 9c 25 6b
        E 96 8c 25 00
        E 24 9c 25 61
        E 96 8c 25 00
        E 24 9c 25 5c
        E 96 8c 25 00
        E 24 9c 25 60
        E 96 8c 25 00
        E 24 9c 24 64
        E 96 8c 24 00
        E 24 9c 24 5e
        E 96 8c 24 00
        E 24 9c 24 61
        E 96 8c 24 00
        E 24 9c 24 65
        E 96 8c 24 00
        E 24 9c 24 62
        E 96 8c 24 00
        E 24 9c 24 65
        E 96 8c 24 00
        E 24 9c 24 66
        E 96 8c 24 00
        E 24 9c 24 6f
        E 96 8c 24 00
        E 24 9c 24 6b
        E 96 8c 24 00
        E 24 9c 24 6f
        E 96 8c 24 00
        E 24 9c 24 68
        E 96 8c 24 00
        E 24 9c 24 6f
        E 96 8c 24 00
        E 24 9c 24 73
        E 96 8c 24 00
        E 24 9c 24 73
        E 96 8c 24 00
        E 24 9c 24 70
        E 96 8c 24 00
        E 24 9c 24 73
        E 96 8c 24 00
        E 24 9c 24 73
        E 96 8c 24 00
        E 24 9c 24 73
        E 96 8c 24 00
        E 24 9c 24 73
        E 96 8c 24 00
        E 24 9c 24 73
        E 96 8c 24 00
        E 24 9c 24 71
        E 96 8c 24 00
        E 24 9c 24 73
        E 96 8c 24 00
        E 24 9c 24 70
        E 96 8c 24 00
        E 24 9c 24 6f
        E 96 8c 24 00
        E 24 9c 24 69
        E 96 8c 24 00
        E 24 9c 24 66
        E 96 8c 24 00
        E 24 9c 24 69
        E 96 8c 24 00
        E 24 9c 24 69
        E 96 8c 24 00
        E 24 9c 24 64
        E 96 8c 24 00
        E 24 9c 24 68
        E 96 8c 24 00
        E 24 9c 24 62
        E 96 8c 24 00
        E 24 9c 24 64
        E 96 8c 24 00
        E 24 9c 24 5c
        E 96 8c 24 00
        E 24 9c 24 62
        E 96 8c 24 00
        E 24 9c 24 61
        E 96 8c 24 00
        E 24 9c 24 62
        E 96 8c 24 00
        E 24 9c 24 6c
        E 96 8c 24 00
        E 24 9c 24 66
        E 96 8c 24 00
        E 24 9c 24 70
        E 96 8c 24 00
        E 24 9c 24 66
        E 96 8c 24 00
        E 24 9c 24 73
        E 96 8c 24 00
        E 24 9c 24 6d
        E 96 8c 24 00
        E 24 9c 24 73
        E 96 8c 24 00
        E 24 9c 24 6b
        E 96 8c 24 00
        E 24 9c 24 73
        E 96 8c 24 00
        E 24 9c 24 73
        E 96 8c 24 00
        E 24 9c 24 70
        E 96 8c 24 00
        E 24 9c 24 71
        E 96 8c 24 00
        E 24 9c 24 6d
        E 96 8c 24 00
        E 24 9c 24 71
        E 96 8c 24 00
        E 24 9c 24 70
        E 96 8c 24 00
        E 24 9c 24 70
        E 96 8c 24 00
        E 24 9c 24 70
        E 96 8c 24 00
        E 24 9c 24 68
        E 96 8c 24 00
        E 24 9c 24 73
        E 96 8c 24 00
        E 24 9c 24 70
        E 96 8c 24 00
        E 24 9c 24 73
        E 96 8c 24 00
        E 24 9c 24 6f
        E 96 8c 24 00
        E 24 9c 24 6b
        E 96 8c 24 00
        E 24 9c 24 68
        E 96 8c 24 00
        E 24 9c 24 62
        E 96 8c 24 00
        E 24 9c 24 61
        E 96 8c 24 00
        E 24 9c 24 65
        E 96 8c 24 00
        E 24 9c 24 5d
        E 96 8c 24 00
        E 24 9c 24 64
        E 96 8c 24 00
        E 24 9c 24 61
        E 96 8c 24 00
        E 24 9c 24 64
        E 96 8c 24 00
        E 24 9c 24 65
        E 96 8c 24 00
        E 24 9c 24 65
        E 96 8c 24 00
        E 24 9c 24 69
        E 96 8c 24 00
        E 24 9c 24 6f
        E 96 8c 24 00
        E 24 9c 24 66
        E 96 8c 24 00
        E 24 9c 24 6b
        E 96 8c 24 00
        E 24 9c 24 68
        E 96 8c 24 00
        E 24 9c 24 71
        E 96 8c 24 00
        E 24 9c 24 70
        E 96 8c 24 00
        E 24 9c 24 73
        E 96 8c 24 00
        E 24 9c 24 6f
        E 96 8c 24 00
        E 24 9c 24 71
        E 96 8c 24 00
        E 24 9c 24 73
        E 96 8c 24 00
        E 24 9c 24 6b
        E 96 8c 24 00
        E 24 9c 24 73
        E 96 8c 24 00
        E 24 9c 24 6d
        E 96 8c 24 00
        E 24 9c 24 70
        E 96 8c 24 00
        E 24 9c 24 73
        E 96 8c 24 00
        E 24 9c 24 6d
        E 96 8c 24 00
        E 24 9c 24 73
        E 96 8c 24 00
        E 24 9c 24 6c
        E 96 8c 24 00
        E 24 9c 24 6b
        E 96 8c 24 00
        E 24 9c 24 69
        E 96 8c 24 00
        E 24 9c 24 6b
        E 96 8c 24 00
        E 24 9c 24 65
        E 96 8c 24 00
        E 24 9c 24 65
        E 96 8c 24 00
        E 24 9c 24 61
        E 96 8c 24 00
        E 24 9c 24 5d
        E 96 8c 24 00
        E 24 9c 24 5d
        E 96 8c 24 00
        E 24 9c 24 59
        E 96 8c 24 00
        E 24 9c 24 5e
        E 96 8c 24 00
        E 24 9c 24 59
        E 96 8c 24 00
        E 24 9c 24 5d
        E 96 8c 24 00
        E 24 9c 24 64
        E 96 8c 24 00
        E 24 9c 24 62
        E 96 8c 24 00
        E 24 9c 24 6c
        E 96 8c 24 00
        E 24 9c 24 6b
        E 96 8c 24 00
        E 24 9c 24 70
        E 96 8c 24 00
        E 24 9c 24 6b
        E 96 8c 24 00
        E 24 9c 24 71
        E 96 8c 24 00
        E 24 9c 24 70
        E 96 8c 24 00
        E 24 9c 24 73
        E 96 8c 24 00
        E 24 9c 24 73
        E 96 8c 24 00
        E 24 9c 24 6d
        E 96 8c 24 00
        E 24 9c 24 6c
        E 96 8c 24 00
        E 24 9c 24 70
        E 96 8c 24 00
        E 24 9c 24 6f
        E 96 8c 24 00
        E 24 9c 24 70
        E 96 8c 24 00
        E 24 9c 24 71
        E 96 8c 24 00
        E 24 9c 24 73
        E 96 8c 24 00
        E 24 9c 24 73
        E 96 8c 24 00
        E 24 9c 24 70
        E 96 8c 24 00
        E 24 9c 24 69
        E 96 8c 24 00
        E 24 9c 24 6b
        E 96 8c 24 00
        E 24 9c 24 69
        E 96 8c 24 00
        E 24 9c 24 62
        E 96 8c 24 00
        E 24 9c 24 62
        E 96 8c 24 00
        E 24 9c 24 6b
        E 96 8c 24 00
        E 24 9c 24 61
        E 96 8c 24 00
        E 24 9c 24 5d
        E 96 8c 24 00
        E 24 9c 24 62
        E 96 8c 24 00
        E 24 9c 25 56
        E 96 8c 25 00
        E 24 9c 25 56
        E 96 8c 25 00
        E 24 9c 25 61
        E 96 8c 25 00
        E 24 9c 25 65
        E 96 8c 25 00
        E 24 9c 25 62
        E 96 8c 25 00
        E 24 9c 25 64
        E 96 8c 25 00
        E 24 9c 25 6d
        E 96 8c 25 00
        E 24 9c 25 64
        E 96 8c 25 00
        E 24 9c 25 6d
        E 96 8c 25 00
        E 24 9c 25 6c
        E 96 8c 25 00
        E 24 9c 25 6c
        E 96 8c 25 00
        E 24 9c 25 6f
        E 96 8c 25 00
        E 24 9c 25 70
        E 96 8c 25 00
        E 24 9c 25 73
        E 96 8c 25 00
        E 24 9c 25 71
        E 96 8c 25 00
        E 24 9c 25 71
        E 96 8c 25 00
        E 24 9c 25 73
        E 96 8c 25 00
        E 24 9c 25 73
        E 96 8c 25 00
        E 24 9c 25 70
        E 96 8c 25 00
        E 24 9c 25 70
        E 96 8c 25 00
        E 24 9c 25 73
        E 96 8c 25 00
        E 24 9c 25 69
        E 96 8c 25 00
        E 24 9c 25 70
        E 96 8c 25 00
        E 24 9c 25 69
        E 96 8c 25 00
        E 24 9c 25 70
        E 96 8c 25 00
        E 24 9c 25 6b
        E 96 8c 25 00
        E 24 9c 25 6b
        E 96 8c 25 00
        E 24 9c 25 65
        E 96 8c 25 00
        E 24 9c 25 65
        E 96 8c 25 00
        E 24 9c 25 64
        E 96 8c 25 00
        E 24 9c 25 5c
        E 96 8c 25 00
        E 24 9c 25 5d
        E 96 8c 25 00
        E 24 9c 24 5a
        E 96 8c 24 00
        E 24 9c 24 5c
        E 96 8c 24 00
        E 24 9c 24 62
        E 96 8c 24 00
        E 24 9c 24 5d
        E 96 8c 24 00
        E 24 9c 24 60
        E 96 8c 24 00
        E 24 9c 24 69
        E 96 8c 24 00
        E 24 9c 24 66
        E 96 8c 24 00
        E 24 9c 24 64
        E 96 8c 24 00
        E 24 9c 24 6d
        E 96 8c 24 00
        E 24 9c 24 70
        E 96 8c 24 00
        E 24 9c 24 70
        E 96 8c 24 00
        E 24 9c 24 70
        E 96 8c 24 00
        E 24 9c 24 71
        E 96 8c 24 00
        E 24 9c 24 6c
        E 96 8c 24 00
        E 24 9c 24 73
        E 96 8c 24 00
        E 24 9c 24 6f
        E 96 8c 24 00
        E 24 9c 24 73
        E 96 8c 24 00
        E 24 9c 24 6d
        E 96 8c 24 00
        E 24 9c 24 6c
        E 96 8c 24 00
        E 24 9c 24 73
        E 96 8c 24 00
        E 24 9c 24 73
        E 96 8c 24 00
        E 24 9c 24 73
        E 96 8c 24 00
        E 24 9c 24 6b
        E 96 8c 24 00
        E 24 9c 24 73
        E 96 8c 24 00
        E 24 9c 24 69
        E 96 8c 24 00
        E 24 9c 24 66
        E 96 8c 24 00
        E 24 9c 24 65
        E 96 8c 24 00
        E 24 9c 24 69
        E 96 8c 24 00
        E 24 9c 24 5d
        E 96 8c 24 00
        E 24 9c 24 65
        E 96 8c 24 00
        E 24 9c 24 5c
        E 96 8c 24 00
        E 24 9c 24 5c
        E 96 8c 24 00
        E 24 9c 24 57
        E 96 8c 24 00
        E 24 9c 24 60
        E 96 8c 24 00
        E 24 9c 24 61
        E 96 8c 24 00
        E 24 9c 24 61
        E 96 8c 24 00
        E 24 9c 24 65
        E 96 8c 24 00
        E 24 9c 24 60
        E 96 8c 24 00
        E 24 9c 24 64
        E 96 8c 24 00
        E 24 9c 24 6b
        E 96 8c 24 00
        E 24 9c 24 6b
        E 96 8c 24 00
        E 24 9c 24 6f
        E 96 8c 24 00
        E 24 9c 24 6b
        E 96 8c 24 00
        E 24 9c 24 71
        E 96 8c 24 00
        E 24 9c 24 73
        E 96 8c 24 00
        E 24 9c 24 73
        E 96 8c 24 00
        E 24 9c 24 73
        E 96 8c 24 00
        E 24 9c 24 6d
        E 96 8c 24 00
        E 24 9c 24 73
        E 96 8c 24 00
        E 24 9c 24 73
        E 96 8c 24 00
        E 24 9c 24 73
        E 96 8c 24 00
        E 24 9c 24 73
        E 96 8c 24 00
        E 24 9c 24 71
        E 96 8c 24 00
        E 24 9c 24 6d
        E 96 8c 24 00
        E 24 9c 24 73
        E 96 8c 24 00
        E 24 9c 24 6b
        E 96 8c 24 00
        E 24 9c 24 69
        E 96 8c 24 00
        E 24 9c 24 70
        E 96 8c 24 00
        E 24 9c 24 66
        E 96 8c 24 00
        E 24 9c 24 69
        E 96 8c 24 00
        E 24 9c 24 64
        E 96 8c 24 00
        E 24 9c 24 64
        E 96 8c 24 00
        E 24 9c 24 5d
        E 96 8c 24 00
        E 24 9c 24 5d
        E 96 8c 24 00
        E 24 9c 25 5e
        E 96 8c 25 00
        E 24 9c 25 60
        E 96 8c 25 00
        E 24 9c 25 5a
        E 96 8c 25 00
        E 24 9c 25 60
        E 96 8c 25 00
        E 24 9c 25 69
        E 96 8c 25 00
        E 24 9c 25 6b
        E 96 8c 25 00
        E 24 9c 25 6d
        E 96 8c 25 00
        E 24 9c 25 6f
        E 96 8c 25 00
        E 24 9c 25 69
        E 96 8c 25 00
        E 24 9c 25 6d
        E 96 8c 25 00
        E 24 9c 25 6b
        E 96 8c 25 00
        E 24 9c 25 6d
        E 96 8c 25 00
        E 24 9c 25 6d
        E 96 8c 25 00
        E 24 9c 25 73
        E 96 8c 25 00
        E 24 9c 25 71
        E 96 8c 25 00
        E 24 9c 25 73
        E 96 8c 25 00
        E 24 9c 25 71
        E 96 8c 25 00
        E 24 9c 25 73
        E 96 8c 25 00
        E 24 9c 25 71
        E 96 8c 25 00
        E 24 9c 25 70
        E 96 8c 25 00
        E 24 9c 25 6f
        E 96 8c 25 00
        E 24 9c 25 6b
        E 96 8c 25 00
        E 24 9c 25 6c
        E 96 8c 25 00
        E 24 9c 25 6c
        E 96 8c 25 00
        E 24 9c 25 6f
        E 96 8c 25 00
        E 24 9c 25 69
        E 96 8c 25 00
        E 24 9c 25 6f
        E 96 8c 25 00
        E 24 9c 25 68
        E 96 8c 25 00
        E 24 9c 25 61
        E 96 8c 25 00
        E 24 9c 25 5c
        E 96 8c 25 00
        E 24 9c 25 60
        E 96 8c 25 00
        E 24 9c 25 5d
        E 96 8c 25 00
        E 24 9c 24 5d
        E 96 8c 24 00
        E 24 9c 24 5a
        E 96 8c 24 00
        E 24 9c 24 5c
        E 96 8c 24 00
        E 24 9c 24 5d
        E 96 8c 24 00
        E 24 9c 24 61
        E 96 8c 24 00
        E 24 9c 24 62
        E 96 8c 24 00
        E 24 9c 24 6d
        E 96 8c 24 00
        E 24 9c 24 69
        E 96 8c 24 00
        E 24 9c 24 73
        E 96 8c 24 00
        E 24 9c 24 73
        E 96 8c 24 00
        E 24 9c 24 6c
        E 96 8c 24 00
        E 24 9c 24 6b
        E 96 8c 24 00
        E 24 9c 24 71
        E 96 8c 24 00
        E 24 9c 24 71
        E 96 8c 24 00
        E 24 9c 24 73
        E 96 8c 24 00
        E 24 9c 24 73
        E 96 8c 24 00
        E 24 9c 24 73
        E 96 8c 24 00
        E 24 9c 24 6b
        E 96 8c 24 00
        E 24 9c 24 73
        E 96 8c 24 00
        E 24 9c 24 73
        E 96 8c 24 00
        E 24 9c 24 6c
        E 96 8c 24 00
        E 24 9c 24 73
        E 96 8c 24 00
        E 24 9c 24 71
        E 96 8c 24 00
        E 24 9c 24 6b
        E 96 8c 24 00
        E 24 9c 24 73
        E 96 8c 24 00
        E 24 9c 24 6b
        E 96 8c 24 00
        E 24 9c 24 6f
        E 96 8c 24 00
        E 24 9c 24 6b
        E 96 8c 24 00
        E 24 9c 24 62
        E 96 8c 24 00
        E 24 9c 24 61
        E 96 8c 24 00
        E 24 9c 24 64
        E 96 8c 24 00
        E 24 9c 24 56
        E 96 8c 24 00
        E 24 9c 24 59
        E 96 8c 24 00
        E 24 9c 24 59
        E 96 8c 24 00
        E 24 9c 24 64
        E 96 8c 24 00
        E 24 9c 24 64
        E 96 8c 24 00
        E 24 9c 24 6b
        E 96 8c 24 00
        E 24 9c 24 69
        E 96 8c 24 00
        E 24 9c 24 65
        E 96 8c 24 00
        E 24 9c 24 6b
        E 96 8c 24 00
        E 24 9c 24 6b
        E 96 8c 24 00
        E 24 9c 24 68
        E 96 8c 24 00
        E 24 9c 24 6b
        E 96 8c 24 00
        E 24 9c 24 73
        E 96 8c 24 00
        E 24 9c 24 6d
        E 96 8c 24 00
        E 24 9c 24 73
        E 96 8c 24 00
        E 24 9c 24 73
        E 96 8c 24 00
        E 24 9c 24 73
        E 96 8c 24 00
        E 24 9c 24 73
        E 96 8c 24 00
        E 24 9c 24 71
        E 96 8c 24 00
        E 24 9c 24 73
        E 96 8c 24 00
        E 24 9c 24 73
        E 96 8c 24 00
        E 24 9c 24 70
        E 96 8c 24 00
        E 24 9c 24 70
        E 96 8c 24 00
        E 24 9c 24 6d
        E 96 8c 24 00
        E 24 9c 24 71
        E 96 8c 24 00
        E 24 9c 24 71
        E 96 8c 24 00
        E 24 9c 24 6b
        E 96 8c 24 00
        E 24 9c 24 69
        E 96 8c 24 00
        E 24 9c 24 64
        E 96 8c 24 00
        E 24 9c 24 65
        E 96 8c 24 00
        E 24 9c 24 5d
        E 96 8c 24 00
        E 24 9c 24 60
        E 96 8c 24 00
        E 24 9c 24 56
        E 96 8c 24 00
        E 24 9c 24 59
        E 96 8c 24 00
        E 24 9c 24 5c
        E 96 8c 24 00
        E 24 9c 24 66
        E 96 8c 24 00
        E 24 9c 24 61
        E 96 8c 24 00
        E 24 9c 24 68
        E 96 8c 24 00
        E 24 9c 24 6b
        E 96 8c 24 00
        E 24 9c 24 68
        E 96 8c 24 00
        E 24 9c 24 66
        E 96 8c 24 00
        E 24 9c 24 73
        E 96 8c 24 00
        E 24 9c 24 6d
        E 96 8c 24 00
        E 24 9c 24 6c
        E 96 8c 24 00
        E 24 9c 24 6b
        E 96 8c 24 00
        E 24 9c 24 73
        E 96 8c 24 00
        E 24 9c 24 73
        E 96 8c 24 00
        E 24 9c 24 71
        E 96 8c 24 00
        E 24 9c 24 73
        E 96 8c 24 00
        E 24 9c 24 73
        E 96 8c 24 00
        E 24 9c 24 6d
        E 96 8c 24 00
        E 24 9c 24 73
        E 96 8c 24 00
        E 24 9c 24 73
        E 96 8c 24 00
        E 24 9c 24 73
        E 96 8c 24 00
        E 24 9c 24 6f
        E 96 8c 24 00
        E 24 9c 24 6d
        E 96 8c 24 00
        E 24 9c 24 6f
        E 96 8c 24 00
        E 24 9c 24 6c
        E 96 8c 24 00
        E 24 9c 24 6b
        E 96 8c 24 00
        E 24 9c 24 68
        E 96 8c 24 00
        E 24 9c 24 6c
        E 96 8c 24 00
        E 24 9c 24 64
        E 96 8c 24 00
        E 24 9c 24 61
        E 96 8c 24 00
        E 24 9c 24 60
        E 96 8c 24 00
        E 24 9c 24 5a
        E 96 8c 24 00
        E 24 9c 25 5a
        E 96 8c 25 00
        E 24 9c 25 5d
        E 96 8c 25 00
        E 24 9c 25 60
        E 96 8c 25 00
        E 24 9c 25 6b
        E 96 8c 25 00
        E 24 9c 25 61
        E 96 8c 25 00
        E 24 9c 25 64
        E 96 8c 25 00
        E 24 9c 25 64
        E 96 8c 25 00
        E 24 9c 25 71
        E 96 8c 25 00
        E 24 9c 25 6d
        E 96 8c 25 00
        E 24 9c 25 6b
        E 96 8c 25 00
        E 24 9c 25 6d
        E 96 8c 25 00
        E 24 9c 25 73
        E 96 8c 25 00
        E 24 9c 25 73
        E 96 8c 25 00
        E 24 9c 25 73
        E 96 8c 25 00
        E 24 9c 25 73
        E 96 8c 25 00
        E 24 9c 25 6f
        E 96 8c 25 00
        E 24 9c 25 73
        E 96 8c 25 00
        E 24 9c 25 73
        E 96 8c 25 00
        E 24 9c 25 6c
        E 96 8c 25 00
        E 24 9c 25 73
        E 96 8c 25 00
        E 24 9c 25 70
        E 96 8c 25 00
        E 24 9c 25 6c
        E 96 8c 25 00
        E 24 9c 25 6f
        E 96 8c 25 00
        E 24 9c 25 70
        E 96 8c 25 00
        E 24 9c 25 6d
        E 96 8c 25 00
        E 24 9c 25 6b
        E 96 8c 25 00
        E 24 9c 25 6b
        E 96 8c 25 00
        E 24 9c 25 6b
        E 96 8c 25 00
        E 24 9c 25 64
        E 96 8c 25 00
        E 24 9c 25 65
        E 96 8c 25 00
        E 24 9c 25 5c
        E 96 8c 25 00
        E 24 9c 25 57
        E 96 8c 25 00
        E 24 9c 24 57
        E 96 8c 24 00
        E 24 9c 24 62
        E 96 8c 24 00
        E 24 9c 24 64
        E 96 8c 24 00
        E 24 9c 24 5a
        E 96 8c 24 00
        E 24 9c 24 6b
        E 96 8c 24 00
        E 24 9c 24 66
        E 96 8c 24 00
        E 24 9c 24 6b
        E 96 8c 24 00
        E 24 9c 24 6c
        E 96 8c 24 00
        E 24 9c 24 6d
        E 96 8c 24 00
        E 24 9c 24 6d
        E 96 8c 24 00
        E 24 9c 24 73
        E 96 8c 24 00
        E 24 9c 24 6d
        E 96 8c 24 00
        E 24 9c 24 71
        E 96 8c 24 00
        E 24 9c 24 71
        E 96 8c 24 00
        E 24 9c 24 73
        E 96 8c 24 00
        E 24 9c 24 73
        E 96 8c 24 00
        E 24 9c 24 73
        E 96 8c 24 00
        E 24 9c 24 73
        E 96 8c 24 00
        E 24 9c 24 71
        E 96 8c 24 00
        E 24 9c 24 6b
        E 96 8c 24 00
        E 24 9c 24 73
        E 96 8c 24 00
        E 24 9c 24 70
        E 96 8c 24 00
        E 24 9c 24 71
        E 96 8c 24 00
        E 24 9c 24 70
        E 96 8c 24 00
        E 24 9c 24 71
        E 96 8c 24 00
        E 24 9c 24 6c
        E 96 8c 24 00
        E 24 9c 24 65
        E 96 8c 24 00
        E 24 9c 24 69
        E 96 8c 24 00
        E 24 9c 24 62
        E 96 8c 24 00
        E 24 9c 24 62
        E 96 8c 24 00
        E 24 9c 24 64
        E 96 8c 24 00
        E 24 9c 24 5e
        E 96 8c 24 00
        E 24 9c 24 5a
        E 96 8c 24 00
        E 24 9c 24 56
        E 96 8c 24 00
        E 24 9c 24 5e
        E 96 8c 24 00
        E 24 9c 24 64
        E 96 8c 24 00
        E 24 9c 24 6b
        E 96 8c 24 00
        E 24 9c 24 6b
        E 96 8c 24 00
        E 24 9c 24 69
        E 96 8c 24 00
        E 24 9c 24 6b
        E 96 8c 24 00
        E 24 9c 24 70
        E 96 8c 24 00
        E 24 9c 24 6d
        E 96 8c 24 00
        E 24 9c 24 6f
        E 96 8c 24 00
        E 24 9c 24 71
        E 96 8c 24 00
        E 24 9c 24 73
        E 96 8c 24 00
        E 24 9c 24 70
        E 96 8c 24 00
        E 24 9c 24 70
        E 96 8c 24 00
        E 24 9c 24 6b
        E 96 8c 24 00
        E 24 9c 24 73
        E 96 8c 24 00
        E 24 9c 24 6d
        E 96 8c 24 00
        E 24 9c 24 70
        E 96 8c 24 00
        E 24 9c 24 73
        E 96 8c 24 00
        E 24 9c 24 70
        E 96 8c 24 00
        E 24 9c 24 69
        E 96 8c 24 00
        E 24 9c 24 6d
        E 96 8c 24 00
        E 24 9c 24 6d
        E 96 8c 24 00
        E 24 9c 24 6b
        E 96 8c 24 00
        E 24 9c 24 6d
        E 96 8c 24 00
        E 24 9c 24 64
        E 96 8c 24 00
        E 24 9c 24 65
        E 96 8c 24 00
        E 24 9c 24 61
        E 96 8c 24 00
        E 24 9c 24 64
        E 96 8c 24 00
        E 24 9c 24 5d
        E 96 8c 24 00
        E 24 9c 24 5a
        E 96 8c 24 00
        E 24 9c 24 5d
        E 96 8c 24 00
        E 24 9c 24 62
        E 96 8c 24 00
        E 24 9c 24 65
        E 96 8c 24 00
        E 24 9c 24 64
        E 96 8c 24 00
        E 24 9c 24 66
        E 96 8c 24 00
        E 24 9c 24 6b
        E 96 8c 24 00
        E 24 9c 24 68
        E 96 8c 24 00
        E 24 9c 24 6f
        E 96 8c 24 00
        E 24 9c 24 6b
        E 96 8c 24 00
        E 24 9c 24 6d
        E 96 8c 24 00
        E 24 9c 24 6d
        E 96 8c 24 00
        E 24 9c 24 6c
        E 96 8c 24 00
        E 24 9c 24 6f
        E 96 8c 24 00
        E 24 9c 24 6d
        E 96 8c 24 00
        E 24 9c 24 6f
        E 96 8c 24 00
        E 24 9c 24 73
        E 96 8c 24 00
        E 24 9c 24 6d
        E 96 8c 24 00
        E 24 9c 24 6b
        E 96 8c 24 00
        E 24 9c 24 73
        E 96 8c 24 00
        E 24 9c 24 6f
        E 96 8c 24 00
        E 24 9c 24 73
        E 96 8c 24 00
        E 24 9c 24 6c
        E 96 8c 24 00
        E 24 9c 24 73
        E 96 8c 24 00
        E 24 9c 24 68
        E 96 8c 24 00
        E 24 9c 24 6c
        E 96 8c 24 00
        E 24 9c 24 6c
        E 96 8c 24 00
        E 24 9c 24 64
        E 96 8c 24 00
        E 24 9c 24 68
        E 96 8c 24 00
        E 24 9c 24 66
        E 96 8c 24 00
        E 24 9c 24 61
        E 96 8c 24 00
        E 24 9c 24 64
        E 96 8c 24 00
        E 24 9c 24 57
        E 96 8c 24 00
        E 24 9c 24 5d
        E 96 8c 24 00
        E 24 9c 24 5d
        E 96 8c 24 00
        E 24 9c 24 65
        E 96 8c 24 00
        E 24 9c 24 62
        E 96 8c 24 00
        E 24 9c 24 65
        E 96 8c 24 00
        E 24 9c 24 69
        E 96 8c 24 00
        E 24 9c 24 69
        E 96 8c 24 00
        E 24 9c 24 6b
        E 96 8c 24 00
        E 24 9c 24 68
        E 96 8c 24 00
        E 24 9c 24 70
        E 96 8c 24 00
        E 24 9c 24 6d
        E 96 8c 24 00
        E 24 9c 24 6b
        E 96 8c 24 00
        E 24 9c 24 6c
        E 96 8c 24 00
        E 24 9c 24 73
        E 96 8c 24 00
        E 24 9c 24 73
        E 96 8c 24 00
        E 24 9c 24 6c
        E 96 8c 24 00
        E 24 9c 24 6f
        E 96 8c 24 00
        E 24 9c 24 71
        E 96 8c 24 00
        E 24 9c 24 73
        E 96 8c 24 00
        E 24 9c 24 70
        E 96 8c 24 00
        E 24 9c 24 71
        E 96 8c 24 00
        E 24 9c 24 6f
        E 96 8c 24 00
        E 24 9c 24 71
        E 96 8c 24 00
        E 24 9c 24 71
        E 96 8c 24 00
        E 24 9c 24 6b
        E 96 8c 24 00
        E 24 9c 24 68
        E 96 8c 24 00
        E 24 9c 24 70
        E 96 8c 24 00
        E 24 9c 24 68
        E 96 8c 24 00
        E 24 9c 24 64
        E 96 8c 24 00
        E 24 9c 24 62
        E 96 8c 24 00
        E 24 9c 24 5d
        E 96 8c 24 00
        E 24 9c 24 60
        E 96 8c 24 00
        E 24 9c 25 5d
        E 96 8c 25 00
        E 24 9c 25 5c
        E 96 8c 25 00
        E 24 9c 25 61
        E 96 8c 25 00
        E 24 9c 25 64
        E 96 8c 25 00
        E 24 9c 25 69
        E 96 8c 25 00
        E 24 9c 25 6c
        E 96 8c 25 00
        E 24 9c 25 64
        E 96 8c 25 00
        E 24 9c 25 69
        E 96 8c 25 00
        E 24 9c 25 68
        E 96 8c 25 00
        E 24 9c 25 6b
        E 96 8c 25 00
        E 24 9c 25 6c
        E 96 8c 25 00
        E 24 9c 25 70
        E 96 8c 25 00
        E 24 9c 25 6f
        E 96 8c 25 00
        E 384 9c 25 73
        E 96 8c 25 00
        E 384 9c 25 71
        E 96 8c 25 00
        E 24 9c 25 73
        E 96 8c 25 00
        E 384 9c 25 68
        E 96 8c 25 00
        E 504 9c 25 61
        E 96 8c 25 00
        E 624 9c 24 65
        E 96 8c 24 00
        E 144 9c 24 6b
        E 96 8c 24 00
        E 144 9c 24 66
        E 96 8c 24 00
        E 1224 9c 24 73
        E 96 8c 24 00
        E 624 9c 24 6f
        E 96 8c 24 00
        E 384 9c 24 61
        E 96 8c 24 00
        E 144 9c 24 5d
        E 96 8c 24 00
        E 24 9c 24 5d
        E 96 8c 24 00
        E 264 9c 24 66
        E 96 8c 24 00
        E 24 9c 24 62
        E 96 8c 24 00
        E 144 9c 24 64
        E 96 8c 24 00
        E 744 9c 24 73
        E 96 8c 24 00
        E 144 9c 24 73
        E 96 8c 24 00
        E 624 9c 24 6f
        E 96 8c 24 00
        E 384 9c 24 68
        E 96 8c 24 00
        E 24 9c 24 69
        E 96 8c 24 00
        E 624 9c 25 5c
        E 96 8c 25 00
        E 624 9c 25 64
        E 96 8c 25 00
        E 504 9c 25 73
        E 96 8c 25 00
        E 24 9c 25 73
        E 96 8c 25 00
        E 24 9c 25 73
        E 96 8c 25 00
        E 504 9c 25 73
        E 96 8c 25 00
        E 624 9c 25 69
        E 96 8c 25 00
        E 264 9c 25 6d
        E 96 8c 25 00
        E 744 9c 24 61
        E 96 8c 24 00
        E 24 9c 24 5d
        E 96 8c 24 00
        E 624 9c 24 6f
        E 96 8c 24 00
        E 24 9c 24 73
        E 96 8c 24 00
        E 624 9c 24 73
        E 96 8c 24 00
        E 24 9c 24 71
        E 96 8c 24 00
        E 24 9c 24 73
        E 96 8c 24 00
        E 504 9c 24 73
        E 96 8c 24 00
        E 624 9c 24 5d
        E 96 8c 24 00
        E 984 9c 24 64
        E 96 8c 24 00
        E 264 9c 24 65
        E 96 8c 24 00
        E 504 9c 24 6c
        E 96 8c 24 00
        E 24 9c 24 70
        E 96 8c 24 00
        E 24 9c 24 73
        E 96 8c 24 00
        E 1104 9c 24 68
        E 96 8c 24 00
        E 144 9c 24 5d
        E 96 8c 24 00
        E 264 9c 24 61
        E 96 8c 24 00
        E 0 bc 7b 00
        E 1 ff 2f 00
      >
    >
  >
>
