<REAPER_PROJECT 0.1 "7.0" 1700000000
  TEMPO 78.000000 4 4
  SAMPLERATE 48000 0 0
  RENDER_FILE ""
  RENDER_FMT 0 2 0
  RENDER_1X 0
  RENDER_RANGE 1 0 88.157254 0 0
  RENDER_RESAMPLE 3 0 1
  <MASTERTRACK
    VOLPAN 1 0 1 -1
    DEFCHAN 0
  >
  <TRACK
    NAME "Lead"
    PEAKCOL 4284506208
    VOLPAN 1.000000 0 1 -1
    MIDIOUT -1
    ISBUS 0 0
    <ITEM
      POSITION 0.181222
      LENGTH 79.921632
      NAME "Lead"
      VOLPAN 1 0 1 -1
      <SOURCE MIDI
        HASDATA 1 960 QN
        E 0 c0 44 00
        E 226 90 4c 63
        E 925 90 4c 63
        E 174 80 4c 00
        E 916 80 4c 00
        E 435 90 4c 63
        E 824 90 4c 7c
        E 167 80 4c 00
        E 824 80 4c 00
        E 169 90 4c 63
        E 580 90 4c 63
        E 240 80 4c 00
        E 171 80 4c 00
        E 170 90 51 77
        E 999 80 51 00
        E 379 90 51 67
        E 892 80 51 00
        E 55 90 53 63
        E 275 80 53 00
        E 863 90 53 63
        E 599 90 51 63
        E 250 80 51 00
        E 142 80 53 00
        E 768 90 53 63
        E 991 80 53 00
        E 179 90 51 75
        E 991 80 51 00
        E 385 90 51 63
        E 933 90 53 65
        E 58 80 51 00
        E 392 80 53 00
        E 138 90 53 63
        E 240 80 53 00
        E 348 90 58 6e
        E 769 90 58 63
        E 240 80 58 00
        E 81 80 58 00
        E 449 90 53 7d
        E 569 90 53 63
        E 240 80 53 00
        E 182 80 53 00
        E 147 90 58 63
        E 991 80 58 00
        E 177 90 58 67
        E 749 80 58 00
        E 414 90 58 65
        E 991 80 58 00
        E 185 90 58 63
        E 287 90 58 63
        E 240 80 58 00
        E 47 90 53 67
        E 318 80 58 00
        E 574 80 53 00
        E 282 90 53 71
        E 275 80 53 00
        E 301 90 51 63
        E 240 80 51 00
        E 335 90 4c 75
        E 991 80 4c 00
        E 173 90 4c 77
        E 991 80 4c 00
        E 168 90 4c 63
        E 500 80 4c 00
        E 650 90 4c 77
        E 586 90 4c 63
        E 240 80 4c 00
        E 165 80 4c 00
        E 182 90 51 63
        E 824 90 51 63
        E 68 80 51 00
        E 396 90 53 63
        E 240 80 53 00
        E 188 80 51 00
        E 36 90 58 78
        E 1090 80 58 00
        E 58 90 58 63
        E 705 90 58 63
        E 240 80 58 00
        E 46 80 58 00
        E 420 90 53 63
        E 991 80 53 00
        E 155 90 53 63
        E 991 80 53 00
        E 174 90 53 78
        E 937 90 51 6c
        E 54 80 53 00
        E 396 80 51 00
        E 1641 90 51 63
        E 111 90 53 63
        E 112 90 58 7d
        E 128 80 53 00
        E 739 80 51 00
        E 293 90 58 63
        E 489 80 58 00
        E 11 80 58 00
        E 676 90 58 63
        E 250 80 58 00
        E 321 90 58 63
        E 240 80 58 00
        E 331 90 53 7d
        E 991 80 53 00
        E 172 90 53 63
        E 991 80 53 00
        E 534 90 51 65
        E 892 80 51 00
        E 155 90 51 63
        E 550 80 51 00
        E 364 90 51 79
        E 1090 80 51 00
        E 81 90 51 6e
        E 991 80 51 00
        E 162 90 51 6a
        E 991 80 51 00
        E 173 90 51 7d
        E 1184 90 51 63
        E 315 80 51 00
        E 676 80 51 00
        E 857 90 51 63
        E 1090 80 51 00
        E 205 90 51 6e
        E 1090 80 51 00
        E 68 90 51 6c
        E 991 80 51 00
        E 502 90 53 78
        E 576 90 51 7d
        E 415 80 53 00
        E 576 80 51 00
        E 191 90 51 6a
        E 991 80 51 00
        E 153 90 51 63
        E 831 90 51 63
        E 61 80 51 00
        E 179 80 51 00
        E 591 90 4c 79
        E 1090 80 4c 00
        E 73 90 4c 6e
        E 991 80 4c 00
        E 146 90 4c 73
        E 991 80 4c 00
        E 186 90 4c 63
        E 586 90 4c 75
        E 240 80 4c 00
        E 165 80 4c 00
        E 180 90 51 7d
        E 250 80 51 00
        E 905 90 51 63
        E 892 80 51 00
        E 516 90 51 6a
        E 916 90 51 6a
        E 174 80 51 00
        E 916 80 51 00
        E 64 90 51 63
        E 500 80 51 00
        E 656 90 51 65
        E 250 80 51 00
        E 921 90 53 71
        E 991 80 53 00
        E 173 90 51 77
        E 991 80 51 00
        E 158 90 51 63
        E 892 80 51 00
        E 276 90 51 63
        E 1090 80 51 00
        E 78 90 51 7c
        E 991 80 51 00
        E 173 90 53 63
        E 991 80 53 00
        E 177 90 51 71
        E 250 80 51 00
        E 906 90 53 7b
        E 749 80 53 00
        E 760 90 53 63
        E 450 80 53 00
        E 138 90 51 63
        E 240 80 51 00
        E 347 90 4c 7d
        E 806 90 4c 63
        E 284 80 4c 00
        E 806 80 4c 00
        E 71 90 4c 6e
        E 250 80 4c 00
        E 908 90 4c 63
        E 282 90 51 63
        E 240 80 51 00
        E 43 90 53 6e
        E 250 80 53 00
        E 176 80 4c 00
        E 747 90 51 67
        E 991 80 51 00
        E 166 90 51 63
        E 892 80 51 00
        E 265 90 51 63
        E 892 80 51 00
        E 294 90 51 63
        E 569 90 51 6a
        E 500 80 51 00
        E 21 80 51 00
        E 644 90 51 7d
        E 1163 90 51 71
        E 336 80 51 00
        E 164 80 51 00
        E 658 90 51 78
        E 991 80 51 00
        E 173 90 4e 6e
        E 892 80 4e 00
        E 259 90 4c 63
        E 225 80 4c 00
        E 0 b0 7b 00
        E 1 ff 2f 00
      >
    >
  >
  <TRACK
    NAME "Drone"
    PEAKCOL 4284506208
    VOLPAN 1.000000 0 1 -1
    MIDIOUT -1
    ISBUS 0 0
    <ITEM
      POSITION 0.000000
      LENGTH 80.100000
      NAME "Drone"
      VOLPAN 1 0 1 -1
      <SOURCE MIDI
        HASDATA 1 960 QN
        E 0 c1 30 00
        E 0 91 40 02
        E 0 91 47 02
        E 99840 81 40 00
        E 0 81 47 00
        E 0 b1 7b 00
        E 1 ff 2f 00
      >
    >
  >
  <TRACK
    NAME "Drone2"
    PEAKCOL 4284506208
    VOLPAN 1.000000 0 1 -1
    MIDIOUT -1
    ISBUS 0 0
    <ITEM
      POSITION 0.000000
      LENGTH 80.100000
      NAME "Drone2"
      VOLPAN 1 0 1 -1
      <SOURCE MIDI
        HASDATA 1 960 QN
        E 0 c2 30 00
        E 0 92 40 49
        E 0 92 4c 49
        E 99840 82 40 00
        E 0 82 4c 00
        E 0 b2 7b 00
        E 1 ff 2f 00
      >
    >
  >
  <TRACK
    NAME "Strings"
    PEAKCOL 4284186559
    VOLPAN 1.000000 0 1 -1
    MIDIOUT -1
    ISBUS 0 0
    <ITEM
      POSITION 0.000000
      LENGTH 80.100000
      NAME "Strings"
      VOLPAN 1 0 1 -1
      <SOURCE MIDI
        HASDATA 1 960 QN
        E 0 c3 30 00
        E 0 93 46 3d
        E 1 93 46 3d
        E 13 93 40 3d
        E 1898 93 46 3d
        E 1 83 46 00
        E 0 93 43 3d
        E 17 93 40 3d
        E 2 93 46 3d
        E 2 83 40 00
        E 1 83 46 00
        E 1891 93 46 3d
        E 5 83 43 00
        E 2 83 40 00
        E 7 93 3c 3d
        E 5 83 46 00
        E 3 93 46 3d
        E 2 83 46 00
        E 1877 83 46 00
        E 25 93 43 3d
        E 0 93 32 3d
        E 8 83 3c 00
        E 26 83 46 00
        E 1872 83 32 00
        E 25 83 43 00
        E 1908 93 46 3d
        E 8 93 32 3d
        E 4 93 46 3d
        E 5 93 46 3d
        E 3 93 46 3d
        E 1910 83 46 00
        E 0 83 46 00
        E 2 83 46 00
        E 5 83 32 00
        E 2 93 43 3d
        E 3 83 46 00
        E 1907 93 3b 3f
        E 13 93 43 3d
        E 9 83 43 00
        E 1890 93 46 3d
        E 0 93 46 3d
        E 7 83 43 00
        E 1 83 3b 00
        E 4 93 32 3d
        E 1916 93 46 3d
        E 5 83 46 00
        E 3 83 46 00
        E 1 83 32 00
        E 1924 93 46 3d
        E 4 83 46 00
        E 1895 93 40 3d
        E 3 93 46 3d
        E 5 93 3c 46
        E 5 93 46 3d
        E 1 93 46 3d
        E 4 93 32 3d
        E 2 93 46 3d
        E 0 93 46 3d
        E 3 83 46 00
        E 1897 83 46 00
        E 0 93 46 3d
        E 1 83 40 00
        E 0 93 46 3d
        E 4 83 32 00
        E 1 83 46 00
        E 2 83 3c 00
        E 0 93 3c 46
        E 0 93 46 3d
        E 1 83 46 00
        E 1 93 46 3d
        E 0 93 46 3d
        E 3 93 46 3d
        E 5 83 46 00
        E 2 93 46 3d
        E 10 83 46 00
        E 1885 83 46 00
        E 3 93 46 3d
        E 1 93 41 3d
        E 2 93 46 3d
        E 7 83 3c 00
        E 0 93 3c 49
        E 3 83 46 00
        E 3 93 46 3d
        E 2 83 46 00
        E 2 83 46 00
        E 0 83 46 00
        E 0 93 32 3d
        E 2 93 32 3d
        E 2 93 46 3d
        E 4 83 46 00
        E 12 83 46 00
        E 1876 93 43 3d
        E 3 93 32 3d
        E 2 83 41 00
        E 2 93 46 3d
        E 3 93 46 3d
        E 2 83 46 00
        E 2 83 3c 00
        E 0 93 32 3d
        E 0 93 3b 49
        E 1 83 32 00
        E 1 83 46 00
        E 0 83 32 00
        E 7 93 32 3d
        E 2 93 32 3d
        E 1 83 46 00
        E 9 83 46 00
        E 1870 83 32 00
        E 15 93 40 3d
        E 8 93 46 3d
        E 1 93 46 3d
        E 2 83 46 00
        E 3 83 3b 00
        E 0 93 3b 4b
        E 3 83 43 00
        E 0 93 46 3d
        E 0 93 46 3d
        E 9 83 46 00
        E 0 93 32 3d
        E 1 93 40 3d
        E 2 83 32 00
        E 6 83 32 00
        E 7 83 32 00
        E 1878 93 46 3d
        E 1 93 46 3d
        E 1 83 40 00
        E 4 93 46 3d
        E 2 93 32 3d
        E 1 83 40 00
        E 1 93 46 3d
        E 1 83 46 00
        E 2 83 46 00
        E 0 93 32 3d
        E 1 83 3b 00
        E 0 93 3b 4d
        E 11 83 46 00
        E 1 93 32 3d
        E 10 83 46 00
        E 0 83 32 00
        E 1870 83 46 00
        E 9 83 46 00
        E 6 93 40 3d
        E 1 93 46 3d
        E 3 83 46 00
        E 1 93 46 3d
        E 0 93 46 3d
        E 3 93 46 3d
        E 3 83 32 00
        E 2 83 3b 00
        E 0 93 3b 50
        E 1 83 32 00
        E 4 83 32 00
        E 2 83 46 00
        E 5 93 46 3d
        E 1 93 46 3d
        E 1893 83 40 00
        E 0 83 46 00
        E 0 93 46 3d
        E 6 93 46 3d
        E 2 93 46 3d
        E 3 83 46 00
        E 0 93 43 3d
        E 2 83 46 00
        E 1 83 3b 00
        E 0 93 3b 50
        E 4 83 46 00
        E 1 93 46 3d
        E 1 93 3e 3d
        E 1 93 46 3d
        E 5 83 46 00
        E 2 83 46 00
        E 1891 83 43 00
        E 4 93 46 3d
        E 0 93 32 3d
        E 1 93 43 3d
        E 1 83 46 00
        E 0 83 46 00
        E 9 83 3b 00
        E 0 93 3b 50
        E 3 93 46 3d
        E 1 93 46 3d
        E 2 93 32 3d
        E 1 93 43 3d
        E 3 83 46 00
        E 1 83 46 00
        E 0 83 3e 00
        E 4 83 46 00
        E 1895 93 46 3d
        E 3 83 43 00
        E 0 93 46 3d
        E 2 93 46 3d
        E 2 83 46 00
        E 3 83 3b 00
        E 0 93 3c 52
        E 0 93 45 3d
        E 3 83 32 00
        E 0 83 43 00
        E 0 93 46 3d
        E 6 93 46 3d
        E 2 93 46 3d
        E 2 83 46 00
        E 3 83 46 00
        E 6 83 32 00
        E 1882 83 46 00
        E 3 83 45 00
        E 2 93 45 3d
        E 3 83 46 00
        E 0 93 46 3d
        E 5 93 46 3d
        E 3 83 3c 00
        E 0 93 3c 54
        E 0 93 46 3d
        E 1 83 46 00
        E 2 93 46 3d
        E 4 83 46 00
        E 1 93 41 3d
        E 1 83 46 00
        E 1 83 46 00
        E 0 93 46 3d
        E 1895 83 45 00
        E 3 93 46 3d
        E 2 83 46 00
        E 4 93 46 3d
        E 0 93 46 3d
        E 2 83 46 00
        E 1 83 46 00
        E 1 83 46 00
        E 1 83 46 00
        E 1 83 3c 00
        E 0 93 3b 57
        E 4 93 46 3d
        E 1 83 41 00
        E 0 93 32 3d
        E 5 93 46 3d
        E 2 93 46 3d
        E 1885 83 46 00
        E 13 83 46 00
        E 0 83 46 00
        E 0 93 46 3d
        E 9 83 46 00
        E 1 83 3b 00
        E 0 93 3b 57
        E 1 93 46 3d
        E 4 93 46 3d
        E 1 93 46 3d
        E 2 93 40 3d
        E 2 93 46 3d
        E 1 93 46 3d
        E 2 83 32 00
        E 4 83 46 00
        E 6 83 46 00
        E 1885 93 43 3d
        E 3 83 46 00
        E 6 83 46 00
        E 1 93 46 3d
        E 1 83 40 00
        E 1 83 3b 00
        E 0 93 3b 59
        E 3 93 46 3d
        E 2 83 46 00
        E 2 93 46 3d
        E 0 93 46 3d
        E 2 93 46 3d
        E 1 93 32 3d
        E 3 83 46 00
        E 9 83 46 00
        E 2 83 46 00
        E 1885 83 43 00
        E 3 83 32 00
        E 1 93 43 3d
        E 1 83 46 00
        E 1 93 32 3d
        E 3 83 46 00
        E 2 83 3b 00
        E 0 93 3b 59
        E 1 83 46 00
        E 2 93 46 3d
        E 2 93 40 3d
        E 5 93 46 3d
        E 0 93 32 3d
        E 2 93 46 3d
        E 6 83 46 00
        E 6 83 46 00
        E 1884 93 43 3d
        E 8 93 40 3d
        E 2 93 46 3d
        E 1 93 46 3d
        E 1 83 3b 00
        E 0 83 46 00
        E 0 93 3c 59
        E 7 83 32 00
        E 0 93 46 3d
        E 1 83 43 00
        E 1 83 46 00
        E 0 93 46 3d
        E 3 93 32 3d
        E 1 83 32 00
        E 5 83 46 00
        E 0 83 40 00
        E 1877 83 43 00
        E 10 83 46 00
        E 5 83 40 00
        E 5 83 46 00
        E 0 93 46 3d
        E 1 83 46 00
        E 2 93 32 3d
        E 1 93 43 3d
        E 0 93 46 3d
        E 1 83 3c 00
        E 0 93 3c 59
        E 3 93 40 3d
        E 0 93 46 3d
        E 6 93 46 3d
        E 15 83 46 00
        E 0 83 32 00
        E 1882 83 43 00
        E 1 83 40 00
        E 1 93 46 3d
        E 0 93 46 3d
        E 6 83 46 00
        E 1 93 45 3d
        E 0 93 46 3d
        E 5 83 3c 00
        E 0 93 3c 57
        E 4 83 46 00
        E 1 93 46 3d
        E 3 93 46 3d
        E 1 83 46 00
        E 3 93 46 3d
        E 3 83 32 00
        E 6 83 46 00
        E 1881 83 46 00
        E 6 93 46 3d
        E 7 83 46 00
        E 3 83 46 00
        E 0 93 46 3d
        E 2 83 3c 00
        E 0 93 3c 57
        E 0 93 46 3d
        E 1 93 41 3d
        E 2 83 46 00
        E 1 93 45 3d
        E 1 83 45 00
        E 0 93 46 3d
        E 4 83 46 00
        E 0 93 46 3d
        E 2 83 46 00
        E 1891 83 46 00
        E 7 93 46 3d
        E 1 83 46 00
        E 5 93 40 3d
        E 1 93 40 3d
        E 1 83 46 00
        E 1 83 45 00
        E 1 83 41 00
        E 0 93 46 3d
        E 1 83 3c 00
        E 0 93 3b 54
        E 2 93 46 3d
        E 2 83 46 00
        E 3 83 46 00
        E 2 93 32 3d
        E 1 93 46 3d
        E 1891 83 40 00
        E 5 83 40 00
        E 2 83 46 00
        E 0 93 43 3d
        E 10 93 32 3d
        E 2 83 3b 00
        E 0 93 3b 52
        E 2 93 46 3d
        E 3 83 46 00
        E 1 93 46 3d
        E 1 93 46 3d
        E 1 93 46 3d
        E 4 93 46 3d
        E 3 83 32 00
        E 1 83 46 00
        E 0 83 46 00
        E 1893 83 46 00
        E 0 93 46 3d
        E 1 83 46 00
        E 2 93 46 3d
        E 1 93 46 3d
        E 1 83 43 00
        E 2 93 46 3d
        E 2 83 32 00
        E 2 83 3b 00
        E 0 83 46 00
        E 0 93 3b 50
        E 1 93 32 3d
        E 2 93 32 3d
        E 1 93 32 3d
        E 6 83 46 00
        E 6 83 46 00
        E 1884 83 46 00
        E 3 83 32 00
        E 2 83 46 00
        E 1 93 46 3d
        E 0 93 46 3d
        E 2 83 32 00
        E 0 93 46 3d
        E 5 93 46 3d
        E 7 83 46 00
        E 0 83 3b 00
        E 0 93 3b 50
        E 2 93 40 3d
        E 1 83 46 00
        E 0 93 46 3d
        E 5 93 46 3d
        E 8 83 32 00
        E 1876 83 46 00
        E 18 83 40 00
        E 0 83 46 00
        E 1 83 46 00
        E 0 93 46 3d
        E 3 93 40 3d
        E 4 83 46 00
        E 2 83 3b 00
        E 0 93 3c 50
        E 2 83 46 00
        E 1 93 46 3d
        E 0 93 43 3d
        E 0 93 46 3d
        E 3 93 32 3d
        E 1 93 46 3d
        E 8 83 46 00
        E 1892 93 43 3d
        E 1 83 46 00
        E 1 93 46 3d
        E 3 83 40 00
        E 7 83 43 00
        E 1 83 3c 00
        E 0 93 46 3d
        E 0 93 3c 4d
        E 1 83 46 00
        E 4 93 46 3d
        E 2 93 32 3d
        E 0 93 32 3d
        E 5 93 46 3d
        E 3 83 46 00
        E 1 83 46 00
        E 1 83 32 00
        E 1877 83 46 00
        E 9 83 43 00
        E 9 93 32 3d
        E 8 83 3c 00
        E 0 93 41 3d
        E 0 93 3c 4b
        E 4 93 46 3d
        E 0 93 32 3d
        E 6 93 46 3d
        E 2 83 32 00
        E 1 83 46 00
        E 0 93 45 3d
        E 0 93 46 3d
        E 1 83 46 00
        E 1 83 32 00
        E 4 83 46 00
        E 1881 83 32 00
        E 12 93 46 3d
        E 8 83 3c 00
        E 0 83 46 00
        E 0 93 3c 49
        E 1 83 32 00
        E 0 93 46 3d
        E 1 93 46 3d
        E 1 93 46 3d
        E 5 93 32 3d
        E 3 83 46 00
        E 0 93 46 3d
        E 1 83 46 00
        E 0 93 46 3d
        E 5 83 41 00
        E 3 83 45 00
        E 1874 83 46 00
        E 14 93 46 3d
        E 0 93 40 3d
        E 1 83 32 00
        E 0 93 46 3d
        E 0 93 46 3d
        E 1 83 46 00
        E 0 93 46 3d
        E 1 93 46 3d
        E 7 83 46 00
        E 2 83 3c 00
        E 0 93 3b 49
        E 5 83 46 00
        E 2 93 40 3d
        E 12 83 46 00
        E 12 83 46 00
        E 1862 83 46 00
        E 13 93 46 3d
        E 3 83 46 00
        E 1 83 46 00
        E 2 93 46 3d
        E 2 83 46 00
        E 2 83 46 00
        E 1 83 40 00
        E 2 93 32 3d
        E 1 83 40 00
        E 0 83 3b 00
        E 0 93 3b 46
        E 3 93 46 3d
        E 2 93 40 3d
        E 4 93 46 3d
        E 5 93 32 3d
        E 1893 93 46 3d
        E 1 83 46 00
        E 0 93 46 3d
        E 1 93 46 3d
        E 1 83 32 00
        E 4 83 46 00
        E 1 93 46 3d
        E 3 83 46 00
        E 2 83 3b 00
        E 0 83 40 00
        E 0 93 3b 46
        E 4 93 46 3d
        E 7 93 46 3d
        E 3 93 46 3d
        E 7 83 46 00
        E 5 83 32 00
        E 1870 83 46 00
        E 2 83 46 00
        E 2 83 46 00
        E 1 83 46 00
        E 15 83 46 00
        E 4 83 3b 00
        E 0 93 3b 44
        E 1 93 46 3d
        E 3 93 46 3d
        E 0 93 43 3d
        E 1 83 46 00
        E 7 93 46 3d
        E 1 93 46 3d
        E 0 93 32 3d
        E 0 93 46 3d
        E 8 83 46 00
        E 1891 93 3e 3d
        E 7 93 43 3d
        E 1 83 3b 00
        E 0 93 3b 42
        E 5 83 46 00
        E 0 83 32 00
        E 4 83 46 00
        E 0 93 46 3d
        E 4 83 46 00
        E 9 83 46 00
        E 0 83 46 00
        E 1 83 43 00
        E 1877 83 43 00
        E 18 83 3e 00
        E 1 93 46 3d
        E 1 83 3b 00
        E 3 83 46 00
        E 1905 93 41 3d
        E 25 83 46 00
        E 1909 83 41 00
        E 6 93 46 3d
        E 4 93 41 3d
        E 1908 93 46 3d
        E 1 83 41 00
        E 0 93 46 3d
        E 18 83 46 00
        E 1883 83 46 00
        E 13 83 46 00
        E 1 93 46 3d
        E 7 93 46 3d
        E 1909 93 46 3d
        E 8 93 3b 3d
        E 11 83 46 00
        E 2 83 46 00
        E 1907 83 3b 00
        E 9 83 46 00
        E 1 93 46 3d
        E 1 93 46 3d
        E 1895 93 46 3d
        E 13 93 46 3d
        E 5 93 46 3d
        E 7 93 46 3d
        E 4 83 46 00
        E 4 83 46 00
        E 1889 93 32 3d
        E 1 83 46 00
        E 2 83 46 00
        E 8 83 46 00
        E 1 93 3c 3d
        E 6 93 46 3d
        E 2 93 46 3d
        E 19 83 46 00
        E 1862 83 32 00
        E 27 83 46 00
        E 3 83 46 00
        E 1 83 3c 00
        E 0 b3 7b 00
        E 1 ff 2f 00
      >
    >
  >
  <TRACK
    NAME "Oboe"
    PEAKCOL 4282040170
    VOLPAN 1.000000 0 1 -1
    MIDIOUT -1
    ISBUS 0 0
    <ITEM
      POSITION 9.234775
      LENGTH 77.022479
      NAME "Oboe"
      VOLPAN 1 0 1 -1
      <SOURCE MIDI
        HASDATA 1 960 QN
        E 0 c4 44 00
        E 11525 94 4c 6c
        E 3840 84 4c 00
        E 7678 94 4c 6e
        E 3840 84 4c 00
        E 3838 94 51 71
        E 3840 84 51 00
        E 5 94 51 6e
        E 3840 84 51 00
        E 3836 94 51 71
        E 3840 84 51 00
        E 7 94 4c 6c
        E 3840 84 4c 00
        E 3839 94 4c 75
        E 3838 94 4c 73
        E 2 84 4c 00
        E 3838 84 4c 00
        E 3845 94 47 75
        E 3829 94 45 71
        E 11 84 47 00
        E 3829 84 45 00
        E 3846 94 47 73
        E 3839 94 47 73
        E 1 84 47 00
        E 3839 84 47 00
        E 19199 94 4c 71
        E 3840 84 4c 00
        E 0 b4 7b 00
        E 1 ff 2f 00
      >
    >
  >
  <TRACK
    NAME "Cello"
    PEAKCOL 4284186559
    VOLPAN 1.000000 0 1 -1
    MIDIOUT -1
    ISBUS 0 0
    <ITEM
      POSITION 3.086295
      LENGTH 77.024002
      NAME "Cello"
      VOLPAN 1 0 1 -1
      <SOURCE MIDI
        HASDATA 1 960 QN
        E 0 c5 2a 00
        E 3852 95 34 79
        E 3840 85 34 00
        E 3839 95 34 79
        E 3840 85 34 00
        E 7671 95 34 78
        E 3840 85 34 00
        E 0 95 39 79
        E 3840 85 39 00
        E 5 95 3b 75
        E 3833 95 3b 77
        E 7 85 3b 00
        E 3833 85 3b 00
        E 12 95 40 77
        E 3835 95 3b 79
        E 5 85 40 00
        E 3835 85 3b 00
        E 4 95 39 78
        E 3831 95 39 78
        E 9 85 39 00
        E 3831 85 39 00
        E 1 95 3b 75
        E 3840 85 3b 00
        E 3 95 39 78
        E 3839 95 39 78
        E 1 85 39 00
        E 3839 85 39 00
        E 9 95 3b 75
        E 3829 95 3b 78
        E 11 85 3b 00
        E 3829 85 3b 00
        E 5 95 39 77
        E 3840 85 39 00
        E 2 95 34 77
        E 3840 85 34 00
        E 3842 95 2f 79
        E 3840 85 2f 00
        E 3840 95 28 75
        E 3840 85 28 00
        E 1 95 2d 77
        E 3840 85 2d 00
        E 0 b5 7b 00
        E 1 ff 2f 00
      >
    >
  >
  <TRACK
    NAME "Counter"
    PEAKCOL 4284506208
    VOLPAN 1.000000 0 1 -1
    MIDIOUT -1
    ISBUS 0 0
    <ITEM
      POSITION 0.000000
      LENGTH 80.038462
      NAME "Counter"
      VOLPAN 1 0 1 -1
      <SOURCE MIDI
        HASDATA 1 960 QN
        E 0 c6 28 00
        E 0 96 47 5e
        E 3763 86 47 00
        E 7757 96 47 5e
        E 3763 86 47 00
        E 77 96 47 5e
        E 3763 86 47 00
        E 3917 96 3c 65
        E 3763 86 3c 00
        E 3917 96 40 65
        E 0 96 47 5e
        E 3763 86 40 00
        E 0 86 47 00
        E 77 96 3e 65
        E 0 96 47 5e
        E 3763 86 3e 00
        E 0 86 47 00
        E 77 96 3c 65
        E 0 96 48 5e
        E 3763 86 3c 00
        E 0 86 48 00
        E 77 96 40 65
        E 0 96 47 5e
        E 3763 86 40 00
        E 0 86 47 00
        E 77 96 40 65
        E 0 96 47 5e
        E 3763 86 40 00
        E 0 86 47 00
        E 77 96 3c 65
        E 0 96 48 5e
        E 3763 86 3c 00
        E 0 86 48 00
        E 77 96 3c 65
        E 0 96 48 5e
        E 3763 86 3c 00
        E 0 86 48 00
        E 77 96 40 65
        E 0 96 47 5e
        E 3763 86 40 00
        E 0 86 47 00
        E 77 96 40 65
        E 0 96 47 5e
        E 3763 86 40 00
        E 0 86 47 00
        E 77 96 3c 65
        E 0 96 48 5e
        E 3763 86 3c 00
        E 0 86 48 00
        E 77 96 3c 65
        E 0 96 48 5e
        E 3763 86 3c 00
        E 0 86 48 00
        E 77 96 40 65
        E 0 96 47 5e
        E 3763 86 40 00
        E 0 86 47 00
        E 3917 96 47 5e
        E 3763 86 47 00
        E 11597 96 3c 65
        E 0 96 48 5e
        E 3763 86 3c 00
        E 0 86 48 00
        E 0 b6 7b 00
        E 1 ff 2f 00
      >
    >
  >
  <TRACK
    NAME "Bass"
    PEAKCOL 4286528191
    VOLPAN 1.000000 0 1 -1
    MIDIOUT -1
    ISBUS 0 0
    <ITEM
      POSITION 0.006499
      LENGTH 80.099921
      NAME "Bass"
      VOLPAN 1 0 1 -1
      <SOURCE MIDI
        HASDATA 1 960 QN
        E 0 c7 2b 00
        E 8 97 28 7d
        E 3840 87 28 00
        E 1 97 23 7d
        E 3838 97 23 7d
        E 2 87 23 00
        E 3831 97 28 7d
        E 7 87 23 00
        E 3833 87 28 00
        E 3 97 28 7d
        E 3838 97 23 7d
        E 2 87 28 00
        E 3838 87 23 00
        E 5 97 21 7d
        E 3840 87 21 00
        E 0 97 1c 7d
        E 3836 97 1c 7d
        E 4 87 1c 00
        E 3836 87 1c 00
        E 3 97 1c 7d
        E 3840 87 1c 00
        E 0 97 1c 7d
        E 3840 87 1c 00
        E 1 97 1c 7d
        E 3839 97 1c 7d
        E 1 87 1c 00
        E 3838 97 1c 7d
        E 1 87 1c 00
        E 3839 87 1c 00
        E 5 97 21 7d
        E 3836 97 1c 7d
        E 4 87 21 00
        E 3835 97 1c 7d
        E 1 87 1c 00
        E 3839 87 1c 00
        E 3 97 1c 7d
        E 3837 97 1c 7d
        E 3 87 1c 00
        E 3837 87 1c 00
        E 4 97 1c 7d
        E 3833 97 1c 7d
        E 7 87 1c 00
        E 3833 87 1c 00
        E 2 97 1c 7d
        E 3840 87 1c 00
        E 4 97 21 7d
        E 3840 87 21 00
        E 3 97 1c 7d
        E 3837 97 1c 7d
        E 3 87 1c 00
        E 3837 87 1c 00
        E 1 97 1c 7d
        E 3840 87 1c 00
        E 0 b7 7b 00
        E 1 ff 2f 00
      >
    >
  >
>
