<REAPER_PROJECT 0.1 "7.0" 1700000000
  TEMPO 72.000000 4 4
  SAMPLERATE 48000 0 0
  RENDER_FILE ""
  RENDER_FMT 0 2 0
  RENDER_1X 0
  RENDER_RANGE 1 0 86.098308 0 0
  RENDER_RESAMPLE 3 0 1
  <MASTERTRACK
    VOLPAN 1 0 1 -1
    DEFCHAN 0
  >
  <TRACK
    NAME "Lead"
    PEAKCOL 4284506208
    VOLPAN 1.000000 0 1 -1
    MIDIOUT -1
    ISBUS 0 0
    <ITEM
      POSITION 0.001063
      LENGTH 84.197246
      NAME "Lead"
      VOLPAN 1 0 1 -1
      <SOURCE MIDI
        HASDATA 1 960 QN
        E 0 c0 47 00
        E 1 90 4c 7d
        E 1124 80 4c 00
        E 81 90 4c 5e
        E 295 90 4c 5e
        E 240 80 4c 00
        E 56 90 51 5e
        E 240 80 51 00
        E 55 90 56 5e
        E 238 80 4c 00
        E 2 80 56 00
        E 55 90 56 7d
        E 1022 80 56 00
        E 181 90 56 60
        E 1022 80 56 00
        E 167 90 56 79
        E 1022 80 56 00
        E 426 90 58 5e
        E 515 80 58 00
        E 457 90 56 62
        E 464 80 56 00
        E 730 90 56 5e
        E 567 80 56 00
        E 638 90 56 7c
        E 1022 80 56 00
        E 775 90 56 5e
        E 587 90 56 5e
        E 240 80 56 00
        E 195 80 56 00
        E 152 90 51 6b
        E 773 80 51 00
        E 1049 90 51 69
        E 598 90 56 5e
        E 240 80 56 00
        E 358 90 58 5e
        E 195 80 51 00
        E 44 90 56 5e
        E 238 90 51 5e
        E 2 80 56 00
        E 236 90 51 5e
        E 2 80 51 00
        E 133 80 58 00
        E 104 90 4c 5e
        E 1 80 51 00
        E 237 90 4c 65
        E 2 80 4c 00
        E 1079 90 4c 5e
        E 43 80 4c 00
        E 197 80 4c 00
        E 841 90 51 6b
        E 240 90 51 5e
        E 275 80 51 00
        E 747 80 51 00
        E 538 90 51 69
        E 222 90 51 5e
        E 293 80 51 00
        E 729 80 51 00
        E 182 90 51 69
        E 920 80 51 00
        E 279 90 51 5e
        E 1124 80 51 00
        E 80 90 51 69
        E 850 80 51 00
        E 328 90 51 5e
        E 1022 80 51 00
        E 318 90 51 5e
        E 1022 80 51 00
        E 51 90 51 5e
        E 258 80 51 00
        E 1545 90 51 5e
        E 588 90 51 5e
        E 240 80 51 00
        E 92 80 51 00
        E 257 90 4c 5e
        E 292 90 4c 6d
        E 240 80 4c 00
        E 52 90 51 6d
        E 240 80 51 00
        E 51 90 51 6d
        E 240 80 51 00
        E 9 80 4c 00
        E 43 90 56 6d
        E 240 80 56 00
        E 52 90 58 7d
        E 697 90 56 5e
        E 325 80 58 00
        E 190 80 56 00
        E 1050 90 58 65
        E 478 90 56 5e
        E 544 80 58 00
        E 478 80 56 00
        E 414 90 56 5e
        E 972 90 58 5e
        E 574 80 56 00
        E 346 80 58 00
        E 262 90 56 70
        E 567 80 56 00
        E 37 90 56 5e
        E 240 80 56 00
        E 363 90 51 5e
        E 1022 80 51 00
        E 184 90 51 7a
        E 1022 80 51 00
        E 164 90 51 62
        E 1022 80 51 00
        E 166 90 51 5e
        E 600 90 56 5e
        E 240 80 56 00
        E 182 80 51 00
        E 178 90 58 60
        E 920 80 58 00
        E 874 90 56 5e
        E 567 80 56 00
        E 38 90 56 5e
        E 240 80 56 00
        E 365 90 51 7d
        E 1022 80 51 00
        E 187 90 51 5e
        E 1022 80 51 00
        E 1014 90 51 6d
        E 1030 80 51 00
        E 764 90 51 5e
        E 920 80 51 00
        E 35 90 51 60
        E 850 80 51 00
        E 348 90 51 67
        E 1124 80 51 00
        E 78 90 51 5e
        E 1022 80 51 00
        E 174 90 51 5e
        E 1022 80 51 00
        E 176 90 51 5e
        E 1022 80 51 00
        E 186 90 51 5e
        E 592 90 51 5e
        E 240 80 51 00
        E 190 80 51 00
        E 161 90 4c 5e
        E 599 90 4c 5e
        E 240 80 4c 00
        E 81 80 4c 00
        E 278 90 51 67
        E 608 90 51 60
        E 516 80 51 00
        E 51 80 51 00
        E 36 90 51 5e
        E 589 90 51 5e
        E 240 80 51 00
        E 193 80 51 00
        E 157 90 4c 62
        E 450 90 4c 5e
        E 240 80 4c 00
        E 210 90 51 5e
        E 122 80 4c 00
        E 118 80 51 00
        E 210 90 56 5e
        E 240 80 56 00
        E 210 90 56 75
        E 515 80 56 00
        E 690 90 56 6d
        E 920 80 56 00
        E 276 90 56 5e
        E 920 80 56 00
        E 883 90 58 5e
        E 1022 80 58 00
        E 175 90 58 74
        E 1022 80 58 00
        E 170 90 56 6d
        E 515 80 56 00
        E 697 90 56 5e
        E 1022 80 56 00
        E 168 90 56 69
        E 920 80 56 00
        E 870 90 56 5e
        E 1124 80 56 00
        E 85 90 58 5e
        E 773 80 58 00
        E 404 90 56 7c
        E 601 90 56 70
        E 421 80 56 00
        E 601 80 56 00
        E 183 90 56 5e
        E 595 90 56 75
        E 427 80 56 00
        E 595 80 56 00
        E 417 90 56 7a
        E 920 80 56 00
        E 58 90 56 5e
        E 464 80 56 00
        E 428 90 56 5e
        E 240 80 56 00
        E 651 90 51 5e
        E 773 80 51 00
        E 430 90 51 62
        E 773 80 51 00
        E 418 90 51 69
        E 1022 80 51 00
        E 176 90 51 6b
        E 1022 80 51 00
        E 297 90 51 65
        E 920 80 51 00
        E 396 90 51 5e
        E 970 90 51 70
        E 1124 80 51 00
        E 79 90 52 77
        E 94 80 51 00
        E 679 80 52 00
        E 426 90 51 6b
        E 1022 80 51 00
        E 0 b0 7b 00
        E 1 ff 2f 00
      >
    >
  >
  <TRACK
    NAME "Drone"
    PEAKCOL 4284506208
    VOLPAN 1.000000 0 1 -1
    MIDIOUT -1
    ISBUS 0 0
    <ITEM
      POSITION 0.000000
      LENGTH 83.433333
      NAME "Drone"
      VOLPAN 1 0 1 -1
      <SOURCE MIDI
        HASDATA 1 960 QN
        E 0 c1 30 00
        E 0 91 40 02
        E 0 91 45 02
        E 96000 81 40 00
        E 0 81 45 00
        E 0 b1 7b 00
        E 1 ff 2f 00
      >
    >
  >
  <TRACK
    NAME "Violin1"
    PEAKCOL 4284186559
    VOLPAN 1.000000 0 1 -1
    MIDIOUT -1
    ISBUS 0 0
    <ITEM
      POSITION 3.340707
      LENGTH 80.099987
      NAME "Violin1"
      VOLPAN 1 0 1 -1
      <SOURCE MIDI
        HASDATA 1 960 QN
        E 0 c2 28 00
        E 3848 92 4a 70
        E 3840 82 4a 00
        E 3832 92 51 77
        E 3840 82 51 00
        E 3851 92 56 77
        E 3834 92 51 77
        E 6 82 56 00
        E 3834 82 51 00
        E 8 92 51 75
        E 3838 92 56 6d
        E 2 82 51 00
        E 3833 92 56 6d
        E 5 82 56 00
        E 3831 92 56 6d
        E 4 82 56 00
        E 3836 82 56 00
        E 0 92 51 77
        E 3840 82 51 00
        E 5 92 51 74
        E 3840 82 51 00
        E 4 92 56 72
        E 3839 92 58 70
        E 1 82 56 00
        E 3839 82 58 00
        E 3 92 5d 70
        E 3835 92 58 70
        E 5 82 5d 00
        E 3835 82 58 00
        E 2 92 56 75
        E 3837 92 51 75
        E 3 82 56 00
        E 3837 82 51 00
        E 0 92 56 75
        E 3840 82 56 00
        E 7678 92 58 75
        E 3840 82 58 00
        E 3843 92 60 75
        E 3840 82 60 00
        E 0 b2 7b 00
        E 1 ff 2f 00
      >
    >
  >
  <TRACK
    NAME "Strings"
    PEAKCOL 4284186559
    VOLPAN 1.000000 0 1 -1
    MIDIOUT -1
    ISBUS 0 0
    <ITEM
      POSITION 0.000000
      LENGTH 83.446667
      NAME "Strings"
      VOLPAN 1 0 1 -1
      <SOURCE MIDI
        HASDATA 1 960 QN
        E 0 c3 30 00
        E 0 93 40 3a
        E 0 93 46 3a
        E 4 93 46 3a
        E 1902 83 40 00
        E 3 93 46 3a
        E 3 83 46 00
        E 4 93 40 3a
        E 4 93 46 3a
        E 1 83 46 00
        E 12 93 45 3a
        E 1890 83 40 00
        E 14 83 46 00
        E 3 93 3e 3a
        E 2 83 46 00
        E 2 83 45 00
        E 6 93 46 3a
        E 0 93 46 3a
        E 1897 93 46 3a
        E 13 83 3e 00
        E 1 93 32 3a
        E 15 83 46 00
        E 8 83 46 00
        E 1887 83 46 00
        E 5 83 32 00
        E 1918 93 46 3a
        E 6 93 46 3a
        E 6 93 46 3a
        E 0 93 41 3a
        E 3 93 32 3a
        E 1901 93 46 3a
        E 2 83 46 00
        E 5 83 46 00
        E 3 83 46 00
        E 1 83 41 00
        E 7 83 32 00
        E 1905 93 45 3a
        E 3 83 46 00
        E 4 93 3c 3f
        E 1917 93 40 3a
        E 2 93 46 3a
        E 1 83 3c 00
        E 4 83 45 00
        E 4 93 46 3a
        E 1898 83 40 00
        E 6 93 46 3a
        E 9 83 46 00
        E 4 83 46 00
        E 1900 83 46 00
        E 15 93 3e 41
        E 3 93 46 3a
        E 4 93 46 3a
        E 2 93 32 3a
        E 4 93 32 3a
        E 1898 93 46 3a
        E 4 93 32 3a
        E 2 83 32 00
        E 3 83 3e 00
        E 0 93 3e 43
        E 1 93 46 3a
        E 3 83 32 00
        E 5 93 46 3a
        E 0 93 41 3a
        E 1 93 46 3a
        E 4 93 32 3a
        E 6 83 46 00
        E 2 83 46 00
        E 1883 83 46 00
        E 1 83 46 00
        E 1 93 46 3a
        E 1 93 46 3a
        E 3 83 32 00
        E 6 93 46 3a
        E 3 83 3e 00
        E 0 93 3c 45
        E 3 83 32 00
        E 4 93 46 3a
        E 2 93 46 3a
        E 0 93 46 3a
        E 1 93 45 3a
        E 2 83 46 00
        E 2 83 46 00
        E 6 83 41 00
        E 1871 83 46 00
        E 17 83 46 00
        E 1 93 46 3a
        E 4 93 46 3a
        E 5 83 46 00
        E 2 83 3c 00
        E 0 93 3c 45
        E 1 93 46 3a
        E 1 93 46 3a
        E 2 93 46 3a
        E 0 93 46 3a
        E 1 93 46 3a
        E 3 83 46 00
        E 1 83 45 00
        E 7 83 46 00
        E 7 83 46 00
        E 1868 83 46 00
        E 16 83 46 00
        E 0 93 40 3a
        E 2 83 46 00
        E 6 93 32 3a
        E 4 93 46 3a
        E 1 83 3c 00
        E 0 93 3c 47
        E 1 93 46 3a
        E 3 93 32 3a
        E 1 93 46 3a
        E 9 93 46 3a
        E 1 83 46 00
        E 2 83 46 00
        E 0 83 46 00
        E 4 83 46 00
        E 1871 83 40 00
        E 18 93 32 3a
        E 1 83 32 00
        E 9 83 3c 00
        E 0 93 46 3a
        E 0 93 3c 47
        E 0 93 46 3a
        E 2 83 46 00
        E 1 83 32 00
        E 0 93 32 3a
        E 1 83 46 00
        E 0 93 45 3a
        E 5 93 46 3a
        E 2 83 46 00
        E 2 93 45 3a
        E 8 83 46 00
        E 1883 83 32 00
        E 4 83 46 00
        E 0 93 46 3a
        E 1 93 46 3a
        E 2 83 46 00
        E 2 93 46 3a
        E 1 93 46 3a
        E 1 83 45 00
        E 2 83 46 00
        E 0 93 46 3a
        E 3 83 3c 00
        E 0 93 3c 4a
        E 8 93 40 3a
        E 0 93 46 3a
        E 8 83 32 00
        E 7 83 45 00
        E 1871 83 46 00
        E 14 93 46 3a
        E 1 93 45 3a
        E 3 93 46 3a
        E 0 93 40 3a
        E 1 93 46 3a
        E 2 83 46 00
        E 5 83 3c 00
        E 0 93 3c 4c
        E 2 83 46 00
        E 1 83 46 00
        E 8 93 46 3a
        E 2 93 46 3a
        E 2 83 46 00
        E 1 83 46 00
        E 6 83 40 00
        E 1872 83 45 00
        E 10 83 46 00
        E 2 93 43 3a
        E 7 93 32 3a
        E 0 93 46 3a
        E 4 83 46 00
        E 1 93 46 3a
        E 2 83 46 00
        E 0 83 40 00
        E 0 83 3c 00
        E 0 93 3c 4c
        E 1 93 46 3a
        E 2 83 46 00
        E 1 93 32 3a
        E 6 83 46 00
        E 3 93 46 3a
        E 1881 83 43 00
        E 7 83 32 00
        E 5 93 46 3a
        E 5 83 32 00
        E 4 83 46 00
        E 1 83 46 00
        E 0 93 46 3a
        E 0 93 46 3a
        E 4 83 3c 00
        E 0 93 3c 4e
        E 2 83 46 00
        E 1 93 46 3a
        E 1 93 40 3a
        E 3 93 46 3a
        E 6 83 46 00
        E 1 93 46 3a
        E 1893 83 46 00
        E 3 83 46 00
        E 1 93 46 3a
        E 1 83 46 00
        E 1 93 46 3a
        E 3 83 40 00
        E 3 93 46 3a
        E 1 83 46 00
        E 0 83 3c 00
        E 0 93 3e 50
        E 1 83 46 00
        E 2 93 46 3a
        E 2 93 46 3a
        E 2 93 41 3a
        E 7 93 46 3a
        E 2 83 46 00
        E 1877 83 46 00
        E 15 93 46 3a
        E 2 93 32 3a
        E 3 93 32 3a
        E 5 93 32 3a
        E 2 83 3e 00
        E 0 93 46 3a
        E 0 93 3e 53
        E 3 83 46 00
        E 4 83 46 00
        E 1 83 46 00
        E 0 93 45 3a
        E 2 93 46 3a
        E 5 83 41 00
        E 8 83 46 00
        E 9 83 46 00
        E 1867 83 46 00
        E 8 93 45 3a
        E 9 93 46 3a
        E 3 83 32 00
        E 1 83 3e 00
        E 0 93 3c 53
        E 1 83 46 00
        E 1 83 32 00
        E 1 93 46 3a
        E 3 83 32 00
        E 2 93 46 3a
        E 1 93 45 3a
        E 0 93 46 3a
        E 4 83 46 00
        E 0 93 46 3a
        E 4 83 45 00
        E 1890 83 46 00
        E 0 93 46 3a
        E 7 93 46 3a
        E 2 93 46 3a
        E 3 93 45 3a
        E 1 83 45 00
        E 0 83 3c 00
        E 0 93 3c 55
        E 2 93 46 3a
        E 12 93 32 3a
        E 0 93 46 3a
        E 1 83 45 00
        E 3 83 46 00
        E 3 83 46 00
        E 5 83 46 00
        E 2 83 46 00
        E 1867 83 46 00
        E 13 93 46 3a
        E 1 83 46 00
        E 0 93 46 3a
        E 4 83 46 00
        E 0 93 32 3a
        E 3 93 32 3a
        E 4 83 3c 00
        E 0 93 3c 55
        E 2 93 45 3a
        E 4 83 46 00
        E 1 83 45 00
        E 1 93 45 3a
        E 6 93 46 3a
        E 6 83 32 00
        E 13 83 46 00
        E 1862 83 46 00
        E 10 83 46 00
        E 3 93 46 3a
        E 1 83 32 00
        E 1 93 46 3a
        E 4 93 46 3a
        E 3 93 46 3a
        E 3 83 3c 00
        E 0 93 3c 55
        E 0 93 46 3a
        E 2 93 46 3a
        E 1 83 32 00
        E 1 93 40 3a
        E 7 83 46 00
        E 9 83 45 00
        E 1 83 45 00
        E 1878 83 46 00
        E 2 83 46 00
        E 4 83 46 00
        E 0 83 46 00
        E 8 83 46 00
        E 1 83 40 00
        E 1 93 46 3a
        E 3 93 46 3a
        E 2 83 3c 00
        E 0 93 46 3a
        E 0 93 3e 55
        E 2 93 41 3a
        E 1 93 46 3a
        E 2 83 46 00
        E 5 93 46 3a
        E 3 93 45 3a
        E 1888 83 46 00
        E 3 83 46 00
        E 1 83 41 00
        E 3 93 41 3a
        E 0 93 46 3a
        E 2 83 46 00
        E 0 93 46 3a
        E 2 83 46 00
        E 5 93 46 3a
        E 3 83 3e 00
        E 0 93 3e 53
        E 3 83 46 00
        E 0 83 45 00
        E 4 93 46 3a
        E 0 93 32 3a
        E 7 93 45 3a
        E 1885 83 46 00
        E 8 83 46 00
        E 1 83 41 00
        E 4 93 46 3a
        E 4 93 46 3a
        E 1 93 45 3a
        E 1 83 46 00
        E 0 93 46 3a
        E 2 83 3e 00
        E 0 93 3c 53
        E 3 93 41 3a
        E 4 83 32 00
        E 4 93 46 3a
        E 2 93 46 3a
        E 12 83 46 00
        E 3 83 45 00
        E 1867 83 46 00
        E 12 93 46 3a
        E 5 83 41 00
        E 3 93 46 3a
        E 1 93 46 3a
        E 1 83 45 00
        E 3 83 3c 00
        E 0 93 3c 50
        E 5 93 41 3a
        E 1 93 46 3a
        E 1 83 46 00
        E 1 93 46 3a
        E 4 93 32 3a
        E 1 83 46 00
        E 5 83 46 00
        E 8 83 46 00
        E 1880 93 32 3a
        E 0 93 40 3a
        E 7 83 41 00
        E 2 83 32 00
        E 1 93 46 3a
        E 3 83 46 00
        E 1 83 3c 00
        E 0 93 3c 4e
        E 1 83 46 00
        E 1 83 46 00
        E 0 93 46 3a
        E 0 93 46 3a
        E 2 83 46 00
        E 1 93 45 3a
        E 3 93 46 3a
        E 8 83 46 00
        E 1876 83 40 00
        E 17 93 46 3a
        E 1 83 45 00
        E 1 93 46 3a
        E 3 93 45 3a
        E 3 93 45 3a
        E 2 93 46 3a
        E 1 83 46 00
        E 0 83 3c 00
        E 0 93 3c 4c
        E 2 83 46 00
        E 0 93 46 3a
        E 2 83 32 00
        E 3 93 45 3a
        E 1 83 46 00
        E 5 83 46 00
        E 1888 83 46 00
        E 1 83 46 00
        E 3 83 46 00
        E 15 83 3c 00
        E 0 93 3c 4c
        E 1 93 46 3a
        E 1 83 46 00
        E 0 93 46 3a
        E 1 83 45 00
        E 4 93 32 3a
        E 1 83 45 00
        E 1 93 46 3a
        E 1 93 46 3a
        E 3 93 46 3a
        E 0 93 46 3a
        E 4 83 45 00
        E 1890 93 46 3a
        E 1 93 32 3a
        E 5 93 40 3a
        E 2 93 45 3a
        E 4 93 46 3a
        E 1 83 3c 00
        E 0 93 3c 4a
        E 3 93 46 3a
        E 3 83 46 00
        E 0 93 46 3a
        E 1 83 46 00
        E 2 83 46 00
        E 1 83 46 00
        E 1 83 46 00
        E 9 83 46 00
        E 4 83 32 00
        E 1865 83 32 00
        E 14 83 46 00
        E 4 83 40 00
        E 2 93 32 3a
        E 3 83 46 00
        E 2 93 32 3a
        E 1 83 45 00
        E 0 83 46 00
        E 0 93 45 3a
        E 2 93 46 3a
        E 3 83 3c 00
        E 0 93 4a 47
        E 8 93 32 3a
        E 1 93 46 3a
        E 5 83 46 00
        E 0 93 46 3a
        E 1883 83 32 00
        E 3 83 32 00
        E 10 83 45 00
        E 1 93 45 3a
        E 3 93 46 3a
        E 1 83 32 00
        E 0 93 45 3a
        E 1 83 46 00
        E 3 93 46 3a
        E 1 83 4a 00
        E 0 93 3e 47
        E 2 93 46 3a
        E 2 83 46 00
        E 4 93 46 3a
        E 1 93 46 3a
        E 6 83 46 00
        E 1887 83 45 00
        E 8 93 32 3a
        E 0 93 32 3a
        E 1 93 46 3a
        E 1 83 46 00
        E 1 93 46 3a
        E 1 93 32 3a
        E 1 83 46 00
        E 3 83 45 00
        E 0 93 46 3a
        E 2 83 3e 00
        E 0 93 3c 45
        E 2 83 46 00
        E 3 93 46 3a
        E 11 83 46 00
        E 2 83 46 00
        E 1885 83 46 00
        E 3 93 41 3a
        E 0 93 46 3a
        E 4 83 32 00
        E 2 83 32 00
        E 5 83 46 00
        E 2 83 46 00
        E 0 93 46 3a
        E 1 83 3c 00
        E 0 93 3c 45
        E 0 93 46 3a
        E 3 93 46 3a
        E 1 83 32 00
        E 1 93 46 3a
        E 5 93 46 3a
        E 10 83 46 00
        E 1872 83 46 00
        E 13 83 46 00
        E 5 93 46 3a
        E 6 93 46 3a
        E 3 83 46 00
        E 1 83 3c 00
        E 0 93 3c 43
        E 0 93 32 3a
        E 2 93 46 3a
        E 1 83 46 00
        E 1 83 41 00
        E 0 83 46 00
        E 0 93 46 3a
        E 1 93 32 3a
        E 7 93 40 3a
        E 11 83 46 00
        E 1875 83 46 00
        E 10 83 46 00
        E 0 93 46 3a
        E 1 83 46 00
        E 2 93 46 3a
        E 4 83 32 00
        E 1 93 46 3a
        E 3 93 40 3a
        E 1 83 3c 00
        E 0 93 3c 41
        E 2 83 46 00
        E 3 93 46 3a
        E 2 93 32 3a
        E 5 93 46 3a
        E 6 83 32 00
        E 7 83 40 00
        E 1872 83 46 00
        E 10 93 46 3a
        E 3 93 40 3a
        E 1 83 40 00
        E 3 83 46 00
        E 3 93 45 3a
        E 3 83 3c 00
        E 1 83 46 00
        E 1 83 46 00
        E 12 93 46 3a
        E 9 83 32 00
        E 2 83 46 00
        E 1871 83 40 00
        E 6 83 45 00
        E 5 93 46 3a
        E 0 93 40 3a
        E 3 83 46 00
        E 10 93 3c 3f
        E 8 93 40 3a
        E 4 83 46 00
        E 1877 83 46 00
        E 21 83 40 00
        E 6 83 40 00
        E 3 93 46 3a
        E 1 83 3c 00
        E 1917 83 46 00
        E 8 93 32 3a
        E 1908 93 46 3a
        E 3 83 32 00
        E 18 93 41 3a
        E 1893 93 46 3a
        E 6 93 32 3a
        E 9 83 46 00
        E 19 83 41 00
        E 1884 83 46 00
        E 25 83 32 00
        E 3 93 46 3a
        E 1 93 32 3a
        E 1901 83 46 00
        E 3 93 46 3a
        E 2 93 40 3a
        E 18 83 32 00
        E 1896 93 34 3a
        E 1 83 46 00
        E 5 83 40 00
        E 10 93 46 3a
        E 1906 93 46 3a
        E 3 83 34 00
        E 4 93 46 3a
        E 6 93 46 3a
        E 1 93 46 3a
        E 18 83 46 00
        E 1889 83 46 00
        E 2 83 46 00
        E 12 83 46 00
        E 4 83 46 00
        E 0 b3 7b 00
        E 1 ff 2f 00
      >
    >
  >
  <TRACK
    NAME "Choir"
    PEAKCOL 4284506208
    VOLPAN 1.000000 0 1 -1
    MIDIOUT -1
    ISBUS 0 0
    <ITEM
      POSITION 0.009601
      LENGTH 73.181907
      NAME "Choir"
      VOLPAN 1 0 1 -1
      <SOURCE MIDI
        HASDATA 1 960 QN
        E 0 c4 34 00
        E 11 94 40 72
        E 9 94 39 70
        E 3524 84 40 00
        E 9 84 39 00
        E 307 94 32 74
        E 3533 84 32 00
        E 295 94 40 6b
        E 10 94 39 72
        E 3523 84 40 00
        E 10 84 39 00
        E 298 94 3e 74
        E 0 94 40 6b
        E 3533 84 3e 00
        E 0 84 40 00
        E 299 94 3e 72
        E 17 94 32 6d
        E 3516 84 3e 00
        E 17 84 32 00
        E 292 94 3e 6b
        E 10 94 40 6d
        E 5 94 39 74
        E 4 94 32 72
        E 3514 84 3e 00
        E 10 84 40 00
        E 5 84 39 00
        E 4 84 32 00
        E 293 94 3e 74
        E 0 94 40 70
        E 8 94 39 6b
        E 6 94 32 74
        E 3519 84 3e 00
        E 0 84 40 00
        E 8 84 39 00
        E 6 84 32 00
        E 289 94 3e 70
        E 1 94 40 74
        E 8 94 39 70
        E 8 94 32 72
        E 3516 84 3e 00
        E 1 84 40 00
        E 8 84 39 00
        E 8 84 32 00
        E 290 94 3e 6b
        E 4 94 40 74
        E 6 94 32 6d
        E 2 94 39 70
        E 3521 84 3e 00
        E 4 84 40 00
        E 6 84 32 00
        E 2 84 39 00
        E 293 94 3e 74
        E 10 94 40 6b
        E 6 94 39 6d
        E 10 94 32 74
        E 3507 84 3e 00
        E 10 84 40 00
        E 6 84 39 00
        E 10 84 32 00
        E 280 94 3e 70
        E 11 94 39 6d
        E 0 94 40 74
        E 16 94 32 6b
        E 3506 84 3e 00
        E 11 84 39 00
        E 0 84 40 00
        E 16 84 32 00
        E 279 94 3e 6b
        E 11 94 40 70
        E 9 94 39 72
        E 7 94 32 6b
        E 3506 84 3e 00
        E 11 84 40 00
        E 9 84 39 00
        E 7 84 32 00
        E 284 94 3e 6b
        E 10 94 40 6d
        E 1 94 39 70
        E 1 94 32 74
        E 3521 84 3e 00
        E 10 84 40 00
        E 1 84 39 00
        E 1 84 32 00
        E 296 94 3e 74
        E 4 94 40 70
        E 5 94 39 74
        E 3 94 32 6b
        E 3521 84 3e 00
        E 4 84 40 00
        E 5 84 39 00
        E 3 84 32 00
        E 294 94 3e 6d
        E 8 94 40 6b
        E 2 94 39 6d
        E 10 94 32 74
        E 3513 84 3e 00
        E 8 84 40 00
        E 2 84 39 00
        E 10 84 32 00
        E 286 94 3e 6b
        E 5 94 40 70
        E 9 94 32 6b
        E 2 94 39 72
        E 3517 84 3e 00
        E 5 84 40 00
        E 9 84 32 00
        E 2 84 39 00
        E 289 94 3e 6d
        E 9 94 40 72
        E 9 94 39 74
        E 5 94 32 6d
        E 3510 84 3e 00
        E 9 84 40 00
        E 9 84 39 00
        E 5 84 32 00
        E 288 94 3e 72
        E 4 94 40 70
        E 1 94 39 72
        E 8 94 32 6b
        E 3520 84 3e 00
        E 4 84 40 00
        E 1 84 39 00
        E 8 84 32 00
        E 294 94 3e 6b
        E 7 94 40 6d
        E 5 94 32 6d
        E 1 94 39 6b
        E 3520 84 3e 00
        E 7 84 40 00
        E 5 84 32 00
        E 1 84 39 00
        E 291 94 3e 74
        E 6 94 40 74
        E 8 94 39 6b
        E 2 94 32 72
        E 3517 84 3e 00
        E 6 84 40 00
        E 8 84 39 00
        E 2 84 32 00
        E 306 94 32 6b
        E 3533 84 32 00
        E 311 94 39 70
        E 8 94 32 6b
        E 3525 84 39 00
        E 8 84 32 00
        E 0 b4 7b 00
        E 1 ff 2f 00
      >
    >
  >
  <TRACK
    NAME "Clarinet"
    PEAKCOL 4282040170
    VOLPAN 1.000000 0 1 -1
    MIDIOUT -1
    ISBUS 0 0
    <ITEM
      POSITION 3.342614
      LENGTH 63.430347
      NAME "Clarinet"
      VOLPAN 1 0 1 -1
      <SOURCE MIDI
        HASDATA 1 960 QN
        E 0 c5 47 00
        E 3851 95 4c 6b
        E 3840 85 4c 00
        E 7677 95 51 6b
        E 3840 85 51 00
        E 3838 95 4c 6b
        E 3835 95 4a 6b
        E 5 85 4c 00
        E 3835 85 4a 00
        E 3849 95 51 6b
        E 3831 95 4c 6b
        E 9 85 51 00
        E 3831 85 4c 00
        E 3841 95 4c 6b
        E 3840 85 4c 00
        E 7 95 4c 6b
        E 3840 85 4c 00
        E 3841 95 4a 6b
        E 3837 95 4c 6b
        E 3 85 4a 00
        E 3837 85 4c 00
        E 3841 95 4a 6b
        E 3839 95 4a 6b
        E 1 85 4a 00
        E 3839 85 4a 00
        E 0 b5 7b 00
        E 1 ff 2f 00
      >
    >
  >
  <TRACK
    NAME "Bass"
    PEAKCOL 4286528191
    VOLPAN 1.000000 0 1 -1
    MIDIOUT -1
    ISBUS 0 0
    <ITEM
      POSITION 0.002912
      LENGTH 83.433178
      NAME "Bass"
      VOLPAN 1 0 1 -1
      <SOURCE MIDI
        HASDATA 1 960 QN
        E 0 c6 2b 00
        E 3 96 26 7c
        E 3840 86 26 00
        E 0 96 21 7c
        E 3840 86 21 00
        E 1 96 26 7c
        E 3840 86 26 00
        E 3 96 26 7c
        E 3836 96 26 7c
        E 4 86 26 00
        E 3836 86 26 00
        E 1 96 21 7c
        E 3837 96 26 7c
        E 3 86 21 00
        E 3837 86 26 00
        E 4 96 26 7c
        E 3840 86 26 00
        E 4 96 21 7c
        E 3833 96 21 7c
        E 7 86 21 00
        E 3833 86 21 00
        E 1 96 26 7c
        E 3840 86 26 00
        E 5 96 21 7c
        E 3835 96 26 7c
        E 5 86 21 00
        E 3835 86 26 00
        E 6 96 26 7c
        E 3836 96 26 7c
        E 4 86 26 00
        E 3836 86 26 00
        E 3 96 26 7c
        E 3840 86 26 00
        E 0 96 26 7c
        E 3833 96 26 7c
        E 7 86 26 00
        E 3833 86 26 00
        E 4 96 26 7c
        E 3836 96 26 7c
        E 4 86 26 00
        E 3835 96 21 7c
        E 1 86 26 00
        E 3839 86 21 00
        E 3 96 21 7c
        E 3839 96 26 7c
        E 1 86 21 00
        E 3839 86 26 00
        E 7 96 26 7c
        E 3834 96 26 7c
        E 6 86 26 00
        E 3834 86 26 00
        E 0 b6 7b 00
        E 1 ff 2f 00
      >
    >
  >
>
