<REAPER_PROJECT 0.1 "7.0" 1700000000
  TEMPO 108.000000 4 4
  SAMPLERATE 48000 0 0
  RENDER_FILE ""
  RENDER_FMT 0 2 0
  RENDER_1X 0
  RENDER_RANGE 1 0 51.010759 0 0
  RENDER_RESAMPLE 3 0 1
  <MASTERTRACK
    VOLPAN 1 0 1 -1
    DEFCHAN 0
  >
  <TRACK
    NAME "Lead"
    PEAKCOL 4284506208
    VOLPAN 1.000000 0 1 -1
    MIDIOUT -1
    ISBUS 0 0
    <ITEM
      POSITION 0.000000
      LENGTH 49.110759
      NAME "Lead"
      VOLPAN 1 0 1 -1
      <SOURCE MIDI
        HASDATA 1 960 QN
        E 0 c0 44 00
        E 0 90 4f 79
        E 868 80 4f 00
        E 46 90 4f 4c
        E 706 90 51 4c
        E 162 80 4f 00
        E 78 80 51 00
        E 467 90 56 4d
        E 789 80 56 00
        E 138 90 56 52
        E 789 80 56 00
        E 597 90 56 4c
        E 399 80 56 00
        E 68 90 56 4c
        E 240 80 56 00
        E 227 90 5b 4c
        E 598 80 5b 00
        E 1133 90 5b 4c
        E 710 80 5b 00
        E 468 90 5b 4c
        E 868 80 5b 00
        E 395 90 5b 4f
        E 592 90 5b 4c
        E 197 80 5b 00
        E 43 80 5b 00
        E 352 90 56 4c
        E 688 90 56 4d
        E 101 80 56 00
        E 688 80 56 00
        E 139 90 56 5c
        E 462 90 56 4c
        E 240 80 56 00
        E 221 90 5b 75
        E 273 80 56 00
        E 516 80 5b 00
        E 131 90 5b 51
        E 462 90 5b 4c
        E 615 80 5b 00
        E 95 80 5b 00
        E 684 90 5b 6b
        E 710 90 5b 4c
        E 158 80 5b 00
        E 527 90 5b 4d
        E 183 80 5b 00
        E 606 80 5b 00
        E 369 90 5b 4c
        E 580 90 5b 4c
        E 209 80 5b 00
        E 31 80 5b 00
        E 339 90 56 4d
        E 789 80 56 00
        E 138 90 56 4c
        E 598 80 56 00
        E 333 90 56 4c
        E 710 80 56 00
        E 212 90 56 4c
        E 710 80 56 00
        E 668 90 56 4c
        E 868 80 56 00
        E 196 90 56 4c
        E 789 80 56 00
        E 19 90 56 5e
        E 459 90 56 54
        E 240 80 56 00
        E 90 80 56 00
        E 130 90 5b 7b
        E 789 80 5b 00
        E 149 90 5b 5a
        E 461 90 5b 4c
        E 240 80 5b 00
        E 88 80 5b 00
        E 133 90 56 70
        E 453 90 56 4c
        E 336 80 56 00
        E 23 80 56 00
        E 814 90 56 4c
        E 710 80 56 00
        E 930 90 56 4f
        E 219 80 56 00
        E 270 90 56 4c
        E 789 80 56 00
        E 128 90 56 4c
        E 452 90 56 4c
        E 337 80 56 00
        E 261 80 56 00
        E 51 90 56 4c
        E 240 80 56 00
        E 409 90 5b 56
        E 554 90 5b 4c
        E 235 80 5b 00
        E 554 80 5b 00
        E 145 90 5b 4c
        E 789 80 5b 00
        E 147 90 5b 4c
        E 710 80 5b 00
        E 321 90 5b 4c
        E 830 90 5b 4c
        E 38 80 5b 00
        E 620 80 5b 00
        E 246 90 5b 6e
        E 789 80 5b 00
        E 160 90 5b 59
        E 798 80 5b 00
        E 130 90 5b 79
        E 789 80 5b 00
        E 140 90 5b 68
        E 576 90 5b 4f
        E 222 80 5b 00
        E 177 80 5b 00
        E 406 90 5b 54
        E 359 80 5b 00
        E 555 90 5b 4c
        E 584 90 5b 4c
        E 126 80 5b 00
        E 114 80 5b 00
        E 344 90 56 56
        E 219 80 56 00
        E 493 90 56 4c
        E 457 90 56 4c
        E 240 80 56 00
        E 171 80 56 00
        E 45 90 5b 4c
        E 199 80 5b 00
        E 727 90 5b 4c
        E 789 80 5b 00
        E 135 90 5b 52
        E 470 90 5b 4c
        E 240 80 5b 00
        E 79 80 5b 00
        E 150 90 56 4c
        E 199 80 56 00
        E 733 90 56 4c
        E 789 80 56 00
        E 137 90 56 4c
        E 457 90 56 4c
        E 240 80 56 00
        E 13 80 56 00
        E 204 90 5b 73
        E 699 90 5b 4c
        E 169 80 5b 00
        E 699 80 5b 00
        E 79 90 5b 4c
        E 338 90 5b 4c
        E 240 80 5b 00
        E 99 90 56 54
        E 191 80 5b 00
        E 598 80 56 00
        E 127 90 56 52
        E 789 80 56 00
        E 143 90 56 5c
        E 399 80 56 00
        E 1012 90 56 4c
        E 399 80 56 00
        E 58 90 56 4c
        E 240 80 56 00
        E 216 90 51 4c
        E 469 90 51 4c
        E 240 80 51 00
        E 1 80 51 00
        E 227 90 56 4c
        E 359 80 56 00
        E 692 90 56 5c
        E 789 90 56 4c
        E 79 80 56 00
        E 710 80 56 00
        E 148 90 56 4c
        E 199 80 56 00
        E 967 90 56 4d
        E 692 90 56 5e
        E 97 80 56 00
        E 362 90 56 4c
        E 330 80 56 00
        E 268 80 56 00
        E 781 90 56 4c
        E 538 80 56 00
        E 406 90 56 4c
        E 710 80 56 00
        E 332 90 56 4c
        E 793 90 56 52
        E 75 80 56 00
        E 793 80 56 00
        E 61 90 56 4f
        E 789 80 56 00
        E 149 90 56 5e
        E 399 80 56 00
        E 61 90 56 4c
        E 399 80 56 00
        E 74 90 56 4c
        E 240 80 56 00
        E 232 90 5b 4c
        E 789 80 5b 00
        E 580 90 5b 51
        E 598 80 5b 00
        E 348 90 5b 4c
        E 710 80 5b 00
        E 199 90 5b 4c
        E 210 90 5b 4c
        E 210 90 56 4c
        E 30 80 5b 00
        E 179 90 56 4c
        E 31 80 56 00
        E 179 90 51 4c
        E 29 80 5b 00
        E 1 80 56 00
        E 180 90 4f 4c
        E 30 80 51 00
        E 189 80 4f 00
        E 1304 90 4f 4c
        E 677 90 4f 4d
        E 112 80 4f 00
        E 677 80 4f 00
        E 141 90 51 4d
        E 789 80 51 00
        E 149 90 4f 4c
        E 789 80 4f 00
        E 503 90 4c 4c
        E 559 90 4a 4c
        E 151 80 4c 00
        E 559 80 4a 00
        E 0 b0 7b 00
        E 1 ff 2f 00
      >
    >
  >
  <TRACK
    NAME "Drone"
    PEAKCOL 4284506208
    VOLPAN 1.000000 0 1 -1
    MIDIOUT -1
    ISBUS 0 0
    <ITEM
      POSITION 0.000000
      LENGTH 48.988889
      NAME "Drone"
      VOLPAN 1 0 1 -1
      <SOURCE MIDI
        HASDATA 1 960 QN
        E 0 c1 30 00
        E 0 91 3e 02
        E 0 91 45 02
        E 84480 81 3e 00
        E 0 81 45 00
        E 0 b1 7b 00
        E 1 ff 2f 00
      >
    >
  >
  <TRACK
    NAME "Ostinato"
    PEAKCOL 4284506208
    VOLPAN 1.000000 0 1 -1
    MIDIOUT -1
    ISBUS 0 0
    <ITEM
      POSITION 0.138889
      LENGTH 48.683333
      NAME "Ostinato"
      VOLPAN 1 0 1 -1
      <SOURCE MIDI
        HASDATA 1 960 QN
        E 0 c2 2d 00
        E 240 92 35 63
        E 192 82 35 00
        E 288 92 35 63
        E 192 82 35 00
        E 768 92 35 51
        E 192 82 35 00
        E 288 92 35 63
        E 192 82 35 00
        E 48 92 39 63
        E 192 82 39 00
        E 288 92 32 5a
        E 192 82 32 00
        E 48 92 35 5a
        E 192 82 35 00
        E 528 92 32 63
        E 192 82 32 00
        E 528 92 35 63
        E 192 82 35 00
        E 768 92 35 51
        E 192 82 35 00
        E 528 92 39 63
        E 192 82 39 00
        E 48 92 35 63
        E 192 82 35 00
        E 3168 92 35 63
        E 192 82 35 00
        E 48 92 39 63
        E 192 82 39 00
        E 288 92 32 5a
        E 192 82 32 00
        E 48 92 35 5a
        E 192 82 35 00
        E 48 92 39 5a
        E 192 82 39 00
        E 1008 92 35 63
        E 192 82 35 00
        E 1008 92 32 63
        E 192 82 32 00
        E 288 92 39 63
        E 192 82 39 00
        E 1728 92 39 63
        E 192 82 39 00
        E 48 92 35 63
        E 192 82 35 00
        E 528 92 39 51
        E 192 82 39 00
        E 48 92 35 51
        E 192 82 35 00
        E 48 92 32 63
        E 192 82 32 00
        E 48 92 35 63
        E 192 82 35 00
        E 48 92 39 63
        E 192 82 39 00
        E 48 92 35 63
        E 192 82 35 00
        E 48 92 32 5a
        E 192 82 32 00
        E 48 92 35 5a
        E 192 82 35 00
        E 48 92 39 5a
        E 192 82 39 00
        E 48 92 35 5a
        E 192 82 35 00
        E 48 92 32 63
        E 192 82 32 00
        E 48 92 35 63
        E 192 82 35 00
        E 48 92 39 63
        E 192 82 39 00
        E 48 92 35 63
        E 192 82 35 00
        E 48 92 32 51
        E 192 82 32 00
        E 48 92 35 51
        E 192 82 35 00
        E 48 92 39 51
        E 192 82 39 00
        E 48 92 35 51
        E 192 82 35 00
        E 48 92 32 63
        E 192 82 32 00
        E 48 92 35 63
        E 192 82 35 00
        E 48 92 39 63
        E 192 82 39 00
        E 48 92 35 63
        E 192 82 35 00
        E 48 92 32 5a
        E 192 82 32 00
        E 48 92 35 5a
        E 192 82 35 00
        E 48 92 39 5a
        E 192 82 39 00
        E 48 92 35 5a
        E 192 82 35 00
        E 48 92 32 63
        E 192 82 32 00
        E 48 92 35 63
        E 192 82 35 00
        E 48 92 39 63
        E 192 82 39 00
        E 48 92 35 63
        E 192 82 35 00
        E 48 92 32 51
        E 192 82 32 00
        E 48 92 35 51
        E 192 82 35 00
        E 48 92 39 51
        E 192 82 39 00
        E 48 92 35 51
        E 192 82 35 00
        E 48 92 32 63
        E 192 82 32 00
        E 48 92 35 63
        E 192 82 35 00
        E 48 92 39 63
        E 192 82 39 00
        E 48 92 35 63
        E 192 82 35 00
        E 48 92 32 5a
        E 192 82 32 00
        E 48 92 35 5a
        E 192 82 35 00
        E 48 92 39 5a
        E 192 82 39 00
        E 48 92 35 5a
        E 192 82 35 00
        E 48 92 32 63
        E 192 82 32 00
        E 48 92 35 63
        E 192 82 35 00
        E 48 92 39 63
        E 192 82 39 00
        E 48 92 35 63
        E 192 82 35 00
        E 48 92 32 51
        E 192 82 32 00
        E 48 92 35 51
        E 192 82 35 00
        E 48 92 39 51
        E 192 82 39 00
        E 48 92 35 51
        E 192 82 35 00
        E 48 92 32 63
        E 192 82 32 00
        E 48 92 35 63
        E 192 82 35 00
        E 48 92 39 63
        E 192 82 39 00
        E 48 92 35 63
        E 192 82 35 00
        E 48 92 32 5a
        E 192 82 32 00
        E 48 92 35 5a
        E 192 82 35 00
        E 48 92 39 5a
        E 192 82 39 00
        E 48 92 35 5a
        E 192 82 35 00
        E 48 92 32 63
        E 192 82 32 00
        E 48 92 35 63
        E 192 82 35 00
        E 48 92 39 63
        E 192 82 39 00
        E 48 92 35 63
        E 192 82 35 00
        E 48 92 32 51
        E 192 82 32 00
        E 48 92 35 51
        E 192 82 35 00
        E 48 92 39 51
        E 192 82 39 00
        E 48 92 35 51
        E 192 82 35 00
        E 48 92 32 63
        E 192 82 32 00
        E 48 92 35 63
        E 192 82 35 00
        E 48 92 39 63
        E 192 82 39 00
        E 48 92 35 63
        E 192 82 35 00
        E 48 92 32 5a
        E 192 82 32 00
        E 48 92 35 5a
        E 192 82 35 00
        E 48 92 39 5a
        E 192 82 39 00
        E 48 92 35 5a
        E 192 82 35 00
        E 48 92 32 63
        E 192 82 32 00
        E 48 92 35 63
        E 192 82 35 00
        E 48 92 39 63
        E 192 82 39 00
        E 48 92 35 63
        E 192 82 35 00
        E 48 92 32 51
        E 192 82 32 00
        E 48 92 35 51
        E 192 82 35 00
        E 48 92 39 51
        E 192 82 39 00
        E 48 92 35 51
        E 192 82 35 00
        E 48 92 32 63
        E 192 82 32 00
        E 48 92 35 63
        E 192 82 35 00
        E 48 92 39 63
        E 192 82 39 00
        E 48 92 35 63
        E 192 82 35 00
        E 48 92 32 5a
        E 192 82 32 00
        E 48 92 35 5a
        E 192 82 35 00
        E 48 92 39 5a
        E 192 82 39 00
        E 48 92 35 5a
        E 192 82 35 00
        E 48 92 32 63
        E 192 82 32 00
        E 48 92 35 63
        E 192 82 35 00
        E 48 92 39 63
        E 192 82 39 00
        E 48 92 35 63
        E 192 82 35 00
        E 48 92 32 51
        E 192 82 32 00
        E 48 92 35 51
        E 192 82 35 00
        E 48 92 39 51
        E 192 82 39 00
        E 48 92 35 51
        E 192 82 35 00
        E 48 92 32 63
        E 192 82 32 00
        E 48 92 35 63
        E 192 82 35 00
        E 48 92 39 63
        E 192 82 39 00
        E 48 92 35 63
        E 192 82 35 00
        E 48 92 32 5a
        E 192 82 32 00
        E 48 92 35 5a
        E 192 82 35 00
        E 48 92 39 5a
        E 192 82 39 00
        E 48 92 35 5a
        E 192 82 35 00
        E 48 92 32 63
        E 192 82 32 00
        E 48 92 35 63
        E 192 82 35 00
        E 48 92 39 63
        E 192 82 39 00
        E 48 92 35 63
        E 192 82 35 00
        E 48 92 32 51
        E 192 82 32 00
        E 48 92 35 51
        E 192 82 35 00
        E 48 92 39 51
        E 192 82 39 00
        E 48 92 35 51
        E 192 82 35 00
        E 48 92 32 63
        E 192 82 32 00
        E 48 92 35 63
        E 192 82 35 00
        E 48 92 39 63
        E 192 82 39 00
        E 48 92 35 63
        E 192 82 35 00
        E 48 92 32 5a
        E 192 82 32 00
        E 48 92 35 5a
        E 192 82 35 00
        E 48 92 39 5a
        E 192 82 39 00
        E 48 92 35 5a
        E 192 82 35 00
        E 48 92 32 63
        E 192 82 32 00
        E 48 92 35 63
        E 192 82 35 00
        E 48 92 39 63
        E 192 82 39 00
        E 48 92 35 63
        E 192 82 35 00
        E 48 92 32 51
        E 192 82 32 00
        E 48 92 35 51
        E 192 82 35 00
        E 48 92 39 51
        E 192 82 39 00
        E 48 92 35 51
        E 192 82 35 00
        E 48 92 32 63
        E 192 82 32 00
        E 48 92 35 63
        E 192 82 35 00
        E 48 92 39 63
        E 192 82 39 00
        E 48 92 35 63
        E 192 82 35 00
        E 48 92 32 5a
        E 192 82 32 00
        E 48 92 35 5a
        E 192 82 35 00
        E 48 92 39 5a
        E 192 82 39 00
        E 48 92 35 5a
        E 192 82 35 00
        E 48 92 32 63
        E 192 82 32 00
        E 48 92 35 63
        E 192 82 35 00
        E 48 92 39 63
        E 192 82 39 00
        E 48 92 35 63
        E 192 82 35 00
        E 48 92 32 51
        E 192 82 32 00
        E 48 92 35 51
        E 192 82 35 00
        E 48 92 39 51
        E 192 82 39 00
        E 48 92 35 51
        E 192 82 35 00
        E 48 92 32 63
        E 192 82 32 00
        E 48 92 35 63
        E 192 82 35 00
        E 48 92 39 63
        E 192 82 39 00
        E 48 92 35 63
        E 192 82 35 00
        E 48 92 32 5a
        E 192 82 32 00
        E 48 92 35 5a
        E 192 82 35 00
        E 48 92 39 5a
        E 192 82 39 00
        E 48 92 35 5a
        E 192 82 35 00
        E 48 92 32 63
        E 192 82 32 00
        E 48 92 35 63
        E 192 82 35 00
        E 48 92 39 63
        E 192 82 39 00
        E 48 92 35 63
        E 192 82 35 00
        E 48 92 32 51
        E 192 82 32 00
        E 48 92 35 51
        E 192 82 35 00
        E 48 92 39 51
        E 192 82 39 00
        E 48 92 35 51
        E 192 82 35 00
        E 48 92 32 63
        E 192 82 32 00
        E 48 92 35 63
        E 192 82 35 00
        E 48 92 39 63
        E 192 82 39 00
        E 48 92 35 63
        E 192 82 35 00
        E 48 92 32 5a
        E 192 82 32 00
        E 48 92 35 5a
        E 192 82 35 00
        E 48 92 39 5a
        E 192 82 39 00
        E 48 92 35 5a
        E 192 82 35 00
        E 48 92 32 63
        E 192 82 32 00
        E 48 92 35 63
        E 192 82 35 00
        E 48 92 39 63
        E 192 82 39 00
        E 48 92 35 63
        E 192 82 35 00
        E 48 92 32 51
        E 192 82 32 00
        E 48 92 35 51
        E 192 82 35 00
        E 48 92 39 51
        E 192 82 39 00
        E 48 92 35 51
        E 192 82 35 00
        E 48 92 32 63
        E 192 82 32 00
        E 48 92 35 63
        E 192 82 35 00
        E 48 92 39 63
        E 192 82 39 00
        E 48 92 35 63
        E 192 82 35 00
        E 48 92 32 5a
        E 192 82 32 00
        E 48 92 35 5a
        E 192 82 35 00
        E 48 92 39 5a
        E 192 82 39 00
        E 48 92 35 5a
        E 192 82 35 00
        E 48 92 32 63
        E 192 82 32 00
        E 48 92 35 63
        E 192 82 35 00
        E 48 92 39 63
        E 192 82 39 00
        E 48 92 35 63
        E 192 82 35 00
        E 48 92 32 51
        E 192 82 32 00
        E 48 92 35 51
        E 192 82 35 00
        E 48 92 39 51
        E 192 82 39 00
        E 48 92 35 51
        E 192 82 35 00
        E 48 92 32 63
        E 192 82 32 00
        E 48 92 35 63
        E 192 82 35 00
        E 48 92 39 63
        E 192 82 39 00
        E 48 92 35 63
        E 192 82 35 00
        E 48 92 32 5a
        E 192 82 32 00
        E 48 92 35 5a
        E 192 82 35 00
        E 48 92 39 5a
        E 192 82 39 00
        E 48 92 35 5a
        E 192 82 35 00
        E 48 92 32 63
        E 192 82 32 00
        E 48 92 35 63
        E 192 82 35 00
        E 48 92 39 63
        E 192 82 39 00
        E 48 92 35 63
        E 192 82 35 00
        E 48 92 32 51
        E 192 82 32 00
        E 48 92 35 51
        E 192 82 35 00
        E 48 92 39 51
        E 192 82 39 00
        E 48 92 35 51
        E 192 82 35 00
        E 48 92 32 63
        E 192 82 32 00
        E 48 92 35 63
        E 192 82 35 00
        E 1968 92 39 63
        E 192 82 39 00
        E 1248 92 32 63
        E 192 82 32 00
        E 528 92 35 63
        E 192 82 35 00
        E 48 92 32 5a
        E 192 82 32 00
        E 48 92 35 5a
        E 192 82 35 00
        E 768 92 35 63
        E 192 82 35 00
        E 1248 92 35 51
        E 192 82 35 00
        E 1248 92 35 5a
        E 192 82 35 00
        E 1488 92 32 51
        E 192 82 32 00
        E 1248 92 39 63
        E 192 82 39 00
        E 1008 92 35 5a
        E 192 82 35 00
        E 288 92 35 63
        E 192 82 35 00
        E 1008 92 39 51
        E 192 82 39 00
        E 528 92 35 63
        E 192 82 35 00
        E 288 92 35 63
        E 192 82 35 00
        E 528 92 39 5a
        E 192 82 39 00
        E 0 b2 7b 00
        E 1 ff 2f 00
      >
    >
  >
  <TRACK
    NAME "Violin1"
    PEAKCOL 4284186559
    VOLPAN 1.000000 0 1 -1
    MIDIOUT -1
    ISBUS 0 0
    <ITEM
      POSITION 2.228302
      LENGTH 42.652115
      NAME "Violin1"
      VOLPAN 1 0 1 -1
      <SOURCE MIDI
        HASDATA 1 960 QN
        E 0 c3 28 00
        E 3851 93 4a 6d
        E 576 83 4a 00
        E 7098 93 4a 71
        E 576 83 4a 00
        E 7100 93 43 6e
        E 576 83 43 00
        E 3276 93 45 6e
        E 576 83 45 00
        E 3259 93 4a 71
        E 576 83 4a 00
        E 3259 93 45 6e
        E 576 83 45 00
        E 3266 93 4a 6e
        E 576 83 4a 00
        E 3262 93 4f 73
        E 576 83 4f 00
        E 3261 93 4a 6e
        E 576 83 4a 00
        E 3276 93 4f 6d
        E 576 83 4f 00
        E 3257 93 4f 73
        E 576 83 4f 00
        E 3269 93 51 6d
        E 576 83 51 00
        E 3267 93 4f 73
        E 576 83 4f 00
        E 3257 93 51 70
        E 576 83 51 00
        E 3271 93 4f 73
        E 576 83 4f 00
        E 10936 93 56 70
        E 576 83 56 00
        E 0 b3 7b 00
        E 1 ff 2f 00
      >
    >
  >
  <TRACK
    NAME "Flute"
    PEAKCOL 4282040170
    VOLPAN 1.000000 0 1 -1
    MIDIOUT -1
    ISBUS 0 0
    <ITEM
      POSITION 5.557508
      LENGTH 40.657089
      NAME "Flute"
      VOLPAN 1 0 1 -1
      <SOURCE MIDI
        HASDATA 1 960 QN
        E 0 c4 49 00
        E 9603 94 4f 66
        E 960 84 4f 00
        E 6728 94 4a 66
        E 960 84 4a 00
        E 2878 94 45 66
        E 960 84 45 00
        E 6718 94 45 66
        E 960 84 45 00
        E 2879 94 4a 66
        E 960 84 4a 00
        E 6716 94 4a 66
        E 960 84 4a 00
        E 2885 94 4a 66
        E 960 84 4a 00
        E 6719 94 4f 66
        E 960 84 4f 00
        E 2877 94 51 66
        E 960 84 51 00
        E 6718 94 56 66
        E 960 84 56 00
        E 2883 94 5b 64
        E 960 84 5b 00
        E 10562 94 56 66
        E 960 84 56 00
        E 0 b4 7b 00
        E 1 ff 2f 00
      >
    >
  >
  <TRACK
    NAME "Mallet"
    PEAKCOL 4290756410
    VOLPAN 1.000000 0 1 -1
    MIDIOUT -1
    ISBUS 0 0
    <ITEM
      POSITION 0.170833
      LENGTH 0.202500
      NAME "Mallet"
      VOLPAN 1 0 1 -1
      <SOURCE MIDI
        HASDATA 1 960 QN
        E 0 c5 0d 00
        E 295 95 3e 47
        E 177 85 3e 00
        E 0 b5 7b 00
        E 1 ff 2f 00
      >
    >
  >
  <TRACK
    NAME "Strings"
    PEAKCOL 4284186559
    VOLPAN 1.000000 0 1 -1
    MIDIOUT -1
    ISBUS 0 0
    <ITEM
      POSITION 0.000000
      LENGTH 48.994424
      NAME "Strings"
      VOLPAN 1 0 1 -1
      <SOURCE MIDI
        HASDATA 1 960 QN
        E 0 c6 30 00
        E 0 96 44 2e
        E 4 96 3e 2e
        E 1906 86 44 00
        E 14 96 44 2e
        E 1 96 3e 2e
        E 14 86 3e 00
        E 1897 86 3e 00
        E 0 96 41 2e
        E 26 86 44 00
        E 1886 96 44 2e
        E 8 86 41 00
        E 11 96 44 2e
        E 1897 86 44 00
        E 36 86 44 00
        E 1896 96 44 2e
        E 3 96 44 2e
        E 14 96 32 2e
        E 1898 86 44 00
        E 8 86 32 00
        E 17 86 44 00
        E 3813 96 32 2e
        E 1931 86 32 00
        E 3829 96 44 2e
        E 6 96 3c 2e
        E 1 96 44 2e
        E 4 96 39 2e
        E 3 96 32 2e
        E 1 96 44 2e
        E 1 96 44 2e
        E 1893 86 44 00
        E 10 96 44 2e
        E 4 86 3c 00
        E 3 96 44 2e
        E 0 96 44 2e
        E 1 96 41 2e
        E 3 96 32 2e
        E 1 86 44 00
        E 0 86 39 00
        E 0 96 3a 2e
        E 6 96 32 2e
        E 1 86 44 00
        E 2 86 44 00
        E 2 86 32 00
        E 3 96 41 2e
        E 1885 86 44 00
        E 3 86 44 00
        E 6 86 44 00
        E 1 96 32 2e
        E 1 86 32 00
        E 1 96 44 2e
        E 1 86 41 00
        E 1 96 44 2e
        E 3 96 44 2e
        E 1 96 44 2e
        E 3 86 3a 00
        E 0 96 3a 2e
        E 9 96 44 2e
        E 2 86 32 00
        E 2 96 32 2e
        E 11 86 41 00
        E 1870 86 44 00
        E 7 86 44 00
        E 5 96 44 2e
        E 1 96 44 2e
        E 1 96 44 2e
        E 1 96 41 2e
        E 0 96 44 2e
        E 3 86 44 00
        E 1 86 32 00
        E 3 86 44 00
        E 4 86 3a 00
        E 0 86 32 00
        E 0 96 39 2e
        E 1 96 44 2e
        E 2 86 44 00
        E 7 96 32 2e
        E 1880 86 44 00
        E 10 86 44 00
        E 2 86 44 00
        E 5 96 44 2e
        E 1 86 44 00
        E 1 86 44 00
        E 4 86 41 00
        E 1 86 32 00
        E 0 96 44 2e
        E 6 86 39 00
        E 0 96 39 2e
        E 4 96 44 2e
        E 1 96 44 2e
        E 3 96 44 2e
        E 2 96 32 2e
        E 2 96 32 2e
        E 1895 86 44 00
        E 0 96 32 2e
        E 1 86 44 00
        E 4 96 44 2e
        E 3 86 44 00
        E 2 96 44 2e
        E 3 86 39 00
        E 0 96 32 2e
        E 0 96 39 2e
        E 1 96 41 2e
        E 1 86 44 00
        E 5 86 32 00
        E 1 86 32 00
        E 1 96 44 2e
        E 1 96 32 2e
        E 15 86 44 00
        E 1863 86 32 00
        E 24 96 44 2e
        E 0 96 44 2e
        E 2 86 41 00
        E 1 86 32 00
        E 5 86 39 00
        E 0 96 39 30
        E 2 96 32 2e
        E 1 96 44 2e
        E 0 96 32 2e
        E 4 86 44 00
        E 1 86 44 00
        E 0 96 32 2e
        E 3 86 32 00
        E 0 96 44 2e
        E 8 86 44 00
        E 1875 86 44 00
        E 7 86 44 00
        E 5 96 44 2e
        E 2 96 44 2e
        E 5 86 32 00
        E 4 96 3a 2e
        E 1 96 44 2e
        E 2 86 39 00
        E 0 96 37 30
        E 5 86 44 00
        E 1 96 44 2e
        E 2 96 44 2e
        E 1 96 44 2e
        E 8 86 44 00
        E 3 86 32 00
        E 6 86 32 00
        E 1865 86 44 00
        E 8 86 44 00
        E 10 96 32 2e
        E 1 96 3f 2e
        E 3 86 3a 00
        E 0 86 44 00
        E 2 86 44 00
        E 0 96 3f 2e
        E 2 96 44 2e
        E 3 86 37 00
        E 0 96 37 31
        E 10 96 44 2e
        E 1 96 44 2e
        E 1 96 32 2e
        E 9 86 44 00
        E 1 86 44 00
        E 1881 86 32 00
        E 8 96 44 2e
        E 2 96 32 2e
        E 6 86 3f 00
        E 0 96 39 2e
        E 0 96 44 2e
        E 1 86 37 00
        E 0 96 35 31
        E 1 96 44 2e
        E 2 96 41 2e
        E 1 86 3f 00
        E 1 86 44 00
        E 2 86 44 00
        E 4 96 41 2e
        E 6 86 32 00
        E 7 86 44 00
        E 1875 86 44 00
        E 8 96 44 2e
        E 1 86 44 00
        E 1 86 41 00
        E 1 86 32 00
        E 6 96 44 2e
        E 0 96 39 2e
        E 4 86 35 00
        E 0 96 35 33
        E 0 96 44 2e
        E 4 96 44 2e
        E 0 96 44 2e
        E 4 96 44 2e
        E 6 86 44 00
        E 1 86 39 00
        E 6 86 41 00
        E 1868 86 44 00
        E 16 86 39 00
        E 8 96 44 2e
        E 1 86 44 00
        E 5 96 44 2e
        E 1 86 35 00
        E 0 86 44 00
        E 0 96 35 33
        E 0 96 44 2e
        E 5 96 41 2e
        E 1 96 44 2e
        E 1 96 44 2e
        E 1 86 44 00
        E 0 96 32 2e
        E 4 86 44 00
        E 3 86 44 00
        E 1895 96 3e 2e
        E 1 86 44 00
        E 4 96 41 2e
        E 2 96 44 2e
        E 3 86 35 00
        E 0 96 44 2e
        E 0 96 35 33
        E 1 86 44 00
        E 0 96 3e 2e
        E 3 86 44 00
        E 0 96 44 2e
        E 3 86 44 00
        E 6 86 44 00
        E 0 96 44 2e
        E 5 86 41 00
        E 1 86 32 00
        E 1884 86 41 00
        E 4 96 44 2e
        E 1 86 44 00
        E 1 86 44 00
        E 2 96 39 2e
        E 3 96 44 2e
        E 4 86 44 00
        E 0 96 44 2e
        E 2 86 35 00
        E 0 96 35 33
        E 7 86 3e 00
        E 2 96 44 2e
        E 2 96 41 2e
        E 1 96 44 2e
        E 1 86 3e 00
        E 13 86 44 00
        E 1865 86 44 00
        E 14 86 39 00
        E 1 96 3e 2e
        E 4 96 44 2e
        E 1 96 39 2e
        E 2 96 44 2e
        E 0 96 44 2e
        E 1 96 32 2e
        E 6 86 35 00
        E 0 96 35 35
        E 3 86 44 00
        E 4 86 44 00
        E 3 86 44 00
        E 4 86 44 00
        E 0 96 32 2e
        E 12 86 41 00
        E 1868 86 39 00
        E 1 86 32 00
        E 12 96 41 2e
        E 4 86 44 00
        E 1 96 41 2e
        E 5 86 44 00
        E 2 86 3e 00
        E 0 96 44 2e
        E 1 86 35 00
        E 0 96 35 35
        E 7 96 44 2e
        E 3 96 39 2e
        E 0 96 32 2e
        E 1 86 44 00
        E 3 96 44 2e
        E 12 86 32 00
        E 1866 86 41 00
        E 10 86 41 00
        E 5 96 44 2e
        E 2 96 44 2e
        E 11 86 35 00
        E 0 96 35 36
        E 3 96 39 2e
        E 1 96 44 2e
        E 1 96 44 2e
        E 1 96 44 2e
        E 0 96 3c 2e
        E 2 86 44 00
        E 3 86 39 00
        E 2 86 44 00
        E 8 86 44 00
        E 0 86 32 00
        E 1873 86 44 00
        E 10 86 44 00
        E 2 96 44 2e
        E 4 86 3c 00
        E 1 96 32 2e
        E 3 96 44 2e
        E 1 96 44 2e
        E 5 86 35 00
        E 0 96 35 36
        E 1 86 44 00
        E 0 96 3e 2e
        E 2 86 44 00
        E 6 86 44 00
        E 0 96 32 2e
        E 3 86 39 00
        E 2 96 44 2e
        E 1881 86 44 00
        E 11 86 44 00
        E 0 96 32 2e
        E 3 86 44 00
        E 0 86 3e 00
        E 1 96 3e 2e
        E 3 96 44 2e
        E 7 86 35 00
        E 0 96 35 38
        E 4 86 32 00
        E 0 96 44 2e
        E 0 96 44 2e
        E 2 96 41 2e
        E 1 86 32 00
        E 3 96 32 2e
        E 15 86 44 00
        E 1868 86 3e 00
        E 14 86 44 00
        E 0 96 44 2e
        E 2 96 32 2e
        E 2 96 32 2e
        E 3 86 44 00
        E 6 86 35 00
        E 0 96 35 38
        E 1 96 32 2e
        E 0 96 44 2e
        E 2 86 32 00
        E 0 86 44 00
        E 3 96 44 2e
        E 2 86 41 00
        E 0 86 32 00
        E 6 96 41 2e
        E 1886 86 32 00
        E 7 96 41 2e
        E 0 96 44 2e
        E 6 96 39 2e
        E 1 96 44 2e
        E 2 86 44 00
        E 0 86 44 00
        E 2 86 44 00
        E 2 86 35 00
        E 0 96 35 38
        E 1 86 32 00
        E 6 96 44 2e
        E 2 86 41 00
        E 2 86 32 00
        E 0 96 32 2e
        E 0 96 41 2e
        E 1879 86 44 00
        E 8 86 44 00
        E 9 96 3e 2e
        E 2 86 44 00
        E 1 96 44 2e
        E 4 96 39 2e
        E 3 86 41 00
        E 3 86 35 00
        E 0 96 44 2e
        E 0 96 35 38
        E 3 86 41 00
        E 2 86 39 00
        E 0 96 44 2e
        E 1 96 44 2e
        E 3 96 44 2e
        E 5 86 32 00
        E 1893 86 3e 00
        E 4 86 44 00
        E 3 96 44 2e
        E 5 86 44 00
        E 0 96 44 2e
        E 1 86 44 00
        E 0 86 35 00
        E 0 96 41 2e
        E 0 96 35 3a
        E 1 96 3e 2e
        E 2 86 39 00
        E 0 96 41 2e
        E 8 96 44 2e
        E 0 96 44 2e
        E 9 86 44 00
        E 5 86 44 00
        E 1880 86 41 00
        E 3 86 3e 00
        E 1 96 44 2e
        E 2 86 44 00
        E 0 96 44 2e
        E 1 96 44 2e
        E 2 86 44 00
        E 3 96 3c 2e
        E 2 96 44 2e
        E 1 86 35 00
        E 0 86 41 00
        E 0 96 35 3a
        E 7 96 44 2e
        E 1 86 44 00
        E 5 96 39 2e
        E 2 86 44 00
        E 1890 86 44 00
        E 0 86 44 00
        E 3 86 44 00
        E 6 96 44 2e
        E 2 86 3c 00
        E 3 86 39 00
        E 1 86 35 00
        E 2 86 44 00
        E 4 86 44 00
        E 1890 86 44 00
        E 24 96 35 3b
        E 13 96 44 2e
        E 1907 86 35 00
        E 22 86 44 00
        E 3816 96 32 2e
        E 2 96 35 3e
        E 9 96 32 2e
        E 1903 86 32 00
        E 4 96 44 2e
        E 4 86 35 00
        E 5 96 41 2e
        E 2 96 3e 2e
        E 2 86 32 00
        E 1915 86 41 00
        E 2 86 44 00
        E 2 86 3e 00
        E 1924 96 32 2e
        E 1902 86 32 00
        E 11 96 32 2e
        E 1925 86 32 00
        E 0 b6 7b 00
        E 1 ff 2f 00
      >
    >
  >
  <TRACK
    NAME "Bass"
    PEAKCOL 4286528191
    VOLPAN 1.000000 0 1 -1
    MIDIOUT -1
    ISBUS 0 0
    <ITEM
      POSITION 0.000000
      LENGTH 48.493333
      NAME "Bass"
      VOLPAN 1 0 1 -1
      <SOURCE MIDI
        HASDATA 1 960 QN
        E 0 c7 2b 00
        E 0 97 26 75
        E 104 87 26 00
        E 856 97 26 75
        E 104 87 26 00
        E 856 97 21 75
        E 104 87 21 00
        E 856 97 26 75
        E 104 87 26 00
        E 856 97 26 75
        E 104 87 26 00
        E 856 97 26 75
        E 104 87 26 00
        E 856 97 21 75
        E 104 87 21 00
        E 856 97 1f 75
        E 104 87 1f 00
        E 856 97 1c 75
        E 104 87 1c 00
        E 856 97 1f 75
        E 104 87 1f 00
        E 856 97 21 75
        E 104 87 21 00
        E 856 97 1f 75
        E 104 87 1f 00
        E 856 97 1c 75
        E 104 87 1c 00
        E 856 97 1f 75
        E 104 87 1f 00
        E 856 97 21 75
        E 104 87 21 00
        E 856 97 1f 75
        E 104 87 1f 00
        E 856 97 1c 75
        E 104 87 1c 00
        E 856 97 1f 75
        E 104 87 1f 00
        E 856 97 21 75
        E 104 87 21 00
        E 856 97 21 75
        E 104 87 21 00
        E 856 97 26 75
        E 104 87 26 00
        E 856 97 26 75
        E 104 87 26 00
        E 856 97 21 75
        E 104 87 21 00
        E 856 97 26 75
        E 104 87 26 00
        E 856 97 26 75
        E 104 87 26 00
        E 856 97 26 75
        E 104 87 26 00
        E 856 97 21 75
        E 104 87 21 00
        E 856 97 21 75
        E 104 87 21 00
        E 856 97 26 75
        E 104 87 26 00
        E 856 97 2b 75
        E 104 87 2b 00
        E 856 97 2d 75
        E 104 87 2d 00
        E 856 97 2d 75
        E 104 87 2d 00
        E 856 97 32 75
        E 104 87 32 00
        E 856 97 37 75
        E 104 87 37 00
        E 856 97 37 75
        E 104 87 37 00
        E 856 97 37 75
        E 104 87 37 00
        E 856 97 32 75
        E 104 87 32 00
        E 856 97 32 75
        E 104 87 32 00
        E 856 97 2d 75
        E 104 87 2d 00
        E 856 97 32 75
        E 104 87 32 00
        E 856 97 32 75
        E 104 87 32 00
        E 856 97 2d 75
        E 104 87 2d 00
        E 856 97 2d 75
        E 104 87 2d 00
        E 856 97 32 75
        E 104 87 32 00
        E 856 97 32 75
        E 104 87 32 00
        E 856 97 32 75
        E 104 87 32 00
        E 856 97 2d 75
        E 104 87 2d 00
        E 856 97 2d 75
        E 104 87 2d 00
        E 856 97 32 75
        E 104 87 32 00
        E 856 97 37 75
        E 104 87 37 00
        E 856 97 37 75
        E 104 87 37 00
        E 856 97 37 75
        E 104 87 37 00
        E 856 97 37 75
        E 104 87 37 00
        E 856 97 37 75
        E 104 87 37 00
        E 856 97 37 75
        E 104 87 37 00
        E 856 97 37 75
        E 104 87 37 00
        E 856 97 32 75
        E 104 87 32 00
        E 856 97 37 75
        E 104 87 37 00
        E 856 97 37 75
        E 104 87 37 00
        E 856 97 32 75
        E 104 87 32 00
        E 856 97 32 75
        E 104 87 32 00
        E 856 97 32 75
        E 104 87 32 00
        E 856 97 2d 75
        E 104 87 2d 00
        E 856 97 2d 75
        E 104 87 2d 00
        E 856 97 32 75
        E 104 87 32 00
        E 856 97 32 75
        E 104 87 32 00
        E 856 97 2d 75
        E 104 87 2d 00
        E 856 97 2d 75
        E 104 87 2d 00
        E 856 97 32 75
        E 104 87 32 00
        E 856 97 37 75
        E 104 87 37 00
        E 856 97 37 75
        E 104 87 37 00
        E 856 97 32 75
        E 104 87 32 00
        E 856 97 32 75
        E 104 87 32 00
        E 856 97 37 75
        E 104 87 37 00
        E 856 97 37 75
        E 104 87 37 00
        E 856 97 37 75
        E 104 87 37 00
        E 856 97 32 75
        E 104 87 32 00
        E 856 97 2d 75
        E 104 87 2d 00
        E 856 97 2d 75
        E 104 87 2d 00
        E 856 97 2b 75
        E 104 87 2b 00
        E 856 97 26 75
        E 104 87 26 00
        E 856 97 26 75
        E 104 87 26 00
        E 856 97 21 75
        E 104 87 21 00
        E 856 97 1f 75
        E 104 87 1f 00
        E 856 97 1c 75
        E 104 87 1c 00
        E 856 97 1c 75
        E 104 87 1c 00
        E 856 97 21 75
        E 104 87 21 00
        E 856 97 26 75
        E 104 87 26 00
        E 0 b7 7b 00
        E 1 ff 2f 00
      >
    >
  >
  <TRACK
    NAME "Timpani"
    PEAKCOL 4290722362
    VOLPAN 1.000000 0 1 -1
    MIDIOUT -1
    ISBUS 0 0
    <ITEM
      POSITION 1.111111
      LENGTH 47.655556
      NAME "Timpani"
      VOLPAN 1 0 1 -1
      <SOURCE MIDI
        HASDATA 1 960 QN
        E 0 c8 2f 00
        E 1920 98 2d 70
        E 1536 88 2d 00
        E 2304 98 39 6e
        E 1536 88 39 00
        E 6144 98 2d 73
        E 1536 88 2d 00
        E 2304 98 2d 70
        E 1536 88 2d 00
        E 384 98 26 75
        E 1920 98 39 6b
        E 1344 88 26 00
        E 192 88 39 00
        E 384 98 26 77
        E 1920 98 2d 71
        E 1344 88 26 00
        E 192 88 2d 00
        E 384 98 26 77
        E 1920 98 2d 70
        E 1344 88 26 00
        E 192 88 2d 00
        E 384 98 26 75
        E 1920 98 2d 6d
        E 1344 88 26 00
        E 192 88 2d 00
        E 384 98 26 77
        E 1920 98 3a 70
        E 1344 88 26 00
        E 192 88 3a 00
        E 384 98 26 77
        E 1920 98 39 70
        E 1344 88 26 00
        E 192 88 39 00
        E 384 98 26 75
        E 1920 98 2d 6b
        E 1344 88 26 00
        E 192 88 2d 00
        E 384 98 26 77
        E 1920 98 2d 70
        E 1344 88 26 00
        E 192 88 2d 00
        E 384 98 26 75
        E 1920 98 39 6d
        E 1344 88 26 00
        E 192 88 39 00
        E 384 98 26 77
        E 1920 98 2d 70
        E 1344 88 26 00
        E 192 88 2d 00
        E 384 98 26 77
        E 1920 98 2d 73
        E 1344 88 26 00
        E 192 88 2d 00
        E 384 98 26 77
        E 1920 98 2d 73
        E 1344 88 26 00
        E 192 88 2d 00
        E 384 98 26 77
        E 1920 98 39 73
        E 1344 88 26 00
        E 192 88 39 00
        E 384 98 26 75
        E 1920 98 2d 6b
        E 1344 88 26 00
        E 192 88 2d 00
        E 2304 98 2d 70
        E 1536 88 2d 00
        E 384 98 26 77
        E 3264 88 26 00
        E 2496 98 3a 6d
        E 1536 88 3a 00
        E 0 b8 7b 00
        E 1 ff 2f 00
      >
    >
  >
>
