<REAPER_PROJECT 0.1 "7.0" 1700000000
  TEMPO 68.000000 4 4
  SAMPLERATE 48000 0 0
  RENDER_FILE ""
  RENDER_FMT 0 2 0
  RENDER_1X 0
  RENDER_RANGE 1 0 98.252076 0 0
  RENDER_RESAMPLE 3 0 1
  <MASTERTRACK
    VOLPAN 1 0 1 -1
    DEFCHAN 0
  >
  <TRACK
    NAME "Lead"
    PEAKCOL 4284506208
    VOLPAN 1.000000 0 1 -1
    MIDIOUT -1
    ISBUS 0 0
    <ITEM
      POSITION 0.000000
      LENGTH 96.352076
      NAME "Lead"
      VOLPAN 1 0 1 -1
      <SOURCE MIDI
        HASDATA 1 960 QN
        E 0 c0 44 00
        E 0 90 4c 7d
        E 1158 80 4c 00
        E 90 90 4c 67
        E 1158 80 4c 00
        E 52 90 4c 7b
        E 1053 80 4c 00
        E 205 90 4c 67
        E 1053 80 4c 00
        E 177 90 4c 7c
        E 531 80 4c 00
        E 81 90 4e 67
        E 240 80 4e 00
        E 371 90 53 75
        E 478 80 53 00
        E 321 90 53 73
        E 240 80 53 00
        E 559 90 4e 7d
        E 239 80 4e 00
        E 634 90 4e 7d
        E 800 90 4e 67
        E 240 80 4e 00
        E 560 90 53 67
        E 151 80 4e 00
        E 725 90 53 71
        E 177 80 53 00
        E 876 80 53 00
        E 182 90 53 67
        E 531 80 53 00
        E 700 90 53 67
        E 928 90 53 69
        E 125 80 53 00
        E 115 80 53 00
        E 688 90 58 7d
        E 1158 80 58 00
        E 75 90 58 69
        E 1158 80 58 00
        E 57 90 58 71
        E 1053 80 58 00
        E 188 90 58 67
        E 1053 80 58 00
        E 186 90 58 67
        E 621 90 53 67
        E 240 80 53 00
        E 192 80 58 00
        E 189 90 53 75
        E 239 80 53 00
        E 981 90 53 67
        E 239 80 53 00
        E 434 90 53 67
        E 239 80 53 00
        E 434 90 4e 67
        E 1134 90 4e 7c
        E 24 80 4e 00
        E 1029 80 4e 00
        E 521 90 4c 7d
        E 1006 90 4c 7d
        E 47 80 4c 00
        E 749 80 4c 00
        E 331 90 4e 67
        E 265 80 4e 00
        E 948 90 4c 67
        E 948 80 4c 00
        E 541 90 4e 7d
        E 876 80 4e 00
        E 483 90 4e 67
        E 861 90 4e 71
        E 192 80 4e 00
        E 861 80 4e 00
        E 175 90 4c 73
        E 531 80 4c 00
        E 712 90 4e 7d
        E 1221 90 4c 67
        E 902 80 4e 00
        E 46 80 4c 00
        E 302 90 4e 67
        E 1158 80 4e 00
        E 198 90 4c 7d
        E 1053 80 4c 00
        E 58 90 4e 7d
        E 1053 80 4e 00
        E 184 90 4e 7c
        E 265 80 4e 00
        E 1572 90 4e 67
        E 625 90 4e 73
        E 428 80 4e 00
        E 520 80 4e 00
        E 296 90 4c 67
        E 584 80 4c 00
        E 1503 90 4e 67
        E 338 90 4e 67
        E 240 80 4e 00
        E 98 90 53 67
        E 240 80 53 00
        E 97 90 53 67
        E 40 80 4e 00
        E 200 80 53 00
        E 98 90 58 67
        E 875 90 58 69
        E 178 80 58 00
        E 450 90 58 73
        E 168 80 58 00
        E 885 80 58 00
        E 414 90 58 67
        E 948 80 58 00
        E 44 90 58 67
        E 626 90 58 7a
        E 322 80 58 00
        E 836 80 58 00
        E 55 90 58 69
        E 796 80 58 00
        E 452 90 58 71
        E 531 80 58 00
        E 695 90 58 73
        E 630 90 58 7d
        E 423 80 58 00
        E 630 80 58 00
        E 184 90 58 6e
        E 598 90 58 7d
        E 455 80 58 00
        E 493 80 58 00
        E 917 90 58 7d
        E 1158 80 58 00
        E 439 90 58 7c
        E 531 80 58 00
        E 23 90 53 67
        E 240 80 53 00
        E 314 90 53 67
        E 992 90 53 71
        E 61 80 53 00
        E 992 80 53 00
        E 190 90 53 7d
        E 1219 90 53 67
        E 610 90 53 67
        E 294 80 53 00
        E 44 80 53 00
        E 288 90 53 67
        E 240 80 53 00
        E 82 80 53 00
        E 305 90 4e 67
        E 292 80 4e 00
        E 924 90 4e 73
        E 619 90 4e 67
        E 240 80 4e 00
        E 194 80 4e 00
        E 184 90 53 71
        E 265 80 53 00
        E 980 90 53 73
        E 265 80 53 00
        E 976 90 53 73
        E 948 80 53 00
        E 521 90 53 67
        E 478 80 53 00
        E 499 90 53 78
        E 876 80 53 00
        E 385 90 53 67
        E 265 80 53 00
        E 954 90 53 7d
        E 531 80 53 00
        E 86 90 53 67
        E 240 80 53 00
        E 376 90 58 6c
        E 608 90 58 6e
        E 445 80 58 00
        E 608 80 58 00
        E 201 90 58 67
        E 670 90 53 67
        E 46 80 58 00
        E 194 80 53 00
        E 430 90 53 67
        E 1125 90 53 75
        E 33 80 53 00
        E 551 80 53 00
        E 633 90 53 7d
        E 531 80 53 00
        E 713 90 53 78
        E 1053 80 53 00
        E 177 90 53 6c
        E 265 80 53 00
        E 361 90 53 67
        E 240 80 53 00
        E 386 90 4e 69
        E 614 90 4e 67
        E 102 80 4e 00
        E 138 80 4e 00
        E 375 90 53 67
        E 716 80 53 00
        E 506 90 53 75
        E 1158 80 53 00
        E 78 90 53 67
        E 1053 80 53 00
        E 434 90 53 6e
        E 994 90 53 7d
        E 59 80 53 00
        E 994 80 53 00
        E 170 90 53 67
        E 265 80 53 00
        E 979 90 53 69
        E 716 80 53 00
        E 512 90 53 67
        E 584 80 53 00
        E 771 90 53 67
        E 1100 90 53 67
        E 531 80 53 00
        E 98 90 53 67
        E 394 80 53 00
        E 659 80 53 00
        E 0 b0 7b 00
        E 1 ff 2f 00
      >
    >
  >
  <TRACK
    NAME "Drone"
    PEAKCOL 4284506208
    VOLPAN 1.000000 0 1 -1
    MIDIOUT -1
    ISBUS 0 0
    <ITEM
      POSITION 0.000000
      LENGTH 95.394118
      NAME "Drone"
      VOLPAN 1 0 1 -1
      <SOURCE MIDI
        HASDATA 1 960 QN
        E 0 c1 30 00
        E 0 91 42 02
        E 0 91 47 02
        E 103680 81 42 00
        E 0 81 47 00
        E 0 b1 7b 00
        E 1 ff 2f 00
      >
    >
  >
  <TRACK
    NAME "Drone2"
    PEAKCOL 4284506208
    VOLPAN 1.000000 0 1 -1
    MIDIOUT -1
    ISBUS 0 0
    <ITEM
      POSITION 0.000000
      LENGTH 95.394118
      NAME "Drone2"
      VOLPAN 1 0 1 -1
      <SOURCE MIDI
        HASDATA 1 960 QN
        E 0 c2 30 00
        E 0 92 47 4c
        E 0 92 53 4c
        E 103680 82 47 00
        E 0 82 53 00
        E 0 b2 7b 00
        E 1 ff 2f 00
      >
    >
  >
  <TRACK
    NAME "Strings"
    PEAKCOL 4284186559
    VOLPAN 1.000000 0 1 -1
    MIDIOUT -1
    ISBUS 0 0
    <ITEM
      POSITION 0.000000
      LENGTH 95.394118
      NAME "Strings"
      VOLPAN 1 0 1 -1
      <SOURCE MIDI
        HASDATA 1 960 QN
        E 0 c3 30 00
        E 0 93 3e 40
        E 0 93 44 40
        E 2 93 42 40
        E 1900 83 44 00
        E 14 83 3e 00
        E 4 93 44 40
        E 2 93 30 40
        E 3 93 3e 40
        E 4 93 44 40
        E 12 83 42 00
        E 1885 83 30 00
        E 0 93 44 40
        E 11 83 44 00
        E 0 83 44 00
        E 3 93 3b 40
        E 1 93 44 40
        E 1 83 3e 00
        E 1898 83 44 00
        E 17 93 43 40
        E 3 83 3b 00
        E 3 93 44 40
        E 3 83 44 00
        E 1904 83 43 00
        E 31 83 44 00
        E 1885 93 44 40
        E 3 93 43 40
        E 11 93 44 40
        E 8 93 43 40
        E 1 93 44 40
        E 1895 83 44 00
        E 5 83 43 00
        E 14 83 44 00
        E 7 93 30 40
        E 8 83 44 00
        E 6 83 43 00
        E 1895 93 44 40
        E 1 93 3b 42
        E 20 83 30 00
        E 1881 83 44 00
        E 10 93 44 40
        E 6 93 42 40
        E 3 83 3b 00
        E 9 93 44 40
        E 1907 83 44 00
        E 3 93 44 40
        E 14 83 44 00
        E 2 83 42 00
        E 1908 83 44 00
        E 1 93 44 40
        E 1903 93 44 40
        E 2 93 30 40
        E 6 93 44 40
        E 5 93 44 40
        E 0 93 3b 47
        E 3 83 44 00
        E 6 93 44 40
        E 1 93 30 40
        E 3 93 3e 40
        E 1875 83 44 00
        E 5 83 30 00
        E 14 93 44 40
        E 3 83 44 00
        E 1 93 44 40
        E 3 93 44 40
        E 5 83 44 00
        E 1 83 3b 00
        E 0 93 3c 49
        E 2 93 40 40
        E 3 93 43 40
        E 3 93 44 40
        E 5 93 44 40
        E 5 83 44 00
        E 10 83 30 00
        E 3 83 3e 00
        E 1864 83 44 00
        E 11 83 44 00
        E 12 83 44 00
        E 0 93 44 40
        E 0 93 44 40
        E 1 93 40 40
        E 1 83 3c 00
        E 0 93 3c 4c
        E 2 83 44 00
        E 0 83 40 00
        E 2 83 44 00
        E 3 93 30 40
        E 2 93 44 40
        E 1 93 43 40
        E 3 93 44 40
        E 3 83 43 00
        E 1889 83 44 00
        E 3 93 44 40
        E 0 93 44 40
        E 7 83 43 00
        E 3 83 40 00
        E 1 93 30 40
        E 1 83 3c 00
        E 0 83 30 00
        E 0 93 3b 4c
        E 8 83 44 00
        E 0 93 44 40
        E 1 93 3e 40
        E 1 93 44 40
        E 2 93 44 40
        E 1 83 44 00
        E 2 83 44 00
        E 1888 83 30 00
        E 9 83 44 00
        E 0 93 30 40
        E 4 93 44 40
        E 2 83 3e 00
        E 1 83 44 00
        E 1 83 3b 00
        E 0 83 44 00
        E 0 93 3b 4c
        E 1 83 44 00
        E 4 93 3e 40
        E 0 93 44 40
        E 1 93 44 40
        E 0 93 44 40
        E 3 83 44 00
        E 3 93 44 40
        E 1894 93 30 40
        E 2 83 44 00
        E 1 83 30 00
        E 0 93 44 40
        E 3 83 44 00
        E 1 93 30 40
        E 3 93 44 40
        E 4 83 3b 00
        E 0 83 44 00
        E 0 93 3b 4e
        E 3 93 44 40
        E 5 93 44 40
        E 1 83 44 00
        E 0 93 42 40
        E 14 83 3e 00
        E 0 83 44 00
        E 1883 83 44 00
        E 1 83 44 00
        E 1 83 44 00
        E 1 93 44 40
        E 0 93 42 40
        E 2 83 44 00
        E 3 83 30 00
        E 1 93 30 40
        E 5 83 3b 00
        E 0 93 3b 51
        E 3 93 44 40
        E 2 83 30 00
        E 2 83 42 00
        E 1 93 3e 40
        E 5 93 44 40
        E 1 93 44 40
        E 1895 93 40 40
        E 2 93 30 40
        E 2 83 30 00
        E 1 83 44 00
        E 0 93 40 40
        E 0 93 44 40
        E 5 93 44 40
        E 1 83 3b 00
        E 0 93 3c 53
        E 3 83 42 00
        E 1 83 44 00
        E 4 93 44 40
        E 2 93 44 40
        E 2 83 44 00
        E 12 83 3e 00
        E 3 83 44 00
        E 1870 83 40 00
        E 1 83 30 00
        E 10 83 44 00
        E 1 83 44 00
        E 0 93 44 40
        E 4 93 44 40
        E 1 93 30 40
        E 4 83 40 00
        E 2 83 3c 00
        E 0 93 3c 53
        E 1 93 44 40
        E 4 93 44 40
        E 1 83 44 00
        E 0 93 44 40
        E 3 83 44 00
        E 2 93 44 40
        E 1895 83 44 00
        E 0 93 44 40
        E 1 83 44 00
        E 2 83 44 00
        E 4 93 44 40
        E 4 93 44 40
        E 1 93 44 40
        E 1 93 43 40
        E 0 93 44 40
        E 1 83 3c 00
        E 0 93 3e 53
        E 1 83 44 00
        E 11 83 30 00
        E 0 93 44 40
        E 4 83 44 00
        E 2 83 44 00
        E 1891 83 44 00
        E 0 93 44 40
        E 4 83 44 00
        E 3 83 44 00
        E 4 83 3e 00
        E 0 93 3e 56
        E 1 83 44 00
        E 0 93 44 40
        E 0 93 44 40
        E 3 83 44 00
        E 1 93 30 40
        E 4 93 44 40
        E 1 83 43 00
        E 1 83 44 00
        E 3 93 44 40
        E 0 93 44 40
        E 1885 83 44 00
        E 10 93 44 40
        E 9 93 44 40
        E 2 83 3e 00
        E 0 83 44 00
        E 0 93 3e 58
        E 3 93 30 40
        E 0 93 42 40
        E 2 93 44 40
        E 1 93 44 40
        E 4 83 44 00
        E 1 93 44 40
        E 8 83 30 00
        E 0 83 44 00
        E 8 83 44 00
        E 4 83 44 00
        E 1877 83 44 00
        E 3 93 44 40
        E 0 93 44 40
        E 9 83 3e 00
        E 0 93 3e 5b
        E 3 83 44 00
        E 0 83 44 00
        E 1 93 44 40
        E 4 93 44 40
        E 2 83 30 00
        E 3 93 44 40
        E 1 93 44 40
        E 0 93 44 40
        E 1 83 44 00
        E 1 83 42 00
        E 0 83 44 00
        E 1892 93 44 40
        E 0 93 44 40
        E 1 83 44 00
        E 7 83 44 00
        E 0 93 44 40
        E 4 83 3e 00
        E 0 93 3e 5d
        E 1 83 44 00
        E 0 83 44 00
        E 2 93 44 40
        E 1 93 44 40
        E 0 93 42 40
        E 0 93 44 40
        E 5 83 44 00
        E 1 83 44 00
        E 11 83 44 00
        E 1869 83 44 00
        E 8 83 44 00
        E 2 83 44 00
        E 6 93 44 40
        E 6 93 44 40
        E 0 93 44 40
        E 1 83 44 00
        E 1 83 44 00
        E 4 83 44 00
        E 0 93 42 40
        E 2 83 3e 00
        E 0 93 3e 5d
        E 2 93 44 40
        E 3 93 44 40
        E 2 93 44 40
        E 14 83 42 00
        E 1879 83 44 00
        E 3 83 44 00
        E 8 83 44 00
        E 1 83 44 00
        E 0 93 44 40
        E 5 93 44 40
        E 1 93 44 40
        E 1 93 44 40
        E 1 83 3e 00
        E 0 93 3e 5d
        E 1 83 44 00
        E 3 93 30 40
        E 3 83 44 00
        E 4 93 44 40
        E 3 93 43 40
        E 3 83 42 00
        E 1878 83 44 00
        E 12 93 32 40
        E 0 93 44 40
        E 2 93 43 40
        E 7 83 44 00
        E 3 83 43 00
        E 0 93 44 40
        E 1 83 44 00
        E 0 83 3e 00
        E 0 93 3e 5d
        E 7 83 30 00
        E 0 93 44 40
        E 3 83 44 00
        E 0 93 30 40
        E 1 93 44 40
        E 14 83 44 00
        E 1870 83 43 00
        E 3 83 44 00
        E 13 93 44 40
        E 1 93 30 40
        E 1 93 44 40
        E 7 83 3e 00
        E 0 93 3c 5d
        E 1 83 32 00
        E 4 83 44 00
        E 4 93 44 40
        E 1 83 44 00
        E 0 93 44 40
        E 2 93 44 40
        E 1 93 44 40
        E 7 83 30 00
        E 10 83 44 00
        E 1874 83 44 00
        E 5 93 44 40
        E 2 93 30 40
        E 3 93 44 40
        E 3 83 44 00
        E 1 93 43 40
        E 2 83 3c 00
        E 0 83 44 00
        E 0 93 3c 5d
        E 1 83 30 00
        E 0 93 44 40
        E 7 83 44 00
        E 3 93 30 40
        E 1 93 44 40
        E 8 83 44 00
        E 9 83 44 00
        E 1878 93 44 40
        E 1 83 44 00
        E 0 93 44 40
        E 3 93 44 40
        E 1 83 30 00
        E 0 93 42 40
        E 1 93 44 40
        E 1 93 44 40
        E 4 83 43 00
        E 2 83 3c 00
        E 0 93 3b 5b
        E 5 93 42 40
        E 6 83 44 00
        E 0 83 44 00
        E 6 83 44 00
        E 2 83 30 00
        E 1880 83 42 00
        E 3 83 44 00
        E 6 93 44 40
        E 3 83 44 00
        E 1 83 44 00
        E 6 83 44 00
        E 0 83 42 00
        E 2 83 3b 00
        E 0 93 3b 58
        E 2 93 3e 40
        E 3 83 44 00
        E 0 93 44 40
        E 4 93 44 40
        E 0 93 42 40
        E 3 93 44 40
        E 2 93 30 40
        E 1876 83 44 00
        E 19 83 44 00
        E 0 93 44 40
        E 0 93 44 40
        E 2 93 44 40
        E 3 93 42 40
        E 1 83 3e 00
        E 5 83 3b 00
        E 0 93 30 40
        E 0 93 3b 56
        E 1 83 30 00
        E 0 93 44 40
        E 4 93 44 40
        E 5 83 44 00
        E 0 83 42 00
        E 4 83 44 00
        E 1878 83 44 00
        E 12 83 44 00
        E 3 93 44 40
        E 5 93 44 40
        E 2 83 44 00
        E 1 93 44 40
        E 1 83 42 00
        E 2 93 30 40
        E 2 83 3b 00
        E 0 93 3e 40
        E 0 93 3b 53
        E 0 93 44 40
        E 1 83 44 00
        E 4 83 30 00
        E 0 93 30 40
        E 1 83 44 00
        E 1901 83 30 00
        E 2 83 44 00
        E 0 93 30 40
        E 2 93 44 40
        E 3 93 44 40
        E 3 93 44 40
        E 2 83 3e 00
        E 1 83 44 00
        E 0 83 3b 00
        E 0 93 3b 53
        E 3 83 44 00
        E 2 93 44 40
        E 2 83 44 00
        E 3 93 3e 40
        E 0 93 44 40
        E 3 83 30 00
        E 1882 83 44 00
        E 5 83 44 00
        E 4 83 44 00
        E 2 93 44 40
        E 1 93 44 40
        E 0 93 44 40
        E 11 83 30 00
        E 2 83 3b 00
        E 0 93 3b 53
        E 1 83 3e 00
        E 0 93 3e 40
        E 5 93 30 40
        E 1 93 44 40
        E 3 93 44 40
        E 4 83 44 00
        E 12 83 44 00
        E 1877 83 44 00
        E 1 83 3e 00
        E 5 83 44 00
        E 0 93 43 40
        E 5 93 44 40
        E 2 93 44 40
        E 4 83 3b 00
        E 0 93 3c 51
        E 3 83 30 00
        E 2 83 44 00
        E 2 93 30 40
        E 0 93 44 40
        E 1 93 43 40
        E 0 93 30 40
        E 9 83 44 00
        E 6 83 44 00
        E 1868 83 43 00
        E 6 83 44 00
        E 10 93 43 40
        E 2 93 44 40
        E 1 93 44 40
        E 1 83 44 00
        E 6 83 43 00
        E 3 83 3c 00
        E 0 93 3c 4e
        E 3 93 44 40
        E 1 83 44 00
        E 2 93 44 40
        E 0 93 30 40
        E 7 93 40 40
        E 13 83 30 00
        E 1 83 30 00
        E 1868 83 44 00
        E 11 93 44 40
        E 2 93 44 40
        E 5 83 44 00
        E 0 93 44 40
        E 0 93 30 40
        E 7 83 3c 00
        E 0 93 3b 4c
        E 1 83 40 00
        E 1 93 44 40
        E 1 83 44 00
        E 3 83 43 00
        E 1 83 30 00
        E 4 93 42 40
        E 3 93 3e 40
        E 1 83 44 00
        E 1874 83 44 00
        E 6 83 44 00
        E 13 83 44 00
        E 0 83 44 00
        E 0 93 42 40
        E 6 83 30 00
        E 2 93 44 40
        E 0 93 3e 40
        E 4 83 3b 00
        E 0 83 3e 00
        E 0 93 3b 4c
        E 1 93 44 40
        E 4 93 30 40
        E 1 83 42 00
        E 0 93 44 40
        E 4 93 44 40
        E 1898 83 42 00
        E 0 93 44 40
        E 1 93 44 40
        E 2 93 44 40
        E 1 93 30 40
        E 1 83 44 00
        E 0 83 44 00
        E 1 83 30 00
        E 2 83 44 00
        E 2 93 3e 40
        E 2 83 3b 00
        E 0 93 3b 4c
        E 7 93 44 40
        E 1 83 44 00
        E 1 93 42 40
        E 1 83 3e 00
        E 1895 83 44 00
        E 2 93 42 40
        E 6 83 30 00
        E 2 93 44 40
        E 2 83 3e 00
        E 1 83 44 00
        E 2 83 44 00
        E 0 83 3b 00
        E 0 93 3b 49
        E 2 93 44 40
        E 3 93 44 40
        E 4 83 44 00
        E 2 83 42 00
        E 0 93 44 40
        E 0 93 30 40
        E 1 93 30 40
        E 1894 93 44 40
        E 2 93 44 40
        E 3 83 42 00
        E 1 93 44 40
        E 1 83 44 00
        E 7 83 3b 00
        E 0 93 3c 47
        E 2 83 44 00
        E 0 93 44 40
        E 2 93 30 40
        E 0 93 44 40
        E 3 93 44 40
        E 8 83 44 00
        E 1 83 30 00
        E 2 83 30 00
        E 4 83 44 00
        E 1884 83 30 00
        E 0 83 44 00
        E 3 83 44 00
        E 0 83 44 00
        E 7 93 40 40
        E 2 83 44 00
        E 1 93 44 40
        E 1 83 3c 00
        E 0 93 44 40
        E 0 93 3c 47
        E 1 93 44 40
        E 1 93 44 40
        E 1 83 44 00
        E 1 93 44 40
        E 1 93 44 40
        E 11 83 44 00
        E 1882 83 40 00
        E 12 83 44 00
        E 1 93 43 40
        E 6 83 44 00
        E 1 83 44 00
        E 2 83 3c 00
        E 0 93 3e 45
        E 3 93 44 40
        E 5 83 44 00
        E 0 93 44 40
        E 2 83 44 00
        E 5 83 44 00
        E 1878 83 43 00
        E 19 83 44 00
        E 8 83 3e 00
        E 2 93 44 40
        E 8 83 44 00
        E 1903 83 44 00
        E 17 93 42 40
        E 1901 83 42 00
        E 5 93 44 40
        E 3 93 42 40
        E 1911 93 44 40
        E 9 93 44 40
        E 1 83 42 00
        E 11 83 44 00
        E 1907 93 44 40
        E 1 83 44 00
        E 2 93 30 40
        E 6 83 44 00
        E 1913 93 3e 40
        E 9 83 44 00
        E 2 93 44 40
        E 1 83 30 00
        E 1896 93 44 40
        E 3 93 44 40
        E 9 83 3e 00
        E 27 83 44 00
        E 1862 83 44 00
        E 19 83 44 00
        E 8 93 43 40
        E 1 93 43 40
        E 6 93 30 40
        E 10 93 44 40
        E 1897 93 43 40
        E 9 83 30 00
        E 1 83 43 00
        E 0 93 3c 40
        E 1 93 30 40
        E 1 83 43 00
        E 2 93 44 40
        E 2 83 44 00
        E 1903 83 30 00
        E 5 83 43 00
        E 3 83 44 00
        E 3 83 3c 00
        E 0 b3 7b 00
        E 1 ff 2f 00
      >
    >
  >
  <TRACK
    NAME "Tremolo"
    PEAKCOL 4284186559
    VOLPAN 1.000000 0 1 -1
    MIDIOUT -1
    ISBUS 0 0
    <ITEM
      POSITION 0.261629
      LENGTH 94.994504
      NAME "Tremolo"
      VOLPAN 1 0 1 -1
      <SOURCE MIDI
        HASDATA 1 960 QN
        E 0 c4 2c 00
        E 285 94 3b 3d
        E 274 84 3b 00
        E 207 94 3b 47
        E 182 84 3b 00
        E 586 94 3b 51
        E 182 84 3b 00
        E 203 94 3b 53
        E 182 84 3b 00
        E 7 94 3b 60
        E 182 84 3b 00
        E 203 94 3b 56
        E 182 84 3b 00
        E 12 94 3b 45
        E 182 84 3b 00
        E 392 94 3b 4c
        E 182 84 3b 00
        E 401 94 36 3d
        E 274 84 36 00
        E 683 94 36 53
        E 182 84 36 00
        E 397 94 36 4e
        E 182 84 36 00
        E 3 94 36 5b
        E 182 84 36 00
        E 2696 94 3b 45
        E 182 84 3b 00
        E 16 94 3b 53
        E 182 84 3b 00
        E 206 94 3b 56
        E 182 84 3b 00
        E 2 94 3b 53
        E 182 84 3b 00
        E 15 94 3b 60
        E 182 84 3b 00
        E 781 94 3b 4c
        E 182 84 3b 00
        E 773 94 3b 3d
        E 182 84 3b 00
        E 295 94 3b 3d
        E 274 84 3b 00
        E 1357 94 3b 56
        E 182 84 3b 00
        E 11 94 3b 5d
        E 182 84 3b 00
        E 394 94 3b 4c
        E 182 84 3b 00
        E 1737 94 3b 42
        E 182 84 3b 00
        E 971 94 3b 58
        E 182 84 3b 00
        E 401 94 3b 53
        E 182 84 3b 00
        E 11 94 3b 4c
        E 182 84 3b 00
        E 6 94 3b 4e
        E 182 84 3b 00
        E 589 94 3b 3d
        E 182 84 3b 00
        E 1161 94 36 4c
        E 182 84 36 00
        E 202 94 36 4c
        E 182 84 36 00
        E 5 94 36 5b
        E 182 84 36 00
        E 14 94 36 56
        E 182 84 36 00
        E 3 94 36 5d
        E 182 84 36 00
        E 13 94 36 53
        E 182 84 36 00
        E 12 94 36 53
        E 182 84 36 00
        E 9 94 36 4c
        E 182 84 36 00
        E 8 94 36 53
        E 182 84 36 00
        E 15 94 36 42
        E 182 84 36 00
        E 7 94 36 51
        E 182 84 36 00
        E 12 94 36 3d
        E 182 84 36 00
        E 9 94 36 3d
        E 182 84 36 00
        E 10 94 3b 3d
        E 274 84 3b 00
        E 11 94 3b 3d
        E 274 84 3b 00
        E 17 94 3b 5b
        E 182 84 3b 00
        E 7 94 3b 47
        E 182 84 3b 00
        E 15 94 3b 51
        E 182 84 3b 00
        E 12 94 3b 45
        E 182 84 3b 00
        E 8 94 3b 5b
        E 182 84 3b 00
        E 13 94 3b 53
        E 182 84 3b 00
        E 8 94 3b 5d
        E 182 84 3b 00
        E 4 94 3b 56
        E 182 84 3b 00
        E 11 94 3b 60
        E 182 84 3b 00
        E 13 94 3b 4c
        E 182 84 3b 00
        E 14 94 3b 56
        E 182 84 3b 00
        E 3 94 3b 4c
        E 182 84 3b 00
        E 15 94 3b 53
        E 182 84 3b 00
        E 11 94 3b 42
        E 182 84 3b 00
        E 2 94 3b 4c
        E 182 84 3b 00
        E 10 94 3b 3d
        E 182 84 3b 00
        E 17 94 3b 3d
        E 182 84 3b 00
        E 4 94 3b 3d
        E 274 84 3b 00
        E 14 94 3b 3d
        E 274 84 3b 00
        E 12 94 3b 5b
        E 182 84 3b 00
        E 13 94 3b 47
        E 182 84 3b 00
        E 14 94 3b 51
        E 182 84 3b 00
        E 8 94 3b 49
        E 182 84 3b 00
        E 8 94 3b 56
        E 182 84 3b 00
        E 15 94 3b 4c
        E 182 84 3b 00
        E 10 94 3b 5b
        E 182 84 3b 00
        E 3 94 3b 53
        E 182 84 3b 00
        E 18 94 3b 5d
        E 182 84 3b 00
        E 10 94 3b 4c
        E 182 84 3b 00
        E 7 94 3b 5b
        E 182 84 3b 00
        E 12 94 3b 4c
        E 182 84 3b 00
        E 12 94 3b 53
        E 182 84 3b 00
        E 7 94 3b 45
        E 182 84 3b 00
        E 7 94 3b 4c
        E 182 84 3b 00
        E 7 94 3b 3d
        E 182 84 3b 00
        E 13 94 3b 3d
        E 182 84 3b 00
        E 12 94 3b 3d
        E 274 84 3b 00
        E 15 94 3b 3d
        E 274 84 3b 00
        E 8 94 3b 60
        E 182 84 3b 00
        E 15 94 3b 47
        E 182 84 3b 00
        E 12 94 3b 53
        E 182 84 3b 00
        E 4 94 3b 4c
        E 182 84 3b 00
        E 15 94 3b 53
        E 182 84 3b 00
        E 11 94 3b 53
        E 182 84 3b 00
        E 11 94 3b 60
        E 182 84 3b 00
        E 5 94 3b 53
        E 182 84 3b 00
        E 10 94 3b 60
        E 182 84 3b 00
        E 10 94 3b 53
        E 182 84 3b 00
        E 9 94 3b 5b
        E 182 84 3b 00
        E 7 94 3b 49
        E 182 84 3b 00
        E 13 94 3b 56
        E 182 84 3b 00
        E 14 94 3b 47
        E 182 84 3b 00
        E 9 94 3b 4c
        E 182 84 3b 00
        E 10 94 3b 3d
        E 237 84 3b 00
        E 10 94 3b 3d
        E 128 84 3b 00
        E 8 94 3b 3d
        E 274 84 3b 00
        E 17 94 3b 3d
        E 274 84 3b 00
        E 12 94 3b 5b
        E 182 84 3b 00
        E 9 94 3b 45
        E 182 84 3b 00
        E 11 94 3b 53
        E 182 84 3b 00
        E 13 94 3b 47
        E 182 84 3b 00
        E 9 94 3b 58
        E 182 84 3b 00
        E 4 94 3b 4c
        E 182 84 3b 00
        E 18 94 3b 60
        E 182 84 3b 00
        E 1 94 3b 53
        E 182 84 3b 00
        E 9 94 3b 5b
        E 182 84 3b 00
        E 15 94 3b 4c
        E 182 84 3b 00
        E 7 94 3b 58
        E 182 84 3b 00
        E 9 94 3b 45
        E 182 84 3b 00
        E 10 94 3b 4e
        E 182 84 3b 00
        E 12 94 3b 45
        E 182 84 3b 00
        E 15 94 3b 49
        E 182 84 3b 00
        E 5 94 3b 3d
        E 237 84 3b 00
        E 10 94 3b 3d
        E 128 84 3b 00
        E 10 94 36 3d
        E 274 84 36 00
        E 15 94 36 3d
        E 274 84 36 00
        E 15 94 36 5b
        E 182 84 36 00
        E 8 94 36 42
        E 182 84 36 00
        E 10 94 36 4e
        E 182 84 36 00
        E 12 94 36 47
        E 182 84 36 00
        E 11 94 36 56
        E 182 84 36 00
        E 9 94 36 53
        E 182 84 36 00
        E 8 94 36 60
        E 182 84 36 00
        E 12 94 36 51
        E 182 84 36 00
        E 13 94 36 5b
        E 182 84 36 00
        E 8 94 36 51
        E 182 84 36 00
        E 10 94 36 5b
        E 182 84 36 00
        E 11 94 36 45
        E 182 84 36 00
        E 7 94 36 56
        E 182 84 36 00
        E 14 94 36 42
        E 182 84 36 00
        E 4 94 36 4c
        E 182 84 36 00
        E 8 94 36 3d
        E 237 84 36 00
        E 16 94 36 3d
        E 128 84 36 00
        E 10 94 3b 3d
        E 274 84 3b 00
        E 6 94 3b 3d
        E 274 84 3b 00
        E 15 94 3b 60
        E 182 84 3b 00
        E 13 94 3b 47
        E 182 84 3b 00
        E 11 94 3b 56
        E 182 84 3b 00
        E 8 94 3b 47
        E 182 84 3b 00
        E 12 94 3b 5b
        E 182 84 3b 00
        E 10 94 3b 53
        E 182 84 3b 00
        E 8 94 3b 5d
        E 182 84 3b 00
        E 11 94 3b 56
        E 182 84 3b 00
        E 7 94 3b 60
        E 182 84 3b 00
        E 14 94 3b 4e
        E 182 84 3b 00
        E 13 94 3b 5b
        E 182 84 3b 00
        E 6 94 3b 49
        E 182 84 3b 00
        E 15 94 3b 4e
        E 182 84 3b 00
        E 10 94 3b 45
        E 182 84 3b 00
        E 7 94 3b 51
        E 182 84 3b 00
        E 7 94 3b 3d
        E 237 84 3b 00
        E 11 94 3b 3d
        E 128 84 3b 00
        E 13 94 3b 3d
        E 274 84 3b 00
        E 8 94 3b 3d
        E 274 84 3b 00
        E 14 94 3b 60
        E 182 84 3b 00
        E 12 94 3b 45
        E 182 84 3b 00
        E 11 94 3b 53
        E 182 84 3b 00
        E 8 94 3b 47
        E 182 84 3b 00
        E 12 94 3b 58
        E 182 84 3b 00
        E 8 94 3b 51
        E 182 84 3b 00
        E 12 94 3b 60
        E 182 84 3b 00
        E 13 94 3b 53
        E 182 84 3b 00
        E 6 94 3b 5d
        E 182 84 3b 00
        E 14 94 3b 4c
        E 182 84 3b 00
        E 6 94 3b 56
        E 182 84 3b 00
        E 11 94 3b 4c
        E 182 84 3b 00
        E 8 94 3b 53
        E 182 84 3b 00
        E 12 94 3b 45
        E 182 84 3b 00
        E 14 94 3b 4c
        E 182 84 3b 00
        E 7 94 3b 3d
        E 237 84 3b 00
        E 9 94 3b 3d
        E 128 84 3b 00
        E 8 94 36 3d
        E 274 84 36 00
        E 18 94 36 3d
        E 274 84 36 00
        E 9 94 36 60
        E 182 84 36 00
        E 9 94 36 47
        E 182 84 36 00
        E 15 94 36 53
        E 182 84 36 00
        E 4 94 36 4c
        E 182 84 36 00
        E 10 94 36 53
        E 182 84 36 00
        E 12 94 36 51
        E 182 84 36 00
        E 16 94 36 60
        E 182 84 36 00
        E 9 94 36 51
        E 182 84 36 00
        E 10 94 36 60
        E 182 84 36 00
        E 6 94 36 4c
        E 182 84 36 00
        E 16 94 36 5b
        E 182 84 36 00
        E 6 94 36 45
        E 182 84 36 00
        E 7 94 36 53
        E 182 84 36 00
        E 9 94 36 45
        E 182 84 36 00
        E 17 94 36 4c
        E 182 84 36 00
        E 9 94 36 3d
        E 237 84 36 00
        E 6 94 36 3d
        E 128 84 36 00
        E 10 94 3b 3d
        E 274 84 3b 00
        E 13 94 3b 3d
        E 274 84 3b 00
        E 15 94 3b 5b
        E 182 84 3b 00
        E 9 94 3b 45
        E 182 84 3b 00
        E 14 94 3b 56
        E 182 84 3b 00
        E 6 94 3b 47
        E 182 84 3b 00
        E 10 94 3b 53
        E 182 84 3b 00
        E 10 94 3b 4c
        E 182 84 3b 00
        E 9 94 3b 5b
        E 182 84 3b 00
        E 12 94 3b 51
        E 182 84 3b 00
        E 10 94 3b 60
        E 182 84 3b 00
        E 13 94 3b 51
        E 182 84 3b 00
        E 4 94 3b 53
        E 182 84 3b 00
        E 15 94 3b 4c
        E 182 84 3b 00
        E 8 94 3b 53
        E 182 84 3b 00
        E 9 94 3b 42
        E 182 84 3b 00
        E 11 94 3b 4c
        E 182 84 3b 00
        E 8 94 3b 3d
        E 237 84 3b 00
        E 15 94 3b 3d
        E 128 84 3b 00
        E 3 94 3b 3d
        E 274 84 3b 00
        E 13 94 3b 3d
        E 274 84 3b 00
        E 17 94 3b 5d
        E 182 84 3b 00
        E 14 94 3b 45
        E 182 84 3b 00
        E 7 94 3b 56
        E 182 84 3b 00
        E 12 94 3b 4c
        E 182 84 3b 00
        E 4 94 3b 5b
        E 182 84 3b 00
        E 12 94 3b 4e
        E 182 84 3b 00
        E 10 94 3b 5b
        E 182 84 3b 00
        E 14 94 3b 51
        E 182 84 3b 00
        E 5 94 3b 5b
        E 182 84 3b 00
        E 16 94 3b 4c
        E 182 84 3b 00
        E 7 94 3b 53
        E 182 84 3b 00
        E 10 94 3b 45
        E 182 84 3b 00
        E 8 94 3b 51
        E 182 84 3b 00
        E 16 94 3b 42
        E 182 84 3b 00
        E 4 94 3b 51
        E 182 84 3b 00
        E 8 94 3b 3d
        E 237 84 3b 00
        E 18 94 3b 3d
        E 128 84 3b 00
        E 1 94 3b 3d
        E 274 84 3b 00
        E 21 94 3b 3d
        E 274 84 3b 00
        E 14 94 3b 60
        E 182 84 3b 00
        E 11 94 3b 45
        E 182 84 3b 00
        E 7 94 3b 56
        E 182 84 3b 00
        E 5 94 3b 4c
        E 182 84 3b 00
        E 15 94 3b 53
        E 182 84 3b 00
        E 6 94 3b 4c
        E 182 84 3b 00
        E 13 94 3b 5b
        E 182 84 3b 00
        E 15 94 3b 56
        E 182 84 3b 00
        E 1 94 3b 5b
        E 182 84 3b 00
        E 14 94 3b 4e
        E 182 84 3b 00
        E 9 94 3b 53
        E 182 84 3b 00
        E 15 94 3b 4c
        E 182 84 3b 00
        E 2 94 3b 53
        E 182 84 3b 00
        E 19 94 3b 42
        E 182 84 3b 00
        E 2 94 3b 51
        E 182 84 3b 00
        E 15 94 3b 3d
        E 237 84 3b 00
        E 6 94 3b 3d
        E 128 84 3b 00
        E 15 94 36 3d
        E 274 84 36 00
        E 13 94 36 3d
        E 274 84 36 00
        E 15 94 36 5b
        E 182 84 36 00
        E 4 94 36 47
        E 182 84 36 00
        E 12 94 36 53
        E 182 84 36 00
        E 12 94 36 47
        E 182 84 36 00
        E 10 94 36 53
        E 182 84 36 00
        E 3 94 36 4c
        E 182 84 36 00
        E 12 94 36 60
        E 182 84 36 00
        E 18 94 36 53
        E 182 84 36 00
        E 1 94 36 60
        E 182 84 36 00
        E 13 94 36 53
        E 182 84 36 00
        E 11 94 36 5b
        E 182 84 36 00
        E 8 94 36 4c
        E 182 84 36 00
        E 17 94 36 4e
        E 182 84 36 00
        E 1 94 36 45
        E 182 84 36 00
        E 13 94 36 4c
        E 182 84 36 00
        E 11 94 36 3d
        E 237 84 36 00
        E 14 94 36 3d
        E 128 84 36 00
        E 0 94 3b 3d
        E 274 84 3b 00
        E 19 94 3b 3d
        E 274 84 3b 00
        E 12 94 3b 5b
        E 182 84 3b 00
        E 11 94 3b 47
        E 182 84 3b 00
        E 14 94 3b 51
        E 182 84 3b 00
        E 11 94 3b 45
        E 182 84 3b 00
        E 5 94 3b 5b
        E 182 84 3b 00
        E 9 94 3b 53
        E 182 84 3b 00
        E 9 94 3b 5b
        E 182 84 3b 00
        E 12 94 3b 53
        E 182 84 3b 00
        E 10 94 3b 60
        E 182 84 3b 00
        E 13 94 3b 51
        E 182 84 3b 00
        E 10 94 3b 5b
        E 182 84 3b 00
        E 7 94 3b 49
        E 182 84 3b 00
        E 15 94 3b 51
        E 182 84 3b 00
        E 4 94 3b 45
        E 182 84 3b 00
        E 12 94 3b 4e
        E 182 84 3b 00
        E 13 94 3b 3d
        E 237 84 3b 00
        E 7 94 3b 3d
        E 128 84 3b 00
        E 4 94 3b 3d
        E 274 84 3b 00
        E 16 94 3b 3d
        E 274 84 3b 00
        E 16 94 3b 5b
        E 182 84 3b 00
        E 7 94 3b 40
        E 182 84 3b 00
        E 13 94 3b 53
        E 182 84 3b 00
        E 12 94 3b 4c
        E 182 84 3b 00
        E 5 94 3b 53
        E 182 84 3b 00
        E 9 94 3b 4c
        E 182 84 3b 00
        E 12 94 3b 5b
        E 182 84 3b 00
        E 16 94 3b 53
        E 182 84 3b 00
        E 3 94 3b 5b
        E 182 84 3b 00
        E 17 94 3b 53
        E 182 84 3b 00
        E 11 94 3b 56
        E 182 84 3b 00
        E 8 94 3b 4c
        E 182 84 3b 00
        E 4 94 3b 56
        E 182 84 3b 00
        E 9 94 3b 45
        E 182 84 3b 00
        E 12 94 3b 4c
        E 182 84 3b 00
        E 11 94 3b 3d
        E 237 84 3b 00
        E 15 94 3b 3d
        E 128 84 3b 00
        E 7 94 3b 3d
        E 274 84 3b 00
        E 12 94 3b 3d
        E 274 84 3b 00
        E 15 94 3b 60
        E 182 84 3b 00
        E 15 94 3b 45
        E 182 84 3b 00
        E 2 94 3b 53
        E 182 84 3b 00
        E 14 94 3b 4c
        E 182 84 3b 00
        E 9 94 3b 53
        E 182 84 3b 00
        E 5 94 3b 4c
        E 182 84 3b 00
        E 16 94 3b 5b
        E 182 84 3b 00
        E 6 94 3b 53
        E 182 84 3b 00
        E 17 94 3b 60
        E 182 84 3b 00
        E 5 94 3b 51
        E 182 84 3b 00
        E 9 94 3b 5b
        E 182 84 3b 00
        E 11 94 3b 45
        E 182 84 3b 00
        E 12 94 3b 51
        E 182 84 3b 00
        E 8 94 3b 42
        E 182 84 3b 00
        E 14 94 3b 4c
        E 182 84 3b 00
        E 6 94 3b 3d
        E 237 84 3b 00
        E 12 94 3b 3d
        E 128 84 3b 00
        E 13 94 3b 3d
        E 274 84 3b 00
        E 10 94 3b 3d
        E 274 84 3b 00
        E 14 94 3b 60
        E 182 84 3b 00
        E 10 94 3b 45
        E 182 84 3b 00
        E 5 94 3b 4e
        E 182 84 3b 00
        E 12 94 3b 45
        E 182 84 3b 00
        E 15 94 3b 5b
        E 182 84 3b 00
        E 4 94 3b 4c
        E 182 84 3b 00
        E 13 94 3b 60
        E 182 84 3b 00
        E 9 94 3b 53
        E 182 84 3b 00
        E 9 94 3b 60
        E 182 84 3b 00
        E 784 94 3b 42
        E 182 84 3b 00
        E 1351 94 36 45
        E 182 84 36 00
        E 971 94 36 51
        E 182 84 36 00
        E 776 94 36 53
        E 182 84 36 00
        E 199 94 36 4e
        E 182 84 36 00
        E 969 94 3b 5d
        E 182 84 3b 00
        E 401 94 3b 45
        E 182 84 3b 00
        E 198 94 3b 51
        E 182 84 3b 00
        E 397 94 3b 5d
        E 182 84 3b 00
        E 969 94 3b 49
        E 182 84 3b 00
        E 393 94 3b 3d
        E 274 84 3b 00
        E 1068 94 3b 5b
        E 182 84 3b 00
        E 15 94 3b 4c
        E 182 84 3b 00
        E 395 94 3b 5b
        E 182 84 3b 00
        E 2 94 3b 4c
        E 182 84 3b 00
        E 16 94 3b 56
        E 182 84 3b 00
        E 197 94 3b 56
        E 182 84 3b 00
        E 393 94 3b 3d
        E 237 84 3b 00
        E 19 94 3b 3d
        E 128 84 3b 00
        E 295 94 36 3d
        E 274 84 36 00
        E 10 94 36 60
        E 182 84 36 00
        E 969 94 36 5b
        E 182 84 36 00
        E 16 94 36 51
        E 182 84 36 00
        E 1156 94 36 51
        E 182 84 36 00
        E 681 94 3b 3d
        E 274 84 3b 00
        E 16 94 3b 5d
        E 182 84 3b 00
        E 589 94 3b 5b
        E 182 84 3b 00
        E 776 94 3b 53
        E 182 84 3b 00
        E 967 94 3b 3d
        E 237 84 3b 00
        E 0 b4 7b 00
        E 1 ff 2f 00
      >
    >
  >
  <TRACK
    NAME "Bassoon"
    PEAKCOL 4286528191
    VOLPAN 1.000000 0 1 -1
    MIDIOUT -1
    ISBUS 0 0
    <ITEM
      POSITION 3.533368
      LENGTH 74.223614
      NAME "Bassoon"
      VOLPAN 1 0 1 -1
      <SOURCE MIDI
        HASDATA 1 960 QN
        E 0 c5 46 00
        E 3844 95 34 69
        E 3840 85 34 00
        E 7679 95 34 69
        E 3840 85 34 00
        E 3846 95 34 69
        E 3839 95 34 69
        E 1 85 34 00
        E 3839 85 34 00
        E 3839 95 2f 69
        E 3838 95 34 69
        E 2 85 2f 00
        E 3838 85 34 00
        E 3841 95 36 69
        E 3840 85 36 00
        E 1 95 34 69
        E 3840 85 34 00
        E 3837 95 34 69
        E 3840 85 34 00
        E 1 95 34 69
        E 3840 85 34 00
        E 3835 95 2f 69
        E 3840 85 2f 00
        E 11 95 34 69
        E 3840 85 34 00
        E 3840 95 2f 69
        E 3840 85 2f 00
        E 0 b5 7b 00
        E 1 ff 2f 00
      >
    >
  >
  <TRACK
    NAME "Choir"
    PEAKCOL 4284506208
    VOLPAN 1.000000 0 1 -1
    MIDIOUT -1
    ISBUS 0 0
    <ITEM
      POSITION 0.006783
      LENGTH 95.121055
      NAME "Choir"
      VOLPAN 1 0 1 -1
      <SOURCE MIDI
        HASDATA 1 960 QN
        E 0 c6 34 00
        E 7 96 36 78
        E 16 96 34 75
        E 3517 86 36 00
        E 16 86 34 00
        E 311 96 34 75
        E 3533 86 34 00
        E 287 96 40 7b
        E 14 96 36 7b
        E 3519 86 40 00
        E 14 86 36 00
        E 288 96 40 73
        E 6 96 36 7a
        E 3527 86 40 00
        E 6 86 36 00
        E 300 96 40 75
        E 19 96 34 75
        E 3514 86 40 00
        E 19 86 34 00
        E 309 96 34 78
        E 3533 86 34 00
        E 289 96 3b 73
        E 2 96 40 78
        E 5 96 36 7a
        E 13 96 30 75
        E 3513 86 3b 00
        E 2 86 40 00
        E 5 86 36 00
        E 13 86 30 00
        E 288 96 36 78
        E 1 96 40 7a
        E 15 96 3b 7a
        E 6 96 34 7a
        E 3511 86 36 00
        E 1 86 40 00
        E 15 86 3b 00
        E 6 86 34 00
        E 285 96 40 7a
        E 3 96 36 7b
        E 2 96 3b 7a
        E 12 96 34 77
        E 3516 86 40 00
        E 3 86 36 00
        E 2 86 3b 00
        E 12 86 34 00
        E 292 96 3b 78
        E 2 96 40 7b
        E 7 96 30 78
        E 4 96 3b 78
        E 3520 86 3b 00
        E 2 86 40 00
        E 7 86 30 00
        E 4 86 3b 00
        E 288 96 40 77
        E 4 96 36 7b
        E 11 96 3b 77
        E 4 96 34 78
        E 3514 86 40 00
        E 4 86 36 00
        E 11 86 3b 00
        E 4 86 34 00
        E 292 96 40 73
        E 4 96 36 78
        E 3 96 3b 75
        E 17 96 34 7a
        E 3509 86 40 00
        E 4 86 36 00
        E 3 86 3b 00
        E 17 86 34 00
        E 287 96 40 75
        E 5 96 36 73
        E 5 96 3b 75
        E 1 96 34 75
        E 3522 86 40 00
        E 5 86 36 00
        E 5 86 3b 00
        E 1 86 34 00
        E 289 96 40 78
        E 8 96 36 78
        E 9 96 3b 75
        E 2 96 34 75
        E 3514 86 40 00
        E 8 86 36 00
        E 9 86 3b 00
        E 2 86 34 00
        E 286 96 3b 77
        E 5 96 40 7b
        E 5 96 36 7b
        E 21 96 30 75
        E 3502 86 3b 00
        E 5 86 40 00
        E 5 86 36 00
        E 21 86 30 00
        E 282 96 40 78
        E 7 96 3b 7a
        E 1 96 36 77
        E 12 96 34 75
        E 3513 86 40 00
        E 7 86 3b 00
        E 1 86 36 00
        E 12 86 34 00
        E 288 96 36 77
        E 2 96 40 73
        E 1 96 3b 75
        E 12 96 34 75
        E 3518 86 36 00
        E 2 86 40 00
        E 1 86 3b 00
        E 12 86 34 00
        E 287 96 40 75
        E 6 96 36 73
        E 7 96 3b 73
        E 14 96 34 73
        E 3506 86 40 00
        E 6 86 36 00
        E 7 86 3b 00
        E 14 86 34 00
        E 280 96 3b 73
        E 3 96 40 7b
        E 10 96 36 75
        E 10 96 30 77
        E 3510 86 3b 00
        E 3 86 40 00
        E 10 86 36 00
        E 10 86 30 00
        E 288 96 36 73
        E 3 96 40 7a
        E 8 96 3b 75
        E 10 96 34 7b
        E 3512 86 36 00
        E 3 86 40 00
        E 8 86 3b 00
        E 10 86 34 00
        E 286 96 40 73
        E 5 96 3b 78
        E 3 96 36 75
        E 11 96 34 78
        E 3514 86 40 00
        E 5 86 3b 00
        E 3 86 36 00
        E 11 86 34 00
        E 291 96 3b 78
        E 2 96 40 77
        E 5 96 3b 75
        E 14 96 30 75
        E 3512 86 3b 00
        E 2 86 40 00
        E 5 86 3b 00
        E 14 86 30 00
        E 298 96 3b 77
        E 1 96 34 7b
        E 3532 86 3b 00
        E 1 86 34 00
        E 11819 96 40 78
        E 3 96 36 77
        E 3530 86 40 00
        E 3 86 36 00
        E 0 b6 7b 00
        E 1 ff 2f 00
      >
    >
  >
  <TRACK
    NAME "Harp"
    PEAKCOL 4290756410
    VOLPAN 1.000000 0 1 -1
    MIDIOUT -1
    ISBUS 0 0
    <ITEM
      POSITION 0.112420
      LENGTH 95.239859
      NAME "Harp"
      VOLPAN 1 0 1 -1
      <SOURCE MIDI
        HASDATA 1 960 QN
        E 0 c7 2e 00
        E 122 97 32 71
        E 236 97 3b 62
        E 483 97 4a 47
        E 239 97 4a 47
        E 119 97 47 47
        E 239 97 3e 47
        E 120 97 3b 47
        E 364 97 2f 47
        E 1868 87 3b 00
        E 0 87 3e 00
        E 0 87 3b 00
        E 1 87 47 00
        E 1 87 4a 00
        E 1 87 4a 00
        E 1 87 32 00
        E 0 87 2f 00
        E 286 97 37 6c
        E 479 97 47 4c
        E 360 97 4a 47
        E 123 97 47 47
        E 2589 87 47 00
        E 0 87 4a 00
        E 1 87 37 00
        E 2 87 47 00
        E 889 97 4c 47
        E 117 97 4f 47
        E 238 97 48 47
        E 121 97 43 47
        E 122 97 40 47
        E 2349 87 48 00
        E 1 87 43 00
        E 1 87 4f 00
        E 1 87 40 00
        E 2 87 4c 00
        E 42 97 2f 75
        E 601 97 42 51
        E 242 97 4a 47
        E 961 97 32 47
        E 118 97 2f 47
        E 1870 87 2f 00
        E 1 87 42 00
        E 1 87 2f 00
        E 1 87 4a 00
        E 1 87 32 00
        E 289 97 36 6c
        E 1076 97 42 47
        E 2472 87 42 00
        E 4 87 36 00
        E 47 97 2f 7a
        E 357 97 3b 62
        E 121 97 3e 51
        E 121 97 43 56
        E 479 97 4a 47
        E 482 97 3b 47
        E 120 97 37 47
        E 119 97 32 47
        E 120 97 2f 47
        E 1870 87 3b 00
        E 1 87 3e 00
        E 0 87 4a 00
        E 1 87 43 00
        E 0 87 32 00
        E 0 87 2f 00
        E 1 87 2f 00
        E 0 87 3b 00
        E 0 87 37 00
        E 48 97 30 77
        E 116 97 34 6e
        E 120 97 37 64
        E 125 97 3c 62
        E 116 97 40 5b
        E 125 97 43 53
        E 120 97 48 49
        E 117 97 4c 47
        E 122 97 4f 47
        E 120 97 4c 47
        E 118 97 48 47
        E 117 97 43 47
        E 122 97 40 47
        E 122 97 3c 47
        E 120 97 37 47
        E 120 97 34 47
        E 121 97 30 47
        E 1867 87 34 00
        E 0 87 37 00
        E 0 87 43 00
        E 1 87 40 00
        E 1 87 40 00
        E 1 87 4c 00
        E 0 87 48 00
        E 1 87 30 00
        E 0 87 3c 00
        E 0 87 37 00
        E 0 87 34 00
        E 1 87 3c 00
        E 0 87 4f 00
        E 0 87 4c 00
        E 0 87 30 00
        E 1 87 43 00
        E 0 87 48 00
        E 43 97 2f 77
        E 123 97 32 6c
        E 119 97 36 67
        E 120 97 3b 64
        E 121 97 3e 51
        E 121 97 42 4e
        E 115 97 47 4c
        E 123 97 4a 47
        E 118 97 4e 47
        E 124 97 4a 47
        E 120 97 47 47
        E 119 97 42 47
        E 120 97 3e 47
        E 121 97 3b 47
        E 119 97 36 47
        E 119 97 32 47
        E 119 97 2f 47
        E 1870 87 47 00
        E 1 87 2f 00
        E 0 87 4e 00
        E 1 87 2f 00
        E 1 87 36 00
        E 0 87 3b 00
        E 0 87 4a 00
        E 0 87 32 00
        E 1 87 32 00
        E 0 87 3e 00
        E 0 87 42 00
        E 0 87 3e 00
        E 0 87 36 00
        E 1 87 42 00
        E 0 87 4a 00
        E 0 87 47 00
        E 0 87 3b 00
        E 47 97 2f 78
        E 122 97 32 69
        E 116 97 36 64
        E 119 97 3b 58
        E 122 97 3e 53
        E 122 97 42 4c
        E 117 97 47 47
        E 124 97 4a 49
        E 115 97 4e 47
        E 120 97 4a 47
        E 121 97 47 47
        E 123 97 42 47
        E 119 97 3e 47
        E 120 97 3b 47
        E 121 97 36 47
        E 116 97 32 47
        E 123 97 2f 47
        E 1869 87 3b 00
        E 0 87 4e 00
        E 0 87 4a 00
        E 0 87 32 00
        E 1 87 36 00
        E 0 87 47 00
        E 0 87 47 00
        E 1 87 3e 00
        E 1 87 2f 00
        E 0 87 3e 00
        E 0 87 3b 00
        E 0 87 2f 00
        E 1 87 42 00
        E 0 87 42 00
        E 0 87 36 00
        E 1 87 32 00
        E 0 87 4a 00
        E 47 97 30 75
        E 121 97 34 71
        E 119 97 39 69
        E 116 97 3c 62
        E 120 97 40 56
        E 124 97 45 4e
        E 117 97 48 4e
        E 120 97 4c 47
        E 123 97 51 47
        E 117 97 4c 47
        E 120 97 48 47
        E 120 97 45 47
        E 123 97 40 47
        E 118 97 3c 47
        E 121 97 39 47
        E 118 97 34 47
        E 119 97 30 47
        E 1872 87 3c 00
        E 0 87 40 00
        E 0 87 30 00
        E 1 87 48 00
        E 0 87 4c 00
        E 0 87 4c 00
        E 0 87 48 00
        E 0 87 45 00
        E 0 87 34 00
        E 1 87 3c 00
        E 1 87 39 00
        E 1 87 30 00
        E 0 87 39 00
        E 0 87 45 00
        E 0 87 51 00
        E 0 87 40 00
        E 1 87 34 00
        E 47 97 2f 78
        E 119 97 32 75
        E 122 97 37 64
        E 117 97 3b 5b
        E 118 97 3e 5b
        E 121 97 43 53
        E 118 97 47 47
        E 123 97 4a 49
        E 120 97 4f 47
        E 119 97 4a 47
        E 119 97 47 47
        E 120 97 43 47
        E 121 97 3e 47
        E 121 97 3b 47
        E 119 97 37 47
        E 119 97 32 47
        E 125 97 2f 47
        E 1866 87 47 00
        E 1 87 3e 00
        E 0 87 47 00
        E 0 87 43 00
        E 0 87 32 00
        E 1 87 43 00
        E 0 87 4a 00
        E 0 87 3e 00
        E 0 87 37 00
        E 1 87 3b 00
        E 0 87 4a 00
        E 0 87 4f 00
        E 0 87 3b 00
        E 1 87 32 00
        E 1 87 2f 00
        E 1 87 37 00
        E 0 87 2f 00
        E 47 97 2f 78
        E 119 97 32 71
        E 119 97 36 67
        E 123 97 3b 5d
        E 116 97 3e 56
        E 121 97 42 53
        E 117 97 47 47
        E 122 97 4a 47
        E 121 97 4e 47
        E 122 97 4a 47
        E 117 97 47 47
        E 118 97 42 47
        E 124 97 3e 47
        E 122 97 3b 47
        E 119 97 36 47
        E 119 97 32 47
        E 121 97 2f 47
        E 1867 87 47 00
        E 0 87 42 00
        E 2 87 3e 00
        E 0 87 4a 00
        E 0 87 47 00
        E 1 87 36 00
        E 0 87 42 00
        E 0 87 4e 00
        E 1 87 32 00
        E 0 87 3e 00
        E 0 87 32 00
        E 1 87 2f 00
        E 0 87 4a 00
        E 0 87 36 00
        E 0 87 2f 00
        E 1 87 3b 00
        E 0 87 3b 00
        E 43 97 2f 7c
        E 123 97 32 71
        E 118 97 36 6e
        E 121 97 3b 5b
        E 122 97 3e 5b
        E 118 97 42 53
        E 118 97 47 49
        E 123 97 4a 47
        E 118 97 4e 47
        E 123 97 4a 47
        E 117 97 47 47
        E 122 97 42 47
        E 121 97 3e 47
        E 120 97 3b 47
        E 118 97 36 47
        E 121 97 32 47
        E 117 97 2f 47
        E 1872 87 2f 00
        E 0 87 47 00
        E 0 87 2f 00
        E 1 87 36 00
        E 0 87 4e 00
        E 0 87 47 00
        E 1 87 3b 00
        E 0 87 42 00
        E 0 87 36 00
        E 1 87 32 00
        E 0 87 4a 00
        E 0 87 42 00
        E 0 87 32 00
        E 1 87 3e 00
        E 0 87 4a 00
        E 0 87 3e 00
        E 0 87 3b 00
        E 44 97 2f 7b
        E 121 97 32 71
        E 122 97 37 62
        E 121 97 3b 60
        E 121 97 3e 56
        E 117 97 43 4c
        E 122 97 47 4e
        E 115 97 4a 47
        E 124 97 4f 47
        E 118 97 4a 47
        E 121 97 47 47
        E 123 97 43 47
        E 117 97 3e 47
        E 123 97 3b 47
        E 115 97 37 47
        E 122 97 32 47
        E 118 97 2f 47
        E 1871 87 4a 00
        E 1 87 2f 00
        E 0 87 37 00
        E 0 87 2f 00
        E 1 87 32 00
        E 0 87 4a 00
        E 1 87 43 00
        E 0 87 47 00
        E 0 87 3e 00
        E 0 87 32 00
        E 1 87 37 00
        E 0 87 4f 00
        E 1 87 3b 00
        E 0 87 47 00
        E 1 87 3e 00
        E 0 87 43 00
        E 0 87 3b 00
        E 45 97 30 7b
        E 118 97 34 6e
        E 121 97 37 67
        E 120 97 3c 5d
        E 122 97 40 51
        E 120 97 43 53
        E 118 97 48 47
        E 123 97 4c 47
        E 118 97 4f 47
        E 121 97 4c 47
        E 118 97 48 47
        E 118 97 43 47
        E 125 97 40 47
        E 119 97 3c 47
        E 120 97 37 47
        E 120 97 34 47
        E 119 97 30 47
        E 1869 87 43 00
        E 1 87 34 00
        E 1 87 37 00
        E 0 87 3c 00
        E 0 87 48 00
        E 0 87 48 00
        E 1 87 30 00
        E 0 87 4f 00
        E 0 87 30 00
        E 1 87 40 00
        E 0 87 43 00
        E 0 87 4c 00
        E 0 87 3c 00
        E 0 87 37 00
        E 0 87 34 00
        E 1 87 4c 00
        E 0 87 40 00
        E 44 97 2f 7c
        E 119 97 32 71
        E 126 97 36 67
        E 119 97 3b 60
        E 120 97 3e 51
        E 119 97 42 4c
        E 118 97 47 4e
        E 119 97 4a 47
        E 124 97 4e 47
        E 116 97 4a 47
        E 125 97 47 47
        E 119 97 42 47
        E 120 97 3e 47
        E 120 97 3b 47
        E 115 97 36 47
        E 124 97 32 47
        E 116 97 2f 47
        E 1872 87 32 00
        E 0 87 36 00
        E 0 87 2f 00
        E 1 87 2f 00
        E 0 87 4a 00
        E 0 87 4a 00
        E 1 87 47 00
        E 2 87 42 00
        E 0 87 32 00
        E 1 87 3b 00
        E 0 87 3e 00
        E 0 87 4e 00
        E 0 87 42 00
        E 0 87 3e 00
        E 0 87 3b 00
        E 1 87 36 00
        E 0 87 47 00
        E 47 97 2f 75
        E 119 97 32 71
        E 119 97 36 64
        E 121 97 3b 5b
        E 120 97 3e 56
        E 121 97 42 53
        E 115 97 47 4c
        E 126 97 4a 47
        E 115 97 4e 47
        E 121 97 4a 47
        E 121 97 47 47
        E 120 97 42 47
        E 119 97 3e 47
        E 120 97 3b 47
        E 124 97 36 47
        E 115 97 32 47
        E 123 97 2f 47
        E 1868 87 47 00
        E 1 87 4e 00
        E 0 87 32 00
        E 1 87 4a 00
        E 0 87 3e 00
        E 0 87 3b 00
        E 1 87 36 00
        E 0 87 47 00
        E 0 87 42 00
        E 1 87 32 00
        E 0 87 3b 00
        E 0 87 3e 00
        E 0 87 2f 00
        E 1 87 2f 00
        E 0 87 42 00
        E 1 87 4a 00
        E 0 87 36 00
        E 46 97 2f 7c
        E 121 97 32 71
        E 120 97 37 64
        E 116 97 3b 58
        E 121 97 3e 58
        E 124 97 43 53
        E 119 97 47 4c
        E 116 97 4a 49
        E 123 97 4f 47
        E 118 97 4a 47
        E 121 97 47 47
        E 118 97 43 47
        E 121 97 3e 47
        E 119 97 3b 47
        E 121 97 37 47
        E 124 97 32 47
        E 117 97 2f 47
        E 1870 87 3b 00
        E 0 87 4a 00
        E 0 87 43 00
        E 0 87 3b 00
        E 1 87 3e 00
        E 0 87 4a 00
        E 0 87 3e 00
        E 0 87 37 00
        E 1 87 47 00
        E 0 87 2f 00
        E 1 87 2f 00
        E 0 87 4f 00
        E 1 87 32 00
        E 0 87 37 00
        E 0 87 47 00
        E 1 87 43 00
        E 0 87 32 00
        E 45 97 30 77
        E 119 97 34 71
        E 120 97 37 67
        E 121 97 3c 5b
        E 122 97 40 5d
        E 118 97 43 4c
        E 122 97 48 47
        E 120 97 4c 47
        E 117 97 4f 47
        E 118 97 4c 47
        E 121 97 48 47
        E 122 97 43 47
        E 122 97 40 47
        E 116 97 3c 47
        E 121 97 37 47
        E 121 97 34 47
        E 119 97 30 47
        E 1870 87 4c 00
        E 1 87 48 00
        E 0 87 3c 00
        E 1 87 34 00
        E 0 87 37 00
        E 0 87 4f 00
        E 0 87 37 00
        E 0 87 30 00
        E 1 87 30 00
        E 0 87 3c 00
        E 0 87 43 00
        E 0 87 43 00
        E 0 87 34 00
        E 2 87 40 00
        E 0 87 48 00
        E 0 87 4c 00
        E 0 87 40 00
        E 43 97 2f 7b
        E 125 97 32 71
        E 116 97 36 6e
        E 120 97 3b 62
        E 123 97 3e 58
        E 121 97 42 49
        E 118 97 47 4e
        E 118 97 4a 47
        E 124 97 4e 47
        E 120 97 4a 47
        E 117 97 47 47
        E 122 97 42 47
        E 116 97 3e 47
        E 121 97 3b 47
        E 120 97 36 47
        E 125 97 32 47
        E 119 97 2f 47
        E 1867 87 2f 00
        E 0 87 3e 00
        E 1 87 36 00
        E 0 87 3b 00
        E 0 87 4a 00
        E 0 87 3b 00
        E 0 87 36 00
        E 1 87 47 00
        E 1 87 47 00
        E 1 87 3e 00
        E 0 87 42 00
        E 1 87 32 00
        E 0 87 42 00
        E 0 87 4e 00
        E 0 87 4a 00
        E 0 87 2f 00
        E 1 87 32 00
        E 47 97 2f 77
        E 118 97 32 69
        E 121 97 36 69
        E 121 97 3b 60
        E 120 97 3e 58
        E 117 97 42 56
        E 120 97 47 47
        E 118 97 4a 47
        E 121 97 4e 47
        E 124 97 4a 47
        E 118 97 47 47
        E 118 97 42 47
        E 120 97 3e 47
        E 121 97 3b 47
        E 121 97 36 47
        E 120 97 32 47
        E 122 97 2f 47
        E 1867 87 4a 00
        E 1 87 4e 00
        E 0 87 42 00
        E 0 87 3e 00
        E 1 87 42 00
        E 0 87 47 00
        E 0 87 3b 00
        E 1 87 32 00
        E 0 87 47 00
        E 0 87 36 00
        E 0 87 32 00
        E 1 87 36 00
        E 1 87 2f 00
        E 0 87 3b 00
        E 0 87 3e 00
        E 0 87 4a 00
        E 0 87 2f 00
        E 47 97 30 7a
        E 121 97 34 6e
        E 117 97 39 69
        E 119 97 3c 60
        E 122 97 40 56
        E 122 97 45 56
        E 119 97 48 4c
        E 120 97 4c 47
        E 119 97 51 47
        E 123 97 4c 47
        E 118 97 48 47
        E 118 97 45 47
        E 121 97 40 47
        E 121 97 3c 47
        E 118 97 39 47
        E 119 97 34 47
        E 123 97 30 47
        E 1869 87 3c 00
        E 0 87 34 00
        E 1 87 39 00
        E 0 87 45 00
        E 0 87 39 00
        E 1 87 40 00
        E 0 87 51 00
        E 0 87 40 00
        E 1 87 30 00
        E 0 87 48 00
        E 0 87 4c 00
        E 0 87 48 00
        E 0 87 3c 00
        E 0 87 30 00
        E 1 87 34 00
        E 0 87 45 00
        E 1 87 4c 00
        E 287 97 37 67
        E 720 97 4f 47
        E 836 97 32 47
        E 1992 87 32 00
        E 4 87 37 00
        E 0 87 4f 00
        E 527 97 3e 51
        E 600 97 4a 47
        E 242 97 42 47
        E 594 97 2f 47
        E 1872 87 2f 00
        E 4 87 3e 00
        E 0 87 4a 00
        E 2 87 42 00
        E 285 97 36 69
        E 241 97 3e 5d
        E 360 97 4a 47
        E 720 97 3b 47
        E 361 97 2f 47
        E 1870 87 36 00
        E 1 87 3e 00
        E 0 87 4a 00
        E 0 87 3b 00
        E 1 87 2f 00
        E 644 97 43 53
        E 122 97 47 4c
        E 358 97 4a 47
        E 124 97 47 47
        E 116 97 43 47
        E 244 97 3b 47
        E 358 97 2f 47
        E 1870 87 43 00
        E 0 87 4a 00
        E 0 87 43 00
        E 2 87 47 00
        E 0 87 2f 00
        E 2 87 47 00
        E 0 87 3b 00
        E 46 97 30 77
        E 241 97 37 6e
        E 119 97 3c 60
        E 720 97 4c 47
        E 122 97 48 47
        E 2590 87 30 00
        E 0 87 3c 00
        E 0 87 4c 00
        E 1 87 37 00
        E 1 87 48 00
        E 0 b7 7b 00
        E 1 ff 2f 00
      >
    >
  >
  <TRACK
    NAME "Bass"
    PEAKCOL 4286528191
    VOLPAN 1.000000 0 1 -1
    MIDIOUT -1
    ISBUS 0 0
    <ITEM
      POSITION 0.006783
      LENGTH 95.392480
      NAME "Bass"
      VOLPAN 1 0 1 -1
      <SOURCE MIDI
        HASDATA 1 960 QN
        E 0 c8 2b 00
        E 7 98 28 7d
        E 3840 88 28 00
        E 2 98 28 7d
        E 3838 98 23 7d
        E 2 88 28 00
        E 3838 88 23 00
        E 2 98 28 7d
        E 3832 98 28 7d
        E 8 88 28 00
        E 3832 88 28 00
        E 5 98 28 7d
        E 3839 98 2a 7d
        E 1 88 28 00
        E 3839 88 2a 00
        E 1 98 28 7d
        E 3840 88 28 00
        E 0 98 23 7d
        E 3840 88 23 00
        E 1 98 23 7d
        E 3835 98 28 7d
        E 5 88 23 00
        E 3835 88 28 00
        E 2 98 28 7d
        E 3839 98 28 7d
        E 1 88 28 00
        E 3839 88 28 00
        E 3 98 28 7d
        E 3835 98 23 7d
        E 5 88 28 00
        E 3835 88 23 00
        E 5 98 28 7d
        E 3837 98 28 7d
        E 3 88 28 00
        E 3837 88 28 00
        E 1 98 23 7d
        E 3836 98 1e 7d
        E 4 88 23 00
        E 3836 88 1e 00
        E 8 98 1c 7d
        E 3836 98 1c 7d
        E 4 88 1c 00
        E 3836 88 1c 00
        E 1 98 23 7d
        E 3835 98 23 7d
        E 5 88 23 00
        E 3835 88 23 00
        E 9 98 28 7d
        E 3840 88 28 00
        E 0 98 23 7d
        E 3832 98 28 7d
        E 8 88 23 00
        E 3832 88 28 00
        E 5 98 23 7d
        E 3840 88 23 00
        E 0 b8 7b 00
        E 1 ff 2f 00
      >
    >
  >
>
