<REAPER_PROJECT 0.1 "7.0" 1700000000
  TEMPO 84.000000 4 4
  SAMPLERATE 48000 0 0
  RENDER_FILE ""
  RENDER_FMT 0 2 0
  RENDER_1X 0
  RENDER_RANGE 1 0 87.715210 0 0
  RENDER_RESAMPLE 3 0 1
  <MASTERTRACK
    VOLPAN 1 0 1 -1
    DEFCHAN 0
  >
  <TRACK
    NAME "Lead"
    PEAKCOL 4284506208
    VOLPAN 1.000000 0 1 -1
    MIDIOUT -1
    ISBUS 0 0
    <ITEM
      POSITION 0.000000
      LENGTH 80.132629
      NAME "Lead"
      VOLPAN 1 0 1 -1
      <SOURCE MIDI
        HASDATA 1 960 QN
        E 0 c0 44 00
        E 0 90 51 65
        E 988 80 51 00
        E 53 90 51 58
        E 988 80 51 00
        E 64 90 51 4c
        E 898 80 51 00
        E 157 90 53 4c
        E 598 90 53 4c
        E 240 80 53 00
        E 60 80 53 00
        E 297 90 58 4f
        E 453 80 58 00
        E 484 90 58 4c
        E 519 90 58 4c
        E 240 80 58 00
        E 139 80 58 00
        E 139 90 53 4c
        E 408 80 53 00
        E 127 90 53 4c
        E 240 80 53 00
        E 295 90 58 4c
        E 808 80 58 00
        E 701 90 58 4c
        E 839 90 58 4c
        E 149 80 58 00
        E 749 80 58 00
        E 12 90 58 4e
        E 240 80 58 00
        E 671 90 53 77
        E 453 80 53 00
        E 64 90 53 4c
        E 240 80 53 00
        E 278 90 58 56
        E 404 90 58 4c
        E 240 80 58 00
        E 164 90 53 5f
        E 90 80 58 00
        E 442 90 53 4c
        E 240 80 53 00
        E 126 80 53 00
        E 165 90 58 53
        E 808 80 58 00
        E 235 90 58 4c
        E 498 80 58 00
        E 56 90 58 4c
        E 646 90 58 4c
        E 240 80 58 00
        E 102 80 58 00
        E 303 90 53 6d
        E 453 80 53 00
        E 701 90 53 4c
        E 94 90 53 4c
        E 95 90 58 4f
        E 145 80 53 00
        E 564 80 53 00
        E 189 80 58 00
        E 515 90 58 78
        E 392 90 58 5c
        E 506 80 58 00
        E 305 90 58 4c
        E 87 80 58 00
        E 140 80 58 00
        E 828 90 58 4c
        E 808 80 58 00
        E 245 90 58 4e
        E 988 80 58 00
        E 72 90 58 55
        E 498 80 58 00
        E 566 90 58 61
        E 898 80 58 00
        E 136 90 58 53
        E 898 80 58 00
        E 279 90 58 7a
        E 898 80 58 00
        E 41 90 58 53
        E 898 80 58 00
        E 394 90 58 4c
        E 406 90 58 4c
        E 240 80 58 00
        E 162 80 58 00
        E 3 90 53 5f
        E 523 90 53 4c
        E 240 80 53 00
        E 225 80 53 00
        E 58 90 58 55
        E 249 80 58 00
        E 1064 90 58 56
        E 283 90 58 55
        E 227 80 58 00
        E 388 80 58 00
        E 438 90 58 4e
        E 898 80 58 00
        E 150 90 58 7b
        E 898 80 58 00
        E 405 90 58 5c
        E 453 80 58 00
        E 363 90 58 4c
        E 204 80 58 00
        E 321 90 58 4c
        E 204 80 58 00
        E 322 90 53 4c
        E 643 90 53 4c
        E 105 80 53 00
        E 135 80 53 00
        E 403 90 58 4c
        E 806 90 58 58
        E 182 80 58 00
        E 716 80 58 00
        E 272 90 58 4c
        E 654 90 58 4e
        E 244 80 58 00
        E 561 90 58 4c
        E 93 80 58 00
        E 443 90 58 4c
        E 240 80 58 00
        E 122 80 58 00
        E 174 90 53 4c
        E 588 90 53 4c
        E 240 80 53 00
        E 70 80 53 00
        E 279 90 58 4e
        E 808 80 58 00
        E 632 90 58 65
        E 1059 90 58 4c
        E 436 80 58 00
        E 462 80 58 00
        E 173 90 58 4c
        E 227 80 58 00
        E 301 90 58 4c
        E 227 80 58 00
        E 301 90 53 5a
        E 898 80 53 00
        E 152 90 53 51
        E 227 80 53 00
        E 1068 90 53 4c
        E 408 80 53 00
        E 386 90 51 4c
        E 541 90 51 4c
        E 267 80 51 00
        E 721 80 51 00
        E 64 90 51 4c
        E 988 80 51 00
        E 586 90 53 63
        E 906 80 53 00
        E 163 90 51 77
        E 1167 90 51 4c
        E 645 80 51 00
        E 253 80 51 00
        E 263 90 51 4f
        E 404 90 53 4c
        E 240 80 53 00
        E 164 90 58 4c
        E 90 80 51 00
        E 718 80 58 00
        E 1135 90 58 51
        E 714 90 58 4c
        E 274 80 58 00
        E 179 80 58 00
        E 69 90 58 4c
        E 680 80 58 00
        E 373 90 58 53
        E 898 80 58 00
        E 154 90 58 51
        E 453 80 58 00
        E 71 90 58 51
        E 898 80 58 00
        E 283 90 58 5c
        E 780 90 58 4c
        E 28 80 58 00
        E 212 80 58 00
        E 540 90 53 4c
        E 477 90 53 4c
        E 21 80 53 00
        E 219 80 53 00
        E 237 90 58 55
        E 988 80 58 00
        E 62 90 58 4c
        E 453 80 58 00
        E 596 90 58 63
        E 898 80 58 00
        E 148 90 58 4f
        E 898 80 58 00
        E 178 90 58 58
        E 898 80 58 00
        E 136 90 58 4c
        E 808 80 58 00
        E 241 90 58 4c
        E 808 80 58 00
        E 935 90 58 5a
        E 811 90 58 4e
        E 177 80 58 00
        E 503 80 58 00
        E 381 90 58 5f
        E 510 90 58 4c
        E 388 80 58 00
        E 65 80 58 00
        E 973 90 58 53
        E 898 80 58 00
        E 147 90 58 4c
        E 898 80 58 00
        E 331 90 58 4c
        E 808 80 58 00
        E 247 90 58 63
        E 523 90 58 56
        E 453 80 58 00
        E 21 80 58 00
        E 577 90 58 4c
        E 898 80 58 00
        E 170 90 58 4c
        E 898 80 58 00
        E 135 90 58 4c
        E 227 80 58 00
        E 300 90 58 4c
        E 227 80 58 00
        E 300 90 53 68
        E 898 80 53 00
        E 159 90 53 4c
        E 763 90 51 4c
        E 45 80 53 00
        E 195 80 51 00
        E 524 90 4c 4c
        E 645 90 4c 4c
        E 240 80 4c 00
        E 103 80 4c 00
        E 303 90 51 61
        E 227 80 51 00
        E 586 90 51 4c
        E 898 80 51 00
        E 179 90 51 58
        E 898 80 51 00
        E 686 90 51 53
        E 898 80 51 00
        E 140 90 51 4c
        E 808 80 51 00
        E 248 90 51 4c
        E 808 80 51 00
        E 245 90 51 68
        E 997 80 51 00
        E 571 90 51 4c
        E 898 80 51 00
        E 158 90 51 53
        E 898 80 51 00
        E 163 90 51 4f
        E 453 80 51 00
        E 598 90 4e 4c
        E 898 80 4e 00
        E 396 90 4c 4c
        E 808 80 4c 00
        E 0 b0 7b 00
        E 1 ff 2f 00
      >
    >
  >
  <TRACK
    NAME "Drone"
    PEAKCOL 4284506208
    VOLPAN 1.000000 0 1 -1
    MIDIOUT -1
    ISBUS 0 0
    <ITEM
      POSITION 0.000000
      LENGTH 80.100000
      NAME "Drone"
      VOLPAN 1 0 1 -1
      <SOURCE MIDI
        HASDATA 1 960 QN
        E 0 c1 30 00
        E 0 91 40 02
        E 0 91 47 02
        E 107520 81 40 00
        E 0 81 47 00
        E 0 b1 7b 00
        E 1 ff 2f 00
      >
    >
  >
  <TRACK
    NAME "Brass"
    PEAKCOL 4290740026
    VOLPAN 1.000000 0 1 -1
    MIDIOUT -1
    ISBUS 0 0
    <ITEM
      POSITION 0.004382
      LENGTH 75.748021
      NAME "Brass"
      VOLPAN 1 0 1 -1
      <SOURCE MIDI
        HASDATA 1 960 QN
        E 0 c2 3d 00
        E 6 92 47 7a
        E 4 92 3b 7a
        E 1148 82 47 00
        E 4 82 3b 00
        E 1009 92 3b 7a
        E 2 92 3b 7a
        E 1150 82 3b 00
        E 2 82 3b 00
        E 995 92 45 7a
        E 12 92 39 7a
        E 1 92 39 7a
        E 1139 82 45 00
        E 12 82 39 00
        E 1 82 39 00
        E 1005 92 39 7a
        E 4 92 45 7a
        E 1148 82 39 00
        E 4 82 45 00
        E 1008 92 39 7a
        E 1152 82 39 00
        E 1003 92 39 7a
        E 1 92 45 7a
        E 1151 82 39 00
        E 1 82 45 00
        E 5323 92 3b 7a
        E 3 92 3b 7a
        E 5 92 47 7a
        E 1144 82 3b 00
        E 3 82 3b 00
        E 5 82 47 00
        E 995 92 45 7a
        E 6 92 45 7a
        E 1146 82 45 00
        E 6 82 45 00
        E 1002 92 45 7a
        E 7 92 45 7a
        E 0 92 39 7a
        E 4 92 39 7a
        E 1 92 39 7a
        E 1140 82 45 00
        E 7 82 45 00
        E 0 82 39 00
        E 4 82 39 00
        E 1 82 39 00
        E 996 92 45 7a
        E 7 92 39 7a
        E 1 92 39 7a
        E 2 92 45 7a
        E 3 92 39 7a
        E 1139 82 45 00
        E 7 82 39 00
        E 1 82 39 00
        E 2 82 45 00
        E 3 82 39 00
        E 995 92 45 7a
        E 9 92 39 7a
        E 1 92 39 7a
        E 2 92 45 7a
        E 1 92 39 7a
        E 1139 82 45 00
        E 9 82 39 00
        E 1 82 39 00
        E 2 82 45 00
        E 1 82 39 00
        E 995 92 47 7a
        E 7 92 47 7a
        E 0 92 3b 7a
        E 6 92 3b 7a
        E 1 92 3b 7a
        E 1138 82 47 00
        E 7 82 47 00
        E 0 82 3b 00
        E 6 82 3b 00
        E 1 82 3b 00
        E 994 92 47 7a
        E 5 92 47 7a
        E 1 92 3b 7a
        E 6 92 3b 7a
        E 2 92 3b 7a
        E 1138 82 47 00
        E 5 82 47 00
        E 1 82 3b 00
        E 6 82 3b 00
        E 2 82 3b 00
        E 994 92 47 7a
        E 5 92 3b 7a
        E 4 92 3b 7a
        E 3 92 3b 7a
        E 1 92 47 7a
        E 1139 82 47 00
        E 5 82 3b 00
        E 4 82 3b 00
        E 3 82 3b 00
        E 1 82 47 00
        E 995 92 47 7a
        E 5 92 3b 7a
        E 1 92 3b 7a
        E 4 92 47 7a
        E 4 92 3b 7a
        E 1138 82 47 00
        E 5 82 3b 00
        E 1 82 3b 00
        E 4 82 47 00
        E 4 82 3b 00
        E 994 92 47 7a
        E 6 92 3b 7a
        E 5 92 47 7a
        E 2 92 3b 7a
        E 1 92 3b 7a
        E 1138 82 47 00
        E 6 82 3b 00
        E 5 82 47 00
        E 2 82 3b 00
        E 1 82 3b 00
        E 994 92 45 7a
        E 6 92 39 7a
        E 2 92 45 7a
        E 1 92 39 7a
        E 0 92 39 7a
        E 1143 82 45 00
        E 6 82 39 00
        E 2 82 45 00
        E 1 82 39 00
        E 0 82 39 00
        E 999 92 45 7a
        E 6 92 39 7a
        E 2 92 39 7a
        E 3 92 45 7a
        E 3 92 39 7a
        E 1138 82 45 00
        E 6 82 39 00
        E 2 82 39 00
        E 3 82 45 00
        E 3 82 39 00
        E 994 92 47 7a
        E 7 92 3b 7a
        E 0 92 3b 7a
        E 1 92 3b 7a
        E 3 92 47 7a
        E 1141 82 47 00
        E 7 82 3b 00
        E 0 82 3b 00
        E 1 82 3b 00
        E 3 82 47 00
        E 997 92 47 7a
        E 5 92 3b 7a
        E 3 92 3b 7a
        E 5 92 47 7a
        E 1 92 3b 7a
        E 1138 82 47 00
        E 5 82 3b 00
        E 3 82 3b 00
        E 5 82 47 00
        E 1 82 3b 00
        E 994 92 47 7a
        E 7 92 47 7a
        E 0 92 3b 7a
        E 4 92 3b 7a
        E 2 92 3b 7a
        E 1139 82 47 00
        E 7 82 47 00
        E 0 82 3b 00
        E 4 82 3b 00
        E 2 82 3b 00
        E 995 92 47 7a
        E 7 92 3b 7a
        E 4 92 3b 7a
        E 1 92 47 7a
        E 0 92 3b 7a
        E 1140 82 47 00
        E 7 82 3b 00
        E 4 82 3b 00
        E 1 82 47 00
        E 0 82 3b 00
        E 996 92 45 7a
        E 6 92 39 7a
        E 2 92 45 7a
        E 5 92 39 7a
        E 0 92 39 7a
        E 1139 82 45 00
        E 6 82 39 00
        E 2 82 45 00
        E 5 82 39 00
        E 0 82 39 00
        E 995 92 45 7a
        E 10 92 45 7a
        E 0 92 39 7a
        E 1 92 39 7a
        E 0 92 39 7a
        E 1141 82 45 00
        E 10 82 45 00
        E 0 82 39 00
        E 1 82 39 00
        E 0 82 39 00
        E 997 92 45 7a
        E 5 92 39 7a
        E 0 92 39 7a
        E 2 92 45 7a
        E 5 92 39 7a
        E 1140 82 45 00
        E 5 82 39 00
        E 0 82 39 00
        E 2 82 45 00
        E 5 82 39 00
        E 996 92 47 7a
        E 6 92 3b 7a
        E 2 92 3b 7a
        E 2 92 3b 7a
        E 4 92 47 7a
        E 1138 82 47 00
        E 6 82 3b 00
        E 2 82 3b 00
        E 2 82 3b 00
        E 4 82 47 00
        E 994 92 47 7a
        E 5 92 47 7a
        E 2 92 3b 7a
        E 7 92 3b 7a
        E 0 92 3b 7a
        E 1138 82 47 00
        E 5 82 47 00
        E 2 82 3b 00
        E 7 82 3b 00
        E 0 82 3b 00
        E 994 92 47 7a
        E 6 92 3b 7a
        E 2 92 3b 7a
        E 2 92 47 7a
        E 3 92 3b 7a
        E 1139 82 47 00
        E 6 82 3b 00
        E 2 82 3b 00
        E 2 82 47 00
        E 3 82 3b 00
        E 995 92 47 7a
        E 8 92 3b 7a
        E 0 92 47 7a
        E 2 92 3b 7a
        E 0 92 3b 7a
        E 1142 82 47 00
        E 8 82 3b 00
        E 0 82 47 00
        E 2 82 3b 00
        E 0 82 3b 00
        E 998 92 45 7a
        E 6 92 39 7a
        E 2 92 45 7a
        E 1 92 39 7a
        E 4 92 39 7a
        E 1139 82 45 00
        E 6 82 39 00
        E 2 82 45 00
        E 1 82 39 00
        E 4 82 39 00
        E 995 92 45 7a
        E 7 92 45 7a
        E 1 92 39 7a
        E 0 92 39 7a
        E 6 92 39 7a
        E 1138 82 45 00
        E 7 82 45 00
        E 1 82 39 00
        E 0 82 39 00
        E 6 82 39 00
        E 994 92 45 7a
        E 7 92 39 7a
        E 4 92 39 7a
        E 1 92 39 7a
        E 0 92 45 7a
        E 1140 82 45 00
        E 7 82 39 00
        E 4 82 39 00
        E 1 82 39 00
        E 0 82 45 00
        E 996 92 47 7a
        E 8 92 3b 7a
        E 0 92 3b 7a
        E 0 92 47 7a
        E 6 92 3b 7a
        E 1138 82 47 00
        E 8 82 3b 00
        E 0 82 3b 00
        E 0 82 47 00
        E 6 82 3b 00
        E 994 92 47 7a
        E 7 92 3b 7a
        E 1 92 3b 7a
        E 1 92 3b 7a
        E 3 92 47 7a
        E 1140 82 47 00
        E 7 82 3b 00
        E 1 82 3b 00
        E 1 82 3b 00
        E 3 82 47 00
        E 996 92 47 7a
        E 7 92 3b 7a
        E 3 92 47 7a
        E 1 92 3b 7a
        E 1 92 3b 7a
        E 1140 82 47 00
        E 7 82 3b 00
        E 3 82 47 00
        E 1 82 3b 00
        E 1 82 3b 00
        E 996 92 47 7a
        E 9 92 3b 7a
        E 0 92 3b 7a
        E 4 92 3b 7a
        E 1 92 47 7a
        E 1138 82 47 00
        E 9 82 3b 00
        E 0 82 3b 00
        E 4 82 3b 00
        E 1 82 47 00
        E 994 92 47 7a
        E 10 92 3b 7a
        E 3 92 3b 7a
        E 0 92 47 7a
        E 1 92 3b 7a
        E 1138 82 47 00
        E 10 82 3b 00
        E 3 82 3b 00
        E 0 82 47 00
        E 1 82 3b 00
        E 994 92 47 7a
        E 8 92 3b 7a
        E 4 92 3b 7a
        E 1 92 47 7a
        E 1 92 3b 7a
        E 1138 82 47 00
        E 8 82 3b 00
        E 4 82 3b 00
        E 1 82 47 00
        E 1 82 3b 00
        E 1001 92 45 7a
        E 1152 82 45 00
        E 1007 92 3b 7a
        E 8 92 47 7a
        E 1144 82 3b 00
        E 8 82 47 00
        E 3168 92 3b 7a
        E 0 92 47 7a
        E 1152 82 3b 00
        E 0 82 47 00
        E 994 92 47 7a
        E 1152 82 47 00
        E 1013 92 39 7a
        E 1152 82 39 00
        E 3163 92 45 7a
        E 9 92 39 7a
        E 4 92 39 7a
        E 131 82 45 00
        E 9 82 39 00
        E 4 82 39 00
        E 0 b2 7b 00
        E 1 ff 2f 00
      >
    >
  >
  <TRACK
    NAME "Violin1"
    PEAKCOL 4284186559
    VOLPAN 1.000000 0 1 -1
    MIDIOUT -1
    ISBUS 0 0
    <ITEM
      POSITION 2.865194
      LENGTH 77.238458
      NAME "Violin1"
      VOLPAN 1 0 1 -1
      <SOURCE MIDI
        HASDATA 1 960 QN
        E 0 c3 28 00
        E 3851 93 4c 5c
        E 3840 83 4c 00
        E 3837 93 47 5e
        E 3840 83 47 00
        E 7686 93 45 5e
        E 3833 93 47 5c
        E 7 83 45 00
        E 3833 83 47 00
        E 6 93 47 5e
        E 3834 93 47 5c
        E 6 83 47 00
        E 3834 83 47 00
        E 1 93 4c 5f
        E 3833 93 51 5c
        E 7 83 4c 00
        E 3833 83 51 00
        E 9 93 4c 5c
        E 3833 93 4c 63
        E 7 83 4c 00
        E 3833 83 4c 00
        E 8 93 4c 5e
        E 3829 93 4c 5e
        E 11 83 4c 00
        E 3829 83 4c 00
        E 1 93 51 63
        E 3840 83 51 00
        E 0 93 51 5e
        E 3840 83 51 00
        E 11 93 51 61
        E 3840 83 51 00
        E 1 93 53 63
        E 3837 93 53 63
        E 3 83 53 00
        E 3831 93 51 63
        E 6 83 53 00
        E 3833 93 51 61
        E 1 83 51 00
        E 3839 83 51 00
        E 3849 93 4c 63
        E 3840 83 4c 00
        E 3830 93 4c 5e
        E 3840 83 4c 00
        E 3 93 47 63
        E 3840 83 47 00
        E 0 b3 7b 00
        E 1 ff 2f 00
      >
    >
  >
  <TRACK
    NAME "Strings"
    PEAKCOL 4284186559
    VOLPAN 1.000000 0 1 -1
    MIDIOUT -1
    ISBUS 0 0
    <ITEM
      POSITION 0.000000
      LENGTH 80.102109
      NAME "Strings"
      VOLPAN 1 0 1 -1
      <SOURCE MIDI
        HASDATA 1 960 QN
        E 0 c4 30 00
        E 0 94 48 37
        E 0 94 48 37
        E 9 94 40 37
        E 1907 94 48 37
        E 3 94 48 37
        E 1 84 40 00
        E 0 94 40 37
        E 2 94 43 37
        E 1 84 48 00
        E 9 84 48 00
        E 1895 84 40 00
        E 2 94 32 37
        E 11 94 3c 37
        E 4 84 48 00
        E 3 94 48 37
        E 2 84 43 00
        E 7 84 48 00
        E 1896 94 43 37
        E 3 84 32 00
        E 5 84 3c 00
        E 5 84 48 00
        E 7 94 48 37
        E 1897 84 43 00
        E 23 84 48 00
        E 1899 94 48 37
        E 2 94 48 37
        E 14 94 41 37
        E 6 94 41 37
        E 1 94 48 37
        E 1890 84 48 00
        E 4 94 48 37
        E 3 84 48 00
        E 19 84 41 00
        E 2 84 48 00
        E 10 84 41 00
        E 1869 84 48 00
        E 28 94 43 37
        E 1 94 3b 37
        E 1914 84 43 00
        E 2 94 43 37
        E 4 84 3b 00
        E 1 94 48 37
        E 3 94 48 37
        E 1898 84 43 00
        E 5 84 48 00
        E 12 84 48 00
        E 5 94 48 37
        E 1913 84 48 00
        E 8 94 32 37
        E 1902 84 32 00
        E 4 94 48 37
        E 9 94 3c 37
        E 5 94 40 37
        E 6 94 48 37
        E 1898 94 45 37
        E 2 94 32 37
        E 2 94 32 37
        E 2 94 48 37
        E 1 84 48 00
        E 4 84 3c 00
        E 0 94 3c 37
        E 6 84 40 00
        E 0 94 41 37
        E 2 94 48 37
        E 1 94 32 37
        E 2 84 48 00
        E 1879 84 45 00
        E 4 84 32 00
        E 4 84 32 00
        E 11 84 48 00
        E 1 94 32 37
        E 1 94 32 37
        E 2 84 41 00
        E 0 94 41 37
        E 0 94 41 37
        E 2 94 48 37
        E 5 84 3c 00
        E 0 94 3c 37
        E 9 94 48 37
        E 2 94 45 37
        E 2 84 32 00
        E 13 84 48 00
        E 1870 84 48 00
        E 12 94 32 37
        E 3 84 41 00
        E 0 94 48 37
        E 2 84 32 00
        E 2 84 48 00
        E 2 84 45 00
        E 3 84 3c 00
        E 0 94 3b 37
        E 2 84 32 00
        E 1 84 41 00
        E 0 94 48 37
        E 3 94 48 37
        E 1 94 48 37
        E 1 94 48 37
        E 6 94 40 37
        E 1886 84 48 00
        E 7 94 48 37
        E 1 94 40 37
        E 0 94 48 37
        E 3 94 48 37
        E 1 84 48 00
        E 0 94 40 37
        E 0 94 48 37
        E 2 84 48 00
        E 3 84 32 00
        E 3 84 3b 00
        E 0 94 3b 37
        E 4 84 48 00
        E 2 94 48 37
        E 14 84 40 00
        E 1 84 48 00
        E 1875 84 40 00
        E 6 84 40 00
        E 12 84 48 00
        E 3 84 48 00
        E 3 84 3b 00
        E 0 94 3b 37
        E 0 94 32 37
        E 4 84 48 00
        E 1 84 48 00
        E 2 94 48 37
        E 3 84 48 00
        E 0 94 43 37
        E 1 94 48 37
        E 0 94 48 37
        E 2 94 40 37
        E 1 94 48 37
        E 1892 94 48 37
        E 2 84 32 00
        E 7 84 40 00
        E 1 94 40 37
        E 3 94 32 37
        E 0 94 48 37
        E 1 84 3b 00
        E 0 84 48 00
        E 0 94 3b 37
        E 3 94 48 37
        E 2 84 43 00
        E 0 94 48 37
        E 4 94 40 37
        E 1 84 48 00
        E 15 84 48 00
        E 3 84 48 00
        E 1865 84 48 00
        E 8 84 32 00
        E 5 94 32 37
        E 1 84 48 00
        E 0 94 32 37
        E 3 84 40 00
        E 5 84 48 00
        E 3 94 48 37
        E 2 84 3b 00
        E 0 94 3b 37
        E 0 94 43 37
        E 1 94 43 37
        E 0 94 43 37
        E 1 94 48 37
        E 2 84 40 00
        E 18 84 48 00
        E 1871 84 32 00
        E 3 84 32 00
        E 7 84 48 00
        E 1 84 43 00
        E 0 84 48 00
        E 6 84 43 00
        E 1 94 32 37
        E 6 94 48 37
        E 3 84 3b 00
        E 0 94 3b 37
        E 0 94 32 37
        E 2 94 32 37
        E 4 94 48 37
        E 0 94 48 37
        E 6 94 32 37
        E 7 84 43 00
        E 1885 84 48 00
        E 3 84 32 00
        E 2 94 48 37
        E 3 94 32 37
        E 0 94 32 37
        E 2 94 48 37
        E 3 94 32 37
        E 1 94 32 37
        E 2 84 3b 00
        E 0 94 39 37
        E 2 84 32 00
        E 2 84 32 00
        E 2 84 48 00
        E 2 94 48 37
        E 7 84 32 00
        E 5 84 48 00
        E 1878 84 32 00
        E 7 84 32 00
        E 7 94 41 37
        E 2 84 48 00
        E 1 94 45 37
        E 1 84 48 00
        E 2 84 32 00
        E 0 94 32 37
        E 0 94 48 37
        E 2 84 39 00
        E 0 94 39 37
        E 2 84 48 00
        E 0 94 48 37
        E 1 84 32 00
        E 2 94 48 37
        E 6 94 48 37
        E 1901 94 48 37
        E 0 94 40 37
        E 2 94 48 37
        E 4 84 45 00
        E 0 94 48 37
        E 2 84 32 00
        E 0 84 39 00
        E 0 94 3b 37
        E 3 84 41 00
        E 1 84 48 00
        E 2 84 48 00
        E 0 94 48 37
        E 6 94 48 37
        E 0 94 32 37
        E 5 84 48 00
        E 11 84 48 00
        E 1873 84 48 00
        E 0 84 40 00
        E 10 84 48 00
        E 5 94 48 37
        E 1 84 48 00
        E 2 94 48 37
        E 1 84 3b 00
        E 0 94 3b 37
        E 1 94 40 37
        E 0 94 40 37
        E 1 94 48 37
        E 1 84 48 00
        E 3 94 48 37
        E 8 94 48 37
        E 5 84 32 00
        E 3 84 48 00
        E 1884 94 48 37
        E 0 94 48 37
        E 9 84 40 00
        E 0 94 32 37
        E 2 94 40 37
        E 3 84 3b 00
        E 0 94 3b 37
        E 2 84 40 00
        E 2 84 48 00
        E 0 94 32 37
        E 4 84 48 00
        E 0 94 48 37
        E 5 84 48 00
        E 1 94 48 37
        E 6 84 48 00
        E 7 84 48 00
        E 1884 94 32 37
        E 3 84 40 00
        E 1 94 47 37
        E 0 94 48 37
        E 1 94 48 37
        E 1 84 48 00
        E 0 84 48 00
        E 3 84 3b 00
        E 0 94 3b 37
        E 8 94 48 37
        E 1 84 32 00
        E 1 84 48 00
        E 3 94 48 37
        E 1 94 48 37
        E 5 84 32 00
        E 4 84 48 00
        E 1871 84 32 00
        E 9 84 48 00
        E 5 94 48 37
        E 4 84 47 00
        E 1 94 48 37
        E 2 84 48 00
        E 3 94 32 37
        E 2 84 3b 00
        E 0 94 3c 37
        E 3 94 48 37
        E 2 94 48 37
        E 2 84 48 00
        E 1 94 48 37
        E 1 84 48 00
        E 5 94 48 37
        E 3 84 48 00
        E 1884 84 48 00
        E 0 84 48 00
        E 5 84 48 00
        E 0 94 32 37
        E 7 94 48 37
        E 1 84 32 00
        E 3 84 48 00
        E 2 84 48 00
        E 1 84 3c 00
        E 0 94 48 37
        E 0 94 3c 37
        E 3 94 48 37
        E 2 94 32 37
        E 3 94 43 37
        E 2 84 48 00
        E 3 94 48 37
        E 1888 84 32 00
        E 6 94 32 37
        E 2 94 48 37
        E 4 94 48 37
        E 1 84 48 00
        E 6 84 3c 00
        E 0 84 48 00
        E 0 94 3c 37
        E 1 84 48 00
        E 1 84 32 00
        E 2 94 48 37
        E 3 94 48 37
        E 1 94 41 37
        E 1 84 48 00
        E 4 94 48 37
        E 13 84 43 00
        E 1870 84 48 00
        E 11 84 48 00
        E 3 94 48 37
        E 2 94 48 37
        E 0 94 48 37
        E 7 94 45 37
        E 1 84 3c 00
        E 0 94 3c 37
        E 2 84 32 00
        E 2 94 48 37
        E 1 84 48 00
        E 5 94 32 37
        E 2 84 48 00
        E 1 94 41 37
        E 3 84 41 00
        E 16 84 48 00
        E 1861 84 48 00
        E 1 84 48 00
        E 13 94 48 37
        E 5 94 32 37
        E 3 84 48 00
        E 0 94 43 37
        E 1 94 40 37
        E 3 84 48 00
        E 0 94 48 37
        E 1 84 3c 00
        E 0 94 3b 38
        E 8 94 32 37
        E 6 94 47 37
        E 3 84 45 00
        E 5 84 32 00
        E 2 84 41 00
        E 1878 84 48 00
        E 4 84 48 00
        E 0 94 32 37
        E 1 94 48 37
        E 1 84 40 00
        E 1 84 43 00
        E 0 94 43 37
        E 2 84 32 00
        E 0 94 48 37
        E 9 84 3b 00
        E 0 94 43 37
        E 0 94 3b 38
        E 3 94 48 37
        E 8 94 40 37
        E 16 84 32 00
        E 2 84 47 00
        E 1867 84 32 00
        E 9 84 43 00
        E 1 94 43 37
        E 2 94 48 37
        E 3 94 43 37
        E 1 84 48 00
        E 0 94 48 37
        E 3 84 48 00
        E 5 84 3b 00
        E 0 94 3b 3a
        E 1 84 40 00
        E 3 94 48 37
        E 1 84 43 00
        E 1 94 43 37
        E 7 94 32 37
        E 6 84 48 00
        E 1880 84 48 00
        E 11 84 48 00
        E 1 94 48 37
        E 1 94 40 37
        E 1 94 43 37
        E 1 94 48 37
        E 2 84 48 00
        E 0 94 43 37
        E 1 94 48 37
        E 1 84 43 00
        E 2 84 3b 00
        E 0 94 3b 3a
        E 4 84 43 00
        E 1 84 43 00
        E 1 94 47 37
        E 3 84 32 00
        E 1896 84 40 00
        E 2 84 43 00
        E 0 94 48 37
        E 2 94 48 37
        E 4 84 47 00
        E 3 94 43 37
        E 2 94 48 37
        E 2 84 48 00
        E 0 84 3b 00
        E 0 94 3c 3a
        E 6 84 43 00
        E 2 84 48 00
        E 0 94 48 37
        E 3 94 48 37
        E 1 84 48 00
        E 0 94 48 37
        E 1898 94 48 37
        E 2 84 43 00
        E 1 94 43 37
        E 2 94 48 37
        E 1 84 48 00
        E 0 94 32 37
        E 2 84 48 00
        E 1 94 48 37
        E 1 84 3c 00
        E 0 94 3c 3c
        E 4 94 32 37
        E 3 84 48 00
        E 1 84 48 00
        E 3 84 48 00
        E 1 94 48 37
        E 18 84 48 00
        E 1877 94 48 37
        E 2 84 43 00
        E 0 84 32 00
        E 0 94 41 37
        E 4 94 48 37
        E 0 94 48 37
        E 6 84 48 00
        E 1 84 48 00
        E 0 84 3c 00
        E 0 94 3c 3c
        E 1 84 48 00
        E 0 84 32 00
        E 1 94 48 37
        E 3 84 48 00
        E 6 94 32 37
        E 1 94 45 37
        E 1893 84 48 00
        E 1 94 48 37
        E 0 94 48 37
        E 0 94 48 37
        E 2 84 48 00
        E 5 84 48 00
        E 4 94 48 37
        E 3 84 3c 00
        E 0 94 3c 3c
        E 5 84 41 00
        E 0 94 32 37
        E 3 94 41 37
        E 1 84 48 00
        E 1 84 32 00
        E 1 84 45 00
        E 2 94 48 37
        E 1895 94 32 37
        E 0 94 32 37
        E 1 94 48 37
        E 4 84 48 00
        E 2 94 48 37
        E 2 84 48 00
        E 0 94 48 37
        E 3 84 3c 00
        E 0 84 48 00
        E 0 94 48 37
        E 0 94 3b 3c
        E 0 94 47 37
        E 1 84 48 00
        E 11 84 48 00
        E 1 84 41 00
        E 7 84 32 00
        E 1874 84 48 00
        E 13 84 48 00
        E 0 94 43 37
        E 4 84 48 00
        E 1 94 32 37
        E 2 84 48 00
        E 3 84 47 00
        E 3 84 3b 00
        E 0 94 43 37
        E 0 94 3b 3c
        E 1 94 48 37
        E 2 84 32 00
        E 2 84 32 00
        E 4 94 43 37
        E 1 94 48 37
        E 1 94 32 37
        E 1889 84 43 00
        E 3 84 48 00
        E 3 94 32 37
        E 3 94 47 37
        E 1 94 48 37
        E 2 84 48 00
        E 2 94 48 37
        E 1 84 32 00
        E 2 84 43 00
        E 0 94 47 37
        E 3 84 3b 00
        E 0 94 3b 3e
        E 0 94 48 37
        E 5 84 32 00
        E 9 94 48 37
        E 6 84 43 00
        E 1887 84 48 00
        E 0 94 48 37
        E 1 94 48 37
        E 1 94 48 37
        E 1 84 48 00
        E 2 94 43 37
        E 8 84 32 00
        E 0 84 47 00
        E 0 84 3b 00
        E 0 94 3b 3e
        E 3 94 48 37
        E 7 84 47 00
        E 0 94 48 37
        E 2 94 48 37
        E 4 84 48 00
        E 9 84 48 00
        E 1882 84 48 00
        E 2 94 32 37
        E 1 84 48 00
        E 1 94 48 37
        E 2 84 43 00
        E 1 84 48 00
        E 3 84 48 00
        E 1 94 32 37
        E 1 94 32 37
        E 1 84 3b 00
        E 0 94 3b 3e
        E 1 84 48 00
        E 0 84 48 00
        E 4 94 48 37
        E 5 94 48 37
        E 4 94 47 37
        E 1887 84 32 00
        E 6 84 48 00
        E 4 94 48 37
        E 0 94 48 37
        E 3 84 48 00
        E 0 94 48 37
        E 6 84 3b 00
        E 0 94 3b 40
        E 0 94 32 37
        E 1 84 32 00
        E 0 84 47 00
        E 3 84 32 00
        E 0 84 48 00
        E 2 94 48 37
        E 4 94 48 37
        E 0 94 48 37
        E 1896 94 48 37
        E 0 94 48 37
        E 6 84 48 00
        E 8 84 3b 00
        E 0 94 39 40
        E 4 84 48 00
        E 1 94 3c 37
        E 3 84 48 00
        E 2 84 48 00
        E 0 94 48 37
        E 1 94 32 37
        E 2 94 48 37
        E 1 84 32 00
        E 0 94 48 37
        E 12 84 48 00
        E 2 84 48 00
        E 1876 84 48 00
        E 5 84 48 00
        E 5 84 48 00
        E 5 84 32 00
        E 1 84 39 00
        E 1 94 32 37
        E 2 84 48 00
        E 2 84 3c 00
        E 14 84 48 00
        E 1893 94 3b 37
        E 13 84 32 00
        E 1906 94 48 37
        E 8 84 3b 00
        E 5 94 3b 37
        E 1900 84 48 00
        E 11 84 3b 00
        E 3 94 48 37
        E 1 94 48 37
        E 1910 94 48 37
        E 4 94 40 37
        E 4 84 48 00
        E 0 84 48 00
        E 1906 84 40 00
        E 4 84 48 00
        E 13 94 37 43
        E 5 94 43 37
        E 1908 94 32 37
        E 4 94 3c 37
        E 3 84 37 00
        E 15 84 43 00
        E 1891 94 45 37
        E 6 84 3c 00
        E 1 84 32 00
        E 1 94 32 37
        E 16 94 48 37
        E 2 94 41 37
        E 1897 94 32 37
        E 3 94 32 37
        E 7 84 45 00
        E 0 84 32 00
        E 1 94 35 45
        E 9 94 48 37
        E 9 84 48 00
        E 8 84 41 00
        E 1876 84 32 00
        E 3 84 32 00
        E 7 94 32 37
        E 8 84 35 00
        E 0 94 37 45
        E 1 94 43 37
        E 20 84 48 00
        E 1877 84 32 00
        E 8 84 43 00
        E 14 84 37 00
        E 0 94 37 47
        E 5 94 32 37
        E 1915 84 37 00
        E 3 84 32 00
        E 0 b4 7b 00
        E 1 ff 2f 00
      >
    >
  >
  <TRACK
    NAME "Choir"
    PEAKCOL 4284506208
    VOLPAN 1.000000 0 1 -1
    MIDIOUT -1
    ISBUS 0 0
    <ITEM
      POSITION 0.005714
      LENGTH 79.874221
      NAME "Choir"
      VOLPAN 1 0 1 -1
      <SOURCE MIDI
        HASDATA 1 960 QN
        E 0 c5 34 00
        E 8 95 40 55
        E 15 95 34 55
        E 3518 85 40 00
        E 15 85 34 00
        E 302 95 32 58
        E 3533 85 32 00
        E 299 95 40 5c
        E 5 95 39 55
        E 3528 85 40 00
        E 5 85 39 00
        E 301 95 40 5c
        E 4 95 45 58
        E 3529 85 40 00
        E 4 85 45 00
        E 302 95 45 5a
        E 12 95 34 5c
        E 3521 85 45 00
        E 12 85 34 00
        E 310 95 32 56
        E 3533 85 32 00
        E 291 95 3b 5a
        E 6 95 40 55
        E 8 95 39 56
        E 7 95 32 5c
        E 3512 85 3b 00
        E 6 85 40 00
        E 8 85 39 00
        E 7 85 32 00
        E 287 95 45 55
        E 0 95 40 55
        E 8 95 3b 5c
        E 1 95 34 5a
        E 3524 85 45 00
        E 0 85 40 00
        E 8 85 3b 00
        E 1 85 34 00
        E 295 95 40 55
        E 1 95 45 5c
        E 6 95 3b 5c
        E 11 95 34 55
        E 3515 85 40 00
        E 1 85 45 00
        E 6 85 3b 00
        E 11 85 34 00
        E 289 95 45 56
        E 2 95 40 55
        E 11 95 34 5c
        E 1 95 3b 58
        E 3519 85 45 00
        E 2 85 40 00
        E 11 85 34 00
        E 1 85 3b 00
        E 293 95 40 58
        E 2 95 3b 5c
        E 13 95 39 5c
        E 3 95 32 55
        E 3515 85 40 00
        E 2 85 3b 00
        E 13 85 39 00
        E 3 85 32 00
        E 288 95 40 5c
        E 10 95 45 5c
        E 2 95 34 56
        E 3 95 3b 58
        E 3518 85 40 00
        E 10 85 45 00
        E 2 85 34 00
        E 3 85 3b 00
        E 293 95 40 5c
        E 6 95 45 58
        E 0 95 3b 5c
        E 18 95 34 5c
        E 3509 85 40 00
        E 6 85 45 00
        E 0 85 3b 00
        E 18 85 34 00
        E 278 95 3b 5a
        E 7 95 40 58
        E 3 95 39 5a
        E 5 95 32 5c
        E 3518 85 3b 00
        E 7 85 40 00
        E 3 85 39 00
        E 5 85 32 00
        E 296 95 3b 58
        E 8 95 40 55
        E 8 95 39 56
        E 1 95 32 55
        E 3516 85 3b 00
        E 8 85 40 00
        E 8 85 39 00
        E 1 85 32 00
        E 294 95 40 55
        E 4 95 3b 55
        E 2 95 45 5a
        E 14 95 34 55
        E 3513 85 40 00
        E 4 85 3b 00
        E 2 85 45 00
        E 14 85 34 00
        E 279 95 40 58
        E 6 95 45 5c
        E 5 95 3b 55
        E 17 95 34 56
        E 3505 85 40 00
        E 6 85 45 00
        E 5 85 3b 00
        E 17 85 34 00
        E 283 95 3b 58
        E 4 95 40 58
        E 11 95 39 5c
        E 10 95 32 5c
        E 3508 85 3b 00
        E 4 85 40 00
        E 11 85 39 00
        E 10 85 32 00
        E 283 95 3b 5c
        E 0 95 40 55
        E 11 95 39 5c
        E 7 95 32 55
        E 3515 85 3b 00
        E 0 85 40 00
        E 11 85 39 00
        E 7 85 32 00
        E 284 95 40 55
        E 10 95 45 55
        E 7 95 34 5a
        E 2 95 3b 55
        E 3514 85 40 00
        E 10 85 45 00
        E 7 85 34 00
        E 2 85 3b 00
        E 289 95 40 55
        E 13 95 45 5c
        E 5 95 3b 56
        E 4 95 34 5a
        E 3511 85 40 00
        E 13 85 45 00
        E 5 85 3b 00
        E 4 85 34 00
        E 286 95 40 5c
        E 8 95 3b 5a
        E 3 95 45 56
        E 10 95 34 56
        E 3512 85 40 00
        E 8 85 3b 00
        E 3 85 45 00
        E 10 85 34 00
        E 285 95 3b 5c
        E 10 95 40 5c
        E 7 95 39 58
        E 12 95 32 5a
        E 3504 85 3b 00
        E 10 85 40 00
        E 7 85 39 00
        E 12 85 32 00
        E 291 95 45 5a
        E 4 95 34 5c
        E 3529 85 45 00
        E 4 85 34 00
        E 11818 95 45 55
        E 2 95 3b 58
        E 3531 85 45 00
        E 2 85 3b 00
        E 0 b5 7b 00
        E 1 ff 2f 00
      >
    >
  >
  <TRACK
    NAME "Oboe"
    PEAKCOL 4282040170
    VOLPAN 1.000000 0 1 -1
    MIDIOUT -1
    ISBUS 0 0
    <ITEM
      POSITION 8.574665
      LENGTH 77.240545
      NAME "Oboe"
      VOLPAN 1 0 1 -1
      <SOURCE MIDI
        HASDATA 1 960 QN
        E 0 c6 44 00
        E 11524 96 47 53
        E 3840 86 47 00
        E 7677 96 47 58
        E 3840 86 47 00
        E 3846 96 47 55
        E 3838 96 47 5a
        E 2 86 47 00
        E 3838 86 47 00
        E 3846 96 47 5a
        E 3836 96 45 55
        E 4 86 47 00
        E 3836 86 45 00
        E 3844 96 47 5a
        E 3831 96 47 51
        E 9 86 47 00
        E 3831 86 47 00
        E 3839 96 4c 5a
        E 3840 86 4c 00
        E 10 96 51 55
        E 3840 86 51 00
        E 3838 96 4c 51
        E 3831 96 51 5a
        E 9 86 4c 00
        E 3831 86 51 00
        E 3846 96 53 56
        E 3840 86 53 00
        E 19195 96 58 5c
        E 3840 86 58 00
        E 0 b6 7b 00
        E 1 ff 2f 00
      >
    >
  >
  <TRACK
    NAME "Harp"
    PEAKCOL 4290756410
    VOLPAN 1.000000 0 1 -1
    MIDIOUT -1
    ISBUS 0 0
    <ITEM
      POSITION 0.088994
      LENGTH 79.977349
      NAME "Harp"
      VOLPAN 1 0 1 -1
      <SOURCE MIDI
        HASDATA 1 960 QN
        E 0 c7 2e 00
        E 120 97 37 55
        E 241 97 40 4c
        E 481 97 4f 38
        E 239 97 4f 37
        E 120 97 4c 37
        E 238 97 43 37
        E 124 97 40 37
        E 356 97 34 37
        E 1872 87 43 00
        E 0 87 34 00
        E 1 87 37 00
        E 1 87 40 00
        E 0 87 4f 00
        E 0 87 4c 00
        E 1 87 4f 00
        E 1 87 40 00
        E 287 97 3c 51
        E 475 97 4c 38
        E 365 97 4f 37
        E 115 97 4c 37
        E 2592 87 4c 00
        E 0 87 4c 00
        E 5 87 3c 00
        E 0 87 4f 00
        E 883 97 51 37
        E 125 97 54 37
        E 241 97 4d 37
        E 115 97 48 37
        E 123 97 45 37
        E 2348 87 51 00
        E 1 87 48 00
        E 3 87 45 00
        E 1 87 54 00
        E 1 87 4d 00
        E 46 97 34 61
        E 598 97 47 43
        E 241 97 4f 37
        E 959 97 37 37
        E 121 97 34 37
        E 1871 87 47 00
        E 0 87 37 00
        E 1 87 4f 00
        E 0 87 34 00
        E 1 87 34 00
        E 286 97 3b 51
        E 1081 97 47 37
        E 2471 87 3b 00
        E 1 87 47 00
        E 46 97 34 5e
        E 360 97 40 4e
        E 122 97 43 40
        E 117 97 48 3e
        E 480 97 4f 37
        E 723 97 37 37
        E 1989 87 48 00
        E 0 87 4f 00
        E 1 87 34 00
        E 0 87 40 00
        E 2 87 43 00
        E 0 87 37 00
        E 48 97 35 5e
        E 120 97 39 5c
        E 119 97 3c 4e
        E 122 97 41 4c
        E 119 97 45 48
        E 118 97 48 3c
        E 121 97 4d 37
        E 118 97 51 37
        E 122 97 54 37
        E 119 97 51 37
        E 122 97 4d 37
        E 118 97 48 37
        E 120 97 45 37
        E 120 97 41 37
        E 120 97 3c 37
        E 121 97 39 37
        E 123 97 35 37
        E 1867 87 51 00
        E 1 87 48 00
        E 0 87 51 00
        E 0 87 48 00
        E 0 87 45 00
        E 0 87 41 00
        E 0 87 3c 00
        E 1 87 3c 00
        E 0 87 4d 00
        E 0 87 54 00
        E 0 87 39 00
        E 1 87 35 00
        E 0 87 39 00
        E 0 87 45 00
        E 0 87 4d 00
        E 1 87 41 00
        E 1 87 35 00
        E 49 97 34 61
        E 116 97 37 5e
        E 120 97 3b 4e
        E 121 97 40 47
        E 122 97 43 48
        E 118 97 47 3a
        E 122 97 4c 3e
        E 116 97 4f 37
        E 124 97 53 37
        E 116 97 4f 37
        E 123 97 4c 37
        E 121 97 47 37
        E 117 97 43 37
        E 120 97 40 37
        E 119 97 3b 37
        E 121 97 37 37
        E 123 97 34 37
        E 1868 87 4f 00
        E 0 87 4f 00
        E 0 87 3b 00
        E 1 87 37 00
        E 0 87 3b 00
        E 0 87 43 00
        E 0 87 40 00
        E 0 87 37 00
        E 1 87 40 00
        E 0 87 47 00
        E 1 87 4c 00
        E 1 87 43 00
        E 0 87 4c 00
        E 0 87 53 00
        E 0 87 47 00
        E 0 87 34 00
        E 1 87 34 00
        E 47 97 34 65
        E 116 97 37 5e
        E 122 97 3b 56
        E 119 97 40 4f
        E 119 97 43 48
        E 125 97 47 41
        E 119 97 4c 3a
        E 119 97 4f 37
        E 117 97 53 37
        E 120 97 4f 37
        E 121 97 4c 37
        E 122 97 47 37
        E 119 97 43 37
        E 122 97 40 37
        E 115 97 3b 37
        E 124 97 37 37
        E 118 97 34 37
        E 1870 87 3b 00
        E 1 87 37 00
        E 0 87 43 00
        E 0 87 53 00
        E 0 87 4f 00
        E 1 87 40 00
        E 0 87 4c 00
        E 0 87 34 00
        E 1 87 3b 00
        E 0 87 43 00
        E 1 87 4f 00
        E 0 87 47 00
        E 0 87 37 00
        E 1 87 34 00
        E 0 87 4c 00
        E 0 87 40 00
        E 1 87 47 00
        E 43 97 32 5f
        E 120 97 37 5e
        E 124 97 3b 4e
        E 116 97 3e 48
        E 124 97 43 40
        E 119 97 47 41
        E 121 97 4a 3a
        E 119 97 4f 37
        E 118 97 53 37
        E 121 97 4f 37
        E 120 97 4a 37
        E 122 97 47 37
        E 120 97 43 37
        E 116 97 3e 37
        E 120 97 3b 37
        E 122 97 37 37
        E 121 97 32 37
        E 1869 87 32 00
        E 0 87 37 00
        E 0 87 3e 00
        E 0 87 3e 00
        E 0 87 3b 00
        E 1 87 53 00
        E 1 87 4f 00
        E 0 87 4a 00
        E 0 87 37 00
        E 1 87 47 00
        E 0 87 4f 00
        E 0 87 32 00
        E 1 87 3b 00
        E 0 87 43 00
        E 0 87 4a 00
        E 0 87 47 00
        E 0 87 43 00
        E 45 97 35 61
        E 118 97 39 5c
        E 122 97 3c 4f
        E 119 97 41 48
        E 124 97 45 41
        E 120 97 48 40
        E 119 97 4d 3c
        E 118 97 51 37
        E 123 97 54 37
        E 121 97 51 37
        E 115 97 4d 37
        E 123 97 48 37
        E 121 97 45 37
        E 119 97 41 37
        E 119 97 3c 37
        E 117 97 39 37
        E 120 97 35 37
        E 1872 87 39 00
        E 0 87 39 00
        E 0 87 35 00
        E 1 87 41 00
        E 0 87 4d 00
        E 1 87 35 00
        E 0 87 3c 00
        E 0 87 51 00
        E 1 87 3c 00
        E 1 87 4d 00
        E 0 87 48 00
        E 0 87 41 00
        E 1 87 45 00
        E 0 87 48 00
        E 0 87 54 00
        E 0 87 45 00
        E 1 87 51 00
        E 44 97 34 5f
        E 118 97 37 58
        E 121 97 3b 51
        E 123 97 40 47
        E 118 97 43 43
        E 120 97 47 3e
        E 123 97 4c 3c
        E 118 97 4f 37
        E 118 97 53 37
        E 124 97 4f 37
        E 117 97 4c 37
        E 119 97 47 37
        E 124 97 43 37
        E 119 97 40 37
        E 121 97 3b 37
        E 117 97 37 37
        E 122 97 34 37
        E 1868 87 37 00
        E 1 87 3b 00
        E 0 87 53 00
        E 0 87 47 00
        E 1 87 34 00
        E 0 87 43 00
        E 0 87 47 00
        E 0 87 4c 00
        E 0 87 37 00
        E 1 87 4f 00
        E 1 87 40 00
        E 0 87 40 00
        E 0 87 34 00
        E 1 87 4c 00
        E 0 87 4f 00
        E 0 87 43 00
        E 0 87 3b 00
        E 48 97 34 5f
        E 118 97 37 5c
        E 118 97 3b 56
        E 120 97 40 4a
        E 119 97 43 43
        E 126 97 47 41
        E 119 97 4c 3e
        E 117 97 4f 37
        E 123 97 53 37
        E 119 97 4f 37
        E 118 97 4c 37
        E 118 97 47 37
        E 124 97 43 37
        E 120 97 40 37
        E 122 97 3b 37
        E 115 97 37 37
        E 124 97 34 37
        E 1867 87 43 00
        E 0 87 47 00
        E 1 87 3b 00
        E 0 87 40 00
        E 0 87 37 00
        E 1 87 4f 00
        E 0 87 4c 00
        E 1 87 37 00
        E 1 87 4f 00
        E 0 87 43 00
        E 0 87 40 00
        E 1 87 34 00
        E 0 87 4c 00
        E 0 87 53 00
        E 0 87 34 00
        E 1 87 47 00
        E 0 87 3b 00
        E 43 97 34 63
        E 125 97 37 58
        E 116 97 3c 51
        E 122 97 40 4a
        E 121 97 43 43
        E 120 97 48 3e
        E 120 97 4c 37
        E 116 97 4f 37
        E 125 97 54 37
        E 119 97 4f 37
        E 119 97 4c 37
        E 120 97 48 37
        E 120 97 43 37
        E 118 97 40 37
        E 120 97 3c 37
        E 119 97 37 37
        E 122 97 34 37
        E 1870 87 34 00
        E 0 87 4f 00
        E 0 87 37 00
        E 1 87 3c 00
        E 0 87 40 00
        E 0 87 3c 00
        E 1 87 34 00
        E 1 87 40 00
        E 0 87 4c 00
        E 0 87 48 00
        E 0 87 43 00
        E 1 87 43 00
        E 0 87 48 00
        E 0 87 4c 00
        E 0 87 4f 00
        E 1 87 37 00
        E 0 87 54 00
        E 44 97 35 5f
        E 122 97 39 5a
        E 116 97 3c 4e
        E 121 97 41 4a
        E 124 97 45 45
        E 120 97 48 3e
        E 118 97 4d 3e
        E 118 97 51 37
        E 120 97 54 37
        E 121 97 51 37
        E 119 97 4d 37
        E 120 97 48 37
        E 120 97 45 37
        E 121 97 41 37
        E 123 97 3c 37
        E 119 97 39 37
        E 119 97 35 37
        E 1869 87 3c 00
        E 1 87 41 00
        E 0 87 51 00
        E 0 87 54 00
        E 0 87 4d 00
        E 0 87 48 00
        E 0 87 45 00
        E 1 87 35 00
        E 0 87 51 00
        E 0 87 41 00
        E 1 87 4d 00
        E 0 87 35 00
        E 1 87 39 00
        E 0 87 39 00
        E 1 87 45 00
        E 0 87 48 00
        E 0 87 3c 00
        E 44 97 34 5f
        E 120 97 37 56
        E 121 97 3b 56
        E 121 97 40 4a
        E 123 97 43 48
        E 117 97 47 43
        E 121 97 4c 3e
        E 121 97 4f 37
        E 121 97 53 37
        E 115 97 4f 37
        E 124 97 4c 37
        E 121 97 47 37
        E 117 97 43 37
        E 121 97 40 37
        E 120 97 3b 37
        E 120 97 37 37
        E 121 97 34 37
        E 1868 87 34 00
        E 0 87 37 00
        E 0 87 4f 00
        E 1 87 3b 00
        E 1 87 40 00
        E 0 87 47 00
        E 0 87 43 00
        E 1 87 4c 00
        E 0 87 40 00
        E 0 87 3b 00
        E 0 87 37 00
        E 1 87 4f 00
        E 0 87 4c 00
        E 0 87 34 00
        E 1 87 43 00
        E 0 87 53 00
        E 0 87 47 00
        E 47 97 34 5e
        E 115 97 37 56
        E 121 97 3b 56
        E 120 97 40 47
        E 121 97 43 45
        E 118 97 47 3a
        E 122 97 4c 37
        E 123 97 4f 37
        E 119 97 53 37
        E 117 97 4f 37
        E 123 97 4c 37
        E 122 97 47 37
        E 116 97 43 37
        E 124 97 40 37
        E 114 97 3b 37
        E 122 97 37 37
        E 120 97 34 37
        E 1870 87 37 00
        E 0 87 47 00
        E 0 87 3b 00
        E 1 87 3b 00
        E 0 87 40 00
        E 0 87 4f 00
        E 1 87 43 00
        E 0 87 4c 00
        E 0 87 43 00
        E 0 87 37 00
        E 0 87 34 00
        E 2 87 53 00
        E 0 87 4c 00
        E 1 87 34 00
        E 0 87 4f 00
        E 1 87 47 00
        E 0 87 40 00
        E 44 97 34 65
        E 118 97 37 56
        E 122 97 3c 51
        E 120 97 40 4a
        E 122 97 43 45
        E 119 97 48 41
        E 119 97 4c 3a
        E 119 97 4f 37
        E 121 97 54 37
        E 122 97 4f 37
        E 116 97 4c 37
        E 124 97 48 37
        E 120 97 43 37
        E 117 97 40 37
        E 121 97 3c 37
        E 121 97 37 37
        E 120 97 34 37
        E 1869 87 37 00
        E 0 87 4c 00
        E 1 87 4f 00
        E 0 87 40 00
        E 1 87 34 00
        E 0 87 3c 00
        E 0 87 40 00
        E 0 87 4c 00
        E 0 87 54 00
        E 0 87 3c 00
        E 1 87 48 00
        E 0 87 37 00
        E 0 87 34 00
        E 1 87 43 00
        E 0 87 4f 00
        E 0 87 48 00
        E 0 87 43 00
        E 50 97 35 61
        E 119 97 39 58
        E 116 97 3c 51
        E 122 97 41 4a
        E 122 97 45 48
        E 117 97 48 43
        E 119 97 4d 3a
        E 122 97 51 37
        E 120 97 54 37
        E 118 97 51 37
        E 124 97 4d 37
        E 120 97 48 37
        E 118 97 45 37
        E 118 97 41 37
        E 122 97 3c 37
        E 122 97 39 37
        E 119 97 35 37
        E 1869 87 3c 00
        E 0 87 4d 00
        E 0 87 51 00
        E 0 87 41 00
        E 1 87 48 00
        E 1 87 41 00
        E 0 87 51 00
        E 0 87 54 00
        E 0 87 45 00
        E 0 87 3c 00
        E 1 87 35 00
        E 1 87 39 00
        E 0 87 45 00
        E 0 87 4d 00
        E 0 87 48 00
        E 0 87 39 00
        E 1 87 35 00
        E 45 97 34 5f
        E 120 97 37 55
        E 122 97 3b 51
        E 115 97 40 47
        E 120 97 43 45
        E 122 97 47 43
        E 119 97 4c 3a
        E 124 97 4f 37
        E 117 97 53 37
        E 120 97 4f 37
        E 123 97 4c 37
        E 121 97 47 37
        E 116 97 43 37
        E 122 97 40 37
        E 121 97 3b 37
        E 119 97 37 37
        E 119 97 34 37
        E 1869 87 40 00
        E 0 87 43 00
        E 1 87 4c 00
        E 1 87 47 00
        E 0 87 53 00
        E 0 87 4f 00
        E 0 87 43 00
        E 1 87 34 00
        E 0 87 37 00
        E 0 87 34 00
        E 1 87 40 00
        E 0 87 37 00
        E 1 87 3b 00
        E 0 87 4f 00
        E 0 87 4c 00
        E 0 87 3b 00
        E 1 87 47 00
        E 46 97 34 5e
        E 120 97 37 56
        E 117 97 3b 4f
        E 121 97 40 4c
        E 120 97 43 40
        E 122 97 47 3c
        E 121 97 4c 3a
        E 119 97 4f 38
        E 119 97 53 37
        E 120 97 4f 37
        E 121 97 4c 37
        E 120 97 47 37
        E 117 97 43 37
        E 122 97 40 37
        E 118 97 3b 37
        E 122 97 37 37
        E 118 97 34 37
        E 1872 87 3b 00
        E 0 87 43 00
        E 0 87 3b 00
        E 0 87 34 00
        E 1 87 40 00
        E 0 87 43 00
        E 1 87 53 00
        E 0 87 4f 00
        E 0 87 40 00
        E 0 87 37 00
        E 1 87 34 00
        E 0 87 37 00
        E 0 87 47 00
        E 0 87 4f 00
        E 0 87 4c 00
        E 0 87 47 00
        E 1 87 4c 00
        E 44 97 32 5e
        E 123 97 37 56
        E 121 97 3b 56
        E 120 97 3e 4a
        E 116 97 43 43
        E 125 97 47 41
        E 115 97 4a 3e
        E 124 97 4f 37
        E 119 97 53 37
        E 121 97 4f 37
        E 117 97 4a 37
        E 120 97 47 37
        E 121 97 43 37
        E 118 97 3e 37
        E 123 97 3b 37
        E 117 97 37 37
        E 123 97 32 37
        E 1869 87 32 00
        E 0 87 43 00
        E 0 87 4a 00
        E 0 87 3e 00
        E 0 87 37 00
        E 1 87 4a 00
        E 0 87 47 00
        E 1 87 43 00
        E 1 87 37 00
        E 0 87 53 00
        E 0 87 3b 00
        E 0 87 32 00
        E 1 87 3b 00
        E 0 87 3e 00
        E 0 87 4f 00
        E 0 87 4f 00
        E 1 87 47 00
        E 43 97 35 5e
        E 123 97 39 5e
        E 121 97 3c 51
        E 116 97 41 4c
        E 124 97 45 45
        E 120 97 48 3e
        E 118 97 4d 37
        E 118 97 51 37
        E 122 97 54 37
        E 120 97 51 37
        E 118 97 4d 37
        E 122 97 48 37
        E 120 97 45 37
        E 2350 87 35 00
        E 0 87 41 00
        E 0 87 51 00
        E 0 87 4d 00
        E 2 87 4d 00
        E 0 87 54 00
        E 0 87 51 00
        E 0 87 48 00
        E 0 87 45 00
        E 1 87 39 00
        E 1 87 3c 00
        E 0 87 45 00
        E 0 87 48 00
        E 45 97 34 63
        E 842 97 4f 37
        E 717 97 40 37
        E 2232 87 40 00
        E 1 87 34 00
        E 2 87 4f 00
        E 165 97 37 5e
        E 244 97 40 47
        E 599 97 53 37
        E 360 97 47 37
        E 241 97 40 37
        E 358 97 34 37
        E 1870 87 37 00
        E 2 87 34 00
        E 1 87 53 00
        E 0 87 47 00
        E 1 87 40 00
        E 0 87 40 00
        E 644 97 48 3e
        E 364 97 54 37
        E 716 97 3c 37
        E 120 97 37 37
        E 1992 87 48 00
        E 0 87 3c 00
        E 0 87 37 00
        E 4 87 54 00
        E 165 97 39 5a
        E 120 97 3c 51
        E 121 97 41 4f
        E 241 97 48 41
        E 361 97 54 37
        E 117 97 51 37
        E 239 97 48 37
        E 122 97 45 37
        E 2350 87 48 00
        E 1 87 39 00
        E 0 87 3c 00
        E 0 87 51 00
        E 1 87 41 00
        E 0 87 45 00
        E 1 87 48 00
        E 1 87 54 00
        E 169 97 37 5a
        E 116 97 3b 4e
        E 838 97 4f 37
        E 481 97 40 37
        E 122 97 3b 37
        E 2109 87 4f 00
        E 1 87 40 00
        E 1 87 3b 00
        E 1 87 3b 00
        E 3 87 37 00
        E 0 b7 7b 00
        E 1 ff 2f 00
      >
    >
  >
  <TRACK
    NAME "Bass"
    PEAKCOL 4286528191
    VOLPAN 1.000000 0 1 -1
    MIDIOUT -1
    ISBUS 0 0
    <ITEM
      POSITION 0.000000
      LENGTH 80.028571
      NAME "Bass"
      VOLPAN 1 0 1 -1
      <SOURCE MIDI
        HASDATA 1 960 QN
        E 0 c8 2b 00
        E 0 98 28 77
        E 864 88 28 00
        E 96 98 2d 6c
        E 864 88 2d 00
        E 96 98 2f 77
        E 864 88 2f 00
        E 96 98 34 6c
        E 864 88 34 00
        E 96 98 2f 77
        E 864 88 2f 00
        E 96 98 2f 6c
        E 864 88 2f 00
        E 96 98 2d 77
        E 864 88 2d 00
        E 96 98 2d 6c
        E 864 88 2d 00
        E 96 98 2f 77
        E 864 88 2f 00
        E 96 98 2d 6c
        E 864 88 2d 00
        E 96 98 2d 77
        E 864 88 2d 00
        E 96 98 2d 6c
        E 864 88 2d 00
        E 96 98 28 77
        E 864 88 28 00
        E 96 98 2d 6c
        E 864 88 2d 00
        E 96 98 2f 77
        E 864 88 2f 00
        E 96 98 2f 6c
        E 864 88 2f 00
        E 96 98 34 77
        E 864 88 34 00
        E 96 98 37 6c
        E 864 88 37 00
        E 96 98 37 77
        E 864 88 37 00
        E 96 98 37 6c
        E 864 88 37 00
        E 96 98 37 77
        E 864 88 37 00
        E 96 98 37 6c
        E 864 88 37 00
        E 96 98 37 77
        E 864 88 37 00
        E 96 98 34 6c
        E 864 88 34 00
        E 96 98 2f 77
        E 864 88 2f 00
        E 96 98 2f 6c
        E 864 88 2f 00
        E 96 98 2d 77
        E 864 88 2d 00
        E 96 98 34 6c
        E 864 88 34 00
        E 96 98 34 77
        E 864 88 34 00
        E 96 98 34 6c
        E 864 88 34 00
        E 96 98 2f 77
        E 864 88 2f 00
        E 96 98 2d 6c
        E 864 88 2d 00
        E 96 98 28 77
        E 864 88 28 00
        E 96 98 28 6c
        E 864 88 28 00
        E 96 98 23 77
        E 864 88 23 00
        E 96 98 21 6c
        E 864 88 21 00
        E 96 98 28 77
        E 864 88 28 00
        E 96 98 2d 6c
        E 864 88 2d 00
        E 96 98 2f 77
        E 864 88 2f 00
        E 96 98 34 6c
        E 864 88 34 00
        E 96 98 2f 77
        E 864 88 2f 00
        E 96 98 2d 6c
        E 864 88 2d 00
        E 96 98 2d 77
        E 864 88 2d 00
        E 96 98 2d 6c
        E 864 88 2d 00
        E 96 98 28 77
        E 864 88 28 00
        E 96 98 2d 6c
        E 864 88 2d 00
        E 96 98 2f 77
        E 864 88 2f 00
        E 96 98 34 6c
        E 864 88 34 00
        E 96 98 34 77
        E 864 88 34 00
        E 96 98 2f 6c
        E 864 88 2f 00
        E 96 98 2f 77
        E 864 88 2f 00
        E 96 98 34 6c
        E 864 88 34 00
        E 96 98 2f 77
        E 864 88 2f 00
        E 96 98 2d 6c
        E 864 88 2d 00
        E 96 98 2d 77
        E 864 88 2d 00
        E 96 98 28 6c
        E 864 88 28 00
        E 96 98 23 77
        E 864 88 23 00
        E 96 98 23 6c
        E 864 88 23 00
        E 96 98 21 77
        E 864 88 21 00
        E 96 98 21 6c
        E 864 88 21 00
        E 96 98 1c 77
        E 864 88 1c 00
        E 96 98 1c 6c
        E 864 88 1c 00
        E 96 98 1c 77
        E 864 88 1c 00
        E 96 98 1c 6c
        E 864 88 1c 00
        E 96 98 1c 77
        E 864 88 1c 00
        E 96 98 1c 6c
        E 864 88 1c 00
        E 96 98 1c 77
        E 864 88 1c 00
        E 96 98 1c 6c
        E 864 88 1c 00
        E 96 98 1c 77
        E 864 88 1c 00
        E 96 98 21 6c
        E 864 88 21 00
        E 96 98 21 77
        E 864 88 21 00
        E 96 98 28 6c
        E 864 88 28 00
        E 96 98 23 77
        E 864 88 23 00
        E 96 98 28 6c
        E 864 88 28 00
        E 96 98 2d 77
        E 864 88 2d 00
        E 96 98 28 6c
        E 864 88 28 00
        E 96 98 28 77
        E 864 88 28 00
        E 96 98 2d 6c
        E 864 88 2d 00
        E 96 98 2f 77
        E 864 88 2f 00
        E 96 98 2f 6c
        E 864 88 2f 00
        E 96 98 34 77
        E 864 88 34 00
        E 96 98 34 6c
        E 864 88 34 00
        E 96 98 2f 77
        E 864 88 2f 00
        E 96 98 34 6c
        E 864 88 34 00
        E 96 98 34 77
        E 864 88 34 00
        E 96 98 34 6c
        E 864 88 34 00
        E 96 98 2f 77
        E 864 88 2f 00
        E 96 98 2f 6c
        E 864 88 2f 00
        E 96 98 2f 77
        E 864 88 2f 00
        E 96 98 34 6c
        E 864 88 34 00
        E 96 98 37 77
        E 864 88 37 00
        E 96 98 34 6c
        E 864 88 34 00
        E 96 98 34 77
        E 864 88 34 00
        E 96 98 37 6c
        E 864 88 37 00
        E 96 98 37 77
        E 864 88 37 00
        E 96 98 34 6c
        E 864 88 34 00
        E 96 98 34 77
        E 864 88 34 00
        E 96 98 2f 6c
        E 864 88 2f 00
        E 96 98 2f 77
        E 864 88 2f 00
        E 96 98 34 6c
        E 864 88 34 00
        E 96 98 2f 77
        E 864 88 2f 00
        E 96 98 34 6c
        E 864 88 34 00
        E 96 98 37 77
        E 864 88 37 00
        E 96 98 37 6c
        E 864 88 37 00
        E 96 98 37 77
        E 864 88 37 00
        E 96 98 37 6c
        E 864 88 37 00
        E 96 98 37 77
        E 864 88 37 00
        E 96 98 34 6c
        E 864 88 34 00
        E 96 98 34 77
        E 864 88 34 00
        E 96 98 2f 6c
        E 864 88 2f 00
        E 96 98 2f 77
        E 864 88 2f 00
        E 96 98 34 6c
        E 864 88 34 00
        E 0 b8 7b 00
        E 1 ff 2f 00
      >
    >
  >
  <TRACK
    NAME "Timpani"
    PEAKCOL 4290722362
    VOLPAN 1.000000 0 1 -1
    MIDIOUT -1
    ISBUS 0 0
    <ITEM
      POSITION 1.428571
      LENGTH 75.385714
      NAME "Timpani"
      VOLPAN 1 0 1 -1
      <SOURCE MIDI
        HASDATA 1 960 QN
        E 0 ca 2f 00
        E 1920 9a 2f 77
        E 1536 8a 2f 00
        E 2304 9a 37 79
        E 1536 8a 37 00
        E 6144 9a 2f 7a
        E 1536 8a 2f 00
        E 2304 9a 2f 77
        E 1536 8a 2f 00
        E 384 9a 24 7d
        E 3264 8a 24 00
        E 576 9a 24 7d
        E 1920 9a 2d 79
        E 1344 8a 24 00
        E 192 8a 2d 00
        E 384 9a 28 7d
        E 1920 9a 2f 7b
        E 1344 8a 28 00
        E 192 8a 2f 00
        E 384 9a 28 7b
        E 1920 9a 2f 75
        E 1344 8a 28 00
        E 192 8a 2f 00
        E 384 9a 28 7c
        E 1920 9a 3b 77
        E 1344 8a 28 00
        E 192 8a 3b 00
        E 384 9a 24 7c
        E 1920 9a 2d 77
        E 1344 8a 24 00
        E 192 8a 2d 00
        E 384 9a 28 7d
        E 1920 9a 2f 78
        E 1344 8a 28 00
        E 192 8a 2f 00
        E 384 9a 28 7d
        E 1920 9a 2f 78
        E 1344 8a 28 00
        E 192 8a 2f 00
        E 384 9a 24 7d
        E 1920 9a 37 7a
        E 1344 8a 24 00
        E 192 8a 37 00
        E 384 9a 24 7c
        E 1920 9a 2d 77
        E 1344 8a 24 00
        E 192 8a 2d 00
        E 384 9a 28 7b
        E 1920 9a 2f 75
        E 1344 8a 28 00
        E 192 8a 2f 00
        E 384 9a 28 7c
        E 1920 9a 2f 77
        E 1344 8a 28 00
        E 192 8a 2f 00
        E 384 9a 24 7b
        E 1920 9a 37 75
        E 1344 8a 24 00
        E 192 8a 37 00
        E 384 9a 24 7b
        E 1920 9a 2d 75
        E 1344 8a 24 00
        E 192 8a 2d 00
        E 384 9a 28 7d
        E 1920 9a 2f 7a
        E 1344 8a 28 00
        E 192 8a 2f 00
        E 384 9a 28 7d
        E 1920 9a 2f 79
        E 1344 8a 28 00
        E 192 8a 2f 00
        E 384 9a 28 7c
        E 1920 9a 3b 77
        E 1344 8a 28 00
        E 192 8a 3b 00
        E 384 9a 24 7d
        E 1920 9a 2d 7a
        E 1344 8a 24 00
        E 192 8a 2d 00
        E 384 9a 28 7b
        E 3264 8a 28 00
        E 2496 9a 2f 75
        E 1536 8a 2f 00
        E 4224 9a 24 7b
        E 3264 8a 24 00
        E 0 ba 7b 00
        E 1 ff 2f 00
      >
    >
  >
>
