<REAPER_PROJECT 0.1 "7.0" 1700000000
  TEMPO 140.000000 4 4
  SAMPLERATE 48000 0 0
  RENDER_FILE ""
  RENDER_FMT 0 2 0
  RENDER_1X 0
  RENDER_RANGE 1 0 77.468024 0 0
  RENDER_RESAMPLE 3 0 1
  <MASTERTRACK
    VOLPAN 1 0 1 -1
    DEFCHAN 0
  >
  <TRACK
    NAME "dark_pad"
    PEAKCOL 4284506208
    VOLPAN 1.000000 0 1 -1
    MIDIOUT -1
    ISBUS 0 0
    <ITEM
      POSITION 0.002764
      LENGTH 75.565260
      NAME "dark_pad"
      VOLPAN 1 0 1 -1
      <SOURCE MIDI
        HASDATA 1 960 QN
        E 0 c0 5c 00
        E 6 90 3c 11
        E 6 90 3d 13
        E 14 90 3f 13
        E 17 90 43 0d
        E 1 90 50 0a
        E 10 90 4b 13
        E 21 90 56 13
        E 3466 80 56 00
        E 3 80 50 00
        E 53 80 4b 00
        E 245 90 3c 28
        E 10 90 3d 26
        E 14 90 3e 17
        E 17 90 42 19
        E 2 90 4f 1f
        E 7 90 4a 1f
        E 17 90 56 26
        E 1090 80 3f 00
        E 32 80 43 00
        E 3 80 3d 00
        E 74 80 3c 00
        E 2125 80 4a 00
        E 120 80 4f 00
        E 80 80 56 00
        E 248 90 3e 1f
        E 15 90 3e 24
        E 14 90 40 1b
        E 15 90 45 0d
        E 14 90 4c 1d
        E 19 90 58 0d
        E 853 80 3d 00
        E 77 80 3c 00
        E 103 80 3e 00
        E 382 80 42 00
        E 1991 80 58 00
        E 56 80 4c 00
        E 299 90 3f 24
        E 15 90 3d 22
        E 14 90 41 1d
        E 13 90 52 17
        E 20 90 4d 22
        E 8 90 58 0d
        E 981 80 3e 00
        E 23 80 3e 00
        E 32 80 45 00
        E 139 80 40 00
        E 1405 80 58 00
        E 10 80 4d 00
        E 46 80 52 00
        E 1016 80 3f 00
        E 26 80 41 00
        E 44 80 3d 00
        E 50 90 31 5e
        E 14 90 3c 5e
        E 12 90 3c 5e
        E 2 90 3e 1f
        E 14 90 48 1f
        E 2 90 49 1f
        E 3340 80 49 00
        E 147 80 3e 00
        E 310 90 3e 5e
        E 9 90 3d 5e
        E 19 90 39 5e
        E 976 80 31 00
        E 40 80 3c 00
        E 24 80 48 00
        E 208 80 3c 00
        E 2567 90 3d 5e
        E 27 90 37 5e
        E 1230 80 3e 00
        E 6 80 39 00
        E 44 80 3d 00
        E 2530 90 39 5e
        E 9 90 3d 5e
        E 17 90 32 5e
        E 884 80 3d 00
        E 390 80 37 00
        E 2549 90 3d 5e
        E 14 90 31 5e
        E 2 90 47 1f
        E 18 90 31 5e
        E 1 90 4a 1f
        E 1063 80 39 00
        E 30 80 32 00
        E 182 80 3d 00
        E 2178 80 4a 00
        E 26 80 47 00
        E 316 90 2a 5e
        E 28 90 3e 5e
        E 16 90 3e 5e
        E 910 80 31 00
        E 178 80 3d 00
        E 206 80 31 00
        E 2140 80 3e 00
        E 364 90 3c 5e
        E 10 90 3d 5e
        E 16 90 3d 5e
        E 12 90 52 1d
        E 5 90 3d 5e
        E 906 80 2a 00
        E 300 80 3e 00
        E 2415 80 52 00
        E 173 90 3d 5e
        E 13 90 3d 5e
        E 13 90 3e 5e
        E 22 90 44 24
        E 1021 80 3d 00
        E 6 80 3c 00
        E 156 80 3d 00
        E 91 80 3d 00
        E 2403 80 44 00
        E 60 80 3e 00
        E 25 80 3d 00
        E 28 90 3d 5e
        E 18 90 3d 24
        E 8 90 3e 1d
        E 6 90 4a 15
        E 8 90 44 1d
        E 6 90 50 19
        E 26 90 56 15
        E 19 80 3d 00
        E 3471 80 4a 00
        E 66 80 56 00
        E 28 80 50 00
        E 187 90 3c 1f
        E 10 90 3b 26
        E 14 90 32 1d
        E 4 90 49 5e
        E 12 90 44 5e
        E 1 90 49 5e
        E 19 90 43 28
        E 998 80 3e 00
        E 4 80 3d 00
        E 18 80 3d 00
        E 212 80 44 00
        E 2138 80 49 00
        E 37 80 49 00
        E 203 80 43 00
        E 173 90 3e 32
        E 5 90 38 24
        E 26 90 3d 17
        E 4 90 3d 17
        E 28 90 50 2c
        E 890 80 44 00
        E 159 80 3b 00
        E 86 80 3c 00
        E 38 80 32 00
        E 2284 80 50 00
        E 318 90 3e 5e
        E 9 90 3d 5e
        E 14 90 3d 5e
        E 7 90 49 22
        E 9 90 49 1d
        E 3 90 3d 5e
        E 13 90 4b 1d
        E 868 80 38 00
        E 181 80 3d 00
        E 125 80 3e 00
        E 71 80 3d 00
        E 1428 80 49 00
        E 11 80 49 00
        E 43 80 4b 00
        E 861 80 3e 00
        E 136 80 3d 00
        E 61 90 34 5e
        E 29 90 49 1f
        E 15 90 3d 5e
        E 5 80 3d 00
        E 0 80 3d 00
        E 7 90 4a 1f
        E 3297 80 49 00
        E 71 80 4a 00
        E 159 80 3d 00
        E 254 90 25 5e
        E 1044 80 34 00
        E 2855 90 4c 5e
        E 1278 80 25 00
        E 2187 80 4c 00
        E 317 90 31 5e
        E 4856 80 31 00
        E 2857 90 31 5e
        E 42 90 56 5e
        E 3423 80 56 00
        E 1394 80 31 00
        E 2783 90 2b 5e
        E 28 90 48 26
        E 3 90 3d 5e
        E 2775 80 48 00
        E 975 80 2b 00
        E 83 80 3d 00
        E 8 90 3e 5e
        E 3481 80 3e 00
        E 376 90 45 39
        E 16 90 3d 5e
        E 3512 80 3d 00
        E 271 90 3e 5e
        E 8 90 33 5e
        E 1208 80 45 00
        E 3833 80 33 00
        E 125 80 3e 00
        E 2506 90 3c 5e
        E 11 90 3d 5e
        E 20 90 3b 5e
        E 10 90 3c 5e
        E 2 90 49 5e
        E 3433 80 49 00
        E 360 90 34 5e
        E 17 90 36 5e
        E 11 90 3b 5e
        E 1035 80 3c 00
        E 16 80 3b 00
        E 178 80 3c 00
        E 107 80 3d 00
        E 2279 80 3b 00
        E 213 90 38 1f
        E 1191 80 34 00
        E 164 80 36 00
        E 2473 90 3d 5e
        E 11 90 3d 5e
        E 16 90 3c 5e
        E 11 90 4b 2a
        E 3 90 4b 1f
        E 13 90 4b 2a
        E 1178 80 38 00
        E 1346 80 4b 00
        E 109 80 4b 00
        E 1031 80 4b 00
        E 161 80 3d 00
        E 38 80 3d 00
        E 51 80 3c 00
        E 7549 90 3e 5e
        E 26 90 31 5e
        E 7 90 49 1f
        E 3616 80 49 00
        E 266 90 55 28
        E 952 80 31 00
        E 4 80 3e 00
        E 2555 80 55 00
        E 4094 90 33 5e
        E 15 90 30 5e
        E 14 90 3e 1f
        E 19 90 3d 5e
        E 7 90 49 1f
        E 3599 80 49 00
        E 1293 80 3d 00
        E 62 80 33 00
        E 146 80 30 00
        E 33 80 3e 00
        E 2493 90 3d 5e
        E 12 90 35 5e
        E 15 90 48 5e
        E 43 90 50 26
        E 2700 80 48 00
        E 10 80 50 00
        E 1014 80 3d 00
        E 45 90 3c 5e
        E 14 90 3c 5e
        E 12 90 3c 5e
        E 14 90 3e 5e
        E 13 90 49 11
        E 17 90 54 1d
        E 60 80 35 00
        E 3368 80 49 00
        E 57 80 54 00
        E 284 90 3c 2c
        E 15 90 3c 2c
        E 19 90 3b 1d
        E 8 90 44 2c
        E 5 90 51 1f
        E 8 90 47 15
        E 996 80 3c 00
        E 61 80 3c 00
        E 11 80 3c 00
        E 108 80 3e 00
        E 2184 80 47 00
        E 143 80 51 00
        E 284 90 3d 17
        E 15 90 3f 1d
        E 11 90 3c 0a
        E 13 90 52 0a
        E 0 90 49 11
        E 31 90 57 1b
        E 857 80 3c 00
        E 315 80 3c 00
        E 55 80 3b 00
        E 11 80 44 00
        E 2116 80 52 00
        E 232 80 57 00
        E 183 90 3c 26
        E 16 90 40 24
        E 11 90 40 24
        E 1 90 48 1d
        E 16 90 49 1d
        E 26 90 57 22
        E 837 80 3d 00
        E 295 80 49 00
        E 65 80 3f 00
        E 69 80 3c 00
        E 1401 80 57 00
        E 51 80 48 00
        E 964 80 40 00
        E 37 80 40 00
        E 123 80 49 00
        E 17 80 3c 00
        E 0 b0 7b 00
        E 1 ff 2f 00
      >
    >
  >
  <TRACK
    NAME "vocals_hint"
    PEAKCOL 4284506208
    VOLPAN 1.000000 0 1 -1
    MIDIOUT -1
    ISBUS 0 0
    <ITEM
      POSITION 1.500017
      LENGTH 4.550966
      NAME "vocals_hint"
      VOLPAN 1 0 1 -1
      <SOURCE MIDI
        HASDATA 1 960 QN
        E 0 c1 36 00
        E 3360 91 40 0a
        E 386 81 40 00
        E 3454 91 45 24
        E 386 81 45 00
        E 92 91 42 26
        E 382 81 42 00
        E 1065 91 3d 0a
        E 396 81 3d 00
        E 2006 91 44 5e
        E 384 81 44 00
        E 1047 91 43 1b
        E 372 81 43 00
        E 0 b1 7b 00
        E 1 ff 2f 00
      >
    >
  >
  <TRACK
    NAME "bass_808"
    PEAKCOL 4286528191
    VOLPAN 1.000000 0 1 -1
    MIDIOUT -1
    ISBUS 0 0
    <ITEM
      POSITION 6.858732
      LENGTH 47.779574
      NAME "bass_808"
      VOLPAN 1 0 1 -1
      <SOURCE MIDI
        HASDATA 1 960 QN
        E 0 c2 26 00
        E 15364 92 2d 5e
        E 1922 92 2d 5e
        E 8 82 2d 00
        E 702 82 2d 00
        E 7 92 2d 5e
        E 481 82 2d 00
        E 717 92 25 5e
        E 1892 82 25 00
        E 31 92 26 5e
        E 705 82 26 00
        E 11 92 1f 5e
        E 486 82 1f 00
        E 719 92 2d 5e
        E 1901 82 2d 00
        E 18 92 2d 5e
        E 700 82 2d 00
        E 16 92 28 5e
        E 476 82 28 00
        E 724 92 30 5e
        E 1683 92 2e 5e
        E 16 82 30 00
        E 35 82 2e 00
        E 4 92 34 5e
        E 50 82 34 00
        E 19 92 2b 5e
        E 50 82 2b 00
        E 10 92 2d 5e
        E 51 82 2d 00
        E 1 92 2d 5e
        E 473 82 2d 00
        E 11 92 2d 5e
        E 50 82 2d 00
        E 14 92 2d 5e
        E 50 82 2d 00
        E 6 92 2c 5e
        E 50 82 2c 00
        E 11 92 31 5e
        E 51 82 31 00
        E 7 92 32 5e
        E 480 82 32 00
        E 718 92 26 5e
        E 1854 82 26 00
        E 71 92 25 5e
        E 696 82 25 00
        E 20 92 25 5e
        E 478 82 25 00
        E 718 92 26 5e
        E 1922 92 24 5e
        E 21 82 26 00
        E 686 82 24 00
        E 11 92 24 5e
        E 490 82 24 00
        E 710 92 2c 5e
        E 1878 82 2c 00
        E 50 92 24 5e
        E 709 82 24 00
        E 9 92 2d 5e
        E 479 82 2d 00
        E 719 92 32 5e
        E 1909 82 32 00
        E 9 92 31 5e
        E 709 82 31 00
        E 13 92 31 1b
        E 485 82 31 00
        E 46795 92 26 5e
        E 1924 92 2c 5e
        E 3 82 26 00
        E 696 82 2c 00
        E 19 92 2c 5e
        E 482 82 2c 00
        E 718 92 26 5e
        E 1896 82 26 00
        E 27 92 25 5e
        E 719 82 25 00
        E 0 92 25 5e
        E 477 82 25 00
        E 721 92 2d 5e
        E 1899 82 2d 00
        E 23 92 2c 5e
        E 710 82 2c 00
        E 4 92 2c 5e
        E 483 82 2c 00
        E 722 92 26 5e
        E 1881 82 26 00
        E 38 92 29 5e
        E 715 82 29 00
        E 3 92 2b 5e
        E 475 82 2b 00
        E 728 92 25 5e
        E 1919 92 26 5e
        E 20 82 25 00
        E 686 82 26 00
        E 10 92 24 5e
        E 482 82 24 00
        E 718 92 26 5e
        E 1629 82 26 00
        E 55 92 2c 5e
        E 51 82 2c 00
        E 12 92 2d 5e
        E 49 82 2d 00
        E 1 92 28 39
        E 50 82 28 00
        E 21 92 26 5e
        E 50 82 26 00
        E 9 92 25 5e
        E 712 92 26 5e
        E 6 82 25 00
        E 469 82 26 00
        E 723 92 2c 5e
        E 1905 82 2c 00
        E 21 92 2b 5e
        E 715 82 2b 00
        E 3 92 2b 5e
        E 487 82 2b 00
        E 710 92 27 5e
        E 1919 82 27 00
        E 6 92 2d 5e
        E 716 82 2d 00
        E 6 92 2d 5e
        E 482 82 2d 00
        E 0 b2 7b 00
        E 1 ff 2f 00
      >
    >
  >
  <TRACK
    NAME "trap_drums"
    PEAKCOL 4290722362
    VOLPAN 1.000000 0 1 -1
    MIDIOUT -1
    ISBUS 0 0
    <ITEM
      POSITION 6.857072
      LENGTH 47.883559
      NAME "trap_drums"
      VOLPAN 1 0 1 -1
      <SOURCE MIDI
        HASDATA 1 960 QN
        E 0 c9 00 00
        E 15360 99 2c 5e
        E 1 99 24 5e
        E 18 99 37 5e
        E 29 89 2c 00
        E 13 99 2b 5e
        E 48 89 2b 00
        E 11 99 2b 5e
        E 48 89 2b 00
        E 12 99 2b 5e
        E 48 89 2b 00
        E 58 89 24 00
        E 194 99 2b 5e
        E 115 89 2b 00
        E 365 99 26 5e
        E 1 99 25 5e
        E 288 89 25 00
        E 3 89 26 00
        E 188 99 2a 5e
        E 48 89 2a 00
        E 12 99 2b 5e
        E 48 89 2b 00
        E 13 99 2b 5e
        E 48 89 2b 00
        E 11 99 2e 5e
        E 48 89 2e 00
        E 251 99 24 5e
        E 1 99 2c 5e
        E 19 99 38 5e
        E 15 89 37 00
        E 81 89 2c 00
        E 174 89 24 00
        E 191 99 2b 5e
        E 77 89 2b 00
        E 19 99 2a 5e
        E 77 89 2a 00
        E 19 99 2a 5e
        E 78 89 2a 00
        E 17 99 2a 5e
        E 76 89 2a 00
        E 21 99 2a 5e
        E 76 89 2a 00
        E 20 99 26 5e
        E 1 99 26 78
        E 283 89 26 00
        E 1 89 26 00
        E 183 89 38 00
        E 12 99 2e 5e
        E 241 89 2e 00
        E 239 99 28 5e
        E 0 99 25 5e
        E 19 99 3d 75
        E 35 89 28 00
        E 15 99 2a 5e
        E 55 89 2a 00
        E 13 99 2a 5e
        E 55 89 2a 00
        E 14 99 2a 60
        E 55 89 2a 00
        E 13 99 2a 60
        E 14 89 25 00
        E 41 89 2a 00
        E 14 99 2a 5e
        E 54 89 2a 00
        E 14 99 2a 6f
        E 54 89 2a 00
        E 15 99 2a 5e
        E 63 89 2a 00
        E 17 99 2a 5e
        E 64 89 2a 00
        E 16 99 2a 5e
        E 65 89 2a 00
        E 15 99 25 5e
        E 76 89 25 00
        E 164 99 26 6f
        E 0 99 27 7d
        E 284 89 27 00
        E 2 89 26 00
        E 194 99 2a 5e
        E 115 89 2a 00
        E 364 99 24 60
        E 1 99 29 5e
        E 6 89 3d 00
        E 13 99 3d 60
        E 97 89 29 00
        E 123 99 25 5e
        E 50 89 24 00
        E 26 89 25 00
        E 164 99 2a 5e
        E 116 89 2a 00
        E 364 99 26 5e
        E 1 99 24 5e
        E 287 89 24 00
        E 1 89 26 00
        E 192 99 2a 4e
        E 2 89 3d 00
        E 112 89 2a 00
        E 126 99 25 0d
        E 79 89 25 00
        E 161 99 25 60
        E 0 99 2a 5e
        E 20 99 39 65
        E 95 89 2a 00
        E 170 89 25 00
        E 195 99 27 5e
        E 95 89 27 00
        E 25 99 26 5e
        E 96 89 26 00
        E 24 99 26 5e
        E 0 99 26 5e
        E 77 89 26 00
        E 20 89 26 00
        E 23 99 27 5e
        E 96 89 27 00
        E 24 99 25 5e
        E 1 99 27 67
        E 289 89 27 00
        E 2 89 25 00
        E 188 99 2a 5e
        E 117 89 2a 00
        E 363 99 25 5e
        E 0 99 2a 63
        E 15 89 39 00
        E 5 99 38 65
        E 96 89 2a 00
        E 173 89 25 00
        E 191 99 2b 5e
        E 117 89 2b 00
        E 123 99 25 5e
        E 76 89 25 00
        E 164 99 25 5e
        E 0 99 26 5e
        E 290 89 26 00
        E 1 89 25 00
        E 179 89 38 00
        E 10 99 2a 78
        E 116 89 2a 00
        E 124 99 25 7d
        E 57 89 25 00
        E 4 99 26 43
        E 58 89 26 00
        E 121 99 2a 5e
        E 0 99 25 5e
        E 19 99 3d 58
        E 57 89 2a 00
        E 20 99 2a 5e
        E 77 89 2a 00
        E 19 99 2a 5e
        E 76 89 2a 00
        E 20 99 2a 6b
        E 2 89 25 00
        E 75 89 2a 00
        E 20 99 29 5e
        E 77 89 29 00
        E 18 99 29 5e
        E 115 89 29 00
        E 364 99 26 60
        E 1 99 25 6b
        E 287 89 26 00
        E 2 89 25 00
        E 191 99 2e 5e
        E 240 99 25 5e
        E 1 89 2e 00
        E 57 89 25 00
        E 2 99 25 6f
        E 57 89 25 00
        E 123 99 2a 5e
        E 0 99 25 5e
        E 19 99 3d 7d
        E 25 89 3d 00
        E 73 89 2a 00
        E 170 89 25 00
        E 193 99 29 5e
        E 115 89 29 00
        E 365 99 26 7d
        E 0 99 26 7d
        E 120 99 2a 5e
        E 96 89 2a 00
        E 24 99 2a 5e
        E 46 89 26 00
        E 1 89 26 00
        E 49 89 2a 00
        E 24 99 2a 5e
        E 95 89 2a 00
        E 23 89 3d 00
        E 2 99 2a 5e
        E 115 89 2a 00
        E 124 99 25 3d
        E 77 89 25 00
        E 163 99 25 5e
        E 1 99 2a 5e
        E 18 99 3d 5e
        E 59 89 2a 00
        E 19 99 2a 5e
        E 76 89 2a 00
        E 20 99 2a 5e
        E 77 89 2a 00
        E 15 89 25 00
        E 4 99 2a 5e
        E 76 89 2a 00
        E 21 99 2a 5e
        E 77 89 2a 00
        E 18 99 2a 5e
        E 48 89 2a 00
        E 11 99 2a 5e
        E 48 89 2a 00
        E 12 99 2a 5e
        E 48 89 2a 00
        E 13 99 2a 5e
        E 49 89 2a 00
        E 250 99 27 6b
        E 1 99 26 63
        E 80 99 2a 5e
        E 65 89 2a 00
        E 15 99 2a 65
        E 64 89 2a 00
        E 62 89 27 00
        E 2 89 26 00
        E 192 99 2e 5e
        E 243 89 2e 00
        E 230 89 3d 00
        E 7 99 2a 5e
        E 0 99 24 75
        E 19 99 3e 6d
        E 94 89 2a 00
        E 175 89 24 00
        E 192 99 2c 5e
        E 97 89 2c 00
        E 24 99 25 5e
        E 97 89 25 00
        E 22 99 2c 5e
        E 0 99 24 5e
        E 77 89 24 00
        E 18 89 2c 00
        E 25 99 2b 5e
        E 97 89 2b 00
        E 23 99 25 5e
        E 0 99 25 5e
        E 80 99 2b 5e
        E 64 89 2b 00
        E 15 99 2a 5e
        E 64 89 2a 00
        E 62 89 25 00
        E 1 89 25 00
        E 194 89 3e 00
        E 0 99 2a 5e
        E 117 89 2a 00
        E 363 99 24 5e
        E 1 99 2c 5e
        E 18 99 3d 69
        E 96 89 2c 00
        E 168 89 24 00
        E 197 99 2b 5e
        E 55 89 2b 00
        E 14 99 2b 5e
        E 54 89 2b 00
        E 15 99 2a 5e
        E 55 89 2a 00
        E 12 99 2a 5e
        E 55 89 2a 00
        E 14 99 2a 63
        E 55 89 2a 00
        E 14 99 29 5e
        E 55 89 29 00
        E 13 99 2f 5e
        E 55 89 2f 00
        E 14 99 25 5e
        E 0 99 26 6d
        E 69 99 2a 60
        E 54 89 2a 00
        E 14 99 2a 5e
        E 55 89 2a 00
        E 15 99 27 60
        E 55 89 27 00
        E 12 99 27 5e
        E 11 89 25 00
        E 3 89 26 00
        E 42 89 27 00
        E 12 99 2b 5e
        E 55 89 2b 00
        E 15 99 2b 5e
        E 55 89 2b 00
        E 13 99 2b 5e
        E 64 89 2b 00
        E 17 99 2a 5e
        E 64 89 2a 00
        E 16 99 2d 5e
        E 65 89 2d 00
        E 251 89 3d 00
        E 3 99 2d 5e
        E 0 99 24 6b
        E 20 99 3d 54
        E 218 89 2d 00
        E 2 99 26 60
        E 51 89 24 00
        E 25 89 26 00
        E 164 99 2d 5e
        E 240 99 25 5e
        E 2 89 2d 00
        E 56 89 25 00
        E 2 99 26 5e
        E 58 89 26 00
        E 2 99 25 5e
        E 57 89 25 00
        E 62 99 25 5e
        E 1 99 26 5e
        E 279 89 25 00
        E 9 89 26 00
        E 192 99 2a 5e
        E 10 89 3d 00
        E 105 89 2a 00
        E 365 99 2a 5e
        E 0 99 25 5e
        E 19 99 37 5e
        E 96 89 2a 00
        E 171 89 25 00
        E 194 99 2d 5e
        E 240 89 2d 00
        E 240 99 25 5e
        E 0 99 27 67
        E 120 99 2a 5e
        E 96 89 2a 00
        E 24 99 2a 5e
        E 50 89 25 00
        E 0 89 27 00
        E 45 89 2a 00
        E 24 99 2a 5e
        E 96 89 2a 00
        E 25 99 2a 5e
        E 115 89 2a 00
        E 363 89 37 00
        E 2 99 24 6b
        E 0 99 2d 5e
        E 19 99 38 7d
        E 95 89 2d 00
        E 175 89 24 00
        E 191 99 2b 5e
        E 116 89 2b 00
        E 123 99 24 5e
        E 77 89 24 00
        E 163 99 25 5e
        E 1 99 26 71
        E 80 99 2a 5e
        E 64 89 2a 00
        E 16 99 2a 5e
        E 65 89 2a 00
        E 61 89 26 00
        E 2 89 25 00
        E 186 89 38 00
        E 6 99 2a 77
        E 115 89 2a 00
        E 125 99 25 65
        E 77 89 25 00
        E 163 99 25 6d
        E 0 99 2a 5e
        E 19 99 3e 6f
        E 96 89 2a 00
        E 173 89 25 00
        E 192 99 2a 5e
        E 115 89 2a 00
        E 364 99 24 73
        E 1 99 27 6d
        E 283 89 24 00
        E 4 89 27 00
        E 193 99 28 5e
        E 114 89 28 00
        E 366 99 3d 5e
        E 240 89 3d 00
        E 80 99 3c 49
        E 238 89 3c 00
        E 83 99 3d 5e
        E 241 89 3d 00
        E 531 89 3e 00
        E 46587 99 24 6f
        E 0 99 29 5e
        E 19 99 39 4b
        E 35 89 29 00
        E 14 99 2a 5e
        E 55 89 2a 00
        E 14 99 27 5e
        E 55 89 27 00
        E 13 99 2a 5e
        E 56 89 2a 00
        E 13 99 2a 5e
        E 9 89 24 00
        E 47 89 2a 00
        E 13 99 29 5e
        E 54 89 29 00
        E 14 99 28 5e
        E 55 89 28 00
        E 14 99 27 5e
        E 115 89 27 00
        E 364 99 26 5e
        E 1 99 24 5e
        E 284 89 26 00
        E 5 89 24 00
        E 190 99 2a 5e
        E 116 89 2a 00
        E 126 99 25 5e
        E 76 89 25 00
        E 162 89 39 00
        E 1 99 29 5e
        E 0 99 25 5e
        E 19 99 38 7d
        E 96 89 29 00
        E 169 89 25 00
        E 196 99 2a 69
        E 116 89 2a 00
        E 364 99 27 67
        E 1 99 26 6f
        E 95 99 29 5e
        E 77 89 29 00
        E 19 99 27 5e
        E 76 89 27 00
        E 17 89 27 00
        E 1 89 26 00
        E 2 99 2a 7d
        E 76 89 2a 00
        E 19 99 28 78
        E 77 89 28 00
        E 20 99 29 79
        E 5 89 38 00
        E 108 89 29 00
        E 367 99 2a 5e
        E 0 99 25 67
        E 19 99 3e 7d
        E 78 89 2a 00
        E 23 99 2a 5e
        E 96 89 2a 00
        E 24 99 2a 5e
        E 48 89 25 00
        E 48 89 2a 00
        E 24 99 25 5e
        E 97 89 25 00
        E 23 99 2a 5e
        E 95 89 2a 00
        E 25 99 2a 5e
        E 96 89 2a 00
        E 23 99 29 5e
        E 1 99 24 5e
        E 57 89 24 00
        E 3 99 26 5e
        E 35 89 29 00
        E 23 89 26 00
        E 2 99 25 5e
        E 0 99 29 5e
        E 58 89 25 00
        E 38 89 29 00
        E 24 99 24 5e
        E 0 99 27 73
        E 288 89 27 00
        E 2 89 24 00
        E 189 99 2a 5e
        E 114 89 2a 00
        E 362 89 3e 00
        E 5 99 25 5e
        E 0 99 29 5e
        E 19 99 3e 63
        E 78 89 29 00
        E 23 99 2a 5e
        E 95 89 2a 00
        E 25 99 25 5e
        E 0 99 2a 5e
        E 52 89 25 00
        E 24 89 25 00
        E 21 89 2a 00
        E 23 99 29 5e
        E 97 89 29 00
        E 23 99 2a 5e
        E 116 89 2a 00
        E 124 99 25 5e
        E 77 89 25 00
        E 163 99 25 5e
        E 0 99 26 5e
        E 287 89 25 00
        E 2 89 26 00
        E 178 89 3e 00
        E 13 99 2a 5e
        E 117 89 2a 00
        E 363 99 2a 5e
        E 0 99 24 5e
        E 20 99 38 5e
        E 76 89 2a 00
        E 24 99 2a 5e
        E 95 89 2a 00
        E 26 99 2a 5e
        E 45 89 24 00
        E 51 89 2a 00
        E 24 99 2a 5e
        E 95 89 2a 00
        E 24 99 2a 5e
        E 116 89 2a 00
        E 364 99 26 5e
        E 0 99 25 5e
        E 60 99 2a 5e
        E 48 89 2a 00
        E 12 99 2a 5e
        E 48 89 2a 00
        E 12 99 2a 5e
        E 48 89 2a 00
        E 59 89 25 00
        E 2 89 26 00
        E 191 99 2d 5e
        E 242 89 2d 00
        E 238 99 2a 5e
        E 0 99 25 5e
        E 1 89 38 00
        E 19 99 36 5e
        E 96 89 2a 00
        E 176 89 25 00
        E 188 99 2a 5e
        E 54 89 2a 00
        E 15 99 2a 5e
        E 55 89 2a 00
        E 13 99 2a 5e
        E 55 89 2a 00
        E 13 99 2a 5e
        E 35 99 25 5e
        E 20 89 2a 00
        E 14 99 2a 5e
        E 24 89 25 00
        E 2 99 26 5e
        E 29 89 2a 00
        E 14 99 2a 60
        E 14 89 26 00
        E 3 99 26 60
        E 38 89 2a 00
        E 13 99 2e 5e
        E 6 89 26 00
        E 49 89 2e 00
        E 14 99 25 5e
        E 0 99 24 5e
        E 285 89 25 00
        E 4 89 24 00
        E 191 99 2a 5e
        E 9 89 36 00
        E 106 89 2a 00
        E 365 99 25 60
        E 1 99 2a 5e
        E 18 99 38 5e
        E 46 89 2a 00
        E 16 99 2a 5e
        E 64 89 2a 00
        E 15 99 2a 5e
        E 65 89 2a 00
        E 62 89 25 00
        E 193 99 2b 5e
        E 115 89 2b 00
        E 125 99 24 5e
        E 58 89 24 00
        E 2 99 25 5e
        E 58 89 25 00
        E 2 99 26 5e
        E 57 89 26 00
        E 63 99 25 67
        E 0 99 26 67
        E 285 89 25 00
        E 1 89 26 00
        E 194 99 2a 75
        E 114 89 2a 00
        E 366 99 2b 5e
        E 0 99 24 5e
        E 4 89 38 00
        E 16 99 3a 7d
        E 95 89 2b 00
        E 125 99 24 5e
        E 49 89 24 00
        E 8 89 24 00
        E 3 99 25 5e
        E 57 89 25 00
        E 2 99 24 5e
        E 58 89 24 00
        E 63 99 2c 5e
        E 115 89 2c 00
        E 125 99 24 5e
        E 77 89 24 00
        E 163 99 25 5e
        E 0 99 25 5e
        E 288 89 25 00
        E 5 89 25 00
        E 181 89 3a 00
        E 6 99 2d 5e
        E 238 89 2d 00
        E 242 99 24 5e
        E 0 99 24 5e
        E 19 99 3e 3f
        E 29 89 24 00
        E 13 99 25 5e
        E 48 89 25 00
        E 11 99 25 5e
        E 48 89 25 00
        E 11 99 2c 5e
        E 48 89 2c 00
        E 60 89 24 00
        E 193 99 2b 5e
        E 116 89 2b 00
        E 364 99 25 5e
        E 0 99 27 6d
        E 96 99 2b 5e
        E 76 89 2b 00
        E 20 99 28 5e
        E 76 89 28 00
        E 16 89 27 00
        E 4 89 25 00
        E 0 99 28 5e
        E 75 89 28 00
        E 21 99 28 5e
        E 77 89 28 00
        E 20 99 28 5e
        E 96 89 28 00
        E 23 99 2a 5e
        E 96 89 2a 00
        E 24 99 2a 5e
        E 96 89 2a 00
        E 24 99 2d 5e
        E 97 89 2d 00
        E 23 99 2a 5e
        E 0 99 24 77
        E 19 99 3e 7d
        E 3 89 3e 00
        E 33 89 2a 00
        E 13 99 2a 5e
        E 54 89 2a 00
        E 15 99 2a 5e
        E 54 89 2a 00
        E 15 99 2a 5e
        E 54 89 2a 00
        E 14 99 2a 5e
        E 10 89 24 00
        E 45 89 2a 00
        E 14 99 2a 5e
        E 55 89 2a 00
        E 13 99 2a 5e
        E 55 89 2a 00
        E 14 99 2d 5e
        E 241 89 2d 00
        E 239 99 24 67
        E 0 99 25 5e
        E 80 99 26 5e
        E 65 89 26 00
        E 15 99 2b 5e
        E 64 89 2b 00
        E 63 89 25 00
        E 1 89 24 00
        E 192 99 2b 6b
        E 18 89 3e 00
        E 96 89 2b 00
        E 126 99 25 69
        E 76 89 25 00
        E 164 99 29 5e
        E 0 99 25 5e
        E 19 99 3e 6d
        E 30 89 29 00
        E 11 99 29 5e
        E 48 89 29 00
        E 12 99 29 5e
        E 48 89 29 00
        E 12 99 2e 5e
        E 48 89 2e 00
        E 59 89 25 00
        E 193 99 2b 5e
        E 113 89 2b 00
        E 127 99 25 5e
        E 76 89 25 00
        E 164 99 27 71
        E 0 99 24 5e
        E 285 89 27 00
        E 4 89 24 00
        E 191 99 29 5e
        E 115 89 29 00
        E 125 99 25 5e
        E 77 89 25 00
        E 163 99 24 5e
        E 1 99 2a 60
        E 18 99 3f 71
        E 17 89 3e 00
        E 29 89 2a 00
        E 16 99 2a 5e
        E 64 89 2a 00
        E 15 99 2b 5e
        E 63 89 2b 00
        E 66 89 24 00
        E 191 99 2c 5e
        E 63 89 2c 00
        E 17 99 29 5e
        E 64 89 29 00
        E 16 99 2c 5e
        E 63 89 2c 00
        E 257 99 27 5e
        E 0 99 26 5e
        E 68 99 28 5e
        E 54 89 28 00
        E 15 99 28 5e
        E 55 89 28 00
        E 14 99 27 5e
        E 54 89 27 00
        E 14 99 26 5e
        E 10 89 27 00
        E 4 89 26 00
        E 41 89 26 00
        E 15 99 27 5e
        E 55 89 27 00
        E 12 99 28 5e
        E 56 89 28 00
        E 13 99 2c 5e
        E 19 89 3f 00
        E 221 99 27 5e
        E 1 89 2c 00
        E 57 89 27 00
        E 1 99 27 17
        E 57 89 27 00
        E 4 99 25 52
        E 58 89 25 00
        E 62 99 25 5e
        E 0 99 2a 5e
        E 19 99 37 5e
        E 29 89 2a 00
        E 12 99 2a 5e
        E 48 89 2a 00
        E 12 99 2a 5e
        E 48 89 2a 00
        E 11 99 2a 5e
        E 48 89 2a 00
        E 61 89 25 00
        E 192 99 2b 5e
        E 55 89 2b 00
        E 14 99 28 5e
        E 55 89 28 00
        E 13 99 2a 63
        E 55 89 2a 00
        E 14 99 2c 5e
        E 55 89 2c 00
        E 13 99 2c 5e
        E 55 89 2c 00
        E 14 99 2c 5e
        E 55 89 2c 00
        E 14 99 2a 67
        E 55 89 2a 00
        E 13 99 26 60
        E 0 99 27 67
        E 291 89 26 00
        E 0 89 27 00
        E 189 99 2a 5e
        E 115 89 2a 00
        E 365 99 24 78
        E 0 99 28 5e
        E 18 89 37 00
        E 0 99 38 5e
        E 46 89 28 00
        E 15 99 27 5e
        E 63 89 27 00
        E 18 99 26 5e
        E 64 89 26 00
        E 62 89 24 00
        E 194 99 2c 5e
        E 115 89 2c 00
        E 364 99 27 67
        E 1 99 24 5e
        E 285 89 27 00
        E 5 89 24 00
        E 188 89 38 00
        E 2 99 29 71
        E 115 89 29 00
        E 365 99 27 5e
        E 0 99 24 67
        E 19 99 38 5e
        E 97 89 27 00
        E 170 89 24 00
        E 194 99 2b 5e
        E 116 89 2b 00
        E 364 99 25 5e
        E 0 99 24 5e
        E 286 89 24 00
        E 4 89 25 00
        E 190 99 2b 5e
        E 65 89 2b 00
        E 15 99 2b 5e
        E 65 89 2b 00
        E 15 99 2e 5e
        E 64 89 2e 00
        E 256 99 39 5e
        E 240 89 39 00
        E 80 99 3a 56
        E 239 89 3a 00
        E 81 99 3a 6d
        E 239 89 3a 00
        E 556 89 38 00
        E 0 b9 7b 00
        E 1 ff 2f 00
      >
    >
  >
  <TRACK
    NAME "hihat"
    PEAKCOL 4290722362
    VOLPAN 1.000000 0 1 -1
    MIDIOUT -1
    ISBUS 0 0
    <ITEM
      POSITION 6.855503
      LENGTH 47.952541
      NAME "hihat"
      VOLPAN 1 0 1 -1
      <SOURCE MIDI
        HASDATA 1 960 QN
        E 0 c3 00 00
        E 15356 93 29 5e
        E 68 83 29 00
        E 34 93 27 5e
        E 69 83 27 00
        E 51 93 28 5e
        E 68 83 28 00
        E 22 93 28 5e
        E 67 83 28 00
        E 9 93 27 5e
        E 67 83 27 00
        E 30 93 2a 5e
        E 142 83 2a 00
        E 339 93 2a 6f
        E 143 83 2a 00
        E 337 93 28 5e
        E 68 83 28 00
        E 26 93 28 5e
        E 67 83 28 00
        E 28 93 29 5e
        E 67 83 29 00
        E 33 93 28 5e
        E 67 83 28 00
        E 24 93 29 67
        E 66 83 29 00
        E 32 93 29 60
        E 111 83 29 00
        E 47 93 28 5e
        E 111 83 28 00
        E 52 93 29 63
        E 112 83 29 00
        E 46 93 2a 60
        E 144 83 2a 00
        E 340 93 29 67
        E 145 83 29 00
        E 332 93 2e 5e
        E 290 83 2e 00
        E 192 93 2a 5e
        E 146 83 2a 00
        E 330 93 29 71
        E 142 83 29 00
        E 339 93 29 69
        E 144 83 29 00
        E 339 93 29 5e
        E 144 83 29 00
        E 335 93 2c 5e
        E 287 83 2c 00
        E 192 93 2a 5e
        E 143 83 2a 00
        E 336 93 2a 5e
        E 67 83 2a 00
        E 30 93 28 5e
        E 67 83 28 00
        E 51 93 28 5e
        E 67 83 28 00
        E 31 93 28 58
        E 67 83 28 00
        E 6 93 28 77
        E 67 83 28 00
        E 28 93 29 5e
        E 145 83 29 00
        E 336 93 2a 71
        E 146 83 2a 00
        E 333 93 2b 5e
        E 68 83 2b 00
        E 27 93 2b 5e
        E 66 83 2b 00
        E 33 93 2b 65
        E 68 83 2b 00
        E 27 93 2b 69
        E 66 83 2b 00
        E 33 93 2a 63
        E 67 83 2a 00
        E 26 93 2a 63
        E 144 83 2a 00
        E 333 93 29 5e
        E 145 83 29 00
        E 337 93 2a 75
        E 145 83 2a 00
        E 334 93 2f 5e
        E 287 83 2f 00
        E 195 93 2a 78
        E 144 83 2a 00
        E 333 93 2a 79
        E 145 83 2a 00
        E 338 93 2a 5e
        E 145 83 2a 00
        E 334 93 2d 67
        E 289 83 2d 00
        E 191 93 2a 71
        E 142 83 2a 00
        E 337 93 2e 63
        E 290 83 2e 00
        E 192 93 2a 63
        E 144 83 2a 00
        E 334 93 29 5e
        E 145 83 29 00
        E 337 93 28 5e
        E 144 83 28 00
        E 337 93 29 5e
        E 145 83 29 00
        E 332 93 29 5e
        E 144 83 29 00
        E 336 93 2a 71
        E 144 83 2a 00
        E 335 93 29 5e
        E 146 83 29 00
        E 337 93 2a 5e
        E 144 83 2a 00
        E 335 93 29 6f
        E 144 83 29 00
        E 337 93 27 5e
        E 67 83 27 00
        E 28 93 29 69
        E 67 83 29 00
        E 29 93 29 60
        E 66 83 29 00
        E 29 93 29 60
        E 67 83 29 00
        E 30 93 29 65
        E 67 83 29 00
        E 30 93 29 5e
        E 144 83 29 00
        E 335 93 2a 6b
        E 146 83 2a 00
        E 332 93 29 6f
        E 66 83 29 00
        E 32 93 27 5e
        E 68 83 27 00
        E 30 93 29 5e
        E 68 83 29 00
        E 25 93 29 6d
        E 67 83 29 00
        E 34 93 29 6d
        E 67 83 29 00
        E 26 93 2a 65
        E 144 83 2a 00
        E 335 93 2d 60
        E 112 83 2d 00
        E 47 93 26 5e
        E 111 83 26 00
        E 52 93 29 6f
        E 111 83 29 00
        E 47 93 2a 5e
        E 144 83 2a 00
        E 335 93 28 5e
        E 145 83 28 00
        E 335 93 2a 67
        E 143 83 2a 00
        E 337 93 2a 63
        E 144 83 2a 00
        E 339 93 29 5e
        E 142 83 29 00
        E 334 93 29 5e
        E 146 83 29 00
        E 338 93 2a 60
        E 145 83 2a 00
        E 332 93 2a 5e
        E 144 83 2a 00
        E 337 93 2a 65
        E 145 83 2a 00
        E 335 93 28 5e
        E 67 83 28 00
        E 29 93 29 75
        E 66 83 29 00
        E 28 93 2b 5e
        E 66 83 2b 00
        E 33 93 2a 5e
        E 68 83 2a 00
        E 28 93 2e 60
        E 67 83 2e 00
        E 27 93 28 5e
        E 113 83 28 00
        E 49 93 29 75
        E 113 83 29 00
        E 44 93 29 6f
        E 111 83 29 00
        E 49 93 28 6b
        E 144 83 28 00
        E 336 93 2a 7a
        E 144 83 2a 00
        E 338 93 2a 6b
        E 144 83 2a 00
        E 337 93 29 5e
        E 143 83 29 00
        E 337 93 29 5e
        E 67 83 29 00
        E 30 93 2a 60
        E 68 83 2a 00
        E 27 93 2a 69
        E 68 83 2a 00
        E 26 93 2a 69
        E 67 83 2a 00
        E 31 93 2a 67
        E 66 83 2a 00
        E 30 93 29 5e
        E 143 83 29 00
        E 337 93 2a 6f
        E 145 83 2a 00
        E 333 93 29 5e
        E 112 83 29 00
        E 49 93 29 5e
        E 112 83 29 00
        E 47 93 29 63
        E 112 83 29 00
        E 52 93 29 5e
        E 144 83 29 00
        E 333 93 2d 5e
        E 290 83 2d 00
        E 46271 93 29 5e
        E 144 83 29 00
        E 338 93 2d 5e
        E 67 83 2d 00
        E 26 93 2b 5e
        E 68 83 2b 00
        E 29 93 29 60
        E 69 83 29 00
        E 28 93 29 71
        E 67 83 29 00
        E 26 93 29 71
        E 67 83 29 00
        E 31 93 29 5e
        E 142 83 29 00
        E 337 93 2a 6b
        E 145 83 2a 00
        E 335 93 2a 6d
        E 146 83 2a 00
        E 335 93 2e 5e
        E 285 83 2e 00
        E 195 93 31 5e
        E 114 83 31 00
        E 44 93 31 5e
        E 111 83 31 00
        E 48 93 31 5e
        E 112 83 31 00
        E 48 93 29 5e
        E 146 83 29 00
        E 336 93 29 69
        E 146 83 29 00
        E 333 93 28 60
        E 67 83 28 00
        E 29 93 28 63
        E 67 83 28 00
        E 54 93 28 5e
        E 67 83 28 00
        E 30 93 29 60
        E 67 83 29 00
        E 4 93 2a 6f
        E 66 83 2a 00
        E 29 93 2a 6d
        E 145 83 2a 00
        E 334 93 29 6f
        E 144 83 29 00
        E 339 93 29 67
        E 143 83 29 00
        E 336 93 2a 5e
        E 146 83 2a 00
        E 335 93 2a 5e
        E 146 83 2a 00
        E 333 93 2a 60
        E 145 83 2a 00
        E 336 93 29 5e
        E 141 83 29 00
        E 338 93 2a 5e
        E 145 83 2a 00
        E 336 93 2a 5e
        E 145 83 2a 00
        E 334 93 2a 5e
        E 143 83 2a 00
        E 337 93 2a 60
        E 144 83 2a 00
        E 335 93 29 5e
        E 144 83 29 00
        E 336 93 29 60
        E 114 83 29 00
        E 47 93 29 65
        E 113 83 29 00
        E 49 93 29 6f
        E 112 83 29 00
        E 45 93 2e 60
        E 286 83 2e 00
        E 194 93 2a 6b
        E 145 83 2a 00
        E 335 93 29 60
        E 67 83 29 00
        E 26 93 29 60
        E 67 83 29 00
        E 35 93 29 5e
        E 67 83 29 00
        E 28 93 29 75
        E 67 83 29 00
        E 27 93 29 7c
        E 68 83 29 00
        E 31 93 2a 77
        E 145 83 2a 00
        E 335 93 29 5e
        E 145 83 29 00
        E 334 93 29 5e
        E 67 83 29 00
        E 25 93 29 5e
        E 68 83 29 00
        E 32 93 29 5e
        E 68 83 29 00
        E 27 93 29 69
        E 67 83 29 00
        E 29 93 29 6f
        E 67 83 29 00
        E 29 93 29 5e
        E 67 83 29 00
        E 29 93 29 5e
        E 67 83 29 00
        E 27 93 29 5e
        E 67 83 29 00
        E 31 93 29 5e
        E 67 83 29 00
        E 29 93 29 5e
        E 67 83 29 00
        E 27 93 28 5e
        E 144 83 28 00
        E 338 93 29 5e
        E 146 83 29 00
        E 336 93 28 5e
        E 67 83 28 00
        E 26 93 28 5e
        E 68 83 28 00
        E 31 93 29 5e
        E 67 83 29 00
        E 27 93 29 75
        E 69 83 29 00
        E 27 93 29 5e
        E 67 83 29 00
        E 28 93 2a 5e
        E 144 83 2a 00
        E 338 93 28 5e
        E 111 83 28 00
        E 51 93 26 5e
        E 112 83 26 00
        E 43 93 2a 63
        E 113 83 2a 00
        E 47 93 2a 5e
        E 144 83 2a 00
        E 337 93 2a 5e
        E 143 83 2a 00
        E 339 93 29 5e
        E 145 83 29 00
        E 335 93 28 5e
        E 67 83 28 00
        E 27 93 28 5e
        E 68 83 28 00
        E 28 93 29 71
        E 67 83 29 00
        E 31 93 27 79
        E 67 83 27 00
        E 30 93 28 7d
        E 67 83 28 00
        E 26 93 29 60
        E 142 83 29 00
        E 340 93 2d 5e
        E 290 83 2d 00
        E 190 93 29 65
        E 145 83 29 00
        E 335 93 29 5e
        E 111 83 29 00
        E 45 93 2a 67
        E 111 83 2a 00
        E 51 93 2d 5e
        E 113 83 2d 00
        E 49 93 29 6f
        E 143 83 29 00
        E 333 93 27 5e
        E 110 83 27 00
        E 55 93 28 5e
        E 112 83 28 00
        E 46 93 29 77
        E 112 83 29 00
        E 48 93 29 67
        E 67 83 29 00
        E 32 93 26 5e
        E 67 83 26 00
        E 25 93 27 5e
        E 68 83 27 00
        E 31 93 29 5e
        E 68 83 29 00
        E 25 93 29 5e
        E 67 83 29 00
        E 33 93 2d 5e
        E 67 83 2d 00
        E 24 93 2e 5e
        E 68 83 2e 00
        E 27 93 2c 5e
        E 67 83 2c 00
        E 33 93 30 5e
        E 68 83 30 00
        E 25 93 30 67
        E 68 83 30 00
        E 31 93 29 5e
        E 147 83 29 00
        E 330 93 2a 5e
        E 143 83 2a 00
        E 336 93 26 5e
        E 112 83 26 00
        E 48 93 28 5e
        E 112 83 28 00
        E 53 93 2a 5e
        E 111 83 2a 00
        E 49 93 2a 5e
        E 145 83 2a 00
        E 331 93 2a 60
        E 146 83 2a 00
        E 338 93 30 5e
        E 67 83 30 00
        E 26 93 2d 5e
        E 67 83 2d 00
        E 30 93 2b 5e
        E 67 83 2b 00
        E 29 93 29 5e
        E 68 83 29 00
        E 28 93 29 67
        E 67 83 29 00
        E 30 93 28 5e
        E 67 83 28 00
        E 30 93 28 5e
        E 67 83 28 00
        E 29 93 29 67
        E 67 83 29 00
        E 27 93 28 5e
        E 67 83 28 00
        E 28 93 2a 63
        E 67 83 2a 00
        E 27 93 29 60
        E 144 83 29 00
        E 337 93 2e 5e
        E 291 83 2e 00
        E 188 93 2b 6b
        E 112 83 2b 00
        E 50 93 29 67
        E 112 83 29 00
        E 51 93 29 6f
        E 113 83 29 00
        E 45 93 2a 73
        E 144 83 2a 00
        E 338 93 29 5e
        E 67 83 29 00
        E 25 93 29 5e
        E 67 83 29 00
        E 27 93 29 5e
        E 67 83 29 00
        E 34 93 29 63
        E 67 83 29 00
        E 30 93 26 5e
        E 66 83 26 00
        E 28 93 28 5e
        E 112 83 28 00
        E 49 93 29 67
        E 112 83 29 00
        E 46 93 29 69
        E 111 83 29 00
        E 52 93 29 5e
        E 144 83 29 00
        E 333 93 29 65
        E 67 83 29 00
        E 33 93 29 5e
        E 67 83 29 00
        E 26 93 29 5e
        E 67 83 29 00
        E 26 93 29 5e
        E 66 83 29 00
        E 33 93 29 5e
        E 67 83 29 00
        E 32 93 2a 5e
        E 146 83 2a 00
        E 333 93 29 47
        E 144 83 29 00
        E 0 b3 7b 00
        E 1 ff 2f 00
      >
    >
  >
  <TRACK
    NAME "hihat_rapid"
    PEAKCOL 4290722362
    VOLPAN 1.000000 0 1 -1
    MIDIOUT -1
    ISBUS 0 0
    <ITEM
      POSITION 20.571104
      LENGTH 47.886246
      NAME "hihat_rapid"
      VOLPAN 1 0 1 -1
      <SOURCE MIDI
        HASDATA 1 960 QN
        E 0 c4 00 00
        E 46079 94 2a 63
        E 145 84 2a 00
        E 336 94 2a 73
        E 143 84 2a 00
        E 336 94 2a 69
        E 145 84 2a 00
        E 336 94 2a 6d
        E 146 84 2a 00
        E 334 94 2a 78
        E 144 84 2a 00
        E 336 94 2a 7d
        E 146 84 2a 00
        E 334 94 2a 5e
        E 144 84 2a 00
        E 335 94 2a 7d
        E 144 84 2a 00
        E 337 94 2a 67
        E 143 84 2a 00
        E 338 94 2a 71
        E 145 84 2a 00
        E 333 94 2a 5e
        E 144 84 2a 00
        E 337 94 2a 5e
        E 145 84 2a 00
        E 335 94 2a 7a
        E 143 84 2a 00
        E 338 94 2a 5e
        E 145 84 2a 00
        E 334 94 2a 5e
        E 144 84 2a 00
        E 136 94 29 5e
        E 27 94 29 5e
        E 4 94 29 5e
        E 17 84 29 00
        E 15 94 29 63
        E 12 84 29 00
        E 4 84 29 00
        E 19 94 29 5e
        E 13 84 29 00
        E 20 94 29 5e
        E 15 84 29 00
        E 21 94 29 5e
        E 12 84 29 00
        E 36 84 29 00
        E 464 94 2a 5e
        E 145 84 2a 00
        E 336 94 29 5e
        E 145 84 29 00
        E 335 94 2a 5e
        E 143 84 2a 00
        E 135 94 30 5e
        E 9 94 2e 5e
        E 39 84 30 00
        E 9 84 2e 00
        E 2 94 2b 47
        E 46 94 29 5e
        E 2 84 2b 00
        E 46 84 29 00
        E 1 94 29 3f
        E 48 84 29 00
        E 480 94 2a 7b
        E 143 84 2a 00
        E 134 94 2b 7a
        E 10 94 2d 5e
        E 38 84 2b 00
        E 10 84 2d 00
        E 1 94 2e 60
        E 48 84 2e 00
        E 0 94 2e 5e
        E 48 84 2e 00
        E 0 94 30 5e
        E 48 84 30 00
        E 480 94 2a 7d
        E 144 84 2a 00
        E 134 94 29 7a
        E 10 94 29 7d
        E 38 84 29 00
        E 9 94 2b 60
        E 1 84 29 00
        E 47 84 2b 00
        E 2 94 2e 60
        E 46 94 30 5e
        E 2 84 2e 00
        E 46 84 30 00
        E 481 94 2a 78
        E 145 84 2a 00
        E 334 94 2a 73
        E 144 84 2a 00
        E 335 94 2a 6f
        E 144 84 2a 00
        E 136 94 29 69
        E 10 94 29 69
        E 38 84 29 00
        E 10 84 29 00
        E 0 94 29 5a
        E 48 84 29 00
        E 0 94 29 6b
        E 47 94 28 3f
        E 1 84 29 00
        E 47 84 28 00
        E 482 94 2a 7c
        E 145 84 2a 00
        E 334 94 2b 5e
        E 146 84 2b 00
        E 333 94 2a 7d
        E 143 84 2a 00
        E 137 94 29 7d
        E 29 94 29 7d
        E 6 94 29 78
        E 13 84 29 00
        E 16 94 29 7d
        E 13 84 29 00
        E 6 84 29 00
        E 15 94 29 7d
        E 14 84 29 00
        E 20 94 29 7d
        E 14 84 29 00
        E 21 94 29 7d
        E 13 84 29 00
        E 35 84 29 00
        E 466 94 29 5e
        E 146 84 29 00
        E 335 94 2a 5e
        E 143 84 2a 00
        E 335 94 2a 5e
        E 143 84 2a 00
        E 339 94 2a 5e
        E 143 84 2a 00
        E 335 94 29 5e
        E 144 84 29 00
        E 337 94 2a 5e
        E 145 84 2a 00
        E 335 94 2a 71
        E 145 84 2a 00
        E 333 94 29 5e
        E 144 84 29 00
        E 338 94 29 5e
        E 145 84 29 00
        E 335 94 28 5e
        E 145 84 28 00
        E 336 94 29 5e
        E 142 84 29 00
        E 134 94 28 5e
        E 48 84 28 00
        E 2 94 27 5e
        E 9 94 29 65
        E 39 84 27 00
        E 9 84 29 00
        E 0 94 27 5e
        E 48 84 27 00
        E 0 94 26 5e
        E 48 84 26 00
        E 480 94 28 5e
        E 142 84 28 00
        E 136 94 2d 5e
        E 48 84 2d 00
        E 1 94 27 5e
        E 9 94 26 5e
        E 39 84 27 00
        E 9 84 26 00
        E 0 94 26 5e
        E 47 94 26 5e
        E 1 84 26 00
        E 47 84 26 00
        E 481 94 29 5e
        E 142 84 29 00
        E 338 94 28 5e
        E 142 84 28 00
        E 340 94 2a 5e
        E 144 84 2a 00
        E 334 94 2a 5e
        E 144 84 2a 00
        E 335 94 29 73
        E 146 84 29 00
        E 335 94 2a 60
        E 143 84 2a 00
        E 337 94 29 77
        E 142 84 29 00
        E 339 94 28 7b
        E 143 84 28 00
        E 335 94 28 7d
        E 144 84 28 00
        E 338 94 29 7a
        E 144 84 29 00
        E 335 94 28 5e
        E 143 84 28 00
        E 338 94 29 5e
        E 145 84 29 00
        E 333 94 29 5e
        E 145 84 29 00
        E 134 94 29 5e
        E 10 94 29 5e
        E 38 84 29 00
        E 10 84 29 00
        E 0 94 29 5e
        E 48 84 29 00
        E 0 94 28 5e
        E 47 94 28 5e
        E 1 84 28 00
        E 47 84 28 00
        E 481 94 28 5e
        E 143 84 28 00
        E 137 94 30 6b
        E 8 94 2c 60
        E 40 84 30 00
        E 8 84 2c 00
        E 0 94 27 5e
        E 48 84 27 00
        E 0 94 27 5e
        E 47 94 25 5a
        E 1 84 27 00
        E 47 84 25 00
        E 481 94 29 5e
        E 144 84 29 00
        E 336 94 28 5e
        E 144 84 28 00
        E 337 94 2a 5e
        E 143 84 2a 00
        E 335 94 2a 71
        E 145 84 2a 00
        E 336 94 2a 5e
        E 143 84 2a 00
        E 337 94 29 7a
        E 146 84 29 00
        E 334 94 2a 5e
        E 144 84 2a 00
        E 134 94 27 5e
        E 31 94 27 5e
        E 4 94 27 5e
        E 13 84 27 00
        E 18 94 28 69
        E 13 84 27 00
        E 4 84 27 00
        E 15 94 29 77
        E 16 84 28 00
        E 20 94 29 69
        E 12 84 29 00
        E 22 94 29 7c
        E 14 84 29 00
        E 34 84 29 00
        E 465 94 29 7d
        E 145 84 29 00
        E 135 94 27 5e
        E 29 94 27 5e
        E 5 94 27 5e
        E 14 84 27 00
        E 16 94 28 5e
        E 13 84 27 00
        E 5 84 27 00
        E 17 94 29 5e
        E 13 84 28 00
        E 20 94 2b 3b
        E 15 84 29 00
        E 20 94 2d 5e
        E 13 84 2b 00
        E 35 84 2d 00
        E 465 94 28 5e
        E 144 84 28 00
        E 337 94 28 5e
        E 145 84 28 00
        E 336 94 29 5e
        E 143 84 29 00
        E 133 94 2a 5e
        E 32 94 29 60
        E 5 94 27 5e
        E 11 84 2a 00
        E 17 94 27 5e
        E 15 84 29 00
        E 5 84 27 00
        E 15 94 27 5e
        E 13 84 27 00
        E 21 94 29 5e
        E 14 84 27 00
        E 21 94 26 5e
        E 13 84 29 00
        E 35 84 26 00
        E 466 94 28 5e
        E 145 84 28 00
        E 133 94 2c 5e
        E 31 94 2c 5e
        E 3 94 2d 5e
        E 14 84 2c 00
        E 17 94 27 5e
        E 14 84 2c 00
        E 3 84 2d 00
        E 18 94 27 5e
        E 13 84 27 00
        E 20 94 27 5e
        E 15 84 27 00
        E 20 94 24 4b
        E 13 84 27 00
        E 35 84 24 00
        E 465 94 29 5e
        E 144 84 29 00
        E 135 94 27 5e
        E 10 94 27 5e
        E 38 84 27 00
        E 10 84 27 00
        E 1 94 29 5e
        E 46 94 2a 63
        E 2 84 29 00
        E 46 84 2a 00
        E 2 94 2d 60
        E 48 84 2d 00
        E 479 94 28 63
        E 143 84 28 00
        E 336 94 29 5e
        E 145 84 29 00
        E 337 94 28 67
        E 144 84 28 00
        E 335 94 29 7c
        E 144 84 29 00
        E 336 94 28 7d
        E 145 84 28 00
        E 336 94 28 7d
        E 142 84 28 00
        E 337 94 29 63
        E 144 84 29 00
        E 336 94 28 77
        E 146 84 28 00
        E 335 94 28 5e
        E 143 84 28 00
        E 336 94 29 5e
        E 143 84 29 00
        E 337 94 29 5e
        E 145 84 29 00
        E 334 94 29 5e
        E 144 84 29 00
        E 337 94 28 5e
        E 144 84 28 00
        E 337 94 28 5e
        E 142 84 28 00
        E 338 94 29 5e
        E 144 84 29 00
        E 133 94 29 5e
        E 10 94 29 63
        E 38 84 29 00
        E 10 84 29 00
        E 0 94 29 63
        E 48 84 29 00
        E 0 94 29 71
        E 48 84 29 00
        E 1 94 29 5e
        E 48 84 29 00
        E 31199 94 28 73
        E 144 84 28 00
        E 337 94 29 7d
        E 144 84 29 00
        E 336 94 29 5e
        E 143 84 29 00
        E 134 94 28 5e
        E 31 94 29 7d
        E 4 94 29 7d
        E 13 84 28 00
        E 18 94 27 69
        E 13 84 29 00
        E 4 84 29 00
        E 16 94 26 5e
        E 15 84 27 00
        E 20 94 2a 7d
        E 13 84 26 00
        E 20 94 2a 7d
        E 15 84 2a 00
        E 33 84 2a 00
        E 466 94 28 5e
        E 143 84 28 00
        E 136 94 2d 6b
        E 48 84 2d 00
        E 1 94 27 69
        E 9 94 26 63
        E 39 84 27 00
        E 9 84 26 00
        E 0 94 27 54
        E 48 84 27 00
        E 0 94 27 5e
        E 48 84 27 00
        E 480 94 29 78
        E 143 84 29 00
        E 136 94 26 5e
        E 29 94 26 5e
        E 4 94 25 5e
        E 15 84 26 00
        E 16 94 26 5e
        E 13 84 26 00
        E 4 84 25 00
        E 19 94 26 5e
        E 12 84 26 00
        E 21 94 25 4b
        E 15 84 26 00
        E 19 94 25 5e
        E 14 84 25 00
        E 34 84 25 00
        E 466 94 28 71
        E 143 84 28 00
        E 337 94 29 5e
        E 143 84 29 00
        E 336 94 29 5e
        E 144 84 29 00
        E 136 94 2d 5e
        E 29 94 2d 5e
        E 5 94 2d 5e
        E 14 84 2d 00
        E 17 94 2f 5e
        E 12 84 2d 00
        E 5 84 2d 00
        E 16 94 30 5e
        E 15 84 2f 00
        E 20 94 2f 65
        E 13 84 30 00
        E 20 94 30 5e
        E 15 84 2f 00
        E 33 84 30 00
        E 467 94 28 7d
        E 145 84 28 00
        E 134 94 27 7d
        E 29 94 27 7d
        E 4 94 27 78
        E 15 84 27 00
        E 16 94 28 7d
        E 13 84 27 00
        E 4 84 27 00
        E 18 94 28 77
        E 13 84 28 00
        E 21 94 28 7d
        E 14 84 28 00
        E 20 94 28 7d
        E 14 84 28 00
        E 34 84 28 00
        E 467 94 29 7d
        E 144 84 29 00
        E 335 94 29 7d
        E 145 84 29 00
        E 336 94 2a 63
        E 143 84 2a 00
        E 336 94 29 65
        E 139 84 29 00
        E 341 94 29 60
        E 146 84 29 00
        E 133 94 30 5e
        E 9 94 30 5e
        E 39 84 30 00
        E 9 84 30 00
        E 0 94 30 75
        E 48 84 30 00
        E 0 94 30 5e
        E 48 84 30 00
        E 0 94 2e 6d
        E 48 84 2e 00
        E 480 94 28 5e
        E 146 84 28 00
        E 133 94 26 5e
        E 8 94 28 73
        E 40 84 26 00
        E 8 84 28 00
        E 2 94 28 5e
        E 47 94 28 5e
        E 1 84 28 00
        E 47 84 28 00
        E 0 94 28 5e
        E 48 84 28 00
        E 480 94 29 60
        E 143 84 29 00
        E 337 94 28 5e
        E 144 84 28 00
        E 336 94 27 5e
        E 144 84 27 00
        E 335 94 29 5e
        E 143 84 29 00
        E 337 94 29 5e
        E 144 84 29 00
        E 135 94 2c 5e
        E 11 94 2c 5e
        E 37 84 2c 00
        E 10 94 2c 5e
        E 1 84 2c 00
        E 46 94 2d 5e
        E 1 84 2c 00
        E 47 84 2d 00
        E 1 94 2c 5e
        E 48 84 2c 00
        E 480 94 28 7a
        E 143 84 28 00
        E 135 94 31 5e
        E 32 94 2c 5e
        E 2 94 2d 5a
        E 14 84 31 00
        E 17 94 2b 75
        E 15 84 2c 00
        E 2 84 2d 00
        E 18 94 2b 6d
        E 13 84 2b 00
        E 20 94 2b 75
        E 15 84 2b 00
        E 19 94 29 69
        E 14 84 2b 00
        E 34 84 29 00
        E 467 94 28 7d
        E 146 84 28 00
        E 133 94 29 5e
        E 9 94 28 79
        E 39 84 29 00
        E 9 84 28 00
        E 1 94 26 5e
        E 46 94 28 71
        E 2 84 26 00
        E 46 84 28 00
        E 1 94 28 54
        E 48 84 28 00
        E 480 94 2a 5c
        E 143 84 2a 00
        E 337 94 29 7b
        E 145 84 29 00
        E 334 94 28 7d
        E 143 84 28 00
        E 138 94 28 5e
        E 29 94 28 5e
        E 3 94 27 5e
        E 16 84 28 00
        E 16 94 27 5e
        E 13 84 28 00
        E 3 84 27 00
        E 16 94 27 5e
        E 16 84 27 00
        E 19 94 28 6d
        E 13 84 27 00
        E 22 94 28 6d
        E 13 84 28 00
        E 35 84 28 00
        E 466 94 2a 65
        E 145 84 2a 00
        E 134 94 27 5e
        E 9 94 27 5e
        E 39 84 27 00
        E 9 84 27 00
        E 0 94 27 67
        E 48 84 27 00
        E 0 94 2c 52
        E 48 84 2c 00
        E 1 94 2d 5e
        E 48 84 2d 00
        E 480 94 29 65
        E 143 84 29 00
        E 335 94 28 6d
        E 144 84 28 00
        E 339 94 28 5e
        E 145 84 28 00
        E 333 94 29 5e
        E 145 84 29 00
        E 336 94 29 69
        E 147 84 29 00
        E 331 94 29 5e
        E 143 84 29 00
        E 337 94 28 5e
        E 144 84 28 00
        E 136 94 28 5e
        E 9 94 28 5e
        E 39 84 28 00
        E 9 84 28 00
        E 0 94 28 5e
        E 48 84 28 00
        E 0 94 28 5e
        E 47 94 28 5e
        E 1 84 28 00
        E 47 84 28 00
        E 481 94 29 5e
        E 144 84 29 00
        E 134 94 2a 5e
        E 10 94 2a 5e
        E 38 84 2a 00
        E 10 84 2a 00
        E 1 94 2b 75
        E 47 94 2a 5e
        E 1 84 2b 00
        E 47 84 2a 00
        E 0 94 2b 5e
        E 48 84 2b 00
        E 480 94 28 5e
        E 145 84 28 00
        E 335 94 29 5e
        E 143 84 29 00
        E 337 94 29 5e
        E 144 84 29 00
        E 335 94 29 7c
        E 142 84 29 00
        E 339 94 28 7d
        E 146 84 28 00
        E 333 94 29 7d
        E 143 84 29 00
        E 338 94 29 5e
        E 145 84 29 00
        E 132 94 27 7b
        E 32 94 27 7b
        E 4 94 28 7d
        E 12 84 27 00
        E 18 94 2c 5e
        E 14 84 27 00
        E 4 84 28 00
        E 15 94 28 5e
        E 15 84 2c 00
        E 21 94 26 71
        E 12 84 28 00
        E 22 94 26 5e
        E 14 84 26 00
        E 34 84 26 00
        E 466 94 2a 63
        E 144 84 2a 00
        E 335 94 29 5e
        E 145 84 29 00
        E 336 94 29 77
        E 145 84 29 00
        E 132 94 2c 5e
        E 31 94 2b 5e
        E 4 94 2d 5e
        E 13 84 2c 00
        E 18 94 2d 5e
        E 13 84 2b 00
        E 4 84 2d 00
        E 17 94 2c 5e
        E 14 84 2d 00
        E 21 94 2d 5e
        E 13 84 2c 00
        E 21 94 2d 5e
        E 14 84 2d 00
        E 34 84 2d 00
        E 466 94 2b 5e
        E 145 84 2b 00
        E 134 94 24 5e
        E 9 94 25 52
        E 39 84 24 00
        E 9 84 25 00
        E 0 94 28 63
        E 48 84 28 00
        E 1 94 28 65
        E 45 94 28 58
        E 3 84 28 00
        E 45 84 28 00
        E 482 94 29 65
        E 147 84 29 00
        E 131 94 2e 5e
        E 10 94 2e 5e
        E 38 84 2e 00
        E 10 84 2e 00
        E 0 94 2e 67
        E 48 84 2e 00
        E 0 94 2e 67
        E 48 84 2e 00
        E 0 94 2e 5e
        E 48 84 2e 00
        E 0 b4 7b 00
        E 1 ff 2f 00
      >
    >
  >
  <TRACK
    NAME "vocals"
    PEAKCOL 4284506208
    VOLPAN 1.000000 0 1 -1
    MIDIOUT -1
    ISBUS 0 0
    <ITEM
      POSITION 21.748960
      LENGTH 46.879463
      NAME "vocals"
      VOLPAN 1 0 1 -1
      <SOURCE MIDI
        HASDATA 1 960 QN
        E 0 c5 36 00
        E 48718 95 3d 5e
        E 398 85 3d 00
        E 315 95 3d 5e
        E 372 85 3d 00
        E 1571 95 45 3f
        E 362 85 45 00
        E 99 95 4a 5e
        E 369 85 4a 00
        E 344 95 4a 2c
        E 389 85 4a 00
        E 819 95 49 5e
        E 411 85 49 00
        E 351 95 4f 54
        E 409 85 4f 00
        E 723 95 4a 5e
        E 382 85 4a 00
        E 1102 95 4e 5e
        E 337 85 4e 00
        E 1560 95 4a 32
        E 400 85 4a 00
        E 1543 95 4b 5e
        E 365 85 4b 00
        E 815 95 48 5e
        E 401 85 48 00
        E 1479 95 4c 5e
        E 399 85 4c 00
        E 2287 95 54 5e
        E 371 85 54 00
        E 105 95 50 5e
        E 374 85 50 00
        E 313 95 50 52
        E 367 85 50 00
        E 378 95 50 4b
        E 328 85 50 00
        E 157 95 56 5e
        E 413 85 56 00
        E 999 95 50 52
        E 397 85 50 00
        E 830 95 48 5e
        E 372 85 48 00
        E 2746 95 51 5e
        E 403 85 51 00
        E 347 95 51 47
        E 398 85 51 00
        E 299 95 56 32
        E 389 85 56 00
        E 1543 95 50 4e
        E 408 85 50 00
        E 1491 95 54 5e
        E 412 85 54 00
        E 96 95 55 5e
        E 361 85 55 00
        E 1055 95 49 5e
        E 390 85 49 00
        E 832 95 52 39
        E 378 85 52 00
        E 812 95 55 5e
        E 368 85 55 00
        E 313 95 50 50
        E 407 85 50 00
        E 3489 95 54 5e
        E 385 85 54 00
        E 315 95 55 49
        E 381 85 55 00
        E 1547 95 55 5e
        E 352 85 55 00
        E 147 95 4f 1f
        E 340 85 4f 00
        E 1559 95 54 5e
        E 376 85 54 00
        E 353 95 56 32
        E 379 85 56 00
        E 798 95 55 5e
        E 366 85 55 00
        E 384 95 55 50
        E 398 85 55 00
        E 288 95 53 5e
        E 395 85 53 00
        E 101 95 50 5e
        E 356 85 50 00
        E 1564 95 4a 28
        E 350 85 4a 00
        E 1544 95 51 5e
        E 395 85 51 00
        E 2217 95 49 50
        E 356 85 49 00
        E 406 95 44 5e
        E 378 85 44 00
        E 3958 95 49 5e
        E 352 85 49 00
        E 376 95 4a 50
        E 410 85 4a 00
        E 275 95 47 5e
        E 352 85 47 00
        E 155 95 45 5e
        E 385 85 45 00
        E 1034 95 42 5e
        E 371 85 42 00
        E 834 95 4a 5e
        E 391 85 4a 00
        E 819 95 43 5e
        E 407 85 43 00
        E 2956 95 44 5e
        E 400 85 44 00
        E 1527 95 3d 5e
        E 364 85 3d 00
        E 1538 95 44 34
        E 375 85 44 00
        E 124 95 3d 5e
        E 419 85 3d 00
        E 4140 95 3d 5e
        E 371 85 3d 00
        E 1526 95 49 5e
        E 368 85 49 00
        E 2297 95 49 5e
        E 365 85 49 00
        E 1526 95 44 5e
        E 414 85 44 00
        E 1519 95 48 5e
        E 385 85 48 00
        E 113 95 4a 5e
        E 395 85 4a 00
        E 1515 95 3f 5e
        E 385 85 3f 00
        E 4190 95 4a 5e
        E 426 85 4a 00
        E 248 95 49 43
        E 379 85 49 00
        E 839 95 43 5e
        E 398 85 43 00
        E 804 95 4a 5e
        E 381 85 4a 00
        E 1087 95 44 5e
        E 377 85 44 00
        E 2014 95 43 5e
        E 346 85 43 00
        E 1582 95 49 43
        E 417 85 49 00
        E 272 95 49 54
        E 382 85 49 00
        E 364 95 49 5e
        E 366 85 49 00
        E 0 b5 7b 00
        E 1 ff 2f 00
      >
    >
  >
  <TRACK
    NAME "riser"
    PEAKCOL 4284506208
    VOLPAN 1.000000 0 1 -1
    MIDIOUT -1
    ISBUS 0 0
    <ITEM
      POSITION 25.714286
      LENGTH 42.951786
      NAME "riser"
      VOLPAN 1 0 1 -1
      <SOURCE MIDI
        HASDATA 1 960 QN
        E 0 c6 61 00
        E 57600 96 3d 5e
        E 108 86 3d 00
        E 12 96 3a 5e
        E 108 86 3a 00
        E 12 96 3a 5e
        E 108 86 3a 00
        E 12 96 3d 34
        E 108 86 3d 00
        E 12 96 3d 34
        E 108 86 3d 00
        E 12 96 3d 3f
        E 108 86 3d 00
        E 12 96 3d 3b
        E 108 86 3d 00
        E 12 96 3d 39
        E 108 86 3d 00
        E 12 96 3d 3b
        E 108 86 3d 00
        E 12 96 3c 39
        E 108 86 3c 00
        E 252 96 3d 52
        E 108 86 3d 00
        E 12 96 3e 49
        E 108 86 3e 00
        E 12 96 3e 47
        E 108 86 3e 00
        E 12 96 3d 49
        E 108 86 3d 00
        E 12 96 3e 5e
        E 108 86 3e 00
        E 12 96 3e 49
        E 108 86 3e 00
        E 12 96 3f 5a
        E 108 86 3f 00
        E 12 96 40 5e
        E 108 86 40 00
        E 12 96 3f 50
        E 108 86 3f 00
        E 12 96 40 52
        E 108 86 40 00
        E 12 96 42 47
        E 108 86 42 00
        E 12 96 42 47
        E 108 86 42 00
        E 12 96 44 4e
        E 108 86 44 00
        E 12 96 44 39
        E 108 86 44 00
        E 12 96 44 47
        E 108 86 44 00
        E 12 96 42 5e
        E 108 86 42 00
        E 12 96 44 5e
        E 108 86 44 00
        E 12 96 46 32
        E 108 86 46 00
        E 12 96 47 30
        E 108 86 47 00
        E 12 96 4a 1f
        E 108 86 4a 00
        E 88332 96 3d 5e
        E 108 86 3d 00
        E 12 96 3c 5e
        E 108 86 3c 00
        E 12 96 3c 5e
        E 108 86 3c 00
        E 12 96 3d 5e
        E 108 86 3d 00
        E 12 96 3c 5e
        E 108 86 3c 00
        E 12 96 3b 5e
        E 108 86 3b 00
        E 12 96 3c 5e
        E 108 86 3c 00
        E 12 96 3d 5e
        E 108 86 3d 00
        E 132 96 3d 5e
        E 108 86 3d 00
        E 372 96 3e 5e
        E 108 86 3e 00
        E 132 96 3e 5e
        E 108 86 3e 00
        E 12 96 40 45
        E 108 86 40 00
        E 12 96 3f 5e
        E 108 86 3f 00
        E 132 96 3b 5e
        E 108 86 3b 00
        E 12 96 3b 5e
        E 108 86 3b 00
        E 12 96 40 50
        E 108 86 40 00
        E 12 96 41 47
        E 108 86 41 00
        E 12 96 42 3f
        E 108 86 42 00
        E 12 96 44 5e
        E 108 86 44 00
        E 12 96 41 41
        E 108 86 41 00
        E 12 96 3c 5e
        E 108 86 3c 00
        E 12 96 41 5e
        E 108 86 41 00
        E 12 96 41 5e
        E 108 86 41 00
        E 12 96 46 30
        E 108 86 46 00
        E 12 96 47 2c
        E 108 86 47 00
        E 12 96 48 28
        E 108 86 48 00
        E 0 b6 7b 00
        E 1 ff 2f 00
      >
    >
  >
  <TRACK
    NAME "bass_808_slide"
    PEAKCOL 4286528191
    VOLPAN 1.000000 0 1 -1
    MIDIOUT -1
    ISBUS 0 0
    <ITEM
      POSITION 27.429098
      LENGTH 41.334023
      NAME "bass_808_slide"
      VOLPAN 1 0 1 -1
      <SOURCE MIDI
        HASDATA 1 960 QN
        E 0 c7 26 00
        E 61441 97 32 5e
        E 1920 97 26 5e
        E 12 87 32 00
        E 745 87 26 00
        E 203 97 2c 5e
        E 719 97 27 5e
        E 1 87 2c 00
        E 49 87 27 00
        E 10 97 26 5e
        E 50 87 26 00
        E 11 97 26 5e
        E 50 87 26 00
        E 9 97 25 1d
        E 51 87 25 00
        E 9 97 26 5e
        E 0 97 25 5e
        E 118 87 25 00
        E 12 97 1a 5e
        E 2 87 26 00
        E 49 87 1a 00
        E 10 97 25 5e
        E 51 87 25 00
        E 8 97 25 5e
        E 51 87 25 00
        E 10 97 23 5e
        E 51 87 23 00
        E 8 97 24 5e
        E 129 87 24 00
        E 2 97 27 5e
        E 50 87 27 00
        E 11 97 27 5e
        E 51 87 27 00
        E 8 97 21 5e
        E 52 87 21 00
        E 7 97 24 5e
        E 50 87 24 00
        E 11 97 20 5e
        E 120 87 20 00
        E 10 97 1f 5e
        E 51 87 1f 00
        E 9 97 25 5e
        E 50 87 25 00
        E 10 97 25 5e
        E 51 87 25 00
        E 9 97 25 5e
        E 50 87 25 00
        E 11 97 25 5e
        E 129 97 24 5e
        E 3 87 25 00
        E 47 87 24 00
        E 10 97 23 5e
        E 50 87 23 00
        E 10 97 23 5e
        E 51 87 23 00
        E 10 97 24 5e
        E 50 87 24 00
        E 9 97 29 5e
        E 131 97 26 5e
        E 1 87 29 00
        E 50 87 26 00
        E 8 97 25 5e
        E 51 87 25 00
        E 10 97 25 5e
        E 49 87 25 00
        E 10 97 25 5e
        E 50 87 25 00
        E 11 97 25 5e
        E 58 87 25 00
        E 11 97 25 5e
        E 94 97 25 5e
        E 2 87 25 00
        E 46 87 25 00
        E 5 97 25 5e
        E 48 87 25 00
        E 3 97 25 5e
        E 48 87 25 00
        E 4 97 25 5e
        E 48 87 25 00
        E 3 97 2c 5e
        E 183 87 2c 00
        E 476 97 26 5e
        E 949 87 26 00
        E 10 97 25 5e
        E 0 97 1d 5e
        E 257 87 1d 00
        E 21 97 28 5e
        E 2 87 25 00
        E 48 87 28 00
        E 10 97 26 5e
        E 51 87 26 00
        E 10 97 25 5e
        E 50 87 25 00
        E 10 97 26 5e
        E 51 87 26 00
        E 9 97 25 5e
        E 254 87 25 00
        E 264 97 1f 5e
        E 257 87 1f 00
        E 261 97 26 5e
        E 125 87 26 00
        E 1 97 27 13
        E 51 87 27 00
        E 7 97 27 11
        E 50 87 27 00
        E 11 97 25 19
        E 51 87 25 00
        E 10 97 26 5e
        E 51 87 26 00
        E 7 97 26 5e
        E 96 87 26 00
        E 2 97 25 5e
        E 15 97 27 5e
        E 14 97 28 5e
        E 13 97 27 5e
        E 6 87 25 00
        E 9 97 27 5e
        E 6 87 27 00
        E 14 87 28 00
        E 13 87 27 00
        E 226 87 27 00
        E 548 97 24 5e
        E 959 97 29 5e
        E 1 97 30 5e
        E 2 87 24 00
        E 257 87 29 00
        E 19 97 2c 5e
        E 6 87 30 00
        E 44 87 2c 00
        E 10 97 27 5e
        E 50 87 27 00
        E 9 97 26 5e
        E 51 87 26 00
        E 10 97 26 5e
        E 50 87 26 00
        E 10 97 29 5e
        E 260 87 29 00
        E 258 97 2b 5e
        E 256 87 2b 00
        E 262 97 2c 5e
        E 125 87 2c 00
        E 0 97 2d 5e
        E 51 87 2d 00
        E 9 97 2b 5e
        E 50 87 2b 00
        E 10 97 26 5e
        E 49 87 26 00
        E 13 97 26 5e
        E 51 87 26 00
        E 8 97 26 5e
        E 96 87 26 00
        E 0 97 25 5e
        E 14 97 27 5e
        E 14 97 2b 5e
        E 15 97 2a 5e
        E 5 87 25 00
        E 10 97 2b 5e
        E 4 87 27 00
        E 14 87 2b 00
        E 15 87 2a 00
        E 225 87 2b 00
        E 547 97 32 5e
        E 0 97 28 5e
        E 86 87 28 00
        E 9 87 32 00
        E 2 97 26 5e
        E 33 97 25 5e
        E 15 87 26 00
        E 18 97 26 5e
        E 15 87 25 00
        E 19 97 25 5e
        E 14 87 26 00
        E 20 97 25 5e
        E 14 87 25 00
        E 80 87 25 00
        E 2 97 26 5e
        E 33 97 25 5e
        E 15 87 26 00
        E 19 97 2d 5e
        E 14 87 25 00
        E 19 97 2c 5e
        E 15 87 2d 00
        E 19 97 2d 5e
        E 14 87 2c 00
        E 82 97 32 5e
        E 1 87 2d 00
        E 33 97 2d 5e
        E 14 87 32 00
        E 19 97 32 5e
        E 15 87 2d 00
        E 19 97 2d 5e
        E 14 87 32 00
        E 20 97 2c 5e
        E 14 87 2d 00
        E 80 87 2c 00
        E 2 97 2e 5e
        E 33 97 2a 5e
        E 15 87 2e 00
        E 19 97 2a 5e
        E 14 87 2a 00
        E 19 97 30 5e
        E 15 87 2a 00
        E 18 97 31 5e
        E 15 87 30 00
        E 24 97 25 5e
        E 1 97 27 5e
        E 8 87 31 00
        E 78 87 25 00
        E 8 87 27 00
        E 1 97 2a 5e
        E 48 87 2a 00
        E 0 97 2a 5e
        E 47 97 24 32
        E 1 87 2a 00
        E 47 87 24 00
        E 2 97 24 47
        E 47 97 27 5e
        E 1 87 24 00
        E 85 87 27 00
        E 10 97 26 5e
        E 48 87 26 00
        E 1 97 25 5e
        E 47 97 27 5e
        E 1 87 25 00
        E 47 87 27 00
        E 0 97 26 5e
        E 48 87 26 00
        E 0 97 25 5e
        E 85 87 25 00
        E 12 97 28 5e
        E 48 87 28 00
        E 0 97 29 5e
        E 47 97 29 5e
        E 1 87 29 00
        E 46 97 29 5e
        E 1 87 29 00
        E 47 87 29 00
        E 1 97 29 5e
        E 97 97 25 5e
        E 1 87 29 00
        E 46 97 26 5e
        E 1 87 25 00
        E 47 87 26 00
        E 0 97 26 5e
        E 48 87 26 00
        E 0 97 25 5e
        E 48 87 25 00
        E 0 97 26 5e
        E 95 87 26 00
        E 1 97 25 5e
        E 48 87 25 00
        E 1 97 2c 5e
        E 47 97 23 5e
        E 1 87 2c 00
        E 47 87 23 00
        E 1 97 28 5e
        E 47 97 26 5e
        E 1 87 28 00
        E 95 87 26 00
        E 0 97 2c 5e
        E 48 87 2c 00
        E 0 97 2d 5e
        E 48 87 2d 00
        E 1 97 2c 5e
        E 48 87 2c 00
        E 0 97 2d 5e
        E 47 97 2b 5e
        E 1 87 2d 00
        E 86 87 2b 00
        E 10 97 2d 5e
        E 23 97 25 5e
        E 24 97 2d 5e
        E 1 87 2d 00
        E 23 87 25 00
        E 24 87 2d 00
        E 1 97 2d 5e
        E 86 87 2d 00
        E 10 97 2d 5e
        E 86 87 2d 00
        E 9 97 2b 5e
        E 48 87 2b 00
        E 1 97 2c 5e
        E 48 87 2c 00
        E 0 97 2c 5e
        E 47 97 2c 5e
        E 1 87 2c 00
        E 47 87 2c 00
        E 0 97 2c 5e
        E 142 87 2c 00
        E 434 97 25 5e
        E 1 97 25 5e
        E 82 87 25 00
        E 13 97 25 5e
        E 1 87 25 00
        E 16 97 24 5e
        E 18 97 24 5e
        E 13 87 25 00
        E 3 97 24 5e
        E 14 87 24 00
        E 18 87 24 00
        E 16 87 24 00
        E 66 97 25 5e
        E 18 97 24 5e
        E 16 97 24 5e
        E 14 87 25 00
        E 18 87 24 00
        E 16 87 24 00
        E 151 97 23 5e
        E 96 87 23 00
        E 0 97 25 5e
        E 17 97 28 5e
        E 18 97 29 5e
        E 13 87 25 00
        E 3 97 2a 37
        E 14 87 28 00
        E 4 97 2a 37
        E 14 87 29 00
        E 16 87 2a 00
        E 55 87 2a 00
        E 10 97 28 5e
        E 18 97 28 5e
        E 17 97 27 5e
        E 13 87 28 00
        E 5 97 2c 5e
        E 13 87 28 00
        E 4 97 27 5e
        E 13 87 27 00
        E 18 87 2c 00
        E 56 87 27 00
        E 8 97 25 5e
        E 10 97 25 5e
        E 10 97 26 5e
        E 10 97 26 5e
        E 12 97 25 5e
        E 26 97 25 5e
        E 22 87 25 00
        E 5 87 25 00
        E 11 87 25 00
        E 12 87 26 00
        E 7 87 26 00
        E 24 87 25 00
        E 1812 97 26 5e
        E 762 87 26 00
        E 198 97 25 5e
        E 960 97 25 5e
        E 0 97 25 5e
        E 18 87 25 00
        E 240 87 25 00
        E 18 87 25 00
        E 2 97 25 5e
        E 51 87 25 00
        E 9 97 26 5e
        E 51 87 26 00
        E 10 97 26 5e
        E 50 87 26 00
        E 10 97 24 5e
        E 50 87 24 00
        E 10 97 24 5e
        E 259 87 24 00
        E 259 97 24 5e
        E 259 87 24 00
        E 260 97 26 5e
        E 124 97 28 5e
        E 3 87 26 00
        E 46 87 28 00
        E 12 97 2e 5e
        E 51 87 2e 00
        E 8 97 25 5e
        E 49 87 25 00
        E 11 97 26 5e
        E 50 87 26 00
        E 11 97 26 5e
        E 93 87 26 00
        E 3 97 25 5e
        E 14 97 27 5e
        E 15 97 23 5e
        E 14 97 27 5e
        E 5 87 25 00
        E 9 97 27 5e
        E 5 87 27 00
        E 15 87 23 00
        E 14 87 27 00
        E 221 87 27 00
        E 552 97 2a 5e
        E 949 87 2a 00
        E 10 97 31 5e
        E 0 97 2c 5e
        E 260 87 2c 00
        E 7 87 31 00
        E 12 97 27 5e
        E 50 87 27 00
        E 9 97 24 5e
        E 50 87 24 00
        E 11 97 2c 5e
        E 51 87 2c 00
        E 8 97 24 5e
        E 50 87 24 00
        E 11 97 27 5e
        E 259 87 27 00
        E 259 97 2b 5e
        E 252 87 2b 00
        E 267 97 31 5e
        E 124 97 2d 5e
        E 1 87 31 00
        E 50 87 2d 00
        E 10 97 2c 5e
        E 51 87 2c 00
        E 8 97 2d 5e
        E 51 87 2d 00
        E 10 97 31 5e
        E 50 87 31 00
        E 9 97 31 5e
        E 95 87 31 00
        E 1 97 29 5e
        E 14 97 29 5e
        E 15 97 29 5e
        E 15 97 2b 5e
        E 4 87 29 00
        E 10 97 2a 5e
        E 4 87 29 00
        E 15 87 29 00
        E 15 87 2b 00
        E 228 87 2a 00
        E 545 97 31 5e
        E 1149 87 31 00
        E 30529 97 2d 5e
        E 1671 87 2d 00
        E 10 97 29 5e
        E 49 87 29 00
        E 12 97 26 5e
        E 51 87 26 00
        E 8 97 26 5e
        E 50 87 26 00
        E 10 97 25 5e
        E 51 87 25 00
        E 9 97 25 5e
        E 766 87 25 00
        E 194 97 28 5e
        E 0 97 26 5e
        E 86 87 26 00
        E 9 87 28 00
        E 2 97 27 5e
        E 32 97 2a 5e
        E 16 87 27 00
        E 18 97 28 5e
        E 14 87 2a 00
        E 20 97 26 5e
        E 14 87 28 00
        E 19 97 26 5e
        E 15 87 26 00
        E 73 87 26 00
        E 8 97 28 5e
        E 48 87 28 00
        E 184 97 27 5e
        E 32 97 28 5e
        E 16 87 27 00
        E 17 97 27 5e
        E 15 87 28 00
        E 19 97 28 5e
        E 14 87 27 00
        E 20 97 28 5e
        E 14 87 28 00
        E 72 87 28 00
        E 11 97 2a 5e
        E 33 97 24 5e
        E 15 87 2a 00
        E 19 97 24 5e
        E 14 87 24 00
        E 20 97 2a 28
        E 14 87 24 00
        E 19 97 2b 5e
        E 15 87 2a 00
        E 23 97 25 5e
        E 0 97 26 5e
        E 10 87 2b 00
        E 110 87 25 00
        E 8 87 26 00
        E 3 97 23 5e
        E 50 87 23 00
        E 9 97 24 39
        E 50 87 24 00
        E 11 97 28 5e
        E 50 87 28 00
        E 9 97 25 5e
        E 51 87 25 00
        E 10 97 24 5e
        E 129 97 24 5e
        E 3 87 24 00
        E 48 87 24 00
        E 10 97 24 5e
        E 51 87 24 00
        E 9 97 24 5e
        E 51 87 24 00
        E 9 97 24 5e
        E 51 87 24 00
        E 9 97 24 2e
        E 120 87 24 00
        E 10 97 25 5e
        E 50 87 25 00
        E 10 97 25 5e
        E 51 87 25 00
        E 9 97 26 5e
        E 51 87 26 00
        E 9 97 26 5e
        E 50 87 26 00
        E 11 97 26 5e
        E 129 87 26 00
        E 0 97 25 5e
        E 50 87 25 00
        E 11 97 25 5e
        E 51 87 25 00
        E 8 97 25 5e
        E 52 87 25 00
        E 9 97 24 5e
        E 51 87 24 00
        E 8 97 28 5e
        E 130 97 2a 3d
        E 3 87 28 00
        E 48 87 2a 00
        E 9 97 2a 3d
        E 50 87 2a 00
        E 11 97 2a 2c
        E 50 87 2a 00
        E 9 97 27 26
        E 51 87 27 00
        E 11 97 2c 32
        E 58 87 2c 00
        E 9 97 25 5e
        E 96 87 25 00
        E 0 97 26 5e
        E 48 87 26 00
        E 4 97 25 5e
        E 48 87 25 00
        E 3 97 24 5e
        E 48 87 24 00
        E 3 97 24 5e
        E 48 87 24 00
        E 4 97 26 5e
        E 181 87 26 00
        E 477 97 26 5e
        E 958 87 26 00
        E 2 97 2c 5e
        E 0 97 25 5e
        E 264 87 25 00
        E 14 97 25 5e
        E 3 87 2c 00
        E 48 87 25 00
        E 10 97 26 5e
        E 50 87 26 00
        E 10 97 25 2e
        E 51 87 25 00
        E 8 97 26 5e
        E 50 87 26 00
        E 10 97 26 5e
        E 263 87 26 00
        E 256 97 26 5e
        E 258 87 26 00
        E 261 97 24 5e
        E 122 87 24 00
        E 3 97 28 5e
        E 50 87 28 00
        E 10 97 2e 5e
        E 49 87 2e 00
        E 10 97 27 5e
        E 50 87 27 00
        E 11 97 25 0a
        E 50 87 25 00
        E 10 97 2d 5e
        E 95 97 27 5e
        E 1 87 2d 00
        E 14 97 27 5e
        E 14 97 24 5e
        E 14 97 24 5e
        E 5 87 27 00
        E 10 97 26 5e
        E 5 87 27 00
        E 14 87 24 00
        E 14 87 24 00
        E 226 87 26 00
        E 547 97 24 5e
        E 961 97 2c 5e
        E 0 97 33 5e
        E 3 87 24 00
        E 266 87 2c 00
        E 8 97 2c 5e
        E 4 87 33 00
        E 46 87 2c 00
        E 10 97 2c 5e
        E 50 87 2c 00
        E 11 97 26 5e
        E 49 87 26 00
        E 11 97 2d 5e
        E 50 87 2d 00
        E 10 97 2c 5e
        E 261 87 2c 00
        E 257 97 24 5e
        E 262 87 24 00
        E 257 97 26 5e
        E 124 87 26 00
        E 0 97 33 5e
        E 50 87 33 00
        E 9 97 31 5e
        E 50 87 31 00
        E 12 97 2c 5e
        E 51 87 2c 00
        E 8 97 2b 5e
        E 50 87 2b 00
        E 11 97 32 5e
        E 95 97 33 5e
        E 1 87 32 00
        E 14 97 33 5e
        E 13 97 2c 5e
        E 15 97 2c 5e
        E 5 87 33 00
        E 10 97 26 5e
        E 5 87 33 00
        E 13 87 2c 00
        E 15 87 2c 00
        E 219 87 26 00
        E 555 97 2d 5e
        E 719 87 2d 00
        E 0 97 2b 30
        E 51 87 2b 00
        E 9 97 29 5e
        E 51 87 29 00
        E 9 97 26 5e
        E 50 87 26 00
        E 10 97 25 17
        E 51 87 25 00
        E 9 97 24 5e
        E 0 97 22 5e
        E 86 87 22 00
        E 9 87 24 00
        E 1 97 25 5e
        E 48 87 25 00
        E 1 97 25 5e
        E 47 97 24 3d
        E 1 87 25 00
        E 47 87 24 00
        E 1 97 25 5e
        E 46 97 24 5e
        E 2 87 25 00
        E 85 87 24 00
        E 10 97 25 24
        E 48 87 25 00
        E 0 97 25 13
        E 48 87 25 00
        E 0 97 25 5e
        E 48 87 25 00
        E 0 97 27 5e
        E 48 87 27 00
        E 0 97 26 5e
        E 86 87 26 00
        E 10 97 26 5e
        E 48 87 26 00
        E 1 97 28 5e
        E 47 97 28 19
        E 1 87 28 00
        E 47 87 28 00
        E 1 97 2a 1d
        E 47 97 2a 5e
        E 1 87 2a 00
        E 96 87 2a 00
        E 0 97 29 5e
        E 46 97 2a 5e
        E 2 87 29 00
        E 46 87 2a 00
        E 1 97 2a 5e
        E 48 87 2a 00
        E 0 97 2a 5e
        E 48 87 2a 00
        E 0 97 2b 5e
        E 97 87 2b 00
        E 0 97 2c 5e
        E 47 97 2d 5e
        E 1 87 2c 00
        E 47 87 2d 00
        E 48 97 2d 5e
        E 48 87 2d 00
        E 0 97 27 5e
        E 97 97 26 5e
        E 1 87 27 00
        E 46 97 2d 5e
        E 1 87 26 00
        E 47 87 2d 00
        E 1 97 2c 5e
        E 47 97 2d 5e
        E 1 87 2c 00
        E 47 87 2d 00
        E 1 97 2c 5e
        E 87 87 2c 00
        E 9 97 2a 5e
        E 23 97 25 5e
        E 25 87 2a 00
        E 0 97 25 5e
        E 23 87 25 00
        E 1 97 25 5e
        E 23 97 25 5e
        E 1 87 25 00
        E 24 87 25 00
        E 61 87 25 00
        E 10 97 2d 5e
        E 86 87 2d 00
        E 11 97 31 5e
        E 47 97 30 5e
        E 1 87 31 00
        E 47 87 30 00
        E 0 97 31 5e
        E 48 87 31 00
        E 0 97 28 5e
        E 48 87 28 00
        E 0 97 32 5e
        E 144 87 32 00
        E 432 97 25 5e
        E 720 97 26 5e
        E 1 87 25 00
        E 49 87 26 00
        E 11 97 27 5e
        E 50 87 27 00
        E 8 97 26 5e
        E 51 87 26 00
        E 10 97 26 2a
        E 50 87 26 00
        E 10 97 26 5e
        E 0 97 25 5e
        E 1292 87 26 00
        E 626 87 25 00
        E 2 97 26 5e
        E 765 87 26 00
        E 195 97 26 5e
        E 960 97 25 5e
        E 1 97 2b 5e
        E 12 87 26 00
        E 248 87 25 00
        E 18 87 2b 00
        E 0 97 28 5e
        E 51 87 28 00
        E 8 97 25 5e
        E 51 87 25 00
        E 10 97 25 5e
        E 51 87 25 00
        E 9 97 24 5e
        E 51 87 24 00
        E 9 97 28 5e
        E 262 87 28 00
        E 256 97 26 5e
        E 261 87 26 00
        E 257 97 26 5e
        E 125 97 27 5e
        E 2 87 26 00
        E 48 87 27 00
        E 10 97 26 5e
        E 51 87 26 00
        E 10 97 26 19
        E 49 87 26 00
        E 10 97 27 1d
        E 51 87 27 00
        E 10 97 26 5e
        E 95 97 26 5e
        E 1 87 26 00
        E 13 97 27 5e
        E 15 97 26 5e
        E 14 97 27 5e
        E 5 87 26 00
        E 10 97 28 5e
        E 4 87 27 00
        E 15 87 26 00
        E 14 87 27 00
        E 223 87 28 00
        E 1509 97 26 5e
        E 2 97 32 5e
        E 435 87 32 00
        E 189 97 2c 5e
        E 2 87 26 00
        E 49 87 2c 00
        E 8 97 2d 5e
        E 49 87 2d 00
        E 11 97 2b 5e
        E 50 87 2b 00
        E 10 97 27 28
        E 50 87 27 00
        E 10 97 25 5e
        E 432 87 25 00
        E 433 97 2b 5e
        E 85 87 2b 00
        E 10 97 2f 5e
        E 24 97 2f 5e
        E 23 97 2f 5e
        E 1 87 2f 00
        E 24 87 2f 00
        E 1 97 30 5e
        E 22 87 2f 00
        E 1 97 26 5e
        E 25 87 30 00
        E 744 87 26 00
        E 192 97 25 5e
        E 1165 87 25 00
        E 0 b7 7b 00
        E 1 ff 2f 00
      >
    >
  >
  <TRACK
    NAME "trap_drums_drill"
    PEAKCOL 4290722362
    VOLPAN 1.000000 0 1 -1
    MIDIOUT -1
    ISBUS 0 0
    <ITEM
      POSITION 27.428386
      LENGTH 41.032871
      NAME "trap_drums_drill"
      VOLPAN 1 0 1 -1
      <SOURCE MIDI
        HASDATA 1 960 QN
        E 0 c9 00 00
        E 61440 99 2a 5e
        E 0 99 24 6f
        E 18 99 39 5e
        E 97 89 2a 00
        E 178 89 24 00
        E 187 99 2a 5e
        E 96 89 2a 00
        E 24 99 2a 63
        E 96 89 2a 00
        E 24 99 2a 5e
        E 97 89 2a 00
        E 24 99 2a 5e
        E 96 89 2a 00
        E 23 99 26 7d
        E 0 99 27 71
        E 287 89 27 00
        E 1 89 26 00
        E 192 99 2e 5e
        E 243 89 2e 00
        E 197 89 39 00
        E 40 99 2a 5e
        E 0 99 38 5e
        E 116 89 2a 00
        E 124 99 26 63
        E 76 89 26 00
        E 164 99 25 5e
        E 0 99 2d 5e
        E 238 89 2d 00
        E 47 89 25 00
        E 195 99 25 5e
        E 0 99 26 6f
        E 286 89 26 00
        E 5 89 25 00
        E 189 99 2e 6b
        E 0 99 24 5e
        E 9 89 38 00
        E 228 89 2e 00
        E 56 89 24 00
        E 187 99 24 60
        E 0 99 2a 5e
        E 19 99 3c 50
        E 76 89 2a 00
        E 25 99 2a 5e
        E 95 89 2a 00
        E 25 99 2a 5e
        E 47 89 24 00
        E 49 89 2a 00
        E 24 99 2a 60
        E 95 89 2a 00
        E 25 99 2a 5e
        E 96 89 2a 00
        E 23 99 2a 75
        E 96 89 2a 00
        E 24 99 26 6d
        E 1 99 2a 5e
        E 76 89 26 00
        E 19 89 2a 00
        E 25 99 2a 65
        E 96 89 2a 00
        E 23 99 27 7d
        E 1 99 26 79
        E 287 89 26 00
        E 1 89 27 00
        E 192 99 2b 5e
        E 77 89 2b 00
        E 19 99 2a 5e
        E 76 89 2a 00
        E 20 99 2a 5e
        E 76 89 2a 00
        E 20 99 2a 60
        E 77 89 2a 00
        E 19 99 2a 5e
        E 77 89 2a 00
        E 16 89 3c 00
        E 3 99 2a 5e
        E 0 99 3e 7d
        E 48 89 2a 00
        E 12 99 2a 5e
        E 48 89 2a 00
        E 12 99 2a 5e
        E 48 89 2a 00
        E 12 99 2a 5e
        E 48 89 2a 00
        E 252 99 2a 5e
        E 0 99 24 5e
        E 54 89 2a 00
        E 15 99 2a 5e
        E 55 89 2a 00
        E 13 99 2a 5e
        E 54 89 2a 00
        E 15 99 29 5e
        E 55 89 29 00
        E 13 99 2a 5e
        E 20 89 24 00
        E 34 89 2a 00
        E 15 99 2a 5e
        E 55 89 2a 00
        E 13 99 2a 5e
        E 55 89 2a 00
        E 14 99 27 65
        E 0 99 26 5e
        E 120 99 2a 5e
        E 97 89 2a 00
        E 22 99 2a 5e
        E 45 89 26 00
        E 6 89 27 00
        E 45 89 2a 00
        E 25 99 2a 5e
        E 95 89 2a 00
        E 25 99 24 5e
        E 0 99 2a 5e
        E 7 89 3e 00
        E 107 89 2a 00
        E 126 99 24 5e
        E 48 89 24 00
        E 29 89 24 00
        E 163 99 25 5e
        E 0 99 2a 5e
        E 19 99 38 71
        E 96 89 2a 00
        E 176 89 25 00
        E 189 99 2a 5e
        E 116 89 2a 00
        E 364 99 26 69
        E 1 99 26 77
        E 60 99 2a 5e
        E 48 89 2a 00
        E 11 99 2a 60
        E 48 89 2a 00
        E 11 99 2a 60
        E 49 89 2a 00
        E 57 89 26 00
        E 1 89 26 00
        E 194 99 2a 5e
        E 117 89 2a 00
        E 340 89 38 00
        E 22 99 37 7d
        E 1 99 2a 5e
        E 48 89 2a 00
        E 12 99 2a 63
        E 48 89 2a 00
        E 11 99 2a 63
        E 48 89 2a 00
        E 14 99 2a 5e
        E 48 89 2a 00
        E 251 99 24 60
        E 0 99 2a 5e
        E 48 89 2a 00
        E 12 99 2a 5e
        E 48 89 2a 00
        E 12 99 2a 5e
        E 48 89 2a 00
        E 12 99 2a 7b
        E 48 89 2a 00
        E 60 89 24 00
        E 191 99 26 73
        E 1 99 26 73
        E 285 89 26 00
        E 4 89 26 00
        E 191 99 2e 60
        E 0 99 24 71
        E 9 89 37 00
        E 235 89 2e 00
        E 42 89 24 00
        E 194 99 2d 5e
        E 1 99 24 67
        E 19 99 3c 7a
        E 220 89 2d 00
        E 47 89 24 00
        E 193 99 2a 5e
        E 64 89 2a 00
        E 16 99 2a 5e
        E 64 89 2a 00
        E 15 99 2e 5e
        E 64 89 2e 00
        E 17 99 26 5e
        E 77 89 26 00
        E 163 99 27 77
        E 0 99 26 7d
        E 283 89 27 00
        E 9 89 26 00
        E 188 99 2b 5e
        E 55 89 2b 00
        E 13 99 2a 5e
        E 55 89 2a 00
        E 14 99 2a 5e
        E 55 89 2a 00
        E 14 99 2a 67
        E 55 89 2a 00
        E 13 99 2a 7b
        E 55 89 2a 00
        E 14 99 2a 7b
        E 54 89 2a 00
        E 14 99 2a 75
        E 55 89 2a 00
        E 14 99 3d 7d
        E 0 99 2a 5e
        E 15 89 3c 00
        E 80 89 2a 00
        E 26 99 27 5e
        E 96 89 27 00
        E 22 99 29 63
        E 1 99 24 5e
        E 57 89 24 00
        E 2 99 24 5e
        E 36 89 29 00
        E 21 89 24 00
        E 3 99 23 5e
        E 1 99 2a 5e
        E 57 89 23 00
        E 39 89 2a 00
        E 23 99 24 7c
        E 1 99 29 5e
        E 115 89 29 00
        E 169 89 24 00
        E 196 99 26 5e
        E 0 99 27 5e
        E 120 99 2a 5e
        E 96 89 2a 00
        E 24 99 2a 5e
        E 48 89 27 00
        E 1 89 26 00
        E 48 89 2a 00
        E 23 99 2a 5e
        E 96 89 2a 00
        E 24 89 3d 00
        E 0 99 24 5e
        E 0 99 29 5e
        E 116 89 29 00
        E 167 89 24 00
        E 197 99 24 5e
        E 0 99 2d 5e
        E 19 99 3e 5e
        E 217 89 2d 00
        E 53 89 24 00
        E 191 99 2a 5e
        E 77 89 2a 00
        E 18 99 2a 5e
        E 76 89 2a 00
        E 21 99 2a 5e
        E 77 89 2a 00
        E 19 99 2a 5e
        E 76 89 2a 00
        E 21 99 2a 5e
        E 76 89 2a 00
        E 18 99 26 78
        E 1 99 27 63
        E 96 99 2a 5e
        E 77 89 2a 00
        E 19 99 2a 5e
        E 76 89 2a 00
        E 21 89 27 00
        E 0 99 2a 60
        E 1 89 26 00
        E 76 89 2a 00
        E 17 99 2a 5e
        E 76 89 2a 00
        E 21 99 2a 5e
        E 97 89 2a 00
        E 23 99 29 5e
        E 96 89 29 00
        E 24 99 25 5e
        E 0 99 2a 5e
        E 58 89 25 00
        E 2 99 26 5e
        E 35 89 2a 00
        E 22 89 26 00
        E 3 99 25 5e
        E 0 99 2a 5e
        E 57 89 25 00
        E 40 89 2a 00
        E 23 99 2a 5e
        E 1 99 3b 7d
        E 8 89 3e 00
        E 55 89 2a 00
        E 16 99 2a 5e
        E 64 89 2a 00
        E 16 99 2a 6f
        E 64 89 2a 00
        E 255 99 2e 5e
        E 1 99 24 5e
        E 240 89 2e 00
        E 45 89 24 00
        E 194 99 25 60
        E 1 99 26 6d
        E 60 99 2a 60
        E 48 89 2a 00
        E 12 99 2b 5e
        E 48 89 2b 00
        E 12 99 2a 7a
        E 48 89 2a 00
        E 53 89 25 00
        E 6 89 26 00
        E 193 99 24 6b
        E 0 99 2d 5e
        E 3 89 3b 00
        E 235 89 2d 00
        E 51 89 24 00
        E 191 99 24 60
        E 0 99 2a 5e
        E 19 99 3e 7d
        E 77 89 2a 00
        E 24 99 2a 5e
        E 96 89 2a 00
        E 24 99 2a 5e
        E 49 89 24 00
        E 47 89 2a 00
        E 24 99 2a 65
        E 95 89 2a 00
        E 25 99 2a 5e
        E 96 89 2a 00
        E 24 99 2a 6f
        E 96 89 2a 00
        E 24 99 26 5e
        E 1 99 2a 5e
        E 75 89 26 00
        E 21 89 2a 00
        E 24 99 2a 60
        E 95 89 2a 00
        E 24 99 26 73
        E 0 99 26 73
        E 284 89 26 00
        E 8 89 26 00
        E 188 99 2b 5e
        E 64 89 2b 00
        E 16 99 2b 5e
        E 64 89 2b 00
        E 16 99 2a 5e
        E 63 89 2a 00
        E 257 99 3e 77
        E 1 99 2a 5e
        E 3 89 3e 00
        E 92 89 2a 00
        E 24 99 2a 5e
        E 96 89 2a 00
        E 24 99 24 5e
        E 96 89 24 00
        E 24 99 24 5e
        E 96 89 24 00
        E 23 99 2a 5e
        E 1 99 24 5e
        E 61 89 2a 00
        E 19 99 29 5e
        E 63 89 29 00
        E 17 99 2a 5e
        E 63 89 2a 00
        E 17 99 26 5e
        E 45 89 24 00
        E 33 89 26 00
        E 162 99 27 65
        E 0 99 25 5e
        E 80 99 28 5e
        E 64 89 28 00
        E 16 99 2b 5e
        E 64 89 2b 00
        E 65 89 27 00
        E 3 89 25 00
        E 188 99 25 5e
        E 1 89 3e 00
        E 0 99 25 5e
        E 115 89 25 00
        E 175 89 25 00
        E 189 99 2a 5e
        E 0 99 24 79
        E 20 99 37 67
        E 76 89 2a 00
        E 24 99 2a 5e
        E 95 89 2a 00
        E 25 99 2a 5e
        E 50 89 24 00
        E 45 89 2a 00
        E 25 99 2a 60
        E 96 89 2a 00
        E 24 99 2a 5e
        E 63 89 2a 00
        E 17 99 2a 5e
        E 65 89 2a 00
        E 15 99 2a 5e
        E 64 89 2a 00
        E 255 99 26 6b
        E 1 99 26 6b
        E 282 89 26 00
        E 5 89 26 00
        E 193 99 2a 5e
        E 97 89 2a 00
        E 23 99 2a 5e
        E 96 89 2a 00
        E 24 99 2a 5e
        E 0 99 25 5e
        E 77 89 25 00
        E 19 89 2a 00
        E 24 99 2a 6f
        E 96 89 2a 00
        E 24 99 37 7d
        E 0 99 2a 5e
        E 15 89 37 00
        E 82 89 2a 00
        E 22 99 2a 75
        E 95 89 2a 00
        E 26 99 2a 60
        E 96 89 2a 00
        E 24 99 2d 5e
        E 96 89 2d 00
        E 23 99 24 67
        E 1 99 2a 5e
        E 65 89 2a 00
        E 15 99 2a 5e
        E 64 89 2a 00
        E 16 99 2a 7d
        E 64 89 2a 00
        E 65 89 24 00
        E 190 99 26 78
        E 1 99 27 75
        E 60 99 2a 5e
        E 48 89 2a 00
        E 12 99 2a 6b
        E 48 89 2a 00
        E 12 99 2a 63
        E 48 89 2a 00
        E 57 89 26 00
        E 3 89 27 00
        E 182 89 37 00
        E 10 99 2a 5e
        E 0 99 24 67
        E 115 89 2a 00
        E 175 89 24 00
        E 189 99 2a 5e
        E 1 99 24 67
        E 19 99 3c 71
        E 76 89 2a 00
        E 25 99 2a 5e
        E 96 89 2a 00
        E 24 99 2a 63
        E 53 89 24 00
        E 43 89 2a 00
        E 24 99 2e 5e
        E 96 89 2e 00
        E 23 99 2a 5e
        E 48 89 2a 00
        E 13 99 2a 7a
        E 49 89 2a 00
        E 11 99 2a 65
        E 48 89 2a 00
        E 13 99 2e 77
        E 48 89 2e 00
        E 251 99 27 75
        E 0 99 26 60
        E 288 89 26 00
        E 1 89 27 00
        E 191 99 2a 5e
        E 96 89 2a 00
        E 24 99 2a 5e
        E 96 89 2a 00
        E 24 99 2a 5e
        E 96 89 2a 00
        E 25 99 2a 5e
        E 95 89 2a 00
        E 24 99 26 6b
        E 193 89 26 00
        E 287 99 26 5e
        E 191 89 26 00
        E 767 89 3c 00
        E 31201 99 2a 5e
        E 1 99 24 6b
        E 19 99 39 7d
        E 96 89 2a 00
        E 173 89 24 00
        E 192 99 2a 6d
        E 96 89 2a 00
        E 24 99 2a 5e
        E 95 89 2a 00
        E 25 99 2a 5e
        E 96 89 2a 00
        E 24 99 2a 5e
        E 95 89 2a 00
        E 24 99 26 7b
        E 1 99 25 5e
        E 120 99 2c 5e
        E 96 89 2c 00
        E 24 99 2d 5e
        E 45 89 25 00
        E 1 89 26 00
        E 51 89 2d 00
        E 22 99 27 5e
        E 96 89 27 00
        E 25 99 2d 5e
        E 96 89 2d 00
        E 24 99 28 5e
        E 95 89 28 00
        E 25 99 2a 63
        E 96 89 2a 00
        E 24 99 2a 5e
        E 75 89 39 00
        E 20 89 2a 00
        E 25 99 39 7d
        E 0 99 2a 5e
        E 48 89 2a 00
        E 12 99 2a 5e
        E 48 89 2a 00
        E 12 99 2a 5e
        E 48 89 2a 00
        E 12 99 2a 5e
        E 48 89 2a 00
        E 251 99 2a 5e
        E 0 99 24 65
        E 95 89 2a 00
        E 27 99 2a 5e
        E 96 89 2a 00
        E 23 99 2a 5e
        E 46 89 24 00
        E 49 89 2a 00
        E 25 99 2a 7d
        E 96 89 2a 00
        E 24 99 26 6b
        E 1 99 27 67
        E 118 99 2a 5e
        E 96 89 2a 00
        E 24 99 2a 5e
        E 50 89 27 00
        E 2 89 26 00
        E 44 89 2a 00
        E 25 99 2a 5e
        E 97 89 2a 00
        E 23 99 24 5e
        E 0 99 2a 5e
        E 25 89 39 00
        E 91 89 2a 00
        E 125 99 26 5e
        E 47 89 24 00
        E 31 89 26 00
        E 160 99 2a 5e
        E 1 99 24 67
        E 19 99 3e 7d
        E 96 89 2a 00
        E 176 89 24 00
        E 189 99 2a 77
        E 116 89 2a 00
        E 364 99 27 78
        E 0 99 26 7d
        E 80 99 2a 6f
        E 66 89 2a 00
        E 13 99 2a 6f
        E 64 89 2a 00
        E 64 89 26 00
        E 4 89 27 00
        E 189 99 2b 5e
        E 239 89 2b 00
        E 226 89 3e 00
        E 14 99 2a 5e
        E 1 99 3e 7d
        E 63 89 2a 00
        E 16 99 2a 5e
        E 64 89 2a 00
        E 18 99 2b 65
        E 64 89 2b 00
        E 255 99 2b 5e
        E 0 99 24 6d
        E 95 89 2b 00
        E 25 99 2b 54
        E 96 89 2b 00
        E 24 99 2a 4b
        E 48 89 24 00
        E 48 89 2a 00
        E 24 99 2a 7d
        E 97 89 2a 00
        E 23 99 25 5e
        E 0 99 26 5e
        E 289 89 25 00
        E 2 89 26 00
        E 166 89 3e 00
        E 23 99 25 5e
        E 0 99 2a 5e
        E 113 89 2a 00
        E 176 89 25 00
        E 191 99 25 6b
        E 0 99 2a 5e
        E 19 99 37 5e
        E 76 89 2a 00
        E 25 99 2a 5e
        E 96 89 2a 00
        E 24 99 2a 5e
        E 49 89 25 00
        E 47 89 2a 00
        E 25 99 2d 5e
        E 96 89 2d 00
        E 23 99 2a 5e
        E 114 89 2a 00
        E 366 99 26 7b
        E 0 99 27 7d
        E 285 89 27 00
        E 3 89 26 00
        E 191 99 27 5e
        E 48 89 27 00
        E 13 99 2a 5e
        E 48 89 2a 00
        E 12 99 29 67
        E 48 89 29 00
        E 12 99 2a 6b
        E 48 89 2a 00
        E 11 99 26 5e
        E 76 89 26 00
        E 164 89 37 00
        E 1 99 2a 60
        E 0 99 37 7a
        E 48 89 2a 00
        E 13 99 2a 5e
        E 48 89 2a 00
        E 11 99 2b 60
        E 48 89 2b 00
        E 12 99 2a 5e
        E 48 89 2a 00
        E 252 99 2b 5e
        E 0 99 24 73
        E 48 89 2b 00
        E 11 99 2a 5e
        E 48 89 2a 00
        E 13 99 2a 5e
        E 48 89 2a 00
        E 13 99 2a 5e
        E 49 89 2a 00
        E 59 89 24 00
        E 191 99 27 7a
        E 0 99 26 7d
        E 60 99 2a 60
        E 48 89 2a 00
        E 12 99 2a 67
        E 48 89 2a 00
        E 12 99 2a 5e
        E 48 89 2a 00
        E 54 89 27 00
        E 7 89 26 00
        E 191 99 24 7a
        E 0 99 2a 5e
        E 15 89 37 00
        E 102 89 2a 00
        E 168 89 24 00
        E 195 99 24 67
        E 0 99 2a 5e
        E 19 99 3c 7d
        E 97 89 2a 00
        E 172 89 24 00
        E 192 99 2a 73
        E 97 89 2a 00
        E 23 99 2a 5e
        E 97 89 2a 00
        E 23 99 2a 5e
        E 0 99 25 5e
        E 77 89 25 00
        E 19 89 2a 00
        E 24 99 2a 63
        E 96 89 2a 00
        E 24 99 27 60
        E 0 99 26 7b
        E 69 99 2a 73
        E 55 89 2a 00
        E 13 99 2a 73
        E 55 89 2a 00
        E 15 99 2a 6b
        E 55 89 2a 00
        E 12 99 2a 5e
        E 14 89 26 00
        E 3 89 27 00
        E 38 89 2a 00
        E 14 99 2a 5e
        E 55 89 2a 00
        E 14 99 2a 5e
        E 55 89 2a 00
        E 13 99 29 5e
        E 96 89 29 00
        E 24 99 2a 5e
        E 96 89 2a 00
        E 24 99 2a 5e
        E 96 89 2a 00
        E 24 99 2a 5e
        E 97 89 2a 00
        E 14 89 3c 00
        E 8 99 3c 7d
        E 1 99 29 5e
        E 97 89 29 00
        E 23 99 29 5e
        E 95 89 29 00
        E 25 99 26 5e
        E 96 89 26 00
        E 24 99 25 5e
        E 95 89 25 00
        E 24 99 26 5e
        E 1 99 24 5e
        E 63 89 26 00
        E 18 99 27 58
        E 65 89 27 00
        E 14 99 2a 7c
        E 64 89 2a 00
        E 62 89 24 00
        E 193 99 26 69
        E 1 99 24 5e
        E 287 89 26 00
        E 0 89 24 00
        E 193 99 24 5e
        E 0 99 2b 5e
        E 6 89 3c 00
        E 109 89 2b 00
        E 126 99 26 5e
        E 48 89 24 00
        E 29 89 26 00
        E 162 99 24 7c
        E 0 99 2a 5e
        E 19 99 3f 7c
        E 96 89 2a 00
        E 172 89 24 00
        E 193 99 2a 60
        E 116 89 2a 00
        E 364 99 26 77
        E 0 99 26 77
        E 287 89 26 00
        E 4 89 26 00
        E 189 99 2a 5e
        E 96 89 2a 00
        E 24 99 2b 5e
        E 95 89 2b 00
        E 25 99 2a 5e
        E 98 89 2a 00
        E 23 99 2a 67
        E 93 89 3f 00
        E 2 89 2a 00
        E 24 99 2a 5e
        E 0 99 3f 7d
        E 48 89 2a 00
        E 11 99 2a 6b
        E 48 89 2a 00
        E 13 99 2a 7a
        E 48 89 2a 00
        E 11 99 2a 7c
        E 49 89 2a 00
        E 252 99 2a 5e
        E 0 99 24 7d
        E 63 89 2a 00
        E 17 99 2a 6f
        E 64 89 2a 00
        E 16 99 2a 71
        E 64 89 2a 00
        E 69 89 24 00
        E 187 99 27 7d
        E 1 99 26 79
        E 79 99 2a 60
        E 64 89 2a 00
        E 15 99 2a 60
        E 64 89 2a 00
        E 65 89 27 00
        E 4 89 26 00
        E 176 89 3f 00
        E 12 99 24 7c
        E 0 99 2a 5e
        E 116 89 2a 00
        E 174 89 24 00
        E 190 99 24 5e
        E 1 99 2a 5e
        E 18 99 3e 60
        E 57 89 2a 00
        E 20 99 2a 5e
        E 77 89 2a 00
        E 19 99 2a 5e
        E 76 89 2a 00
        E 19 89 24 00
        E 2 99 2a 5e
        E 77 89 2a 00
        E 18 99 2a 65
        E 77 89 2a 00
        E 19 99 2a 5e
        E 96 89 2a 00
        E 24 99 2a 5e
        E 97 89 2a 00
        E 23 99 29 5e
        E 95 89 29 00
        E 25 99 2a 65
        E 96 89 2a 00
        E 24 99 26 78
        E 0 99 27 6f
        E 80 99 2a 65
        E 65 89 2a 00
        E 15 99 2a 67
        E 63 89 2a 00
        E 62 89 27 00
        E 1 89 26 00
        E 194 99 2a 5e
        E 48 89 2a 00
        E 11 99 2a 5e
        E 48 89 2a 00
        E 13 99 2a 5e
        E 48 89 2a 00
        E 12 99 2a 67
        E 48 89 2a 00
        E 199 89 3e 00
        E 53 99 2a 5e
        E 1 99 3e 7d
        E 115 89 2a 00
        E 364 99 2a 5e
        E 0 99 24 5e
        E 116 89 2a 00
        E 178 89 24 00
        E 186 99 26 60
        E 0 99 26 60
        E 288 89 26 00
        E 3 89 26 00
        E 189 99 24 5e
        E 0 99 27 5e
        E 5 89 3e 00
        E 110 89 27 00
        E 171 89 24 00
        E 194 99 2a 71
        E 0 99 24 78
        E 19 99 37 67
        E 98 89 2a 00
        E 172 89 24 00
        E 192 99 2a 63
        E 48 89 2a 00
        E 11 99 2a 63
        E 49 89 2a 00
        E 11 99 2a 5e
        E 48 89 2a 00
        E 13 99 2a 5e
        E 48 89 2a 00
        E 11 99 25 5e
        E 77 89 25 00
        E 162 99 26 67
        E 2 99 27 78
        E 119 99 2a 5e
        E 96 89 2a 00
        E 24 99 2a 5e
        E 45 89 26 00
        E 1 89 27 00
        E 50 89 2a 00
        E 24 99 2a 75
        E 95 89 2a 00
        E 25 99 2a 5e
        E 48 89 2a 00
        E 12 99 2a 5e
        E 48 89 2a 00
        E 12 99 2a 5e
        E 48 89 2a 00
        E 11 99 2a 6b
        E 48 89 2a 00
        E 239 89 37 00
        E 14 99 37 7d
        E 0 99 2a 5e
        E 118 89 2a 00
        E 362 99 25 67
        E 0 99 2a 5e
        E 97 89 2a 00
        E 23 99 2a 67
        E 96 89 2a 00
        E 24 99 2a 7d
        E 43 89 25 00
        E 53 89 2a 00
        E 24 99 2a 7d
        E 96 89 2a 00
        E 24 99 26 7a
        E 1 99 27 79
        E 67 99 2a 5e
        E 55 89 2a 00
        E 14 99 27 5e
        E 55 89 27 00
        E 14 99 28 7d
        E 55 89 28 00
        E 14 99 28 5e
        E 13 89 26 00
        E 0 89 27 00
        E 42 89 28 00
        E 13 99 29 5e
        E 55 89 29 00
        E 14 99 28 5e
        E 55 89 28 00
        E 12 99 2a 67
        E 1 99 24 71
        E 14 89 37 00
        E 102 89 2a 00
        E 124 99 26 7d
        E 48 89 24 00
        E 30 89 26 00
        E 162 99 2a 5e
        E 0 99 24 6b
        E 19 99 3a 65
        E 96 89 2a 00
        E 174 89 24 00
        E 191 99 2a 5e
        E 115 89 2a 00
        E 365 99 26 60
        E 1 99 27 6b
        E 79 99 2a 5e
        E 64 89 2a 00
        E 16 99 2a 5e
        E 64 89 2a 00
        E 67 89 26 00
        E 0 89 27 00
        E 189 99 2a 5e
        E 115 89 2a 00
        E 125 99 26 5e
        E 77 89 26 00
        E 162 99 26 5e
        E 191 89 26 00
        E 290 99 26 5e
        E 194 89 26 00
        E 775 89 3a 00
        E 0 b9 7b 00
        E 1 ff 2f 00
      >
    >
  >
  <TRACK
    NAME "ghost_snare"
    PEAKCOL 4290722362
    VOLPAN 1.000000 0 1 -1
    MIDIOUT -1
    ISBUS 0 0
    <ITEM
      POSITION 27.641053
      LENGTH 40.474866
      NAME "ghost_snare"
      VOLPAN 1 0 1 -1
      <SOURCE MIDI
        HASDATA 1 960 QN
        E 0 c9 00 00
        E 61916 99 25 5e
        E 76 89 25 00
        E 167 99 26 5e
        E 77 89 26 00
        E 1600 99 25 5e
        E 77 89 25 00
        E 54 99 26 5e
        E 77 89 26 00
        E 160 99 28 5e
        E 77 89 28 00
        E 1479 99 26 5e
        E 77 89 26 00
        E 47 99 26 5e
        E 76 89 26 00
        E 165 99 25 5e
        E 77 89 25 00
        E 1477 99 25 5e
        E 77 89 25 00
        E 1843 99 27 5e
        E 77 89 27 00
        E 2206 99 24 5e
        E 77 89 24 00
        E 1722 99 24 5e
        E 77 89 24 00
        E 1725 99 25 5e
        E 76 89 25 00
        E 1726 99 26 5e
        E 77 89 26 00
        E 2076 99 27 5e
        E 76 89 27 00
        E 42 99 25 5e
        E 77 89 25 00
        E 1488 99 26 5e
        E 77 89 26 00
        E 1840 99 21 5e
        E 79 89 21 00
        E 43 99 26 5e
        E 77 89 26 00
        E 46 99 26 5e
        E 76 89 26 00
        E 1728 99 26 5e
        E 76 89 26 00
        E 38 99 25 5e
        E 78 89 25 00
        E 1596 99 26 5e
        E 75 89 26 00
        E 167 99 26 5e
        E 77 89 26 00
        E 48 99 25 5e
        E 78 89 25 00
        E 1477 99 25 5e
        E 77 89 25 00
        E 47 99 23 5e
        E 77 89 23 00
        E 1850 99 26 5e
        E 77 89 26 00
        E 32 99 26 5e
        E 76 89 26 00
        E 1605 99 25 5e
        E 77 89 25 00
        E 51 99 25 5e
        E 77 89 25 00
        E 42 99 25 5e
        E 77 89 25 00
        E 1712 99 26 5e
        E 76 89 26 00
        E 1855 99 21 5e
        E 76 89 21 00
        E 1721 99 26 5e
        E 76 89 26 00
        E 282 99 25 5e
        E 78 89 25 00
        E 1604 99 26 5e
        E 77 89 26 00
        E 46 99 25 5e
        E 77 89 25 00
        E 42 99 25 5e
        E 77 89 25 00
        E 1480 99 26 5e
        E 77 89 26 00
        E 42 99 26 5e
        E 76 89 26 00
        E 45 99 25 5e
        E 77 89 25 00
        E 43 99 24 5e
        E 77 89 24 00
        E 1483 99 24 5e
        E 77 89 24 00
        E 162 99 24 5e
        E 77 89 24 00
        E 46 99 25 5e
        E 77 89 25 00
        E 1480 99 24 5e
        E 77 89 24 00
        E 167 99 25 5e
        E 78 89 25 00
        E 38 99 25 5e
        E 78 89 25 00
        E 1838 99 24 5e
        E 76 89 24 00
        E 3643 99 25 5e
        E 77 89 25 00
        E 1609 99 24 5e
        E 78 89 24 00
        E 159 99 24 5e
        E 77 89 24 00
        E 45 99 25 5e
        E 78 89 25 00
        E 1490 99 25 5e
        E 76 89 25 00
        E 31 99 26 5e
        E 77 89 26 00
        E 51 99 25 5e
        E 76 89 25 00
        E 47 99 26 5e
        E 78 89 26 00
        E 1475 99 25 5e
        E 77 89 25 00
        E 1840 99 27 5e
        E 77 89 27 00
        E 48 99 27 5e
        E 75 89 27 00
        E 49 99 26 5e
        E 76 89 26 00
        E 1603 99 24 5e
        E 77 89 24 00
        E 41 99 25 5e
        E 76 89 25 00
        E 162 99 2d 5e
        E 76 89 2d 00
        E 1599 99 26 5e
        E 76 89 26 00
        E 168 99 24 5e
        E 76 89 24 00
        E 1847 99 25 5e
        E 76 89 25 00
        E 1488 99 26 5e
        E 76 89 26 00
        E 277 99 25 5e
        E 76 89 25 00
        E 5324 99 25 5e
        E 78 89 25 00
        E 169 99 25 5e
        E 76 89 25 00
        E 40 99 25 3f
        E 76 89 25 00
        E 3401 99 26 5e
        E 76 89 26 00
        E 45 99 26 5e
        E 76 89 26 00
        E 162 99 26 5e
        E 77 89 26 00
        E 1725 99 24 5e
        E 76 89 24 00
        E 1845 99 26 5e
        E 77 89 26 00
        E 46 99 25 5e
        E 77 89 25 00
        E 1720 99 26 5e
        E 77 89 26 00
        E 41 99 25 5e
        E 78 89 25 00
        E 3400 99 25 5e
        E 77 89 25 00
        E 46 99 25 5e
        E 78 89 25 00
        E 162 99 24 37
        E 76 89 24 00
        E 1492 99 25 5e
        E 75 89 25 00
        E 39 99 26 5e
        E 77 89 26 00
        E 45 99 26 5e
        E 76 89 26 00
        E 43 99 26 5e
        E 77 89 26 00
        E 3403 99 25 5e
        E 77 89 25 00
        E 39 99 24 5e
        E 77 89 24 00
        E 0 b9 7b 00
        E 1 ff 2f 00
      >
    >
  >
  <TRACK
    NAME "bass_808_soft"
    PEAKCOL 4286528191
    VOLPAN 1.000000 0 1 -1
    MIDIOUT -1
    ISBUS 0 0
    <ITEM
      POSITION 68.575006
      LENGTH 6.876669
      NAME "bass_808_soft"
      VOLPAN 1 0 1 -1
      <SOURCE MIDI
        HASDATA 1 960 QN
        E 0 c8 26 00
        E 153608 98 26 5e
        E 2876 98 2c 19
        E 85 88 26 00
        E 632 98 2d 1b
        E 2 88 2c 00
        E 50 88 2d 00
        E 8 98 2c 26
        E 50 88 2c 00
        E 11 98 2a 30
        E 50 88 2a 00
        E 8 98 28 19
        E 50 88 28 00
        E 15 98 26 30
        E 2884 88 26 00
        E 11 98 26 24
        E 695 98 25 1f
        E 27 88 26 00
        E 23 88 25 00
        E 22 98 28 1f
        E 49 88 28 00
        E 7 98 25 22
        E 50 88 25 00
        E 3 98 2b 1b
        E 51 88 2b 00
        E 19 98 2b 1d
        E 2878 98 2b 2a
        E 27 88 2b 00
        E 695 98 2b 28
        E 5 88 2b 00
        E 46 88 2b 00
        E 4 98 2c 30
        E 51 88 2c 00
        E 16 98 2c 2a
        E 50 88 2c 00
        E 5 98 2b 1f
        E 50 88 2b 00
        E 4 98 2e 28
        E 2867 88 2e 00
        E 29 98 2d 1f
        E 774 88 2d 00
        E 0 b8 7b 00
        E 1 ff 2f 00
      >
    >
  >
  <TRACK
    NAME "impact"
    PEAKCOL 4284506208
    VOLPAN 1.000000 0 1 -1
    MIDIOUT -1
    ISBUS 0 0
    <ITEM
      POSITION 68.571429
      LENGTH 0.850000
      NAME "impact"
      VOLPAN 1 0 1 -1
      <SOURCE MIDI
        HASDATA 1 960 QN
        E 0 ca 67 00
        E 153600 9a 39 5e
        E 480 8a 39 00
        E 0 9a 38 60
        E 96 9a 37 56
        E 48 8a 38 00
        E 48 9a 36 5c
        E 48 8a 37 00
        E 48 9a 35 65
        E 48 8a 36 00
        E 48 9a 34 5c
        E 48 8a 35 00
        E 48 9a 33 5c
        E 48 8a 34 00
        E 48 9a 32 5c
        E 48 8a 33 00
        E 48 9a 31 5e
        E 48 8a 32 00
        E 48 9a 30 5e
        E 48 8a 31 00
        E 48 9a 30 5e
        E 48 8a 30 00
        E 48 9a 30 5e
        E 48 8a 30 00
        E 48 9a 2f 5e
        E 48 8a 30 00
        E 96 8a 2f 00
        E 0 ba 7b 00
        E 1 ff 2f 00
      >
    >
  >
>
