<REAPER_PROJECT 0.1 "7.0" 1700000000
  TEMPO 130.000000 4 4
  SAMPLERATE 48000 0 0
  RENDER_FILE ""
  RENDER_FMT 0 2 0
  RENDER_1X 0
  RENDER_RANGE 1 0 83.286116 0 0
  RENDER_RESAMPLE 3 0 1
  <MASTERTRACK
    VOLPAN 1 0 1 -1
    DEFCHAN 0
  >
  <TRACK
    NAME "dark_pad"
    PEAKCOL 4284506208
    VOLPAN 1.000000 0 1 -1
    MIDIOUT -1
    ISBUS 0 0
    <ITEM
      POSITION 0.002708
      LENGTH 81.383408
      NAME "dark_pad"
      VOLPAN 1 0 1 -1
      <SOURCE MIDI
        HASDATA 1 960 QN
        E 0 c0 5c 00
        E 6 90 40 20
        E 8 90 3e 20
        E 13 90 3c 20
        E 8 90 4c 20
        E 7 90 41 20
        E 13 90 4c 20
        E 19 90 54 20
        E 3461 80 4c 00
        E 5 80 54 00
        E 58 80 4c 00
        E 245 90 3b 1c
        E 10 90 3d 24
        E 15 90 41 29
        E 5 90 48 29
        E 9 90 40 1a
        E 26 90 54 1a
        E 1092 80 3c 00
        E 30 80 41 00
        E 6 80 3e 00
        E 72 80 40 00
        E 2141 80 54 00
        E 92 80 48 00
        E 333 90 3f 22
        E 23 90 40 1e
        E 11 90 40 0d
        E 13 90 3e 1a
        E 14 90 4b 0f
        E 15 90 57 0f
        E 862 80 3d 00
        E 77 80 3b 00
        E 104 80 41 00
        E 379 80 40 00
        E 1993 80 4b 00
        E 66 80 57 00
        E 295 90 3e 1a
        E 10 90 3e 2f
        E 13 90 31 27
        E 13 90 42 1a
        E 31 90 56 22
        E 989 80 40 00
        E 27 80 40 00
        E 100 80 3f 00
        E 66 80 3e 00
        E 1520 80 56 00
        E 947 80 3e 00
        E 25 80 3e 00
        E 1 80 42 00
        E 42 80 31 00
        E 52 90 3d 60
        E 26 90 3d 60
        E 45 90 4f 60
        E 3409 80 4f 00
        E 1390 80 3d 00
        E 93 80 3d 00
        E 2725 90 37 60
        E 18 90 49 20
        E 2 90 38 60
        E 10 90 4d 20
        E 10 90 3c 60
        E 13 90 49 20
        E 3415 80 49 00
        E 51 80 4d 00
        E 44 80 49 00
        E 266 90 3d 60
        E 13 90 38 60
        E 945 80 3c 00
        E 291 80 37 00
        E 160 80 38 00
        E 2429 90 3c 60
        E 16 90 3e 60
        E 13 90 48 20
        E 1100 80 38 00
        E 158 80 3d 00
        E 2193 80 48 00
        E 363 90 42 60
        E 15 90 31 60
        E 10 90 3d 60
        E 4 90 49 20
        E 951 80 3e 00
        E 128 80 3c 00
        E 2419 80 49 00
        E 1268 80 3d 00
        E 123 80 42 00
        E 59 80 31 00
        E 6543 90 39 60
        E 17 90 3c 22
        E 12 90 3d 0b
        E 0 90 47 13
        E 13 90 4b 0f
        E 2 90 3c 13
        E 27 90 53 18
        E 3404 80 4b 00
        E 30 80 53 00
        E 100 80 47 00
        E 231 90 3e 60
        E 19 90 3c 20
        E 10 90 49 22
        E 7 90 3c 27
        E 11 90 48 24
        E 0 90 43 20
        E 13 90 49 1a
        E 967 80 39 00
        E 17 80 3c 00
        E 73 80 3d 00
        E 15 80 3c 00
        E 2390 80 49 00
        E 73 80 49 00
        E 8 80 48 00
        E 241 90 3b 24
        E 16 90 40 2b
        E 11 90 3c 60
        E 15 90 53 20
        E 8 90 3d 1a
        E 10 90 48 24
        E 11 90 54 18
        E 960 80 3e 00
        E 187 80 3c 00
        E 26 80 43 00
        E 105 80 3c 00
        E 2022 80 53 00
        E 29 80 54 00
        E 207 80 48 00
        E 243 90 38 27
        E 16 90 3d 60
        E 14 90 3d 60
        E 0 90 4f 27
        E 27 90 55 11
        E 962 80 3c 00
        E 59 80 40 00
        E 127 80 3b 00
        E 152 80 3d 00
        E 1217 80 4f 00
        E 179 80 55 00
        E 1010 80 38 00
        E 8 80 3d 00
        E 16 80 3d 00
        E 44 90 3c 60
        E 13 90 31 60
        E 5000 80 3c 00
        E 32 80 31 00
        E 6485 90 30 60
        E 17 90 49 60
        E 2 90 2c 60
        E 3489 80 49 00
        E 1200 80 30 00
        E 282 80 2c 00
        E 14201 90 3e 60
        E 3832 90 3c 60
        E 1215 80 3e 00
        E 2647 90 45 60
        E 13 90 3b 60
        E 975 80 3c 00
        E 2838 90 3d 60
        E 27 90 49 20
        E 1162 80 45 00
        E 15 80 3b 00
        E 2380 80 49 00
        E 252 90 30 60
        E 1098 80 3d 00
        E 2749 90 40 60
        E 11 90 36 60
        E 17 90 48 20
        E 4 90 3a 60
        E 1065 80 30 00
        E 2692 80 48 00
        E 45 90 3c 60
        E 15 90 31 60
        E 1020 80 36 00
        E 15 80 40 00
        E 138 80 3a 00
        E 2654 90 3e 60
        E 13 90 3c 60
        E 29 90 3d 60
        E 1163 80 3c 00
        E 162 80 31 00
        E 2416 80 3c 00
        E 123 80 3d 00
        E 40 80 3e 00
        E 11413 90 3c 60
        E 5009 80 3c 00
        E 10351 90 31 60
        E 13 90 32 60
        E 15 90 37 60
        E 3809 90 3d 22
        E 15 90 43 11
        E 13 90 42 1a
        E 3 90 42 1a
        E 16 90 43 0f
        E 12 90 48 0f
        E 15 90 57 0b
        E 40 80 37 00
        E 3 80 31 00
        E 15 80 32 00
        E 3380 80 42 00
        E 126 80 57 00
        E 34 80 48 00
        E 170 90 3b 1e
        E 16 90 3d 2d
        E 13 90 3f 2d
        E 16 90 50 1c
        E 3 90 40 1a
        E 27 90 55 18
        E 900 80 42 00
        E 142 80 43 00
        E 17 80 43 00
        E 139 80 3d 00
        E 2195 80 50 00
        E 55 80 55 00
        E 315 90 3e 15
        E 17 90 41 1e
        E 12 90 41 1e
        E 16 90 44 11
        E 3 90 52 11
        E 16 90 4c 0b
        E 1082 80 3b 00
        E 12 80 40 00
        E 21 80 3d 00
        E 100 80 3f 00
        E 2097 80 52 00
        E 261 80 4c 00
        E 203 90 3e 29
        E 20 90 40 1e
        E 5 90 4a 2b
        E 8 90 3f 1e
        E 11 90 44 1a
        E 3 90 51 15
        E 1051 80 41 00
        E 70 80 41 00
        E 22 80 3e 00
        E 99 80 44 00
        E 1322 80 4a 00
        E 168 80 51 00
        E 877 80 3f 00
        E 209 80 40 00
        E 66 80 3e 00
        E 27 80 44 00
        E 0 b0 7b 00
        E 1 ff 2f 00
      >
    >
  >
  <TRACK
    NAME "cowbell_spare"
    PEAKCOL 4284506208
    VOLPAN 1.000000 0 1 -1
    MIDIOUT -1
    ISBUS 0 0
    <ITEM
      POSITION 0.000000
      LENGTH 59.091980
      NAME "cowbell_spare"
      VOLPAN 1 0 1 -1
      <SOURCE MIDI
        HASDATA 1 960 QN
        E 0 c1 00 00
        E 0 91 24 20
        E 0 91 2a 20
        E 0 91 38 20
        E 3 91 34 60
        E 141 81 2a 00
        E 1 81 38 00
        E 147 81 24 00
        E 189 91 38 1e
        E 142 81 38 00
        E 337 91 23 06
        E 1 91 27 0b
        E 143 81 27 00
        E 93 81 23 00
        E 671 81 34 00
        E 51 91 24 24
        E 0 91 31 0f
        E 0 91 38 1c
        E 2 91 29 15
        E 139 81 38 00
        E 6 81 29 00
        E 141 81 24 00
        E 672 91 26 1e
        E 3 91 29 06
        E 142 81 29 00
        E 89 81 26 00
        E 514 81 31 00
        E 213 91 2a 60
        E 1 91 24 13
        E 1 91 39 60
        E 143 81 2a 00
        E 146 81 24 00
        E 189 91 37 60
        E 143 81 37 00
        E 338 91 2b 29
        E 0 91 26 3e
        E 147 81 2b 00
        E 97 81 26 00
        E 236 91 38 60
        E 144 81 38 00
        E 336 91 37 60
        E 0 91 25 0f
        E 0 91 25 06
        E 1 91 37 60
        E 48 81 39 00
        E 93 81 37 00
        E 3 81 25 00
        E 141 81 25 00
        E 674 91 25 18
        E 0 91 27 20
        E 143 81 27 00
        E 96 81 25 00
        E 238 91 38 60
        E 141 81 38 00
        E 135 81 37 00
        E 207 91 30 60
        E 1 91 25 0d
        E 0 91 25 0d
        E 143 81 25 00
        E 154 81 25 00
        E 660 91 3a 60
        E 1 91 25 20
        E 1 91 24 15
        E 141 81 3a 00
        E 3 81 24 00
        E 100 81 25 00
        E 715 81 30 00
        E 0 91 24 27
        E 0 91 29 1a
        E 1 91 32 36
        E 143 81 29 00
        E 138 81 24 00
        E 199 91 38 2f
        E 145 81 38 00
        E 334 91 2a 1c
        E 1 91 25 1a
        E 144 81 2a 00
        E 97 81 25 00
        E 549 81 32 00
        E 170 91 2a 2f
        E 0 91 36 20
        E 1 91 1e 09
        E 146 81 2a 00
        E 144 81 1e 00
        E 668 91 24 22
        E 2 91 24 22
        E 142 81 24 00
        E 96 81 24 00
        E 239 91 38 2b
        E 145 81 38 00
        E 336 91 24 0b
        E 0 91 35 15
        E 1 91 24 0b
        E 12 81 36 00
        E 131 81 24 00
        E 143 81 24 00
        E 673 91 29 29
        E 2 91 24 18
        E 143 81 29 00
        E 96 81 24 00
        E 528 81 35 00
        E 191 91 2d 60
        E 1 91 21 20
        E 0 91 22 20
        E 141 81 21 00
        E 149 81 22 00
        E 189 91 36 60
        E 144 81 36 00
        E 336 91 26 60
        E 0 91 24 60
        E 144 81 24 00
        E 102 81 26 00
        E 234 91 38 60
        E 142 81 38 00
        E 322 81 2d 00
        E 17 91 28 60
        E 0 91 24 60
        E 1 91 38 60
        E 0 91 30 60
        E 143 81 28 00
        E 0 81 38 00
        E 146 81 24 00
        E 190 91 38 60
        E 143 81 38 00
        E 337 91 26 60
        E 0 91 24 60
        E 1 91 34 60
        E 143 81 34 00
        E 3 81 24 00
        E 95 81 26 00
        E 536 81 30 00
        E 181 91 26 60
        E 1 91 27 60
        E 0 91 31 60
        E 145 81 27 00
        E 139 81 26 00
        E 196 91 30 27
        E 145 81 30 00
        E 334 91 25 60
        E 1 91 24 60
        E 0 91 32 60
        E 143 81 32 00
        E 2 81 24 00
        E 89 81 25 00
        E 687 81 31 00
        E 38 91 24 60
        E 0 91 3d 60
        E 0 91 25 60
        E 1 91 35 60
        E 144 81 35 00
        E 1 81 25 00
        E 137 81 24 00
        E 676 91 26 60
        E 1 91 32 60
        E 1 91 28 60
        E 142 81 32 00
        E 1 81 28 00
        E 99 81 26 00
        E 236 91 32 60
        E 141 81 32 00
        E 158 81 3d 00
        E 182 91 32 60
        E 1 91 1d 60
        E 0 91 25 60
        E 142 81 25 00
        E 147 81 1d 00
        E 669 91 26 60
        E 2 91 29 60
        E 148 81 29 00
        E 84 81 26 00
        E 246 91 39 60
        E 144 81 39 00
        E 338 91 30 60
        E 0 91 31 60
        E 0 91 24 60
        E 2 91 27 60
        E 24 81 32 00
        E 117 81 24 00
        E 1 81 30 00
        E 148 81 27 00
        E 667 91 24 60
        E 2 91 25 60
        E 144 81 25 00
        E 94 81 24 00
        E 561 81 31 00
        E 158 91 24 60
        E 2 91 31 60
        E 1 91 25 60
        E 142 81 24 00
        E 141 81 25 00
        E 674 91 31 60
        E 0 91 20 60
        E 2 91 24 60
        E 142 81 31 00
        E 1 81 24 00
        E 97 81 20 00
        E 686 81 31 00
        E 32 91 23 60
        E 2 91 23 60
        E 0 91 30 60
        E 144 81 23 00
        E 141 81 23 00
        E 675 91 26 60
        E 1 91 25 60
        E 145 81 25 00
        E 97 81 26 00
        E 236 91 36 60
        E 145 81 36 00
        E 165 81 30 00
        E 171 91 27 60
        E 0 91 21 60
        E 2 91 30 60
        E 140 81 27 00
        E 140 81 21 00
        E 676 91 25 60
        E 0 91 2a 60
        E 144 81 2a 00
        E 101 81 25 00
        E 236 91 31 60
        E 145 81 31 00
        E 312 81 30 00
        E 22 91 36 60
        E 2 91 26 60
        E 0 91 28 60
        E 144 81 28 00
        E 147 81 26 00
        E 668 91 21 60
        E 1 91 27 60
        E 144 81 27 00
        E 95 81 21 00
        E 239 91 31 60
        E 145 81 31 00
        E 166 81 36 00
        E 170 91 31 60
        E 1 91 22 60
        E 1 91 26 60
        E 144 81 22 00
        E 142 81 26 00
        E 193 91 37 60
        E 143 81 37 00
        E 335 91 25 60
        E 3 91 29 60
        E 144 81 29 00
        E 92 81 25 00
        E 241 91 39 60
        E 145 81 39 00
        E 328 81 31 00
        E 8 91 2a 60
        E 0 91 25 60
        E 1 91 32 60
        E 143 81 2a 00
        E 150 81 25 00
        E 186 91 38 60
        E 144 81 38 00
        E 337 91 23 60
        E 0 91 25 60
        E 142 81 23 00
        E 91 81 25 00
        E 526 81 32 00
        E 200 91 28 60
        E 0 91 22 60
        E 0 91 33 60
        E 146 81 28 00
        E 145 81 22 00
        E 670 91 26 60
        E 0 91 2a 60
        E 146 81 2a 00
        E 97 81 26 00
        E 236 91 38 24
        E 145 81 38 00
        E 327 81 33 00
        E 7 91 26 60
        E 1 91 26 60
        E 1 91 33 60
        E 140 81 26 00
        E 142 81 26 00
        E 678 91 25 60
        E 1 91 24 60
        E 146 81 24 00
        E 93 81 25 00
        E 529 81 33 00
        E 190 91 21 60
        E 1 91 30 60
        E 0 91 25 60
        E 146 81 25 00
        E 135 81 21 00
        E 677 91 24 60
        E 1 91 24 60
        E 144 81 24 00
        E 90 81 24 00
        E 683 81 30 00
        E 43 91 26 60
        E 0 91 33 60
        E 1 91 25 60
        E 142 81 25 00
        E 150 81 26 00
        E 666 91 36 60
        E 1 91 24 60
        E 1 91 25 60
        E 143 81 36 00
        E 1 81 25 00
        E 96 81 24 00
        E 535 81 33 00
        E 184 91 21 60
        E 1 91 27 60
        E 1 91 32 60
        E 144 81 27 00
        E 142 81 21 00
        E 672 91 28 60
        E 1 91 25 60
        E 143 81 28 00
        E 96 81 25 00
        E 720 91 2a 60
        E 0 91 2f 60
        E 0 91 26 60
        E 40 81 32 00
        E 103 81 2a 00
        E 147 81 26 00
        E 191 91 39 60
        E 145 81 39 00
        E 335 91 24 1a
        E 2 91 29 60
        E 144 81 29 00
        E 95 81 24 00
        E 510 81 2f 00
        E 207 91 24 60
        E 2 91 39 60
        E 0 91 39 60
        E 1 91 28 60
        E 145 81 39 00
        E 2 81 28 00
        E 135 81 24 00
        E 674 91 28 60
        E 2 91 24 18
        E 143 81 28 00
        E 95 81 24 00
        E 243 91 38 2b
        E 144 81 38 00
        E 335 91 37 24
        E 1 91 39 27
        E 0 91 2a 24
        E 1 91 25 60
        E 32 81 39 00
        E 110 81 2a 00
        E 2 81 39 00
        E 147 81 25 00
        E 188 91 39 29
        E 144 81 39 00
        E 335 91 39 60
        E 0 91 1f 60
        E 2 91 24 0f
        E 143 81 39 00
        E 0 81 24 00
        E 97 81 1f 00
        E 501 81 37 00
        E 217 91 24 29
        E 0 91 36 60
        E 1 91 24 29
        E 0 91 32 60
        E 143 81 24 00
        E 1 81 36 00
        E 138 81 24 00
        E 678 91 2a 31
        E 0 91 39 60
        E 0 91 1f 1a
        E 144 81 39 00
        E 2 81 2a 00
        E 92 81 1f 00
        E 242 91 38 60
        E 145 81 38 00
        E 306 81 32 00
        E 27 91 27 60
        E 1 91 22 60
        E 1 91 39 60
        E 0 91 30 60
        E 141 81 27 00
        E 3 81 39 00
        E 143 81 22 00
        E 672 91 25 60
        E 0 91 38 60
        E 2 91 29 60
        E 142 81 38 00
        E 2 81 29 00
        E 92 81 25 00
        E 537 81 30 00
        E 184 91 38 60
        E 0 91 27 60
        E 3 91 1d 0f
        E 142 81 27 00
        E 145 81 1d 00
        E 672 91 24 20
        E 0 91 27 60
        E 143 81 27 00
        E 95 81 24 00
        E 721 91 2a 60
        E 1 91 31 60
        E 0 91 25 60
        E 1 91 33 60
        E 15 81 38 00
        E 127 81 2a 00
        E 1 81 33 00
        E 141 81 25 00
        E 674 91 33 60
        E 0 91 25 60
        E 2 91 26 60
        E 138 81 33 00
        E 7 81 26 00
        E 91 81 25 00
        E 244 91 35 60
        E 146 81 35 00
        E 166 81 31 00
        E 30885 91 32 60
        E 2 91 1a 60
        E 1 91 26 60
        E 140 81 26 00
        E 150 81 1a 00
        E 190 91 33 60
        E 144 81 33 00
        E 334 91 25 60
        E 0 91 37 60
        E 1 91 26 60
        E 142 81 37 00
        E 1 81 25 00
        E 94 81 26 00
        E 722 91 31 60
        E 1 91 27 60
        E 0 91 23 24
        E 15 81 32 00
        E 129 81 27 00
        E 151 81 23 00
        E 185 91 36 60
        E 146 81 36 00
        E 333 91 38 60
        E 1 91 23 60
        E 1 91 25 60
        E 141 81 23 00
        E 2 81 38 00
        E 91 81 25 00
        E 522 81 31 00
        E 203 91 25 60
        E 1 91 21 60
        E 0 91 32 60
        E 147 81 25 00
        E 143 81 21 00
        E 666 91 27 60
        E 1 91 36 60
        E 1 91 26 60
        E 144 81 36 00
        E 2 81 26 00
        E 89 81 27 00
        E 725 91 33 60
        E 1 91 24 60
        E 1 91 26 60
        E 0 91 38 60
        E 6 81 32 00
        E 135 81 33 00
        E 5 81 24 00
        E 149 81 26 00
        E 664 91 34 60
        E 0 91 24 60
        E 1 91 28 60
        E 146 81 34 00
        E 1 81 28 00
        E 90 81 24 00
        E 241 91 32 60
        E 145 81 32 00
        E 165 81 38 00
        E 167 91 25 60
        E 2 91 37 60
        E 2 91 23 60
        E 1 91 33 60
        E 136 81 25 00
        E 10 81 37 00
        E 137 81 23 00
        E 676 91 24 60
        E 1 91 24 60
        E 141 81 24 00
        E 98 81 24 00
        E 683 81 33 00
        E 35 91 25 60
        E 2 91 33 60
        E 1 91 24 60
        E 139 81 25 00
        E 153 81 24 00
        E 667 91 25 60
        E 0 91 25 60
        E 142 81 25 00
        E 98 81 25 00
        E 518 81 33 00
        E 202 91 24 60
        E 0 91 32 60
        E 1 91 23 60
        E 143 81 23 00
        E 148 81 24 00
        E 667 91 2b 60
        E 4 91 21 60
        E 142 81 2b 00
        E 94 81 21 00
        E 708 81 32 00
        E 11 91 24 60
        E 3 91 21 60
        E 0 91 31 60
        E 141 81 24 00
        E 146 81 21 00
        E 671 91 24 60
        E 1 91 31 60
        E 1 91 26 60
        E 144 81 31 00
        E 3 81 26 00
        E 88 81 24 00
        E 496 81 31 00
        E 228 91 26 60
        E 0 91 25 60
        E 0 91 3d 60
        E 2 91 32 60
        E 141 81 25 00
        E 5 81 32 00
        E 137 81 26 00
        E 675 91 2a 60
        E 1 91 24 60
        E 146 81 2a 00
        E 94 81 24 00
        E 238 91 34 60
        E 147 81 34 00
        E 332 91 23 60
        E 1 91 23 60
        E 2 91 30 60
        E 23 81 3d 00
        E 115 81 23 00
        E 150 81 23 00
        E 670 91 25 60
        E 0 91 27 60
        E 1 91 38 60
        E 144 81 38 00
        E 1 81 27 00
        E 88 81 25 00
        E 527 81 30 00
        E 199 91 2d 60
        E 0 91 28 60
        E 1 91 27 60
        E 0 91 37 60
        E 141 81 28 00
        E 2 81 37 00
        E 142 81 27 00
        E 195 91 3a 60
        E 144 81 3a 00
        E 335 91 26 60
        E 2 91 23 60
        E 146 81 23 00
        E 94 81 26 00
        E 710 81 2d 00
        E 8 91 27 60
        E 0 91 32 60
        E 1 91 28 60
        E 1 91 33 60
        E 141 81 27 00
        E 7 81 33 00
        E 137 81 28 00
        E 674 91 37 60
        E 0 91 26 60
        E 0 91 26 60
        E 141 81 26 00
        E 2 81 37 00
        E 99 81 26 00
        E 517 81 32 00
        E 200 91 1e 60
        E 0 91 2c 60
        E 0 91 24 20
        E 143 81 24 00
        E 148 81 1e 00
        E 668 91 28 60
        E 2 91 24 60
        E 2 91 37 60
        E 139 81 28 00
        E 6 81 37 00
        E 89 81 24 00
        E 243 91 33 60
        E 146 81 33 00
        E 333 91 20 60
        E 0 91 26 60
        E 1 91 31 60
        E 1 91 32 60
        E 14 81 2c 00
        E 131 81 26 00
        E 0 81 31 00
        E 140 81 20 00
        E 673 91 27 60
        E 1 91 25 60
        E 1 91 38 60
        E 142 81 27 00
        E 4 81 38 00
        E 94 81 25 00
        E 529 81 32 00
        E 191 91 30 60
        E 0 91 23 60
        E 0 91 24 60
        E 1 91 32 60
        E 144 81 30 00
        E 0 81 24 00
        E 149 81 23 00
        E 665 91 1a 60
        E 1 91 24 60
        E 145 81 1a 00
        E 93 81 24 00
        E 705 81 32 00
        E 16 91 33 60
        E 1 91 24 1a
        E 0 91 30 60
        E 1 91 29 60
        E 141 81 33 00
        E 5 81 24 00
        E 141 81 29 00
        E 673 91 26 60
        E 0 91 26 60
        E 148 81 26 00
        E 98 81 26 00
        E 233 91 36 60
        E 141 81 36 00
        E 161 81 30 00
        E 0 b1 7b 00
        E 1 ff 2f 00
      >
    >
  >
  <TRACK
    NAME "bass_808"
    PEAKCOL 4286528191
    VOLPAN 1.000000 0 1 -1
    MIDIOUT -1
    ISBUS 0 0
    <ITEM
      POSITION 7.385914
      LENGTH 51.744206
      NAME "bass_808"
      VOLPAN 1 0 1 -1
      <SOURCE MIDI
        HASDATA 1 960 QN
        E 0 c2 26 00
        E 15363 92 19 60
        E 1441 92 25 60
        E 4 82 19 00
        E 475 82 25 00
        E 479 92 25 60
        E 959 92 24 60
        E 2 82 25 00
        E 236 82 24 00
        E 4 92 24 60
        E 50 82 24 00
        E 7 92 24 60
        E 51 82 24 00
        E 13 92 26 60
        E 50 82 26 00
        E 9 92 2e 22
        E 50 82 2e 00
        E 7 92 26 60
        E 1419 82 26 00
        E 21 92 28 60
        E 485 82 28 00
        E 478 92 2c 60
        E 956 92 24 60
        E 18 82 2c 00
        E 221 82 24 00
        E 7 92 2d 20
        E 50 82 2d 00
        E 11 92 28 18
        E 51 82 28 00
        E 2 92 27 13
        E 50 82 27 00
        E 14 92 24 20
        E 50 82 24 00
        E 13 92 26 60
        E 1426 82 26 00
        E 10 92 26 60
        E 479 82 26 00
        E 482 92 1b 20
        E 958 92 25 60
        E 6 82 1b 00
        E 233 92 25 60
        E 1 82 25 00
        E 48 82 25 00
        E 15 92 29 60
        E 49 82 29 00
        E 8 92 24 27
        E 50 82 24 00
        E 6 92 2c 60
        E 51 82 2c 00
        E 11 92 26 60
        E 1424 82 26 00
        E 15 92 25 60
        E 490 82 25 00
        E 470 92 24 60
        E 944 82 24 00
        E 22 92 30 60
        E 238 92 2b 60
        E 1 82 30 00
        E 49 82 2b 00
        E 9 92 2a 60
        E 50 82 2a 00
        E 8 92 24 15
        E 50 82 24 00
        E 12 92 26 1e
        E 51 82 26 00
        E 9 92 25 60
        E 1203 92 27 60
        E 8 82 25 00
        E 42 82 27 00
        E 9 92 28 60
        E 51 82 28 00
        E 8 92 26 60
        E 50 82 26 00
        E 12 92 26 60
        E 51 82 26 00
        E 9 92 26 60
        E 716 82 26 00
        E 242 92 2d 60
        E 954 82 2d 00
        E 8 92 2c 60
        E 235 92 2c 60
        E 5 82 2c 00
        E 46 82 2c 00
        E 13 92 2c 60
        E 50 82 2c 00
        E 9 92 28 0f
        E 51 82 28 00
        E 8 92 26 0d
        E 50 82 26 00
        E 12 92 15 60
        E 1440 92 25 60
        E 12 82 15 00
        E 465 82 25 00
        E 479 92 26 60
        E 960 92 25 60
        E 3 82 26 00
        E 230 82 25 00
        E 11 92 26 60
        E 51 82 26 00
        E 11 92 26 60
        E 49 82 26 00
        E 3 92 24 1c
        E 50 82 24 00
        E 19 92 24 1c
        E 50 82 24 00
        E 9 92 19 60
        E 1434 92 25 60
        E 13 82 19 00
        E 462 82 25 00
        E 483 92 24 60
        E 718 82 24 00
        E 6 92 2b 60
        E 51 82 2b 00
        E 8 92 26 60
        E 51 82 26 00
        E 6 92 21 60
        E 51 82 21 00
        E 13 92 25 60
        E 51 82 25 00
        E 11 92 27 60
        E 238 92 26 24
        E 3 82 27 00
        E 47 82 26 00
        E 13 92 29 1e
        E 51 82 29 00
        E 5 92 24 18
        E 51 82 24 00
        E 11 92 24 18
        E 50 82 24 00
        E 10 92 24 60
        E 1422 82 24 00
        E 15 92 25 60
        E 482 82 25 00
        E 479 92 27 60
        E 966 92 25 0d
        E 3 82 27 00
        E 377 82 25 00
        E 46183 92 25 60
        E 1436 92 25 60
        E 6 82 25 00
        E 472 82 25 00
        E 480 92 26 60
        E 956 92 24 60
        E 7 82 26 00
        E 233 92 27 60
        E 1 82 24 00
        E 48 82 27 00
        E 17 92 28 60
        E 50 82 28 00
        E 8 92 24 1c
        E 50 82 24 00
        E 9 92 2b 29
        E 51 82 2b 00
        E 10 92 25 60
        E 1434 92 25 60
        E 3 82 25 00
        E 472 82 25 00
        E 487 92 20 60
        E 718 82 20 00
        E 6 92 25 60
        E 51 82 25 00
        E 12 92 26 60
        E 50 82 26 00
        E 7 92 26 60
        E 51 82 26 00
        E 3 92 2b 22
        E 51 82 2b 00
        E 17 92 2b 60
        E 231 92 2c 40
        E 10 82 2b 00
        E 40 82 2c 00
        E 14 92 2a 1e
        E 52 82 2a 00
        E 14 92 26 1e
        E 50 82 26 00
        E 7 92 24 24
        E 51 82 24 00
        E 8 92 21 60
        E 1416 82 21 00
        E 27 92 25 60
        E 473 82 25 00
        E 484 92 2c 60
        E 708 82 2c 00
        E 8 92 31 60
        E 50 82 31 00
        E 15 92 26 60
        E 51 82 26 00
        E 7 92 27 60
        E 51 82 27 00
        E 9 92 26 60
        E 51 82 26 00
        E 9 92 20 60
        E 241 82 20 00
        E 0 92 25 60
        E 52 82 25 00
        E 10 92 27 13
        E 50 82 27 00
        E 6 92 22 18
        E 50 82 22 00
        E 16 92 31 60
        E 51 82 31 00
        E 4 92 27 60
        E 1424 82 27 00
        E 12 92 2b 60
        E 479 82 2b 00
        E 479 92 24 60
        E 962 82 24 00
        E 1 92 2a 60
        E 238 82 2a 00
        E 7 92 2c 60
        E 50 82 2c 00
        E 9 92 2c 27
        E 51 82 2c 00
        E 5 92 25 22
        E 50 82 25 00
        E 9 92 25 24
        E 51 82 25 00
        E 12 92 26 60
        E 1203 92 25 60
        E 25 82 26 00
        E 25 82 25 00
        E 4 92 2a 60
        E 49 82 2a 00
        E 11 92 2d 60
        E 51 82 2d 00
        E 17 92 2d 60
        E 51 82 2d 00
        E 6 92 2b 60
        E 736 82 2b 00
        E 223 92 2c 60
        E 964 92 2b 60
        E 3 82 2c 00
        E 234 92 2b 60
        E 6 82 2b 00
        E 44 82 2b 00
        E 7 92 2a 60
        E 50 82 2a 00
        E 10 92 25 60
        E 50 82 25 00
        E 8 92 26 60
        E 50 82 26 00
        E 13 92 21 60
        E 1434 82 21 00
        E 8 92 20 60
        E 476 82 20 00
        E 477 92 20 60
        E 965 92 25 60
        E 12 82 20 00
        E 225 82 25 00
        E 4 92 26 3c
        E 50 82 26 00
        E 5 92 27 27
        E 50 82 27 00
        E 18 92 24 18
        E 52 82 24 00
        E 4 92 24 15
        E 50 82 24 00
        E 15 92 26 60
        E 1437 92 19 0d
        E 10 82 26 00
        E 462 82 19 00
        E 482 92 26 60
        E 956 82 26 00
        E 6 92 25 60
        E 240 82 25 00
        E 5 92 25 1a
        E 51 82 25 00
        E 8 92 22 60
        E 51 82 22 00
        E 12 92 27 60
        E 50 82 27 00
        E 7 92 2c 60
        E 51 82 2c 00
        E 11 92 25 60
        E 1411 82 25 00
        E 24 92 26 60
        E 482 82 26 00
        E 477 92 27 60
        E 962 92 24 60
        E 7 82 27 00
        E 376 82 24 00
        E 0 b2 7b 00
        E 1 ff 2f 00
      >
    >
  >
  <TRACK
    NAME "trap_drums"
    PEAKCOL 4290722362
    VOLPAN 1.000000 0 1 -1
    MIDIOUT -1
    ISBUS 0 0
    <ITEM
      POSITION 7.384539
      LENGTH 51.576410
      NAME "trap_drums"
      VOLPAN 1 0 1 -1
      <SOURCE MIDI
        HASDATA 1 960 QN
        E 0 c9 00 00
        E 15360 99 2b 60
        E 1 99 3e 7c
        E 114 89 2b 00
        E 365 99 2a 60
        E 117 89 2a 00
        E 124 99 25 60
        E 58 89 25 00
        E 1 99 26 60
        E 58 89 26 00
        E 2 99 25 60
        E 57 89 25 00
        E 63 99 25 67
        E 1 99 26 60
        E 286 89 25 00
        E 2 89 26 00
        E 191 99 2d 60
        E 243 89 2d 00
        E 206 89 3e 00
        E 31 99 2a 63
        E 0 99 3d 7b
        E 115 89 2a 00
        E 366 99 2a 60
        E 116 89 2a 00
        E 123 99 25 60
        E 58 89 25 00
        E 1 99 26 60
        E 58 89 26 00
        E 3 99 25 60
        E 58 89 25 00
        E 62 99 27 74
        E 0 99 25 60
        E 286 89 25 00
        E 4 89 27 00
        E 178 89 3d 00
        E 12 99 2a 60
        E 115 89 2a 00
        E 125 99 26 60
        E 78 89 26 00
        E 161 99 25 69
        E 1 99 2a 60
        E 20 99 38 60
        E 56 89 2a 00
        E 20 99 2a 60
        E 76 89 2a 00
        E 20 99 2a 60
        E 77 89 2a 00
        E 13 89 25 00
        E 6 99 2a 60
        E 77 89 2a 00
        E 19 99 2b 60
        E 76 89 2b 00
        E 20 99 2a 63
        E 115 89 2a 00
        E 125 99 26 60
        E 77 89 26 00
        E 163 99 26 75
        E 0 99 24 60
        E 60 99 27 60
        E 48 89 27 00
        E 12 99 27 60
        E 48 89 27 00
        E 12 99 2a 72
        E 48 89 2a 00
        E 59 89 26 00
        E 2 89 24 00
        E 191 99 2a 60
        E 114 89 2a 00
        E 350 89 38 00
        E 16 99 2d 60
        E 0 99 24 60
        E 19 99 39 60
        E 223 89 2d 00
        E 47 89 24 00
        E 191 99 2a 60
        E 115 89 2a 00
        E 365 99 27 60
        E 0 99 26 79
        E 119 99 2a 60
        E 97 89 2a 00
        E 24 99 2a 60
        E 44 89 26 00
        E 3 89 27 00
        E 50 89 2a 00
        E 23 99 2a 60
        E 96 89 2a 00
        E 6 89 39 00
        E 17 99 2a 60
        E 114 89 2a 00
        E 366 99 25 60
        E 0 99 2e 60
        E 20 99 3d 60
        E 221 89 2e 00
        E 50 89 25 00
        E 190 99 2a 60
        E 114 89 2a 00
        E 126 99 25 60
        E 79 89 25 00
        E 161 99 25 60
        E 0 99 26 60
        E 285 89 25 00
        E 2 89 26 00
        E 194 99 2a 60
        E 115 89 2a 00
        E 364 89 3d 00
        E 0 99 2a 60
        E 0 99 25 6f
        E 20 99 3d 7d
        E 96 89 2a 00
        E 169 89 25 00
        E 195 99 2a 60
        E 48 89 2a 00
        E 12 99 2a 60
        E 48 89 2a 00
        E 12 99 2a 60
        E 49 89 2a 00
        E 12 99 2a 69
        E 48 89 2a 00
        E 11 99 25 60
        E 78 89 25 00
        E 162 99 25 60
        E 0 99 27 72
        E 289 89 25 00
        E 0 89 27 00
        E 191 99 2e 60
        E 14 89 3d 00
        E 224 89 2e 00
        E 242 99 25 60
        E 0 99 2a 60
        E 19 99 38 60
        E 29 89 2a 00
        E 12 99 2a 60
        E 48 89 2a 00
        E 12 99 2a 60
        E 48 89 2a 00
        E 12 99 2a 60
        E 48 89 2a 00
        E 65 89 25 00
        E 188 99 2a 60
        E 78 89 2a 00
        E 17 99 2a 60
        E 77 89 2a 00
        E 19 99 2a 69
        E 76 89 2a 00
        E 20 99 2b 60
        E 78 89 2b 00
        E 18 99 2a 60
        E 77 89 2a 00
        E 19 99 27 7a
        E 0 99 26 7c
        E 286 89 26 00
        E 2 89 27 00
        E 193 99 2b 60
        E 116 89 2b 00
        E 123 99 24 60
        E 58 89 24 00
        E 2 99 24 60
        E 58 89 24 00
        E 121 99 24 6d
        E 1 99 2b 60
        E 19 99 37 60
        E 11 89 38 00
        E 86 89 2b 00
        E 124 99 25 60
        E 47 89 24 00
        E 29 89 25 00
        E 164 99 2a 60
        E 115 89 2a 00
        E 125 99 25 60
        E 78 89 25 00
        E 162 99 26 74
        E 0 99 27 60
        E 80 99 2a 60
        E 64 89 2a 00
        E 16 99 2a 60
        E 64 89 2a 00
        E 64 89 26 00
        E 0 89 27 00
        E 192 99 2e 60
        E 11 89 37 00
        E 229 99 26 60
        E 1 89 2e 00
        E 76 89 26 00
        E 163 99 2a 60
        E 0 99 25 60
        E 18 99 39 60
        E 59 89 2a 00
        E 18 99 2a 60
        E 76 89 2a 00
        E 21 99 2a 60
        E 77 89 2a 00
        E 17 89 25 00
        E 1 99 2a 60
        E 76 89 2a 00
        E 21 99 2d 60
        E 76 89 2d 00
        E 20 99 2a 60
        E 115 89 2a 00
        E 125 99 26 65
        E 76 89 26 00
        E 164 99 26 65
        E 1 99 26 65
        E 289 89 26 00
        E 1 89 26 00
        E 188 99 27 60
        E 116 89 27 00
        E 364 99 25 60
        E 1 99 2b 60
        E 19 99 39 60
        E 3 89 39 00
        E 75 89 2b 00
        E 22 99 2a 60
        E 96 89 2a 00
        E 25 99 2a 60
        E 50 89 25 00
        E 47 89 2a 00
        E 23 99 2b 60
        E 97 89 2b 00
        E 23 99 2b 60
        E 117 89 2b 00
        E 363 99 25 60
        E 0 99 26 75
        E 69 99 2b 60
        E 55 89 2b 00
        E 13 99 2a 60
        E 56 89 2a 00
        E 13 99 2a 60
        E 55 89 2a 00
        E 13 99 2a 60
        E 8 89 25 00
        E 6 89 26 00
        E 40 89 2a 00
        E 15 99 2a 60
        E 55 89 2a 00
        E 13 99 2a 60
        E 56 89 2a 00
        E 13 89 39 00
        E 0 99 2a 60
        E 115 89 2a 00
        E 365 99 25 63
        E 0 99 29 60
        E 19 99 3f 7d
        E 58 89 29 00
        E 19 99 2a 60
        E 78 89 2a 00
        E 18 99 2a 60
        E 76 89 2a 00
        E 17 89 25 00
        E 4 99 2a 60
        E 76 89 2a 00
        E 19 99 2a 60
        E 76 89 2a 00
        E 20 99 2a 60
        E 116 89 2a 00
        E 364 99 26 74
        E 0 99 27 6f
        E 286 89 26 00
        E 1 89 27 00
        E 193 99 2a 60
        E 48 89 2a 00
        E 12 99 2a 69
        E 48 89 2a 00
        E 12 99 2a 60
        E 48 89 2a 00
        E 11 99 2a 60
        E 48 89 2a 00
        E 253 99 24 60
        E 0 99 29 60
        E 5 89 3f 00
        E 14 99 3f 7d
        E 45 89 29 00
        E 16 99 29 60
        E 64 89 29 00
        E 17 99 2a 60
        E 64 89 2a 00
        E 60 89 24 00
        E 195 99 2a 60
        E 97 89 2a 00
        E 23 99 2a 60
        E 96 89 2a 00
        E 24 99 25 60
        E 1 99 2a 60
        E 76 89 25 00
        E 20 89 2a 00
        E 24 99 2a 60
        E 95 89 2a 00
        E 24 99 27 65
        E 1 99 26 60
        E 290 89 27 00
        E 2 89 26 00
        E 174 89 3f 00
        E 13 99 2a 60
        E 114 89 2a 00
        E 366 99 2a 60
        E 1 99 25 60
        E 18 99 3d 4b
        E 95 89 2a 00
        E 177 89 25 00
        E 189 99 2a 60
        E 116 89 2a 00
        E 364 99 26 60
        E 0 99 27 60
        E 59 99 2a 60
        E 48 89 2a 00
        E 13 99 29 60
        E 48 89 29 00
        E 12 99 29 60
        E 48 89 29 00
        E 59 89 27 00
        E 1 89 26 00
        E 192 99 2a 60
        E 95 89 2a 00
        E 25 99 29 60
        E 96 89 29 00
        E 24 99 2a 60
        E 95 89 2a 00
        E 25 99 2a 60
        E 96 89 2a 00
        E 24 99 26 60
        E 0 99 29 60
        E 19 99 3d 6f
        E 6 89 3d 00
        E 72 89 29 00
        E 23 99 29 60
        E 95 89 29 00
        E 24 99 2a 60
        E 1 99 25 60
        E 50 89 26 00
        E 27 89 25 00
        E 18 89 2a 00
        E 25 99 2b 60
        E 96 89 2b 00
        E 24 99 2e 60
        E 238 89 2e 00
        E 242 99 26 7d
        E 0 99 25 60
        E 287 89 26 00
        E 3 89 25 00
        E 183 89 3d 00
        E 6 99 2a 72
        E 116 89 2a 00
        E 364 99 2d 60
        E 1 99 24 60
        E 19 99 34 60
        E 221 89 2d 00
        E 46 89 24 00
        E 194 99 2c 60
        E 55 89 2c 00
        E 13 99 2b 60
        E 55 89 2b 00
        E 14 99 29 60
        E 55 89 29 00
        E 14 99 2d 60
        E 34 99 25 60
        E 21 89 2d 00
        E 13 99 2b 60
        E 23 89 25 00
        E 3 99 24 60
        E 28 89 2b 00
        E 14 99 28 60
        E 15 89 24 00
        E 3 99 24 60
        E 36 89 28 00
        E 15 99 29 60
        E 6 89 24 00
        E 48 89 29 00
        E 15 99 26 60
        E 0 99 26 6d
        E 286 89 26 00
        E 2 89 26 00
        E 193 99 29 60
        E 115 89 29 00
        E 124 99 25 60
        E 57 89 25 00
        E 3 99 25 60
        E 57 89 25 00
        E 3 99 26 60
        E 57 89 26 00
        E 63 99 34 60
        E 239 89 34 00
        E 80 99 35 60
        E 241 89 35 00
        E 79 99 34 60
        E 244 89 34 00
        E 574 89 34 00
        E 46543 99 3d 60
        E 0 99 27 60
        E 76 89 27 00
        E 20 99 2b 60
        E 76 89 2b 00
        E 20 99 2b 60
        E 77 89 2b 00
        E 19 99 2c 60
        E 77 89 2c 00
        E 18 99 2c 60
        E 76 89 2c 00
        E 20 99 2b 60
        E 116 89 2b 00
        E 365 99 26 6d
        E 1 99 26 6d
        E 283 89 26 00
        E 3 89 26 00
        E 193 99 2d 60
        E 239 89 2d 00
        E 241 99 2a 69
        E 0 99 3d 78
        E 18 89 3d 00
        E 98 89 2a 00
        E 365 99 28 60
        E 114 89 28 00
        E 125 99 25 60
        E 76 89 25 00
        E 164 99 26 72
        E 0 99 26 72
        E 286 89 26 00
        E 3 89 26 00
        E 191 99 2a 60
        E 5 89 3d 00
        E 110 89 2a 00
        E 124 99 25 60
        E 77 89 25 00
        E 164 99 24 60
        E 0 99 2c 60
        E 19 99 39 60
        E 36 89 2c 00
        E 14 99 2a 60
        E 54 89 2a 00
        E 14 99 2a 60
        E 55 89 2a 00
        E 14 99 2a 60
        E 55 89 2a 00
        E 14 99 2a 60
        E 8 89 24 00
        E 47 89 2a 00
        E 13 99 2b 60
        E 54 89 2b 00
        E 14 99 2b 60
        E 55 89 2b 00
        E 13 99 2b 60
        E 115 89 2b 00
        E 366 99 27 60
        E 0 99 26 60
        E 287 89 26 00
        E 1 89 27 00
        E 192 99 27 60
        E 115 89 27 00
        E 365 99 24 60
        E 0 99 2a 60
        E 19 99 38 60
        E 1 89 39 00
        E 77 89 2a 00
        E 22 99 2a 60
        E 95 89 2a 00
        E 26 99 2a 60
        E 49 89 24 00
        E 48 89 2a 00
        E 23 99 2a 4b
        E 97 89 2a 00
        E 23 99 2b 60
        E 114 89 2b 00
        E 126 99 24 60
        E 76 89 24 00
        E 164 99 25 60
        E 0 99 24 60
        E 286 89 25 00
        E 5 89 24 00
        E 189 99 29 60
        E 2 89 38 00
        E 114 89 29 00
        E 364 99 2c 60
        E 0 99 24 72
        E 19 99 3d 5c
        E 96 89 2c 00
        E 175 89 24 00
        E 190 99 2b 60
        E 116 89 2b 00
        E 364 99 27 72
        E 0 99 26 6b
        E 96 99 27 60
        E 76 89 27 00
        E 20 99 26 60
        E 76 89 26 00
        E 18 89 27 00
        E 2 99 2c 60
        E 4 89 26 00
        E 72 89 2c 00
        E 21 99 2c 60
        E 76 89 2c 00
        E 20 99 2b 60
        E 115 89 2b 00
        E 364 99 2c 60
        E 0 99 24 6b
        E 2 89 3d 00
        E 17 99 3e 72
        E 96 89 2c 00
        E 175 89 24 00
        E 190 99 2b 60
        E 96 89 2b 00
        E 24 99 2a 60
        E 95 89 2a 00
        E 25 99 2a 60
        E 96 89 2a 00
        E 24 99 2a 60
        E 97 89 2a 00
        E 23 99 27 65
        E 0 99 25 60
        E 121 99 2a 60
        E 97 89 2a 00
        E 22 99 2a 60
        E 49 89 27 00
        E 3 89 25 00
        E 43 89 2a 00
        E 25 99 2a 60
        E 96 89 2a 00
        E 24 99 2a 60
        E 5 89 3e 00
        E 110 89 2a 00
        E 364 99 25 60
        E 1 99 2d 60
        E 19 99 38 60
        E 221 89 2d 00
        E 47 89 25 00
        E 193 99 2a 60
        E 115 89 2a 00
        E 365 99 26 7a
        E 0 99 27 7b
        E 286 89 27 00
        E 4 89 26 00
        E 190 99 2a 60
        E 115 89 2a 00
        E 365 99 25 60
        E 0 99 2a 60
        E 5 89 38 00
        E 14 99 39 60
        E 29 89 2a 00
        E 12 99 29 60
        E 48 89 29 00
        E 13 99 2a 60
        E 48 89 2a 00
        E 11 99 2a 60
        E 48 89 2a 00
        E 57 89 25 00
        E 196 99 2a 60
        E 115 89 2a 00
        E 364 99 25 60
        E 0 99 25 60
        E 287 89 25 00
        E 5 89 25 00
        E 181 89 39 00
        E 7 99 25 60
        E 116 89 25 00
        E 364 99 24 60
        E 0 99 2c 60
        E 19 99 39 60
        E 57 89 2c 00
        E 20 99 2b 60
        E 76 89 2b 00
        E 20 99 2a 60
        E 76 89 2a 00
        E 20 89 24 00
        E 0 99 2a 60
        E 77 89 2a 00
        E 19 99 2a 60
        E 77 89 2a 00
        E 19 99 2b 60
        E 96 89 2b 00
        E 24 99 2a 60
        E 95 89 2a 00
        E 25 99 2a 60
        E 95 89 2a 00
        E 24 99 2a 60
        E 96 89 2a 00
        E 25 99 26 6f
        E 0 99 27 60
        E 120 99 2a 60
        E 98 89 2a 00
        E 22 99 2a 60
        E 48 89 27 00
        E 1 89 26 00
        E 47 89 2a 00
        E 24 99 2a 60
        E 95 89 2a 00
        E 25 99 2a 63
        E 115 89 2a 00
        E 125 99 25 60
        E 76 89 25 00
        E 157 89 39 00
        E 7 99 24 60
        E 1 99 26 60
        E 18 99 39 60
        E 45 89 26 00
        E 15 99 2c 60
        E 64 89 2c 00
        E 17 99 2e 60
        E 64 89 2e 00
        E 16 99 24 60
        E 50 89 24 00
        E 27 89 24 00
        E 163 99 2b 63
        E 114 89 2b 00
        E 366 99 26 65
        E 0 99 25 69
        E 120 99 2b 60
        E 94 89 2b 00
        E 26 99 2c 60
        E 44 89 25 00
        E 3 89 26 00
        E 49 89 2c 00
        E 25 99 2e 67
        E 96 89 2e 00
        E 14 89 39 00
        E 9 99 2d 60
        E 241 89 2d 00
        E 239 99 2a 60
        E 0 99 24 77
        E 19 99 3f 7d
        E 97 89 2a 00
        E 173 89 24 00
        E 191 99 2e 60
        E 239 89 2e 00
        E 1 99 26 60
        E 78 89 26 00
        E 161 99 26 79
        E 1 99 25 60
        E 282 89 25 00
        E 2 89 26 00
        E 196 99 2a 60
        E 114 89 2a 00
        E 125 99 25 60
        E 77 89 25 00
        E 147 89 3f 00
        E 17 99 2a 60
        E 0 99 24 6b
        E 19 99 3e 5c
        E 97 89 2a 00
        E 124 99 24 60
        E 46 89 24 00
        E 12 89 24 00
        E 2 99 26 63
        E 57 89 26 00
        E 123 99 29 60
        E 118 89 29 00
        E 122 99 25 60
        E 57 89 25 00
        E 3 99 26 60
        E 57 89 26 00
        E 3 99 25 60
        E 57 89 25 00
        E 63 99 27 60
        E 0 99 26 60
        E 287 89 26 00
        E 5 89 27 00
        E 187 99 2a 60
        E 5 89 3e 00
        E 112 89 2a 00
        E 364 99 2a 60
        E 0 99 24 60
        E 19 99 3d 5a
        E 96 89 2a 00
        E 174 89 24 00
        E 191 99 2a 60
        E 113 89 2a 00
        E 367 99 26 60
        E 0 99 26 60
        E 285 89 26 00
        E 4 89 26 00
        E 191 99 2a 69
        E 114 89 2a 00
        E 366 99 25 60
        E 0 99 2a 60
        E 17 89 3d 00
        E 2 99 3e 78
        E 45 89 2a 00
        E 17 99 2a 63
        E 64 89 2a 00
        E 15 99 2a 60
        E 65 89 2a 00
        E 62 89 25 00
        E 194 99 2c 60
        E 116 89 2c 00
        E 363 99 26 6f
        E 0 99 25 69
        E 96 99 2a 60
        E 76 89 2a 00
        E 20 99 2a 63
        E 76 89 2a 00
        E 16 89 25 00
        E 1 89 26 00
        E 3 99 2a 60
        E 76 89 2a 00
        E 20 99 2a 60
        E 77 89 2a 00
        E 19 99 2a 60
        E 5 89 3e 00
        E 109 89 2a 00
        E 126 99 25 60
        E 77 89 25 00
        E 163 99 2a 60
        E 0 99 24 60
        E 20 99 31 60
        E 96 89 2a 00
        E 168 89 24 00
        E 195 99 2a 60
        E 118 89 2a 00
        E 363 99 25 60
        E 0 99 25 60
        E 288 89 25 00
        E 1 89 25 00
        E 190 99 2a 60
        E 114 89 2a 00
        E 367 99 38 60
        E 243 89 38 00
        E 77 99 39 60
        E 240 89 39 00
        E 80 99 37 60
        E 241 89 37 00
        E 590 89 31 00
        E 0 b9 7b 00
        E 1 ff 2f 00
      >
    >
  >
  <TRACK
    NAME "hihat"
    PEAKCOL 4290722362
    VOLPAN 1.000000 0 1 -1
    MIDIOUT -1
    ISBUS 0 0
    <ITEM
      POSITION 7.382485
      LENGTH 51.632783
      NAME "hihat"
      VOLPAN 1 0 1 -1
      <SOURCE MIDI
        HASDATA 1 960 QN
        E 0 c3 00 00
        E 15356 93 29 60
        E 68 83 29 00
        E 34 93 29 60
        E 69 83 29 00
        E 56 93 2a 60
        E 68 83 2a 00
        E 21 93 28 60
        E 67 83 28 00
        E 5 93 28 60
        E 67 83 28 00
        E 30 93 29 60
        E 142 83 29 00
        E 340 93 2a 69
        E 143 83 2a 00
        E 337 93 29 60
        E 145 83 29 00
        E 331 93 29 60
        E 143 83 29 00
        E 336 93 2a 60
        E 144 83 2a 00
        E 341 93 2a 60
        E 145 83 2a 00
        E 329 93 28 60
        E 142 83 28 00
        E 341 93 2a 74
        E 143 83 2a 00
        E 334 93 27 60
        E 111 83 27 00
        E 53 93 28 60
        E 112 83 28 00
        E 46 93 2a 63
        E 112 83 2a 00
        E 52 93 26 60
        E 68 83 26 00
        E 25 93 25 60
        E 68 83 25 00
        E 59 93 28 69
        E 68 83 28 00
        E 24 93 28 69
        E 66 83 28 00
        E 2 93 28 60
        E 67 83 28 00
        E 32 93 29 60
        E 144 83 29 00
        E 335 93 2f 60
        E 287 83 2f 00
        E 192 93 29 60
        E 143 83 29 00
        E 336 93 29 60
        E 143 83 29 00
        E 338 93 29 60
        E 144 83 29 00
        E 333 93 2e 60
        E 288 83 2e 00
        E 195 93 29 60
        E 144 83 29 00
        E 337 93 2a 65
        E 143 83 2a 00
        E 337 93 29 60
        E 145 83 29 00
        E 335 93 2a 78
        E 146 83 2a 00
        E 333 93 29 60
        E 146 83 29 00
        E 332 93 2a 63
        E 142 83 2a 00
        E 342 93 2a 60
        E 145 83 2a 00
        E 334 93 2a 60
        E 142 83 2a 00
        E 341 93 2a 69
        E 145 83 2a 00
        E 332 93 28 60
        E 112 83 28 00
        E 44 93 29 60
        E 113 83 29 00
        E 50 93 29 69
        E 113 83 29 00
        E 45 93 29 60
        E 112 83 29 00
        E 52 93 29 60
        E 112 83 29 00
        E 44 93 29 77
        E 112 83 29 00
        E 51 93 29 6d
        E 145 83 29 00
        E 334 93 29 60
        E 145 83 29 00
        E 335 93 29 60
        E 142 83 29 00
        E 337 93 29 60
        E 145 83 29 00
        E 337 93 2a 60
        E 144 83 2a 00
        E 334 93 29 60
        E 145 83 29 00
        E 337 93 29 63
        E 144 83 29 00
        E 337 93 2e 60
        E 68 83 2e 00
        E 25 93 2b 60
        E 67 83 2b 00
        E 29 93 29 6d
        E 67 83 29 00
        E 28 93 29 60
        E 68 83 29 00
        E 31 93 29 60
        E 67 83 29 00
        E 28 93 2a 69
        E 144 83 2a 00
        E 337 93 28 60
        E 67 83 28 00
        E 29 93 29 60
        E 67 83 29 00
        E 28 93 29 60
        E 66 83 29 00
        E 29 93 29 60
        E 67 83 29 00
        E 30 93 28 6d
        E 67 83 28 00
        E 30 93 29 60
        E 144 83 29 00
        E 335 93 2a 6d
        E 146 83 2a 00
        E 331 93 29 69
        E 142 83 29 00
        E 341 93 29 60
        E 145 83 29 00
        E 338 93 29 67
        E 145 83 29 00
        E 331 93 29 60
        E 144 83 29 00
        E 342 93 2c 60
        E 289 83 2c 00
        E 187 93 29 60
        E 144 83 29 00
        E 335 93 2e 60
        E 288 83 2e 00
        E 191 93 29 60
        E 143 83 29 00
        E 341 93 2a 60
        E 143 83 2a 00
        E 334 93 2a 60
        E 144 83 2a 00
        E 334 93 2c 60
        E 290 83 2c 00
        E 191 93 2e 60
        E 111 83 2e 00
        E 49 93 2e 60
        E 112 83 2e 00
        E 51 93 2e 60
        E 110 83 2e 00
        E 46 93 2a 63
        E 146 83 2a 00
        E 339 93 29 63
        E 68 83 29 00
        E 24 93 27 60
        E 67 83 27 00
        E 30 93 29 69
        E 68 83 29 00
        E 28 93 29 60
        E 67 83 29 00
        E 29 93 28 77
        E 66 83 28 00
        E 27 93 2d 60
        E 110 83 2d 00
        E 54 93 2a 60
        E 113 83 2a 00
        E 48 93 27 60
        E 112 83 27 00
        E 45 93 2a 60
        E 145 83 2a 00
        E 337 93 29 60
        E 145 83 29 00
        E 332 93 29 60
        E 66 83 29 00
        E 30 93 29 69
        E 67 83 29 00
        E 29 93 29 6d
        E 67 83 29 00
        E 31 93 2b 60
        E 67 83 2b 00
        E 31 93 2b 60
        E 67 83 2b 00
        E 28 93 29 60
        E 144 83 29 00
        E 337 93 28 60
        E 113 83 28 00
        E 46 93 2b 60
        E 114 83 2b 00
        E 43 93 2e 60
        E 112 83 2e 00
        E 51 93 2a 63
        E 140 83 2a 00
        E 340 93 2b 60
        E 143 83 2b 00
        E 337 93 2d 60
        E 289 83 2d 00
        E 189 93 2b 60
        E 143 83 2b 00
        E 46418 93 28 60
        E 112 83 28 00
        E 47 93 29 60
        E 112 83 29 00
        E 52 93 29 60
        E 112 83 29 00
        E 45 93 29 60
        E 145 83 29 00
        E 336 93 29 65
        E 144 83 29 00
        E 338 93 2a 60
        E 144 83 2a 00
        E 333 93 2d 60
        E 113 83 2d 00
        E 48 93 29 60
        E 115 83 29 00
        E 46 93 2a 60
        E 112 83 2a 00
        E 45 93 2a 72
        E 144 83 2a 00
        E 338 93 28 60
        E 142 83 28 00
        E 337 93 2a 6d
        E 145 83 2a 00
        E 335 93 27 60
        E 114 83 27 00
        E 47 93 26 60
        E 111 83 26 00
        E 49 93 28 60
        E 114 83 28 00
        E 44 93 2a 60
        E 142 83 2a 00
        E 337 93 30 60
        E 67 83 30 00
        E 29 93 30 60
        E 68 83 30 00
        E 59 93 30 60
        E 68 83 30 00
        E 27 93 30 6b
        E 67 83 30 00
        E 0 93 30 65
        E 67 83 30 00
        E 29 93 2e 60
        E 289 83 2e 00
        E 194 93 29 60
        E 144 83 29 00
        E 335 93 28 60
        E 66 83 28 00
        E 28 93 29 60
        E 68 83 29 00
        E 56 93 28 60
        E 67 83 28 00
        E 32 93 28 60
        E 65 93 27 60
        E 2 83 28 00
        E 66 83 27 00
        E 30 93 29 60
        E 146 83 29 00
        E 333 93 29 60
        E 145 83 29 00
        E 336 93 29 60
        E 110 83 29 00
        E 49 93 29 60
        E 112 83 29 00
        E 50 93 29 60
        E 113 83 29 00
        E 45 93 29 60
        E 143 83 29 00
        E 337 93 2a 60
        E 112 83 2a 00
        E 46 93 29 60
        E 112 83 29 00
        E 49 93 29 63
        E 114 83 29 00
        E 47 93 2a 60
        E 145 83 2a 00
        E 337 93 29 60
        E 112 83 29 00
        E 45 93 29 60
        E 111 83 29 00
        E 49 93 29 67
        E 112 83 29 00
        E 47 93 2a 69
        E 144 83 2a 00
        E 333 93 29 60
        E 144 83 29 00
        E 343 93 2a 60
        E 145 83 2a 00
        E 334 93 2a 60
        E 144 83 2a 00
        E 334 93 2a 6b
        E 146 83 2a 00
        E 338 93 2a 72
        E 145 83 2a 00
        E 335 93 29 60
        E 145 83 29 00
        E 333 93 28 60
        E 144 83 28 00
        E 332 93 29 60
        E 145 83 29 00
        E 339 93 30 60
        E 68 83 30 00
        E 27 93 2a 60
        E 67 83 2a 00
        E 30 93 29 60
        E 67 83 29 00
        E 29 93 28 60
        E 67 83 28 00
        E 28 93 27 60
        E 67 83 27 00
        E 27 93 29 60
        E 144 83 29 00
        E 337 93 27 60
        E 112 83 27 00
        E 49 93 28 60
        E 111 83 28 00
        E 46 93 28 60
        E 112 83 28 00
        E 51 93 29 60
        E 146 83 29 00
        E 336 93 29 60
        E 143 83 29 00
        E 334 93 2a 60
        E 146 83 2a 00
        E 338 93 29 60
        E 111 83 29 00
        E 46 93 29 79
        E 114 83 29 00
        E 46 93 29 69
        E 111 83 29 00
        E 48 93 2a 6b
        E 144 83 2a 00
        E 338 93 2e 60
        E 111 83 2e 00
        E 52 93 27 60
        E 112 83 27 00
        E 42 93 29 6b
        E 113 83 29 00
        E 47 93 29 60
        E 144 83 29 00
        E 337 93 2a 60
        E 143 83 2a 00
        E 339 93 2a 60
        E 113 83 2a 00
        E 47 93 2a 60
        E 111 83 2a 00
        E 47 93 29 60
        E 113 83 29 00
        E 46 93 28 75
        E 143 83 28 00
        E 341 93 29 60
        E 143 83 29 00
        E 338 93 28 60
        E 144 83 28 00
        E 332 93 2e 60
        E 285 83 2e 00
        E 198 93 28 60
        E 145 83 28 00
        E 335 93 2a 60
        E 145 83 2a 00
        E 334 93 28 60
        E 143 83 28 00
        E 333 93 2a 60
        E 143 83 2a 00
        E 339 93 28 60
        E 145 83 28 00
        E 337 93 2a 60
        E 143 83 2a 00
        E 332 93 2a 69
        E 142 83 2a 00
        E 345 93 28 60
        E 112 83 28 00
        E 45 93 29 60
        E 112 83 29 00
        E 48 93 29 72
        E 112 83 29 00
        E 52 93 28 60
        E 143 83 28 00
        E 332 93 29 60
        E 145 83 29 00
        E 338 93 29 60
        E 147 83 29 00
        E 329 93 2a 60
        E 143 83 2a 00
        E 342 93 29 60
        E 112 83 29 00
        E 43 93 29 60
        E 113 83 29 00
        E 45 93 2e 60
        E 112 83 2e 00
        E 53 93 2a 60
        E 145 83 2a 00
        E 332 93 2a 60
        E 145 83 2a 00
        E 338 93 28 60
        E 68 83 28 00
        E 25 93 29 60
        E 67 83 29 00
        E 28 93 2b 60
        E 67 83 2b 00
        E 28 93 2e 60
        E 67 83 2e 00
        E 36 93 30 60
        E 67 83 30 00
        E 28 93 2e 60
        E 289 83 2e 00
        E 187 93 29 60
        E 146 83 29 00
        E 0 b3 7b 00
        E 1 ff 2f 00
      >
    >
  >
  <TRACK
    NAME "hihat_rapid"
    PEAKCOL 4290722362
    VOLPAN 1.000000 0 1 -1
    MIDIOUT -1
    ISBUS 0 0
    <ITEM
      POSITION 22.153518
      LENGTH 51.631604
      NAME "hihat_rapid"
      VOLPAN 1 0 1 -1
      <SOURCE MIDI
        HASDATA 1 960 QN
        E 0 c4 00 00
        E 46079 94 2a 63
        E 145 84 2a 00
        E 336 94 2a 60
        E 143 84 2a 00
        E 337 94 2a 60
        E 145 84 2a 00
        E 335 94 2a 60
        E 146 84 2a 00
        E 334 94 2a 60
        E 144 84 2a 00
        E 336 94 2a 65
        E 146 84 2a 00
        E 334 94 2a 60
        E 144 84 2a 00
        E 129 94 2e 60
        E 35 94 2d 60
        E 1 94 2d 72
        E 12 84 2e 00
        E 21 94 2d 60
        E 14 84 2d 00
        E 1 84 2d 00
        E 20 94 2b 60
        E 13 84 2d 00
        E 22 94 2b 72
        E 13 84 2b 00
        E 22 94 2b 60
        E 13 84 2b 00
        E 35 84 2b 00
        E 465 94 2a 60
        E 144 84 2a 00
        E 337 94 2a 7d
        E 144 84 2a 00
        E 334 94 2a 63
        E 145 84 2a 00
        E 128 94 29 7d
        E 48 84 29 00
        E 2 94 29 7d
        E 15 94 29 79
        E 33 84 29 00
        E 14 94 29 79
        E 1 84 29 00
        E 47 84 29 00
        E 1 94 29 79
        E 48 84 29 00
        E 478 94 2a 6d
        E 145 84 2a 00
        E 336 94 2a 49
        E 145 84 2a 00
        E 335 94 2a 69
        E 143 84 2a 00
        E 130 94 29 5a
        E 34 94 29 7c
        E 3 94 29 7c
        E 11 84 29 00
        E 21 94 29 78
        E 13 84 29 00
        E 3 84 29 00
        E 19 94 29 69
        E 13 84 29 00
        E 21 94 29 6f
        E 14 84 29 00
        E 20 94 29 6f
        E 14 84 29 00
        E 34 84 29 00
        E 466 94 2a 60
        E 146 84 2a 00
        E 335 94 2a 60
        E 143 84 2a 00
        E 337 94 2a 60
        E 143 84 2a 00
        E 131 94 29 60
        E 14 94 29 60
        E 34 84 29 00
        E 14 84 29 00
        E 0 94 29 60
        E 48 84 29 00
        E 0 94 29 60
        E 47 94 27 60
        E 1 84 29 00
        E 47 84 27 00
        E 481 94 2a 67
        E 145 84 2a 00
        E 334 94 2a 60
        E 144 84 2a 00
        E 337 94 2a 63
        E 145 84 2a 00
        E 128 94 2e 60
        E 33 94 2d 60
        E 3 94 2b 60
        E 12 84 2e 00
        E 22 94 2b 60
        E 11 84 2d 00
        E 3 84 2b 00
        E 20 94 2b 60
        E 14 84 2b 00
        E 21 94 29 63
        E 13 84 2b 00
        E 20 94 29 60
        E 15 84 29 00
        E 33 84 29 00
        E 467 94 2a 63
        E 145 84 2a 00
        E 335 94 2a 60
        E 146 84 2a 00
        E 333 94 2a 60
        E 143 84 2a 00
        E 132 94 2b 58
        E 34 94 29 7d
        E 2 94 29 7d
        E 12 84 2b 00
        E 21 94 29 77
        E 13 84 29 00
        E 2 84 29 00
        E 19 94 29 7d
        E 14 84 29 00
        E 20 94 29 7d
        E 14 84 29 00
        E 21 94 29 6d
        E 13 84 29 00
        E 35 84 29 00
        E 466 94 29 60
        E 146 84 29 00
        E 128 94 2a 60
        E 13 94 2a 60
        E 35 84 2a 00
        E 13 84 2a 00
        E 2 94 2a 60
        E 46 94 2a 60
        E 2 84 2a 00
        E 46 84 2a 00
        E 1 94 2a 60
        E 48 84 2a 00
        E 480 94 2a 60
        E 145 84 2a 00
        E 127 94 29 60
        E 16 94 29 69
        E 32 84 29 00
        E 16 84 29 00
        E 0 94 29 60
        E 48 84 29 00
        E 1 94 29 60
        E 46 94 29 60
        E 2 84 29 00
        E 46 84 29 00
        E 482 94 2a 60
        E 142 84 2a 00
        E 337 94 29 6b
        E 144 84 29 00
        E 336 94 29 60
        E 145 84 29 00
        E 335 94 29 60
        E 143 84 29 00
        E 337 94 2a 67
        E 142 84 2a 00
        E 338 94 29 60
        E 144 84 29 00
        E 336 94 29 60
        E 145 84 29 00
        E 128 94 29 60
        E 48 84 29 00
        E 1 94 28 60
        E 13 94 28 60
        E 35 84 28 00
        E 13 84 28 00
        E 1 94 27 60
        E 48 84 27 00
        E 0 94 2a 60
        E 48 84 2a 00
        E 482 94 29 60
        E 144 84 29 00
        E 334 94 29 60
        E 144 84 29 00
        E 335 94 29 72
        E 146 84 29 00
        E 335 94 28 60
        E 143 84 28 00
        E 337 94 28 67
        E 142 84 28 00
        E 339 94 28 60
        E 143 84 28 00
        E 335 94 29 60
        E 144 84 29 00
        E 132 94 2a 60
        E 47 94 2a 54
        E 1 84 2a 00
        E 14 94 2a 60
        E 33 84 2a 00
        E 13 94 2a 58
        E 2 84 2a 00
        E 46 84 2a 00
        E 1 94 29 47
        E 48 84 29 00
        E 480 94 27 60
        E 144 84 27 00
        E 336 94 2a 7d
        E 144 84 2a 00
        E 336 94 28 69
        E 145 84 28 00
        E 128 94 28 60
        E 35 94 27 60
        E 2 94 29 60
        E 11 84 28 00
        E 22 94 28 60
        E 13 84 27 00
        E 2 84 29 00
        E 19 94 29 60
        E 14 84 28 00
        E 20 94 2c 67
        E 14 84 29 00
        E 20 94 31 6f
        E 14 84 2c 00
        E 34 84 31 00
        E 467 94 28 60
        E 144 84 28 00
        E 130 94 28 60
        E 34 94 29 7d
        E 1 94 27 77
        E 13 84 28 00
        E 21 94 27 75
        E 13 84 29 00
        E 1 84 27 00
        E 20 94 27 75
        E 14 84 27 00
        E 20 94 27 75
        E 14 84 27 00
        E 21 94 28 60
        E 13 84 27 00
        E 35 84 28 00
        E 466 94 29 60
        E 143 84 29 00
        E 337 94 28 60
        E 145 84 28 00
        E 336 94 28 60
        E 144 84 28 00
        E 334 94 29 60
        E 143 84 29 00
        E 338 94 29 6d
        E 142 84 29 00
        E 338 94 2a 60
        E 145 84 2a 00
        E 335 94 29 65
        E 145 84 29 00
        E 129 94 28 60
        E 14 94 28 60
        E 34 84 28 00
        E 14 84 28 00
        E 0 94 28 60
        E 48 84 28 00
        E 0 94 29 60
        E 48 84 29 00
        E 1 94 28 60
        E 48 84 28 00
        E 478 94 2a 60
        E 144 84 2a 00
        E 337 94 28 60
        E 145 84 28 00
        E 334 94 2a 60
        E 144 84 2a 00
        E 337 94 29 60
        E 145 84 29 00
        E 336 94 29 60
        E 143 84 29 00
        E 128 94 28 60
        E 16 94 29 7b
        E 32 84 28 00
        E 16 84 29 00
        E 1 94 26 60
        E 47 94 28 65
        E 1 84 26 00
        E 47 84 28 00
        E 0 94 28 65
        E 48 84 28 00
        E 480 94 2a 7d
        E 146 84 2a 00
        E 128 94 26 65
        E 34 94 25 67
        E 0 94 25 67
        E 14 84 26 00
        E 21 94 27 7d
        E 13 84 25 00
        E 0 84 25 00
        E 20 94 28 7d
        E 15 84 27 00
        E 20 94 28 7a
        E 13 84 28 00
        E 23 94 28 7d
        E 12 84 28 00
        E 36 84 28 00
        E 465 94 29 63
        E 145 84 29 00
        E 335 94 29 60
        E 145 84 29 00
        E 334 94 2a 60
        E 144 84 2a 00
        E 337 94 28 60
        E 147 84 28 00
        E 333 94 29 60
        E 144 84 29 00
        E 130 94 28 67
        E 33 94 28 67
        E 2 94 28 67
        E 13 84 28 00
        E 21 94 27 60
        E 12 84 28 00
        E 2 84 28 00
        E 20 94 27 60
        E 14 84 27 00
        E 21 94 2a 7d
        E 13 84 27 00
        E 20 94 2a 7d
        E 15 84 2a 00
        E 33 84 2a 00
        E 467 94 2a 60
        E 145 84 2a 00
        E 336 94 28 60
        E 142 84 28 00
        E 337 94 29 60
        E 144 84 29 00
        E 130 94 2b 60
        E 15 94 29 60
        E 33 84 2b 00
        E 14 94 25 60
        E 1 84 29 00
        E 47 84 25 00
        E 0 94 29 60
        E 47 94 23 15
        E 1 84 29 00
        E 47 84 23 00
        E 481 94 28 56
        E 144 84 28 00
        E 337 94 2a 60
        E 142 84 2a 00
        E 338 94 29 6f
        E 144 84 29 00
        E 129 94 2a 60
        E 34 94 29 60
        E 1 94 2a 7d
        E 13 84 2a 00
        E 21 94 28 7d
        E 13 84 29 00
        E 1 84 2a 00
        E 21 94 28 60
        E 13 84 28 00
        E 20 94 28 7d
        E 15 84 28 00
        E 21 94 29 7d
        E 12 84 28 00
        E 36 84 29 00
        E 466 94 28 6b
        E 143 84 28 00
        E 129 94 2f 78
        E 35 94 2f 78
        E 1 94 2f 7c
        E 12 84 2f 00
        E 23 94 2e 79
        E 12 84 2f 00
        E 1 84 2f 00
        E 20 94 2b 7b
        E 15 84 2e 00
        E 20 94 2b 7b
        E 13 84 2b 00
        E 20 94 2b 60
        E 15 84 2b 00
        E 33 84 2b 00
        E 466 94 29 60
        E 143 84 29 00
        E 131 94 2a 60
        E 15 94 2a 60
        E 33 84 2a 00
        E 15 84 2a 00
        E 0 94 28 60
        E 48 84 28 00
        E 0 94 28 60
        E 48 84 28 00
        E 0 94 27 2b
        E 48 84 27 00
        E 480 94 28 60
        E 143 84 28 00
        E 338 94 28 60
        E 144 84 28 00
        E 334 94 29 74
        E 142 84 29 00
        E 132 94 27 60
        E 35 94 27 60
        E 2 94 27 60
        E 11 84 27 00
        E 23 94 28 60
        E 12 84 27 00
        E 2 84 27 00
        E 20 94 27 60
        E 14 84 28 00
        E 19 94 28 74
        E 15 84 27 00
        E 20 94 28 7b
        E 13 84 28 00
        E 35 84 28 00
        E 465 94 28 60
        E 144 84 28 00
        E 131 94 28 7d
        E 34 94 28 77
        E 1 94 28 7d
        E 13 84 28 00
        E 22 94 28 7d
        E 12 84 28 00
        E 1 84 28 00
        E 20 94 27 6f
        E 15 84 28 00
        E 20 94 27 6d
        E 13 84 27 00
        E 20 94 2b 69
        E 15 84 27 00
        E 33 84 2b 00
        E 467 94 29 75
        E 145 84 29 00
        E 336 94 29 60
        E 146 84 29 00
        E 31053 94 29 7d
        E 142 84 29 00
        E 338 94 29 65
        E 145 84 29 00
        E 335 94 2a 7d
        E 146 84 2a 00
        E 334 94 28 65
        E 145 84 28 00
        E 335 94 2a 69
        E 146 84 2a 00
        E 334 94 28 60
        E 142 84 28 00
        E 339 94 29 7d
        E 144 84 29 00
        E 129 94 2c 60
        E 34 94 2d 7a
        E 0 94 2d 7a
        E 14 84 2c 00
        E 21 94 2b 60
        E 13 84 2d 00
        E 0 84 2d 00
        E 22 94 2c 60
        E 13 84 2b 00
        E 21 94 2d 74
        E 14 84 2c 00
        E 20 94 2d 7d
        E 14 84 2d 00
        E 34 84 2d 00
        E 466 94 28 60
        E 142 84 28 00
        E 338 94 29 6b
        E 145 84 29 00
        E 335 94 24 60
        E 146 84 24 00
        E 335 94 2a 7d
        E 146 84 2a 00
        E 332 94 29 7d
        E 146 84 29 00
        E 336 94 28 7d
        E 145 84 28 00
        E 334 94 28 7d
        E 145 84 28 00
        E 128 94 29 63
        E 35 94 28 7a
        E 1 94 28 7a
        E 12 84 29 00
        E 22 94 28 60
        E 13 84 28 00
        E 1 84 28 00
        E 20 94 29 7d
        E 14 84 28 00
        E 20 94 28 7d
        E 14 84 29 00
        E 20 94 28 7d
        E 14 84 28 00
        E 34 84 28 00
        E 468 94 28 60
        E 146 84 28 00
        E 333 94 29 5e
        E 145 84 29 00
        E 334 94 29 65
        E 146 84 29 00
        E 335 94 27 45
        E 142 84 27 00
        E 338 94 29 60
        E 143 84 29 00
        E 130 94 26 60
        E 35 94 26 60
        E 1 94 26 60
        E 12 84 26 00
        E 22 94 24 4f
        E 13 84 26 00
        E 1 84 26 00
        E 21 94 27 4f
        E 13 84 24 00
        E 20 94 27 4f
        E 15 84 27 00
        E 19 94 27 60
        E 14 84 27 00
        E 34 84 27 00
        E 467 94 29 60
        E 146 84 29 00
        E 128 94 26 60
        E 14 94 2a 72
        E 34 84 26 00
        E 14 84 2a 00
        E 1 94 28 67
        E 47 94 28 67
        E 1 84 28 00
        E 47 84 28 00
        E 0 94 26 60
        E 48 84 26 00
        E 480 94 27 60
        E 143 84 27 00
        E 337 94 29 6d
        E 145 84 29 00
        E 334 94 29 7d
        E 143 84 29 00
        E 340 94 28 6d
        E 143 84 28 00
        E 335 94 27 74
        E 144 84 27 00
        E 129 94 27 6f
        E 16 94 27 63
        E 32 84 27 00
        E 14 94 28 65
        E 2 84 27 00
        E 46 84 28 00
        E 1 94 28 69
        E 48 84 28 00
        E 1 94 28 7d
        E 48 84 28 00
        E 479 94 28 60
        E 145 84 28 00
        E 129 94 26 5a
        E 33 94 29 75
        E 2 94 29 7c
        E 13 84 26 00
        E 21 94 29 6f
        E 12 84 29 00
        E 2 84 29 00
        E 21 94 29 79
        E 13 84 29 00
        E 22 94 28 7d
        E 13 84 29 00
        E 19 94 29 7d
        E 16 84 28 00
        E 32 84 29 00
        E 469 94 2a 60
        E 145 84 2a 00
        E 333 94 29 6f
        E 145 84 29 00
        E 336 94 29 60
        E 147 84 29 00
        E 331 94 29 67
        E 143 84 29 00
        E 337 94 2a 60
        E 144 84 2a 00
        E 131 94 28 75
        E 34 94 27 60
        E 0 94 28 75
        E 14 84 28 00
        E 21 94 27 6d
        E 13 84 27 00
        E 0 84 28 00
        E 21 94 27 4d
        E 14 84 27 00
        E 20 94 27 63
        E 14 84 27 00
        E 20 94 28 60
        E 14 84 27 00
        E 34 84 28 00
        E 467 94 29 60
        E 144 84 29 00
        E 130 94 27 60
        E 14 94 26 60
        E 34 84 27 00
        E 14 84 26 00
        E 0 94 26 60
        E 48 84 26 00
        E 0 94 25 60
        E 48 84 25 00
        E 0 94 25 60
        E 48 84 25 00
        E 480 94 29 60
        E 144 84 29 00
        E 335 94 29 60
        E 142 84 29 00
        E 339 94 29 7a
        E 146 84 29 00
        E 127 94 2c 6d
        E 15 94 2d 60
        E 33 84 2c 00
        E 14 94 2d 69
        E 1 84 2d 00
        E 47 84 2d 00
        E 1 94 32 60
        E 48 84 32 00
        E 0 94 32 60
        E 48 84 32 00
        E 480 94 29 78
        E 143 84 29 00
        E 336 94 27 60
        E 142 84 27 00
        E 339 94 28 60
        E 144 84 28 00
        E 336 94 29 60
        E 144 84 29 00
        E 336 94 28 60
        E 144 84 28 00
        E 335 94 28 69
        E 145 84 28 00
        E 336 94 2a 79
        E 145 84 2a 00
        E 128 94 26 60
        E 35 94 26 60
        E 0 94 27 77
        E 13 84 26 00
        E 22 94 27 77
        E 13 84 26 00
        E 0 84 27 00
        E 21 94 25 60
        E 14 84 27 00
        E 21 94 2c 78
        E 13 84 25 00
        E 21 94 2c 78
        E 14 84 2c 00
        E 34 84 2c 00
        E 466 94 27 54
        E 145 84 27 00
        E 335 94 27 60
        E 145 84 27 00
        E 335 94 28 60
        E 144 84 28 00
        E 129 94 2d 60
        E 16 94 25 60
        E 32 84 2d 00
        E 14 94 26 60
        E 2 84 25 00
        E 46 84 26 00
        E 1 94 26 60
        E 48 84 26 00
        E 0 94 26 60
        E 48 84 26 00
        E 480 94 28 60
        E 143 84 28 00
        E 337 94 29 60
        E 146 84 29 00
        E 334 94 2a 72
        E 144 84 2a 00
        E 336 94 29 60
        E 144 84 29 00
        E 335 94 29 69
        E 144 84 29 00
        E 338 94 28 60
        E 142 84 28 00
        E 336 94 29 60
        E 143 84 29 00
        E 339 94 2a 60
        E 144 84 2a 00
        E 0 b4 7b 00
        E 1 ff 2f 00
      >
    >
  >
  <TRACK
    NAME "riser"
    PEAKCOL 4284506208
    VOLPAN 1.000000 0 1 -1
    MIDIOUT -1
    ISBUS 0 0
    <ITEM
      POSITION 27.692308
      LENGTH 46.248077
      NAME "riser"
      VOLPAN 1 0 1 -1
      <SOURCE MIDI
        HASDATA 1 960 QN
        E 0 c5 61 00
        E 57600 95 3d 60
        E 108 85 3d 00
        E 12 95 3d 2b
        E 108 85 3d 00
        E 12 95 3d 60
        E 108 85 3d 00
        E 12 95 3d 3a
        E 108 85 3d 00
        E 12 95 3d 45
        E 108 85 3d 00
        E 12 95 3d 42
        E 108 85 3d 00
        E 12 95 3d 4b
        E 108 85 3d 00
        E 12 95 3d 40
        E 108 85 3d 00
        E 12 95 3d 3c
        E 108 85 3d 00
        E 12 95 3d 40
        E 108 85 3d 00
        E 252 95 3d 60
        E 108 85 3d 00
        E 12 95 3d 42
        E 108 85 3d 00
        E 12 95 3e 49
        E 108 85 3e 00
        E 12 95 3e 5a
        E 108 85 3e 00
        E 12 95 3f 60
        E 108 85 3f 00
        E 12 95 3f 58
        E 108 85 3f 00
        E 12 95 3e 4f
        E 108 85 3e 00
        E 12 95 3e 4f
        E 108 85 3e 00
        E 12 95 40 58
        E 108 85 40 00
        E 12 95 41 4d
        E 108 85 41 00
        E 12 95 42 58
        E 108 85 42 00
        E 12 95 42 47
        E 108 85 42 00
        E 12 95 44 60
        E 108 85 44 00
        E 12 95 43 47
        E 108 85 43 00
        E 12 95 44 4b
        E 108 85 44 00
        E 12 95 44 60
        E 108 85 44 00
        E 12 95 44 40
        E 108 85 44 00
        E 12 95 46 38
        E 108 85 46 00
        E 12 95 47 3a
        E 108 85 47 00
        E 12 95 48 1e
        E 108 85 48 00
        E 88572 95 3d 3a
        E 108 85 3d 00
        E 12 95 3e 60
        E 108 85 3e 00
        E 732 95 3b 60
        E 108 85 3b 00
        E 12 95 3b 60
        E 108 85 3b 00
        E 12 95 3f 60
        E 108 85 3f 00
        E 12 95 3d 56
        E 108 85 3d 00
        E 12 95 3d 60
        E 108 85 3d 00
        E 12 95 3d 5a
        E 108 85 3d 00
        E 12 95 3f 60
        E 108 85 3f 00
        E 12 95 3f 4d
        E 108 85 3f 00
        E 12 95 40 60
        E 108 85 40 00
        E 12 95 3f 54
        E 108 85 3f 00
        E 12 95 3f 4f
        E 108 85 3f 00
        E 12 95 42 5c
        E 108 85 42 00
        E 12 95 40 51
        E 108 85 40 00
        E 12 95 41 49
        E 108 85 41 00
        E 12 95 44 60
        E 108 85 44 00
        E 12 95 44 3e
        E 108 85 44 00
        E 12 95 43 49
        E 108 85 43 00
        E 12 95 46 49
        E 108 85 46 00
        E 12 95 46 47
        E 108 85 46 00
        E 12 95 46 3e
        E 108 85 46 00
        E 12 95 48 2f
        E 108 85 48 00
        E 12 95 44 18
        E 108 85 44 00
        E 0 b5 7b 00
        E 1 ff 2f 00
      >
    >
  >
  <TRACK
    NAME "bass_808_slide_exp"
    PEAKCOL 4286528191
    VOLPAN 1.000000 0 1 -1
    MIDIOUT -1
    ISBUS 0 0
    <ITEM
      POSITION 29.536632
      LENGTH 44.362638
      NAME "bass_808_slide_exp"
      VOLPAN 1 0 1 -1
      <SOURCE MIDI
        HASDATA 1 960 QN
        E 0 c6 26 00
        E 61436 96 23 60
        E 882 86 23 00
        E 82 96 25 60
        E 713 86 25 00
        E 10 96 2b 60
        E 51 86 2b 00
        E 5 96 2c 60
        E 50 86 2c 00
        E 12 96 29 60
        E 50 86 29 00
        E 12 96 2b 60
        E 51 86 2b 00
        E 5 96 2a 60
        E 720 96 2b 60
        E 12 86 2a 00
        E 38 86 2b 00
        E 13 96 28 60
        E 51 86 28 00
        E 11 96 2b 60
        E 51 86 2b 00
        E 9 96 2b 60
        E 50 86 2b 00
        E 8 96 2c 60
        E 716 86 2c 00
        E 1 96 2a 60
        E 51 86 2a 00
        E 14 96 29 60
        E 51 86 29 00
        E 3 96 29 60
        E 52 86 29 00
        E 10 96 2b 60
        E 50 86 2b 00
        E 14 96 25 60
        E 721 96 27 60
        E 3 86 25 00
        E 47 86 27 00
        E 10 96 2a 60
        E 49 86 2a 00
        E 8 96 23 47
        E 50 86 23 00
        E 9 96 2b 60
        E 50 86 2b 00
        E 11 96 2d 60
        E 714 86 2d 00
        E 3 96 2d 60
        E 50 86 2d 00
        E 14 96 28 60
        E 51 86 28 00
        E 7 96 26 40
        E 50 86 26 00
        E 15 96 26 3e
        E 51 86 26 00
        E 8 96 24 60
        E 716 96 29 60
        E 11 86 24 00
        E 39 86 29 00
        E 12 96 2a 60
        E 51 86 2a 00
        E 6 96 29 60
        E 50 86 29 00
        E 13 96 2a 60
        E 51 86 2a 00
        E 3 96 27 60
        E 875 86 27 00
        E 94 96 2d 60
        E 713 86 2d 00
        E 1 96 2d 36
        E 50 86 2d 00
        E 13 96 2c 3e
        E 51 86 2c 00
        E 9 96 2d 60
        E 51 86 2d 00
        E 6 96 2d 60
        E 50 86 2d 00
        E 973 96 25 60
        E 714 96 28 60
        E 6 86 25 00
        E 44 86 28 00
        E 13 96 2d 60
        E 50 86 2d 00
        E 7 96 23 60
        E 51 86 23 00
        E 13 96 2a 4d
        E 50 86 2a 00
        E 10 96 2c 60
        E 854 86 2c 00
        E 113 96 2c 60
        E 861 86 2c 00
        E 92 96 2c 60
        E 850 86 2c 00
        E 106 96 29 60
        E 862 86 29 00
        E 101 96 2b 60
        E 722 96 29 60
        E 4 86 2b 00
        E 46 86 29 00
        E 10 96 2c 60
        E 50 86 2c 00
        E 15 96 26 60
        E 50 86 26 00
        E 5 96 2a 60
        E 50 86 2a 00
        E 10 96 2c 60
        E 860 86 2c 00
        E 97 96 2d 60
        E 868 86 2d 00
        E 94 96 2d 60
        E 863 86 2d 00
        E 96 96 28 60
        E 724 96 2b 60
        E 3 86 28 00
        E 48 86 2b 00
        E 4 96 2c 60
        E 51 86 2c 00
        E 10 96 28 60
        E 51 86 28 00
        E 12 96 33 4d
        E 51 86 33 00
        E 9 96 26 60
        E 718 96 2a 79
        E 11 86 26 00
        E 39 86 2a 00
        E 8 96 2b 4d
        E 51 86 2b 00
        E 12 96 28 47
        E 50 86 28 00
        E 8 96 2c 40
        E 50 86 2c 00
        E 9 96 2c 60
        E 725 96 26 60
        E 1 86 2c 00
        E 49 86 26 00
        E 13 96 25 60
        E 50 86 25 00
        E 2 96 26 60
        E 49 86 26 00
        E 14 96 26 60
        E 50 86 26 00
        E 9 96 27 60
        E 866 86 27 00
        E 92 96 28 60
        E 721 96 2e 33
        E 3 86 28 00
        E 48 86 2e 00
        E 13 96 24 31
        E 50 86 24 00
        E 6 96 2e 38
        E 50 86 2e 00
        E 10 96 25 38
        E 50 86 25 00
        E 10 96 25 60
        E 723 96 28 60
        E 14 86 25 00
        E 37 86 28 00
        E 6 96 2a 60
        E 50 86 2a 00
        E 9 96 2b 36
        E 50 86 2b 00
        E 10 96 2b 29
        E 49 86 2b 00
        E 14 96 24 60
        E 862 86 24 00
        E 90 96 25 60
        E 845 86 25 00
        E 119 96 26 60
        E 853 86 26 00
        E 109 96 25 60
        E 721 96 26 4f
        E 6 86 25 00
        E 44 86 26 00
        E 14 96 26 31
        E 51 86 26 00
        E 7 96 23 51
        E 49 86 23 00
        E 12 96 2b 4b
        E 51 86 2b 00
        E 9 96 27 60
        E 866 86 27 00
        E 96 96 2b 60
        E 844 86 2b 00
        E 113 96 28 60
        E 850 86 28 00
        E 30830 96 25 60
        E 714 86 25 00
        E 4 96 2d 60
        E 50 86 2d 00
        E 6 96 2d 60
        E 50 86 2d 00
        E 17 96 29 60
        E 49 86 29 00
        E 11 96 2d 60
        E 50 86 2d 00
        E 5 96 2e 60
        E 720 86 2e 00
        E 1 96 2c 60
        E 50 86 2c 00
        E 11 96 28 60
        E 50 86 28 00
        E 8 96 27 60
        E 50 86 27 00
        E 13 96 2b 40
        E 50 86 2b 00
        E 11 96 24 60
        E 866 86 24 00
        E 93 96 27 60
        E 716 96 2e 77
        E 12 86 27 00
        E 39 86 2e 00
        E 14 96 27 60
        E 50 86 27 00
        E 8 96 2a 60
        E 49 86 2a 00
        E 11 96 25 45
        E 50 86 25 00
        E 11 96 26 60
        E 717 96 2c 60
        E 4 86 26 00
        E 47 86 2c 00
        E 13 96 26 60
        E 50 86 26 00
        E 8 96 24 60
        E 51 86 24 00
        E 10 96 25 60
        E 50 86 25 00
        E 8 96 25 60
        E 723 86 25 00
        E 1 96 25 7d
        E 50 86 25 00
        E 9 96 26 3c
        E 50 86 26 00
        E 9 96 32 42
        E 49 86 32 00
        E 10 96 27 3c
        E 49 86 27 00
        E 6 96 26 60
        E 718 86 26 00
        E 10 96 28 78
        E 50 86 28 00
        E 6 96 28 60
        E 51 86 28 00
        E 14 96 25 60
        E 50 86 25 00
        E 7 96 2b 36
        E 50 86 2b 00
        E 9 96 27 60
        E 719 86 27 00
        E 0 96 2b 78
        E 50 86 2b 00
        E 12 96 2b 60
        E 52 86 2b 00
        E 6 96 2d 60
        E 51 86 2d 00
        E 12 96 2e 36
        E 52 86 2e 00
        E 7 96 24 60
        E 874 86 24 00
        E 87 96 24 60
        E 863 86 24 00
        E 95 96 24 60
        E 868 86 24 00
        E 95 96 25 60
        E 717 96 27 78
        E 11 86 25 00
        E 40 86 27 00
        E 10 96 29 60
        E 50 86 29 00
        E 6 96 27 60
        E 51 86 27 00
        E 15 96 2d 3c
        E 50 86 2d 00
        E 9 96 2b 60
        E 859 86 2b 00
        E 100 96 2d 60
        E 712 86 2d 00
        E 10 96 28 60
        E 51 86 28 00
        E 3 96 2c 42
        E 50 86 2c 00
        E 12 96 32 60
        E 50 86 32 00
        E 9 96 2c 49
        E 50 86 2c 00
        E 10 96 25 60
        E 718 96 26 60
        E 6 86 25 00
        E 45 86 26 00
        E 17 96 29 60
        E 50 86 29 00
        E 9 96 24 60
        E 51 86 24 00
        E 4 96 2b 40
        E 50 86 2b 00
        E 12 96 2c 60
        E 723 96 2c 75
        E 4 86 2c 00
        E 46 86 2c 00
        E 11 96 2c 3e
        E 50 86 2c 00
        E 7 96 27 3a
        E 51 86 27 00
        E 12 96 2c 45
        E 51 86 2c 00
        E 7 96 2a 60
        E 874 86 2a 00
        E 84 96 2c 60
        E 711 86 2c 00
        E 12 96 29 78
        E 51 86 29 00
        E 5 96 2c 40
        E 49 86 2c 00
        E 13 96 29 3a
        E 50 86 29 00
        E 10 96 2c 4b
        E 50 86 2c 00
        E 7 96 28 60
        E 714 86 28 00
        E 6 96 2a 3a
        E 51 86 2a 00
        E 12 96 29 60
        E 50 86 29 00
        E 9 96 25 60
        E 51 86 25 00
        E 9 96 25 42
        E 50 86 25 00
        E 14 96 2a 60
        E 715 96 2f 60
        E 12 86 2a 00
        E 38 86 2f 00
        E 12 96 27 60
        E 50 86 27 00
        E 10 96 2a 60
        E 52 86 2a 00
        E 8 96 25 60
        E 51 86 25 00
        E 5 96 25 60
        E 717 86 25 00
        E 9 96 2c 60
        E 51 86 2c 00
        E 7 96 24 60
        E 50 86 24 00
        E 10 96 2b 60
        E 51 86 2b 00
        E 9 96 27 47
        E 50 86 27 00
        E 9 96 2d 60
        E 721 86 2d 00
        E 0 96 2a 74
        E 51 86 2a 00
        E 10 96 29 42
        E 51 86 29 00
        E 7 96 27 51
        E 50 86 27 00
        E 13 96 30 42
        E 50 86 30 00
        E 10 96 25 60
        E 850 86 25 00
        E 106 96 28 60
        E 720 96 2d 2d
        E 2 86 28 00
        E 48 86 2d 00
        E 10 96 29 60
        E 51 86 29 00
        E 10 96 24 60
        E 50 86 24 00
        E 12 96 26 2f
        E 50 86 26 00
        E 12 96 25 60
        E 717 86 25 00
        E 5 96 25 60
        E 51 86 25 00
        E 5 96 26 60
        E 50 86 26 00
        E 6 96 2c 60
        E 51 86 2c 00
        E 10 96 26 60
        E 50 86 26 00
        E 11 96 24 60
        E 868 86 24 00
        E 89 96 25 60
        E 713 86 25 00
        E 11 96 2c 4d
        E 50 86 2c 00
        E 7 96 24 60
        E 49 86 24 00
        E 15 96 2a 42
        E 50 86 2a 00
        E 7 96 25 47
        E 50 86 25 00
        E 14 96 27 60
        E 716 86 27 00
        E 1 96 27 60
        E 51 86 27 00
        E 13 96 28 60
        E 50 86 28 00
        E 10 96 27 60
        E 51 86 27 00
        E 6 96 2d 4f
        E 50 86 2d 00
        E 11 96 2d 60
        E 722 96 2c 60
        E 3 86 2d 00
        E 47 86 2c 00
        E 7 96 2c 60
        E 51 86 2c 00
        E 5 96 2b 60
        E 49 86 2b 00
        E 16 96 2c 60
        E 50 86 2c 00
        E 7 96 24 60
        E 873 86 24 00
        E 89 96 2c 60
        E 868 86 2c 00
        E 95 96 25 60
        E 857 86 25 00
        E 0 b6 7b 00
        E 1 ff 2f 00
      >
    >
  >
  <TRACK
    NAME "trap_drums_hard"
    PEAKCOL 4290722362
    VOLPAN 1.000000 0 1 -1
    MIDIOUT -1
    ISBUS 0 0
    <ITEM
      POSITION 29.538370
      LENGTH 44.190246
      NAME "trap_drums_hard"
      VOLPAN 1 0 1 -1
      <SOURCE MIDI
        HASDATA 1 960 QN
        E 0 c9 00 00
        E 61440 99 2a 60
        E 0 99 24 60
        E 20 99 3f 74
        E 96 89 2a 00
        E 171 89 24 00
        E 193 99 2a 60
        E 48 89 2a 00
        E 12 99 2a 60
        E 48 89 2a 00
        E 12 99 2a 63
        E 48 89 2a 00
        E 13 99 2a 60
        E 48 89 2a 00
        E 12 99 25 60
        E 78 89 25 00
        E 161 99 27 7d
        E 0 99 26 77
        E 290 89 27 00
        E 1 89 26 00
        E 188 99 2a 60
        E 116 89 2a 00
        E 365 99 3f 7d
        E 0 99 2a 67
        E 4 89 3f 00
        E 111 89 2a 00
        E 365 99 24 67
        E 0 99 2a 67
        E 63 89 2a 00
        E 17 99 2a 60
        E 64 89 2a 00
        E 16 99 2d 60
        E 64 89 2d 00
        E 16 99 26 67
        E 49 89 24 00
        E 27 89 26 00
        E 163 99 27 72
        E 1 99 26 7d
        E 288 89 27 00
        E 4 89 26 00
        E 187 89 3f 00
        E 1 99 24 72
        E 0 99 2e 65
        E 239 89 2e 00
        E 50 89 24 00
        E 191 99 2e 63
        E 0 99 24 7b
        E 19 99 38 60
        E 222 89 2e 00
        E 46 89 24 00
        E 193 99 2a 6d
        E 116 89 2a 00
        E 364 99 26 60
        E 1 99 26 7c
        E 285 89 26 00
        E 0 89 26 00
        E 195 99 29 60
        E 65 89 29 00
        E 14 99 2a 65
        E 64 89 2a 00
        E 16 99 2a 6d
        E 64 89 2a 00
        E 16 99 26 60
        E 77 89 26 00
        E 147 89 38 00
        E 16 99 2a 60
        E 0 99 39 7d
        E 116 89 2a 00
        E 363 99 2a 60
        E 1 99 24 6d
        E 95 89 2a 00
        E 25 99 2a 60
        E 96 89 2a 00
        E 24 99 2a 60
        E 50 89 24 00
        E 46 89 2a 00
        E 24 99 2e 60
        E 96 89 2e 00
        E 24 99 26 60
        E 0 99 27 60
        E 285 89 26 00
        E 3 89 27 00
        E 188 89 39 00
        E 4 99 24 60
        E 0 99 27 60
        E 116 89 27 00
        E 124 99 26 60
        E 48 89 24 00
        E 29 89 26 00
        E 163 99 2a 60
        E 0 99 24 60
        E 19 99 3c 60
        E 96 89 2a 00
        E 168 89 24 00
        E 196 99 2a 60
        E 96 89 2a 00
        E 26 99 2a 60
        E 96 89 2a 00
        E 23 99 2a 60
        E 97 89 2a 00
        E 24 99 2a 65
        E 95 89 2a 00
        E 23 99 27 63
        E 1 99 26 7d
        E 69 99 2a 77
        E 55 89 2a 00
        E 13 99 2c 60
        E 55 89 2c 00
        E 13 99 2c 7c
        E 54 89 2c 00
        E 15 99 2d 60
        E 13 89 26 00
        E 6 89 27 00
        E 36 89 2d 00
        E 13 99 2d 60
        E 55 89 2d 00
        E 15 99 2e 60
        E 56 89 2e 00
        E 11 99 2a 60
        E 95 89 2a 00
        E 26 99 2a 7b
        E 95 89 2a 00
        E 25 99 26 7d
        E 0 99 2a 6f
        E 57 89 26 00
        E 4 99 26 7d
        E 36 89 2a 00
        E 21 89 26 00
        E 2 99 2a 7d
        E 0 99 26 7d
        E 58 89 26 00
        E 38 89 2a 00
        E 24 99 3d 7a
        E 0 99 2a 6d
        E 1 89 3c 00
        E 116 89 2a 00
        E 123 99 25 60
        E 57 89 25 00
        E 3 99 24 60
        E 58 89 24 00
        E 122 99 24 7d
        E 0 99 2c 60
        E 97 89 2c 00
        E 22 99 2b 60
        E 96 89 2b 00
        E 24 99 2a 60
        E 44 89 24 00
        E 51 89 2a 00
        E 26 99 2a 6d
        E 95 89 2a 00
        E 25 99 27 69
        E 0 99 26 79
        E 288 89 27 00
        E 2 89 26 00
        E 190 99 24 79
        E 0 99 2a 60
        E 4 89 3d 00
        E 111 89 2a 00
        E 125 99 25 60
        E 44 89 24 00
        E 13 89 25 00
        E 3 99 26 60
        E 57 89 26 00
        E 3 99 25 60
        E 58 89 25 00
        E 62 99 24 7d
        E 1 99 29 60
        E 18 99 39 60
        E 77 89 29 00
        E 24 99 2a 60
        E 95 89 2a 00
        E 25 99 2a 60
        E 50 89 24 00
        E 46 89 2a 00
        E 24 99 2a 77
        E 95 89 2a 00
        E 24 99 2a 60
        E 96 89 2a 00
        E 25 99 2a 63
        E 97 89 2a 00
        E 23 99 2a 6d
        E 96 89 2a 00
        E 24 99 2a 6d
        E 96 89 2a 00
        E 23 99 27 7b
        E 1 99 26 7d
        E 120 99 2a 60
        E 97 89 2a 00
        E 23 99 2a 78
        E 47 89 26 00
        E 4 89 27 00
        E 46 89 2a 00
        E 23 99 2e 6d
        E 96 89 2e 00
        E 24 99 2a 60
        E 48 89 2a 00
        E 12 99 2a 60
        E 48 89 2a 00
        E 12 99 2a 60
        E 48 89 2a 00
        E 12 99 2a 69
        E 48 89 2a 00
        E 252 99 37 60
        E 0 99 2a 77
        E 3 89 39 00
        E 112 89 2a 00
        E 365 99 24 60
        E 0 99 2e 60
        E 241 89 2e 00
        E 48 89 24 00
        E 190 99 26 65
        E 1 99 27 60
        E 96 99 2a 60
        E 76 89 2a 00
        E 20 99 28 60
        E 77 89 28 00
        E 17 89 27 00
        E 2 89 26 00
        E 1 99 2a 60
        E 75 89 2a 00
        E 20 99 2a 60
        E 77 89 2a 00
        E 18 99 24 60
        E 1 99 2a 60
        E 10 89 37 00
        E 106 89 2a 00
        E 125 99 25 60
        E 50 89 24 00
        E 27 89 25 00
        E 161 99 24 60
        E 1 99 27 60
        E 19 99 3a 69
        E 96 89 27 00
        E 174 89 24 00
        E 191 99 2e 60
        E 240 89 2e 00
        E 240 99 27 60
        E 1 99 26 79
        E 284 89 27 00
        E 3 89 26 00
        E 192 99 2a 60
        E 114 89 2a 00
        E 366 99 2a 60
        E 0 99 3a 7d
        E 7 89 3a 00
        E 69 89 2a 00
        E 20 99 2a 60
        E 77 89 2a 00
        E 19 99 2b 60
        E 48 99 25 60
        E 28 89 2b 00
        E 19 99 2c 60
        E 29 89 25 00
        E 47 89 2c 00
        E 21 99 2a 65
        E 77 89 2a 00
        E 19 99 2a 60
        E 0 99 24 6f
        E 114 89 2a 00
        E 173 89 24 00
        E 193 99 26 72
        E 0 99 27 7d
        E 287 89 26 00
        E 1 89 27 00
        E 192 99 24 7d
        E 0 99 30 60
        E 30 89 3a 00
        E 210 99 26 6b
        E 1 89 30 00
        E 49 89 24 00
        E 27 89 26 00
        E 163 99 2a 60
        E 0 99 24 7d
        E 19 99 3f 6b
        E 44 89 2a 00
        E 17 99 2a 60
        E 64 89 2a 00
        E 16 99 2a 60
        E 65 89 2a 00
        E 65 89 24 00
        E 190 99 2a 75
        E 117 89 2a 00
        E 363 99 27 74
        E 0 99 26 7d
        E 287 89 27 00
        E 2 89 26 00
        E 192 99 27 60
        E 76 89 27 00
        E 19 99 27 60
        E 76 89 27 00
        E 19 99 2a 69
        E 77 89 2a 00
        E 20 99 2a 60
        E 77 89 2a 00
        E 19 99 2a 60
        E 77 89 2a 00
        E 12 89 3f 00
        E 7 99 3f 6f
        E 0 99 2a 60
        E 48 89 2a 00
        E 12 99 2a 63
        E 48 89 2a 00
        E 12 99 2a 60
        E 49 89 2a 00
        E 11 99 2a 60
        E 48 89 2a 00
        E 251 99 2a 60
        E 1 99 24 75
        E 47 89 2a 00
        E 13 99 2a 60
        E 49 89 2a 00
        E 11 99 2a 60
        E 48 89 2a 00
        E 12 99 2a 60
        E 48 89 2a 00
        E 58 89 24 00
        E 193 99 26 60
        E 1 99 27 6d
        E 284 89 26 00
        E 4 89 27 00
        E 187 89 3f 00
        E 5 99 24 60
        E 0 99 2e 60
        E 241 99 26 60
        E 1 89 2e 00
        E 44 89 24 00
        E 31 89 26 00
        E 163 99 24 60
        E 0 99 2a 60
        E 20 99 3d 77
        E 96 89 2a 00
        E 171 89 24 00
        E 193 99 2e 7d
        E 239 89 2e 00
        E 240 99 26 7d
        E 0 99 27 7d
        E 289 89 27 00
        E 4 89 26 00
        E 188 99 2b 6f
        E 115 89 2b 00
        E 344 89 3d 00
        E 21 99 2a 63
        E 0 99 3e 7c
        E 114 89 2a 00
        E 366 99 2a 74
        E 0 99 24 74
        E 64 89 2a 00
        E 16 99 28 60
        E 64 89 28 00
        E 16 99 2a 60
        E 64 89 2a 00
        E 61 89 24 00
        E 195 99 26 7d
        E 1 99 27 7a
        E 290 89 27 00
        E 2 89 26 00
        E 184 89 3e 00
        E 3 99 24 69
        E 0 99 2a 60
        E 117 89 2a 00
        E 170 89 24 00
        E 192 99 24 7d
        E 1 99 2a 60
        E 19 99 37 7d
        E 36 89 2a 00
        E 14 99 2a 60
        E 55 89 2a 00
        E 13 99 2a 60
        E 54 89 2a 00
        E 14 99 2a 60
        E 55 89 2a 00
        E 14 99 2a 7d
        E 15 89 24 00
        E 40 89 2a 00
        E 14 99 2a 65
        E 55 89 2a 00
        E 14 99 2a 7a
        E 55 89 2a 00
        E 13 99 2a 77
        E 116 89 2a 00
        E 364 99 27 7c
        E 0 99 26 7a
        E 287 89 26 00
        E 1 89 27 00
        E 192 99 2a 60
        E 116 89 2a 00
        E 364 99 25 60
        E 192 89 25 00
        E 288 99 25 63
        E 193 89 25 00
        E 764 89 37 00
        E 31203 99 24 6d
        E 1 99 2a 60
        E 18 99 3d 5c
        E 58 89 2a 00
        E 20 99 2a 60
        E 77 89 2a 00
        E 18 99 2a 60
        E 77 89 2a 00
        E 19 89 24 00
        E 0 99 2a 60
        E 75 89 2a 00
        E 22 99 2a 60
        E 77 89 2a 00
        E 18 99 2a 60
        E 77 89 2a 00
        E 19 99 2a 6d
        E 78 89 2a 00
        E 18 99 2a 72
        E 78 89 2a 00
        E 18 99 2a 60
        E 77 89 2a 00
        E 19 99 2a 60
        E 77 89 2a 00
        E 19 99 26 7b
        E 0 99 27 77
        E 287 89 27 00
        E 2 89 26 00
        E 191 99 2a 60
        E 65 89 2a 00
        E 15 99 2a 60
        E 64 89 2a 00
        E 16 99 2a 60
        E 64 89 2a 00
        E 16 99 26 60
        E 77 89 26 00
        E 163 99 3f 7d
        E 0 99 2a 60
        E 11 89 3d 00
        E 105 89 2a 00
        E 364 99 24 74
        E 1 99 2e 60
        E 238 99 26 60
        E 2 89 2e 00
        E 47 89 24 00
        E 28 89 26 00
        E 164 99 27 78
        E 0 99 26 6f
        E 80 99 29 60
        E 64 89 29 00
        E 16 99 28 60
        E 64 89 28 00
        E 59 89 26 00
        E 4 89 27 00
        E 191 89 3f 00
        E 2 99 26 60
        E 0 99 24 79
        E 114 89 26 00
        E 174 89 24 00
        E 192 99 24 7d
        E 0 99 2a 60
        E 19 99 39 5a
        E 36 89 2a 00
        E 14 99 2a 60
        E 55 89 2a 00
        E 14 99 2a 60
        E 54 89 2a 00
        E 14 99 29 60
        E 55 89 29 00
        E 13 99 2a 6d
        E 13 89 24 00
        E 42 89 2a 00
        E 14 99 2a 60
        E 55 89 2a 00
        E 13 99 2a 78
        E 55 89 2a 00
        E 14 99 2a 60
        E 97 89 2a 00
        E 23 99 2a 60
        E 98 89 2a 00
        E 23 99 2a 60
        E 96 89 2a 00
        E 23 99 2a 60
        E 96 89 2a 00
        E 24 99 27 60
        E 0 99 26 6d
        E 96 99 2a 67
        E 78 89 2a 00
        E 19 99 2a 65
        E 77 89 2a 00
        E 14 89 27 00
        E 3 89 26 00
        E 1 99 2a 6f
        E 76 89 2a 00
        E 21 99 2a 72
        E 76 89 2a 00
        E 19 99 2a 69
        E 113 89 2a 00
        E 327 89 39 00
        E 40 99 39 7d
        E 1 99 2a 69
        E 115 89 2a 00
        E 363 99 24 60
        E 2 99 2a 60
        E 116 89 2a 00
        E 169 89 24 00
        E 194 99 26 79
        E 0 99 24 60
        E 283 89 24 00
        E 8 89 26 00
        E 189 99 2a 60
        E 0 99 24 67
        E 1 89 39 00
        E 113 89 2a 00
        E 174 89 24 00
        E 191 99 24 60
        E 0 99 2a 60
        E 20 99 3e 72
        E 76 89 2a 00
        E 25 99 2a 60
        E 97 89 2a 00
        E 23 99 2a 60
        E 49 89 24 00
        E 46 89 2a 00
        E 26 99 2a 69
        E 95 89 2a 00
        E 23 99 2a 60
        E 64 89 2a 00
        E 17 99 2a 60
        E 64 89 2a 00
        E 16 99 2a 60
        E 64 89 2a 00
        E 255 99 27 60
        E 1 99 26 72
        E 284 89 27 00
        E 1 89 26 00
        E 195 99 2a 60
        E 115 89 2a 00
        E 345 89 3e 00
        E 20 99 2a 60
        E 1 99 3e 7d
        E 94 89 2a 00
        E 25 99 2a 60
        E 96 89 2a 00
        E 24 99 26 60
        E 0 99 2a 60
        E 76 89 26 00
        E 21 89 2a 00
        E 23 99 2a 60
        E 96 89 2a 00
        E 24 99 2a 60
        E 0 99 24 67
        E 115 89 2a 00
        E 172 89 24 00
        E 192 99 26 60
        E 2 99 27 72
        E 119 99 28 60
        E 95 89 28 00
        E 25 99 27 60
        E 45 89 26 00
        E 2 89 27 00
        E 48 89 27 00
        E 25 99 2e 6b
        E 96 89 2e 00
        E 5 89 3e 00
        E 19 99 24 6d
        E 0 99 2a 60
        E 115 89 2a 00
        E 172 89 24 00
        E 193 99 29 60
        E 0 99 24 63
        E 19 99 37 79
        E 78 89 29 00
        E 23 99 29 60
        E 96 89 29 00
        E 24 99 2a 6d
        E 51 89 24 00
        E 44 89 2a 00
        E 25 99 2a 63
        E 97 89 2a 00
        E 23 99 2a 60
        E 115 89 2a 00
        E 365 99 26 79
        E 1 99 27 79
        E 118 99 2a 63
        E 97 89 2a 00
        E 23 99 29 60
        E 48 89 27 00
        E 2 89 26 00
        E 47 89 29 00
        E 24 99 2a 6d
        E 96 89 2a 00
        E 23 99 2a 60
        E 48 89 2a 00
        E 13 99 2a 60
        E 48 89 2a 00
        E 12 99 2a 60
        E 48 89 2a 00
        E 12 99 29 60
        E 48 89 29 00
        E 12 99 26 60
        E 77 89 26 00
        E 143 89 37 00
        E 19 99 38 7d
        E 1 99 2a 63
        E 116 89 2a 00
        E 364 99 24 79
        E 0 99 2c 60
        E 115 89 2c 00
        E 175 89 24 00
        E 190 99 24 60
        E 0 99 26 72
        E 121 99 2b 60
        E 95 89 2b 00
        E 24 99 2c 60
        E 50 89 24 00
        E 0 89 26 00
        E 46 89 2c 00
        E 24 99 2c 60
        E 97 89 2c 00
        E 13 89 38 00
        E 10 99 2c 60
        E 0 99 25 60
        E 116 89 2c 00
        E 170 89 25 00
        E 194 99 24 60
        E 0 99 29 60
        E 20 99 3a 58
        E 44 89 29 00
        E 16 99 2a 60
        E 63 89 2a 00
        E 17 99 2a 60
        E 64 89 2a 00
        E 66 89 24 00
        E 190 99 2a 60
        E 65 89 2a 00
        E 15 99 2a 60
        E 65 89 2a 00
        E 15 99 2a 69
        E 63 89 2a 00
        E 257 99 26 79
        E 0 99 27 69
        E 288 89 27 00
        E 1 89 26 00
        E 191 99 2a 60
        E 115 89 2a 00
        E 362 89 3a 00
        E 2 99 2a 60
        E 1 99 3a 7d
        E 62 89 2a 00
        E 18 99 2a 63
        E 64 89 2a 00
        E 16 99 2a 74
        E 64 89 2a 00
        E 255 99 24 72
        E 1 99 2a 60
        E 115 89 2a 00
        E 172 89 24 00
        E 193 99 26 7b
        E 0 99 27 69
        E 120 99 2a 63
        E 96 89 2a 00
        E 24 99 2a 60
        E 46 89 26 00
        E 3 89 27 00
        E 47 89 2a 00
        E 24 99 28 60
        E 95 89 28 00
        E 25 99 2a 69
        E 0 99 24 63
        E 1 89 3a 00
        E 114 89 2a 00
        E 125 99 26 74
        E 49 89 24 00
        E 28 89 26 00
        E 163 99 2a 60
        E 0 99 24 60
        E 19 99 3f 6d
        E 76 89 2a 00
        E 25 99 2a 60
        E 96 89 2a 00
        E 23 99 2a 60
        E 48 89 24 00
        E 47 89 2a 00
        E 26 99 2a 6f
        E 95 89 2a 00
        E 25 99 2a 69
        E 95 89 2a 00
        E 25 99 2a 69
        E 95 89 2a 00
        E 25 99 2a 60
        E 97 89 2a 00
        E 24 99 2a 60
        E 96 89 2a 00
        E 23 99 27 60
        E 0 99 26 74
        E 68 99 2a 60
        E 54 89 2a 00
        E 16 99 28 60
        E 55 89 28 00
        E 14 99 2a 60
        E 55 89 2a 00
        E 13 99 2a 63
        E 10 89 27 00
        E 5 89 26 00
        E 39 89 2a 00
        E 14 99 29 60
        E 55 89 29 00
        E 13 99 2e 67
        E 55 89 2e 00
        E 14 99 2a 60
        E 116 89 2a 00
        E 328 89 3f 00
        E 35 99 3e 60
        E 1 99 2a 60
        E 76 89 2a 00
        E 20 99 2a 6d
        E 78 89 2a 00
        E 18 99 2a 60
        E 48 99 26 65
        E 29 89 2a 00
        E 18 99 2a 60
        E 28 89 26 00
        E 48 89 2a 00
        E 21 99 2a 60
        E 77 89 2a 00
        E 19 99 24 63
        E 1 99 2a 60
        E 48 89 2a 00
        E 11 99 2a 60
        E 48 89 2a 00
        E 12 99 2a 7d
        E 48 89 2a 00
        E 12 99 2a 60
        E 48 89 2a 00
        E 61 89 24 00
        E 190 99 27 6f
        E 1 99 26 77
        E 285 89 26 00
        E 1 89 27 00
        E 193 99 2a 60
        E 1 99 24 7b
        E 7 89 3e 00
        E 107 89 2a 00
        E 126 99 25 60
        E 51 89 24 00
        E 6 89 25 00
        E 4 99 26 60
        E 58 89 26 00
        E 1 99 25 60
        E 58 89 25 00
        E 62 99 2a 60
        E 0 99 24 60
        E 19 99 3d 75
        E 76 89 2a 00
        E 25 99 2a 60
        E 96 89 2a 00
        E 24 99 28 60
        E 53 89 24 00
        E 44 89 28 00
        E 23 99 2a 60
        E 95 89 2a 00
        E 26 99 2a 60
        E 77 89 2a 00
        E 19 99 2a 60
        E 78 89 2a 00
        E 17 99 2a 60
        E 48 99 26 60
        E 29 89 2a 00
        E 19 99 2a 60
        E 28 89 26 00
        E 49 89 2a 00
        E 19 99 2a 60
        E 77 89 2a 00
        E 19 99 26 6d
        E 0 99 27 78
        E 120 99 28 60
        E 97 89 28 00
        E 23 99 2a 63
        E 47 89 27 00
        E 2 89 26 00
        E 47 89 2a 00
        E 24 99 2a 65
        E 96 89 2a 00
        E 24 99 28 60
        E 64 89 28 00
        E 17 99 2a 60
        E 65 89 2a 00
        E 14 99 2a 60
        E 64 89 2a 00
        E 256 99 3e 7d
        E 0 99 2e 69
        E 15 89 3d 00
        E 223 89 2e 00
        E 242 99 24 60
        E 0 99 2b 60
        E 65 89 2b 00
        E 15 99 2b 60
        E 64 89 2b 00
        E 16 99 2b 60
        E 64 89 2b 00
        E 16 99 26 60
        E 50 89 24 00
        E 27 89 26 00
        E 164 99 27 60
        E 0 99 26 78
        E 95 99 2a 60
        E 76 89 2a 00
        E 20 99 2a 60
        E 76 89 2a 00
        E 20 99 2a 60
        E 3 89 26 00
        E 2 89 27 00
        E 72 89 2a 00
        E 19 99 2a 6d
        E 78 89 2a 00
        E 6 89 3e 00
        E 12 99 29 60
        E 0 99 24 6d
        E 116 89 29 00
        E 173 89 24 00
        E 191 99 24 7a
        E 0 99 29 60
        E 19 99 38 60
        E 95 89 29 00
        E 175 89 24 00
        E 191 99 2a 60
        E 64 89 2a 00
        E 16 99 2a 60
        E 64 89 2a 00
        E 15 99 2a 60
        E 65 89 2a 00
        E 256 99 26 69
        E 0 99 27 72
        E 96 99 2a 60
        E 76 89 2a 00
        E 20 99 29 60
        E 77 89 29 00
        E 15 89 27 00
        E 4 89 26 00
        E 0 99 28 60
        E 77 89 28 00
        E 19 99 2e 65
        E 77 89 2e 00
        E 19 99 29 60
        E 48 89 29 00
        E 12 99 29 60
        E 48 89 29 00
        E 12 99 29 60
        E 48 89 29 00
        E 12 99 2a 7a
        E 48 89 2a 00
        E 252 99 25 60
        E 195 89 25 00
        E 285 99 26 60
        E 192 89 26 00
        E 796 89 38 00
        E 0 b9 7b 00
        E 1 ff 2f 00
      >
    >
  >
  <TRACK
    NAME "cowbell_full"
    PEAKCOL 4284506208
    VOLPAN 1.000000 0 1 -1
    MIDIOUT -1
    ISBUS 0 0
    <ITEM
      POSITION 29.538588
      LENGTH 44.304657
      NAME "cowbell_full"
      VOLPAN 1 0 1 -1
      <SOURCE MIDI
        HASDATA 1 960 QN
        E 0 c7 00 00
        E 61440 97 2d 60
        E 0 97 2a 60
        E 0 97 26 60
        E 99 87 2a 00
        E 184 87 26 00
        E 197 97 4a 60
        E 0 97 3a 60
        E 1 97 28 60
        E 78 87 4a 00
        E 17 87 28 00
        E 49 87 3a 00
        E 335 97 23 60
        E 0 97 28 60
        E 0 97 37 60
        E 1 97 26 60
        E 94 87 28 00
        E 49 87 37 00
        E 43 87 23 00
        E 52 87 26 00
        E 241 97 35 60
        E 1 97 28 60
        E 98 87 28 00
        E 45 87 35 00
        E 335 97 32 60
        E 1 97 2d 60
        E 0 97 27 60
        E 1 97 2a 60
        E 23 87 2d 00
        E 72 87 2a 00
        E 47 87 32 00
        E 144 87 27 00
        E 194 97 30 60
        E 0 97 29 60
        E 95 87 29 00
        E 49 87 30 00
        E 335 97 37 60
        E 0 97 25 60
        E 1 97 24 60
        E 0 97 23 60
        E 95 87 25 00
        E 49 87 37 00
        E 53 87 24 00
        E 41 87 23 00
        E 242 97 25 60
        E 96 87 25 00
        E 176 87 2d 00
        E 207 97 31 60
        E 0 97 24 60
        E 1 97 24 60
        E 0 97 35 60
        E 95 87 24 00
        E 47 87 35 00
        E 147 87 24 00
        E 190 97 28 60
        E 1 97 31 60
        E 96 87 28 00
        E 44 87 31 00
        E 339 97 24 60
        E 0 97 23 60
        E 0 97 28 60
        E 0 97 2f 60
        E 97 87 28 00
        E 44 87 2f 00
        E 51 87 23 00
        E 52 87 24 00
        E 235 97 27 60
        E 1 97 34 60
        E 95 87 27 00
        E 50 87 34 00
        E 334 97 48 60
        E 1 97 24 60
        E 1 97 28 60
        E 41 87 31 00
        E 56 87 28 00
        E 188 87 24 00
        E 195 97 27 60
        E 97 87 27 00
        E 381 97 25 60
        E 1 97 24 60
        E 1 97 25 60
        E 0 97 35 60
        E 94 87 24 00
        E 49 87 35 00
        E 46 87 25 00
        E 50 97 3c 60
        E 2 87 25 00
        E 74 87 3c 00
        E 164 97 26 60
        E 1 97 30 60
        E 93 87 26 00
        E 51 87 30 00
        E 158 87 48 00
        E 177 97 3a 60
        E 0 97 20 60
        E 0 97 26 60
        E 97 87 26 00
        E 46 87 3a 00
        E 141 87 20 00
        E 196 97 25 60
        E 97 87 25 00
        E 383 97 27 60
        E 1 97 25 60
        E 95 87 27 00
        E 99 87 25 00
        E 285 97 33 60
        E 0 97 22 60
        E 96 87 22 00
        E 48 87 33 00
        E 96 97 49 60
        E 78 87 49 00
        E 162 97 21 60
        E 0 97 36 60
        E 0 97 30 60
        E 0 97 28 60
        E 96 87 28 00
        E 49 87 36 00
        E 143 87 21 00
        E 192 97 32 60
        E 0 97 2c 60
        E 96 87 2c 00
        E 46 87 32 00
        E 338 97 23 60
        E 0 97 39 60
        E 0 97 23 60
        E 1 97 25 60
        E 95 87 23 00
        E 47 87 39 00
        E 53 87 23 00
        E 41 87 25 00
        E 243 97 28 60
        E 1 97 39 60
        E 96 87 28 00
        E 46 87 39 00
        E 142 87 30 00
        E 195 97 3d 60
        E 0 97 39 60
        E 1 97 20 60
        E 0 97 25 60
        E 95 87 25 00
        E 48 87 39 00
        E 144 87 20 00
        E 192 97 28 60
        E 96 87 28 00
        E 384 97 27 60
        E 0 97 25 60
        E 1 97 26 60
        E 96 87 27 00
        E 98 87 26 00
        E 46 87 25 00
        E 238 97 32 60
        E 2 97 28 60
        E 99 87 28 00
        E 44 87 32 00
        E 336 97 39 60
        E 0 97 27 60
        E 1 97 26 60
        E 0 97 36 60
        E 9 87 3d 00
        E 85 87 27 00
        E 49 87 39 00
        E 147 87 26 00
        E 189 97 26 60
        E 96 87 26 00
        E 384 97 25 60
        E 0 97 26 60
        E 0 97 38 60
        E 1 97 27 60
        E 98 87 27 00
        E 43 87 38 00
        E 49 87 25 00
        E 43 87 26 00
        E 247 97 26 60
        E 96 87 26 00
        E 205 87 36 00
        E 178 97 3e 60
        E 1 97 24 60
        E 0 97 29 60
        E 0 97 31 60
        E 96 87 29 00
        E 49 87 31 00
        E 142 87 24 00
        E 192 97 41 60
        E 0 97 26 60
        E 77 87 41 00
        E 18 87 26 00
        E 385 97 24 60
        E 1 97 25 60
        E 0 97 24 60
        E 95 87 24 00
        E 96 87 25 00
        E 51 87 24 00
        E 237 97 32 60
        E 1 97 2a 60
        E 94 87 2a 00
        E 52 87 32 00
        E 93 97 46 4b
        E 76 87 46 00
        E 112 87 3e 00
        E 52 97 3c 60
        E 0 97 28 60
        E 1 97 34 60
        E 0 97 25 60
        E 96 87 28 00
        E 48 87 34 00
        E 152 87 25 00
        E 183 97 29 60
        E 0 97 33 60
        E 99 87 29 00
        E 43 87 33 00
        E 338 97 29 60
        E 1 97 27 60
        E 0 97 29 60
        E 96 87 29 00
        E 99 87 29 00
        E 44 87 27 00
        E 240 97 2f 60
        E 0 97 27 60
        E 99 87 27 00
        E 41 87 2f 00
        E 138 87 3c 00
        E 202 97 24 60
        E 0 97 31 60
        E 0 97 37 36
        E 0 97 26 60
        E 95 87 24 00
        E 48 87 37 00
        E 153 87 26 00
        E 183 97 2a 60
        E 2 97 39 3a
        E 95 87 2a 00
        E 46 87 39 00
        E 338 97 25 60
        E 0 97 24 60
        E 1 97 33 60
        E 0 97 28 60
        E 96 87 28 00
        E 45 87 33 00
        E 47 87 25 00
        E 49 87 24 00
        E 243 97 26 60
        E 94 87 26 00
        E 373 87 31 00
        E 12 97 38 60
        E 0 97 28 60
        E 0 97 31 60
        E 0 97 25 60
        E 96 87 28 00
        E 49 87 38 00
        E 147 87 25 00
        E 188 97 27 60
        E 96 87 27 00
        E 384 97 25 60
        E 0 97 24 60
        E 1 97 23 60
        E 95 87 25 00
        E 97 87 24 00
        E 46 87 23 00
        E 2 97 49 60
        E 75 87 49 00
        E 164 97 24 60
        E 1 97 34 60
        E 94 87 24 00
        E 49 87 34 00
        E 151 87 31 00
        E 185 97 32 60
        E 0 97 22 60
        E 0 97 25 60
        E 98 87 25 00
        E 194 87 22 00
        E 188 97 21 60
        E 1 97 32 60
        E 95 87 21 00
        E 50 87 32 00
        E 334 97 26 60
        E 0 97 29 60
        E 1 97 34 60
        E 0 97 21 60
        E 95 87 29 00
        E 48 87 34 00
        E 50 87 21 00
        E 48 87 26 00
        E 238 97 2d 60
        E 1 97 35 60
        E 94 87 2d 00
        E 53 87 35 00
        E 92 97 4a 49
        E 77 87 4a 00
        E 163 97 32 60
        E 1 97 28 60
        E 0 97 1d 60
        E 0 97 35 60
        E 20 87 32 00
        E 74 87 28 00
        E 51 87 35 00
        E 147 87 1d 00
        E 187 97 26 60
        E 1 97 31 60
        E 95 87 26 00
        E 49 87 31 00
        E 335 97 29 60
        E 0 97 36 60
        E 0 97 24 60
        E 0 97 24 60
        E 96 87 29 00
        E 47 87 36 00
        E 49 87 24 00
        E 48 97 49 60
        E 4 87 24 00
        E 75 87 49 00
        E 161 97 26 60
        E 97 87 26 00
        E 187 87 32 00
        E 196 97 28 60
        E 0 97 21 60
        E 0 97 3c 60
        E 0 97 32 60
        E 97 87 28 00
        E 43 87 32 00
        E 154 87 21 00
        E 185 97 28 60
        E 1 97 43 60
        E 0 97 36 60
        E 77 87 43 00
        E 18 87 28 00
        E 47 87 36 00
        E 338 97 25 60
        E 0 97 1f 60
        E 1 97 22 60
        E 96 87 22 00
        E 93 87 1f 00
        E 51 87 25 00
        E 239 97 25 60
        E 1 97 31 60
        E 94 87 25 00
        E 52 87 31 00
        E 93 97 43 36
        E 78 87 43 00
        E 162 97 24 60
        E 0 97 28 60
        E 0 97 31 60
        E 0 97 26 60
        E 26 87 3c 00
        E 71 87 28 00
        E 47 87 31 00
        E 147 87 24 00
        E 189 97 23 60
        E 1 97 2f 60
        E 95 87 23 00
        E 50 87 2f 00
        E 333 97 27 60
        E 1 97 30 60
        E 1 97 24 60
        E 0 97 25 60
        E 94 87 27 00
        E 51 87 30 00
        E 46 87 24 00
        E 49 97 44 1c
        E 2 87 25 00
        E 74 87 44 00
        E 163 97 31 60
        E 1 97 25 60
        E 97 87 25 00
        E 45 87 31 00
        E 132 87 26 00
        E 30925 97 26 60
        E 1 97 33 60
        E 0 97 25 60
        E 0 97 2d 60
        E 97 87 25 00
        E 45 87 33 00
        E 141 87 26 00
        E 195 97 49 60
        E 1 97 3a 60
        E 1 97 27 60
        E 75 87 49 00
        E 21 87 27 00
        E 44 87 3a 00
        E 339 97 38 60
        E 0 97 2a 60
        E 0 97 25 60
        E 0 97 25 60
        E 95 87 2a 00
        E 49 87 38 00
        E 44 87 25 00
        E 53 87 25 00
        E 239 97 28 60
        E 0 97 30 60
        E 95 87 28 00
        E 49 87 30 00
        E 336 97 29 60
        E 0 97 24 60
        E 0 97 32 60
        E 16 87 2d 00
        E 78 87 29 00
        E 50 87 32 00
        E 143 87 24 00
        E 193 97 27 60
        E 96 87 27 00
        E 384 97 38 60
        E 0 97 25 60
        E 0 97 25 60
        E 1 97 24 60
        E 93 87 25 00
        E 51 87 38 00
        E 47 87 25 00
        E 48 87 24 00
        E 240 97 28 60
        E 1 97 3c 60
        E 95 87 28 00
        E 49 87 3c 00
        E 335 97 31 60
        E 0 97 28 60
        E 1 97 26 60
        E 0 97 31 60
        E 96 87 28 00
        E 46 87 31 00
        E 152 87 26 00
        E 184 97 38 60
        E 1 97 28 60
        E 95 87 28 00
        E 48 87 38 00
        E 337 97 24 60
        E 0 97 24 60
        E 0 97 24 60
        E 96 87 24 00
        E 96 87 24 00
        E 51 87 24 00
        E 237 97 29 60
        E 96 87 29 00
        E 145 97 43 60
        E 77 87 43 00
        E 162 97 26 60
        E 0 97 34 60
        E 1 97 28 60
        E 0 97 3d 60
        E 6 87 31 00
        E 92 87 28 00
        E 42 87 34 00
        E 140 87 26 00
        E 200 97 27 60
        E 95 87 27 00
        E 384 97 25 60
        E 0 97 25 60
        E 0 97 24 60
        E 1 97 30 60
        E 97 87 25 00
        E 46 87 30 00
        E 52 87 25 00
        E 46 87 24 00
        E 238 97 26 60
        E 96 87 26 00
        E 198 87 3d 00
        E 186 97 25 60
        E 0 97 32 60
        E 0 97 21 60
        E 0 97 32 60
        E 96 87 25 00
        E 50 87 32 00
        E 139 87 21 00
        E 195 97 32 60
        E 0 97 49 60
        E 1 97 27 60
        E 75 87 49 00
        E 21 87 27 00
        E 48 87 32 00
        E 335 97 34 60
        E 0 97 23 60
        E 0 97 27 60
        E 1 97 26 60
        E 96 87 26 00
        E 48 87 34 00
        E 47 87 27 00
        E 48 87 23 00
        E 240 97 27 60
        E 95 87 27 00
        E 145 97 49 38
        E 77 87 49 00
        E 138 87 32 00
        E 25 97 33 60
        E 0 97 26 60
        E 0 97 31 60
        E 96 87 26 00
        E 49 87 33 00
        E 335 97 30 60
        E 0 97 24 60
        E 96 87 24 00
        E 50 87 30 00
        E 334 97 25 60
        E 0 97 24 60
        E 1 97 2a 60
        E 0 97 31 60
        E 94 87 2a 00
        E 54 87 31 00
        E 41 87 24 00
        E 50 97 48 60
        E 3 87 25 00
        E 73 87 48 00
        E 164 97 23 60
        E 97 87 23 00
        E 160 87 31 00
        E 224 97 26 60
        E 0 97 26 60
        E 0 97 32 60
        E 96 87 26 00
        E 192 87 26 00
        E 191 97 27 60
        E 1 97 31 60
        E 94 87 27 00
        E 49 87 31 00
        E 336 97 25 60
        E 0 97 27 60
        E 0 97 25 60
        E 1 97 33 60
        E 94 87 27 00
        E 48 87 33 00
        E 47 87 25 00
        E 54 87 25 00
        E 236 97 29 60
        E 95 87 29 00
        E 334 87 32 00
        E 50 97 26 60
        E 1 97 3c 60
        E 1 97 28 60
        E 97 87 28 00
        E 190 87 26 00
        E 192 97 25 60
        E 0 97 31 60
        E 96 87 25 00
        E 49 87 31 00
        E 335 97 25 60
        E 0 97 2d 60
        E 0 97 25 60
        E 1 97 20 60
        E 92 87 25 00
        E 52 87 2d 00
        E 49 87 20 00
        E 43 87 25 00
        E 244 97 25 60
        E 95 87 25 00
        E 171 87 3c 00
        E 213 97 25 60
        E 0 97 32 60
        E 0 97 23 60
        E 1 97 25 60
        E 97 87 23 00
        E 46 87 32 00
        E 148 87 25 00
        E 187 97 3f 60
        E 2 97 27 60
        E 0 97 44 2d
        E 76 87 44 00
        E 21 87 27 00
        E 46 87 3f 00
        E 335 97 24 60
        E 1 97 25 60
        E 1 97 37 60
        E 0 97 23 60
        E 94 87 24 00
        E 51 87 37 00
        E 45 87 25 00
        E 50 87 23 00
        E 239 97 27 60
        E 96 87 27 00
        E 384 97 34 60
        E 0 97 31 60
        E 1 97 25 60
        E 0 97 25 60
        E 16 87 25 00
        E 80 87 25 00
        E 49 87 31 00
        E 142 87 25 00
        E 193 97 28 60
        E 0 97 33 60
        E 96 87 28 00
        E 48 87 33 00
        E 335 97 24 60
        E 0 97 25 60
        E 0 97 25 60
        E 96 87 25 00
        E 93 87 24 00
        E 51 87 25 00
        E 240 97 27 60
        E 0 97 30 60
        E 96 87 27 00
        E 45 87 30 00
        E 146 87 34 00
        E 193 97 31 60
        E 1 97 31 60
        E 0 97 26 60
        E 0 97 25 60
        E 96 87 25 00
        E 45 87 31 00
        E 142 87 26 00
        E 196 97 3a 60
        E 0 97 29 60
        E 98 87 29 00
        E 44 87 3a 00
        E 338 97 21 60
        E 0 97 32 60
        E 0 97 24 60
        E 0 97 26 60
        E 98 87 24 00
        E 45 87 32 00
        E 49 87 21 00
        E 45 87 26 00
        E 243 97 33 60
        E 0 97 28 60
        E 96 87 28 00
        E 49 87 33 00
        E 334 97 3a 60
        E 1 97 24 60
        E 0 97 26 60
        E 1 97 34 60
        E 15 87 31 00
        E 82 87 24 00
        E 47 87 3a 00
        E 139 87 26 00
        E 196 97 27 60
        E 0 97 38 60
        E 95 87 27 00
        E 51 87 38 00
        E 333 97 27 60
        E 1 97 39 60
        E 0 97 24 60
        E 1 97 24 60
        E 96 87 24 00
        E 47 87 39 00
        E 46 87 27 00
        E 50 87 24 00
        E 0 97 4a 60
        E 76 87 4a 00
        E 164 97 36 60
        E 1 97 29 60
        E 98 87 29 00
        E 48 87 36 00
        E 165 87 34 00
        E 168 97 31 60
        E 0 97 20 60
        E 0 97 32 60
        E 1 97 29 60
        E 97 87 29 00
        E 49 87 32 00
        E 138 87 20 00
        E 195 97 27 60
        E 0 97 31 60
        E 1 97 49 60
        E 79 87 49 00
        E 15 87 27 00
        E 48 87 31 00
        E 337 97 26 60
        E 0 97 26 60
        E 0 97 24 60
        E 1 97 31 60
        E 96 87 26 00
        E 46 87 31 00
        E 50 87 26 00
        E 49 87 24 00
        E 238 97 33 60
        E 1 97 26 60
        E 96 87 26 00
        E 49 87 33 00
        E 94 97 49 60
        E 77 87 49 00
        E 163 87 31 00
        E 0 97 26 60
        E 0 97 24 60
        E 1 97 34 60
        E 97 87 26 00
        E 46 87 34 00
        E 142 87 24 00
        E 194 97 31 60
        E 1 97 26 60
        E 96 87 26 00
        E 49 87 31 00
        E 333 97 24 60
        E 1 97 29 60
        E 0 97 24 60
        E 0 97 32 60
        E 96 87 29 00
        E 48 87 32 00
        E 45 87 24 00
        E 47 87 24 00
        E 4 97 45 60
        E 77 87 45 00
        E 163 97 26 60
        E 98 87 26 00
        E 382 97 26 60
        E 0 97 31 60
        E 0 97 31 60
        E 1 97 28 60
        E 96 87 26 00
        E 46 87 31 00
        E 141 87 28 00
        E 196 97 28 60
        E 96 87 28 00
        E 384 97 30 60
        E 0 97 20 60
        E 0 97 25 60
        E 1 97 26 60
        E 97 87 25 00
        E 43 87 30 00
        E 50 87 20 00
        E 49 87 26 00
        E 240 97 29 60
        E 0 97 30 60
        E 96 87 29 00
        E 48 87 30 00
        E 97 97 3d 60
        E 76 87 3d 00
        E 147 87 31 00
        E 16 97 30 60
        E 0 97 32 60
        E 0 97 2a 60
        E 1 97 25 60
        E 97 87 25 00
        E 44 87 32 00
        E 144 87 2a 00
        E 194 97 31 60
        E 1 97 25 60
        E 96 87 25 00
        E 48 87 31 00
        E 335 97 24 60
        E 1 97 28 60
        E 0 97 25 60
        E 96 87 28 00
        E 98 87 25 00
        E 46 87 24 00
        E 239 97 24 60
        E 0 97 3d 60
        E 96 87 24 00
        E 47 87 3d 00
        E 123 87 30 00
        E 0 b7 7b 00
        E 1 ff 2f 00
      >
    >
  >
  <TRACK
    NAME "lead"
    PEAKCOL 4284506208
    VOLPAN 1.000000 0 1 -1
    MIDIOUT -1
    ISBUS 0 0
    <ITEM
      POSITION 29.545184
      LENGTH 44.213445
      NAME "lead"
      VOLPAN 1 0 1 -1
      <SOURCE MIDI
        HASDATA 1 960 QN
        E 0 c8 51 00
        E 61454 98 3e 60
        E 228 88 3e 00
        E 238 98 42 60
        E 98 88 42 00
        E 392 98 3c 54
        E 233 88 3c 00
        E 205 98 42 58
        E 110 88 42 00
        E 415 98 3d 60
        E 216 88 3d 00
        E 252 98 40 60
        E 103 88 40 00
        E 365 98 3d 60
        E 224 88 3d 00
        E 262 98 39 60
        E 115 88 39 00
        E 356 98 44 60
        E 248 88 44 00
        E 178 98 43 67
        E 89 88 43 00
        E 448 98 3c 60
        E 248 88 3c 00
        E 240 98 3d 4f
        E 113 88 3d 00
        E 366 98 3e 60
        E 252 88 3e 00
        E 192 98 45 60
        E 92 88 45 00
        E 455 98 3d 60
        E 217 88 3d 00
        E 238 98 3e 60
        E 92 88 3e 00
        E 411 98 3e 4b
        E 226 88 3e 00
        E 199 98 3e 51
        E 105 88 3e 00
        E 419 98 3d 54
        E 255 88 3d 00
        E 228 98 3e 69
        E 78 88 3e 00
        E 376 98 3c 60
        E 258 88 3c 00
        E 217 98 40 60
        E 79 88 40 00
        E 406 98 3c 60
        E 241 88 3c 00
        E 268 98 44 72
        E 109 88 44 00
        E 358 98 4a 42
        E 254 88 4a 00
        E 230 98 45 60
        E 98 88 45 00
        E 364 98 49 60
        E 246 88 49 00
        E 278 98 49 60
        E 84 88 49 00
        E 370 98 49 40
        E 248 88 49 00
        E 228 98 42 60
        E 74 88 42 00
        E 425 98 44 49
        E 240 88 44 00
        E 196 98 48 60
        E 78 88 48 00
        E 420 98 4b 60
        E 253 88 4b 00
        E 240 98 42 69
        E 109 88 42 00
        E 387 98 44 51
        E 196 88 44 00
        E 242 98 44 65
        E 108 88 44 00
        E 399 98 44 60
        E 211 88 44 00
        E 248 98 4d 60
        E 119 88 4d 00
        E 378 98 49 69
        E 236 88 49 00
        E 208 98 43 60
        E 112 88 43 00
        E 425 98 49 4b
        E 271 88 49 00
        E 162 98 4a 60
        E 77 88 4a 00
        E 399 98 4a 60
        E 220 88 4a 00
        E 272 98 49 65
        E 98 88 49 00
        E 385 98 42 60
        E 247 88 42 00
        E 231 98 3e 60
        E 95 88 3e 00
        E 376 98 3c 60
        E 255 88 3c 00
        E 247 98 39 60
        E 54 88 39 00
        E 395 98 3d 60
        E 264 88 3d 00
        E 296 98 3e 6b
        E 73 88 3e 00
        E 348 98 3d 60
        E 253 88 3d 00
        E 230 98 41 60
        E 112 88 41 00
        E 378 98 43 60
        E 239 88 43 00
        E 225 98 3d 60
        E 112 88 3d 00
        E 361 98 41 60
        E 230 88 41 00
        E 259 98 4a 60
        E 102 88 4a 00
        E 366 98 49 60
        E 235 88 49 00
        E 258 98 39 60
        E 95 88 39 00
        E 409 98 3d 72
        E 246 88 3d 00
        E 211 98 40 5c
        E 130 88 40 00
        E 324 98 3c 60
        E 246 88 3c 00
        E 270 98 38 60
        E 48 88 38 00
        E 388 98 39 60
        E 207 88 39 00
        E 301 98 44 60
        E 136 88 44 00
        E 31098 98 39 60
        E 264 88 39 00
        E 191 98 41 60
        E 73 88 41 00
        E 447 98 39 60
        E 225 88 39 00
        E 220 98 41 4b
        E 136 88 41 00
        E 335 98 38 60
        E 206 88 38 00
        E 278 98 38 60
        E 87 88 38 00
        E 377 98 3e 60
        E 281 88 3e 00
        E 230 98 38 60
        E 80 88 38 00
        E 399 98 44 4f
        E 238 88 44 00
        E 234 98 3d 74
        E 112 88 3d 00
        E 356 98 3e 60
        E 271 88 3e 00
        E 189 98 3d 60
        E 94 88 3d 00
        E 405 98 3e 60
        E 266 88 3e 00
        E 210 98 3a 60
        E 103 88 3a 00
        E 371 98 42 60
        E 236 88 42 00
        E 262 98 4a 60
        E 111 88 4a 00
        E 341 98 4a 60
        E 264 88 4a 00
        E 224 98 4a 60
        E 95 88 4a 00
        E 414 98 48 67
        E 240 88 48 00
        E 192 98 4c 56
        E 103 88 4c 00
        E 453 98 4a 54
        E 254 88 4a 00
        E 207 98 4b 5a
        E 71 88 4b 00
        E 339 98 49 54
        E 243 88 49 00
        E 293 98 4b 60
        E 95 88 4b 00
        E 405 98 51 54
        E 249 88 51 00
        E 179 98 44 5a
        E 143 88 44 00
        E 332 98 49 60
        E 224 88 49 00
        E 316 98 50 6d
        E 81 88 50 00
        E 311 98 49 77
        E 253 88 49 00
        E 291 98 4e 5e
        E 77 88 4e 00
        E 389 98 49 60
        E 292 88 49 00
        E 222 98 4d 60
        E 117 88 4d 00
        E 340 98 51 20
        E 245 88 51 00
        E 209 98 44 60
        E 112 88 44 00
        E 399 98 4f 6d
        E 225 88 4f 00
        E 245 98 50 4b
        E 143 88 50 00
        E 367 98 44 5a
        E 251 88 44 00
        E 183 98 50 67
        E 95 88 50 00
        E 388 98 50 60
        E 264 88 50 00
        E 233 98 4f 60
        E 105 88 4f 00
        E 416 98 4a 49
        E 248 88 4a 00
        E 188 98 48 60
        E 99 88 48 00
        E 346 98 44 60
        E 251 88 44 00
        E 243 98 4a 7b
        E 70 88 4a 00
        E 396 98 49 7a
        E 224 88 49 00
        E 303 98 4d 5e
        E 123 88 4d 00
        E 365 98 49 4b
        E 252 88 49 00
        E 179 98 4b 60
        E 92 88 4b 00
        E 434 98 49 60
        E 224 88 49 00
        E 249 98 49 60
        E 82 88 49 00
        E 408 98 4a 4b
        E 234 88 4a 00
        E 244 98 4b 5e
        E 84 88 4b 00
        E 384 98 43 60
        E 247 88 43 00
        E 254 98 4d 6f
        E 90 88 4d 00
        E 379 98 44 63
        E 228 88 44 00
        E 218 98 44 60
        E 87 88 44 00
        E 396 98 50 60
        E 256 88 50 00
        E 204 98 51 67
        E 96 88 51 00
        E 401 98 49 6b
        E 253 88 49 00
        E 215 98 49 7d
        E 78 88 49 00
        E 418 98 50 60
        E 245 88 50 00
        E 280 98 49 4b
        E 95 88 49 00
        E 371 98 4e 40
        E 244 88 4e 00
        E 217 98 49 60
        E 95 88 49 00
        E 0 b8 7b 00
        E 1 ff 2f 00
      >
    >
  >
  <TRACK
    NAME "ghost_snare"
    PEAKCOL 4290722362
    VOLPAN 1.000000 0 1 -1
    MIDIOUT -1
    ISBUS 0 0
    <ITEM
      POSITION 29.766965
      LENGTH 42.716724
      NAME "ghost_snare"
      VOLPAN 1 0 1 -1
      <SOURCE MIDI
        HASDATA 1 960 QN
        E 0 c9 00 00
        E 61915 99 25 60
        E 76 89 25 00
        E 288 99 26 60
        E 77 89 26 00
        E 1480 99 24 60
        E 77 89 24 00
        E 175 99 24 60
        E 77 89 24 00
        E 40 99 25 60
        E 77 89 25 00
        E 1838 99 24 60
        E 77 89 24 00
        E 1727 99 25 60
        E 76 89 25 00
        E 45 99 24 60
        E 77 89 24 00
        E 3397 99 24 60
        E 77 89 24 00
        E 1842 99 25 60
        E 77 89 25 00
        E 287 99 24 60
        E 77 89 24 00
        E 1722 99 26 60
        E 77 89 26 00
        E 45 99 25 60
        E 76 89 25 00
        E 9166 99 26 60
        E 77 89 26 00
        E 35 99 26 60
        E 76 89 26 00
        E 1963 99 25 60
        E 77 89 25 00
        E 1729 99 24 60
        E 77 89 24 00
        E 39 99 23 60
        E 79 89 23 00
        E 1723 99 25 60
        E 77 89 25 00
        E 46 99 26 60
        E 76 89 26 00
        E 49 99 24 60
        E 76 89 24 00
        E 32317 99 26 60
        E 78 89 26 00
        E 35 99 25 60
        E 75 89 25 00
        E 1727 99 24 60
        E 77 89 24 00
        E 1730 99 22 60
        E 78 89 22 00
        E 1835 99 24 60
        E 77 89 24 00
        E 1848 99 26 60
        E 77 89 26 00
        E 171 99 25 60
        E 77 89 25 00
        E 1590 99 26 60
        E 76 89 26 00
        E 4006 99 25 60
        E 77 89 25 00
        E 1852 99 26 60
        E 77 89 26 00
        E 1962 99 25 60
        E 77 89 25 00
        E 1830 99 25 60
        E 76 89 25 00
        E 1497 99 25 60
        E 76 89 25 00
        E 40 99 25 60
        E 76 89 25 00
        E 43 99 25 60
        E 78 89 25 00
        E 1603 99 25 60
        E 77 89 25 00
        E 287 99 26 60
        E 77 89 26 00
        E 3521 99 24 60
        E 77 89 24 00
        E 40 99 26 60
        E 77 89 26 00
        E 0 b9 7b 00
        E 1 ff 2f 00
      >
    >
  >
  <TRACK
    NAME "lead_soft"
    PEAKCOL 4284506208
    VOLPAN 1.000000 0 1 -1
    MIDIOUT -1
    ISBUS 0 0
    <ITEM
      POSITION 44.310625
      LENGTH 14.932555
      NAME "lead_soft"
      VOLPAN 1 0 1 -1
      <SOURCE MIDI
        HASDATA 1 960 QN
        E 0 ca 51 00
        E 92166 9a 3b 60
        E 981 9a 3c 60
        E 118 8a 3b 00
        E 777 9a 3a 60
        E 257 8a 3c 00
        E 761 9a 3e 60
        E 38 8a 3a 00
        E 891 9a 41 3c
        E 106 8a 3e 00
        E 878 9a 3e 38
        E 35 8a 41 00
        E 925 9a 48 60
        E 209 8a 3e 00
        E 760 9a 48 60
        E 144 8a 48 00
        E 836 9a 44 24
        E 193 8a 48 00
        E 682 9a 49 60
        E 193 8a 44 00
        E 765 9a 3d 60
        E 141 8a 49 00
        E 838 9a 40 60
        E 125 8a 3d 00
        E 884 9a 4a 20
        E 128 8a 40 00
        E 853 9a 49 49
        E 72 8a 4a 00
        E 877 9a 48 42
        E 143 8a 49 00
        E 776 9a 44 60
        E 173 8a 48 00
        E 785 9a 45 60
        E 166 8a 44 00
        E 835 9a 41 20
        E 105 8a 45 00
        E 851 9a 38 60
        E 138 8a 41 00
        E 782 9a 3f 60
        E 185 8a 38 00
        E 765 9a 48 60
        E 171 8a 3f 00
        E 823 9a 47 60
        E 101 8a 48 00
        E 790 9a 40 60
        E 271 8a 47 00
        E 773 9a 4a 33
        E 78 8a 40 00
        E 860 9a 3d 60
        E 149 8a 4a 00
        E 782 9a 3e 60
        E 261 8a 3d 00
        E 674 9a 45 60
        E 195 8a 3e 00
        E 793 9a 4b 60
        E 74 8a 45 00
        E 876 9a 48 60
        E 185 8a 4b 00
        E 775 9a 49 4b
        E 168 8a 48 00
        E 803 9a 49 60
        E 156 8a 49 00
        E 816 9a 49 60
        E 100 8a 49 00
        E 1007 8a 49 00
        E 0 ba 7b 00
        E 1 ff 2f 00
      >
    >
  >
  <TRACK
    NAME "bass_808_soft"
    PEAKCOL 4286528191
    VOLPAN 1.000000 0 1 -1
    MIDIOUT -1
    ISBUS 0 0
    <ITEM
      POSITION 73.849965
      LENGTH 7.395244
      NAME "bass_808_soft"
      VOLPAN 1 0 1 -1
      <SOURCE MIDI
        HASDATA 1 960 QN
        E 0 cb 26 00
        E 153608 9b 26 60
        E 2876 9b 24 1a
        E 85 8b 26 00
        E 632 9b 25 22
        E 2 8b 24 00
        E 50 8b 25 00
        E 8 9b 27 24
        E 50 8b 27 00
        E 11 9b 26 24
        E 50 8b 26 00
        E 8 9b 25 11
        E 50 8b 25 00
        E 14 9b 29 29
        E 2653 8b 29 00
        E 2 9b 28 1e
        E 36 9b 26 27
        E 15 8b 28 00
        E 35 8b 26 00
        E 22 9b 2a 2f
        E 49 8b 2a 00
        E 7 9b 2c 1c
        E 50 8b 2c 00
        E 3 9b 2d 2b
        E 726 8b 2d 00
        E 4 9b 2a 15
        E 51 8b 2a 00
        E 7 9b 2c 29
        E 51 8b 2c 00
        E 11 9b 27 11
        E 51 8b 27 00
        E 4 9b 25 20
        E 51 8b 25 00
        E 16 9b 25 29
        E 2824 8b 25 00
        E 51 9b 26 22
        E 759 8b 26 00
        E 195 9b 26 60
        E 2637 8b 26 00
        E 19 9b 25 13
        E 51 8b 25 00
        E 1 9b 29 29
        E 49 9b 28 15
        E 2 8b 29 00
        E 49 8b 28 00
        E 17 9b 29 13
        E 50 8b 29 00
        E 13 9b 29 0d
        E 777 8b 29 00
        E 0 bb 7b 00
        E 1 ff 2f 00
      >
    >
  >
  <TRACK
    NAME "impact"
    PEAKCOL 4284506208
    VOLPAN 1.000000 0 1 -1
    MIDIOUT -1
    ISBUS 0 0
    <ITEM
      POSITION 73.846154
      LENGTH 1.046154
      NAME "impact"
      VOLPAN 1 0 1 -1
      <SOURCE MIDI
        HASDATA 1 960 QN
        E 0 cc 67 00
        E 153600 9c 33 60
        E 480 8c 33 00
        E 0 9c 32 5c
        E 96 9c 31 60
        E 48 8c 32 00
        E 48 9c 30 60
        E 48 8c 31 00
        E 48 9c 30 60
        E 48 8c 30 00
        E 48 9c 30 60
        E 48 8c 30 00
        E 48 9c 30 60
        E 48 8c 30 00
        E 48 9c 30 60
        E 48 8c 30 00
        E 48 9c 30 60
        E 48 8c 30 00
        E 48 9c 30 60
        E 48 8c 30 00
        E 48 9c 30 60
        E 48 8c 30 00
        E 48 9c 30 60
        E 48 8c 30 00
        E 48 9c 30 60
        E 48 8c 30 00
        E 48 9c 30 60
        E 48 8c 30 00
        E 48 9c 30 60
        E 48 8c 30 00
        E 48 9c 30 60
        E 48 8c 30 00
        E 96 8c 30 00
        E 0 bc 7b 00
        E 1 ff 2f 00
      >
    >
  >
>
