<REAPER_PROJECT 0.1 "7.0" 1700000000
  TEMPO 120.000000 4 4
  SAMPLERATE 48000 0 0
  RENDER_FILE ""
  RENDER_FMT 0 2 0
  RENDER_1X 0
  RENDER_RANGE 1 0 90.060588 0 0
  RENDER_RESAMPLE 3 0 1
  <MASTERTRACK
    VOLPAN 1 0 1 -1
    DEFCHAN 0
  >
  <TRACK
    NAME "dark_pad"
    PEAKCOL 4284506208
    VOLPAN 1.000000 0 1 -1
    MIDIOUT -1
    ISBUS 0 0
    <ITEM
      POSITION 0.001840
      LENGTH 88.158749
      NAME "dark_pad"
      VOLPAN 1 0 1 -1
      <SOURCE MIDI
        HASDATA 1 960 QN
        E 0 c0 5c 00
        E 4 90 3c 11
        E 11 90 3c 11
        E 11 90 49 11
        E 10 90 3d 17
        E 5 90 3d 15
        E 16 90 48 0b
        E 16 90 55 11
        E 3434 80 49 00
        E 32 80 55 00
        E 61 80 48 00
        E 241 90 3d 20
        E 10 90 43 20
        E 18 90 44 1c
        E 13 90 54 22
        E 0 90 48 20
        E 1147 80 3d 00
        E 7 80 3d 00
        E 1 80 3c 00
        E 69 80 3c 00
        E 2479 80 54 00
        E 94 90 3d 55
        E 8 90 3e 11
        E 22 90 48 1e
        E 4 90 49 0f
        E 8 90 4a 09
        E 29 90 55 55
        E 860 80 43 00
        E 77 80 3d 00
        E 107 80 44 00
        E 43 80 48 00
        E 2288 80 49 00
        E 106 80 55 00
        E 295 90 3d 19
        E 9 90 3e 1e
        E 17 90 44 1c
        E 11 90 56 20
        E 5 90 49 22
        E 11 90 51 20
        E 18 90 5d 1c
        E 854 80 3d 00
        E 170 80 48 00
        E 101 80 3e 00
        E 53 80 4a 00
        E 1401 80 56 00
        E 8 80 5d 00
        E 46 80 51 00
        E 1012 80 3e 00
        E 26 80 3d 00
        E 43 80 44 00
        E 49 90 2e 55
        E 30 90 49 20
        E 34 80 49 00
        E 3375 80 49 00
        E 415 90 3c 55
        E 10 90 49 24
        E 3 90 3c 55
        E 13 90 48 1e
        E 14 90 49 1c
        E 15 90 55 1c
        E 935 80 2e 00
        E 2595 80 49 00
        E 24 80 49 00
        E 99 80 55 00
        E 119 90 3b 55
        E 17 90 3d 55
        E 14 90 3d 1c
        E 2 90 3c 55
        E 1200 80 3c 00
        E 44 80 48 00
        E 9 80 3c 00
        E 2322 80 3d 00
        E 228 90 3c 55
        E 31 90 4a 19
        E 19 90 53 1c
        E 878 80 3d 00
        E 147 80 3c 00
        E 73 80 3b 00
        E 2412 80 53 00
        E 285 90 3d 55
        E 26 90 49 1e
        E 967 80 4a 00
        E 312 80 3c 00
        E 2164 80 49 00
        E 374 90 2e 55
        E 8 90 3d 55
        E 18 90 38 55
        E 13 90 49 13
        E 30 90 50 24
        E 1053 80 3d 00
        E 2301 80 50 00
        E 440 90 3f 55
        E 44 90 55 19
        E 1026 80 2e 00
        E 111 80 49 00
        E 98 80 3d 00
        E 228 80 38 00
        E 2077 80 55 00
        E 230 90 3f 55
        E 14 90 38 55
        E 11 90 39 55
        E 5 90 49 1c
        E 10 90 43 1c
        E 1 90 3e 1c
        E 1074 80 3f 00
        E 1565 80 43 00
        E 15 80 49 00
        E 1045 80 39 00
        E 96 90 3d 55
        E 20 90 3c 55
        E 7 90 4a 1a
        E 7 90 3e 1c
        E 7 90 3d 55
        E 7 90 48 15
        E 15 90 49 13
        E 10 90 56 1a
        E 17 80 3e 00
        E 21 80 3f 00
        E 35 80 38 00
        E 3293 80 4a 00
        E 163 80 56 00
        E 17 80 49 00
        E 39 80 48 00
        E 178 90 30 55
        E 17 90 3f 1a
        E 15 90 49 28
        E 1 90 3e 20
        E 11 90 55 1e
        E 11 90 49 15
        E 11 90 4a 22
        E 1003 80 3d 00
        E 20 80 3c 00
        E 152 80 3e 00
        E 59 80 3d 00
        E 2073 80 55 00
        E 98 80 49 00
        E 142 80 4a 00
        E 228 90 38 55
        E 25 90 3f 55
        E 5 90 47 13
        E 2 90 4b 19
        E 17 90 4a 0b
        E 11 90 56 17
        E 14 90 54 1a
        E 960 80 3e 00
        E 70 80 30 00
        E 127 80 3f 00
        E 140 80 49 00
        E 2094 80 47 00
        E 37 80 56 00
        E 116 80 54 00
        E 230 90 3d 55
        E 8 90 31 55
        E 18 90 49 1c
        E 1 90 3d 55
        E 14 90 3c 55
        E 14 90 4a 1c
        E 853 80 38 00
        E 32 80 4a 00
        E 183 80 4b 00
        E 161 80 3f 00
        E 1339 80 4a 00
        E 127 80 49 00
        E 1002 80 3c 00
        E 103 80 3d 00
        E 12 80 31 00
        E 53 80 3d 00
        E 7594 90 34 55
        E 18 90 3d 55
        E 4708 80 3d 00
        E 192 80 34 00
        E 18139 90 38 55
        E 11 90 3d 55
        E 3857 90 49 20
        E 1051 80 38 00
        E 22 80 3d 00
        E 2738 90 3e 55
        E 27 90 55 1c
        E 1177 80 49 00
        E 2240 80 55 00
        E 382 90 3d 55
        E 14 90 39 55
        E 15 90 49 1e
        E 1186 80 3e 00
        E 2256 80 49 00
        E 1470 80 39 00
        E 173 80 3d 00
        E 2595 90 47 24
        E 1 90 45 2f
        E 14 90 57 28
        E 3478 80 47 00
        E 55 80 57 00
        E 280 90 49 55
        E 30 90 49 20
        E 1516 80 45 00
        E 2274 90 3e 55
        E 17 90 3e 55
        E 29 90 49 26
        E 916 80 49 00
        E 166 80 49 00
        E 1514 80 49 00
        E 1252 80 3e 00
        E 17 80 3e 00
        E 26817 90 34 55
        E 3768 80 34 00
        E 66 90 39 55
        E 14 90 39 55
        E 17 90 45 13
        E 14 90 51 1c
        E 3 90 45 0b
        E 9 90 50 0b
        E 19 90 56 19
        E 3470 80 50 00
        E 31 80 56 00
        E 81 80 51 00
        E 182 90 3d 55
        E 13 90 40 20
        E 17 90 49 24
        E 1 90 44 1a
        E 9 90 56 17
        E 5 90 4a 1a
        E 14 90 51 1c
        E 18 90 5b 0d
        E 872 80 39 00
        E 171 80 45 00
        E 27 80 39 00
        E 152 80 45 00
        E 2194 80 49 00
        E 51 80 51 00
        E 17 80 56 00
        E 75 80 5b 00
        E 204 90 3f 20
        E 23 90 3e 11
        E 5 90 4c 1c
        E 7 90 4b 13
        E 6 90 46 09
        E 33 90 58 19
        E 989 80 40 00
        E 53 80 44 00
        E 10 80 4a 00
        E 122 80 3d 00
        E 2148 80 58 00
        E 207 80 4c 00
        E 243 90 3e 22
        E 3 90 3f 17
        E 23 90 46 2b
        E 8 90 48 1a
        E 23 90 52 1c
        E 9 90 5b 0f
        E 842 80 3f 00
        E 87 80 46 00
        E 209 80 4b 00
        E 78 80 3e 00
        E 1504 80 5b 00
        E 8 80 52 00
        E 921 80 48 00
        E 128 80 46 00
        E 72 80 3e 00
        E 37 80 3f 00
        E 0 b0 7b 00
        E 1 ff 2f 00
      >
    >
  >
  <TRACK
    NAME "keys_comp"
    PEAKCOL 4284506208
    VOLPAN 1.000000 0 1 -1
    MIDIOUT -1
    ISBUS 0 0
    <ITEM
      POSITION 0.254783
      LENGTH 63.716276
      NAME "keys_comp"
      VOLPAN 1 0 1 -1
      <SOURCE MIDI
        HASDATA 1 960 QN
        E 0 c1 04 00
        E 489 91 45 1c
        E 414 81 45 00
        E 525 91 3f 55
        E 417 81 3f 00
        E 551 91 3d 55
        E 428 81 3d 00
        E 546 91 44 55
        E 205 81 44 00
        E 725 91 49 55
        E 35 91 3e 55
        E 382 81 49 00
        E 34 81 3e 00
        E 503 91 42 55
        E 29 91 3d 06
        E 405 81 3d 00
        E 26 81 42 00
        E 524 91 41 55
        E 3 91 3d 55
        E 400 81 3d 00
        E 57 81 41 00
        E 476 91 41 2d
        E 7 91 3e 06
        E 196 81 41 00
        E 50 81 3e 00
        E 705 91 3d 55
        E 47 91 3d 55
        E 384 81 3d 00
        E 56 81 3d 00
        E 489 91 33 55
        E 18 91 3c 55
        E 375 81 33 00
        E 78 81 3c 00
        E 507 91 37 24
        E 9 91 3c 13
        E 406 81 37 00
        E 13 81 3c 00
        E 520 91 36 1c
        E 9 91 3c 13
        E 203 81 3c 00
        E 18 81 36 00
        E 762 91 31 55
        E 10 91 31 55
        E 446 81 31 00
        E 35 81 31 00
        E 442 91 32 55
        E 4 91 32 55
        E 435 81 32 00
        E 12 81 32 00
        E 517 91 32 26
        E 2 91 2d 55
        E 428 81 32 00
        E 1 81 2d 00
        E 526 91 33 19
        E 20 91 31 0d
        E 197 81 31 00
        E 4 81 33 00
        E 753 91 42 2a
        E 450 81 42 00
        E 462 91 3e 55
        E 434 81 3e 00
        E 564 91 3d 55
        E 464 81 3d 00
        E 470 91 44 55
        E 212 81 44 00
        E 768 91 41 1c
        E 4 91 3e 55
        E 396 81 3e 00
        E 35 81 41 00
        E 485 91 3e 55
        E 35 91 42 55
        E 374 81 3e 00
        E 55 81 42 00
        E 520 91 3c 55
        E 2 91 3e 55
        E 405 81 3e 00
        E 54 81 3c 00
        E 518 91 40 55
        E 6 91 40 55
        E 207 81 40 00
        E 13 81 40 00
        E 725 91 3d 55
        E 9 91 3b 55
        E 422 81 3b 00
        E 48 81 3d 00
        E 501 91 33 55
        E 2 91 35 55
        E 422 81 33 00
        E 24 81 35 00
        E 490 91 3c 55
        E 8 91 34 55
        E 417 81 34 00
        E 40 81 3c 00
        E 488 91 38 55
        E 4 91 3b 55
        E 211 81 3b 00
        E 15 81 38 00
        E 756 91 30 55
        E 8 91 2b 55
        E 451 81 30 00
        E 37 81 2b 00
        E 442 91 33 55
        E 40 91 31 13
        E 417 81 33 00
        E 24 81 31 00
        E 485 91 32 55
        E 10 91 31 55
        E 400 81 31 00
        E 28 81 32 00
        E 513 91 35 55
        E 15 91 31 55
        E 197 81 35 00
        E 1 81 31 00
        E 760 91 2d 55
        E 7 91 31 55
        E 426 81 31 00
        E 15 81 2d 00
        E 500 91 31 55
        E 25 91 33 09
        E 412 81 33 00
        E 26 81 31 00
        E 503 91 36 55
        E 31 91 31 55
        E 423 81 36 00
        E 5 81 31 00
        E 488 91 39 55
        E 27 91 32 08
        E 170 81 32 00
        E 17 81 39 00
        E 754 91 31 55
        E 19 91 35 55
        E 414 81 31 00
        E 35 81 35 00
        E 476 91 32 55
        E 22 91 31 55
        E 383 81 32 00
        E 34 81 31 00
        E 521 91 31 55
        E 41 91 34 55
        E 385 81 31 00
        E 68 81 34 00
        E 463 91 35 55
        E 48 91 32 55
        E 168 81 35 00
        E 33 81 32 00
        E 760 91 30 55
        E 396 81 30 00
        E 527 91 31 55
        E 34 91 3e 55
        E 395 81 31 00
        E 28 81 3e 00
        E 485 91 31 55
        E 29 91 3c 55
        E 407 81 31 00
        E 6 81 3c 00
        E 550 91 31 55
        E 21 91 39 55
        E 170 81 31 00
        E 44 81 39 00
        E 702 91 31 55
        E 12 91 30 55
        E 414 81 31 00
        E 12 81 30 00
        E 547 91 31 55
        E 12 91 31 55
        E 408 81 31 00
        E 45 81 31 00
        E 474 91 32 55
        E 46 91 36 55
        E 382 81 32 00
        E 70 81 36 00
        E 471 91 33 55
        E 24 91 31 55
        E 202 81 31 00
        E 23 81 33 00
        E 46804 91 44 55
        E 429 81 44 00
        E 528 91 3d 55
        E 430 81 3d 00
        E 541 91 40 55
        E 438 81 40 00
        E 511 91 44 55
        E 218 81 44 00
        E 724 91 42 55
        E 15 91 3e 55
        E 403 81 42 00
        E 66 81 3e 00
        E 499 91 3f 55
        E 1 91 3d 55
        E 426 81 3f 00
        E 1 81 3d 00
        E 497 91 3d 55
        E 27 91 3f 55
        E 431 81 3d 00
        E 31 81 3f 00
        E 503 91 3d 55
        E 21 91 41 55
        E 150 81 3d 00
        E 70 81 41 00
        E 717 91 35 19
        E 0 91 3c 55
        E 416 81 35 00
        E 25 81 3c 00
        E 519 91 3e 55
        E 13 91 32 55
        E 402 81 3e 00
        E 42 81 32 00
        E 490 91 31 55
        E 16 91 3b 55
        E 386 81 31 00
        E 72 81 3b 00
        E 488 91 32 55
        E 15 91 3a 55
        E 199 81 32 00
        E 24 81 3a 00
        E 734 91 30 55
        E 33 91 32 55
        E 361 81 30 00
        E 80 81 32 00
        E 473 91 32 55
        E 9 91 31 55
        E 423 81 32 00
        E 51 81 31 00
        E 490 91 30 55
        E 5 91 30 55
        E 395 81 30 00
        E 35 81 30 00
        E 553 91 31 55
        E 14 91 30 55
        E 205 81 31 00
        E 35 81 30 00
        E 692 91 32 55
        E 10 91 31 55
        E 429 81 31 00
        E 44 81 32 00
        E 477 91 33 13
        E 4 91 30 55
        E 427 81 30 00
        E 17 81 33 00
        E 479 91 30 55
        E 5 91 31 55
        E 436 81 30 00
        E 7 81 31 00
        E 505 91 31 55
        E 35 91 35 55
        E 203 81 31 00
        E 22 81 35 00
        E 715 91 31 55
        E 16 91 35 15
        E 372 81 31 00
        E 59 81 35 00
        E 529 91 32 55
        E 7 91 32 55
        E 391 81 32 00
        E 26 81 32 00
        E 523 91 36 55
        E 12 91 33 17
        E 429 81 36 00
        E 21 81 33 00
        E 493 91 32 1a
        E 29 91 34 55
        E 186 81 32 00
        E 15 81 34 00
        E 728 91 30 55
        E 413 81 30 00
        E 548 91 3e 55
        E 34 91 30 55
        E 380 81 3e 00
        E 63 81 30 00
        E 489 91 3d 55
        E 12 91 3d 55
        E 396 81 3d 00
        E 18 81 3d 00
        E 534 91 39 55
        E 8 91 3b 55
        E 197 81 39 00
        E 26 81 3b 00
        E 714 91 31 55
        E 49 91 3c 55
        E 385 81 31 00
        E 77 81 3c 00
        E 464 91 32 55
        E 31 91 31 55
        E 400 81 32 00
        E 49 81 31 00
        E 475 91 31 55
        E 30 91 28 55
        E 389 81 31 00
        E 48 81 28 00
        E 514 91 31 17
        E 5 91 33 0d
        E 192 81 33 00
        E 29 81 31 00
        E 0 b1 7b 00
        E 1 ff 2f 00
      >
    >
  >
  <TRACK
    NAME "hihat"
    PEAKCOL 4290722362
    VOLPAN 1.000000 0 1 -1
    MIDIOUT -1
    ISBUS 0 0
    <ITEM
      POSITION 0.000000
      LENGTH 63.925111
      NAME "hihat"
      VOLPAN 1 0 1 -1
      <SOURCE MIDI
        HASDATA 1 960 QN
        E 0 c2 00 00
        E 0 92 2a 75
        E 145 82 2a 00
        E 335 92 2a 40
        E 114 82 2a 00
        E 46 92 2a 6f
        E 113 82 2a 00
        E 46 92 2a 73
        E 112 82 2a 00
        E 49 92 2a 59
        E 144 82 2a 00
        E 336 92 2d 62
        E 66 82 2d 00
        E 31 92 2b 77
        E 67 82 2b 00
        E 29 92 2b 6a
        E 68 82 2b 00
        E 27 92 2b 66
        E 67 82 2b 00
        E 29 92 2b 77
        E 67 82 2b 00
        E 30 92 2b 4d
        E 67 82 2b 00
        E 27 92 2d 5c
        E 66 82 2d 00
        E 55 92 2d 79
        E 67 82 2d 00
        E 28 92 2f 64
        E 67 82 2f 00
        E 6 92 30 6a
        E 67 82 30 00
        E 29 92 2a 59
        E 67 82 2a 00
        E 30 92 2a 62
        E 68 82 2a 00
        E 51 92 2a 71
        E 68 82 2a 00
        E 29 92 2a 7d
        E 68 82 2a 00
        E 2 92 2a 7d
        E 66 82 2a 00
        E 31 92 29 46
        E 67 82 29 00
        E 30 92 29 5e
        E 67 82 29 00
        E 52 92 29 6d
        E 67 82 29 00
        E 29 92 29 62
        E 67 82 29 00
        E 5 92 29 75
        E 67 82 29 00
        E 29 92 2a 68
        E 144 82 2a 00
        E 335 92 2a 59
        E 112 82 2a 00
        E 49 92 2a 55
        E 112 82 2a 00
        E 48 92 2a 7d
        E 111 82 2a 00
        E 49 92 2e 4d
        E 290 82 2e 00
        E 190 92 2e 7d
        E 291 82 2e 00
        E 189 92 2a 5b
        E 146 82 2a 00
        E 334 92 2a 5c
        E 66 82 2a 00
        E 30 92 2a 5b
        E 68 82 2a 00
        E 52 92 2a 66
        E 66 82 2a 00
        E 31 92 2a 75
        E 67 82 2a 00
        E 4 92 2a 71
        E 67 82 2a 00
        E 28 92 2a 55
        E 145 82 2a 00
        E 336 92 2e 73
        E 291 82 2e 00
        E 189 92 2e 37
        E 287 82 2e 00
        E 193 92 29 64
        E 67 82 29 00
        E 29 92 29 75
        E 67 82 29 00
        E 29 92 2b 7a
        E 67 82 2b 00
        E 29 92 2d 79
        E 68 82 2d 00
        E 28 92 30 7c
        E 66 82 30 00
        E 30 92 29 57
        E 68 82 29 00
        E 28 92 29 53
        E 67 82 29 00
        E 29 92 2b 57
        E 67 82 2b 00
        E 29 92 2d 66
        E 67 82 2d 00
        E 30 92 30 6a
        E 68 82 30 00
        E 27 92 29 5e
        E 67 82 29 00
        E 29 92 29 7d
        E 67 82 29 00
        E 29 92 29 59
        E 68 82 29 00
        E 28 92 29 44
        E 67 82 29 00
        E 29 92 29 77
        E 67 82 29 00
        E 29 92 2d 55
        E 67 82 2d 00
        E 29 92 2d 55
        E 67 82 2d 00
        E 29 92 2d 55
        E 66 82 2d 00
        E 30 92 2d 55
        E 67 82 2d 00
        E 29 92 2f 7c
        E 67 82 2f 00
        E 29 92 2a 64
        E 144 82 2a 00
        E 336 92 2a 7a
        E 146 82 2a 00
        E 333 92 2e 7d
        E 285 82 2e 00
        E 196 92 2e 55
        E 290 82 2e 00
        E 191 92 29 5b
        E 113 82 29 00
        E 46 92 29 59
        E 112 82 29 00
        E 49 92 29 7c
        E 112 82 29 00
        E 47 92 2a 5c
        E 144 82 2a 00
        E 336 92 2a 57
        E 144 82 2a 00
        E 336 92 2a 55
        E 143 82 2a 00
        E 338 92 2a 7c
        E 143 82 2a 00
        E 336 92 2a 55
        E 144 82 2a 00
        E 336 92 2a 4f
        E 145 82 2a 00
        E 335 92 2a 55
        E 143 82 2a 00
        E 337 92 2a 55
        E 144 82 2a 00
        E 336 92 2a 55
        E 142 82 2a 00
        E 338 92 28 55
        E 113 82 28 00
        E 48 92 29 55
        E 113 82 29 00
        E 46 92 2c 55
        E 112 82 2c 00
        E 48 92 2a 55
        E 113 82 2a 00
        E 47 92 2a 55
        E 111 82 2a 00
        E 49 92 2a 68
        E 110 82 2a 00
        E 49 92 26 55
        E 110 82 26 00
        E 51 92 27 55
        E 113 82 27 00
        E 47 92 29 55
        E 112 82 29 00
        E 48 92 2a 55
        E 68 82 2a 00
        E 28 92 2a 5c
        E 68 82 2a 00
        E 51 92 2a 60
        E 66 82 2a 00
        E 31 92 29 55
        E 67 82 29 00
        E 5 92 2a 6a
        E 67 82 2a 00
        E 29 92 28 55
        E 67 82 28 00
        E 29 92 28 55
        E 67 82 28 00
        E 53 92 28 55
        E 67 82 28 00
        E 29 92 29 55
        E 68 82 29 00
        E 4 92 29 55
        E 68 82 29 00
        E 28 92 2a 55
        E 144 82 2a 00
        E 336 92 29 55
        E 140 82 29 00
        E 340 92 2d 55
        E 287 82 2d 00
        E 193 92 29 60
        E 145 82 29 00
        E 335 92 2a 73
        E 143 82 2a 00
        E 337 92 27 66
        E 67 82 27 00
        E 29 92 27 6d
        E 67 82 27 00
        E 54 92 29 55
        E 67 82 29 00
        E 28 92 29 73
        E 68 82 29 00
        E 4 92 2b 7d
        E 67 82 2b 00
        E 30 92 27 4d
        E 112 82 27 00
        E 47 92 2c 6c
        E 113 82 2c 00
        E 47 92 2f 71
        E 115 82 2f 00
        E 45 92 29 57
        E 143 82 29 00
        E 337 92 2a 6a
        E 144 82 2a 00
        E 336 92 2a 55
        E 66 82 2a 00
        E 30 92 2b 48
        E 68 82 2b 00
        E 28 92 2b 44
        E 68 82 2b 00
        E 28 92 2a 44
        E 67 82 2a 00
        E 29 92 2a 40
        E 68 82 2a 00
        E 28 92 2b 55
        E 66 82 2b 00
        E 30 92 2b 55
        E 67 82 2b 00
        E 28 92 2b 53
        E 68 82 2b 00
        E 29 92 2b 59
        E 68 82 2b 00
        E 28 92 29 7a
        E 67 82 29 00
        E 29 92 28 55
        E 67 82 28 00
        E 29 92 28 55
        E 67 82 28 00
        E 29 92 28 55
        E 67 82 28 00
        E 29 92 29 6c
        E 66 82 29 00
        E 30 92 29 71
        E 68 82 29 00
        E 28 92 29 55
        E 67 82 29 00
        E 29 92 2a 55
        E 67 82 2a 00
        E 29 92 29 55
        E 68 82 29 00
        E 28 92 2a 5c
        E 68 82 2a 00
        E 28 92 2a 5c
        E 68 82 2a 00
        E 28 92 2e 7a
        E 283 82 2e 00
        E 197 92 2a 55
        E 145 82 2a 00
        E 335 92 28 55
        E 145 82 28 00
        E 335 92 2a 57
        E 143 82 2a 00
        E 337 92 28 6a
        E 67 82 28 00
        E 29 92 29 71
        E 67 82 29 00
        E 29 92 29 7b
        E 68 82 29 00
        E 28 92 29 7d
        E 68 82 29 00
        E 28 92 29 7d
        E 67 82 29 00
        E 29 92 29 55
        E 143 82 29 00
        E 337 92 29 5e
        E 145 82 29 00
        E 335 92 29 60
        E 144 82 29 00
        E 335 92 27 55
        E 67 82 27 00
        E 30 92 27 68
        E 67 82 27 00
        E 29 92 28 7a
        E 67 82 28 00
        E 29 92 29 7d
        E 68 82 29 00
        E 29 92 29 7d
        E 68 82 29 00
        E 28 92 27 55
        E 68 82 27 00
        E 27 92 28 55
        E 67 82 28 00
        E 28 92 28 55
        E 68 82 28 00
        E 29 92 29 55
        E 68 82 29 00
        E 28 92 2a 5c
        E 67 82 2a 00
        E 29 92 27 59
        E 67 82 27 00
        E 29 92 27 59
        E 67 82 27 00
        E 29 92 27 5b
        E 67 82 27 00
        E 29 92 27 4d
        E 67 82 27 00
        E 29 92 28 6d
        E 67 82 28 00
        E 29 92 29 55
        E 143 82 29 00
        E 336 92 28 5b
        E 144 82 28 00
        E 337 92 2c 55
        E 292 82 2c 00
        E 188 92 29 75
        E 143 82 29 00
        E 337 92 29 55
        E 146 82 29 00
        E 335 92 28 5c
        E 111 82 28 00
        E 48 92 2a 7d
        E 114 82 2a 00
        E 46 92 2a 79
        E 111 82 2a 00
        E 49 92 2a 55
        E 112 82 2a 00
        E 48 92 29 55
        E 111 82 29 00
        E 50 92 29 55
        E 112 82 29 00
        E 47 92 2d 6a
        E 289 82 2d 00
        E 190 92 2a 55
        E 144 82 2a 00
        E 337 92 2a 55
        E 143 82 2a 00
        E 337 92 2a 5c
        E 145 82 2a 00
        E 335 92 28 55
        E 143 82 28 00
        E 337 92 2d 55
        E 113 82 2d 00
        E 47 92 2d 5c
        E 111 82 2d 00
        E 49 92 2b 55
        E 112 82 2b 00
        E 49 92 2c 55
        E 112 82 2c 00
        E 47 92 2c 55
        E 111 82 2c 00
        E 49 92 2b 55
        E 113 82 2b 00
        E 47 92 2a 55
        E 113 82 2a 00
        E 47 92 2a 55
        E 111 82 2a 00
        E 48 92 2a 5c
        E 111 82 2a 00
        E 50 92 2a 55
        E 145 82 2a 00
        E 335 92 2a 55
        E 143 82 2a 00
        E 336 92 2a 55
        E 142 82 2a 00
        E 340 92 28 55
        E 67 82 28 00
        E 28 92 29 55
        E 67 82 29 00
        E 29 92 28 55
        E 67 82 28 00
        E 30 92 27 55
        E 67 82 27 00
        E 28 92 29 55
        E 68 82 29 00
        E 28 92 2a 55
        E 114 82 2a 00
        E 46 92 29 6a
        E 111 82 29 00
        E 50 92 2a 66
        E 112 82 2a 00
        E 46 92 29 55
        E 145 82 29 00
        E 335 92 2a 55
        E 144 82 2a 00
        E 337 92 2b 55
        E 145 82 2b 00
        E 334 92 29 55
        E 68 82 29 00
        E 29 92 29 55
        E 68 82 29 00
        E 27 92 29 55
        E 67 82 29 00
        E 29 92 29 55
        E 67 82 29 00
        E 29 92 29 7c
        E 67 82 29 00
        E 31 92 2a 5b
        E 143 82 2a 00
        E 336 92 2e 55
        E 289 82 2e 00
        E 191 92 2a 64
        E 146 82 2a 00
        E 334 92 28 77
        E 67 82 28 00
        E 29 92 29 73
        E 67 82 29 00
        E 29 92 29 7d
        E 67 82 29 00
        E 29 92 29 7c
        E 68 82 29 00
        E 28 92 29 7c
        E 67 82 29 00
        E 29 92 29 55
        E 144 82 29 00
        E 336 92 28 40
        E 112 82 28 00
        E 49 92 29 77
        E 111 82 29 00
        E 48 92 27 39
        E 112 82 27 00
        E 48 92 27 55
        E 143 82 27 00
        E 336 92 2f 55
        E 67 82 2f 00
        E 30 92 30 55
        E 68 82 30 00
        E 27 92 30 55
        E 67 82 30 00
        E 30 92 30 57
        E 67 82 30 00
        E 30 92 30 55
        E 68 82 30 00
        E 27 92 29 55
        E 144 82 29 00
        E 46416 92 2a 6a
        E 143 82 2a 00
        E 337 92 2b 35
        E 289 82 2b 00
        E 190 92 28 55
        E 67 82 28 00
        E 30 92 28 55
        E 67 82 28 00
        E 30 92 29 55
        E 66 82 29 00
        E 29 92 28 5e
        E 67 82 28 00
        E 29 92 2a 7d
        E 67 82 2a 00
        E 29 92 2a 55
        E 143 82 2a 00
        E 337 92 2a 62
        E 144 82 2a 00
        E 336 92 2a 7d
        E 143 82 2a 00
        E 338 92 2a 5e
        E 112 82 2a 00
        E 47 92 2a 6a
        E 112 82 2a 00
        E 47 92 2a 68
        E 110 82 2a 00
        E 51 92 2a 7a
        E 144 82 2a 00
        E 337 92 29 55
        E 68 82 29 00
        E 28 92 29 48
        E 67 82 29 00
        E 52 92 2a 57
        E 68 82 2a 00
        E 28 92 29 55
        E 66 82 29 00
        E 6 92 29 66
        E 68 82 29 00
        E 28 92 2a 5b
        E 143 82 2a 00
        E 337 92 2a 7d
        E 144 82 2a 00
        E 336 92 29 62
        E 144 82 29 00
        E 335 92 29 76
        E 67 82 29 00
        E 30 92 28 55
        E 67 82 28 00
        E 53 92 28 62
        E 68 82 28 00
        E 28 92 29 71
        E 67 82 29 00
        E 5 92 2a 7a
        E 68 82 2a 00
        E 28 92 2a 55
        E 141 82 2a 00
        E 339 92 2a 7d
        E 144 82 2a 00
        E 336 92 2a 4d
        E 144 82 2a 00
        E 336 92 2a 57
        E 144 82 2a 00
        E 335 92 2a 55
        E 112 82 2a 00
        E 49 92 2a 55
        E 110 82 2a 00
        E 50 92 2a 55
        E 112 82 2a 00
        E 47 92 29 73
        E 66 82 29 00
        E 30 92 29 73
        E 67 82 29 00
        E 30 92 27 60
        E 67 82 27 00
        E 29 92 29 7d
        E 67 82 29 00
        E 30 92 29 7d
        E 68 82 29 00
        E 27 92 29 55
        E 145 82 29 00
        E 335 92 28 71
        E 145 82 28 00
        E 335 92 31 55
        E 110 82 31 00
        E 50 92 32 55
        E 113 82 32 00
        E 47 92 2f 66
        E 110 82 2f 00
        E 50 92 27 55
        E 112 82 27 00
        E 49 92 29 7b
        E 112 82 29 00
        E 47 92 2a 6c
        E 113 82 2a 00
        E 47 92 2a 64
        E 143 82 2a 00
        E 337 92 2a 57
        E 144 82 2a 00
        E 336 92 2a 55
        E 67 82 2a 00
        E 29 92 2a 55
        E 68 82 2a 00
        E 28 92 2a 55
        E 68 82 2a 00
        E 29 92 29 55
        E 67 82 29 00
        E 28 92 29 55
        E 67 82 29 00
        E 29 92 2a 7d
        E 144 82 2a 00
        E 336 92 28 55
        E 113 82 28 00
        E 47 92 2b 57
        E 112 82 2b 00
        E 48 92 30 5b
        E 112 82 30 00
        E 48 92 2e 55
        E 291 82 2e 00
        E 189 92 28 55
        E 143 82 28 00
        E 337 92 28 42
        E 144 82 28 00
        E 337 92 28 55
        E 146 82 28 00
        E 333 92 29 73
        E 144 82 29 00
        E 336 92 2a 55
        E 144 82 2a 00
        E 336 92 2d 55
        E 286 82 2d 00
        E 195 92 2a 55
        E 67 82 2a 00
        E 28 92 2a 55
        E 67 82 2a 00
        E 30 92 2a 55
        E 67 82 2a 00
        E 29 92 2a 55
        E 67 82 2a 00
        E 28 92 2a 59
        E 67 82 2a 00
        E 28 92 29 5e
        E 112 82 29 00
        E 49 92 29 51
        E 111 82 29 00
        E 49 92 29 6d
        E 112 82 29 00
        E 48 92 28 55
        E 67 82 28 00
        E 29 92 2a 55
        E 67 82 2a 00
        E 30 92 2a 55
        E 67 82 2a 00
        E 28 92 2a 55
        E 66 82 2a 00
        E 30 92 29 55
        E 68 82 29 00
        E 28 92 29 55
        E 66 82 29 00
        E 29 92 2a 5c
        E 66 82 2a 00
        E 31 92 2a 7c
        E 67 82 2a 00
        E 30 92 28 53
        E 67 82 28 00
        E 28 92 29 7a
        E 67 82 29 00
        E 29 92 2e 55
        E 288 82 2e 00
        E 192 92 2d 7b
        E 290 82 2d 00
        E 190 92 2a 55
        E 67 82 2a 00
        E 29 92 2a 55
        E 67 82 2a 00
        E 29 92 2a 5b
        E 67 82 2a 00
        E 30 92 2a 57
        E 66 82 2a 00
        E 29 92 2a 6a
        E 68 82 2a 00
        E 28 92 28 7d
        E 145 82 28 00
        E 334 92 2a 55
        E 146 82 2a 00
        E 335 92 29 55
        E 144 82 29 00
        E 336 92 2a 5b
        E 144 82 2a 00
        E 336 92 2e 6a
        E 292 82 2e 00
        E 188 92 2a 55
        E 143 82 2a 00
        E 337 92 2a 55
        E 111 82 2a 00
        E 49 92 2a 59
        E 111 82 2a 00
        E 49 92 29 48
        E 113 82 29 00
        E 47 92 2a 5c
        E 144 82 2a 00
        E 336 92 2a 7a
        E 145 82 2a 00
        E 335 92 27 55
        E 68 82 27 00
        E 28 92 27 55
        E 68 82 27 00
        E 28 92 2a 55
        E 68 82 2a 00
        E 27 92 2b 57
        E 67 82 2b 00
        E 30 92 2e 60
        E 68 82 2e 00
        E 28 92 2d 7c
        E 288 82 2d 00
        E 192 92 2b 4f
        E 68 82 2b 00
        E 28 92 2b 46
        E 68 82 2b 00
        E 28 92 2b 6c
        E 68 82 2b 00
        E 28 92 2a 7d
        E 66 82 2a 00
        E 30 92 2a 6f
        E 67 82 2a 00
        E 29 92 2a 7d
        E 145 82 2a 00
        E 336 92 2a 7c
        E 143 82 2a 00
        E 336 92 2a 5e
        E 111 82 2a 00
        E 49 92 28 7a
        E 112 82 28 00
        E 48 92 29 7d
        E 112 82 29 00
        E 48 92 29 55
        E 145 82 29 00
        E 335 92 31 66
        E 68 82 31 00
        E 28 92 2c 62
        E 67 82 2c 00
        E 29 92 29 55
        E 67 82 29 00
        E 29 92 2a 55
        E 67 82 2a 00
        E 29 92 2a 75
        E 67 82 2a 00
        E 29 92 29 57
        E 146 82 29 00
        E 334 92 2d 48
        E 113 82 2d 00
        E 48 92 29 31
        E 113 82 29 00
        E 46 92 29 6c
        E 111 82 29 00
        E 48 92 29 55
        E 145 82 29 00
        E 336 92 2a 7a
        E 145 82 2a 00
        E 335 92 29 55
        E 144 82 29 00
        E 0 b2 7b 00
        E 1 ff 2f 00
      >
    >
  >
  <TRACK
    NAME "bass_808"
    PEAKCOL 4286528191
    VOLPAN 1.000000 0 1 -1
    MIDIOUT -1
    ISBUS 0 0
    <ITEM
      POSITION 8.001541
      LENGTH 55.729139
      NAME "bass_808"
      VOLPAN 1 0 1 -1
      <SOURCE MIDI
        HASDATA 1 960 QN
        E 0 c3 26 00
        E 15363 93 24 55
        E 1922 93 29 55
        E 8 83 24 00
        E 702 83 29 00
        E 7 93 29 55
        E 481 83 29 00
        E 718 93 31 55
        E 1892 83 31 00
        E 30 93 26 55
        E 705 83 26 00
        E 12 93 34 55
        E 486 83 34 00
        E 718 93 25 55
        E 1672 83 25 00
        E 7 93 29 55
        E 50 83 29 00
        E 7 93 2d 55
        E 50 83 2d 00
        E 10 93 2b 55
        E 51 83 2b 00
        E 12 93 2f 55
        E 51 83 2f 00
        E 5 93 2f 55
        E 477 83 2f 00
        E 9 93 2c 55
        E 50 83 2c 00
        E 11 93 2d 55
        E 51 83 2d 00
        E 2 93 28 55
        E 50 83 28 00
        E 14 93 28 55
        E 50 83 28 00
        E 13 93 25 55
        E 718 83 25 00
        E 478 93 2c 55
        E 1905 83 2c 00
        E 16 93 25 55
        E 713 83 25 00
        E 5 93 2c 55
        E 480 83 2c 00
        E 719 93 2b 55
        E 1630 83 2b 00
        E 54 93 28 55
        E 49 83 28 00
        E 8 93 2b 55
        E 50 83 2b 00
        E 6 93 2c 55
        E 51 83 2c 00
        E 11 93 30 55
        E 50 83 30 00
        E 9 93 31 55
        E 719 93 2a 55
        E 6 83 31 00
        E 466 83 2a 00
        E 735 93 2f 55
        E 1906 83 2f 00
        E 13 93 2f 55
        E 709 83 2f 00
        E 9 93 30 55
        E 480 83 30 00
        E 718 93 25 55
        E 1676 83 25 00
        E 6 93 27 55
        E 51 83 27 00
        E 9 93 2b 55
        E 51 83 2b 00
        E 12 93 2c 55
        E 50 83 2c 00
        E 9 93 32 2f
        E 51 83 32 00
        E 8 93 2f 55
        E 476 83 2f 00
        E 7 93 2d 55
        E 51 83 2d 00
        E 8 93 2c 55
        E 50 83 2c 00
        E 9 93 2b 55
        E 50 83 2b 00
        E 11 93 25 31
        E 50 83 25 00
        E 5 93 26 55
        E 725 83 26 00
        E 479 93 25 55
        E 1654 83 25 00
        E 26 93 25 55
        E 51 83 25 00
        E 7 93 25 55
        E 50 83 25 00
        E 12 93 28 55
        E 51 83 28 00
        E 9 93 25 55
        E 50 83 25 00
        E 6 93 2c 55
        E 713 83 2c 00
        E 7 93 26 0b
        E 465 83 26 00
        E 46819 93 29 55
        E 1682 93 26 55
        E 16 83 29 00
        E 33 83 26 00
        E 3 93 26 26
        E 50 83 26 00
        E 19 93 25 55
        E 50 83 25 00
        E 9 93 24 55
        E 51 83 24 00
        E 2 93 24 55
        E 475 83 24 00
        E 3 93 26 55
        E 50 83 26 00
        E 15 93 26 55
        E 51 83 26 00
        E 8 93 26 55
        E 51 83 26 00
        E 6 93 2a 55
        E 51 83 2a 00
        E 13 93 2a 55
        E 484 83 2a 00
        E 718 93 30 55
        E 1678 93 2c 57
        E 8 83 30 00
        E 42 83 2c 00
        E 13 93 2a 55
        E 51 83 2a 00
        E 5 93 27 2d
        E 51 83 27 00
        E 11 93 29 31
        E 50 83 29 00
        E 11 93 28 55
        E 475 93 2c 55
        E 2 83 28 00
        E 49 83 2c 00
        E 11 93 2e 55
        E 51 83 2e 00
        E 15 93 2a 55
        E 50 83 2a 00
        E 14 93 2f 55
        E 51 83 2f 00
        E 5 93 30 1e
        E 478 83 30 00
        E 720 93 25 55
        E 1675 93 29 55
        E 11 83 25 00
        E 40 83 29 00
        E 8 93 2c 55
        E 49 83 2c 00
        E 18 93 2c 55
        E 50 83 2c 00
        E 9 93 2e 55
        E 50 83 2e 00
        E 8 93 2d 55
        E 481 93 2c 55
        E 4 83 2d 00
        E 47 83 2c 00
        E 3 93 27 55
        E 50 83 27 00
        E 12 93 27 55
        E 50 83 27 00
        E 15 93 24 55
        E 51 83 24 00
        E 11 93 20 55
        E 714 83 20 00
        E 484 93 28 55
        E 1913 93 25 55
        E 3 83 28 00
        E 714 83 25 00
        E 11 93 2b 55
        E 483 83 2b 00
        E 708 93 2c 55
        E 1665 83 2c 00
        E 19 93 25 55
        E 52 83 25 00
        E 15 93 2d 55
        E 50 83 2d 00
        E 7 93 2c 55
        E 51 83 2c 00
        E 7 93 31 55
        E 50 83 31 00
        E 14 93 32 55
        E 700 83 32 00
        E 16 93 31 55
        E 472 83 31 00
        E 724 93 29 55
        E 1678 83 29 00
        E 7 93 2d 55
        E 51 83 2d 00
        E 7 93 2b 55
        E 51 83 2b 00
        E 9 93 2c 55
        E 51 83 2c 00
        E 9 93 32 55
        E 51 83 32 00
        E 10 93 30 55
        E 722 93 30 55
        E 5 83 30 00
        E 471 83 30 00
        E 720 93 24 55
        E 1676 83 24 00
        E 11 93 29 55
        E 51 83 29 00
        E 3 93 26 55
        E 50 83 26 00
        E 6 93 2b 55
        E 50 83 2b 00
        E 8 93 32 55
        E 51 83 32 00
        E 12 93 30 55
        E 477 83 30 00
        E 8 93 2e 55
        E 50 83 2e 00
        E 9 93 2d 55
        E 51 83 2d 00
        E 5 93 2b 55
        E 50 83 2b 00
        E 9 93 25 55
        E 51 83 25 00
        E 12 93 25 55
        E 491 83 25 00
        E 713 93 25 55
        E 1664 83 25 00
        E 9 93 26 55
        E 49 83 26 00
        E 11 93 27 55
        E 51 83 27 00
        E 17 93 25 2f
        E 51 83 25 00
        E 6 93 28 55
        E 52 83 28 00
        E 7 93 2b 55
        E 715 83 2b 00
        E 9 93 2c 55
        E 486 83 2c 00
        E 0 b3 7b 00
        E 1 ff 2f 00
      >
    >
  >
  <TRACK
    NAME "trap_drums"
    PEAKCOL 4290722362
    VOLPAN 1.000000 0 1 -1
    MIDIOUT -1
    ISBUS 0 0
    <ITEM
      POSITION 7.999917
      LENGTH 55.861940
      NAME "trap_drums"
      VOLPAN 1 0 1 -1
      <SOURCE MIDI
        HASDATA 1 960 QN
        E 0 c9 00 00
        E 15360 99 2a 55
        E 1 99 42 7c
        E 114 89 2a 00
        E 365 99 2d 55
        E 243 89 2d 00
        E 237 99 26 55
        E 1 99 26 59
        E 287 89 26 00
        E 2 89 26 00
        E 190 99 2a 55
        E 115 89 2a 00
        E 334 89 42 00
        E 31 99 43 68
        E 1 99 2a 55
        E 115 89 2a 00
        E 364 99 2c 55
        E 240 99 26 55
        E 3 89 2c 00
        E 73 89 26 00
        E 164 99 25 60
        E 1 99 25 55
        E 68 99 2a 55
        E 55 89 2a 00
        E 12 99 2a 55
        E 55 89 2a 00
        E 15 99 2a 55
        E 55 89 2a 00
        E 13 99 2a 55
        E 14 89 25 00
        E 3 89 25 00
        E 37 89 2a 00
        E 15 99 2a 55
        E 55 89 2a 00
        E 13 99 2a 55
        E 55 89 2a 00
        E 11 89 43 00
        E 3 99 2a 55
        E 116 89 2a 00
        E 123 99 25 55
        E 57 89 25 00
        E 4 99 26 55
        E 57 89 26 00
        E 123 99 29 55
        E 1 99 24 62
        E 18 99 3b 55
        E 95 89 29 00
        E 171 89 24 00
        E 195 99 29 55
        E 96 89 29 00
        E 24 99 26 55
        E 95 89 26 00
        E 25 99 29 55
        E 0 99 25 55
        E 77 89 25 00
        E 19 89 29 00
        E 24 99 29 55
        E 96 89 29 00
        E 24 99 25 5e
        E 0 99 27 6d
        E 289 89 25 00
        E 0 89 27 00
        E 191 99 2a 55
        E 114 89 2a 00
        E 366 99 24 60
        E 0 99 2b 55
        E 18 89 3b 00
        E 1 99 3e 6f
        E 218 89 2b 00
        E 3 99 25 55
        E 46 89 24 00
        E 31 89 25 00
        E 163 99 28 55
        E 114 89 28 00
        E 126 99 27 55
        E 76 89 27 00
        E 164 99 25 55
        E 0 99 26 6d
        E 284 89 26 00
        E 3 89 25 00
        E 192 99 2d 55
        E 6 89 3e 00
        E 236 89 2d 00
        E 239 99 26 55
        E 0 99 2a 55
        E 19 99 3d 55
        E 96 89 2a 00
        E 176 89 26 00
        E 188 99 2a 55
        E 116 89 2a 00
        E 364 99 26 62
        E 1 99 26 62
        E 287 89 26 00
        E 1 89 26 00
        E 192 99 2c 55
        E 238 89 2c 00
        E 235 89 3d 00
        E 7 99 29 55
        E 0 99 24 55
        E 20 99 3d 62
        E 94 89 29 00
        E 181 89 24 00
        E 186 99 2a 55
        E 115 89 2a 00
        E 124 99 25 55
        E 57 89 25 00
        E 3 99 26 55
        E 58 89 26 00
        E 122 99 27 57
        E 0 99 26 6a
        E 120 99 2a 55
        E 96 89 2a 00
        E 24 99 2a 55
        E 48 89 27 00
        E 3 89 26 00
        E 46 89 2a 00
        E 24 99 2a 55
        E 96 89 2a 00
        E 19 89 3d 00
        E 4 99 2a 55
        E 117 89 2a 00
        E 363 99 26 55
        E 0 99 2a 55
        E 20 99 37 6a
        E 76 89 2a 00
        E 24 99 29 55
        E 98 89 29 00
        E 22 99 2a 55
        E 49 89 26 00
        E 45 89 2a 00
        E 26 99 2a 55
        E 97 89 2a 00
        E 23 99 2a 55
        E 64 89 2a 00
        E 16 99 2a 55
        E 64 89 2a 00
        E 16 99 2a 6f
        E 64 89 2a 00
        E 256 99 26 55
        E 1 99 25 55
        E 289 89 26 00
        E 3 89 25 00
        E 187 99 2a 55
        E 114 89 2a 00
        E 362 89 37 00
        E 4 99 2e 55
        E 0 99 24 55
        E 19 99 38 7b
        E 221 89 2e 00
        E 53 89 24 00
        E 187 99 2a 55
        E 64 89 2a 00
        E 17 99 2b 55
        E 65 89 2b 00
        E 14 99 2b 55
        E 64 89 2b 00
        E 255 99 25 55
        E 1 99 25 55
        E 60 99 2a 55
        E 48 89 2a 00
        E 12 99 2a 55
        E 48 89 2a 00
        E 12 99 2a 55
        E 48 89 2a 00
        E 59 89 25 00
        E 2 89 25 00
        E 179 89 38 00
        E 12 99 2c 55
        E 239 89 2c 00
        E 1 99 25 1e
        E 78 89 25 00
        E 162 99 24 55
        E 0 99 2a 55
        E 19 99 3c 7d
        E 96 89 2a 00
        E 173 89 24 00
        E 192 99 29 55
        E 76 89 29 00
        E 20 99 2a 55
        E 77 89 2a 00
        E 19 99 2a 55
        E 77 89 2a 00
        E 19 99 29 55
        E 76 89 29 00
        E 20 99 2a 55
        E 77 89 2a 00
        E 18 99 25 55
        E 0 99 26 55
        E 81 99 2a 55
        E 64 89 2a 00
        E 15 99 2d 55
        E 63 89 2d 00
        E 62 89 26 00
        E 5 89 25 00
        E 191 99 2d 55
        E 239 89 2d 00
        E 1 99 25 55
        E 57 89 25 00
        E 3 99 26 55
        E 57 89 26 00
        E 4 99 26 55
        E 58 89 26 00
        E 60 99 2a 55
        E 1 89 3c 00
        E 0 99 26 55
        E 19 99 3d 59
        E 96 89 2a 00
        E 176 89 26 00
        E 189 99 2a 55
        E 56 89 2a 00
        E 13 99 2a 55
        E 55 89 2a 00
        E 13 99 2a 55
        E 55 89 2a 00
        E 13 99 2a 55
        E 55 89 2a 00
        E 14 99 2a 5b
        E 55 89 2a 00
        E 14 99 29 55
        E 55 89 29 00
        E 14 99 2a 5e
        E 55 89 2a 00
        E 13 99 25 55
        E 0 99 26 55
        E 282 89 25 00
        E 6 89 26 00
        E 192 99 2a 55
        E 14 89 3d 00
        E 103 89 2a 00
        E 363 99 2a 55
        E 1 99 25 55
        E 18 99 3d 59
        E 95 89 2a 00
        E 178 89 25 00
        E 188 99 2a 55
        E 117 89 2a 00
        E 363 99 27 5e
        E 0 99 26 5b
        E 285 89 27 00
        E 1 89 26 00
        E 194 99 28 55
        E 115 89 28 00
        E 364 99 24 5c
        E 1 99 27 55
        E 11 89 3d 00
        E 8 99 3b 55
        E 98 89 27 00
        E 169 89 24 00
        E 195 99 29 55
        E 114 89 29 00
        E 365 99 25 55
        E 0 99 26 55
        E 60 99 2a 55
        E 48 89 2a 00
        E 12 99 2a 55
        E 48 89 2a 00
        E 12 99 2a 55
        E 48 89 2a 00
        E 58 89 26 00
        E 3 89 25 00
        E 167 89 3b 00
        E 24 99 2a 55
        E 115 89 2a 00
        E 364 99 2a 55
        E 1 99 25 55
        E 19 99 3d 68
        E 220 89 2a 00
        E 49 89 25 00
        E 192 99 2a 55
        E 115 89 2a 00
        E 125 99 25 55
        E 76 89 25 00
        E 164 99 24 55
        E 1 99 27 59
        E 288 89 27 00
        E 1 89 24 00
        E 190 99 2a 55
        E 97 89 2a 00
        E 23 99 2a 55
        E 96 89 2a 00
        E 24 99 25 55
        E 1 99 2a 55
        E 76 89 25 00
        E 20 89 2a 00
        E 24 99 2d 55
        E 95 89 2d 00
        E 14 89 3d 00
        E 10 99 2a 55
        E 1 99 25 55
        E 18 99 3d 6a
        E 78 89 2a 00
        E 24 99 2a 55
        E 97 89 2a 00
        E 22 99 2a 57
        E 53 89 25 00
        E 42 89 2a 00
        E 25 99 2a 55
        E 97 89 2a 00
        E 23 99 2a 55
        E 77 89 2a 00
        E 19 99 2a 55
        E 77 89 2a 00
        E 19 99 2a 55
        E 77 89 2a 00
        E 18 99 2a 55
        E 75 89 2a 00
        E 22 99 2a 55
        E 77 89 2a 00
        E 19 99 26 6f
        E 0 99 25 55
        E 286 89 25 00
        E 3 89 26 00
        E 180 89 3d 00
        E 11 99 2a 55
        E 115 89 2a 00
        E 125 99 25 53
        E 76 89 25 00
        E 164 99 24 55
        E 0 99 29 55
        E 19 99 37 55
        E 97 89 29 00
        E 172 89 24 00
        E 192 99 2a 55
        E 115 89 2a 00
        E 364 99 25 55
        E 1 99 25 55
        E 286 89 25 00
        E 1 89 25 00
        E 193 99 2b 55
        E 96 89 2b 00
        E 24 99 2a 55
        E 96 89 2a 00
        E 24 99 2a 55
        E 95 89 2a 00
        E 25 99 2a 55
        E 96 89 2a 00
        E 24 99 38 55
        E 241 89 38 00
        E 78 99 38 55
        E 241 89 38 00
        E 80 99 37 55
        E 239 89 37 00
        E 579 89 37 00
        E 46541 99 42 55
        E 1 99 2a 55
        E 96 89 2a 00
        E 24 99 29 55
        E 97 89 29 00
        E 23 99 2a 55
        E 96 89 2a 00
        E 24 99 2a 55
        E 96 89 2a 00
        E 24 99 2a 55
        E 115 89 2a 00
        E 365 99 26 55
        E 0 99 25 5b
        E 80 99 2a 55
        E 64 89 2a 00
        E 15 99 2a 55
        E 63 89 2a 00
        E 64 89 26 00
        E 0 89 25 00
        E 194 99 2a 55
        E 77 89 2a 00
        E 19 99 2a 55
        E 76 89 2a 00
        E 20 99 2a 55
        E 77 89 2a 00
        E 19 99 29 55
        E 76 89 29 00
        E 21 99 2a 55
        E 77 89 2a 00
        E 15 89 42 00
        E 3 99 42 66
        E 0 99 29 55
        E 48 89 29 00
        E 12 99 2a 55
        E 48 89 2a 00
        E 12 99 2a 55
        E 48 89 2a 00
        E 11 99 2a 55
        E 48 89 2a 00
        E 252 99 2a 55
        E 117 89 2a 00
        E 364 99 26 55
        E 0 99 27 55
        E 286 89 27 00
        E 6 89 26 00
        E 163 89 42 00
        E 25 99 2a 55
        E 114 89 2a 00
        E 366 99 2a 55
        E 0 99 25 55
        E 18 99 3b 55
        E 37 89 2a 00
        E 13 99 2a 55
        E 55 89 2a 00
        E 15 99 2a 55
        E 55 89 2a 00
        E 13 99 2a 55
        E 54 89 2a 00
        E 14 99 2a 55
        E 14 89 25 00
        E 41 89 2a 00
        E 14 99 2a 55
        E 55 89 2a 00
        E 13 99 2a 5c
        E 55 89 2a 00
        E 15 99 2a 55
        E 114 89 2a 00
        E 365 99 26 71
        E 0 99 27 5e
        E 285 89 26 00
        E 4 89 27 00
        E 191 99 2e 55
        E 238 89 2e 00
        E 230 89 3b 00
        E 11 99 2a 55
        E 1 99 25 57
        E 19 99 3b 6d
        E 76 89 2a 00
        E 25 99 2a 55
        E 96 89 2a 00
        E 24 99 2a 55
        E 0 99 26 55
        E 47 89 25 00
        E 29 89 26 00
        E 21 89 2a 00
        E 23 99 2a 55
        E 96 89 2a 00
        E 24 99 2a 55
        E 115 89 2a 00
        E 365 99 26 55
        E 0 99 25 55
        E 96 99 2b 55
        E 77 89 2b 00
        E 18 99 2a 55
        E 77 89 2a 00
        E 16 89 26 00
        E 4 99 2b 22
        E 2 89 25 00
        E 74 89 2b 00
        E 20 99 2a 15
        E 73 89 3b 00
        E 4 89 2a 00
        E 19 99 2a 55
        E 115 89 2a 00
        E 125 99 25 19
        E 77 89 25 00
        E 163 99 24 55
        E 0 99 2a 55
        E 19 99 3c 71
        E 96 89 2a 00
        E 175 89 24 00
        E 190 99 26 55
        E 117 89 26 00
        E 363 99 24 55
        E 0 99 24 55
        E 285 89 24 00
        E 7 89 24 00
        E 188 99 2b 55
        E 76 89 2b 00
        E 20 99 2a 55
        E 77 89 2a 00
        E 19 99 2a 55
        E 76 89 2a 00
        E 20 99 2a 55
        E 77 89 2a 00
        E 19 99 2a 55
        E 77 89 2a 00
        E 7 89 3c 00
        E 12 99 24 5b
        E 0 99 2a 55
        E 20 99 3e 5c
        E 95 89 2a 00
        E 174 89 24 00
        E 191 99 29 55
        E 65 89 29 00
        E 15 99 2a 55
        E 64 89 2a 00
        E 16 99 2a 55
        E 64 89 2a 00
        E 256 99 25 55
        E 0 99 25 5c
        E 284 89 25 00
        E 3 89 25 00
        E 194 99 28 55
        E 4 89 3e 00
        E 111 89 28 00
        E 364 99 2a 55
        E 1 99 25 55
        E 18 99 38 55
        E 97 89 2a 00
        E 171 89 25 00
        E 193 99 29 55
        E 77 89 29 00
        E 19 99 2a 55
        E 77 89 2a 00
        E 19 99 2a 55
        E 76 89 2a 00
        E 20 99 2a 55
        E 77 89 2a 00
        E 19 99 2a 55
        E 78 89 2a 00
        E 18 99 26 60
        E 0 99 26 55
        E 289 89 26 00
        E 3 89 26 00
        E 189 99 29 55
        E 77 89 29 00
        E 18 99 29 55
        E 76 89 29 00
        E 20 99 28 55
        E 77 89 28 00
        E 19 99 27 55
        E 76 89 27 00
        E 19 99 2c 55
        E 77 89 2c 00
        E 20 99 25 55
        E 0 99 2a 55
        E 5 89 38 00
        E 14 99 36 55
        E 96 89 2a 00
        E 173 89 25 00
        E 192 99 2a 55
        E 116 89 2a 00
        E 124 99 25 55
        E 57 89 25 00
        E 3 99 25 55
        E 57 89 25 00
        E 3 99 25 55
        E 57 89 25 00
        E 63 99 27 55
        E 0 99 26 55
        E 287 89 27 00
        E 2 89 26 00
        E 186 89 36 00
        E 5 99 2a 55
        E 115 89 2a 00
        E 126 99 26 55
        E 77 89 26 00
        E 162 99 24 57
        E 1 99 28 55
        E 18 99 3e 4f
        E 46 89 28 00
        E 15 99 28 55
        E 64 89 28 00
        E 16 99 30 55
        E 64 89 30 00
        E 63 89 24 00
        E 193 99 2a 55
        E 115 89 2a 00
        E 365 99 27 55
        E 0 99 25 55
        E 80 99 29 55
        E 63 89 29 00
        E 17 99 2a 60
        E 63 89 2a 00
        E 62 89 25 00
        E 1 89 27 00
        E 194 99 2c 55
        E 241 89 2c 00
        E 239 99 25 55
        E 0 99 2d 55
        E 19 99 3c 4d
        E 16 89 3e 00
        E 204 89 2d 00
        E 49 89 25 00
        E 192 99 2b 55
        E 114 89 2b 00
        E 365 99 25 55
        E 1 99 26 57
        E 120 99 2a 55
        E 96 89 2a 00
        E 24 99 2a 55
        E 47 89 25 00
        E 2 89 26 00
        E 49 89 2a 00
        E 22 99 29 55
        E 96 89 29 00
        E 11 89 3c 00
        E 13 99 2c 55
        E 238 89 2c 00
        E 242 99 2e 55
        E 0 99 24 73
        E 19 99 3c 66
        E 220 89 2e 00
        E 48 89 24 00
        E 194 99 2a 55
        E 48 89 2a 00
        E 11 99 2a 55
        E 48 89 2a 00
        E 11 99 2a 55
        E 48 89 2a 00
        E 13 99 2a 55
        E 48 89 2a 00
        E 252 99 25 66
        E 0 99 26 60
        E 284 89 26 00
        E 4 89 25 00
        E 192 99 2a 55
        E 114 89 2a 00
        E 366 99 24 59
        E 0 99 2d 55
        E 19 99 3c 5b
        E 3 89 3c 00
        E 214 89 2d 00
        E 51 89 24 00
        E 194 99 2a 55
        E 55 89 2a 00
        E 12 99 2a 55
        E 55 89 2a 00
        E 14 99 2a 55
        E 55 89 2a 00
        E 13 99 28 55
        E 35 99 25 55
        E 20 89 28 00
        E 14 99 2a 55
        E 42 89 25 00
        E 13 89 2a 00
        E 14 99 29 55
        E 56 89 29 00
        E 12 99 29 55
        E 54 89 29 00
        E 15 99 25 55
        E 0 99 27 55
        E 282 89 25 00
        E 4 89 27 00
        E 193 99 2a 55
        E 6 89 3c 00
        E 110 89 2a 00
        E 125 99 26 2b
        E 57 89 26 00
        E 3 99 24 0d
        E 58 89 24 00
        E 2 99 25 15
        E 58 89 25 00
        E 62 99 24 55
        E 0 99 2a 55
        E 20 99 3d 5c
        E 95 89 2a 00
        E 173 89 24 00
        E 192 99 2d 55
        E 239 89 2d 00
        E 241 99 25 55
        E 0 99 26 55
        E 286 89 25 00
        E 0 89 26 00
        E 194 99 2a 55
        E 115 89 2a 00
        E 364 99 29 55
        E 1 99 24 64
        E 19 99 3e 71
        E 32 89 3d 00
        E 65 89 29 00
        E 124 99 25 55
        E 52 89 24 00
        E 25 89 25 00
        E 163 99 2a 55
        E 116 89 2a 00
        E 364 99 25 5b
        E 0 99 25 55
        E 284 89 25 00
        E 1 89 25 00
        E 195 99 2a 55
        E 4 89 3e 00
        E 112 89 2a 00
        E 364 99 27 55
        E 0 99 24 6d
        E 19 99 39 7a
        E 96 89 27 00
        E 170 89 24 00
        E 195 99 2b 55
        E 55 89 2b 00
        E 14 99 2b 5c
        E 55 89 2b 00
        E 13 99 2a 55
        E 56 89 2a 00
        E 13 99 2a 55
        E 55 89 2a 00
        E 14 99 2a 55
        E 54 89 2a 00
        E 14 99 2a 55
        E 54 89 2a 00
        E 14 99 29 55
        E 55 89 29 00
        E 14 99 26 6d
        E 0 99 27 59
        E 284 89 26 00
        E 0 89 27 00
        E 196 99 27 55
        E 96 89 27 00
        E 24 99 28 55
        E 95 89 28 00
        E 25 99 2a 55
        E 0 99 24 55
        E 57 89 24 00
        E 3 99 29 55
        E 36 89 2a 00
        E 22 89 29 00
        E 3 99 28 55
        E 97 89 28 00
        E 21 99 38 55
        E 246 89 38 00
        E 75 99 38 55
        E 241 89 38 00
        E 79 99 39 55
        E 240 89 39 00
        E 582 89 39 00
        E 0 b9 7b 00
        E 1 ff 2f 00
      >
    >
  >
  <TRACK
    NAME "keys_busy"
    PEAKCOL 4284506208
    VOLPAN 1.000000 0 1 -1
    MIDIOUT -1
    ISBUS 0 0
    <ITEM
      POSITION 23.995756
      LENGTH 7.903063
      NAME "keys_busy"
      VOLPAN 1 0 1 -1
      <SOURCE MIDI
        HASDATA 1 960 QN
        E 0 c4 04 00
        E 46072 94 36 55
        E 2 94 38 55
        E 7 94 30 55
        E 2 94 31 55
        E 50 84 30 00
        E 16 84 38 00
        E 3 84 36 00
        E 26 84 31 00
        E 360 94 31 55
        E 6 94 33 55
        E 2 94 38 55
        E 33 94 36 2d
        E 21 84 33 00
        E 14 84 38 00
        E 16 84 31 00
        E 36 84 36 00
        E 359 94 38 55
        E 2 94 31 55
        E 14 94 36 1e
        E 14 94 33 22
        E 35 84 31 00
        E 13 84 38 00
        E 7 84 36 00
        E 37 84 33 00
        E 348 94 33 24
        E 30 94 31 20
        E 3 94 38 22
        E 12 94 36 2b
        E 29 84 33 00
        E 25 84 38 00
        E 1 84 31 00
        E 12 84 36 00
        E 383 94 31 55
        E 7 94 33 55
        E 8 94 36 2f
        E 4 94 38 3c
        E 56 84 36 00
        E 5 84 33 00
        E 3 84 31 00
        E 10 84 38 00
        E 391 94 35 55
        E 3 94 38 55
        E 4 94 32 55
        E 32 94 34 55
        E 27 84 38 00
        E 1 84 32 00
        E 8 84 35 00
        E 34 84 34 00
        E 357 94 38 2f
        E 18 94 36 55
        E 8 94 33 26
        E 24 94 31 28
        E 27 84 36 00
        E 6 84 38 00
        E 12 84 33 00
        E 25 84 31 00
        E 366 94 33 37
        E 12 94 31 55
        E 5 94 38 39
        E 14 94 36 40
        E 32 84 33 00
        E 15 84 31 00
        E 11 84 38 00
        E 7 84 36 00
        E 379 94 36 55
        E 13 94 38 55
        E 8 94 3b 55
        E 5 94 31 55
        E 57 84 38 00
        E 2 84 36 00
        E 12 84 3b 00
        E 5 84 31 00
        E 388 94 3b 55
        E 4 94 36 55
        E 3 94 31 55
        E 25 94 38 55
        E 50 84 3b 00
        E 4 84 36 00
        E 0 84 31 00
        E 14 84 38 00
        E 377 94 32 55
        E 7 94 3b 55
        E 11 94 38 55
        E 3 94 36 55
        E 48 84 32 00
        E 24 84 3b 00
        E 1 84 38 00
        E 14 84 36 00
        E 373 94 39 55
        E 3 94 3b 55
        E 9 94 36 55
        E 5 94 32 55
        E 53 84 32 00
        E 5 84 3b 00
        E 2 84 36 00
        E 13 84 39 00
        E 404 94 36 55
        E 1 94 3b 55
        E 24 94 39 55
        E 1 94 31 55
        E 52 84 36 00
        E 9 84 3b 00
        E 8 84 31 00
        E 3 84 39 00
        E 373 94 32 55
        E 1 94 3c 55
        E 16 94 31 55
        E 5 94 36 55
        E 46 84 32 00
        E 10 84 31 00
        E 10 84 3c 00
        E 8 84 36 00
        E 388 94 38 55
        E 11 94 36 55
        E 1 94 31 55
        E 2 94 38 55
        E 44 84 38 00
        E 21 84 36 00
        E 16 84 31 00
        E 4 84 38 00
        E 377 94 31 55
        E 4 94 32 55
        E 13 94 39 55
        E 20 94 36 55
        E 34 84 31 00
        E 5 84 32 00
        E 20 84 36 00
        E 12 84 39 00
        E 359 94 3d 55
        E 2 94 30 55
        E 13 94 38 55
        E 6 94 33 55
        E 48 84 33 00
        E 3 84 30 00
        E 19 84 3d 00
        E 4 84 38 00
        E 391 94 3a 55
        E 5 94 31 55
        E 1 94 38 55
        E 13 94 33 55
        E 55 84 3a 00
        E 0 84 38 00
        E 35 84 33 00
        E 6 84 31 00
        E 364 94 3b 55
        E 15 94 33 55
        E 2 94 38 55
        E 19 94 33 55
        E 27 84 3b 00
        E 36 84 38 00
        E 1 84 33 00
        E 2 84 33 00
        E 379 94 38 55
        E 3 94 31 55
        E 13 94 33 55
        E 0 94 3b 55
        E 60 84 38 00
        E 3 84 33 00
        E 3 84 31 00
        E 5 84 3b 00
        E 401 94 33 55
        E 2 94 31 55
        E 7 94 3b 55
        E 24 94 38 55
        E 31 84 31 00
        E 20 84 33 00
        E 9 84 3b 00
        E 9 84 38 00
        E 383 94 3d 55
        E 4 94 30 55
        E 2 94 30 55
        E 11 94 37 55
        E 50 84 3d 00
        E 0 84 30 00
        E 11 84 37 00
        E 7 84 30 00
        E 383 94 33 55
        E 13 94 38 55
        E 37 94 3b 55
        E 1 94 31 55
        E 21 84 33 00
        E 15 84 38 00
        E 15 84 3b 00
        E 15 84 31 00
        E 374 94 38 55
        E 5 94 32 55
        E 9 94 36 55
        E 14 94 34 55
        E 35 84 38 00
        E 16 84 36 00
        E 11 84 34 00
        E 7 84 32 00
        E 384 94 38 55
        E 0 94 38 55
        E 9 94 33 55
        E 6 94 31 55
        E 41 84 38 00
        E 11 84 38 00
        E 20 84 31 00
        E 14 84 33 00
        E 368 94 38 55
        E 4 94 31 55
        E 12 94 33 55
        E 20 94 38 55
        E 23 84 38 00
        E 7 84 31 00
        E 22 84 33 00
        E 30 84 38 00
        E 353 94 33 55
        E 7 94 39 55
        E 9 94 31 55
        E 5 94 38 55
        E 55 84 31 00
        E 1 84 33 00
        E 6 84 39 00
        E 10 84 38 00
        E 402 94 30 55
        E 2 94 36 55
        E 0 94 3a 55
        E 11 94 30 55
        E 45 84 3a 00
        E 2 84 30 00
        E 14 84 36 00
        E 1 84 30 00
        E 395 94 35 55
        E 9 94 38 55
        E 2 94 2e 55
        E 12 94 3a 55
        E 54 84 2e 00
        E 11 84 38 00
        E 5 84 35 00
        E 17 84 3a 00
        E 385 94 38 55
        E 1 94 31 55
        E 3 94 39 55
        E 7 94 2d 55
        E 59 84 38 00
        E 18 84 39 00
        E 7 84 31 00
        E 12 84 2d 00
        E 371 94 32 55
        E 0 94 2d 55
        E 2 94 39 55
        E 21 94 34 55
        E 38 84 32 00
        E 3 84 39 00
        E 2 84 2d 00
        E 32 84 34 00
        E 355 94 30 55
        E 7 94 31 55
        E 32 94 34 55
        E 3 94 3b 55
        E 18 84 30 00
        E 36 84 31 00
        E 5 84 34 00
        E 22 84 3b 00
        E 0 b4 7b 00
        E 1 ff 2f 00
      >
    >
  >
  <TRACK
    NAME "hihat_rapid"
    PEAKCOL 4290722362
    VOLPAN 1.000000 0 1 -1
    MIDIOUT -1
    ISBUS 0 0
    <ITEM
      POSITION 23.999543
      LENGTH 55.850613
      NAME "hihat_rapid"
      VOLPAN 1 0 1 -1
      <SOURCE MIDI
        HASDATA 1 960 QN
        E 0 c5 00 00
        E 46079 95 2a 55
        E 145 85 2a 00
        E 336 95 2a 55
        E 143 85 2a 00
        E 336 95 2a 55
        E 145 85 2a 00
        E 336 95 2a 55
        E 146 85 2a 00
        E 334 95 2a 55
        E 144 85 2a 00
        E 125 95 2d 73
        E 47 95 2d 76
        E 1 85 2d 00
        E 18 95 2d 76
        E 29 85 2d 00
        E 19 85 2d 00
        E 1 95 2d 6f
        E 48 85 2d 00
        E 1 95 2f 6d
        E 48 85 2f 00
        E 478 95 2a 55
        E 144 85 2a 00
        E 337 95 2a 55
        E 145 85 2a 00
        E 335 95 2a 71
        E 143 85 2a 00
        E 338 95 2a 55
        E 145 85 2a 00
        E 335 95 2a 55
        E 144 85 2a 00
        E 337 95 2a 59
        E 144 85 2a 00
        E 333 95 2a 55
        E 145 85 2a 00
        E 123 95 2a 55
        E 36 95 2a 55
        E 7 95 2a 55
        E 5 85 2a 00
        E 27 95 2a 55
        E 9 85 2a 00
        E 7 85 2a 00
        E 21 95 2a 57
        E 11 85 2a 00
        E 20 95 2a 57
        E 17 85 2a 00
        E 19 95 2a 55
        E 12 85 2a 00
        E 36 85 2a 00
        E 466 95 2a 55
        E 143 85 2a 00
        E 125 95 2a 55
        E 34 95 2a 55
        E 8 95 2a 55
        E 6 85 2a 00
        E 26 95 2a 55
        E 8 85 2a 00
        E 8 85 2a 00
        E 19 95 2a 55
        E 13 85 2a 00
        E 21 95 2a 55
        E 14 85 2a 00
        E 19 95 2a 55
        E 15 85 2a 00
        E 33 85 2a 00
        E 467 95 2a 55
        E 146 85 2a 00
        E 336 95 2a 55
        E 143 85 2a 00
        E 336 95 2a 55
        E 143 85 2a 00
        E 337 95 2a 55
        E 143 85 2a 00
        E 337 95 2a 5c
        E 144 85 2a 00
        E 125 95 2d 55
        E 34 95 2b 66
        E 5 95 2a 3e
        E 9 85 2d 00
        E 26 95 29 7a
        E 8 85 2b 00
        E 5 85 2a 00
        E 20 95 29 7a
        E 15 85 29 00
        E 21 95 29 79
        E 12 85 29 00
        E 21 95 29 79
        E 15 85 29 00
        E 33 85 29 00
        E 465 95 2a 55
        E 144 85 2a 00
        E 127 95 2d 55
        E 34 95 2d 55
        E 5 95 2f 55
        E 9 85 2d 00
        E 26 95 2f 55
        E 8 85 2d 00
        E 5 85 2f 00
        E 20 95 30 55
        E 15 85 2f 00
        E 21 95 30 57
        E 12 85 30 00
        E 21 95 30 55
        E 15 85 30 00
        E 33 85 30 00
        E 466 95 2a 57
        E 143 85 2a 00
        E 338 95 2a 55
        E 142 85 2a 00
        E 338 95 2a 5c
        E 145 85 2a 00
        E 125 95 29 55
        E 18 95 29 55
        E 30 85 29 00
        E 18 85 29 00
        E 0 95 2a 5b
        E 47 95 2b 60
        E 1 85 2a 00
        E 47 85 2b 00
        E 2 95 2b 55
        E 48 85 2b 00
        E 479 95 2a 55
        E 146 85 2a 00
        E 124 95 29 55
        E 32 95 29 55
        E 7 95 29 55
        E 9 85 29 00
        E 23 95 29 55
        E 9 85 29 00
        E 7 85 29 00
        E 20 95 29 55
        E 12 85 29 00
        E 23 95 2a 55
        E 13 85 29 00
        E 19 95 2a 55
        E 16 85 2a 00
        E 32 85 2a 00
        E 468 95 2a 55
        E 145 85 2a 00
        E 124 95 2d 55
        E 20 95 2d 55
        E 28 85 2d 00
        E 18 95 2d 55
        E 2 85 2d 00
        E 46 85 2d 00
        E 2 95 2b 55
        E 47 95 2b 5c
        E 1 85 2b 00
        E 47 85 2b 00
        E 479 95 2a 55
        E 145 85 2a 00
        E 336 95 29 3c
        E 143 85 29 00
        E 337 95 2a 55
        E 142 85 2a 00
        E 338 95 2a 55
        E 144 85 2a 00
        E 336 95 2a 55
        E 145 85 2a 00
        E 335 95 29 6a
        E 144 85 29 00
        E 336 95 2a 76
        E 143 85 2a 00
        E 336 95 29 55
        E 146 85 29 00
        E 335 95 29 55
        E 142 85 29 00
        E 338 95 2a 66
        E 142 85 2a 00
        E 340 95 28 60
        E 144 85 28 00
        E 123 95 28 55
        E 33 95 28 55
        E 6 95 28 55
        E 9 85 28 00
        E 26 95 28 55
        E 7 85 28 00
        E 6 85 28 00
        E 22 95 28 55
        E 13 85 28 00
        E 20 95 2a 48
        E 15 85 28 00
        E 21 95 2a 55
        E 12 85 2a 00
        E 36 85 2a 00
        E 465 95 2a 6a
        E 143 85 2a 00
        E 338 95 29 55
        E 145 85 29 00
        E 333 95 29 77
        E 145 85 29 00
        E 335 95 29 44
        E 145 85 29 00
        E 336 95 26 55
        E 144 85 26 00
        E 336 95 2a 55
        E 144 85 2a 00
        E 336 95 2a 59
        E 145 85 2a 00
        E 334 95 2a 5b
        E 142 85 2a 00
        E 339 95 2a 55
        E 143 85 2a 00
        E 128 95 29 55
        E 18 95 2a 55
        E 30 85 29 00
        E 17 95 28 40
        E 1 85 2a 00
        E 47 85 28 00
        E 0 95 28 40
        E 47 95 28 48
        E 1 85 28 00
        E 47 85 28 00
        E 481 95 2a 55
        E 144 85 2a 00
        E 336 95 29 55
        E 144 85 29 00
        E 337 95 28 55
        E 143 85 28 00
        E 335 95 2a 6f
        E 145 85 2a 00
        E 336 95 2a 55
        E 143 85 2a 00
        E 126 95 2a 55
        E 18 95 2a 55
        E 30 85 2a 00
        E 18 85 2a 00
        E 1 95 2a 55
        E 48 85 2a 00
        E 0 95 2a 55
        E 48 85 2a 00
        E 0 95 2a 55
        E 48 85 2a 00
        E 481 95 29 7d
        E 144 85 29 00
        E 123 95 28 6d
        E 36 95 26 5b
        E 5 95 2a 79
        E 7 85 28 00
        E 26 95 28 73
        E 10 85 26 00
        E 5 85 2a 00
        E 21 95 29 6d
        E 12 85 28 00
        E 21 95 2a 79
        E 15 85 29 00
        E 20 95 29 75
        E 13 85 2a 00
        E 35 85 29 00
        E 466 95 29 7d
        E 143 85 29 00
        E 338 95 28 62
        E 144 85 28 00
        E 334 95 29 5b
        E 144 85 29 00
        E 338 95 2a 77
        E 145 85 2a 00
        E 333 95 2a 75
        E 144 85 2a 00
        E 126 95 26 3e
        E 35 95 29 55
        E 3 95 25 55
        E 10 85 26 00
        E 26 95 28 6a
        E 9 85 29 00
        E 3 85 25 00
        E 23 95 26 55
        E 13 85 28 00
        E 20 95 27 46
        E 15 85 26 00
        E 20 95 28 51
        E 13 85 27 00
        E 35 85 28 00
        E 466 95 28 66
        E 146 85 28 00
        E 123 95 26 55
        E 19 95 25 55
        E 29 85 26 00
        E 19 85 25 00
        E 0 95 25 55
        E 48 85 25 00
        E 0 95 28 5e
        E 47 95 27 57
        E 1 85 28 00
        E 47 85 27 00
        E 481 95 2a 55
        E 145 85 2a 00
        E 125 95 27 55
        E 18 95 27 55
        E 30 85 27 00
        E 18 85 27 00
        E 1 95 27 55
        E 45 95 25 55
        E 3 85 27 00
        E 45 85 25 00
        E 2 95 24 55
        E 48 85 24 00
        E 480 95 29 46
        E 144 85 29 00
        E 337 95 29 66
        E 143 85 29 00
        E 335 95 28 5b
        E 144 85 28 00
        E 338 95 2a 76
        E 145 85 2a 00
        E 334 95 2a 7c
        E 143 85 2a 00
        E 125 95 2a 66
        E 36 95 2a 60
        E 4 95 2a 71
        E 8 85 2a 00
        E 27 95 29 75
        E 9 85 2a 00
        E 4 85 2a 00
        E 22 95 29 71
        E 13 85 29 00
        E 21 95 29 6d
        E 14 85 29 00
        E 20 95 29 60
        E 14 85 29 00
        E 34 85 29 00
        E 467 95 29 55
        E 143 85 29 00
        E 125 95 2f 55
        E 34 95 2d 55
        E 14 85 2f 00
        E 26 95 2b 55
        E 8 85 2d 00
        E 27 95 2c 55
        E 13 85 2b 00
        E 22 95 2a 55
        E 13 85 2c 00
        E 20 95 2a 4f
        E 15 85 2a 00
        E 33 85 2a 00
        E 467 95 2a 55
        E 144 85 2a 00
        E 335 95 2a 64
        E 144 85 2a 00
        E 337 95 2a 7d
        E 145 85 2a 00
        E 124 95 28 55
        E 33 95 29 6c
        E 7 95 2a 7c
        E 8 85 28 00
        E 26 95 26 5b
        E 7 85 29 00
        E 7 85 2a 00
        E 19 95 27 75
        E 15 85 26 00
        E 20 95 2a 7a
        E 13 85 27 00
        E 21 95 2a 77
        E 14 85 2a 00
        E 34 85 2a 00
        E 467 95 2a 60
        E 144 85 2a 00
        E 335 95 28 55
        E 145 85 28 00
        E 336 95 28 5c
        E 143 85 28 00
        E 335 95 28 5b
        E 145 85 28 00
        E 335 95 28 5c
        E 143 85 28 00
        E 337 95 29 73
        E 144 85 29 00
        E 338 95 28 79
        E 145 85 28 00
        E 334 95 2a 3c
        E 144 85 2a 00
        E 336 95 28 5b
        E 143 85 28 00
        E 337 95 27 55
        E 143 85 27 00
        E 337 95 29 55
        E 143 85 29 00
        E 338 95 25 26
        E 144 85 25 00
        E 31054 95 29 7a
        E 142 85 29 00
        E 339 95 2a 55
        E 145 85 2a 00
        E 335 95 29 55
        E 144 85 29 00
        E 127 95 2b 55
        E 18 95 2a 55
        E 30 85 2b 00
        E 18 85 2a 00
        E 0 95 27 55
        E 47 95 28 55
        E 1 85 27 00
        E 47 85 28 00
        E 0 95 27 75
        E 48 85 27 00
        E 479 95 2a 55
        E 144 85 2a 00
        E 126 95 2a 55
        E 47 95 29 55
        E 1 85 2a 00
        E 20 95 29 55
        E 27 85 29 00
        E 21 85 29 00
        E 1 95 29 5e
        E 46 95 29 55
        E 2 85 29 00
        E 46 85 29 00
        E 480 95 28 55
        E 144 85 28 00
        E 335 95 29 55
        E 144 85 29 00
        E 337 95 29 55
        E 145 85 29 00
        E 336 95 2a 64
        E 146 85 2a 00
        E 333 95 2a 5c
        E 142 85 2a 00
        E 338 95 29 55
        E 145 85 29 00
        E 335 95 2a 55
        E 146 85 2a 00
        E 335 95 29 55
        E 145 85 29 00
        E 334 95 28 5e
        E 146 85 28 00
        E 123 95 28 55
        E 35 95 28 55
        E 5 95 28 55
        E 8 85 28 00
        E 27 95 28 55
        E 8 85 28 00
        E 5 85 28 00
        E 20 95 29 55
        E 15 85 28 00
        E 19 95 2c 51
        E 14 85 29 00
        E 21 95 2f 57
        E 13 85 2c 00
        E 35 85 2f 00
        E 466 95 29 40
        E 142 85 29 00
        E 338 95 2a 7d
        E 143 85 2a 00
        E 337 95 2a 55
        E 142 85 2a 00
        E 127 95 31 5c
        E 18 95 2d 55
        E 30 85 31 00
        E 18 85 2d 00
        E 2 95 29 71
        E 46 95 29 71
        E 2 85 29 00
        E 46 85 29 00
        E 2 95 27 62
        E 48 85 27 00
        E 479 95 29 55
        E 145 85 29 00
        E 335 95 2a 4d
        E 144 85 2a 00
        E 336 95 28 55
        E 143 85 28 00
        E 337 95 2c 55
        E 144 85 2c 00
        E 336 95 28 55
        E 144 85 28 00
        E 335 95 29 7d
        E 143 85 29 00
        E 337 95 29 79
        E 144 85 29 00
        E 336 95 2a 5b
        E 142 85 2a 00
        E 340 95 28 71
        E 146 85 28 00
        E 333 95 28 55
        E 145 85 28 00
        E 334 95 29 75
        E 146 85 29 00
        E 124 95 27 55
        E 34 95 28 4d
        E 5 95 27 48
        E 9 85 27 00
        E 27 95 27 3c
        E 7 85 28 00
        E 5 85 27 00
        E 20 95 28 57
        E 16 85 27 00
        E 19 95 28 57
        E 13 85 28 00
        E 23 95 28 53
        E 12 85 28 00
        E 36 85 28 00
        E 464 95 29 55
        E 144 85 29 00
        E 336 95 29 55
        E 142 85 29 00
        E 339 95 29 55
        E 146 85 29 00
        E 123 95 27 55
        E 19 95 27 55
        E 29 85 27 00
        E 19 85 27 00
        E 1 95 24 55
        E 46 95 29 55
        E 2 85 24 00
        E 46 85 29 00
        E 1 95 2c 55
        E 48 85 2c 00
        E 480 95 28 57
        E 143 85 28 00
        E 337 95 28 55
        E 145 85 28 00
        E 334 95 28 7d
        E 143 85 28 00
        E 129 95 29 55
        E 17 95 29 55
        E 31 85 29 00
        E 16 95 28 55
        E 1 85 29 00
        E 47 85 28 00
        E 2 95 29 55
        E 45 95 25 55
        E 3 85 29 00
        E 45 85 25 00
        E 481 95 29 55
        E 147 85 29 00
        E 335 95 29 60
        E 144 85 29 00
        E 335 95 29 55
        E 145 85 29 00
        E 336 95 2a 55
        E 146 85 2a 00
        E 332 95 29 68
        E 145 85 29 00
        E 337 95 2a 79
        E 144 85 2a 00
        E 336 95 28 55
        E 143 85 28 00
        E 125 95 28 55
        E 36 95 28 55
        E 3 95 28 55
        E 9 85 28 00
        E 28 95 27 55
        E 8 85 28 00
        E 3 85 28 00
        E 22 95 27 55
        E 15 85 27 00
        E 20 95 29 6c
        E 13 85 27 00
        E 18 95 29 5e
        E 17 85 29 00
        E 31 85 29 00
        E 467 95 29 79
        E 144 85 29 00
        E 338 95 2a 76
        E 143 85 2a 00
        E 336 95 2a 5b
        E 145 85 2a 00
        E 124 95 2a 64
        E 34 95 28 55
        E 5 95 28 55
        E 9 85 2a 00
        E 26 95 29 5b
        E 8 85 28 00
        E 5 85 28 00
        E 20 95 29 5b
        E 15 85 29 00
        E 20 95 29 57
        E 13 85 29 00
        E 23 95 2a 7a
        E 12 85 29 00
        E 36 85 2a 00
        E 465 95 2b 55
        E 144 85 2b 00
        E 336 95 2c 55
        E 144 85 2c 00
        E 336 95 29 55
        E 145 85 29 00
        E 124 95 28 55
        E 20 95 29 55
        E 28 85 28 00
        E 18 95 28 55
        E 2 85 29 00
        E 46 85 28 00
        E 1 95 28 55
        E 47 95 2b 46
        E 1 85 28 00
        E 47 85 2b 00
        E 481 95 28 55
        E 145 85 28 00
        E 334 95 29 55
        E 143 85 29 00
        E 339 95 29 55
        E 146 85 29 00
        E 122 95 31 55
        E 20 95 31 55
        E 28 85 31 00
        E 18 95 30 55
        E 2 85 31 00
        E 46 85 30 00
        E 1 95 30 55
        E 48 85 30 00
        E 0 95 30 55
        E 48 85 30 00
        E 480 95 29 55
        E 144 85 29 00
        E 335 95 29 55
        E 145 85 29 00
        E 336 95 29 55
        E 145 85 29 00
        E 122 95 29 55
        E 21 95 29 55
        E 27 85 29 00
        E 20 95 28 2f
        E 1 85 29 00
        E 47 85 28 00
        E 1 95 28 37
        E 48 85 28 00
        E 0 95 24 1c
        E 48 85 24 00
        E 0 b5 7b 00
        E 1 ff 2f 00
      >
    >
  >
  <TRACK
    NAME "riser"
    PEAKCOL 4284506208
    VOLPAN 1.000000 0 1 -1
    MIDIOUT -1
    ISBUS 0 0
    <ITEM
      POSITION 30.000000
      LENGTH 50.093750
      NAME "riser"
      VOLPAN 1 0 1 -1
      <SOURCE MIDI
        HASDATA 1 960 QN
        E 0 c6 61 00
        E 57600 96 3d 55
        E 108 86 3d 00
        E 132 96 3d 2b
        E 108 86 3d 00
        E 12 96 3e 1e
        E 108 86 3e 00
        E 12 96 3d 55
        E 108 86 3d 00
        E 132 96 3d 2a
        E 108 86 3d 00
        E 12 96 3d 33
        E 108 86 3d 00
        E 12 96 3d 3e
        E 108 86 3d 00
        E 12 96 3d 33
        E 108 86 3d 00
        E 12 96 3b 55
        E 108 86 3b 00
        E 132 96 3b 55
        E 108 86 3b 00
        E 12 96 3f 3b
        E 108 86 3f 00
        E 12 96 3e 40
        E 108 86 3e 00
        E 12 96 3d 44
        E 108 86 3d 00
        E 12 96 3e 4c
        E 108 86 3e 00
        E 12 96 3c 3e
        E 108 86 3c 00
        E 12 96 3e 4a
        E 108 86 3e 00
        E 12 96 3d 44
        E 108 86 3d 00
        E 12 96 3e 4a
        E 108 86 3e 00
        E 12 96 40 55
        E 108 86 40 00
        E 12 96 42 3e
        E 108 86 42 00
        E 12 96 42 3c
        E 108 86 42 00
        E 12 96 44 3e
        E 108 86 44 00
        E 12 96 41 3e
        E 108 86 41 00
        E 12 96 3f 55
        E 108 86 3f 00
        E 12 96 45 42
        E 108 86 45 00
        E 12 96 45 2f
        E 108 86 45 00
        E 12 96 45 28
        E 108 86 45 00
        E 12 96 46 24
        E 108 86 46 00
        E 12 96 49 2a
        E 108 86 49 00
        E 88572 96 3d 55
        E 108 86 3d 00
        E 12 96 3e 55
        E 108 86 3e 00
        E 12 96 3e 55
        E 108 86 3e 00
        E 12 96 39 55
        E 108 86 39 00
        E 12 96 3a 55
        E 108 86 3a 00
        E 12 96 3e 55
        E 108 86 3e 00
        E 12 96 3e 55
        E 108 86 3e 00
        E 12 96 38 55
        E 108 86 38 00
        E 252 96 3e 46
        E 108 86 3e 00
        E 12 96 3e 39
        E 108 86 3e 00
        E 12 96 3d 42
        E 108 86 3d 00
        E 12 96 3c 4c
        E 108 86 3c 00
        E 12 96 3d 3c
        E 108 86 3d 00
        E 12 96 3d 42
        E 108 86 3d 00
        E 12 96 3f 4c
        E 108 86 3f 00
        E 12 96 3f 4d
        E 108 86 3f 00
        E 12 96 3f 53
        E 108 86 3f 00
        E 12 96 3f 4c
        E 108 86 3f 00
        E 12 96 41 44
        E 108 86 41 00
        E 12 96 41 3b
        E 108 86 41 00
        E 12 96 43 4a
        E 108 86 43 00
        E 12 96 43 3c
        E 108 86 43 00
        E 12 96 43 55
        E 108 86 43 00
        E 12 96 45 35
        E 108 86 45 00
        E 12 96 40 2f
        E 108 86 40 00
        E 12 96 44 2d
        E 108 86 44 00
        E 12 96 47 31
        E 108 86 47 00
        E 12 96 49 28
        E 108 86 49 00
        E 0 b6 7b 00
        E 1 ff 2f 00
      >
    >
  >
  <TRACK
    NAME "bass_808_slide_log"
    PEAKCOL 4286528191
    VOLPAN 1.000000 0 1 -1
    MIDIOUT -1
    ISBUS 0 0
    <ITEM
      POSITION 32.001276
      LENGTH 48.045716
      NAME "bass_808_slide_log"
      VOLPAN 1 0 1 -1
      <SOURCE MIDI
        HASDATA 1 960 QN
        E 0 c7 26 00
        E 61442 97 26 55
        E 1430 87 26 00
        E 13 97 29 55
        E 482 87 29 00
        E 481 97 25 55
        E 959 97 26 55
        E 1 87 25 00
        E 387 87 26 00
        E 83 97 24 55
        E 1202 87 24 00
        E 5 97 25 55
        E 50 87 25 00
        E 187 97 2d 55
        E 703 87 2d 00
        E 254 97 30 55
        E 963 87 30 00
        E 1 97 27 55
        E 239 87 27 00
        E 0 97 2c 55
        E 50 87 2c 00
        E 11 97 28 55
        E 50 87 28 00
        E 7 97 23 55
        E 50 87 23 00
        E 15 97 23 1e
        E 51 87 23 00
        E 10 97 20 55
        E 1439 97 20 55
        E 12 87 20 00
        E 466 87 20 00
        E 476 97 22 55
        E 955 87 22 00
        E 6 97 24 55
        E 236 87 24 00
        E 4 97 29 55
        E 51 87 29 00
        E 14 97 29 55
        E 50 87 29 00
        E 9 97 29 55
        E 50 87 29 00
        E 3 97 2b 55
        E 50 87 2b 00
        E 15 97 2b 55
        E 1431 87 2b 00
        E 12 97 27 55
        E 488 87 27 00
        E 470 97 26 55
        E 711 87 26 00
        E 6 97 25 55
        E 51 87 25 00
        E 17 97 28 55
        E 51 87 28 00
        E 5 97 26 55
        E 50 87 26 00
        E 11 97 25 26
        E 51 87 25 00
        E 244 97 2c 55
        E 51 87 2c 00
        E 12 97 30 55
        E 50 87 30 00
        E 6 97 31 55
        E 51 87 31 00
        E 14 97 32 20
        E 50 87 32 00
        E 1448 97 32 55
        E 486 87 32 00
        E 478 97 31 55
        E 955 97 30 55
        E 10 87 31 00
        E 228 87 30 00
        E 7 97 28 55
        E 51 87 28 00
        E 6 97 28 55
        E 50 87 28 00
        E 8 97 2f 55
        E 51 87 2f 00
        E 6 97 24 55
        E 51 87 24 00
        E 11 97 26 55
        E 1425 87 26 00
        E 20 97 29 55
        E 484 87 29 00
        E 1433 97 33 55
        E 240 87 33 00
        E 3 97 27 55
        E 50 87 27 00
        E 7 97 27 55
        E 50 87 27 00
        E 9 97 24 55
        E 51 87 24 00
        E 15 97 26 20
        E 50 87 26 00
        E 5 97 27 55
        E 1421 87 27 00
        E 21 97 25 55
        E 483 87 25 00
        E 475 97 22 55
        E 955 87 22 00
        E 3 97 1e 55
        E 374 87 1e 00
        E 103 97 20 55
        E 1202 87 20 00
        E 66 97 25 55
        E 50 87 25 00
        E 8 97 2b 55
        E 51 87 2b 00
        E 9 97 28 1c
        E 50 87 28 00
        E 964 97 2c 55
        E 954 87 2c 00
        E 14 97 24 55
        E 382 87 24 00
        E 30816 97 26 55
        E 1435 87 26 00
        E 6 97 29 55
        E 470 87 29 00
        E 489 97 27 55
        E 954 97 29 55
        E 6 87 27 00
        E 235 87 29 00
        E 10 97 2c 55
        E 50 87 2c 00
        E 0 97 2a 55
        E 51 87 2a 00
        E 19 97 29 55
        E 50 87 29 00
        E 7 97 2a 55
        E 49 87 2a 00
        E 1448 97 2d 55
        E 477 87 2d 00
        E 1441 97 34 55
        E 237 87 34 00
        E 8 97 2b 55
        E 47 97 2c 22
        E 3 87 2b 00
        E 47 87 2c 00
        E 18 97 26 20
        E 50 87 26 00
        E 17 97 27 17
        E 51 87 27 00
        E 3 97 20 55
        E 1430 87 20 00
        E 6 97 1c 55
        E 472 87 1c 00
        E 495 97 26 55
        E 958 97 25 55
        E 19 87 26 00
        E 215 97 24 55
        E 5 87 25 00
        E 45 87 24 00
        E 16 97 25 55
        E 50 87 25 00
        E 8 97 25 55
        E 50 87 25 00
        E 15 97 26 55
        E 51 87 26 00
        E 7 97 27 55
        E 1432 97 26 55
        E 6 87 27 00
        E 477 87 26 00
        E 487 97 24 55
        E 709 87 24 00
        E 250 97 31 55
        E 238 87 31 00
        E 4 97 33 1c
        E 50 87 33 00
        E 5 97 34 55
        E 51 87 34 00
        E 10 97 30 55
        E 51 87 30 00
        E 8 97 30 1c
        E 52 87 30 00
        E 5 97 30 55
        E 1428 87 30 00
        E 21 97 31 55
        E 489 87 31 00
        E 464 97 2c 55
        E 950 87 2c 00
        E 15 97 2d 55
        E 235 97 2f 55
        E 8 87 2d 00
        E 43 87 2f 00
        E 12 97 29 55
        E 49 87 29 00
        E 9 97 31 55
        E 51 87 31 00
        E 14 97 31 55
        E 50 87 31 00
        E 3 97 30 55
        E 1441 87 30 00
        E 0 97 26 55
        E 482 87 26 00
        E 477 97 28 55
        E 959 87 28 00
        E 1 97 32 55
        E 240 97 25 55
        E 4 87 32 00
        E 46 87 25 00
        E 10 97 27 55
        E 50 87 27 00
        E 11 97 25 55
        E 50 87 25 00
        E 11 97 26 11
        E 51 87 26 00
        E 10 97 25 55
        E 1396 87 25 00
        E 46 97 25 55
        E 483 87 25 00
        E 475 97 30 55
        E 719 97 2a 55
        E 1 87 30 00
        E 49 87 2a 00
        E 192 97 25 55
        E 234 97 28 55
        E 10 87 25 00
        E 41 87 28 00
        E 9 97 2b 55
        E 52 87 2b 00
        E 13 97 27 55
        E 49 87 27 00
        E 12 97 27 55
        E 50 87 27 00
        E 9 97 27 55
        E 1443 97 21 55
        E 20 87 27 00
        E 457 87 21 00
        E 478 97 25 55
        E 960 97 24 55
        E 6 87 25 00
        E 372 87 24 00
        E 0 b7 7b 00
        E 1 ff 2f 00
      >
    >
  >
  <TRACK
    NAME "trap_drums_melodic"
    PEAKCOL 4290722362
    VOLPAN 1.000000 0 1 -1
    MIDIOUT -1
    ISBUS 0 0
    <ITEM
      POSITION 31.999884
      LENGTH 47.835284
      NAME "trap_drums_melodic"
      VOLPAN 1 0 1 -1
      <SOURCE MIDI
        HASDATA 1 960 QN
        E 0 c9 00 00
        E 61440 99 2a 55
        E 0 99 24 55
        E 19 99 42 4f
        E 96 89 2a 00
        E 125 99 2e 55
        E 44 89 24 00
        E 196 89 2e 00
        E 0 99 2a 55
        E 96 89 2a 00
        E 24 99 2a 55
        E 95 89 2a 00
        E 26 99 2a 55
        E 55 89 2a 00
        E 12 99 27 55
        E 55 89 27 00
        E 15 99 2a 55
        E 55 89 2a 00
        E 13 99 2a 55
        E 33 99 26 7d
        E 1 99 27 71
        E 21 89 2a 00
        E 13 99 2a 55
        E 55 89 2a 00
        E 15 99 2a 6a
        E 55 89 2a 00
        E 13 99 2a 6a
        E 55 89 2a 00
        E 13 99 2a 55
        E 46 89 27 00
        E 1 89 26 00
        E 49 89 2a 00
        E 24 99 2a 55
        E 96 89 2a 00
        E 24 99 2a 55
        E 64 89 2a 00
        E 16 99 2a 55
        E 65 89 2a 00
        E 15 99 2a 55
        E 64 89 2a 00
        E 16 99 2a 55
        E 116 89 2a 00
        E 95 89 42 00
        E 29 99 42 57
        E 0 99 2a 5c
        E 64 89 2a 00
        E 16 99 2a 55
        E 64 89 2a 00
        E 16 99 2d 55
        E 65 89 2d 00
        E 15 99 2c 59
        E 236 89 2c 00
        E 4 99 2a 55
        E 0 99 24 5c
        E 64 89 2a 00
        E 16 99 2a 55
        E 64 89 2a 00
        E 16 99 29 55
        E 63 89 29 00
        E 17 99 2a 62
        E 49 89 24 00
        E 69 89 2a 00
        E 122 99 26 60
        E 0 99 27 55
        E 80 99 2a 55
        E 65 89 2a 00
        E 15 99 2a 55
        E 64 89 2a 00
        E 16 99 2a 55
        E 47 89 27 00
        E 1 89 2a 00
        E 1 89 26 00
        E 11 99 2a 55
        E 48 89 2a 00
        E 12 99 2a 55
        E 48 89 2a 00
        E 12 99 28 55
        E 48 89 28 00
        E 12 99 2a 55
        E 0 99 24 66
        E 18 89 42 00
        E 31 89 2a 00
        E 12 99 2a 55
        E 48 89 2a 00
        E 11 99 2a 55
        E 48 89 2a 00
        E 12 99 2d 55
        E 48 89 2d 00
        E 12 99 2a 55
        E 46 89 24 00
        E 69 89 2a 00
        E 124 99 2a 55
        E 1 99 24 68
        E 19 99 3b 7d
        E 94 89 2a 00
        E 127 99 2a 60
        E 50 89 24 00
        E 13 89 2a 00
        E 16 99 2a 60
        E 64 89 2a 00
        E 17 99 2a 55
        E 64 89 2a 00
        E 16 99 2a 55
        E 116 89 2a 00
        E 123 99 29 55
        E 77 89 29 00
        E 19 99 2a 55
        E 76 89 2a 00
        E 21 99 2a 55
        E 48 99 27 7a
        E 0 99 26 6a
        E 28 89 2a 00
        E 20 99 2a 55
        E 77 89 2a 00
        E 20 99 2a 55
        E 78 89 2a 00
        E 17 99 2a 55
        E 46 89 26 00
        E 2 89 27 00
        E 68 89 2a 00
        E 125 99 2a 55
        E 115 89 2a 00
        E 124 99 2a 55
        E 55 89 2a 00
        E 13 99 2a 55
        E 55 89 2a 00
        E 14 99 29 55
        E 55 89 29 00
        E 13 99 2a 55
        E 7 89 3b 00
        E 28 99 3b 66
        E 20 89 2a 00
        E 15 99 2a 55
        E 55 89 2a 00
        E 13 99 2a 55
        E 55 89 2a 00
        E 13 99 2a 71
        E 54 89 2a 00
        E 15 99 2a 6c
        E 0 99 25 48
        E 77 89 25 00
        E 38 89 2a 00
        E 124 99 24 60
        E 2 99 2a 55
        E 64 89 2a 00
        E 15 99 29 55
        E 64 89 29 00
        E 16 99 2a 57
        E 64 89 2a 00
        E 16 99 28 55
        E 49 89 24 00
        E 66 89 28 00
        E 125 99 26 55
        E 0 99 26 5b
        E 96 99 2a 55
        E 77 89 2a 00
        E 19 99 2a 55
        E 76 89 2a 00
        E 17 89 26 00
        E 2 89 26 00
        E 1 99 2a 55
        E 76 89 2a 00
        E 20 99 2a 55
        E 76 89 2a 00
        E 20 99 24 55
        E 0 99 28 55
        E 5 89 3b 00
        E 109 89 28 00
        E 127 99 2a 55
        E 48 89 24 00
        E 67 89 2a 00
        E 123 99 24 55
        E 1 99 24 55
        E 19 99 3d 55
        E 78 89 24 00
        E 23 99 2a 55
        E 96 89 2a 00
        E 24 99 2a 55
        E 44 89 24 00
        E 4 89 2a 00
        E 12 99 2a 55
        E 48 89 2a 00
        E 12 99 2a 55
        E 48 89 2a 00
        E 12 99 2e 55
        E 48 89 2e 00
        E 13 99 2a 55
        E 114 89 2a 00
        E 125 99 2a 55
        E 116 89 2a 00
        E 124 99 26 75
        E 1 99 27 66
        E 59 99 2a 55
        E 48 89 2a 00
        E 12 99 2a 5e
        E 48 89 2a 00
        E 13 99 2a 55
        E 48 89 2a 00
        E 11 99 2a 55
        E 47 89 26 00
        E 3 89 27 00
        E 67 89 2a 00
        E 123 99 2a 55
        E 96 89 2a 00
        E 24 99 2a 55
        E 96 89 2a 00
        E 23 99 25 55
        E 1 99 2a 55
        E 76 89 25 00
        E 21 89 2a 00
        E 23 99 2a 55
        E 96 89 2a 00
        E 15 89 3d 00
        E 9 99 3d 55
        E 0 99 2a 5c
        E 116 89 2a 00
        E 124 99 2a 55
        E 48 89 2a 00
        E 12 99 2a 55
        E 48 89 2a 00
        E 12 99 2a 55
        E 48 89 2a 00
        E 12 99 2a 55
        E 48 89 2a 00
        E 12 99 2a 55
        E 1 99 24 68
        E 63 89 2a 00
        E 16 99 2a 55
        E 64 89 2a 00
        E 17 99 2a 55
        E 65 89 2a 00
        E 14 99 2a 55
        E 46 89 24 00
        E 19 89 2a 00
        E 15 99 2a 55
        E 64 89 2a 00
        E 16 99 2a 55
        E 65 89 2a 00
        E 14 99 26 5c
        E 1 99 27 66
        E 240 99 2a 55
        E 48 89 27 00
        E 1 89 26 00
        E 67 89 2a 00
        E 104 89 3d 00
        E 19 99 24 55
        E 1 99 28 55
        E 64 89 28 00
        E 16 99 2a 55
        E 64 89 2a 00
        E 15 99 2a 55
        E 65 89 2a 00
        E 16 99 2a 55
        E 0 99 26 5b
        E 45 89 24 00
        E 33 89 26 00
        E 36 89 2a 00
        E 125 99 24 79
        E 0 99 2a 55
        E 20 99 38 55
        E 76 89 2a 00
        E 25 99 2a 55
        E 96 89 2a 00
        E 24 99 2a 55
        E 48 89 24 00
        E 68 89 2a 00
        E 124 99 2a 55
        E 78 89 2a 00
        E 17 99 2a 55
        E 76 89 2a 00
        E 21 99 2a 55
        E 77 89 2a 00
        E 19 99 2a 55
        E 77 89 2a 00
        E 20 99 2a 64
        E 76 89 2a 00
        E 18 99 27 55
        E 1 99 26 5c
        E 240 99 2e 55
        E 48 89 27 00
        E 0 89 26 00
        E 193 89 2e 00
        E 0 99 2a 59
        E 114 89 2a 00
        E 125 99 25 55
        E 0 99 2a 55
        E 63 89 2a 00
        E 14 89 25 00
        E 3 99 2a 55
        E 64 89 2a 00
        E 16 99 2a 55
        E 64 89 2a 00
        E 6 89 38 00
        E 10 99 39 75
        E 1 99 2c 55
        E 238 99 2b 55
        E 1 89 2c 00
        E 0 99 26 55
        E 76 89 26 00
        E 163 99 24 55
        E 1 89 2b 00
        E 0 99 28 55
        E 97 89 28 00
        E 23 99 2a 55
        E 95 89 2a 00
        E 25 99 24 55
        E 0 99 26 55
        E 46 89 24 00
        E 18 89 24 00
        E 13 89 26 00
        E 4 99 2a 55
        E 64 89 2a 00
        E 15 99 2a 55
        E 64 89 2a 00
        E 16 99 26 62
        E 0 99 26 5c
        E 68 99 2a 55
        E 55 89 2a 00
        E 14 99 2a 55
        E 55 89 2a 00
        E 14 99 2a 55
        E 55 89 2a 00
        E 13 99 2a 55
        E 15 89 26 00
        E 3 89 26 00
        E 38 89 2a 00
        E 13 99 29 55
        E 55 89 29 00
        E 14 99 2a 55
        E 54 89 2a 00
        E 14 99 2d 55
        E 0 99 24 55
        E 32 89 39 00
        E 206 89 2d 00
        E 2 99 29 55
        E 54 89 24 00
        E 59 89 29 00
        E 127 99 29 55
        E 0 99 24 55
        E 19 99 3d 4c
        E 45 89 29 00
        E 16 99 29 55
        E 64 89 29 00
        E 16 99 29 55
        E 65 89 29 00
        E 15 99 2a 3e
        E 47 89 24 00
        E 69 89 2a 00
        E 124 99 2a 55
        E 63 89 2a 00
        E 17 99 2a 55
        E 64 89 2a 00
        E 15 99 2a 7a
        E 65 89 2a 00
        E 16 99 29 55
        E 1 99 25 5e
        E 76 89 25 00
        E 37 89 29 00
        E 126 99 26 6a
        E 0 99 26 6a
        E 79 99 2a 55
        E 64 89 2a 00
        E 17 99 2b 6d
        E 64 89 2b 00
        E 16 99 2c 55
        E 45 89 26 00
        E 2 89 26 00
        E 7 89 2c 00
        E 15 99 2b 55
        E 55 89 2b 00
        E 14 99 2c 55
        E 54 89 2c 00
        E 14 99 2c 55
        E 55 89 2c 00
        E 13 99 2b 55
        E 56 89 2b 00
        E 12 99 2a 55
        E 55 89 2a 00
        E 15 99 2a 55
        E 55 89 2a 00
        E 13 99 28 55
        E 97 89 28 00
        E 23 99 2a 55
        E 96 89 2a 00
        E 17 89 3d 00
        E 7 99 3d 6a
        E 1 99 2a 55
        E 48 89 2a 00
        E 11 99 2a 55
        E 48 89 2a 00
        E 12 99 2a 55
        E 48 89 2a 00
        E 12 99 2a 5b
        E 48 89 2a 00
        E 12 99 2a 55
        E 97 89 2a 00
        E 23 99 2b 55
        E 96 89 2b 00
        E 24 99 24 66
        E 1 99 2a 55
        E 97 89 2a 00
        E 22 99 2a 55
        E 97 89 2a 00
        E 23 99 2a 55
        E 48 89 2a 00
        E 3 89 24 00
        E 9 99 2a 55
        E 48 89 2a 00
        E 12 99 2a 60
        E 48 89 2a 00
        E 12 99 2a 60
        E 48 89 2a 00
        E 12 99 26 6c
        E 0 99 27 59
        E 121 99 2a 55
        E 95 89 2a 00
        E 24 99 2b 55
        E 49 89 27 00
        E 1 89 26 00
        E 14 89 2b 00
        E 16 99 2c 55
        E 64 89 2c 00
        E 16 99 2a 55
        E 63 89 2a 00
        E 9 89 3d 00
        E 8 99 24 5b
        E 1 99 2a 55
        E 95 89 2a 00
        E 24 99 2a 55
        E 95 89 2a 00
        E 24 99 26 55
        E 1 99 2a 55
        E 48 89 24 00
        E 9 89 26 00
        E 4 99 26 55
        E 54 89 2a 00
        E 4 89 26 00
        E 1 99 25 55
        E 57 89 25 00
        E 63 99 2a 55
        E 0 99 24 55
        E 19 99 3b 4d
        E 96 89 2a 00
        E 126 99 2a 55
        E 45 89 24 00
        E 51 89 2a 00
        E 23 99 2a 55
        E 95 89 2a 00
        E 25 99 2a 55
        E 48 89 2a 00
        E 12 99 2a 55
        E 49 89 2a 00
        E 12 99 2a 55
        E 48 89 2a 00
        E 11 99 2e 55
        E 48 89 2e 00
        E 11 99 25 55
        E 1 99 2a 55
        E 56 89 25 00
        E 4 99 26 55
        E 17 89 2a 00
        E 19 99 2a 55
        E 22 89 26 00
        E 55 89 2a 00
        E 19 99 2a 55
        E 48 99 27 64
        E 0 99 26 71
        E 28 89 2a 00
        E 20 99 2a 55
        E 77 89 2a 00
        E 20 99 2a 55
        E 76 89 2a 00
        E 19 99 2c 55
        E 48 89 27 00
        E 1 89 26 00
        E 191 99 28 55
        E 3 89 2c 00
        E 94 89 28 00
        E 23 99 2a 62
        E 97 89 2a 00
        E 23 99 29 55
        E 48 89 29 00
        E 12 99 2a 55
        E 48 89 2a 00
        E 13 99 2a 6c
        E 48 89 2a 00
        E 11 99 2a 55
        E 48 89 2a 00
        E 10 89 3b 00
        E 2 99 2a 55
        E 0 99 3b 7d
        E 117 89 2a 00
        E 123 99 2a 57
        E 115 89 2a 00
        E 125 99 24 59
        E 0 99 2a 55
        E 116 89 2a 00
        E 124 99 2e 68
        E 0 99 25 55
        E 49 89 24 00
        E 26 89 25 00
        E 161 89 2e 00
        E 4 99 27 57
        E 0 99 26 79
        E 69 99 2a 55
        E 55 89 2a 00
        E 13 99 2a 5e
        E 55 89 2a 00
        E 14 99 27 55
        E 54 89 27 00
        E 14 99 27 55
        E 14 89 27 00
        E 2 89 26 00
        E 39 89 27 00
        E 130 89 3b 00
        E 21 99 24 55
        E 240 99 2a 55
        E 49 89 24 00
        E 66 89 2a 00
        E 124 99 2a 55
        E 1 99 24 55
        E 19 99 3e 48
        E 43 89 2a 00
        E 17 99 2a 55
        E 64 89 2a 00
        E 16 99 2a 55
        E 65 89 2a 00
        E 16 99 2a 55
        E 48 89 24 00
        E 65 89 2a 00
        E 127 99 2a 64
        E 117 89 2a 00
        E 123 99 2a 55
        E 48 89 2a 00
        E 12 99 2a 55
        E 48 89 2a 00
        E 11 99 2a 55
        E 48 89 2a 00
        E 13 99 29 55
        E 48 89 29 00
        E 12 99 26 55
        E 0 99 25 57
        E 120 99 2a 55
        E 96 89 2a 00
        E 24 99 2c 55
        E 44 89 26 00
        E 2 89 25 00
        E 194 89 2c 00
        E 0 99 2a 55
        E 96 89 2a 00
        E 23 99 2a 62
        E 97 89 2a 00
        E 25 99 2a 55
        E 48 89 2a 00
        E 11 99 2a 55
        E 48 89 2a 00
        E 12 99 2a 55
        E 48 89 2a 00
        E 12 99 2d 55
        E 49 89 2d 00
        E 11 99 3e 73
        E 0 99 2a 59
        E 7 89 3e 00
        E 47 89 2a 00
        E 14 99 2a 55
        E 55 89 2a 00
        E 15 99 2a 55
        E 54 89 2a 00
        E 13 99 2a 62
        E 35 99 25 46
        E 20 89 2a 00
        E 15 99 2a 53
        E 42 89 25 00
        E 13 89 2a 00
        E 13 99 2a 66
        E 55 89 2a 00
        E 13 99 30 2d
        E 55 89 30 00
        E 13 99 24 60
        E 1 99 2a 55
        E 115 89 2a 00
        E 124 99 2a 55
        E 1 99 25 55
        E 51 89 24 00
        E 6 89 25 00
        E 3 99 26 55
        E 35 89 2a 00
        E 23 89 26 00
        E 2 99 2d 55
        E 96 89 2d 00
        E 24 99 27 6a
        E 1 99 26 7c
        E 95 99 2a 55
        E 78 89 2a 00
        E 18 99 2a 55
        E 78 89 2a 00
        E 14 89 27 00
        E 4 99 2a 55
        E 4 89 26 00
        E 73 89 2a 00
        E 19 99 2a 55
        E 77 89 2a 00
        E 10 89 3e 00
        E 9 99 24 59
        E 0 99 2a 55
        E 115 89 2a 00
        E 125 99 2a 4f
        E 46 89 24 00
        E 68 89 2a 00
        E 125 99 2a 55
        E 1 99 24 7c
        E 20 99 39 7d
        E 28 89 2a 00
        E 12 99 2a 55
        E 48 89 2a 00
        E 12 99 2a 55
        E 48 89 2a 00
        E 12 99 2d 4c
        E 48 89 2d 00
        E 12 99 2c 6a
        E 49 89 24 00
        E 189 89 2c 00
        E 2 99 2a 55
        E 115 89 2a 00
        E 125 99 2a 5c
        E 115 89 2a 00
        E 125 99 26 55
        E 1 99 26 6a
        E 239 99 2a 55
        E 45 89 26 00
        E 4 89 26 00
        E 15 89 2a 00
        E 16 99 2a 55
        E 64 89 2a 00
        E 16 99 2e 55
        E 65 89 2e 00
        E 15 99 29 55
        E 96 89 29 00
        E 25 99 2a 60
        E 95 89 2a 00
        E 24 99 25 4c
        E 0 99 29 2b
        E 77 89 25 00
        E 39 89 29 00
        E 124 99 26 55
        E 192 89 26 00
        E 288 99 26 55
        E 192 89 26 00
        E 785 89 39 00
        E 31183 99 2a 55
        E 0 99 24 60
        E 19 99 42 79
        E 78 89 2a 00
        E 23 99 2a 55
        E 96 89 2a 00
        E 23 99 2a 55
        E 50 89 24 00
        E 46 89 2a 00
        E 25 99 2a 55
        E 96 89 2a 00
        E 25 99 2a 55
        E 95 89 2a 00
        E 24 99 29 55
        E 96 89 29 00
        E 23 99 2a 55
        E 115 89 2a 00
        E 126 99 26 75
        E 1 99 27 62
        E 79 99 2a 55
        E 64 89 2a 00
        E 16 99 2a 55
        E 64 89 2a 00
        E 16 99 2d 55
        E 45 89 27 00
        E 3 89 26 00
        E 192 99 2a 5c
        E 1 89 2d 00
        E 115 89 2a 00
        E 124 99 2a 55
        E 115 89 2a 00
        E 96 89 42 00
        E 29 99 42 57
        E 0 99 2a 55
        E 65 89 2a 00
        E 16 99 2a 7d
        E 64 89 2a 00
        E 15 99 2a 7d
        E 63 89 2a 00
        E 18 99 2a 55
        E 48 89 2a 00
        E 11 99 2a 55
        E 48 89 2a 00
        E 12 99 2a 55
        E 48 89 2a 00
        E 12 99 2a 55
        E 48 89 2a 00
        E 12 99 2a 55
        E 0 99 24 55
        E 63 89 2a 00
        E 18 99 2a 55
        E 65 89 2a 00
        E 14 99 2a 55
        E 64 89 2a 00
        E 16 99 2a 55
        E 47 89 24 00
        E 30 89 2a 00
        E 19 99 2a 55
        E 76 89 2a 00
        E 20 99 2a 55
        E 48 99 27 66
        E 0 99 26 55
        E 28 89 2a 00
        E 19 99 2a 55
        E 77 89 2a 00
        E 20 99 2a 55
        E 77 89 2a 00
        E 19 99 2a 55
        E 48 89 27 00
        E 2 89 26 00
        E 65 89 2a 00
        E 117 89 42 00
        E 8 99 24 6d
        E 0 99 2a 55
        E 48 89 2a 00
        E 12 99 2a 55
        E 48 89 2a 00
        E 12 99 2a 55
        E 48 89 2a 00
        E 12 99 2a 55
        E 48 89 2a 00
        E 11 99 26 55
        E 1 99 2a 55
        E 50 89 24 00
        E 26 89 26 00
        E 39 89 2a 00
        E 125 99 24 5b
        E 0 99 2a 55
        E 19 99 3b 75
        E 58 89 2a 00
        E 19 99 2a 55
        E 76 89 2a 00
        E 20 99 2a 4f
        E 77 89 2a 00
        E 16 89 24 00
        E 3 99 2a 75
        E 76 89 2a 00
        E 20 99 2a 7c
        E 77 89 2a 00
        E 19 99 2a 6d
        E 97 89 2a 00
        E 23 99 28 55
        E 96 89 28 00
        E 24 99 25 53
        E 0 99 2a 55
        E 48 89 2a 00
        E 9 89 25 00
        E 3 99 2a 4d
        E 0 99 26 60
        E 48 89 2a 00
        E 10 89 26 00
        E 2 99 25 5e
        E 1 99 2a 7d
        E 48 89 2a 00
        E 9 89 25 00
        E 1 99 2a 7b
        E 48 89 2a 00
        E 13 99 26 68
        E 0 99 27 7b
        E 240 99 2a 3e
        E 45 89 26 00
        E 2 89 27 00
        E 8 89 2a 00
        E 14 99 2a 6f
        E 55 89 2a 00
        E 13 99 2a 6f
        E 55 89 2a 00
        E 13 99 2a 55
        E 55 89 2a 00
        E 15 99 2a 55
        E 55 89 2a 00
        E 13 99 2a 5e
        E 54 89 2a 00
        E 15 99 2e 59
        E 55 89 2e 00
        E 13 99 2a 55
        E 95 89 2a 00
        E 25 99 2a 71
        E 97 89 2a 00
        E 18 89 3b 00
        E 6 99 3b 5e
        E 0 99 2a 55
        E 65 89 2a 00
        E 15 99 2a 55
        E 65 89 2a 00
        E 13 99 2a 48
        E 64 89 2a 00
        E 17 99 2a 42
        E 55 89 2a 00
        E 14 99 29 28
        E 55 89 29 00
        E 13 99 29 2d
        E 55 89 29 00
        E 14 99 2a 55
        E 34 99 24 64
        E 21 89 2a 00
        E 13 99 28 55
        E 54 89 28 00
        E 14 99 2a 55
        E 54 89 2a 00
        E 15 99 29 3e
        E 54 89 29 00
        E 14 99 27 55
        E 53 89 24 00
        E 44 89 27 00
        E 24 99 2a 59
        E 96 89 2a 00
        E 24 99 27 5c
        E 0 99 26 79
        E 69 99 29 55
        E 55 89 29 00
        E 13 99 24 55
        E 55 89 24 00
        E 13 99 2c 59
        E 55 89 2c 00
        E 14 99 2a 55
        E 15 89 27 00
        E 2 89 26 00
        E 39 89 2a 00
        E 13 99 28 55
        E 55 89 28 00
        E 82 99 25 55
        E 0 99 29 55
        E 14 89 3b 00
        E 64 89 29 00
        E 18 99 28 28
        E 77 89 28 00
        E 19 99 29 55
        E 48 99 26 55
        E 28 89 29 00
        E 20 89 25 00
        E 0 99 2a 55
        E 31 89 26 00
        E 46 89 2a 00
        E 19 99 2d 55
        E 77 89 2d 00
        E 18 99 29 55
        E 1 99 24 55
        E 19 99 3d 40
        E 77 89 29 00
        E 24 99 2a 55
        E 96 89 2a 00
        E 24 99 2a 55
        E 47 89 24 00
        E 68 89 2a 00
        E 125 99 2a 55
        E 95 89 2a 00
        E 25 99 2a 55
        E 96 89 2a 00
        E 24 99 25 55
        E 0 99 2d 64
        E 57 89 25 00
        E 3 99 26 55
        E 58 89 26 00
        E 2 99 25 55
        E 57 89 25 00
        E 62 89 2d 00
        E 1 99 26 57
        E 1 99 27 68
        E 239 99 2b 55
        E 48 89 27 00
        E 1 89 26 00
        E 67 89 2b 00
        E 124 99 2a 55
        E 116 89 2a 00
        E 124 99 2a 4d
        E 48 89 2a 00
        E 13 99 2a 62
        E 48 89 2a 00
        E 11 99 2a 48
        E 48 89 2a 00
        E 12 99 2a 7d
        E 32 89 3d 00
        E 16 89 2a 00
        E 11 99 40 71
        E 1 99 2a 55
        E 66 89 2a 00
        E 14 99 2a 55
        E 63 89 2a 00
        E 17 99 2a 68
        E 64 89 2a 00
        E 16 99 2a 66
        E 0 99 26 6a
        E 77 89 26 00
        E 37 89 2a 00
        E 125 99 2a 55
        E 1 99 24 55
        E 96 89 2a 00
        E 24 99 2e 55
        E 96 89 2e 00
        E 24 99 28 55
        E 0 99 26 55
        E 46 89 24 00
        E 18 89 28 00
        E 13 89 26 00
        E 3 99 2a 55
        E 64 89 2a 00
        E 16 99 2e 6f
        E 64 89 2e 00
        E 15 99 27 6d
        E 1 99 26 71
        E 240 99 2a 55
        E 43 89 27 00
        E 7 89 26 00
        E 46 89 2a 00
        E 23 99 2a 55
        E 96 89 2a 00
        E 22 89 40 00
        E 2 99 24 60
        E 1 99 2a 55
        E 48 89 2a 00
        E 11 99 2a 55
        E 49 89 2a 00
        E 13 99 29 55
        E 48 89 29 00
        E 11 99 29 55
        E 48 89 29 00
        E 12 99 2a 5e
        E 46 89 24 00
        E 69 89 2a 00
        E 125 99 2a 55
        E 1 99 24 55
        E 18 99 39 55
        E 77 89 2a 00
        E 24 99 2a 55
        E 95 89 2a 00
        E 25 99 2a 55
        E 48 89 24 00
        E 0 89 2a 00
        E 12 99 2a 55
        E 48 89 2a 00
        E 12 99 2a 55
        E 48 89 2a 00
        E 12 99 2d 55
        E 48 89 2d 00
        E 12 99 2d 55
        E 240 89 2d 00
        E 0 99 2a 55
        E 64 89 2a 00
        E 16 99 2a 55
        E 64 89 2a 00
        E 16 99 2a 55
        E 64 89 2a 00
        E 16 99 27 57
        E 1 99 26 6d
        E 59 99 2a 55
        E 48 89 2a 00
        E 12 99 2a 55
        E 48 89 2a 00
        E 13 99 2a 55
        E 48 89 2a 00
        E 12 99 2a 55
        E 45 89 26 00
        E 5 89 27 00
        E 14 89 2a 00
        E 15 99 2a 55
        E 63 89 2a 00
        E 17 99 2e 59
        E 65 89 2e 00
        E 15 99 2a 55
        E 115 89 2a 00
        E 125 99 2a 55
        E 64 89 2a 00
        E 17 99 2a 55
        E 64 89 2a 00
        E 15 99 2a 5b
        E 65 89 2a 00
        E 14 89 39 00
        E 1 99 2a 55
        E 0 99 39 7d
        E 96 89 2a 00
        E 24 99 2a 55
        E 96 89 2a 00
        E 24 99 2c 48
        E 240 99 24 59
        E 1 99 29 55
        E 1 89 2c 00
        E 95 89 29 00
        E 22 99 28 55
        E 95 89 28 00
        E 25 99 2a 55
        E 47 89 24 00
        E 68 89 2a 00
        E 126 99 25 55
        E 0 99 25 55
        E 80 99 2a 55
        E 64 89 2a 00
        E 16 99 2a 55
        E 65 89 2a 00
        E 14 99 2a 55
        E 47 89 25 00
        E 1 89 25 00
        E 16 89 2a 00
        E 16 99 2b 55
        E 64 89 2b 00
        E 17 99 2b 55
        E 64 89 2b 00
        E 16 99 24 55
        E 0 99 28 55
        E 1 89 39 00
        E 47 89 28 00
        E 12 99 29 55
        E 48 89 29 00
        E 13 99 2b 55
        E 48 89 2b 00
        E 11 99 2a 55
        E 48 89 2a 00
        E 12 99 24 1c
        E 1 99 2a 55
        E 45 89 24 00
        E 11 89 24 00
        E 3 99 22 1c
        E 55 89 2a 00
        E 2 89 22 00
        E 2 99 26 55
        E 58 89 26 00
        E 63 99 25 55
        E 1 99 24 66
        E 19 99 3d 55
        E 96 89 25 00
        E 124 99 2a 55
        E 51 89 24 00
        E 13 89 2a 00
        E 16 99 2a 55
        E 65 89 2a 00
        E 15 99 2a 57
        E 64 89 2a 00
        E 16 99 2a 55
        E 114 89 2a 00
        E 126 99 2a 55
        E 96 89 2a 00
        E 24 99 2a 57
        E 96 89 2a 00
        E 24 99 27 79
        E 0 99 26 5b
        E 240 99 2a 55
        E 48 89 27 00
        E 3 89 26 00
        E 44 89 2a 00
        E 25 99 2a 55
        E 97 89 2a 00
        E 23 99 2a 55
        E 114 89 2a 00
        E 126 99 2a 55
        E 64 89 2a 00
        E 15 99 2a 55
        E 64 89 2a 00
        E 17 99 2a 55
        E 64 89 2a 00
        E 2 89 3d 00
        E 13 99 2a 55
        E 2 99 3d 64
        E 114 89 2a 00
        E 125 99 25 53
        E 0 99 2a 5e
        E 58 89 25 00
        E 2 99 26 5c
        E 55 89 2a 00
        E 3 89 26 00
        E 122 99 24 75
        E 1 99 2a 55
        E 117 89 2a 00
        E 121 99 25 55
        E 0 99 29 55
        E 50 89 24 00
        E 7 89 25 00
        E 4 99 26 55
        E 16 89 29 00
        E 20 99 2a 55
        E 21 89 26 00
        E 56 89 2a 00
        E 20 99 2a 55
        E 47 99 27 6c
        E 0 99 26 75
        E 30 89 2a 00
        E 18 99 2a 55
        E 77 89 2a 00
        E 19 99 2a 55
        E 76 89 2a 00
        E 19 99 2a 55
        E 47 89 27 00
        E 0 89 26 00
        E 51 89 2a 00
        E 23 99 2a 57
        E 96 89 2a 00
        E 19 89 3d 00
        E 4 99 24 55
        E 2 99 28 55
        E 116 89 28 00
        E 122 99 26 55
        E 1 99 2a 55
        E 48 89 24 00
        E 10 89 26 00
        E 2 99 26 55
        E 54 89 2a 00
        E 4 89 26 00
        E 122 99 29 55
        E 1 99 24 6c
        E 18 99 3b 57
        E 77 89 29 00
        E 24 99 2d 55
        E 96 89 2d 00
        E 25 99 2a 55
        E 48 89 24 00
        E 16 89 2a 00
        E 15 99 2a 55
        E 64 89 2a 00
        E 16 99 2a 55
        E 64 89 2a 00
        E 16 99 2e 55
        E 239 89 2e 00
        E 1 99 2a 55
        E 54 89 2a 00
        E 14 99 2a 55
        E 55 89 2a 00
        E 14 99 29 55
        E 54 89 29 00
        E 14 99 2a 55
        E 35 99 26 68
        E 0 99 27 5c
        E 19 89 2a 00
        E 16 99 2a 55
        E 54 89 2a 00
        E 13 99 2a 55
        E 55 89 2a 00
        E 15 99 2e 55
        E 54 89 2e 00
        E 14 99 2a 57
        E 46 89 27 00
        E 3 89 26 00
        E 65 89 2a 00
        E 126 99 2a 55
        E 64 89 2a 00
        E 16 99 2a 55
        E 63 89 2a 00
        E 17 99 2a 55
        E 63 89 2a 00
        E 18 99 2a 55
        E 115 89 2a 00
        E 104 89 3b 00
        E 19 99 3b 5e
        E 1 99 2a 55
        E 95 89 2a 00
        E 25 99 2d 55
        E 95 89 2d 00
        E 24 99 26 6c
        E 1 99 2a 37
        E 75 89 26 00
        E 1 89 2a 00
        E 20 99 2a 4c
        E 77 89 2a 00
        E 19 99 2a 55
        E 47 99 25 55
        E 30 89 2a 00
        E 19 99 29 55
        E 76 89 29 00
        E 20 99 2a 55
        E 78 89 2a 00
        E 18 99 2a 55
        E 45 89 25 00
        E 10 89 2a 00
        E 13 99 29 55
        E 55 89 29 00
        E 14 99 2a 55
        E 55 89 2a 00
        E 14 99 2a 55
        E 34 99 27 75
        E 0 99 26 60
        E 22 89 2a 00
        E 13 99 2a 55
        E 55 89 2a 00
        E 12 99 2a 55
        E 54 89 2a 00
        E 15 99 2a 55
        E 55 89 2a 00
        E 13 99 2a 55
        E 49 89 26 00
        E 3 89 27 00
        E 62 89 2a 00
        E 119 89 3b 00
        E 8 99 24 5b
        E 1 99 28 55
        E 48 89 28 00
        E 12 99 29 55
        E 48 89 29 00
        E 11 99 29 55
        E 48 89 29 00
        E 12 99 2a 55
        E 48 89 2a 00
        E 12 99 2d 55
        E 50 89 24 00
        E 189 99 2d 55
        E 1 89 2d 00
        E 0 99 24 55
        E 19 99 3d 42
        E 219 89 2d 00
        E 2 99 2a 55
        E 49 89 24 00
        E 65 89 2a 00
        E 126 99 2a 57
        E 116 89 2a 00
        E 124 99 2a 55
        E 114 89 2a 00
        E 126 99 25 55
        E 0 99 26 55
        E 79 99 2a 55
        E 64 89 2a 00
        E 17 99 2a 57
        E 64 89 2a 00
        E 17 99 2a 55
        E 48 89 25 00
        E 2 89 26 00
        E 46 89 2a 00
        E 23 99 2d 55
        E 95 89 2d 00
        E 25 99 2d 55
        E 238 89 2d 00
        E 2 99 2a 55
        E 48 89 2a 00
        E 12 99 2a 55
        E 49 89 2a 00
        E 10 99 2a 55
        E 48 89 2a 00
        E 13 99 2a 55
        E 48 89 2a 00
        E 12 99 40 7d
        E 0 99 2a 5e
        E 8 89 3d 00
        E 106 89 2a 00
        E 126 99 27 51
        E 0 99 2a 71
        E 58 89 27 00
        E 2 99 26 66
        E 55 89 2a 00
        E 2 89 26 00
        E 122 99 2a 55
        E 1 99 24 62
        E 116 89 2a 00
        E 124 99 2a 55
        E 48 89 24 00
        E 68 89 2a 00
        E 124 99 27 60
        E 0 99 26 57
        E 240 99 2a 57
        E 45 89 27 00
        E 6 89 26 00
        E 45 89 2a 00
        E 24 99 2a 55
        E 95 89 2a 00
        E 7 89 40 00
        E 17 99 29 55
        E 1 99 23 55
        E 116 89 29 00
        E 124 99 2a 55
        E 49 89 23 00
        E 66 89 2a 00
        E 125 99 2a 55
        E 0 99 24 57
        E 19 99 39 55
        E 96 89 2a 00
        E 125 99 2a 55
        E 49 89 24 00
        E 48 89 2a 00
        E 23 99 2d 55
        E 97 89 2d 00
        E 23 99 2a 5c
        E 114 89 2a 00
        E 126 99 2a 55
        E 115 89 2a 00
        E 125 99 27 66
        E 0 99 26 66
        E 60 99 2a 5b
        E 48 89 2a 00
        E 12 99 2a 5b
        E 48 89 2a 00
        E 12 99 29 55
        E 49 89 29 00
        E 11 99 27 55
        E 47 89 27 00
        E 1 89 26 00
        E 48 89 27 00
        E 24 99 29 55
        E 97 89 29 00
        E 23 99 29 55
        E 97 89 29 00
        E 23 99 2f 55
        E 95 89 2f 00
        E 25 99 29 55
        E 65 89 29 00
        E 15 99 28 55
        E 63 89 28 00
        E 17 99 2e 55
        E 64 89 2e 00
        E 16 99 26 55
        E 191 89 26 00
        E 289 99 24 55
        E 192 89 24 00
        E 739 89 39 00
        E 0 b9 7b 00
        E 1 ff 2f 00
      >
    >
  >
  <TRACK
    NAME "keys_hook"
    PEAKCOL 4284506208
    VOLPAN 1.000000 0 1 -1
    MIDIOUT -1
    ISBUS 0 0
    <ITEM
      POSITION 31.999890
      LENGTH 47.898609
      NAME "keys_hook"
      VOLPAN 1 0 1 -1
      <SOURCE MIDI
        HASDATA 1 960 QN
        E 0 c8 04 00
        E 61440 98 44 55
        E 7 98 32 55
        E 5 98 34 55
        E 3 98 32 55
        E 5 98 38 55
        E 56 88 32 00
        E 15 88 32 00
        E 5 88 34 00
        E 2 88 44 00
        E 7 88 38 00
        E 588 98 31 55
        E 24 98 39 20
        E 10 98 3e 55
        E 7 98 34 55
        E 8 98 31 55
        E 5 88 31 00
        E 35 88 34 00
        E 14 88 39 00
        E 2 88 3e 00
        E 12 88 31 00
        E 615 98 31 55
        E 2 98 36 55
        E 2 98 38 55
        E 7 98 3d 55
        E 5 98 32 55
        E 33 88 31 00
        E 24 88 3d 00
        E 3 88 32 00
        E 7 88 36 00
        E 4 88 38 00
        E 385 98 31 55
        E 18 98 38 55
        E 16 98 35 55
        E 16 98 31 55
        E 11 98 42 55
        E 31 88 31 00
        E 9 88 35 00
        E 4 88 31 00
        E 6 88 38 00
        E 67 88 42 00
        E 534 98 32 55
        E 20 98 44 55
        E 1 98 35 55
        E 19 98 39 42
        E 4 98 30 55
        E 36 88 32 00
        E 4 88 35 00
        E 6 88 44 00
        E 12 88 30 00
        E 2 88 39 00
        E 638 98 45 55
        E 8 98 31 55
        E 3 98 38 55
        E 5 98 30 55
        E 14 98 34 55
        E 34 88 45 00
        E 2 88 38 00
        E 14 88 30 00
        E 10 88 31 00
        E 8 88 34 00
        E 383 98 37 55
        E 1 98 35 55
        E 1 98 3e 55
        E 11 98 39 55
        E 4 98 2e 55
        E 41 88 3e 00
        E 7 88 39 00
        E 6 88 35 00
        E 7 88 37 00
        E 6 88 2e 00
        E 625 98 3b 55
        E 18 98 38 55
        E 1 98 3d 55
        E 3 98 32 55
        E 13 98 36 55
        E 40 88 38 00
        E 2 88 3b 00
        E 12 88 32 00
        E 13 88 3d 00
        E 22 88 36 00
        E 593 98 3c 55
        E 12 98 32 55
        E 7 98 3e 55
        E 13 98 31 55
        E 6 98 36 55
        E 14 88 3c 00
        E 27 88 3e 00
        E 9 88 31 00
        E 3 88 32 00
        E 53 88 36 00
        E 357 98 3d 55
        E 0 98 3c 55
        E 4 98 32 55
        E 4 98 36 55
        E 2 98 31 55
        E 41 88 3d 00
        E 33 88 32 00
        E 7 88 31 00
        E 5 88 3c 00
        E 8 88 36 00
        E 597 98 32 55
        E 5 98 39 55
        E 11 98 34 55
        E 7 98 39 55
        E 12 98 3e 55
        E 33 88 34 00
        E 2 88 32 00
        E 1 88 39 00
        E 16 88 39 00
        E 12 88 3e 00
        E 621 98 35 55
        E 20 98 39 55
        E 5 98 37 55
        E 1 98 32 55
        E 20 98 3b 55
        E 22 88 39 00
        E 5 88 37 00
        E 2 88 35 00
        E 28 88 3b 00
        E 11 88 32 00
        E 359 98 39 55
        E 32 98 3a 55
        E 2 98 3d 55
        E 5 98 31 55
        E 7 98 31 55
        E 40 88 39 00
        E 13 88 31 00
        E 17 88 3a 00
        E 3 88 31 00
        E 2 88 3d 00
        E 615 98 31 55
        E 20 98 42 35
        E 0 98 30 55
        E 5 98 3b 55
        E 12 98 38 55
        E 31 88 31 00
        E 10 88 42 00
        E 6 88 3b 00
        E 13 88 38 00
        E 20 88 30 00
        E 594 98 41 55
        E 4 98 3b 55
        E 10 98 31 55
        E 15 98 31 55
        E 0 98 32 55
        E 33 88 3b 00
        E 15 88 31 00
        E 2 88 32 00
        E 10 88 41 00
        E 20 88 31 00
        E 384 98 42 55
        E 1 98 38 55
        E 14 98 3b 55
        E 0 98 31 55
        E 12 98 31 55
        E 30 88 38 00
        E 37 88 42 00
        E 1 88 3b 00
        E 2 88 31 00
        E 3 88 31 00
        E 631 98 3a 55
        E 7 98 31 55
        E 1 98 40 55
        E 6 98 32 55
        E 3 98 38 55
        E 51 88 32 00
        E 2 88 40 00
        E 4 88 3a 00
        E 2 88 38 00
        E 5 88 31 00
        E 599 98 31 55
        E 17 98 32 55
        E 1 98 3f 55
        E 20 98 3a 55
        E 25 98 33 55
        E 20 88 31 00
        E 1 88 3f 00
        E 13 88 3a 00
        E 4 88 32 00
        E 43 88 33 00
        E 352 98 44 55
        E 2 98 2f 55
        E 9 98 34 55
        E 10 98 34 55
        E 5 98 33 55
        E 45 88 44 00
        E 9 88 34 00
        E 4 88 2f 00
        E 12 88 34 00
        E 14 88 33 00
        E 616 98 3e 55
        E 1 98 32 55
        E 1 98 3c 55
        E 21 98 31 55
        E 7 98 34 55
        E 35 88 3c 00
        E 9 88 3e 00
        E 6 88 31 00
        E 5 88 32 00
        E 18 88 34 00
        E 634 98 4a 37
        E 2 98 31 55
        E 3 98 3f 55
        E 17 98 32 55
        E 9 98 31 55
        E 34 88 31 00
        E 0 88 3f 00
        E 25 88 32 00
        E 4 88 4a 00
        E 8 88 31 00
        E 379 98 3f 55
        E 3 98 3d 55
        E 3 98 31 55
        E 10 98 30 55
        E 3 98 31 55
        E 57 88 3d 00
        E 1 88 31 00
        E 1 88 3f 00
        E 2 88 31 00
        E 14 88 30 00
        E 609 98 39 55
        E 7 98 38 55
        E 1 98 32 55
        E 7 98 3e 55
        E 5 98 35 55
        E 52 88 32 00
        E 4 88 39 00
        E 1 88 3e 00
        E 13 88 35 00
        E 3 88 38 00
        E 620 98 32 55
        E 5 98 31 55
        E 3 98 44 55
        E 6 98 35 55
        E 17 98 3e 55
        E 28 88 31 00
        E 3 88 32 00
        E 6 88 35 00
        E 20 88 44 00
        E 17 88 3e 00
        E 368 98 3f 42
        E 35 98 31 55
        E 0 98 31 55
        E 1 98 36 55
        E 12 98 38 55
        E 24 88 3f 00
        E 27 88 36 00
        E 20 88 31 00
        E 6 88 31 00
        E 4 88 38 00
        E 606 98 3e 55
        E 8 98 39 55
        E 2 98 33 55
        E 3 98 33 55
        E 35 98 38 55
        E 5 88 3e 00
        E 21 88 33 00
        E 7 88 39 00
        E 5 88 33 00
        E 32 88 38 00
        E 609 98 32 55
        E 4 98 39 55
        E 4 98 33 55
        E 9 98 3d 55
        E 3 98 2d 55
        E 46 88 3d 00
        E 1 88 39 00
        E 4 88 32 00
        E 9 88 2d 00
        E 22 88 33 00
        E 361 98 3d 55
        E 8 98 39 55
        E 5 98 3a 55
        E 15 98 32 55
        E 17 98 32 55
        E 26 88 3d 00
        E 17 88 39 00
        E 20 88 3a 00
        E 7 88 32 00
        E 6 88 32 00
        E 602 98 39 55
        E 18 98 32 55
        E 9 98 3d 2a
        E 1 98 31 55
        E 12 98 39 55
        E 10 88 39 00
        E 44 88 3d 00
        E 5 88 32 00
        E 2 88 31 00
        E 35 88 39 00
        E 587 98 31 55
        E 3 98 33 55
        E 11 98 39 55
        E 1 98 3e 55
        E 20 98 31 55
        E 29 88 31 00
        E 20 88 33 00
        E 13 88 3e 00
        E 7 88 31 00
        E 13 88 39 00
        E 355 98 32 55
        E 14 98 3e 55
        E 12 98 34 55
        E 22 98 39 55
        E 1 98 32 55
        E 13 88 3e 00
        E 22 88 32 00
        E 6 88 34 00
        E 10 88 32 00
        E 21 88 39 00
        E 593 98 3d 44
        E 25 98 38 55
        E 11 98 31 55
        E 1 98 32 55
        E 3 98 40 55
        E 37 88 3d 00
        E 9 88 31 00
        E 27 88 40 00
        E 2 88 38 00
        E 4 88 32 00
        E 616 98 31 55
        E 11 98 3c 55
        E 7 98 33 55
        E 11 98 35 55
        E 14 98 3e 55
        E 24 88 31 00
        E 23 88 35 00
        E 4 88 3c 00
        E 0 88 3e 00
        E 5 88 33 00
        E 388 98 3b 55
        E 2 98 32 55
        E 0 98 37 55
        E 8 98 37 55
        E 25 98 36 55
        E 15 88 37 00
        E 17 88 3b 00
        E 5 88 37 00
        E 16 88 32 00
        E 22 88 36 00
        E 594 98 35 55
        E 6 98 3b 55
        E 23 98 36 55
        E 8 98 37 55
        E 3 98 31 55
        E 8 88 35 00
        E 6 88 3b 00
        E 26 88 36 00
        E 21 88 31 00
        E 12 88 37 00
        E 624 98 31 55
        E 3 98 31 55
        E 1 98 3c 55
        E 7 98 33 55
        E 12 98 31 55
        E 28 88 31 00
        E 30 88 33 00
        E 2 88 31 00
        E 14 88 3c 00
        E 11 88 31 00
        E 362 98 32 55
        E 5 98 32 55
        E 16 98 42 55
        E 2 98 38 1c
        E 8 98 31 55
        E 22 88 32 00
        E 36 88 32 00
        E 2 88 38 00
        E 1 88 42 00
        E 17 88 31 00
        E 598 98 38 55
        E 5 98 32 55
        E 39 98 3c 33
        E 6 98 40 2a
        E 1 98 32 55
        E 11 88 32 00
        E 20 88 38 00
        E 22 88 3c 00
        E 32 88 40 00
        E 8 88 32 00
        E 585 98 32 55
        E 24 98 3c 55
        E 0 98 31 55
        E 2 98 31 55
        E 18 98 41 55
        E 36 88 32 00
        E 11 88 31 00
        E 9 88 3c 00
        E 4 88 31 00
        E 20 88 41 00
        E 361 98 38 55
        E 1 98 3c 55
        E 12 98 31 55
        E 8 98 3c 55
        E 4 98 31 55
        E 41 88 3c 00
        E 17 88 31 00
        E 8 88 38 00
        E 9 88 31 00
        E 14 88 3c 00
        E 577 98 30 55
        E 30 98 3f 55
        E 6 98 33 55
        E 8 98 33 55
        E 19 98 3c 55
        E 1 88 30 00
        E 22 88 33 00
        E 9 88 3f 00
        E 16 88 3c 00
        E 23 88 33 00
        E 639 98 40 55
        E 2 98 38 55
        E 3 98 31 55
        E 1 98 32 55
        E 5 98 3a 55
        E 61 88 32 00
        E 4 88 31 00
        E 1 88 38 00
        E 7 88 3a 00
        E 3 88 40 00
        E 357 98 31 55
        E 15 98 38 55
        E 1 98 27 55
        E 4 98 31 55
        E 7 98 42 55
        E 55 88 27 00
        E 1 88 42 00
        E 5 88 31 00
        E 7 88 31 00
        E 2 88 38 00
        E 631 98 49 55
        E 19 98 32 55
        E 6 98 32 55
        E 1 98 38 55
        E 13 98 38 55
        E 41 88 49 00
        E 14 88 38 00
        E 3 88 32 00
        E 10 88 32 00
        E 10 88 38 00
        E 600 98 32 55
        E 2 98 39 55
        E 5 98 32 55
        E 8 98 32 55
        E 5 98 48 55
        E 42 88 32 00
        E 2 88 39 00
        E 10 88 32 00
        E 1 88 32 00
        E 26 88 48 00
        E 400 98 38 55
        E 3 98 30 55
        E 4 98 36 55
        E 2 98 48 20
        E 4 98 32 55
        E 47 88 30 00
        E 4 88 38 00
        E 11 88 32 00
        E 10 88 36 00
        E 9 88 48 00
        E 613 98 47 55
        E 9 98 36 55
        E 11 98 30 55
        E 5 98 2f 55
        E 0 98 38 55
        E 41 88 47 00
        E 4 88 36 00
        E 4 88 30 00
        E 2 88 2f 00
        E 41 88 38 00
        E 602 98 36 55
        E 3 98 39 55
        E 12 98 30 55
        E 3 98 34 55
        E 7 98 48 33
        E 40 88 36 00
        E 18 88 48 00
        E 3 88 39 00
        E 2 88 30 00
        E 29 88 34 00
        E 31098 98 35 55
        E 1 98 33 55
        E 0 98 45 55
        E 1 98 38 55
        E 1 98 32 55
        E 54 88 45 00
        E 7 88 35 00
        E 3 88 38 00
        E 4 88 32 00
        E 11 88 33 00
        E 615 98 36 55
        E 5 98 45 55
        E 4 98 31 55
        E 12 98 38 55
        E 0 98 32 55
        E 40 88 36 00
        E 9 88 31 00
        E 27 88 45 00
        E 11 88 38 00
        E 1 88 32 00
        E 636 98 34 55
        E 4 98 36 55
        E 7 98 32 55
        E 8 98 40 55
        E 9 98 31 55
        E 22 88 34 00
        E 8 88 36 00
        E 17 88 32 00
        E 22 88 31 00
        E 13 88 40 00
        E 364 98 45 55
        E 1 98 32 55
        E 1 98 39 55
        E 2 98 31 55
        E 15 98 35 55
        E 49 88 45 00
        E 1 88 31 00
        E 2 88 39 00
        E 11 88 32 00
        E 28 88 35 00
        E 599 98 31 55
        E 2 98 39 55
        E 3 98 35 55
        E 10 98 44 55
        E 8 98 32 55
        E 37 88 31 00
        E 21 88 39 00
        E 10 88 35 00
        E 11 88 44 00
        E 2 88 32 00
        E 616 98 32 55
        E 3 98 45 55
        E 1 98 31 55
        E 14 98 31 55
        E 20 98 34 55
        E 24 88 31 00
        E 5 88 45 00
        E 32 88 32 00
        E 14 88 31 00
        E 10 88 34 00
        E 362 98 3e 55
        E 1 98 32 55
        E 11 98 35 55
        E 24 98 39 55
        E 7 98 38 55
        E 17 88 32 00
        E 5 88 3e 00
        E 27 88 39 00
        E 1 88 35 00
        E 3 88 38 00
        E 604 98 34 55
        E 27 98 34 55
        E 0 98 3a 55
        E 15 98 32 55
        E 6 98 39 55
        E 2 88 34 00
        E 35 88 3a 00
        E 10 88 34 00
        E 11 88 32 00
        E 5 88 39 00
        E 626 98 30 55
        E 3 98 3d 55
        E 26 98 3d 55
        E 3 98 35 55
        E 1 98 37 55
        E 42 88 30 00
        E 8 88 3d 00
        E 7 88 3d 00
        E 12 88 37 00
        E 9 88 35 00
        E 386 98 34 55
        E 2 98 38 55
        E 5 98 3a 55
        E 7 98 3d 55
        E 5 98 31 55
        E 53 88 34 00
        E 7 88 3d 00
        E 2 88 31 00
        E 9 88 38 00
        E 8 88 3a 00
        E 610 98 39 55
        E 1 98 34 55
        E 14 98 32 55
        E 5 98 34 55
        E 20 98 3e 55
        E 34 88 39 00
        E 6 88 32 00
        E 3 88 34 00
        E 35 88 34 00
        E 3 88 3e 00
        E 606 98 31 55
        E 4 98 3e 55
        E 1 98 3f 55
        E 1 98 37 55
        E 7 98 35 55
        E 45 88 3f 00
        E 4 88 31 00
        E 5 88 37 00
        E 0 88 35 00
        E 16 88 3e 00
        E 378 98 3c 20
        E 28 98 3e 1c
        E 4 98 32 55
        E 0 98 31 55
        E 5 98 34 55
        E 28 88 3c 00
        E 21 88 31 00
        E 9 88 32 00
        E 9 88 34 00
        E 9 88 3e 00
        E 605 98 2e 55
        E 12 98 3a 55
        E 15 98 3a 2a
        E 9 98 37 55
        E 1 98 31 55
        E 25 88 2e 00
        E 10 88 3a 00
        E 13 88 3a 00
        E 18 88 37 00
        E 18 88 31 00
        E 608 98 31 55
        E 6 98 32 55
        E 8 98 34 55
        E 14 98 3d 55
        E 7 98 3d 55
        E 25 88 32 00
        E 6 88 31 00
        E 10 88 34 00
        E 10 88 3d 00
        E 26 88 3d 00
        E 365 98 31 55
        E 26 98 39 55
        E 5 98 3b 55
        E 1 98 32 55
        E 16 98 3c 55
        E 25 88 31 00
        E 2 88 39 00
        E 33 88 32 00
        E 7 88 3c 00
        E 18 88 3b 00
        E 577 98 30 55
        E 14 98 41 55
        E 20 98 30 55
        E 0 98 30 55
        E 24 98 3c 55
        E 14 88 30 00
        E 9 88 41 00
        E 13 88 30 00
        E 12 88 30 00
        E 26 88 3c 00
        E 607 98 32 55
        E 0 98 44 55
        E 7 98 3a 55
        E 5 98 37 55
        E 2 98 30 55
        E 42 88 3a 00
        E 6 88 30 00
        E 6 88 32 00
        E 0 88 44 00
        E 16 88 37 00
        E 370 98 38 55
        E 53 88 38 00
        E 1 98 2c 55
        E 1 98 37 55
        E 4 98 32 55
        E 22 98 43 1c
        E 38 88 2c 00
        E 6 88 37 00
        E 10 88 32 00
        E 12 88 43 00
        E 581 98 33 55
        E 15 98 33 55
        E 2 98 31 55
        E 6 98 31 55
        E 8 98 48 55
        E 25 88 33 00
        E 7 88 33 00
        E 35 88 31 00
        E 7 88 48 00
        E 20 88 31 00
        E 592 98 49 55
        E 25 98 38 55
        E 3 98 31 55
        E 3 98 32 55
        E 9 98 32 55
        E 23 88 49 00
        E 36 88 31 00
        E 2 88 38 00
        E 0 88 32 00
        E 12 88 32 00
        E 383 98 49 55
        E 3 98 31 55
        E 7 98 31 55
        E 7 98 38 55
        E 11 98 31 55
        E 28 88 49 00
        E 9 88 38 00
        E 27 88 31 00
        E 3 88 31 00
        E 9 88 31 00
        E 619 98 30 55
        E 3 98 48 2f
        E 0 98 39 55
        E 0 98 38 55
        E 10 98 33 55
        E 41 88 38 00
        E 15 88 39 00
        E 8 88 33 00
        E 7 88 30 00
        E 6 88 48 00
        E 627 98 2f 55
        E 14 98 34 55
        E 9 98 49 55
        E 5 98 32 55
        E 3 98 3d 55
        E 40 88 2f 00
        E 20 88 34 00
        E 5 88 49 00
        E 1 88 32 00
        E 40 88 3d 00
        E 343 98 39 55
        E 4 98 32 55
        E 13 98 40 55
        E 4 98 32 55
        E 12 98 37 55
        E 40 88 39 00
        E 12 88 32 00
        E 6 88 32 00
        E 5 88 37 00
        E 5 88 40 00
        E 614 98 30 55
        E 14 98 3e 55
        E 7 98 30 55
        E 0 98 38 55
        E 12 98 39 55
        E 30 88 30 00
        E 15 88 38 00
        E 22 88 3e 00
        E 8 88 30 00
        E 9 88 39 00
        E 611 98 38 55
        E 0 98 31 55
        E 5 98 31 55
        E 2 98 38 55
        E 11 98 3e 40
        E 44 88 38 00
        E 3 88 38 00
        E 23 88 31 00
        E 3 88 3e 00
        E 1 88 31 00
        E 384 98 38 55
        E 8 98 3e 55
        E 12 98 30 55
        E 3 98 30 55
        E 6 98 37 55
        E 46 88 38 00
        E 9 88 3e 00
        E 14 88 30 00
        E 1 88 37 00
        E 11 88 30 00
        E 602 98 3d 55
        E 11 98 31 55
        E 10 98 32 55
        E 4 98 38 55
        E 6 98 34 55
        E 38 88 3d 00
        E 5 88 31 00
        E 10 88 38 00
        E 13 88 32 00
        E 8 88 34 00
        E 627 98 39 55
        E 3 98 3f 55
        E 8 98 30 55
        E 3 98 30 55
        E 21 98 32 55
        E 22 88 3f 00
        E 25 88 39 00
        E 7 88 30 00
        E 9 88 30 00
        E 14 88 32 00
        E 372 98 32 55
        E 7 98 3d 55
        E 1 98 3c 55
        E 3 98 35 55
        E 11 98 32 55
        E 35 88 3c 00
        E 12 88 3d 00
        E 15 88 32 00
        E 10 88 35 00
        E 16 88 32 00
        E 606 98 34 55
        E 3 98 32 55
        E 11 98 3c 55
        E 3 98 3e 55
        E 3 98 32 55
        E 37 88 34 00
        E 2 88 32 00
        E 11 88 32 00
        E 7 88 3c 00
        E 2 88 3e 00
        E 633 98 39 55
        E 25 98 3b 55
        E 3 98 3d 55
        E 2 98 32 55
        E 23 98 36 55
        E 31 88 3d 00
        E 7 88 39 00
        E 8 88 32 00
        E 7 88 3b 00
        E 34 88 36 00
        E 334 98 37 55
        E 19 98 3c 55
        E 1 98 31 55
        E 22 98 34 55
        E 2 98 3d 55
        E 29 88 31 00
        E 6 88 37 00
        E 36 88 34 00
        E 5 88 3d 00
        E 6 88 3c 00
        E 597 98 3d 55
        E 13 98 39 55
        E 15 98 31 55
        E 3 98 35 55
        E 16 98 39 55
        E 36 88 39 00
        E 5 88 3d 00
        E 19 88 31 00
        E 1 88 35 00
        E 7 88 39 00
        E 611 98 3e 55
        E 13 98 3a 55
        E 2 98 32 55
        E 4 98 31 55
        E 15 98 34 55
        E 37 88 3e 00
        E 12 88 31 00
        E 8 88 3a 00
        E 26 88 32 00
        E 5 88 34 00
        E 347 98 32 55
        E 5 98 31 55
        E 7 98 33 55
        E 2 98 3c 55
        E 13 98 42 55
        E 35 88 3c 00
        E 2 88 32 00
        E 21 88 31 00
        E 8 88 33 00
        E 30 88 42 00
        E 608 98 38 55
        E 2 98 31 55
        E 2 98 3b 55
        E 10 98 32 55
        E 18 98 41 31
        E 42 88 32 00
        E 1 88 3b 00
        E 1 88 38 00
        E 16 88 41 00
        E 4 88 31 00
        E 625 98 40 55
        E 11 98 30 55
        E 2 98 30 55
        E 11 98 3d 2f
        E 8 98 37 55
        E 54 88 30 00
        E 1 88 40 00
        E 4 88 3d 00
        E 3 88 37 00
        E 18 88 30 00
        E 353 98 31 55
        E 4 98 3b 55
        E 27 98 31 55
        E 4 98 31 55
        E 10 98 3e 55
        E 15 88 3b 00
        E 16 88 31 00
        E 9 88 31 00
        E 43 88 31 00
        E 0 88 3e 00
        E 614 98 34 55
        E 2 98 40 28
        E 4 98 30 55
        E 1 98 32 55
        E 1 98 39 55
        E 52 88 32 00
        E 8 88 39 00
        E 2 88 34 00
        E 23 88 40 00
        E 1 88 30 00
        E 619 98 39 55
        E 0 98 31 55
        E 15 98 31 55
        E 8 98 3d 55
        E 24 98 42 55
        E 26 88 31 00
        E 6 88 3d 00
        E 1 88 39 00
        E 20 88 31 00
        E 14 88 42 00
        E 365 98 47 55
        E 7 98 39 55
        E 3 98 37 55
        E 3 98 31 55
        E 15 98 2a 55
        E 44 88 37 00
        E 7 88 39 00
        E 7 88 31 00
        E 1 88 47 00
        E 38 88 2a 00
        E 603 98 31 55
        E 2 98 32 55
        E 2 98 4a 55
        E 8 98 39 55
        E 17 98 32 55
        E 26 88 32 00
        E 5 88 4a 00
        E 19 88 39 00
        E 13 88 31 00
        E 6 88 32 00
        E 623 98 37 55
        E 5 98 37 55
        E 0 98 31 55
        E 11 98 48 22
        E 8 98 30 55
        E 37 88 37 00
        E 0 88 37 00
        E 21 88 31 00
        E 0 88 48 00
        E 25 88 30 00
        E 357 98 39 55
        E 4 98 2e 55
        E 28 98 34 55
        E 3 98 48 55
        E 31 98 33 55
        E 20 88 2e 00
        E 1 88 39 00
        E 17 88 34 00
        E 3 88 48 00
        E 22 88 33 00
        E 600 98 38 55
        E 14 98 38 55
        E 11 98 30 55
        E 4 98 49 40
        E 8 98 30 55
        E 21 88 38 00
        E 10 88 38 00
        E 17 88 30 00
        E 33 88 49 00
        E 7 88 30 00
        E 581 98 30 55
        E 13 98 30 55
        E 4 98 37 55
        E 12 98 49 35
        E 2 98 36 55
        E 42 88 30 00
        E 3 88 30 00
        E 20 88 37 00
        E 18 88 36 00
        E 6 88 49 00
        E 0 b8 7b 00
        E 1 ff 2f 00
      >
    >
  >
  <TRACK
    NAME "vocal_chops"
    PEAKCOL 4284506208
    VOLPAN 1.000000 0 1 -1
    MIDIOUT -1
    ISBUS 0 0
    <ITEM
      POSITION 32.000098
      LENGTH 48.065898
      NAME "vocal_chops"
      VOLPAN 1 0 1 -1
      <SOURCE MIDI
        HASDATA 1 960 QN
        E 0 ca 36 00
        E 61440 9a 42 55
        E 359 8a 42 00
        E 1580 9a 40 55
        E 368 8a 40 00
        E 272 9a 44 55
        E 413 8a 44 00
        E 2757 9a 43 55
        E 417 8a 43 00
        E 1035 9a 4a 55
        E 417 8a 4a 00
        E 93 9a 55 26
        E 372 8a 55 00
        E 302 9a 50 55
        E 376 8a 50 00
        E 354 9a 49 55
        E 358 8a 49 00
        E 832 9a 49 55
        E 384 8a 49 00
        E 336 9a 50 55
        E 366 8a 50 00
        E 1574 9a 49 55
        E 354 8a 49 00
        E 118 9a 4a 55
        E 377 8a 4a 00
        E 1531 9a 49 55
        E 342 8a 49 00
        E 1581 9a 44 55
        E 371 8a 44 00
        E 395 9a 49 37
        E 378 8a 49 00
        E 2717 9a 4a 55
        E 392 8a 4a 00
        E 368 9a 3d 55
        E 398 8a 3d 00
        E 265 9a 41 55
        E 386 8a 41 00
        E 1561 9a 49 55
        E 372 8a 49 00
        E 105 9a 50 2d
        E 373 8a 50 00
        E 2998 9a 4b 35
        E 329 8a 4b 00
        E 112 9a 50 55
        E 340 8a 50 00
        E 384 9a 4b 55
        E 434 8a 4b 00
        E 1477 9a 51 39
        E 388 8a 51 00
        E 350 9a 50 55
        E 394 8a 50 00
        E 98 9a 4d 2b
        E 377 8a 4d 00
        E 1067 9a 4d 55
        E 380 8a 4d 00
        E 2702 9a 4c 3e
        E 362 8a 4c 00
        E 380 9a 52 55
        E 406 8a 52 00
        E 54 9a 50 55
        E 381 8a 50 00
        E 354 9a 49 44
        E 364 8a 49 00
        E 359 9a 46 55
        E 392 8a 46 00
        E 38 9a 4a 13
        E 335 8a 4a 00
        E 1156 9a 45 55
        E 408 8a 45 00
        E 80 9a 3e 35
        E 396 8a 3e 00
        E 311 9a 3e 55
        E 413 8a 3e 00
        E 1528 9a 3d 37
        E 401 8a 3d 00
        E 775 9a 3f 55
        E 371 8a 3f 00
        E 1085 9a 43 55
        E 378 8a 43 00
        E 88 9a 4a 55
        E 389 8a 4a 00
        E 347 9a 4a 55
        E 362 8a 4a 00
        E 2734 9a 49 55
        E 396 8a 49 00
        E 1096 9a 48 26
        E 395 8a 48 00
        E 1469 9a 48 2d
        E 377 8a 48 00
        E 1538 9a 45 55
        E 389 8a 45 00
        E 2734 9a 44 55
        E 371 8a 44 00
        E 835 9a 49 55
        E 365 8a 49 00
        E 349 9a 49 55
        E 370 8a 49 00
        E 834 9a 4c 55
        E 410 8a 4c 00
        E 1497 9a 52 55
        E 414 8a 52 00
        E 364 9a 49 31
        E 428 8a 49 00
        E 270 9a 50 55
        E 347 8a 50 00
        E 133 9a 56 55
        E 420 8a 56 00
        E 302 9a 56 48
        E 352 8a 56 00
        E 350 9a 4b 55
        E 354 8a 4b 00
        E 138 9a 52 2b
        E 353 8a 52 00
        E 345 9a 4a 55
        E 414 8a 4a 00
        E 319 9a 55 55
        E 369 8a 55 00
        E 1548 9a 55 55
        E 391 8a 55 00
        E 3454 9a 50 55
        E 364 8a 50 00
        E 123 9a 56 55
        E 390 8a 56 00
        E 298 9a 4b 55
        E 349 8a 4b 00
        E 406 9a 55 55
        E 392 8a 55 00
        E 95 9a 49 55
        E 351 8a 49 00
        E 1065 9a 50 55
        E 385 8a 50 00
        E 86 9a 4a 55
        E 396 8a 4a 00
        E 1552 9a 50 55
        E 334 8a 50 00
        E 1566 9a 56 55
        E 380 8a 56 00
        E 1546 9a 4f 55
        E 371 8a 4f 00
        E 1548 9a 56 55
        E 378 8a 56 00
        E 1538 9a 55 55
        E 348 8a 55 00
        E 384 9a 56 3b
        E 354 8a 56 00
        E 386 9a 56 55
        E 394 8a 56 00
        E 0 ba 7b 00
        E 1 ff 2f 00
      >
    >
  >
  <TRACK
    NAME "ghost_snare"
    PEAKCOL 4290722362
    VOLPAN 1.000000 0 1 -1
    MIDIOUT -1
    ISBUS 0 0
    <ITEM
      POSITION 32.372538
      LENGTH 47.207201
      NAME "ghost_snare"
      VOLPAN 1 0 1 -1
      <SOURCE MIDI
        HASDATA 1 960 QN
        E 0 c9 00 00
        E 62155 99 26 55
        E 76 89 26 00
        E 1608 99 26 55
        E 77 89 26 00
        E 280 99 24 55
        E 77 89 24 00
        E 3415 99 26 55
        E 77 89 26 00
        E 40 99 27 55
        E 77 89 27 00
        E 2078 99 25 55
        E 77 89 25 00
        E 3407 99 26 55
        E 76 89 26 00
        E 2205 99 25 55
        E 77 89 25 00
        E 1597 99 25 55
        E 77 89 25 00
        E 42 99 25 55
        E 77 89 25 00
        E 47 99 24 2f
        E 77 89 24 00
        E 1482 99 26 55
        E 77 89 26 00
        E 1965 99 22 55
        E 76 89 22 00
        E 1726 99 24 55
        E 77 89 24 00
        E 2195 99 26 55
        E 76 89 26 00
        E 3763 99 27 55
        E 77 89 27 00
        E 36289 99 26 55
        E 77 89 26 00
        E 1719 99 26 55
        E 79 89 26 00
        E 43 99 26 55
        E 77 89 26 00
        E 3886 99 25 55
        E 76 89 25 00
        E 1489 99 24 55
        E 76 89 24 00
        E 2197 99 26 55
        E 78 89 26 00
        E 1475 99 25 55
        E 75 89 25 00
        E 167 99 25 55
        E 77 89 25 00
        E 50 99 26 55
        E 78 89 26 00
        E 1595 99 26 55
        E 77 89 26 00
        E 48 99 26 55
        E 77 89 26 00
        E 51 99 24 55
        E 77 89 24 00
        E 1710 99 25 55
        E 76 89 25 00
        E 1726 99 27 55
        E 77 89 27 00
        E 172 99 25 55
        E 77 89 25 00
        E 1722 99 26 55
        E 77 89 26 00
        E 1710 99 25 55
        E 76 89 25 00
        E 1737 99 25 55
        E 76 89 25 00
        E 280 99 25 55
        E 76 89 25 00
        E 1483 99 26 55
        E 78 89 26 00
        E 43 99 26 55
        E 77 89 26 00
        E 1727 99 24 55
        E 77 89 24 00
        E 281 99 25 55
        E 77 89 25 00
        E 0 b9 7b 00
        E 1 ff 2f 00
      >
    >
  >
  <TRACK
    NAME "bass_808_soft"
    PEAKCOL 4286528191
    VOLPAN 1.000000 0 1 -1
    MIDIOUT -1
    ISBUS 0 0
    <ITEM
      POSITION 80.004174
      LENGTH 8.006114
      NAME "bass_808_soft"
      VOLPAN 1 0 1 -1
      <SOURCE MIDI
        HASDATA 1 960 QN
        E 0 cb 26 00
        E 153608 9b 27 26
        E 2876 9b 2a 20
        E 85 8b 27 00
        E 682 8b 2a 00
        E 190 9b 2a 2f
        E 2640 9b 2a 2b
        E 50 8b 2a 00
        E 8 8b 2a 00
        E 3 9b 2b 2d
        E 50 8b 2b 00
        E 8 9b 2c 24
        E 50 8b 2c 00
        E 15 9b 2f 2d
        E 51 8b 2f 00
        E 24 9b 2f 1a
        E 935 9b 2f 20
        E 18 8b 2f 00
        E 2615 8b 2f 00
        E 19 9b 2f 22
        E 49 8b 2f 00
        E 7 9b 2e 22
        E 50 8b 2e 00
        E 3 9b 2c 2b
        E 51 8b 2c 00
        E 19 9b 28 2a
        E 51 8b 28 00
        E 7 9b 28 24
        E 722 9b 28 24
        E 5 8b 28 00
        E 46 8b 28 00
        E 4 9b 2b 1c
        E 51 8b 2b 00
        E 16 9b 28 20
        E 50 8b 28 00
        E 5 9b 28 17
        E 50 8b 28 00
        E 4 9b 2b 55
        E 2867 8b 2b 00
        E 29 9b 2a 13
        E 774 8b 2a 00
        E 0 bb 7b 00
        E 1 ff 2f 00
      >
    >
  >
  <TRACK
    NAME "impact"
    PEAKCOL 4284506208
    VOLPAN 1.000000 0 1 -1
    MIDIOUT -1
    ISBUS 0 0
    <ITEM
      POSITION 80.000000
      LENGTH 0.875000
      NAME "impact"
      VOLPAN 1 0 1 -1
      <SOURCE MIDI
        HASDATA 1 960 QN
        E 0 cc 67 00
        E 153600 9c 36 55
        E 480 8c 36 00
        E 0 9c 35 55
        E 96 9c 34 55
        E 48 8c 35 00
        E 48 9c 33 55
        E 48 8c 34 00
        E 48 9c 32 55
        E 48 8c 33 00
        E 48 9c 31 55
        E 48 8c 32 00
        E 48 9c 30 55
        E 48 8c 31 00
        E 48 9c 30 55
        E 48 8c 30 00
        E 48 9c 30 55
        E 48 8c 30 00
        E 48 9c 30 55
        E 48 8c 30 00
        E 48 9c 30 55
        E 48 8c 30 00
        E 96 8c 30 00
        E 0 bc 7b 00
        E 1 ff 2f 00
      >
    >
  >
>
