<REAPER_PROJECT 0.1 "7.0" 1700000000
  TEMPO 150.000000 4 4
  SAMPLERATE 48000 0 0
  RENDER_FILE ""
  RENDER_FMT 0 2 0
  RENDER_1X 0
  RENDER_RANGE 1 0 72.442333 0 0
  RENDER_RESAMPLE 3 0 1
  <MASTERTRACK
    VOLPAN 1 0 1 -1
    DEFCHAN 0
  >
  <TRACK
    NAME "dark_pad"
    PEAKCOL 4284506208
    VOLPAN 1.000000 0 1 -1
    MIDIOUT -1
    ISBUS 0 0
    <ITEM
      POSITION 0.001458
      LENGTH 70.540874
      NAME "dark_pad"
      VOLPAN 1 0 1 -1
      <SOURCE MIDI
        HASDATA 1 960 QN
        E 0 c0 5c 00
        E 3 90 3e 13
        E 13 90 41 1c
        E 10 90 41 18
        E 7 90 4a 20
        E 9 90 45 15
        E 1 90 52 1c
        E 34 90 58 1c
        E 3456 80 4a 00
        E 2 80 52 00
        E 8 80 58 00
        E 299 90 3e 22
        E 8 90 40 1a
        E 17 90 40 24
        E 5 90 4a 15
        E 9 90 51 29
        E 1 90 45 1a
        E 28 90 58 13
        E 1089 80 41 00
        E 39 80 41 00
        E 66 80 45 00
        E 1 80 3e 00
        E 2235 80 4a 00
        E 94 80 58 00
        E 150 80 51 00
        E 99 90 3c 22
        E 13 90 3b 20
        E 12 90 41 0d
        E 13 90 43 1c
        E 3 90 4e 1a
        E 18 90 4d 1c
        E 8 90 56 1c
        E 859 80 40 00
        E 45 80 45 00
        E 34 80 3e 00
        E 104 80 40 00
        E 2344 80 56 00
        E 12 80 4d 00
        E 57 80 4e 00
        E 318 90 3d 61
        E 11 90 3d 1a
        E 15 90 48 2f
        E 3 90 3d 61
        E 10 90 50 29
        E 3 90 3f 2d
        E 14 90 4b 27
        E 13 90 56 24
        E 978 80 3b 00
        E 25 80 3c 00
        E 26 80 43 00
        E 141 80 41 00
        E 1399 80 50 00
        E 7 80 4b 00
        E 18 80 56 00
        E 35 80 48 00
        E 1042 80 3f 00
        E 5 80 3d 00
        E 43 80 3d 00
        E 48 90 3c 61
        E 18 90 39 61
        E 10 90 49 1e
        E 17 90 3d 61
        E 4 90 46 1a
        E 8 90 3f 61
        E 8 80 3d 00
        E 4 90 48 1a
        E 3366 80 49 00
        E 156 80 46 00
        E 36 80 3f 00
        E 41 80 48 00
        E 171 90 3c 61
        E 27 90 37 61
        E 3 90 3c 61
        E 17 90 41 61
        E 2 90 49 1a
        E 9 90 47 38
        E 1125 80 39 00
        E 69 80 3c 00
        E 18 80 3d 00
        E 2100 80 41 00
        E 149 80 3c 00
        E 116 80 47 00
        E 205 90 34 61
        E 29 90 48 24
        E 3 90 3c 61
        E 1055 80 49 00
        E 151 80 3c 00
        E 167 80 37 00
        E 2087 80 48 00
        E 347 90 3f 61
        E 20 90 38 61
        E 9 90 36 1c
        E 15 90 4d 20
        E 27 90 48 24
        E 1215 80 34 00
        E 57 80 3c 00
        E 2144 80 4d 00
        E 57 80 48 00
        E 298 90 2c 61
        E 14 90 3b 61
        E 16 90 42 61
        E 5 90 34 20
        E 9 90 3d 61
        E 14 90 48 20
        E 1029 80 3f 00
        E 65 80 36 00
        E 40 80 38 00
        E 2369 80 48 00
        E 62 80 42 00
        E 219 90 3d 61
        E 13 90 3a 61
        E 16 90 49 20
        E 3 90 3b 61
        E 9 90 43 61
        E 887 80 2c 00
        E 198 80 34 00
        E 44 80 3b 00
        E 376 80 3d 00
        E 1933 80 49 00
        E 358 90 2f 61
        E 17 90 3b 61
        E 12 90 3c 61
        E 18 90 3c 61
        E 11 90 46 0b
        E 896 80 3d 00
        E 224 80 3a 00
        E 37 80 3b 00
        E 36 80 43 00
        E 2383 80 46 00
        E 203 90 3e 61
        E 22 90 3d 61
        E 10 90 3d 61
        E 18 90 44 29
        E 9 90 48 24
        E 19 90 54 1a
        E 977 80 3c 00
        E 106 80 3c 00
        E 135 80 2f 00
        E 65 80 3b 00
        E 1303 80 48 00
        E 98 80 54 00
        E 967 80 3d 00
        E 48 80 3d 00
        E 3 80 44 00
        E 10 80 3e 00
        E 52 90 3d 61
        E 19 90 3f 0d
        E 12 90 3b 20
        E 0 90 4a 20
        E 11 90 3e 13
        E 15 90 4a 11
        E 17 90 56 18
        E 3439 80 56 00
        E 47 80 4a 00
        E 36 80 4a 00
        E 245 90 3d 61
        E 13 90 38 29
        E 21 90 3c 29
        E 12 90 3e 40
        E 24 90 54 11
        E 1076 80 3e 00
        E 108 80 3d 00
        E 15 80 3b 00
        E 66 80 3f 00
        E 2064 80 54 00
        E 449 90 3f 24
        E 6 90 3e 1a
        E 16 90 40 1e
        E 12 90 49 13
        E 1 90 44 18
        E 14 90 4a 13
        E 16 90 56 09
        E 856 80 38 00
        E 73 80 3d 00
        E 271 80 3e 00
        E 78 80 3c 00
        E 2133 80 49 00
        E 98 80 56 00
        E 19 80 4a 00
        E 240 90 3d 61
        E 14 90 3c 61
        E 15 90 49 1e
        E 2 90 3d 61
        E 12 90 3d 61
        E 31 90 56 22
        E 867 80 44 00
        E 139 80 3e 00
        E 48 80 40 00
        E 146 80 3f 00
        E 1502 80 49 00
        E 100 80 56 00
        E 823 80 3d 00
        E 57 80 3d 00
        E 86 90 3c 61
        E 30 80 3d 00
        E 20 80 3c 00
        E 3816 90 48 1e
        E 0 90 3d 61
        E 13 90 3e 61
        E 869 80 3c 00
        E 2560 80 48 00
        E 370 90 35 61
        E 27 90 31 27
        E 20 90 3c 61
        E 862 80 3e 00
        E 126 80 3d 00
        E 3868 80 3c 00
        E 74 80 31 00
        E 10 80 35 00
        E 2693 90 3d 61
        E 4980 80 3d 00
        E 6539 90 3d 61
        E 16 90 39 61
        E 11 90 3d 61
        E 3 90 49 24
        E 14 90 4e 27
        E 5 90 3e 61
        E 11 90 48 22
        E 15 90 54 20
        E 2646 80 54 00
        E 32 80 4e 00
        E 19 80 49 00
        E 85 80 48 00
        E 889 80 3d 00
        E 96 90 3e 61
        E 11 90 30 61
        E 9 80 3d 00
        E 13 90 29 61
        E 9 90 3b 61
        E 51 80 3e 00
        E 150 80 39 00
        E 3599 90 3e 61
        E 9 90 38 61
        E 18 90 3d 61
        E 0 90 48 2d
        E 13 90 38 61
        E 32 90 4e 24
        E 947 80 30 00
        E 91 80 29 00
        E 20 80 3b 00
        E 133 80 3e 00
        E 2320 80 4e 00
        E 25 80 48 00
        E 230 90 3c 61
        E 20 90 3d 61
        E 8 90 47 22
        E 1 90 38 61
        E 1032 80 38 00
        E 24 80 3e 00
        E 37 80 38 00
        E 70 80 3d 00
        E 2458 80 47 00
        E 189 90 3c 61
        E 18 90 3c 61
        E 9 90 3c 61
        E 0 90 48 20
        E 17 90 44 61
        E 12 90 49 24
        E 1102 80 3d 00
        E 20 80 3c 00
        E 53 80 38 00
        E 2376 80 48 00
        E 115 80 49 00
        E 115 90 2b 61
        E 35 90 2e 61
        E 13 90 3d 61
        E 5 90 3c 61
        E 12 90 3c 61
        E 897 80 3c 00
        E 155 80 3c 00
        E 8 80 44 00
        E 119 80 3c 00
        E 2222 80 3c 00
        E 6 80 3c 00
        E 372 90 3e 61
        E 10 90 3c 61
        E 18 90 3c 61
        E 13 90 3d 61
        E 924 80 2b 00
        E 319 80 2e 00
        E 109 80 3d 00
        E 2447 90 30 61
        E 33 90 42 0f
        E 10 90 4a 0f
        E 1 90 3c 61
        E 29 90 54 0d
        E 1087 80 3c 00
        E 75 80 3c 00
        E 160 80 3d 00
        E 138 80 3e 00
        E 1848 80 42 00
        E 222 80 54 00
        E 32 80 4a 00
        E 206 90 3d 61
        E 15 90 3e 61
        E 13 90 3d 61
        E 12 90 3e 61
        E 4 90 4a 22
        E 1077 80 3c 00
        E 202 80 30 00
        E 1511 80 4a 00
        E 888 80 3e 00
        E 117 90 3d 61
        E 19 90 2e 61
        E 10 90 2e 61
        E 2 90 4a 61
        E 12 90 3e 61
        E 3 90 44 61
        E 5 80 3d 00
        E 16 80 3e 00
        E 13 80 3d 00
        E 3277 80 44 00
        E 289 80 4a 00
        E 189 90 3d 61
        E 24 90 35 61
        E 4 90 3c 61
        E 1017 80 3e 00
        E 196 80 2e 00
        E 25 80 3d 00
        E 11 80 2e 00
        E 2313 80 3c 00
        E 1190 80 35 00
        E 260 80 3d 00
        E 2648 90 38 61
        E 11 90 3d 61
        E 16 90 35 61
        E 13 90 3b 61
        E 3815 90 33 61
        E 10 90 35 20
        E 18 90 49 1e
        E 3 90 32 61
        E 10 90 3e 61
        E 1015 80 3b 00
        E 66 80 35 00
        E 49 80 38 00
        E 233 80 3d 00
        E 2058 80 49 00
        E 193 80 3e 00
        E 198 90 32 61
        E 44 90 54 27
        E 912 80 32 00
        E 160 80 35 00
        E 197 80 33 00
        E 2355 80 54 00
        E 138 90 32 61
        E 19 90 29 61
        E 11 90 48 2b
        E 3 90 37 61
        E 1116 80 32 00
        E 2339 80 48 00
        E 356 90 3e 61
        E 10 90 34 61
        E 17 90 48 20
        E 1047 80 29 00
        E 59 80 32 00
        E 65 80 37 00
        E 1582 80 48 00
        E 1062 90 37 61
        E 15 90 36 61
        E 10 90 3c 61
        E 1 90 49 1c
        E 14 90 3d 61
        E 1 80 3e 00
        E 3 90 49 1c
        E 24 90 53 0f
        E 27 80 34 00
        E 3396 80 53 00
        E 24 80 49 00
        E 90 80 49 00
        E 231 90 3d 1a
        E 13 90 3c 2d
        E 12 90 49 20
        E 5 90 3c 2d
        E 11 90 54 2d
        E 4 90 45 22
        E 16 90 49 20
        E 1032 80 37 00
        E 112 80 3d 00
        E 75 80 3c 00
        E 60 80 36 00
        E 2049 80 49 00
        E 137 80 54 00
        E 20 80 49 00
        E 302 90 3c 22
        E 5 90 3a 18
        E 22 90 3b 0b
        E 3 90 4d 1e
        E 7 90 3e 13
        E 17 90 4a 1a
        E 8 90 56 1c
        E 1028 80 3c 00
        E 10 80 3d 00
        E 3 80 3c 00
        E 178 80 45 00
        E 2109 80 4d 00
        E 228 80 4a 00
        E 48 80 56 00
        E 168 90 3e 33
        E 13 90 3c 29
        E 18 90 40 2b
        E 13 90 45 2d
        E 27 90 59 22
        E 878 80 3e 00
        E 259 80 3b 00
        E 63 80 3c 00
        E 8 80 3a 00
        E 1389 80 59 00
        E 1048 80 3c 00
        E 130 80 3e 00
        E 80 80 45 00
        E 14 80 40 00
        E 0 b0 7b 00
        E 1 ff 2f 00
      >
    >
  >
  <TRACK
    NAME "ghost_snare"
    PEAKCOL 4290722362
    VOLPAN 1.000000 0 1 -1
    MIDIOUT -1
    ISBUS 0 0
    <ITEM
      POSITION 1.048137
      LENGTH 62.537130
      NAME "ghost_snare"
      VOLPAN 1 0 1 -1
      <SOURCE MIDI
        HASDATA 1 960 QN
        E 0 c9 00 00
        E 2516 99 25 1a
        E 76 89 25 00
        E 167 99 25 1c
        E 77 89 25 00
        E 1600 99 26 38
        E 77 89 26 00
        E 175 99 25 27
        E 77 89 25 00
        E 1479 99 25 27
        E 77 89 25 00
        E 279 99 25 27
        E 77 89 25 00
        E 1727 99 26 2b
        E 76 89 26 00
        E 1605 99 26 27
        E 77 89 26 00
        E 3757 99 25 1a
        E 77 89 25 00
        E 50202 99 25 13
        E 77 89 25 00
        E 1727 99 24 2f
        E 77 89 24 00
        E 1722 99 25 29
        E 77 89 25 00
        E 165 99 25 27
        E 76 89 25 00
        E 1486 99 26 61
        E 77 89 26 00
        E 1835 99 25 61
        E 76 89 25 00
        E 283 99 25 0f
        E 77 89 25 00
        E 3648 99 27 29
        E 77 89 27 00
        E 1600 99 24 61
        E 79 89 24 00
        E 1843 99 27 61
        E 77 89 27 00
        E 286 99 25 0d
        E 76 89 25 00
        E 1729 99 27 2f
        E 76 89 27 00
        E 37 99 24 1c
        E 78 89 24 00
        E 3396 99 25 45
        E 75 89 25 00
        E 167 99 26 61
        E 77 89 26 00
        E 1609 99 23 2f
        E 78 89 23 00
        E 156 99 27 61
        E 77 89 27 00
        E 9407 99 27 61
        E 77 89 27 00
        E 2091 99 23 1c
        E 77 89 23 00
        E 1831 99 24 61
        E 76 89 24 00
        E 1845 99 24 3c
        E 77 89 24 00
        E 1852 99 24 31
        E 77 89 24 00
        E 1602 99 24 61
        E 77 89 24 00
        E 30 99 25 61
        E 76 89 25 00
        E 1737 99 24 61
        E 76 89 24 00
        E 40 99 24 61
        E 76 89 24 00
        E 3643 99 25 61
        E 78 89 25 00
        E 3763 99 25 61
        E 77 89 25 00
        E 7606 99 25 61
        E 77 89 25 00
        E 2082 99 25 61
        E 77 89 25 00
        E 1480 99 27 61
        E 77 89 27 00
        E 282 99 23 61
        E 76 89 23 00
        E 1605 99 24 29
        E 77 89 24 00
        E 4003 99 23 61
        E 77 89 23 00
        E 1483 99 26 61
        E 77 89 26 00
        E 162 99 25 2f
        E 77 89 25 00
        E 1606 99 26 3c
        E 77 89 26 00
        E 40 99 26 3e
        E 77 89 26 00
        E 1848 99 23 2f
        E 78 89 23 00
        E 1717 99 26 61
        E 78 89 26 00
        E 277 99 26 2d
        E 76 89 26 00
        E 1604 99 24 4b
        E 77 89 24 00
        E 49 99 26 63
        E 78 89 26 00
        E 1959 99 25 4f
        E 77 89 25 00
        E 3405 99 24 61
        E 78 89 24 00
        E 51 99 25 61
        E 76 89 25 00
        E 29 99 25 61
        E 77 89 25 00
        E 1972 99 25 61
        E 76 89 25 00
        E 1608 99 24 61
        E 78 89 24 00
        E 0 b9 7b 00
        E 1 ff 2f 00
      >
    >
  >
  <TRACK
    NAME "bass_808_whip"
    PEAKCOL 4286528191
    VOLPAN 1.000000 0 1 -1
    MIDIOUT -1
    ISBUS 0 0
    <ITEM
      POSITION 6.400197
      LENGTH 57.660444
      NAME "bass_808_whip"
      VOLPAN 1 0 1 -1
      <SOURCE MIDI
        HASDATA 1 960 QN
        E 0 c1 26 00
        E 15360 91 29 61
        E 1198 81 29 00
        E 2 91 2b 61
        E 51 81 2b 00
        E 9 91 2e 61
        E 51 81 2e 00
        E 8 91 2c 61
        E 49 81 2c 00
        E 13 91 2f 61
        E 51 81 2f 00
        E 8 91 2f 61
        E 484 81 2f 00
        E 476 91 31 61
        E 958 81 31 00
        E 3 91 2f 61
        E 240 91 2c 4b
        E 1 81 2f 00
        E 49 81 2c 00
        E 9 91 2b 31
        E 50 81 2b 00
        E 11 91 2c 2b
        E 51 81 2c 00
        E 9 91 32 61
        E 51 81 32 00
        E 8 91 25 61
        E 1415 81 25 00
        E 25 91 27 61
        E 469 81 27 00
        E 492 91 29 61
        E 713 81 29 00
        E 6 91 2a 61
        E 50 81 2a 00
        E 10 91 28 61
        E 50 81 28 00
        E 11 91 26 61
        E 50 81 26 00
        E 8 91 28 43
        E 51 81 28 00
        E 11 91 26 61
        E 381 81 26 00
        E 99 91 26 61
        E 1200 91 2b 61
        E 10 81 26 00
        E 41 81 2b 00
        E 8 91 2a 61
        E 50 81 2a 00
        E 10 91 27 61
        E 50 81 27 00
        E 12 91 2d 61
        E 49 81 2d 00
        E 10 91 2d 61
        E 478 81 2d 00
        E 481 91 2b 61
        E 954 81 2b 00
        E 7 91 2b 61
        E 235 81 2b 00
        E 5 91 2c 61
        E 49 81 2c 00
        E 11 91 2b 61
        E 50 81 2b 00
        E 11 91 2d 61
        E 50 81 2d 00
        E 8 91 2b 61
        E 51 81 2b 00
        E 10 91 26 61
        E 1431 81 26 00
        E 9 91 24 61
        E 481 81 24 00
        E 479 91 24 61
        E 715 81 24 00
        E 3 91 29 61
        E 51 81 29 00
        E 9 91 29 61
        E 51 81 29 00
        E 10 91 27 61
        E 51 81 27 00
        E 8 91 2b 61
        E 51 81 2b 00
        E 11 91 24 61
        E 235 81 24 00
        E 5 91 25 4b
        E 49 81 25 00
        E 11 91 28 3c
        E 50 81 28 00
        E 10 91 24 2d
        E 51 81 24 00
        E 8 91 28 38
        E 51 81 28 00
        E 9 91 24 61
        E 1200 81 24 00
        E 1 91 24 61
        E 50 81 24 00
        E 11 91 24 61
        E 50 81 24 00
        E 8 91 24 61
        E 50 81 24 00
        E 10 91 27 61
        E 51 81 27 00
        E 10 91 26 61
        E 484 81 26 00
        E 475 91 26 61
        E 942 81 26 00
        E 19 91 27 61
        E 241 81 27 00
        E 0 91 2b 61
        E 50 81 2b 00
        E 10 91 2c 61
        E 51 81 2c 00
        E 7 91 2a 61
        E 51 81 2a 00
        E 9 91 2b 61
        E 49 81 2b 00
        E 11 91 30 61
        E 1200 91 29 61
        E 10 81 30 00
        E 41 81 29 00
        E 9 91 2a 61
        E 50 81 2a 00
        E 11 91 2b 61
        E 50 81 2b 00
        E 9 91 31 61
        E 51 81 31 00
        E 11 91 25 61
        E 457 81 25 00
        E 501 91 25 61
        E 961 91 25 61
        E 12 81 25 00
        E 224 81 25 00
        E 3 91 2a 56
        E 51 81 2a 00
        E 9 91 2c 3c
        E 50 81 2c 00
        E 10 91 26 2d
        E 50 81 26 00
        E 10 91 2c 24
        E 50 81 2c 00
        E 10 91 2d 61
        E 1432 81 2d 00
        E 8 91 26 61
        E 483 81 26 00
        E 478 91 28 61
        E 947 81 28 00
        E 13 91 2d 61
        E 240 91 28 61
        E 1 81 2d 00
        E 49 81 28 00
        E 10 91 2b 61
        E 51 81 2b 00
        E 9 91 2a 61
        E 51 81 2a 00
        E 8 91 2b 61
        E 51 81 2b 00
        E 10 91 24 61
        E 1431 81 24 00
        E 7 91 25 61
        E 484 81 25 00
        E 478 91 25 61
        E 959 91 26 61
        E 12 81 25 00
        E 374 81 26 00
        E 15455 91 2f 61
        E 1426 81 2f 00
        E 14 91 2e 61
        E 483 81 2e 00
        E 477 91 31 33
        E 717 81 31 00
        E 2 91 26 61
        E 50 81 26 00
        E 9 91 2e 61
        E 51 81 2e 00
        E 10 91 24 61
        E 51 81 24 00
        E 9 91 2a 61
        E 50 81 2a 00
        E 10 91 29 61
        E 240 91 2b 61
        E 2 81 29 00
        E 49 81 2b 00
        E 8 91 2b 61
        E 50 81 2b 00
        E 12 91 26 61
        E 51 81 26 00
        E 9 91 2b 29
        E 51 81 2b 00
        E 9 91 25 61
        E 1417 81 25 00
        E 23 91 25 61
        E 476 81 25 00
        E 484 91 2c 61
        E 717 81 2c 00
        E 3 91 2a 61
        E 51 81 2a 00
        E 8 91 26 61
        E 51 81 26 00
        E 10 91 25 61
        E 50 81 25 00
        E 10 91 29 61
        E 52 81 29 00
        E 6 91 25 33
        E 241 81 25 00
        E 1 91 2a 4d
        E 51 81 2a 00
        E 8 91 2b 36
        E 50 81 2b 00
        E 10 91 26 36
        E 50 81 26 00
        E 10 91 2b 2f
        E 51 81 2b 00
        E 9 91 2c 61
        E 1433 81 2c 00
        E 9 91 2b 61
        E 472 81 2b 00
        E 487 91 2c 61
        E 960 91 2b 61
        E 3 81 2c 00
        E 377 81 2b 00
        E 99 91 2b 61
        E 1199 91 2b 61
        E 1 81 2b 00
        E 49 81 2b 00
        E 12 91 24 61
        E 50 81 24 00
        E 10 91 29 61
        E 51 81 29 00
        E 8 91 2e 61
        E 51 81 2e 00
        E 10 91 26 61
        E 482 81 26 00
        E 476 91 25 61
        E 945 81 25 00
        E 17 91 25 61
        E 240 91 30 54
        E 7 81 25 00
        E 43 81 30 00
        E 9 91 28 38
        E 50 81 28 00
        E 10 91 27 2b
        E 51 81 27 00
        E 9 91 27 24
        E 50 81 27 00
        E 10 91 24 61
        E 1185 81 24 00
        E 15 91 2b 61
        E 51 81 2b 00
        E 10 91 25 61
        E 51 81 25 00
        E 9 91 25 61
        E 50 81 25 00
        E 8 91 25 61
        E 50 81 25 00
        E 12 91 25 61
        E 482 81 25 00
        E 478 91 31 61
        E 720 91 2a 61
        E 8 81 31 00
        E 42 81 2a 00
        E 10 91 29 61
        E 49 81 29 00
        E 11 91 28 61
        E 50 81 28 00
        E 9 91 28 3c
        E 51 81 28 00
        E 11 91 26 61
        E 239 91 2d 5a
        E 2 81 26 00
        E 49 81 2d 00
        E 8 91 2e 36
        E 51 81 2e 00
        E 10 91 2c 38
        E 50 81 2c 00
        E 10 91 26 18
        E 51 81 26 00
        E 7 91 29 61
        E 1185 81 29 00
        E 17 91 29 61
        E 51 81 29 00
        E 9 91 27 61
        E 51 81 27 00
        E 8 91 26 61
        E 50 81 26 00
        E 10 91 31 2f
        E 50 81 31 00
        E 11 91 22 61
        E 485 81 22 00
        E 477 91 26 61
        E 942 81 26 00
        E 15 91 24 61
        E 237 81 24 00
        E 4 91 28 61
        E 50 81 28 00
        E 11 91 2a 61
        E 50 81 2a 00
        E 8 91 29 61
        E 51 81 29 00
        E 9 91 2e 24
        E 51 81 2e 00
        E 9 91 2d 61
        E 1199 91 2c 61
        E 15 81 2d 00
        E 35 81 2c 00
        E 11 91 24 61
        E 50 81 24 00
        E 11 91 25 61
        E 51 81 25 00
        E 8 91 2b 61
        E 51 81 2b 00
        E 10 91 2c 61
        E 476 81 2c 00
        E 483 91 23 61
        E 701 81 23 00
        E 20 91 29 61
        E 52 81 29 00
        E 7 91 2b 61
        E 51 81 2b 00
        E 11 91 26 61
        E 50 81 26 00
        E 7 91 2b 61
        E 50 81 2b 00
        E 11 91 2b 61
        E 241 81 2b 00
        E 0 91 2b 61
        E 50 81 2b 00
        E 9 91 2b 1a
        E 51 81 2b 00
        E 10 91 2a 20
        E 51 81 2a 00
        E 9 91 2a 36
        E 51 81 2a 00
        E 9 91 25 61
        E 1416 81 25 00
        E 23 91 24 61
        E 477 81 24 00
        E 483 91 24 61
        E 961 91 25 61
        E 10 81 24 00
        E 367 81 25 00
        E 103 91 30 61
        E 1438 91 30 61
        E 5 81 30 00
        E 475 81 30 00
        E 481 91 30 61
        E 716 81 30 00
        E 5 91 28 61
        E 50 81 28 00
        E 10 91 29 61
        E 51 81 29 00
        E 9 91 27 61
        E 50 81 27 00
        E 8 91 27 61
        E 50 81 27 00
        E 11 91 30 61
        E 389 81 30 00
        E 91 91 30 61
        E 1180 81 30 00
        E 20 91 2a 61
        E 49 81 2a 00
        E 12 91 29 61
        E 51 81 29 00
        E 8 91 29 61
        E 50 81 29 00
        E 10 91 31 61
        E 50 81 31 00
        E 10 91 27 61
        E 485 81 27 00
        E 475 91 30 61
        E 710 81 30 00
        E 12 91 27 61
        E 50 81 27 00
        E 8 91 2a 61
        E 50 81 2a 00
        E 11 91 28 61
        E 50 81 28 00
        E 10 91 2f 61
        E 52 81 2f 00
        E 8 91 29 61
        E 239 91 2a 54
        E 2 81 29 00
        E 49 81 2a 00
        E 9 91 2c 36
        E 51 81 2c 00
        E 10 91 26 40
        E 50 81 26 00
        E 9 91 2c 22
        E 52 81 2c 00
        E 8 91 2d 61
        E 1441 91 2c 61
        E 13 81 2d 00
        E 482 81 2c 00
        E 463 91 2c 61
        E 718 81 2c 00
        E 4 91 26 5a
        E 51 81 26 00
        E 7 91 2a 61
        E 51 81 2a 00
        E 10 91 26 61
        E 50 81 26 00
        E 11 91 2b 3e
        E 50 81 2b 00
        E 10 91 2b 61
        E 239 91 2c 61
        E 1 81 2b 00
        E 49 81 2c 00
        E 12 91 29 61
        E 50 81 29 00
        E 8 91 29 61
        E 51 81 29 00
        E 8 91 2d 61
        E 51 81 2d 00
        E 11 91 31 61
        E 1196 81 31 00
        E 4 91 2b 61
        E 51 81 2b 00
        E 8 91 28 61
        E 51 81 28 00
        E 10 91 27 61
        E 51 81 27 00
        E 9 91 30 1c
        E 50 81 30 00
        E 10 91 30 27
        E 478 81 30 00
        E 480 91 31 61
        E 949 81 31 00
        E 12 91 31 61
        E 240 91 2c 4d
        E 3 81 31 00
        E 47 81 2c 00
        E 9 91 2b 3a
        E 52 81 2b 00
        E 9 91 24 20
        E 50 81 24 00
        E 10 91 26 22
        E 50 81 26 00
        E 9 91 26 61
        E 1433 81 26 00
        E 9 91 25 61
        E 475 81 25 00
        E 486 91 28 61
        E 945 81 28 00
        E 15 91 28 61
        E 237 81 28 00
        E 1 91 27 61
        E 51 81 27 00
        E 9 91 29 61
        E 50 81 29 00
        E 10 91 26 61
        E 50 81 26 00
        E 11 91 2a 61
        E 50 81 2a 00
        E 8 91 22 61
        E 1426 81 22 00
        E 15 91 27 61
        E 485 81 27 00
        E 477 91 30 61
        E 719 81 30 00
        E 0 91 25 61
        E 50 81 25 00
        E 9 91 24 61
        E 50 81 24 00
        E 11 91 33 61
        E 51 81 33 00
        E 8 91 26 61
        E 50 81 26 00
        E 10 91 26 61
        E 241 91 29 5c
        E 2 81 26 00
        E 48 81 29 00
        E 8 91 2b 3a
        E 51 81 2b 00
        E 10 91 2b 3a
        E 51 81 2b 00
        E 9 91 27 31
        E 51 81 27 00
        E 8 91 2c 61
        E 1431 81 2c 00
        E 11 91 2b 61
        E 483 81 2b 00
        E 477 91 2b 61
        E 959 91 2c 61
        E 5 81 2b 00
        E 233 81 2c 00
        E 3 91 2d 61
        E 51 81 2d 00
        E 10 91 32 61
        E 51 81 32 00
        E 8 91 2b 61
        E 50 81 2b 00
        E 10 91 34 61
        E 50 81 34 00
        E 10 91 31 61
        E 1201 91 2b 61
        E 1 81 31 00
        E 49 81 2b 00
        E 9 91 2a 61
        E 49 81 2a 00
        E 10 91 29 61
        E 50 81 29 00
        E 9 91 31 20
        E 50 81 31 00
        E 12 91 32 61
        E 477 81 32 00
        E 481 91 31 61
        E 945 81 31 00
        E 16 91 2b 61
        E 394 81 2b 00
        E 86 91 2f 61
        E 1440 91 2d 61
        E 5 81 2f 00
        E 489 81 2d 00
        E 466 91 2a 61
        E 961 91 2f 61
        E 7 81 2a 00
        E 224 81 2f 00
        E 9 91 2c 61
        E 50 81 2c 00
        E 9 91 2b 61
        E 50 81 2b 00
        E 10 91 26 61
        E 51 81 26 00
        E 9 91 32 61
        E 52 81 32 00
        E 8 91 26 61
        E 1440 91 27 61
        E 3 81 26 00
        E 482 81 27 00
        E 476 91 26 61
        E 960 91 27 61
        E 11 81 26 00
        E 373 81 27 00
        E 95 91 24 61
        E 1200 91 24 61
        E 3 81 24 00
        E 48 81 24 00
        E 10 91 26 61
        E 51 81 26 00
        E 9 91 26 61
        E 51 81 26 00
        E 9 91 27 61
        E 50 81 27 00
        E 9 91 2c 61
        E 475 81 2c 00
        E 486 91 2b 61
        E 959 91 2c 61
        E 12 81 2b 00
        E 226 81 2c 00
        E 2 91 2e 61
        E 50 81 2e 00
        E 11 91 31 61
        E 50 81 31 00
        E 9 91 2b 61
        E 50 81 2b 00
        E 11 91 32 61
        E 50 81 32 00
        E 9 91 2f 61
        E 1435 81 2f 00
        E 7 91 32 61
        E 488 81 32 00
        E 471 91 31 61
        E 952 81 31 00
        E 8 91 31 61
        E 240 81 31 00
        E 1 91 2b 61
        E 50 81 2b 00
        E 8 91 2b 61
        E 50 81 2b 00
        E 10 91 2c 61
        E 51 81 2c 00
        E 9 91 26 31
        E 50 81 26 00
        E 12 91 26 61
        E 1430 81 26 00
        E 7 91 28 61
        E 479 81 28 00
        E 484 91 27 61
        E 960 91 28 61
        E 21 81 27 00
        E 216 81 28 00
        E 1 91 2d 61
        E 51 81 2d 00
        E 9 91 2e 61
        E 50 81 2e 00
        E 11 91 26 3a
        E 50 81 26 00
        E 9 91 2f 61
        E 50 81 2f 00
        E 10 91 31 61
        E 1191 81 31 00
        E 10 91 28 61
        E 50 81 28 00
        E 9 91 28 61
        E 50 81 28 00
        E 11 91 28 61
        E 50 81 28 00
        E 10 91 31 61
        E 51 81 31 00
        E 9 91 24 61
        E 478 81 24 00
        E 482 91 24 61
        E 719 81 24 00
        E 1 91 2f 61
        E 50 81 2f 00
        E 10 91 24 61
        E 51 81 24 00
        E 9 91 2f 61
        E 51 81 2f 00
        E 8 91 27 61
        E 50 81 27 00
        E 11 91 27 61
        E 241 91 2b 61
        E 2 81 27 00
        E 49 81 2b 00
        E 8 91 28 61
        E 51 81 28 00
        E 9 91 2b 61
        E 49 81 2b 00
        E 11 91 2b 61
        E 50 81 2b 00
        E 9 91 25 61
        E 1201 91 29 61
        E 1 81 25 00
        E 49 81 29 00
        E 11 91 29 61
        E 50 81 29 00
        E 8 91 2b 61
        E 50 81 2b 00
        E 10 91 2b 61
        E 51 81 2b 00
        E 9 91 2c 61
        E 472 81 2c 00
        E 489 91 2a 61
        E 960 91 2b 61
        E 5 81 2a 00
        E 233 91 2b 61
        E 1 81 2b 00
        E 48 81 2b 00
        E 13 91 2b 61
        E 51 81 2b 00
        E 8 91 2d 61
        E 50 81 2d 00
        E 10 91 2b 61
        E 50 81 2b 00
        E 9 91 27 61
        E 1201 81 27 00
        E 1 91 27 61
        E 51 81 27 00
        E 10 91 25 61
        E 50 81 25 00
        E 7 91 2c 61
        E 51 81 2c 00
        E 12 91 27 2f
        E 51 81 27 00
        E 8 91 24 61
        E 481 81 24 00
        E 479 91 24 61
        E 945 81 24 00
        E 14 91 25 61
        E 385 81 25 00
        E 0 b1 7b 00
        E 1 ff 2f 00
      >
    >
  >
  <TRACK
    NAME "trap_drums_minimal"
    PEAKCOL 4290722362
    VOLPAN 1.000000 0 1 -1
    MIDIOUT -1
    ISBUS 0 0
    <ITEM
      POSITION 6.399036
      LENGTH 44.699695
      NAME "trap_drums_minimal"
      VOLPAN 1 0 1 -1
      <SOURCE MIDI
        HASDATA 1 960 QN
        E 0 c9 00 00
        E 15358 99 3c 65
        E 1 99 29 61
        E 144 89 29 00
        E 576 99 24 61
        E 77 89 24 00
        E 165 99 25 61
        E 1 99 26 72
        E 286 89 25 00
        E 0 89 26 00
        E 432 99 25 61
        E 58 89 25 00
        E 4 99 26 61
        E 57 89 26 00
        E 118 99 2a 61
        E 145 89 2a 00
        E 97 99 25 47
        E 78 89 25 00
        E 642 99 26 70
        E 2 99 26 70
        E 286 89 26 00
        E 1 89 26 00
        E 182 89 3c 00
        E 490 99 24 67
        E 3 99 2a 61
        E 16 99 40 7d
        E 129 89 2a 00
        E 142 89 24 00
        E 428 99 27 61
        E 77 89 27 00
        E 163 99 25 61
        E 3 99 27 63
        E 284 89 25 00
        E 7 89 27 00
        E 187 99 2a 61
        E 96 89 2a 00
        E 382 99 2a 7d
        E 144 89 2a 00
        E 338 99 2a 61
        E 97 89 2a 00
        E 385 99 26 78
        E 1 99 26 61
        E 285 89 26 00
        E 3 89 26 00
        E 184 89 40 00
        E 6 99 2a 61
        E 96 89 2a 00
        E 140 99 26 61
        E 77 89 26 00
        E 164 99 24 79
        E 1 99 2a 61
        E 21 99 39 6d
        E 122 89 2a 00
        E 146 89 24 00
        E 671 99 26 61
        E 1 99 27 67
        E 288 89 27 00
        E 3 89 26 00
        E 189 99 27 61
        E 96 89 27 00
        E 390 99 2b 61
        E 145 89 2b 00
        E 809 99 25 69
        E 5 99 26 61
        E 284 89 25 00
        E 5 89 26 00
        E 167 89 39 00
        E 262 99 25 61
        E 76 89 25 00
        E 164 99 2a 61
        E 1 99 24 7d
        E 15 99 3d 70
        E 129 89 2a 00
        E 146 89 24 00
        E 186 99 2a 61
        E 96 89 2a 00
        E 147 99 25 61
        E 77 89 25 00
        E 160 99 24 61
        E 3 99 24 61
        E 286 89 24 00
        E 3 89 24 00
        E 669 99 2c 61
        E 144 89 2c 00
        E 813 99 26 63
        E 3 99 27 61
        E 285 89 26 00
        E 5 89 27 00
        E 181 89 3d 00
        E 5 99 2a 63
        E 97 89 2a 00
        E 388 99 24 61
        E 0 99 2c 61
        E 19 99 3f 77
        E 125 89 2c 00
        E 144 89 24 00
        E 669 99 27 77
        E 2 99 26 77
        E 289 89 26 00
        E 2 89 27 00
        E 190 99 2a 61
        E 96 89 2a 00
        E 387 99 29 61
        E 144 89 29 00
        E 808 99 26 61
        E 2 99 25 67
        E 282 89 26 00
        E 8 89 25 00
        E 133 89 3f 00
        E 54 99 2a 61
        E 96 89 2a 00
        E 389 99 24 61
        E 1 99 2b 61
        E 20 99 3f 77
        E 124 89 2b 00
        E 139 89 24 00
        E 435 99 27 61
        E 58 89 27 00
        E 4 99 25 61
        E 57 89 25 00
        E 121 99 25 61
        E 0 99 26 61
        E 287 89 25 00
        E 2 89 26 00
        E 674 99 2a 67
        E 145 89 2a 00
        E 331 99 2a 61
        E 95 89 2a 00
        E 386 99 26 67
        E 4 99 27 61
        E 283 89 26 00
        E 8 89 27 00
        E 207 89 3f 00
        E 457 99 24 63
        E 3 99 2a 61
        E 20 99 38 61
        E 126 89 2a 00
        E 140 89 24 00
        E 672 99 26 61
        E 4 99 26 61
        E 286 89 26 00
        E 1 89 26 00
        E 671 99 2a 61
        E 144 89 2a 00
        E 576 99 24 61
        E 77 89 24 00
        E 161 99 27 61
        E 1 99 26 61
        E 288 89 27 00
        E 1 89 26 00
        E 172 89 38 00
        E 259 99 25 61
        E 76 89 25 00
        E 160 99 2a 61
        E 6 99 24 72
        E 17 99 3d 69
        E 120 89 2a 00
        E 149 89 24 00
        E 430 99 25 61
        E 76 89 25 00
        E 166 99 26 72
        E 1 99 25 6d
        E 288 89 26 00
        E 1 89 25 00
        E 432 99 24 61
        E 76 89 24 00
        E 165 99 3d 75
        E 238 89 3d 00
        E 79 99 3e 7d
        E 242 89 3e 00
        E 79 99 3c 5c
        E 243 89 3c 00
        E 552 89 3d 00
        E 46563 99 3e 77
        E 2 99 2a 61
        E 144 89 2a 00
        E 815 99 27 70
        E 1 99 24 61
        E 282 89 27 00
        E 9 89 24 00
        E 189 99 2a 61
        E 95 89 2a 00
        E 142 99 26 61
        E 58 89 26 00
        E 3 99 26 61
        E 58 89 26 00
        E 3 99 25 63
        E 58 89 25 00
        E 59 99 2a 61
        E 144 89 2a 00
        E 97 99 25 61
        E 76 89 25 00
        E 645 99 26 61
        E 1 99 26 63
        E 288 89 26 00
        E 1 89 26 00
        E 187 99 2a 61
        E 24 89 3e 00
        E 72 89 2a 00
        E 384 99 2a 61
        E 3 99 24 74
        E 20 99 40 7d
        E 120 89 2a 00
        E 153 89 24 00
        E 667 99 27 61
        E 7 99 26 61
        E 272 89 27 00
        E 20 89 26 00
        E 662 99 27 61
        E 142 89 27 00
        E 819 99 27 61
        E 0 99 26 65
        E 283 89 26 00
        E 7 89 27 00
        E 194 89 40 00
        E 475 99 24 7b
        E 1 99 2a 61
        E 18 99 39 6d
        E 127 89 2a 00
        E 141 89 24 00
        E 198 99 2a 61
        E 97 89 2a 00
        E 137 99 25 61
        E 57 89 25 00
        E 2 99 26 61
        E 58 89 26 00
        E 123 99 26 67
        E 2 99 26 67
        E 285 89 26 00
        E 2 89 26 00
        E 671 99 2a 61
        E 145 89 2a 00
        E 814 99 26 63
        E 1 99 26 61
        E 285 89 26 00
        E 4 89 26 00
        E 147 89 39 00
        E 41 99 2a 63
        E 95 89 2a 00
        E 152 99 25 61
        E 77 89 25 00
        E 159 99 2a 61
        E 2 99 24 75
        E 19 99 3c 7b
        E 124 89 2a 00
        E 146 89 24 00
        E 669 99 26 61
        E 0 99 25 79
        E 288 89 25 00
        E 2 89 26 00
        E 666 99 2a 61
        E 146 89 2a 00
        E 338 99 2a 6b
        E 96 89 2a 00
        E 147 99 25 61
        E 77 89 25 00
        E 158 99 26 63
        E 2 99 26 63
        E 287 89 26 00
        E 4 89 26 00
        E 188 89 3c 00
        E 480 99 24 63
        E 0 99 2a 61
        E 25 99 40 7d
        E 119 89 2a 00
        E 141 89 24 00
        E 678 99 25 67
        E 1 99 26 78
        E 286 89 26 00
        E 1 89 25 00
        E 188 99 2b 61
        E 96 89 2b 00
        E 146 99 27 61
        E 77 89 27 00
        E 164 99 2b 61
        E 143 89 2b 00
        E 817 99 27 7d
        E 3 99 25 61
        E 285 89 27 00
        E 6 89 25 00
        E 202 89 40 00
        E 462 99 2a 61
        E 3 99 25 6b
        E 18 99 40 7d
        E 122 89 2a 00
        E 151 89 25 00
        E 190 99 2a 61
        E 96 89 2a 00
        E 383 99 26 69
        E 1 99 26 69
        E 288 89 26 00
        E 2 89 26 00
        E 185 99 29 61
        E 95 89 29 00
        E 149 99 26 61
        E 77 89 26 00
        E 158 99 28 61
        E 143 89 28 00
        E 820 99 26 6d
        E 2 99 27 61
        E 286 89 27 00
        E 3 89 26 00
        E 187 99 2a 61
        E 30 89 40 00
        E 65 89 2a 00
        E 386 99 2a 61
        E 0 99 24 6b
        E 24 99 38 69
        E 122 89 2a 00
        E 144 89 24 00
        E 669 99 27 77
        E 4 99 26 7d
        E 284 89 27 00
        E 6 89 26 00
        E 429 99 25 61
        E 77 89 25 00
        E 163 99 2a 61
        E 144 89 2a 00
        E 93 99 24 5e
        E 76 89 24 00
        E 168 99 2b 61
        E 96 89 2b 00
        E 379 99 25 61
        E 1 99 26 61
        E 288 89 26 00
        E 1 89 25 00
        E 183 89 38 00
        E 492 99 24 7d
        E 1 99 2a 61
        E 20 99 3e 70
        E 123 89 2a 00
        E 143 89 24 00
        E 429 99 25 61
        E 78 89 25 00
        E 164 99 26 7b
        E 0 99 27 67
        E 282 89 26 00
        E 7 89 27 00
        E 193 99 2a 61
        E 96 89 2a 00
        E 381 99 3d 69
        E 239 89 3d 00
        E 84 99 3d 78
        E 238 89 3d 00
        E 80 99 3d 49
        E 244 89 3d 00
        E 554 89 3e 00
        E 0 b9 7b 00
        E 1 ff 2f 00
      >
    >
  >
  <TRACK
    NAME "hihat"
    PEAKCOL 4290722362
    VOLPAN 1.000000 0 1 -1
    MIDIOUT -1
    ISBUS 0 0
    <ITEM
      POSITION 6.398055
      LENGTH 44.761425
      NAME "hihat"
      VOLPAN 1 0 1 -1
      <SOURCE MIDI
        HASDATA 1 960 QN
        E 0 c2 00 00
        E 15355 92 2e 61
        E 289 82 2e 00
        E 198 92 28 61
        E 69 82 28 00
        E 27 92 29 61
        E 68 82 29 00
        E 21 92 27 61
        E 67 82 27 00
        E 34 92 27 61
        E 67 82 27 00
        E 30 92 28 6d
        E 66 82 28 00
        E 32 92 29 61
        E 143 82 29 00
        E 337 92 2a 61
        E 145 82 2a 00
        E 331 92 2a 61
        E 143 82 2a 00
        E 336 92 2a 63
        E 144 82 2a 00
        E 341 92 29 61
        E 145 82 29 00
        E 329 92 2a 61
        E 142 82 2a 00
        E 341 92 2a 63
        E 143 82 2a 00
        E 334 92 2b 61
        E 143 82 2b 00
        E 341 92 2d 61
        E 287 82 2d 00
        E 191 92 2b 61
        E 144 82 2b 00
        E 340 92 2b 61
        E 145 82 2b 00
        E 332 92 28 61
        E 113 82 28 00
        E 50 92 28 61
        E 113 82 28 00
        E 42 92 29 61
        E 111 82 29 00
        E 50 92 29 61
        E 144 82 29 00
        E 339 92 29 61
        E 144 82 29 00
        E 335 92 28 61
        E 143 82 28 00
        E 336 92 29 61
        E 143 82 29 00
        E 336 92 29 61
        E 143 82 29 00
        E 338 92 2a 61
        E 112 82 2a 00
        E 45 92 2a 61
        E 112 82 2a 00
        E 51 92 28 61
        E 112 82 28 00
        E 49 92 29 65
        E 143 82 29 00
        E 337 92 29 61
        E 145 82 29 00
        E 335 92 29 6d
        E 146 82 29 00
        E 333 92 29 61
        E 146 82 29 00
        E 332 92 29 6d
        E 142 82 29 00
        E 342 92 2a 63
        E 145 82 2a 00
        E 334 92 28 61
        E 66 82 28 00
        E 33 92 28 61
        E 67 82 28 00
        E 26 92 27 61
        E 67 82 27 00
        E 25 92 28 61
        E 68 82 28 00
        E 31 92 29 67
        E 68 82 29 00
        E 26 92 29 61
        E 144 82 29 00
        E 340 92 28 61
        E 112 82 28 00
        E 44 92 29 7d
        E 112 82 29 00
        E 51 92 29 7d
        E 112 82 29 00
        E 47 92 29 61
        E 145 82 29 00
        E 335 92 2e 61
        E 284 82 2e 00
        E 195 92 29 61
        E 145 82 29 00
        E 337 92 28 61
        E 67 82 28 00
        E 27 92 29 61
        E 67 82 29 00
        E 31 92 29 61
        E 67 82 29 00
        E 30 92 29 61
        E 68 82 29 00
        E 25 92 29 61
        E 67 82 29 00
        E 29 92 2a 69
        E 144 82 2a 00
        E 335 92 29 61
        E 146 82 29 00
        E 337 92 2b 61
        E 144 82 2b 00
        E 335 92 2e 6d
        E 287 82 2e 00
        E 194 92 2e 61
        E 289 82 2e 00
        E 191 92 2a 74
        E 144 82 2a 00
        E 335 92 29 61
        E 142 82 29 00
        E 337 92 2b 61
        E 111 82 2b 00
        E 50 92 2a 61
        E 112 82 2a 00
        E 49 92 2a 61
        E 112 82 2a 00
        E 48 92 2b 61
        E 146 82 2b 00
        E 330 92 2a 72
        E 142 82 2a 00
        E 341 92 29 61
        E 145 82 29 00
        E 338 92 29 61
        E 145 82 29 00
        E 331 92 29 61
        E 144 82 29 00
        E 342 92 2a 61
        E 67 82 2a 00
        E 25 92 2a 61
        E 67 82 2a 00
        E 28 92 2a 61
        E 67 82 2a 00
        E 28 92 2a 61
        E 67 82 2a 00
        E 33 92 2a 61
        E 67 82 2a 00
        E 26 92 29 61
        E 144 82 29 00
        E 334 92 28 61
        E 145 82 28 00
        E 336 92 29 61
        E 111 82 29 00
        E 49 92 29 61
        E 112 82 29 00
        E 51 92 2a 61
        E 110 82 2a 00
        E 46 92 2a 61
        E 146 82 2a 00
        E 339 92 2a 61
        E 145 82 2a 00
        E 331 92 29 61
        E 144 82 29 00
        E 337 92 29 61
        E 68 82 29 00
        E 29 92 28 61
        E 67 82 28 00
        E 28 92 29 74
        E 66 82 29 00
        E 27 92 29 61
        E 66 82 29 00
        E 34 92 29 61
        E 68 82 29 00
        E 29 92 2d 61
        E 289 82 2d 00
        E 188 92 2a 61
        E 145 82 2a 00
        E 337 92 29 70
        E 145 82 29 00
        E 332 92 2a 69
        E 142 82 2a 00
        E 338 92 2a 72
        E 144 82 2a 00
        E 336 92 2b 63
        E 112 82 2b 00
        E 50 92 28 61
        E 112 82 28 00
        E 50 92 28 61
        E 111 82 28 00
        E 48 92 28 61
        E 144 82 28 00
        E 337 92 29 61
        E 68 82 29 00
        E 27 92 29 61
        E 68 82 29 00
        E 25 92 29 61
        E 67 82 29 00
        E 32 92 28 61
        E 66 82 28 00
        E 30 92 28 61
        E 67 82 28 00
        E 29 92 29 61
        E 145 82 29 00
        E 333 92 29 61
        E 143 82 29 00
        E 46418 92 2a 61
        E 143 82 2a 00
        E 336 92 28 61
        E 112 82 28 00
        E 52 92 28 61
        E 112 82 28 00
        E 45 92 29 61
        E 113 82 29 00
        E 48 92 29 61
        E 144 82 29 00
        E 338 92 29 61
        E 144 82 29 00
        E 333 92 2a 6b
        E 145 82 2a 00
        E 336 92 2a 61
        E 69 82 2a 00
        E 28 92 2c 61
        E 67 82 2c 00
        E 50 92 2d 70
        E 67 82 2d 00
        E 31 92 30 70
        E 66 82 30 00
        E 5 92 30 70
        E 68 82 30 00
        E 28 92 2a 63
        E 146 82 2a 00
        E 335 92 2a 61
        E 143 82 2a 00
        E 337 92 2a 61
        E 146 82 2a 00
        E 332 92 2b 61
        E 142 82 2b 00
        E 337 92 29 61
        E 144 82 29 00
        E 335 92 2d 61
        E 292 82 2d 00
        E 191 92 2a 61
        E 113 82 2a 00
        E 46 92 2a 7d
        E 112 82 2a 00
        E 48 92 2a 7c
        E 112 82 2a 00
        E 48 92 2b 61
        E 144 82 2b 00
        E 339 92 29 61
        E 144 82 29 00
        E 335 92 2b 61
        E 142 82 2b 00
        E 336 92 28 61
        E 145 82 28 00
        E 334 92 29 61
        E 144 82 29 00
        E 340 92 28 61
        E 143 82 28 00
        E 334 92 29 61
        E 146 82 29 00
        E 336 92 29 63
        E 146 82 29 00
        E 333 92 29 67
        E 145 82 29 00
        E 336 92 28 61
        E 141 82 28 00
        E 338 92 29 63
        E 145 82 29 00
        E 337 92 28 61
        E 145 82 28 00
        E 333 92 29 61
        E 143 82 29 00
        E 338 92 29 69
        E 144 82 29 00
        E 333 92 29 61
        E 144 82 29 00
        E 337 92 29 6d
        E 146 82 29 00
        E 335 92 29 61
        E 145 82 29 00
        E 337 92 28 61
        E 144 82 28 00
        E 333 92 29 61
        E 143 82 29 00
        E 337 92 27 61
        E 145 82 27 00
        E 334 92 2b 61
        E 144 82 2b 00
        E 333 92 29 61
        E 67 82 29 00
        E 36 92 29 61
        E 67 82 29 00
        E 28 92 28 6b
        E 67 82 28 00
        E 26 92 28 72
        E 68 82 28 00
        E 33 92 29 61
        E 68 82 29 00
        E 28 92 2b 61
        E 145 82 2b 00
        E 333 92 29 61
        E 67 82 29 00
        E 25 92 29 61
        E 68 82 29 00
        E 32 92 29 61
        E 68 82 29 00
        E 27 92 29 63
        E 67 82 29 00
        E 30 92 29 65
        E 67 82 29 00
        E 29 92 2b 61
        E 143 82 2b 00
        E 336 92 29 63
        E 144 82 29 00
        E 334 92 2b 61
        E 144 82 2b 00
        E 337 92 2b 6d
        E 144 82 2b 00
        E 337 92 2b 65
        E 143 82 2b 00
        E 334 92 2a 67
        E 144 82 2a 00
        E 339 92 2d 65
        E 114 82 2d 00
        E 48 92 2b 61
        E 112 82 2b 00
        E 45 92 2a 61
        E 113 82 2a 00
        E 51 92 2b 69
        E 143 82 2b 00
        E 334 92 2b 72
        E 147 82 2b 00
        E 333 92 2e 61
        E 286 82 2e 00
        E 193 92 2b 61
        E 144 82 2b 00
        E 338 92 28 61
        E 142 82 28 00
        E 341 92 29 61
        E 145 82 29 00
        E 329 92 29 65
        E 145 82 29 00
        E 335 92 29 61
        E 144 82 29 00
        E 337 92 27 61
        E 67 82 27 00
        E 32 92 27 61
        E 68 82 27 00
        E 27 92 27 61
        E 67 82 27 00
        E 26 92 28 61
        E 68 82 28 00
        E 28 92 29 6d
        E 67 82 29 00
        E 33 92 30 61
        E 67 82 30 00
        E 30 92 30 61
        E 67 82 30 00
        E 25 92 30 61
        E 66 82 30 00
        E 33 92 30 61
        E 68 82 30 00
        E 28 92 30 61
        E 68 82 30 00
        E 27 92 29 61
        E 143 82 29 00
        E 332 92 29 69
        E 143 82 29 00
        E 340 92 29 61
        E 145 82 29 00
        E 337 92 2a 67
        E 143 82 2a 00
        E 332 92 2a 65
        E 142 82 2a 00
        E 345 92 2c 61
        E 287 82 2c 00
        E 190 92 2a 7d
        E 144 82 2a 00
        E 336 92 29 61
        E 144 82 29 00
        E 340 92 29 61
        E 67 82 29 00
        E 24 92 29 61
        E 68 82 29 00
        E 31 92 2b 61
        E 68 82 2b 00
        E 24 92 2e 61
        E 67 82 2e 00
        E 35 92 30 61
        E 67 82 30 00
        E 22 92 29 61
        E 145 82 29 00
        E 0 b2 7b 00
        E 1 ff 2f 00
      >
    >
  >
  <TRACK
    NAME "hihat_rapid"
    PEAKCOL 4290722362
    VOLPAN 1.000000 0 1 -1
    MIDIOUT -1
    ISBUS 0 0
    <ITEM
      POSITION 19.199643
      LENGTH 44.760629
      NAME "hihat_rapid"
      VOLPAN 1 0 1 -1
      <SOURCE MIDI
        HASDATA 1 960 QN
        E 0 c3 00 00
        E 46079 93 2a 7d
        E 145 83 2a 00
        E 336 93 2a 78
        E 143 83 2a 00
        E 336 93 2a 54
        E 145 83 2a 00
        E 336 93 2a 5c
        E 146 83 2a 00
        E 334 93 2a 6b
        E 144 83 2a 00
        E 125 93 2f 7d
        E 34 93 2f 7b
        E 4 93 2f 7b
        E 10 83 2f 00
        E 26 93 30 61
        E 8 83 2f 00
        E 4 83 2f 00
        E 23 93 30 72
        E 13 83 30 00
        E 19 93 30 61
        E 16 83 30 00
        E 20 93 30 61
        E 12 83 30 00
        E 36 83 30 00
        E 466 93 2a 7d
        E 143 83 2a 00
        E 127 93 2d 6b
        E 34 93 2d 6b
        E 6 93 2f 7d
        E 8 83 2d 00
        E 23 93 2f 7d
        E 11 83 2d 00
        E 6 83 2f 00
        E 18 93 30 69
        E 13 83 2f 00
        E 23 93 30 69
        E 12 83 30 00
        E 23 93 30 61
        E 13 83 30 00
        E 35 83 30 00
        E 464 93 2a 75
        E 145 83 2a 00
        E 338 93 2a 6d
        E 144 83 2a 00
        E 333 93 2a 7d
        E 145 83 2a 00
        E 125 93 2a 40
        E 35 93 2b 7d
        E 4 93 2b 7d
        E 9 83 2a 00
        E 25 93 2b 7d
        E 10 83 2b 00
        E 4 83 2b 00
        E 22 93 2b 74
        E 12 83 2b 00
        E 21 93 2b 7d
        E 15 83 2b 00
        E 19 93 2b 79
        E 14 83 2b 00
        E 34 83 2b 00
        E 467 93 2a 72
        E 143 83 2a 00
        E 125 93 29 5a
        E 34 93 29 74
        E 7 93 29 70
        E 7 83 29 00
        E 27 93 29 70
        E 7 83 29 00
        E 7 83 29 00
        E 20 93 29 74
        E 14 83 29 00
        E 21 93 29 79
        E 13 83 29 00
        E 21 93 29 5e
        E 14 83 29 00
        E 34 83 29 00
        E 466 93 2a 75
        E 141 83 2a 00
        E 127 93 28 2f
        E 48 83 28 00
        E 1 93 29 6b
        E 18 93 29 49
        E 30 83 29 00
        E 18 83 29 00
        E 1 93 29 67
        E 47 93 2b 61
        E 1 83 29 00
        E 47 83 2b 00
        E 479 93 2a 47
        E 144 83 2a 00
        E 338 93 2a 72
        E 144 83 2a 00
        E 336 93 2a 69
        E 145 83 2a 00
        E 124 93 30 5e
        E 35 93 2f 6d
        E 4 93 2d 4d
        E 9 83 30 00
        E 26 93 2b 6b
        E 9 83 2f 00
        E 4 83 2d 00
        E 21 93 29 77
        E 14 83 2b 00
        E 19 93 29 77
        E 15 83 29 00
        E 21 93 29 5e
        E 12 83 29 00
        E 36 83 29 00
        E 466 93 2a 7d
        E 145 83 2a 00
        E 336 93 2a 78
        E 143 83 2a 00
        E 336 93 2a 7d
        E 144 83 2a 00
        E 336 93 2a 7b
        E 144 83 2a 00
        E 335 93 2a 7b
        E 145 83 2a 00
        E 337 93 2a 7b
        E 143 83 2a 00
        E 336 93 2a 7d
        E 146 83 2a 00
        E 335 93 2a 7c
        E 143 83 2a 00
        E 335 93 2a 78
        E 143 83 2a 00
        E 339 93 2a 5e
        E 143 83 2a 00
        E 334 93 2a 5c
        E 144 83 2a 00
        E 127 93 2d 56
        E 34 93 2d 52
        E 4 93 2d 56
        E 10 83 2d 00
        E 26 93 2d 69
        E 8 83 2d 00
        E 4 83 2d 00
        E 22 93 2d 5a
        E 14 83 2d 00
        E 21 93 2d 3c
        E 13 83 2d 00
        E 19 93 2f 70
        E 16 83 2d 00
        E 32 83 2f 00
        E 469 93 2a 61
        E 142 83 2a 00
        E 337 93 2a 61
        E 144 83 2a 00
        E 335 93 29 61
        E 145 83 29 00
        E 336 93 2a 61
        E 143 83 2a 00
        E 337 93 29 61
        E 142 83 29 00
        E 338 93 2a 61
        E 144 83 2a 00
        E 336 93 2a 61
        E 145 83 2a 00
        E 124 93 2a 61
        E 34 93 2a 61
        E 4 93 2a 61
        E 10 83 2a 00
        E 26 93 2a 61
        E 8 83 2a 00
        E 4 83 2a 00
        E 22 93 2a 61
        E 14 83 2a 00
        E 22 93 28 61
        E 12 83 2a 00
        E 21 93 28 61
        E 15 83 28 00
        E 33 83 28 00
        E 465 93 29 72
        E 146 83 29 00
        E 335 93 29 61
        E 143 83 29 00
        E 337 93 29 61
        E 142 83 29 00
        E 128 93 29 61
        E 32 93 29 61
        E 8 93 28 61
        E 8 83 29 00
        E 25 93 28 61
        E 7 83 29 00
        E 8 83 28 00
        E 20 93 27 61
        E 13 83 28 00
        E 20 93 2a 61
        E 15 83 27 00
        E 19 93 2a 61
        E 14 83 2a 00
        E 34 83 2a 00
        E 467 93 26 61
        E 144 83 26 00
        E 336 93 2b 61
        E 144 83 2b 00
        E 336 93 29 61
        E 145 83 29 00
        E 123 93 2a 61
        E 48 83 2a 00
        E 1 93 28 61
        E 21 93 29 61
        E 27 83 28 00
        E 20 93 2c 61
        E 1 83 29 00
        E 46 93 2e 61
        E 1 83 2c 00
        E 47 83 2e 00
        E 480 93 28 61
        E 144 83 28 00
        E 335 93 29 61
        E 143 83 29 00
        E 338 93 29 61
        E 144 83 29 00
        E 336 93 28 61
        E 144 83 28 00
        E 337 93 29 61
        E 143 83 29 00
        E 124 93 29 6d
        E 35 93 28 61
        E 6 93 28 61
        E 7 83 29 00
        E 26 93 28 61
        E 9 83 28 00
        E 6 83 28 00
        E 20 93 28 61
        E 13 83 28 00
        E 21 93 28 61
        E 14 83 28 00
        E 21 93 28 61
        E 13 83 28 00
        E 35 83 28 00
        E 467 93 29 61
        E 144 83 29 00
        E 334 93 29 61
        E 143 83 29 00
        E 339 93 28 69
        E 142 83 28 00
        E 337 93 29 61
        E 145 83 29 00
        E 334 93 29 61
        E 145 83 29 00
        E 125 93 2c 61
        E 34 93 2a 61
        E 6 93 28 61
        E 8 83 2c 00
        E 25 93 28 61
        E 9 83 2a 00
        E 6 83 28 00
        E 21 93 27 61
        E 12 83 28 00
        E 21 93 27 61
        E 15 83 27 00
        E 20 93 27 61
        E 13 83 27 00
        E 35 83 27 00
        E 465 93 28 61
        E 144 83 28 00
        E 126 93 28 61
        E 20 93 28 61
        E 28 83 28 00
        E 17 93 29 61
        E 3 83 28 00
        E 45 83 29 00
        E 2 93 28 7b
        E 48 83 28 00
        E 1 93 28 61
        E 48 83 28 00
        E 479 93 29 61
        E 146 83 29 00
        E 123 93 28 61
        E 19 93 29 61
        E 29 83 28 00
        E 19 83 29 00
        E 0 93 28 61
        E 48 83 28 00
        E 0 93 28 61
        E 48 83 28 00
        E 0 93 26 61
        E 48 83 26 00
        E 480 93 27 61
        E 146 83 27 00
        E 333 93 2b 61
        E 140 83 2b 00
        E 341 93 29 61
        E 145 83 29 00
        E 125 93 29 61
        E 33 93 29 61
        E 6 93 29 61
        E 9 83 29 00
        E 23 93 29 61
        E 10 83 29 00
        E 6 83 29 00
        E 20 93 29 61
        E 12 83 29 00
        E 23 93 29 61
        E 13 83 29 00
        E 21 93 29 61
        E 14 83 29 00
        E 34 83 29 00
        E 465 93 2c 63
        E 144 83 2c 00
        E 338 93 2a 61
        E 145 83 2a 00
        E 334 93 28 61
        E 143 83 28 00
        E 336 93 2a 61
        E 145 83 2a 00
        E 337 93 2a 61
        E 144 83 2a 00
        E 334 93 2b 63
        E 144 83 2b 00
        E 337 93 29 61
        E 145 83 29 00
        E 125 93 2c 61
        E 33 93 2b 61
        E 6 93 2b 61
        E 9 83 2c 00
        E 26 93 2c 61
        E 7 83 2b 00
        E 6 83 2b 00
        E 20 93 28 61
        E 15 83 2c 00
        E 19 93 28 61
        E 14 83 28 00
        E 20 93 28 61
        E 14 83 28 00
        E 34 83 28 00
        E 468 93 2a 61
        E 144 83 2a 00
        E 125 93 29 61
        E 19 93 29 61
        E 29 83 29 00
        E 18 93 24 61
        E 1 83 29 00
        E 47 83 24 00
        E 1 93 25 61
        E 47 93 24 54
        E 1 83 25 00
        E 47 83 24 00
        E 481 93 29 65
        E 145 83 29 00
        E 124 93 2a 61
        E 18 93 2a 61
        E 30 83 2a 00
        E 18 83 2a 00
        E 1 93 2a 61
        E 48 83 2a 00
        E 0 93 2a 61
        E 47 93 2a 61
        E 1 83 2a 00
        E 47 83 2a 00
        E 481 93 28 61
        E 144 83 28 00
        E 336 93 29 61
        E 145 83 29 00
        E 335 93 28 67
        E 144 83 28 00
        E 124 93 2e 61
        E 35 93 29 61
        E 3 93 29 61
        E 10 83 2e 00
        E 25 93 28 61
        E 10 83 29 00
        E 3 83 29 00
        E 21 93 28 61
        E 14 83 28 00
        E 22 93 28 6b
        E 12 83 28 00
        E 21 93 28 61
        E 15 83 28 00
        E 33 83 28 00
        E 467 93 29 61
        E 143 83 29 00
        E 125 93 28 61
        E 20 93 29 61
        E 28 83 28 00
        E 20 83 29 00
        E 1 93 2a 61
        E 46 93 28 61
        E 2 83 2a 00
        E 46 83 28 00
        E 1 93 28 61
        E 48 83 28 00
        E 480 93 29 61
        E 144 83 29 00
        E 338 93 28 61
        E 142 83 28 00
        E 337 93 28 61
        E 145 83 28 00
        E 335 93 28 61
        E 145 83 28 00
        E 334 93 29 61
        E 143 83 29 00
        E 337 93 29 61
        E 143 83 29 00
        E 336 93 28 61
        E 144 83 28 00
        E 337 93 28 61
        E 147 83 28 00
        E 333 93 29 61
        E 145 83 29 00
        E 336 93 29 61
        E 144 83 29 00
        E 31057 93 29 61
        E 143 83 29 00
        E 335 93 2a 61
        E 145 83 2a 00
        E 335 93 28 61
        E 144 83 28 00
        E 335 93 2a 61
        E 144 83 2a 00
        E 337 93 29 61
        E 145 83 29 00
        E 124 93 28 61
        E 47 93 28 61
        E 1 83 28 00
        E 19 93 28 6d
        E 28 83 28 00
        E 20 83 28 00
        E 0 93 28 6d
        E 48 83 28 00
        E 1 93 27 61
        E 48 83 27 00
        E 479 93 2a 61
        E 146 83 2a 00
        E 334 93 2a 61
        E 142 83 2a 00
        E 339 93 2a 69
        E 144 83 2a 00
        E 335 93 2b 61
        E 145 83 2b 00
        E 336 93 29 61
        E 143 83 29 00
        E 336 93 2a 61
        E 139 83 2a 00
        E 341 93 2a 61
        E 146 83 2a 00
        E 123 93 2b 61
        E 34 93 2b 61
        E 6 93 2a 61
        E 8 83 2b 00
        E 26 93 26 61
        E 8 83 2b 00
        E 6 83 2a 00
        E 20 93 2a 61
        E 14 83 26 00
        E 20 93 25 3a
        E 14 83 2a 00
        E 21 93 2a 61
        E 13 83 25 00
        E 35 83 2a 00
        E 465 93 29 61
        E 146 83 29 00
        E 124 93 28 61
        E 34 93 28 61
        E 5 93 28 61
        E 9 83 28 00
        E 26 93 28 61
        E 8 83 28 00
        E 5 83 28 00
        E 21 93 28 61
        E 14 83 28 00
        E 21 93 29 61
        E 13 83 28 00
        E 20 93 2a 61
        E 15 83 29 00
        E 33 83 2a 00
        E 466 93 29 61
        E 144 83 29 00
        E 336 93 29 61
        E 142 83 29 00
        E 340 93 29 61
        E 146 83 29 00
        E 122 93 28 61
        E 33 93 28 61
        E 7 93 28 61
        E 8 83 28 00
        E 26 93 28 61
        E 7 83 28 00
        E 7 83 28 00
        E 20 93 28 61
        E 14 83 28 00
        E 22 93 2a 61
        E 12 83 28 00
        E 20 93 2a 61
        E 16 83 2a 00
        E 32 83 2a 00
        E 467 93 29 61
        E 144 83 29 00
        E 337 93 29 61
        E 144 83 29 00
        E 334 93 29 61
        E 144 83 29 00
        E 336 93 28 61
        E 142 83 28 00
        E 339 93 28 61
        E 146 83 28 00
        E 334 93 28 61
        E 143 83 28 00
        E 337 93 29 6d
        E 146 83 29 00
        E 124 93 28 61
        E 32 93 29 63
        E 7 93 28 61
        E 9 83 28 00
        E 25 93 28 61
        E 7 83 29 00
        E 7 83 28 00
        E 20 93 28 61
        E 14 83 28 00
        E 19 93 29 65
        E 15 83 28 00
        E 23 93 29 61
        E 10 83 29 00
        E 38 83 29 00
        E 464 93 27 61
        E 144 83 27 00
        E 335 93 28 61
        E 144 83 28 00
        E 338 93 29 61
        E 144 83 29 00
        E 333 93 28 61
        E 143 83 28 00
        E 338 93 27 61
        E 147 83 27 00
        E 335 93 2a 61
        E 144 83 2a 00
        E 335 93 29 61
        E 145 83 29 00
        E 336 93 2a 61
        E 146 83 2a 00
        E 332 93 2b 61
        E 145 83 2b 00
        E 337 93 2b 61
        E 144 83 2b 00
        E 336 93 29 61
        E 143 83 29 00
        E 337 93 2b 61
        E 143 83 2b 00
        E 338 93 2a 61
        E 143 83 2a 00
        E 334 93 2a 61
        E 144 83 2a 00
        E 339 93 29 61
        E 145 83 29 00
        E 122 93 31 61
        E 20 93 2c 61
        E 28 83 31 00
        E 17 93 2c 61
        E 3 83 2c 00
        E 45 83 2c 00
        E 1 93 29 61
        E 48 83 29 00
        E 2 93 2b 69
        E 48 83 2b 00
        E 479 93 26 61
        E 145 83 26 00
        E 335 93 2b 61
        E 146 83 2b 00
        E 334 93 29 61
        E 144 83 29 00
        E 335 93 29 61
        E 144 83 29 00
        E 337 93 28 61
        E 144 83 28 00
        E 335 93 28 61
        E 144 83 28 00
        E 337 93 29 61
        E 144 83 29 00
        E 337 93 29 67
        E 145 83 29 00
        E 334 93 29 61
        E 144 83 29 00
        E 125 93 28 61
        E 34 93 28 61
        E 6 93 28 61
        E 8 83 28 00
        E 26 93 28 61
        E 8 83 28 00
        E 6 83 28 00
        E 19 93 28 61
        E 15 83 28 00
        E 20 93 28 61
        E 13 83 28 00
        E 21 93 28 65
        E 14 83 28 00
        E 34 83 28 00
        E 467 93 29 61
        E 145 83 29 00
        E 123 93 2a 61
        E 21 93 29 61
        E 27 83 2a 00
        E 20 93 2a 61
        E 1 83 29 00
        E 47 83 2a 00
        E 1 93 2a 61
        E 46 93 27 61
        E 2 83 2a 00
        E 46 83 27 00
        E 481 93 28 61
        E 144 83 28 00
        E 336 93 29 61
        E 144 83 29 00
        E 336 93 29 61
        E 144 83 29 00
        E 124 93 29 61
        E 20 93 28 61
        E 28 83 29 00
        E 19 93 27 61
        E 1 83 28 00
        E 47 83 27 00
        E 1 93 24 61
        E 47 93 26 61
        E 1 83 24 00
        E 47 83 26 00
        E 481 93 28 61
        E 145 83 28 00
        E 335 93 2a 61
        E 143 83 2a 00
        E 338 93 29 61
        E 143 83 29 00
        E 336 93 28 61
        E 145 83 28 00
        E 0 b3 7b 00
        E 1 ff 2f 00
      >
    >
  >
  <TRACK
    NAME "riser"
    PEAKCOL 4284506208
    VOLPAN 1.000000 0 1 -1
    MIDIOUT -1
    ISBUS 0 0
    <ITEM
      POSITION 24.000000
      LENGTH 40.095000
      NAME "riser"
      VOLPAN 1 0 1 -1
      <SOURCE MIDI
        HASDATA 1 960 QN
        E 0 c4 61 00
        E 57600 94 3d 3c
        E 108 84 3d 00
        E 12 94 3a 24
        E 108 84 3a 00
        E 12 94 3d 33
        E 108 84 3d 00
        E 12 94 3d 2d
        E 108 84 3d 00
        E 12 94 3d 61
        E 108 84 3d 00
        E 12 94 3d 3c
        E 108 84 3d 00
        E 12 94 3d 61
        E 108 84 3d 00
        E 12 94 3d 3e
        E 108 84 3d 00
        E 12 94 3d 61
        E 108 84 3d 00
        E 12 94 3d 36
        E 108 84 3d 00
        E 12 94 3d 61
        E 108 84 3d 00
        E 12 94 3d 38
        E 108 84 3d 00
        E 12 94 3d 61
        E 108 84 3d 00
        E 12 94 3d 47
        E 108 84 3d 00
        E 12 94 3d 3c
        E 108 84 3d 00
        E 12 94 3d 47
        E 108 84 3d 00
        E 12 94 3e 3c
        E 108 84 3e 00
        E 12 94 3e 52
        E 108 84 3e 00
        E 12 94 3f 56
        E 108 84 3f 00
        E 12 94 3f 45
        E 108 84 3f 00
        E 12 94 3f 54
        E 108 84 3f 00
        E 12 94 40 56
        E 108 84 40 00
        E 12 94 42 3e
        E 108 84 42 00
        E 12 94 42 4d
        E 108 84 42 00
        E 12 94 44 40
        E 108 84 44 00
        E 12 94 40 3c
        E 108 84 40 00
        E 12 94 3f 2b
        E 108 84 3f 00
        E 12 94 44 3a
        E 108 84 44 00
        E 12 94 44 3c
        E 108 84 44 00
        E 12 94 45 22
        E 108 84 45 00
        E 12 94 47 33
        E 108 84 47 00
        E 12 94 49 20
        E 108 84 49 00
        E 88812 94 38 61
        E 108 84 38 00
        E 12 94 3d 61
        E 108 84 3d 00
        E 852 94 3e 3a
        E 108 84 3e 00
        E 12 94 3e 61
        E 108 84 3e 00
        E 12 94 3d 61
        E 108 84 3d 00
        E 12 94 3e 61
        E 108 84 3e 00
        E 12 94 3e 49
        E 108 84 3e 00
        E 12 94 42 61
        E 108 84 42 00
        E 12 94 41 61
        E 108 84 41 00
        E 12 94 41 61
        E 108 84 41 00
        E 12 94 40 61
        E 108 84 40 00
        E 12 94 41 61
        E 108 84 41 00
        E 12 94 42 61
        E 108 84 42 00
        E 12 94 43 61
        E 108 84 43 00
        E 12 94 43 61
        E 108 84 43 00
        E 12 94 43 61
        E 108 84 43 00
        E 12 94 45 36
        E 108 84 45 00
        E 12 94 44 61
        E 108 84 44 00
        E 12 94 45 24
        E 108 84 45 00
        E 12 94 47 2d
        E 108 84 47 00
        E 12 94 49 20
        E 108 84 49 00
        E 0 b4 7b 00
        E 1 ff 2f 00
      >
    >
  >
  <TRACK
    NAME "trap_drums_minimal_hard"
    PEAKCOL 4290722362
    VOLPAN 1.000000 0 1 -1
    MIDIOUT -1
    ISBUS 0 0
    <ITEM
      POSITION 25.599233
      LENGTH 38.269026
      NAME "trap_drums_minimal_hard"
      VOLPAN 1 0 1 -1
      <SOURCE MIDI
        HASDATA 1 960 QN
        E 0 c9 00 00
        E 61438 99 24 6d
        E 5 99 2a 61
        E 20 99 3b 6b
        E 124 89 2a 00
        E 140 89 24 00
        E 430 99 25 61
        E 58 89 25 00
        E 5 99 26 69
        E 57 89 26 00
        E 4 99 26 61
        E 57 89 26 00
        E 62 99 27 72
        E 1 99 26 67
        E 283 89 27 00
        E 5 89 26 00
        E 670 99 2a 63
        E 0 99 24 7b
        E 22 99 3b 69
        E 8 89 3b 00
        E 114 89 2a 00
        E 144 89 24 00
        E 192 99 2a 61
        E 96 89 2a 00
        E 385 99 26 7d
        E 2 99 27 75
        E 287 89 26 00
        E 0 89 27 00
        E 200 89 3b 00
        E 232 99 26 61
        E 77 89 26 00
        E 163 99 24 79
        E 2 99 2a 63
        E 13 99 3f 7d
        E 132 89 2a 00
        E 139 89 24 00
        E 192 99 2a 67
        E 95 89 2a 00
        E 384 99 27 7d
        E 3 99 26 7d
        E 286 89 27 00
        E 2 89 26 00
        E 192 99 2d 61
        E 95 89 2d 00
        E 144 99 26 69
        E 57 89 26 00
        E 4 99 26 61
        E 57 89 26 00
        E 1 99 26 61
        E 57 89 26 00
        E 62 99 2a 61
        E 1 99 24 74
        E 22 99 40 7d
        E 2 89 3f 00
        E 119 89 2a 00
        E 142 89 24 00
        E 676 99 26 6d
        E 3 99 27 63
        E 282 89 26 00
        E 7 89 27 00
        E 201 89 40 00
        E 467 99 2a 61
        E 1 99 24 7c
        E 16 99 39 79
        E 128 89 2a 00
        E 144 89 24 00
        E 670 99 27 78
        E 3 99 26 7d
        E 284 89 27 00
        E 1 89 26 00
        E 193 99 2a 67
        E 96 89 2a 00
        E 144 99 26 61
        E 57 99 26 61
        E 1 89 26 00
        E 56 89 26 00
        E 6 99 24 61
        E 58 89 24 00
        E 62 99 24 70
        E 1 99 2a 61
        E 9 89 39 00
        E 7 99 38 6b
        E 129 89 2a 00
        E 93 99 25 61
        E 50 89 24 00
        E 26 89 25 00
        E 644 99 26 75
        E 3 99 27 61
        E 288 89 26 00
        E 2 89 27 00
        E 177 89 38 00
        E 488 99 2a 61
        E 3 99 24 7b
        E 23 99 3e 7d
        E 119 89 2a 00
        E 147 89 24 00
        E 427 99 25 61
        E 57 89 25 00
        E 5 99 26 61
        E 58 89 26 00
        E 7 99 25 61
        E 58 89 25 00
        E 59 99 27 7b
        E 1 99 26 79
        E 285 89 26 00
        E 2 89 27 00
        E 193 99 2b 61
        E 96 89 2b 00
        E 144 99 26 63
        E 76 89 26 00
        E 147 89 3e 00
        E 13 99 2a 61
        E 3 99 24 6d
        E 18 99 3e 7b
        E 123 89 2a 00
        E 100 99 26 61
        E 44 89 24 00
        E 32 89 26 00
        E 159 99 2a 61
        E 93 89 2a 00
        E 390 99 26 7b
        E 2 99 27 72
        E 283 89 26 00
        E 6 89 27 00
        E 189 99 2a 77
        E 1 89 3e 00
        E 95 89 2a 00
        E 385 99 24 72
        E 3 99 2a 61
        E 14 99 41 7d
        E 131 89 2a 00
        E 141 89 24 00
        E 430 99 27 61
        E 77 89 27 00
        E 162 99 27 61
        E 2 99 26 74
        E 285 89 27 00
        E 4 89 26 00
        E 671 89 41 00
        E 1 99 24 72
        E 1 99 2a 61
        E 18 99 3d 75
        E 124 89 2a 00
        E 141 89 24 00
        E 196 99 2a 72
        E 96 89 2a 00
        E 382 99 27 77
        E 0 99 26 61
        E 288 89 27 00
        E 0 89 26 00
        E 184 89 3d 00
        E 487 99 24 79
        E 4 99 2a 61
        E 17 99 40 7d
        E 127 89 2a 00
        E 141 89 24 00
        E 194 99 2a 61
        E 97 89 2a 00
        E 383 99 27 7d
        E 3 99 26 7d
        E 283 89 26 00
        E 3 89 27 00
        E 190 99 2a 69
        E 95 89 2a 00
        E 144 99 26 70
        E 77 89 26 00
        E 162 99 29 61
        E 1 99 24 72
        E 15 89 40 00
        E 7 99 40 7d
        E 122 89 29 00
        E 95 99 26 61
        E 47 89 24 00
        E 11 89 26 00
        E 4 99 24 61
        E 58 89 24 00
        E 1 99 26 61
        E 58 89 26 00
        E 544 99 26 7d
        E 0 99 27 69
        E 282 89 26 00
        E 6 89 27 00
        E 186 89 40 00
        E 245 99 26 61
        E 76 89 26 00
        E 166 99 2a 61
        E 1 99 24 7b
        E 16 99 39 7d
        E 127 89 2a 00
        E 143 89 24 00
        E 669 99 26 78
        E 5 99 26 65
        E 285 89 26 00
        E 2 89 26 00
        E 669 99 2a 61
        E 2 99 24 74
        E 12 89 39 00
        E 6 99 39 7d
        E 124 89 2a 00
        E 150 89 24 00
        E 669 99 27 7b
        E 1 99 26 7d
        E 287 89 27 00
        E 0 89 26 00
        E 184 89 39 00
        E 7 99 2a 61
        E 97 89 2a 00
        E 379 99 2a 61
        E 4 99 24 79
        E 20 99 3e 7d
        E 120 89 2a 00
        E 149 89 24 00
        E 431 99 26 61
        E 77 89 26 00
        E 160 99 27 77
        E 5 99 26 63
        E 284 89 27 00
        E 4 89 26 00
        E 671 99 26 7d
        E 189 89 26 00
        E 289 99 26 7d
        E 195 89 26 00
        E 743 89 3e 00
        E 31220 99 24 7b
        E 1 99 2a 61
        E 21 99 3b 7d
        E 125 89 2a 00
        E 141 89 24 00
        E 675 99 27 72
        E 1 99 26 77
        E 286 89 27 00
        E 1 89 26 00
        E 670 99 2a 61
        E 2 99 24 75
        E 18 99 3c 72
        E 1 89 3b 00
        E 123 89 2a 00
        E 147 89 24 00
        E 192 99 2a 72
        E 96 89 2a 00
        E 380 99 26 75
        E 1 99 27 69
        E 284 89 26 00
        E 1 89 27 00
        E 206 89 3c 00
        E 468 99 2a 61
        E 4 99 24 7d
        E 18 99 40 7d
        E 121 89 2a 00
        E 147 89 24 00
        E 189 99 2a 61
        E 96 89 2a 00
        E 148 99 27 61
        E 78 89 27 00
        E 160 99 27 70
        E 0 99 26 7b
        E 291 89 27 00
        E 0 89 26 00
        E 431 99 26 61
        E 58 89 26 00
        E 0 99 26 61
        E 58 89 26 00
        E 3 99 26 63
        E 58 89 26 00
        E 62 99 2a 63
        E 1 99 24 77
        E 18 89 40 00
        E 2 99 40 7d
        E 123 89 2a 00
        E 141 89 24 00
        E 675 99 27 7d
        E 2 99 26 7d
        E 285 89 26 00
        E 4 89 27 00
        E 184 89 40 00
        E 246 99 26 61
        E 76 89 26 00
        E 161 99 24 79
        E 2 99 2a 61
        E 19 99 39 69
        E 124 89 2a 00
        E 141 89 24 00
        E 676 99 27 63
        E 2 99 26 61
        E 288 89 27 00
        E 0 89 26 00
        E 665 89 39 00
        E 4 99 24 78
        E 1 99 29 61
        E 22 99 39 7d
        E 121 89 29 00
        E 104 99 25 6b
        E 40 89 24 00
        E 36 89 25 00
        E 395 99 26 61
        E 77 89 26 00
        E 163 99 26 6b
        E 1 99 27 6b
        E 286 89 26 00
        E 3 89 27 00
        E 200 89 39 00
        E 234 99 26 6b
        E 56 99 26 6b
        E 2 89 26 00
        E 55 89 26 00
        E 7 99 25 61
        E 58 89 25 00
        E 58 99 24 7d
        E 4 99 2a 65
        E 18 99 3c 7d
        E 126 89 2a 00
        E 141 89 24 00
        E 194 99 2a 61
        E 97 89 2a 00
        E 384 99 25 61
        E 1 99 25 61
        E 284 89 25 00
        E 5 89 25 00
        E 667 99 24 7d
        E 1 99 2a 61
        E 19 99 3c 78
        E 2 89 3c 00
        E 124 89 2a 00
        E 143 89 24 00
        E 435 99 26 65
        E 57 89 26 00
        E 0 99 26 6b
        E 57 89 26 00
        E 123 99 27 7d
        E 2 99 26 67
        E 285 89 27 00
        E 1 89 26 00
        E 202 89 3c 00
        E 469 99 2a 61
        E 2 99 24 79
        E 20 99 41 7d
        E 124 89 2a 00
        E 148 89 24 00
        E 425 99 26 63
        E 76 89 26 00
        E 166 99 26 7b
        E 2 99 27 7d
        E 288 89 26 00
        E 0 89 27 00
        E 432 99 26 69
        E 76 89 26 00
        E 154 89 41 00
        E 6 99 2a 61
        E 3 99 24 7b
        E 16 99 41 7d
        E 126 89 2a 00
        E 147 89 24 00
        E 669 99 26 7b
        E 1 99 27 61
        E 283 89 27 00
        E 6 89 26 00
        E 184 89 41 00
        E 486 99 24 72
        E 2 99 2a 61
        E 18 99 3f 7d
        E 125 89 2a 00
        E 146 89 24 00
        E 428 99 26 65
        E 77 89 26 00
        E 166 99 26 78
        E 1 99 27 7b
        E 288 89 26 00
        E 1 89 27 00
        E 428 99 26 61
        E 75 89 26 00
        E 161 99 24 7b
        E 4 99 2a 61
        E 6 89 3f 00
        E 14 99 40 7d
        E 123 89 2a 00
        E 144 89 24 00
        E 674 99 27 67
        E 1 99 26 61
        E 284 89 27 00
        E 6 89 26 00
        E 198 89 40 00
        E 472 99 2a 61
        E 1 99 24 6d
        E 17 99 39 72
        E 125 89 2a 00
        E 146 89 24 00
        E 670 99 26 79
        E 1 99 27 61
        E 284 89 27 00
        E 1 89 26 00
        E 673 99 2a 6d
        E 0 99 24 69
        E 1 89 39 00
        E 19 99 39 6b
        E 123 89 2a 00
        E 148 89 24 00
        E 428 99 26 61
        E 77 89 26 00
        E 165 99 26 7d
        E 2 99 27 70
        E 286 89 26 00
        E 2 89 27 00
        E 192 89 39 00
        E 476 99 2a 61
        E 1 99 24 7b
        E 19 99 3e 7d
        E 123 89 2a 00
        E 145 89 24 00
        E 672 99 27 7d
        E 3 99 26 7d
        E 286 89 27 00
        E 6 89 26 00
        E 430 99 26 61
        E 57 89 26 00
        E 5 99 26 69
        E 56 99 26 69
        E 2 89 26 00
        E 55 89 26 00
        E 60 99 26 6d
        E 189 89 26 00
        E 293 99 26 63
        E 192 89 26 00
        E 692 89 3e 00
        E 0 b9 7b 00
        E 1 ff 2f 00
      >
    >
  >
  <TRACK
    NAME "lead"
    PEAKCOL 4284506208
    VOLPAN 1.000000 0 1 -1
    MIDIOUT -1
    ISBUS 0 0
    <ITEM
      POSITION 25.604277
      LENGTH 38.161082
      NAME "lead"
      VOLPAN 1 0 1 -1
      <SOURCE MIDI
        HASDATA 1 960 QN
        E 0 c5 51 00
        E 61450 95 3d 61
        E 485 85 3d 00
        E 483 95 3c 4d
        E 198 85 3c 00
        E 729 95 3a 61
        E 457 85 3a 00
        E 513 95 3c 61
        E 182 85 3c 00
        E 813 95 3a 61
        E 455 85 3a 00
        E 478 95 43 61
        E 205 85 43 00
        E 737 95 3d 61
        E 447 85 3d 00
        E 520 95 40 61
        E 198 85 40 00
        E 760 95 3d 61
        E 466 85 3d 00
        E 514 95 40 4d
        E 180 85 40 00
        E 748 95 3d 61
        E 470 85 3d 00
        E 514 95 3d 61
        E 205 85 3d 00
        E 758 95 3e 61
        E 475 85 3e 00
        E 490 95 3e 4d
        E 207 85 3e 00
        E 765 95 3e 61
        E 479 85 3e 00
        E 487 95 3c 61
        E 200 85 3c 00
        E 765 95 3f 61
        E 455 85 3f 00
        E 448 95 3b 61
        E 209 85 3b 00
        E 779 95 3e 67
        E 492 85 3e 00
        E 438 95 3e 61
        E 176 85 3e 00
        E 863 95 3a 58
        E 527 85 3a 00
        E 381 95 3d 61
        E 154 85 3d 00
        E 788 95 3c 61
        E 478 85 3c 00
        E 480 95 3d 61
        E 219 85 3d 00
        E 726 95 39 61
        E 467 85 39 00
        E 533 95 3c 61
        E 174 85 3c 00
        E 787 95 3c 61
        E 462 85 3c 00
        E 490 95 3c 61
        E 195 85 3c 00
        E 799 95 43 61
        E 456 85 43 00
        E 492 95 3c 61
        E 214 85 3c 00
        E 729 95 3f 61
        E 481 85 3f 00
        E 483 95 44 45
        E 167 85 44 00
        E 31515 95 46 61
        E 479 85 46 00
        E 424 95 3c 61
        E 203 85 3c 00
        E 832 95 3e 61
        E 450 85 3e 00
        E 498 95 40 58
        E 190 85 40 00
        E 746 95 45 61
        E 451 85 45 00
        E 515 95 47 61
        E 155 85 47 00
        E 795 95 48 61
        E 508 85 48 00
        E 426 95 46 61
        E 195 85 46 00
        E 766 95 4a 61
        E 497 85 4a 00
        E 517 95 43 45
        E 209 85 43 00
        E 742 95 3f 61
        E 497 85 3f 00
        E 480 95 3c 61
        E 190 85 3c 00
        E 719 95 3d 61
        E 515 85 3d 00
        E 468 95 3b 61
        E 201 85 3b 00
        E 764 95 3f 61
        E 441 85 3f 00
        E 528 95 43 4d
        E 183 85 43 00
        E 760 95 3e 61
        E 509 85 3e 00
        E 466 95 3c 61
        E 202 85 3c 00
        E 754 95 3e 61
        E 436 85 3e 00
        E 543 95 3d 61
        E 200 85 3d 00
        E 736 95 44 61
        E 473 85 44 00
        E 455 95 40 61
        E 188 85 40 00
        E 812 95 3a 61
        E 479 85 3a 00
        E 445 95 45 61
        E 191 85 45 00
        E 786 95 3e 61
        E 490 85 3e 00
        E 451 95 38 61
        E 172 85 38 00
        E 846 95 37 61
        E 540 85 37 00
        E 381 95 3d 61
        E 215 85 3d 00
        E 723 95 3e 61
        E 478 85 3e 00
        E 533 95 36 61
        E 155 85 36 00
        E 750 95 40 61
        E 439 85 40 00
        E 546 95 38 61
        E 169 85 38 00
        E 0 b5 7b 00
        E 1 ff 2f 00
      >
    >
  >
  <TRACK
    NAME "bass_808_soft"
    PEAKCOL 4286528191
    VOLPAN 1.000000 0 1 -1
    MIDIOUT -1
    ISBUS 0 0
    <ITEM
      POSITION 64.003339
      LENGTH 6.424891
      NAME "bass_808_soft"
      VOLPAN 1 0 1 -1
      <SOURCE MIDI
        HASDATA 1 960 QN
        E 0 c6 26 00
        E 153608 96 2e 61
        E 2876 96 2f 61
        E 85 86 2e 00
        E 632 96 2f 61
        E 2 86 2f 00
        E 50 86 2f 00
        E 8 96 2e 61
        E 50 86 2e 00
        E 11 96 2c 61
        E 50 86 2c 00
        E 8 96 25 29
        E 50 86 25 00
        E 15 96 28 3a
        E 2884 86 28 00
        E 11 96 28 2f
        E 695 96 28 38
        E 27 86 28 00
        E 23 86 28 00
        E 22 96 27 1e
        E 49 86 27 00
        E 7 96 2a 2f
        E 50 86 2a 00
        E 3 96 2d 36
        E 51 86 2d 00
        E 19 96 2c 2b
        E 2878 96 2d 3a
        E 27 86 2c 00
        E 695 96 2d 36
        E 5 86 2d 00
        E 46 86 2d 00
        E 4 96 2c 31
        E 51 86 2c 00
        E 16 96 26 29
        E 50 86 26 00
        E 5 96 26 61
        E 50 86 26 00
        E 4 96 26 61
        E 2867 86 26 00
        E 29 96 26 27
        E 774 86 26 00
        E 0 b6 7b 00
        E 1 ff 2f 00
      >
    >
  >
  <TRACK
    NAME "impact"
    PEAKCOL 4284506208
    VOLPAN 1.000000 0 1 -1
    MIDIOUT -1
    ISBUS 0 0
    <ITEM
      POSITION 64.000000
      LENGTH 0.800000
      NAME "impact"
      VOLPAN 1 0 1 -1
      <SOURCE MIDI
        HASDATA 1 960 QN
        E 0 c7 67 00
        E 153600 97 3b 61
        E 480 87 3b 00
        E 0 97 3a 61
        E 96 97 39 61
        E 48 87 3a 00
        E 48 97 38 61
        E 48 87 39 00
        E 48 97 37 61
        E 48 87 38 00
        E 48 97 36 61
        E 48 87 37 00
        E 48 97 35 61
        E 48 87 36 00
        E 48 97 34 61
        E 48 87 35 00
        E 48 97 33 61
        E 48 87 34 00
        E 48 97 32 61
        E 48 87 33 00
        E 48 97 31 61
        E 48 87 32 00
        E 48 97 30 61
        E 48 87 31 00
        E 48 97 31 61
        E 48 87 30 00
        E 96 87 31 00
        E 0 b7 7b 00
        E 1 ff 2f 00
      >
    >
  >
>
