<REAPER_PROJECT 0.1 "7.0" 1700000000
  TEMPO 48.000000 4 4
  SAMPLERATE 48000 0 0
  RENDER_FILE ""
  RENDER_FMT 0 2 0
  RENDER_1X 0
  RENDER_RANGE 1 0 202.000000 0 0
  RENDER_RESAMPLE 3 0 1
  <MASTERTRACK
    VOLPAN 1 0 1 -1
    DEFCHAN 0
  >
  <TRACK
    NAME "wind_machine"
    PEAKCOL 4284506208
    VOLPAN 1.000000 0 1 -1
    MIDIOUT -1
    ISBUS 0 0
    <ITEM
      POSITION 0.000000
      LENGTH 200.000000
      NAME "wind_machine"
      VOLPAN 1 0 1 -1
      <SOURCE MIDI
        HASDATA 1 960 QN
        E 0 c0 7a 00
        E 0 90 54 3f
        E 3763 80 54 00
        E 77 90 54 3f
        E 3763 80 54 00
        E 77 90 54 3f
        E 3763 80 54 00
        E 77 90 54 3f
        E 3763 80 54 00
        E 77 90 54 3f
        E 3763 80 54 00
        E 77 90 54 3f
        E 3763 80 54 00
        E 77 90 54 3f
        E 3763 80 54 00
        E 77 90 54 3f
        E 3763 80 54 00
        E 77 90 54 3f
        E 3763 80 54 00
        E 77 90 54 3f
        E 3763 80 54 00
        E 77 90 54 3f
        E 3763 80 54 00
        E 77 90 54 3f
        E 3763 80 54 00
        E 77 90 54 3f
        E 3763 80 54 00
        E 77 90 54 3f
        E 3763 80 54 00
        E 77 90 54 3f
        E 3763 80 54 00
        E 77 90 54 3f
        E 3763 80 54 00
        E 77 90 54 3f
        E 3763 80 54 00
        E 77 90 54 3f
        E 3763 80 54 00
        E 77 90 54 3f
        E 3763 80 54 00
        E 77 90 54 3f
        E 3763 80 54 00
        E 77 90 54 3f
        E 3763 80 54 00
        E 77 90 54 3f
        E 3763 80 54 00
        E 77 90 54 3f
        E 3763 80 54 00
        E 77 90 54 3f
        E 3763 80 54 00
        E 77 90 54 3f
        E 3763 80 54 00
        E 77 90 54 3f
        E 3763 80 54 00
        E 77 90 54 3f
        E 3763 80 54 00
        E 77 90 54 3f
        E 3763 80 54 00
        E 77 90 54 3f
        E 3763 80 54 00
        E 77 90 54 3f
        E 3763 80 54 00
        E 77 90 54 3f
        E 3763 80 54 00
        E 77 90 54 3f
        E 3763 80 54 00
        E 77 90 54 3f
        E 3763 80 54 00
        E 77 90 54 3f
        E 3763 80 54 00
        E 77 90 54 3f
        E 3763 80 54 00
        E 77 90 54 3f
        E 3763 80 54 00
        E 77 90 54 3f
        E 3763 80 54 00
        E 77 90 54 3f
        E 3763 80 54 00
        E 77 90 54 3f
        E 3763 80 54 00
        E 77 90 54 3f
        E 3763 80 54 00
        E 0 b0 7b 00
        E 1 ff 2f 00
      >
    >
  >
  <TRACK
    NAME "alto_flute"
    PEAKCOL 4282040170
    VOLPAN 1.000000 0 1 -1
    MIDIOUT -1
    ISBUS 0 0
    <ITEM
      POSITION 0.000000
      LENGTH 194.600000
      NAME "alto_flute"
      VOLPAN 1 0 1 -1
      <SOURCE MIDI
        HASDATA 1 960 QN
        E 0 c1 49 00
        E 0 91 4a 6e
        E 3456 81 4a 00
        E 8064 91 45 6e
        E 3456 81 45 00
        E 4224 91 40 6e
        E 3456 81 40 00
        E 8064 91 45 6c
        E 3456 81 45 00
        E 4224 91 45 6e
        E 3456 81 45 00
        E 8064 91 4a 75
        E 3456 81 4a 00
        E 4224 91 4c 75
        E 3456 81 4c 00
        E 8064 91 4c 77
        E 3456 81 4c 00
        E 4224 91 51 6e
        E 3456 81 51 00
        E 8064 91 4c 6e
        E 3456 81 4c 00
        E 4224 91 51 64
        E 3456 81 51 00
        E 8064 91 51 70
        E 3456 81 51 00
        E 4224 91 51 6c
        E 3456 81 51 00
        E 8064 91 4c 68
        E 3456 81 4c 00
        E 4224 91 4c 6a
        E 3456 81 4c 00
        E 8064 91 48 64
        E 3456 81 48 00
        E 0 b1 7b 00
        E 1 ff 2f 00
      >
    >
  >
  <TRACK
    NAME "koto"
    PEAKCOL 4284506208
    VOLPAN 1.000000 0 1 -1
    MIDIOUT -1
    ISBUS 0 0
    <ITEM
      POSITION 0.000000
      LENGTH 199.200000
      NAME "koto"
      VOLPAN 1 0 1 -1
      <SOURCE MIDI
        HASDATA 1 960 QN
        E 0 c2 6b 00
        E 0 92 45 64
        E 58 92 45 53
        E 887 82 45 00
        E 1002 82 45 00
        E 1893 92 4a 6a
        E 3149 82 4a 00
        E 691 92 45 59
        E 3149 82 45 00
        E 691 92 45 6c
        E 3149 82 45 00
        E 691 92 40 64
        E 58 92 40 55
        E 887 82 40 00
        E 1002 82 40 00
        E 1893 92 40 62
        E 3149 82 40 00
        E 691 92 3c 59
        E 58 92 3c 49
        E 887 82 3c 00
        E 1002 82 3c 00
        E 1893 92 40 60
        E 3149 82 40 00
        E 691 92 40 62
        E 3149 82 40 00
        E 691 92 40 5b
        E 3149 82 40 00
        E 691 92 40 60
        E 3149 82 40 00
        E 691 92 45 60
        E 3149 82 45 00
        E 691 92 4a 59
        E 58 92 4a 49
        E 887 82 4a 00
        E 1002 82 4a 00
        E 1893 92 45 5e
        E 58 92 45 4d
        E 887 82 45 00
        E 1002 82 45 00
        E 1893 92 40 64
        E 3149 82 40 00
        E 691 92 40 5b
        E 3149 82 40 00
        E 691 92 3e 5b
        E 3149 82 3e 00
        E 691 92 3e 59
        E 3149 82 3e 00
        E 691 92 39 6c
        E 58 92 39 5b
        E 887 82 39 00
        E 1002 82 39 00
        E 1893 92 34 64
        E 3149 82 34 00
        E 691 92 39 5b
        E 58 92 39 49
        E 887 82 39 00
        E 1002 82 39 00
        E 1893 92 3e 66
        E 3149 82 3e 00
        E 691 92 3c 64
        E 3149 82 3c 00
        E 691 92 40 66
        E 58 92 40 57
        E 887 82 40 00
        E 1002 82 40 00
        E 1893 92 45 59
        E 3149 82 45 00
        E 691 92 4a 59
        E 58 92 4a 49
        E 887 82 4a 00
        E 1002 82 4a 00
        E 1893 92 45 6e
        E 58 92 45 5d
        E 887 82 45 00
        E 1002 82 45 00
        E 1893 92 40 6a
        E 3149 82 40 00
        E 691 92 3e 57
        E 3149 82 3e 00
        E 691 92 39 62
        E 58 92 39 53
        E 887 82 39 00
        E 1002 82 39 00
        E 1893 92 39 60
        E 58 92 39 4f
        E 887 82 39 00
        E 1002 82 39 00
        E 1893 92 3e 5e
        E 58 92 3e 4d
        E 887 82 3e 00
        E 1002 82 3e 00
        E 1893 92 39 66
        E 58 92 39 57
        E 887 82 39 00
        E 1002 82 39 00
        E 1893 92 34 57
        E 58 92 34 47
        E 887 82 34 00
        E 1002 82 34 00
        E 1893 92 30 66
        E 3149 82 30 00
        E 691 92 32 5b
        E 58 92 32 49
        E 887 82 32 00
        E 1002 82 32 00
        E 1893 92 30 64
        E 3149 82 30 00
        E 691 92 30 68
        E 58 92 30 59
        E 887 82 30 00
        E 1002 82 30 00
        E 1893 92 30 6e
        E 58 92 30 5d
        E 887 82 30 00
        E 1002 82 30 00
        E 1893 92 34 5b
        E 3149 82 34 00
        E 0 b2 7b 00
        E 1 ff 2f 00
      >
    >
  >
  <TRACK
    NAME "pad"
    PEAKCOL 4284506208
    VOLPAN 1.000000 0 1 -1
    MIDIOUT -1
    ISBUS 0 0
    <ITEM
      POSITION 0.000000
      LENGTH 200.100000
      NAME "pad"
      VOLPAN 1 0 1 -1
      <SOURCE MIDI
        HASDATA 1 960 QN
        E 0 c3 59 00
        E 0 93 32 1c
        E 153600 83 32 00
        E 0 b3 7b 00
        E 1 ff 2f 00
      >
    >
  >
>
