<REAPER_PROJECT 0.1 "7.0" 1700000000
  TEMPO 54.000000 4 4
  SAMPLERATE 48000 0 0
  RENDER_FILE ""
  RENDER_FMT 0 2 0
  RENDER_1X 0
  RENDER_RANGE 1 0 161.911111 0 0
  RENDER_RESAMPLE 3 0 1
  <MASTERTRACK
    VOLPAN 1 0 1 -1
    DEFCHAN 0
  >
  <TRACK
    NAME "wind_machine"
    PEAKCOL 4284506208
    VOLPAN 1.000000 0 1 -1
    MIDIOUT -1
    ISBUS 0 0
    <ITEM
      POSITION 0.000000
      LENGTH 160.011111
      NAME "wind_machine"
      VOLPAN 1 0 1 -1
      <SOURCE MIDI
        HASDATA 1 960 QN
        E 0 c0 7a 00
        E 0 90 53 4a
        E 3763 80 53 00
        E 77 90 53 4a
        E 3763 80 53 00
        E 77 90 53 4a
        E 3763 80 53 00
        E 77 90 53 4a
        E 3763 80 53 00
        E 77 90 53 4a
        E 3763 80 53 00
        E 77 90 53 4a
        E 3763 80 53 00
        E 77 90 53 4a
        E 3763 80 53 00
        E 77 90 53 4a
        E 3763 80 53 00
        E 77 90 53 4a
        E 3763 80 53 00
        E 77 90 53 4a
        E 3763 80 53 00
        E 77 90 53 4a
        E 3763 80 53 00
        E 77 90 53 4a
        E 3763 80 53 00
        E 77 90 53 4a
        E 3763 80 53 00
        E 77 90 53 4a
        E 3763 80 53 00
        E 77 90 53 4a
        E 3763 80 53 00
        E 77 90 53 4a
        E 3763 80 53 00
        E 77 90 53 4a
        E 3763 80 53 00
        E 77 90 53 4a
        E 3763 80 53 00
        E 77 90 53 4a
        E 3763 80 53 00
        E 77 90 53 4a
        E 3763 80 53 00
        E 77 90 53 4a
        E 3763 80 53 00
        E 77 90 53 4a
        E 3763 80 53 00
        E 77 90 53 4a
        E 3763 80 53 00
        E 77 90 53 4a
        E 3763 80 53 00
        E 77 90 53 4a
        E 3763 80 53 00
        E 77 90 53 4a
        E 3763 80 53 00
        E 77 90 53 4a
        E 3763 80 53 00
        E 77 90 53 4a
        E 3763 80 53 00
        E 77 90 53 4a
        E 3763 80 53 00
        E 77 90 53 4a
        E 3763 80 53 00
        E 77 90 53 4a
        E 3763 80 53 00
        E 77 90 53 4a
        E 3763 80 53 00
        E 77 90 53 4a
        E 3763 80 53 00
        E 77 90 53 4a
        E 3763 80 53 00
        E 77 90 53 4a
        E 3763 80 53 00
        E 77 90 53 4a
        E 3763 80 53 00
        E 0 b0 7b 00
        E 1 ff 2f 00
      >
    >
  >
  <TRACK
    NAME "kalimba"
    PEAKCOL 4290756410
    VOLPAN 1.000000 0 1 -1
    MIDIOUT -1
    ISBUS 0 0
    <ITEM
      POSITION 0.000000
      LENGTH 151.455556
      NAME "kalimba"
      VOLPAN 1 0 1 -1
      <SOURCE MIDI
        HASDATA 1 960 QN
        E 0 c1 6c 00
        E 0 91 45 7b
        E 211 81 45 00
        E 7469 91 45 7d
        E 211 81 45 00
        E 7469 91 45 7d
        E 211 81 45 00
        E 7469 91 47 7d
        E 2 91 53 37
        E 58 81 53 00
        E 151 81 47 00
        E 7469 91 4c 7d
        E 211 81 4c 00
        E 7469 91 47 78
        E 211 81 47 00
        E 7469 91 45 7d
        E 211 81 45 00
        E 7469 91 40 77
        E 211 81 40 00
        E 7469 91 45 7d
        E 2 91 51 3a
        E 58 81 51 00
        E 151 81 45 00
        E 7469 91 45 7d
        E 211 81 45 00
        E 7469 91 47 7c
        E 2 91 53 37
        E 58 81 53 00
        E 151 81 47 00
        E 7469 91 45 7d
        E 2 91 51 3c
        E 58 81 51 00
        E 151 81 45 00
        E 7469 91 47 7d
        E 211 81 47 00
        E 7469 91 47 77
        E 211 81 47 00
        E 7469 91 47 7b
        E 2 91 53 35
        E 58 81 53 00
        E 151 81 47 00
        E 7469 91 45 7d
        E 211 81 45 00
        E 7469 91 47 7d
        E 2 91 53 3c
        E 58 81 53 00
        E 151 81 47 00
        E 7469 91 4c 7d
        E 211 81 4c 00
        E 0 b1 7b 00
        E 1 ff 2f 00
      >
    >
  >
  <TRACK
    NAME "shamisen"
    PEAKCOL 4284506208
    VOLPAN 1.000000 0 1 -1
    MIDIOUT -1
    ISBUS 0 0
    <ITEM
      POSITION 0.000000
      LENGTH 158.677778
      NAME "shamisen"
      VOLPAN 1 0 1 -1
      <SOURCE MIDI
        HASDATA 1 960 QN
        E 0 c2 6a 00
        E 0 92 47 7b
        E 29 92 53 63
        E 77 82 53 00
        E 2505 82 47 00
        E 1229 92 47 7d
        E 29 92 53 6a
        E 77 82 53 00
        E 2505 82 47 00
        E 1229 92 47 77
        E 29 92 53 5a
        E 77 82 53 00
        E 2505 82 47 00
        E 1229 92 45 7d
        E 29 92 51 6e
        E 77 82 51 00
        E 2505 82 45 00
        E 1229 92 40 7c
        E 29 92 4c 65
        E 77 82 4c 00
        E 2505 82 40 00
        E 1229 92 40 7b
        E 29 92 4c 61
        E 77 82 4c 00
        E 2505 82 40 00
        E 1229 92 3b 7d
        E 29 92 47 6e
        E 77 82 47 00
        E 2505 82 3b 00
        E 1229 92 39 7b
        E 29 92 45 63
        E 77 82 45 00
        E 2505 82 39 00
        E 1229 92 34 7d
        E 29 92 40 6c
        E 77 82 40 00
        E 2505 82 34 00
        E 1229 92 34 7d
        E 29 92 40 6e
        E 77 82 40 00
        E 2505 82 34 00
        E 1229 92 39 7d
        E 29 92 45 68
        E 77 82 45 00
        E 2505 82 39 00
        E 1229 92 37 7b
        E 29 92 43 63
        E 77 82 43 00
        E 2505 82 37 00
        E 1229 92 34 7b
        E 29 92 40 61
        E 77 82 40 00
        E 2505 82 34 00
        E 1229 92 30 79
        E 29 92 3c 5e
        E 77 82 3c 00
        E 2505 82 30 00
        E 1229 92 30 75
        E 29 92 3c 57
        E 77 82 3c 00
        E 2505 82 30 00
        E 1229 92 32 7b
        E 29 92 3e 63
        E 77 82 3e 00
        E 2505 82 32 00
        E 1229 92 30 7c
        E 29 92 3c 65
        E 77 82 3c 00
        E 2505 82 30 00
        E 1229 92 30 78
        E 29 92 3c 5c
        E 77 82 3c 00
        E 2505 82 30 00
        E 1229 92 30 78
        E 29 92 3c 5c
        E 77 82 3c 00
        E 2505 82 30 00
        E 1229 92 32 77
        E 29 92 3e 5a
        E 77 82 3e 00
        E 2505 82 32 00
        E 1229 92 34 75
        E 29 92 40 57
        E 77 82 40 00
        E 2505 82 34 00
        E 1229 92 37 7d
        E 29 92 43 68
        E 77 82 43 00
        E 2505 82 37 00
        E 1229 92 34 77
        E 29 92 40 5a
        E 77 82 40 00
        E 2505 82 34 00
        E 1229 92 32 7d
        E 29 92 3e 6e
        E 77 82 3e 00
        E 2505 82 32 00
        E 1229 92 34 7c
        E 29 92 40 65
        E 77 82 40 00
        E 2505 82 34 00
        E 1229 92 37 7d
        E 29 92 43 6a
        E 77 82 43 00
        E 2505 82 37 00
        E 1229 92 39 78
        E 29 92 45 5c
        E 77 82 45 00
        E 2505 82 39 00
        E 1229 92 39 7d
        E 29 92 45 6e
        E 77 82 45 00
        E 2505 82 39 00
        E 1229 92 3b 7b
        E 29 92 47 61
        E 77 82 47 00
        E 2505 82 3b 00
        E 1229 92 37 7d
        E 29 92 43 6c
        E 77 82 43 00
        E 2505 82 37 00
        E 1229 92 39 77
        E 29 92 45 5a
        E 77 82 45 00
        E 2505 82 39 00
        E 1229 92 3e 77
        E 29 92 4a 5a
        E 77 82 4a 00
        E 2505 82 3e 00
        E 1229 92 39 7d
        E 29 92 45 6c
        E 77 82 45 00
        E 2505 82 39 00
        E 1229 92 37 77
        E 29 92 43 5a
        E 77 82 43 00
        E 2505 82 37 00
        E 1229 92 3b 7d
        E 29 92 47 6a
        E 77 82 47 00
        E 2505 82 3b 00
        E 1229 92 3e 7d
        E 29 92 4a 68
        E 77 82 4a 00
        E 2505 82 3e 00
        E 0 b2 7b 00
        E 1 ff 2f 00
      >
    >
  >
  <TRACK
    NAME "shaker_perc"
    PEAKCOL 4290722362
    VOLPAN 1.000000 0 1 -1
    MIDIOUT -1
    ISBUS 0 0
    <ITEM
      POSITION 0.000000
      LENGTH 159.961111
      NAME "shaker_perc"
      VOLPAN 1 0 1 -1
      <SOURCE MIDI
        HASDATA 1 960 QN
        E 0 c9 00 00
        E 0 99 45 55
        E 360 89 45 00
        E 120 99 45 30
        E 360 89 45 00
        E 120 99 45 5c
        E 360 89 45 00
        E 120 99 45 35
        E 360 89 45 00
        E 120 99 45 4e
        E 360 89 45 00
        E 120 99 45 3a
        E 360 89 45 00
        E 120 99 45 57
        E 360 89 45 00
        E 600 99 45 55
        E 360 89 45 00
        E 120 99 45 30
        E 360 89 45 00
        E 120 99 45 53
        E 360 89 45 00
        E 120 99 45 35
        E 360 89 45 00
        E 600 99 45 33
        E 360 89 45 00
        E 120 99 45 5c
        E 360 89 45 00
        E 600 99 45 57
        E 360 89 45 00
        E 120 99 45 37
        E 360 89 45 00
        E 120 99 45 57
        E 360 89 45 00
        E 120 99 45 40
        E 360 89 45 00
        E 120 99 45 55
        E 360 89 45 00
        E 120 99 45 30
        E 360 89 45 00
        E 120 99 45 5a
        E 360 89 45 00
        E 120 99 45 3a
        E 360 89 45 00
        E 120 99 45 5a
        E 360 89 45 00
        E 120 99 45 3e
        E 360 89 45 00
        E 120 99 45 5c
        E 360 89 45 00
        E 120 99 45 33
        E 360 89 45 00
        E 120 99 45 55
        E 360 89 45 00
        E 120 99 45 3e
        E 360 89 45 00
        E 120 99 45 5c
        E 360 89 45 00
        E 600 99 45 5a
        E 360 89 45 00
        E 120 99 45 3a
        E 360 89 45 00
        E 120 99 45 5e
        E 360 89 45 00
        E 120 99 45 33
        E 360 89 45 00
        E 120 99 45 57
        E 360 89 45 00
        E 120 99 45 33
        E 360 89 45 00
        E 120 99 45 55
        E 360 89 45 00
        E 600 99 45 53
        E 360 89 45 00
        E 120 99 45 37
        E 360 89 45 00
        E 120 99 45 5a
        E 360 89 45 00
        E 120 99 45 37
        E 360 89 45 00
        E 120 99 45 57
        E 360 89 45 00
        E 120 99 45 33
        E 360 89 45 00
        E 120 99 45 55
        E 360 89 45 00
        E 120 99 45 3a
        E 360 89 45 00
        E 120 99 45 55
        E 360 89 45 00
        E 120 99 45 37
        E 360 89 45 00
        E 120 99 45 4e
        E 360 89 45 00
        E 120 99 45 35
        E 360 89 45 00
        E 120 99 45 5a
        E 360 89 45 00
        E 120 99 45 3a
        E 360 89 45 00
        E 120 99 45 5a
        E 360 89 45 00
        E 120 99 45 37
        E 360 89 45 00
        E 120 99 45 51
        E 360 89 45 00
        E 120 99 45 3c
        E 360 89 45 00
        E 120 99 45 5c
        E 360 89 45 00
        E 120 99 45 3a
        E 360 89 45 00
        E 120 99 45 53
        E 360 89 45 00
        E 120 99 45 33
        E 360 89 45 00
        E 120 99 45 5c
        E 360 89 45 00
        E 120 99 45 3e
        E 360 89 45 00
        E 120 99 45 4e
        E 360 89 45 00
        E 600 99 45 5e
        E 360 89 45 00
        E 600 99 45 53
        E 360 89 45 00
        E 600 99 45 5c
        E 360 89 45 00
        E 120 99 45 3a
        E 360 89 45 00
        E 120 99 45 57
        E 360 89 45 00
        E 120 99 45 3a
        E 360 89 45 00
        E 120 99 45 53
        E 360 89 45 00
        E 120 99 45 3e
        E 360 89 45 00
        E 120 99 45 5a
        E 360 89 45 00
        E 120 99 45 30
        E 360 89 45 00
        E 120 99 45 53
        E 360 89 45 00
        E 120 99 45 3c
        E 360 89 45 00
        E 120 99 45 4e
        E 360 89 45 00
        E 120 99 45 3a
        E 360 89 45 00
        E 600 99 45 37
        E 360 89 45 00
        E 120 99 45 5c
        E 360 89 45 00
        E 120 99 45 30
        E 360 89 45 00
        E 120 99 45 57
        E 360 89 45 00
        E 120 99 45 33
        E 360 89 45 00
        E 120 99 45 55
        E 360 89 45 00
        E 120 99 45 40
        E 360 89 45 00
        E 120 99 45 4e
        E 360 89 45 00
        E 120 99 45 33
        E 360 89 45 00
        E 120 99 45 55
        E 360 89 45 00
        E 120 99 45 37
        E 360 89 45 00
        E 600 99 45 40
        E 360 89 45 00
        E 120 99 45 51
        E 360 89 45 00
        E 120 99 45 3e
        E 360 89 45 00
        E 120 99 45 5e
        E 360 89 45 00
        E 120 99 45 3c
        E 360 89 45 00
        E 120 99 45 4e
        E 360 89 45 00
        E 120 99 45 30
        E 360 89 45 00
        E 120 99 45 5e
        E 360 89 45 00
        E 120 99 45 3c
        E 360 89 45 00
        E 120 99 45 55
        E 360 89 45 00
        E 120 99 45 3a
        E 360 89 45 00
        E 120 99 45 51
        E 360 89 45 00
        E 120 99 45 40
        E 360 89 45 00
        E 120 99 45 55
        E 360 89 45 00
        E 120 99 45 33
        E 360 89 45 00
        E 120 99 45 55
        E 360 89 45 00
        E 120 99 45 30
        E 360 89 45 00
        E 600 99 45 37
        E 360 89 45 00
        E 120 99 45 4e
        E 360 89 45 00
        E 600 99 45 53
        E 360 89 45 00
        E 120 99 45 33
        E 360 89 45 00
        E 120 99 45 53
        E 360 89 45 00
        E 120 99 45 3a
        E 360 89 45 00
        E 120 99 45 5a
        E 360 89 45 00
        E 120 99 45 37
        E 360 89 45 00
        E 120 99 45 51
        E 360 89 45 00
        E 120 99 45 37
        E 360 89 45 00
        E 600 99 45 37
        E 360 89 45 00
        E 120 99 45 5a
        E 360 89 45 00
        E 600 99 45 51
        E 360 89 45 00
        E 120 99 45 3e
        E 360 89 45 00
        E 120 99 45 5c
        E 360 89 45 00
        E 120 99 45 3a
        E 360 89 45 00
        E 120 99 45 51
        E 360 89 45 00
        E 600 99 45 51
        E 360 89 45 00
        E 120 99 45 3e
        E 360 89 45 00
        E 120 99 45 53
        E 360 89 45 00
        E 120 99 45 3c
        E 360 89 45 00
        E 120 99 45 53
        E 360 89 45 00
        E 120 99 45 3e
        E 360 89 45 00
        E 600 99 45 37
        E 360 89 45 00
        E 120 99 45 4e
        E 360 89 45 00
        E 120 99 45 40
        E 360 89 45 00
        E 120 99 45 5a
        E 360 89 45 00
        E 120 99 45 3a
        E 360 89 45 00
        E 120 99 45 4e
        E 360 89 45 00
        E 600 99 45 5c
        E 360 89 45 00
        E 120 99 45 40
        E 360 89 45 00
        E 120 99 45 5a
        E 360 89 45 00
        E 120 99 45 33
        E 360 89 45 00
        E 120 99 45 55
        E 360 89 45 00
        E 120 99 45 35
        E 360 89 45 00
        E 120 99 45 53
        E 360 89 45 00
        E 120 99 45 30
        E 360 89 45 00
        E 120 99 45 53
        E 360 89 45 00
        E 120 99 45 30
        E 360 89 45 00
        E 120 99 45 51
        E 360 89 45 00
        E 120 99 45 3a
        E 360 89 45 00
        E 1080 99 45 51
        E 360 89 45 00
        E 120 99 45 3a
        E 360 89 45 00
        E 120 99 45 5c
        E 360 89 45 00
        E 600 99 45 53
        E 360 89 45 00
        E 120 99 45 3a
        E 360 89 45 00
        E 1080 99 45 51
        E 360 89 45 00
        E 600 99 45 5a
        E 360 89 45 00
        E 120 99 45 30
        E 360 89 45 00
        E 120 99 45 5a
        E 360 89 45 00
        E 120 99 45 35
        E 360 89 45 00
        E 120 99 45 55
        E 360 89 45 00
        E 120 99 45 37
        E 360 89 45 00
        E 120 99 45 53
        E 360 89 45 00
        E 120 99 45 33
        E 360 89 45 00
        E 120 99 45 4e
        E 360 89 45 00
        E 120 99 45 30
        E 360 89 45 00
        E 120 99 45 53
        E 360 89 45 00
        E 120 99 45 35
        E 360 89 45 00
        E 120 99 45 53
        E 360 89 45 00
        E 120 99 45 3c
        E 360 89 45 00
        E 120 99 45 55
        E 360 89 45 00
        E 120 99 45 35
        E 360 89 45 00
        E 120 99 45 5c
        E 360 89 45 00
        E 120 99 45 37
        E 360 89 45 00
        E 120 99 45 57
        E 360 89 45 00
        E 120 99 45 3c
        E 360 89 45 00
        E 120 99 45 53
        E 360 89 45 00
        E 120 99 45 3e
        E 360 89 45 00
        E 120 99 45 53
        E 360 89 45 00
        E 600 99 45 5a
        E 360 89 45 00
        E 120 99 45 33
        E 360 89 45 00
        E 120 99 45 55
        E 360 89 45 00
        E 120 99 45 37
        E 360 89 45 00
        E 120 99 45 57
        E 360 89 45 00
        E 120 99 45 3a
        E 360 89 45 00
        E 120 99 45 5a
        E 360 89 45 00
        E 120 99 45 30
        E 360 89 45 00
        E 120 99 45 51
        E 360 89 45 00
        E 120 99 45 35
        E 360 89 45 00
        E 120 99 45 51
        E 360 89 45 00
        E 120 99 45 3e
        E 360 89 45 00
        E 120 99 45 4e
        E 360 89 45 00
        E 120 99 45 3e
        E 360 89 45 00
        E 120 99 45 55
        E 360 89 45 00
        E 120 99 45 3e
        E 360 89 45 00
        E 120 99 45 55
        E 360 89 45 00
        E 600 99 45 57
        E 360 89 45 00
        E 120 99 45 3c
        E 360 89 45 00
        E 120 99 45 53
        E 360 89 45 00
        E 120 99 45 30
        E 360 89 45 00
        E 600 99 45 3a
        E 360 89 45 00
        E 120 99 45 57
        E 360 89 45 00
        E 120 99 45 33
        E 360 89 45 00
        E 120 99 45 5c
        E 360 89 45 00
        E 120 99 45 30
        E 360 89 45 00
        E 600 99 45 33
        E 360 89 45 00
        E 120 99 45 5c
        E 360 89 45 00
        E 120 99 45 33
        E 360 89 45 00
        E 120 99 45 5c
        E 360 89 45 00
        E 120 99 45 37
        E 360 89 45 00
        E 120 99 45 53
        E 360 89 45 00
        E 120 99 45 37
        E 360 89 45 00
        E 120 99 45 5c
        E 360 89 45 00
        E 120 99 45 3e
        E 360 89 45 00
        E 120 99 45 57
        E 360 89 45 00
        E 120 99 45 37
        E 360 89 45 00
        E 120 99 45 4e
        E 360 89 45 00
        E 120 99 45 35
        E 360 89 45 00
        E 120 99 45 5a
        E 360 89 45 00
        E 120 99 45 3a
        E 360 89 45 00
        E 120 99 45 5c
        E 360 89 45 00
        E 120 99 45 3a
        E 360 89 45 00
        E 120 99 45 5e
        E 360 89 45 00
        E 600 99 45 5c
        E 360 89 45 00
        E 120 99 45 37
        E 360 89 45 00
        E 120 99 45 5c
        E 360 89 45 00
        E 120 99 45 3e
        E 360 89 45 00
        E 120 99 45 53
        E 360 89 45 00
        E 120 99 45 35
        E 360 89 45 00
        E 120 99 45 57
        E 360 89 45 00
        E 120 99 45 33
        E 360 89 45 00
        E 600 99 45 3a
        E 360 89 45 00
        E 120 99 45 5c
        E 360 89 45 00
        E 120 99 45 35
        E 360 89 45 00
        E 120 99 45 4e
        E 360 89 45 00
        E 600 99 45 57
        E 360 89 45 00
        E 120 99 45 3e
        E 360 89 45 00
        E 120 99 45 51
        E 360 89 45 00
        E 120 99 45 35
        E 360 89 45 00
        E 120 99 45 5c
        E 360 89 45 00
        E 120 99 45 35
        E 360 89 45 00
        E 120 99 45 51
        E 360 89 45 00
        E 120 99 45 35
        E 360 89 45 00
        E 120 99 45 5c
        E 360 89 45 00
        E 120 99 45 35
        E 360 89 45 00
        E 120 99 45 5c
        E 360 89 45 00
        E 120 99 45 3a
        E 360 89 45 00
        E 120 99 45 53
        E 360 89 45 00
        E 600 99 45 51
        E 360 89 45 00
        E 120 99 45 3e
        E 360 89 45 00
        E 120 99 45 53
        E 360 89 45 00
        E 120 99 45 40
        E 360 89 45 00
        E 120 99 45 53
        E 360 89 45 00
        E 120 99 45 30
        E 360 89 45 00
        E 120 99 45 51
        E 360 89 45 00
        E 120 99 45 33
        E 360 89 45 00
        E 120 99 45 5c
        E 360 89 45 00
        E 120 99 45 35
        E 360 89 45 00
        E 120 99 45 5c
        E 360 89 45 00
        E 120 99 45 3a
        E 360 89 45 00
        E 120 99 45 5a
        E 360 89 45 00
        E 120 99 45 35
        E 360 89 45 00
        E 120 99 45 4e
        E 360 89 45 00
        E 120 99 45 3a
        E 360 89 45 00
        E 0 b9 7b 00
        E 1 ff 2f 00
      >
    >
  >
>
