<REAPER_PROJECT 0.1 "7.0" 1700000000
  TEMPO 42.000000 4 4
  SAMPLERATE 48000 0 0
  RENDER_FILE ""
  RENDER_FMT 0 2 0
  RENDER_1X 0
  RENDER_RANGE 1 0 258.757143 0 0
  RENDER_RESAMPLE 3 0 1
  <MASTERTRACK
    VOLPAN 1 0 1 -1
    DEFCHAN 0
  >
  <TRACK
    NAME "handpan"
    PEAKCOL 4284506208
    VOLPAN 1.000000 0 1 -1
    MIDIOUT -1
    ISBUS 0 0
    <ITEM
      POSITION 0.000000
      LENGTH 251.728571
      NAME "handpan"
      VOLPAN 1 0 1 -1
      <SOURCE MIDI
        HASDATA 1 960 QN
        E 0 c0 60 00
        E 0 90 42 44
        E 5 90 4e 16
        E 609 80 42 00
        E 251 80 4e 00
        E 3455 90 47 47
        E 614 80 47 00
        E 3706 90 4c 4d
        E 614 80 4c 00
        E 3706 90 47 43
        E 614 80 47 00
        E 3706 90 42 43
        E 5 90 4e 16
        E 609 80 42 00
        E 251 80 4e 00
        E 3455 90 40 47
        E 5 90 4c 18
        E 609 80 40 00
        E 251 80 4c 00
        E 3455 90 40 51
        E 5 90 4c 1c
        E 609 80 40 00
        E 251 80 4c 00
        E 3455 90 40 4d
        E 5 90 4c 19
        E 609 80 40 00
        E 251 80 4c 00
        E 3455 90 40 4d
        E 5 90 4c 19
        E 609 80 40 00
        E 251 80 4c 00
        E 3455 90 3b 4a
        E 5 90 47 19
        E 609 80 3b 00
        E 251 80 47 00
        E 3455 90 40 4e
        E 5 90 4c 1a
        E 609 80 40 00
        E 251 80 4c 00
        E 3455 90 3b 44
        E 5 90 47 16
        E 609 80 3b 00
        E 251 80 47 00
        E 3455 90 40 41
        E 614 80 40 00
        E 3706 90 42 46
        E 5 90 4e 18
        E 609 80 42 00
        E 251 80 4e 00
        E 3455 90 40 4b
        E 5 90 4c 19
        E 609 80 40 00
        E 251 80 4c 00
        E 3455 90 3b 4b
        E 5 90 47 19
        E 609 80 3b 00
        E 251 80 47 00
        E 3455 90 36 44
        E 614 80 36 00
        E 3706 90 34 51
        E 614 80 34 00
        E 3706 90 32 4a
        E 614 80 32 00
        E 3706 90 36 4e
        E 614 80 36 00
        E 3706 90 34 4e
        E 5 90 40 1a
        E 609 80 34 00
        E 251 80 40 00
        E 3455 90 32 47
        E 5 90 3e 18
        E 609 80 32 00
        E 251 80 3e 00
        E 3455 90 36 44
        E 614 80 36 00
        E 3706 90 3b 51
        E 614 80 3b 00
        E 3706 90 40 4d
        E 614 80 40 00
        E 3706 90 40 44
        E 5 90 4c 16
        E 609 80 40 00
        E 251 80 4c 00
        E 3455 90 42 4d
        E 614 80 42 00
        E 3706 90 42 51
        E 5 90 4e 1c
        E 609 80 42 00
        E 251 80 4e 00
        E 3455 90 47 46
        E 614 80 47 00
        E 3706 90 42 4d
        E 614 80 42 00
        E 3706 90 42 47
        E 614 80 42 00
        E 3706 90 47 44
        E 614 80 47 00
        E 3706 90 42 47
        E 614 80 42 00
        E 3706 90 47 4d
        E 614 80 47 00
        E 3706 90 47 4e
        E 614 80 47 00
        E 3706 90 47 46
        E 614 80 47 00
        E 3706 90 4c 4a
        E 614 80 4c 00
        E 3706 90 4e 41
        E 614 80 4e 00
        E 3706 90 4c 4b
        E 614 80 4c 00
        E 3706 90 47 4a
        E 614 80 47 00
        E 0 b0 7b 00
        E 1 ff 2f 00
      >
    >
  >
  <TRACK
    NAME "erhu"
    PEAKCOL 4284506208
    VOLPAN 1.000000 0 1 -1
    MIDIOUT -1
    ISBUS 0 0
    <ITEM
      POSITION 0.000000
      LENGTH 256.857143
      NAME "erhu"
      VOLPAN 1 0 1 -1
      <SOURCE MIDI
        HASDATA 1 960 QN
        E 0 c1 6e 00
        E 0 91 4c 52
        E 4061 81 4c 00
        E 259 91 4e 4a
        E 4061 81 4e 00
        E 259 91 53 4e
        E 4061 81 53 00
        E 259 91 54 47
        E 4061 81 54 00
        E 259 91 54 54
        E 4061 81 54 00
        E 259 91 54 4b
        E 4061 81 54 00
        E 259 91 54 47
        E 4061 81 54 00
        E 259 91 4e 48
        E 4061 81 4e 00
        E 259 91 47 54
        E 4061 81 47 00
        E 259 91 42 4a
        E 4061 81 42 00
        E 259 91 4e 47
        E 4061 81 4e 00
        E 259 91 4c 52
        E 4061 81 4c 00
        E 259 91 4e 4f
        E 4061 81 4e 00
        E 259 91 53 4b
        E 4061 81 53 00
        E 259 91 47 51
        E 4061 81 47 00
        E 259 91 54 4b
        E 4061 81 54 00
        E 259 91 53 4b
        E 4061 81 53 00
        E 259 91 53 4d
        E 4061 81 53 00
        E 259 91 53 4f
        E 4061 81 53 00
        E 259 91 54 4b
        E 4061 81 54 00
        E 259 91 54 52
        E 4061 81 54 00
        E 259 91 53 47
        E 4061 81 53 00
        E 259 91 4e 4e
        E 4061 81 4e 00
        E 259 91 53 47
        E 4061 81 53 00
        E 259 91 53 4d
        E 4061 81 53 00
        E 259 91 4e 4d
        E 4061 81 4e 00
        E 259 91 4e 47
        E 4061 81 4e 00
        E 259 91 4e 47
        E 4061 81 4e 00
        E 259 91 4c 47
        E 4061 81 4c 00
        E 259 91 47 48
        E 4061 81 47 00
        E 259 91 4c 4d
        E 4061 81 4c 00
        E 259 91 47 52
        E 4061 81 47 00
        E 259 91 47 4b
        E 4061 81 47 00
        E 259 91 4c 4b
        E 4061 81 4c 00
        E 259 91 4c 4d
        E 4061 81 4c 00
        E 259 91 4c 4f
        E 4061 81 4c 00
        E 259 91 4e 4f
        E 4061 81 4e 00
        E 259 91 4e 4b
        E 4061 81 4e 00
        E 259 91 4e 4e
        E 4061 81 4e 00
        E 259 91 4c 4b
        E 4061 81 4c 00
        E 0 b1 7b 00
        E 1 ff 2f 00
      >
    >
  >
  <TRACK
    NAME "bass_drum"
    PEAKCOL 4290722362
    VOLPAN 1.000000 0 1 -1
    MIDIOUT -1
    ISBUS 0 0
    <ITEM
      POSITION 0.000000
      LENGTH 251.528571
      NAME "bass_drum"
      VOLPAN 1 0 1 -1
      <SOURCE MIDI
        HASDATA 1 960 QN
        E 0 c9 00 00
        E 0 99 23 75
        E 480 89 23 00
        E 3840 99 23 75
        E 480 89 23 00
        E 3840 99 23 75
        E 480 89 23 00
        E 3840 99 23 75
        E 480 89 23 00
        E 3840 99 23 75
        E 480 89 23 00
        E 3840 99 23 75
        E 480 89 23 00
        E 3840 99 23 75
        E 480 89 23 00
        E 3840 99 23 75
        E 480 89 23 00
        E 3840 99 23 75
        E 480 89 23 00
        E 3840 99 23 75
        E 480 89 23 00
        E 3840 99 23 75
        E 480 89 23 00
        E 3840 99 23 75
        E 480 89 23 00
        E 3840 99 23 75
        E 480 89 23 00
        E 3840 99 23 75
        E 480 89 23 00
        E 3840 99 23 75
        E 480 89 23 00
        E 3840 99 23 75
        E 480 89 23 00
        E 3840 99 23 75
        E 480 89 23 00
        E 3840 99 23 75
        E 480 89 23 00
        E 3840 99 23 75
        E 480 89 23 00
        E 3840 99 23 75
        E 480 89 23 00
        E 3840 99 23 75
        E 480 89 23 00
        E 3840 99 23 75
        E 480 89 23 00
        E 3840 99 23 75
        E 480 89 23 00
        E 3840 99 23 75
        E 480 89 23 00
        E 3840 99 23 75
        E 480 89 23 00
        E 3840 99 23 75
        E 480 89 23 00
        E 3840 99 23 75
        E 480 89 23 00
        E 3840 99 23 75
        E 480 89 23 00
        E 3840 99 23 75
        E 480 89 23 00
        E 3840 99 23 75
        E 480 89 23 00
        E 3840 99 23 75
        E 480 89 23 00
        E 3840 99 23 75
        E 480 89 23 00
        E 3840 99 23 75
        E 480 89 23 00
        E 3840 99 23 75
        E 480 89 23 00
        E 3840 99 23 75
        E 480 89 23 00
        E 3840 99 23 75
        E 480 89 23 00
        E 3840 99 23 75
        E 480 89 23 00
        E 3840 99 23 75
        E 480 89 23 00
        E 3840 99 23 75
        E 480 89 23 00
        E 3840 99 23 75
        E 480 89 23 00
        E 0 b9 7b 00
        E 1 ff 2f 00
      >
    >
  >
>
