<REAPER_PROJECT 0.1 "7.0" 1700000000
  TEMPO 64.000000 4 4
  SAMPLERATE 48000 0 0
  RENDER_FILE ""
  RENDER_FMT 0 2 0
  RENDER_1X 0
  RENDER_RANGE 1 0 121.941406 0 0
  RENDER_RESAMPLE 3 0 1
  <MASTERTRACK
    VOLPAN 1 0 1 -1
    DEFCHAN 0
  >
  <TRACK
    NAME "koto"
    PEAKCOL 4284506208
    VOLPAN 1.000000 0 1 -1
    MIDIOUT -1
    ISBUS 0 0
    <ITEM
      POSITION 0.000000
      LENGTH 119.355172
      NAME "koto"
      VOLPAN 1 0 1 -1
      <SOURCE MIDI
        HASDATA 1 960 QN
        E 0 c0 6b 00
        E 0 90 47 68
        E 3475 80 47 00
        E 762 90 49 68
        E 3475 80 49 00
        E 762 90 4e 68
        E 3475 80 4e 00
        E 763 90 51 50
        E 91 80 51 00
        E 5 90 51 59
        E 91 80 51 00
        E 5 90 51 5d
        E 91 80 51 00
        E 5 90 51 50
        E 91 80 51 00
        E 5 90 51 59
        E 91 80 51 00
        E 5 90 51 55
        E 91 80 51 00
        E 5 90 51 50
        E 91 80 51 00
        E 5 90 51 68
        E 91 80 51 00
        E 5 90 51 63
        E 91 80 51 00
        E 5 90 51 59
        E 91 80 51 00
        E 5 90 51 5f
        E 91 80 51 00
        E 5 90 51 4e
        E 91 80 51 00
        E 5 90 51 5f
        E 91 80 51 00
        E 5 90 51 57
        E 91 80 51 00
        E 5 90 51 53
        E 91 80 51 00
        E 5 90 51 55
        E 91 80 51 00
        E 5 90 51 57
        E 91 80 51 00
        E 5 90 51 5d
        E 91 80 51 00
        E 5 90 51 59
        E 91 80 51 00
        E 5 90 51 4c
        E 91 80 51 00
        E 5 90 51 4c
        E 91 80 51 00
        E 5 90 51 55
        E 91 80 51 00
        E 5 90 51 61
        E 91 80 51 00
        E 5 90 51 59
        E 91 80 51 00
        E 5 90 51 5f
        E 91 80 51 00
        E 5 90 51 50
        E 91 80 51 00
        E 5 90 51 4e
        E 91 80 51 00
        E 5 90 51 59
        E 91 80 51 00
        E 5 90 51 4a
        E 91 80 51 00
        E 5 90 51 4a
        E 91 80 51 00
        E 5 90 51 55
        E 91 80 51 00
        E 5 90 51 59
        E 91 80 51 00
        E 5 90 51 4e
        E 91 80 51 00
        E 5 90 51 5d
        E 91 80 51 00
        E 5 90 51 53
        E 91 80 51 00
        E 5 90 51 59
        E 91 80 51 00
        E 5 90 51 53
        E 19 80 51 00
        E 762 90 4c 59
        E 91 80 4c 00
        E 5 90 4c 5d
        E 91 80 4c 00
        E 5 90 4c 5f
        E 91 80 4c 00
        E 5 90 4c 48
        E 91 80 4c 00
        E 5 90 4c 59
        E 91 80 4c 00
        E 5 90 4c 59
        E 91 80 4c 00
        E 5 90 4c 61
        E 91 80 4c 00
        E 5 90 4c 5b
        E 91 80 4c 00
        E 5 90 4c 5f
        E 91 80 4c 00
        E 5 90 4c 4a
        E 91 80 4c 00
        E 5 90 4c 4a
        E 91 80 4c 00
        E 5 90 4c 4a
        E 91 80 4c 00
        E 5 90 4c 53
        E 91 80 4c 00
        E 5 90 4c 50
        E 91 80 4c 00
        E 5 90 4c 48
        E 91 80 4c 00
        E 5 90 4c 53
        E 91 80 4c 00
        E 5 90 4c 5f
        E 91 80 4c 00
        E 5 90 4c 61
        E 91 80 4c 00
        E 5 90 4c 55
        E 91 80 4c 00
        E 5 90 4c 61
        E 91 80 4c 00
        E 5 90 4c 5d
        E 91 80 4c 00
        E 5 90 4c 46
        E 91 80 4c 00
        E 5 90 4c 48
        E 91 80 4c 00
        E 5 90 4c 5d
        E 91 80 4c 00
        E 5 90 4c 57
        E 91 80 4c 00
        E 5 90 4c 57
        E 91 80 4c 00
        E 5 90 4c 55
        E 91 80 4c 00
        E 5 90 4c 4e
        E 91 80 4c 00
        E 5 90 4c 4c
        E 91 80 4c 00
        E 5 90 4c 5d
        E 91 80 4c 00
        E 5 90 4c 4e
        E 91 80 4c 00
        E 5 90 4c 5b
        E 91 80 4c 00
        E 5 90 4c 5d
        E 91 80 4c 00
        E 5 90 4c 48
        E 91 80 4c 00
        E 5 90 4c 48
        E 91 80 4c 00
        E 5 90 4c 4c
        E 91 80 4c 00
        E 5 90 4c 59
        E 19 80 4c 00
        E 762 90 47 68
        E 3475 80 47 00
        E 762 90 49 4a
        E 91 80 49 00
        E 5 90 49 4e
        E 91 80 49 00
        E 5 90 49 44
        E 91 80 49 00
        E 5 90 49 44
        E 91 80 49 00
        E 5 90 49 48
        E 91 80 49 00
        E 5 90 49 59
        E 91 80 49 00
        E 5 90 49 53
        E 91 80 49 00
        E 5 90 49 44
        E 91 80 49 00
        E 5 90 49 46
        E 91 80 49 00
        E 5 90 49 53
        E 91 80 49 00
        E 5 90 49 59
        E 91 80 49 00
        E 5 90 49 59
        E 91 80 49 00
        E 5 90 49 53
        E 91 80 49 00
        E 5 90 49 53
        E 91 80 49 00
        E 5 90 49 5d
        E 91 80 49 00
        E 5 90 49 4a
        E 91 80 49 00
        E 5 90 49 4a
        E 91 80 49 00
        E 5 90 49 4a
        E 91 80 49 00
        E 5 90 49 50
        E 91 80 49 00
        E 5 90 49 46
        E 91 80 49 00
        E 5 90 49 53
        E 91 80 49 00
        E 5 90 49 53
        E 91 80 49 00
        E 5 90 49 4c
        E 91 80 49 00
        E 5 90 49 44
        E 91 80 49 00
        E 5 90 49 44
        E 91 80 49 00
        E 5 90 49 48
        E 91 80 49 00
        E 5 90 49 44
        E 91 80 49 00
        E 5 90 49 46
        E 91 80 49 00
        E 5 90 49 55
        E 91 80 49 00
        E 5 90 49 4e
        E 91 80 49 00
        E 5 90 49 50
        E 91 80 49 00
        E 5 90 49 57
        E 91 80 49 00
        E 5 90 49 4c
        E 91 80 49 00
        E 5 90 49 53
        E 91 80 49 00
        E 5 90 49 57
        E 91 80 49 00
        E 5 90 49 4e
        E 91 80 49 00
        E 5 90 49 59
        E 19 80 49 00
        E 763 90 49 59
        E 91 80 49 00
        E 5 90 49 5f
        E 91 80 49 00
        E 5 90 49 4e
        E 91 80 49 00
        E 5 90 49 5f
        E 91 80 49 00
        E 5 90 49 5b
        E 91 80 49 00
        E 5 90 49 4e
        E 91 80 49 00
        E 5 90 49 5f
        E 91 80 49 00
        E 5 90 49 50
        E 91 80 49 00
        E 5 90 49 5d
        E 91 80 49 00
        E 5 90 49 5f
        E 91 80 49 00
        E 5 90 49 53
        E 91 80 49 00
        E 5 90 49 5d
        E 91 80 49 00
        E 5 90 49 53
        E 91 80 49 00
        E 5 90 49 5b
        E 91 80 49 00
        E 5 90 49 4c
        E 91 80 49 00
        E 5 90 49 59
        E 91 80 49 00
        E 5 90 49 57
        E 91 80 49 00
        E 5 90 49 5d
        E 91 80 49 00
        E 5 90 49 63
        E 91 80 49 00
        E 5 90 49 63
        E 91 80 49 00
        E 5 90 49 5d
        E 91 80 49 00
        E 5 90 49 4c
        E 91 80 49 00
        E 5 90 49 4e
        E 91 80 49 00
        E 5 90 49 4c
        E 91 80 49 00
        E 5 90 49 66
        E 91 80 49 00
        E 5 90 49 68
        E 91 80 49 00
        E 5 90 49 59
        E 91 80 49 00
        E 5 90 49 50
        E 91 80 49 00
        E 5 90 49 66
        E 91 80 49 00
        E 5 90 49 5b
        E 91 80 49 00
        E 5 90 49 57
        E 91 80 49 00
        E 5 90 49 5d
        E 91 80 49 00
        E 5 90 49 53
        E 91 80 49 00
        E 5 90 49 57
        E 91 80 49 00
        E 5 90 49 68
        E 91 80 49 00
        E 5 90 49 68
        E 91 80 49 00
        E 5 90 49 63
        E 19 80 49 00
        E 762 90 45 50
        E 91 80 45 00
        E 5 90 45 3d
        E 91 80 45 00
        E 5 90 45 4a
        E 91 80 45 00
        E 5 90 45 4e
        E 91 80 45 00
        E 5 90 45 3f
        E 91 80 45 00
        E 5 90 45 46
        E 91 80 45 00
        E 5 90 45 4a
        E 91 80 45 00
        E 5 90 45 53
        E 91 80 45 00
        E 5 90 45 3d
        E 91 80 45 00
        E 5 90 45 3f
        E 91 80 45 00
        E 5 90 45 53
        E 91 80 45 00
        E 5 90 45 46
        E 91 80 45 00
        E 5 90 45 4e
        E 91 80 45 00
        E 5 90 45 3d
        E 91 80 45 00
        E 5 90 45 4e
        E 91 80 45 00
        E 5 90 45 48
        E 91 80 45 00
        E 5 90 45 4a
        E 91 80 45 00
        E 5 90 45 4a
        E 91 80 45 00
        E 5 90 45 3f
        E 91 80 45 00
        E 5 90 45 46
        E 91 80 45 00
        E 5 90 45 48
        E 91 80 45 00
        E 5 90 45 55
        E 91 80 45 00
        E 5 90 45 4e
        E 91 80 45 00
        E 5 90 45 53
        E 91 80 45 00
        E 5 90 45 4c
        E 91 80 45 00
        E 5 90 45 4a
        E 91 80 45 00
        E 5 90 45 48
        E 91 80 45 00
        E 5 90 45 46
        E 91 80 45 00
        E 5 90 45 44
        E 91 80 45 00
        E 5 90 45 3d
        E 91 80 45 00
        E 5 90 45 46
        E 91 80 45 00
        E 5 90 45 53
        E 91 80 45 00
        E 5 90 45 44
        E 91 80 45 00
        E 5 90 45 53
        E 91 80 45 00
        E 5 90 45 48
        E 91 80 45 00
        E 5 90 45 4e
        E 91 80 45 00
        E 5 90 45 50
        E 19 80 45 00
        E 762 90 47 70
        E 3475 80 47 00
        E 762 90 42 57
        E 91 80 42 00
        E 5 90 42 46
        E 91 80 42 00
        E 5 90 42 48
        E 91 80 42 00
        E 5 90 42 5d
        E 91 80 42 00
        E 5 90 42 4e
        E 91 80 42 00
        E 5 90 42 44
        E 91 80 42 00
        E 5 90 42 4e
        E 91 80 42 00
        E 5 90 42 55
        E 91 80 42 00
        E 5 90 42 4a
        E 91 80 42 00
        E 5 90 42 59
        E 91 80 42 00
        E 5 90 42 59
        E 91 80 42 00
        E 5 90 42 59
        E 91 80 42 00
        E 5 90 42 44
        E 91 80 42 00
        E 5 90 42 59
        E 91 80 42 00
        E 5 90 42 5b
        E 91 80 42 00
        E 5 90 42 4a
        E 91 80 42 00
        E 5 90 42 4e
        E 91 80 42 00
        E 5 90 42 4c
        E 91 80 42 00
        E 5 90 42 53
        E 91 80 42 00
        E 5 90 42 53
        E 91 80 42 00
        E 5 90 42 59
        E 91 80 42 00
        E 5 90 42 57
        E 91 80 42 00
        E 5 90 42 5d
        E 91 80 42 00
        E 5 90 42 53
        E 91 80 42 00
        E 5 90 42 4e
        E 91 80 42 00
        E 5 90 42 5d
        E 91 80 42 00
        E 5 90 42 48
        E 91 80 42 00
        E 5 90 42 59
        E 91 80 42 00
        E 5 90 42 59
        E 91 80 42 00
        E 5 90 42 4c
        E 91 80 42 00
        E 5 90 42 4a
        E 91 80 42 00
        E 5 90 42 59
        E 91 80 42 00
        E 5 90 42 4c
        E 91 80 42 00
        E 5 90 42 48
        E 91 80 42 00
        E 5 90 42 4e
        E 91 80 42 00
        E 5 90 42 46
        E 91 80 42 00
        E 5 90 42 59
        E 19 80 42 00
        E 763 90 45 4a
        E 91 80 45 00
        E 5 90 45 4a
        E 91 80 45 00
        E 5 90 45 4e
        E 91 80 45 00
        E 5 90 45 46
        E 91 80 45 00
        E 5 90 45 57
        E 91 80 45 00
        E 5 90 45 55
        E 91 80 45 00
        E 5 90 45 42
        E 91 80 45 00
        E 5 90 45 4c
        E 91 80 45 00
        E 5 90 45 57
        E 91 80 45 00
        E 5 90 45 4e
        E 91 80 45 00
        E 5 90 45 53
        E 91 80 45 00
        E 5 90 45 46
        E 91 80 45 00
        E 5 90 45 4e
        E 91 80 45 00
        E 5 90 45 44
        E 91 80 45 00
        E 5 90 45 55
        E 91 80 45 00
        E 5 90 45 4e
        E 91 80 45 00
        E 5 90 45 4a
        E 91 80 45 00
        E 5 90 45 53
        E 91 80 45 00
        E 5 90 45 57
        E 91 80 45 00
        E 5 90 45 55
        E 91 80 45 00
        E 5 90 45 44
        E 91 80 45 00
        E 5 90 45 4c
        E 91 80 45 00
        E 5 90 45 42
        E 91 80 45 00
        E 5 90 45 4a
        E 91 80 45 00
        E 5 90 45 57
        E 91 80 45 00
        E 5 90 45 3f
        E 91 80 45 00
        E 5 90 45 55
        E 91 80 45 00
        E 5 90 45 48
        E 91 80 45 00
        E 5 90 45 59
        E 91 80 45 00
        E 5 90 45 50
        E 91 80 45 00
        E 5 90 45 44
        E 91 80 45 00
        E 5 90 45 4a
        E 91 80 45 00
        E 5 90 45 59
        E 91 80 45 00
        E 5 90 45 44
        E 91 80 45 00
        E 5 90 45 46
        E 91 80 45 00
        E 5 90 45 4e
        E 91 80 45 00
        E 5 90 45 4a
        E 19 80 45 00
        E 762 90 40 4a
        E 91 80 40 00
        E 5 90 40 59
        E 91 80 40 00
        E 5 90 40 57
        E 91 80 40 00
        E 5 90 40 50
        E 91 80 40 00
        E 5 90 40 4a
        E 91 80 40 00
        E 5 90 40 48
        E 91 80 40 00
        E 5 90 40 4a
        E 91 80 40 00
        E 5 90 40 4e
        E 91 80 40 00
        E 5 90 40 59
        E 91 80 40 00
        E 5 90 40 5d
        E 91 80 40 00
        E 5 90 40 4e
        E 91 80 40 00
        E 5 90 40 4e
        E 91 80 40 00
        E 5 90 40 4e
        E 91 80 40 00
        E 5 90 40 5d
        E 91 80 40 00
        E 5 90 40 4c
        E 91 80 40 00
        E 5 90 40 53
        E 91 80 40 00
        E 5 90 40 53
        E 91 80 40 00
        E 5 90 40 48
        E 91 80 40 00
        E 5 90 40 50
        E 91 80 40 00
        E 5 90 40 4c
        E 91 80 40 00
        E 5 90 40 50
        E 91 80 40 00
        E 5 90 40 50
        E 91 80 40 00
        E 5 90 40 5d
        E 91 80 40 00
        E 5 90 40 59
        E 91 80 40 00
        E 5 90 40 59
        E 91 80 40 00
        E 5 90 40 53
        E 91 80 40 00
        E 5 90 40 53
        E 91 80 40 00
        E 5 90 40 59
        E 91 80 40 00
        E 5 90 40 50
        E 91 80 40 00
        E 5 90 40 59
        E 91 80 40 00
        E 5 90 40 53
        E 91 80 40 00
        E 5 90 40 48
        E 91 80 40 00
        E 5 90 40 61
        E 91 80 40 00
        E 5 90 40 61
        E 91 80 40 00
        E 5 90 40 4a
        E 91 80 40 00
        E 5 90 40 50
        E 91 80 40 00
        E 5 90 40 59
        E 19 80 40 00
        E 762 90 3d 61
        E 3475 80 3d 00
        E 762 90 39 4c
        E 91 80 39 00
        E 5 90 39 59
        E 91 80 39 00
        E 5 90 39 5d
        E 91 80 39 00
        E 5 90 39 59
        E 91 80 39 00
        E 5 90 39 5d
        E 91 80 39 00
        E 5 90 39 4e
        E 91 80 39 00
        E 5 90 39 4e
        E 91 80 39 00
        E 5 90 39 53
        E 91 80 39 00
        E 5 90 39 59
        E 91 80 39 00
        E 5 90 39 59
        E 91 80 39 00
        E 5 90 39 48
        E 91 80 39 00
        E 5 90 39 46
        E 91 80 39 00
        E 5 90 39 55
        E 91 80 39 00
        E 5 90 39 5d
        E 91 80 39 00
        E 5 90 39 4a
        E 91 80 39 00
        E 5 90 39 5d
        E 91 80 39 00
        E 5 90 39 59
        E 91 80 39 00
        E 5 90 39 5d
        E 91 80 39 00
        E 5 90 39 4c
        E 91 80 39 00
        E 5 90 39 55
        E 91 80 39 00
        E 5 90 39 59
        E 91 80 39 00
        E 5 90 39 4a
        E 91 80 39 00
        E 5 90 39 61
        E 91 80 39 00
        E 5 90 39 4a
        E 91 80 39 00
        E 5 90 39 5b
        E 91 80 39 00
        E 5 90 39 59
        E 91 80 39 00
        E 5 90 39 53
        E 91 80 39 00
        E 5 90 39 48
        E 91 80 39 00
        E 5 90 39 5d
        E 91 80 39 00
        E 5 90 39 57
        E 91 80 39 00
        E 5 90 39 50
        E 91 80 39 00
        E 5 90 39 55
        E 91 80 39 00
        E 5 90 39 46
        E 91 80 39 00
        E 5 90 39 53
        E 91 80 39 00
        E 5 90 39 50
        E 91 80 39 00
        E 5 90 39 53
        E 91 80 39 00
        E 5 90 39 53
        E 19 80 39 00
        E 763 90 39 5b
        E 91 80 39 00
        E 5 90 39 4e
        E 91 80 39 00
        E 5 90 39 57
        E 91 80 39 00
        E 5 90 39 53
        E 91 80 39 00
        E 5 90 39 53
        E 91 80 39 00
        E 5 90 39 66
        E 91 80 39 00
        E 5 90 39 59
        E 91 80 39 00
        E 5 90 39 59
        E 91 80 39 00
        E 5 90 39 57
        E 91 80 39 00
        E 5 90 39 5b
        E 91 80 39 00
        E 5 90 39 5b
        E 91 80 39 00
        E 5 90 39 4e
        E 91 80 39 00
        E 5 90 39 5b
        E 91 80 39 00
        E 5 90 39 61
        E 91 80 39 00
        E 5 90 39 57
        E 91 80 39 00
        E 5 90 39 59
        E 91 80 39 00
        E 5 90 39 53
        E 91 80 39 00
        E 5 90 39 5d
        E 91 80 39 00
        E 5 90 39 4e
        E 91 80 39 00
        E 5 90 39 4e
        E 91 80 39 00
        E 5 90 39 63
        E 91 80 39 00
        E 5 90 39 5b
        E 91 80 39 00
        E 5 90 39 66
        E 91 80 39 00
        E 5 90 39 57
        E 91 80 39 00
        E 5 90 39 5f
        E 91 80 39 00
        E 5 90 39 63
        E 91 80 39 00
        E 5 90 39 50
        E 91 80 39 00
        E 5 90 39 5d
        E 91 80 39 00
        E 5 90 39 4a
        E 91 80 39 00
        E 5 90 39 5b
        E 91 80 39 00
        E 5 90 39 4a
        E 91 80 39 00
        E 5 90 39 66
        E 91 80 39 00
        E 5 90 39 53
        E 91 80 39 00
        E 5 90 39 5d
        E 91 80 39 00
        E 5 90 39 63
        E 91 80 39 00
        E 5 90 39 4c
        E 91 80 39 00
        E 5 90 39 63
        E 19 80 39 00
        E 762 90 3d 4c
        E 91 80 3d 00
        E 5 90 3d 50
        E 91 80 3d 00
        E 5 90 3d 46
        E 91 80 3d 00
        E 5 90 3d 53
        E 91 80 3d 00
        E 5 90 3d 44
        E 91 80 3d 00
        E 5 90 3d 42
        E 91 80 3d 00
        E 5 90 3d 4e
        E 91 80 3d 00
        E 5 90 3d 4a
        E 91 80 3d 00
        E 5 90 3d 4a
        E 91 80 3d 00
        E 5 90 3d 4a
        E 91 80 3d 00
        E 5 90 3d 44
        E 91 80 3d 00
        E 5 90 3d 44
        E 91 80 3d 00
        E 5 90 3d 4c
        E 91 80 3d 00
        E 5 90 3d 48
        E 91 80 3d 00
        E 5 90 3d 46
        E 91 80 3d 00
        E 5 90 3d 4e
        E 91 80 3d 00
        E 5 90 3d 42
        E 91 80 3d 00
        E 5 90 3d 55
        E 91 80 3d 00
        E 5 90 3d 53
        E 91 80 3d 00
        E 5 90 3d 44
        E 91 80 3d 00
        E 5 90 3d 50
        E 91 80 3d 00
        E 5 90 3d 48
        E 91 80 3d 00
        E 5 90 3d 55
        E 91 80 3d 00
        E 5 90 3d 48
        E 91 80 3d 00
        E 5 90 3d 4e
        E 91 80 3d 00
        E 5 90 3d 57
        E 91 80 3d 00
        E 5 90 3d 4a
        E 91 80 3d 00
        E 5 90 3d 44
        E 91 80 3d 00
        E 5 90 3d 59
        E 91 80 3d 00
        E 5 90 3d 44
        E 91 80 3d 00
        E 5 90 3d 57
        E 91 80 3d 00
        E 5 90 3d 4a
        E 91 80 3d 00
        E 5 90 3d 4c
        E 91 80 3d 00
        E 5 90 3d 4e
        E 91 80 3d 00
        E 5 90 3d 44
        E 91 80 3d 00
        E 5 90 3d 53
        E 91 80 3d 00
        E 5 90 3d 4e
        E 19 80 3d 00
        E 762 90 42 70
        E 3475 80 42 00
        E 762 90 45 63
        E 91 80 45 00
        E 5 90 45 63
        E 91 80 45 00
        E 5 90 45 63
        E 91 80 45 00
        E 5 90 45 59
        E 91 80 45 00
        E 5 90 45 5d
        E 91 80 45 00
        E 5 90 45 4a
        E 91 80 45 00
        E 5 90 45 5d
        E 91 80 45 00
        E 5 90 45 5d
        E 91 80 45 00
        E 5 90 45 63
        E 91 80 45 00
        E 5 90 45 5d
        E 91 80 45 00
        E 5 90 45 53
        E 91 80 45 00
        E 5 90 45 5b
        E 91 80 45 00
        E 5 90 45 5f
        E 91 80 45 00
        E 5 90 45 63
        E 91 80 45 00
        E 5 90 45 4a
        E 91 80 45 00
        E 5 90 45 5f
        E 91 80 45 00
        E 5 90 45 55
        E 91 80 45 00
        E 5 90 45 61
        E 91 80 45 00
        E 5 90 45 4a
        E 91 80 45 00
        E 5 90 45 59
        E 91 80 45 00
        E 5 90 45 50
        E 91 80 45 00
        E 5 90 45 5d
        E 91 80 45 00
        E 5 90 45 53
        E 91 80 45 00
        E 5 90 45 61
        E 91 80 45 00
        E 5 90 45 50
        E 91 80 45 00
        E 5 90 45 4e
        E 91 80 45 00
        E 5 90 45 5b
        E 91 80 45 00
        E 5 90 45 4a
        E 91 80 45 00
        E 5 90 45 50
        E 91 80 45 00
        E 5 90 45 57
        E 91 80 45 00
        E 5 90 45 4e
        E 91 80 45 00
        E 5 90 45 61
        E 91 80 45 00
        E 5 90 45 5f
        E 91 80 45 00
        E 5 90 45 63
        E 91 80 45 00
        E 5 90 45 5d
        E 91 80 45 00
        E 5 90 45 53
        E 91 80 45 00
        E 5 90 45 4e
        E 19 80 45 00
        E 763 90 47 76
        E 3475 80 47 00
        E 762 90 42 4e
        E 91 80 42 00
        E 5 90 42 5d
        E 91 80 42 00
        E 5 90 42 68
        E 91 80 42 00
        E 5 90 42 61
        E 91 80 42 00
        E 5 90 42 57
        E 91 80 42 00
        E 5 90 42 5d
        E 91 80 42 00
        E 5 90 42 59
        E 91 80 42 00
        E 5 90 42 59
        E 91 80 42 00
        E 5 90 42 66
        E 91 80 42 00
        E 5 90 42 5d
        E 91 80 42 00
        E 5 90 42 53
        E 91 80 42 00
        E 5 90 42 61
        E 91 80 42 00
        E 5 90 42 68
        E 91 80 42 00
        E 5 90 42 53
        E 91 80 42 00
        E 5 90 42 59
        E 91 80 42 00
        E 5 90 42 5b
        E 91 80 42 00
        E 5 90 42 68
        E 91 80 42 00
        E 5 90 42 5d
        E 91 80 42 00
        E 5 90 42 5b
        E 91 80 42 00
        E 5 90 42 4e
        E 91 80 42 00
        E 5 90 42 4c
        E 91 80 42 00
        E 5 90 42 63
        E 91 80 42 00
        E 5 90 42 5f
        E 91 80 42 00
        E 5 90 42 59
        E 91 80 42 00
        E 5 90 42 4a
        E 91 80 42 00
        E 5 90 42 4a
        E 91 80 42 00
        E 5 90 42 5d
        E 91 80 42 00
        E 5 90 42 63
        E 91 80 42 00
        E 5 90 42 66
        E 91 80 42 00
        E 5 90 42 50
        E 91 80 42 00
        E 5 90 42 5b
        E 91 80 42 00
        E 5 90 42 5f
        E 91 80 42 00
        E 5 90 42 5d
        E 91 80 42 00
        E 5 90 42 4a
        E 91 80 42 00
        E 5 90 42 59
        E 91 80 42 00
        E 5 90 42 50
        E 91 80 42 00
        E 5 90 42 59
        E 19 80 42 00
        E 762 90 45 53
        E 91 80 45 00
        E 5 90 45 50
        E 91 80 45 00
        E 5 90 45 44
        E 91 80 45 00
        E 5 90 45 50
        E 91 80 45 00
        E 5 90 45 4e
        E 91 80 45 00
        E 5 90 45 4a
        E 91 80 45 00
        E 5 90 45 4a
        E 91 80 45 00
        E 5 90 45 48
        E 91 80 45 00
        E 5 90 45 4a
        E 91 80 45 00
        E 5 90 45 46
        E 91 80 45 00
        E 5 90 45 4c
        E 91 80 45 00
        E 5 90 45 46
        E 91 80 45 00
        E 5 90 45 4e
        E 91 80 45 00
        E 5 90 45 4a
        E 91 80 45 00
        E 5 90 45 44
        E 91 80 45 00
        E 5 90 45 42
        E 91 80 45 00
        E 5 90 45 4e
        E 91 80 45 00
        E 5 90 45 3f
        E 91 80 45 00
        E 5 90 45 55
        E 91 80 45 00
        E 5 90 45 3f
        E 91 80 45 00
        E 5 90 45 4a
        E 91 80 45 00
        E 5 90 45 4e
        E 91 80 45 00
        E 5 90 45 53
        E 91 80 45 00
        E 5 90 45 4e
        E 91 80 45 00
        E 5 90 45 44
        E 91 80 45 00
        E 5 90 45 3f
        E 91 80 45 00
        E 5 90 45 50
        E 91 80 45 00
        E 5 90 45 44
        E 91 80 45 00
        E 5 90 45 48
        E 91 80 45 00
        E 5 90 45 3f
        E 91 80 45 00
        E 5 90 45 44
        E 91 80 45 00
        E 5 90 45 48
        E 91 80 45 00
        E 5 90 45 46
        E 91 80 45 00
        E 5 90 45 4e
        E 91 80 45 00
        E 5 90 45 53
        E 91 80 45 00
        E 5 90 45 4c
        E 91 80 45 00
        E 5 90 45 50
        E 19 80 45 00
        E 762 90 42 6c
        E 3475 80 42 00
        E 763 90 42 44
        E 91 80 42 00
        E 5 90 42 4c
        E 91 80 42 00
        E 5 90 42 3f
        E 91 80 42 00
        E 5 90 42 3f
        E 91 80 42 00
        E 5 90 42 48
        E 91 80 42 00
        E 5 90 42 53
        E 91 80 42 00
        E 5 90 42 44
        E 91 80 42 00
        E 5 90 42 44
        E 91 80 42 00
        E 5 90 42 4e
        E 91 80 42 00
        E 5 90 42 50
        E 91 80 42 00
        E 5 90 42 42
        E 91 80 42 00
        E 5 90 42 4c
        E 91 80 42 00
        E 5 90 42 4a
        E 91 80 42 00
        E 5 90 42 50
        E 91 80 42 00
        E 5 90 42 4e
        E 91 80 42 00
        E 5 90 42 55
        E 91 80 42 00
        E 5 90 42 4c
        E 91 80 42 00
        E 5 90 42 3f
        E 91 80 42 00
        E 5 90 42 4e
        E 91 80 42 00
        E 5 90 42 53
        E 91 80 42 00
        E 5 90 42 4c
        E 91 80 42 00
        E 5 90 42 3d
        E 91 80 42 00
        E 5 90 42 44
        E 91 80 42 00
        E 5 90 42 4a
        E 91 80 42 00
        E 5 90 42 3f
        E 91 80 42 00
        E 5 90 42 4e
        E 91 80 42 00
        E 5 90 42 4a
        E 91 80 42 00
        E 5 90 42 4a
        E 91 80 42 00
        E 5 90 42 53
        E 91 80 42 00
        E 5 90 42 3f
        E 91 80 42 00
        E 5 90 42 50
        E 91 80 42 00
        E 5 90 42 44
        E 91 80 42 00
        E 5 90 42 53
        E 91 80 42 00
        E 5 90 42 50
        E 91 80 42 00
        E 5 90 42 44
        E 91 80 42 00
        E 5 90 42 4c
        E 91 80 42 00
        E 5 90 42 53
        E 19 80 42 00
        E 762 90 42 74
        E 3475 80 42 00
        E 762 90 40 6c
        E 3475 80 40 00
        E 762 90 45 76
        E 3475 80 45 00
        E 763 90 47 61
        E 3475 80 47 00
        E 762 90 42 70
        E 3475 80 42 00
        E 0 b0 7b 00
        E 1 ff 2f 00
      >
    >
  >
  <TRACK
    NAME "shamisen"
    PEAKCOL 4284506208
    VOLPAN 1.000000 0 1 -1
    MIDIOUT -1
    ISBUS 0 0
    <ITEM
      POSITION 0.000000
      LENGTH 118.775862
      NAME "shamisen"
      VOLPAN 1 0 1 -1
      <SOURCE MIDI
        HASDATA 1 960 QN
        E 0 c1 6a 00
        E 0 91 3d 7d
        E 2881 81 3d 00
        E 1356 91 3d 79
        E 2881 81 3d 00
        E 1356 91 3b 7c
        E 2881 81 3b 00
        E 1357 91 36 7d
        E 2881 81 36 00
        E 1356 91 34 76
        E 2881 81 34 00
        E 1356 91 34 7d
        E 2881 81 34 00
        E 1356 91 36 7b
        E 2881 81 36 00
        E 1357 91 34 7d
        E 2881 81 34 00
        E 1356 91 36 7d
        E 2881 81 36 00
        E 1356 91 36 7c
        E 2881 81 36 00
        E 1356 91 31 7d
        E 2881 81 31 00
        E 1357 91 30 7c
        E 2881 81 30 00
        E 1356 91 30 7a
        E 2881 81 30 00
        E 1356 91 36 77
        E 2881 81 36 00
        E 1356 91 34 7a
        E 2881 81 34 00
        E 1357 91 39 76
        E 2881 81 39 00
        E 1356 91 3d 7d
        E 2881 81 3d 00
        E 1356 91 42 7d
        E 2881 81 42 00
        E 1356 91 40 7d
        E 2881 81 40 00
        E 1357 91 40 7d
        E 2881 81 40 00
        E 1356 91 42 7a
        E 2881 81 42 00
        E 1356 91 45 7d
        E 2881 81 45 00
        E 1356 91 49 7a
        E 2881 81 49 00
        E 1357 91 47 7d
        E 2881 81 47 00
        E 1356 91 42 7d
        E 2881 81 42 00
        E 1356 91 40 7c
        E 2881 81 40 00
        E 1356 91 40 77
        E 2881 81 40 00
        E 1357 91 3d 77
        E 2881 81 3d 00
        E 1356 91 3d 77
        E 2881 81 3d 00
        E 0 b1 7b 00
        E 1 ff 2f 00
      >
    >
  >
  <TRACK
    NAME "tenor_drum"
    PEAKCOL 4290722362
    VOLPAN 1.000000 0 1 -1
    MIDIOUT -1
    ISBUS 0 0
    <ITEM
      POSITION 0.000000
      LENGTH 119.934725
      NAME "tenor_drum"
      VOLPAN 1 0 1 -1
      <SOURCE MIDI
        HASDATA 1 960 QN
        E 0 c9 00 00
        E 0 99 2f 35
        E 108 89 2f 00
        E 12 99 2f 2c
        E 108 89 2f 00
        E 12 99 2f 37
        E 108 89 2f 00
        E 12 99 2f 39
        E 108 89 2f 00
        E 12 99 2f 37
        E 108 89 2f 00
        E 12 99 2f 2c
        E 108 89 2f 00
        E 12 99 2f 31
        E 108 89 2f 00
        E 12 99 2f 31
        E 108 89 2f 00
        E 12 99 2f 3f
        E 108 89 2f 00
        E 12 99 2f 42
        E 108 89 2f 00
        E 12 99 2f 3d
        E 108 89 2f 00
        E 12 99 2f 39
        E 108 89 2f 00
        E 12 99 2f 37
        E 108 89 2f 00
        E 12 99 2f 3d
        E 108 89 2f 00
        E 12 99 2f 50
        E 108 89 2f 00
        E 12 99 2f 42
        E 108 89 2f 00
        E 12 99 2f 4c
        E 108 89 2f 00
        E 12 99 2f 59
        E 108 89 2f 00
        E 12 99 2f 4e
        E 108 89 2f 00
        E 12 99 2f 50
        E 108 89 2f 00
        E 12 99 2f 5b
        E 108 89 2f 00
        E 12 99 2f 68
        E 108 89 2f 00
        E 12 99 2f 66
        E 108 89 2f 00
        E 12 99 2f 66
        E 108 89 2f 00
        E 12 99 2f 76
        E 108 89 2f 00
        E 12 99 2f 74
        E 108 89 2f 00
        E 12 99 2f 7b
        E 108 89 2f 00
        E 12 99 2f 7b
        E 108 89 2f 00
        E 12 99 2f 7d
        E 108 89 2f 00
        E 12 99 2f 7d
        E 108 89 2f 00
        E 12 99 2f 7d
        E 108 89 2f 00
        E 12 99 2f 7d
        E 108 89 2f 00
        E 12 99 2f 7d
        E 108 89 2f 00
        E 12 99 2f 7d
        E 108 89 2f 00
        E 169 99 2f 2f
        E 108 89 2f 00
        E 12 99 2f 31
        E 108 89 2f 00
        E 12 99 2f 2c
        E 108 89 2f 00
        E 12 99 2f 2a
        E 108 89 2f 00
        E 12 99 2f 39
        E 108 89 2f 00
        E 12 99 2f 28
        E 108 89 2f 00
        E 12 99 2f 35
        E 108 89 2f 00
        E 12 99 2f 3b
        E 108 89 2f 00
        E 12 99 2f 39
        E 108 89 2f 00
        E 12 99 2f 35
        E 108 89 2f 00
        E 12 99 2f 3f
        E 108 89 2f 00
        E 12 99 2f 3b
        E 108 89 2f 00
        E 12 99 2f 4a
        E 108 89 2f 00
        E 12 99 2f 3f
        E 108 89 2f 00
        E 12 99 2f 4c
        E 108 89 2f 00
        E 12 99 2f 4c
        E 108 89 2f 00
        E 12 99 2f 57
        E 108 89 2f 00
        E 12 99 2f 4c
        E 108 89 2f 00
        E 12 99 2f 5f
        E 108 89 2f 00
        E 12 99 2f 5f
        E 108 89 2f 00
        E 12 99 2f 5f
        E 108 89 2f 00
        E 12 99 2f 68
        E 108 89 2f 00
        E 12 99 2f 6c
        E 108 89 2f 00
        E 12 99 2f 74
        E 108 89 2f 00
        E 12 99 2f 72
        E 108 89 2f 00
        E 12 99 2f 7b
        E 108 89 2f 00
        E 12 99 2f 7b
        E 108 89 2f 00
        E 12 99 2f 7d
        E 108 89 2f 00
        E 12 99 2f 7d
        E 108 89 2f 00
        E 12 99 2f 7d
        E 108 89 2f 00
        E 12 99 2f 7d
        E 108 89 2f 00
        E 12 99 2f 7d
        E 108 89 2f 00
        E 12 99 2f 7d
        E 108 89 2f 00
        E 12 99 2f 7d
        E 108 89 2f 00
        E 169 99 2f 37
        E 108 89 2f 00
        E 12 99 2f 2f
        E 108 89 2f 00
        E 12 99 2f 33
        E 108 89 2f 00
        E 12 99 2f 28
        E 108 89 2f 00
        E 12 99 2f 28
        E 108 89 2f 00
        E 12 99 2f 39
        E 108 89 2f 00
        E 12 99 2f 2c
        E 108 89 2f 00
        E 12 99 2f 39
        E 108 89 2f 00
        E 12 99 2f 39
        E 108 89 2f 00
        E 12 99 2f 33
        E 108 89 2f 00
        E 12 99 2f 35
        E 108 89 2f 00
        E 12 99 2f 46
        E 108 89 2f 00
        E 12 99 2f 4a
        E 108 89 2f 00
        E 12 99 2f 39
        E 108 89 2f 00
        E 12 99 2f 3f
        E 108 89 2f 00
        E 12 99 2f 53
        E 108 89 2f 00
        E 12 99 2f 48
        E 108 89 2f 00
        E 12 99 2f 50
        E 108 89 2f 00
        E 12 99 2f 59
        E 108 89 2f 00
        E 12 99 2f 5f
        E 108 89 2f 00
        E 12 99 2f 63
        E 108 89 2f 00
        E 12 99 2f 66
        E 108 89 2f 00
        E 12 99 2f 63
        E 108 89 2f 00
        E 12 99 2f 6c
        E 108 89 2f 00
        E 12 99 2f 6c
        E 108 89 2f 00
        E 12 99 2f 6c
        E 108 89 2f 00
        E 12 99 2f 74
        E 108 89 2f 00
        E 12 99 2f 7b
        E 108 89 2f 00
        E 12 99 2f 7d
        E 108 89 2f 00
        E 12 99 2f 7d
        E 108 89 2f 00
        E 12 99 2f 7d
        E 108 89 2f 00
        E 12 99 2f 7d
        E 108 89 2f 00
        E 12 99 2f 7d
        E 108 89 2f 00
        E 12 99 2f 7d
        E 108 89 2f 00
        E 170 99 2f 2f
        E 108 89 2f 00
        E 12 99 2f 26
        E 108 89 2f 00
        E 12 99 2f 33
        E 108 89 2f 00
        E 12 99 2f 26
        E 108 89 2f 00
        E 12 99 2f 26
        E 108 89 2f 00
        E 12 99 2f 2a
        E 108 89 2f 00
        E 12 99 2f 2a
        E 108 89 2f 00
        E 12 99 2f 3b
        E 108 89 2f 00
        E 12 99 2f 33
        E 108 89 2f 00
        E 12 99 2f 3f
        E 108 89 2f 00
        E 12 99 2f 37
        E 108 89 2f 00
        E 12 99 2f 35
        E 108 89 2f 00
        E 12 99 2f 3f
        E 108 89 2f 00
        E 12 99 2f 3b
        E 108 89 2f 00
        E 12 99 2f 42
        E 108 89 2f 00
        E 12 99 2f 53
        E 108 89 2f 00
        E 12 99 2f 53
        E 108 89 2f 00
        E 12 99 2f 53
        E 108 89 2f 00
        E 12 99 2f 5d
        E 108 89 2f 00
        E 12 99 2f 5b
        E 108 89 2f 00
        E 12 99 2f 59
        E 108 89 2f 00
        E 12 99 2f 6c
        E 108 89 2f 00
        E 12 99 2f 5f
        E 108 89 2f 00
        E 12 99 2f 63
        E 108 89 2f 00
        E 12 99 2f 70
        E 108 89 2f 00
        E 12 99 2f 7b
        E 108 89 2f 00
        E 12 99 2f 7b
        E 108 89 2f 00
        E 12 99 2f 74
        E 108 89 2f 00
        E 12 99 2f 7d
        E 108 89 2f 00
        E 12 99 2f 7d
        E 108 89 2f 00
        E 12 99 2f 7d
        E 108 89 2f 00
        E 12 99 2f 7d
        E 108 89 2f 00
        E 12 99 2f 7d
        E 108 89 2f 00
        E 12 99 2f 7d
        E 108 89 2f 00
        E 169 99 2f 26
        E 108 89 2f 00
        E 12 99 2f 2c
        E 108 89 2f 00
        E 12 99 2f 39
        E 108 89 2f 00
        E 12 99 2f 26
        E 108 89 2f 00
        E 12 99 2f 31
        E 108 89 2f 00
        E 12 99 2f 31
        E 108 89 2f 00
        E 12 99 2f 35
        E 108 89 2f 00
        E 12 99 2f 2c
        E 108 89 2f 00
        E 12 99 2f 33
        E 108 89 2f 00
        E 12 99 2f 3d
        E 108 89 2f 00
        E 12 99 2f 39
        E 108 89 2f 00
        E 12 99 2f 3b
        E 108 89 2f 00
        E 12 99 2f 42
        E 108 89 2f 00
        E 12 99 2f 44
        E 108 89 2f 00
        E 12 99 2f 3d
        E 108 89 2f 00
        E 12 99 2f 46
        E 108 89 2f 00
        E 12 99 2f 4c
        E 108 89 2f 00
        E 12 99 2f 57
        E 108 89 2f 00
        E 12 99 2f 4c
        E 108 89 2f 00
        E 12 99 2f 5f
        E 108 89 2f 00
        E 12 99 2f 66
        E 108 89 2f 00
        E 12 99 2f 5f
        E 108 89 2f 00
        E 12 99 2f 68
        E 108 89 2f 00
        E 12 99 2f 63
        E 108 89 2f 00
        E 12 99 2f 68
        E 108 89 2f 00
        E 12 99 2f 6c
        E 108 89 2f 00
        E 12 99 2f 7b
        E 108 89 2f 00
        E 12 99 2f 7d
        E 108 89 2f 00
        E 12 99 2f 7d
        E 108 89 2f 00
        E 12 99 2f 7d
        E 108 89 2f 00
        E 12 99 2f 7d
        E 108 89 2f 00
        E 12 99 2f 7d
        E 108 89 2f 00
        E 12 99 2f 7d
        E 108 89 2f 00
        E 12 99 2f 7d
        E 108 89 2f 00
        E 169 99 2f 33
        E 108 89 2f 00
        E 12 99 2f 28
        E 108 89 2f 00
        E 12 99 2f 33
        E 108 89 2f 00
        E 12 99 2f 2f
        E 108 89 2f 00
        E 12 99 2f 39
        E 108 89 2f 00
        E 12 99 2f 3b
        E 108 89 2f 00
        E 12 99 2f 2f
        E 108 89 2f 00
        E 12 99 2f 3f
        E 108 89 2f 00
        E 12 99 2f 3f
        E 108 89 2f 00
        E 12 99 2f 37
        E 108 89 2f 00
        E 12 99 2f 42
        E 108 89 2f 00
        E 12 99 2f 39
        E 108 89 2f 00
        E 12 99 2f 3f
        E 108 89 2f 00
        E 12 99 2f 4c
        E 108 89 2f 00
        E 12 99 2f 3f
        E 108 89 2f 00
        E 12 99 2f 46
        E 108 89 2f 00
        E 12 99 2f 4a
        E 108 89 2f 00
        E 12 99 2f 4a
        E 108 89 2f 00
        E 12 99 2f 4c
        E 108 89 2f 00
        E 12 99 2f 4e
        E 108 89 2f 00
        E 12 99 2f 66
        E 108 89 2f 00
        E 12 99 2f 5f
        E 108 89 2f 00
        E 12 99 2f 70
        E 108 89 2f 00
        E 12 99 2f 74
        E 108 89 2f 00
        E 12 99 2f 68
        E 108 89 2f 00
        E 12 99 2f 7a
        E 108 89 2f 00
        E 12 99 2f 79
        E 108 89 2f 00
        E 12 99 2f 7c
        E 108 89 2f 00
        E 12 99 2f 7b
        E 108 89 2f 00
        E 12 99 2f 7d
        E 108 89 2f 00
        E 12 99 2f 7d
        E 108 89 2f 00
        E 12 99 2f 7d
        E 108 89 2f 00
        E 12 99 2f 7d
        E 108 89 2f 00
        E 12 99 2f 7d
        E 108 89 2f 00
        E 169 99 2f 31
        E 108 89 2f 00
        E 12 99 2f 37
        E 108 89 2f 00
        E 12 99 2f 2c
        E 108 89 2f 00
        E 12 99 2f 33
        E 108 89 2f 00
        E 12 99 2f 31
        E 108 89 2f 00
        E 12 99 2f 2a
        E 108 89 2f 00
        E 12 99 2f 3b
        E 108 89 2f 00
        E 12 99 2f 33
        E 108 89 2f 00
        E 12 99 2f 3b
        E 108 89 2f 00
        E 12 99 2f 33
        E 108 89 2f 00
        E 12 99 2f 39
        E 108 89 2f 00
        E 12 99 2f 39
        E 108 89 2f 00
        E 12 99 2f 46
        E 108 89 2f 00
        E 12 99 2f 3f
        E 108 89 2f 00
        E 12 99 2f 44
        E 108 89 2f 00
        E 12 99 2f 4a
        E 108 89 2f 00
        E 12 99 2f 53
        E 108 89 2f 00
        E 12 99 2f 4a
        E 108 89 2f 00
        E 12 99 2f 59
        E 108 89 2f 00
        E 12 99 2f 57
        E 108 89 2f 00
        E 12 99 2f 61
        E 108 89 2f 00
        E 12 99 2f 5f
        E 108 89 2f 00
        E 12 99 2f 66
        E 108 89 2f 00
        E 12 99 2f 68
        E 108 89 2f 00
        E 12 99 2f 6a
        E 108 89 2f 00
        E 12 99 2f 79
        E 108 89 2f 00
        E 12 99 2f 79
        E 108 89 2f 00
        E 12 99 2f 7c
        E 108 89 2f 00
        E 12 99 2f 7d
        E 108 89 2f 00
        E 12 99 2f 7d
        E 108 89 2f 00
        E 12 99 2f 7d
        E 108 89 2f 00
        E 12 99 2f 7d
        E 108 89 2f 00
        E 12 99 2f 7d
        E 108 89 2f 00
        E 12 99 2f 7d
        E 108 89 2f 00
        E 170 99 2f 31
        E 108 89 2f 00
        E 12 99 2f 35
        E 108 89 2f 00
        E 12 99 2f 28
        E 108 89 2f 00
        E 12 99 2f 2f
        E 108 89 2f 00
        E 12 99 2f 33
        E 108 89 2f 00
        E 12 99 2f 2f
        E 108 89 2f 00
        E 12 99 2f 2a
        E 108 89 2f 00
        E 12 99 2f 37
        E 108 89 2f 00
        E 12 99 2f 35
        E 108 89 2f 00
        E 12 99 2f 31
        E 108 89 2f 00
        E 12 99 2f 33
        E 108 89 2f 00
        E 12 99 2f 48
        E 108 89 2f 00
        E 12 99 2f 3f
        E 108 89 2f 00
        E 12 99 2f 3f
        E 108 89 2f 00
        E 12 99 2f 4c
        E 108 89 2f 00
        E 12 99 2f 4c
        E 108 89 2f 00
        E 12 99 2f 57
        E 108 89 2f 00
        E 12 99 2f 59
        E 108 89 2f 00
        E 12 99 2f 55
        E 108 89 2f 00
        E 12 99 2f 5d
        E 108 89 2f 00
        E 12 99 2f 5f
        E 108 89 2f 00
        E 12 99 2f 6a
        E 108 89 2f 00
        E 12 99 2f 5f
        E 108 89 2f 00
        E 12 99 2f 66
        E 108 89 2f 00
        E 12 99 2f 74
        E 108 89 2f 00
        E 12 99 2f 72
        E 108 89 2f 00
        E 12 99 2f 77
        E 108 89 2f 00
        E 12 99 2f 7d
        E 108 89 2f 00
        E 12 99 2f 7d
        E 108 89 2f 00
        E 12 99 2f 7c
        E 108 89 2f 00
        E 12 99 2f 7d
        E 108 89 2f 00
        E 12 99 2f 7d
        E 108 89 2f 00
        E 12 99 2f 7d
        E 108 89 2f 00
        E 12 99 2f 7d
        E 108 89 2f 00
        E 169 99 2f 2c
        E 108 89 2f 00
        E 12 99 2f 2a
        E 108 89 2f 00
        E 12 99 2f 2c
        E 108 89 2f 00
        E 12 99 2f 26
        E 108 89 2f 00
        E 12 99 2f 35
        E 108 89 2f 00
        E 12 99 2f 2c
        E 108 89 2f 00
        E 12 99 2f 2c
        E 108 89 2f 00
        E 12 99 2f 35
        E 108 89 2f 00
        E 12 99 2f 37
        E 108 89 2f 00
        E 12 99 2f 42
        E 108 89 2f 00
        E 12 99 2f 3b
        E 108 89 2f 00
        E 12 99 2f 48
        E 108 89 2f 00
        E 12 99 2f 3d
        E 108 89 2f 00
        E 12 99 2f 3b
        E 108 89 2f 00
        E 12 99 2f 46
        E 108 89 2f 00
        E 12 99 2f 46
        E 108 89 2f 00
        E 12 99 2f 44
        E 108 89 2f 00
        E 12 99 2f 4c
        E 108 89 2f 00
        E 12 99 2f 5f
        E 108 89 2f 00
        E 12 99 2f 4e
        E 108 89 2f 00
        E 12 99 2f 5f
        E 108 89 2f 00
        E 12 99 2f 59
        E 108 89 2f 00
        E 12 99 2f 6c
        E 108 89 2f 00
        E 12 99 2f 72
        E 108 89 2f 00
        E 12 99 2f 6c
        E 108 89 2f 00
        E 12 99 2f 6c
        E 108 89 2f 00
        E 12 99 2f 79
        E 108 89 2f 00
        E 12 99 2f 7a
        E 108 89 2f 00
        E 12 99 2f 7d
        E 108 89 2f 00
        E 12 99 2f 7b
        E 108 89 2f 00
        E 12 99 2f 7d
        E 108 89 2f 00
        E 12 99 2f 7d
        E 108 89 2f 00
        E 12 99 2f 7d
        E 108 89 2f 00
        E 12 99 2f 7d
        E 108 89 2f 00
        E 169 99 2f 26
        E 108 89 2f 00
        E 12 99 2f 33
        E 108 89 2f 00
        E 12 99 2f 26
        E 108 89 2f 00
        E 12 99 2f 26
        E 108 89 2f 00
        E 12 99 2f 2c
        E 108 89 2f 00
        E 12 99 2f 33
        E 108 89 2f 00
        E 12 99 2f 31
        E 108 89 2f 00
        E 12 99 2f 2c
        E 108 89 2f 00
        E 12 99 2f 3f
        E 108 89 2f 00
        E 12 99 2f 3f
        E 108 89 2f 00
        E 12 99 2f 44
        E 108 89 2f 00
        E 12 99 2f 3b
        E 108 89 2f 00
        E 12 99 2f 48
        E 108 89 2f 00
        E 12 99 2f 4c
        E 108 89 2f 00
        E 12 99 2f 4c
        E 108 89 2f 00
        E 12 99 2f 46
        E 108 89 2f 00
        E 12 99 2f 46
        E 108 89 2f 00
        E 12 99 2f 48
        E 108 89 2f 00
        E 12 99 2f 55
        E 108 89 2f 00
        E 12 99 2f 59
        E 108 89 2f 00
        E 12 99 2f 63
        E 108 89 2f 00
        E 12 99 2f 6a
        E 108 89 2f 00
        E 12 99 2f 6c
        E 108 89 2f 00
        E 12 99 2f 72
        E 108 89 2f 00
        E 12 99 2f 66
        E 108 89 2f 00
        E 12 99 2f 6c
        E 108 89 2f 00
        E 12 99 2f 7c
        E 108 89 2f 00
        E 12 99 2f 7a
        E 108 89 2f 00
        E 12 99 2f 7d
        E 108 89 2f 00
        E 12 99 2f 7d
        E 108 89 2f 00
        E 12 99 2f 7d
        E 108 89 2f 00
        E 12 99 2f 7d
        E 108 89 2f 00
        E 12 99 2f 7d
        E 108 89 2f 00
        E 12 99 2f 7d
        E 108 89 2f 00
        E 169 99 2f 2f
        E 108 89 2f 00
        E 12 99 2f 26
        E 108 89 2f 00
        E 12 99 2f 39
        E 108 89 2f 00
        E 12 99 2f 39
        E 108 89 2f 00
        E 12 99 2f 2f
        E 108 89 2f 00
        E 12 99 2f 35
        E 108 89 2f 00
        E 12 99 2f 3b
        E 108 89 2f 00
        E 12 99 2f 3b
        E 108 89 2f 00
        E 12 99 2f 3f
        E 108 89 2f 00
        E 12 99 2f 3f
        E 108 89 2f 00
        E 12 99 2f 35
        E 108 89 2f 00
        E 12 99 2f 44
        E 108 89 2f 00
        E 12 99 2f 39
        E 108 89 2f 00
        E 12 99 2f 46
        E 108 89 2f 00
        E 12 99 2f 4c
        E 108 89 2f 00
        E 12 99 2f 4e
        E 108 89 2f 00
        E 12 99 2f 53
        E 108 89 2f 00
        E 12 99 2f 50
        E 108 89 2f 00
        E 12 99 2f 57
        E 108 89 2f 00
        E 12 99 2f 57
        E 108 89 2f 00
        E 12 99 2f 55
        E 108 89 2f 00
        E 12 99 2f 6c
        E 108 89 2f 00
        E 12 99 2f 6c
        E 108 89 2f 00
        E 12 99 2f 6e
        E 108 89 2f 00
        E 12 99 2f 77
        E 108 89 2f 00
        E 12 99 2f 72
        E 108 89 2f 00
        E 12 99 2f 70
        E 108 89 2f 00
        E 12 99 2f 7d
        E 108 89 2f 00
        E 12 99 2f 7d
        E 108 89 2f 00
        E 12 99 2f 7d
        E 108 89 2f 00
        E 12 99 2f 7d
        E 108 89 2f 00
        E 12 99 2f 7d
        E 108 89 2f 00
        E 12 99 2f 7d
        E 108 89 2f 00
        E 12 99 2f 7d
        E 108 89 2f 00
        E 170 99 2f 39
        E 108 89 2f 00
        E 12 99 2f 28
        E 108 89 2f 00
        E 12 99 2f 33
        E 108 89 2f 00
        E 12 99 2f 2a
        E 108 89 2f 00
        E 12 99 2f 39
        E 108 89 2f 00
        E 12 99 2f 3b
        E 108 89 2f 00
        E 12 99 2f 39
        E 108 89 2f 00
        E 12 99 2f 39
        E 108 89 2f 00
        E 12 99 2f 2c
        E 108 89 2f 00
        E 12 99 2f 42
        E 108 89 2f 00
        E 12 99 2f 39
        E 108 89 2f 00
        E 12 99 2f 46
        E 108 89 2f 00
        E 12 99 2f 3d
        E 108 89 2f 00
        E 12 99 2f 44
        E 108 89 2f 00
        E 12 99 2f 4e
        E 108 89 2f 00
        E 12 99 2f 3f
        E 108 89 2f 00
        E 12 99 2f 44
        E 108 89 2f 00
        E 12 99 2f 5b
        E 108 89 2f 00
        E 12 99 2f 5d
        E 108 89 2f 00
        E 12 99 2f 4e
        E 108 89 2f 00
        E 12 99 2f 53
        E 108 89 2f 00
        E 12 99 2f 59
        E 108 89 2f 00
        E 12 99 2f 5f
        E 108 89 2f 00
        E 12 99 2f 68
        E 108 89 2f 00
        E 12 99 2f 66
        E 108 89 2f 00
        E 12 99 2f 79
        E 108 89 2f 00
        E 12 99 2f 7b
        E 108 89 2f 00
        E 12 99 2f 7c
        E 108 89 2f 00
        E 12 99 2f 7d
        E 108 89 2f 00
        E 12 99 2f 7d
        E 108 89 2f 00
        E 12 99 2f 7d
        E 108 89 2f 00
        E 12 99 2f 7d
        E 108 89 2f 00
        E 12 99 2f 7d
        E 108 89 2f 00
        E 12 99 2f 7d
        E 108 89 2f 00
        E 169 99 2f 31
        E 108 89 2f 00
        E 12 99 2f 37
        E 108 89 2f 00
        E 12 99 2f 2a
        E 108 89 2f 00
        E 12 99 2f 28
        E 108 89 2f 00
        E 12 99 2f 33
        E 108 89 2f 00
        E 12 99 2f 2f
        E 108 89 2f 00
        E 12 99 2f 33
        E 108 89 2f 00
        E 12 99 2f 3f
        E 108 89 2f 00
        E 12 99 2f 3b
        E 108 89 2f 00
        E 12 99 2f 33
        E 108 89 2f 00
        E 12 99 2f 3f
        E 108 89 2f 00
        E 12 99 2f 39
        E 108 89 2f 00
        E 12 99 2f 44
        E 108 89 2f 00
        E 12 99 2f 42
        E 108 89 2f 00
        E 12 99 2f 3f
        E 108 89 2f 00
        E 12 99 2f 4e
        E 108 89 2f 00
        E 12 99 2f 53
        E 108 89 2f 00
        E 12 99 2f 4e
        E 108 89 2f 00
        E 12 99 2f 50
        E 108 89 2f 00
        E 12 99 2f 5d
        E 108 89 2f 00
        E 12 99 2f 61
        E 108 89 2f 00
        E 12 99 2f 5f
        E 108 89 2f 00
        E 12 99 2f 5f
        E 108 89 2f 00
        E 12 99 2f 6c
        E 108 89 2f 00
        E 12 99 2f 74
        E 108 89 2f 00
        E 12 99 2f 79
        E 108 89 2f 00
        E 12 99 2f 7c
        E 108 89 2f 00
        E 12 99 2f 7c
        E 108 89 2f 00
        E 12 99 2f 7d
        E 108 89 2f 00
        E 12 99 2f 7c
        E 108 89 2f 00
        E 12 99 2f 7d
        E 108 89 2f 00
        E 12 99 2f 7d
        E 108 89 2f 00
        E 12 99 2f 7d
        E 108 89 2f 00
        E 12 99 2f 7d
        E 108 89 2f 00
        E 169 99 2f 2c
        E 108 89 2f 00
        E 12 99 2f 26
        E 108 89 2f 00
        E 12 99 2f 2f
        E 108 89 2f 00
        E 12 99 2f 2c
        E 108 89 2f 00
        E 12 99 2f 39
        E 108 89 2f 00
        E 12 99 2f 33
        E 108 89 2f 00
        E 12 99 2f 33
        E 108 89 2f 00
        E 12 99 2f 31
        E 108 89 2f 00
        E 12 99 2f 2f
        E 108 89 2f 00
        E 12 99 2f 37
        E 108 89 2f 00
        E 12 99 2f 3f
        E 108 89 2f 00
        E 12 99 2f 37
        E 108 89 2f 00
        E 12 99 2f 3b
        E 108 89 2f 00
        E 12 99 2f 3f
        E 108 89 2f 00
        E 12 99 2f 4c
        E 108 89 2f 00
        E 12 99 2f 48
        E 108 89 2f 00
        E 12 99 2f 50
        E 108 89 2f 00
        E 12 99 2f 59
        E 108 89 2f 00
        E 12 99 2f 55
        E 108 89 2f 00
        E 12 99 2f 57
        E 108 89 2f 00
        E 12 99 2f 63
        E 108 89 2f 00
        E 12 99 2f 5d
        E 108 89 2f 00
        E 12 99 2f 6e
        E 108 89 2f 00
        E 12 99 2f 68
        E 108 89 2f 00
        E 12 99 2f 77
        E 108 89 2f 00
        E 12 99 2f 76
        E 108 89 2f 00
        E 12 99 2f 77
        E 108 89 2f 00
        E 12 99 2f 7d
        E 108 89 2f 00
        E 12 99 2f 7a
        E 108 89 2f 00
        E 12 99 2f 7b
        E 108 89 2f 00
        E 12 99 2f 7d
        E 108 89 2f 00
        E 12 99 2f 7d
        E 108 89 2f 00
        E 12 99 2f 7d
        E 108 89 2f 00
        E 12 99 2f 7d
        E 108 89 2f 00
        E 169 99 2f 2f
        E 108 89 2f 00
        E 12 99 2f 2a
        E 108 89 2f 00
        E 12 99 2f 35
        E 108 89 2f 00
        E 12 99 2f 31
        E 108 89 2f 00
        E 12 99 2f 35
        E 108 89 2f 00
        E 12 99 2f 28
        E 108 89 2f 00
        E 12 99 2f 2a
        E 108 89 2f 00
        E 12 99 2f 3f
        E 108 89 2f 00
        E 12 99 2f 33
        E 108 89 2f 00
        E 12 99 2f 35
        E 108 89 2f 00
        E 12 99 2f 39
        E 108 89 2f 00
        E 12 99 2f 3b
        E 108 89 2f 00
        E 12 99 2f 3d
        E 108 89 2f 00
        E 12 99 2f 3f
        E 108 89 2f 00
        E 12 99 2f 44
        E 108 89 2f 00
        E 12 99 2f 4e
        E 108 89 2f 00
        E 12 99 2f 4e
        E 108 89 2f 00
        E 12 99 2f 57
        E 108 89 2f 00
        E 12 99 2f 57
        E 108 89 2f 00
        E 12 99 2f 59
        E 108 89 2f 00
        E 12 99 2f 57
        E 108 89 2f 00
        E 12 99 2f 61
        E 108 89 2f 00
        E 12 99 2f 5f
        E 108 89 2f 00
        E 12 99 2f 6c
        E 108 89 2f 00
        E 12 99 2f 76
        E 108 89 2f 00
        E 12 99 2f 7a
        E 108 89 2f 00
        E 12 99 2f 7a
        E 108 89 2f 00
        E 12 99 2f 77
        E 108 89 2f 00
        E 12 99 2f 7b
        E 108 89 2f 00
        E 12 99 2f 7d
        E 108 89 2f 00
        E 12 99 2f 7d
        E 108 89 2f 00
        E 12 99 2f 7d
        E 108 89 2f 00
        E 12 99 2f 7d
        E 108 89 2f 00
        E 12 99 2f 7d
        E 108 89 2f 00
        E 170 99 2f 35
        E 108 89 2f 00
        E 12 99 2f 28
        E 108 89 2f 00
        E 12 99 2f 2f
        E 108 89 2f 00
        E 12 99 2f 37
        E 108 89 2f 00
        E 12 99 2f 37
        E 108 89 2f 00
        E 12 99 2f 28
        E 108 89 2f 00
        E 12 99 2f 2f
        E 108 89 2f 00
        E 12 99 2f 37
        E 108 89 2f 00
        E 12 99 2f 33
        E 108 89 2f 00
        E 12 99 2f 3f
        E 108 89 2f 00
        E 12 99 2f 42
        E 108 89 2f 00
        E 12 99 2f 39
        E 108 89 2f 00
        E 12 99 2f 46
        E 108 89 2f 00
        E 12 99 2f 3b
        E 108 89 2f 00
        E 12 99 2f 4e
        E 108 89 2f 00
        E 12 99 2f 4a
        E 108 89 2f 00
        E 12 99 2f 4e
        E 108 89 2f 00
        E 12 99 2f 4a
        E 108 89 2f 00
        E 12 99 2f 50
        E 108 89 2f 00
        E 12 99 2f 53
        E 108 89 2f 00
        E 12 99 2f 55
        E 108 89 2f 00
        E 12 99 2f 66
        E 108 89 2f 00
        E 12 99 2f 63
        E 108 89 2f 00
        E 12 99 2f 66
        E 108 89 2f 00
        E 12 99 2f 6c
        E 108 89 2f 00
        E 12 99 2f 72
        E 108 89 2f 00
        E 12 99 2f 72
        E 108 89 2f 00
        E 12 99 2f 7b
        E 108 89 2f 00
        E 12 99 2f 7c
        E 108 89 2f 00
        E 12 99 2f 7d
        E 108 89 2f 00
        E 12 99 2f 7d
        E 108 89 2f 00
        E 12 99 2f 7d
        E 108 89 2f 00
        E 12 99 2f 7d
        E 108 89 2f 00
        E 12 99 2f 7d
        E 108 89 2f 00
        E 169 99 2f 2c
        E 108 89 2f 00
        E 12 99 2f 33
        E 108 89 2f 00
        E 12 99 2f 31
        E 108 89 2f 00
        E 12 99 2f 37
        E 108 89 2f 00
        E 12 99 2f 33
        E 108 89 2f 00
        E 12 99 2f 39
        E 108 89 2f 00
        E 12 99 2f 2c
        E 108 89 2f 00
        E 12 99 2f 3f
        E 108 89 2f 00
        E 12 99 2f 33
        E 108 89 2f 00
        E 12 99 2f 3b
        E 108 89 2f 00
        E 12 99 2f 3f
        E 108 89 2f 00
        E 12 99 2f 35
        E 108 89 2f 00
        E 12 99 2f 3d
        E 108 89 2f 00
        E 12 99 2f 44
        E 108 89 2f 00
        E 12 99 2f 4a
        E 108 89 2f 00
        E 12 99 2f 4e
        E 108 89 2f 00
        E 12 99 2f 44
        E 108 89 2f 00
        E 12 99 2f 4e
        E 108 89 2f 00
        E 12 99 2f 4e
        E 108 89 2f 00
        E 12 99 2f 5f
        E 108 89 2f 00
        E 12 99 2f 59
        E 108 89 2f 00
        E 12 99 2f 6c
        E 108 89 2f 00
        E 12 99 2f 5f
        E 108 89 2f 00
        E 12 99 2f 6a
        E 108 89 2f 00
        E 12 99 2f 6c
        E 108 89 2f 00
        E 12 99 2f 7a
        E 108 89 2f 00
        E 12 99 2f 7b
        E 108 89 2f 00
        E 12 99 2f 7c
        E 108 89 2f 00
        E 12 99 2f 7b
        E 108 89 2f 00
        E 12 99 2f 7d
        E 108 89 2f 00
        E 12 99 2f 7d
        E 108 89 2f 00
        E 12 99 2f 7d
        E 108 89 2f 00
        E 12 99 2f 7d
        E 108 89 2f 00
        E 12 99 2f 7d
        E 108 89 2f 00
        E 169 99 2f 26
        E 108 89 2f 00
        E 12 99 2f 33
        E 108 89 2f 00
        E 12 99 2f 33
        E 108 89 2f 00
        E 12 99 2f 26
        E 108 89 2f 00
        E 12 99 2f 39
        E 108 89 2f 00
        E 12 99 2f 2a
        E 108 89 2f 00
        E 12 99 2f 3d
        E 108 89 2f 00
        E 12 99 2f 3b
        E 108 89 2f 00
        E 12 99 2f 3d
        E 108 89 2f 00
        E 12 99 2f 44
        E 108 89 2f 00
        E 12 99 2f 3f
        E 108 89 2f 00
        E 12 99 2f 3b
        E 108 89 2f 00
        E 12 99 2f 44
        E 108 89 2f 00
        E 12 99 2f 42
        E 108 89 2f 00
        E 12 99 2f 42
        E 108 89 2f 00
        E 12 99 2f 53
        E 108 89 2f 00
        E 12 99 2f 4a
        E 108 89 2f 00
        E 12 99 2f 55
        E 108 89 2f 00
        E 12 99 2f 4e
        E 108 89 2f 00
        E 12 99 2f 59
        E 108 89 2f 00
        E 12 99 2f 5b
        E 108 89 2f 00
        E 12 99 2f 5d
        E 108 89 2f 00
        E 12 99 2f 66
        E 108 89 2f 00
        E 12 99 2f 6a
        E 108 89 2f 00
        E 12 99 2f 70
        E 108 89 2f 00
        E 12 99 2f 77
        E 108 89 2f 00
        E 12 99 2f 72
        E 108 89 2f 00
        E 12 99 2f 7c
        E 108 89 2f 00
        E 12 99 2f 7d
        E 108 89 2f 00
        E 12 99 2f 7b
        E 108 89 2f 00
        E 12 99 2f 7d
        E 108 89 2f 00
        E 12 99 2f 7d
        E 108 89 2f 00
        E 12 99 2f 7d
        E 108 89 2f 00
        E 12 99 2f 7d
        E 108 89 2f 00
        E 169 99 2f 28
        E 108 89 2f 00
        E 12 99 2f 35
        E 108 89 2f 00
        E 12 99 2f 31
        E 108 89 2f 00
        E 12 99 2f 2c
        E 108 89 2f 00
        E 12 99 2f 2a
        E 108 89 2f 00
        E 12 99 2f 2f
        E 108 89 2f 00
        E 12 99 2f 33
        E 108 89 2f 00
        E 12 99 2f 3b
        E 108 89 2f 00
        E 12 99 2f 2c
        E 108 89 2f 00
        E 12 99 2f 3b
        E 108 89 2f 00
        E 12 99 2f 44
        E 108 89 2f 00
        E 12 99 2f 39
        E 108 89 2f 00
        E 12 99 2f 3f
        E 108 89 2f 00
        E 12 99 2f 42
        E 108 89 2f 00
        E 12 99 2f 4a
        E 108 89 2f 00
        E 12 99 2f 4a
        E 108 89 2f 00
        E 12 99 2f 4e
        E 108 89 2f 00
        E 12 99 2f 59
        E 108 89 2f 00
        E 12 99 2f 57
        E 108 89 2f 00
        E 12 99 2f 5d
        E 108 89 2f 00
        E 12 99 2f 57
        E 108 89 2f 00
        E 12 99 2f 59
        E 108 89 2f 00
        E 12 99 2f 6c
        E 108 89 2f 00
        E 12 99 2f 6c
        E 108 89 2f 00
        E 12 99 2f 66
        E 108 89 2f 00
        E 12 99 2f 72
        E 108 89 2f 00
        E 12 99 2f 79
        E 108 89 2f 00
        E 12 99 2f 7b
        E 108 89 2f 00
        E 12 99 2f 7d
        E 108 89 2f 00
        E 12 99 2f 7d
        E 108 89 2f 00
        E 12 99 2f 7d
        E 108 89 2f 00
        E 12 99 2f 7d
        E 108 89 2f 00
        E 12 99 2f 7d
        E 108 89 2f 00
        E 12 99 2f 7d
        E 108 89 2f 00
        E 170 99 2f 26
        E 108 89 2f 00
        E 12 99 2f 33
        E 108 89 2f 00
        E 12 99 2f 33
        E 108 89 2f 00
        E 12 99 2f 37
        E 108 89 2f 00
        E 12 99 2f 37
        E 108 89 2f 00
        E 12 99 2f 28
        E 108 89 2f 00
        E 12 99 2f 39
        E 108 89 2f 00
        E 12 99 2f 39
        E 108 89 2f 00
        E 12 99 2f 31
        E 108 89 2f 00
        E 12 99 2f 39
        E 108 89 2f 00
        E 12 99 2f 33
        E 108 89 2f 00
        E 12 99 2f 42
        E 108 89 2f 00
        E 12 99 2f 46
        E 108 89 2f 00
        E 12 99 2f 4c
        E 108 89 2f 00
        E 12 99 2f 4a
        E 108 89 2f 00
        E 12 99 2f 48
        E 108 89 2f 00
        E 12 99 2f 4a
        E 108 89 2f 00
        E 12 99 2f 57
        E 108 89 2f 00
        E 12 99 2f 59
        E 108 89 2f 00
        E 12 99 2f 50
        E 108 89 2f 00
        E 12 99 2f 66
        E 108 89 2f 00
        E 12 99 2f 5f
        E 108 89 2f 00
        E 12 99 2f 61
        E 108 89 2f 00
        E 12 99 2f 72
        E 108 89 2f 00
        E 12 99 2f 77
        E 108 89 2f 00
        E 12 99 2f 6c
        E 108 89 2f 00
        E 12 99 2f 7b
        E 108 89 2f 00
        E 12 99 2f 77
        E 108 89 2f 00
        E 12 99 2f 7b
        E 108 89 2f 00
        E 12 99 2f 7c
        E 108 89 2f 00
        E 12 99 2f 7d
        E 108 89 2f 00
        E 12 99 2f 7d
        E 108 89 2f 00
        E 12 99 2f 7d
        E 108 89 2f 00
        E 12 99 2f 7d
        E 108 89 2f 00
        E 169 99 2f 28
        E 108 89 2f 00
        E 12 99 2f 2c
        E 108 89 2f 00
        E 12 99 2f 37
        E 108 89 2f 00
        E 12 99 2f 26
        E 108 89 2f 00
        E 12 99 2f 37
        E 108 89 2f 00
        E 12 99 2f 28
        E 108 89 2f 00
        E 12 99 2f 33
        E 108 89 2f 00
        E 12 99 2f 2c
        E 108 89 2f 00
        E 12 99 2f 3f
        E 108 89 2f 00
        E 12 99 2f 44
        E 108 89 2f 00
        E 12 99 2f 3f
        E 108 89 2f 00
        E 12 99 2f 44
        E 108 89 2f 00
        E 12 99 2f 44
        E 108 89 2f 00
        E 12 99 2f 42
        E 108 89 2f 00
        E 12 99 2f 3f
        E 108 89 2f 00
        E 12 99 2f 50
        E 108 89 2f 00
        E 12 99 2f 4c
        E 108 89 2f 00
        E 12 99 2f 57
        E 108 89 2f 00
        E 12 99 2f 4c
        E 108 89 2f 00
        E 12 99 2f 4e
        E 108 89 2f 00
        E 12 99 2f 5f
        E 108 89 2f 00
        E 12 99 2f 66
        E 108 89 2f 00
        E 12 99 2f 66
        E 108 89 2f 00
        E 12 99 2f 68
        E 108 89 2f 00
        E 12 99 2f 72
        E 108 89 2f 00
        E 12 99 2f 70
        E 108 89 2f 00
        E 12 99 2f 72
        E 108 89 2f 00
        E 12 99 2f 74
        E 108 89 2f 00
        E 12 99 2f 7d
        E 108 89 2f 00
        E 12 99 2f 7d
        E 108 89 2f 00
        E 12 99 2f 7d
        E 108 89 2f 00
        E 12 99 2f 7d
        E 108 89 2f 00
        E 12 99 2f 7d
        E 108 89 2f 00
        E 12 99 2f 7d
        E 108 89 2f 00
        E 169 99 2f 39
        E 108 89 2f 00
        E 12 99 2f 2a
        E 108 89 2f 00
        E 12 99 2f 31
        E 108 89 2f 00
        E 12 99 2f 2a
        E 108 89 2f 00
        E 12 99 2f 2f
        E 108 89 2f 00
        E 12 99 2f 39
        E 108 89 2f 00
        E 12 99 2f 2c
        E 108 89 2f 00
        E 12 99 2f 33
        E 108 89 2f 00
        E 12 99 2f 33
        E 108 89 2f 00
        E 12 99 2f 3b
        E 108 89 2f 00
        E 12 99 2f 3b
        E 108 89 2f 00
        E 12 99 2f 48
        E 108 89 2f 00
        E 12 99 2f 39
        E 108 89 2f 00
        E 12 99 2f 46
        E 108 89 2f 00
        E 12 99 2f 4c
        E 108 89 2f 00
        E 12 99 2f 53
        E 108 89 2f 00
        E 12 99 2f 4c
        E 108 89 2f 00
        E 12 99 2f 55
        E 108 89 2f 00
        E 12 99 2f 59
        E 108 89 2f 00
        E 12 99 2f 61
        E 108 89 2f 00
        E 12 99 2f 57
        E 108 89 2f 00
        E 12 99 2f 68
        E 108 89 2f 00
        E 12 99 2f 70
        E 108 89 2f 00
        E 12 99 2f 6a
        E 108 89 2f 00
        E 12 99 2f 68
        E 108 89 2f 00
        E 12 99 2f 79
        E 108 89 2f 00
        E 12 99 2f 72
        E 108 89 2f 00
        E 12 99 2f 79
        E 108 89 2f 00
        E 12 99 2f 7d
        E 108 89 2f 00
        E 12 99 2f 7d
        E 108 89 2f 00
        E 12 99 2f 7d
        E 108 89 2f 00
        E 12 99 2f 7d
        E 108 89 2f 00
        E 12 99 2f 7d
        E 108 89 2f 00
        E 12 99 2f 7d
        E 108 89 2f 00
        E 169 99 2f 2c
        E 108 89 2f 00
        E 12 99 2f 31
        E 108 89 2f 00
        E 12 99 2f 26
        E 108 89 2f 00
        E 12 99 2f 33
        E 108 89 2f 00
        E 12 99 2f 33
        E 108 89 2f 00
        E 12 99 2f 2c
        E 108 89 2f 00
        E 12 99 2f 2c
        E 108 89 2f 00
        E 12 99 2f 2f
        E 108 89 2f 00
        E 12 99 2f 3f
        E 108 89 2f 00
        E 12 99 2f 44
        E 108 89 2f 00
        E 12 99 2f 3f
        E 108 89 2f 00
        E 12 99 2f 3b
        E 108 89 2f 00
        E 12 99 2f 46
        E 108 89 2f 00
        E 12 99 2f 3b
        E 108 89 2f 00
        E 12 99 2f 4c
        E 108 89 2f 00
        E 12 99 2f 48
        E 108 89 2f 00
        E 12 99 2f 57
        E 108 89 2f 00
        E 12 99 2f 4c
        E 108 89 2f 00
        E 12 99 2f 4e
        E 108 89 2f 00
        E 12 99 2f 59
        E 108 89 2f 00
        E 12 99 2f 5b
        E 108 89 2f 00
        E 12 99 2f 59
        E 108 89 2f 00
        E 12 99 2f 6a
        E 108 89 2f 00
        E 12 99 2f 6a
        E 108 89 2f 00
        E 12 99 2f 6a
        E 108 89 2f 00
        E 12 99 2f 70
        E 108 89 2f 00
        E 12 99 2f 70
        E 108 89 2f 00
        E 12 99 2f 7d
        E 108 89 2f 00
        E 12 99 2f 7d
        E 108 89 2f 00
        E 12 99 2f 7d
        E 108 89 2f 00
        E 12 99 2f 7d
        E 108 89 2f 00
        E 12 99 2f 7d
        E 108 89 2f 00
        E 12 99 2f 7d
        E 108 89 2f 00
        E 12 99 2f 7d
        E 108 89 2f 00
        E 170 99 2f 39
        E 108 89 2f 00
        E 12 99 2f 31
        E 108 89 2f 00
        E 12 99 2f 35
        E 108 89 2f 00
        E 12 99 2f 26
        E 108 89 2f 00
        E 12 99 2f 2a
        E 108 89 2f 00
        E 12 99 2f 28
        E 108 89 2f 00
        E 12 99 2f 2c
        E 108 89 2f 00
        E 12 99 2f 3d
        E 108 89 2f 00
        E 12 99 2f 33
        E 108 89 2f 00
        E 12 99 2f 39
        E 108 89 2f 00
        E 12 99 2f 37
        E 108 89 2f 00
        E 12 99 2f 35
        E 108 89 2f 00
        E 12 99 2f 39
        E 108 89 2f 00
        E 12 99 2f 4c
        E 108 89 2f 00
        E 12 99 2f 44
        E 108 89 2f 00
        E 12 99 2f 50
        E 108 89 2f 00
        E 12 99 2f 53
        E 108 89 2f 00
        E 12 99 2f 53
        E 108 89 2f 00
        E 12 99 2f 5d
        E 108 89 2f 00
        E 12 99 2f 5f
        E 108 89 2f 00
        E 12 99 2f 61
        E 108 89 2f 00
        E 12 99 2f 5d
        E 108 89 2f 00
        E 12 99 2f 6c
        E 108 89 2f 00
        E 12 99 2f 74
        E 108 89 2f 00
        E 12 99 2f 77
        E 108 89 2f 00
        E 12 99 2f 7b
        E 108 89 2f 00
        E 12 99 2f 74
        E 108 89 2f 00
        E 12 99 2f 7b
        E 108 89 2f 00
        E 12 99 2f 7b
        E 108 89 2f 00
        E 12 99 2f 7d
        E 108 89 2f 00
        E 12 99 2f 7d
        E 108 89 2f 00
        E 12 99 2f 7d
        E 108 89 2f 00
        E 12 99 2f 7d
        E 108 89 2f 00
        E 12 99 2f 7d
        E 108 89 2f 00
        E 169 99 2f 28
        E 108 89 2f 00
        E 12 99 2f 37
        E 108 89 2f 00
        E 12 99 2f 37
        E 108 89 2f 00
        E 12 99 2f 2c
        E 108 89 2f 00
        E 12 99 2f 2c
        E 108 89 2f 00
        E 12 99 2f 2f
        E 108 89 2f 00
        E 12 99 2f 39
        E 108 89 2f 00
        E 12 99 2f 33
        E 108 89 2f 00
        E 12 99 2f 3f
        E 108 89 2f 00
        E 12 99 2f 31
        E 108 89 2f 00
        E 12 99 2f 39
        E 108 89 2f 00
        E 12 99 2f 39
        E 108 89 2f 00
        E 12 99 2f 46
        E 108 89 2f 00
        E 12 99 2f 4c
        E 108 89 2f 00
        E 12 99 2f 50
        E 108 89 2f 00
        E 12 99 2f 4e
        E 108 89 2f 00
        E 12 99 2f 4c
        E 108 89 2f 00
        E 12 99 2f 53
        E 108 89 2f 00
        E 12 99 2f 57
        E 108 89 2f 00
        E 12 99 2f 59
        E 108 89 2f 00
        E 12 99 2f 59
        E 108 89 2f 00
        E 12 99 2f 68
        E 108 89 2f 00
        E 12 99 2f 61
        E 108 89 2f 00
        E 12 99 2f 74
        E 108 89 2f 00
        E 12 99 2f 76
        E 108 89 2f 00
        E 12 99 2f 79
        E 108 89 2f 00
        E 12 99 2f 79
        E 108 89 2f 00
        E 12 99 2f 7d
        E 108 89 2f 00
        E 12 99 2f 7d
        E 108 89 2f 00
        E 12 99 2f 7d
        E 108 89 2f 00
        E 12 99 2f 7d
        E 108 89 2f 00
        E 12 99 2f 7d
        E 108 89 2f 00
        E 12 99 2f 7d
        E 108 89 2f 00
        E 12 99 2f 7d
        E 108 89 2f 00
        E 169 99 2f 33
        E 108 89 2f 00
        E 12 99 2f 26
        E 108 89 2f 00
        E 12 99 2f 2c
        E 108 89 2f 00
        E 12 99 2f 28
        E 108 89 2f 00
        E 12 99 2f 2f
        E 108 89 2f 00
        E 12 99 2f 31
        E 108 89 2f 00
        E 12 99 2f 33
        E 108 89 2f 00
        E 12 99 2f 39
        E 108 89 2f 00
        E 12 99 2f 33
        E 108 89 2f 00
        E 12 99 2f 42
        E 108 89 2f 00
        E 12 99 2f 3d
        E 108 89 2f 00
        E 12 99 2f 48
        E 108 89 2f 00
        E 12 99 2f 44
        E 108 89 2f 00
        E 12 99 2f 44
        E 108 89 2f 00
        E 12 99 2f 3f
        E 108 89 2f 00
        E 12 99 2f 3f
        E 108 89 2f 00
        E 12 99 2f 46
        E 108 89 2f 00
        E 12 99 2f 4e
        E 108 89 2f 00
        E 12 99 2f 50
        E 108 89 2f 00
        E 12 99 2f 5f
        E 108 89 2f 00
        E 12 99 2f 66
        E 108 89 2f 00
        E 12 99 2f 59
        E 108 89 2f 00
        E 12 99 2f 6a
        E 108 89 2f 00
        E 12 99 2f 6e
        E 108 89 2f 00
        E 12 99 2f 74
        E 108 89 2f 00
        E 12 99 2f 76
        E 108 89 2f 00
        E 12 99 2f 77
        E 108 89 2f 00
        E 12 99 2f 7b
        E 108 89 2f 00
        E 12 99 2f 7d
        E 108 89 2f 00
        E 12 99 2f 7d
        E 108 89 2f 00
        E 12 99 2f 7d
        E 108 89 2f 00
        E 12 99 2f 7d
        E 108 89 2f 00
        E 12 99 2f 7d
        E 108 89 2f 00
        E 12 99 2f 7d
        E 108 89 2f 00
        E 169 99 2f 2c
        E 108 89 2f 00
        E 12 99 2f 26
        E 108 89 2f 00
        E 12 99 2f 2c
        E 108 89 2f 00
        E 12 99 2f 2a
        E 108 89 2f 00
        E 12 99 2f 26
        E 108 89 2f 00
        E 12 99 2f 28
        E 108 89 2f 00
        E 12 99 2f 2c
        E 108 89 2f 00
        E 12 99 2f 39
        E 108 89 2f 00
        E 12 99 2f 33
        E 108 89 2f 00
        E 12 99 2f 39
        E 108 89 2f 00
        E 12 99 2f 33
        E 108 89 2f 00
        E 12 99 2f 44
        E 108 89 2f 00
        E 12 99 2f 4a
        E 108 89 2f 00
        E 12 99 2f 39
        E 108 89 2f 00
        E 12 99 2f 46
        E 108 89 2f 00
        E 12 99 2f 44
        E 108 89 2f 00
        E 12 99 2f 46
        E 108 89 2f 00
        E 12 99 2f 4a
        E 108 89 2f 00
        E 12 99 2f 59
        E 108 89 2f 00
        E 12 99 2f 5f
        E 108 89 2f 00
        E 12 99 2f 66
        E 108 89 2f 00
        E 12 99 2f 5b
        E 108 89 2f 00
        E 12 99 2f 6c
        E 108 89 2f 00
        E 12 99 2f 6a
        E 108 89 2f 00
        E 12 99 2f 66
        E 108 89 2f 00
        E 12 99 2f 77
        E 108 89 2f 00
        E 12 99 2f 74
        E 108 89 2f 00
        E 12 99 2f 74
        E 108 89 2f 00
        E 12 99 2f 7d
        E 108 89 2f 00
        E 12 99 2f 7d
        E 108 89 2f 00
        E 12 99 2f 7d
        E 108 89 2f 00
        E 12 99 2f 7d
        E 108 89 2f 00
        E 12 99 2f 7d
        E 108 89 2f 00
        E 12 99 2f 7d
        E 108 89 2f 00
        E 170 99 2f 33
        E 108 89 2f 00
        E 12 99 2f 26
        E 108 89 2f 00
        E 12 99 2f 2c
        E 108 89 2f 00
        E 12 99 2f 2f
        E 108 89 2f 00
        E 12 99 2f 28
        E 108 89 2f 00
        E 12 99 2f 3b
        E 108 89 2f 00
        E 12 99 2f 31
        E 108 89 2f 00
        E 12 99 2f 33
        E 108 89 2f 00
        E 12 99 2f 3b
        E 108 89 2f 00
        E 12 99 2f 44
        E 108 89 2f 00
        E 12 99 2f 3b
        E 108 89 2f 00
        E 12 99 2f 39
        E 108 89 2f 00
        E 12 99 2f 46
        E 108 89 2f 00
        E 12 99 2f 46
        E 108 89 2f 00
        E 12 99 2f 42
        E 108 89 2f 00
        E 12 99 2f 42
        E 108 89 2f 00
        E 12 99 2f 53
        E 108 89 2f 00
        E 12 99 2f 50
        E 108 89 2f 00
        E 12 99 2f 59
        E 108 89 2f 00
        E 12 99 2f 5d
        E 108 89 2f 00
        E 12 99 2f 63
        E 108 89 2f 00
        E 12 99 2f 63
        E 108 89 2f 00
        E 12 99 2f 66
        E 108 89 2f 00
        E 12 99 2f 66
        E 108 89 2f 00
        E 12 99 2f 70
        E 108 89 2f 00
        E 12 99 2f 6e
        E 108 89 2f 00
        E 12 99 2f 77
        E 108 89 2f 00
        E 12 99 2f 7d
        E 108 89 2f 00
        E 12 99 2f 7d
        E 108 89 2f 00
        E 12 99 2f 7d
        E 108 89 2f 00
        E 12 99 2f 7d
        E 108 89 2f 00
        E 12 99 2f 7d
        E 108 89 2f 00
        E 12 99 2f 7d
        E 108 89 2f 00
        E 12 99 2f 7d
        E 108 89 2f 00
        E 169 99 2f 39
        E 108 89 2f 00
        E 12 99 2f 26
        E 108 89 2f 00
        E 12 99 2f 2a
        E 108 89 2f 00
        E 12 99 2f 33
        E 108 89 2f 00
        E 12 99 2f 33
        E 108 89 2f 00
        E 12 99 2f 2f
        E 108 89 2f 00
        E 12 99 2f 2f
        E 108 89 2f 00
        E 12 99 2f 2c
        E 108 89 2f 00
        E 12 99 2f 33
        E 108 89 2f 00
        E 12 99 2f 42
        E 108 89 2f 00
        E 12 99 2f 44
        E 108 89 2f 00
        E 12 99 2f 44
        E 108 89 2f 00
        E 12 99 2f 48
        E 108 89 2f 00
        E 12 99 2f 4a
        E 108 89 2f 00
        E 12 99 2f 3f
        E 108 89 2f 00
        E 12 99 2f 53
        E 108 89 2f 00
        E 12 99 2f 44
        E 108 89 2f 00
        E 12 99 2f 4a
        E 108 89 2f 00
        E 12 99 2f 53
        E 108 89 2f 00
        E 12 99 2f 61
        E 108 89 2f 00
        E 12 99 2f 66
        E 108 89 2f 00
        E 12 99 2f 61
        E 108 89 2f 00
        E 12 99 2f 5d
        E 108 89 2f 00
        E 12 99 2f 66
        E 108 89 2f 00
        E 12 99 2f 6a
        E 108 89 2f 00
        E 12 99 2f 72
        E 108 89 2f 00
        E 12 99 2f 74
        E 108 89 2f 00
        E 12 99 2f 7c
        E 108 89 2f 00
        E 12 99 2f 7d
        E 108 89 2f 00
        E 12 99 2f 7b
        E 108 89 2f 00
        E 12 99 2f 7d
        E 108 89 2f 00
        E 12 99 2f 7d
        E 108 89 2f 00
        E 12 99 2f 7d
        E 108 89 2f 00
        E 12 99 2f 7d
        E 108 89 2f 00
        E 0 b9 7b 00
        E 1 ff 2f 00
      >
    >
  >
  <TRACK
    NAME "shaker_perc"
    PEAKCOL 4290722362
    VOLPAN 1.000000 0 1 -1
    MIDIOUT -1
    ISBUS 0 0
    <ITEM
      POSITION 0.000000
      LENGTH 120.041406
      NAME "shaker_perc"
      VOLPAN 1 0 1 -1
      <SOURCE MIDI
        HASDATA 1 960 QN
        E 0 c9 00 00
        E 0 99 46 4a
        E 180 89 46 00
        E 60 99 46 33
        E 180 89 46 00
        E 540 99 46 55
        E 180 89 46 00
        E 60 99 46 37
        E 180 89 46 00
        E 60 99 46 31
        E 180 89 46 00
        E 300 99 46 4c
        E 180 89 46 00
        E 60 99 46 39
        E 180 89 46 00
        E 60 99 46 2f
        E 180 89 46 00
        E 300 99 46 53
        E 180 89 46 00
        E 60 99 46 31
        E 180 89 46 00
        E 300 99 46 2f
        E 180 89 46 00
        E 60 99 46 4c
        E 180 89 46 00
        E 60 99 46 33
        E 180 89 46 00
        E 60 99 46 2f
        E 180 89 46 00
        E 60 99 46 33
        E 180 89 46 00
        E 60 99 46 55
        E 180 89 46 00
        E 60 99 46 31
        E 180 89 46 00
        E 60 99 46 2c
        E 180 89 46 00
        E 60 99 46 33
        E 180 89 46 00
        E 60 99 46 53
        E 180 89 46 00
        E 60 99 46 39
        E 180 89 46 00
        E 60 99 46 33
        E 180 89 46 00
        E 60 99 46 39
        E 180 89 46 00
        E 60 99 46 53
        E 180 89 46 00
        E 60 99 46 39
        E 180 89 46 00
        E 60 99 46 33
        E 180 89 46 00
        E 60 99 46 39
        E 180 89 46 00
        E 60 99 46 50
        E 180 89 46 00
        E 60 99 46 37
        E 180 89 46 00
        E 60 99 46 37
        E 180 89 46 00
        E 60 99 46 31
        E 180 89 46 00
        E 60 99 46 57
        E 180 89 46 00
        E 60 99 46 39
        E 180 89 46 00
        E 60 99 46 39
        E 180 89 46 00
        E 60 99 46 39
        E 180 89 46 00
        E 60 99 46 4e
        E 180 89 46 00
        E 60 99 46 37
        E 180 89 46 00
        E 60 99 46 35
        E 180 89 46 00
        E 60 99 46 2f
        E 180 89 46 00
        E 60 99 46 4e
        E 180 89 46 00
        E 300 99 46 37
        E 180 89 46 00
        E 300 99 46 48
        E 180 89 46 00
        E 60 99 46 33
        E 180 89 46 00
        E 60 99 46 33
        E 180 89 46 00
        E 60 99 46 33
        E 180 89 46 00
        E 60 99 46 57
        E 180 89 46 00
        E 60 99 46 31
        E 180 89 46 00
        E 60 99 46 31
        E 180 89 46 00
        E 60 99 46 2c
        E 180 89 46 00
        E 60 99 46 48
        E 180 89 46 00
        E 60 99 46 39
        E 180 89 46 00
        E 60 99 46 31
        E 180 89 46 00
        E 60 99 46 33
        E 180 89 46 00
        E 60 99 46 57
        E 180 89 46 00
        E 60 99 46 37
        E 180 89 46 00
        E 60 99 46 33
        E 180 89 46 00
        E 60 99 46 37
        E 180 89 46 00
        E 60 99 46 4a
        E 180 89 46 00
        E 60 99 46 2f
        E 180 89 46 00
        E 60 99 46 2c
        E 180 89 46 00
        E 60 99 46 3b
        E 180 89 46 00
        E 60 99 46 4e
        E 180 89 46 00
        E 60 99 46 2f
        E 180 89 46 00
        E 300 99 46 2f
        E 180 89 46 00
        E 60 99 46 48
        E 180 89 46 00
        E 300 99 46 39
        E 180 89 46 00
        E 60 99 46 33
        E 180 89 46 00
        E 60 99 46 55
        E 180 89 46 00
        E 60 99 46 39
        E 180 89 46 00
        E 60 99 46 39
        E 180 89 46 00
        E 60 99 46 35
        E 180 89 46 00
        E 300 99 46 2f
        E 180 89 46 00
        E 60 99 46 31
        E 180 89 46 00
        E 60 99 46 33
        E 180 89 46 00
        E 60 99 46 50
        E 180 89 46 00
        E 60 99 46 37
        E 180 89 46 00
        E 300 99 46 37
        E 180 89 46 00
        E 60 99 46 53
        E 180 89 46 00
        E 60 99 46 37
        E 180 89 46 00
        E 60 99 46 39
        E 180 89 46 00
        E 60 99 46 33
        E 180 89 46 00
        E 60 99 46 55
        E 180 89 46 00
        E 300 99 46 2f
        E 180 89 46 00
        E 60 99 46 35
        E 180 89 46 00
        E 300 99 46 37
        E 180 89 46 00
        E 60 99 46 39
        E 180 89 46 00
        E 60 99 46 2f
        E 180 89 46 00
        E 540 99 46 33
        E 180 89 46 00
        E 60 99 46 39
        E 180 89 46 00
        E 300 99 46 35
        E 180 89 46 00
        E 60 99 46 39
        E 180 89 46 00
        E 60 99 46 2f
        E 180 89 46 00
        E 60 99 46 4c
        E 180 89 46 00
        E 60 99 46 37
        E 180 89 46 00
        E 300 99 46 37
        E 180 89 46 00
        E 60 99 46 55
        E 180 89 46 00
        E 60 99 46 2c
        E 180 89 46 00
        E 60 99 46 33
        E 180 89 46 00
        E 300 99 46 4c
        E 180 89 46 00
        E 60 99 46 33
        E 180 89 46 00
        E 60 99 46 2c
        E 180 89 46 00
        E 60 99 46 2c
        E 180 89 46 00
        E 60 99 46 55
        E 180 89 46 00
        E 300 99 46 39
        E 180 89 46 00
        E 60 99 46 39
        E 180 89 46 00
        E 60 99 46 4c
        E 180 89 46 00
        E 60 99 46 33
        E 180 89 46 00
        E 60 99 46 2f
        E 180 89 46 00
        E 300 99 46 53
        E 180 89 46 00
        E 60 99 46 33
        E 180 89 46 00
        E 60 99 46 33
        E 180 89 46 00
        E 60 99 46 2f
        E 180 89 46 00
        E 60 99 46 4a
        E 180 89 46 00
        E 60 99 46 31
        E 180 89 46 00
        E 60 99 46 39
        E 180 89 46 00
        E 60 99 46 35
        E 180 89 46 00
        E 60 99 46 4e
        E 180 89 46 00
        E 60 99 46 2f
        E 180 89 46 00
        E 60 99 46 2c
        E 180 89 46 00
        E 60 99 46 35
        E 180 89 46 00
        E 60 99 46 4a
        E 180 89 46 00
        E 60 99 46 3b
        E 180 89 46 00
        E 60 99 46 31
        E 180 89 46 00
        E 60 99 46 39
        E 180 89 46 00
        E 300 99 46 2f
        E 180 89 46 00
        E 60 99 46 39
        E 180 89 46 00
        E 300 99 46 4e
        E 180 89 46 00
        E 60 99 46 39
        E 180 89 46 00
        E 60 99 46 33
        E 180 89 46 00
        E 60 99 46 37
        E 180 89 46 00
        E 60 99 46 4a
        E 180 89 46 00
        E 60 99 46 39
        E 180 89 46 00
        E 60 99 46 33
        E 180 89 46 00
        E 60 99 46 39
        E 180 89 46 00
        E 60 99 46 53
        E 180 89 46 00
        E 60 99 46 31
        E 180 89 46 00
        E 60 99 46 2f
        E 180 89 46 00
        E 300 99 46 55
        E 180 89 46 00
        E 60 99 46 31
        E 180 89 46 00
        E 60 99 46 37
        E 180 89 46 00
        E 60 99 46 2c
        E 180 89 46 00
        E 60 99 46 57
        E 180 89 46 00
        E 60 99 46 3b
        E 180 89 46 00
        E 60 99 46 2f
        E 180 89 46 00
        E 60 99 46 2c
        E 180 89 46 00
        E 60 99 46 4e
        E 180 89 46 00
        E 300 99 46 33
        E 180 89 46 00
        E 60 99 46 39
        E 180 89 46 00
        E 780 99 46 33
        E 180 89 46 00
        E 60 99 46 4a
        E 180 89 46 00
        E 60 99 46 39
        E 180 89 46 00
        E 60 99 46 39
        E 180 89 46 00
        E 60 99 46 3b
        E 180 89 46 00
        E 60 99 46 4c
        E 180 89 46 00
        E 60 99 46 33
        E 180 89 46 00
        E 60 99 46 2c
        E 180 89 46 00
        E 60 99 46 3b
        E 180 89 46 00
        E 60 99 46 4a
        E 180 89 46 00
        E 60 99 46 33
        E 180 89 46 00
        E 60 99 46 37
        E 180 89 46 00
        E 60 99 46 31
        E 180 89 46 00
        E 300 99 46 2c
        E 180 89 46 00
        E 60 99 46 39
        E 180 89 46 00
        E 60 99 46 2c
        E 180 89 46 00
        E 60 99 46 4c
        E 180 89 46 00
        E 60 99 46 2c
        E 180 89 46 00
        E 60 99 46 37
        E 180 89 46 00
        E 60 99 46 2f
        E 180 89 46 00
        E 60 99 46 4e
        E 180 89 46 00
        E 300 99 46 39
        E 180 89 46 00
        E 60 99 46 37
        E 180 89 46 00
        E 60 99 46 4c
        E 180 89 46 00
        E 60 99 46 2c
        E 180 89 46 00
        E 60 99 46 37
        E 180 89 46 00
        E 60 99 46 37
        E 180 89 46 00
        E 60 99 46 50
        E 180 89 46 00
        E 60 99 46 35
        E 180 89 46 00
        E 60 99 46 2c
        E 180 89 46 00
        E 300 99 46 53
        E 180 89 46 00
        E 60 99 46 2c
        E 180 89 46 00
        E 60 99 46 37
        E 180 89 46 00
        E 60 99 46 2c
        E 180 89 46 00
        E 60 99 46 4c
        E 180 89 46 00
        E 300 99 46 2f
        E 180 89 46 00
        E 60 99 46 39
        E 180 89 46 00
        E 60 99 46 4c
        E 180 89 46 00
        E 60 99 46 35
        E 180 89 46 00
        E 60 99 46 31
        E 180 89 46 00
        E 60 99 46 39
        E 180 89 46 00
        E 60 99 46 53
        E 180 89 46 00
        E 300 99 46 2f
        E 180 89 46 00
        E 60 99 46 39
        E 180 89 46 00
        E 60 99 46 53
        E 180 89 46 00
        E 300 99 46 33
        E 180 89 46 00
        E 60 99 46 3b
        E 180 89 46 00
        E 60 99 46 50
        E 180 89 46 00
        E 60 99 46 33
        E 180 89 46 00
        E 60 99 46 31
        E 180 89 46 00
        E 300 99 46 4a
        E 180 89 46 00
        E 60 99 46 37
        E 180 89 46 00
        E 300 99 46 35
        E 180 89 46 00
        E 60 99 46 55
        E 180 89 46 00
        E 60 99 46 2c
        E 180 89 46 00
        E 300 99 46 3b
        E 180 89 46 00
        E 60 99 46 53
        E 180 89 46 00
        E 60 99 46 35
        E 180 89 46 00
        E 60 99 46 33
        E 180 89 46 00
        E 60 99 46 2f
        E 180 89 46 00
        E 60 99 46 48
        E 180 89 46 00
        E 60 99 46 35
        E 180 89 46 00
        E 60 99 46 39
        E 180 89 46 00
        E 60 99 46 33
        E 180 89 46 00
        E 60 99 46 57
        E 180 89 46 00
        E 60 99 46 2c
        E 180 89 46 00
        E 60 99 46 33
        E 180 89 46 00
        E 60 99 46 39
        E 180 89 46 00
        E 60 99 46 53
        E 180 89 46 00
        E 540 99 46 31
        E 180 89 46 00
        E 60 99 46 53
        E 180 89 46 00
        E 60 99 46 35
        E 180 89 46 00
        E 60 99 46 3b
        E 180 89 46 00
        E 60 99 46 3b
        E 180 89 46 00
        E 60 99 46 4a
        E 180 89 46 00
        E 60 99 46 31
        E 180 89 46 00
        E 60 99 46 2c
        E 180 89 46 00
        E 60 99 46 35
        E 180 89 46 00
        E 60 99 46 50
        E 180 89 46 00
        E 60 99 46 2f
        E 180 89 46 00
        E 300 99 46 3b
        E 180 89 46 00
        E 60 99 46 4e
        E 180 89 46 00
        E 60 99 46 2f
        E 180 89 46 00
        E 60 99 46 3b
        E 180 89 46 00
        E 60 99 46 31
        E 180 89 46 00
        E 60 99 46 48
        E 180 89 46 00
        E 60 99 46 39
        E 180 89 46 00
        E 60 99 46 31
        E 180 89 46 00
        E 60 99 46 2f
        E 180 89 46 00
        E 60 99 46 53
        E 180 89 46 00
        E 60 99 46 2c
        E 180 89 46 00
        E 60 99 46 33
        E 180 89 46 00
        E 60 99 46 2f
        E 180 89 46 00
        E 60 99 46 4c
        E 180 89 46 00
        E 60 99 46 33
        E 180 89 46 00
        E 60 99 46 35
        E 180 89 46 00
        E 300 99 46 4c
        E 180 89 46 00
        E 60 99 46 31
        E 180 89 46 00
        E 60 99 46 37
        E 180 89 46 00
        E 60 99 46 35
        E 180 89 46 00
        E 60 99 46 50
        E 180 89 46 00
        E 300 99 46 31
        E 180 89 46 00
        E 60 99 46 31
        E 180 89 46 00
        E 60 99 46 4e
        E 180 89 46 00
        E 60 99 46 2f
        E 180 89 46 00
        E 60 99 46 2c
        E 180 89 46 00
        E 60 99 46 2c
        E 180 89 46 00
        E 60 99 46 4a
        E 180 89 46 00
        E 60 99 46 39
        E 180 89 46 00
        E 60 99 46 2f
        E 180 89 46 00
        E 60 99 46 35
        E 180 89 46 00
        E 60 99 46 55
        E 180 89 46 00
        E 300 99 46 2f
        E 180 89 46 00
        E 60 99 46 31
        E 180 89 46 00
        E 60 99 46 53
        E 180 89 46 00
        E 60 99 46 2f
        E 180 89 46 00
        E 60 99 46 39
        E 180 89 46 00
        E 60 99 46 2f
        E 180 89 46 00
        E 60 99 46 55
        E 180 89 46 00
        E 300 99 46 33
        E 180 89 46 00
        E 60 99 46 35
        E 180 89 46 00
        E 60 99 46 48
        E 180 89 46 00
        E 60 99 46 39
        E 180 89 46 00
        E 60 99 46 2f
        E 180 89 46 00
        E 540 99 46 2f
        E 180 89 46 00
        E 60 99 46 39
        E 180 89 46 00
        E 300 99 46 53
        E 180 89 46 00
        E 60 99 46 2f
        E 180 89 46 00
        E 60 99 46 2f
        E 180 89 46 00
        E 300 99 46 53
        E 180 89 46 00
        E 60 99 46 39
        E 180 89 46 00
        E 300 99 46 3b
        E 180 89 46 00
        E 300 99 46 39
        E 180 89 46 00
        E 60 99 46 39
        E 180 89 46 00
        E 60 99 46 37
        E 180 89 46 00
        E 60 99 46 55
        E 180 89 46 00
        E 60 99 46 31
        E 180 89 46 00
        E 60 99 46 2c
        E 180 89 46 00
        E 60 99 46 31
        E 180 89 46 00
        E 60 99 46 4c
        E 180 89 46 00
        E 60 99 46 3b
        E 180 89 46 00
        E 60 99 46 37
        E 180 89 46 00
        E 300 99 46 55
        E 180 89 46 00
        E 60 99 46 2c
        E 180 89 46 00
        E 60 99 46 37
        E 180 89 46 00
        E 60 99 46 37
        E 180 89 46 00
        E 60 99 46 4c
        E 180 89 46 00
        E 60 99 46 35
        E 180 89 46 00
        E 60 99 46 37
        E 180 89 46 00
        E 60 99 46 39
        E 180 89 46 00
        E 60 99 46 4c
        E 180 89 46 00
        E 60 99 46 37
        E 180 89 46 00
        E 60 99 46 2c
        E 180 89 46 00
        E 60 99 46 2c
        E 180 89 46 00
        E 60 99 46 48
        E 180 89 46 00
        E 60 99 46 2c
        E 180 89 46 00
        E 60 99 46 39
        E 180 89 46 00
        E 60 99 46 37
        E 180 89 46 00
        E 60 99 46 48
        E 180 89 46 00
        E 60 99 46 2c
        E 180 89 46 00
        E 60 99 46 33
        E 180 89 46 00
        E 60 99 46 2f
        E 180 89 46 00
        E 60 99 46 48
        E 180 89 46 00
        E 60 99 46 35
        E 180 89 46 00
        E 60 99 46 39
        E 180 89 46 00
        E 300 99 46 50
        E 180 89 46 00
        E 60 99 46 2c
        E 180 89 46 00
        E 60 99 46 3b
        E 180 89 46 00
        E 300 99 46 50
        E 180 89 46 00
        E 60 99 46 31
        E 180 89 46 00
        E 60 99 46 39
        E 180 89 46 00
        E 60 99 46 2c
        E 180 89 46 00
        E 60 99 46 53
        E 180 89 46 00
        E 60 99 46 39
        E 180 89 46 00
        E 60 99 46 39
        E 180 89 46 00
        E 60 99 46 39
        E 180 89 46 00
        E 60 99 46 53
        E 180 89 46 00
        E 300 99 46 2f
        E 180 89 46 00
        E 60 99 46 37
        E 180 89 46 00
        E 60 99 46 4c
        E 180 89 46 00
        E 60 99 46 2f
        E 180 89 46 00
        E 60 99 46 31
        E 180 89 46 00
        E 60 99 46 2c
        E 180 89 46 00
        E 60 99 46 53
        E 180 89 46 00
        E 60 99 46 35
        E 180 89 46 00
        E 60 99 46 31
        E 180 89 46 00
        E 540 99 46 37
        E 180 89 46 00
        E 60 99 46 2c
        E 180 89 46 00
        E 300 99 46 4e
        E 180 89 46 00
        E 60 99 46 39
        E 180 89 46 00
        E 60 99 46 39
        E 180 89 46 00
        E 60 99 46 3b
        E 180 89 46 00
        E 300 99 46 2f
        E 180 89 46 00
        E 60 99 46 2f
        E 180 89 46 00
        E 60 99 46 39
        E 180 89 46 00
        E 60 99 46 53
        E 180 89 46 00
        E 60 99 46 2f
        E 180 89 46 00
        E 60 99 46 2f
        E 180 89 46 00
        E 60 99 46 39
        E 180 89 46 00
        E 60 99 46 53
        E 180 89 46 00
        E 60 99 46 2c
        E 180 89 46 00
        E 60 99 46 39
        E 180 89 46 00
        E 60 99 46 35
        E 180 89 46 00
        E 300 99 46 2c
        E 180 89 46 00
        E 60 99 46 2f
        E 180 89 46 00
        E 60 99 46 3b
        E 180 89 46 00
        E 60 99 46 53
        E 180 89 46 00
        E 60 99 46 33
        E 180 89 46 00
        E 60 99 46 31
        E 180 89 46 00
        E 300 99 46 55
        E 180 89 46 00
        E 60 99 46 39
        E 180 89 46 00
        E 60 99 46 2f
        E 180 89 46 00
        E 60 99 46 2f
        E 180 89 46 00
        E 60 99 46 55
        E 180 89 46 00
        E 60 99 46 39
        E 180 89 46 00
        E 60 99 46 39
        E 180 89 46 00
        E 60 99 46 3b
        E 180 89 46 00
        E 60 99 46 4a
        E 180 89 46 00
        E 60 99 46 33
        E 180 89 46 00
        E 60 99 46 31
        E 180 89 46 00
        E 60 99 46 31
        E 180 89 46 00
        E 60 99 46 55
        E 180 89 46 00
        E 60 99 46 39
        E 180 89 46 00
        E 60 99 46 35
        E 180 89 46 00
        E 60 99 46 2f
        E 180 89 46 00
        E 60 99 46 53
        E 180 89 46 00
        E 60 99 46 2c
        E 180 89 46 00
        E 60 99 46 37
        E 180 89 46 00
        E 60 99 46 2c
        E 180 89 46 00
        E 60 99 46 4c
        E 180 89 46 00
        E 300 99 46 33
        E 180 89 46 00
        E 300 99 46 55
        E 180 89 46 00
        E 60 99 46 3b
        E 180 89 46 00
        E 60 99 46 2f
        E 180 89 46 00
        E 60 99 46 2c
        E 180 89 46 00
        E 60 99 46 4c
        E 180 89 46 00
        E 60 99 46 39
        E 180 89 46 00
        E 60 99 46 2f
        E 180 89 46 00
        E 60 99 46 35
        E 180 89 46 00
        E 60 99 46 53
        E 180 89 46 00
        E 60 99 46 33
        E 180 89 46 00
        E 300 99 46 39
        E 180 89 46 00
        E 60 99 46 55
        E 180 89 46 00
        E 60 99 46 2f
        E 180 89 46 00
        E 60 99 46 33
        E 180 89 46 00
        E 60 99 46 35
        E 180 89 46 00
        E 60 99 46 4e
        E 180 89 46 00
        E 60 99 46 37
        E 180 89 46 00
        E 60 99 46 31
        E 180 89 46 00
        E 60 99 46 39
        E 180 89 46 00
        E 300 99 46 3b
        E 180 89 46 00
        E 60 99 46 2f
        E 180 89 46 00
        E 60 99 46 33
        E 180 89 46 00
        E 60 99 46 4c
        E 180 89 46 00
        E 300 99 46 2c
        E 180 89 46 00
        E 60 99 46 39
        E 180 89 46 00
        E 60 99 46 48
        E 180 89 46 00
        E 300 99 46 31
        E 180 89 46 00
        E 60 99 46 37
        E 180 89 46 00
        E 60 99 46 55
        E 180 89 46 00
        E 60 99 46 2f
        E 180 89 46 00
        E 60 99 46 37
        E 180 89 46 00
        E 60 99 46 2c
        E 180 89 46 00
        E 300 99 46 31
        E 180 89 46 00
        E 60 99 46 2f
        E 180 89 46 00
        E 1020 99 46 39
        E 180 89 46 00
        E 60 99 46 4a
        E 180 89 46 00
        E 300 99 46 2c
        E 180 89 46 00
        E 300 99 46 55
        E 180 89 46 00
        E 780 99 46 57
        E 180 89 46 00
        E 60 99 46 37
        E 180 89 46 00
        E 60 99 46 33
        E 180 89 46 00
        E 60 99 46 39
        E 180 89 46 00
        E 60 99 46 4a
        E 180 89 46 00
        E 300 99 46 31
        E 180 89 46 00
        E 60 99 46 39
        E 180 89 46 00
        E 60 99 46 4c
        E 180 89 46 00
        E 60 99 46 39
        E 180 89 46 00
        E 60 99 46 39
        E 180 89 46 00
        E 60 99 46 2c
        E 180 89 46 00
        E 60 99 46 48
        E 180 89 46 00
        E 60 99 46 39
        E 180 89 46 00
        E 60 99 46 33
        E 180 89 46 00
        E 60 99 46 39
        E 180 89 46 00
        E 60 99 46 4c
        E 180 89 46 00
        E 60 99 46 35
        E 180 89 46 00
        E 300 99 46 39
        E 180 89 46 00
        E 0 b9 7b 00
        E 1 ff 2f 00
      >
    >
  >
>
