<REAPER_PROJECT 0.1 "7.0" 1700000000
  TEMPO 45.000000 4 4
  SAMPLERATE 48000 0 0
  RENDER_FILE ""
  RENDER_FMT 0 2 0
  RENDER_1X 0
  RENDER_RANGE 1 0 268.533333 0 0
  RENDER_RESAMPLE 3 0 1
  <MASTERTRACK
    VOLPAN 1 0 1 -1
    DEFCHAN 0
  >
  <TRACK
    NAME "glass_harp"
    PEAKCOL 4290756410
    VOLPAN 1.000000 0 1 -1
    MIDIOUT -1
    ISBUS 0 0
    <ITEM
      POSITION 0.000000
      LENGTH 266.500000
      NAME "glass_harp"
      VOLPAN 1 0 1 -1
      <SOURCE MIDI
        HASDATA 1 960 QN
        E 0 c0 62 00
        E 0 90 45 52
        E 0 90 4a 52
        E 0 90 4c 52
        E 4608 80 45 00
        E 0 80 4a 00
        E 0 80 4c 00
        E 192 90 45 52
        E 0 90 4a 52
        E 0 90 4c 52
        E 4608 80 45 00
        E 0 80 4a 00
        E 0 80 4c 00
        E 192 90 45 52
        E 0 90 4a 52
        E 0 90 4c 52
        E 4608 80 45 00
        E 0 80 4a 00
        E 0 80 4c 00
        E 192 90 45 52
        E 0 90 48 52
        E 0 90 4c 52
        E 4608 80 45 00
        E 0 80 48 00
        E 0 80 4c 00
        E 192 90 45 52
        E 0 90 4a 52
        E 0 90 4c 52
        E 4608 80 45 00
        E 0 80 4a 00
        E 0 80 4c 00
        E 192 90 45 52
        E 0 90 4a 52
        E 0 90 4c 52
        E 4608 80 45 00
        E 0 80 4a 00
        E 0 80 4c 00
        E 192 90 43 52
        E 0 90 48 52
        E 0 90 4a 52
        E 4608 80 43 00
        E 0 80 48 00
        E 0 80 4a 00
        E 192 90 45 52
        E 0 90 4a 52
        E 0 90 4c 52
        E 4608 80 45 00
        E 0 80 4a 00
        E 0 80 4c 00
        E 192 90 45 52
        E 0 90 4a 52
        E 0 90 4c 52
        E 4608 80 45 00
        E 0 80 4a 00
        E 0 80 4c 00
        E 192 90 45 52
        E 0 90 4a 52
        E 0 90 4c 52
        E 4608 80 45 00
        E 0 80 4a 00
        E 0 80 4c 00
        E 192 90 45 52
        E 0 90 4a 52
        E 0 90 4c 52
        E 4608 80 45 00
        E 0 80 4a 00
        E 0 80 4c 00
        E 192 90 45 52
        E 0 90 48 52
        E 0 90 4c 52
        E 4608 80 45 00
        E 0 80 48 00
        E 0 80 4c 00
        E 192 90 45 52
        E 0 90 4a 52
        E 0 90 4c 52
        E 4608 80 45 00
        E 0 80 4a 00
        E 0 80 4c 00
        E 192 90 45 52
        E 0 90 4a 52
        E 0 90 4c 52
        E 4608 80 45 00
        E 0 80 4a 00
        E 0 80 4c 00
        E 192 90 43 52
        E 0 90 48 52
        E 0 90 4a 52
        E 4608 80 43 00
        E 0 80 48 00
        E 0 80 4a 00
        E 192 90 45 52
        E 0 90 4a 52
        E 0 90 4c 52
        E 4608 80 45 00
        E 0 80 4a 00
        E 0 80 4c 00
        E 192 90 45 52
        E 0 90 4a 52
        E 0 90 4c 52
        E 4608 80 45 00
        E 0 80 4a 00
        E 0 80 4c 00
        E 192 90 45 52
        E 0 90 4a 52
        E 0 90 4c 52
        E 4608 80 45 00
        E 0 80 4a 00
        E 0 80 4c 00
        E 192 90 45 52
        E 0 90 4a 52
        E 0 90 4c 52
        E 4608 80 45 00
        E 0 80 4a 00
        E 0 80 4c 00
        E 192 90 45 52
        E 0 90 48 52
        E 0 90 4c 52
        E 4608 80 45 00
        E 0 80 48 00
        E 0 80 4c 00
        E 192 90 45 52
        E 0 90 4a 52
        E 0 90 4c 52
        E 4608 80 45 00
        E 0 80 4a 00
        E 0 80 4c 00
        E 192 90 45 52
        E 0 90 4a 52
        E 0 90 4c 52
        E 4608 80 45 00
        E 0 80 4a 00
        E 0 80 4c 00
        E 192 90 43 52
        E 0 90 48 52
        E 0 90 4a 52
        E 4608 80 43 00
        E 0 80 48 00
        E 0 80 4a 00
        E 192 90 45 52
        E 0 90 4a 52
        E 0 90 4c 52
        E 4608 80 45 00
        E 0 80 4a 00
        E 0 80 4c 00
        E 192 90 45 52
        E 0 90 4a 52
        E 0 90 4c 52
        E 4608 80 45 00
        E 0 80 4a 00
        E 0 80 4c 00
        E 192 90 45 52
        E 0 90 4a 52
        E 0 90 4c 52
        E 4608 80 45 00
        E 0 80 4a 00
        E 0 80 4c 00
        E 192 90 45 52
        E 0 90 4a 52
        E 0 90 4c 52
        E 4608 80 45 00
        E 0 80 4a 00
        E 0 80 4c 00
        E 192 90 45 52
        E 0 90 48 52
        E 0 90 4c 52
        E 4608 80 45 00
        E 0 80 48 00
        E 0 80 4c 00
        E 192 90 45 52
        E 0 90 4a 52
        E 0 90 4c 52
        E 4608 80 45 00
        E 0 80 4a 00
        E 0 80 4c 00
        E 192 90 45 52
        E 0 90 4a 52
        E 0 90 4c 52
        E 4608 80 45 00
        E 0 80 4a 00
        E 0 80 4c 00
        E 192 90 43 52
        E 0 90 48 52
        E 0 90 4a 52
        E 4608 80 43 00
        E 0 80 48 00
        E 0 80 4a 00
        E 192 90 45 52
        E 0 90 4a 52
        E 0 90 4c 52
        E 4608 80 45 00
        E 0 80 4a 00
        E 0 80 4c 00
        E 192 90 45 52
        E 0 90 4a 52
        E 0 90 4c 52
        E 4608 80 45 00
        E 0 80 4a 00
        E 0 80 4c 00
        E 192 90 45 52
        E 0 90 4a 52
        E 0 90 4c 52
        E 4608 80 45 00
        E 0 80 4a 00
        E 0 80 4c 00
        E 192 90 45 52
        E 0 90 4a 52
        E 0 90 4c 52
        E 4608 80 45 00
        E 0 80 4a 00
        E 0 80 4c 00
        E 192 90 45 52
        E 0 90 48 52
        E 0 90 4c 52
        E 4608 80 45 00
        E 0 80 48 00
        E 0 80 4c 00
        E 192 90 45 52
        E 0 90 4a 52
        E 0 90 4c 52
        E 4608 80 45 00
        E 0 80 4a 00
        E 0 80 4c 00
        E 192 90 45 52
        E 0 90 4a 52
        E 0 90 4c 52
        E 4608 80 45 00
        E 0 80 4a 00
        E 0 80 4c 00
        E 192 90 43 52
        E 0 90 48 52
        E 0 90 4a 52
        E 4608 80 43 00
        E 0 80 48 00
        E 0 80 4a 00
        E 192 90 45 52
        E 0 90 4a 52
        E 0 90 4c 52
        E 4608 80 45 00
        E 0 80 4a 00
        E 0 80 4c 00
        E 0 b0 7b 00
        E 1 ff 2f 00
      >
    >
  >
  <TRACK
    NAME "alto_flute"
    PEAKCOL 4282040170
    VOLPAN 1.000000 0 1 -1
    MIDIOUT -1
    ISBUS 0 0
    <ITEM
      POSITION 0.000000
      LENGTH 259.433333
      NAME "alto_flute"
      VOLPAN 1 0 1 -1
      <SOURCE MIDI
        HASDATA 1 960 QN
        E 0 c1 49 00
        E 0 91 4a 6d
        E 4320 81 4a 00
        E 10080 91 4c 6f
        E 4320 81 4c 00
        E 10080 91 4f 6d
        E 4320 81 4f 00
        E 10080 91 4c 6d
        E 4320 81 4c 00
        E 10080 91 51 63
        E 4320 81 51 00
        E 10080 91 4c 71
        E 4320 81 4c 00
        E 10080 91 51 73
        E 4320 81 51 00
        E 5280 91 4c 6f
        E 4320 81 4c 00
        E 10080 91 51 6d
        E 4320 81 51 00
        E 10080 91 4c 75
        E 4320 81 4c 00
        E 10080 91 51 67
        E 4320 81 51 00
        E 10080 91 54 6d
        E 4320 81 54 00
        E 10080 91 54 6f
        E 4320 81 54 00
        E 10080 91 4f 71
        E 4320 81 4f 00
        E 0 b1 7b 00
        E 1 ff 2f 00
      >
    >
  >
  <TRACK
    NAME "erhu"
    PEAKCOL 4284506208
    VOLPAN 1.000000 0 1 -1
    MIDIOUT -1
    ISBUS 0 0
    <ITEM
      POSITION 0.000000
      LENGTH 266.366667
      NAME "erhu"
      VOLPAN 1 0 1 -1
      <SOURCE MIDI
        HASDATA 1 960 QN
        E 0 c2 6e 00
        E 0 92 4c 6d
        E 4512 82 4c 00
        E 288 92 51 75
        E 4512 82 51 00
        E 288 92 54 6f
        E 4512 82 54 00
        E 288 92 54 73
        E 4512 82 54 00
        E 288 92 54 71
        E 4512 82 54 00
        E 288 92 54 65
        E 4512 82 54 00
        E 288 92 4f 67
        E 4512 82 4f 00
        E 288 92 51 67
        E 4512 82 51 00
        E 288 92 54 75
        E 4512 82 54 00
        E 288 92 54 6d
        E 4512 82 54 00
        E 288 92 54 63
        E 4512 82 54 00
        E 288 92 54 6f
        E 4512 82 54 00
        E 288 92 54 71
        E 4512 82 54 00
        E 288 92 54 73
        E 4512 82 54 00
        E 288 92 54 6d
        E 4512 82 54 00
        E 288 92 54 63
        E 4512 82 54 00
        E 288 92 54 63
        E 4512 82 54 00
        E 288 92 51 69
        E 4512 82 51 00
        E 288 92 4c 67
        E 4512 82 4c 00
        E 288 92 51 69
        E 4512 82 51 00
        E 288 92 51 71
        E 4512 82 51 00
        E 288 92 51 6b
        E 4512 82 51 00
        E 288 92 4f 6f
        E 4512 82 4f 00
        E 288 92 4c 69
        E 4512 82 4c 00
        E 288 92 4a 6f
        E 4512 82 4a 00
        E 288 92 4c 71
        E 4512 82 4c 00
        E 288 92 4a 63
        E 4512 82 4a 00
        E 288 92 48 65
        E 4512 82 48 00
        E 288 92 45 67
        E 4512 82 45 00
        E 288 92 4a 6d
        E 4512 82 4a 00
        E 288 92 4a 69
        E 4512 82 4a 00
        E 288 92 45 69
        E 4512 82 45 00
        E 288 92 40 67
        E 4512 82 40 00
        E 288 92 40 6b
        E 4512 82 40 00
        E 288 92 40 69
        E 4512 82 40 00
        E 288 92 3e 63
        E 4512 82 3e 00
        E 288 92 3e 69
        E 4512 82 3e 00
        E 288 92 3e 6f
        E 4512 82 3e 00
        E 288 92 3e 75
        E 4512 82 3e 00
        E 288 92 3e 6f
        E 4512 82 3e 00
        E 0 b2 7b 00
        E 1 ff 2f 00
      >
    >
  >
  <TRACK
    NAME "wind_machine"
    PEAKCOL 4284506208
    VOLPAN 1.000000 0 1 -1
    MIDIOUT -1
    ISBUS 0 0
    <ITEM
      POSITION 0.000000
      LENGTH 266.633333
      NAME "wind_machine"
      VOLPAN 1 0 1 -1
      <SOURCE MIDI
        HASDATA 1 960 QN
        E 0 c3 7a 00
        E 0 93 54 3e
        E 4704 83 54 00
        E 96 93 54 3e
        E 4704 83 54 00
        E 96 93 54 3e
        E 4704 83 54 00
        E 96 93 54 3e
        E 4704 83 54 00
        E 96 93 54 3e
        E 4704 83 54 00
        E 96 93 54 3e
        E 4704 83 54 00
        E 96 93 54 3e
        E 4704 83 54 00
        E 96 93 54 3e
        E 4704 83 54 00
        E 96 93 54 3e
        E 4704 83 54 00
        E 96 93 54 3e
        E 4704 83 54 00
        E 96 93 54 3e
        E 4704 83 54 00
        E 96 93 54 3e
        E 4704 83 54 00
        E 96 93 54 3e
        E 4704 83 54 00
        E 96 93 54 3e
        E 4704 83 54 00
        E 96 93 54 3e
        E 4704 83 54 00
        E 96 93 54 3e
        E 4704 83 54 00
        E 96 93 54 3e
        E 4704 83 54 00
        E 96 93 54 3e
        E 4704 83 54 00
        E 96 93 54 3e
        E 4704 83 54 00
        E 96 93 54 3e
        E 4704 83 54 00
        E 96 93 54 3e
        E 4704 83 54 00
        E 96 93 54 3e
        E 4704 83 54 00
        E 96 93 54 3e
        E 4704 83 54 00
        E 96 93 54 3e
        E 4704 83 54 00
        E 96 93 54 3e
        E 4704 83 54 00
        E 96 93 54 3e
        E 4704 83 54 00
        E 96 93 54 3e
        E 4704 83 54 00
        E 96 93 54 3e
        E 4704 83 54 00
        E 96 93 54 3e
        E 4704 83 54 00
        E 96 93 54 3e
        E 4704 83 54 00
        E 96 93 54 3e
        E 4704 83 54 00
        E 96 93 54 3e
        E 4704 83 54 00
        E 96 93 54 3e
        E 4704 83 54 00
        E 96 93 54 3e
        E 4704 83 54 00
        E 96 93 54 3e
        E 4704 83 54 00
        E 96 93 54 3e
        E 4704 83 54 00
        E 96 93 54 3e
        E 4704 83 54 00
        E 96 93 54 3e
        E 4704 83 54 00
        E 96 93 54 3e
        E 4704 83 54 00
        E 96 93 54 3e
        E 4704 83 54 00
        E 0 b3 7b 00
        E 1 ff 2f 00
      >
    >
  >
>
