<REAPER_PROJECT 0.1 "7.0" 1700000000
  TEMPO 138.000000 4 4
  SAMPLERATE 48000 0 0
  RENDER_FILE ""
  RENDER_FMT 0 2 0
  RENDER_1X 0
  RENDER_RANGE 1 0 43.652174 0 0
  RENDER_RESAMPLE 3 0 1
  <MASTERTRACK
    VOLPAN 1 0 1 -1
    DEFCHAN 0
  >
  <TRACK
    NAME "Lead"
    PEAKCOL 4284506208
    VOLPAN 1.000000 0 1 -1
    MIDIOUT -1
    ISBUS 0 0
    <ITEM
      POSITION 0.000000
      LENGTH 38.332606
      NAME "Lead"
      VOLPAN 1 0 1 -1
      <SOURCE MIDI
        HASDATA 1 960 QN
        E 0 c0 28 00
        E 0 90 4d 6a
        E 330 90 4c 4f
        E 282 80 4d 00
        E 330 80 4c 00
        E 35 90 4c 4f
        E 449 90 4d 4f
        E 163 80 4c 00
        E 77 80 4d 00
        E 209 90 51 60
        E 82 90 4d 63
        E 328 90 4d 4f
        E 146 80 51 00
        E 23 90 4f 4f
        E 113 80 4d 00
        E 56 90 51 4f
        E 71 80 4f 00
        E 99 90 54 4f
        E 70 80 51 00
        E 99 90 56 73
        E 71 80 54 00
        E 53 80 4d 00
        E 432 80 56 00
        E 97 90 54 4f
        E 141 80 54 00
        E 501 90 56 4f
        E 556 80 56 00
        E 116 90 59 4f
        E 556 80 59 00
        E 90 90 58 4f
        E 556 80 58 00
        E 546 90 54 5a
        E 501 80 54 00
        E 53 90 56 4f
        E 319 90 54 4f
        E 182 80 56 00
        E 58 80 54 00
        E 80 90 51 4f
        E 612 80 51 00
        E 55 90 51 4f
        E 612 80 51 00
        E 43 90 53 4f
        E 612 80 53 00
        E 32 90 51 4f
        E 177 90 54 4f
        E 105 80 51 00
        E 71 90 58 52
        E 64 80 54 00
        E 492 80 58 00
        E 88 90 56 4f
        E 556 80 56 00
        E 460 90 58 4f
        E 287 90 56 52
        E 269 80 58 00
        E 13 80 56 00
        E 54 90 58 66
        E 167 90 54 4f
        E 166 90 51 52
        E 74 80 54 00
        E 149 80 58 00
        E 111 90 53 4f
        E 90 80 51 00
        E 150 80 53 00
        E 94 90 56 63
        E 655 90 54 4f
        E 254 80 54 00
        E 220 80 56 00
        E 414 90 51 4f
        E 501 80 51 00
        E 866 90 53 66
        E 612 80 53 00
        E 159 90 51 4f
        E 424 80 51 00
        E 112 90 53 4f
        E 556 80 53 00
        E 103 90 51 4f
        E 282 80 51 00
        E 106 90 53 4f
        E 240 80 53 00
        E 149 90 56 4f
        E 556 80 56 00
        E 557 90 54 6d
        E 406 90 58 5a
        E 150 80 54 00
        E 274 80 58 00
        E 943 90 58 4f
        E 127 80 58 00
        E 133 90 54 4f
        E 127 80 54 00
        E 133 90 51 4f
        E 433 90 53 4f
        E 68 80 51 00
        E 433 80 53 00
        E 154 90 51 4f
        E 612 80 51 00
        E 274 90 4d 4f
        E 311 80 4d 00
        E 109 90 4d 66
        E 556 80 4d 00
        E 97 90 4f 4f
        E 556 80 4f 00
        E 113 90 51 4f
        E 556 80 51 00
        E 223 90 53 4f
        E 532 90 54 4f
        E 33 80 53 00
        E 523 80 54 00
        E 105 90 56 4f
        E 282 80 56 00
        E 683 90 56 4f
        E 501 80 56 00
        E 176 90 59 4f
        E 508 80 59 00
        E 125 90 58 4f
        E 171 90 56 4f
        E 171 90 54 4f
        E 69 80 56 00
        E 90 80 58 00
        E 12 90 51 4f
        E 69 80 54 00
        E 102 90 4f 5a
        E 69 80 51 00
        E 242 80 4f 00
        E 336 90 51 4f
        E 391 90 53 4f
        E 221 80 51 00
        E 19 80 53 00
        E 151 90 56 68
        E 282 80 56 00
        E 491 90 54 4f
        E 397 90 54 4f
        E 141 80 54 00
        E 18 80 54 00
        E 737 90 56 4f
        E 346 90 58 4f
        E 210 80 56 00
        E 1 90 54 4f
        E 211 90 51 60
        E 29 80 54 00
        E 105 80 58 00
        E 192 90 53 4f
        E 239 80 51 00
        E 1 80 53 00
        E 86 90 56 4f
        E 556 80 56 00
        E 102 90 54 4f
        E 424 80 54 00
        E 586 90 56 4f
        E 153 90 54 4f
        E 153 90 51 4f
        E 87 80 54 00
        E 108 80 56 00
        E 23 90 54 4f
        E 36 80 51 00
        E 181 90 56 4f
        E 23 80 54 00
        E 194 90 59 4f
        E 23 80 56 00
        E 589 80 59 00
        E 286 90 59 4f
        E 412 90 56 4f
        E 54 80 59 00
        E 228 80 56 00
        E 368 90 58 4f
        E 282 80 58 00
        E 380 90 59 5a
        E 332 90 58 4f
        E 224 80 59 00
        E 332 80 58 00
        E 341 90 56 4f
        E 534 90 58 5a
        E 527 90 54 4f
        E 29 80 58 00
        E 39 80 56 00
        E 488 80 54 00
        E 122 90 56 4f
        E 556 80 56 00
        E 75 90 54 4f
        E 501 80 54 00
        E 158 90 51 4f
        E 332 90 54 4f
        E 169 80 51 00
        E 71 80 54 00
        E 91 90 56 4f
        E 240 80 56 00
        E 91 90 59 4f
        E 612 80 59 00
        E 36 90 58 4f
        E 311 80 58 00
        E 346 90 56 4f
        E 556 80 56 00
        E 118 90 58 4f
        E 556 80 58 00
        E 91 90 56 4f
        E 343 90 58 55
        E 81 80 56 00
        E 201 80 58 00
        E 354 90 54 4f
        E 141 80 54 00
        E 534 90 56 71
        E 424 80 56 00
        E 475 90 59 63
        E 409 90 58 52
        E 147 80 59 00
        E 409 80 58 00
        E 88 90 54 4f
        E 501 80 54 00
        E 162 90 54 4f
        E 501 80 54 00
        E 878 90 56 4f
        E 416 90 58 4f
        E 168 90 54 4f
        E 37 80 56 00
        E 131 90 51 6a
        E 72 80 54 00
        E 58 80 58 00
        E 426 80 51 00
        E 87 90 54 4f
        E 556 80 54 00
        E 96 90 51 4f
        E 282 80 51 00
        E 45 90 53 4f
        E 240 80 53 00
        E 88 90 56 4f
        E 282 80 56 00
        E 392 90 54 4f
        E 424 80 54 00
        E 578 90 54 4f
        E 314 90 56 58
        E 242 80 54 00
        E 323 80 56 00
        E 311 90 56 4f
        E 254 80 56 00
        E 168 90 54 4f
        E 501 80 54 00
        E 170 90 51 63
        E 932 80 51 00
        E 46 90 54 4f
        E 155 80 54 00
        E 867 90 53 4f
        E 422 90 51 4f
        E 134 80 53 00
        E 148 80 51 00
        E 248 90 54 4f
        E 556 80 54 00
        E 340 90 51 4f
        E 282 80 51 00
        E 237 90 53 50
        E 556 80 53 00
        E 337 90 54 52
        E 141 80 54 00
        E 490 90 58 4f
        E 556 80 58 00
        E 119 90 58 63
        E 508 80 58 00
        E 134 90 58 4f
        E 381 80 58 00
        E 281 90 58 4f
        E 311 80 58 00
        E 595 90 56 4f
        E 555 90 54 4f
        E 66 80 56 00
        E 174 80 54 00
        E 315 90 51 4f
        E 284 90 54 4f
        E 281 80 51 00
        E 275 80 54 00
        E 91 90 51 4f
        E 340 90 53 4f
        E 216 80 51 00
        E 24 80 53 00
        E 101 90 56 63
        E 847 80 56 00
        E 133 90 56 58
        E 424 80 56 00
        E 222 90 56 4f
        E 556 80 56 00
        E 89 90 54 4f
        E 501 80 54 00
        E 297 90 56 4f
        E 188 90 58 4f
        E 313 80 56 00
        E 32 90 56 4f
        E 156 80 58 00
        E 345 80 56 00
        E 636 90 54 5b
        E 639 90 56 4f
        E 282 80 56 00
        E 11 80 54 00
        E 40 90 54 4f
        E 240 80 54 00
        E 94 90 51 4f
        E 170 90 53 4f
        E 171 90 56 4f
        E 69 80 53 00
        E 72 80 56 00
        E 74 80 51 00
        E 444 90 54 4f
        E 556 80 54 00
        E 200 90 51 4f
        E 391 90 53 4f
        E 165 80 51 00
        E 75 80 53 00
        E 150 90 56 5b
        E 282 80 56 00
        E 814 90 54 4f
        E 282 80 54 00
        E 254 90 58 4f
        E 501 80 58 00
        E 175 90 56 4f
        E 501 80 56 00
        E 0 b0 7b 00
        E 1 ff 2f 00
      >
    >
  >
  <TRACK
    NAME "Ostinato"
    PEAKCOL 4284506208
    VOLPAN 1.000000 0 1 -1
    MIDIOUT -1
    ISBUS 0 0
    <ITEM
      POSITION 0.108696
      LENGTH 38.121739
      NAME "Ostinato"
      VOLPAN 1 0 1 -1
      <SOURCE MIDI
        HASDATA 1 960 QN
        E 0 c1 2d 00
        E 240 91 35 50
        E 192 81 35 00
        E 288 91 35 5a
        E 192 81 35 00
        E 768 91 35 5a
        E 192 81 35 00
        E 288 91 35 50
        E 192 81 35 00
        E 48 91 39 62
        E 192 81 39 00
        E 288 91 32 62
        E 192 81 32 00
        E 48 91 35 50
        E 192 81 35 00
        E 528 91 32 62
        E 192 81 32 00
        E 528 91 35 5a
        E 192 81 35 00
        E 768 91 35 5a
        E 192 81 35 00
        E 528 91 39 62
        E 192 81 39 00
        E 48 91 35 5a
        E 192 81 35 00
        E 3168 91 35 50
        E 192 81 35 00
        E 48 91 39 62
        E 192 81 39 00
        E 288 91 32 62
        E 192 81 32 00
        E 48 91 35 50
        E 192 81 35 00
        E 48 91 39 62
        E 192 81 39 00
        E 1008 91 35 5a
        E 192 81 35 00
        E 1008 91 32 62
        E 192 81 32 00
        E 288 91 39 62
        E 192 81 39 00
        E 1728 91 39 62
        E 192 81 39 00
        E 48 91 35 5a
        E 192 81 35 00
        E 528 91 39 62
        E 192 81 39 00
        E 48 91 35 5a
        E 192 81 35 00
        E 48 91 32 62
        E 192 81 32 00
        E 48 91 35 50
        E 192 81 35 00
        E 48 91 39 62
        E 192 81 39 00
        E 48 91 35 5a
        E 192 81 35 00
        E 48 91 32 62
        E 192 81 32 00
        E 48 91 35 50
        E 192 81 35 00
        E 48 91 39 62
        E 192 81 39 00
        E 48 91 35 5a
        E 192 81 35 00
        E 48 91 32 62
        E 192 81 32 00
        E 48 91 35 50
        E 192 81 35 00
        E 48 91 39 62
        E 192 81 39 00
        E 48 91 35 5a
        E 192 81 35 00
        E 48 91 32 62
        E 192 81 32 00
        E 48 91 35 50
        E 192 81 35 00
        E 48 91 39 62
        E 192 81 39 00
        E 48 91 35 5a
        E 192 81 35 00
        E 48 91 32 62
        E 192 81 32 00
        E 48 91 35 50
        E 192 81 35 00
        E 48 91 39 62
        E 192 81 39 00
        E 48 91 35 5a
        E 192 81 35 00
        E 48 91 32 62
        E 192 81 32 00
        E 48 91 35 50
        E 192 81 35 00
        E 48 91 39 62
        E 192 81 39 00
        E 48 91 35 5a
        E 192 81 35 00
        E 48 91 32 62
        E 192 81 32 00
        E 48 91 35 50
        E 192 81 35 00
        E 48 91 39 62
        E 192 81 39 00
        E 48 91 35 5a
        E 192 81 35 00
        E 48 91 32 62
        E 192 81 32 00
        E 48 91 35 50
        E 192 81 35 00
        E 48 91 39 62
        E 192 81 39 00
        E 48 91 35 5a
        E 192 81 35 00
        E 48 91 32 62
        E 192 81 32 00
        E 48 91 35 50
        E 192 81 35 00
        E 48 91 39 62
        E 192 81 39 00
        E 48 91 35 5a
        E 192 81 35 00
        E 48 91 32 62
        E 192 81 32 00
        E 48 91 35 50
        E 192 81 35 00
        E 48 91 39 62
        E 192 81 39 00
        E 48 91 35 5a
        E 192 81 35 00
        E 48 91 32 62
        E 192 81 32 00
        E 48 91 35 50
        E 192 81 35 00
        E 48 91 39 62
        E 192 81 39 00
        E 48 91 35 5a
        E 192 81 35 00
        E 48 91 32 62
        E 192 81 32 00
        E 48 91 35 50
        E 192 81 35 00
        E 48 91 39 62
        E 192 81 39 00
        E 48 91 35 5a
        E 192 81 35 00
        E 48 91 32 62
        E 192 81 32 00
        E 48 91 35 50
        E 192 81 35 00
        E 48 91 39 62
        E 192 81 39 00
        E 48 91 35 5a
        E 192 81 35 00
        E 48 91 32 62
        E 192 81 32 00
        E 48 91 35 50
        E 192 81 35 00
        E 48 91 39 62
        E 192 81 39 00
        E 48 91 35 5a
        E 192 81 35 00
        E 48 91 32 62
        E 192 81 32 00
        E 48 91 35 50
        E 192 81 35 00
        E 48 91 39 62
        E 192 81 39 00
        E 48 91 35 5a
        E 192 81 35 00
        E 48 91 32 62
        E 192 81 32 00
        E 48 91 35 50
        E 192 81 35 00
        E 48 91 39 62
        E 192 81 39 00
        E 48 91 35 5a
        E 192 81 35 00
        E 48 91 32 62
        E 192 81 32 00
        E 48 91 35 50
        E 192 81 35 00
        E 48 91 39 62
        E 192 81 39 00
        E 48 91 35 5a
        E 192 81 35 00
        E 48 91 32 62
        E 192 81 32 00
        E 48 91 35 50
        E 192 81 35 00
        E 48 91 39 62
        E 192 81 39 00
        E 48 91 35 5a
        E 192 81 35 00
        E 48 91 32 62
        E 192 81 32 00
        E 48 91 35 50
        E 192 81 35 00
        E 48 91 39 62
        E 192 81 39 00
        E 48 91 35 5a
        E 192 81 35 00
        E 48 91 32 62
        E 192 81 32 00
        E 48 91 35 50
        E 192 81 35 00
        E 48 91 39 62
        E 192 81 39 00
        E 48 91 35 5a
        E 192 81 35 00
        E 48 91 32 62
        E 192 81 32 00
        E 48 91 35 50
        E 192 81 35 00
        E 48 91 39 62
        E 192 81 39 00
        E 48 91 35 5a
        E 192 81 35 00
        E 48 91 32 62
        E 192 81 32 00
        E 48 91 35 50
        E 192 81 35 00
        E 48 91 39 62
        E 192 81 39 00
        E 48 91 35 5a
        E 192 81 35 00
        E 48 91 32 62
        E 192 81 32 00
        E 48 91 35 50
        E 192 81 35 00
        E 48 91 39 62
        E 192 81 39 00
        E 48 91 35 5a
        E 192 81 35 00
        E 48 91 32 62
        E 192 81 32 00
        E 48 91 35 50
        E 192 81 35 00
        E 48 91 39 62
        E 192 81 39 00
        E 48 91 35 5a
        E 192 81 35 00
        E 48 91 32 62
        E 192 81 32 00
        E 48 91 35 50
        E 192 81 35 00
        E 48 91 39 62
        E 192 81 39 00
        E 48 91 35 5a
        E 192 81 35 00
        E 48 91 32 62
        E 192 81 32 00
        E 48 91 35 50
        E 192 81 35 00
        E 48 91 39 62
        E 192 81 39 00
        E 48 91 35 5a
        E 192 81 35 00
        E 48 91 32 62
        E 192 81 32 00
        E 48 91 35 50
        E 192 81 35 00
        E 48 91 39 62
        E 192 81 39 00
        E 48 91 35 5a
        E 192 81 35 00
        E 48 91 32 62
        E 192 81 32 00
        E 48 91 35 50
        E 192 81 35 00
        E 48 91 39 62
        E 192 81 39 00
        E 48 91 35 5a
        E 192 81 35 00
        E 48 91 32 62
        E 192 81 32 00
        E 48 91 35 50
        E 192 81 35 00
        E 48 91 39 62
        E 192 81 39 00
        E 48 91 35 5a
        E 192 81 35 00
        E 48 91 32 62
        E 192 81 32 00
        E 48 91 35 50
        E 192 81 35 00
        E 48 91 39 62
        E 192 81 39 00
        E 48 91 35 5a
        E 192 81 35 00
        E 48 91 32 62
        E 192 81 32 00
        E 48 91 35 50
        E 192 81 35 00
        E 48 91 39 62
        E 192 81 39 00
        E 48 91 35 5a
        E 192 81 35 00
        E 48 91 32 62
        E 192 81 32 00
        E 48 91 35 50
        E 192 81 35 00
        E 48 91 39 62
        E 192 81 39 00
        E 48 91 35 5a
        E 192 81 35 00
        E 48 91 32 62
        E 192 81 32 00
        E 48 91 35 50
        E 192 81 35 00
        E 48 91 39 62
        E 192 81 39 00
        E 48 91 35 5a
        E 192 81 35 00
        E 48 91 32 62
        E 192 81 32 00
        E 48 91 35 50
        E 192 81 35 00
        E 48 91 39 62
        E 192 81 39 00
        E 48 91 35 5a
        E 192 81 35 00
        E 48 91 32 62
        E 192 81 32 00
        E 48 91 35 50
        E 192 81 35 00
        E 48 91 39 62
        E 192 81 39 00
        E 48 91 35 5a
        E 192 81 35 00
        E 48 91 32 62
        E 192 81 32 00
        E 48 91 35 50
        E 192 81 35 00
        E 48 91 39 62
        E 192 81 39 00
        E 48 91 35 5a
        E 192 81 35 00
        E 48 91 32 62
        E 192 81 32 00
        E 48 91 35 50
        E 192 81 35 00
        E 48 91 39 62
        E 192 81 39 00
        E 48 91 35 5a
        E 192 81 35 00
        E 48 91 32 62
        E 192 81 32 00
        E 48 91 35 50
        E 192 81 35 00
        E 48 91 39 62
        E 192 81 39 00
        E 48 91 35 5a
        E 192 81 35 00
        E 48 91 32 62
        E 192 81 32 00
        E 48 91 35 50
        E 192 81 35 00
        E 48 91 39 62
        E 192 81 39 00
        E 48 91 35 5a
        E 192 81 35 00
        E 48 91 32 62
        E 192 81 32 00
        E 48 91 35 50
        E 192 81 35 00
        E 48 91 39 62
        E 192 81 39 00
        E 48 91 35 5a
        E 192 81 35 00
        E 48 91 32 62
        E 192 81 32 00
        E 48 91 35 50
        E 192 81 35 00
        E 48 91 39 62
        E 192 81 39 00
        E 48 91 35 5a
        E 192 81 35 00
        E 48 91 32 62
        E 192 81 32 00
        E 48 91 35 50
        E 192 81 35 00
        E 48 91 39 62
        E 192 81 39 00
        E 48 91 35 5a
        E 192 81 35 00
        E 48 91 32 62
        E 192 81 32 00
        E 48 91 35 50
        E 192 81 35 00
        E 48 91 39 62
        E 192 81 39 00
        E 48 91 35 5a
        E 192 81 35 00
        E 48 91 32 62
        E 192 81 32 00
        E 48 91 35 50
        E 192 81 35 00
        E 48 91 39 62
        E 192 81 39 00
        E 48 91 35 5a
        E 192 81 35 00
        E 48 91 32 62
        E 192 81 32 00
        E 48 91 35 50
        E 192 81 35 00
        E 48 91 39 62
        E 192 81 39 00
        E 48 91 35 5a
        E 192 81 35 00
        E 48 91 32 62
        E 192 81 32 00
        E 48 91 35 50
        E 192 81 35 00
        E 48 91 39 62
        E 192 81 39 00
        E 48 91 35 5a
        E 192 81 35 00
        E 48 91 32 62
        E 192 81 32 00
        E 48 91 35 50
        E 192 81 35 00
        E 48 91 39 62
        E 192 81 39 00
        E 48 91 35 5a
        E 192 81 35 00
        E 48 91 32 62
        E 192 81 32 00
        E 48 91 35 50
        E 192 81 35 00
        E 48 91 39 62
        E 192 81 39 00
        E 48 91 35 5a
        E 192 81 35 00
        E 48 91 32 62
        E 192 81 32 00
        E 48 91 35 50
        E 192 81 35 00
        E 48 91 39 62
        E 192 81 39 00
        E 48 91 35 5a
        E 192 81 35 00
        E 48 91 32 62
        E 192 81 32 00
        E 48 91 35 50
        E 192 81 35 00
        E 48 91 39 62
        E 192 81 39 00
        E 48 91 35 5a
        E 192 81 35 00
        E 48 91 32 62
        E 192 81 32 00
        E 48 91 35 50
        E 192 81 35 00
        E 48 91 39 62
        E 192 81 39 00
        E 48 91 35 5a
        E 192 81 35 00
        E 48 91 32 62
        E 192 81 32 00
        E 48 91 35 50
        E 192 81 35 00
        E 48 91 39 62
        E 192 81 39 00
        E 48 91 35 5a
        E 192 81 35 00
        E 48 91 32 62
        E 192 81 32 00
        E 48 91 35 50
        E 192 81 35 00
        E 1968 91 39 62
        E 192 81 39 00
        E 1248 91 32 62
        E 192 81 32 00
        E 528 91 35 5a
        E 192 81 35 00
        E 48 91 32 62
        E 192 81 32 00
        E 48 91 35 50
        E 192 81 35 00
        E 768 91 35 50
        E 192 81 35 00
        E 1248 91 35 5a
        E 192 81 35 00
        E 1248 91 35 50
        E 192 81 35 00
        E 1488 91 32 62
        E 192 81 32 00
        E 1248 91 39 62
        E 192 81 39 00
        E 1008 91 35 5a
        E 192 81 35 00
        E 288 91 35 50
        E 192 81 35 00
        E 1008 91 39 62
        E 192 81 39 00
        E 528 91 35 50
        E 192 81 35 00
        E 288 91 35 5a
        E 192 81 35 00
        E 528 91 39 62
        E 192 81 39 00
        E 0 b1 7b 00
        E 1 ff 2f 00
      >
    >
  >
  <TRACK
    NAME "Violin1"
    PEAKCOL 4284186559
    VOLPAN 1.000000 0 1 -1
    MIDIOUT -1
    ISBUS 0 0
    <ITEM
      POSITION 0.872368
      LENGTH 36.750629
      NAME "Violin1"
      VOLPAN 1 0 1 -1
      <SOURCE MIDI
        HASDATA 1 960 QN
        E 0 c2 28 00
        E 1926 92 45 77
        E 288 82 45 00
        E 3556 92 48 77
        E 288 82 48 00
        E 7388 92 41 75
        E 288 82 41 00
        E 3548 92 48 77
        E 288 82 48 00
        E 1635 92 48 77
        E 288 82 48 00
        E 1628 92 43 75
        E 288 82 43 00
        E 1633 92 3e 77
        E 288 82 3e 00
        E 1634 92 43 77
        E 288 82 43 00
        E 1631 92 48 77
        E 288 82 48 00
        E 1631 92 4a 73
        E 288 82 4a 00
        E 1644 92 4f 73
        E 288 82 4f 00
        E 1627 92 54 75
        E 288 82 54 00
        E 1628 92 51 75
        E 288 82 51 00
        E 1635 92 53 77
        E 288 82 53 00
        E 1635 92 59 75
        E 288 82 59 00
        E 1632 92 59 75
        E 288 82 59 00
        E 1626 92 54 77
        E 288 82 54 00
        E 1630 92 58 77
        E 288 82 58 00
        E 1630 92 53 77
        E 288 82 53 00
        E 1634 92 58 77
        E 288 82 58 00
        E 1637 92 54 75
        E 288 82 54 00
        E 1631 92 58 77
        E 288 82 58 00
        E 1637 92 56 75
        E 288 82 56 00
        E 1628 92 53 73
        E 288 82 53 00
        E 1629 92 54 75
        E 288 82 54 00
        E 1638 92 56 73
        E 288 82 56 00
        E 1626 92 54 75
        E 288 82 54 00
        E 1631 92 58 77
        E 288 82 58 00
        E 1633 92 5b 75
        E 288 82 5b 00
        E 1631 92 60 75
        E 288 82 60 00
        E 1633 92 60 77
        E 288 82 60 00
        E 1632 92 5d 77
        E 288 82 5d 00
        E 3558 92 5f 75
        E 288 82 5f 00
        E 1631 92 5b 75
        E 288 82 5b 00
        E 5465 92 60 75
        E 288 82 60 00
        E 0 b2 7b 00
        E 1 ff 2f 00
      >
    >
  >
  <TRACK
    NAME "Tremolo"
    PEAKCOL 4284186559
    VOLPAN 1.000000 0 1 -1
    MIDIOUT -1
    ISBUS 0 0
    <ITEM
      POSITION 0.129503
      LENGTH 38.164958
      NAME "Tremolo"
      VOLPAN 1 0 1 -1
      <SOURCE MIDI
        HASDATA 1 960 QN
        E 0 c3 2c 00
        E 286 93 3e 29
        E 274 83 3e 00
        E 204 93 3e 31
        E 182 83 3e 00
        E 589 93 3e 36
        E 182 83 3e 00
        E 207 93 3e 3c
        E 182 83 3e 00
        E 8 93 3e 3f
        E 182 83 3e 00
        E 196 93 3e 3c
        E 182 83 3e 00
        E 17 93 3e 32
        E 182 83 3e 00
        E 391 93 3e 36
        E 182 83 3e 00
        E 398 93 3e 29
        E 274 83 3e 00
        E 680 93 3e 36
        E 182 83 3e 00
        E 393 93 3e 32
        E 182 83 3e 00
        E 16 93 3e 3c
        E 182 83 3e 00
        E 2698 93 37 2c
        E 182 83 37 00
        E 10 93 37 36
        E 182 83 37 00
        E 203 93 37 3a
        E 182 83 37 00
        E 6 93 37 32
        E 182 83 37 00
        E 7 93 37 3f
        E 182 83 37 00
        E 783 93 37 31
        E 182 83 37 00
        E 773 93 37 29
        E 182 83 37 00
        E 302 93 39 29
        E 274 83 39 00
        E 1354 93 39 37
        E 182 83 39 00
        E 16 93 39 3d
        E 182 83 39 00
        E 390 93 39 34
        E 182 83 39 00
        E 1741 93 3b 31
        E 182 83 3b 00
        E 776 93 3b 3f
        E 182 83 3b 00
        E 6 93 3b 39
        E 182 83 3b 00
        E 16 93 3b 3c
        E 182 83 3b 00
        E 5 93 3b 37
        E 182 83 3b 00
        E 11 93 3b 39
        E 182 83 3b 00
        E 11 93 3b 31
        E 182 83 3b 00
        E 9 93 3b 36
        E 182 83 3b 00
        E 14 93 3b 2c
        E 182 83 3b 00
        E 7 93 3b 32
        E 182 83 3b 00
        E 9 93 3b 29
        E 182 83 3b 00
        E 11 93 3b 29
        E 182 83 3b 00
        E 16 93 3c 29
        E 274 83 3c 00
        E 13 93 3c 29
        E 274 83 3c 00
        E 10 93 3c 3f
        E 182 83 3c 00
        E 8 93 3c 2e
        E 182 83 3c 00
        E 13 93 3c 36
        E 182 83 3c 00
        E 10 93 3c 31
        E 182 83 3c 00
        E 11 93 3c 3c
        E 182 83 3c 00
        E 8 93 3c 36
        E 182 83 3c 00
        E 8 93 3c 41
        E 182 83 3c 00
        E 11 93 3c 36
        E 182 83 3c 00
        E 15 93 3c 41
        E 182 83 3c 00
        E 6 93 3c 36
        E 182 83 3c 00
        E 11 93 3c 3c
        E 182 83 3c 00
        E 8 93 3c 32
        E 182 83 3c 00
        E 8 93 3c 36
        E 182 83 3c 00
        E 11 93 3c 2c
        E 182 83 3c 00
        E 11 93 3c 32
        E 182 83 3c 00
        E 12 93 3c 29
        E 182 83 3c 00
        E 5 93 3c 29
        E 182 83 3c 00
        E 12 93 3e 29
        E 274 83 3e 00
        E 16 93 3e 29
        E 274 83 3e 00
        E 17 93 3e 41
        E 182 83 3e 00
        E 9 93 3e 2c
        E 182 83 3e 00
        E 4 93 3e 36
        E 182 83 3e 00
        E 16 93 3e 32
        E 182 83 3e 00
        E 12 93 3e 3a
        E 182 83 3e 00
        E 10 93 3e 32
        E 182 83 3e 00
        E 4 93 3e 41
        E 182 83 3e 00
        E 13 93 3e 39
        E 182 83 3e 00
        E 5 93 3e 3f
        E 182 83 3e 00
        E 12 93 3e 34
        E 182 83 3e 00
        E 13 93 3e 3c
        E 182 83 3e 00
        E 9 93 3e 31
        E 182 83 3e 00
        E 10 93 3e 37
        E 182 83 3e 00
        E 12 93 3e 2c
        E 182 83 3e 00
        E 6 93 3e 31
        E 182 83 3e 00
        E 10 93 3e 29
        E 182 83 3e 00
        E 15 93 3e 29
        E 182 83 3e 00
        E 4 93 3c 29
        E 274 83 3c 00
        E 13 93 3c 29
        E 274 83 3c 00
        E 21 93 3c 3c
        E 182 83 3c 00
        E 6 93 3c 2c
        E 182 83 3c 00
        E 10 93 3c 3a
        E 182 83 3c 00
        E 14 93 3c 2f
        E 182 83 3c 00
        E 7 93 3c 3a
        E 182 83 3c 00
        E 10 93 3c 36
        E 182 83 3c 00
        E 9 93 3c 41
        E 182 83 3c 00
        E 15 93 3c 36
        E 182 83 3c 00
        E 8 93 3c 41
        E 182 83 3c 00
        E 7 93 3c 34
        E 182 83 3c 00
        E 12 93 3c 3a
        E 182 83 3c 00
        E 9 93 3c 34
        E 182 83 3c 00
        E 7 93 3c 36
        E 182 83 3c 00
        E 10 93 3c 31
        E 182 83 3c 00
        E 12 93 3c 31
        E 182 83 3c 00
        E 13 93 3c 29
        E 182 83 3c 00
        E 4 93 3c 29
        E 182 83 3c 00
        E 15 93 3e 29
        E 274 83 3e 00
        E 13 93 3e 29
        E 274 83 3e 00
        E 15 93 3e 3d
        E 182 83 3e 00
        E 13 93 3e 2f
        E 182 83 3e 00
        E 3 93 3e 36
        E 182 83 3e 00
        E 10 93 3e 31
        E 182 83 3e 00
        E 15 93 3e 3d
        E 182 83 3e 00
        E 12 93 3e 34
        E 182 83 3e 00
        E 2 93 3e 3f
        E 182 83 3e 00
        E 18 93 3e 39
        E 182 83 3e 00
        E 7 93 3e 3d
        E 182 83 3e 00
        E 8 93 3e 37
        E 182 83 3e 00
        E 16 93 3e 3d
        E 182 83 3e 00
        E 9 93 3e 31
        E 182 83 3e 00
        E 6 93 3e 37
        E 182 83 3e 00
        E 10 93 3e 2c
        E 182 83 3e 00
        E 11 93 3e 31
        E 182 83 3e 00
        E 9 93 3e 29
        E 237 83 3e 00
        E 15 93 3e 29
        E 128 83 3e 00
        E 2 93 39 29
        E 274 83 39 00
        E 12 93 39 29
        E 274 83 39 00
        E 13 93 39 41
        E 182 83 39 00
        E 12 93 39 2e
        E 182 83 39 00
        E 16 93 39 36
        E 182 83 39 00
        E 7 93 39 32
        E 182 83 39 00
        E 14 93 39 3c
        E 182 83 39 00
        E 2 93 39 36
        E 182 83 39 00
        E 13 93 39 3f
        E 182 83 39 00
        E 9 93 39 36
        E 182 83 39 00
        E 8 93 39 3f
        E 182 83 39 00
        E 19 93 39 34
        E 182 83 39 00
        E 1 93 39 3d
        E 182 83 39 00
        E 18 93 39 34
        E 182 83 39 00
        E 6 93 39 36
        E 182 83 39 00
        E 8 93 39 2c
        E 182 83 39 00
        E 11 93 39 36
        E 182 83 39 00
        E 9 93 39 29
        E 237 83 39 00
        E 15 93 39 29
        E 128 83 39 00
        E 5 93 3e 29
        E 274 83 3e 00
        E 18 93 3e 29
        E 274 83 3e 00
        E 7 93 3e 41
        E 182 83 3e 00
        E 11 93 3e 2c
        E 182 83 3e 00
        E 15 93 3e 3a
        E 182 83 3e 00
        E 10 93 3e 31
        E 182 83 3e 00
        E 4 93 3e 3c
        E 182 83 3e 00
        E 15 93 3e 34
        E 182 83 3e 00
        E 10 93 3e 41
        E 182 83 3e 00
        E 9 93 3e 3a
        E 182 83 3e 00
        E 10 93 3e 3c
        E 182 83 3e 00
        E 5 93 3e 36
        E 182 83 3e 00
        E 15 93 3e 3c
        E 182 83 3e 00
        E 5 93 3e 32
        E 182 83 3e 00
        E 12 93 3e 36
        E 182 83 3e 00
        E 17 93 3e 2c
        E 182 83 3e 00
        E 9 93 3e 36
        E 182 83 3e 00
        E 4 93 3e 29
        E 237 83 3e 00
        E 13 93 3e 29
        E 128 83 3e 00
        E 14 93 3c 29
        E 274 83 3c 00
        E 10 93 3c 29
        E 274 83 3c 00
        E 16 93 3c 3f
        E 182 83 3c 00
        E 3 93 3c 2c
        E 182 83 3c 00
        E 11 93 3c 3a
        E 182 83 3c 00
        E 13 93 3c 2f
        E 182 83 3c 00
        E 11 93 3c 39
        E 182 83 3c 00
        E 11 93 3c 34
        E 182 83 3c 00
        E 6 93 3c 41
        E 182 83 3c 00
        E 11 93 3c 3a
        E 182 83 3c 00
        E 16 93 3c 3f
        E 182 83 3c 00
        E 3 93 3c 32
        E 182 83 3c 00
        E 11 93 3c 3a
        E 182 83 3c 00
        E 7 93 3c 31
        E 182 83 3c 00
        E 16 93 3c 39
        E 182 83 3c 00
        E 9 93 3c 2e
        E 182 83 3c 00
        E 10 93 3c 34
        E 182 83 3c 00
        E 8 93 3c 29
        E 237 83 3c 00
        E 10 93 3c 29
        E 128 83 3c 00
        E 14 93 3e 29
        E 274 83 3e 00
        E 8 93 3e 29
        E 274 83 3e 00
        E 16 93 3e 3f
        E 182 83 3e 00
        E 13 93 3e 2c
        E 182 83 3e 00
        E 10 93 3e 3a
        E 182 83 3e 00
        E 8 93 3e 31
        E 182 83 3e 00
        E 12 93 3e 3d
        E 182 83 3e 00
        E 8 93 3e 37
        E 182 83 3e 00
        E 10 93 3e 3c
        E 182 83 3e 00
        E 6 93 3e 37
        E 182 83 3e 00
        E 10 93 3e 41
        E 182 83 3e 00
        E 15 93 3e 32
        E 182 83 3e 00
        E 12 93 3e 3a
        E 182 83 3e 00
        E 9 93 3e 34
        E 182 83 3e 00
        E 5 93 3e 3a
        E 182 83 3e 00
        E 10 93 3e 2c
        E 182 83 3e 00
        E 15 93 3e 32
        E 182 83 3e 00
        E 9 93 3e 29
        E 237 83 3e 00
        E 12 93 3e 29
        E 128 83 3e 00
        E 9 93 3e 29
        E 274 83 3e 00
        E 11 93 3e 29
        E 274 83 3e 00
        E 8 93 3e 3c
        E 182 83 3e 00
        E 12 93 3e 2e
        E 182 83 3e 00
        E 11 93 3e 36
        E 182 83 3e 00
        E 13 93 3e 31
        E 182 83 3e 00
        E 7 93 3e 3c
        E 182 83 3e 00
        E 13 93 3e 34
        E 182 83 3e 00
        E 11 93 3e 3d
        E 182 83 3e 00
        E 8 93 3e 3c
        E 182 83 3e 00
        E 7 93 3e 3f
        E 182 83 3e 00
        E 11 93 3e 36
        E 182 83 3e 00
        E 11 93 3e 39
        E 182 83 3e 00
        E 14 93 3e 32
        E 182 83 3e 00
        E 9 93 3e 39
        E 182 83 3e 00
        E 10 93 3e 2f
        E 182 83 3e 00
        E 12 93 3e 31
        E 182 83 3e 00
        E 4 93 3e 29
        E 237 83 3e 00
        E 12 93 3e 29
        E 128 83 3e 00
        E 11 93 3e 29
        E 274 83 3e 00
        E 9 93 3e 29
        E 274 83 3e 00
        E 21 93 3e 3c
        E 182 83 3e 00
        E 2 93 3e 31
        E 182 83 3e 00
        E 11 93 3e 36
        E 182 83 3e 00
        E 15 93 3e 32
        E 182 83 3e 00
        E 8 93 3e 3a
        E 182 83 3e 00
        E 7 93 3e 36
        E 182 83 3e 00
        E 13 93 3e 41
        E 182 83 3e 00
        E 13 93 3e 36
        E 182 83 3e 00
        E 11 93 3e 41
        E 182 83 3e 00
        E 9 93 3e 32
        E 182 83 3e 00
        E 5 93 3e 3c
        E 182 83 3e 00
        E 10 93 3e 2f
        E 182 83 3e 00
        E 12 93 3e 36
        E 182 83 3e 00
        E 6 93 3e 2c
        E 182 83 3e 00
        E 12 93 3e 32
        E 182 83 3e 00
        E 9 93 3e 29
        E 237 83 3e 00
        E 17 93 3e 29
        E 128 83 3e 00
        E 3 93 39 29
        E 274 83 39 00
        E 20 93 39 29
        E 274 83 39 00
        E 12 93 39 3f
        E 182 83 39 00
        E 9 93 39 2c
        E 182 83 39 00
        E 9 93 39 39
        E 182 83 39 00
        E 12 93 39 31
        E 182 83 39 00
        E 13 93 39 3c
        E 182 83 39 00
        E 0 93 39 34
        E 182 83 39 00
        E 19 93 39 41
        E 182 83 39 00
        E 9 93 39 3c
        E 182 83 39 00
        E 5 93 39 41
        E 182 83 39 00
        E 7 93 39 32
        E 182 83 39 00
        E 19 93 39 3d
        E 182 83 39 00
        E 3 93 39 32
        E 182 83 39 00
        E 15 93 39 36
        E 182 83 39 00
        E 7 93 39 2f
        E 182 83 39 00
        E 10 93 39 36
        E 182 83 39 00
        E 12 93 39 29
        E 237 83 39 00
        E 13 93 39 29
        E 128 83 39 00
        E 9 93 35 29
        E 274 83 35 00
        E 14 93 35 29
        E 274 83 35 00
        E 9 93 35 3d
        E 182 83 35 00
        E 8 93 35 2e
        E 182 83 35 00
        E 10 93 35 36
        E 182 83 35 00
        E 16 93 35 32
        E 182 83 35 00
        E 6 93 35 39
        E 182 83 35 00
        E 7 93 35 36
        E 182 83 35 00
        E 13 93 35 3f
        E 182 83 35 00
        E 13 93 35 3c
        E 182 83 35 00
        E 6 93 35 3c
        E 182 83 35 00
        E 16 93 35 32
        E 182 83 35 00
        E 2 93 35 3d
        E 182 83 35 00
        E 14 93 35 32
        E 182 83 35 00
        E 7 93 35 36
        E 182 83 35 00
        E 13 93 35 2f
        E 182 83 35 00
        E 7 93 35 32
        E 182 83 35 00
        E 13 93 35 29
        E 237 83 35 00
        E 13 93 35 29
        E 128 83 35 00
        E 5 93 39 29
        E 274 83 39 00
        E 19 93 39 29
        E 274 83 39 00
        E 9 93 39 3c
        E 182 83 39 00
        E 10 93 39 2c
        E 182 83 39 00
        E 11 93 39 37
        E 182 83 39 00
        E 8 93 39 34
        E 182 83 39 00
        E 13 93 39 3c
        E 182 83 39 00
        E 11 93 39 32
        E 182 83 39 00
        E 7 93 39 3f
        E 182 83 39 00
        E 8 93 39 39
        E 182 83 39 00
        E 18 93 39 3d
        E 182 83 39 00
        E 194 93 39 3c
        E 182 83 39 00
        E 398 93 39 2f
        E 182 83 39 00
        E 6 93 39 36
        E 182 83 39 00
        E 10 93 39 29
        E 237 83 39 00
        E 722 93 3e 3d
        E 182 83 3e 00
        E 971 93 3e 3d
        E 182 83 3e 00
        E 971 93 3e 36
        E 182 83 3e 00
        E 1358 93 39 3f
        E 182 83 39 00
        E 969 93 39 3c
        E 182 83 39 00
        E 778 93 39 32
        E 182 83 39 00
        E 200 93 39 2c
        E 182 83 39 00
        E 874 93 3c 29
        E 274 83 3c 00
        E 402 93 3c 36
        E 182 83 3c 00
        E 196 93 3c 3a
        E 182 83 3c 00
        E 400 93 3c 39
        E 182 83 3c 00
        E 966 93 3c 2c
        E 182 83 3c 00
        E 453 93 3c 29
        E 128 83 3c 00
        E 1155 93 37 34
        E 182 83 37 00
        E 13 93 37 3c
        E 182 83 37 00
        E 398 93 37 36
        E 182 83 37 00
        E 2 93 37 41
        E 182 83 37 00
        E 18 93 37 36
        E 182 83 37 00
        E 200 93 37 34
        E 182 83 37 00
        E 392 93 37 32
        E 182 83 37 00
        E 10 93 37 29
        E 237 83 37 00
        E 0 b3 7b 00
        E 1 ff 2f 00
      >
    >
  >
  <TRACK
    NAME "Flute"
    PEAKCOL 4282040170
    VOLPAN 1.000000 0 1 -1
    MIDIOUT -1
    ISBUS 0 0
    <ITEM
      POSITION 4.350377
      LENGTH 35.968783
      NAME "Flute"
      VOLPAN 1 0 1 -1
      <SOURCE MIDI
        HASDATA 1 960 QN
        E 0 c4 49 00
        E 9606 94 54 62
        E 480 84 54 00
        E 5276 94 51 62
        E 480 84 51 00
        E 3369 94 56 62
        E 480 84 56 00
        E 1440 94 59 62
        E 480 84 59 00
        E 3351 94 56 62
        E 480 84 56 00
        E 1446 94 53 62
        E 480 84 53 00
        E 3352 94 51 62
        E 480 84 51 00
        E 1446 94 4d 62
        E 480 84 4d 00
        E 3363 94 4a 62
        E 480 84 4a 00
        E 1437 94 45 62
        E 480 84 45 00
        E 3354 94 45 62
        E 480 84 45 00
        E 1442 94 45 62
        E 480 84 45 00
        E 3363 94 48 62
        E 480 84 48 00
        E 1437 94 48 62
        E 480 84 48 00
        E 3369 94 45 62
        E 480 84 45 00
        E 1440 94 47 62
        E 480 84 47 00
        E 3357 94 4a 62
        E 480 84 4a 00
        E 1443 94 4c 62
        E 480 84 4c 00
        E 3350 94 48 62
        E 480 84 48 00
        E 1444 94 43 62
        E 480 84 43 00
        E 11037 94 48 62
        E 480 84 48 00
        E 5279 94 43 62
        E 480 84 43 00
        E 3363 94 3e 62
        E 480 84 3e 00
        E 0 b4 7b 00
        E 1 ff 2f 00
      >
    >
  >
  <TRACK
    NAME "Glock"
    PEAKCOL 4290756410
    VOLPAN 1.000000 0 1 -1
    MIDIOUT -1
    ISBUS 0 0
    <ITEM
      POSITION 3.695652
      LENGTH 38.056522
      NAME "Glock"
      VOLPAN 1 0 1 -1
      <SOURCE MIDI
        HASDATA 1 960 QN
        E 0 c5 09 00
        E 8160 95 68 54
        E 288 85 68 00
        E 672 95 68 50
        E 288 85 68 00
        E 1632 95 68 54
        E 288 85 68 00
        E 672 95 68 54
        E 288 85 68 00
        E 192 95 68 54
        E 288 85 68 00
        E 672 95 68 54
        E 288 85 68 00
        E 192 95 68 52
        E 288 85 68 00
        E 1152 95 68 54
        E 288 85 68 00
        E 1152 95 68 50
        E 288 85 68 00
        E 192 95 68 54
        E 288 85 68 00
        E 192 95 68 54
        E 288 85 68 00
        E 192 95 68 54
        E 288 85 68 00
        E 192 95 68 54
        E 288 85 68 00
        E 192 95 68 54
        E 288 85 68 00
        E 192 95 68 54
        E 288 85 68 00
        E 192 95 68 54
        E 288 85 68 00
        E 192 95 68 54
        E 288 85 68 00
        E 192 95 68 54
        E 288 85 68 00
        E 192 95 68 54
        E 288 85 68 00
        E 192 95 68 54
        E 288 85 68 00
        E 192 95 68 50
        E 288 85 68 00
        E 192 95 68 54
        E 288 85 68 00
        E 192 95 68 54
        E 288 85 68 00
        E 192 95 68 54
        E 288 85 68 00
        E 192 95 68 4f
        E 288 85 68 00
        E 192 95 68 54
        E 288 85 68 00
        E 192 95 68 54
        E 288 85 68 00
        E 192 95 68 54
        E 288 85 68 00
        E 192 95 68 54
        E 288 85 68 00
        E 192 95 68 50
        E 288 85 68 00
        E 192 95 68 54
        E 288 85 68 00
        E 192 95 68 54
        E 288 85 68 00
        E 192 95 68 54
        E 288 85 68 00
        E 192 95 68 52
        E 288 85 68 00
        E 192 95 68 54
        E 288 85 68 00
        E 192 95 68 54
        E 288 85 68 00
        E 192 95 68 50
        E 288 85 68 00
        E 192 95 68 54
        E 288 85 68 00
        E 192 95 68 54
        E 288 85 68 00
        E 192 95 68 54
        E 288 85 68 00
        E 192 95 68 54
        E 288 85 68 00
        E 192 95 68 54
        E 288 85 68 00
        E 192 95 68 54
        E 288 85 68 00
        E 192 95 68 54
        E 288 85 68 00
        E 192 95 68 54
        E 288 85 68 00
        E 192 95 68 52
        E 288 85 68 00
        E 192 95 68 52
        E 288 85 68 00
        E 192 95 68 54
        E 288 85 68 00
        E 192 95 68 54
        E 288 85 68 00
        E 192 95 68 54
        E 288 85 68 00
        E 192 95 68 54
        E 288 85 68 00
        E 192 95 68 52
        E 288 85 68 00
        E 192 95 68 54
        E 288 85 68 00
        E 192 95 68 54
        E 288 85 68 00
        E 192 95 67 50
        E 288 85 67 00
        E 192 95 68 54
        E 288 85 68 00
        E 192 95 68 54
        E 288 85 68 00
        E 192 95 68 54
        E 288 85 68 00
        E 192 95 68 54
        E 288 85 68 00
        E 192 95 68 50
        E 288 85 68 00
        E 192 95 68 54
        E 288 85 68 00
        E 192 95 68 54
        E 288 85 68 00
        E 192 95 68 54
        E 288 85 68 00
        E 192 95 68 54
        E 288 85 68 00
        E 192 95 68 54
        E 288 85 68 00
        E 192 95 68 4f
        E 288 85 68 00
        E 192 95 68 4f
        E 288 85 68 00
        E 192 95 68 54
        E 288 85 68 00
        E 192 95 68 50
        E 288 85 68 00
        E 192 95 68 54
        E 288 85 68 00
        E 192 95 68 50
        E 288 85 68 00
        E 192 95 68 54
        E 288 85 68 00
        E 192 95 68 54
        E 288 85 68 00
        E 192 95 68 54
        E 288 85 68 00
        E 192 95 68 50
        E 288 85 68 00
        E 192 95 68 54
        E 288 85 68 00
        E 192 95 68 54
        E 288 85 68 00
        E 192 95 68 52
        E 288 85 68 00
        E 192 95 68 54
        E 288 85 68 00
        E 192 95 68 54
        E 288 85 68 00
        E 192 95 68 54
        E 288 85 68 00
        E 192 95 68 54
        E 288 85 68 00
        E 192 95 68 54
        E 288 85 68 00
        E 192 95 68 4f
        E 288 85 68 00
        E 192 95 68 54
        E 288 85 68 00
        E 192 95 68 52
        E 288 85 68 00
        E 192 95 68 50
        E 288 85 68 00
        E 192 95 68 54
        E 288 85 68 00
        E 192 95 68 52
        E 288 85 68 00
        E 192 95 68 54
        E 288 85 68 00
        E 192 95 68 54
        E 288 85 68 00
        E 192 95 68 50
        E 288 85 68 00
        E 192 95 68 52
        E 288 85 68 00
        E 192 95 68 54
        E 288 85 68 00
        E 192 95 68 54
        E 288 85 68 00
        E 192 95 68 54
        E 288 85 68 00
        E 192 95 68 54
        E 288 85 68 00
        E 192 95 68 54
        E 288 85 68 00
        E 192 95 68 54
        E 288 85 68 00
        E 192 95 68 54
        E 288 85 68 00
        E 192 95 68 54
        E 288 85 68 00
        E 192 95 68 54
        E 288 85 68 00
        E 192 95 68 54
        E 288 85 68 00
        E 192 95 68 50
        E 288 85 68 00
        E 192 95 68 50
        E 288 85 68 00
        E 192 95 68 54
        E 288 85 68 00
        E 192 95 68 54
        E 288 85 68 00
        E 192 95 68 52
        E 288 85 68 00
        E 192 95 68 54
        E 288 85 68 00
        E 192 95 68 54
        E 288 85 68 00
        E 192 95 68 54
        E 288 85 68 00
        E 192 95 68 54
        E 288 85 68 00
        E 192 95 68 50
        E 288 85 68 00
        E 192 95 68 54
        E 288 85 68 00
        E 1632 95 68 50
        E 288 85 68 00
        E 1152 95 68 54
        E 288 85 68 00
        E 192 95 68 54
        E 288 85 68 00
        E 6432 95 68 52
        E 288 85 68 00
        E 192 95 68 50
        E 288 85 68 00
        E 672 95 68 54
        E 288 85 68 00
        E 192 95 68 54
        E 288 85 68 00
        E 192 95 68 54
        E 288 85 68 00
        E 2112 95 68 54
        E 288 85 68 00
        E 2112 95 68 54
        E 288 85 68 00
        E 672 95 68 54
        E 288 85 68 00
        E 3552 95 68 52
        E 288 85 68 00
        E 192 95 68 54
        E 288 85 68 00
        E 1152 95 68 54
        E 288 85 68 00
        E 0 b5 7b 00
        E 1 ff 2f 00
      >
    >
  >
  <TRACK
    NAME "Bass"
    PEAKCOL 4286528191
    VOLPAN 1.000000 0 1 -1
    MIDIOUT -1
    ISBUS 0 0
    <ITEM
      POSITION 0.000000
      LENGTH 37.973043
      NAME "Bass"
      VOLPAN 1 0 1 -1
      <SOURCE MIDI
        HASDATA 1 960 QN
        E 0 c6 2b 00
        E 0 96 24 73
        E 104 86 24 00
        E 856 96 21 73
        E 104 86 21 00
        E 856 96 24 73
        E 104 86 24 00
        E 856 96 26 73
        E 104 86 26 00
        E 856 96 24 73
        E 104 86 24 00
        E 856 96 1f 73
        E 104 86 1f 00
        E 856 96 24 73
        E 104 86 24 00
        E 856 96 29 73
        E 104 86 29 00
        E 856 96 26 73
        E 104 86 26 00
        E 856 96 2b 73
        E 104 86 2b 00
        E 856 96 26 73
        E 104 86 26 00
        E 856 96 2b 73
        E 104 86 2b 00
        E 856 96 30 73
        E 104 86 30 00
        E 856 96 30 73
        E 104 86 30 00
        E 856 96 30 73
        E 104 86 30 00
        E 856 96 34 73
        E 104 86 34 00
        E 856 96 30 73
        E 104 86 30 00
        E 856 96 2b 73
        E 104 86 2b 00
        E 856 96 30 73
        E 104 86 30 00
        E 856 96 2d 73
        E 104 86 2d 00
        E 856 96 30 73
        E 104 86 30 00
        E 856 96 30 73
        E 104 86 30 00
        E 856 96 30 73
        E 104 86 30 00
        E 856 96 30 73
        E 104 86 30 00
        E 856 96 32 73
        E 104 86 32 00
        E 856 96 2f 73
        E 104 86 2f 00
        E 856 96 32 73
        E 104 86 32 00
        E 856 96 35 73
        E 104 86 35 00
        E 856 96 30 73
        E 104 86 30 00
        E 856 96 2b 73
        E 104 86 2b 00
        E 856 96 30 73
        E 104 86 30 00
        E 856 96 2d 73
        E 104 86 2d 00
        E 856 96 32 73
        E 104 86 32 00
        E 856 96 34 73
        E 104 86 34 00
        E 856 96 30 73
        E 104 86 30 00
        E 856 96 30 73
        E 104 86 30 00
        E 856 96 32 73
        E 104 86 32 00
        E 856 96 37 73
        E 104 86 37 00
        E 856 96 37 73
        E 104 86 37 00
        E 856 96 34 73
        E 104 86 34 00
        E 856 96 30 73
        E 104 86 30 00
        E 856 96 30 73
        E 104 86 30 00
        E 856 96 30 73
        E 104 86 30 00
        E 856 96 2d 73
        E 104 86 2d 00
        E 856 96 30 73
        E 104 86 30 00
        E 856 96 35 73
        E 104 86 35 00
        E 856 96 30 73
        E 104 86 30 00
        E 856 96 2d 73
        E 104 86 2d 00
        E 856 96 30 73
        E 104 86 30 00
        E 856 96 2b 73
        E 104 86 2b 00
        E 856 96 26 73
        E 104 86 26 00
        E 856 96 2b 73
        E 104 86 2b 00
        E 856 96 30 73
        E 104 86 30 00
        E 856 96 34 73
        E 104 86 34 00
        E 856 96 30 73
        E 104 86 30 00
        E 856 96 2b 73
        E 104 86 2b 00
        E 856 96 30 73
        E 104 86 30 00
        E 856 96 34 73
        E 104 86 34 00
        E 856 96 30 73
        E 104 86 30 00
        E 856 96 2d 73
        E 104 86 2d 00
        E 856 96 30 73
        E 104 86 30 00
        E 856 96 2f 73
        E 104 86 2f 00
        E 856 96 30 73
        E 104 86 30 00
        E 856 96 34 73
        E 104 86 34 00
        E 856 96 30 73
        E 104 86 30 00
        E 856 96 35 73
        E 104 86 35 00
        E 856 96 30 73
        E 104 86 30 00
        E 856 96 34 73
        E 104 86 34 00
        E 856 96 30 73
        E 104 86 30 00
        E 856 96 32 73
        E 104 86 32 00
        E 856 96 30 73
        E 104 86 30 00
        E 856 96 2f 73
        E 104 86 2f 00
        E 856 96 30 73
        E 104 86 30 00
        E 856 96 2b 73
        E 104 86 2b 00
        E 856 96 30 73
        E 104 86 30 00
        E 856 96 2b 73
        E 104 86 2b 00
        E 856 96 30 73
        E 104 86 30 00
        E 856 96 35 73
        E 104 86 35 00
        E 856 96 30 73
        E 104 86 30 00
        E 856 96 32 73
        E 104 86 32 00
        E 856 96 30 73
        E 104 86 30 00
        E 856 96 34 73
        E 104 86 34 00
        E 856 96 30 73
        E 104 86 30 00
        E 856 96 32 73
        E 104 86 32 00
        E 856 96 32 73
        E 104 86 32 00
        E 856 96 2f 73
        E 104 86 2f 00
        E 856 96 30 73
        E 104 86 30 00
        E 856 96 32 73
        E 104 86 32 00
        E 0 b6 7b 00
        E 1 ff 2f 00
      >
    >
  >
  <TRACK
    NAME "Pedal"
    PEAKCOL 4284506208
    VOLPAN 1.000000 0 1 -1
    MIDIOUT -1
    ISBUS 0 0
    <ITEM
      POSITION 0.000000
      LENGTH 37.973043
      NAME "Pedal"
      VOLPAN 1 0 1 -1
      <SOURCE MIDI
        HASDATA 1 960 QN
        E 0 c7 2b 00
        E 0 97 24 65
        E 104 87 24 00
        E 856 97 29 65
        E 104 87 29 00
        E 856 97 24 65
        E 104 87 24 00
        E 856 97 1f 65
        E 104 87 1f 00
        E 856 97 24 65
        E 104 87 24 00
        E 856 97 1f 65
        E 104 87 1f 00
        E 856 97 24 65
        E 104 87 24 00
        E 856 97 24 65
        E 104 87 24 00
        E 856 97 26 65
        E 104 87 26 00
        E 856 97 24 65
        E 104 87 24 00
        E 856 97 26 65
        E 104 87 26 00
        E 856 97 21 65
        E 104 87 21 00
        E 856 97 24 65
        E 104 87 24 00
        E 856 97 23 65
        E 104 87 23 00
        E 856 97 24 65
        E 104 87 24 00
        E 856 97 21 65
        E 104 87 21 00
        E 856 97 24 65
        E 104 87 24 00
        E 856 97 28 65
        E 104 87 28 00
        E 856 97 24 65
        E 104 87 24 00
        E 856 97 24 65
        E 104 87 24 00
        E 856 97 24 65
        E 104 87 24 00
        E 856 97 23 65
        E 104 87 23 00
        E 856 97 24 65
        E 104 87 24 00
        E 856 97 23 65
        E 104 87 23 00
        E 856 97 26 65
        E 104 87 26 00
        E 856 97 26 65
        E 104 87 26 00
        E 856 97 26 65
        E 104 87 26 00
        E 856 97 26 65
        E 104 87 26 00
        E 856 97 24 65
        E 104 87 24 00
        E 856 97 29 65
        E 104 87 29 00
        E 856 97 24 65
        E 104 87 24 00
        E 856 97 21 65
        E 104 87 21 00
        E 856 97 26 65
        E 104 87 26 00
        E 856 97 21 65
        E 104 87 21 00
        E 856 97 24 65
        E 104 87 24 00
        E 856 97 24 65
        E 104 87 24 00
        E 856 97 26 65
        E 104 87 26 00
        E 856 97 28 65
        E 104 87 28 00
        E 856 97 24 65
        E 104 87 24 00
        E 856 97 24 65
        E 104 87 24 00
        E 856 97 24 65
        E 104 87 24 00
        E 856 97 24 65
        E 104 87 24 00
        E 856 97 24 65
        E 104 87 24 00
        E 856 97 24 65
        E 104 87 24 00
        E 856 97 24 65
        E 104 87 24 00
        E 856 97 26 65
        E 104 87 26 00
        E 856 97 24 65
        E 104 87 24 00
        E 856 97 23 65
        E 104 87 23 00
        E 856 97 24 65
        E 104 87 24 00
        E 856 97 21 65
        E 104 87 21 00
        E 856 97 26 65
        E 104 87 26 00
        E 856 97 28 65
        E 104 87 28 00
        E 856 97 24 65
        E 104 87 24 00
        E 856 97 21 65
        E 104 87 21 00
        E 856 97 24 65
        E 104 87 24 00
        E 856 97 26 65
        E 104 87 26 00
        E 856 97 24 65
        E 104 87 24 00
        E 856 97 28 65
        E 104 87 28 00
        E 856 97 24 65
        E 104 87 24 00
        E 856 97 24 65
        E 104 87 24 00
        E 856 97 24 65
        E 104 87 24 00
        E 856 97 24 65
        E 104 87 24 00
        E 856 97 24 65
        E 104 87 24 00
        E 856 97 26 65
        E 104 87 26 00
        E 856 97 24 65
        E 104 87 24 00
        E 856 97 26 65
        E 104 87 26 00
        E 856 97 24 65
        E 104 87 24 00
        E 856 97 21 65
        E 104 87 21 00
        E 856 97 24 65
        E 104 87 24 00
        E 856 97 29 65
        E 104 87 29 00
        E 856 97 24 65
        E 104 87 24 00
        E 856 97 29 65
        E 104 87 29 00
        E 856 97 24 65
        E 104 87 24 00
        E 856 97 24 65
        E 104 87 24 00
        E 856 97 24 65
        E 104 87 24 00
        E 856 97 21 65
        E 104 87 21 00
        E 856 97 24 65
        E 104 87 24 00
        E 856 97 21 65
        E 104 87 21 00
        E 856 97 24 65
        E 104 87 24 00
        E 856 97 21 65
        E 104 87 21 00
        E 856 97 24 65
        E 104 87 24 00
        E 856 97 28 65
        E 104 87 28 00
        E 856 97 24 65
        E 104 87 24 00
        E 856 97 21 65
        E 104 87 21 00
        E 856 97 26 65
        E 104 87 26 00
        E 856 97 21 65
        E 104 87 21 00
        E 856 97 24 65
        E 104 87 24 00
        E 856 97 1f 65
        E 104 87 1f 00
        E 0 b7 7b 00
        E 1 ff 2f 00
      >
    >
  >
  <TRACK
    NAME "Timpani"
    PEAKCOL 4290722362
    VOLPAN 1.000000 0 1 -1
    MIDIOUT -1
    ISBUS 0 0
    <ITEM
      POSITION 0.434783
      LENGTH 36.926087
      NAME "Timpani"
      VOLPAN 1 0 1 -1
      <SOURCE MIDI
        HASDATA 1 960 QN
        E 0 c8 2f 00
        E 960 98 34 6e
        E 768 88 34 00
        E 2112 98 24 79
        E 1632 88 24 00
        E 3168 98 2d 6e
        E 768 88 2d 00
        E 2112 98 24 79
        E 960 98 39 73
        E 672 88 24 00
        E 96 88 39 00
        E 2112 98 24 79
        E 960 98 2b 71
        E 672 88 24 00
        E 96 88 2b 00
        E 192 98 24 6a
        E 1632 88 24 00
        E 288 98 24 79
        E 960 98 34 70
        E 672 88 24 00
        E 96 88 34 00
        E 192 98 24 68
        E 1632 88 24 00
        E 288 98 26 79
        E 960 98 2d 71
        E 672 88 26 00
        E 96 88 2d 00
        E 192 98 26 63
        E 1632 88 26 00
        E 288 98 24 77
        E 960 98 34 6e
        E 672 88 24 00
        E 96 88 34 00
        E 192 98 24 68
        E 1632 88 24 00
        E 288 98 26 77
        E 960 98 2d 6d
        E 672 88 26 00
        E 96 88 2d 00
        E 192 98 24 63
        E 1632 88 24 00
        E 288 98 26 75
        E 960 98 2d 6b
        E 672 88 26 00
        E 96 88 2d 00
        E 192 98 24 68
        E 1632 88 24 00
        E 288 98 24 77
        E 960 98 35 6e
        E 672 88 24 00
        E 96 88 35 00
        E 192 98 24 66
        E 1632 88 24 00
        E 288 98 24 79
        E 960 98 34 70
        E 672 88 24 00
        E 96 88 34 00
        E 192 98 24 63
        E 1632 88 24 00
        E 288 98 24 77
        E 960 98 34 6d
        E 672 88 24 00
        E 96 88 34 00
        E 192 98 26 65
        E 1632 88 26 00
        E 288 98 24 79
        E 960 98 35 71
        E 672 88 24 00
        E 96 88 35 00
        E 192 98 24 68
        E 1632 88 24 00
        E 288 98 24 79
        E 960 98 34 73
        E 672 88 24 00
        E 96 88 34 00
        E 192 98 24 62
        E 1632 88 24 00
        E 288 98 24 77
        E 960 98 35 6e
        E 672 88 24 00
        E 96 88 35 00
        E 192 98 24 65
        E 1632 88 24 00
        E 288 98 24 75
        E 960 98 35 6b
        E 672 88 24 00
        E 96 88 35 00
        E 192 98 24 65
        E 1632 88 24 00
        E 288 98 24 77
        E 960 98 2b 6e
        E 672 88 24 00
        E 96 88 2b 00
        E 192 98 24 63
        E 1632 88 24 00
        E 2208 98 24 65
        E 1632 88 24 00
        E 2208 98 24 65
        E 1632 88 24 00
        E 4128 98 26 77
        E 1632 88 26 00
        E 0 b8 7b 00
        E 1 ff 2f 00
      >
    >
  >
>
