<REAPER_PROJECT 0.1 "7.0" 1700000000
  TEMPO 66.000000 4 4
  SAMPLERATE 48000 0 0
  RENDER_FILE ""
  RENDER_FMT 0 2 0
  RENDER_1X 0
  RENDER_RANGE 1 0 98.369817 0 0
  RENDER_RESAMPLE 3 0 1
  <MASTERTRACK
    VOLPAN 1 0 1 -1
    DEFCHAN 0
  >
  <TRACK
    NAME "Lead"
    PEAKCOL 4284506208
    VOLPAN 1.000000 0 1 -1
    MIDIOUT -1
    ISBUS 0 0
    <ITEM
      POSITION 0.006418
      LENGTH 94.930161
      NAME "Lead"
      VOLPAN 1 0 1 -1
      <SOURCE MIDI
        HASDATA 1 960 QN
        E 0 c0 49 00
        E 7 90 54 76
        E 1280 90 52 45
        E 548 80 54 00
        E 61 80 52 00
        E 29 90 4f 45
        E 240 80 4f 00
        E 398 90 4d 45
        E 554 80 4d 00
        E 988 90 4f 45
        E 1662 80 4f 00
        E 36 90 4d 57
        E 1100 80 4d 00
        E 195 90 51 50
        E 499 80 51 00
        E 1429 90 4f 45
        E 1210 80 4f 00
        E 75 90 4d 45
        E 1100 80 4d 00
        E 536 90 4f 5d
        E 946 90 52 5a
        E 154 80 4f 00
        E 400 80 52 00
        E 731 90 52 45
        E 990 80 52 00
        E 542 90 54 45
        E 520 90 51 45
        E 240 80 51 00
        E 279 90 4d 5a
        E 171 80 54 00
        E 1039 80 4d 00
        E 733 90 4d 55
        E 1100 80 4d 00
        E 166 90 4d 46
        E 277 80 4d 00
        E 374 90 4f 45
        E 240 80 4f 00
        E 411 90 54 45
        E 1100 80 54 00
        E 175 90 52 48
        E 499 80 52 00
        E 1033 90 51 48
        E 1065 90 51 46
        E 145 80 51 00
        E 409 80 51 00
        E 726 90 4d 46
        E 1100 80 4d 00
        E 183 90 4f 48
        E 831 80 4f 00
        E 450 90 4d 45
        E 554 80 4d 00
        E 982 90 4d 45
        E 990 80 4d 00
        E 72 90 51 45
        E 1210 80 51 00
        E 174 90 51 45
        E 1100 80 51 00
        E 723 90 54 45
        E 1100 80 54 00
        E 182 90 52 45
        E 1100 80 52 00
        E 195 90 52 4d
        E 701 90 4f 45
        E 240 80 4f 00
        E 461 90 4d 55
        E 94 80 52 00
        E 1116 80 4d 00
        E 612 90 4f 45
        E 651 90 51 6c
        E 449 80 4f 00
        E 651 80 51 00
        E 538 90 52 4d
        E 940 90 56 52
        E 160 80 52 00
        E 940 80 56 00
        E 189 90 54 45
        E 634 90 51 45
        E 240 80 51 00
        E 116 80 54 00
        E 279 90 4d 45
        E 1210 80 4d 00
        E 985 90 4f 46
        E 378 90 51 57
        E 722 80 4f 00
        E 378 80 51 00
        E 451 90 52 55
        E 1031 90 52 45
        E 69 80 52 00
        E 485 80 52 00
        E 1378 90 51 45
        E 990 80 51 00
        E 956 90 51 45
        E 1100 80 51 00
        E 173 90 4f 5b
        E 1108 80 4f 00
        E 562 90 51 4d
        E 928 90 51 4e
        E 172 80 51 00
        E 928 80 51 00
        E 186 90 51 53
        E 990 80 51 00
        E 777 90 4f 50
        E 914 80 4f 00
        E 359 90 4d 45
        E 1100 80 4d 00
        E 199 90 4f 5d
        E 831 80 4f 00
        E 444 90 51 6c
        E 1100 80 51 00
        E 201 90 52 45
        E 648 90 4f 45
        E 183 80 52 00
        E 1090 90 51 45
        E 223 80 4f 00
        E 987 80 51 00
        E 76 90 4f 55
        E 652 90 51 45
        E 240 80 51 00
        E 208 80 4f 00
        E 205 90 54 60
        E 1100 80 54 00
        E 180 90 51 45
        E 1100 80 51 00
        E 190 90 51 4a
        E 1100 80 51 00
        E 832 90 4f 45
        E 643 90 51 45
        E 240 80 51 00
        E 107 80 4f 00
        E 296 90 54 57
        E 1210 80 54 00
        E 330 90 51 55
        E 1040 90 51 46
        E 60 80 51 00
        E 217 80 51 00
        E 502 90 51 5a
        E 1100 80 51 00
        E 67 90 52 45
        E 1100 80 52 00
        E 307 90 4f 45
        E 748 80 4f 00
        E 642 90 51 45
        E 914 80 51 00
        E 138 90 4f 45
        E 771 90 51 45
        E 240 80 51 00
        E 89 80 4f 00
        E 442 90 54 48
        E 1100 80 54 00
        E 52 90 51 48
        E 1100 80 51 00
        E 74 90 52 45
        E 831 80 52 00
        E 1096 90 51 45
        E 990 80 51 00
        E 297 90 4f 4d
        E 1210 80 4f 00
        E 95 90 4f 4a
        E 831 80 4f 00
        E 1449 90 51 45
        E 554 80 51 00
        E 369 90 4f 45
        E 1100 80 4f 00
        E 319 90 4d 45
        E 990 80 4d 00
        E 0 b0 7b 00
        E 1 ff 2f 00
      >
    >
  >
  <TRACK
    NAME "Choir"
    PEAKCOL 4284506208
    VOLPAN 1.000000 0 1 -1
    MIDIOUT -1
    ISBUS 0 0
    <ITEM
      POSITION 0.013403
      LENGTH 94.495140
      NAME "Choir"
      VOLPAN 1 0 1 -1
      <SOURCE MIDI
        HASDATA 1 960 QN
        E 0 c1 34 00
        E 14 91 41 50
        E 1 91 3a 50
        E 8 91 30 58
        E 1757 81 41 00
        E 1 81 3a 00
        E 8 81 30 00
        E 156 91 30 58
        E 1766 81 30 00
        E 137 91 3c 55
        E 12 91 37 53
        E 1754 81 3c 00
        E 12 81 37 00
        E 134 91 3e 55
        E 7 91 41 58
        E 1759 81 3e 00
        E 7 81 41 00
        E 150 91 3c 58
        E 14 91 30 50
        E 1752 81 3c 00
        E 14 81 30 00
        E 151 91 37 55
        E 5 91 30 53
        E 1761 81 37 00
        E 5 81 30 00
        E 143 91 3e 55
        E 10 91 30 52
        E 1 91 37 58
        E 1755 81 3e 00
        E 10 81 30 00
        E 1 81 37 00
        E 5904 91 3e 53
        E 7 91 30 53
        E 0 91 37 50
        E 1759 81 3e 00
        E 7 81 30 00
        E 0 81 37 00
        E 144 91 3c 52
        E 7 91 3e 53
        E 2 91 30 52
        E 6 91 37 50
        E 1751 81 3c 00
        E 7 81 3e 00
        E 2 81 30 00
        E 6 81 37 00
        E 133 91 3c 55
        E 9 91 3e 55
        E 11 91 35 53
        E 3 91 30 52
        E 1743 81 3c 00
        E 9 81 3e 00
        E 11 81 35 00
        E 3 81 30 00
        E 140 91 3e 50
        E 3 91 41 55
        E 6 91 39 52
        E 0 91 30 55
        E 1757 81 3e 00
        E 3 81 41 00
        E 6 81 39 00
        E 0 81 30 00
        E 139 91 3c 55
        E 3 91 40 50
        E 9 91 35 55
        E 12 91 30 58
        E 1742 81 3c 00
        E 3 81 40 00
        E 9 81 35 00
        E 12 81 30 00
        E 132 91 3c 52
        E 2 91 3e 52
        E 10 91 35 53
        E 5 91 30 53
        E 1749 81 3c 00
        E 2 81 3e 00
        E 10 81 35 00
        E 5 81 30 00
        E 135 91 3c 55
        E 4 91 3e 55
        E 10 91 35 57
        E 1 91 30 52
        E 1751 81 3c 00
        E 4 81 3e 00
        E 10 81 35 00
        E 1 81 30 00
        E 143 91 3c 57
        E 7 91 40 55
        E 6 91 37 50
        E 7 91 30 50
        E 1746 81 3c 00
        E 7 81 40 00
        E 6 81 37 00
        E 7 81 30 00
        E 133 91 3c 52
        E 2 91 3e 58
        E 6 91 35 57
        E 9 91 30 57
        E 1749 81 3c 00
        E 2 81 3e 00
        E 6 81 35 00
        E 9 81 30 00
        E 135 91 3e 53
        E 4 91 3e 57
        E 7 91 30 53
        E 6 91 35 55
        E 1749 81 3e 00
        E 4 81 3e 00
        E 7 81 30 00
        E 6 81 35 00
        E 138 91 3c 55
        E 7 91 41 55
        E 9 91 3a 58
        E 2 91 30 55
        E 1748 81 3c 00
        E 7 81 41 00
        E 9 81 3a 00
        E 2 81 30 00
        E 131 91 3c 50
        E 12 91 40 53
        E 8 91 37 58
        E 0 91 30 52
        E 1746 81 3c 00
        E 12 81 40 00
        E 8 81 37 00
        E 0 81 30 00
        E 144 91 3c 57
        E 0 91 3e 52
        E 5 91 30 58
        E 3 91 35 53
        E 1758 81 3c 00
        E 0 81 3e 00
        E 5 81 30 00
        E 3 81 35 00
        E 139 91 3c 58
        E 9 91 3e 53
        E 1 91 35 55
        E 10 91 30 52
        E 1746 81 3c 00
        E 9 81 3e 00
        E 1 81 35 00
        E 10 81 30 00
        E 140 91 3c 53
        E 1 91 3e 53
        E 3 91 35 53
        E 6 91 30 50
        E 1756 81 3c 00
        E 1 81 3e 00
        E 3 81 35 00
        E 6 81 30 00
        E 140 91 3c 50
        E 4 91 40 55
        E 8 91 30 53
        E 2 91 37 52
        E 1752 81 3c 00
        E 4 81 40 00
        E 8 81 30 00
        E 2 81 37 00
        E 140 91 3c 50
        E 6 91 3e 52
        E 1 91 35 53
        E 17 91 30 55
        E 1742 81 3c 00
        E 6 81 3e 00
        E 1 81 35 00
        E 17 81 30 00
        E 131 91 3e 57
        E 2 91 41 53
        E 6 91 39 52
        E 14 91 30 55
        E 1744 81 3e 00
        E 2 81 41 00
        E 6 81 39 00
        E 14 81 30 00
        E 134 91 3c 55
        E 2 91 34 50
        E 0 91 3e 58
        E 14 91 35 50
        E 1750 81 3c 00
        E 2 81 34 00
        E 0 81 3e 00
        E 14 81 35 00
        E 134 91 3e 58
        E 5 91 41 52
        E 2 91 37 53
        E 15 91 30 52
        E 1744 81 3e 00
        E 5 81 41 00
        E 2 81 37 00
        E 15 81 30 00
        E 134 91 3c 58
        E 5 91 40 50
        E 2 91 37 53
        E 6 91 30 55
        E 1753 81 3c 00
        E 5 81 40 00
        E 2 81 37 00
        E 6 81 30 00
        E 136 91 3c 55
        E 4 91 3e 53
        E 6 91 35 53
        E 15 91 30 50
        E 1741 81 3c 00
        E 4 81 3e 00
        E 6 81 35 00
        E 15 81 30 00
        E 134 91 3e 53
        E 2 91 37 55
        E 12 91 39 57
        E 8 91 32 55
        E 1744 81 3e 00
        E 2 81 37 00
        E 12 81 39 00
        E 8 81 32 00
        E 127 91 3c 53
        E 4 91 41 52
        E 16 91 37 53
        E 5 91 30 52
        E 1741 81 3c 00
        E 4 81 41 00
        E 16 81 37 00
        E 5 81 30 00
        E 130 91 3e 58
        E 3 91 37 50
        E 10 91 39 57
        E 9 91 32 52
        E 1744 81 3e 00
        E 3 81 37 00
        E 10 81 39 00
        E 9 81 32 00
        E 134 91 3e 50
        E 5 91 41 53
        E 5 91 37 55
        E 8 91 30 52
        E 1748 81 3e 00
        E 5 81 41 00
        E 5 81 37 00
        E 8 81 30 00
        E 140 91 3c 57
        E 2 91 40 50
        E 2 91 37 57
        E 11 91 30 58
        E 1751 81 3c 00
        E 2 81 40 00
        E 2 81 37 00
        E 11 81 30 00
        E 139 91 3c 58
        E 3 91 40 50
        E 2 91 37 50
        E 8 91 30 53
        E 1753 81 3c 00
        E 3 81 40 00
        E 2 81 37 00
        E 8 81 30 00
        E 134 91 3c 55
        E 10 91 3e 52
        E 5 91 35 52
        E 9 91 30 53
        E 1742 81 3c 00
        E 10 81 3e 00
        E 5 81 35 00
        E 9 81 30 00
        E 136 91 3c 58
        E 3 91 40 53
        E 0 91 37 57
        E 17 91 30 52
        E 1746 81 3c 00
        E 3 81 40 00
        E 0 81 37 00
        E 17 81 30 00
        E 130 91 3c 55
        E 4 91 40 52
        E 14 91 37 57
        E 1 91 30 53
        E 1747 81 3c 00
        E 4 81 40 00
        E 14 81 37 00
        E 1 81 30 00
        E 136 91 3c 55
        E 7 91 3e 53
        E 2 91 35 53
        E 14 91 30 52
        E 1743 81 3c 00
        E 7 81 3e 00
        E 2 81 35 00
        E 14 81 30 00
        E 136 91 3c 50
        E 5 91 3e 55
        E 4 91 30 55
        E 1 91 35 50
        E 1756 81 3c 00
        E 5 81 3e 00
        E 4 81 30 00
        E 1 81 35 00
        E 165 91 30 55
        E 1766 81 30 00
        E 126 91 3c 57
        E 1766 81 3c 00
        E 155 91 3c 58
        E 9 91 37 55
        E 1757 81 3c 00
        E 9 81 37 00
        E 2074 91 41 50
        E 15 91 30 52
        E 1751 81 41 00
        E 15 81 30 00
        E 130 91 3c 53
        E 5 91 40 55
        E 5 91 37 50
        E 1756 81 3c 00
        E 5 81 40 00
        E 5 81 37 00
        E 147 91 3e 53
        E 1766 81 3e 00
        E 163 91 30 57
        E 4 91 35 52
        E 1762 81 30 00
        E 4 81 35 00
        E 144 91 41 55
        E 1766 81 41 00
        E 0 b1 7b 00
        E 1 ff 2f 00
      >
    >
  >
  <TRACK
    NAME "Brass"
    PEAKCOL 4290740026
    VOLPAN 1.000000 0 1 -1
    MIDIOUT -1
    ISBUS 0 0
    <ITEM
      POSITION 7.277774
      LENGTH 86.833322
      NAME "Brass"
      VOLPAN 1 0 1 -1
      <SOURCE MIDI
        HASDATA 1 960 QN
        E 0 c2 3d 00
        E 7685 92 46 72
        E 2 92 46 72
        E 1 92 3a 72
        E 1149 82 46 00
        E 2 82 46 00
        E 1 82 3a 00
        E 1012 92 46 72
        E 2 92 3a 72
        E 1150 82 46 00
        E 2 82 3a 00
        E 994 92 4c 72
        E 6 92 46 72
        E 1 92 3a 72
        E 1145 82 4c 00
        E 6 82 46 00
        E 1 82 3a 00
        E 1007 92 3a 72
        E 4 92 46 72
        E 1148 82 3a 00
        E 4 82 46 00
        E 1006 92 3a 72
        E 4 92 46 72
        E 1148 82 3a 00
        E 4 82 46 00
        E 996 92 4c 72
        E 9 92 46 72
        E 0 92 46 72
        E 1143 82 4c 00
        E 9 82 46 00
        E 0 82 46 00
        E 999 92 4c 72
        E 5 92 3a 72
        E 4 92 46 72
        E 2 92 46 72
        E 1 92 3a 72
        E 1140 82 4c 00
        E 5 82 3a 00
        E 4 82 46 00
        E 2 82 46 00
        E 1 82 3a 00
        E 996 92 4c 72
        E 11 92 46 72
        E 0 92 3a 72
        E 0 92 46 72
        E 3 92 3a 72
        E 1138 82 4c 00
        E 11 82 46 00
        E 0 82 3a 00
        E 0 82 46 00
        E 3 82 3a 00
        E 994 92 4c 72
        E 6 92 46 72
        E 1 92 46 72
        E 5 92 3a 72
        E 1 92 3a 72
        E 1139 82 4c 00
        E 6 82 46 00
        E 1 82 46 00
        E 5 82 3a 00
        E 1 82 3a 00
        E 995 92 4c 72
        E 7 92 46 72
        E 0 92 46 72
        E 5 92 3a 72
        E 2 92 3a 72
        E 1138 82 4c 00
        E 7 82 46 00
        E 0 82 46 00
        E 5 82 3a 00
        E 2 82 3a 00
        E 994 92 4c 72
        E 7 92 46 72
        E 1 92 3a 72
        E 6 92 3a 72
        E 0 92 46 72
        E 1138 82 4c 00
        E 7 82 46 00
        E 1 82 3a 00
        E 6 82 3a 00
        E 0 82 46 00
        E 994 92 4c 72
        E 7 92 39 72
        E 3 92 39 72
        E 1 92 45 72
        E 1 92 45 72
        E 1140 82 4c 00
        E 7 82 39 00
        E 3 82 39 00
        E 1 82 45 00
        E 1 82 45 00
        E 996 92 4c 72
        E 5 92 3a 72
        E 2 92 46 72
        E 3 92 3a 72
        E 1 92 46 72
        E 1141 82 4c 00
        E 5 82 3a 00
        E 2 82 46 00
        E 3 82 3a 00
        E 1 82 46 00
        E 997 92 4c 72
        E 5 92 39 72
        E 4 92 39 72
        E 2 92 45 72
        E 0 92 45 72
        E 1141 82 4c 00
        E 5 82 39 00
        E 4 82 39 00
        E 2 82 45 00
        E 0 82 45 00
        E 997 92 4c 72
        E 8 92 46 72
        E 0 92 3a 72
        E 1 92 3a 72
        E 1 92 46 72
        E 1142 82 4c 00
        E 8 82 46 00
        E 0 82 3a 00
        E 1 82 3a 00
        E 1 82 46 00
        E 998 92 4c 72
        E 7 92 46 72
        E 1 92 46 72
        E 4 92 3a 72
        E 2 92 3a 72
        E 1138 82 4c 00
        E 7 82 46 00
        E 1 82 46 00
        E 4 82 3a 00
        E 2 82 3a 00
        E 994 92 4c 72
        E 10 92 3a 72
        E 3 92 46 72
        E 1 92 3a 72
        E 0 92 46 72
        E 1138 82 4c 00
        E 10 82 3a 00
        E 3 82 46 00
        E 1 82 3a 00
        E 0 82 46 00
        E 994 92 4c 72
        E 5 92 3a 72
        E 2 92 46 72
        E 2 92 3a 72
        E 5 92 46 72
        E 1138 82 4c 00
        E 5 82 3a 00
        E 2 82 46 00
        E 2 82 3a 00
        E 5 82 46 00
        E 994 92 4c 72
        E 5 92 3a 72
        E 4 92 46 72
        E 1 92 3a 72
        E 2 92 46 72
        E 1140 82 4c 00
        E 5 82 3a 00
        E 4 82 46 00
        E 1 82 3a 00
        E 2 82 46 00
        E 996 92 4c 72
        E 7 92 3a 72
        E 3 92 46 72
        E 4 92 3a 72
        E 0 92 46 72
        E 1138 82 4c 00
        E 7 82 3a 00
        E 3 82 46 00
        E 4 82 3a 00
        E 0 82 46 00
        E 994 92 4c 72
        E 6 92 3a 72
        E 1 92 46 72
        E 3 92 46 72
        E 4 92 3a 72
        E 1138 82 4c 00
        E 6 82 3a 00
        E 1 82 46 00
        E 3 82 46 00
        E 4 82 3a 00
        E 994 92 4c 72
        E 6 92 3a 72
        E 5 92 46 72
        E 1 92 3a 72
        E 0 92 46 72
        E 1140 82 4c 00
        E 6 82 3a 00
        E 5 82 46 00
        E 1 82 3a 00
        E 0 82 46 00
        E 996 92 4c 72
        E 6 92 46 72
        E 1 92 3a 72
        E 4 92 46 72
        E 2 92 3a 72
        E 1139 82 4c 00
        E 6 82 46 00
        E 1 82 3a 00
        E 4 82 46 00
        E 2 82 3a 00
        E 995 92 4c 72
        E 6 92 3a 72
        E 2 92 3a 72
        E 1 92 46 72
        E 1 92 46 72
        E 1142 82 4c 00
        E 6 82 3a 00
        E 2 82 3a 00
        E 1 82 46 00
        E 1 82 46 00
        E 998 92 4c 72
        E 7 92 3a 72
        E 0 92 3a 72
        E 1 92 46 72
        E 1 92 46 72
        E 1143 82 4c 00
        E 7 82 3a 00
        E 0 82 3a 00
        E 1 82 46 00
        E 1 82 46 00
        E 999 92 4c 72
        E 6 92 45 72
        E 1 92 39 72
        E 1 92 39 72
        E 1 92 45 72
        E 1143 82 4c 00
        E 6 82 45 00
        E 1 82 39 00
        E 1 82 39 00
        E 1 82 45 00
        E 999 92 4c 72
        E 5 92 3a 72
        E 5 92 46 72
        E 2 92 3a 72
        E 2 92 46 72
        E 1138 82 4c 00
        E 5 82 3a 00
        E 5 82 46 00
        E 2 82 3a 00
        E 2 82 46 00
        E 994 92 4c 72
        E 9 92 46 72
        E 1 92 46 72
        E 1 92 3a 72
        E 1 92 3a 72
        E 1140 82 4c 00
        E 9 82 46 00
        E 1 82 46 00
        E 1 82 3a 00
        E 1 82 3a 00
        E 996 92 4c 72
        E 8 92 3a 72
        E 3 92 3a 72
        E 0 92 46 72
        E 1 92 46 72
        E 1140 82 4c 00
        E 8 82 3a 00
        E 3 82 3a 00
        E 0 82 46 00
        E 1 82 46 00
        E 996 92 4c 72
        E 5 92 39 72
        E 1 92 39 72
        E 6 92 45 72
        E 1 92 45 72
        E 1139 82 4c 00
        E 5 82 39 00
        E 1 82 39 00
        E 6 82 45 00
        E 1 82 45 00
        E 995 92 4c 72
        E 5 92 43 72
        E 2 92 43 72
        E 2 92 37 72
        E 3 92 37 72
        E 1140 82 4c 00
        E 5 82 43 00
        E 2 82 43 00
        E 2 82 37 00
        E 3 82 37 00
        E 996 92 4c 72
        E 6 92 39 72
        E 2 92 45 72
        E 2 92 39 72
        E 2 92 45 72
        E 1140 82 4c 00
        E 6 82 39 00
        E 2 82 45 00
        E 2 82 39 00
        E 2 82 45 00
        E 996 92 4c 72
        E 5 92 46 72
        E 7 92 3a 72
        E 1 92 3a 72
        E 0 92 46 72
        E 1139 82 4c 00
        E 5 82 46 00
        E 7 82 3a 00
        E 1 82 3a 00
        E 0 82 46 00
        E 995 92 4c 72
        E 5 92 46 72
        E 2 92 3a 72
        E 3 92 46 72
        E 3 92 3a 72
        E 1139 82 4c 00
        E 5 82 46 00
        E 2 82 3a 00
        E 3 82 46 00
        E 3 82 3a 00
        E 5320 92 46 72
        E 3 92 3a 72
        E 1 92 46 72
        E 3 92 3a 72
        E 1145 82 46 00
        E 3 82 3a 00
        E 1 82 46 00
        E 3 82 3a 00
        E 996 92 4c 72
        E 6 92 46 72
        E 6 92 46 72
        E 1140 82 4c 00
        E 6 82 46 00
        E 6 82 46 00
        E 1007 92 46 72
        E 3 92 46 72
        E 1149 82 46 00
        E 3 82 46 00
        E 1005 92 3a 72
        E 0 92 46 72
        E 1152 82 3a 00
        E 0 82 46 00
        E 3163 92 3a 72
        E 3 92 46 72
        E 2 92 3a 72
        E 3 92 46 72
        E 1144 82 3a 00
        E 3 82 46 00
        E 2 82 3a 00
        E 3 82 46 00
        E 994 92 4c 72
        E 12 92 3a 72
        E 852 82 4c 00
        E 12 82 3a 00
        E 0 b2 7b 00
        E 1 ff 2f 00
      >
    >
  >
  <TRACK
    NAME "Horns"
    PEAKCOL 4290740026
    VOLPAN 1.000000 0 1 -1
    MIDIOUT -1
    ISBUS 0 0
    <ITEM
      POSITION 9.098840
      LENGTH 87.370977
      NAME "Horns"
      VOLPAN 1 0 1 -1
      <SOURCE MIDI
        HASDATA 1 960 QN
        E 0 c3 3c 00
        E 9608 93 32 4e
        E 1912 93 30 4b
        E 8 83 32 00
        E 1912 83 30 00
        E 1928 93 2e 4e
        E 1920 83 2e 00
        E 5760 93 34 4e
        E 1915 93 39 4b
        E 5 83 34 00
        E 1915 83 39 00
        E 2 93 3a 4e
        E 1920 83 3a 00
        E 1920 93 3e 4e
        E 1920 83 3e 00
        E 1 93 41 4a
        E 1920 83 41 00
        E 0 93 40 4e
        E 1920 83 40 00
        E 1922 93 43 4b
        E 1913 93 46 4d
        E 7 83 43 00
        E 1913 83 46 00
        E 3 93 46 4d
        E 1920 83 46 00
        E 1919 93 46 4b
        E 1920 83 46 00
        E 0 93 46 4a
        E 1920 83 46 00
        E 4 93 46 4b
        E 1920 83 46 00
        E 1918 93 46 4e
        E 1920 83 46 00
        E 3 93 45 4a
        E 1920 83 45 00
        E 0 93 46 4b
        E 1920 83 46 00
        E 1920 93 45 4d
        E 1915 93 46 4e
        E 5 83 45 00
        E 1915 83 46 00
        E 0 93 46 4e
        E 1920 83 46 00
        E 1926 93 46 4e
        E 1915 93 46 4e
        E 5 83 46 00
        E 1915 83 46 00
        E 4 93 45 4b
        E 1920 83 45 00
        E 1919 93 40 4e
        E 1920 83 40 00
        E 1 93 40 4a
        E 1920 83 40 00
        E 3839 93 46 4d
        E 1920 83 46 00
        E 1918 93 41 4a
        E 1920 83 41 00
        E 1916 93 3c 4e
        E 1920 83 3c 00
        E 1924 93 35 4d
        E 1920 83 35 00
        E 1922 93 39 4a
        E 1920 83 39 00
        E 0 b3 7b 00
        E 1 ff 2f 00
      >
    >
  >
  <TRACK
    NAME "Strings"
    PEAKCOL 4284186559
    VOLPAN 1.000000 0 1 -1
    MIDIOUT -1
    ISBUS 0 0
    <ITEM
      POSITION 3.636364
      LENGTH 91.021515
      NAME "Strings"
      VOLPAN 1 0 1 -1
      <SOURCE MIDI
        HASDATA 1 960 QN
        E 0 c4 30 00
        E 3840 94 48 3e
        E 0 94 4f 3e
        E 5 94 4f 3e
        E 2 94 46 3e
        E 1900 94 4f 3e
        E 2 94 46 3e
        E 1 84 48 00
        E 2 84 4f 00
        E 4 94 4d 3e
        E 1 94 4f 3e
        E 3 84 46 00
        E 22 84 4f 00
        E 1870 84 4f 00
        E 17 84 4f 00
        E 1 84 46 00
        E 1 94 4f 3e
        E 0 94 4f 3e
        E 9 94 44 3e
        E 6 94 4f 3e
        E 6 84 4d 00
        E 1897 94 4f 3e
        E 5 84 4f 00
        E 3 84 4f 00
        E 0 94 4f 3e
        E 3 84 44 00
        E 0 94 4a 3e
        E 22 84 4f 00
        E 1881 84 4a 00
        E 2 84 4f 00
        E 15 84 4f 00
        E 1908 94 4f 3e
        E 0 94 4f 3e
        E 5 94 4f 3e
        E 1 94 4d 3e
        E 2 94 4d 3e
        E 0 94 4f 3e
        E 11 94 4f 3e
        E 1888 84 4f 00
        E 2 84 4f 00
        E 2 84 4d 00
        E 8 84 4f 00
        E 4 84 4d 00
        E 1 94 4f 3e
        E 14 84 4f 00
        E 0 94 37 3e
        E 2 84 4f 00
        E 1891 84 4f 00
        E 21 94 46 3e
        E 10 94 4f 3e
        E 7 84 37 00
        E 1889 94 4f 3e
        E 8 94 4f 3e
        E 5 94 4f 3e
        E 1 84 46 00
        E 8 84 4f 00
        E 5 94 4f 3e
        E 0 94 4c 3e
        E 1877 84 4f 00
        E 18 94 4f 3e
        E 1 94 4f 3e
        E 0 94 4f 3e
        E 2 94 4f 3e
        E 5 84 4f 00
        E 0 94 4f 3e
        E 4 94 46 3e
        E 2 94 4f 3e
        E 6 84 4f 00
        E 5 94 4f 3e
        E 11 84 4f 00
        E 8 84 4c 00
        E 1860 84 4f 00
        E 4 84 4f 00
        E 11 94 4f 3e
        E 4 94 4f 3e
        E 5 84 4f 00
        E 2 84 4f 00
        E 2 84 46 00
        E 0 94 46 3e
        E 4 84 4f 00
        E 2 84 4f 00
        E 0 94 37 3e
        E 5 94 4f 3e
        E 1 94 4d 3e
        E 1 94 4f 3e
        E 1 94 4f 3e
        E 2 84 4f 00
        E 1874 84 4f 00
        E 19 94 4f 3e
        E 1 84 4f 00
        E 2 94 4f 3e
        E 3 94 4f 3e
        E 2 84 4f 00
        E 3 84 46 00
        E 0 94 44 3e
        E 0 94 4f 3e
        E 1 94 48 3e
        E 1 84 4f 00
        E 7 94 4f 3e
        E 2 94 4b 3e
        E 7 84 37 00
        E 8 84 4d 00
        E 3 84 4f 00
        E 1879 94 37 3e
        E 1 84 4f 00
        E 0 84 4f 00
        E 0 94 48 3e
        E 3 84 4f 00
        E 3 84 48 00
        E 3 94 4d 3e
        E 0 94 37 3e
        E 2 84 44 00
        E 0 94 45 3e
        E 1 84 4f 00
        E 2 94 4f 3e
        E 5 84 4f 00
        E 2 94 4f 3e
        E 2 94 4f 3e
        E 8 84 4b 00
        E 1870 84 37 00
        E 10 84 37 00
        E 6 94 4f 3e
        E 3 84 4d 00
        E 2 84 4f 00
        E 3 84 48 00
        E 0 94 4f 3e
        E 1 84 4f 00
        E 2 94 4a 3e
        E 1 94 4f 3e
        E 1 84 4f 00
        E 0 94 4f 3e
        E 1 84 45 00
        E 0 94 45 3e
        E 8 94 4d 3e
        E 3 94 4f 3e
        E 1888 84 4f 00
        E 7 84 4a 00
        E 2 94 39 3e
        E 1 94 4f 3e
        E 3 84 4f 00
        E 6 84 4f 00
        E 0 84 4d 00
        E 2 84 45 00
        E 0 94 45 3e
        E 6 84 4f 00
        E 2 94 4c 3e
        E 1 94 4f 3e
        E 1 84 4f 00
        E 1 94 4d 3e
        E 0 94 4f 3e
        E 1 94 4f 3e
        E 1896 84 39 00
        E 1 94 4a 3e
        E 7 94 4f 3e
        E 4 84 4f 00
        E 0 84 45 00
        E 0 94 4f 3e
        E 0 94 45 3e
        E 1 84 4f 00
        E 4 84 4f 00
        E 2 94 4f 3e
        E 3 84 4c 00
        E 2 94 39 3e
        E 0 94 4f 3e
        E 2 94 4f 3e
        E 7 84 4d 00
        E 9 84 4f 00
        E 1870 84 4a 00
        E 6 94 4f 3e
        E 0 94 4f 3e
        E 3 94 4d 3e
        E 2 94 4f 3e
        E 4 94 39 3e
        E 1 84 4f 00
        E 0 94 4f 3e
        E 4 84 45 00
        E 0 94 45 3e
        E 3 94 4f 3e
        E 3 84 4f 00
        E 1 84 4f 00
        E 8 84 4f 00
        E 6 84 39 00
        E 3 84 4f 00
        E 1868 84 4f 00
        E 6 84 4f 00
        E 4 84 4f 00
        E 4 94 37 3e
        E 5 84 4d 00
        E 2 94 48 3e
        E 0 94 4f 3e
        E 1 94 4f 3e
        E 2 84 4f 00
        E 4 84 45 00
        E 0 94 45 3e
        E 1 94 4f 3e
        E 1 94 4f 3e
        E 6 94 4f 3e
        E 1 84 39 00
        E 6 84 4f 00
        E 1876 84 37 00
        E 8 84 48 00
        E 7 84 4f 00
        E 12 94 4f 3e
        E 2 84 4f 00
        E 0 84 45 00
        E 0 84 4f 00
        E 0 94 46 3e
        E 3 94 4f 3e
        E 1 84 4f 00
        E 0 94 4d 3e
        E 2 94 4f 3e
        E 1 84 4f 00
        E 0 94 4f 3e
        E 2 94 4f 3e
        E 1 94 4f 3e
        E 1897 94 4f 3e
        E 1 84 4f 00
        E 0 94 37 3e
        E 3 84 4f 00
        E 1 84 4f 00
        E 4 84 4f 00
        E 1 94 4f 3e
        E 3 84 46 00
        E 0 94 37 3e
        E 0 94 46 3e
        E 3 94 4f 3e
        E 1 94 4a 3e
        E 2 84 4f 00
        E 3 94 4d 3e
        E 1 84 4d 00
        E 15 84 4f 00
        E 1871 84 4f 00
        E 6 84 37 00
        E 8 94 4f 3e
        E 5 94 37 3e
        E 3 94 4f 3e
        E 0 94 49 3e
        E 2 84 46 00
        E 0 94 4f 3e
        E 0 94 46 3e
        E 1 94 4f 3e
        E 1 84 4f 00
        E 2 84 37 00
        E 5 84 4f 00
        E 4 84 4d 00
        E 0 94 4f 3e
        E 10 84 4a 00
        E 1884 84 4f 00
        E 1 84 4f 00
        E 2 94 4f 3e
        E 2 84 37 00
        E 0 94 39 3e
        E 1 84 4f 00
        E 0 94 4f 3e
        E 4 84 49 00
        E 3 84 46 00
        E 0 94 45 3e
        E 4 94 4c 3e
        E 1 94 4f 3e
        E 4 94 4f 3e
        E 5 94 4f 3e
        E 1 84 4f 00
        E 10 84 4f 00
        E 1874 84 4f 00
        E 10 94 4a 3e
        E 2 84 39 00
        E 4 84 4f 00
        E 1 94 4f 3e
        E 1 84 4f 00
        E 3 84 45 00
        E 0 94 45 3e
        E 0 94 37 3e
        E 1 84 4c 00
        E 0 94 4f 3e
        E 5 94 4f 3e
        E 1 94 4d 3e
        E 1 84 4f 00
        E 2 84 4f 00
        E 4 94 4f 3e
        E 1887 84 37 00
        E 4 84 4a 00
        E 0 84 4f 00
        E 1 94 4f 3e
        E 8 84 4f 00
        E 4 94 4f 3e
        E 2 84 45 00
        E 0 94 46 3e
        E 1 84 4f 00
        E 0 84 4f 00
        E 0 94 4d 3e
        E 6 84 4d 00
        E 1 94 4f 3e
        E 1 94 4d 3e
        E 1 94 4d 3e
        E 4 94 4f 3e
        E 1893 94 4f 3e
        E 6 94 4f 3e
        E 0 94 4f 3e
        E 2 94 4f 3e
        E 1 84 4f 00
        E 0 94 4f 3e
        E 4 84 4f 00
        E 0 84 46 00
        E 0 94 45 40
        E 5 84 4f 00
        E 0 84 4d 00
        E 1 84 4d 00
        E 1 94 37 3e
        E 2 94 48 3e
        E 10 84 4d 00
        E 14 84 4f 00
        E 1864 84 4f 00
        E 3 84 4f 00
        E 12 94 4f 3e
        E 0 94 4f 3e
        E 2 94 4f 3e
        E 1 84 4f 00
        E 2 94 37 3e
        E 3 84 45 00
        E 0 94 43 40
        E 1 84 4f 00
        E 3 94 4f 3e
        E 2 94 4f 3e
        E 3 84 4f 00
        E 5 94 45 3e
        E 5 84 48 00
        E 7 84 37 00
        E 1872 84 4f 00
        E 5 84 4f 00
        E 3 94 48 3e
        E 1 84 4f 00
        E 0 94 4d 3e
        E 2 94 4f 3e
        E 1 94 4f 3e
        E 7 94 37 3e
        E 3 84 4f 00
        E 0 84 43 00
        E 0 94 45 41
        E 1 84 37 00
        E 7 84 4f 00
        E 4 94 4f 3e
        E 1 84 45 00
        E 0 94 4f 3e
        E 1889 84 4f 00
        E 5 94 4f 3e
        E 3 94 4f 3e
        E 1 94 37 3e
        E 5 84 4f 00
        E 0 84 4f 00
        E 0 94 4f 3e
        E 4 84 45 00
        E 0 94 46 41
        E 2 84 48 00
        E 2 84 37 00
        E 0 94 4f 3e
        E 2 84 4d 00
        E 2 94 4f 3e
        E 3 94 4f 3e
        E 12 84 4f 00
        E 1866 84 4f 00
        E 4 84 37 00
        E 10 84 4f 00
        E 6 94 4f 3e
        E 0 94 4f 3e
        E 1 84 4f 00
        E 4 94 37 3e
        E 1 84 4f 00
        E 1 94 37 3e
        E 1 84 4f 00
        E 1 94 4c 3e
        E 2 84 46 00
        E 0 94 45 41
        E 12 94 4f 3e
        E 2 94 4f 3e
        E 9 84 4f 00
        E 1869 84 4f 00
        E 6 84 37 00
        E 1 84 4f 00
        E 0 84 4c 00
        E 10 94 4f 3e
        E 8 94 4f 3e
        E 1 94 37 3e
        E 2 84 45 00
        E 0 94 45 43
        E 5 94 4f 3e
        E 4 94 4f 3e
        E 2 94 4f 3e
        E 1 94 4f 3e
        E 1 84 37 00
        E 7 84 4f 00
        E 12 84 4f 00
        E 1880 84 37 00
        E 8 84 45 00
        E 0 94 45 43
        E 0 94 4f 3e
        E 0 94 4f 3e
        E 1 94 4c 3e
        E 2 94 4f 3e
        E 1 84 4f 00
        E 1 84 4f 00
        E 0 94 4f 3e
        E 1 84 4f 00
        E 2 84 4f 00
        E 2 94 48 3e
        E 3 94 4f 3e
        E 3 84 4f 00
        E 15 84 4f 00
        E 1880 84 4f 00
        E 1 94 37 3e
        E 2 94 4f 3e
        E 1 84 4f 00
        E 0 94 4a 3e
        E 4 84 4f 00
        E 0 94 4f 3e
        E 1 84 45 00
        E 0 84 4f 00
        E 0 94 46 45
        E 3 94 37 3e
        E 2 84 4c 00
        E 4 84 4f 00
        E 1 94 4f 3e
        E 1 94 4f 3e
        E 18 84 48 00
        E 1868 84 4f 00
        E 5 84 37 00
        E 3 84 37 00
        E 4 94 4f 3e
        E 1 94 4a 3e
        E 3 94 4f 3e
        E 3 84 4a 00
        E 4 84 46 00
        E 0 94 45 45
        E 1 94 4a 3e
        E 1 94 4f 3e
        E 8 94 4f 3e
        E 2 94 37 3e
        E 1 84 4f 00
        E 7 84 4f 00
        E 7 84 4f 00
        E 1879 84 4a 00
        E 1 94 4f 3e
        E 4 94 37 3e
        E 2 84 37 00
        E 1 84 4f 00
        E 0 94 4f 3e
        E 1 84 4a 00
        E 5 84 45 00
        E 0 94 37 3e
        E 0 94 43 46
        E 4 84 4f 00
        E 2 84 4f 00
        E 3 94 4f 3e
        E 1 94 4f 3e
        E 2 84 4f 00
        E 0 94 37 3e
        E 1884 84 4f 00
        E 18 84 4f 00
        E 2 84 37 00
        E 1 84 4f 00
        E 3 84 43 00
        E 0 94 43 46
        E 2 94 37 3e
        E 4 84 37 00
        E 0 94 4f 3e
        E 5 94 4f 3e
        E 0 94 4f 3e
        E 0 94 4f 3e
        E 1 94 4a 3e
        E 0 94 4f 3e
        E 3 84 37 00
        E 0 84 4f 00
        E 1893 94 4a 3e
        E 9 94 4f 3e
        E 1 94 37 3e
        E 2 84 43 00
        E 0 94 41 46
        E 1 84 37 00
        E 3 94 37 3e
        E 1 84 4f 00
        E 0 84 4a 00
        E 1 94 46 3e
        E 1 84 4f 00
        E 6 94 4f 3e
        E 1 94 4f 3e
        E 6 84 4f 00
        E 1 84 4f 00
        E 7 84 4f 00
        E 1883 84 46 00
        E 0 94 4f 3e
        E 1 84 4a 00
        E 1 94 4f 3e
        E 1 94 37 3e
        E 3 94 4c 3e
        E 3 84 41 00
        E 0 94 40 48
        E 3 94 37 3e
        E 2 94 4f 3e
        E 2 94 4f 3e
        E 2 84 4f 00
        E 1 84 4f 00
        E 0 84 4f 00
        E 4 84 37 00
        E 0 84 37 00
        E 1885 84 4f 00
        E 7 94 4f 3e
        E 2 94 48 3e
        E 4 84 37 00
        E 0 94 37 3e
        E 1 84 4f 00
        E 1 94 4f 3e
        E 1 84 4f 00
        E 5 84 40 00
        E 0 94 40 48
        E 1 84 37 00
        E 0 94 37 3e
        E 0 94 4f 3e
        E 1 84 4c 00
        E 4 84 4f 00
        E 2 94 4c 3e
        E 1886 84 4f 00
        E 13 84 4f 00
        E 4 84 4f 00
        E 2 94 37 3e
        E 0 94 4f 3e
        E 4 94 37 3e
        E 1 94 4f 3e
        E 2 84 40 00
        E 0 94 41 4a
        E 1 94 4a 3e
        E 3 84 37 00
        E 0 84 4c 00
        E 2 84 48 00
        E 0 94 4f 3e
        E 3 84 37 00
        E 2 94 4f 3e
        E 1887 84 4f 00
        E 11 84 4f 00
        E 4 94 4f 3e
        E 4 84 4a 00
        E 3 84 41 00
        E 0 84 4f 00
        E 0 94 43 4a
        E 1 94 4f 3e
        E 0 94 4f 3e
        E 3 94 48 3e
        E 2 84 37 00
        E 0 94 4f 3e
        E 1 94 37 3e
        E 3 84 37 00
        E 3 94 4f 3e
        E 4 84 4f 00
        E 1890 94 48 3e
        E 4 84 4f 00
        E 1 84 4f 00
        E 2 84 4f 00
        E 6 84 43 00
        E 2 84 48 00
        E 0 94 4f 3e
        E 1 84 4f 00
        E 11 94 4f 3e
        E 12 84 37 00
        E 4 84 4f 00
        E 1865 84 48 00
        E 14 94 3a 3e
        E 18 94 37 3e
        E 11 84 4f 00
        E 7 84 4f 00
        E 1877 84 3a 00
        E 17 94 4d 3e
        E 1 94 46 4b
        E 1 94 4f 3e
        E 8 84 37 00
        E 1 94 4a 3e
        E 1899 94 37 3e
        E 8 84 4a 00
        E 3 84 46 00
        E 9 84 4f 00
        E 9 84 4d 00
        E 1898 94 4d 3e
        E 4 94 48 4d
        E 3 84 37 00
        E 5 94 4f 3e
        E 1902 94 4f 3e
        E 5 94 4f 3e
        E 5 84 48 00
        E 10 94 37 3e
        E 2 84 4d 00
        E 8 84 4f 00
        E 1891 94 4f 3e
        E 3 94 4f 3e
        E 9 84 37 00
        E 0 94 4f 3e
        E 5 84 4f 00
        E 2 84 4f 00
        E 1886 84 4f 00
        E 17 84 4f 00
        E 1 94 4f 3e
        E 4 94 4f 3e
        E 13 94 4f 3e
        E 5 84 4f 00
        E 1888 84 4f 00
        E 2 84 4f 00
        E 1 94 4f 3e
        E 13 94 48 50
        E 8 94 4f 3e
        E 9 84 4f 00
        E 1893 84 4f 00
        E 4 94 4a 3e
        E 2 94 37 3e
        E 4 84 48 00
        E 5 84 4f 00
        E 2 94 4f 3e
        E 1918 84 4a 00
        E 3 84 37 00
        E 5 84 4f 00
        E 0 b4 7b 00
        E 1 ff 2f 00
      >
    >
  >
  <TRACK
    NAME "Bells"
    PEAKCOL 4290756410
    VOLPAN 1.000000 0 1 -1
    MIDIOUT -1
    ISBUS 0 0
    <ITEM
      POSITION 0.001569
      LENGTH 96.465438
      NAME "Bells"
      VOLPAN 1 0 1 -1
      <SOURCE MIDI
        HASDATA 1 960 QN
        E 0 c5 0e 00
        E 2 95 4f 3b
        E 0 95 4a 3b
        E 1 95 48 3b
        E 1919 85 4a 00
        E 384 85 4f 00
        E 769 85 48 00
        E 768 95 3c 6f
        E 0 95 4f 3b
        E 3 95 4a 3b
        E 1916 95 4a 3b
        E 1 95 4d 3b
        E 3 85 4a 00
        E 381 85 4f 00
        E 1535 95 4a 3b
        E 1 85 3c 00
        E 0 85 4d 00
        E 1151 85 4a 00
        E 768 85 4a 00
        E 2 95 4a 40
        E 1918 95 48 3c
        E 1 95 4f 3b
        E 1153 85 4a 00
        E 767 95 3e 6f
        E 2 95 4a 3b
        E 0 95 4d 3b
        E 382 85 4f 00
        E 767 85 48 00
        E 771 85 4d 00
        E 1152 85 4a 00
        E 766 85 3e 00
        E 3841 95 3c 6f
        E 0 95 4f 3b
        E 1 95 4a 3b
        E 0 95 48 3e
        E 1917 95 3c 6f
        E 1 95 48 3b
        E 1 95 4a 3b
        E 0 95 4f 3b
        E 1 85 4a 00
        E 383 85 4f 00
        E 769 85 48 00
        E 766 95 3e 6f
        E 1 85 3c 00
        E 0 85 4a 00
        E 0 95 4a 3b
        E 2 95 4d 3b
        E 382 85 4f 00
        E 767 85 48 00
        E 767 85 3c 00
        E 1 95 3c 6f
        E 0 95 4f 3b
        E 1 95 48 3b
        E 1 95 4a 3b
        E 1 85 4d 00
        E 1150 85 4a 00
        E 766 95 3c 6f
        E 0 95 48 3b
        E 1 85 3e 00
        E 0 95 4a 3b
        E 0 95 4f 3b
        E 2 85 4a 00
        E 382 85 4f 00
        E 769 85 48 00
        E 765 95 3c 6f
        E 1 95 4a 3b
        E 1 85 3c 00
        E 0 85 4a 00
        E 0 95 48 3c
        E 0 95 4f 3b
        E 384 85 4f 00
        E 767 85 48 00
        E 768 85 3c 00
        E 0 85 4a 00
        E 1 95 3c 6f
        E 0 95 4a 3b
        E 1 95 48 3b
        E 1 95 4f 3b
        E 382 85 4f 00
        E 768 85 48 00
        E 766 85 3c 00
        E 0 95 3c 6f
        E 0 95 48 3e
        E 2 85 4a 00
        E 0 95 4a 3b
        E 0 95 4f 3b
        E 386 85 4f 00
        E 767 85 48 00
        E 767 85 3c 00
        E 0 85 4a 00
        E 1 95 3e 6f
        E 0 95 4a 3b
        E 0 95 4d 3b
        E 383 85 4f 00
        E 766 85 48 00
        E 768 85 3c 00
        E 0 95 3c 6f
        E 1 95 48 3b
        E 0 95 4f 3b
        E 0 95 4a 3b
        E 2 85 4d 00
        E 1152 85 4a 00
        E 766 85 4a 00
        E 0 95 3c 6f
        E 1 95 4f 3b
        E 0 95 4a 3b
        E 1 85 3e 00
        E 0 95 48 3c
        E 382 85 4f 00
        E 768 85 48 00
        E 767 85 3c 00
        E 1 95 3c 6f
        E 1 85 4a 00
        E 0 95 48 3b
        E 1 95 4a 3b
        E 1 95 4f 3b
        E 382 85 4f 00
        E 769 85 48 00
        E 766 85 3c 00
        E 0 95 3c 6f
        E 2 85 4a 00
        E 0 95 48 3b
        E 0 95 4f 3b
        E 1 95 4a 3b
        E 384 85 4f 00
        E 766 85 48 00
        E 767 85 3c 00
        E 0 95 3c 6f
        E 0 95 48 3b
        E 0 95 4f 3b
        E 2 95 4a 3b
        E 1 85 4a 00
        E 383 85 4f 00
        E 768 85 48 00
        E 766 85 3c 00
        E 2 85 4a 00
        E 0 95 3c 6f
        E 1 95 48 3b
        E 1 95 4f 3b
        E 0 95 4a 3b
        E 380 85 4f 00
        E 768 85 48 00
        E 768 85 3c 00
        E 0 95 3c 6f
        E 2 95 48 3b
        E 0 95 4a 3b
        E 1 95 4f 3b
        E 1 85 4a 00
        E 384 85 4f 00
        E 767 85 48 00
        E 764 95 3e 6f
        E 0 95 4a 3b
        E 3 85 3c 00
        E 0 85 4a 00
        E 0 95 4d 3b
        E 385 85 4f 00
        E 767 85 48 00
        E 766 85 3c 00
        E 1 95 3c 6f
        E 0 95 4a 3b
        E 1 85 4d 00
        E 0 95 4f 3b
        E 0 95 48 3e
        E 1149 85 4a 00
        E 767 95 3e 6f
        E 1 85 3e 00
        E 0 95 4a 3e
        E 0 95 4d 3b
        E 2 85 4a 00
        E 385 85 4f 00
        E 768 85 48 00
        E 765 85 4d 00
        E 0 95 3c 6f
        E 1 95 48 3b
        E 0 95 4f 3b
        E 1 85 3c 00
        E 0 95 4a 3b
        E 1150 85 4a 00
        E 767 85 3e 00
        E 2 95 3c 6f
        E 0 95 48 3b
        E 0 95 4f 3b
        E 1 85 4a 00
        E 0 95 4a 3b
        E 383 85 4f 00
        E 768 85 48 00
        E 766 95 3e 6f
        E 1 85 3c 00
        E 1 95 4a 3b
        E 0 95 4d 3b
        E 1 85 4a 00
        E 383 85 4f 00
        E 768 85 48 00
        E 767 95 3c 6f
        E 0 95 48 3b
        E 1 85 3c 00
        E 0 85 4d 00
        E 0 95 4a 3b
        E 0 95 4f 3b
        E 1152 85 4a 00
        E 766 85 3e 00
        E 2 85 4a 00
        E 0 95 3e 6f
        E 0 95 4a 3b
        E 1 95 4d 3b
        E 383 85 4f 00
        E 767 85 48 00
        E 767 95 3e 6f
        E 1 85 3c 00
        E 0 95 4a 3b
        E 1 95 4d 3b
        E 1 85 4d 00
        E 1151 85 4a 00
        E 768 85 3e 00
        E 0 85 4d 00
        E 2 95 3c 6f
        E 0 95 48 3b
        E 1 95 4a 3b
        E 1 95 4f 3b
        E 1147 85 4a 00
        E 767 85 3e 00
        E 1 95 3c 6f
        E 1 95 48 3b
        E 1 95 4a 3b
        E 0 95 4f 3b
        E 2 85 4a 00
        E 385 85 4f 00
        E 766 85 48 00
        E 765 95 3c 6f
        E 1 95 4a 3b
        E 0 95 48 3c
        E 0 95 4f 3b
        E 1 85 4a 00
        E 1 85 3c 00
        E 383 85 4f 00
        E 767 85 48 00
        E 767 85 3c 00
        E 1 85 4a 00
        E 0 95 3c 6f
        E 0 95 48 40
        E 2 95 4a 3b
        E 0 95 4f 3b
        E 382 85 4f 00
        E 768 85 48 00
        E 767 85 3c 00
        E 2 95 3c 6f
        E 0 95 4a 3b
        E 1 85 4a 00
        E 0 95 48 3b
        E 1 95 4f 3b
        E 383 85 4f 00
        E 766 85 48 00
        E 768 85 3c 00
        E 0 95 3c 6f
        E 0 95 48 3b
        E 1 85 4a 00
        E 1 95 4a 3b
        E 1 95 4f 3b
        E 384 85 4f 00
        E 767 85 48 00
        E 766 95 48 3b
        E 1 85 3c 00
        E 0 95 4f 3b
        E 1 85 4a 00
        E 385 85 4f 00
        E 765 85 48 00
        E 766 95 3e 6f
        E 1 95 4a 3e
        E 1 85 3c 00
        E 1 95 4d 3b
        E 384 85 4f 00
        E 767 85 48 00
        E 767 95 3c 6f
        E 1 95 48 3b
        E 1 85 4d 00
        E 1150 85 4a 00
        E 767 85 3e 00
        E 1 95 4a 3b
        E 1 95 48 3c
        E 1152 85 48 00
        E 767 85 3c 00
        E 0 85 4a 00
        E 2 95 4a 3b
        E 1151 85 48 00
        E 766 95 3e 6f
        E 3 85 4a 00
        E 3837 85 3e 00
        E 3 95 4f 3b
        E 0 95 4a 3b
        E 2 95 48 40
        E 1918 85 4a 00
        E 1 95 3c 6f
        E 1 95 48 3e
        E 382 85 4f 00
        E 770 85 48 00
        E 767 95 3e 6f
        E 1153 85 48 00
        E 767 85 3c 00
        E 1920 85 3e 00
        E 0 b5 7b 00
        E 1 ff 2f 00
      >
    >
  >
  <TRACK
    NAME "Bass"
    PEAKCOL 4286528191
    VOLPAN 1.000000 0 1 -1
    MIDIOUT -1
    ISBUS 0 0
    <ITEM
      POSITION 0.000000
      LENGTH 94.554545
      NAME "Bass"
      VOLPAN 1 0 1 -1
      <SOURCE MIDI
        HASDATA 1 960 QN
        E 0 c6 2b 00
        E 0 96 24 6f
        E 864 86 24 00
        E 96 96 29 65
        E 864 86 29 00
        E 96 96 26 6f
        E 864 86 26 00
        E 96 96 21 65
        E 864 86 21 00
        E 96 96 24 6f
        E 864 86 24 00
        E 96 96 1f 65
        E 864 86 1f 00
        E 96 96 1c 6f
        E 864 86 1c 00
        E 96 96 21 65
        E 864 86 21 00
        E 96 96 24 6f
        E 864 86 24 00
        E 96 96 28 65
        E 864 86 28 00
        E 96 96 26 6f
        E 864 86 26 00
        E 96 96 28 65
        E 864 86 28 00
        E 96 96 24 6f
        E 864 86 24 00
        E 96 96 26 65
        E 864 86 26 00
        E 96 96 26 6f
        E 864 86 26 00
        E 96 96 21 65
        E 864 86 21 00
        E 96 96 24 6f
        E 864 86 24 00
        E 96 96 28 65
        E 864 86 28 00
        E 96 96 24 6f
        E 864 86 24 00
        E 96 96 24 65
        E 864 86 24 00
        E 96 96 26 6f
        E 864 86 26 00
        E 96 96 29 65
        E 864 86 29 00
        E 96 96 24 6f
        E 864 86 24 00
        E 96 96 26 65
        E 864 86 26 00
        E 96 96 24 6f
        E 864 86 24 00
        E 96 96 24 65
        E 864 86 24 00
        E 96 96 26 6f
        E 864 86 26 00
        E 96 96 29 65
        E 864 86 29 00
        E 96 96 24 6f
        E 864 86 24 00
        E 96 96 26 65
        E 864 86 26 00
        E 96 96 24 6f
        E 864 86 24 00
        E 96 96 26 65
        E 864 86 26 00
        E 96 96 24 6f
        E 864 86 24 00
        E 96 96 24 65
        E 864 86 24 00
        E 96 96 24 6f
        E 864 86 24 00
        E 96 96 24 65
        E 864 86 24 00
        E 96 96 24 6f
        E 864 86 24 00
        E 96 96 1f 65
        E 864 86 1f 00
        E 96 96 1c 6f
        E 864 86 1c 00
        E 96 96 1d 65
        E 864 86 1d 00
        E 96 96 1c 6f
        E 864 86 1c 00
        E 96 96 1d 65
        E 864 86 1d 00
        E 96 96 1c 6f
        E 864 86 1c 00
        E 96 96 1c 65
        E 864 86 1c 00
        E 96 96 1c 6f
        E 864 86 1c 00
        E 96 96 1d 65
        E 864 86 1d 00
        E 96 96 1c 6f
        E 864 86 1c 00
        E 96 96 21 65
        E 864 86 21 00
        E 96 96 24 6f
        E 864 86 24 00
        E 96 96 24 65
        E 864 86 24 00
        E 96 96 24 6f
        E 864 86 24 00
        E 96 96 21 65
        E 864 86 21 00
        E 96 96 24 6f
        E 864 86 24 00
        E 96 96 21 65
        E 864 86 21 00
        E 96 96 26 6f
        E 864 86 26 00
        E 96 96 26 65
        E 864 86 26 00
        E 96 96 24 6f
        E 864 86 24 00
        E 96 96 26 65
        E 864 86 26 00
        E 96 96 26 6f
        E 864 86 26 00
        E 96 96 24 65
        E 864 86 24 00
        E 96 96 24 6f
        E 864 86 24 00
        E 96 96 24 65
        E 864 86 24 00
        E 96 96 24 6f
        E 864 86 24 00
        E 96 96 29 65
        E 864 86 29 00
        E 96 96 26 6f
        E 864 86 26 00
        E 96 96 22 65
        E 864 86 22 00
        E 96 96 24 6f
        E 864 86 24 00
        E 96 96 26 65
        E 864 86 26 00
        E 96 96 26 6f
        E 864 86 26 00
        E 96 96 24 65
        E 864 86 24 00
        E 96 96 26 6f
        E 864 86 26 00
        E 96 96 21 65
        E 864 86 21 00
        E 96 96 24 6f
        E 864 86 24 00
        E 96 96 26 65
        E 864 86 26 00
        E 96 96 24 6f
        E 864 86 24 00
        E 96 96 29 65
        E 864 86 29 00
        E 96 96 24 6f
        E 864 86 24 00
        E 96 96 26 65
        E 864 86 26 00
        E 96 96 24 6f
        E 864 86 24 00
        E 96 96 21 65
        E 864 86 21 00
        E 96 96 24 6f
        E 864 86 24 00
        E 96 96 21 65
        E 864 86 21 00
        E 96 96 24 6f
        E 864 86 24 00
        E 96 96 26 65
        E 864 86 26 00
        E 96 96 24 6f
        E 864 86 24 00
        E 96 96 29 65
        E 864 86 29 00
        E 96 96 26 6f
        E 864 86 26 00
        E 96 96 26 65
        E 864 86 26 00
        E 96 96 24 6f
        E 864 86 24 00
        E 96 96 26 65
        E 864 86 26 00
        E 96 96 24 6f
        E 864 86 24 00
        E 96 96 1f 65
        E 864 86 1f 00
        E 96 96 24 6f
        E 864 86 24 00
        E 96 96 28 65
        E 864 86 28 00
        E 96 96 26 6f
        E 864 86 26 00
        E 96 96 28 65
        E 864 86 28 00
        E 96 96 24 6f
        E 864 86 24 00
        E 96 96 1f 65
        E 864 86 1f 00
        E 96 96 24 6f
        E 864 86 24 00
        E 96 96 28 65
        E 864 86 28 00
        E 96 96 24 6f
        E 864 86 24 00
        E 96 96 28 65
        E 864 86 28 00
        E 96 96 26 6f
        E 864 86 26 00
        E 96 96 29 65
        E 864 86 29 00
        E 0 b6 7b 00
        E 1 ff 2f 00
      >
    >
  >
  <TRACK
    NAME "Pedal"
    PEAKCOL 4284506208
    VOLPAN 1.000000 0 1 -1
    MIDIOUT -1
    ISBUS 0 0
    <ITEM
      POSITION 0.000000
      LENGTH 94.554545
      NAME "Pedal"
      VOLPAN 1 0 1 -1
      <SOURCE MIDI
        HASDATA 1 960 QN
        E 0 c7 2b 00
        E 0 97 24 62
        E 864 87 24 00
        E 96 97 1f 5b
        E 864 87 1f 00
        E 96 97 1c 62
        E 864 87 1c 00
        E 96 97 1c 5b
        E 864 87 1c 00
        E 96 97 1c 62
        E 864 87 1c 00
        E 96 97 1c 5b
        E 864 87 1c 00
        E 96 97 1c 62
        E 864 87 1c 00
        E 96 97 1d 5b
        E 864 87 1d 00
        E 96 97 1c 62
        E 864 87 1c 00
        E 96 97 1c 5b
        E 864 87 1c 00
        E 96 97 1c 62
        E 864 87 1c 00
        E 96 97 1c 5b
        E 864 87 1c 00
        E 96 97 1c 62
        E 864 87 1c 00
        E 96 97 22 5b
        E 864 87 22 00
        E 96 97 26 62
        E 864 87 26 00
        E 96 97 24 5b
        E 864 87 24 00
        E 96 97 24 62
        E 864 87 24 00
        E 96 97 21 5b
        E 864 87 21 00
        E 96 97 24 62
        E 864 87 24 00
        E 96 97 22 5b
        E 864 87 22 00
        E 96 97 26 62
        E 864 87 26 00
        E 96 97 29 5b
        E 864 87 29 00
        E 96 97 24 62
        E 864 87 24 00
        E 96 97 1f 5b
        E 864 87 1f 00
        E 96 97 24 62
        E 864 87 24 00
        E 96 97 1f 5b
        E 864 87 1f 00
        E 96 97 1c 62
        E 864 87 1c 00
        E 96 97 1f 5b
        E 864 87 1f 00
        E 96 97 24 62
        E 864 87 24 00
        E 96 97 26 5b
        E 864 87 26 00
        E 96 97 24 62
        E 864 87 24 00
        E 96 97 21 5b
        E 864 87 21 00
        E 96 97 24 62
        E 864 87 24 00
        E 96 97 29 5b
        E 864 87 29 00
        E 96 97 24 62
        E 864 87 24 00
        E 96 97 22 5b
        E 864 87 22 00
        E 96 97 24 62
        E 864 87 24 00
        E 96 97 28 5b
        E 864 87 28 00
        E 96 97 26 62
        E 864 87 26 00
        E 96 97 26 5b
        E 864 87 26 00
        E 96 97 24 62
        E 864 87 24 00
        E 96 97 24 5b
        E 864 87 24 00
        E 96 97 24 62
        E 864 87 24 00
        E 96 97 1f 5b
        E 864 87 1f 00
        E 96 97 24 62
        E 864 87 24 00
        E 96 97 29 5b
        E 864 87 29 00
        E 96 97 24 62
        E 864 87 24 00
        E 96 97 21 5b
        E 864 87 21 00
        E 96 97 24 62
        E 864 87 24 00
        E 96 97 28 5b
        E 864 87 28 00
        E 96 97 24 62
        E 864 87 24 00
        E 96 97 24 5b
        E 864 87 24 00
        E 96 97 24 62
        E 864 87 24 00
        E 96 97 29 5b
        E 864 87 29 00
        E 96 97 26 62
        E 864 87 26 00
        E 96 97 22 5b
        E 864 87 22 00
        E 96 97 24 62
        E 864 87 24 00
        E 96 97 24 5b
        E 864 87 24 00
        E 96 97 26 62
        E 864 87 26 00
        E 96 97 29 5b
        E 864 87 29 00
        E 96 97 24 62
        E 864 87 24 00
        E 96 97 22 5b
        E 864 87 22 00
        E 96 97 24 62
        E 864 87 24 00
        E 96 97 24 5b
        E 864 87 24 00
        E 96 97 26 62
        E 864 87 26 00
        E 96 97 22 5b
        E 864 87 22 00
        E 96 97 24 62
        E 864 87 24 00
        E 96 97 21 5b
        E 864 87 21 00
        E 96 97 26 62
        E 864 87 26 00
        E 96 97 24 5b
        E 864 87 24 00
        E 96 97 26 62
        E 864 87 26 00
        E 96 97 21 5b
        E 864 87 21 00
        E 96 97 24 62
        E 864 87 24 00
        E 96 97 24 5b
        E 864 87 24 00
        E 96 97 24 62
        E 864 87 24 00
        E 96 97 22 5b
        E 864 87 22 00
        E 96 97 24 62
        E 864 87 24 00
        E 96 97 28 5b
        E 864 87 28 00
        E 96 97 24 62
        E 864 87 24 00
        E 96 97 21 5b
        E 864 87 21 00
        E 96 97 24 62
        E 864 87 24 00
        E 96 97 22 5b
        E 864 87 22 00
        E 96 97 24 62
        E 864 87 24 00
        E 96 97 1f 5b
        E 864 87 1f 00
        E 96 97 24 62
        E 864 87 24 00
        E 96 97 29 5b
        E 864 87 29 00
        E 96 97 26 62
        E 864 87 26 00
        E 96 97 28 5b
        E 864 87 28 00
        E 96 97 24 62
        E 864 87 24 00
        E 96 97 1f 5b
        E 864 87 1f 00
        E 96 97 24 62
        E 864 87 24 00
        E 96 97 24 5b
        E 864 87 24 00
        E 96 97 24 62
        E 864 87 24 00
        E 96 97 28 5b
        E 864 87 28 00
        E 96 97 26 62
        E 864 87 26 00
        E 96 97 29 5b
        E 864 87 29 00
        E 96 97 24 62
        E 864 87 24 00
        E 96 97 21 5b
        E 864 87 21 00
        E 96 97 24 62
        E 864 87 24 00
        E 96 97 28 5b
        E 864 87 28 00
        E 96 97 24 62
        E 864 87 24 00
        E 96 97 21 5b
        E 864 87 21 00
        E 96 97 26 62
        E 864 87 26 00
        E 96 97 21 5b
        E 864 87 21 00
        E 0 b7 7b 00
        E 1 ff 2f 00
      >
    >
  >
>
