<REAPER_PROJECT 0.1 "7.0" 1700000000
  TEMPO 126.000000 4 4
  SAMPLERATE 48000 0 0
  RENDER_FILE ""
  RENDER_FMT 0 2 0
  RENDER_1X 0
  RENDER_RANGE 1 0 44.047619 0 0
  RENDER_RESAMPLE 3 0 1
  <MASTERTRACK
    VOLPAN 1 0 1 -1
    DEFCHAN 0
  >
  <TRACK
    NAME "Lead"
    PEAKCOL 4284506208
    VOLPAN 1.000000 0 1 -1
    MIDIOUT -1
    ISBUS 0 0
    <ITEM
      POSITION 0.000000
      LENGTH 40.101549
      NAME "Lead"
      VOLPAN 1 0 1 -1
      <SOURCE MIDI
        HASDATA 1 960 QN
        E 0 c0 44 00
        E 0 90 4c 60
        E 751 90 4c 4a
        E 309 80 4c 00
        E 181 90 4e 4a
        E 207 80 4c 00
        E 33 80 4e 00
        E 250 90 51 4a
        E 177 80 51 00
        E 187 90 4f 4a
        E 760 90 51 51
        E 203 80 4f 00
        E 431 80 51 00
        E 121 90 53 4a
        E 505 90 54 4a
        E 129 80 53 00
        E 505 80 54 00
        E 224 90 51 4a
        E 617 90 53 4a
        E 17 80 51 00
        E 364 90 51 4a
        E 253 80 53 00
        E 381 80 51 00
        E 108 90 4f 57
        E 757 90 51 4a
        E 110 80 4f 00
        E 461 80 51 00
        E 539 90 4f 4e
        E 625 90 51 4a
        E 72 80 4f 00
        E 281 80 51 00
        E 743 90 51 4a
        E 385 90 4f 4a
        E 249 80 51 00
        E 385 80 4f 00
        E 131 90 51 4a
        E 634 80 51 00
        E 107 90 53 4a
        E 490 90 54 4a
        E 144 80 53 00
        E 96 80 54 00
        E 251 90 58 4a
        E 634 80 58 00
        E 3 90 56 4a
        E 623 90 56 51
        E 11 80 56 00
        E 560 80 56 00
        E 416 90 54 62
        E 518 90 51 4e
        E 53 80 54 00
        E 124 80 51 00
        E 665 90 51 4a
        E 319 90 54 4a
        E 240 80 54 00
        E 78 90 58 4a
        E 60 80 51 00
        E 574 80 58 00
        E 108 90 54 51
        E 634 80 54 00
        E 121 90 54 4a
        E 634 80 54 00
        E 110 90 56 4a
        E 566 90 54 4a
        E 68 80 56 00
        E 172 80 54 00
        E 325 90 51 4a
        E 634 80 51 00
        E 106 90 53 4a
        E 289 80 53 00
        E 451 90 54 4a
        E 571 80 54 00
        E 177 90 53 4a
        E 571 80 53 00
        E 655 90 54 4a
        E 697 80 54 00
        E 67 90 54 52
        E 634 80 54 00
        E 85 90 54 4a
        E 388 90 56 4a
        E 246 80 54 00
        E 388 80 56 00
        E 121 90 56 4a
        E 556 90 54 4a
        E 78 80 56 00
        E 162 80 54 00
        E 316 90 51 4a
        E 634 80 51 00
        E 500 90 53 4a
        E 634 80 53 00
        E 103 90 54 4a
        E 571 80 54 00
        E 174 90 58 4a
        E 145 80 58 00
        E 1340 90 54 4a
        E 618 90 54 6b
        E 79 80 54 00
        E 433 90 54 4a
        E 122 80 54 00
        E 512 80 54 00
        E 218 90 54 58
        E 629 90 53 4a
        E 5 80 54 00
        E 629 80 53 00
        E 230 90 4f 65
        E 642 80 4f 00
        E 8 90 51 4a
        E 486 90 54 4a
        E 148 80 51 00
        E 92 80 54 00
        E 246 90 58 4a
        E 254 90 54 4a
        E 35 80 58 00
        E 205 80 54 00
        E 14 90 51 4a
        E 571 80 51 00
        E 1033 90 53 4e
        E 530 80 53 00
        E 208 90 51 4a
        E 161 80 51 00
        E 943 90 53 4a
        E 404 90 54 4a
        E 230 80 53 00
        E 404 80 54 00
        E 105 90 54 6b
        E 744 90 54 4a
        E 482 80 54 00
        E 59 80 54 00
        E 451 90 56 4a
        E 321 80 56 00
        E 160 90 56 4a
        E 397 90 54 4a
        E 571 80 54 00
        E 189 90 58 4a
        E 128 80 56 00
        E 17 90 56 4a
        E 144 80 58 00
        E 1 90 53 4a
        E 95 80 56 00
        E 50 90 51 4a
        E 95 80 53 00
        E 50 90 4e 4a
        E 95 80 51 00
        E 50 90 4c 4a
        E 95 80 4e 00
        E 602 80 4c 00
        E 60 90 4f 58
        E 707 80 4f 00
        E 32 90 4e 4a
        E 161 80 4e 00
        E 593 90 4c 4a
        E 251 90 4f 4a
        E 240 80 4f 00
        E 11 90 51 4a
        E 132 80 4c 00
        E 108 80 51 00
        E 11 90 54 62
        E 634 80 54 00
        E 113 90 53 4a
        E 634 80 53 00
        E 476 90 54 4f
        E 634 80 54 00
        E 241 90 54 4a
        E 618 90 53 52
        E 16 80 54 00
        E 555 80 53 00
        E 197 90 54 4a
        E 571 80 54 00
        E 155 90 51 4a
        E 697 80 51 00
        E 43 90 53 4a
        E 697 80 53 00
        E 53 90 51 65
        E 749 90 4f 4a
        E 240 80 4f 00
        E 296 80 51 00
        E 213 90 4c 4a
        E 634 80 4c 00
        E 118 90 4e 57
        E 244 90 4c 51
        E 169 90 4f 4a
        E 168 90 51 4a
        E 53 80 4e 00
        E 19 80 4f 00
        E 97 90 54 58
        E 71 80 51 00
        E 57 80 4c 00
        E 506 80 54 00
        E 118 90 51 4f
        E 634 80 51 00
        E 99 90 53 4a
        E 434 80 53 00
        E 333 90 51 4a
        E 571 80 51 00
        E 161 90 4f 4a
        E 353 80 4f 00
        E 391 90 4f 4c
        E 697 80 4f 00
        E 422 90 4c 4a
        E 634 80 4c 00
        E 113 90 4e 4c
        E 763 90 4c 4a
        E 200 80 4e 00
        E 42 90 4f 4a
        E 240 80 4f 00
        E 2 90 51 4a
        E 150 80 4c 00
        E 90 80 51 00
        E 3 90 54 5f
        E 634 80 54 00
        E 130 90 53 4a
        E 634 80 53 00
        E 98 90 54 55
        E 321 80 54 00
        E 662 90 51 4a
        E 512 90 53 4a
        E 59 80 51 00
        E 86 80 53 00
        E 600 90 51 4a
        E 697 80 51 00
        E 51 90 4f 4a
        E 353 80 4f 00
        E 646 90 4f 4a
        E 499 90 4c 4a
        E 135 80 4f 00
        E 347 80 4c 00
        E 268 90 4e 4f
        E 161 80 4e 00
        E 573 90 4c 4a
        E 336 90 4f 4a
        E 240 80 4f 00
        E 58 80 4c 00
        E 38 90 51 4a
        E 240 80 51 00
        E 96 90 54 4a
        E 372 90 53 4a
        E 262 80 54 00
        E 237 90 56 4a
        E 135 80 53 00
        E 499 80 56 00
        E 109 90 54 4a
        E 571 80 54 00
        E 178 90 54 4a
        E 289 80 54 00
        E 821 90 53 52
        E 697 80 53 00
        E 44 90 51 4a
        E 618 90 4f 4a
        E 79 80 51 00
        E 303 90 53 4a
        E 252 80 4f 00
        E 273 90 51 4a
        E 109 80 53 00
        E 525 80 51 00
        E 0 b0 7b 00
        E 1 ff 2f 00
      >
    >
  >
  <TRACK
    NAME "Counter"
    PEAKCOL 4284506208
    VOLPAN 1.000000 0 1 -1
    MIDIOUT -1
    ISBUS 0 0
    <ITEM
      POSITION 0.000000
      LENGTH 36.252381
      NAME "Counter"
      VOLPAN 1 0 1 -1
      <SOURCE MIDI
        HASDATA 1 960 QN
        E 0 c1 47 00
        E 0 91 49 41
        E 3763 81 49 00
        E 7757 91 48 41
        E 3763 81 48 00
        E 77 91 48 41
        E 3763 81 48 00
        E 3917 91 3c 46
        E 3763 81 3c 00
        E 77 91 3c 46
        E 0 91 48 41
        E 3763 81 3c 00
        E 0 81 48 00
        E 77 91 3c 46
        E 0 91 48 41
        E 3763 81 3c 00
        E 0 81 48 00
        E 77 91 3c 46
        E 0 91 48 41
        E 3763 81 3c 00
        E 0 81 48 00
        E 77 91 3d 46
        E 0 91 49 41
        E 3763 81 3d 00
        E 0 81 49 00
        E 77 91 3c 46
        E 0 91 48 41
        E 3763 81 3c 00
        E 0 81 48 00
        E 77 91 3e 46
        E 0 91 4a 41
        E 3763 81 3e 00
        E 0 81 4a 00
        E 77 91 3c 46
        E 0 91 48 41
        E 3763 81 3c 00
        E 0 81 48 00
        E 77 91 3c 46
        E 0 91 48 41
        E 3763 81 3c 00
        E 0 81 48 00
        E 77 91 3c 46
        E 0 91 48 41
        E 3763 81 3c 00
        E 0 81 48 00
        E 7757 91 4a 41
        E 3763 81 4a 00
        E 0 b1 7b 00
        E 1 ff 2f 00
      >
    >
  >
  <TRACK
    NAME "Pizzicato"
    PEAKCOL 4284186559
    VOLPAN 1.000000 0 1 -1
    MIDIOUT -1
    ISBUS 0 0
    <ITEM
      POSITION 0.955567
      LENGTH 35.453564
      NAME "Pizzicato"
      VOLPAN 1 0 1 -1
      <SOURCE MIDI
        HASDATA 1 960 QN
        E 0 c2 29 00
        E 1926 92 3e 4f
        E 230 82 3e 00
        E 11292 92 42 4f
        E 230 82 42 00
        E 3605 92 40 54
        E 230 82 40 00
        E 5530 92 48 54
        E 230 82 48 00
        E 1687 92 45 54
        E 230 82 45 00
        E 1704 92 48 51
        E 230 82 48 00
        E 1678 92 45 54
        E 230 82 45 00
        E 1690 92 43 54
        E 230 82 43 00
        E 1692 92 48 52
        E 230 82 48 00
        E 1690 92 48 4f
        E 230 82 48 00
        E 1699 92 45 52
        E 230 82 45 00
        E 1691 92 4a 51
        E 230 82 4a 00
        E 1678 92 4c 4f
        E 230 82 4c 00
        E 1697 92 51 52
        E 230 82 51 00
        E 1686 92 54 52
        E 230 82 54 00
        E 1694 92 54 4f
        E 230 82 54 00
        E 1687 92 54 54
        E 230 82 54 00
        E 1695 92 54 4f
        E 230 82 54 00
        E 1680 92 53 52
        E 230 82 53 00
        E 1692 92 51 52
        E 230 82 51 00
        E 1694 92 4c 52
        E 230 82 4c 00
        E 1690 92 4f 4f
        E 230 82 4f 00
        E 1695 92 51 4f
        E 230 82 51 00
        E 13207 92 4f 51
        E 230 82 4f 00
        E 0 b2 7b 00
        E 1 ff 2f 00
      >
    >
  >
  <TRACK
    NAME "Oboe"
    PEAKCOL 4282040170
    VOLPAN 1.000000 0 1 -1
    MIDIOUT -1
    ISBUS 0 0
    <ITEM
      POSITION 3.814302
      LENGTH 31.765351
      NAME "Oboe"
      VOLPAN 1 0 1 -1
      <SOURCE MIDI
        HASDATA 1 960 QN
        E 0 c3 44 00
        E 7690 93 4f 5c
        E 480 83 4f 00
        E 14871 93 58 5d
        E 480 83 58 00
        E 1446 93 5b 5d
        E 480 83 5b 00
        E 3361 93 5b 5d
        E 480 83 5b 00
        E 1441 93 5b 5d
        E 480 83 5b 00
        E 1432 93 56 5c
        E 480 83 56 00
        E 3362 93 53 5d
        E 480 83 53 00
        E 1437 93 54 5d
        E 480 83 54 00
        E 1445 93 51 5d
        E 480 83 51 00
        E 3358 93 54 5d
        E 480 83 54 00
        E 1440 93 58 5d
        E 480 83 58 00
        E 1447 93 54 5d
        E 480 83 54 00
        E 3361 93 56 5d
        E 480 83 56 00
        E 1437 93 54 5d
        E 480 83 54 00
        E 1434 93 4f 5c
        E 480 83 4f 00
        E 3362 93 54 5d
        E 480 83 54 00
        E 3357 93 58 5d
        E 480 83 58 00
        E 7206 93 5b 5d
        E 480 83 5b 00
        E 0 b3 7b 00
        E 1 ff 2f 00
      >
    >
  >
  <TRACK
    NAME "Clarinet"
    PEAKCOL 4282040170
    VOLPAN 1.000000 0 1 -1
    MIDIOUT -1
    ISBUS 0 0
    <ITEM
      POSITION 0.952625
      LENGTH 31.771084
      NAME "Clarinet"
      VOLPAN 1 0 1 -1
      <SOURCE MIDI
        HASDATA 1 960 QN
        E 0 c4 47 00
        E 1920 94 3e 5d
        E 480 84 3e 00
        E 14888 94 47 5d
        E 480 84 47 00
        E 5283 94 4f 5d
        E 480 84 4f 00
        E 1432 94 54 5d
        E 480 84 54 00
        E 1442 94 51 5d
        E 480 84 51 00
        E 3362 94 4c 5d
        E 480 84 4c 00
        E 1438 94 48 5d
        E 480 84 48 00
        E 1443 94 43 5d
        E 480 84 43 00
        E 3355 94 48 5d
        E 480 84 48 00
        E 1446 94 47 5d
        E 480 84 47 00
        E 1436 94 4c 5d
        E 480 84 4c 00
        E 3357 94 4a 5d
        E 480 84 4a 00
        E 1444 94 48 5d
        E 480 84 48 00
        E 1440 94 43 5d
        E 480 84 43 00
        E 3362 94 48 5d
        E 480 84 48 00
        E 1438 94 43 5d
        E 480 84 43 00
        E 1445 94 47 5d
        E 480 84 47 00
        E 7198 94 43 5d
        E 480 84 43 00
        E 0 b4 7b 00
        E 1 ff 2f 00
      >
    >
  >
  <TRACK
    NAME "Mallet"
    PEAKCOL 4290756410
    VOLPAN 1.000000 0 1 -1
    MIDIOUT -1
    ISBUS 0 0
    <ITEM
      POSITION 0.146429
      LENGTH 36.378333
      NAME "Mallet"
      VOLPAN 1 0 1 -1
      <SOURCE MIDI
        HASDATA 1 960 QN
        E 0 c5 0d 00
        E 295 95 3e 4f
        E 177 85 3e 00
        E 3663 95 3c 47
        E 177 85 3c 00
        E 3663 95 3c 4f
        E 177 85 3c 00
        E 5288 95 3c 4f
        E 177 85 3c 00
        E 32463 95 3c 4a
        E 177 85 3c 00
        E 118 95 3c 4c
        E 177 85 3c 00
        E 1448 95 3e 4e
        E 177 85 3e 00
        E 118 95 3c 4a
        E 177 85 3c 00
        E 11048 95 3c 4a
        E 177 85 3c 00
        E 118 95 3c 4a
        E 177 85 3c 00
        E 118 95 3e 47
        E 177 85 3e 00
        E 119 95 3e 4f
        E 177 85 3e 00
        E 3072 95 3e 49
        E 177 85 3e 00
        E 9128 95 3e 46
        E 177 85 3e 00
        E 118 95 3c 44
        E 177 85 3c 00
        E 0 b5 7b 00
        E 1 ff 2f 00
      >
    >
  >
  <TRACK
    NAME "Glock"
    PEAKCOL 4290756410
    VOLPAN 1.000000 0 1 -1
    MIDIOUT -1
    ISBUS 0 0
    <ITEM
      POSITION 3.095238
      LENGTH 39.052381
      NAME "Glock"
      VOLPAN 1 0 1 -1
      <SOURCE MIDI
        HASDATA 1 960 QN
        E 0 c6 09 00
        E 6240 96 68 4f
        E 288 86 68 00
        E 2592 96 68 52
        E 288 86 68 00
        E 672 96 68 52
        E 288 86 68 00
        E 1152 96 68 52
        E 288 86 68 00
        E 3072 96 68 52
        E 288 86 68 00
        E 3072 96 68 4e
        E 288 86 68 00
        E 192 96 68 4f
        E 288 86 68 00
        E 5472 96 68 52
        E 288 86 68 00
        E 192 96 68 52
        E 288 86 68 00
        E 192 96 68 4f
        E 288 86 68 00
        E 192 96 68 4e
        E 288 86 68 00
        E 192 96 68 52
        E 288 86 68 00
        E 192 96 68 52
        E 288 86 68 00
        E 192 96 68 52
        E 288 86 68 00
        E 192 96 68 52
        E 288 86 68 00
        E 192 96 68 52
        E 288 86 68 00
        E 192 96 68 52
        E 288 86 68 00
        E 192 96 68 52
        E 288 86 68 00
        E 192 96 68 52
        E 288 86 68 00
        E 192 96 68 52
        E 288 86 68 00
        E 192 96 68 52
        E 288 86 68 00
        E 192 96 68 52
        E 288 86 68 00
        E 192 96 68 52
        E 288 86 68 00
        E 192 96 68 52
        E 288 86 68 00
        E 192 96 68 52
        E 288 86 68 00
        E 192 96 68 4f
        E 288 86 68 00
        E 192 96 68 52
        E 288 86 68 00
        E 192 96 68 52
        E 288 86 68 00
        E 192 96 68 4e
        E 288 86 68 00
        E 192 96 68 52
        E 288 86 68 00
        E 192 96 68 52
        E 288 86 68 00
        E 192 96 68 52
        E 288 86 68 00
        E 192 96 68 52
        E 288 86 68 00
        E 192 96 68 52
        E 288 86 68 00
        E 192 96 68 52
        E 288 86 68 00
        E 192 96 68 52
        E 288 86 68 00
        E 192 96 68 52
        E 288 86 68 00
        E 192 96 68 4e
        E 288 86 68 00
        E 192 96 68 4e
        E 288 86 68 00
        E 192 96 68 52
        E 288 86 68 00
        E 192 96 68 52
        E 288 86 68 00
        E 192 96 68 4e
        E 288 86 68 00
        E 192 96 68 52
        E 288 86 68 00
        E 192 96 68 52
        E 288 86 68 00
        E 192 96 68 52
        E 288 86 68 00
        E 192 96 68 52
        E 288 86 68 00
        E 192 96 68 52
        E 288 86 68 00
        E 192 96 68 51
        E 288 86 68 00
        E 192 96 68 4f
        E 288 86 68 00
        E 192 96 68 52
        E 288 86 68 00
        E 192 96 68 52
        E 288 86 68 00
        E 192 96 68 4f
        E 288 86 68 00
        E 192 96 68 52
        E 288 86 68 00
        E 192 96 68 52
        E 288 86 68 00
        E 192 96 68 52
        E 288 86 68 00
        E 192 96 68 52
        E 288 86 68 00
        E 192 96 68 52
        E 288 86 68 00
        E 192 96 68 52
        E 288 86 68 00
        E 192 96 68 52
        E 288 86 68 00
        E 192 96 68 52
        E 288 86 68 00
        E 192 96 68 52
        E 288 86 68 00
        E 192 96 68 52
        E 288 86 68 00
        E 192 96 68 52
        E 288 86 68 00
        E 192 96 68 52
        E 288 86 68 00
        E 192 96 68 4e
        E 288 86 68 00
        E 192 96 68 52
        E 288 86 68 00
        E 192 96 68 52
        E 288 86 68 00
        E 192 96 68 52
        E 288 86 68 00
        E 192 96 68 52
        E 288 86 68 00
        E 192 96 68 52
        E 288 86 68 00
        E 192 96 68 52
        E 288 86 68 00
        E 192 96 68 52
        E 288 86 68 00
        E 192 96 68 4e
        E 288 86 68 00
        E 192 96 68 4f
        E 288 86 68 00
        E 192 96 68 51
        E 288 86 68 00
        E 192 96 68 4f
        E 288 86 68 00
        E 192 96 68 52
        E 288 86 68 00
        E 192 96 68 52
        E 288 86 68 00
        E 192 96 68 52
        E 288 86 68 00
        E 192 96 68 52
        E 288 86 68 00
        E 192 96 68 52
        E 288 86 68 00
        E 192 96 68 52
        E 288 86 68 00
        E 1152 96 68 52
        E 288 86 68 00
        E 1152 96 68 52
        E 288 86 68 00
        E 10752 96 68 52
        E 288 86 68 00
        E 9792 96 68 52
        E 288 86 68 00
        E 192 96 68 4f
        E 288 86 68 00
        E 0 b6 7b 00
        E 1 ff 2f 00
      >
    >
  >
  <TRACK
    NAME "Bass"
    PEAKCOL 4286528191
    VOLPAN 1.000000 0 1 -1
    MIDIOUT -1
    ISBUS 0 0
    <ITEM
      POSITION 0.000000
      LENGTH 39.675238
      NAME "Bass"
      VOLPAN 1 0 1 -1
      <SOURCE MIDI
        HASDATA 1 960 QN
        E 0 c7 2b 00
        E 0 97 24 71
        E 104 87 24 00
        E 856 97 24 71
        E 104 87 24 00
        E 856 97 26 71
        E 104 87 26 00
        E 856 97 21 71
        E 104 87 21 00
        E 856 97 24 71
        E 104 87 24 00
        E 856 97 26 71
        E 104 87 26 00
        E 856 97 24 71
        E 104 87 24 00
        E 856 97 24 71
        E 104 87 24 00
        E 856 97 26 71
        E 104 87 26 00
        E 856 97 2a 71
        E 104 87 2a 00
        E 856 97 30 71
        E 104 87 30 00
        E 856 97 36 71
        E 104 87 36 00
        E 856 97 37 71
        E 104 87 37 00
        E 856 97 37 71
        E 104 87 37 00
        E 856 97 32 71
        E 104 87 32 00
        E 856 97 30 71
        E 104 87 30 00
        E 856 97 30 71
        E 104 87 30 00
        E 856 97 36 71
        E 104 87 36 00
        E 856 97 37 71
        E 104 87 37 00
        E 856 97 37 71
        E 104 87 37 00
        E 856 97 37 71
        E 104 87 37 00
        E 856 97 37 71
        E 104 87 37 00
        E 856 97 37 71
        E 104 87 37 00
        E 856 97 37 71
        E 104 87 37 00
        E 856 97 37 71
        E 104 87 37 00
        E 856 97 37 71
        E 104 87 37 00
        E 856 97 37 71
        E 104 87 37 00
        E 856 97 37 71
        E 104 87 37 00
        E 856 97 37 71
        E 104 87 37 00
        E 856 97 37 71
        E 104 87 37 00
        E 856 97 37 71
        E 104 87 37 00
        E 856 97 36 71
        E 104 87 36 00
        E 856 97 37 71
        E 104 87 37 00
        E 856 97 37 71
        E 104 87 37 00
        E 856 97 37 71
        E 104 87 37 00
        E 856 97 37 71
        E 104 87 37 00
        E 856 97 37 71
        E 104 87 37 00
        E 856 97 37 71
        E 104 87 37 00
        E 856 97 37 71
        E 104 87 37 00
        E 856 97 37 71
        E 104 87 37 00
        E 856 97 37 71
        E 104 87 37 00
        E 856 97 37 71
        E 104 87 37 00
        E 856 97 37 71
        E 104 87 37 00
        E 856 97 37 71
        E 104 87 37 00
        E 856 97 37 71
        E 104 87 37 00
        E 856 97 37 71
        E 104 87 37 00
        E 856 97 37 71
        E 104 87 37 00
        E 856 97 37 71
        E 104 87 37 00
        E 856 97 32 71
        E 104 87 32 00
        E 856 97 2f 71
        E 104 87 2f 00
        E 856 97 30 71
        E 104 87 30 00
        E 856 97 2b 71
        E 104 87 2b 00
        E 856 97 30 71
        E 104 87 30 00
        E 856 97 2f 71
        E 104 87 2f 00
        E 856 97 30 71
        E 104 87 30 00
        E 856 97 2f 71
        E 104 87 2f 00
        E 856 97 30 71
        E 104 87 30 00
        E 856 97 2d 71
        E 104 87 2d 00
        E 856 97 30 71
        E 104 87 30 00
        E 856 97 2b 71
        E 104 87 2b 00
        E 856 97 30 71
        E 104 87 30 00
        E 856 97 30 71
        E 104 87 30 00
        E 856 97 34 71
        E 104 87 34 00
        E 856 97 34 71
        E 104 87 34 00
        E 856 97 32 71
        E 104 87 32 00
        E 856 97 34 71
        E 104 87 34 00
        E 856 97 34 71
        E 104 87 34 00
        E 856 97 32 71
        E 104 87 32 00
        E 856 97 30 71
        E 104 87 30 00
        E 856 97 30 71
        E 104 87 30 00
        E 856 97 30 71
        E 104 87 30 00
        E 856 97 36 71
        E 104 87 36 00
        E 856 97 32 71
        E 104 87 32 00
        E 856 97 2f 71
        E 104 87 2f 00
        E 856 97 32 71
        E 104 87 32 00
        E 856 97 2f 71
        E 104 87 2f 00
        E 856 97 30 71
        E 104 87 30 00
        E 856 97 2d 71
        E 104 87 2d 00
        E 856 97 30 71
        E 104 87 30 00
        E 856 97 36 71
        E 104 87 36 00
        E 856 97 37 71
        E 104 87 37 00
        E 856 97 37 71
        E 104 87 37 00
        E 856 97 37 71
        E 104 87 37 00
        E 856 97 37 71
        E 104 87 37 00
        E 0 b7 7b 00
        E 1 ff 2f 00
      >
    >
  >
  <TRACK
    NAME "Pedal"
    PEAKCOL 4284506208
    VOLPAN 1.000000 0 1 -1
    MIDIOUT -1
    ISBUS 0 0
    <ITEM
      POSITION 0.000000
      LENGTH 40.100000
      NAME "Pedal"
      VOLPAN 1 0 1 -1
      <SOURCE MIDI
        HASDATA 1 960 QN
        E 0 c8 2b 00
        E 0 98 21 3e
        E 1920 88 21 00
        E 0 98 21 3e
        E 1920 88 21 00
        E 0 98 21 3e
        E 1920 88 21 00
        E 0 98 21 3e
        E 1920 88 21 00
        E 0 98 21 3e
        E 1920 88 21 00
        E 0 98 21 3e
        E 1920 88 21 00
        E 0 98 21 3e
        E 1920 88 21 00
        E 0 98 21 3e
        E 1920 88 21 00
        E 0 98 21 3e
        E 1920 88 21 00
        E 0 98 21 3e
        E 1920 88 21 00
        E 0 98 21 3e
        E 1920 88 21 00
        E 0 98 21 3e
        E 1920 88 21 00
        E 0 98 21 3e
        E 1920 88 21 00
        E 0 98 21 3e
        E 1920 88 21 00
        E 0 98 21 3e
        E 1920 88 21 00
        E 0 98 21 3e
        E 1920 88 21 00
        E 0 98 21 3e
        E 1920 88 21 00
        E 0 98 21 3e
        E 1920 88 21 00
        E 0 98 21 3e
        E 1920 88 21 00
        E 0 98 21 3e
        E 1920 88 21 00
        E 0 98 21 3e
        E 1920 88 21 00
        E 0 98 21 3e
        E 1920 88 21 00
        E 0 98 21 3e
        E 1920 88 21 00
        E 0 98 21 3e
        E 1920 88 21 00
        E 0 98 21 3e
        E 1920 88 21 00
        E 0 98 21 3e
        E 1920 88 21 00
        E 0 98 21 3e
        E 1920 88 21 00
        E 0 98 21 3e
        E 1920 88 21 00
        E 0 98 21 3e
        E 1920 88 21 00
        E 0 98 21 3e
        E 1920 88 21 00
        E 0 98 21 3e
        E 1920 88 21 00
        E 0 98 21 3e
        E 1920 88 21 00
        E 0 98 21 3e
        E 1920 88 21 00
        E 0 98 21 3e
        E 1920 88 21 00
        E 0 98 21 3e
        E 1920 88 21 00
        E 0 98 21 3e
        E 1920 88 21 00
        E 0 98 21 3e
        E 1920 88 21 00
        E 0 98 21 3e
        E 1920 88 21 00
        E 0 98 21 3e
        E 1920 88 21 00
        E 0 98 21 3e
        E 1920 88 21 00
        E 0 98 21 3e
        E 1920 88 21 00
        E 0 98 21 3e
        E 1920 88 21 00
        E 0 b8 7b 00
        E 1 ff 2f 00
      >
    >
  >
>
