<REAPER_PROJECT 0.1 "7.0" 1700000000
  TEMPO 100.000000 4 4
  SAMPLERATE 48000 0 0
  RENDER_FILE ""
  RENDER_FMT 0 2 0
  RENDER_1X 0
  RENDER_RANGE 1 0 70.403491 0 0
  RENDER_RESAMPLE 3 0 1
  <MASTERTRACK
    VOLPAN 1 0 1 -1
    DEFCHAN 0
  >
  <TRACK
    NAME "Lead"
    PEAKCOL 4284506208
    VOLPAN 1.000000 0 1 -1
    MIDIOUT -1
    ISBUS 0 0
    <ITEM
      POSITION 0.000000
      LENGTH 67.279362
      NAME "Lead"
      VOLPAN 1 0 1 -1
      <SOURCE MIDI
        HASDATA 1 960 QN
        E 0 c0 28 00
        E 0 90 5a 57
        E 954 80 5a 00
        E 68 90 58 47
        E 1129 90 5a 47
        E 315 80 58 00
        E 552 80 5a 00
        E 29 90 58 47
        E 867 80 58 00
        E 279 90 5a 47
        E 867 80 5a 00
        E 40 90 56 47
        E 867 80 56 00
        E 655 90 58 47
        E 780 80 58 00
        E 240 90 5a 47
        E 197 80 5a 00
        E 1051 90 5a 47
        E 790 90 56 59
        E 164 80 5a 00
        E 703 80 56 00
        E 999 90 5a 66
        E 673 90 58 47
        E 194 80 5a 00
        E 673 80 58 00
        E 152 90 5a 47
        E 504 90 58 47
        E 240 80 58 00
        E 123 80 5a 00
        E 141 90 55 47
        E 780 80 55 00
        E 238 90 56 47
        E 197 80 56 00
        E 807 90 56 58
        E 518 90 53 47
        E 240 80 53 00
        E 205 80 56 00
        E 74 90 51 63
        E 502 90 53 47
        E 240 80 53 00
        E 125 80 51 00
        E 136 90 56 47
        E 505 90 55 4e
        E 370 80 56 00
        E 497 80 55 00
        E 405 90 56 4d
        E 867 80 56 00
        E 259 90 5a 55
        E 867 80 5a 00
        E 147 90 58 47
        E 593 90 5a 47
        E 187 80 58 00
        E 53 80 5a 00
        E 352 90 5d 47
        E 205 90 5b 47
        E 36 80 5d 00
        E 169 90 58 47
        E 35 80 5b 00
        E 170 90 56 47
        E 35 80 58 00
        E 170 90 53 47
        E 35 80 56 00
        E 170 90 51 57
        E 35 80 53 00
        E 581 90 53 47
        E 106 80 51 00
        E 134 80 53 00
        E 376 90 56 47
        E 438 80 56 00
        E 594 90 55 47
        E 438 80 55 00
        E 466 90 56 47
        E 867 80 56 00
        E 36 90 56 47
        E 438 80 56 00
        E 564 90 58 47
        E 505 90 5a 47
        E 240 80 5a 00
        E 35 80 58 00
        E 231 90 5d 47
        E 197 80 5d 00
        E 1060 90 5a 47
        E 954 80 5a 00
        E 59 90 5d 47
        E 520 90 5a 47
        E 240 80 5a 00
        E 107 80 5d 00
        E 174 90 56 47
        E 656 80 56 00
        E 354 90 58 47
        E 438 80 58 00
        E 692 90 58 47
        E 867 80 58 00
        E 399 90 5a 47
        E 137 90 5a 47
        E 60 80 5a 00
        E 198 90 58 4e
        E 240 80 58 00
        E 17 90 56 4e
        E 240 80 56 00
        E 18 90 53 4e
        E 7 80 5a 00
        E 233 80 53 00
        E 18 90 51 76
        E 511 90 53 47
        E 240 80 53 00
        E 203 80 51 00
        E 68 90 56 54
        E 722 80 56 00
        E 299 90 55 47
        E 867 80 55 00
        E 131 90 56 47
        E 438 80 56 00
        E 589 90 56 47
        E 867 80 56 00
        E 391 90 58 47
        E 867 80 58 00
        E 37 90 55 47
        E 867 80 55 00
        E 395 90 56 47
        E 197 80 56 00
        E 435 90 58 47
        E 241 80 58 00
        E 800 90 56 47
        E 481 80 56 00
        E 130 90 55 47
        E 867 80 55 00
        E 541 90 56 47
        E 512 90 58 47
        E 355 80 56 00
        E 512 80 58 00
        E 153 90 56 47
        E 867 80 56 00
        E 164 90 58 47
        E 867 80 58 00
        E 128 90 58 47
        E 780 80 58 00
        E 249 90 58 47
        E 481 80 58 00
        E 523 90 56 47
        E 954 80 56 00
        E 87 90 58 48
        E 760 90 56 47
        E 107 80 58 00
        E 133 80 56 00
        E 519 90 53 47
        E 438 80 53 00
        E 806 90 55 47
        E 219 80 55 00
        E 178 90 56 47
        E 867 80 56 00
        E 29 90 58 47
        E 780 80 58 00
        E 473 90 56 54
        E 394 80 56 00
        E 391 90 55 4d
        E 954 80 55 00
        E 63 90 51 68
        E 506 90 53 47
        E 240 80 53 00
        E 266 90 56 54
        E 301 80 51 00
        E 210 90 53 47
        E 240 80 53 00
        E 116 80 56 00
        E 155 90 51 6f
        E 103 90 53 47
        E 103 90 56 47
        E 102 90 58 47
        E 35 80 53 00
        E 68 90 5b 47
        E 35 80 56 00
        E 67 90 5d 59
        E 35 80 58 00
        E 103 80 5b 00
        E 81 80 5d 00
        E 581 80 51 00
        E 215 90 5a 47
        E 867 80 5a 00
        E 653 90 5a 47
        E 591 80 5a 00
        E 419 90 5d 47
        E 954 80 5d 00
        E 71 90 5a 47
        E 954 80 5a 00
        E 58 90 5d 4d
        E 438 80 5d 00
        E 578 90 5d 47
        E 438 80 5d 00
        E 581 90 5a 47
        E 219 80 5a 00
        E 649 90 5b 47
        E 875 80 5b 00
        E 292 90 5a 47
        E 591 80 5a 00
        E 683 90 5d 57
        E 780 80 5d 00
        E 516 90 5b 47
        E 485 90 5a 47
        E 219 80 5a 00
        E 250 80 5b 00
        E 1065 90 58 48
        E 867 80 58 00
        E 159 90 55 47
        E 656 80 55 00
        E 344 90 56 47
        E 867 80 56 00
        E 151 90 56 47
        E 510 90 58 47
        E 240 80 58 00
        E 30 80 56 00
        E 240 90 5d 47
        E 394 80 5d 00
        E 624 90 5b 47
        E 954 80 5b 00
        E 77 90 5d 47
        E 867 80 5d 00
        E 142 90 5a 47
        E 219 80 5a 00
        E 915 90 5d 59
        E 867 80 5d 00
        E 270 90 5a 47
        E 778 90 5a 61
        E 97 80 5a 00
        E 770 80 5a 00
        E 164 90 58 47
        E 780 80 58 00
        E 602 90 58 47
        E 655 90 58 47
        E 299 80 58 00
        E 194 90 58 47
        E 461 80 58 00
        E 406 80 58 00
        E 157 90 56 47
        E 867 80 56 00
        E 164 90 58 47
        E 867 80 58 00
        E 142 90 56 4a
        E 875 80 56 00
        E 148 90 56 6d
        E 875 80 56 00
        E 147 90 56 4a
        E 780 80 56 00
        E 459 90 55 47
        E 722 80 55 00
        E 54 90 56 47
        E 481 80 56 00
        E 788 90 55 47
        E 867 80 55 00
        E 155 90 56 47
        E 438 80 56 00
        E 339 90 56 47
        E 438 80 56 00
        E 812 90 58 47
        E 789 90 58 47
        E 78 80 58 00
        E 702 80 58 00
        E 231 90 56 47
        E 394 80 56 00
        E 0 b0 7b 00
        E 1 ff 2f 00
      >
    >
  >
  <TRACK
    NAME "Trumpet"
    PEAKCOL 4290740026
    VOLPAN 1.000000 0 1 -1
    MIDIOUT -1
    ISBUS 0 0
    <ITEM
      POSITION 0.300000
      LENGTH 65.455000
      NAME "Trumpet"
      VOLPAN 1 0 1 -1
      <SOURCE MIDI
        HASDATA 1 960 QN
        E 0 c1 38 00
        E 480 91 4a 57
        E 408 81 4a 00
        E 552 91 4f 68
        E 408 81 4f 00
        E 1512 91 52 68
        E 408 81 52 00
        E 2472 91 52 57
        E 408 81 52 00
        E 72 91 52 5f
        E 408 81 52 00
        E 552 91 52 4e
        E 408 81 52 00
        E 72 91 52 57
        E 408 81 52 00
        E 2952 91 52 4e
        E 408 81 52 00
        E 1032 91 52 68
        E 408 81 52 00
        E 1512 91 52 68
        E 408 81 52 00
        E 2952 91 52 5f
        E 408 81 52 00
        E 72 91 52 68
        E 408 81 52 00
        E 3912 91 52 4e
        E 408 81 52 00
        E 72 91 52 57
        E 408 81 52 00
        E 72 91 52 5f
        E 408 81 52 00
        E 72 91 52 68
        E 408 81 52 00
        E 72 91 52 4e
        E 408 81 52 00
        E 72 91 52 57
        E 408 81 52 00
        E 72 91 52 5f
        E 408 81 52 00
        E 72 91 52 68
        E 408 81 52 00
        E 1992 91 52 4e
        E 408 81 52 00
        E 72 91 52 57
        E 408 81 52 00
        E 72 91 52 5f
        E 408 81 52 00
        E 72 91 52 68
        E 408 81 52 00
        E 72 91 52 4e
        E 408 81 52 00
        E 72 91 52 57
        E 408 81 52 00
        E 72 91 52 5f
        E 408 81 52 00
        E 72 91 52 68
        E 408 81 52 00
        E 1992 91 52 4e
        E 408 81 52 00
        E 72 91 52 57
        E 408 81 52 00
        E 72 91 52 5f
        E 408 81 52 00
        E 72 91 52 68
        E 408 81 52 00
        E 72 91 52 4e
        E 408 81 52 00
        E 72 91 52 57
        E 408 81 52 00
        E 72 91 52 5f
        E 408 81 52 00
        E 72 91 52 68
        E 408 81 52 00
        E 1992 91 52 4e
        E 408 81 52 00
        E 72 91 52 57
        E 408 81 52 00
        E 72 91 52 5f
        E 408 81 52 00
        E 72 91 52 68
        E 408 81 52 00
        E 72 91 52 4e
        E 408 81 52 00
        E 72 91 52 57
        E 408 81 52 00
        E 72 91 52 5f
        E 408 81 52 00
        E 72 91 52 68
        E 408 81 52 00
        E 1992 91 52 4e
        E 408 81 52 00
        E 72 91 52 57
        E 408 81 52 00
        E 72 91 52 5f
        E 408 81 52 00
        E 72 91 52 68
        E 408 81 52 00
        E 72 91 52 4e
        E 408 81 52 00
        E 72 91 52 57
        E 408 81 52 00
        E 72 91 52 5f
        E 408 81 52 00
        E 72 91 52 68
        E 408 81 52 00
        E 1992 91 52 4e
        E 408 81 52 00
        E 72 91 52 57
        E 408 81 52 00
        E 72 91 52 5f
        E 408 81 52 00
        E 72 91 52 68
        E 408 81 52 00
        E 72 91 52 4e
        E 408 81 52 00
        E 72 91 52 57
        E 408 81 52 00
        E 72 91 52 5f
        E 408 81 52 00
        E 72 91 52 68
        E 408 81 52 00
        E 1992 91 52 4e
        E 408 81 52 00
        E 72 91 52 57
        E 408 81 52 00
        E 72 91 52 5f
        E 408 81 52 00
        E 72 91 52 68
        E 408 81 52 00
        E 72 91 52 4e
        E 408 81 52 00
        E 72 91 52 57
        E 408 81 52 00
        E 72 91 52 5f
        E 408 81 52 00
        E 72 91 52 68
        E 408 81 52 00
        E 1992 91 52 4e
        E 408 81 52 00
        E 72 91 52 57
        E 408 81 52 00
        E 72 91 52 5f
        E 408 81 52 00
        E 72 91 52 68
        E 408 81 52 00
        E 72 91 52 4e
        E 408 81 52 00
        E 72 91 52 57
        E 408 81 52 00
        E 72 91 52 5f
        E 408 81 52 00
        E 72 91 52 68
        E 408 81 52 00
        E 1992 91 52 4e
        E 408 81 52 00
        E 72 91 52 57
        E 408 81 52 00
        E 72 91 52 5f
        E 408 81 52 00
        E 72 91 52 68
        E 408 81 52 00
        E 72 91 52 4e
        E 408 81 52 00
        E 72 91 52 57
        E 408 81 52 00
        E 72 91 52 5f
        E 408 81 52 00
        E 72 91 52 68
        E 408 81 52 00
        E 1992 91 52 4e
        E 408 81 52 00
        E 72 91 52 57
        E 408 81 52 00
        E 72 91 52 5f
        E 408 81 52 00
        E 72 91 52 68
        E 408 81 52 00
        E 72 91 52 4e
        E 408 81 52 00
        E 72 91 52 57
        E 408 81 52 00
        E 72 91 52 5f
        E 408 81 52 00
        E 72 91 52 68
        E 408 81 52 00
        E 1992 91 52 4e
        E 408 81 52 00
        E 72 91 52 57
        E 408 81 52 00
        E 72 91 52 5f
        E 408 81 52 00
        E 72 91 52 68
        E 408 81 52 00
        E 72 91 52 4e
        E 408 81 52 00
        E 72 91 52 57
        E 408 81 52 00
        E 72 91 52 5f
        E 408 81 52 00
        E 72 91 52 68
        E 408 81 52 00
        E 8232 91 52 57
        E 408 81 52 00
        E 72 91 52 5f
        E 408 81 52 00
        E 552 91 52 4e
        E 408 81 52 00
        E 72 91 52 57
        E 408 81 52 00
        E 72 91 52 5f
        E 408 81 52 00
        E 3912 91 52 68
        E 408 81 52 00
        E 3912 91 52 4e
        E 408 81 52 00
        E 552 91 52 5f
        E 408 81 52 00
        E 0 b1 7b 00
        E 1 ff 2f 00
      >
    >
  >
  <TRACK
    NAME "Brass"
    PEAKCOL 4290740026
    VOLPAN 1.000000 0 1 -1
    MIDIOUT -1
    ISBUS 0 0
    <ITEM
      POSITION 2.406826
      LENGTH 64.272065
      NAME "Brass"
      VOLPAN 1 0 1 -1
      <SOURCE MIDI
        HASDATA 1 960 QN
        E 0 c2 3d 00
        E 3851 92 45 6c
        E 3 92 39 6c
        E 1149 82 45 00
        E 3 82 39 00
        E 1005 92 39 6c
        E 0 92 39 6c
        E 1152 82 39 00
        E 0 82 39 00
        E 997 92 47 6c
        E 12 92 3b 6c
        E 2 92 3b 6c
        E 1138 82 47 00
        E 12 82 3b 00
        E 2 82 3b 00
        E 1002 92 3b 6c
        E 1 92 47 6c
        E 1151 82 3b 00
        E 1 82 47 00
        E 1006 92 39 6c
        E 1152 82 39 00
        E 1009 92 47 6c
        E 3 92 3b 6c
        E 1149 82 47 00
        E 3 82 3b 00
        E 5324 92 47 6c
        E 1 92 3b 6c
        E 1 92 3b 6c
        E 1150 82 47 00
        E 1 82 3b 00
        E 1 82 3b 00
        E 999 92 45 6c
        E 8 92 39 6c
        E 0 92 39 6c
        E 3 92 45 6c
        E 1 92 39 6c
        E 1140 82 45 00
        E 8 82 39 00
        E 0 82 39 00
        E 3 82 45 00
        E 1 82 39 00
        E 996 92 47 6c
        E 8 92 47 6c
        E 0 92 3b 6c
        E 1 92 3b 6c
        E 1 92 3b 6c
        E 1142 82 47 00
        E 8 82 47 00
        E 0 82 3b 00
        E 1 82 3b 00
        E 1 82 3b 00
        E 998 92 45 6c
        E 5 92 45 6c
        E 1 92 39 6c
        E 3 92 39 6c
        E 5 92 39 6c
        E 1138 82 45 00
        E 5 82 45 00
        E 1 82 39 00
        E 3 82 39 00
        E 5 82 39 00
        E 994 92 47 6c
        E 8 92 3b 6c
        E 3 92 3b 6c
        E 2 92 3b 6c
        E 0 92 47 6c
        E 1139 82 47 00
        E 8 82 3b 00
        E 3 82 3b 00
        E 2 82 3b 00
        E 0 82 47 00
        E 995 92 47 6c
        E 5 92 47 6c
        E 0 92 3b 6c
        E 8 92 3b 6c
        E 1 92 3b 6c
        E 1138 82 47 00
        E 5 82 47 00
        E 0 82 3b 00
        E 8 82 3b 00
        E 1 82 3b 00
        E 994 92 45 6c
        E 6 92 39 6c
        E 3 92 39 6c
        E 0 92 45 6c
        E 4 92 39 6c
        E 1139 82 45 00
        E 6 82 39 00
        E 3 82 39 00
        E 0 82 45 00
        E 4 82 39 00
        E 995 92 47 6c
        E 5 92 3b 6c
        E 3 92 47 6c
        E 1 92 3b 6c
        E 2 92 3b 6c
        E 1141 82 47 00
        E 5 82 3b 00
        E 3 82 47 00
        E 1 82 3b 00
        E 2 82 3b 00
        E 997 92 47 6c
        E 6 92 3b 6c
        E 1 92 3b 6c
        E 4 92 47 6c
        E 2 92 3b 6c
        E 1139 82 47 00
        E 6 82 3b 00
        E 1 82 3b 00
        E 4 82 47 00
        E 2 82 3b 00
        E 995 92 47 6c
        E 5 92 47 6c
        E 1 92 3b 6c
        E 1 92 3b 6c
        E 4 92 3b 6c
        E 1141 82 47 00
        E 5 82 47 00
        E 1 82 3b 00
        E 1 82 3b 00
        E 4 82 3b 00
        E 997 92 47 6c
        E 7 92 3b 6c
        E 1 92 3b 6c
        E 1 92 3b 6c
        E 1 92 47 6c
        E 1142 82 47 00
        E 7 82 3b 00
        E 1 82 3b 00
        E 1 82 3b 00
        E 1 82 47 00
        E 998 92 45 6c
        E 7 92 39 6c
        E 2 92 39 6c
        E 2 92 39 6c
        E 3 92 45 6c
        E 1138 82 45 00
        E 7 82 39 00
        E 2 82 39 00
        E 2 82 39 00
        E 3 82 45 00
        E 994 92 47 6c
        E 5 92 3b 6c
        E 7 92 47 6c
        E 1 92 3b 6c
        E 1 92 3b 6c
        E 1138 82 47 00
        E 5 82 3b 00
        E 7 82 47 00
        E 1 82 3b 00
        E 1 82 3b 00
        E 994 92 45 6c
        E 6 92 45 6c
        E 7 92 39 6c
        E 0 92 39 6c
        E 0 92 39 6c
        E 1139 82 45 00
        E 6 82 45 00
        E 7 82 39 00
        E 0 82 39 00
        E 0 82 39 00
        E 995 92 47 6c
        E 6 92 3b 6c
        E 1 92 47 6c
        E 4 92 3b 6c
        E 2 92 3b 6c
        E 1139 82 47 00
        E 6 82 3b 00
        E 1 82 47 00
        E 4 82 3b 00
        E 2 82 3b 00
        E 995 92 47 6c
        E 6 92 47 6c
        E 2 92 3b 6c
        E 6 92 3b 6c
        E 0 92 3b 6c
        E 1138 82 47 00
        E 6 82 47 00
        E 2 82 3b 00
        E 6 82 3b 00
        E 0 82 3b 00
        E 994 92 45 6c
        E 6 92 39 6c
        E 0 92 39 6c
        E 4 92 39 6c
        E 4 92 45 6c
        E 1138 82 45 00
        E 6 82 39 00
        E 0 82 39 00
        E 4 82 39 00
        E 4 82 45 00
        E 994 92 45 6c
        E 5 92 39 6c
        E 2 92 39 6c
        E 1 92 45 6c
        E 2 92 39 6c
        E 1142 82 45 00
        E 5 82 39 00
        E 2 82 39 00
        E 1 82 45 00
        E 2 82 39 00
        E 998 92 45 6c
        E 9 92 45 6c
        E 4 92 39 6c
        E 0 92 39 6c
        E 1 92 39 6c
        E 1138 82 45 00
        E 9 82 45 00
        E 4 82 39 00
        E 0 82 39 00
        E 1 82 39 00
        E 994 92 47 6c
        E 5 92 3b 6c
        E 3 92 47 6c
        E 1 92 3b 6c
        E 2 92 3b 6c
        E 1141 82 47 00
        E 5 82 3b 00
        E 3 82 47 00
        E 1 82 3b 00
        E 2 82 3b 00
        E 997 92 47 6c
        E 5 92 3b 6c
        E 2 92 47 6c
        E 0 92 3b 6c
        E 3 92 3b 6c
        E 1142 82 47 00
        E 5 82 3b 00
        E 2 82 47 00
        E 0 82 3b 00
        E 3 82 3b 00
        E 998 92 45 6c
        E 7 92 45 6c
        E 2 92 39 6c
        E 2 92 39 6c
        E 2 92 39 6c
        E 1139 82 45 00
        E 7 82 45 00
        E 2 82 39 00
        E 2 82 39 00
        E 2 82 39 00
        E 995 92 47 6c
        E 8 92 47 6c
        E 1 92 3b 6c
        E 2 92 3b 6c
        E 3 92 3b 6c
        E 1138 82 47 00
        E 8 82 47 00
        E 1 82 3b 00
        E 2 82 3b 00
        E 3 82 3b 00
        E 994 92 45 6c
        E 7 92 39 6c
        E 1 92 39 6c
        E 2 92 45 6c
        E 4 92 39 6c
        E 1138 82 45 00
        E 7 82 39 00
        E 1 82 39 00
        E 2 82 45 00
        E 4 82 39 00
        E 994 92 45 6c
        E 8 92 39 6c
        E 0 92 39 6c
        E 3 92 39 6c
        E 1 92 45 6c
        E 1140 82 45 00
        E 8 82 39 00
        E 0 82 39 00
        E 3 82 39 00
        E 1 82 45 00
        E 996 92 45 6c
        E 6 92 39 6c
        E 1 92 45 6c
        E 3 92 39 6c
        E 1 92 39 6c
        E 1141 82 45 00
        E 6 82 39 00
        E 1 82 45 00
        E 3 82 39 00
        E 1 82 39 00
        E 997 92 47 6c
        E 8 92 47 6c
        E 2 92 3b 6c
        E 1 92 3b 6c
        E 0 92 3b 6c
        E 1141 82 47 00
        E 8 82 47 00
        E 2 82 3b 00
        E 1 82 3b 00
        E 0 82 3b 00
        E 997 92 47 6c
        E 5 92 3b 6c
        E 0 92 47 6c
        E 5 92 3b 6c
        E 2 92 3b 6c
        E 1140 82 47 00
        E 5 82 3b 00
        E 0 82 47 00
        E 5 82 3b 00
        E 2 82 3b 00
        E 996 92 47 6c
        E 11 92 3b 6c
        E 0 92 3b 6c
        E 1 92 47 6c
        E 2 92 3b 6c
        E 1138 82 47 00
        E 11 82 3b 00
        E 0 82 3b 00
        E 1 82 47 00
        E 2 82 3b 00
        E 994 92 47 6c
        E 5 92 3b 6c
        E 2 92 3b 6c
        E 2 92 3b 6c
        E 3 92 47 6c
        E 1140 82 47 00
        E 5 82 3b 00
        E 2 82 3b 00
        E 2 82 3b 00
        E 3 82 47 00
        E 996 92 45 6c
        E 5 92 39 6c
        E 5 92 39 6c
        E 2 92 39 6c
        E 1 92 45 6c
        E 1139 82 45 00
        E 5 82 39 00
        E 5 82 39 00
        E 2 82 39 00
        E 1 82 45 00
        E 995 92 45 6c
        E 9 92 45 6c
        E 1143 82 45 00
        E 9 82 45 00
        E 1013 92 45 6c
        E 1152 82 45 00
        E 1000 92 39 6c
        E 2 92 45 6c
        E 1150 82 39 00
        E 2 82 45 00
        E 3167 92 47 6c
        E 6 92 3b 6c
        E 1146 82 47 00
        E 6 82 3b 00
        E 995 92 45 6c
        E 1152 82 45 00
        E 1017 92 39 6c
        E 1152 82 39 00
        E 3159 92 45 6c
        E 6 92 39 6c
        E 8 92 39 6c
        E 1138 82 45 00
        E 6 82 39 00
        E 8 82 39 00
        E 0 b2 7b 00
        E 1 ff 2f 00
      >
    >
  >
  <TRACK
    NAME "Violin1"
    PEAKCOL 4284186559
    VOLPAN 1.000000 0 1 -1
    MIDIOUT -1
    ISBUS 0 0
    <ITEM
      POSITION 6.001207
      LENGTH 62.502285
      NAME "Violin1"
      VOLPAN 1 0 1 -1
      <SOURCE MIDI
        HASDATA 1 960 QN
        E 0 c3 28 00
        E 9602 93 4a 58
        E 1920 83 4a 00
        E 1925 93 4f 54
        E 1920 83 4f 00
        E 5761 93 4c 52
        E 1918 93 4f 55
        E 2 83 4c 00
        E 1918 83 4f 00
        E 4 93 53 52
        E 1918 93 56 54
        E 2 83 53 00
        E 1912 93 58 55
        E 6 83 56 00
        E 1914 83 58 00
        E 7 93 56 54
        E 1916 93 55 52
        E 4 83 56 00
        E 1916 83 55 00
        E 0 93 56 51
        E 1920 83 56 00
        E 1 93 58 51
        E 1920 83 58 00
        E 0 93 5d 58
        E 1916 93 60 54
        E 4 83 5d 00
        E 1916 83 60 00
        E 12 93 5b 57
        E 1918 93 5a 55
        E 2 83 5b 00
        E 1908 93 5f 57
        E 10 83 5a 00
        E 1910 83 5f 00
        E 8 93 60 51
        E 1912 93 5b 55
        E 8 83 60 00
        E 1912 83 5b 00
        E 11 93 5a 54
        E 1914 93 58 54
        E 6 83 5a 00
        E 1910 93 5d 54
        E 4 83 58 00
        E 1916 83 5d 00
        E 8 93 5f 54
        E 1917 93 5d 54
        E 3 83 5f 00
        E 1913 93 58 58
        E 4 83 5d 00
        E 1916 83 58 00
        E 6 93 53 54
        E 1917 93 55 54
        E 3 83 53 00
        E 1914 93 58 57
        E 3 83 55 00
        E 1917 83 58 00
        E 6 93 5a 54
        E 1920 83 5a 00
        E 3 93 5a 54
        E 1908 93 5f 54
        E 12 83 5a 00
        E 1908 83 5f 00
        E 5 93 5f 54
        E 1920 83 5f 00
        E 1 93 5d 54
        E 1914 93 5d 58
        E 6 83 5d 00
        E 1914 83 5d 00
        E 0 93 5a 51
        E 1920 83 5a 00
        E 8 93 5a 52
        E 1912 93 5f 57
        E 8 83 5a 00
        E 1912 83 5f 00
        E 1926 93 5d 51
        E 1920 83 5d 00
        E 1 93 5f 54
        E 1920 83 5f 00
        E 1922 93 5d 54
        E 1920 83 5d 00
        E 3 93 5a 51
        E 1920 83 5a 00
        E 3839 93 55 51
        E 1920 83 55 00
        E 3834 93 56 54
        E 1920 83 56 00
        E 0 b3 7b 00
        E 1 ff 2f 00
      >
    >
  >
  <TRACK
    NAME "Strings"
    PEAKCOL 4284186559
    VOLPAN 1.000000 0 1 -1
    MIDIOUT -1
    ISBUS 0 0
    <ITEM
      POSITION 4.800000
      LENGTH 62.505930
      NAME "Strings"
      VOLPAN 1 0 1 -1
      <SOURCE MIDI
        HASDATA 1 960 QN
        E 0 c4 30 00
        E 7680 94 30 40
        E 3 94 30 40
        E 2 94 40 40
        E 1905 94 48 40
        E 3 94 48 40
        E 16 84 30 00
        E 1 94 42 40
        E 2 94 45 40
        E 3 84 30 00
        E 5 84 40 00
        E 1888 94 48 40
        E 2 84 48 00
        E 4 84 42 00
        E 6 84 48 00
        E 0 94 3e 40
        E 7 94 48 40
        E 24 84 45 00
        E 1870 84 48 00
        E 16 94 47 40
        E 2 84 48 00
        E 1 84 3e 00
        E 6 94 48 40
        E 1910 84 48 00
        E 10 84 47 00
        E 1906 94 30 40
        E 5 94 48 40
        E 2 94 45 40
        E 4 94 48 40
        E 4 94 48 40
        E 1897 84 30 00
        E 2 84 45 00
        E 19 84 48 00
        E 2 84 48 00
        E 4 94 48 40
        E 10 84 48 00
        E 1899 94 3e 40
        E 7 94 45 40
        E 16 84 48 00
        E 1884 94 48 40
        E 9 94 48 40
        E 1 94 48 40
        E 3 84 3e 00
        E 0 94 3e 40
        E 1 94 48 40
        E 1 94 45 40
        E 1 94 47 40
        E 7 94 48 40
        E 12 84 45 00
        E 1878 84 48 00
        E 6 84 48 00
        E 3 94 48 40
        E 2 94 48 40
        E 1 94 3e 40
        E 1 94 47 40
        E 1 84 48 00
        E 2 94 48 40
        E 1 94 48 40
        E 0 94 45 40
        E 3 84 3e 00
        E 0 94 3d 40
        E 4 84 48 00
        E 6 84 47 00
        E 5 84 45 00
        E 5 84 48 00
        E 1878 84 48 00
        E 13 84 3e 00
        E 0 84 48 00
        E 3 94 48 40
        E 1 94 30 40
        E 3 94 42 40
        E 2 84 48 00
        E 0 84 3d 00
        E 0 94 3d 40
        E 1 84 48 00
        E 2 94 48 40
        E 3 84 45 00
        E 0 94 48 40
        E 1 84 47 00
        E 2 94 48 40
        E 1 94 48 40
        E 1896 94 40 40
        E 0 94 48 40
        E 6 84 48 00
        E 4 84 42 00
        E 0 94 48 40
        E 2 84 30 00
        E 0 94 30 40
        E 2 84 3d 00
        E 0 94 3b 40
        E 2 94 48 40
        E 1 84 48 00
        E 4 84 48 00
        E 3 94 48 40
        E 1 84 48 00
        E 1 94 42 40
        E 15 84 48 00
        E 1878 84 40 00
        E 1 94 45 40
        E 5 84 48 00
        E 4 94 48 40
        E 3 84 48 00
        E 2 84 3b 00
        E 0 94 45 40
        E 0 94 39 40
        E 2 84 48 00
        E 0 94 30 40
        E 1 94 48 40
        E 1 94 48 40
        E 2 84 48 00
        E 0 94 48 40
        E 8 84 30 00
        E 8 84 42 00
        E 1870 84 45 00
        E 20 94 30 40
        E 2 84 45 00
        E 2 84 48 00
        E 0 84 48 00
        E 3 94 30 40
        E 1 84 39 00
        E 0 94 3b 40
        E 2 94 47 40
        E 3 94 30 40
        E 1 84 30 00
        E 3 94 48 40
        E 2 94 45 40
        E 2 94 30 40
        E 6 84 48 00
        E 2 84 48 00
        E 1887 94 48 40
        E 1 94 31 40
        E 1 84 48 00
        E 2 94 48 40
        E 0 94 48 40
        E 5 84 30 00
        E 0 84 30 00
        E 3 84 3b 00
        E 0 94 3d 40
        E 6 94 48 40
        E 0 94 48 40
        E 7 84 47 00
        E 0 94 48 40
        E 3 84 30 00
        E 4 84 45 00
        E 12 84 30 00
        E 1861 84 48 00
        E 13 94 48 40
        E 1 94 48 40
        E 1 84 48 00
        E 1 84 48 00
        E 8 94 30 40
        E 1 84 48 00
        E 2 84 3d 00
        E 0 94 3d 40
        E 1 84 31 00
        E 1 94 31 40
        E 2 84 48 00
        E 0 94 48 40
        E 8 84 48 00
        E 2 94 48 40
        E 0 94 48 40
        E 1874 84 48 00
        E 20 94 42 40
        E 0 94 48 40
        E 2 94 30 40
        E 5 94 48 40
        E 5 84 3d 00
        E 0 84 48 00
        E 0 94 48 40
        E 0 94 3b 40
        E 2 94 48 40
        E 2 84 48 00
        E 2 84 48 00
        E 1 84 30 00
        E 2 94 30 40
        E 5 84 31 00
        E 0 84 48 00
        E 1893 94 42 40
        E 7 84 48 00
        E 0 94 48 40
        E 1 94 48 40
        E 2 84 42 00
        E 0 84 30 00
        E 3 84 3b 00
        E 0 94 3b 40
        E 1 94 48 40
        E 2 84 48 00
        E 3 94 48 40
        E 2 84 30 00
        E 2 94 3e 40
        E 3 84 48 00
        E 0 94 48 40
        E 8 84 48 00
        E 1877 84 42 00
        E 10 94 47 40
        E 4 84 48 00
        E 1 94 48 40
        E 3 94 48 40
        E 3 94 48 40
        E 1 84 3b 00
        E 0 84 48 00
        E 0 94 3c 40
        E 2 94 3e 40
        E 4 94 48 40
        E 6 84 48 00
        E 1 84 48 00
        E 1 94 48 40
        E 2 84 3e 00
        E 4 84 48 00
        E 1879 84 48 00
        E 3 84 48 00
        E 1 84 47 00
        E 3 84 3e 00
        E 3 94 48 40
        E 0 94 48 40
        E 11 84 3c 00
        E 0 94 48 40
        E 0 94 3b 40
        E 10 94 43 40
        E 0 94 48 40
        E 2 94 48 40
        E 1 84 48 00
        E 0 94 42 40
        E 1 84 48 00
        E 6 84 48 00
        E 1878 84 48 00
        E 16 84 48 00
        E 0 94 48 40
        E 2 94 3e 40
        E 1 94 45 40
        E 3 84 3b 00
        E 0 94 39 40
        E 3 84 48 00
        E 0 94 48 40
        E 3 94 48 40
        E 1 84 42 00
        E 1 94 42 40
        E 4 94 48 40
        E 4 84 48 00
        E 1 84 43 00
        E 6 84 48 00
        E 1884 84 48 00
        E 1 94 48 40
        E 1 84 48 00
        E 4 94 48 40
        E 4 94 45 40
        E 1 94 48 40
        E 2 84 48 00
        E 0 84 39 00
        E 0 94 39 40
        E 2 94 48 40
        E 1 84 45 00
        E 1 94 3d 40
        E 7 84 3e 00
        E 2 94 42 40
        E 13 84 42 00
        E 1 84 48 00
        E 1874 84 48 00
        E 6 94 30 40
        E 6 84 48 00
        E 0 94 48 40
        E 5 94 30 40
        E 0 94 48 40
        E 1 84 48 00
        E 1 84 39 00
        E 0 94 3b 40
        E 2 84 48 00
        E 1 94 30 40
        E 4 94 48 40
        E 4 84 45 00
        E 0 94 30 40
        E 12 84 3d 00
        E 2 84 42 00
        E 1877 84 30 00
        E 4 94 48 40
        E 4 84 30 00
        E 8 84 48 00
        E 0 94 30 40
        E 1 94 3d 40
        E 1 84 3b 00
        E 0 94 39 40
        E 4 94 48 40
        E 2 84 48 00
        E 3 94 48 40
        E 1 94 48 40
        E 1 94 48 40
        E 4 84 48 00
        E 4 84 30 00
        E 9 84 30 00
        E 1879 94 40 40
        E 1 94 48 40
        E 2 84 48 00
        E 1 94 48 40
        E 1 84 30 00
        E 1 94 30 40
        E 2 84 48 00
        E 0 94 48 40
        E 5 84 39 00
        E 0 94 37 40
        E 6 94 43 40
        E 1 84 48 00
        E 1 84 48 00
        E 3 94 48 40
        E 6 84 3d 00
        E 4 84 48 00
        E 1875 84 40 00
        E 6 84 30 00
        E 6 94 30 40
        E 4 84 48 00
        E 2 84 48 00
        E 0 94 30 40
        E 6 84 37 00
        E 0 94 48 40
        E 0 94 39 40
        E 4 84 48 00
        E 3 84 48 00
        E 3 94 48 40
        E 1 94 3e 40
        E 1 94 48 40
        E 1 94 48 40
        E 4 84 43 00
        E 1890 94 47 40
        E 3 84 30 00
        E 2 94 30 40
        E 2 94 47 40
        E 0 94 48 40
        E 1 84 48 00
        E 4 84 30 00
        E 0 94 48 40
        E 1 84 39 00
        E 0 94 37 40
        E 3 84 48 00
        E 1 84 48 00
        E 0 94 48 40
        E 2 94 47 40
        E 10 84 3e 00
        E 3 84 48 00
        E 1887 94 40 40
        E 5 84 30 00
        E 2 84 48 00
        E 4 94 48 40
        E 2 84 47 00
        E 1 84 47 00
        E 0 84 37 00
        E 0 94 48 40
        E 0 94 39 40
        E 5 84 48 00
        E 5 94 48 40
        E 2 94 48 40
        E 1 94 48 40
        E 1 94 40 40
        E 3 84 48 00
        E 7 84 47 00
        E 1865 84 40 00
        E 20 94 45 40
        E 1 94 30 40
        E 1 84 48 00
        E 4 84 48 00
        E 0 84 48 00
        E 0 94 48 40
        E 5 84 39 00
        E 0 94 39 40
        E 1 94 3e 40
        E 6 94 40 40
        E 3 94 30 40
        E 0 94 48 40
        E 1 84 48 00
        E 2 84 48 00
        E 7 84 40 00
        E 1887 84 3e 00
        E 6 94 40 40
        E 2 94 3e 40
        E 3 84 45 00
        E 0 94 48 40
        E 0 94 48 40
        E 2 84 39 00
        E 0 84 40 00
        E 0 94 39 40
        E 2 94 48 40
        E 4 84 30 00
        E 5 84 48 00
        E 0 84 48 00
        E 2 94 48 40
        E 1 94 45 40
        E 2 84 30 00
        E 1887 84 3e 00
        E 0 84 48 00
        E 7 84 48 00
        E 1 84 40 00
        E 9 84 39 00
        E 0 94 3b 40
        E 0 94 47 40
        E 4 84 48 00
        E 1 94 42 40
        E 1 94 48 40
        E 1 94 48 40
        E 1 84 45 00
        E 1 94 30 40
        E 3 94 48 40
        E 2 94 48 40
        E 6 84 48 00
        E 1887 94 43 40
        E 3 84 48 00
        E 0 94 48 40
        E 2 94 3e 40
        E 4 84 48 00
        E 1 94 43 40
        E 1 84 30 00
        E 2 84 3b 00
        E 0 84 47 00
        E 0 94 3b 41
        E 2 94 48 40
        E 1 84 48 00
        E 3 84 42 00
        E 0 94 48 40
        E 8 94 48 40
        E 11 84 48 00
        E 1872 84 43 00
        E 10 94 48 40
        E 1 84 43 00
        E 0 84 48 00
        E 5 94 45 40
        E 6 94 40 40
        E 1 84 3b 00
        E 0 94 39 41
        E 2 94 48 40
        E 2 84 48 00
        E 4 84 3e 00
        E 1 84 48 00
        E 2 94 48 40
        E 0 94 48 40
        E 2 94 48 40
        E 11 84 48 00
        E 1876 84 45 00
        E 6 84 48 00
        E 0 94 30 40
        E 0 94 48 40
        E 0 94 3e 40
        E 1 94 3e 40
        E 9 84 48 00
        E 0 94 48 40
        E 2 94 48 40
        E 2 84 39 00
        E 0 94 37 43
        E 6 84 48 00
        E 0 94 30 40
        E 9 84 40 00
        E 12 84 48 00
        E 2 84 48 00
        E 1861 84 30 00
        E 2 84 48 00
        E 12 84 3e 00
        E 5 84 3e 00
        E 1 94 48 40
        E 2 94 3e 40
        E 1 84 48 00
        E 0 94 30 40
        E 1 84 48 00
        E 3 84 30 00
        E 3 84 37 00
        E 0 94 39 43
        E 2 94 30 40
        E 5 94 30 40
        E 5 94 45 40
        E 0 94 48 40
        E 1888 84 48 00
        E 7 84 30 00
        E 1 94 48 40
        E 0 94 30 40
        E 4 84 30 00
        E 5 84 3e 00
        E 1 94 48 40
        E 2 84 39 00
        E 0 94 3b 44
        E 2 84 45 00
        E 1 94 42 40
        E 3 94 42 40
        E 2 94 3f 40
        E 2 84 30 00
        E 0 84 48 00
        E 2 94 48 40
        E 1895 94 48 40
        E 2 94 30 40
        E 4 84 48 00
        E 2 94 3e 40
        E 1 84 48 00
        E 1 94 48 40
        E 3 84 3b 00
        E 0 94 39 44
        E 1 84 30 00
        E 0 94 48 40
        E 1 94 45 40
        E 4 84 48 00
        E 6 94 48 40
        E 1 84 42 00
        E 1 84 42 00
        E 9 84 3f 00
        E 1868 84 30 00
        E 19 84 48 00
        E 1 84 48 00
        E 0 94 48 40
        E 2 94 45 40
        E 3 84 48 00
        E 3 94 48 40
        E 0 94 30 40
        E 1 84 39 00
        E 0 94 39 44
        E 2 94 48 40
        E 2 94 30 40
        E 1 84 3e 00
        E 0 84 48 00
        E 2 94 42 40
        E 4 84 45 00
        E 1882 84 48 00
        E 8 84 48 00
        E 5 84 48 00
        E 1 94 47 40
        E 1 94 3e 40
        E 4 84 45 00
        E 7 94 48 40
        E 1 84 39 00
        E 0 94 37 46
        E 1 84 30 00
        E 2 94 48 40
        E 4 94 48 40
        E 5 94 3b 40
        E 1 94 48 40
        E 1 84 30 00
        E 11 84 42 00
        E 1865 84 3e 00
        E 16 84 47 00
        E 4 94 48 40
        E 1 94 48 40
        E 1 94 48 40
        E 1 84 48 00
        E 1 94 30 40
        E 3 84 48 00
        E 0 94 48 40
        E 1 84 48 00
        E 2 84 37 00
        E 0 94 37 46
        E 2 94 30 40
        E 2 84 3b 00
        E 1 84 48 00
        E 8 94 48 40
        E 1889 84 48 00
        E 5 94 48 40
        E 1 94 45 40
        E 1 94 48 40
        E 0 94 42 40
        E 3 84 48 00
        E 0 84 30 00
        E 4 84 48 00
        E 1 94 48 40
        E 3 84 37 00
        E 0 84 48 00
        E 0 94 39 47
        E 2 94 48 40
        E 2 94 45 40
        E 2 84 48 00
        E 5 84 30 00
        E 1884 84 42 00
        E 5 84 48 00
        E 4 84 48 00
        E 9 94 40 40
        E 3 94 48 40
        E 1 94 30 40
        E 3 84 39 00
        E 7 84 45 00
        E 7 84 48 00
        E 3 84 48 00
        E 3 84 45 00
        E 1890 84 40 00
        E 12 94 48 40
        E 3 84 48 00
        E 8 84 30 00
        E 1895 94 48 40
        E 29 84 48 00
        E 1880 84 48 00
        E 17 94 43 40
        E 3 94 48 40
        E 3 94 3e 48
        E 13 94 48 40
        E 1890 84 43 00
        E 13 84 48 00
        E 4 84 3e 00
        E 5 84 48 00
        E 3 94 48 40
        E 1913 84 48 00
        E 12 94 45 40
        E 1911 84 45 00
        E 3 94 48 40
        E 4 94 47 40
        E 1897 94 48 40
        E 15 84 47 00
        E 10 94 30 40
        E 4 84 48 00
        E 1896 94 30 40
        E 2 84 30 00
        E 11 84 48 00
        E 0 94 30 40
        E 1907 84 30 00
        E 1 94 30 40
        E 3 84 30 00
        E 3 94 40 4d
        E 1915 94 43 40
        E 5 84 40 00
        E 3 84 30 00
        E 2 94 48 40
        E 1903 84 43 00
        E 21 84 48 00
        E 0 b4 7b 00
        E 1 ff 2f 00
      >
    >
  >
  <TRACK
    NAME "Choir"
    PEAKCOL 4284506208
    VOLPAN 1.000000 0 1 -1
    MIDIOUT -1
    ISBUS 0 0
    <ITEM
      POSITION 0.007764
      LENGTH 67.203413
      NAME "Choir"
      VOLPAN 1 0 1 -1
      <SOURCE MIDI
        HASDATA 1 960 QN
        E 0 c5 34 00
        E 12 95 3e 5e
        E 11 95 36 5b
        E 1755 85 3e 00
        E 11 85 36 00
        E 150 95 34 5c
        E 1766 85 34 00
        E 148 95 36 58
        E 1 95 40 5e
        E 1765 85 36 00
        E 1 85 40 00
        E 141 95 3e 58
        E 12 95 40 59
        E 1754 85 3e 00
        E 12 85 40 00
        E 148 95 3d 5b
        E 14 95 36 5c
        E 1752 85 3d 00
        E 14 85 36 00
        E 160 95 32 58
        E 1766 85 32 00
        E 144 95 36 57
        E 3 95 34 57
        E 1763 85 36 00
        E 3 85 34 00
        E 5903 95 3e 57
        E 1 95 36 5b
        E 1765 85 3e 00
        E 1 85 36 00
        E 146 95 40 59
        E 5 95 42 58
        E 11 95 32 5b
        E 1750 85 40 00
        E 5 85 42 00
        E 11 85 32 00
        E 138 95 3e 5c
        E 12 95 43 5e
        E 4 95 39 57
        E 8 95 32 5e
        E 1742 85 3e 00
        E 12 85 43 00
        E 4 85 39 00
        E 8 85 32 00
        E 132 95 3d 5b
        E 9 95 3e 58
        E 3 95 32 5c
        E 5 95 36 5b
        E 1749 85 3d 00
        E 9 85 3e 00
        E 3 85 32 00
        E 5 85 36 00
        E 137 95 3d 57
        E 5 95 3e 59
        E 1 95 36 58
        E 12 95 32 58
        E 1748 85 3d 00
        E 5 85 3e 00
        E 1 85 36 00
        E 12 85 32 00
        E 138 95 3d 59
        E 4 95 3e 5c
        E 9 95 36 5c
        E 1 95 34 5b
        E 1752 85 3d 00
        E 4 85 3e 00
        E 9 85 36 00
        E 1 85 34 00
        E 143 95 3e 59
        E 1 95 42 5b
        E 5 95 37 5c
        E 11 95 32 58
        E 1749 85 3e 00
        E 1 85 42 00
        E 5 85 37 00
        E 11 85 32 00
        E 137 95 3d 5b
        E 3 95 36 5b
        E 1 95 3e 5b
        E 3 95 32 5c
        E 1759 85 3d 00
        E 3 85 36 00
        E 1 85 3e 00
        E 3 85 32 00
        E 146 95 3b 59
        E 6 95 3e 59
        E 2 95 34 5c
        E 4 95 37 59
        E 1754 85 3b 00
        E 6 85 3e 00
        E 2 85 34 00
        E 4 85 37 00
        E 140 95 40 57
        E 1 95 3e 5b
        E 13 95 36 5b
        E 4 95 37 5b
        E 1748 85 40 00
        E 1 85 3e 00
        E 13 85 36 00
        E 4 85 37 00
        E 133 95 3e 5e
        E 7 95 42 57
        E 8 95 39 5e
        E 7 95 32 57
        E 1744 85 3e 00
        E 7 85 42 00
        E 8 85 39 00
        E 7 85 32 00
        E 133 95 3d 5b
        E 5 95 3e 58
        E 7 95 36 59
        E 12 95 32 59
        E 1742 85 3d 00
        E 5 85 3e 00
        E 7 85 36 00
        E 12 85 32 00
        E 128 95 3e 58
        E 3 95 40 58
        E 6 95 37 5b
        E 18 95 32 5b
        E 1739 85 3e 00
        E 3 85 40 00
        E 6 85 37 00
        E 18 85 32 00
        E 131 95 3e 5c
        E 2 95 3d 5c
        E 10 95 36 5e
        E 1 95 34 5b
        E 1753 85 3e 00
        E 2 85 3d 00
        E 10 85 36 00
        E 1 85 34 00
        E 141 95 3e 5b
        E 5 95 40 58
        E 0 95 36 5e
        E 10 95 37 59
        E 1751 85 3e 00
        E 5 85 40 00
        E 0 85 36 00
        E 10 85 37 00
        E 133 95 3d 5b
        E 9 95 3e 5b
        E 3 95 36 5c
        E 5 95 32 59
        E 1749 85 3d 00
        E 9 85 3e 00
        E 3 85 36 00
        E 5 85 32 00
        E 140 95 3b 57
        E 9 95 34 5e
        E 1 95 3e 5e
        E 12 95 37 59
        E 1744 85 3b 00
        E 9 85 34 00
        E 1 85 3e 00
        E 12 85 37 00
        E 135 95 40 57
        E 2 95 3e 59
        E 13 95 36 5b
        E 2 95 32 5b
        E 1749 85 40 00
        E 2 85 3e 00
        E 13 85 36 00
        E 2 85 32 00
        E 134 95 3e 58
        E 2 95 40 57
        E 6 95 39 5b
        E 5 95 32 5e
        E 1753 85 3e 00
        E 2 85 40 00
        E 6 85 39 00
        E 5 85 32 00
        E 140 95 3e 58
        E 5 95 40 5e
        E 13 95 39 5c
        E 7 95 32 5b
        E 1741 85 3e 00
        E 5 85 40 00
        E 13 85 39 00
        E 7 85 32 00
        E 127 95 3d 57
        E 6 95 3e 5c
        E 5 95 36 5b
        E 6 95 32 5b
        E 1749 85 3d 00
        E 6 85 3e 00
        E 5 85 36 00
        E 6 85 32 00
        E 143 95 3b 57
        E 2 95 3e 5c
        E 5 95 34 57
        E 7 95 37 58
        E 1752 85 3b 00
        E 2 85 3e 00
        E 5 85 34 00
        E 7 85 37 00
        E 138 95 3d 59
        E 9 95 3e 5b
        E 2 95 36 5c
        E 5 95 34 59
        E 1750 85 3d 00
        E 9 85 3e 00
        E 2 85 36 00
        E 5 85 34 00
        E 143 95 3e 5e
        E 4 95 42 5b
        E 0 95 37 5e
        E 9 95 32 59
        E 1753 85 3e 00
        E 4 85 42 00
        E 0 85 37 00
        E 9 85 32 00
        E 137 95 40 58
        E 2 95 3e 57
        E 7 95 39 59
        E 6 95 32 5c
        E 1751 85 40 00
        E 2 85 3e 00
        E 7 85 39 00
        E 6 85 32 00
        E 138 95 3e 59
        E 1 95 42 5c
        E 8 95 3b 5c
        E 2 95 32 5c
        E 1755 85 3e 00
        E 1 85 42 00
        E 8 85 3b 00
        E 2 85 32 00
        E 139 95 3e 57
        E 12 95 42 59
        E 6 95 39 5c
        E 11 95 32 5e
        E 1737 85 3e 00
        E 12 85 42 00
        E 6 85 39 00
        E 11 85 32 00
        E 132 95 3e 5c
        E 1 95 3b 58
        E 9 95 36 57
        E 8 95 32 57
        E 1748 85 3e 00
        E 1 85 3b 00
        E 9 85 36 00
        E 8 85 32 00
        E 134 95 3e 57
        E 0 95 42 58
        E 13 95 37 5b
        E 12 95 32 5e
        E 1741 85 3e 00
        E 0 85 42 00
        E 13 85 37 00
        E 12 85 32 00
        E 128 95 3e 59
        E 6 95 40 5c
        E 5 95 37 59
        E 0 95 36 5c
        E 1755 85 3e 00
        E 6 85 40 00
        E 5 85 37 00
        E 0 85 36 00
        E 142 95 3e 57
        E 7 95 42 5e
        E 3 95 37 5c
        E 8 95 32 5b
        E 1748 85 3e 00
        E 7 85 42 00
        E 3 85 37 00
        E 8 85 32 00
        E 134 95 3e 59
        E 6 95 40 57
        E 11 95 36 59
        E 10 95 37 59
        E 1739 85 3e 00
        E 6 85 40 00
        E 11 85 36 00
        E 10 85 37 00
        E 127 95 3d 5b
        E 6 95 3e 58
        E 4 95 34 5b
        E 14 95 36 5b
        E 1742 85 3d 00
        E 6 85 3e 00
        E 4 85 34 00
        E 14 85 36 00
        E 133 95 3e 57
        E 3 95 40 5e
        E 10 95 39 57
        E 3 95 32 5b
        E 1750 85 3e 00
        E 3 85 40 00
        E 10 85 39 00
        E 3 85 32 00
        E 138 95 3e 57
        E 5 95 43 5e
        E 6 95 39 58
        E 7 95 32 57
        E 1748 85 3e 00
        E 5 85 43 00
        E 6 85 39 00
        E 7 85 32 00
        E 155 95 32 5b
        E 1766 85 32 00
        E 2054 95 40 5b
        E 10 95 37 58
        E 1756 85 40 00
        E 10 85 37 00
        E 2082 95 36 5e
        E 0 95 32 5b
        E 1766 85 36 00
        E 0 85 32 00
        E 148 95 39 5c
        E 1766 85 39 00
        E 2084 95 32 58
        E 1766 85 32 00
        E 2057 95 3e 5e
        E 1766 85 3e 00
        E 150 95 3b 57
        E 7 95 34 5c
        E 0 95 3e 5c
        E 1759 85 3b 00
        E 7 85 34 00
        E 0 85 3e 00
        E 0 b5 7b 00
        E 1 ff 2f 00
      >
    >
  >
  <TRACK
    NAME "Harp"
    PEAKCOL 4290756410
    VOLPAN 1.000000 0 1 -1
    MIDIOUT -1
    ISBUS 0 0
    <ITEM
      POSITION 0.073292
      LENGTH 67.212226
      NAME "Harp"
      VOLPAN 1 0 1 -1
      <SOURCE MIDI
        HASDATA 1 960 QN
        E 0 c6 2e 00
        E 117 96 32 52
        E 242 96 36 47
        E 482 96 40 2f
        E 238 96 45 2d
        E 121 96 49 2d
        E 242 96 4c 2d
        E 118 96 4e 2d
        E 309 86 32 00
        E 2 86 36 00
        E 0 86 45 00
        E 1 86 49 00
        E 0 86 4e 00
        E 1 86 40 00
        E 1 86 4c 00
        E 45 96 31 5b
        E 363 96 36 46
        E 479 96 40 33
        E 359 96 49 2d
        E 120 96 4a 2d
        E 551 86 31 00
        E 1 86 49 00
        E 0 86 4a 00
        E 1 86 40 00
        E 1 86 36 00
        E 1128 96 47 2d
        E 118 96 4a 2d
        E 240 96 4e 2d
        E 119 96 4f 2d
        E 119 96 53 2d
        E 192 86 53 00
        E 1 86 4f 00
        E 1 86 4a 00
        E 0 86 4e 00
        E 2 86 47 00
        E 403 96 37 43
        E 600 96 43 30
        E 245 96 4a 2d
        E 667 86 37 00
        E 0 86 43 00
        E 5 86 4a 00
        E 284 96 36 47
        E 121 96 38 44
        E 361 96 40 33
        E 1078 96 50 2d
        E 72 86 36 00
        E 1 86 38 00
        E 1 86 40 00
        E 22 86 50 00
        E 626 96 3e 3a
        E 362 96 45 30
        E 118 96 47 2d
        E 119 96 4a 2d
        E 483 96 53 2d
        E 189 86 4a 00
        E 1 86 3e 00
        E 0 86 47 00
        E 2 86 45 00
        E 0 86 53 00
        E 528 96 39 3d
        E 718 96 49 2d
        E 672 86 49 00
        E 2 86 39 00
        E 164 96 32 4d
        E 722 96 40 2d
        E 602 96 4c 2d
        E 236 96 51 2d
        E 192 86 32 00
        E 0 86 51 00
        E 2 86 40 00
        E 2 86 4c 00
        E 404 96 39 46
        E 364 96 42 37
        E 240 96 45 2d
        E 360 96 4e 2d
        E 548 86 39 00
        E 4 86 42 00
        E 0 86 45 00
        E 0 86 4e 00
        E 167 96 32 52
        E 358 96 3b 40
        E 722 96 49 2d
        E 119 96 4a 2d
        E 358 96 53 2d
        E 121 96 51 2d
        E 71 86 53 00
        E 1 86 3b 00
        E 1 86 4a 00
        E 1 86 32 00
        E 0 86 49 00
        E 22 86 51 00
        E 24 96 31 58
        E 242 96 36 47
        E 357 96 3e 3d
        E 124 96 42 33
        E 237 96 49 2d
        E 122 96 4a 2d
        E 717 96 45 2d
        E 72 86 3e 00
        E 1 86 31 00
        E 0 86 49 00
        E 2 86 36 00
        E 0 86 4a 00
        E 1 86 42 00
        E 20 86 45 00
        E 24 96 34 59
        E 481 96 40 40
        E 122 96 42 3d
        E 121 96 44 39
        E 118 96 47 2f
        E 118 96 4c 2f
        E 122 96 4e 2d
        E 121 96 50 2d
        E 120 96 53 2d
        E 121 96 50 2d
        E 119 96 4e 2d
        E 119 96 4c 2d
        E 118 96 47 2d
        E 72 86 34 00
        E 0 86 4c 00
        E 1 86 40 00
        E 1 86 47 00
        E 0 86 4e 00
        E 0 86 4c 00
        E 1 86 42 00
        E 0 86 50 00
        E 0 86 53 00
        E 0 86 4e 00
        E 1 86 44 00
        E 0 86 50 00
        E 20 86 47 00
        E 25 96 32 54
        E 124 96 37 54
        E 120 96 39 4d
        E 117 96 3e 47
        E 122 96 43 3d
        E 119 96 45 3c
        E 121 96 4a 36
        E 119 96 4f 30
        E 121 96 51 2d
        E 121 96 4f 2d
        E 120 96 4a 2d
        E 120 96 45 2d
        E 119 96 43 2d
        E 118 96 3e 2d
        E 121 96 39 2d
        E 1 86 4a 00
        E 119 86 4f 00
        E 0 96 37 2d
        E 70 86 32 00
        E 1 86 3e 00
        E 0 86 3e 00
        E 1 86 45 00
        E 0 86 39 00
        E 1 86 43 00
        E 0 86 51 00
        E 0 86 43 00
        E 1 86 37 00
        E 0 86 39 00
        E 0 86 4f 00
        E 0 86 4a 00
        E 0 86 45 00
        E 22 86 37 00
        E 25 96 31 57
        E 116 96 32 4d
        E 120 96 36 4d
        E 121 96 39 40
        E 123 96 3b 3c
        E 116 96 3d 3d
        E 121 96 3e 33
        E 119 96 42 30
        E 124 96 45 2d
        E 118 96 47 2d
        E 118 96 49 2d
        E 123 96 4a 2d
        E 119 96 4e 2d
        E 121 96 51 2d
        E 120 96 53 2d
        E 121 96 51 2d
        E 68 86 32 00
        E 0 86 36 00
        E 0 86 3d 00
        E 0 86 42 00
        E 0 86 49 00
        E 1 86 39 00
        E 0 86 3e 00
        E 1 86 47 00
        E 0 86 4e 00
        E 1 86 4a 00
        E 0 86 51 00
        E 0 86 53 00
        E 1 86 31 00
        E 0 86 3b 00
        E 0 86 45 00
        E 24 86 51 00
        E 21 96 31 59
        E 120 96 32 52
        E 122 96 36 47
        E 120 96 39 46
        E 121 96 3b 40
        E 120 96 3d 3d
        E 118 96 3e 32
        E 122 96 42 30
        E 120 96 45 2d
        E 120 96 47 2d
        E 117 96 49 2d
        E 119 96 4a 2d
        E 124 96 4e 2d
        E 115 96 51 2d
        E 121 96 53 2d
        E 124 96 51 2d
        E 67 86 51 00
        E 1 86 4a 00
        E 0 86 53 00
        E 1 86 31 00
        E 0 86 32 00
        E 0 86 49 00
        E 1 86 3e 00
        E 1 86 36 00
        E 0 86 39 00
        E 1 86 3b 00
        E 0 86 3d 00
        E 0 86 42 00
        E 0 86 45 00
        E 0 86 47 00
        E 0 86 4e 00
        E 24 86 51 00
        E 25 96 31 54
        E 115 96 32 50
        E 124 96 34 4b
        E 121 96 36 44
        E 118 96 39 40
        E 122 96 3d 3a
        E 116 96 3e 36
        E 123 96 40 2f
        E 120 96 42 2d
        E 116 96 45 2d
        E 123 96 49 2d
        E 117 96 4a 2d
        E 122 96 4c 2d
        E 121 96 4e 2d
        E 120 96 51 2d
        E 117 96 4e 2d
        E 72 86 32 00
        E 0 86 45 00
        E 0 86 4a 00
        E 1 86 3e 00
        E 1 86 4c 00
        E 1 86 39 00
        E 0 86 49 00
        E 0 86 4e 00
        E 0 86 51 00
        E 1 86 34 00
        E 0 86 40 00
        E 0 86 42 00
        E 1 86 31 00
        E 0 86 36 00
        E 0 86 3d 00
        E 19 86 4e 00
        E 27 96 32 59
        E 120 96 36 50
        E 119 96 37 47
        E 123 96 39 47
        E 117 96 3b 40
        E 120 96 3e 3d
        E 122 96 42 33
        E 118 96 43 33
        E 120 96 45 2d
        E 119 96 47 2d
        E 123 96 4a 2d
        E 116 96 4e 2d
        E 120 96 4f 2d
        E 123 96 51 2d
        E 121 96 53 2d
        E 117 96 51 2d
        E 71 86 4e 00
        E 0 86 4f 00
        E 1 86 47 00
        E 1 86 37 00
        E 0 86 3b 00
        E 0 86 3e 00
        E 0 86 43 00
        E 0 86 45 00
        E 1 86 32 00
        E 0 86 36 00
        E 0 86 51 00
        E 1 86 42 00
        E 0 86 4a 00
        E 0 86 53 00
        E 1 86 39 00
        E 20 86 51 00
        E 26 96 31 59
        E 117 96 32 50
        E 123 96 36 47
        E 118 96 39 46
        E 121 96 3b 40
        E 117 96 3d 3a
        E 126 96 3e 33
        E 116 96 42 2d
        E 123 96 45 30
        E 118 96 47 2d
        E 123 96 49 2d
        E 115 96 4a 2d
        E 123 96 4e 2d
        E 122 96 51 2d
        E 115 96 53 2d
        E 121 96 51 2d
        E 70 86 3d 00
        E 1 86 32 00
        E 0 86 4a 00
        E 0 86 53 00
        E 1 86 39 00
        E 0 86 42 00
        E 1 86 3b 00
        E 0 86 47 00
        E 1 86 31 00
        E 0 86 36 00
        E 0 86 4e 00
        E 1 86 45 00
        E 1 86 3e 00
        E 0 86 49 00
        E 0 86 51 00
        E 20 86 51 00
        E 23 96 32 59
        E 124 96 34 4d
        E 119 96 37 4d
        E 120 96 3b 41
        E 117 96 3c 3d
        E 124 96 3e 3a
        E 115 96 40 32
        E 123 96 43 2d
        E 122 96 47 2f
        E 118 96 48 2d
        E 118 96 4a 2d
        E 119 96 4c 2d
        E 120 96 4f 2d
        E 120 96 53 2d
        E 120 96 54 2d
        E 123 96 53 2d
        E 69 86 40 00
        E 0 86 4c 00
        E 0 86 4f 00
        E 0 86 53 00
        E 0 86 54 00
        E 1 86 32 00
        E 0 86 3c 00
        E 0 86 4a 00
        E 2 86 43 00
        E 0 86 48 00
        E 1 86 37 00
        E 0 86 3b 00
        E 1 86 34 00
        E 0 86 3e 00
        E 0 86 47 00
        E 22 86 53 00
        E 24 96 32 57
        E 118 96 34 52
        E 125 96 36 47
        E 116 96 37 43
        E 124 96 3b 40
        E 114 96 3e 3c
        E 120 96 40 33
        E 122 96 42 2d
        E 123 96 43 30
        E 116 96 47 2d
        E 124 96 4a 2d
        E 117 96 4c 2d
        E 123 96 4e 2d
        E 116 96 4f 2d
        E 120 96 53 2d
        E 124 96 4f 2d
        E 67 86 3e 00
        E 0 86 40 00
        E 1 86 34 00
        E 0 86 47 00
        E 0 86 4f 00
        E 0 86 53 00
        E 1 86 37 00
        E 0 86 42 00
        E 0 86 4c 00
        E 1 86 32 00
        E 2 86 43 00
        E 0 86 4a 00
        E 0 86 4e 00
        E 1 86 36 00
        E 0 86 3b 00
        E 23 86 4f 00
        E 22 96 32 55
        E 118 96 36 54
        E 125 96 39 4a
        E 114 96 3b 44
        E 122 96 3e 40
        E 119 96 42 36
        E 124 96 45 39
        E 116 96 47 2d
        E 123 96 4a 2d
        E 120 96 4e 2d
        E 118 96 51 2d
        E 124 96 53 2d
        E 119 96 51 2d
        E 120 96 4e 2d
        E 117 96 4a 2d
        E 120 96 47 2d
        E 70 86 3b 00
        E 1 86 36 00
        E 0 86 42 00
        E 0 86 47 00
        E 1 86 3e 00
        E 0 86 51 00
        E 0 86 4a 00
        E 1 86 32 00
        E 1 86 4a 00
        E 0 86 4e 00
        E 1 86 45 00
        E 0 86 51 00
        E 0 86 4e 00
        E 1 86 39 00
        E 0 86 53 00
        E 20 86 47 00
        E 23 96 31 55
        E 119 96 32 4d
        E 126 96 36 4d
        E 119 96 39 44
        E 116 96 3d 3c
        E 124 96 3e 3c
        E 120 96 42 35
        E 117 96 45 32
        E 120 96 49 2d
        E 119 96 4a 2d
        E 120 96 4e 2d
        E 121 96 51 2d
        E 118 96 4e 2d
        E 125 96 4a 2d
        E 119 96 49 2d
        E 121 96 45 2d
        E 67 86 32 00
        E 0 86 4e 00
        E 1 86 31 00
        E 0 86 3d 00
        E 0 86 4a 00
        E 0 86 4e 00
        E 1 86 45 00
        E 0 86 49 00
        E 0 86 51 00
        E 2 86 49 00
        E 1 86 39 00
        E 0 86 3e 00
        E 0 86 42 00
        E 0 86 4a 00
        E 1 86 36 00
        E 23 86 45 00
        E 20 96 32 55
        E 124 96 34 51
        E 117 96 38 47
        E 120 96 3b 43
        E 123 96 3e 40
        E 116 96 40 3a
        E 123 96 44 39
        E 120 96 47 33
        E 120 96 4a 2d
        E 119 96 4c 2d
        E 122 96 50 2d
        E 119 96 53 2d
        E 119 96 50 2d
        E 122 96 4c 2d
        E 119 96 4a 2d
        E 116 96 47 2d
        E 73 86 32 00
        E 0 86 40 00
        E 1 86 38 00
        E 0 86 3b 00
        E 1 86 4c 00
        E 0 86 50 00
        E 1 86 44 00
        E 0 86 47 00
        E 0 86 4a 00
        E 0 86 53 00
        E 0 86 4a 00
        E 1 86 34 00
        E 0 86 3e 00
        E 0 86 50 00
        E 0 86 4c 00
        E 19 86 47 00
        E 29 96 31 5b
        E 117 96 32 4d
        E 120 96 34 47
        E 120 96 36 47
        E 119 96 39 3e
        E 121 96 3d 3a
        E 123 96 3e 35
        E 118 96 40 32
        E 121 96 42 30
        E 120 96 45 2d
        E 119 96 49 2d
        E 121 96 4a 2d
        E 121 96 4c 2d
        E 116 96 4e 2d
        E 123 96 51 2d
        E 121 96 4e 2d
        E 68 86 39 00
        E 0 86 4e 00
        E 1 86 32 00
        E 0 86 34 00
        E 0 86 36 00
        E 0 86 3d 00
        E 1 86 40 00
        E 0 86 49 00
        E 1 86 42 00
        E 0 86 45 00
        E 0 86 4a 00
        E 0 86 51 00
        E 1 86 31 00
        E 0 86 3e 00
        E 0 86 4c 00
        E 24 86 4e 00
        E 22 96 32 58
        E 121 96 34 4d
        E 116 96 36 4a
        E 125 96 37 43
        E 119 96 3b 3a
        E 116 96 3e 3d
        E 125 96 40 35
        E 117 96 42 2f
        E 120 96 43 30
        E 124 96 47 2d
        E 118 96 4a 2d
        E 118 96 4c 2d
        E 121 96 4e 2d
        E 118 96 4f 2d
        E 123 96 53 2d
        E 117 96 4f 2d
        E 71 86 36 00
        E 0 86 3e 00
        E 1 86 4f 00
        E 1 86 42 00
        E 0 86 43 00
        E 0 86 4c 00
        E 1 86 32 00
        E 0 86 4e 00
        E 1 86 34 00
        E 0 86 3b 00
        E 0 86 4a 00
        E 0 86 53 00
        E 1 86 37 00
        E 0 86 40 00
        E 1 86 47 00
        E 19 86 4f 00
        E 26 96 31 59
        E 121 96 32 4d
        E 121 96 36 4b
        E 115 96 39 47
        E 125 96 3b 3c
        E 119 96 3d 3c
        E 118 96 3e 32
        E 122 96 42 2d
        E 117 96 45 2d
        E 122 96 47 2d
        E 121 96 49 2d
        E 119 96 4a 2d
        E 123 96 4e 2d
        E 119 96 51 2d
        E 116 96 53 2d
        E 119 96 51 2d
        E 72 86 39 00
        E 1 86 45 00
        E 0 86 53 00
        E 1 86 3e 00
        E 1 86 31 00
        E 0 86 47 00
        E 0 86 4a 00
        E 1 86 32 00
        E 0 86 3d 00
        E 0 86 42 00
        E 0 86 49 00
        E 1 86 36 00
        E 0 86 3b 00
        E 0 86 51 00
        E 1 86 4e 00
        E 18 86 51 00
        E 28 96 32 5b
        E 117 96 34 52
        E 122 96 37 47
        E 122 96 3b 43
        E 117 96 3c 3a
        E 123 96 3e 3c
        E 116 96 40 36
        E 124 96 43 2d
        E 120 96 47 2d
        E 116 96 48 2d
        E 120 96 4a 2d
        E 124 96 4c 2d
        E 119 96 4f 2d
        E 117 96 53 2d
        E 124 96 54 2d
        E 117 96 53 2d
        E 71 86 34 00
        E 0 86 40 00
        E 0 86 48 00
        E 0 86 4a 00
        E 0 86 53 00
        E 1 86 3c 00
        E 1 86 37 00
        E 1 86 32 00
        E 0 86 4f 00
        E 1 86 3b 00
        E 0 86 3e 00
        E 0 86 43 00
        E 0 86 47 00
        E 0 86 4c 00
        E 0 86 54 00
        E 21 86 53 00
        E 26 96 32 58
        E 121 96 34 51
        E 120 96 36 4a
        E 117 96 39 44
        E 121 96 3e 40
        E 121 96 40 3c
        E 117 96 42 33
        E 124 96 45 2f
        E 116 96 4a 2d
        E 124 96 4c 2d
        E 115 96 4e 2d
        E 123 96 51 2d
        E 120 96 4e 2d
        E 121 96 4c 2d
        E 121 96 4a 2d
        E 117 96 45 2d
        E 70 86 4e 00
        E 1 86 42 00
        E 0 86 4a 00
        E 1 86 39 00
        E 1 86 3e 00
        E 0 86 51 00
        E 0 86 4e 00
        E 1 86 32 00
        E 0 86 40 00
        E 0 86 4c 00
        E 1 86 34 00
        E 0 86 36 00
        E 0 86 45 00
        E 0 86 4c 00
        E 0 86 4a 00
        E 21 86 45 00
        E 23 96 32 59
        E 119 96 34 54
        E 125 96 39 4a
        E 120 96 3e 44
        E 118 96 40 3a
        E 122 96 45 3d
        E 120 96 4a 37
        E 118 96 4c 2f
        E 120 96 51 2d
        E 121 96 4c 2d
        E 117 96 4a 2d
        E 121 96 45 2d
        E 119 96 40 2d
        E 125 96 3e 2d
        E 118 96 39 2d
        E 1 86 4a 00
        E 118 86 4c 00
        E 2 96 34 2d
        E 67 86 34 00
        E 1 86 32 00
        E 0 86 4a 00
        E 0 86 40 00
        E 1 86 45 00
        E 1 86 40 00
        E 0 86 51 00
        E 1 86 4c 00
        E 0 86 39 00
        E 1 86 39 00
        E 0 86 3e 00
        E 0 86 45 00
        E 1 86 3e 00
        E 23 86 34 00
        E 22 96 32 59
        E 119 96 34 50
        E 122 96 39 4a
        E 118 96 3e 40
        E 119 96 40 3d
        E 122 96 45 3a
        E 119 96 4a 33
        E 122 96 4c 2d
        E 117 96 51 30
        E 122 96 4c 2d
        E 123 96 4a 2d
        E 117 96 45 2d
        E 118 96 40 2d
        E 123 96 3e 2d
        E 117 96 39 2d
        E 1 86 4a 00
        E 120 96 34 2d
        E 2 86 4c 00
        E 69 86 40 00
        E 0 86 51 00
        E 0 86 40 00
        E 0 86 39 00
        E 1 86 34 00
        E 0 86 3e 00
        E 1 86 32 00
        E 0 86 45 00
        E 0 86 4c 00
        E 0 86 45 00
        E 1 86 39 00
        E 0 86 3e 00
        E 2 86 4a 00
        E 20 86 34 00
        E 28 96 31 59
        E 118 96 32 4e
        E 120 96 36 4d
        E 121 96 39 47
        E 120 96 3b 3c
        E 120 96 3d 36
        E 117 96 3e 36
        E 118 96 42 2d
        E 120 96 45 2d
        E 122 96 47 2d
        E 120 96 49 2d
        E 123 96 4a 2d
        E 119 96 4e 2d
        E 121 96 51 2d
        E 119 96 53 2d
        E 121 96 51 2d
        E 67 86 42 00
        E 0 86 45 00
        E 2 86 3e 00
        E 0 86 47 00
        E 0 86 49 00
        E 2 86 32 00
        E 0 86 36 00
        E 0 86 4e 00
        E 0 86 53 00
        E 1 86 39 00
        E 0 86 3b 00
        E 0 86 3d 00
        E 0 86 4a 00
        E 0 86 51 00
        E 1 86 31 00
        E 23 86 51 00
        E 24 96 32 54
        E 117 96 34 4d
        E 123 96 37 48
        E 121 96 3b 43
        E 118 96 3c 40
        E 121 96 3e 37
        E 115 96 40 39
        E 122 96 43 32
        E 120 96 47 2d
        E 123 96 48 2d
        E 120 96 4a 2d
        E 120 96 4c 2d
        E 118 96 4f 2d
        E 119 96 53 2d
        E 123 96 54 2d
        E 120 96 53 2d
        E 67 86 40 00
        E 2 86 34 00
        E 0 86 43 00
        E 0 86 47 00
        E 0 86 53 00
        E 1 86 4f 00
        E 1 86 3c 00
        E 1 86 32 00
        E 0 86 37 00
        E 0 86 3e 00
        E 0 86 48 00
        E 0 86 4a 00
        E 0 86 4c 00
        E 0 86 54 00
        E 1 86 3b 00
        E 23 86 53 00
        E 21 96 31 59
        E 123 96 32 4d
        E 119 96 34 47
        E 119 96 36 47
        E 120 96 39 41
        E 122 96 3d 3d
        E 119 96 3e 32
        E 120 96 40 2f
        E 119 96 42 2d
        E 121 96 45 2d
        E 117 96 49 2d
        E 120 96 4a 2d
        E 124 96 4c 2d
        E 121 96 4e 2d
        E 119 96 51 2d
        E 117 96 4e 2d
        E 71 86 49 00
        E 0 86 4a 00
        E 1 86 31 00
        E 1 86 36 00
        E 0 86 39 00
        E 0 86 42 00
        E 1 86 34 00
        E 0 86 3e 00
        E 0 86 40 00
        E 0 86 45 00
        E 1 86 32 00
        E 0 86 3d 00
        E 0 86 4c 00
        E 0 86 51 00
        E 1 86 4e 00
        E 20 86 4e 00
        E 26 96 32 58
        E 118 96 36 4d
        E 123 96 37 48
        E 116 96 39 46
        E 121 96 3b 40
        E 122 96 3e 3a
        E 117 96 42 37
        E 120 96 43 33
        E 120 96 45 2d
        E 120 96 47 2d
        E 120 96 4a 2d
        E 124 96 4e 2d
        E 121 96 4f 2d
        E 120 96 51 2d
        E 114 96 53 2d
        E 121 96 51 2d
        E 71 86 53 00
        E 1 86 39 00
        E 0 86 42 00
        E 0 86 43 00
        E 0 86 45 00
        E 0 86 47 00
        E 0 86 4a 00
        E 1 86 36 00
        E 0 86 3b 00
        E 2 86 32 00
        E 0 86 3e 00
        E 1 86 37 00
        E 0 86 4e 00
        E 1 86 4f 00
        E 0 86 51 00
        E 19 86 51 00
        E 24 96 32 55
        E 122 96 34 51
        E 122 96 39 47
        E 119 96 3e 44
        E 117 96 40 41
        E 124 96 45 36
        E 119 96 4a 37
        E 119 96 4c 33
        E 120 96 51 2d
        E 119 96 4c 2d
        E 124 96 4a 2d
        E 114 96 45 2d
        E 124 96 40 2d
        E 121 96 3e 2d
        E 119 86 4a 00
        E 1 96 39 2d
        E 115 96 34 2d
        E 3 86 4c 00
        E 69 86 45 00
        E 1 86 32 00
        E 0 86 40 00
        E 1 86 4c 00
        E 1 86 34 00
        E 0 86 51 00
        E 1 86 3e 00
        E 0 86 40 00
        E 1 86 39 00
        E 0 86 45 00
        E 0 86 3e 00
        E 0 86 39 00
        E 1 86 4a 00
        E 18 86 34 00
        E 30 96 33 59
        E 116 96 36 51
        E 123 96 3b 48
        E 118 96 3f 47
        E 120 96 42 40
        E 118 96 47 3d
        E 121 96 4b 35
        E 124 96 4e 2d
        E 117 96 53 2d
        E 119 96 4e 2d
        E 120 96 4b 2d
        E 122 96 47 2d
        E 117 96 42 2d
        E 121 96 3f 2d
        E 120 86 4b 00
        E 1 96 3b 2d
        E 119 96 36 2d
        E 4 86 4e 00
        E 67 86 47 00
        E 0 86 42 00
        E 1 86 36 00
        E 0 86 4e 00
        E 0 86 4b 00
        E 0 86 3f 00
        E 1 86 3f 00
        E 0 86 42 00
        E 0 86 53 00
        E 0 86 3b 00
        E 1 86 47 00
        E 1 86 3b 00
        E 1 86 33 00
        E 20 86 36 00
        E 24 96 32 54
        E 118 96 36 50
        E 123 96 39 48
        E 119 96 3e 43
        E 120 96 42 40
        E 123 96 45 39
        E 120 96 4a 33
        E 120 96 4e 30
        E 116 96 51 30
        E 120 96 4e 2d
        E 120 96 4a 2d
        E 123 96 45 2d
        E 118 96 42 2d
        E 119 96 3e 2d
        E 121 96 39 2d
        E 3 86 4a 00
        E 116 96 36 2d
        E 4 86 4e 00
        E 67 86 36 00
        E 1 86 51 00
        E 0 86 4e 00
        E 0 86 4a 00
        E 0 86 3e 00
        E 1 86 32 00
        E 0 86 3e 00
        E 0 86 42 00
        E 0 86 42 00
        E 0 86 39 00
        E 1 86 39 00
        E 1 86 45 00
        E 1 86 45 00
        E 20 86 36 00
        E 27 96 32 54
        E 120 96 36 4d
        E 119 96 39 47
        E 122 96 3c 40
        E 117 96 3e 40
        E 124 96 42 39
        E 120 96 45 35
        E 119 96 48 33
        E 119 96 4a 2d
        E 120 96 4e 2d
        E 118 96 51 2d
        E 124 96 54 2d
        E 115 96 51 2d
        E 122 96 4e 2d
        E 121 96 4a 2d
        E 118 96 48 2d
        E 3 86 48 00
        E 68 86 51 00
        E 1 86 3e 00
        E 0 86 51 00
        E 1 86 39 00
        E 0 86 4e 00
        E 1 86 32 00
        E 0 86 36 00
        E 0 86 4a 00
        E 0 86 4e 00
        E 0 86 4a 00
        E 1 86 3c 00
        E 1 86 42 00
        E 0 86 45 00
        E 0 86 54 00
        E 20 86 48 00
        E 23 96 32 59
        E 122 96 36 50
        E 120 96 37 4d
        E 119 96 3b 43
        E 122 96 3e 3c
        E 120 96 42 3a
        E 121 96 43 37
        E 120 96 47 33
        E 121 96 4a 2d
        E 117 96 4e 2d
        E 123 96 4f 2d
        E 117 96 53 2d
        E 119 96 4f 2d
        E 120 96 4e 2d
        E 119 96 4a 2d
        E 124 96 47 2d
        E 68 86 32 00
        E 0 86 4a 00
        E 1 86 3b 00
        E 0 86 4f 00
        E 0 86 4e 00
        E 1 86 36 00
        E 0 86 37 00
        E 0 86 4e 00
        E 0 86 53 00
        E 1 86 3e 00
        E 0 86 42 00
        E 1 86 43 00
        E 0 86 47 00
        E 1 86 4a 00
        E 0 86 4f 00
        E 23 86 47 00
        E 24 96 32 59
        E 116 96 34 51
        E 122 96 36 4b
        E 120 96 37 43
        E 120 96 3b 40
        E 120 96 3e 37
        E 123 96 40 35
        E 115 96 42 32
        E 124 96 43 2d
        E 120 96 47 2d
        E 117 96 4a 2d
        E 122 96 4c 2d
        E 119 96 4e 2d
        E 120 96 4f 2d
        E 123 96 53 2d
        E 119 96 4f 2d
        E 68 86 34 00
        E 0 86 42 00
        E 1 86 4a 00
        E 1 86 36 00
        E 0 86 37 00
        E 0 86 3b 00
        E 0 86 3e 00
        E 0 86 4e 00
        E 0 86 4f 00
        E 1 86 4c 00
        E 1 86 32 00
        E 0 86 43 00
        E 0 86 47 00
        E 1 86 40 00
        E 0 86 53 00
        E 23 86 4f 00
        E 22 96 32 54
        E 120 96 36 54
        E 117 96 37 47
        E 122 96 39 47
        E 120 96 3b 40
        E 122 96 3e 3a
        E 121 96 42 35
        E 117 96 43 33
        E 119 96 45 2f
        E 121 96 47 2d
        E 118 96 4a 2d
        E 121 96 4e 2d
        E 123 96 4f 2d
        E 119 96 51 2d
        E 123 96 53 2d
        E 115 96 51 2d
        E 71 86 37 00
        E 0 86 4a 00
        E 1 86 45 00
        E 0 86 4e 00
        E 1 86 39 00
        E 0 86 3b 00
        E 0 86 43 00
        E 0 86 47 00
        E 1 86 32 00
        E 0 86 36 00
        E 0 86 51 00
        E 1 86 3e 00
        E 0 86 4f 00
        E 1 86 42 00
        E 1 86 53 00
        E 19 86 51 00
        E 26 96 32 58
        E 118 96 34 50
        E 121 96 36 48
        E 119 96 37 44
        E 121 96 3b 40
        E 123 96 3e 39
        E 118 96 40 32
        E 119 96 42 2f
        E 121 96 43 30
        E 118 96 47 2d
        E 123 96 4a 2d
        E 118 96 4c 2d
        E 119 96 4e 2d
        E 121 96 4f 2d
        E 123 96 53 2d
        E 121 96 4f 2d
        E 67 86 34 00
        E 0 86 37 00
        E 0 86 47 00
        E 0 86 4e 00
        E 1 86 36 00
        E 0 86 3b 00
        E 0 86 42 00
        E 0 86 4c 00
        E 0 86 4f 00
        E 1 86 32 00
        E 0 86 40 00
        E 0 86 43 00
        E 1 86 4a 00
        E 1 86 3e 00
        E 0 86 53 00
        E 25 86 4f 00
        E 20 96 31 5b
        E 122 96 32 54
        E 119 96 34 47
        E 121 96 36 44
        E 120 96 39 3c
        E 117 96 3d 37
        E 123 96 3e 33
        E 116 96 40 30
        E 125 96 42 30
        E 120 96 45 2d
        E 120 96 49 2d
        E 118 96 4a 2d
        E 120 96 4c 2d
        E 122 96 4e 2d
        E 120 96 51 2d
        E 115 96 4e 2d
        E 72 86 40 00
        E 1 86 3d 00
        E 1 86 31 00
        E 1 86 34 00
        E 0 86 4a 00
        E 0 86 4c 00
        E 1 86 32 00
        E 0 86 36 00
        E 0 86 39 00
        E 0 86 3e 00
        E 1 86 42 00
        E 0 86 45 00
        E 0 86 49 00
        E 0 86 4e 00
        E 0 86 51 00
        E 19 86 4e 00
        E 28 96 32 59
        E 118 96 34 50
        E 120 96 39 48
        E 122 96 3e 47
        E 121 96 40 3a
        E 119 96 45 3d
        E 121 96 4a 33
        E 117 96 4c 2f
        E 122 96 51 2d
        E 118 96 4c 2d
        E 121 96 4a 2d
        E 119 96 45 2d
        E 119 96 40 2d
        E 123 96 3e 2d
        E 118 96 39 2d
        E 3 86 4a 00
        E 117 86 4c 00
        E 2 96 34 2d
        E 69 86 40 00
        E 1 86 34 00
        E 0 86 39 00
        E 0 86 4c 00
        E 0 86 45 00
        E 0 86 39 00
        E 1 86 4a 00
        E 1 86 32 00
        E 0 86 3e 00
        E 0 86 45 00
        E 0 86 51 00
        E 0 86 3e 00
        E 1 86 40 00
        E 23 86 34 00
        E 24 96 32 59
        E 120 96 37 4d
        E 120 96 39 4d
        E 120 96 3e 41
        E 118 96 43 40
        E 119 96 45 3c
        E 124 96 4a 35
        E 116 96 4f 33
        E 119 96 51 2d
        E 123 96 4f 2d
        E 122 96 4a 2d
        E 119 96 45 2d
        E 121 96 43 2d
        E 240 86 4a 00
        E 116 86 4f 00
        E 71 86 51 00
        E 1 86 45 00
        E 1 86 43 00
        E 1 86 4f 00
        E 1 86 32 00
        E 0 86 37 00
        E 0 86 39 00
        E 0 86 3e 00
        E 0 86 45 00
        E 1 86 4a 00
        E 0 86 43 00
        E 48 96 32 54
        E 475 96 42 3a
        E 123 96 45 36
        E 479 96 4e 2d
        E 602 96 39 2d
        E 188 86 42 00
        E 2 86 4e 00
        E 1 86 45 00
        E 1 86 39 00
        E 1 86 32 00
        E 525 96 3d 41
        E 238 96 42 37
        E 244 96 49 2d
        E 908 86 42 00
        E 2 86 3d 00
        E 2 86 49 00
        E 405 96 3b 47
        E 720 96 4e 2d
        E 481 96 4e 2d
        E 244 96 47 2d
        E 67 86 3b 00
        E 0 86 4e 00
        E 1 86 4e 00
        E 28 86 47 00
        E 19 96 34 58
        E 363 96 3c 47
        E 120 96 40 3e
        E 238 96 47 36
        E 843 96 4f 2d
        E 236 96 48 2d
        E 72 86 34 00
        E 1 86 47 00
        E 2 86 3c 00
        E 0 86 40 00
        E 1 86 4f 00
        E 20 86 48 00
        E 629 96 40 3a
        E 477 96 4c 2d
        E 123 96 4e 2d
        E 669 86 4c 00
        E 3 86 40 00
        E 0 86 4e 00
        E 47 96 32 5b
        E 718 96 4a 36
        E 603 96 45 2d
        E 117 96 40 2d
        E 121 96 3e 2d
        E 119 86 4a 00
        E 192 86 40 00
        E 1 86 3e 00
        E 1 86 32 00
        E 1 86 45 00
        E 286 96 3b 4d
        E 719 96 53 2d
        E 357 96 47 2d
        E 552 86 47 00
        E 3 86 53 00
        E 1 86 3b 00
        E 288 96 36 48
        E 118 96 39 44
        E 723 96 4a 2d
        E 121 96 4e 2d
        E 668 86 39 00
        E 2 86 36 00
        E 1 86 4a 00
        E 1 86 4e 00
        E 45 96 31 57
        E 117 96 32 50
        E 125 96 36 4b
        E 595 96 42 2d
        E 722 96 51 2d
        E 310 86 32 00
        E 0 86 42 00
        E 2 86 51 00
        E 1 86 31 00
        E 2 86 36 00
        E 767 96 40 33
        E 358 96 48 2d
        E 603 96 54 2d
        E 120 96 53 2d
        E 69 86 48 00
        E 2 86 40 00
        E 1 86 54 00
        E 24 86 53 00
        E 24 96 32 59
        E 1198 96 4a 2d
        E 240 96 4d 2d
        E 361 96 51 2d
        E 71 86 4a 00
        E 0 86 4d 00
        E 2 86 32 00
        E 23 86 51 00
        E 0 b6 7b 00
        E 1 ff 2f 00
      >
    >
  >
  <TRACK
    NAME "Glock"
    PEAKCOL 4290756410
    VOLPAN 1.000000 0 1 -1
    MIDIOUT -1
    ISBUS 0 0
    <ITEM
      POSITION 0.300000
      LENGTH 66.880000
      NAME "Glock"
      VOLPAN 1 0 1 -1
      <SOURCE MIDI
        HASDATA 1 960 QN
        E 0 c7 09 00
        E 480 97 68 50
        E 288 87 68 00
        E 672 97 68 4d
        E 288 87 68 00
        E 1632 97 68 4e
        E 288 87 68 00
        E 672 97 68 51
        E 288 87 68 00
        E 192 97 68 47
        E 288 87 68 00
        E 672 97 68 48
        E 288 87 68 00
        E 192 97 68 54
        E 288 87 68 00
        E 1152 97 68 48
        E 288 87 68 00
        E 1152 97 68 50
        E 288 87 68 00
        E 1632 97 68 50
        E 288 87 68 00
        E 1152 97 68 48
        E 288 87 68 00
        E 192 97 68 55
        E 288 87 68 00
        E 6432 97 68 4b
        E 288 87 68 00
        E 192 97 68 47
        E 288 87 68 00
        E 672 97 68 54
        E 288 87 68 00
        E 192 97 68 4d
        E 288 87 68 00
        E 192 97 68 54
        E 288 87 68 00
        E 192 97 68 55
        E 288 87 68 00
        E 192 97 68 4d
        E 288 87 68 00
        E 192 97 68 55
        E 288 87 68 00
        E 192 97 68 47
        E 288 87 68 00
        E 192 97 68 4d
        E 288 87 68 00
        E 192 97 68 51
        E 288 87 68 00
        E 192 97 68 55
        E 288 87 68 00
        E 192 97 68 55
        E 288 87 68 00
        E 192 97 68 48
        E 288 87 68 00
        E 192 97 68 50
        E 288 87 68 00
        E 192 97 68 48
        E 288 87 68 00
        E 192 97 68 48
        E 288 87 68 00
        E 192 97 68 52
        E 288 87 68 00
        E 192 97 68 4b
        E 288 87 68 00
        E 192 97 68 4e
        E 288 87 68 00
        E 192 97 68 54
        E 288 87 68 00
        E 192 97 68 50
        E 288 87 68 00
        E 192 97 68 50
        E 288 87 68 00
        E 192 97 68 48
        E 288 87 68 00
        E 192 97 68 50
        E 288 87 68 00
        E 192 97 68 4d
        E 288 87 68 00
        E 192 97 68 55
        E 288 87 68 00
        E 192 97 68 48
        E 288 87 68 00
        E 192 97 68 48
        E 288 87 68 00
        E 192 97 68 50
        E 288 87 68 00
        E 192 97 68 50
        E 288 87 68 00
        E 192 97 68 54
        E 288 87 68 00
        E 192 97 68 55
        E 288 87 68 00
        E 192 97 68 54
        E 288 87 68 00
        E 192 97 68 55
        E 288 87 68 00
        E 192 97 68 54
        E 288 87 68 00
        E 192 97 68 54
        E 288 87 68 00
        E 192 97 68 50
        E 288 87 68 00
        E 192 97 68 55
        E 288 87 68 00
        E 192 97 68 48
        E 288 87 68 00
        E 192 97 68 51
        E 288 87 68 00
        E 192 97 68 4d
        E 288 87 68 00
        E 192 97 68 51
        E 288 87 68 00
        E 192 97 68 50
        E 288 87 68 00
        E 192 97 68 4b
        E 288 87 68 00
        E 192 97 68 51
        E 288 87 68 00
        E 192 97 68 50
        E 288 87 68 00
        E 192 97 68 54
        E 288 87 68 00
        E 192 97 68 50
        E 288 87 68 00
        E 192 97 68 55
        E 288 87 68 00
        E 192 97 68 4d
        E 288 87 68 00
        E 192 97 68 52
        E 288 87 68 00
        E 192 97 68 54
        E 288 87 68 00
        E 192 97 68 48
        E 288 87 68 00
        E 192 97 68 4d
        E 288 87 68 00
        E 192 97 68 52
        E 288 87 68 00
        E 192 97 68 50
        E 288 87 68 00
        E 192 97 68 4a
        E 288 87 68 00
        E 192 97 68 4d
        E 288 87 68 00
        E 192 97 68 50
        E 288 87 68 00
        E 192 97 68 4d
        E 288 87 68 00
        E 192 97 68 47
        E 288 87 68 00
        E 192 97 68 54
        E 288 87 68 00
        E 192 97 68 4a
        E 288 87 68 00
        E 192 97 68 50
        E 288 87 68 00
        E 192 97 68 50
        E 288 87 68 00
        E 192 97 68 48
        E 288 87 68 00
        E 192 97 68 4d
        E 288 87 68 00
        E 192 97 68 48
        E 288 87 68 00
        E 192 97 68 50
        E 288 87 68 00
        E 192 97 68 50
        E 288 87 68 00
        E 192 97 68 50
        E 288 87 68 00
        E 192 97 68 48
        E 288 87 68 00
        E 192 97 68 51
        E 288 87 68 00
        E 192 97 68 50
        E 288 87 68 00
        E 192 97 68 48
        E 288 87 68 00
        E 192 97 68 50
        E 288 87 68 00
        E 192 97 68 55
        E 288 87 68 00
        E 192 97 68 47
        E 288 87 68 00
        E 192 97 68 4d
        E 288 87 68 00
        E 192 97 68 55
        E 288 87 68 00
        E 192 97 68 50
        E 288 87 68 00
        E 192 97 68 48
        E 288 87 68 00
        E 192 97 68 47
        E 288 87 68 00
        E 192 97 68 55
        E 288 87 68 00
        E 192 97 68 54
        E 288 87 68 00
        E 192 97 68 51
        E 288 87 68 00
        E 192 97 68 50
        E 288 87 68 00
        E 192 97 68 4d
        E 288 87 68 00
        E 192 97 68 50
        E 288 87 68 00
        E 192 97 68 55
        E 288 87 68 00
        E 192 97 68 54
        E 288 87 68 00
        E 192 97 68 4d
        E 288 87 68 00
        E 192 97 68 51
        E 288 87 68 00
        E 192 97 68 4b
        E 288 87 68 00
        E 192 97 68 54
        E 288 87 68 00
        E 192 97 68 52
        E 288 87 68 00
        E 192 97 68 4d
        E 288 87 68 00
        E 192 97 68 54
        E 288 87 68 00
        E 192 97 68 4b
        E 288 87 68 00
        E 192 97 68 48
        E 288 87 68 00
        E 192 97 68 50
        E 288 87 68 00
        E 192 97 68 4d
        E 288 87 68 00
        E 192 97 68 4d
        E 288 87 68 00
        E 192 97 68 4d
        E 288 87 68 00
        E 192 97 68 4d
        E 288 87 68 00
        E 192 97 68 4e
        E 288 87 68 00
        E 192 97 68 52
        E 288 87 68 00
        E 192 97 68 50
        E 288 87 68 00
        E 192 97 68 4d
        E 288 87 68 00
        E 192 97 68 4d
        E 288 87 68 00
        E 192 97 68 50
        E 288 87 68 00
        E 192 97 68 4b
        E 288 87 68 00
        E 192 97 68 50
        E 288 87 68 00
        E 192 97 68 47
        E 288 87 68 00
        E 192 97 68 48
        E 288 87 68 00
        E 192 97 68 47
        E 288 87 68 00
        E 192 97 68 55
        E 288 87 68 00
        E 192 97 68 55
        E 288 87 68 00
        E 192 97 68 55
        E 288 87 68 00
        E 192 97 68 48
        E 288 87 68 00
        E 192 97 68 55
        E 288 87 68 00
        E 192 97 68 4e
        E 288 87 68 00
        E 192 97 68 47
        E 288 87 68 00
        E 192 97 68 50
        E 288 87 68 00
        E 192 97 68 52
        E 288 87 68 00
        E 192 97 68 54
        E 288 87 68 00
        E 192 97 68 4a
        E 288 87 68 00
        E 192 97 68 54
        E 288 87 68 00
        E 192 97 68 50
        E 288 87 68 00
        E 192 97 68 4d
        E 288 87 68 00
        E 192 97 68 54
        E 288 87 68 00
        E 192 97 68 48
        E 288 87 68 00
        E 192 97 68 4d
        E 288 87 68 00
        E 192 97 68 55
        E 288 87 68 00
        E 192 97 68 55
        E 288 87 68 00
        E 192 97 68 55
        E 288 87 68 00
        E 192 97 68 4a
        E 288 87 68 00
        E 192 97 68 48
        E 288 87 68 00
        E 192 97 68 54
        E 288 87 68 00
        E 2112 97 68 54
        E 288 87 68 00
        E 2112 97 68 4b
        E 288 87 68 00
        E 672 97 68 4d
        E 288 87 68 00
        E 3552 97 68 4d
        E 288 87 68 00
        E 192 97 68 50
        E 288 87 68 00
        E 1152 97 68 54
        E 288 87 68 00
        E 4032 97 68 55
        E 288 87 68 00
        E 2592 97 68 55
        E 288 87 68 00
        E 1152 97 68 50
        E 288 87 68 00
        E 0 b7 7b 00
        E 1 ff 2f 00
      >
    >
  >
  <TRACK
    NAME "Tuba"
    PEAKCOL 4290740026
    VOLPAN 1.000000 0 1 -1
    MIDIOUT -1
    ISBUS 0 0
    <ITEM
      POSITION 1.200000
      LENGTH 62.320000
      NAME "Tuba"
      VOLPAN 1 0 1 -1
      <SOURCE MIDI
        HASDATA 1 960 QN
        E 0 c8 3a 00
        E 1920 98 25 5c
        E 1632 88 25 00
        E 2208 98 26 63
        E 1632 88 26 00
        E 6048 98 25 5b
        E 1632 88 25 00
        E 2208 98 25 62
        E 1632 88 25 00
        E 288 98 25 61
        E 1632 88 25 00
        E 2208 98 26 5b
        E 1632 88 26 00
        E 288 98 25 61
        E 1632 88 25 00
        E 288 98 25 61
        E 1632 88 25 00
        E 288 98 25 61
        E 1632 88 25 00
        E 288 98 26 5e
        E 1632 88 26 00
        E 288 98 25 59
        E 1632 88 25 00
        E 288 98 23 59
        E 1632 88 23 00
        E 288 98 26 62
        E 1632 88 26 00
        E 288 98 26 5f
        E 1632 88 26 00
        E 288 98 25 5f
        E 1632 88 25 00
        E 288 98 26 61
        E 1632 88 26 00
        E 288 98 25 5f
        E 1632 88 25 00
        E 288 98 26 5b
        E 1632 88 26 00
        E 288 98 25 5f
        E 1632 88 25 00
        E 288 98 23 5c
        E 1632 88 23 00
        E 288 98 26 59
        E 1632 88 26 00
        E 288 98 26 5f
        E 1632 88 26 00
        E 288 98 26 5b
        E 1632 88 26 00
        E 288 98 25 59
        E 1632 88 25 00
        E 288 98 23 5b
        E 1632 88 23 00
        E 288 98 25 62
        E 1632 88 25 00
        E 288 98 26 61
        E 1632 88 26 00
        E 288 98 26 5c
        E 1632 88 26 00
        E 288 98 26 5f
        E 1632 88 26 00
        E 288 98 26 5e
        E 1632 88 26 00
        E 288 98 23 5c
        E 1632 88 23 00
        E 288 98 26 5c
        E 1632 88 26 00
        E 288 98 26 61
        E 1632 88 26 00
        E 288 98 26 62
        E 1632 88 26 00
        E 288 98 26 5b
        E 1632 88 26 00
        E 288 98 25 63
        E 1632 88 25 00
        E 288 98 26 61
        E 1632 88 26 00
        E 288 98 26 59
        E 1632 88 26 00
        E 288 98 26 5e
        E 1632 88 26 00
        E 288 98 25 61
        E 1632 88 25 00
        E 4128 98 26 5e
        E 1632 88 26 00
        E 4128 98 25 59
        E 1632 88 25 00
        E 0 b8 7b 00
        E 1 ff 2f 00
      >
    >
  >
  <TRACK
    NAME "Pedal"
    PEAKCOL 4284506208
    VOLPAN 1.000000 0 1 -1
    MIDIOUT -1
    ISBUS 0 0
    <ITEM
      POSITION 0.000000
      LENGTH 67.240000
      NAME "Pedal"
      VOLPAN 1 0 1 -1
      <SOURCE MIDI
        HASDATA 1 960 QN
        E 0 ca 2b 00
        E 0 9a 25 5c
        E 864 8a 25 00
        E 96 9a 28 54
        E 864 8a 28 00
        E 96 9a 25 5c
        E 864 8a 25 00
        E 96 9a 25 54
        E 864 8a 25 00
        E 96 9a 26 5c
        E 864 8a 26 00
        E 96 9a 2a 54
        E 864 8a 2a 00
        E 96 9a 26 5c
        E 864 8a 26 00
        E 96 9a 2a 54
        E 864 8a 2a 00
        E 96 9a 25 5c
        E 864 8a 25 00
        E 96 9a 2a 54
        E 864 8a 2a 00
        E 96 9a 26 5c
        E 864 8a 26 00
        E 96 9a 26 54
        E 864 8a 26 00
        E 96 9a 25 5c
        E 864 8a 25 00
        E 96 9a 25 54
        E 864 8a 25 00
        E 96 9a 25 5c
        E 864 8a 25 00
        E 96 9a 23 54
        E 864 8a 23 00
        E 96 9a 26 5c
        E 864 8a 26 00
        E 96 9a 28 54
        E 864 8a 28 00
        E 96 9a 25 5c
        E 864 8a 25 00
        E 96 9a 2a 54
        E 864 8a 2a 00
        E 96 9a 25 5c
        E 864 8a 25 00
        E 96 9a 2a 54
        E 864 8a 2a 00
        E 96 9a 28 5c
        E 864 8a 28 00
        E 96 9a 26 54
        E 864 8a 26 00
        E 96 9a 26 5c
        E 864 8a 26 00
        E 96 9a 2a 54
        E 864 8a 2a 00
        E 96 9a 25 5c
        E 864 8a 25 00
        E 96 9a 28 54
        E 864 8a 28 00
        E 96 9a 25 5c
        E 864 8a 25 00
        E 96 9a 21 54
        E 864 8a 21 00
        E 96 9a 25 5c
        E 864 8a 25 00
        E 96 9a 23 54
        E 864 8a 23 00
        E 96 9a 26 5c
        E 864 8a 26 00
        E 96 9a 25 54
        E 864 8a 25 00
        E 96 9a 25 5c
        E 864 8a 25 00
        E 96 9a 28 54
        E 864 8a 28 00
        E 96 9a 23 5c
        E 864 8a 23 00
        E 96 9a 25 54
        E 864 8a 25 00
        E 96 9a 26 5c
        E 864 8a 26 00
        E 96 9a 28 54
        E 864 8a 28 00
        E 96 9a 26 5c
        E 864 8a 26 00
        E 96 9a 2a 54
        E 864 8a 2a 00
        E 96 9a 25 5c
        E 864 8a 25 00
        E 96 9a 25 54
        E 864 8a 25 00
        E 96 9a 26 5c
        E 864 8a 26 00
        E 96 9a 23 54
        E 864 8a 23 00
        E 96 9a 25 5c
        E 864 8a 25 00
        E 96 9a 25 54
        E 864 8a 25 00
        E 96 9a 26 5c
        E 864 8a 26 00
        E 96 9a 21 54
        E 864 8a 21 00
        E 96 9a 25 5c
        E 864 8a 25 00
        E 96 9a 2b 54
        E 864 8a 2b 00
        E 96 9a 2f 5c
        E 864 8a 2f 00
        E 96 9a 2f 54
        E 864 8a 2f 00
        E 96 9a 32 5c
        E 864 8a 32 00
        E 96 9a 2f 54
        E 864 8a 2f 00
        E 96 9a 32 5c
        E 864 8a 32 00
        E 96 9a 2d 54
        E 864 8a 2d 00
        E 96 9a 32 5c
        E 864 8a 32 00
        E 96 9a 32 54
        E 864 8a 32 00
        E 96 9a 31 5c
        E 864 8a 31 00
        E 96 9a 2d 54
        E 864 8a 2d 00
        E 96 9a 2f 5c
        E 864 8a 2f 00
        E 96 9a 34 54
        E 864 8a 34 00
        E 96 9a 31 5c
        E 864 8a 31 00
        E 96 9a 2f 54
        E 864 8a 2f 00
        E 96 9a 32 5c
        E 864 8a 32 00
        E 96 9a 32 54
        E 864 8a 32 00
        E 96 9a 32 5c
        E 864 8a 32 00
        E 96 9a 2d 54
        E 864 8a 2d 00
        E 96 9a 32 5c
        E 864 8a 32 00
        E 96 9a 2d 54
        E 864 8a 2d 00
        E 96 9a 32 5c
        E 864 8a 32 00
        E 96 9a 36 54
        E 864 8a 36 00
        E 96 9a 37 5c
        E 864 8a 37 00
        E 96 9a 37 54
        E 864 8a 37 00
        E 96 9a 32 5c
        E 864 8a 32 00
        E 96 9a 2d 54
        E 864 8a 2d 00
        E 96 9a 32 5c
        E 864 8a 32 00
        E 96 9a 36 54
        E 864 8a 36 00
        E 96 9a 32 5c
        E 864 8a 32 00
        E 96 9a 34 54
        E 864 8a 34 00
        E 96 9a 32 5c
        E 864 8a 32 00
        E 96 9a 31 54
        E 864 8a 31 00
        E 96 9a 31 5c
        E 864 8a 31 00
        E 96 9a 32 54
        E 864 8a 32 00
        E 96 9a 32 5c
        E 864 8a 32 00
        E 96 9a 2d 54
        E 864 8a 2d 00
        E 96 9a 32 5c
        E 864 8a 32 00
        E 96 9a 2d 54
        E 864 8a 2d 00
        E 96 9a 32 5c
        E 864 8a 32 00
        E 96 9a 34 54
        E 864 8a 34 00
        E 96 9a 31 5c
        E 864 8a 31 00
        E 96 9a 2d 54
        E 864 8a 2d 00
        E 96 9a 28 5c
        E 864 8a 28 00
        E 96 9a 26 54
        E 864 8a 26 00
        E 96 9a 23 5c
        E 864 8a 23 00
        E 96 9a 25 54
        E 864 8a 25 00
        E 96 9a 26 5c
        E 864 8a 26 00
        E 96 9a 23 54
        E 864 8a 23 00
        E 96 9a 26 5c
        E 864 8a 26 00
        E 96 9a 21 54
        E 864 8a 21 00
        E 96 9a 26 5c
        E 864 8a 26 00
        E 96 9a 23 54
        E 864 8a 23 00
        E 96 9a 25 5c
        E 864 8a 25 00
        E 96 9a 23 54
        E 864 8a 23 00
        E 96 9a 25 5c
        E 864 8a 25 00
        E 96 9a 2a 54
        E 864 8a 2a 00
        E 96 9a 2f 5c
        E 864 8a 2f 00
        E 96 9a 2a 54
        E 864 8a 2a 00
        E 96 9a 2f 5c
        E 864 8a 2f 00
        E 96 9a 34 54
        E 864 8a 34 00
        E 0 ba 7b 00
        E 1 ff 2f 00
      >
    >
  >
  <TRACK
    NAME "Timpani"
    PEAKCOL 4290722362
    VOLPAN 1.000000 0 1 -1
    MIDIOUT -1
    ISBUS 0 0
    <ITEM
      POSITION 0.075000
      LENGTH 67.210000
      NAME "Timpani"
      VOLPAN 1 0 1 -1
      <SOURCE MIDI
        HASDATA 1 960 QN
        E 0 cb 2f 00
        E 120 9b 25 5e
        E 96 8b 25 00
        E 144 9b 25 6c
        E 96 8b 25 00
        E 384 9b 25 74
        E 96 8b 25 00
        E 144 9b 25 75
        E 96 8b 25 00
        E 24 9b 25 76
        E 96 8b 25 00
        E 144 9b 25 69
        E 96 8b 25 00
        E 24 9b 25 66
        E 96 8b 25 00
        E 264 9b 25 66
        E 96 8b 25 00
        E 264 9b 25 68
        E 96 8b 25 00
        E 384 9b 25 6f
        E 96 8b 25 00
        E 264 9b 25 73
        E 96 8b 25 00
        E 24 9b 25 73
        E 96 8b 25 00
        E 1584 9b 26 76
        E 96 8b 26 00
        E 24 9b 26 74
        E 96 8b 26 00
        E 144 9b 26 72
        E 96 8b 26 00
        E 24 9b 26 6c
        E 96 8b 26 00
        E 24 9b 26 6c
        E 96 8b 26 00
        E 504 9b 26 6d
        E 96 8b 26 00
        E 504 9b 26 76
        E 96 8b 26 00
        E 144 9b 26 74
        E 96 8b 26 00
        E 864 9b 25 65
        E 96 8b 25 00
        E 24 9b 25 6d
        E 96 8b 25 00
        E 264 9b 25 76
        E 96 8b 25 00
        E 984 9b 25 68
        E 96 8b 25 00
        E 624 9b 26 6f
        E 96 8b 26 00
        E 264 9b 26 76
        E 96 8b 26 00
        E 24 9b 26 6f
        E 96 8b 26 00
        E 24 9b 26 74
        E 96 8b 26 00
        E 384 9b 26 66
        E 96 8b 26 00
        E 624 9b 25 72
        E 96 8b 25 00
        E 624 9b 25 76
        E 96 8b 25 00
        E 744 9b 25 61
        E 96 8b 25 00
        E 624 9b 25 76
        E 96 8b 25 00
        E 504 9b 25 6c
        E 96 8b 25 00
        E 144 9b 25 68
        E 96 8b 25 00
        E 504 9b 26 69
        E 96 8b 26 00
        E 264 9b 26 72
        E 96 8b 26 00
        E 144 9b 26 76
        E 96 8b 26 00
        E 264 9b 26 72
        E 96 8b 26 00
        E 624 9b 25 5c
        E 96 8b 25 00
        E 264 9b 25 6d
        E 96 8b 25 00
        E 624 9b 25 76
        E 96 8b 25 00
        E 24 9b 25 72
        E 96 8b 25 00
        E 264 9b 25 68
        E 96 8b 25 00
        E 24 9b 25 63
        E 96 8b 25 00
        E 24 9b 25 5f
        E 96 8b 25 00
        E 144 9b 25 65
        E 96 8b 25 00
        E 264 9b 25 76
        E 96 8b 25 00
        E 24 9b 25 76
        E 96 8b 25 00
        E 144 9b 25 76
        E 96 8b 25 00
        E 24 9b 25 6f
        E 96 8b 25 00
        E 624 9b 25 62
        E 96 8b 25 00
        E 24 9b 28 5f
        E 96 8b 28 00
        E 384 9b 28 68
        E 96 8b 28 00
        E 24 9b 28 76
        E 96 8b 28 00
        E 24 9b 28 76
        E 96 8b 28 00
        E 24 9b 28 76
        E 96 8b 28 00
        E 24 9b 28 73
        E 96 8b 28 00
        E 24 9b 28 76
        E 96 8b 28 00
        E 24 9b 28 6f
        E 96 8b 28 00
        E 24 9b 28 76
        E 96 8b 28 00
        E 24 9b 28 72
        E 96 8b 28 00
        E 24 9b 28 6d
        E 96 8b 28 00
        E 24 9b 28 69
        E 96 8b 28 00
        E 24 9b 28 68
        E 96 8b 28 00
        E 24 9b 26 65
        E 96 8b 26 00
        E 24 9b 26 66
        E 96 8b 26 00
        E 24 9b 26 68
        E 96 8b 26 00
        E 24 9b 26 6f
        E 96 8b 26 00
        E 24 9b 26 6d
        E 96 8b 26 00
        E 24 9b 26 6c
        E 96 8b 26 00
        E 24 9b 26 76
        E 96 8b 26 00
        E 24 9b 26 76
        E 96 8b 26 00
        E 24 9b 26 76
        E 96 8b 26 00
        E 24 9b 26 76
        E 96 8b 26 00
        E 24 9b 26 74
        E 96 8b 26 00
        E 24 9b 26 72
        E 96 8b 26 00
        E 24 9b 26 74
        E 96 8b 26 00
        E 24 9b 26 6f
        E 96 8b 26 00
        E 24 9b 26 6b
        E 96 8b 26 00
        E 24 9b 26 63
        E 96 8b 26 00
        E 24 9b 25 61
        E 96 8b 25 00
        E 24 9b 25 65
        E 96 8b 25 00
        E 24 9b 25 61
        E 96 8b 25 00
        E 24 9b 25 68
        E 96 8b 25 00
        E 24 9b 25 6f
        E 96 8b 25 00
        E 24 9b 25 76
        E 96 8b 25 00
        E 24 9b 25 74
        E 96 8b 25 00
        E 24 9b 25 74
        E 96 8b 25 00
        E 24 9b 25 6f
        E 96 8b 25 00
        E 24 9b 25 76
        E 96 8b 25 00
        E 24 9b 25 74
        E 96 8b 25 00
        E 24 9b 25 72
        E 96 8b 25 00
        E 24 9b 25 6f
        E 96 8b 25 00
        E 24 9b 25 6f
        E 96 8b 25 00
        E 24 9b 25 65
        E 96 8b 25 00
        E 24 9b 25 5e
        E 96 8b 25 00
        E 24 9b 25 5e
        E 96 8b 25 00
        E 24 9b 25 61
        E 96 8b 25 00
        E 24 9b 25 6d
        E 96 8b 25 00
        E 24 9b 25 69
        E 96 8b 25 00
        E 24 9b 25 6d
        E 96 8b 25 00
        E 24 9b 25 74
        E 96 8b 25 00
        E 24 9b 25 6f
        E 96 8b 25 00
        E 24 9b 25 73
        E 96 8b 25 00
        E 24 9b 25 74
        E 96 8b 25 00
        E 24 9b 25 6f
        E 96 8b 25 00
        E 24 9b 25 75
        E 96 8b 25 00
        E 24 9b 25 74
        E 96 8b 25 00
        E 24 9b 25 6f
        E 96 8b 25 00
        E 24 9b 25 73
        E 96 8b 25 00
        E 24 9b 25 6b
        E 96 8b 25 00
        E 24 9b 25 63
        E 96 8b 25 00
        E 24 9b 25 62
        E 96 8b 25 00
        E 24 9b 25 62
        E 96 8b 25 00
        E 24 9b 25 61
        E 96 8b 25 00
        E 24 9b 25 69
        E 96 8b 25 00
        E 24 9b 25 6c
        E 96 8b 25 00
        E 24 9b 25 72
        E 96 8b 25 00
        E 24 9b 25 6f
        E 96 8b 25 00
        E 24 9b 25 74
        E 96 8b 25 00
        E 24 9b 25 75
        E 96 8b 25 00
        E 24 9b 25 75
        E 96 8b 25 00
        E 24 9b 25 6d
        E 96 8b 25 00
        E 24 9b 25 76
        E 96 8b 25 00
        E 24 9b 25 6f
        E 96 8b 25 00
        E 24 9b 25 6c
        E 96 8b 25 00
        E 24 9b 25 65
        E 96 8b 25 00
        E 24 9b 25 5b
        E 96 8b 25 00
        E 24 9b 26 5e
        E 96 8b 26 00
        E 24 9b 26 63
        E 96 8b 26 00
        E 24 9b 26 6d
        E 96 8b 26 00
        E 24 9b 26 6f
        E 96 8b 26 00
        E 24 9b 26 74
        E 96 8b 26 00
        E 24 9b 26 6d
        E 96 8b 26 00
        E 24 9b 26 76
        E 96 8b 26 00
        E 24 9b 26 74
        E 96 8b 26 00
        E 24 9b 26 75
        E 96 8b 26 00
        E 24 9b 26 74
        E 96 8b 26 00
        E 24 9b 26 6f
        E 96 8b 26 00
        E 24 9b 26 6d
        E 96 8b 26 00
        E 24 9b 26 6f
        E 96 8b 26 00
        E 24 9b 26 69
        E 96 8b 26 00
        E 24 9b 26 61
        E 96 8b 26 00
        E 24 9b 26 63
        E 96 8b 26 00
        E 24 9b 25 5f
        E 96 8b 25 00
        E 24 9b 25 68
        E 96 8b 25 00
        E 24 9b 25 68
        E 96 8b 25 00
        E 24 9b 25 6f
        E 96 8b 25 00
        E 24 9b 25 6f
        E 96 8b 25 00
        E 24 9b 25 76
        E 96 8b 25 00
        E 24 9b 25 76
        E 96 8b 25 00
        E 24 9b 25 76
        E 96 8b 25 00
        E 24 9b 25 73
        E 96 8b 25 00
        E 24 9b 25 76
        E 96 8b 25 00
        E 24 9b 25 76
        E 96 8b 25 00
        E 24 9b 25 6f
        E 96 8b 25 00
        E 24 9b 25 70
        E 96 8b 25 00
        E 24 9b 25 69
        E 96 8b 25 00
        E 24 9b 25 6b
        E 96 8b 25 00
        E 24 9b 25 62
        E 96 8b 25 00
        E 24 9b 24 59
        E 96 8b 24 00
        E 24 9b 24 61
        E 96 8b 24 00
        E 24 9b 24 6f
        E 96 8b 24 00
        E 24 9b 24 72
        E 96 8b 24 00
        E 24 9b 24 72
        E 96 8b 24 00
        E 24 9b 24 6f
        E 96 8b 24 00
        E 24 9b 24 74
        E 96 8b 24 00
        E 24 9b 24 75
        E 96 8b 24 00
        E 24 9b 24 6f
        E 96 8b 24 00
        E 24 9b 24 76
        E 96 8b 24 00
        E 24 9b 24 74
        E 96 8b 24 00
        E 24 9b 24 76
        E 96 8b 24 00
        E 24 9b 24 70
        E 96 8b 24 00
        E 24 9b 24 6c
        E 96 8b 24 00
        E 24 9b 24 6d
        E 96 8b 24 00
        E 24 9b 24 5e
        E 96 8b 24 00
        E 24 9b 26 59
        E 96 8b 26 00
        E 24 9b 26 5f
        E 96 8b 26 00
        E 24 9b 26 65
        E 96 8b 26 00
        E 24 9b 26 72
        E 96 8b 26 00
        E 24 9b 26 73
        E 96 8b 26 00
        E 24 9b 26 74
        E 96 8b 26 00
        E 24 9b 26 70
        E 96 8b 26 00
        E 24 9b 26 76
        E 96 8b 26 00
        E 24 9b 26 76
        E 96 8b 26 00
        E 24 9b 26 74
        E 96 8b 26 00
        E 24 9b 26 76
        E 96 8b 26 00
        E 24 9b 26 75
        E 96 8b 26 00
        E 24 9b 26 72
        E 96 8b 26 00
        E 24 9b 26 72
        E 96 8b 26 00
        E 24 9b 26 68
        E 96 8b 26 00
        E 24 9b 26 61
        E 96 8b 26 00
        E 24 9b 26 5f
        E 96 8b 26 00
        E 24 9b 26 63
        E 96 8b 26 00
        E 24 9b 26 68
        E 96 8b 26 00
        E 24 9b 26 65
        E 96 8b 26 00
        E 24 9b 26 6f
        E 96 8b 26 00
        E 24 9b 26 75
        E 96 8b 26 00
        E 24 9b 26 74
        E 96 8b 26 00
        E 24 9b 26 76
        E 96 8b 26 00
        E 24 9b 26 70
        E 96 8b 26 00
        E 24 9b 26 76
        E 96 8b 26 00
        E 24 9b 26 72
        E 96 8b 26 00
        E 24 9b 26 73
        E 96 8b 26 00
        E 24 9b 26 68
        E 96 8b 26 00
        E 24 9b 26 66
        E 96 8b 26 00
        E 24 9b 26 6b
        E 96 8b 26 00
        E 24 9b 26 65
        E 96 8b 26 00
        E 24 9b 25 5e
        E 96 8b 25 00
        E 24 9b 25 61
        E 96 8b 25 00
        E 24 9b 25 6f
        E 96 8b 25 00
        E 24 9b 25 6f
        E 96 8b 25 00
        E 24 9b 25 70
        E 96 8b 25 00
        E 24 9b 25 72
        E 96 8b 25 00
        E 24 9b 25 76
        E 96 8b 25 00
        E 24 9b 25 76
        E 96 8b 25 00
        E 24 9b 25 6f
        E 96 8b 25 00
        E 24 9b 25 72
        E 96 8b 25 00
        E 24 9b 25 70
        E 96 8b 25 00
        E 24 9b 25 74
        E 96 8b 25 00
        E 24 9b 25 72
        E 96 8b 25 00
        E 24 9b 25 69
        E 96 8b 25 00
        E 24 9b 25 66
        E 96 8b 25 00
        E 24 9b 25 66
        E 96 8b 25 00
        E 24 9b 26 61
        E 96 8b 26 00
        E 24 9b 26 61
        E 96 8b 26 00
        E 24 9b 26 61
        E 96 8b 26 00
        E 24 9b 26 6c
        E 96 8b 26 00
        E 24 9b 26 69
        E 96 8b 26 00
        E 24 9b 26 6f
        E 96 8b 26 00
        E 24 9b 26 76
        E 96 8b 26 00
        E 24 9b 26 76
        E 96 8b 26 00
        E 24 9b 26 70
        E 96 8b 26 00
        E 24 9b 26 76
        E 96 8b 26 00
        E 24 9b 26 75
        E 96 8b 26 00
        E 24 9b 26 6f
        E 96 8b 26 00
        E 24 9b 26 70
        E 96 8b 26 00
        E 24 9b 26 6c
        E 96 8b 26 00
        E 24 9b 26 65
        E 96 8b 26 00
        E 24 9b 26 66
        E 96 8b 26 00
        E 24 9b 25 63
        E 96 8b 25 00
        E 24 9b 25 5e
        E 96 8b 25 00
        E 24 9b 25 66
        E 96 8b 25 00
        E 24 9b 25 72
        E 96 8b 25 00
        E 24 9b 25 6b
        E 96 8b 25 00
        E 24 9b 25 73
        E 96 8b 25 00
        E 24 9b 25 73
        E 96 8b 25 00
        E 24 9b 25 73
        E 96 8b 25 00
        E 24 9b 25 76
        E 96 8b 25 00
        E 24 9b 25 76
        E 96 8b 25 00
        E 24 9b 25 6d
        E 96 8b 25 00
        E 24 9b 25 73
        E 96 8b 25 00
        E 24 9b 25 74
        E 96 8b 25 00
        E 24 9b 25 6d
        E 96 8b 25 00
        E 24 9b 25 61
        E 96 8b 25 00
        E 24 9b 25 65
        E 96 8b 25 00
        E 24 9b 26 68
        E 96 8b 26 00
        E 24 9b 26 5e
        E 96 8b 26 00
        E 24 9b 26 65
        E 96 8b 26 00
        E 24 9b 26 73
        E 96 8b 26 00
        E 24 9b 26 6c
        E 96 8b 26 00
        E 24 9b 26 73
        E 96 8b 26 00
        E 24 9b 26 73
        E 96 8b 26 00
        E 24 9b 26 76
        E 96 8b 26 00
        E 24 9b 26 76
        E 96 8b 26 00
        E 24 9b 26 76
        E 96 8b 26 00
        E 24 9b 26 70
        E 96 8b 26 00
        E 24 9b 26 74
        E 96 8b 26 00
        E 24 9b 26 6f
        E 96 8b 26 00
        E 24 9b 26 69
        E 96 8b 26 00
        E 24 9b 26 68
        E 96 8b 26 00
        E 24 9b 26 68
        E 96 8b 26 00
        E 24 9b 25 5e
        E 96 8b 25 00
        E 24 9b 25 68
        E 96 8b 25 00
        E 24 9b 25 65
        E 96 8b 25 00
        E 24 9b 25 6f
        E 96 8b 25 00
        E 24 9b 25 70
        E 96 8b 25 00
        E 24 9b 25 6f
        E 96 8b 25 00
        E 24 9b 25 72
        E 96 8b 25 00
        E 24 9b 25 73
        E 96 8b 25 00
        E 24 9b 25 73
        E 96 8b 25 00
        E 24 9b 25 76
        E 96 8b 25 00
        E 24 9b 25 76
        E 96 8b 25 00
        E 24 9b 25 6d
        E 96 8b 25 00
        E 24 9b 25 6d
        E 96 8b 25 00
        E 24 9b 25 68
        E 96 8b 25 00
        E 24 9b 25 65
        E 96 8b 25 00
        E 24 9b 25 5f
        E 96 8b 25 00
        E 24 9b 24 65
        E 96 8b 24 00
        E 24 9b 24 5f
        E 96 8b 24 00
        E 24 9b 24 6c
        E 96 8b 24 00
        E 24 9b 24 6c
        E 96 8b 24 00
        E 24 9b 24 6d
        E 96 8b 24 00
        E 24 9b 24 70
        E 96 8b 24 00
        E 24 9b 24 72
        E 96 8b 24 00
        E 24 9b 24 76
        E 96 8b 24 00
        E 24 9b 24 76
        E 96 8b 24 00
        E 24 9b 24 6f
        E 96 8b 24 00
        E 24 9b 24 73
        E 96 8b 24 00
        E 24 9b 24 70
        E 96 8b 24 00
        E 24 9b 24 6c
        E 96 8b 24 00
        E 24 9b 24 74
        E 96 8b 24 00
        E 24 9b 24 65
        E 96 8b 24 00
        E 24 9b 24 63
        E 96 8b 24 00
        E 24 9b 26 61
        E 96 8b 26 00
        E 24 9b 26 5b
        E 96 8b 26 00
        E 24 9b 26 6d
        E 96 8b 26 00
        E 24 9b 26 69
        E 96 8b 26 00
        E 24 9b 26 72
        E 96 8b 26 00
        E 24 9b 26 70
        E 96 8b 26 00
        E 24 9b 26 76
        E 96 8b 26 00
        E 24 9b 26 6f
        E 96 8b 26 00
        E 24 9b 26 76
        E 96 8b 26 00
        E 24 9b 26 74
        E 96 8b 26 00
        E 24 9b 26 75
        E 96 8b 26 00
        E 24 9b 26 72
        E 96 8b 26 00
        E 24 9b 26 70
        E 96 8b 26 00
        E 24 9b 26 72
        E 96 8b 26 00
        E 24 9b 26 68
        E 96 8b 26 00
        E 24 9b 26 68
        E 96 8b 26 00
        E 24 9b 26 5f
        E 96 8b 26 00
        E 24 9b 26 68
        E 96 8b 26 00
        E 24 9b 26 69
        E 96 8b 26 00
        E 24 9b 26 6f
        E 96 8b 26 00
        E 24 9b 26 76
        E 96 8b 26 00
        E 24 9b 26 69
        E 96 8b 26 00
        E 24 9b 26 6f
        E 96 8b 26 00
        E 24 9b 26 76
        E 96 8b 26 00
        E 24 9b 26 75
        E 96 8b 26 00
        E 24 9b 26 74
        E 96 8b 26 00
        E 24 9b 26 74
        E 96 8b 26 00
        E 24 9b 26 74
        E 96 8b 26 00
        E 24 9b 26 6c
        E 96 8b 26 00
        E 24 9b 26 69
        E 96 8b 26 00
        E 24 9b 26 68
        E 96 8b 26 00
        E 24 9b 26 61
        E 96 8b 26 00
        E 24 9b 26 61
        E 96 8b 26 00
        E 24 9b 26 5e
        E 96 8b 26 00
        E 24 9b 26 68
        E 96 8b 26 00
        E 24 9b 26 6d
        E 96 8b 26 00
        E 24 9b 26 6f
        E 96 8b 26 00
        E 24 9b 26 6f
        E 96 8b 26 00
        E 24 9b 26 75
        E 96 8b 26 00
        E 24 9b 26 74
        E 96 8b 26 00
        E 24 9b 26 76
        E 96 8b 26 00
        E 24 9b 26 75
        E 96 8b 26 00
        E 24 9b 26 6f
        E 96 8b 26 00
        E 24 9b 26 6d
        E 96 8b 26 00
        E 24 9b 26 74
        E 96 8b 26 00
        E 24 9b 26 70
        E 96 8b 26 00
        E 24 9b 26 61
        E 96 8b 26 00
        E 24 9b 26 68
        E 96 8b 26 00
        E 24 9b 25 5e
        E 96 8b 25 00
        E 24 9b 25 63
        E 96 8b 25 00
        E 24 9b 25 68
        E 96 8b 25 00
        E 24 9b 25 6c
        E 96 8b 25 00
        E 24 9b 25 73
        E 96 8b 25 00
        E 24 9b 25 6d
        E 96 8b 25 00
        E 24 9b 25 74
        E 96 8b 25 00
        E 24 9b 25 76
        E 96 8b 25 00
        E 24 9b 25 76
        E 96 8b 25 00
        E 24 9b 25 75
        E 96 8b 25 00
        E 24 9b 25 6f
        E 96 8b 25 00
        E 24 9b 25 76
        E 96 8b 25 00
        E 24 9b 25 6c
        E 96 8b 25 00
        E 24 9b 25 70
        E 96 8b 25 00
        E 24 9b 25 65
        E 96 8b 25 00
        E 24 9b 25 68
        E 96 8b 25 00
        E 24 9b 24 5e
        E 96 8b 24 00
        E 24 9b 24 62
        E 96 8b 24 00
        E 24 9b 24 61
        E 96 8b 24 00
        E 24 9b 24 6b
        E 96 8b 24 00
        E 24 9b 24 76
        E 96 8b 24 00
        E 24 9b 24 74
        E 96 8b 24 00
        E 24 9b 24 73
        E 96 8b 24 00
        E 24 9b 24 76
        E 96 8b 24 00
        E 24 9b 24 6f
        E 96 8b 24 00
        E 24 9b 24 76
        E 96 8b 24 00
        E 24 9b 24 76
        E 96 8b 24 00
        E 24 9b 24 74
        E 96 8b 24 00
        E 24 9b 24 74
        E 96 8b 24 00
        E 24 9b 24 72
        E 96 8b 24 00
        E 24 9b 24 66
        E 96 8b 24 00
        E 24 9b 24 65
        E 96 8b 24 00
        E 24 9b 25 59
        E 96 8b 25 00
        E 24 9b 25 62
        E 96 8b 25 00
        E 24 9b 25 61
        E 96 8b 25 00
        E 24 9b 25 68
        E 96 8b 25 00
        E 24 9b 25 6b
        E 96 8b 25 00
        E 24 9b 25 75
        E 96 8b 25 00
        E 24 9b 25 6f
        E 96 8b 25 00
        E 24 9b 25 76
        E 96 8b 25 00
        E 24 9b 25 6f
        E 96 8b 25 00
        E 24 9b 25 72
        E 96 8b 25 00
        E 24 9b 25 6d
        E 96 8b 25 00
        E 24 9b 25 73
        E 96 8b 25 00
        E 24 9b 25 6d
        E 96 8b 25 00
        E 24 9b 25 72
        E 96 8b 25 00
        E 24 9b 25 66
        E 96 8b 25 00
        E 24 9b 25 61
        E 96 8b 25 00
        E 24 9b 26 63
        E 96 8b 26 00
        E 24 9b 26 62
        E 96 8b 26 00
        E 24 9b 26 62
        E 96 8b 26 00
        E 24 9b 26 6f
        E 96 8b 26 00
        E 24 9b 26 76
        E 96 8b 26 00
        E 24 9b 26 6d
        E 96 8b 26 00
        E 24 9b 26 76
        E 96 8b 26 00
        E 24 9b 26 70
        E 96 8b 26 00
        E 24 9b 26 73
        E 96 8b 26 00
        E 24 9b 26 74
        E 96 8b 26 00
        E 24 9b 26 72
        E 96 8b 26 00
        E 24 9b 26 6f
        E 96 8b 26 00
        E 24 9b 26 6f
        E 96 8b 26 00
        E 24 9b 26 6c
        E 96 8b 26 00
        E 24 9b 26 65
        E 96 8b 26 00
        E 24 9b 26 69
        E 96 8b 26 00
        E 24 9b 26 5f
        E 96 8b 26 00
        E 24 9b 26 66
        E 96 8b 26 00
        E 24 9b 26 6f
        E 96 8b 26 00
        E 24 9b 26 68
        E 96 8b 26 00
        E 24 9b 26 6f
        E 96 8b 26 00
        E 24 9b 26 70
        E 96 8b 26 00
        E 24 9b 26 6f
        E 96 8b 26 00
        E 24 9b 26 73
        E 96 8b 26 00
        E 24 9b 26 76
        E 96 8b 26 00
        E 24 9b 26 76
        E 96 8b 26 00
        E 24 9b 26 73
        E 96 8b 26 00
        E 24 9b 26 6f
        E 96 8b 26 00
        E 24 9b 26 70
        E 96 8b 26 00
        E 24 9b 26 6f
        E 96 8b 26 00
        E 24 9b 26 63
        E 96 8b 26 00
        E 24 9b 26 65
        E 96 8b 26 00
        E 24 9b 26 63
        E 96 8b 26 00
        E 24 9b 26 61
        E 96 8b 26 00
        E 24 9b 26 65
        E 96 8b 26 00
        E 24 9b 26 6d
        E 96 8b 26 00
        E 24 9b 26 6b
        E 96 8b 26 00
        E 24 9b 26 70
        E 96 8b 26 00
        E 24 9b 26 70
        E 96 8b 26 00
        E 24 9b 26 76
        E 96 8b 26 00
        E 24 9b 26 75
        E 96 8b 26 00
        E 24 9b 26 73
        E 96 8b 26 00
        E 24 9b 26 6d
        E 96 8b 26 00
        E 24 9b 26 76
        E 96 8b 26 00
        E 24 9b 26 74
        E 96 8b 26 00
        E 24 9b 26 69
        E 96 8b 26 00
        E 24 9b 26 63
        E 96 8b 26 00
        E 24 9b 26 65
        E 96 8b 26 00
        E 24 9b 26 5c
        E 96 8b 26 00
        E 24 9b 26 68
        E 96 8b 26 00
        E 24 9b 26 69
        E 96 8b 26 00
        E 24 9b 26 6f
        E 96 8b 26 00
        E 24 9b 26 6d
        E 96 8b 26 00
        E 24 9b 26 73
        E 96 8b 26 00
        E 24 9b 26 76
        E 96 8b 26 00
        E 24 9b 26 72
        E 96 8b 26 00
        E 24 9b 26 76
        E 96 8b 26 00
        E 24 9b 26 75
        E 96 8b 26 00
        E 24 9b 26 75
        E 96 8b 26 00
        E 24 9b 26 73
        E 96 8b 26 00
        E 24 9b 26 70
        E 96 8b 26 00
        E 24 9b 26 6b
        E 96 8b 26 00
        E 24 9b 26 61
        E 96 8b 26 00
        E 24 9b 26 5f
        E 96 8b 26 00
        E 24 9b 24 62
        E 96 8b 24 00
        E 24 9b 24 6b
        E 96 8b 24 00
        E 24 9b 24 62
        E 96 8b 24 00
        E 24 9b 24 6d
        E 96 8b 24 00
        E 24 9b 24 76
        E 96 8b 24 00
        E 24 9b 24 75
        E 96 8b 24 00
        E 24 9b 24 72
        E 96 8b 24 00
        E 24 9b 24 6f
        E 96 8b 24 00
        E 24 9b 24 75
        E 96 8b 24 00
        E 24 9b 24 76
        E 96 8b 24 00
        E 24 9b 24 76
        E 96 8b 24 00
        E 24 9b 24 70
        E 96 8b 24 00
        E 24 9b 24 76
        E 96 8b 24 00
        E 24 9b 24 70
        E 96 8b 24 00
        E 24 9b 24 63
        E 96 8b 24 00
        E 24 9b 24 68
        E 96 8b 24 00
        E 24 9b 26 61
        E 96 8b 26 00
        E 24 9b 26 63
        E 96 8b 26 00
        E 24 9b 26 65
        E 96 8b 26 00
        E 24 9b 26 6f
        E 96 8b 26 00
        E 24 9b 26 76
        E 96 8b 26 00
        E 24 9b 26 73
        E 96 8b 26 00
        E 24 9b 26 76
        E 96 8b 26 00
        E 24 9b 26 76
        E 96 8b 26 00
        E 24 9b 26 76
        E 96 8b 26 00
        E 24 9b 26 6f
        E 96 8b 26 00
        E 24 9b 26 6f
        E 96 8b 26 00
        E 24 9b 26 6f
        E 96 8b 26 00
        E 24 9b 26 73
        E 96 8b 26 00
        E 24 9b 26 63
        E 96 8b 26 00
        E 24 9b 26 68
        E 96 8b 26 00
        E 24 9b 26 5b
        E 96 8b 26 00
        E 24 9b 26 5b
        E 96 8b 26 00
        E 24 9b 26 5b
        E 96 8b 26 00
        E 24 9b 26 6c
        E 96 8b 26 00
        E 24 9b 26 6f
        E 96 8b 26 00
        E 24 9b 26 73
        E 96 8b 26 00
        E 24 9b 26 74
        E 96 8b 26 00
        E 24 9b 26 73
        E 96 8b 26 00
        E 24 9b 26 76
        E 96 8b 26 00
        E 24 9b 26 76
        E 96 8b 26 00
        E 24 9b 26 6f
        E 96 8b 26 00
        E 24 9b 26 72
        E 96 8b 26 00
        E 24 9b 26 76
        E 96 8b 26 00
        E 24 9b 26 6f
        E 96 8b 26 00
        E 24 9b 26 69
        E 96 8b 26 00
        E 24 9b 26 68
        E 96 8b 26 00
        E 24 9b 26 61
        E 96 8b 26 00
        E 24 9b 26 66
        E 96 8b 26 00
        E 24 9b 26 65
        E 96 8b 26 00
        E 24 9b 26 68
        E 96 8b 26 00
        E 24 9b 26 69
        E 96 8b 26 00
        E 24 9b 26 6f
        E 96 8b 26 00
        E 24 9b 26 75
        E 96 8b 26 00
        E 24 9b 26 70
        E 96 8b 26 00
        E 24 9b 26 76
        E 96 8b 26 00
        E 24 9b 26 75
        E 96 8b 26 00
        E 24 9b 26 75
        E 96 8b 26 00
        E 24 9b 26 76
        E 96 8b 26 00
        E 24 9b 26 6f
        E 96 8b 26 00
        E 24 9b 26 75
        E 96 8b 26 00
        E 24 9b 26 6d
        E 96 8b 26 00
        E 24 9b 26 68
        E 96 8b 26 00
        E 24 9b 26 61
        E 96 8b 26 00
        E 24 9b 26 62
        E 96 8b 26 00
        E 24 9b 26 63
        E 96 8b 26 00
        E 24 9b 26 68
        E 96 8b 26 00
        E 24 9b 26 69
        E 96 8b 26 00
        E 24 9b 26 6d
        E 96 8b 26 00
        E 24 9b 26 6f
        E 96 8b 26 00
        E 24 9b 26 72
        E 96 8b 26 00
        E 24 9b 26 76
        E 96 8b 26 00
        E 24 9b 26 76
        E 96 8b 26 00
        E 24 9b 26 73
        E 96 8b 26 00
        E 24 9b 26 70
        E 96 8b 26 00
        E 24 9b 26 70
        E 96 8b 26 00
        E 24 9b 26 6f
        E 96 8b 26 00
        E 24 9b 26 68
        E 96 8b 26 00
        E 24 9b 26 66
        E 96 8b 26 00
        E 24 9b 26 62
        E 96 8b 26 00
        E 24 9b 25 59
        E 96 8b 25 00
        E 24 9b 25 68
        E 96 8b 25 00
        E 24 9b 25 63
        E 96 8b 25 00
        E 24 9b 25 68
        E 96 8b 25 00
        E 24 9b 25 68
        E 96 8b 25 00
        E 24 9b 25 70
        E 96 8b 25 00
        E 24 9b 25 76
        E 96 8b 25 00
        E 24 9b 25 74
        E 96 8b 25 00
        E 24 9b 25 76
        E 96 8b 25 00
        E 24 9b 25 76
        E 96 8b 25 00
        E 24 9b 25 76
        E 96 8b 25 00
        E 24 9b 25 75
        E 96 8b 25 00
        E 24 9b 25 76
        E 96 8b 25 00
        E 24 9b 25 6b
        E 96 8b 25 00
        E 24 9b 25 68
        E 96 8b 25 00
        E 24 9b 25 62
        E 96 8b 25 00
        E 24 9b 26 62
        E 96 8b 26 00
        E 24 9b 26 63
        E 96 8b 26 00
        E 24 9b 26 68
        E 96 8b 26 00
        E 24 9b 26 63
        E 96 8b 26 00
        E 24 9b 26 74
        E 96 8b 26 00
        E 24 9b 26 70
        E 96 8b 26 00
        E 24 9b 26 75
        E 96 8b 26 00
        E 24 9b 26 72
        E 96 8b 26 00
        E 24 9b 26 6f
        E 96 8b 26 00
        E 24 9b 26 76
        E 96 8b 26 00
        E 24 9b 26 75
        E 96 8b 26 00
        E 24 9b 26 6f
        E 96 8b 26 00
        E 24 9b 26 6b
        E 96 8b 26 00
        E 24 9b 26 6d
        E 96 8b 26 00
        E 24 9b 26 6b
        E 96 8b 26 00
        E 24 9b 26 62
        E 96 8b 26 00
        E 24 9b 26 5f
        E 96 8b 26 00
        E 24 9b 26 65
        E 96 8b 26 00
        E 24 9b 26 66
        E 96 8b 26 00
        E 24 9b 26 66
        E 96 8b 26 00
        E 24 9b 26 76
        E 96 8b 26 00
        E 24 9b 26 6d
        E 96 8b 26 00
        E 24 9b 26 6d
        E 96 8b 26 00
        E 24 9b 26 76
        E 96 8b 26 00
        E 24 9b 26 73
        E 96 8b 26 00
        E 24 9b 26 76
        E 96 8b 26 00
        E 24 9b 26 73
        E 96 8b 26 00
        E 24 9b 26 74
        E 96 8b 26 00
        E 24 9b 26 6d
        E 96 8b 26 00
        E 384 9b 26 5e
        E 96 8b 26 00
        E 384 9b 26 6d
        E 96 8b 26 00
        E 24 9b 26 75
        E 96 8b 26 00
        E 384 9b 26 70
        E 96 8b 26 00
        E 504 9b 26 63
        E 96 8b 26 00
        E 624 9b 25 70
        E 96 8b 25 00
        E 144 9b 25 76
        E 96 8b 25 00
        E 144 9b 25 73
        E 96 8b 25 00
        E 1224 9b 28 6b
        E 96 8b 28 00
        E 624 9b 28 76
        E 96 8b 28 00
        E 384 9b 28 73
        E 96 8b 28 00
        E 144 9b 28 62
        E 96 8b 28 00
        E 24 9b 24 62
        E 96 8b 24 00
        E 264 9b 24 6f
        E 96 8b 24 00
        E 24 9b 24 6d
        E 96 8b 24 00
        E 144 9b 24 72
        E 96 8b 24 00
        E 744 9b 24 6b
        E 96 8b 24 00
        E 144 9b 24 63
        E 96 8b 24 00
        E 624 9b 26 72
        E 96 8b 26 00
        E 384 9b 26 76
        E 96 8b 26 00
        E 24 9b 26 75
        E 96 8b 26 00
        E 624 9b 26 59
        E 96 8b 26 00
        E 624 9b 26 6d
        E 96 8b 26 00
        E 504 9b 26 73
        E 96 8b 26 00
        E 24 9b 26 6f
        E 96 8b 26 00
        E 24 9b 26 63
        E 96 8b 26 00
        E 504 9b 26 65
        E 96 8b 26 00
        E 624 9b 26 76
        E 96 8b 26 00
        E 264 9b 26 6b
        E 96 8b 26 00
        E 744 9b 25 65
        E 96 8b 25 00
        E 24 9b 25 6b
        E 96 8b 25 00
        E 624 9b 25 76
        E 96 8b 25 00
        E 24 9b 25 75
        E 96 8b 25 00
        E 624 9b 25 59
        E 96 8b 25 00
        E 24 9b 25 63
        E 96 8b 25 00
        E 24 9b 25 66
        E 96 8b 25 00
        E 504 9b 25 74
        E 96 8b 25 00
        E 624 9b 25 72
        E 96 8b 25 00
        E 984 9b 24 72
        E 96 8b 24 00
        E 264 9b 24 76
        E 96 8b 24 00
        E 504 9b 24 6f
        E 96 8b 24 00
        E 24 9b 24 62
        E 96 8b 24 00
        E 24 9b 24 62
        E 96 8b 24 00
        E 1104 9b 24 75
        E 96 8b 24 00
        E 144 9b 24 72
        E 96 8b 24 00
        E 264 9b 24 59
        E 96 8b 24 00
        E 0 bb 7b 00
        E 1 ff 2f 00
      >
    >
  >
>
