<REAPER_PROJECT 0.1 "7.0" 1700000000
  TEMPO 66.000000 4 4
  SAMPLERATE 48000 0 0
  RENDER_FILE ""
  RENDER_FMT 0 2 0
  RENDER_1X 0
  RENDER_RANGE 1 0 100.420287 0 0
  RENDER_RESAMPLE 3 0 1
  <MASTERTRACK
    VOLPAN 1 0 1 -1
    DEFCHAN 0
  >
  <TRACK
    NAME "Lead"
    PEAKCOL 4284506208
    VOLPAN 1.000000 0 1 -1
    MIDIOUT -1
    ISBUS 0 0
    <ITEM
      POSITION 0.000000
      LENGTH 98.520287
      NAME "Lead"
      VOLPAN 1 0 1 -1
      <SOURCE MIDI
        HASDATA 1 960 QN
        E 0 c0 69 00
        E 0 90 4c 7d
        E 1607 90 4a 5d
        E 728 80 4c 00
        E 132 90 4c 62
        E 298 80 4a 00
        E 755 80 4c 00
        E 182 90 49 5d
        E 250 90 4a 5d
        E 240 80 4a 00
        E 9 90 4d 5d
        E 240 80 4d 00
        E 10 90 50 5d
        E 240 80 50 00
        E 9 90 52 5d
        E 55 80 49 00
        E 185 80 52 00
        E 10 90 55 7b
        E 265 80 55 00
        E 968 90 55 6b
        E 948 80 55 00
        E 287 90 56 5d
        E 948 80 56 00
        E 284 90 56 6d
        E 592 90 55 5d
        E 566 80 56 00
        E 487 80 55 00
        E 324 90 51 7c
        E 1053 80 51 00
        E 38 90 52 69
        E 1053 80 52 00
        E 313 90 51 74
        E 265 80 51 00
        E 1093 90 51 6b
        E 478 80 51 00
        E 511 90 55 7b
        E 1251 90 52 6f
        E 292 80 52 00
        E 208 80 55 00
        E 716 90 55 64
        E 1053 80 55 00
        E 175 90 52 66
        E 531 80 52 00
        E 728 90 52 64
        E 265 80 52 00
        E 950 90 51 5d
        E 948 80 51 00
        E 295 90 51 5d
        E 948 80 51 00
        E 282 90 50 7d
        E 631 90 51 5d
        E 527 80 50 00
        E 4 80 51 00
        E 76 90 52 6d
        E 1053 80 52 00
        E 189 90 55 69
        E 1053 80 55 00
        E 162 90 52 7b
        E 1053 80 52 00
        E 808 90 52 5d
        E 948 80 52 00
        E 272 90 52 5d
        E 873 90 52 7d
        E 285 80 52 00
        E 299 80 52 00
        E 407 90 51 7d
        E 1053 80 51 00
        E 186 90 52 5d
        E 1053 80 52 00
        E 1042 90 51 71
        E 990 90 52 69
        E 63 80 51 00
        E 176 80 52 00
        E 72 90 50 5d
        E 239 80 50 00
        E 72 90 4d 5d
        E 239 80 4d 00
        E 72 90 4a 5d
        E 239 80 4a 00
        E 71 90 49 5d
        E 948 80 49 00
        E 278 90 4a 5d
        E 584 80 4a 00
        E 656 90 49 69
        E 531 80 49 00
        E 685 90 46 5d
        E 250 90 49 60
        E 240 80 49 00
        E 9 90 4a 60
        E 240 80 4a 00
        E 10 90 4d 60
        E 240 80 4d 00
        E 9 90 50 60
        E 55 80 46 00
        E 185 80 50 00
        E 9 90 52 7d
        E 1053 80 52 00
        E 182 90 51 5d
        E 1053 80 51 00
        E 305 90 50 5d
        E 239 80 50 00
        E 861 90 51 5d
        E 618 90 52 5d
        E 240 80 52 00
        E 300 80 51 00
        E 78 90 56 62
        E 531 80 56 00
        E 695 90 56 6b
        E 265 80 56 00
        E 1091 90 55 64
        E 1053 80 55 00
        E 73 90 55 7b
        E 1053 80 55 00
        E 170 90 56 5d
        E 948 80 56 00
        E 307 90 56 60
        E 1158 80 56 00
        E 70 90 55 66
        E 531 80 55 00
        E 703 90 52 77
        E 1053 80 52 00
        E 922 90 56 60
        E 1053 80 56 00
        E 49 90 55 5d
        E 1053 80 55 00
        E 926 90 52 62
        E 1109 90 52 60
        E 49 80 52 00
        E 243 80 52 00
        E 936 90 51 69
        E 531 80 51 00
        E 1079 90 52 75
        E 531 80 52 00
        E 340 90 51 64
        E 606 90 55 7d
        E 447 80 51 00
        E 606 80 55 00
        E 177 90 51 5d
        E 478 80 51 00
        E 141 90 52 5d
        E 716 80 52 00
        E 533 90 50 5d
        E 607 90 51 7d
        E 551 80 50 00
        E 502 80 51 00
        E 189 90 52 5d
        E 1053 80 52 00
        E 170 90 55 6b
        E 531 80 55 00
        E 698 90 52 5d
        E 265 80 52 00
        E 985 90 52 7a
        E 335 90 50 5d
        E 240 80 50 00
        E 95 90 4d 5d
        E 240 80 4d 00
        E 38 80 52 00
        E 57 90 4a 5d
        E 240 80 4a 00
        E 94 90 49 6f
        E 226 90 4a 5d
        E 225 90 4d 5d
        E 15 80 4a 00
        E 210 90 50 5d
        E 15 80 4d 00
        E 210 90 52 5d
        E 15 80 50 00
        E 210 90 55 6f
        E 15 80 52 00
        E 17 80 49 00
        E 1021 80 55 00
        E 188 90 52 7d
        E 962 90 52 69
        E 91 80 52 00
        E 962 80 52 00
        E 174 90 51 5d
        E 531 80 51 00
        E 346 90 52 5d
        E 796 80 52 00
        E 443 90 51 5d
        E 948 80 51 00
        E 288 90 50 5d
        E 1158 80 50 00
        E 308 90 51 5d
        E 999 90 55 62
        E 1053 80 55 00
        E 71 80 51 00
        E 120 90 52 77
        E 1053 80 52 00
        E 177 90 52 5d
        E 1053 80 52 00
        E 171 90 55 5d
        E 948 80 55 00
        E 294 90 55 5d
        E 1158 80 55 00
        E 691 90 52 5d
        E 531 80 52 00
        E 705 90 52 62
        E 1053 80 52 00
        E 181 90 51 7b
        E 1053 80 51 00
        E 177 90 50 5d
        E 1053 80 50 00
        E 317 90 51 69
        E 948 80 51 00
        E 150 90 52 5d
        E 1158 80 52 00
        E 75 90 52 7d
        E 1053 80 52 00
        E 539 90 51 5d
        E 531 80 51 00
        E 0 b0 7b 00
        E 1 ff 2f 00
      >
    >
  >
  <TRACK
    NAME "Tanpura"
    PEAKCOL 4284506208
    VOLPAN 1.000000 0 1 -1
    MIDIOUT -1
    ISBUS 0 0
    <ITEM
      POSITION 0.000000
      LENGTH 98.281818
      NAME "Tanpura"
      VOLPAN 1 0 1 -1
      <SOURCE MIDI
        HASDATA 1 960 QN
        E 0 c1 30 00
        E 0 91 40 02
        E 0 91 45 02
        E 103680 81 40 00
        E 0 81 45 00
        E 0 b1 7b 00
        E 1 ff 2f 00
      >
    >
  >
  <TRACK
    NAME "Tanpura2"
    PEAKCOL 4284506208
    VOLPAN 1.000000 0 1 -1
    MIDIOUT -1
    ISBUS 0 0
    <ITEM
      POSITION 0.000000
      LENGTH 98.281818
      NAME "Tanpura2"
      VOLPAN 1 0 1 -1
      <SOURCE MIDI
        HASDATA 1 960 QN
        E 0 c2 30 00
        E 0 92 39 47
        E 0 92 51 47
        E 103680 82 39 00
        E 0 82 51 00
        E 0 b2 7b 00
        E 1 ff 2f 00
      >
    >
  >
  <TRACK
    NAME "Strings"
    PEAKCOL 4284186559
    VOLPAN 1.000000 0 1 -1
    MIDIOUT -1
    ISBUS 0 0
    <ITEM
      POSITION 0.000000
      LENGTH 98.295897
      NAME "Strings"
      VOLPAN 1 0 1 -1
      <SOURCE MIDI
        HASDATA 1 960 QN
        E 0 c3 30 00
        E 0 93 46 3a
        E 4 93 46 3a
        E 1 93 46 3a
        E 1901 93 40 3a
        E 5 83 46 00
        E 1 83 46 00
        E 4 93 46 3a
        E 9 83 46 00
        E 5 93 46 3a
        E 1 93 46 3a
        E 1894 83 40 00
        E 6 93 46 3a
        E 9 93 3c 3a
        E 2 83 46 00
        E 7 83 46 00
        E 5 93 46 3a
        E 1 83 46 00
        E 1895 83 46 00
        E 4 93 46 3a
        E 6 83 3c 00
        E 4 93 46 3a
        E 3 83 46 00
        E 1921 83 46 00
        E 1 83 46 00
        E 1908 93 46 3a
        E 2 93 32 3a
        E 0 93 46 3a
        E 0 93 46 3a
        E 7 93 46 3a
        E 1898 83 46 00
        E 7 83 46 00
        E 4 83 32 00
        E 9 93 46 3a
        E 3 83 46 00
        E 17 83 46 00
        E 1896 93 46 3a
        E 0 93 40 3c
        E 21 83 46 00
        E 1885 83 46 00
        E 0 93 46 3a
        E 14 83 40 00
        E 6 93 46 3a
        E 3 93 46 3a
        E 1897 93 46 3a
        E 5 83 46 00
        E 17 83 46 00
        E 10 83 46 00
        E 1870 83 46 00
        E 42 93 32 3a
        E 1898 93 46 3a
        E 1 93 32 3a
        E 7 93 45 3a
        E 1 93 46 3a
        E 1 83 32 00
        E 1 93 46 3a
        E 1 93 41 40
        E 5 93 46 3a
        E 8 93 46 3a
        E 1891 83 45 00
        E 3 93 46 3a
        E 4 83 32 00
        E 1 93 32 3a
        E 3 93 35 3a
        E 1 83 46 00
        E 1 93 46 3a
        E 3 83 41 00
        E 0 93 41 43
        E 2 83 46 00
        E 5 83 46 00
        E 0 83 46 00
        E 2 93 46 3a
        E 1 93 46 3a
        E 0 93 46 3a
        E 4 83 46 00
        E 1882 83 46 00
        E 3 83 46 00
        E 9 93 46 3a
        E 1 93 46 3a
        E 5 93 46 3a
        E 2 83 35 00
        E 3 93 46 3a
        E 1 83 41 00
        E 0 93 46 3a
        E 0 93 41 45
        E 3 83 32 00
        E 2 83 46 00
        E 5 93 46 3a
        E 2 83 46 00
        E 2 93 46 3a
        E 12 83 46 00
        E 1881 93 46 3a
        E 2 93 46 3a
        E 2 93 46 3a
        E 2 83 46 00
        E 0 83 46 00
        E 1 83 46 00
        E 6 83 41 00
        E 0 93 34 45
        E 1 93 46 3a
        E 1 93 45 3a
        E 2 83 46 00
        E 4 93 46 3a
        E 4 83 46 00
        E 1 93 32 3a
        E 6 83 46 00
        E 6 83 46 00
        E 1874 83 46 00
        E 5 83 46 00
        E 8 93 46 3a
        E 0 93 46 3a
        E 2 93 46 3a
        E 4 83 32 00
        E 2 83 34 00
        E 0 93 40 45
        E 1 83 46 00
        E 3 83 46 00
        E 1 93 46 3a
        E 0 93 34 3a
        E 3 93 32 3a
        E 4 83 46 00
        E 0 93 46 3a
        E 7 83 45 00
        E 1887 93 46 3a
        E 2 93 46 3a
        E 1 83 46 00
        E 0 83 34 00
        E 5 83 46 00
        E 4 93 46 3a
        E 2 83 40 00
        E 0 93 45 3a
        E 0 93 40 47
        E 3 83 32 00
        E 0 93 32 3a
        E 3 83 46 00
        E 0 93 32 3a
        E 3 93 46 3a
        E 1 83 46 00
        E 4 83 46 00
        E 1873 83 46 00
        E 18 83 45 00
        E 2 93 46 3a
        E 4 83 46 00
        E 0 93 46 3a
        E 1 93 46 3a
        E 1 83 46 00
        E 1 93 46 3a
        E 2 93 32 3a
        E 4 83 40 00
        E 0 93 34 49
        E 1 93 46 3a
        E 11 93 46 3a
        E 1 83 32 00
        E 1 83 46 00
        E 2 83 32 00
        E 1881 83 46 00
        E 6 83 32 00
        E 3 83 46 00
        E 7 93 46 3a
        E 1 93 46 3a
        E 0 93 46 3a
        E 3 83 46 00
        E 0 93 46 3a
        E 1 83 46 00
        E 0 83 46 00
        E 2 83 34 00
        E 0 93 3e 4c
        E 4 83 46 00
        E 4 93 46 3a
        E 5 93 46 3a
        E 1 93 41 3a
        E 1886 83 46 00
        E 12 93 46 3a
        E 5 83 46 00
        E 3 83 3e 00
        E 0 93 3e 4c
        E 3 83 46 00
        E 0 93 32 3a
        E 0 93 46 3a
        E 1 83 46 00
        E 4 93 32 3a
        E 3 83 46 00
        E 1 93 41 3a
        E 2 93 46 3a
        E 0 93 45 3a
        E 7 83 46 00
        E 10 83 41 00
        E 1876 83 46 00
        E 0 93 46 3a
        E 3 83 46 00
        E 2 93 32 3a
        E 3 93 46 3a
        E 1 93 41 3a
        E 2 83 46 00
        E 1 83 45 00
        E 0 93 46 3a
        E 1 83 3e 00
        E 0 93 3e 4c
        E 2 83 32 00
        E 0 83 41 00
        E 1 93 46 3a
        E 4 93 46 3a
        E 11 83 32 00
        E 1888 93 41 3a
        E 3 83 41 00
        E 4 83 46 00
        E 0 93 46 3a
        E 1 83 32 00
        E 2 93 32 3a
        E 1 83 46 00
        E 1 93 46 3a
        E 2 83 3e 00
        E 0 93 46 3a
        E 0 93 4a 4e
        E 0 93 46 3a
        E 1 83 46 00
        E 1 83 46 00
        E 1 93 46 3a
        E 18 83 46 00
        E 1867 83 41 00
        E 25 83 32 00
        E 0 93 46 3a
        E 0 93 46 3a
        E 5 83 46 00
        E 2 83 4a 00
        E 0 93 3d 50
        E 2 93 46 3a
        E 2 93 40 3a
        E 1 93 46 3a
        E 4 83 46 00
        E 0 83 46 00
        E 3 83 46 00
        E 0 93 32 3a
        E 2 93 46 3a
        E 6 83 46 00
        E 1879 83 46 00
        E 9 83 46 00
        E 2 93 45 3a
        E 5 83 40 00
        E 5 83 3d 00
        E 0 93 3d 52
        E 0 93 46 3a
        E 2 83 46 00
        E 0 93 46 3a
        E 1 93 45 3a
        E 0 93 46 3a
        E 0 93 46 3a
        E 3 93 46 3a
        E 5 83 46 00
        E 6 83 46 00
        E 8 83 32 00
        E 1873 83 45 00
        E 13 93 46 3a
        E 4 83 45 00
        E 2 93 32 3a
        E 1 83 46 00
        E 2 83 3d 00
        E 0 93 3d 55
        E 0 93 46 3a
        E 2 83 46 00
        E 0 93 45 3a
        E 3 93 46 3a
        E 0 93 32 3a
        E 8 93 46 3a
        E 1 83 46 00
        E 1 83 46 00
        E 1 83 46 00
        E 1886 83 32 00
        E 4 93 46 3a
        E 8 93 46 3a
        E 0 93 46 3a
        E 1 93 46 3a
        E 3 93 45 3a
        E 2 83 3d 00
        E 0 93 3d 55
        E 1 83 45 00
        E 2 83 46 00
        E 1 93 46 3a
        E 2 83 46 00
        E 7 93 32 3a
        E 1 83 46 00
        E 1 83 32 00
        E 7 83 46 00
        E 1884 83 46 00
        E 1 93 41 3a
        E 1 83 46 00
        E 3 93 46 3a
        E 5 93 46 3a
        E 1 93 41 3a
        E 3 83 3d 00
        E 0 93 32 3a
        E 0 93 3c 55
        E 2 83 46 00
        E 2 83 45 00
        E 0 93 45 3a
        E 1 83 46 00
        E 0 83 46 00
        E 7 83 32 00
        E 2 93 32 3a
        E 1875 83 41 00
        E 21 83 41 00
        E 1 83 46 00
        E 3 93 41 3a
        E 1 93 32 3a
        E 5 83 3c 00
        E 0 93 46 3a
        E 0 93 3c 55
        E 1 93 46 3a
        E 1 93 46 3a
        E 1 93 46 3a
        E 2 83 32 00
        E 2 83 46 00
        E 6 83 45 00
        E 1 93 46 3a
        E 16 83 32 00
        E 1868 83 41 00
        E 8 93 46 3a
        E 9 83 46 00
        E 2 83 46 00
        E 0 83 46 00
        E 1 93 46 3a
        E 1 93 46 3a
        E 0 93 3e 3a
        E 1 83 3c 00
        E 0 93 3a 55
        E 4 93 32 3a
        E 0 93 46 3a
        E 1 83 46 00
        E 1 83 32 00
        E 2 93 32 3a
        E 6 83 46 00
        E 1881 83 46 00
        E 10 83 3e 00
        E 3 93 3e 3a
        E 1 93 41 3a
        E 3 93 46 3a
        E 0 93 41 3a
        E 5 93 46 3a
        E 3 83 3a 00
        E 0 93 3a 55
        E 1 83 32 00
        E 1 93 46 3a
        E 1 93 46 3a
        E 8 83 46 00
        E 2 83 46 00
        E 3 83 46 00
        E 2 83 32 00
        E 1889 93 45 3a
        E 5 83 46 00
        E 0 93 46 3a
        E 2 83 41 00
        E 0 83 46 00
        E 2 93 46 3a
        E 3 93 46 3a
        E 1 83 3a 00
        E 0 93 39 52
        E 1 83 3e 00
        E 3 83 46 00
        E 0 93 45 3a
        E 1 83 41 00
        E 1 93 46 3a
        E 4 83 46 00
        E 3 93 46 3a
        E 1893 83 46 00
        E 8 83 46 00
        E 2 83 46 00
        E 2 83 46 00
        E 2 83 39 00
        E 0 93 39 50
        E 1 93 32 3a
        E 1 83 45 00
        E 0 93 45 3a
        E 2 83 46 00
        E 4 93 46 3a
        E 3 93 32 3a
        E 0 93 46 3a
        E 1 93 46 3a
        E 0 93 46 3a
        E 5 83 45 00
        E 1886 83 32 00
        E 6 93 46 3a
        E 6 93 46 3a
        E 1 83 32 00
        E 2 93 46 3a
        E 2 83 39 00
        E 0 93 39 4e
        E 0 93 46 3a
        E 2 93 32 3a
        E 1 83 46 00
        E 6 83 46 00
        E 0 93 46 3a
        E 3 83 45 00
        E 1 93 32 3a
        E 11 83 46 00
        E 2 83 46 00
        E 1877 83 32 00
        E 3 93 46 3a
        E 3 93 3d 3a
        E 2 93 46 3a
        E 3 83 46 00
        E 6 83 39 00
        E 0 93 39 4c
        E 3 83 46 00
        E 0 83 46 00
        E 0 93 45 3a
        E 5 93 46 3a
        E 2 83 46 00
        E 1 93 46 3a
        E 0 93 32 3a
        E 3 83 46 00
        E 8 83 32 00
        E 1875 83 3d 00
        E 6 83 46 00
        E 3 93 46 3a
        E 3 93 46 3a
        E 0 93 41 3a
        E 4 93 45 3a
        E 7 83 39 00
        E 0 93 39 4c
        E 1 93 32 3a
        E 2 83 46 00
        E 2 93 46 3a
        E 1 83 46 00
        E 1 83 32 00
        E 1 93 3c 3a
        E 12 83 45 00
        E 7 83 46 00
        E 1882 83 46 00
        E 0 93 46 3a
        E 5 93 32 3a
        E 3 93 3c 3a
        E 1 93 46 3a
        E 1 83 46 00
        E 1 83 39 00
        E 0 93 39 4c
        E 2 83 46 00
        E 2 93 46 3a
        E 4 83 41 00
        E 0 93 41 3a
        E 4 83 45 00
        E 0 93 41 3a
        E 6 83 32 00
        E 4 83 3c 00
        E 1869 83 46 00
        E 8 83 3c 00
        E 8 83 46 00
        E 3 93 41 3a
        E 1 93 32 3a
        E 6 83 46 00
        E 1 93 46 3a
        E 2 83 39 00
        E 0 93 3a 49
        E 4 93 46 3a
        E 2 93 46 3a
        E 1 93 46 3a
        E 3 83 32 00
        E 1 83 41 00
        E 2 93 46 3a
        E 13 83 41 00
        E 1878 83 41 00
        E 3 93 46 3a
        E 1 83 32 00
        E 1 93 46 3a
        E 3 93 46 3a
        E 4 83 46 00
        E 1 93 46 3a
        E 1 83 46 00
        E 0 93 3e 3a
        E 1 93 46 3a
        E 1 83 3a 00
        E 0 93 3a 47
        E 1 83 46 00
        E 3 83 46 00
        E 2 93 46 3a
        E 14 83 46 00
        E 1875 83 46 00
        E 11 93 46 3a
        E 0 93 32 3a
        E 2 83 46 00
        E 2 83 46 00
        E 0 83 46 00
        E 0 83 46 00
        E 4 93 46 3a
        E 4 83 3e 00
        E 2 83 3a 00
        E 0 93 39 45
        E 3 93 46 3a
        E 3 93 3d 3a
        E 3 93 46 3a
        E 1 83 46 00
        E 1 93 40 3a
        E 1893 83 46 00
        E 4 83 46 00
        E 1 93 32 3a
        E 3 83 46 00
        E 0 93 46 3a
        E 1 83 3d 00
        E 1 93 32 3a
        E 2 93 46 3a
        E 1 93 40 3a
        E 2 83 32 00
        E 1 83 39 00
        E 0 93 39 45
        E 6 93 3d 3a
        E 2 93 32 3a
        E 3 83 46 00
        E 0 83 40 00
        E 1895 83 46 00
        E 1 93 40 3a
        E 1 83 46 00
        E 0 83 40 00
        E 1 93 46 3a
        E 3 83 32 00
        E 6 83 32 00
        E 2 83 39 00
        E 0 93 39 45
        E 1 93 46 3a
        E 6 83 32 00
        E 0 83 3d 00
        E 0 93 46 3a
        E 1 93 46 3a
        E 2 93 46 3a
        E 4 93 40 3a
        E 1892 93 40 3a
        E 0 93 46 3a
        E 4 83 46 00
        E 0 93 46 3a
        E 2 83 46 00
        E 2 93 46 3a
        E 6 83 39 00
        E 0 93 46 3a
        E 0 93 39 43
        E 5 83 46 00
        E 0 93 46 3a
        E 1 83 40 00
        E 0 83 46 00
        E 3 83 40 00
        E 2 93 46 3a
        E 6 83 46 00
        E 1882 83 46 00
        E 5 83 46 00
        E 10 93 45 3a
        E 3 93 45 3a
        E 1 93 46 3a
        E 1 83 46 00
        E 1 83 46 00
        E 0 83 39 00
        E 0 93 39 40
        E 0 93 3e 3a
        E 2 83 40 00
        E 8 93 45 3a
        E 1 93 46 3a
        E 2 93 46 3a
        E 9 83 46 00
        E 2 83 46 00
        E 1884 83 45 00
        E 1 93 46 3a
        E 6 83 45 00
        E 1 93 32 3a
        E 1 93 3e 3a
        E 1 83 46 00
        E 0 93 46 3a
        E 2 83 39 00
        E 0 93 39 40
        E 2 83 46 00
        E 1 93 46 3a
        E 3 93 46 3a
        E 1 93 45 3a
        E 11 83 3e 00
        E 2 83 46 00
        E 2 83 45 00
        E 1884 83 32 00
        E 4 83 46 00
        E 0 93 46 3a
        E 6 93 3e 3a
        E 4 83 39 00
        E 0 83 45 00
        E 0 93 3a 3e
        E 1 83 3e 00
        E 3 93 46 3a
        E 2 83 46 00
        E 0 83 46 00
        E 4 83 46 00
        E 1893 83 3e 00
        E 15 93 46 3a
        E 1 83 46 00
        E 1 83 3a 00
        E 19 83 46 00
        E 1896 83 46 00
        E 6 93 40 3a
        E 1903 83 40 00
        E 2 93 46 3a
        E 4 93 45 3a
        E 1902 83 45 00
        E 27 93 46 3a
        E 3 83 46 00
        E 5 93 46 3a
        E 1902 83 46 00
        E 15 93 46 3a
        E 5 93 46 3a
        E 14 83 46 00
        E 1897 93 39 3a
        E 11 83 46 00
        E 0 93 46 3a
        E 12 83 46 00
        E 1891 93 46 3a
        E 2 93 45 3a
        E 2 83 46 00
        E 2 83 39 00
        E 1901 83 45 00
        E 2 83 46 00
        E 22 93 32 3a
        E 3 93 46 3a
        E 4 93 32 3a
        E 2 93 46 3a
        E 1896 93 46 3a
        E 7 83 32 00
        E 1 83 46 00
        E 2 93 3a 3a
        E 3 83 46 00
        E 6 93 46 3a
        E 4 93 46 3a
        E 4 83 32 00
        E 1876 83 46 00
        E 27 83 3a 00
        E 14 83 46 00
        E 1 83 46 00
        E 0 b3 7b 00
        E 1 ff 2f 00
      >
    >
  >
  <TRACK
    NAME "Cello"
    PEAKCOL 4284186559
    VOLPAN 1.000000 0 1 -1
    MIDIOUT -1
    ISBUS 0 0
    <ITEM
      POSITION 3.644586
      LENGTH 94.650609
      NAME "Cello"
      VOLPAN 1 0 1 -1
      <SOURCE MIDI
        HASDATA 1 960 QN
        E 0 c4 2a 00
        E 3849 94 35 71
        E 3840 84 35 00
        E 3838 94 3a 74
        E 3840 84 3a 00
        E 7681 94 3e 74
        E 3834 94 39 75
        E 6 84 3e 00
        E 3834 84 39 00
        E 12 94 39 75
        E 3829 94 39 71
        E 11 84 39 00
        E 3829 84 39 00
        E 11 94 3a 74
        E 3826 94 40 71
        E 14 84 3a 00
        E 3826 84 40 00
        E 14 94 45 74
        E 3832 94 40 71
        E 8 84 45 00
        E 3832 84 40 00
        E 2 94 3e 74
        E 3840 84 3e 00
        E 5 94 40 75
        E 3840 84 40 00
        E 1 94 45 71
        E 3826 94 45 74
        E 14 84 45 00
        E 3826 84 45 00
        E 10 94 46 75
        E 3839 94 48 6f
        E 1 84 46 00
        E 3834 94 45 71
        E 5 84 48 00
        E 3834 94 41 71
        E 1 84 45 00
        E 3839 84 41 00
        E 3838 94 48 71
        E 3840 84 48 00
        E 3849 94 48 74
        E 3840 84 48 00
        E 4 94 48 71
        E 3840 84 48 00
        E 0 b4 7b 00
        E 1 ff 2f 00
      >
    >
  >
  <TRACK
    NAME "Choir"
    PEAKCOL 4284506208
    VOLPAN 1.000000 0 1 -1
    MIDIOUT -1
    ISBUS 0 0
    <ITEM
      POSITION 0.012405
      LENGTH 97.992165
      NAME "Choir"
      VOLPAN 1 0 1 -1
      <SOURCE MIDI
        HASDATA 1 960 QN
        E 0 c5 34 00
        E 13 95 40 74
        E 13 95 32 74
        E 3520 85 40 00
        E 13 85 32 00
        E 297 95 39 74
        E 3533 85 39 00
        E 302 95 41 6b
        E 6 95 32 6b
        E 3527 85 41 00
        E 6 85 32 00
        E 296 95 40 6b
        E 3 95 3d 6d
        E 3530 85 40 00
        E 3 85 3d 00
        E 306 95 3d 71
        E 7 95 32 6d
        E 3526 85 3d 00
        E 7 85 32 00
        E 310 95 39 6d
        E 3533 85 39 00
        E 291 95 3e 6f
        E 10 95 41 6b
        E 8 95 3a 6b
        E 3 95 32 6b
        E 3512 85 3e 00
        E 10 85 41 00
        E 8 85 3a 00
        E 3 85 32 00
        E 290 95 40 74
        E 3 95 3d 71
        E 6 95 39 74
        E 8 95 32 6f
        E 3516 85 40 00
        E 3 85 3d 00
        E 6 85 39 00
        E 8 85 32 00
        E 288 95 3d 71
        E 2 95 40 6b
        E 10 95 32 74
        E 1 95 39 6f
        E 3520 85 3d 00
        E 2 85 40 00
        E 10 85 32 00
        E 1 85 39 00
        E 291 95 3e 6d
        E 8 95 41 74
        E 5 95 39 74
        E 13 95 32 6b
        E 3507 85 3e 00
        E 8 85 41 00
        E 5 85 39 00
        E 13 85 32 00
        E 286 95 41 6b
        E 3 95 3e 6b
        E 9 95 3a 6b
        E 10 95 32 74
        E 3511 85 41 00
        E 3 85 3e 00
        E 9 85 3a 00
        E 10 85 32 00
        E 284 95 3d 71
        E 8 95 40 6d
        E 0 95 39 6b
        E 13 95 32 71
        E 3512 85 3d 00
        E 8 85 40 00
        E 0 85 39 00
        E 13 85 32 00
        E 286 95 3d 6b
        E 8 95 40 71
        E 7 95 39 6b
        E 1 95 32 6f
        E 3517 85 3d 00
        E 8 85 40 00
        E 7 85 39 00
        E 1 85 32 00
        E 295 95 3d 74
        E 4 95 39 6f
        E 0 95 41 6b
        E 2 95 32 6b
        E 3527 85 3d 00
        E 4 85 39 00
        E 0 85 41 00
        E 2 85 32 00
        E 297 95 3e 6b
        E 1 95 41 71
        E 12 95 32 74
        E 1 95 3a 6f
        E 3519 85 3e 00
        E 1 85 41 00
        E 12 85 32 00
        E 1 85 3a 00
        E 292 95 3d 74
        E 1 95 40 71
        E 12 95 39 71
        E 7 95 32 6f
        E 3513 85 3d 00
        E 1 85 40 00
        E 12 85 39 00
        E 7 85 32 00
        E 287 95 3d 74
        E 5 95 40 6b
        E 6 95 32 71
        E 1 95 39 74
        E 3521 85 3d 00
        E 5 85 40 00
        E 6 85 32 00
        E 1 85 39 00
        E 297 95 41 6b
        E 3 95 3d 74
        E 7 95 39 6b
        E 5 95 32 6b
        E 3518 85 41 00
        E 3 85 3d 00
        E 7 85 39 00
        E 5 85 32 00
        E 288 95 3e 74
        E 12 95 3a 71
        E 0 95 41 6d
        E 13 95 32 6d
        E 3508 85 3e 00
        E 12 85 3a 00
        E 0 85 41 00
        E 13 85 32 00
        E 283 95 3d 74
        E 3 95 40 71
        E 6 95 39 6b
        E 11 95 32 6f
        E 3513 85 3d 00
        E 3 85 40 00
        E 6 85 39 00
        E 11 85 32 00
        E 289 95 3d 71
        E 9 95 40 71
        E 6 95 39 6b
        E 9 95 32 74
        E 3509 85 3d 00
        E 9 85 40 00
        E 6 85 39 00
        E 9 85 32 00
        E 282 95 3e 74
        E 1 95 41 6b
        E 14 95 39 74
        E 5 95 32 6d
        E 3513 85 3e 00
        E 1 85 41 00
        E 14 85 39 00
        E 5 85 32 00
        E 301 95 3a 6f
        E 8 95 32 6b
        E 3525 85 3a 00
        E 8 85 32 00
        E 11810 95 41 74
        E 5 95 3a 74
        E 3528 85 41 00
        E 5 85 3a 00
        E 0 b5 7b 00
        E 1 ff 2f 00
      >
    >
  >
  <TRACK
    NAME "Oboe"
    PEAKCOL 4282040170
    VOLPAN 1.000000 0 1 -1
    MIDIOUT -1
    ISBUS 0 0
    <ITEM
      POSITION 10.917812
      LENGTH 76.458344
      NAME "Oboe"
      VOLPAN 1 0 1 -1
      <SOURCE MIDI
        HASDATA 1 960 QN
        E 0 c6 44 00
        E 11529 96 41 6f
        E 3840 86 41 00
        E 7679 96 3a 6d
        E 3840 86 3a 00
        E 3838 96 3e 6f
        E 3840 86 3e 00
        E 1 96 40 64
        E 3840 86 40 00
        E 3833 96 41 6d
        E 3840 86 41 00
        E 8 96 41 6f
        E 3840 86 41 00
        E 3839 96 45 6d
        E 3840 86 45 00
        E 1 96 41 6b
        E 3840 86 41 00
        E 3839 96 3d 64
        E 3838 96 3a 71
        E 2 86 3d 00
        E 3838 86 3a 00
        E 3843 96 3a 6b
        E 3838 96 3d 69
        E 2 86 3a 00
        E 3838 86 3d 00
        E 3838 96 3e 69
        E 3840 86 3e 00
        E 0 b6 7b 00
        E 1 ff 2f 00
      >
    >
  >
  <TRACK
    NAME "Bass"
    PEAKCOL 4286528191
    VOLPAN 1.000000 0 1 -1
    MIDIOUT -1
    ISBUS 0 0
    <ITEM
      POSITION 0.000554
      LENGTH 98.287244
      NAME "Bass"
      VOLPAN 1 0 1 -1
      <SOURCE MIDI
        HASDATA 1 960 QN
        E 0 c7 2b 00
        E 1 97 25 7b
        E 3840 87 25 00
        E 0 97 25 7b
        E 3840 87 25 00
        E 4 97 26 7b
        E 3840 87 26 00
        E 2 97 25 7b
        E 3837 97 25 7b
        E 3 87 25 00
        E 3837 87 25 00
        E 0 97 21 7b
        E 3840 87 21 00
        E 0 97 26 7b
        E 3838 97 25 7b
        E 2 87 26 00
        E 3836 97 21 7b
        E 2 87 25 00
        E 3838 87 21 00
        E 8 97 26 7b
        E 3838 97 26 7b
        E 2 87 26 00
        E 3835 97 21 7b
        E 3 87 26 00
        E 3836 97 25 7b
        E 1 87 21 00
        E 3839 87 25 00
        E 3 97 25 7b
        E 3840 87 25 00
        E 1 97 26 7b
        E 3839 97 25 7b
        E 1 87 26 00
        E 3836 97 25 7b
        E 3 87 25 00
        E 3837 87 25 00
        E 2 97 25 7b
        E 3837 97 26 7b
        E 3 87 25 00
        E 3837 87 26 00
        E 3 97 25 7b
        E 3840 87 25 00
        E 2 97 25 7b
        E 3838 97 26 7b
        E 2 87 25 00
        E 3838 87 26 00
        E 2 97 26 7b
        E 3840 87 26 00
        E 1 97 25 7b
        E 3840 87 25 00
        E 2 97 21 7b
        E 3839 97 21 7b
        E 1 87 21 00
        E 3837 97 26 7b
        E 2 87 21 00
        E 3838 87 26 00
        E 0 b7 7b 00
        E 1 ff 2f 00
      >
    >
  >
>
