<REAPER_PROJECT 0.1 "7.0" 1700000000
  TEMPO 80.000000 4 4
  SAMPLERATE 48000 0 0
  RENDER_FILE ""
  RENDER_FMT 0 2 0
  RENDER_1X 0
  RENDER_RANGE 1 0 77.431843 0 0
  RENDER_RESAMPLE 3 0 1
  <MASTERTRACK
    VOLPAN 1 0 1 -1
    DEFCHAN 0
  >
  <TRACK
    NAME "Lead"
    PEAKCOL 4284506208
    VOLPAN 1.000000 0 1 -1
    MIDIOUT -1
    ISBUS 0 0
    <ITEM
      POSITION 0.002300
      LENGTH 75.529543
      NAME "Lead"
      VOLPAN 1 0 1 -1
      <SOURCE MIDI
        HASDATA 1 960 QN
        E 0 c0 49 00
        E 3 90 4c 7d
        E 1039 80 4c 00
        E 73 90 4a 5e
        E 1039 80 4a 00
        E 54 90 48 5e
        E 548 90 4c 5e
        E 396 80 48 00
        E 548 80 4c 00
        E 170 90 48 7d
        E 944 80 48 00
        E 418 90 4a 75
        E 238 80 4a 00
        E 616 90 48 5e
        E 715 80 48 00
        E 386 90 4a 5e
        E 850 80 4a 00
        E 264 90 4c 75
        E 1039 80 4c 00
        E 622 90 4c 74
        E 575 90 4c 79
        E 140 80 4c 00
        E 804 80 4c 00
        E 155 90 4c 64
        E 944 80 4c 00
        E 164 90 4f 5e
        E 944 80 4f 00
        E 708 90 4c 78
        E 850 80 4c 00
        E 732 90 4f 64
        E 1039 80 4f 00
        E 85 90 4e 5e
        E 219 90 4f 5e
        E 220 90 53 5e
        E 20 80 4f 00
        E 199 90 54 5e
        E 21 80 53 00
        E 198 90 58 5e
        E 21 80 54 00
        E 46 80 4e 00
        E 153 90 5a 7d
        E 20 80 58 00
        E 695 80 5a 00
        E 395 90 58 5e
        E 944 80 58 00
        E 173 90 56 62
        E 476 80 56 00
        E 80 90 58 5e
        E 944 80 58 00
        E 157 90 56 6b
        E 643 80 56 00
        E 462 90 54 5e
        E 1039 80 54 00
        E 62 90 56 5e
        E 262 80 56 00
        E 1097 90 58 5e
        E 944 80 58 00
        E 167 90 56 5e
        E 854 90 54 69
        E 90 80 56 00
        E 854 80 54 00
        E 537 90 54 5e
        E 732 90 56 72
        E 212 80 54 00
        E 638 80 56 00
        E 271 90 58 5e
        E 1039 80 58 00
        E 63 90 56 5e
        E 262 80 56 00
        E 848 90 58 62
        E 944 80 58 00
        E 170 90 5b 60
        E 238 80 5b 00
        E 870 90 5a 5e
        E 944 80 5a 00
        E 156 90 58 7d
        E 1106 90 56 5e
        E 323 80 58 00
        E 527 80 56 00
        E 937 90 54 77
        E 524 80 54 00
        E 454 90 58 7d
        E 944 80 58 00
        E 169 90 56 5e
        E 944 80 56 00
        E 180 90 58 64
        E 944 80 58 00
        E 144 90 56 67
        E 944 80 56 00
        E 177 90 53 5e
        E 850 80 53 00
        E 796 90 53 62
        E 1039 80 53 00
        E 76 90 54 69
        E 786 80 54 00
        E 327 90 56 5e
        E 564 90 58 5e
        E 380 80 56 00
        E 96 80 58 00
        E 727 90 5b 72
        E 438 90 58 77
        E 506 80 5b 00
        E 438 80 58 00
        E 165 90 58 5e
        E 944 80 58 00
        E 179 90 56 5e
        E 214 80 56 00
        E 575 90 54 5e
        E 643 80 54 00
        E 229 90 53 78
        E 1341 90 56 6b
        E 231 80 53 00
        E 626 90 54 5e
        E 87 80 56 00
        E 857 80 54 00
        E 728 90 56 78
        E 944 80 56 00
        E 179 90 54 5e
        E 944 80 54 00
        E 267 90 54 5e
        E 643 80 54 00
        E 1318 90 53 69
        E 524 80 53 00
        E 567 90 53 5e
        E 944 80 53 00
        E 164 90 54 5e
        E 715 80 54 00
        E 397 90 56 7d
        E 944 80 56 00
        E 514 90 54 5e
        E 750 90 58 5e
        E 194 80 54 00
        E 20 80 58 00
        E 899 90 56 5e
        E 222 90 54 5e
        E 222 90 51 5e
        E 18 80 54 00
        E 204 90 4f 5e
        E 18 80 51 00
        E 205 90 4c 5e
        E 17 80 4f 00
        E 133 80 56 00
        E 72 90 4a 69
        E 18 80 4c 00
        E 549 90 4c 69
        E 377 80 4a 00
        E 567 80 4c 00
        E 159 90 4a 72
        E 476 80 4a 00
        E 623 90 4a 69
        E 715 80 4a 00
        E 397 90 4a 5e
        E 944 80 4a 00
        E 715 90 48 69
        E 850 80 48 00
        E 258 90 48 5e
        E 1039 80 48 00
        E 79 90 4a 60
        E 476 80 4a 00
        E 635 90 4c 5e
        E 722 90 4f 5e
        E 222 80 4c 00
        E 18 80 4f 00
        E 482 90 53 74
        E 1316 90 51 67
        E 476 80 51 00
        E 113 80 53 00
        E 502 90 51 5e
        E 850 80 51 00
        E 519 90 4f 5e
        E 867 90 4c 5e
        E 172 80 4f 00
        E 352 80 4c 00
        E 813 90 4e 72
        E 476 80 4e 00
        E 393 90 4f 6f
        E 944 80 4f 00
        E 159 90 4c 67
        E 559 90 4f 5e
        E 240 80 4f 00
        E 145 80 4c 00
        E 174 90 53 5e
        E 476 80 53 00
        E 633 90 4f 69
        E 643 80 4f 00
        E 474 90 4f 5e
        E 262 80 4f 00
        E 836 90 4c 5e
        E 1039 80 4c 00
        E 58 90 4a 5e
        E 476 80 4a 00
        E 642 90 48 7d
        E 944 80 48 00
        E 0 b0 7b 00
        E 1 ff 2f 00
      >
    >
  >
  <TRACK
    NAME "Tanpura"
    PEAKCOL 4284506208
    VOLPAN 1.000000 0 1 -1
    MIDIOUT -1
    ISBUS 0 0
    <ITEM
      POSITION 0.000000
      LENGTH 75.100000
      NAME "Tanpura"
      VOLPAN 1 0 1 -1
      <SOURCE MIDI
        HASDATA 1 960 QN
        E 0 c1 30 00
        E 0 91 43 02
        E 0 91 48 02
        E 96000 81 43 00
        E 0 81 48 00
        E 0 b1 7b 00
        E 1 ff 2f 00
      >
    >
  >
  <TRACK
    NAME "Violin1"
    PEAKCOL 4284186559
    VOLPAN 1.000000 0 1 -1
    MIDIOUT -1
    ISBUS 0 0
    <ITEM
      POSITION 3.008306
      LENGTH 72.094560
      NAME "Violin1"
      VOLPAN 1 0 1 -1
      <SOURCE MIDI
        HASDATA 1 960 QN
        E 0 c2 28 00
        E 3851 92 4e 72
        E 3840 82 4e 00
        E 3836 92 45 74
        E 3840 82 45 00
        E 3842 92 47 74
        E 3838 92 4a 75
        E 2 82 47 00
        E 3835 92 48 72
        E 3 82 4a 00
        E 3837 82 48 00
        E 9 92 4c 72
        E 3828 92 51 74
        E 12 82 4c 00
        E 3828 82 51 00
        E 8 92 51 6d
        E 3832 92 4f 6f
        E 8 82 51 00
        E 3832 82 4f 00
        E 5 92 4f 6d
        E 3840 82 4f 00
        E 8 92 5a 75
        E 3830 92 4f 75
        E 10 82 5a 00
        E 3830 82 4f 00
        E 5 92 54 74
        E 3840 82 54 00
        E 1 92 54 75
        E 3835 92 5a 74
        E 5 82 54 00
        E 3835 82 5a 00
        E 9 92 5a 6d
        E 3840 82 5a 00
        E 0 92 58 77
        E 3840 82 58 00
        E 7679 92 4e 74
        E 3840 82 4e 00
        E 3831 92 4f 74
        E 3840 82 4f 00
        E 0 b2 7b 00
        E 1 ff 2f 00
      >
    >
  >
  <TRACK
    NAME "Strings"
    PEAKCOL 4284186559
    VOLPAN 1.000000 0 1 -1
    MIDIOUT -1
    ISBUS 0 0
    <ITEM
      POSITION 0.000000
      LENGTH 75.110517
      NAME "Strings"
      VOLPAN 1 0 1 -1
      <SOURCE MIDI
        HASDATA 1 960 QN
        E 0 c3 30 00
        E 0 93 34 3d
        E 9 93 43 3d
        E 4 93 48 3d
        E 1894 93 34 3d
        E 6 93 48 3d
        E 5 93 48 3d
        E 3 93 43 3d
        E 8 83 43 00
        E 4 83 48 00
        E 2 83 34 00
        E 1891 83 48 00
        E 12 93 48 3d
        E 1 93 48 3d
        E 1 93 42 3d
        E 4 83 34 00
        E 8 83 48 00
        E 1 83 43 00
        E 1888 83 48 00
        E 6 93 48 3d
        E 13 83 42 00
        E 1 93 48 3d
        E 12 83 48 00
        E 1879 83 48 00
        E 21 83 48 00
        E 1919 93 36 3d
        E 16 93 48 3d
        E 1 93 48 3d
        E 2 93 48 3d
        E 1 93 48 3d
        E 1902 83 36 00
        E 7 83 48 00
        E 2 83 48 00
        E 6 83 48 00
        E 5 93 48 3d
        E 13 83 48 00
        E 1885 93 48 3d
        E 8 93 40 3d
        E 2 83 48 00
        E 1905 93 48 3d
        E 3 93 48 3d
        E 10 83 40 00
        E 2 93 48 3d
        E 4 83 48 00
        E 1904 83 48 00
        E 5 83 48 00
        E 8 93 34 3d
        E 3 83 48 00
        E 1914 83 34 00
        E 0 93 3e 3d
        E 5 93 48 3d
        E 2 93 48 3d
        E 3 93 34 3d
        E 1905 83 34 00
        E 0 93 47 3d
        E 1 93 42 3d
        E 4 83 3e 00
        E 0 93 3e 3d
        E 0 93 34 3d
        E 1 83 48 00
        E 0 93 47 3d
        E 3 93 48 3d
        E 1 83 48 00
        E 1 93 48 3d
        E 6 93 48 3d
        E 1895 93 48 3d
        E 2 93 34 3d
        E 4 83 48 00
        E 2 83 42 00
        E 2 83 34 00
        E 3 83 47 00
        E 0 83 3e 00
        E 0 93 3e 3d
        E 1 83 48 00
        E 5 93 48 3d
        E 2 93 48 3d
        E 1 93 42 3d
        E 2 93 48 3d
        E 0 93 45 3d
        E 2 83 48 00
        E 6 83 47 00
        E 1889 93 48 3d
        E 6 83 48 00
        E 2 93 34 3d
        E 4 83 3e 00
        E 0 93 3e 3d
        E 2 93 42 3d
        E 3 83 34 00
        E 1 93 48 3d
        E 1 93 48 3d
        E 3 93 48 3d
        E 1 93 48 3d
        E 6 83 48 00
        E 1 83 45 00
        E 2 83 48 00
        E 2 83 42 00
        E 6 83 48 00
        E 1874 83 48 00
        E 8 93 40 3d
        E 2 83 48 00
        E 2 83 48 00
        E 3 83 34 00
        E 3 83 3e 00
        E 0 93 3c 3d
        E 0 93 48 3d
        E 1 93 34 3d
        E 1 83 42 00
        E 0 93 48 3d
        E 3 93 34 3d
        E 0 93 34 3d
        E 9 93 48 3d
        E 7 83 48 00
        E 3 83 48 00
        E 1874 83 40 00
        E 6 83 48 00
        E 10 93 48 3d
        E 1 93 34 3d
        E 3 93 40 3d
        E 1 83 48 00
        E 1 83 3c 00
        E 0 93 48 3d
        E 0 93 3c 3d
        E 5 93 48 3d
        E 1 93 48 3d
        E 1 83 34 00
        E 1 83 34 00
        E 4 93 48 3d
        E 3 83 34 00
        E 1 83 48 00
        E 1885 83 48 00
        E 8 83 48 00
        E 0 93 48 3d
        E 6 83 34 00
        E 5 83 3c 00
        E 0 93 34 3d
        E 0 93 3c 3d
        E 2 83 48 00
        E 1 83 48 00
        E 1 93 34 3d
        E 1 93 48 3d
        E 1 93 48 3d
        E 4 93 34 3d
        E 1 93 48 3d
        E 4 83 40 00
        E 3 83 48 00
        E 1872 83 48 00
        E 18 93 48 3d
        E 1 83 48 00
        E 4 83 48 00
        E 0 93 48 3d
        E 0 93 34 3d
        E 7 83 3c 00
        E 0 93 3c 3d
        E 3 93 48 3d
        E 0 93 34 3d
        E 2 83 34 00
        E 0 93 40 3d
        E 3 83 34 00
        E 1 93 48 3d
        E 3 83 48 00
        E 4 83 34 00
        E 1884 83 48 00
        E 8 83 34 00
        E 1 93 48 3d
        E 3 93 48 3d
        E 3 93 34 3d
        E 2 83 40 00
        E 0 83 48 00
        E 1 83 48 00
        E 1 93 48 3d
        E 1 83 34 00
        E 0 83 3c 00
        E 0 93 3b 3d
        E 0 93 48 3d
        E 0 93 40 3d
        E 6 93 48 3d
        E 11 83 48 00
        E 1880 83 48 00
        E 8 83 40 00
        E 2 83 48 00
        E 3 83 48 00
        E 0 93 43 3d
        E 1 83 48 00
        E 0 93 34 3d
        E 9 83 3b 00
        E 0 93 3b 3f
        E 2 93 48 3d
        E 0 93 34 3d
        E 2 83 34 00
        E 6 83 48 00
        E 0 93 40 3d
        E 2 93 34 3d
        E 2 93 48 3d
        E 1894 83 34 00
        E 0 93 48 3d
        E 5 93 48 3d
        E 6 93 48 3d
        E 1 83 3b 00
        E 0 93 39 3f
        E 1 83 43 00
        E 0 93 48 3d
        E 1 83 34 00
        E 1 83 48 00
        E 0 93 45 3d
        E 1 93 48 3d
        E 7 83 34 00
        E 3 93 45 3d
        E 1 83 48 00
        E 4 83 40 00
        E 1886 83 48 00
        E 3 83 48 00
        E 2 93 48 3d
        E 8 93 34 3d
        E 1 83 48 00
        E 0 93 45 3d
        E 1 83 39 00
        E 0 93 39 42
        E 2 83 48 00
        E 1 83 48 00
        E 1 93 45 3d
        E 3 93 48 3d
        E 3 93 45 3d
        E 2 93 48 3d
        E 8 83 45 00
        E 12 83 45 00
        E 1884 93 34 3d
        E 1 93 3c 3d
        E 3 83 39 00
        E 0 93 37 42
        E 1 83 48 00
        E 1 83 48 00
        E 3 83 34 00
        E 0 93 48 3d
        E 2 93 48 3d
        E 4 83 45 00
        E 0 93 43 3d
        E 0 93 48 3d
        E 1 93 48 3d
        E 3 83 45 00
        E 4 83 45 00
        E 7 83 48 00
        E 1880 93 48 3d
        E 8 93 48 3d
        E 2 83 48 00
        E 2 93 3c 3d
        E 1 83 48 00
        E 0 93 40 3d
        E 1 83 37 00
        E 0 93 37 42
        E 2 93 43 3d
        E 2 93 34 3d
        E 3 83 34 00
        E 1 83 48 00
        E 1 83 3c 00
        E 0 83 43 00
        E 1 93 48 3d
        E 18 83 48 00
        E 1874 83 48 00
        E 4 83 34 00
        E 3 93 43 3d
        E 3 93 48 3d
        E 8 83 37 00
        E 0 93 37 44
        E 1 83 48 00
        E 1 83 48 00
        E 1 93 34 3d
        E 0 93 48 3d
        E 1 83 43 00
        E 1 83 40 00
        E 1 83 3c 00
        E 0 93 34 3d
        E 4 93 48 3d
        E 2 93 40 3d
        E 1883 83 43 00
        E 7 83 48 00
        E 13 93 48 3d
        E 4 93 48 3d
        E 1 83 37 00
        E 0 83 48 00
        E 0 93 37 44
        E 2 83 48 00
        E 1 93 48 3d
        E 0 93 48 3d
        E 1 83 34 00
        E 5 93 48 3d
        E 0 93 34 3d
        E 1 93 3c 3d
        E 5 83 34 00
        E 9 83 40 00
        E 1882 83 48 00
        E 3 83 48 00
        E 2 83 34 00
        E 5 93 48 3d
        E 1 93 48 3d
        E 1 83 3c 00
        E 0 93 48 3d
        E 2 83 37 00
        E 0 93 36 44
        E 0 93 48 3d
        E 5 93 3b 3d
        E 3 83 48 00
        E 4 93 48 3d
        E 1 93 48 3d
        E 4 83 48 00
        E 11 83 48 00
        E 1877 83 48 00
        E 1 83 48 00
        E 8 93 48 3d
        E 5 83 48 00
        E 1 83 36 00
        E 0 93 48 3d
        E 0 93 36 44
        E 2 93 42 3d
        E 2 83 48 00
        E 2 93 48 3d
        E 3 83 3b 00
        E 0 93 42 3d
        E 3 93 34 3d
        E 2 93 48 3d
        E 4 83 48 00
        E 8 83 48 00
        E 1886 93 3e 3d
        E 1 93 48 3d
        E 1 93 34 3d
        E 1 83 48 00
        E 5 83 36 00
        E 0 93 36 46
        E 0 93 45 3d
        E 1 83 48 00
        E 1 93 48 3d
        E 2 93 48 3d
        E 4 83 34 00
        E 5 83 42 00
        E 0 93 48 3d
        E 1 83 48 00
        E 0 83 48 00
        E 12 83 42 00
        E 1880 93 3e 3d
        E 3 83 48 00
        E 0 83 45 00
        E 3 83 3e 00
        E 3 93 48 3d
        E 5 83 36 00
        E 0 93 36 46
        E 0 93 48 3d
        E 1 93 39 3d
        E 2 93 34 3d
        E 2 93 34 3d
        E 2 83 34 00
        E 1 83 48 00
        E 4 83 48 00
        E 0 93 42 3d
        E 7 83 48 00
        E 1887 83 3e 00
        E 0 93 43 3d
        E 1 93 34 3d
        E 5 83 48 00
        E 0 93 48 3d
        E 2 83 34 00
        E 1 93 3c 3d
        E 0 93 43 3d
        E 4 83 34 00
        E 1 83 36 00
        E 0 93 34 46
        E 5 83 48 00
        E 3 93 48 3d
        E 2 93 48 3d
        E 7 83 39 00
        E 5 83 42 00
        E 1877 83 43 00
        E 8 83 34 00
        E 1 93 48 3d
        E 7 83 3c 00
        E 0 93 48 3d
        E 0 93 3c 3d
        E 3 93 43 3d
        E 2 83 34 00
        E 0 93 34 48
        E 3 83 43 00
        E 0 93 43 3d
        E 1 83 48 00
        E 0 93 48 3d
        E 1 83 48 00
        E 6 93 43 3d
        E 15 83 48 00
        E 1870 83 3c 00
        E 10 93 48 3d
        E 9 83 48 00
        E 2 93 43 3d
        E 3 83 48 00
        E 0 83 34 00
        E 0 93 34 48
        E 2 93 37 3d
        E 1 83 43 00
        E 1 83 43 00
        E 3 93 48 3d
        E 2 93 48 3d
        E 4 83 48 00
        E 0 93 48 3d
        E 1 93 34 48
        E 1 83 43 00
        E 1892 83 37 00
        E 1 83 43 00
        E 0 93 48 3d
        E 9 93 34 4a
        E 3 83 34 00
        E 0 93 34 4a
        E 1 93 37 3d
        E 3 83 48 00
        E 0 93 3c 3d
        E 1 83 34 00
        E 1 93 48 3d
        E 2 93 3c 3d
        E 1 93 48 3d
        E 3 83 48 00
        E 7 83 48 00
        E 6 83 48 00
        E 1881 93 48 3d
        E 0 93 48 3d
        E 1 83 3c 00
        E 4 83 48 00
        E 0 93 3e 3d
        E 4 93 48 3d
        E 1 93 48 3d
        E 1 83 37 00
        E 3 83 34 00
        E 0 93 34 4a
        E 2 83 34 00
        E 1 93 34 4a
        E 8 93 48 3d
        E 4 83 48 00
        E 6 83 48 00
        E 5 83 3c 00
        E 1862 83 48 00
        E 9 83 3e 00
        E 1 83 48 00
        E 4 83 48 00
        E 7 93 48 3d
        E 1 93 34 3d
        E 1 93 48 3d
        E 6 93 42 3d
        E 2 83 34 00
        E 1 83 34 00
        E 0 93 36 4a
        E 2 93 48 3d
        E 2 93 3e 3d
        E 2 93 42 3d
        E 3 83 48 00
        E 0 83 48 00
        E 1888 83 34 00
        E 11 93 48 3d
        E 1 93 39 3d
        E 1 83 42 00
        E 6 93 48 3d
        E 3 83 48 00
        E 0 83 48 00
        E 1 83 36 00
        E 0 93 36 4a
        E 2 83 48 00
        E 1 93 48 3d
        E 2 83 42 00
        E 1 93 34 3d
        E 6 83 3e 00
        E 0 93 48 3d
        E 2 93 3e 3d
        E 1892 83 48 00
        E 0 83 48 00
        E 1 93 42 3d
        E 1 83 48 00
        E 3 83 39 00
        E 0 93 48 3d
        E 4 93 48 3d
        E 5 83 36 00
        E 0 93 36 4a
        E 1 83 3e 00
        E 1 93 48 3d
        E 2 93 34 3d
        E 6 93 3e 3d
        E 1 93 34 3d
        E 2 83 34 00
        E 2 83 48 00
        E 1884 83 42 00
        E 8 83 48 00
        E 1 93 3c 3d
        E 10 93 3c 3d
        E 2 83 36 00
        E 0 93 48 3d
        E 0 93 37 4c
        E 1 83 3e 00
        E 0 93 48 3d
        E 1 83 48 00
        E 2 83 34 00
        E 5 83 48 00
        E 1 83 34 00
        E 1 93 48 3d
        E 1 93 48 3d
        E 0 93 43 3d
        E 1883 83 3c 00
        E 9 83 48 00
        E 6 93 3c 3d
        E 4 93 48 3d
        E 1 83 48 00
        E 4 83 48 00
        E 1 83 37 00
        E 0 93 37 4c
        E 4 93 34 3d
        E 1 93 43 3d
        E 1 83 3c 00
        E 2 83 48 00
        E 0 93 48 3d
        E 2 93 48 3d
        E 2 93 48 3d
        E 9 83 43 00
        E 1887 83 43 00
        E 2 83 3c 00
        E 1 93 48 3d
        E 1 93 48 3d
        E 2 83 48 00
        E 2 83 34 00
        E 3 93 3c 3d
        E 1 83 48 00
        E 0 83 37 00
        E 3 93 34 3d
        E 11 93 48 3d
        E 9 83 48 00
        E 5 83 48 00
        E 1876 83 34 00
        E 9 83 48 00
        E 7 93 37 4f
        E 4 83 48 00
        E 4 83 3c 00
        E 1 93 34 3d
        E 3 93 48 3d
        E 13 83 48 00
        E 1895 83 37 00
        E 1 83 34 00
        E 5 93 40 3d
        E 11 83 48 00
        E 1904 93 43 3d
        E 18 83 40 00
        E 1891 83 43 00
        E 6 93 48 3d
        E 4 93 36 51
        E 1919 83 48 00
        E 1 83 36 00
        E 7 93 48 3d
        E 4 93 3e 3d
        E 1911 93 48 3d
        E 2 83 48 00
        E 0 93 48 3d
        E 6 93 34 3d
        E 18 83 3e 00
        E 1885 93 34 3d
        E 13 83 48 00
        E 5 83 48 00
        E 15 83 34 00
        E 1883 83 34 00
        E 11 93 34 53
        E 7 93 40 3d
        E 1904 93 48 3d
        E 4 93 34 3d
        E 5 83 34 00
        E 0 93 48 3d
        E 3 93 3c 3d
        E 6 83 40 00
        E 4 93 48 3d
        E 1893 83 48 00
        E 3 83 34 00
        E 0 83 48 00
        E 14 83 3c 00
        E 11 83 48 00
        E 0 b3 7b 00
        E 1 ff 2f 00
      >
    >
  >
  <TRACK
    NAME "Flute"
    PEAKCOL 4282040170
    VOLPAN 1.000000 0 1 -1
    MIDIOUT -1
    ISBUS 0 0
    <ITEM
      POSITION 9.006889
      LENGTH 57.100628
      NAME "Flute"
      VOLPAN 1 0 1 -1
      <SOURCE MIDI
        HASDATA 1 960 QN
        E 0 c4 49 00
        E 11529 94 51 6f
        E 3840 84 51 00
        E 3835 94 54 69
        E 3840 84 54 00
        E 4 94 4f 69
        E 3840 84 4f 00
        E 3836 94 51 67
        E 3840 84 51 00
        E 4 94 54 6d
        E 3840 84 54 00
        E 3839 94 58 67
        E 3836 94 5d 6d
        E 4 84 58 00
        E 3836 84 5d 00
        E 3843 94 5b 67
        E 3837 94 5a 6f
        E 3 84 5b 00
        E 3837 84 5a 00
        E 3847 94 5f 6f
        E 3840 84 5f 00
        E 0 94 5b 69
        E 3840 84 5b 00
        E 7680 94 5b 69
        E 3840 84 5b 00
        E 0 b4 7b 00
        E 1 ff 2f 00
      >
    >
  >
  <TRACK
    NAME "Harp"
    PEAKCOL 4290756410
    VOLPAN 1.000000 0 1 -1
    MIDIOUT -1
    ISBUS 0 0
    <ITEM
      POSITION 0.095399
      LENGTH 74.968895
      NAME "Harp"
      VOLPAN 1 0 1 -1
      <SOURCE MIDI
        HASDATA 1 960 QN
        E 0 c5 2e 00
        E 122 95 37 62
        E 237 95 40 57
        E 483 95 4f 3f
        E 238 95 4f 3f
        E 118 95 4c 3f
        E 239 95 43 3f
        E 125 95 40 3f
        E 358 95 34 3f
        E 1869 85 43 00
        E 1 85 4c 00
        E 1 85 40 00
        E 1 85 4f 00
        E 0 85 34 00
        E 2 85 37 00
        E 0 85 4f 00
        E 0 85 40 00
        E 285 95 3b 62
        E 481 95 4a 48
        E 358 95 4e 3f
        E 120 95 4a 3f
        E 2592 85 4e 00
        E 0 85 4a 00
        E 1 85 3b 00
        E 1 85 4a 00
        E 886 95 4e 3f
        E 119 95 51 3f
        E 241 95 4a 3f
        E 122 95 45 3f
        E 120 95 42 3f
        E 2349 85 51 00
        E 1 85 4e 00
        E 0 85 4a 00
        E 2 85 45 00
        E 0 85 42 00
        E 49 95 34 72
        E 600 95 48 4c
        E 238 95 4f 3f
        E 960 95 37 3f
        E 123 95 34 3f
        E 1869 85 4f 00
        E 0 85 37 00
        E 2 85 34 00
        E 0 85 48 00
        E 1 85 34 00
        E 283 95 3c 60
        E 1083 95 48 3f
        E 2469 85 3c 00
        E 3 85 48 00
        E 50 95 32 74
        E 118 95 36 64
        E 119 95 3b 5e
        E 124 95 3e 53
        E 117 95 42 4f
        E 119 95 47 44
        E 124 95 4a 3f
        E 119 95 4e 3f
        E 116 95 53 3f
        E 122 95 4e 3f
        E 122 95 4a 3f
        E 116 95 47 3f
        E 122 95 42 3f
        E 122 95 3e 3f
        E 118 95 3b 3f
        E 119 95 36 3f
        E 118 95 32 3f
        E 1872 85 32 00
        E 1 85 53 00
        E 0 85 47 00
        E 1 85 3b 00
        E 0 85 47 00
        E 0 85 36 00
        E 1 85 36 00
        E 0 85 42 00
        E 0 85 4e 00
        E 0 85 42 00
        E 0 85 3b 00
        E 2 85 32 00
        E 0 85 4e 00
        E 0 85 4a 00
        E 0 85 3e 00
        E 1 85 3e 00
        E 0 85 4a 00
        E 44 95 32 6b
        E 119 95 36 6b
        E 120 95 39 5c
        E 122 95 3e 55
        E 118 95 42 51
        E 121 95 45 46
        E 121 95 4a 46
        E 122 95 4e 3f
        E 118 95 51 3f
        E 121 95 4e 3f
        E 117 95 4a 3f
        E 124 95 45 3f
        E 119 95 42 3f
        E 117 95 3e 3f
        E 121 95 39 3f
        E 122 95 36 3f
        E 119 95 32 3f
        E 1870 85 36 00
        E 0 85 39 00
        E 0 85 42 00
        E 0 85 4a 00
        E 0 85 3e 00
        E 1 85 32 00
        E 0 85 45 00
        E 0 85 39 00
        E 1 85 3e 00
        E 0 85 4a 00
        E 0 85 51 00
        E 0 85 32 00
        E 1 85 4e 00
        E 0 85 42 00
        E 0 85 36 00
        E 1 85 4e 00
        E 0 85 45 00
        E 47 95 34 74
        E 121 95 37 67
        E 116 95 3c 5c
        E 120 95 40 5a
        E 124 95 43 53
        E 117 95 48 44
        E 120 95 4c 48
        E 122 95 4f 3f
        E 118 95 54 3f
        E 119 95 4f 3f
        E 120 95 4c 3f
        E 120 95 48 3f
        E 119 95 43 3f
        E 121 95 40 3f
        E 121 95 3c 3f
        E 122 95 37 3f
        E 121 95 34 3f
        E 1867 85 43 00
        E 1 85 3c 00
        E 0 85 40 00
        E 0 85 4f 00
        E 0 85 4c 00
        E 0 85 48 00
        E 0 85 40 00
        E 1 85 48 00
        E 0 85 4c 00
        E 0 85 54 00
        E 0 85 3c 00
        E 2 85 34 00
        E 0 85 4f 00
        E 0 85 37 00
        E 1 85 37 00
        E 0 85 43 00
        E 0 85 34 00
        E 44 95 34 6f
        E 121 95 37 62
        E 119 95 3c 57
        E 124 95 40 5c
        E 117 95 43 53
        E 119 95 48 4a
        E 119 95 4c 3f
        E 121 95 4f 3f
        E 125 95 54 3f
        E 119 95 4f 3f
        E 120 95 4c 3f
        E 118 95 48 3f
        E 118 95 43 3f
        E 122 95 40 3f
        E 122 95 3c 3f
        E 121 95 37 3f
        E 117 95 34 3f
        E 1869 85 4c 00
        E 1 85 34 00
        E 0 85 3c 00
        E 0 85 48 00
        E 0 85 4f 00
        E 0 85 43 00
        E 1 85 37 00
        E 0 85 43 00
        E 1 85 48 00
        E 0 85 40 00
        E 0 85 34 00
        E 2 85 40 00
        E 0 85 4f 00
        E 0 85 4c 00
        E 0 85 3c 00
        E 1 85 54 00
        E 0 85 37 00
        E 43 95 34 74
        E 120 95 37 6b
        E 123 95 3b 5c
        E 117 95 40 57
        E 123 95 43 4f
        E 117 95 47 44
        E 125 95 4c 44
        E 114 95 4f 3f
        E 122 95 53 3f
        E 121 95 4f 3f
        E 119 95 4c 3f
        E 123 95 47 3f
        E 118 95 43 3f
        E 120 95 40 3f
        E 120 95 3b 3f
        E 122 95 37 3f
        E 117 95 34 3f
        E 1870 85 4f 00
        E 1 85 34 00
        E 0 85 37 00
        E 0 85 40 00
        E 0 85 47 00
        E 1 85 53 00
        E 0 85 4c 00
        E 0 85 34 00
        E 1 85 4f 00
        E 0 85 43 00
        E 0 85 40 00
        E 0 85 3b 00
        E 1 85 3b 00
        E 0 85 43 00
        E 1 85 47 00
        E 0 85 37 00
        E 1 85 4c 00
        E 47 95 32 6b
        E 118 95 36 6b
        E 119 95 39 62
        E 120 95 3e 5a
        E 122 95 42 51
        E 120 95 45 46
        E 118 95 4a 3f
        E 121 95 4e 3f
        E 118 95 51 3f
        E 123 95 4e 3f
        E 116 95 4a 3f
        E 124 95 45 3f
        E 119 95 42 3f
        E 121 95 3e 3f
        E 117 95 39 3f
        E 124 95 36 3f
        E 117 95 32 3f
        E 1870 85 4a 00
        E 1 85 51 00
        E 0 85 39 00
        E 1 85 39 00
        E 0 85 3e 00
        E 0 85 4a 00
        E 0 85 32 00
        E 1 85 36 00
        E 0 85 4e 00
        E 0 85 42 00
        E 1 85 42 00
        E 0 85 45 00
        E 0 85 4e 00
        E 0 85 45 00
        E 0 85 3e 00
        E 1 85 32 00
        E 0 85 36 00
        E 48 95 34 6b
        E 120 95 37 64
        E 115 95 3c 62
        E 124 95 40 5c
        E 121 95 43 4f
        E 116 95 48 44
        E 120 95 4c 42
        E 123 95 4f 3f
        E 121 95 54 3f
        E 116 95 4f 3f
        E 121 95 4c 3f
        E 121 95 48 3f
        E 121 95 43 3f
        E 121 95 40 3f
        E 120 95 3c 3f
        E 118 95 37 3f
        E 119 95 34 3f
        E 1870 85 3c 00
        E 1 85 48 00
        E 0 85 4c 00
        E 0 85 4f 00
        E 1 85 4c 00
        E 0 85 34 00
        E 1 85 48 00
        E 0 85 37 00
        E 1 85 40 00
        E 0 85 4f 00
        E 0 85 43 00
        E 1 85 34 00
        E 0 85 37 00
        E 0 85 43 00
        E 0 85 54 00
        E 0 85 40 00
        E 0 85 3c 00
        E 44 95 34 6d
        E 123 95 37 67
        E 120 95 3c 62
        E 118 95 40 57
        E 120 95 43 4f
        E 120 95 48 48
        E 122 95 4c 44
        E 117 95 4f 42
        E 123 95 54 3f
        E 121 95 4f 3f
        E 120 95 4c 3f
        E 119 95 48 3f
        E 121 95 43 3f
        E 121 95 40 3f
        E 116 95 3c 3f
        E 121 95 37 3f
        E 123 95 34 3f
        E 1867 85 34 00
        E 0 85 4f 00
        E 1 85 40 00
        E 0 85 43 00
        E 0 85 48 00
        E 0 85 3c 00
        E 1 85 37 00
        E 1 85 37 00
        E 0 85 3c 00
        E 0 85 4c 00
        E 0 85 54 00
        E 0 85 48 00
        E 1 85 4f 00
        E 0 85 4c 00
        E 0 85 43 00
        E 1 85 40 00
        E 0 85 34 00
        E 45 95 32 74
        E 122 95 36 67
        E 116 95 3b 5a
        E 121 95 3e 53
        E 118 95 42 51
        E 122 95 47 4c
        E 118 95 4a 44
        E 122 95 4e 3f
        E 120 95 53 3f
        E 124 95 4e 3f
        E 118 95 4a 3f
        E 119 95 47 3f
        E 119 95 42 3f
        E 122 95 3e 3f
        E 117 95 3b 3f
        E 120 95 36 3f
        E 120 95 32 3f
        E 1871 85 42 00
        E 0 85 4a 00
        E 1 85 3b 00
        E 0 85 3b 00
        E 0 85 36 00
        E 0 85 32 00
        E 1 85 3e 00
        E 0 85 47 00
        E 0 85 4e 00
        E 0 85 53 00
        E 0 85 42 00
        E 1 85 32 00
        E 0 85 47 00
        E 1 85 4a 00
        E 0 85 3e 00
        E 1 85 36 00
        E 1 85 4e 00
        E 43 95 32 74
        E 120 95 36 64
        E 120 95 39 60
        E 125 95 3e 53
        E 115 95 42 51
        E 120 95 45 44
        E 125 95 4a 48
        E 115 95 4e 3f
        E 124 95 51 3f
        E 120 95 4e 3f
        E 115 95 4a 3f
        E 124 95 45 3f
        E 117 95 42 3f
        E 124 95 3e 3f
        E 121 95 39 3f
        E 119 95 36 3f
        E 118 95 32 3f
        E 1869 85 4a 00
        E 1 85 32 00
        E 0 85 36 00
        E 0 85 39 00
        E 0 85 42 00
        E 0 85 45 00
        E 0 85 4e 00
        E 0 85 42 00
        E 2 85 32 00
        E 1 85 45 00
        E 1 85 51 00
        E 0 85 4e 00
        E 0 85 3e 00
        E 0 85 36 00
        E 1 85 3e 00
        E 0 85 4a 00
        E 0 85 39 00
        E 45 95 34 6f
        E 123 95 37 6b
        E 116 95 3c 5c
        E 119 95 40 5a
        E 120 95 43 4a
        E 120 95 48 48
        E 123 95 4c 3f
        E 122 95 4f 3f
        E 118 95 54 3f
        E 118 95 4f 3f
        E 119 95 4c 3f
        E 121 95 48 3f
        E 124 95 43 3f
        E 118 95 40 3f
        E 119 95 3c 3f
        E 120 95 37 3f
        E 118 95 34 3f
        E 1872 85 40 00
        E 0 85 43 00
        E 0 85 48 00
        E 0 85 4c 00
        E 0 85 34 00
        E 1 85 3c 00
        E 0 85 4f 00
        E 0 85 48 00
        E 1 85 34 00
        E 0 85 3c 00
        E 0 85 37 00
        E 1 85 4c 00
        E 0 85 54 00
        E 0 85 40 00
        E 2 85 37 00
        E 0 85 4f 00
        E 0 85 43 00
        E 45 95 34 6f
        E 120 95 37 67
        E 122 95 3c 60
        E 120 95 40 57
        E 117 95 43 51
        E 123 95 48 4a
        E 117 95 4c 44
        E 124 95 4f 3f
        E 116 95 54 3f
        E 121 95 4f 3f
        E 119 95 4c 3f
        E 119 95 48 3f
        E 120 95 43 3f
        E 123 95 40 3f
        E 121 95 3c 3f
        E 120 95 37 3f
        E 116 95 34 3f
        E 1872 85 48 00
        E 0 85 43 00
        E 0 85 34 00
        E 1 85 43 00
        E 0 85 4c 00
        E 0 85 54 00
        E 0 85 4c 00
        E 1 85 34 00
        E 0 85 37 00
        E 0 85 4f 00
        E 1 85 40 00
        E 1 85 3c 00
        E 0 85 40 00
        E 0 85 48 00
        E 0 85 3c 00
        E 0 85 37 00
        E 1 85 4f 00
        E 46 95 32 6b
        E 121 95 36 62
        E 120 95 3b 57
        E 118 95 3e 53
        E 119 95 42 4f
        E 118 95 47 46
        E 123 95 4a 3f
        E 122 95 4e 42
        E 115 95 53 3f
        E 125 95 4e 3f
        E 115 95 4a 3f
        E 120 95 47 3f
        E 125 95 42 3f
        E 117 95 3e 3f
        E 119 95 3b 3f
        E 124 95 36 3f
        E 119 95 32 3f
        E 1868 85 47 00
        E 0 85 53 00
        E 0 85 4a 00
        E 0 85 47 00
        E 1 85 3b 00
        E 1 85 42 00
        E 0 85 3e 00
        E 1 85 3e 00
        E 0 85 4a 00
        E 1 85 32 00
        E 0 85 32 00
        E 1 85 36 00
        E 0 85 3b 00
        E 0 85 4e 00
        E 0 85 4e 00
        E 0 85 42 00
        E 0 85 36 00
        E 43 95 32 74
        E 122 95 36 6b
        E 120 95 39 5a
        E 122 95 3e 53
        E 120 95 42 4f
        E 121 95 45 44
        E 115 95 4a 3f
        E 121 95 4e 3f
        E 123 95 51 3f
        E 119 95 4e 3f
        E 119 95 4a 3f
        E 123 95 45 3f
        E 117 95 42 3f
        E 121 95 3e 3f
        E 121 95 39 3f
        E 122 95 36 3f
        E 116 95 32 3f
        E 1870 85 32 00
        E 0 85 4a 00
        E 1 85 4e 00
        E 1 85 36 00
        E 0 85 39 00
        E 0 85 4a 00
        E 0 85 42 00
        E 0 85 32 00
        E 1 85 4e 00
        E 0 85 3e 00
        E 1 85 3e 00
        E 0 85 42 00
        E 0 85 51 00
        E 0 85 39 00
        E 1 85 45 00
        E 0 85 45 00
        E 1 85 36 00
        E 42 95 34 6b
        E 124 95 37 64
        E 117 95 3c 62
        E 124 95 40 57
        E 117 95 43 4c
        E 120 95 48 44
        E 121 95 4c 44
        E 118 95 4f 3f
        E 121 95 54 3f
        E 122 95 4f 3f
        E 120 95 4c 3f
        E 117 95 48 3f
        E 124 95 43 3f
        E 117 95 40 3f
        E 121 95 3c 3f
        E 118 95 37 3f
        E 120 95 34 3f
        E 1871 85 34 00
        E 1 85 3c 00
        E 0 85 4f 00
        E 0 85 48 00
        E 0 85 37 00
        E 0 85 34 00
        E 1 85 43 00
        E 0 85 48 00
        E 0 85 54 00
        E 0 85 40 00
        E 1 85 4c 00
        E 0 85 3c 00
        E 1 85 37 00
        E 0 85 4f 00
        E 0 85 4c 00
        E 1 85 40 00
        E 0 85 43 00
        E 47 95 34 6b
        E 357 95 40 55
        E 123 95 43 53
        E 122 95 48 46
        E 477 95 4f 3f
        E 722 95 37 3f
        E 1988 85 40 00
        E 2 85 4f 00
        E 1 85 34 00
        E 0 85 43 00
        E 1 85 37 00
        E 1 85 48 00
        E 527 95 43 53
        E 838 95 47 3f
        E 2472 85 47 00
        E 2 85 43 00
        E 45 95 32 6d
        E 603 95 45 46
        E 239 95 4e 3f
        E 599 95 42 3f
        E 358 95 36 3f
        E 1992 85 36 00
        E 1 85 32 00
        E 1 85 42 00
        E 1 85 4e 00
        E 1 85 45 00
        E 47 95 34 74
        E 358 95 40 55
        E 722 95 4f 3f
        E 359 95 43 3f
        E 2351 85 40 00
        E 1 85 43 00
        E 1 85 34 00
        E 0 85 4f 00
        E 165 95 37 69
        E 122 95 3c 60
        E 359 95 48 46
        E 121 95 4c 44
        E 120 95 4f 3f
        E 238 95 4f 3f
        E 364 95 43 3f
        E 116 95 40 3f
        E 240 95 37 3f
        E 122 95 34 3f
        E 1870 85 37 00
        E 0 85 4f 00
        E 0 85 40 00
        E 0 85 37 00
        E 1 85 48 00
        E 1 85 3c 00
        E 0 85 4c 00
        E 0 85 4f 00
        E 0 85 34 00
        E 2 85 43 00
        E 0 b5 7b 00
        E 1 ff 2f 00
      >
    >
  >
  <TRACK
    NAME "Cello"
    PEAKCOL 4284186559
    VOLPAN 1.000000 0 1 -1
    MIDIOUT -1
    ISBUS 0 0
    <ITEM
      POSITION 3.005465
      LENGTH 72.101424
      NAME "Cello"
      VOLPAN 1 0 1 -1
      <SOURCE MIDI
        HASDATA 1 960 QN
        E 0 c6 2a 00
        E 3847 96 3b 72
        E 3840 86 3b 00
        E 3840 96 3c 6d
        E 3840 86 3c 00
        E 3835 96 36 72
        E 3839 96 3c 6f
        E 1 86 36 00
        E 3839 86 3c 00
        E 6 96 37 72
        E 3836 96 34 72
        E 4 86 37 00
        E 3836 86 34 00
        E 10 96 2f 6d
        E 3836 96 32 72
        E 4 86 2f 00
        E 3836 86 32 00
        E 4 96 30 6b
        E 3829 96 2b 72
        E 11 86 30 00
        E 3829 86 2b 00
        E 2 96 2f 72
        E 3840 86 2f 00
        E 1 96 2a 72
        E 3835 96 26 72
        E 5 86 2a 00
        E 3835 86 26 00
        E 9 96 28 72
        E 3840 86 28 00
        E 3 96 2a 6f
        E 3830 96 26 72
        E 10 86 2a 00
        E 3830 86 26 00
        E 8 96 28 6b
        E 3840 86 28 00
        E 7677 96 26 6f
        E 3840 86 26 00
        E 3842 96 24 6b
        E 3840 86 24 00
        E 0 b6 7b 00
        E 1 ff 2f 00
      >
    >
  >
  <TRACK
    NAME "Bass"
    PEAKCOL 4286528191
    VOLPAN 1.000000 0 1 -1
    MIDIOUT -1
    ISBUS 0 0
    <ITEM
      POSITION 0.000000
      LENGTH 75.025000
      NAME "Bass"
      VOLPAN 1 0 1 -1
      <SOURCE MIDI
        HASDATA 1 960 QN
        E 0 c7 2b 00
        E 0 97 24 7d
        E 864 87 24 00
        E 96 97 21 79
        E 864 87 21 00
        E 96 97 1f 7d
        E 864 87 1f 00
        E 96 97 23 79
        E 864 87 23 00
        E 96 97 26 7d
        E 864 87 26 00
        E 96 97 2b 79
        E 864 87 2b 00
        E 96 97 2f 7d
        E 864 87 2f 00
        E 96 97 2d 79
        E 864 87 2d 00
        E 96 97 32 7d
        E 864 87 32 00
        E 96 97 36 79
        E 864 87 36 00
        E 96 97 37 7d
        E 864 87 37 00
        E 96 97 37 79
        E 864 87 37 00
        E 96 97 37 7d
        E 864 87 37 00
        E 96 97 37 79
        E 864 87 37 00
        E 96 97 37 7d
        E 864 87 37 00
        E 96 97 37 79
        E 864 87 37 00
        E 96 97 37 7d
        E 864 87 37 00
        E 96 97 37 79
        E 864 87 37 00
        E 96 97 37 7d
        E 864 87 37 00
        E 96 97 37 79
        E 864 87 37 00
        E 96 97 32 7d
        E 864 87 32 00
        E 96 97 30 79
        E 864 87 30 00
        E 96 97 2f 7d
        E 864 87 2f 00
        E 96 97 2b 79
        E 864 87 2b 00
        E 96 97 26 7d
        E 864 87 26 00
        E 96 97 21 79
        E 864 87 21 00
        E 96 97 21 7d
        E 864 87 21 00
        E 96 97 21 79
        E 864 87 21 00
        E 96 97 24 7d
        E 864 87 24 00
        E 96 97 2a 79
        E 864 87 2a 00
        E 96 97 2b 7d
        E 864 87 2b 00
        E 96 97 26 79
        E 864 87 26 00
        E 96 97 24 7d
        E 864 87 24 00
        E 96 97 2a 79
        E 864 87 2a 00
        E 96 97 2b 7d
        E 864 87 2b 00
        E 96 97 2a 79
        E 864 87 2a 00
        E 96 97 28 7d
        E 864 87 28 00
        E 96 97 26 79
        E 864 87 26 00
        E 96 97 23 7d
        E 864 87 23 00
        E 96 97 24 79
        E 864 87 24 00
        E 96 97 26 7d
        E 864 87 26 00
        E 96 97 2a 79
        E 864 87 2a 00
        E 96 97 2d 7d
        E 864 87 2d 00
        E 96 97 2f 79
        E 864 87 2f 00
        E 96 97 30 7d
        E 864 87 30 00
        E 96 97 2d 79
        E 864 87 2d 00
        E 96 97 2b 7d
        E 864 87 2b 00
        E 96 97 28 79
        E 864 87 28 00
        E 96 97 24 7d
        E 864 87 24 00
        E 96 97 2a 79
        E 864 87 2a 00
        E 96 97 2b 7d
        E 864 87 2b 00
        E 96 97 2f 79
        E 864 87 2f 00
        E 96 97 32 7d
        E 864 87 32 00
        E 96 97 2f 79
        E 864 87 2f 00
        E 96 97 2f 7d
        E 864 87 2f 00
        E 96 97 2a 79
        E 864 87 2a 00
        E 96 97 26 7d
        E 864 87 26 00
        E 96 97 2b 79
        E 864 87 2b 00
        E 96 97 2d 7d
        E 864 87 2d 00
        E 96 97 30 79
        E 864 87 30 00
        E 96 97 30 7d
        E 864 87 30 00
        E 96 97 2d 79
        E 864 87 2d 00
        E 96 97 2b 7d
        E 864 87 2b 00
        E 96 97 2b 79
        E 864 87 2b 00
        E 96 97 30 7d
        E 864 87 30 00
        E 96 97 2f 79
        E 864 87 2f 00
        E 96 97 2b 7d
        E 864 87 2b 00
        E 96 97 26 79
        E 864 87 26 00
        E 96 97 26 7d
        E 864 87 26 00
        E 96 97 28 79
        E 864 87 28 00
        E 96 97 23 7d
        E 864 87 23 00
        E 96 97 1e 79
        E 864 87 1e 00
        E 96 97 1c 7d
        E 864 87 1c 00
        E 96 97 1c 79
        E 864 87 1c 00
        E 96 97 21 7d
        E 864 87 21 00
        E 96 97 23 79
        E 864 87 23 00
        E 96 97 24 7d
        E 864 87 24 00
        E 96 97 23 79
        E 864 87 23 00
        E 96 97 1f 7d
        E 864 87 1f 00
        E 96 97 1c 79
        E 864 87 1c 00
        E 96 97 1c 7d
        E 864 87 1c 00
        E 96 97 1c 79
        E 864 87 1c 00
        E 96 97 1f 7d
        E 864 87 1f 00
        E 96 97 1e 79
        E 864 87 1e 00
        E 96 97 1c 7d
        E 864 87 1c 00
        E 96 97 1f 79
        E 864 87 1f 00
        E 96 97 23 7d
        E 864 87 23 00
        E 96 97 1e 79
        E 864 87 1e 00
        E 96 97 1c 7d
        E 864 87 1c 00
        E 96 97 1e 79
        E 864 87 1e 00
        E 96 97 21 7d
        E 864 87 21 00
        E 96 97 21 79
        E 864 87 21 00
        E 96 97 24 7d
        E 864 87 24 00
        E 96 97 21 79
        E 864 87 21 00
        E 96 97 1f 7d
        E 864 87 1f 00
        E 96 97 1e 79
        E 864 87 1e 00
        E 96 97 24 7d
        E 864 87 24 00
        E 96 97 26 79
        E 864 87 26 00
        E 96 97 2b 7d
        E 864 87 2b 00
        E 96 97 2a 79
        E 864 87 2a 00
        E 0 b7 7b 00
        E 1 ff 2f 00
      >
    >
  >
>
