<REAPER_PROJECT 0.1 "7.0" 1700000000
  TEMPO 76.000000 4 4
  SAMPLERATE 48000 0 0
  RENDER_FILE ""
  RENDER_FMT 0 2 0
  RENDER_1X 0
  RENDER_RANGE 1 0 86.710526 0 0
  RENDER_RESAMPLE 3 0 1
  <MASTERTRACK
    VOLPAN 1 0 1 -1
    DEFCHAN 0
  >
  <TRACK
    NAME "Lead"
    PEAKCOL 4284506208
    VOLPAN 1.000000 0 1 -1
    MIDIOUT -1
    ISBUS 0 0
    <ITEM
      POSITION 0.008687
      LENGTH 76.069218
      NAME "Lead"
      VOLPAN 1 0 1 -1
      <SOURCE MIDI
        HASDATA 1 960 QN
        E 0 c0 69 00
        E 11 90 4e 7d
        E 1090 80 4e 00
        E 877 90 4a 7b
        E 930 90 4c 69
        E 61 80 4a 00
        E 1112 90 4a 5e
        E 326 80 4c 00
        E 665 80 4a 00
        E 964 90 4a 5e
        E 941 90 4c 5e
        E 50 80 4a 00
        E 842 80 4c 00
        E 1222 90 4a 5e
        E 550 80 4a 00
        E 855 90 4a 7a
        E 910 90 4c 5e
        E 81 80 4a 00
        E 525 90 4a 74
        E 345 90 4c 5e
        E 40 80 4c 00
        E 115 80 4a 00
        E 85 80 4c 00
        E 106 90 4e 5e
        E 240 80 4e 00
        E 105 90 51 5e
        E 240 80 51 00
        E 105 90 53 5e
        E 240 80 53 00
        E 105 90 56 70
        E 577 90 53 5e
        E 240 80 53 00
        E 174 80 56 00
        E 162 90 51 5e
        E 586 90 53 5e
        E 240 80 53 00
        E 66 80 51 00
        E 280 90 56 62
        E 550 80 56 00
        E 35 90 53 5e
        E 240 80 53 00
        E 345 90 51 7d
        E 1400 90 51 62
        E 599 80 51 00
        E 392 80 51 00
        E 170 90 4e 62
        E 927 90 51 70
        E 64 80 4e 00
        E 927 80 51 00
        E 165 90 4e 5e
        E 892 80 4e 00
        E 276 90 51 74
        E 225 80 51 00
        E 918 90 4e 62
        E 1090 80 4e 00
        E 70 90 4e 69
        E 250 80 4e 00
        E 929 90 4c 70
        E 235 90 4e 5e
        E 234 90 51 5e
        E 6 80 4e 00
        E 228 90 53 5e
        E 6 80 51 00
        E 229 90 56 5e
        E 5 80 53 00
        E 48 80 4c 00
        E 181 90 58 74
        E 6 80 56 00
        E 494 80 58 00
        E 661 90 56 7d
        E 991 80 56 00
        E 158 90 58 5e
        E 581 90 56 5e
        E 240 80 56 00
        E 71 80 58 00
        E 270 90 51 74
        E 408 90 53 5e
        E 240 80 53 00
        E 169 90 56 62
        E 273 80 51 00
        E 641 90 56 69
        E 185 80 56 00
        E 806 80 56 00
        E 752 90 56 7d
        E 500 80 56 00
        E 687 90 58 5e
        E 749 80 58 00
        E 399 90 5a 67
        E 450 80 5a 00
        E 722 90 58 5e
        E 225 80 58 00
        E 933 90 56 76
        E 1099 80 56 00
        E 62 90 58 60
        E 592 90 58 5e
        E 399 80 58 00
        E 592 80 58 00
        E 154 90 5a 62
        E 991 80 5a 00
        E 765 90 58 5e
        E 991 80 58 00
        E 519 90 56 5e
        E 892 80 56 00
        E 161 90 58 5e
        E 1090 80 58 00
        E 523 90 56 5e
        E 711 90 56 67
        E 280 80 56 00
        E 711 80 56 00
        E 513 90 58 69
        E 991 80 58 00
        E 732 90 56 60
        E 991 80 56 00
        E 173 90 58 5e
        E 892 80 58 00
        E 505 90 56 7d
        E 1090 80 56 00
        E 428 90 58 62
        E 500 80 58 00
        E 654 90 56 65
        E 991 80 56 00
        E 404 90 58 5e
        E 180 90 56 69
        E 179 90 51 7d
        E 61 80 56 00
        E 189 80 51 00
        E 35 90 53 5e
        E 240 80 53 00
        E 44 90 56 62
        E 63 80 58 00
        E 437 80 56 00
        E 655 90 56 5e
        E 826 90 56 5e
        E 66 80 56 00
        E 826 80 56 00
        E 50 90 56 5e
        E 1090 80 56 00
        E 47 90 56 69
        E 991 80 56 00
        E 170 90 58 67
        E 591 90 56 69
        E 400 80 58 00
        E 591 80 56 00
        E 166 90 58 72
        E 592 90 56 5e
        E 240 80 56 00
        E 159 80 58 00
        E 193 90 51 7d
        E 450 80 51 00
        E 239 90 53 5e
        E 240 80 53 00
        E 448 90 56 7d
        E 450 80 56 00
        E 494 90 56 7b
        E 1090 80 56 00
        E 59 90 58 74
        E 500 80 58 00
        E 88 90 56 5e
        E 240 80 56 00
        E 348 90 51 7d
        E 250 80 51 00
        E 320 90 53 5e
        E 240 80 53 00
        E 330 90 56 74
        E 991 80 56 00
        E 777 90 56 69
        E 450 80 56 00
        E 711 90 58 5e
        E 579 90 56 5e
        E 313 80 58 00
        E 263 90 53 5e
        E 240 80 53 00
        E 274 80 56 00
        E 62 90 51 67
        E 466 90 53 5e
        E 240 80 53 00
        E 118 80 51 00
        E 108 90 56 69
        E 802 90 56 62
        E 189 80 56 00
        E 397 90 53 62
        E 405 80 56 00
        E 586 80 53 00
        E 525 90 53 69
        E 819 90 56 67
        E 172 80 53 00
        E 819 80 56 00
        E 159 90 56 5e
        E 892 80 56 00
        E 763 90 56 5e
        E 1090 80 56 00
        E 654 90 58 7d
        E 991 80 58 00
        E 163 90 56 67
        E 991 80 56 00
        E 292 90 56 72
        E 991 80 56 00
        E 415 90 58 70
        E 217 90 56 5e
        E 675 80 58 00
        E 217 80 56 00
        E 0 b0 7b 00
        E 1 ff 2f 00
      >
    >
  >
  <TRACK
    NAME "Tanpura"
    PEAKCOL 4284506208
    VOLPAN 1.000000 0 1 -1
    MIDIOUT -1
    ISBUS 0 0
    <ITEM
      POSITION 0.000000
      LENGTH 75.889474
      NAME "Tanpura"
      VOLPAN 1 0 1 -1
      <SOURCE MIDI
        HASDATA 1 960 QN
        E 0 c1 30 00
        E 0 91 3e 02
        E 0 91 45 02
        E 92160 81 3e 00
        E 0 81 45 00
        E 0 b1 7b 00
        E 1 ff 2f 00
      >
    >
  >
  <TRACK
    NAME "Violin1"
    PEAKCOL 4284186559
    VOLPAN 1.000000 0 1 -1
    MIDIOUT -1
    ISBUS 0 0
    <ITEM
      POSITION 3.169158
      LENGTH 69.570161
      NAME "Violin1"
      VOLPAN 1 0 1 -1
      <SOURCE MIDI
        HASDATA 1 960 QN
        E 0 c2 28 00
        E 3854 92 4a 6e
        E 3840 82 4a 00
        E 3832 92 4a 76
        E 3840 82 4a 00
        E 3838 92 51 76
        E 3840 82 51 00
        E 9 92 4e 72
        E 3838 92 4a 76
        E 2 82 4e 00
        E 3838 82 4a 00
        E 0 92 4c 77
        E 3831 92 51 76
        E 9 82 4c 00
        E 3831 82 51 00
        E 9 92 53 6e
        E 3836 92 56 76
        E 4 82 53 00
        E 3836 82 56 00
        E 1 92 5a 6e
        E 3836 92 56 72
        E 4 82 5a 00
        E 3836 82 56 00
        E 4 92 53 72
        E 3838 92 56 70
        E 2 82 53 00
        E 3835 92 5a 76
        E 3 82 56 00
        E 3835 92 58 76
        E 2 82 5a 00
        E 3838 82 58 00
        E 10 92 56 72
        E 3837 92 5a 6e
        E 3 82 56 00
        E 3837 82 5a 00
        E 7681 92 53 74
        E 3840 82 53 00
        E 0 b2 7b 00
        E 1 ff 2f 00
      >
    >
  >
  <TRACK
    NAME "Strings"
    PEAKCOL 4284186559
    VOLPAN 1.000000 0 1 -1
    MIDIOUT -1
    ISBUS 0 0
    <ITEM
      POSITION 0.006471
      LENGTH 75.882841
      NAME "Strings"
      VOLPAN 1 0 1 -1
      <SOURCE MIDI
        HASDATA 1 960 QN
        E 0 c3 30 00
        E 8 93 46 3c
        E 2 93 46 3c
        E 4 93 42 3c
        E 1892 93 46 3c
        E 9 93 42 3c
        E 6 83 46 00
        E 0 83 46 00
        E 2 93 46 3c
        E 4 93 46 3c
        E 14 83 42 00
        E 1891 83 46 00
        E 2 93 46 3c
        E 5 83 42 00
        E 1 93 40 3c
        E 8 93 46 3c
        E 3 83 46 00
        E 4 83 46 00
        E 1898 83 46 00
        E 1 93 46 3c
        E 6 83 40 00
        E 1 83 46 00
        E 8 93 46 3c
        E 1920 83 46 00
        E 10 83 46 00
        E 1891 93 36 3c
        E 8 93 46 3c
        E 11 93 46 3c
        E 1 93 46 3c
        E 1 93 46 3c
        E 1891 83 46 00
        E 10 83 36 00
        E 13 83 46 00
        E 5 83 46 00
        E 3 93 46 3c
        E 13 83 46 00
        E 1894 93 42 3f
        E 9 93 46 3c
        E 16 83 46 00
        E 1889 93 32 3c
        E 4 93 46 3c
        E 2 83 42 00
        E 4 83 46 00
        E 1 93 46 3c
        E 1897 83 46 00
        E 3 83 32 00
        E 29 83 46 00
        E 0 93 46 3c
        E 1892 93 46 3c
        E 8 93 32 3c
        E 0 93 32 3c
        E 3 93 45 3c
        E 3 93 40 43
        E 4 83 46 00
        E 0 93 46 3c
        E 1 93 32 3c
        E 0 93 46 3c
        E 1897 83 32 00
        E 12 83 46 00
        E 3 83 32 00
        E 0 83 46 00
        E 0 93 46 3c
        E 2 83 45 00
        E 0 93 46 3c
        E 1 83 40 00
        E 0 93 40 43
        E 1 93 46 3c
        E 0 93 46 3c
        E 4 83 46 00
        E 2 93 46 3c
        E 3 93 46 3c
        E 2 83 32 00
        E 1 93 46 3c
        E 1894 93 32 3c
        E 2 93 33 3c
        E 1 83 46 00
        E 3 83 46 00
        E 1 93 46 3c
        E 1 93 46 3c
        E 3 83 46 00
        E 0 93 46 3c
        E 2 83 40 00
        E 0 83 46 00
        E 0 93 3f 45
        E 5 93 46 3c
        E 1 83 46 00
        E 1 93 46 3c
        E 14 83 46 00
        E 4 83 46 00
        E 1880 83 46 00
        E 4 93 32 3c
        E 4 83 32 00
        E 1 93 46 3c
        E 1 83 46 00
        E 2 83 46 00
        E 0 93 46 3c
        E 2 93 32 3c
        E 1 83 3f 00
        E 0 93 3f 45
        E 2 93 42 3c
        E 1 93 46 3c
        E 1 83 46 00
        E 1 83 33 00
        E 1 83 46 00
        E 3 93 46 3c
        E 1885 83 32 00
        E 12 83 46 00
        E 2 93 42 3c
        E 1 83 32 00
        E 3 93 46 3c
        E 1 93 46 3c
        E 1 93 32 3c
        E 1 83 42 00
        E 5 83 3f 00
        E 0 93 4a 48
        E 6 93 46 3c
        E 4 93 46 3c
        E 1 83 46 00
        E 3 93 46 3c
        E 2 83 46 00
        E 4 83 46 00
        E 1881 83 32 00
        E 7 83 46 00
        E 2 93 46 3c
        E 2 83 42 00
        E 1 93 46 3c
        E 4 93 46 3c
        E 1 83 46 00
        E 0 93 46 3c
        E 0 93 46 3c
        E 1 93 46 3c
        E 1 83 4a 00
        E 0 93 3e 4a
        E 6 93 42 3c
        E 5 83 46 00
        E 4 83 46 00
        E 3 83 46 00
        E 1878 83 46 00
        E 3 83 46 00
        E 5 83 46 00
        E 5 93 32 3c
        E 3 93 45 3c
        E 3 83 46 00
        E 1 93 46 3c
        E 4 83 3e 00
        E 0 93 3e 4c
        E 3 83 46 00
        E 6 93 42 3c
        E 0 93 46 3c
        E 2 83 46 00
        E 1 93 46 3c
        E 2 93 46 3c
        E 10 83 42 00
        E 1868 83 32 00
        E 12 83 45 00
        E 2 93 42 3c
        E 8 83 46 00
        E 0 93 32 3c
        E 1 83 46 00
        E 3 93 32 3c
        E 2 83 3e 00
        E 0 93 4a 4c
        E 3 83 46 00
        E 1 93 46 3c
        E 7 93 46 3c
        E 3 93 46 3c
        E 0 93 46 3c
        E 7 83 46 00
        E 5 83 42 00
        E 1880 83 46 00
        E 2 93 46 3c
        E 1 83 32 00
        E 0 93 46 3c
        E 1 93 46 3c
        E 2 83 32 00
        E 3 93 46 3c
        E 5 83 4a 00
        E 0 93 3d 4e
        E 0 93 46 3c
        E 1 83 46 00
        E 3 83 42 00
        E 1 83 46 00
        E 1 93 42 3c
        E 0 93 46 3c
        E 21 83 46 00
        E 1866 83 46 00
        E 12 83 46 00
        E 6 93 46 3c
        E 1 93 46 3c
        E 3 83 46 00
        E 0 93 46 3c
        E 1 83 46 00
        E 4 83 3d 00
        E 0 93 3d 51
        E 2 83 42 00
        E 4 93 32 3c
        E 1 83 46 00
        E 0 93 32 3c
        E 2 93 46 3c
        E 3 93 42 3c
        E 6 83 46 00
        E 1893 93 46 3c
        E 2 83 46 00
        E 0 83 46 00
        E 4 93 46 3c
        E 1 93 46 3c
        E 2 83 3d 00
        E 0 93 3b 51
        E 3 83 32 00
        E 3 83 46 00
        E 0 93 46 3c
        E 1 93 46 3c
        E 2 93 46 3c
        E 0 93 42 3c
        E 10 83 46 00
        E 5 83 32 00
        E 7 83 42 00
        E 1865 83 46 00
        E 6 83 46 00
        E 1 83 46 00
        E 3 93 46 3c
        E 2 93 46 3c
        E 0 93 46 3c
        E 8 93 46 3c
        E 2 83 46 00
        E 2 83 3b 00
        E 0 93 3b 53
        E 1 83 42 00
        E 0 93 42 3c
        E 0 93 46 3c
        E 11 93 46 3c
        E 2 83 46 00
        E 5 83 46 00
        E 1883 83 46 00
        E 6 83 46 00
        E 0 83 46 00
        E 1 93 46 3c
        E 1 93 32 3c
        E 2 83 46 00
        E 1 83 46 00
        E 0 93 32 3c
        E 3 93 32 3c
        E 0 93 46 3c
        E 2 93 3e 3c
        E 2 83 3b 00
        E 0 93 39 55
        E 7 93 45 3c
        E 12 83 42 00
        E 0 83 46 00
        E 1872 83 46 00
        E 7 83 32 00
        E 8 83 32 00
        E 4 83 46 00
        E 3 83 45 00
        E 3 83 32 00
        E 0 83 3e 00
        E 0 93 46 3c
        E 0 93 46 3c
        E 4 83 39 00
        E 0 93 39 55
        E 6 93 3e 3c
        E 1 93 46 3c
        E 3 93 3e 3c
        E 3 93 32 3c
        E 1 93 42 3c
        E 1897 83 3e 00
        E 2 93 45 3c
        E 1 93 46 3c
        E 3 83 32 00
        E 0 93 32 3c
        E 2 93 46 3c
        E 1 83 39 00
        E 0 93 39 55
        E 1 83 46 00
        E 1 93 32 3c
        E 4 93 32 3c
        E 2 93 46 3c
        E 1 83 3e 00
        E 1 83 46 00
        E 1 83 46 00
        E 11 83 42 00
        E 1876 83 45 00
        E 8 83 46 00
        E 0 93 46 3c
        E 2 93 46 3c
        E 5 83 32 00
        E 3 83 32 00
        E 4 83 39 00
        E 0 93 39 55
        E 0 93 46 3c
        E 3 93 45 3c
        E 1 83 46 00
        E 0 93 32 3c
        E 3 93 46 3c
        E 1 83 46 00
        E 4 93 42 3c
        E 3 83 32 00
        E 1894 83 32 00
        E 3 83 45 00
        E 1 83 46 00
        E 1 83 46 00
        E 4 93 32 3c
        E 2 83 39 00
        E 0 93 39 53
        E 3 83 42 00
        E 0 93 3d 3c
        E 0 93 46 3c
        E 4 93 46 3c
        E 2 93 46 3c
        E 2 93 46 3c
        E 1 83 46 00
        E 1 93 46 3c
        E 3 83 46 00
        E 1893 93 46 3c
        E 4 83 32 00
        E 3 93 46 3c
        E 2 83 46 00
        E 2 83 39 00
        E 0 93 39 51
        E 2 93 45 3c
        E 1 93 3d 3c
        E 1 83 46 00
        E 4 83 46 00
        E 0 93 46 3c
        E 1 93 32 3c
        E 2 93 46 3c
        E 1 83 46 00
        E 3 83 46 00
        E 3 83 3d 00
        E 1887 83 46 00
        E 3 83 3d 00
        E 3 93 46 3c
        E 1 93 46 3c
        E 3 93 46 3c
        E 5 83 39 00
        E 0 93 3b 51
        E 2 93 46 3c
        E 2 93 46 3c
        E 4 83 46 00
        E 2 93 42 3c
        E 1 93 46 3c
        E 1 83 46 00
        E 4 83 32 00
        E 1 83 45 00
        E 8 83 46 00
        E 1873 83 46 00
        E 7 83 46 00
        E 3 93 46 3c
        E 3 93 46 3c
        E 3 93 46 3c
        E 3 93 46 3c
        E 1 83 46 00
        E 2 83 3b 00
        E 0 93 46 3c
        E 0 93 3b 4e
        E 5 83 46 00
        E 2 93 42 3c
        E 2 93 46 3c
        E 4 83 42 00
        E 5 83 46 00
        E 11 83 46 00
        E 1867 83 46 00
        E 11 93 46 3c
        E 2 83 46 00
        E 1 93 46 3c
        E 4 93 46 3c
        E 1 83 46 00
        E 0 83 46 00
        E 1 83 46 00
        E 0 93 32 3c
        E 1 93 42 3c
        E 2 93 46 3c
        E 1 83 3b 00
        E 0 93 39 4c
        E 12 93 46 3c
        E 2 83 46 00
        E 12 83 42 00
        E 1874 83 32 00
        E 8 83 46 00
        E 2 93 3e 3c
        E 4 83 42 00
        E 0 93 46 3c
        E 6 83 46 00
        E 0 83 39 00
        E 0 93 39 4c
        E 0 93 46 3c
        E 1 93 32 3c
        E 1 83 46 00
        E 1 93 3e 3c
        E 3 93 45 3c
        E 2 83 46 00
        E 0 93 46 3c
        E 21 83 46 00
        E 1877 93 32 3c
        E 2 83 45 00
        E 2 83 46 00
        E 2 93 46 3c
        E 2 93 42 3c
        E 2 83 32 00
        E 2 83 46 00
        E 2 83 39 00
        E 0 93 39 4a
        E 1 93 46 3c
        E 1 93 46 3c
        E 2 93 46 3c
        E 1 83 3e 00
        E 2 83 46 00
        E 7 83 3e 00
        E 0 93 46 3c
        E 1882 83 32 00
        E 6 83 46 00
        E 6 83 42 00
        E 2 83 46 00
        E 1 93 46 3c
        E 7 93 46 3c
        E 2 83 39 00
        E 0 93 39 48
        E 1 93 3e 3c
        E 2 93 46 3c
        E 1 93 45 3c
        E 3 83 46 00
        E 1 93 46 3c
        E 2 93 46 3c
        E 7 83 46 00
        E 1 83 46 00
        E 1888 83 3e 00
        E 1 93 45 3c
        E 1 83 46 00
        E 10 93 46 3c
        E 1 93 46 3c
        E 1 83 39 00
        E 0 93 40 3c
        E 0 93 39 45
        E 3 93 46 3c
        E 2 83 46 00
        E 0 83 46 00
        E 1 93 40 3c
        E 0 93 45 3c
        E 7 83 45 00
        E 11 83 46 00
        E 4 83 46 00
        E 1864 83 45 00
        E 16 93 46 3c
        E 1 93 46 3c
        E 1 83 46 00
        E 5 93 46 3c
        E 2 93 45 3c
        E 1 93 46 3c
        E 1 83 46 00
        E 1 83 39 00
        E 0 93 45 3c
        E 0 93 39 45
        E 1 83 40 00
        E 3 83 40 00
        E 2 83 45 00
        E 5 83 46 00
        E 2 93 46 3c
        E 1886 83 46 00
        E 2 83 46 00
        E 7 83 46 00
        E 3 93 46 3c
        E 0 93 46 3c
        E 4 93 46 3c
        E 0 93 32 3c
        E 2 83 46 00
        E 1 93 46 3c
        E 2 83 39 00
        E 0 93 3b 43
        E 2 83 45 00
        E 1 83 45 00
        E 5 93 32 3c
        E 2 83 46 00
        E 1 93 32 3c
        E 1884 83 46 00
        E 8 83 46 00
        E 1 83 46 00
        E 3 93 46 3c
        E 1 93 46 3c
        E 5 83 32 00
        E 1 83 32 00
        E 2 83 32 00
        E 1 93 46 3c
        E 3 83 3b 00
        E 0 93 3b 43
        E 1 93 42 3c
        E 6 93 32 3c
        E 1 83 46 00
        E 0 93 46 3c
        E 1 93 46 3c
        E 1889 83 46 00
        E 5 83 46 00
        E 9 83 46 00
        E 0 93 46 3c
        E 4 93 32 3c
        E 3 93 3e 3c
        E 1 83 3b 00
        E 0 93 39 41
        E 1 83 46 00
        E 1 83 42 00
        E 0 93 46 3c
        E 1 93 46 3c
        E 1 83 46 00
        E 1 83 32 00
        E 2 93 42 3c
        E 3 93 46 3c
        E 1910 83 39 00
        E 6 83 32 00
        E 2 83 46 00
        E 1 83 46 00
        E 1 83 46 00
        E 0 83 42 00
        E 0 93 46 3c
        E 1 83 3e 00
        E 16 83 46 00
        E 1882 93 45 3c
        E 11 93 39 3f
        E 2 93 46 3c
        E 1 83 46 00
        E 11 93 3e 3c
        E 1878 83 45 00
        E 28 83 39 00
        E 6 83 3e 00
        E 1 93 45 3c
        E 5 83 46 00
        E 1896 83 45 00
        E 6 93 3d 3c
        E 1919 93 46 3c
        E 9 93 3d 3c
        E 8 83 3d 00
        E 1907 83 3d 00
        E 3 93 46 3c
        E 4 93 46 3c
        E 8 83 46 00
        E 1906 93 46 3c
        E 1 83 46 00
        E 5 83 46 00
        E 5 93 46 3c
        E 1902 83 46 00
        E 5 83 46 00
        E 4 93 39 3c
        E 3 93 46 3c
        E 1907 93 3e 3c
        E 10 83 39 00
        E 8 93 46 3c
        E 6 83 46 00
        E 1882 83 3e 00
        E 24 83 46 00
        E 0 b3 7b 00
        E 1 ff 2f 00
      >
    >
  >
  <TRACK
    NAME "Clarinet"
    PEAKCOL 4282040170
    VOLPAN 1.000000 0 1 -1
    MIDIOUT -1
    ISBUS 0 0
    <ITEM
      POSITION 3.162222
      LENGTH 60.105121
      NAME "Clarinet"
      VOLPAN 1 0 1 -1
      <SOURCE MIDI
        HASDATA 1 960 QN
        E 0 c4 47 00
        E 3845 94 4a 6e
        E 3840 84 4a 00
        E 7685 94 45 6e
        E 3840 84 45 00
        E 3839 94 42 6e
        E 3836 94 40 6e
        E 4 84 42 00
        E 3836 84 40 00
        E 3842 94 42 6e
        E 3833 94 45 6e
        E 7 84 42 00
        E 3833 84 45 00
        E 3842 94 45 6e
        E 3839 94 45 6e
        E 1 84 45 00
        E 3839 84 45 00
        E 3840 94 45 6e
        E 3840 84 45 00
        E 8 94 42 6e
        E 3840 84 42 00
        E 3834 94 42 6e
        E 3840 84 42 00
        E 8 94 3e 6e
        E 3840 84 3e 00
        E 0 b4 7b 00
        E 1 ff 2f 00
      >
    >
  >
  <TRACK
    NAME "Counter"
    PEAKCOL 4284506208
    VOLPAN 1.000000 0 1 -1
    MIDIOUT -1
    ISBUS 0 0
    <ITEM
      POSITION 0.000000
      LENGTH 75.826316
      NAME "Counter"
      VOLPAN 1 0 1 -1
      <SOURCE MIDI
        HASDATA 1 960 QN
        E 0 c5 28 00
        E 0 95 4a 59
        E 3763 85 4a 00
        E 7757 95 4a 59
        E 3763 85 4a 00
        E 77 95 4a 59
        E 3763 85 4a 00
        E 3917 95 3f 60
        E 3763 85 3f 00
        E 3917 95 3e 60
        E 0 95 4a 59
        E 3763 85 3e 00
        E 0 85 4a 00
        E 77 95 3d 60
        E 0 95 49 59
        E 3763 85 3d 00
        E 0 85 49 00
        E 77 95 3f 60
        E 0 95 4b 59
        E 3763 85 3f 00
        E 0 85 4b 00
        E 77 95 3e 60
        E 0 95 4a 59
        E 3763 85 3e 00
        E 0 85 4a 00
        E 77 95 3e 60
        E 0 95 4a 59
        E 3763 85 3e 00
        E 0 85 4a 00
        E 77 95 3d 60
        E 0 95 49 59
        E 3763 85 3d 00
        E 0 85 49 00
        E 77 95 3f 60
        E 0 95 4b 59
        E 3763 85 3f 00
        E 0 85 4b 00
        E 77 95 3e 60
        E 0 95 4a 59
        E 3763 85 3e 00
        E 0 85 4a 00
        E 77 95 3e 60
        E 0 95 4a 59
        E 3763 85 3e 00
        E 0 85 4a 00
        E 77 95 3d 60
        E 0 95 49 59
        E 3763 85 3d 00
        E 0 85 49 00
        E 3917 95 4a 59
        E 3763 85 4a 00
        E 11597 95 3e 60
        E 0 95 4a 59
        E 3763 85 3e 00
        E 0 85 4a 00
        E 0 b5 7b 00
        E 1 ff 2f 00
      >
    >
  >
  <TRACK
    NAME "Glock"
    PEAKCOL 4290756410
    VOLPAN 1.000000 0 1 -1
    MIDIOUT -1
    ISBUS 0 0
    <ITEM
      POSITION 10.263158
      LENGTH 74.547368
      NAME "Glock"
      VOLPAN 1 0 1 -1
      <SOURCE MIDI
        HASDATA 1 960 QN
        E 0 c6 09 00
        E 12480 96 68 67
        E 288 86 68 00
        E 1632 96 68 67
        E 288 86 68 00
        E 4512 96 68 67
        E 288 86 68 00
        E 672 96 68 67
        E 288 86 68 00
        E 672 96 68 67
        E 288 86 68 00
        E 672 96 68 67
        E 288 86 68 00
        E 672 96 68 67
        E 288 86 68 00
        E 672 96 68 67
        E 288 86 68 00
        E 672 96 68 67
        E 288 86 68 00
        E 672 96 68 67
        E 288 86 68 00
        E 4512 96 68 67
        E 288 86 68 00
        E 672 96 68 67
        E 288 86 68 00
        E 672 96 68 67
        E 288 86 68 00
        E 672 96 68 67
        E 288 86 68 00
        E 672 96 68 67
        E 288 86 68 00
        E 672 96 68 67
        E 288 86 68 00
        E 672 96 68 67
        E 288 86 68 00
        E 672 96 68 67
        E 288 86 68 00
        E 4512 96 68 67
        E 288 86 68 00
        E 672 96 68 67
        E 288 86 68 00
        E 672 96 68 67
        E 288 86 68 00
        E 672 96 68 67
        E 288 86 68 00
        E 672 96 68 67
        E 288 86 68 00
        E 672 96 68 67
        E 288 86 68 00
        E 672 96 68 67
        E 288 86 68 00
        E 672 96 68 67
        E 288 86 68 00
        E 672 96 68 67
        E 288 86 68 00
        E 672 96 68 67
        E 288 86 68 00
        E 672 96 68 67
        E 288 86 68 00
        E 672 96 68 67
        E 288 86 68 00
        E 4512 96 68 67
        E 288 86 68 00
        E 672 96 68 67
        E 288 86 68 00
        E 672 96 68 67
        E 288 86 68 00
        E 672 96 68 67
        E 288 86 68 00
        E 672 96 68 67
        E 288 86 68 00
        E 672 96 68 67
        E 288 86 68 00
        E 672 96 68 67
        E 288 86 68 00
        E 672 96 68 67
        E 288 86 68 00
        E 4512 96 68 67
        E 288 86 68 00
        E 672 96 68 67
        E 288 86 68 00
        E 672 96 68 67
        E 288 86 68 00
        E 672 96 68 67
        E 288 86 68 00
        E 672 96 68 67
        E 288 86 68 00
        E 7392 96 68 67
        E 288 86 68 00
        E 1632 96 68 67
        E 288 86 68 00
        E 672 96 68 67
        E 288 86 68 00
        E 1632 96 68 67
        E 288 86 68 00
        E 672 96 68 67
        E 288 86 68 00
        E 2592 96 68 67
        E 288 86 68 00
        E 6432 96 68 67
        E 288 86 68 00
        E 3552 96 68 67
        E 288 86 68 00
        E 2592 96 68 67
        E 288 86 68 00
        E 0 b6 7b 00
        E 1 ff 2f 00
      >
    >
  >
  <TRACK
    NAME "Bass"
    PEAKCOL 4286528191
    VOLPAN 1.000000 0 1 -1
    MIDIOUT -1
    ISBUS 0 0
    <ITEM
      POSITION 0.005636
      LENGTH 75.887846
      NAME "Bass"
      VOLPAN 1 0 1 -1
      <SOURCE MIDI
        HASDATA 1 960 QN
        E 0 c7 2b 00
        E 7 97 26 7c
        E 3840 87 26 00
        E 0 97 26 7c
        E 3839 97 26 7c
        E 1 87 26 00
        E 3839 87 26 00
        E 0 97 21 7c
        E 3839 97 26 7c
        E 1 87 21 00
        E 3839 87 26 00
        E 2 97 26 7c
        E 3840 87 26 00
        E 2 97 26 7c
        E 3838 97 26 7c
        E 2 87 26 00
        E 3832 97 26 7c
        E 6 87 26 00
        E 3834 87 26 00
        E 0 97 26 7c
        E 3840 87 26 00
        E 3 97 26 7c
        E 3836 97 26 7c
        E 4 87 26 00
        E 3836 87 26 00
        E 5 97 21 7c
        E 3835 97 26 7c
        E 5 87 21 00
        E 3835 87 26 00
        E 8 97 26 7c
        E 3838 97 26 7c
        E 2 87 26 00
        E 3833 97 26 7c
        E 5 87 26 00
        E 3835 87 26 00
        E 8 97 26 7c
        E 3831 97 23 7c
        E 9 87 26 00
        E 3831 87 23 00
        E 0 97 26 7c
        E 3840 87 26 00
        E 8 97 21 7c
        E 3838 97 26 7c
        E 2 87 21 00
        E 3838 87 26 00
        E 1 97 26 7c
        E 3838 97 26 7c
        E 2 87 26 00
        E 3838 87 26 00
        E 0 b7 7b 00
        E 1 ff 2f 00
      >
    >
  >
>
