<REAPER_PROJECT 0.1 "7.0" 1700000000
  TEMPO 72.000000 4 4
  SAMPLERATE 48000 0 0
  RENDER_FILE ""
  RENDER_FMT 0 2 0
  RENDER_1X 0
  RENDER_RANGE 1 0 88.677554 0 0
  RENDER_RESAMPLE 3 0 1
  <MASTERTRACK
    VOLPAN 1 0 1 -1
    DEFCHAN 0
  >
  <TRACK
    NAME "Lead"
    PEAKCOL 4284506208
    VOLPAN 1.000000 0 1 -1
    MIDIOUT -1
    ISBUS 0 0
    <ITEM
      POSITION 0.006705
      LENGTH 86.469486
      NAME "Lead"
      VOLPAN 1 0 1 -1
      <SOURCE MIDI
        HASDATA 1 960 QN
        E 0 c0 69 00
        E 8 90 4d 7b
        E 1090 80 4d 00
        E 58 90 4c 5e
        E 1090 80 4c 00
        E 89 90 4d 75
        E 574 90 4f 69
        E 175 80 4d 00
        E 574 80 4f 00
        E 399 90 4d 5e
        E 291 90 4f 5e
        E 240 80 4f 00
        E 52 90 51 5e
        E 240 80 51 00
        E 51 90 55 5e
        E 117 80 4d 00
        E 123 80 55 00
        E 51 90 56 74
        E 991 80 56 00
        E 172 90 56 5e
        E 892 80 56 00
        E 52 90 55 5e
        E 344 90 56 5e
        E 331 80 55 00
        E 561 80 56 00
        E 147 90 55 77
        E 1090 80 55 00
        E 313 90 56 6b
        E 991 80 56 00
        E 516 90 55 64
        E 991 80 55 00
        E 859 90 56 7d
        E 823 90 55 5e
        E 168 80 56 00
        E 72 80 55 00
        E 583 90 51 5e
        E 892 80 51 00
        E 270 90 51 69
        E 1090 80 51 00
        E 410 90 4d 5e
        E 823 90 4d 6b
        E 168 80 4d 00
        E 332 80 4d 00
        E 885 90 4d 5e
        E 749 80 4d 00
        E 168 90 4d 5e
        E 250 80 4d 00
        E 920 90 4d 7a
        E 892 80 4d 00
        E 989 90 4d 7b
        E 1099 80 4d 00
        E 293 90 4d 60
        E 250 80 4d 00
        E 694 90 4d 72
        E 991 80 4d 00
        E 405 90 4d 69
        E 908 90 4d 5e
        E 83 80 4d 00
        E 417 80 4d 00
        E 686 90 4f 70
        E 899 80 4f 00
        E 249 90 51 5e
        E 592 90 4f 5e
        E 498 80 51 00
        E 592 80 4f 00
        E 643 90 51 75
        E 500 80 51 00
        E 78 90 55 5e
        E 500 80 55 00
        E 658 90 51 64
        E 991 80 51 00
        E 190 90 51 5e
        E 991 80 51 00
        E 150 90 55 5e
        E 386 90 52 60
        E 64 80 55 00
        E 176 80 52 00
        E 146 90 4f 60
        E 240 80 4f 00
        E 146 90 4d 7d
        E 1649 80 4d 00
        E 214 90 4d 7d
        E 353 90 4f 5e
        E 240 80 4f 00
        E 113 90 51 5e
        E 240 80 51 00
        E 112 90 55 5e
        E 240 80 55 00
        E 113 90 56 74
        E 88 80 4d 00
        E 732 90 55 5e
        E 171 80 56 00
        E 820 80 55 00
        E 163 90 56 6d
        E 500 80 56 00
        E 1250 90 58 5e
        E 229 90 56 5e
        E 229 90 52 5e
        E 11 80 56 00
        E 206 80 58 00
        E 12 90 51 5e
        E 11 80 52 00
        E 218 90 4d 5e
        E 11 80 51 00
        E 218 90 4c 69
        E 11 80 4d 00
        E 812 90 4d 5e
        E 267 80 4c 00
        E 663 90 4f 67
        E 160 80 4d 00
        E 831 80 4f 00
        E 169 90 4f 7b
        E 749 80 4f 00
        E 423 90 51 72
        E 500 80 51 00
        E 899 90 4d 67
        E 1498 90 4d 5e
        E 501 80 4d 00
        E 391 80 4d 00
        E 505 90 4f 5e
        E 375 90 51 5e
        E 240 80 51 00
        E 135 90 52 5e
        E 74 80 4f 00
        E 166 80 52 00
        E 135 90 56 5e
        E 240 80 56 00
        E 135 90 58 67
        E 991 80 58 00
        E 741 90 62 5e
        E 608 90 58 5e
        E 383 80 62 00
        E 608 80 58 00
        E 152 90 58 62
        E 892 80 58 00
        E 289 90 56 5e
        E 288 90 55 5e
        E 240 80 55 00
        E 48 90 52 5e
        E 240 80 52 00
        E 48 90 4f 5e
        E 28 80 56 00
        E 212 80 4f 00
        E 47 90 4d 7d
        E 1090 80 4d 00
        E 639 90 4d 5e
        E 250 80 4d 00
        E 356 90 4d 64
        E 250 80 4d 00
        E 1137 90 4d 6d
        E 911 90 4d 5e
        E 80 80 4d 00
        E 911 80 4d 00
        E 170 90 4d 64
        E 892 80 4d 00
        E 1101 90 4d 77
        E 550 80 4d 00
        E 735 90 4f 5e
        E 403 90 4d 5e
        E 240 80 4d 00
        E 163 90 4a 5e
        E 185 80 4f 00
        E 806 80 4a 00
        E 167 90 4c 70
        E 500 80 4c 00
        E 669 90 4a 75
        E 641 90 4d 5e
        E 240 80 4d 00
        E 110 80 4a 00
        E 291 90 51 7b
        E 515 90 4d 5e
        E 240 80 4d 00
        E 137 80 51 00
        E 139 90 4a 7d
        E 586 90 4c 5e
        E 574 90 4d 5e
        E 240 80 4d 00
        E 249 80 4a 00
        E 27 80 4c 00
        E 59 90 51 5e
        E 991 80 51 00
        E 182 90 4d 7b
        E 991 80 4d 00
        E 184 90 4f 6d
        E 559 90 4f 5e
        E 190 80 4f 00
        E 60 80 4f 00
        E 1167 90 51 5e
        E 907 90 4d 5e
        E 92 80 51 00
        E 358 80 4d 00
        E 834 90 4d 5e
        E 824 80 4d 00
        E 230 90 4c 5e
        E 763 90 4d 5e
        E 228 80 4c 00
        E 12 80 4d 00
        E 524 90 51 5e
        E 795 90 4f 6d
        E 196 80 51 00
        E 795 80 4f 00
        E 415 90 51 64
        E 913 90 52 64
        E 78 80 51 00
        E 597 80 52 00
        E 489 90 56 5e
        E 450 80 56 00
        E 670 90 55 69
        E 240 80 55 00
        E 881 90 51 7d
        E 809 90 52 5e
        E 240 80 52 00
        E 568 90 56 64
        E 250 80 56 00
        E 132 80 51 00
        E 779 90 55 7a
        E 991 80 55 00
        E 177 90 58 5e
        E 250 80 58 00
        E 909 90 56 69
        E 225 80 56 00
        E 0 b0 7b 00
        E 1 ff 2f 00
      >
    >
  >
  <TRACK
    NAME "Tanpura"
    PEAKCOL 4284506208
    VOLPAN 1.000000 0 1 -1
    MIDIOUT -1
    ISBUS 0 0
    <ITEM
      POSITION 0.000000
      LENGTH 86.766667
      NAME "Tanpura"
      VOLPAN 1 0 1 -1
      <SOURCE MIDI
        HASDATA 1 960 QN
        E 0 c1 30 00
        E 0 91 3e 02
        E 0 91 45 02
        E 99840 81 3e 00
        E 0 81 45 00
        E 0 b1 7b 00
        E 1 ff 2f 00
      >
    >
  >
  <TRACK
    NAME "Tanpura2"
    PEAKCOL 4284506208
    VOLPAN 1.000000 0 1 -1
    MIDIOUT -1
    ISBUS 0 0
    <ITEM
      POSITION 0.000000
      LENGTH 86.766667
      NAME "Tanpura2"
      VOLPAN 1 0 1 -1
      <SOURCE MIDI
        HASDATA 1 960 QN
        E 0 c2 30 00
        E 0 92 3e 47
        E 0 92 4a 47
        E 99840 82 3e 00
        E 0 82 4a 00
        E 0 b2 7b 00
        E 1 ff 2f 00
      >
    >
  >
  <TRACK
    NAME "Choir"
    PEAKCOL 4284506208
    VOLPAN 1.000000 0 1 -1
    MIDIOUT -1
    ISBUS 0 0
    <ITEM
      POSITION 0.006412
      LENGTH 86.506857
      NAME "Choir"
      VOLPAN 1 0 1 -1
      <SOURCE MIDI
        HASDATA 1 960 QN
        E 0 c3 34 00
        E 7 93 41 74
        E 9 93 32 6b
        E 3524 83 41 00
        E 9 83 32 00
        E 308 93 32 6b
        E 3533 83 32 00
        E 304 93 43 6d
        E 6 93 3a 74
        E 3527 83 43 00
        E 6 83 3a 00
        E 294 93 3e 70
        E 1 93 41 72
        E 3532 83 3e 00
        E 1 83 41 00
        E 306 93 3e 74
        E 16 93 32 6d
        E 3517 83 3e 00
        E 16 83 32 00
        E 314 93 32 70
        E 3533 83 32 00
        E 279 93 40 74
        E 5 93 43 72
        E 7 93 3a 72
        E 8 93 34 72
        E 3513 83 40 00
        E 5 83 43 00
        E 7 83 3a 00
        E 8 83 34 00
        E 292 93 3e 6b
        E 4 93 39 70
        E 2 93 41 6b
        E 17 93 32 72
        E 3510 83 3e 00
        E 4 83 39 00
        E 2 83 41 00
        E 17 83 32 00
        E 282 93 3e 6b
        E 9 93 41 74
        E 1 93 32 74
        E 5 93 39 6b
        E 3518 83 3e 00
        E 9 83 41 00
        E 1 83 32 00
        E 5 83 39 00
        E 295 93 3d 74
        E 3 93 39 72
        E 2 93 40 6b
        E 2 93 32 6b
        E 3526 83 3d 00
        E 3 83 39 00
        E 2 83 40 00
        E 2 83 32 00
        E 293 93 3e 6b
        E 7 93 41 72
        E 6 93 3a 6b
        E 12 93 32 70
        E 3508 83 3e 00
        E 7 83 41 00
        E 6 83 3a 00
        E 12 83 32 00
        E 286 93 3e 6b
        E 5 93 39 6b
        E 2 93 41 74
        E 14 93 32 74
        E 3512 83 3e 00
        E 5 83 39 00
        E 2 83 41 00
        E 14 83 32 00
        E 290 93 3e 6d
        E 4 93 41 6b
        E 8 93 39 74
        E 9 93 32 74
        E 3512 83 3e 00
        E 4 83 41 00
        E 8 83 39 00
        E 9 83 32 00
        E 281 93 3e 74
        E 4 93 41 6b
        E 12 93 3a 74
        E 1 93 32 6b
        E 3516 83 3e 00
        E 4 83 41 00
        E 12 83 3a 00
        E 1 83 32 00
        E 294 93 40 72
        E 5 93 43 6b
        E 0 93 3a 74
        E 17 93 34 72
        E 3511 83 40 00
        E 5 83 43 00
        E 0 83 3a 00
        E 17 83 34 00
        E 281 93 3e 72
        E 1 93 41 70
        E 11 93 39 74
        E 3 93 32 6d
        E 3518 83 3e 00
        E 1 83 41 00
        E 11 83 39 00
        E 3 83 32 00
        E 289 93 3e 74
        E 6 93 41 72
        E 8 93 39 6b
        E 9 93 32 74
        E 3510 83 3e 00
        E 6 83 41 00
        E 8 83 39 00
        E 9 83 32 00
        E 289 93 41 70
        E 1 93 3e 72
        E 5 93 3a 74
        E 4 93 32 6b
        E 3523 83 41 00
        E 1 83 3e 00
        E 5 83 3a 00
        E 4 83 32 00
        E 296 93 40 6d
        E 5 93 43 6b
        E 9 93 34 6b
        E 2 93 3a 6b
        E 3517 83 40 00
        E 5 83 43 00
        E 9 83 34 00
        E 2 83 3a 00
        E 291 93 3e 74
        E 6 93 41 6b
        E 10 93 39 6b
        E 9 93 32 6b
        E 3508 83 3e 00
        E 6 83 41 00
        E 10 83 39 00
        E 9 83 32 00
        E 281 93 3e 74
        E 3 93 41 6d
        E 6 93 39 6b
        E 2 93 32 72
        E 3522 83 3e 00
        E 3 83 41 00
        E 6 83 39 00
        E 2 83 32 00
        E 307 93 39 74
        E 6 93 32 6d
        E 3527 83 39 00
        E 6 83 32 00
        E 11817 93 41 74
        E 4 93 3a 6b
        E 3529 83 41 00
        E 4 83 3a 00
        E 0 b3 7b 00
        E 1 ff 2f 00
      >
    >
  >
  <TRACK
    NAME "Strings"
    PEAKCOL 4284186559
    VOLPAN 1.000000 0 1 -1
    MIDIOUT -1
    ISBUS 0 0
    <ITEM
      POSITION 0.005002
      LENGTH 86.772552
      NAME "Strings"
      VOLPAN 1 0 1 -1
      <SOURCE MIDI
        HASDATA 1 960 QN
        E 0 c4 30 00
        E 6 94 41 3a
        E 5 94 46 3a
        E 0 94 46 3a
        E 1909 94 46 3a
        E 10 84 41 00
        E 2 94 45 3a
        E 1 84 46 00
        E 0 94 46 3a
        E 1 94 46 3a
        E 1 84 46 00
        E 1905 94 3e 3a
        E 1 94 46 3a
        E 6 94 32 3a
        E 10 84 46 00
        E 2 84 45 00
        E 4 84 46 00
        E 9 84 46 00
        E 1876 94 46 3a
        E 12 84 3e 00
        E 1 94 46 3a
        E 7 84 46 00
        E 16 84 32 00
        E 1897 84 46 00
        E 5 84 46 00
        E 1906 94 46 3a
        E 0 94 46 3a
        E 2 94 46 3a
        E 7 94 34 3a
        E 2 94 46 3a
        E 1907 84 34 00
        E 0 94 46 3a
        E 7 84 46 00
        E 0 84 46 00
        E 1 84 46 00
        E 17 84 46 00
        E 1891 94 46 3a
        E 14 94 3e 3c
        E 8 84 46 00
        E 1900 94 46 3a
        E 4 84 46 00
        E 8 84 3e 00
        E 2 94 46 3a
        E 3 94 32 3a
        E 1903 84 32 00
        E 0 94 46 3a
        E 18 84 46 00
        E 7 84 46 00
        E 1904 94 46 3a
        E 5 84 46 00
        E 1906 94 32 3a
        E 5 94 46 3a
        E 4 84 46 00
        E 3 94 3e 43
        E 2 94 46 3a
        E 4 94 46 3a
        E 1 94 32 3a
        E 2 94 41 3a
        E 4 94 46 3a
        E 1895 84 32 00
        E 7 84 46 00
        E 1 94 43 3a
        E 1 94 46 3a
        E 3 84 3e 00
        E 0 94 40 43
        E 2 84 46 00
        E 0 94 46 3a
        E 5 84 32 00
        E 1 94 46 3a
        E 1 94 32 3a
        E 0 94 32 3a
        E 0 94 46 3a
        E 11 84 46 00
        E 0 84 46 00
        E 2 84 41 00
        E 1895 94 46 3a
        E 3 84 40 00
        E 0 94 40 45
        E 1 84 46 00
        E 2 84 32 00
        E 1 94 46 3a
        E 1 94 46 3a
        E 0 94 46 3a
        E 1 84 43 00
        E 1 84 32 00
        E 0 94 46 3a
        E 6 84 46 00
        E 1 94 46 3a
        E 0 94 46 3a
        E 4 84 46 00
        E 4 84 46 00
        E 1885 94 46 3a
        E 3 84 46 00
        E 1 94 45 3a
        E 2 84 46 00
        E 7 84 40 00
        E 0 94 41 45
        E 1 94 46 3a
        E 1 84 46 00
        E 2 84 46 00
        E 2 94 32 3a
        E 1 94 46 3a
        E 2 94 46 3a
        E 4 94 46 3a
        E 3 84 46 00
        E 7 84 46 00
        E 6 84 46 00
        E 1863 84 46 00
        E 13 84 45 00
        E 1 84 46 00
        E 3 94 46 3a
        E 1 84 46 00
        E 1 94 32 3a
        E 1 94 32 3a
        E 4 84 46 00
        E 2 84 32 00
        E 0 94 32 3a
        E 2 84 41 00
        E 0 84 46 00
        E 0 94 41 47
        E 6 94 46 3a
        E 0 94 32 3a
        E 4 94 46 3a
        E 1891 84 32 00
        E 6 84 46 00
        E 4 94 46 3a
        E 0 94 46 3a
        E 6 94 46 3a
        E 0 94 46 3a
        E 1 84 32 00
        E 2 84 41 00
        E 0 94 41 4a
        E 1 94 46 3a
        E 7 94 45 3a
        E 2 84 32 00
        E 3 94 45 3a
        E 3 84 46 00
        E 2 84 32 00
        E 4 84 46 00
        E 1881 84 46 00
        E 5 84 46 00
        E 1 94 32 3a
        E 1 84 45 00
        E 1 84 46 00
        E 0 94 46 3a
        E 1 84 46 00
        E 8 84 41 00
        E 0 94 46 3a
        E 0 94 41 4c
        E 6 94 46 3a
        E 1 84 46 00
        E 1 94 46 3a
        E 0 94 46 3a
        E 6 94 46 3a
        E 4 84 45 00
        E 1876 84 46 00
        E 15 84 46 00
        E 0 84 46 00
        E 0 94 46 3a
        E 2 94 46 3a
        E 2 94 46 3a
        E 3 94 46 3a
        E 4 84 41 00
        E 0 94 40 4c
        E 2 84 32 00
        E 0 94 46 3a
        E 1 84 46 00
        E 3 84 46 00
        E 5 94 32 3a
        E 1 94 46 3a
        E 14 84 46 00
        E 1868 84 46 00
        E 11 84 46 00
        E 4 94 45 3a
        E 4 94 46 3a
        E 6 84 32 00
        E 1 84 40 00
        E 0 84 46 00
        E 0 94 40 4c
        E 1 84 46 00
        E 4 84 46 00
        E 1 84 46 00
        E 2 94 32 3a
        E 3 94 46 3a
        E 0 94 32 3a
        E 3 94 46 3a
        E 0 94 34 3a
        E 1891 84 46 00
        E 4 94 46 3a
        E 5 84 46 00
        E 1 84 32 00
        E 3 94 46 3a
        E 2 84 40 00
        E 0 94 3e 4e
        E 1 94 46 3a
        E 5 94 32 3a
        E 1 84 45 00
        E 3 94 46 3a
        E 2 94 46 3a
        E 1 84 32 00
        E 1 94 46 3a
        E 4 84 46 00
        E 5 84 34 00
        E 1890 84 46 00
        E 0 94 32 3a
        E 1 94 32 3a
        E 1 94 46 3a
        E 4 94 32 3a
        E 1 84 3e 00
        E 0 94 3e 50
        E 1 84 32 00
        E 2 84 46 00
        E 1 84 46 00
        E 1 94 46 3a
        E 2 84 46 00
        E 2 94 46 3a
        E 3 94 46 3a
        E 8 84 46 00
        E 11 84 46 00
        E 1865 84 32 00
        E 12 94 41 3a
        E 1 84 46 00
        E 1 94 46 3a
        E 2 84 32 00
        E 2 94 46 3a
        E 3 84 46 00
        E 2 84 46 00
        E 1 84 3e 00
        E 0 94 3e 53
        E 1 94 46 3a
        E 1 94 45 3a
        E 3 84 32 00
        E 1 94 46 3a
        E 2 84 46 00
        E 0 94 46 3a
        E 1898 94 46 3a
        E 5 84 41 00
        E 0 84 45 00
        E 2 84 46 00
        E 0 94 46 3a
        E 2 94 46 3a
        E 1 94 46 3a
        E 0 94 46 3a
        E 3 94 32 3a
        E 0 94 41 3a
        E 1 84 3e 00
        E 0 94 3e 53
        E 7 84 46 00
        E 4 84 46 00
        E 2 84 46 00
        E 14 84 46 00
        E 1873 84 46 00
        E 4 84 46 00
        E 0 84 46 00
        E 7 84 46 00
        E 9 84 46 00
        E 0 84 41 00
        E 0 84 3e 00
        E 0 94 3e 55
        E 3 84 32 00
        E 0 94 46 3a
        E 1 94 46 3a
        E 2 94 46 3a
        E 4 94 32 3a
        E 0 94 32 3a
        E 3 94 46 3a
        E 1 94 41 3a
        E 1898 94 46 3a
        E 2 94 46 3a
        E 3 84 46 00
        E 2 84 46 00
        E 0 84 32 00
        E 1 84 3e 00
        E 0 94 46 3a
        E 0 94 3e 55
        E 3 94 46 3a
        E 1 84 46 00
        E 1 84 46 00
        E 4 94 46 3a
        E 2 94 32 3a
        E 2 84 41 00
        E 0 94 46 3a
        E 3 84 32 00
        E 1881 84 46 00
        E 4 84 46 00
        E 7 84 46 00
        E 7 84 46 00
        E 1 94 46 3a
        E 4 84 3e 00
        E 0 94 41 3a
        E 0 94 3e 55
        E 0 94 46 3a
        E 1 84 46 00
        E 2 94 46 3a
        E 3 94 32 3a
        E 2 94 32 3a
        E 1 84 32 00
        E 0 94 46 3a
        E 8 84 46 00
        E 1888 84 46 00
        E 3 84 46 00
        E 5 94 46 3a
        E 0 94 46 3a
        E 1 84 32 00
        E 1 94 32 3a
        E 5 84 3e 00
        E 0 94 3e 55
        E 1 94 46 3a
        E 0 94 46 3a
        E 0 94 46 3a
        E 3 84 32 00
        E 10 94 41 3a
        E 2 84 46 00
        E 3 84 41 00
        E 4 84 46 00
        E 1872 84 46 00
        E 14 84 46 00
        E 0 94 46 3a
        E 2 84 46 00
        E 0 84 46 00
        E 3 84 32 00
        E 3 94 46 3a
        E 2 94 46 3a
        E 0 94 46 3a
        E 1 84 3e 00
        E 0 94 40 53
        E 0 94 34 3a
        E 3 84 46 00
        E 5 94 46 3a
        E 3 94 32 3a
        E 15 84 41 00
        E 1883 84 46 00
        E 6 84 46 00
        E 0 94 46 3a
        E 5 84 40 00
        E 0 94 40 53
        E 1 94 46 3a
        E 3 94 46 3a
        E 1 84 46 00
        E 0 84 34 00
        E 1 94 46 3a
        E 2 84 32 00
        E 0 94 46 3a
        E 1 94 46 3a
        E 1 84 46 00
        E 1 94 46 3a
        E 15 84 46 00
        E 1874 84 46 00
        E 12 94 46 3a
        E 4 94 41 3a
        E 2 94 32 3a
        E 1 84 46 00
        E 1 84 40 00
        E 0 94 3e 50
        E 1 84 46 00
        E 3 84 46 00
        E 2 94 46 3a
        E 1 84 46 00
        E 0 94 46 3a
        E 2 84 46 00
        E 0 94 46 3a
        E 1 94 46 3a
        E 8 84 46 00
        E 1882 84 41 00
        E 9 94 46 3a
        E 4 84 46 00
        E 1 94 45 3a
        E 3 94 46 3a
        E 0 94 46 3a
        E 3 84 32 00
        E 0 84 3e 00
        E 0 94 3e 4e
        E 6 84 46 00
        E 4 94 32 3a
        E 2 94 46 3a
        E 0 94 46 3a
        E 3 84 46 00
        E 1 84 46 00
        E 2 84 46 00
        E 1882 84 45 00
        E 6 94 46 3a
        E 7 84 46 00
        E 5 84 46 00
        E 0 94 46 3a
        E 2 84 3e 00
        E 0 94 3e 4c
        E 1 94 46 3a
        E 2 94 32 3a
        E 3 94 46 3a
        E 1 84 46 00
        E 0 94 46 3a
        E 6 84 46 00
        E 1 94 45 3a
        E 12 84 32 00
        E 1 84 46 00
        E 1881 94 46 3a
        E 1 84 46 00
        E 3 94 46 3a
        E 8 84 3e 00
        E 0 94 3e 4c
        E 2 94 46 3a
        E 1 84 46 00
        E 2 94 46 3a
        E 2 94 46 3a
        E 3 84 46 00
        E 0 84 32 00
        E 2 94 46 3a
        E 2 94 46 3a
        E 10 84 46 00
        E 1 84 46 00
        E 2 84 45 00
        E 1865 84 46 00
        E 6 84 46 00
        E 12 84 46 00
        E 1 94 46 3a
        E 4 94 46 3a
        E 2 94 32 3a
        E 2 94 46 3a
        E 1 84 3e 00
        E 0 94 3e 4c
        E 1 84 46 00
        E 3 94 46 3a
        E 8 94 46 3a
        E 1 94 46 3a
        E 2 84 46 00
        E 3 84 46 00
        E 7 84 46 00
        E 1876 84 46 00
        E 11 94 46 3a
        E 5 84 32 00
        E 0 94 46 3a
        E 3 84 3e 00
        E 0 94 46 3a
        E 0 94 3e 4a
        E 3 84 46 00
        E 0 94 46 3a
        E 5 84 46 00
        E 2 94 46 3a
        E 2 94 46 3a
        E 2 94 46 3a
        E 1 84 46 00
        E 11 84 46 00
        E 4 84 46 00
        E 1881 94 32 3a
        E 8 84 46 00
        E 1 84 3e 00
        E 0 94 40 47
        E 1 94 46 3a
        E 1 84 46 00
        E 1 94 46 3a
        E 0 94 46 3a
        E 6 84 46 00
        E 2 94 46 3a
        E 1 84 46 00
        E 0 94 46 3a
        E 2 94 46 3a
        E 4 84 46 00
        E 8 84 46 00
        E 3 84 46 00
        E 1870 84 32 00
        E 17 94 46 3a
        E 0 94 46 3a
        E 1 94 46 3a
        E 2 94 46 3a
        E 1 84 40 00
        E 0 94 40 45
        E 0 94 46 3a
        E 7 84 46 00
        E 0 94 46 3a
        E 4 84 46 00
        E 1 94 46 3a
        E 1 84 46 00
        E 4 84 46 00
        E 0 84 46 00
        E 7 84 46 00
        E 1877 84 46 00
        E 6 94 45 3a
        E 5 84 46 00
        E 2 84 46 00
        E 0 94 46 3a
        E 2 84 46 00
        E 1 94 46 3a
        E 3 84 40 00
        E 0 94 41 45
        E 2 94 32 3a
        E 3 84 46 00
        E 1 84 46 00
        E 2 94 32 3a
        E 3 94 46 3a
        E 1 94 46 3a
        E 18 84 46 00
        E 1859 84 45 00
        E 16 84 32 00
        E 5 84 46 00
        E 0 94 46 3a
        E 0 94 46 3a
        E 5 94 46 3a
        E 2 94 46 3a
        E 3 84 41 00
        E 0 94 41 43
        E 1 94 46 3a
        E 6 84 46 00
        E 1 84 46 00
        E 1 84 32 00
        E 0 84 46 00
        E 0 94 46 3a
        E 3 94 46 3a
        E 1883 84 46 00
        E 6 84 46 00
        E 3 84 46 00
        E 0 84 46 00
        E 4 94 32 3a
        E 1 94 32 3a
        E 3 94 46 3a
        E 3 84 46 00
        E 1 94 46 3a
        E 4 84 41 00
        E 0 94 41 43
        E 4 94 46 3a
        E 2 94 46 3a
        E 6 94 45 3a
        E 2 84 46 00
        E 1 84 46 00
        E 1878 84 32 00
        E 1 84 32 00
        E 12 94 46 3a
        E 4 94 46 3a
        E 5 94 46 3a
        E 3 84 46 00
        E 2 84 41 00
        E 0 94 41 41
        E 1 84 46 00
        E 0 94 46 3a
        E 1 94 46 3a
        E 1 84 46 00
        E 2 94 35 3a
        E 9 94 46 3a
        E 5 84 45 00
        E 3 84 46 00
        E 1871 84 46 00
        E 11 84 46 00
        E 3 84 35 00
        E 1 84 46 00
        E 2 94 34 3a
        E 4 84 46 00
        E 6 84 41 00
        E 0 94 40 3e
        E 3 84 46 00
        E 2 94 46 3a
        E 2 94 46 3a
        E 15 84 46 00
        E 1870 84 34 00
        E 18 84 46 00
        E 10 84 40 00
        E 4 84 46 00
        E 2 94 46 3a
        E 1907 84 46 00
        E 19 94 46 3a
        E 1905 84 46 00
        E 2 94 46 3a
        E 7 94 46 3a
        E 1913 94 46 3a
        E 5 94 46 3a
        E 10 84 46 00
        E 10 84 46 00
        E 1898 94 32 3a
        E 2 84 46 00
        E 7 84 46 00
        E 2 94 46 3a
        E 1907 94 41 3a
        E 13 84 46 00
        E 0 94 32 3a
        E 4 84 32 00
        E 1903 84 41 00
        E 3 94 46 3a
        E 1 94 46 3a
        E 1 84 32 00
        E 1903 94 46 3a
        E 2 84 46 00
        E 1 94 32 3a
        E 1 94 46 3a
        E 8 94 46 3a
        E 20 84 46 00
        E 1873 84 46 00
        E 1 84 46 00
        E 17 84 46 00
        E 3 84 32 00
        E 6 94 46 3a
        E 0 94 41 3a
        E 3 94 46 3a
        E 4 94 32 3a
        E 1901 84 46 00
        E 4 84 32 00
        E 8 84 41 00
        E 12 84 46 00
        E 0 b4 7b 00
        E 1 ff 2f 00
      >
    >
  >
  <TRACK
    NAME "Cello"
    PEAKCOL 4284186559
    VOLPAN 1.000000 0 1 -1
    MIDIOUT -1
    ISBUS 0 0
    <ITEM
      POSITION 3.340446
      LENGTH 83.435788
      NAME "Cello"
      VOLPAN 1 0 1 -1
      <SOURCE MIDI
        HASDATA 1 960 QN
        E 0 c5 2a 00
        E 3848 95 3e 74
        E 3840 85 3e 00
        E 3838 95 45 75
        E 3840 85 45 00
        E 7687 95 48 74
        E 3836 95 45 74
        E 4 85 48 00
        E 3833 95 41 74
        E 3 85 45 00
        E 3833 95 40 74
        E 4 85 41 00
        E 3836 85 40 00
        E 12 95 46 74
        E 3829 95 45 74
        E 11 85 46 00
        E 3829 85 45 00
        E 11 95 41 70
        E 3838 95 41 70
        E 2 85 41 00
        E 3831 95 40 74
        E 7 85 41 00
        E 3831 95 3e 74
        E 2 85 40 00
        E 3838 85 3e 00
        E 5 95 3e 74
        E 3834 95 3a 74
        E 6 85 3e 00
        E 3834 85 3a 00
        E 9 95 37 70
        E 3833 95 39 70
        E 7 85 37 00
        E 3830 95 39 70
        E 3 85 39 00
        E 3837 85 39 00
        E 3849 95 35 75
        E 3840 85 35 00
        E 3834 95 35 70
        E 3840 85 35 00
        E 7 95 35 74
        E 3840 85 35 00
        E 0 b5 7b 00
        E 1 ff 2f 00
      >
    >
  >
  <TRACK
    NAME "Bassoon"
    PEAKCOL 4286528191
    VOLPAN 1.000000 0 1 -1
    MIDIOUT -1
    ISBUS 0 0
    <ITEM
      POSITION 3.334620
      LENGTH 83.436162
      NAME "Bassoon"
      VOLPAN 1 0 1 -1
      <SOURCE MIDI
        HASDATA 1 960 QN
        E 0 c6 46 00
        E 3841 96 2e 60
        E 3840 86 2e 00
        E 7686 96 32 60
        E 3840 86 32 00
        E 3834 96 2e 60
        E 3840 86 2e 00
        E 4 96 32 60
        E 3840 86 32 00
        E 3842 96 31 60
        E 3833 96 2e 60
        E 7 86 31 00
        E 3833 86 2e 00
        E 3844 96 31 60
        E 3840 86 31 00
        E 1 96 32 60
        E 3840 86 32 00
        E 3839 96 37 60
        E 3839 96 32 60
        E 1 86 37 00
        E 3839 86 32 00
        E 3844 96 34 60
        E 3833 96 39 60
        E 7 86 34 00
        E 3833 86 39 00
        E 19205 96 40 60
        E 3840 86 40 00
        E 0 b6 7b 00
        E 1 ff 2f 00
      >
    >
  >
  <TRACK
    NAME "Bass"
    PEAKCOL 4286528191
    VOLPAN 1.000000 0 1 -1
    MIDIOUT -1
    ISBUS 0 0
    <ITEM
      POSITION 0.001735
      LENGTH 86.769963
      NAME "Bass"
      VOLPAN 1 0 1 -1
      <SOURCE MIDI
        HASDATA 1 960 QN
        E 0 c7 2b 00
        E 2 97 2d 7b
        E 3838 97 32 7b
        E 2 87 2d 00
        E 3838 87 32 00
        E 8 97 34 7b
        E 3840 87 34 00
        E 1 97 32 7b
        E 3838 97 32 7b
        E 2 87 32 00
        E 3834 97 32 7b
        E 4 87 32 00
        E 3836 87 32 00
        E 1 97 34 7b
        E 3840 87 34 00
        E 4 97 32 7b
        E 3835 97 32 7b
        E 5 87 32 00
        E 3835 87 32 00
        E 1 97 2d 7b
        E 3840 87 2d 00
        E 1 97 2e 7b
        E 3840 87 2e 00
        E 4 97 2d 7b
        E 3837 97 32 7b
        E 3 87 2d 00
        E 3835 97 32 7b
        E 2 87 32 00
        E 3838 87 32 00
        E 5 97 2e 7b
        E 3837 97 2d 7b
        E 3 87 2e 00
        E 3837 87 2d 00
        E 2 97 32 7b
        E 3838 97 32 7b
        E 2 87 32 00
        E 3838 87 32 00
        E 2 97 34 7b
        E 3837 97 32 7b
        E 3 87 34 00
        E 3837 87 32 00
        E 0 97 32 7b
        E 3840 87 32 00
        E 3 97 31 7b
        E 3833 97 32 7b
        E 7 87 31 00
        E 3833 87 32 00
        E 8 97 32 7b
        E 3838 97 32 7b
        E 2 87 32 00
        E 3837 97 32 7b
        E 1 87 32 00
        E 3839 87 32 00
        E 0 b7 7b 00
        E 1 ff 2f 00
      >
    >
  >
>
