<REAPER_PROJECT 0.1 "7.0" 1700000000
  TEMPO 70.000000 4 4
  SAMPLERATE 48000 0 0
  RENDER_FILE ""
  RENDER_FMT 0 2 0
  RENDER_1X 0
  RENDER_RANGE 1 0 94.581261 0 0
  RENDER_RESAMPLE 3 0 1
  <MASTERTRACK
    VOLPAN 1 0 1 -1
    DEFCHAN 0
  >
  <TRACK
    NAME "Lead"
    PEAKCOL 4284506208
    VOLPAN 1.000000 0 1 -1
    MIDIOUT -1
    ISBUS 0 0
    <ITEM
      POSITION 0.009443
      LENGTH 92.669412
      NAME "Lead"
      VOLPAN 1 0 1 -1
      <SOURCE MIDI
        HASDATA 1 960 QN
        E 0 c0 49 00
        E 11 90 4b 7d
        E 1124 80 4b 00
        E 72 90 4b 64
        E 1124 80 4b 00
        E 60 90 4a 76
        E 1022 80 4a 00
        E 170 90 57 64
        E 1022 80 57 00
        E 181 90 4b 7d
        E 1030 80 4b 00
        E 180 90 4a 64
        E 591 90 4b 64
        E 182 80 4a 00
        E 58 80 4b 00
        E 351 90 4f 64
        E 464 80 4f 00
        E 153 90 4e 64
        E 1124 80 4e 00
        E 80 90 4e 6d
        E 850 80 4e 00
        E 466 90 4f 64
        E 1022 80 4f 00
        E 50 90 50 64
        E 1022 80 50 00
        E 184 90 4f 64
        E 1022 80 4f 00
        E 151 90 53 64
        E 515 80 53 00
        E 691 90 4f 64
        E 464 80 4f 00
        E 986 90 53 64
        E 1124 80 53 00
        E 651 90 53 77
        E 960 90 53 70
        E 62 80 53 00
        E 960 80 53 00
        E 317 90 54 64
        E 1022 80 54 00
        E 41 90 54 64
        E 920 80 54 00
        E 297 90 54 64
        E 464 80 54 00
        E 1190 90 56 64
        E 567 80 56 00
        E 641 90 53 6b
        E 1022 80 53 00
        E 182 90 54 7b
        E 258 80 54 00
        E 934 90 56 76
        E 1022 80 56 00
        E 524 90 54 64
        E 854 90 54 64
        E 66 80 54 00
        E 854 80 54 00
        E 388 90 53 7d
        E 1081 90 54 64
        E 43 80 53 00
        E 979 80 54 00
        E 176 90 56 76
        E 1022 80 56 00
        E 178 90 56 6b
        E 1022 80 56 00
        E 298 90 56 7d
        E 1022 80 56 00
        E 44 90 54 64
        E 232 80 54 00
        E 971 90 54 6d
        E 1124 80 54 00
        E 83 90 53 64
        E 1022 80 53 00
        E 175 90 54 7c
        E 773 80 54 00
        E 785 90 57 6d
        E 258 80 57 00
        E 585 90 56 74
        E 258 80 56 00
        E 340 90 53 64
        E 240 80 53 00
        E 358 90 4f 79
        E 920 80 4f 00
        E 384 90 4f 7d
        E 695 80 4f 00
        E 400 90 4f 64
        E 1124 80 4f 00
        E 781 90 4b 6b
        E 1077 90 4b 64
        E 469 80 4b 00
        E 553 80 4b 00
        E 1010 90 4b 77
        E 196 90 4e 64
        E 62 80 4b 00
        E 134 90 50 64
        E 44 80 4e 00
        E 152 90 53 64
        E 44 80 50 00
        E 152 90 54 64
        E 44 80 53 00
        E 152 90 57 66
        E 44 80 54 00
        E 876 80 57 00
        E 1235 90 56 64
        E 1022 80 56 00
        E 404 90 56 68
        E 971 90 57 64
        E 51 80 56 00
        E 971 80 57 00
        E 161 90 57 64
        E 1022 80 57 00
        E 195 90 57 64
        E 232 80 57 00
        E 942 90 56 64
        E 920 80 56 00
        E 286 90 54 64
        E 283 80 54 00
        E 1151 90 56 68
        E 1022 80 56 00
        E 185 90 57 6d
        E 515 80 57 00
        E 446 90 54 72
        E 515 80 54 00
        E 683 90 56 6b
        E 600 90 53 64
        E 240 80 53 00
        E 182 80 56 00
        E 179 90 4f 66
        E 464 80 4f 00
        E 732 90 53 64
        E 1124 80 53 00
        E 682 90 4f 79
        E 1022 80 4f 00
        E 172 90 4f 64
        E 258 80 4f 00
        E 338 90 53 66
        E 240 80 53 00
        E 356 90 56 7d
        E 1022 80 56 00
        E 171 90 54 64
        E 1022 80 54 00
        E 176 90 54 64
        E 232 80 54 00
        E 975 90 54 70
        E 592 90 53 68
        E 240 80 53 00
        E 292 80 54 00
        E 60 90 4f 7d
        E 1022 80 4f 00
        E 184 90 50 64
        E 1022 80 50 00
        E 172 90 4f 7a
        E 601 90 50 64
        E 240 80 50 00
        E 181 80 4f 00
        E 179 90 54 64
        E 1022 80 54 00
        E 192 90 54 6b
        E 583 90 53 64
        E 232 80 53 00
        E 105 80 54 00
        E 859 90 54 64
        E 567 80 54 00
        E 648 90 57 64
        E 591 90 56 64
        E 431 80 57 00
        E 171 90 53 64
        E 171 80 56 00
        E 69 80 53 00
        E 361 90 4f 66
        E 710 90 50 64
        E 240 80 50 00
        E 72 80 4f 00
        E 399 90 54 79
        E 968 90 53 6b
        E 54 80 54 00
        E 178 80 53 00
        E 1928 90 4f 64
        E 567 80 4f 00
        E 253 90 53 70
        E 1124 80 53 00
        E 92 90 53 64
        E 1022 80 53 00
        E 174 90 54 7d
        E 592 90 56 64
        E 430 80 54 00
        E 592 80 56 00
        E 555 90 54 79
        E 822 90 53 64
        E 724 80 54 00
        E 196 80 53 00
        E 293 90 54 6d
        E 1124 80 54 00
        E 65 90 56 64
        E 1022 80 56 00
        E 160 90 54 7d
        E 1022 80 54 00
        E 0 b0 7b 00
        E 1 ff 2f 00
      >
    >
  >
  <TRACK
    NAME "Tanpura"
    PEAKCOL 4284506208
    VOLPAN 1.000000 0 1 -1
    MIDIOUT -1
    ISBUS 0 0
    <ITEM
      POSITION 0.000000
      LENGTH 92.671429
      NAME "Tanpura"
      VOLPAN 1 0 1 -1
      <SOURCE MIDI
        HASDATA 1 960 QN
        E 0 c1 30 00
        E 0 91 48 02
        E 0 91 54 02
        E 103680 81 48 00
        E 0 81 54 00
        E 0 b1 7b 00
        E 1 ff 2f 00
      >
    >
  >
  <TRACK
    NAME "Strings"
    PEAKCOL 4284186559
    VOLPAN 1.000000 0 1 -1
    MIDIOUT -1
    ISBUS 0 0
    <ITEM
      POSITION 0.000000
      LENGTH 92.681261
      NAME "Strings"
      VOLPAN 1 0 1 -1
      <SOURCE MIDI
        HASDATA 1 960 QN
        E 0 c2 30 00
        E 0 92 3f 40
        E 0 92 32 40
        E 2 92 48 40
        E 1911 82 3f 00
        E 2 82 32 00
        E 2 92 3f 40
        E 3 92 48 40
        E 2 82 48 00
        E 0 92 43 40
        E 12 92 48 40
        E 1888 82 48 00
        E 18 92 3b 40
        E 8 92 48 40
        E 4 82 43 00
        E 1 92 48 40
        E 2 82 3f 00
        E 3 82 48 00
        E 1897 92 32 40
        E 5 82 3b 00
        E 3 82 48 00
        E 9 92 32 40
        E 3 82 48 00
        E 1884 82 32 00
        E 19 82 32 00
        E 1914 92 48 40
        E 2 92 3e 40
        E 14 92 48 40
        E 0 92 32 40
        E 2 92 42 40
        E 1899 82 3e 00
        E 7 82 42 00
        E 5 82 48 00
        E 0 82 32 00
        E 5 82 48 00
        E 0 92 3f 40
        E 1902 82 3f 00
        E 12 92 37 40
        E 8 92 3f 40
        E 1902 92 48 40
        E 7 92 3c 40
        E 3 82 37 00
        E 13 82 3f 00
        E 0 92 48 40
        E 1904 82 48 00
        E 3 82 3c 00
        E 11 92 48 40
        E 17 82 48 00
        E 1890 92 48 40
        E 17 82 48 00
        E 1888 82 48 00
        E 6 92 48 40
        E 1 92 48 40
        E 1 92 48 40
        E 9 92 37 45
        E 1 92 48 40
        E 9 92 48 40
        E 1 92 48 40
        E 1 92 3f 40
        E 1897 92 32 40
        E 6 92 48 40
        E 1 82 3f 00
        E 1 92 45 40
        E 2 82 48 00
        E 1 82 48 00
        E 0 82 37 00
        E 0 92 36 47
        E 6 92 48 40
        E 3 82 48 00
        E 0 92 48 40
        E 0 92 39 40
        E 1 82 48 00
        E 1 92 48 40
        E 1 82 48 00
        E 11 82 48 00
        E 1877 82 32 00
        E 6 92 48 40
        E 4 82 48 00
        E 1 82 39 00
        E 0 92 48 40
        E 3 92 48 40
        E 4 92 3e 40
        E 2 82 36 00
        E 0 92 36 4a
        E 3 92 48 40
        E 1 82 45 00
        E 6 92 39 40
        E 1 92 45 40
        E 4 82 48 00
        E 0 82 48 00
        E 5 82 48 00
        E 1883 82 48 00
        E 1 82 3e 00
        E 6 92 48 40
        E 2 82 48 00
        E 1 92 32 40
        E 3 82 48 00
        E 1 92 48 40
        E 3 82 36 00
        E 0 82 45 00
        E 0 92 37 4a
        E 0 92 48 40
        E 2 82 48 00
        E 3 92 48 40
        E 3 92 48 40
        E 2 92 3f 40
        E 8 82 39 00
        E 1879 82 32 00
        E 2 82 48 00
        E 13 82 3f 00
        E 0 92 32 40
        E 1 82 48 00
        E 0 92 48 40
        E 2 92 32 40
        E 1 82 48 00
        E 2 92 3c 40
        E 1 92 32 40
        E 1 82 37 00
        E 0 92 37 4a
        E 2 82 48 00
        E 2 92 48 40
        E 4 82 48 00
        E 4 92 48 40
        E 1892 82 3c 00
        E 2 82 48 00
        E 5 82 32 00
        E 0 82 48 00
        E 0 82 32 00
        E 1 82 32 00
        E 0 92 48 40
        E 7 82 48 00
        E 0 92 32 40
        E 1 82 37 00
        E 0 92 37 4c
        E 0 92 48 40
        E 7 92 3f 40
        E 3 92 43 40
        E 3 92 48 40
        E 0 92 3f 40
        E 1891 82 48 00
        E 6 92 48 40
        E 3 92 48 40
        E 5 92 48 40
        E 2 82 37 00
        E 0 92 48 40
        E 0 92 37 4e
        E 2 82 3f 00
        E 0 92 3c 40
        E 5 92 3f 40
        E 1 82 32 00
        E 0 82 48 00
        E 1 82 3f 00
        E 1 92 3f 40
        E 9 82 43 00
        E 5 82 48 00
        E 1876 82 48 00
        E 9 82 3f 00
        E 0 92 48 40
        E 3 82 3c 00
        E 0 92 48 40
        E 1 82 48 00
        E 2 92 47 40
        E 5 82 37 00
        E 0 92 35 51
        E 1 82 48 00
        E 0 92 48 40
        E 5 82 3f 00
        E 3 92 32 40
        E 1 92 32 40
        E 1 92 3e 40
        E 1 82 48 00
        E 1885 82 48 00
        E 2 82 47 00
        E 7 82 48 00
        E 2 92 32 40
        E 4 92 32 40
        E 4 92 48 40
        E 2 82 3e 00
        E 0 92 3b 40
        E 1 92 41 40
        E 1 82 35 00
        E 0 92 35 51
        E 7 82 48 00
        E 2 92 32 40
        E 0 92 32 40
        E 1 82 32 00
        E 9 82 32 00
        E 1875 82 32 00
        E 12 92 48 40
        E 7 82 32 00
        E 4 82 48 00
        E 1 82 3b 00
        E 2 82 41 00
        E 0 82 35 00
        E 0 92 36 51
        E 1 82 32 00
        E 0 92 42 40
        E 0 92 45 40
        E 2 92 48 40
        E 5 92 3e 40
        E 3 92 48 40
        E 1 92 3e 40
        E 4 82 32 00
        E 1890 82 48 00
        E 3 82 48 00
        E 5 92 45 40
        E 1 82 42 00
        E 1 92 32 40
        E 3 92 48 40
        E 1 82 36 00
        E 0 92 36 53
        E 2 92 48 40
        E 0 92 48 40
        E 4 92 48 40
        E 7 82 45 00
        E 0 92 42 40
        E 13 82 3e 00
        E 1 82 48 00
        E 3 82 3e 00
        E 1878 82 32 00
        E 2 82 48 00
        E 4 92 3c 40
        E 0 92 48 40
        E 3 82 45 00
        E 1 82 48 00
        E 2 82 36 00
        E 0 92 37 55
        E 1 92 3c 40
        E 1 82 48 00
        E 1 92 48 40
        E 1 92 48 40
        E 4 92 32 40
        E 2 82 48 00
        E 3 92 48 40
        E 2 82 42 00
        E 1892 92 48 40
        E 5 92 48 40
        E 2 82 48 00
        E 1 82 32 00
        E 2 82 3c 00
        E 2 82 48 00
        E 1 82 37 00
        E 0 92 37 58
        E 2 92 3c 40
        E 2 92 48 40
        E 1 92 32 40
        E 1 92 3f 40
        E 6 82 48 00
        E 2 92 48 40
        E 2 82 3c 00
        E 3 82 48 00
        E 1869 82 48 00
        E 22 92 48 40
        E 1 92 32 40
        E 0 92 48 40
        E 3 82 48 00
        E 0 92 43 40
        E 6 82 37 00
        E 0 92 48 40
        E 0 92 37 5a
        E 3 82 48 00
        E 5 82 48 00
        E 2 92 48 40
        E 3 82 3f 00
        E 0 92 48 40
        E 6 82 3c 00
        E 2 82 32 00
        E 1882 82 32 00
        E 3 92 32 40
        E 1 82 48 00
        E 1 92 48 40
        E 4 92 48 40
        E 2 92 48 40
        E 1 92 48 40
        E 2 82 48 00
        E 0 82 43 00
        E 3 82 37 00
        E 0 92 37 5a
        E 3 92 48 40
        E 5 82 48 00
        E 1 82 48 00
        E 5 92 48 40
        E 6 82 48 00
        E 1875 82 48 00
        E 0 82 48 00
        E 3 82 48 00
        E 9 92 48 40
        E 1 82 32 00
        E 2 92 48 40
        E 7 92 43 40
        E 1 92 32 40
        E 2 82 48 00
        E 0 82 37 00
        E 0 92 37 5a
        E 0 92 48 40
        E 2 82 48 00
        E 2 92 43 40
        E 8 82 48 00
        E 2 92 48 40
        E 1892 82 43 00
        E 0 92 48 40
        E 3 82 48 00
        E 2 92 48 40
        E 2 82 48 00
        E 2 92 48 40
        E 1 82 48 00
        E 2 82 48 00
        E 2 82 37 00
        E 0 92 37 5a
        E 7 82 32 00
        E 0 92 32 40
        E 1 92 48 40
        E 3 92 3f 40
        E 2 82 43 00
        E 0 92 32 40
        E 1874 82 48 00
        E 26 92 42 40
        E 1 92 48 40
        E 1 82 48 00
        E 3 92 48 40
        E 2 82 37 00
        E 0 92 39 5a
        E 4 82 48 00
        E 1 92 48 40
        E 6 92 3e 40
        E 2 92 48 40
        E 0 92 48 40
        E 2 82 32 00
        E 7 82 3f 00
        E 3 82 32 00
        E 1 82 48 00
        E 1871 82 48 00
        E 13 92 42 40
        E 3 92 45 40
        E 1 92 48 40
        E 1 82 48 00
        E 5 82 39 00
        E 0 92 39 5a
        E 0 92 48 40
        E 1 92 48 40
        E 2 82 42 00
        E 9 92 48 40
        E 1 92 48 40
        E 1 82 48 00
        E 6 82 48 00
        E 4 82 48 00
        E 1 82 3e 00
        E 1878 82 45 00
        E 10 82 42 00
        E 0 92 43 40
        E 3 92 48 40
        E 3 82 48 00
        E 0 92 32 40
        E 1 82 48 00
        E 0 82 39 00
        E 0 92 37 58
        E 4 92 32 40
        E 2 92 3f 40
        E 2 92 48 40
        E 1 92 48 40
        E 11 82 48 00
        E 0 82 48 00
        E 10 82 48 00
        E 1877 92 48 40
        E 1 82 48 00
        E 5 92 48 40
        E 6 92 3c 40
        E 1 82 37 00
        E 0 92 3c 40
        E 0 92 37 55
        E 5 92 48 40
        E 2 82 43 00
        E 2 82 32 00
        E 2 92 43 40
        E 0 92 48 40
        E 1 82 32 00
        E 5 82 3f 00
        E 2 82 48 00
        E 2 82 48 00
        E 1872 82 48 00
        E 8 82 3c 00
        E 9 92 48 40
        E 3 92 48 40
        E 1 82 43 00
        E 1 92 32 40
        E 3 82 48 00
        E 1 92 48 40
        E 1 82 37 00
        E 0 92 37 53
        E 1 92 3f 40
        E 1 92 48 40
        E 2 92 48 40
        E 3 82 48 00
        E 8 82 3c 00
        E 7 82 48 00
        E 1880 82 32 00
        E 9 82 48 00
        E 8 82 48 00
        E 1 82 37 00
        E 0 92 37 51
        E 1 92 3c 40
        E 0 92 32 40
        E 1 92 48 40
        E 1 82 48 00
        E 3 82 48 00
        E 1 92 48 40
        E 2 92 3c 40
        E 0 92 48 40
        E 2 82 48 00
        E 0 82 3f 00
        E 1 92 48 40
        E 1893 82 3c 00
        E 0 82 32 00
        E 2 82 48 00
        E 1 92 48 40
        E 3 82 48 00
        E 5 92 48 40
        E 4 82 37 00
        E 0 92 37 51
        E 1 92 32 40
        E 0 92 48 40
        E 3 92 3b 40
        E 1 92 3f 40
        E 1 92 48 40
        E 3 82 48 00
        E 5 82 3c 00
        E 1 82 48 00
        E 1880 82 48 00
        E 14 82 48 00
        E 0 82 3b 00
        E 0 82 48 00
        E 1 82 48 00
        E 2 92 3b 40
        E 8 82 37 00
        E 0 92 37 51
        E 7 92 48 40
        E 0 92 48 40
        E 3 82 32 00
        E 0 92 48 40
        E 2 92 48 40
        E 0 92 3f 40
        E 2 92 48 40
        E 10 82 3f 00
        E 1882 92 48 40
        E 7 92 45 40
        E 1 82 48 00
        E 2 92 45 40
        E 0 92 48 40
        E 4 82 37 00
        E 0 92 39 4e
        E 2 92 48 40
        E 2 82 3b 00
        E 0 92 3e 40
        E 1 82 48 00
        E 0 92 48 40
        E 8 82 48 00
        E 2 82 3f 00
        E 7 82 48 00
        E 4 82 48 00
        E 1883 82 48 00
        E 3 92 32 40
        E 1 82 48 00
        E 4 92 48 40
        E 2 92 32 40
        E 1 82 39 00
        E 0 92 39 4c
        E 3 92 42 40
        E 4 92 45 40
        E 1 92 48 40
        E 1 82 45 00
        E 0 82 45 00
        E 1 82 48 00
        E 1 82 48 00
        E 0 92 45 40
        E 6 82 3e 00
        E 1885 82 48 00
        E 3 82 32 00
        E 5 92 43 40
        E 1 82 42 00
        E 2 92 32 40
        E 3 92 48 40
        E 1 92 3f 40
        E 2 82 48 00
        E 1 82 39 00
        E 0 92 37 4a
        E 3 82 32 00
        E 2 92 3f 40
        E 3 92 48 40
        E 3 92 48 40
        E 5 82 45 00
        E 13 82 45 00
        E 1868 82 43 00
        E 5 82 32 00
        E 7 92 48 40
        E 6 92 48 40
        E 0 92 48 40
        E 1 92 3c 40
        E 1 82 48 00
        E 0 92 32 40
        E 2 82 48 00
        E 1 82 3f 00
        E 0 82 37 00
        E 0 92 37 4a
        E 2 82 48 00
        E 0 92 32 40
        E 11 92 48 40
        E 2 82 3f 00
        E 1885 82 32 00
        E 3 82 48 00
        E 3 82 48 00
        E 0 92 48 40
        E 1 82 3c 00
        E 0 92 3f 40
        E 4 92 48 40
        E 3 82 48 00
        E 1 92 3c 40
        E 2 82 32 00
        E 0 92 43 40
        E 1 82 48 00
        E 2 82 37 00
        E 0 92 37 4a
        E 1 92 48 40
        E 7 92 43 40
        E 1882 82 48 00
        E 16 92 48 40
        E 2 92 48 40
        E 0 92 3c 40
        E 0 92 48 40
        E 5 92 48 40
        E 1 82 48 00
        E 0 92 3c 40
        E 5 82 3f 00
        E 1 82 37 00
        E 0 92 37 47
        E 1 82 48 00
        E 4 82 43 00
        E 2 82 3c 00
        E 2 92 48 40
        E 4 82 43 00
        E 1883 82 48 00
        E 10 92 48 40
        E 3 82 48 00
        E 1 82 48 00
        E 2 92 35 40
        E 2 92 48 40
        E 1 82 48 00
        E 3 82 3c 00
        E 1 82 3c 00
        E 0 92 48 40
        E 1 82 37 00
        E 0 92 35 45
        E 0 92 48 40
        E 4 82 48 00
        E 2 92 32 40
        E 1 92 48 40
        E 1888 82 48 00
        E 2 82 35 00
        E 3 82 48 00
        E 13 92 3b 40
        E 4 92 3b 40
        E 2 92 32 40
        E 1 82 35 00
        E 0 92 35 45
        E 4 82 48 00
        E 0 92 32 40
        E 1 82 32 00
        E 2 82 48 00
        E 2 92 48 40
        E 3 92 48 40
        E 2 92 48 40
        E 5 82 48 00
        E 1877 82 3b 00
        E 16 82 32 00
        E 3 82 32 00
        E 1 92 39 40
        E 0 92 3e 40
        E 4 82 35 00
        E 0 92 36 42
        E 3 92 48 40
        E 2 82 3b 00
        E 4 82 48 00
        E 3 82 48 00
        E 16 82 48 00
        E 1876 82 39 00
        E 16 82 36 00
        E 6 82 3e 00
        E 8 92 42 40
        E 2 82 48 00
        E 1897 92 32 40
        E 15 82 42 00
        E 1905 82 32 00
        E 1 92 32 40
        E 14 92 48 40
        E 1911 92 48 40
        E 5 82 32 00
        E 0 92 32 40
        E 12 82 48 00
        E 1897 92 48 40
        E 1 92 48 40
        E 16 82 48 00
        E 12 82 32 00
        E 1880 82 48 00
        E 18 92 37 40
        E 9 92 32 40
        E 1 82 48 00
        E 1908 92 48 40
        E 1 92 32 40
        E 1 82 37 00
        E 3 82 32 00
        E 1904 82 32 00
        E 2 92 48 40
        E 2 92 45 40
        E 11 92 32 40
        E 3 82 48 00
        E 7 92 32 40
        E 1902 82 48 00
        E 0 92 32 40
        E 1 92 3e 40
        E 1 92 48 40
        E 1 82 32 00
        E 2 82 45 00
        E 1 92 36 40
        E 21 82 32 00
        E 1896 82 32 00
        E 3 82 3e 00
        E 0 82 36 00
        E 11 82 48 00
        E 0 b2 7b 00
        E 1 ff 2f 00
      >
    >
  >
  <TRACK
    NAME "Violin1"
    PEAKCOL 4284186559
    VOLPAN 1.000000 0 1 -1
    MIDIOUT -1
    ISBUS 0 0
    <ITEM
      POSITION 3.439656
      LENGTH 89.238251
      NAME "Violin1"
      VOLPAN 1 0 1 -1
      <SOURCE MIDI
        HASDATA 1 960 QN
        E 0 c3 28 00
        E 3852 93 4b 74
        E 3840 83 4b 00
        E 3835 93 4b 7b
        E 3840 83 4b 00
        E 7675 93 4a 7a
        E 3840 83 4a 00
        E 9 93 48 7b
        E 3832 93 48 7b
        E 8 83 48 00
        E 3830 93 4e 7a
        E 2 83 48 00
        E 3837 93 4e 7a
        E 1 83 4e 00
        E 3839 83 4e 00
        E 2 93 4b 79
        E 3840 83 4b 00
        E 2 93 4f 74
        E 3837 93 53 7a
        E 3 83 4f 00
        E 3837 83 53 00
        E 13 93 56 7a
        E 3830 93 5b 7b
        E 10 83 56 00
        E 3829 93 57 79
        E 1 83 5b 00
        E 3839 83 57 00
        E 8 93 56 7b
        E 3836 93 53 74
        E 4 83 56 00
        E 3831 93 54 76
        E 5 83 53 00
        E 3835 83 54 00
        E 4 93 57 7b
        E 3837 93 56 7a
        E 3 83 57 00
        E 3837 83 56 00
        E 3844 93 54 7a
        E 3840 83 54 00
        E 3845 93 53 79
        E 3835 93 4e 74
        E 5 83 53 00
        E 3835 83 4e 00
        E 0 b3 7b 00
        E 1 ff 2f 00
      >
    >
  >
  <TRACK
    NAME "Tremolo"
    PEAKCOL 4284186559
    VOLPAN 1.000000 0 1 -1
    MIDIOUT -1
    ISBUS 0 0
    <ITEM
      POSITION 0.258635
      LENGTH 92.283113
      NAME "Tremolo"
      VOLPAN 1 0 1 -1
      <SOURCE MIDI
        HASDATA 1 960 QN
        E 0 c4 2c 00
        E 290 94 3c 3b
        E 274 84 3c 00
        E 203 94 3c 42
        E 182 84 3c 00
        E 582 94 3c 4e
        E 182 84 3c 00
        E 212 94 3c 58
        E 182 84 3c 00
        E 1 94 3c 5d
        E 182 84 3c 00
        E 203 94 3c 55
        E 182 84 3c 00
        E 13 94 3c 4a
        E 182 84 3c 00
        E 390 94 3c 51
        E 182 84 3c 00
        E 394 94 33 3b
        E 274 84 33 00
        E 689 94 33 51
        E 182 84 33 00
        E 398 94 33 51
        E 182 84 33 00
        E 6 94 33 58
        E 182 84 33 00
        E 2702 94 3e 47
        E 182 84 3e 00
        E 5 94 3e 51
        E 182 84 3e 00
        E 205 94 3e 5a
        E 182 84 3e 00
        E 9 94 3e 4e
        E 182 84 3e 00
        E 8 94 3e 5a
        E 182 84 3e 00
        E 783 94 3e 4a
        E 182 84 3e 00
        E 777 94 3e 3b
        E 182 84 3e 00
        E 292 94 48 3b
        E 274 84 48 00
        E 1366 94 3c 51
        E 182 84 3c 00
        E 9 94 3c 5f
        E 182 84 3c 00
        E 387 94 3c 45
        E 182 84 3c 00
        E 1746 94 3c 42
        E 182 84 3c 00
        E 962 94 3c 51
        E 182 84 3c 00
        E 397 94 3c 53
        E 182 84 3c 00
        E 8 94 3c 45
        E 182 84 3c 00
        E 14 94 3c 51
        E 182 84 3c 00
        E 587 94 3c 3b
        E 182 84 3c 00
        E 1158 94 33 45
        E 182 84 33 00
        E 392 94 33 5d
        E 182 84 33 00
        E 15 94 33 51
        E 182 84 33 00
        E 6 94 33 5f
        E 182 84 33 00
        E 9 94 33 51
        E 182 84 33 00
        E 9 94 33 58
        E 182 84 33 00
        E 19 94 33 47
        E 182 84 33 00
        E 4 94 33 51
        E 182 84 33 00
        E 11 94 33 42
        E 182 84 33 00
        E 9 94 33 4a
        E 182 84 33 00
        E 9 94 33 3b
        E 182 84 33 00
        E 17 94 33 3b
        E 182 84 33 00
        E 9 94 3e 3b
        E 274 84 3e 00
        E 14 94 3e 3b
        E 274 84 3e 00
        E 8 94 3e 5d
        E 182 84 3e 00
        E 13 94 3e 47
        E 182 84 3e 00
        E 10 94 3e 51
        E 182 84 3e 00
        E 7 94 3e 47
        E 182 84 3e 00
        E 8 94 3e 55
        E 182 84 3e 00
        E 13 94 3e 51
        E 182 84 3e 00
        E 15 94 3e 5d
        E 182 84 3e 00
        E 4 94 3e 58
        E 182 84 3e 00
        E 10 94 3e 5f
        E 182 84 3e 00
        E 16 94 3e 4c
        E 182 84 3e 00
        E 12 94 3e 55
        E 182 84 3e 00
        E 2 94 3e 4a
        E 182 84 3e 00
        E 12 94 3e 55
        E 182 84 3e 00
        E 6 94 3e 40
        E 182 84 3e 00
        E 13 94 3e 4c
        E 182 84 3e 00
        E 9 94 3e 3b
        E 182 84 3e 00
        E 16 94 3e 3b
        E 182 84 3e 00
        E 11 94 48 3b
        E 274 84 48 00
        E 13 94 3c 3b
        E 274 84 3c 00
        E 8 94 3c 58
        E 182 84 3c 00
        E 17 94 3c 45
        E 182 84 3c 00
        E 7 94 3c 51
        E 182 84 3c 00
        E 8 94 3c 4a
        E 182 84 3c 00
        E 10 94 3c 53
        E 182 84 3c 00
        E 7 94 3c 51
        E 182 84 3c 00
        E 19 94 3c 5a
        E 182 84 3c 00
        E 2 94 3c 53
        E 182 84 3c 00
        E 9 94 3c 5f
        E 182 84 3c 00
        E 16 94 3c 4e
        E 182 84 3c 00
        E 5 94 3c 58
        E 182 84 3c 00
        E 14 94 3c 47
        E 182 84 3c 00
        E 6 94 3c 51
        E 182 84 3c 00
        E 12 94 3c 42
        E 182 84 3c 00
        E 7 94 3c 4a
        E 182 84 3c 00
        E 18 94 3c 3b
        E 182 84 3c 00
        E 2 94 3c 3b
        E 182 84 3c 00
        E 15 94 3c 3b
        E 274 84 3c 00
        E 14 94 3c 3b
        E 274 84 3c 00
        E 15 94 3c 5a
        E 182 84 3c 00
        E 9 94 3c 45
        E 182 84 3c 00
        E 14 94 3c 51
        E 182 84 3c 00
        E 6 94 3c 45
        E 182 84 3c 00
        E 5 94 3c 55
        E 182 84 3c 00
        E 10 94 3c 4a
        E 182 84 3c 00
        E 14 94 3c 58
        E 182 84 3c 00
        E 9 94 3c 58
        E 182 84 3c 00
        E 13 94 3c 5a
        E 182 84 3c 00
        E 12 94 3c 4e
        E 182 84 3c 00
        E 1 94 3c 58
        E 182 84 3c 00
        E 14 94 3c 47
        E 182 84 3c 00
        E 8 94 3c 51
        E 182 84 3c 00
        E 12 94 3c 42
        E 182 84 3c 00
        E 10 94 3c 4c
        E 182 84 3c 00
        E 9 94 3c 3b
        E 237 84 3c 00
        E 12 94 3c 3b
        E 128 84 3c 00
        E 5 94 3b 3b
        E 274 84 3b 00
        E 16 94 3b 3b
        E 274 84 3b 00
        E 20 94 3b 58
        E 182 84 3b 00
        E 2 94 3b 45
        E 182 84 3b 00
        E 10 94 3b 55
        E 182 84 3b 00
        E 14 94 3b 4a
        E 182 84 3b 00
        E 12 94 3b 5a
        E 182 84 3b 00
        E 7 94 3b 51
        E 182 84 3b 00
        E 14 94 3b 5d
        E 182 84 3b 00
        E 5 94 3b 58
        E 182 84 3b 00
        E 17 94 3b 58
        E 182 84 3b 00
        E 8 94 3b 4e
        E 182 84 3b 00
        E 10 94 3b 5a
        E 182 84 3b 00
        E 10 94 3b 4a
        E 182 84 3b 00
        E 7 94 3b 51
        E 182 84 3b 00
        E 12 94 3b 45
        E 182 84 3b 00
        E 9 94 3b 4e
        E 182 84 3b 00
        E 5 94 3b 3b
        E 237 84 3b 00
        E 15 94 3b 3b
        E 128 84 3b 00
        E 5 94 3e 3b
        E 274 84 3e 00
        E 17 94 3e 3b
        E 274 84 3e 00
        E 10 94 3e 5d
        E 182 84 3e 00
        E 14 94 3e 42
        E 182 84 3e 00
        E 11 94 3e 51
        E 182 84 3e 00
        E 12 94 3e 4a
        E 182 84 3e 00
        E 4 94 3e 58
        E 182 84 3e 00
        E 9 94 3e 4a
        E 182 84 3e 00
        E 12 94 3e 5f
        E 182 84 3e 00
        E 11 94 3e 53
        E 182 84 3e 00
        E 14 94 3e 58
        E 182 84 3e 00
        E 2 94 3e 4c
        E 182 84 3e 00
        E 17 94 3e 58
        E 182 84 3e 00
        E 5 94 3e 45
        E 182 84 3e 00
        E 12 94 3e 55
        E 182 84 3e 00
        E 10 94 3e 42
        E 182 84 3e 00
        E 12 94 3e 4a
        E 182 84 3e 00
        E 6 94 3e 3b
        E 237 84 3e 00
        E 16 94 3e 3b
        E 128 84 3e 00
        E 8 94 3c 3b
        E 274 84 3c 00
        E 11 94 3c 3b
        E 274 84 3c 00
        E 19 94 3c 5d
        E 182 84 3c 00
        E 9 94 3c 47
        E 182 84 3c 00
        E 5 94 3c 53
        E 182 84 3c 00
        E 11 94 3c 4a
        E 182 84 3c 00
        E 10 94 3c 5a
        E 182 84 3c 00
        E 12 94 3c 51
        E 182 84 3c 00
        E 7 94 3c 5a
        E 182 84 3c 00
        E 7 94 3c 53
        E 182 84 3c 00
        E 18 94 3c 5d
        E 182 84 3c 00
        E 7 94 3c 51
        E 182 84 3c 00
        E 7 94 3c 58
        E 182 84 3c 00
        E 9 94 3c 4c
        E 182 84 3c 00
        E 18 94 3c 51
        E 182 84 3c 00
        E 11 94 3c 47
        E 182 84 3c 00
        E 1 94 3c 4a
        E 182 84 3c 00
        E 14 94 3c 3b
        E 237 84 3c 00
        E 17 94 3c 3b
        E 128 84 3c 00
        E 1 94 3c 3b
        E 274 84 3c 00
        E 12 94 3c 3b
        E 274 84 3c 00
        E 19 94 3c 5d
        E 182 84 3c 00
        E 7 94 3c 42
        E 182 84 3c 00
        E 11 94 3c 51
        E 182 84 3c 00
        E 8 94 3c 4a
        E 182 84 3c 00
        E 8 94 3c 55
        E 182 84 3c 00
        E 14 94 3c 51
        E 182 84 3c 00
        E 5 94 3c 58
        E 182 84 3c 00
        E 19 94 3c 55
        E 182 84 3c 00
        E 7 94 3c 5a
        E 182 84 3c 00
        E 10 94 3c 4a
        E 182 84 3c 00
        E 11 94 3c 55
        E 182 84 3c 00
        E 6 94 3c 45
        E 182 84 3c 00
        E 12 94 3c 55
        E 182 84 3c 00
        E 7 94 3c 47
        E 182 84 3c 00
        E 18 94 3c 4a
        E 182 84 3c 00
        E 2 94 3c 3b
        E 237 84 3c 00
        E 16 94 3c 3b
        E 128 84 3c 00
        E 5 94 33 3b
        E 274 84 33 00
        E 14 94 33 3b
        E 274 84 33 00
        E 15 94 33 58
        E 182 84 33 00
        E 8 94 33 40
        E 182 84 33 00
        E 16 94 33 51
        E 182 84 33 00
        E 3 94 33 4c
        E 182 84 33 00
        E 16 94 33 58
        E 182 84 33 00
        E 11 94 33 51
        E 182 84 33 00
        E 4 94 33 5d
        E 182 84 33 00
        E 7 94 33 55
        E 182 84 33 00
        E 11 94 33 5d
        E 182 84 33 00
        E 12 94 33 51
        E 182 84 33 00
        E 13 94 33 58
        E 182 84 33 00
        E 6 94 33 4a
        E 182 84 33 00
        E 9 94 33 51
        E 182 84 33 00
        E 12 94 33 42
        E 182 84 33 00
        E 15 94 33 4a
        E 182 84 33 00
        E 12 94 33 3b
        E 237 84 33 00
        E 5 94 33 3b
        E 128 84 33 00
        E 8 94 3e 3b
        E 274 84 3e 00
        E 12 94 3e 3b
        E 274 84 3e 00
        E 15 94 3e 5d
        E 182 84 3e 00
        E 8 94 3e 42
        E 182 84 3e 00
        E 12 94 3e 51
        E 182 84 3e 00
        E 14 94 3e 45
        E 182 84 3e 00
        E 7 94 3e 53
        E 182 84 3e 00
        E 12 94 3e 4c
        E 182 84 3e 00
        E 5 94 3e 5d
        E 182 84 3e 00
        E 10 94 3e 51
        E 182 84 3e 00
        E 15 94 3e 58
        E 182 84 3e 00
        E 11 94 3e 4a
        E 182 84 3e 00
        E 10 94 3e 53
        E 182 84 3e 00
        E 4 94 3e 4c
        E 182 84 3e 00
        E 10 94 3e 53
        E 182 84 3e 00
        E 13 94 3e 47
        E 182 84 3e 00
        E 8 94 3e 4c
        E 182 84 3e 00
        E 12 94 3e 3b
        E 237 84 3e 00
        E 15 94 3e 3b
        E 128 84 3e 00
        E 5 94 3c 3b
        E 274 84 3c 00
        E 11 94 3c 3b
        E 274 84 3c 00
        E 21 94 3c 5a
        E 182 84 3c 00
        E 8 94 3c 40
        E 182 84 3c 00
        E 9 94 3c 55
        E 182 84 3c 00
        E 5 94 3c 4c
        E 182 84 3c 00
        E 15 94 3c 5a
        E 182 84 3c 00
        E 9 94 3c 4c
        E 182 84 3c 00
        E 10 94 3c 58
        E 182 84 3c 00
        E 7 94 3c 55
        E 182 84 3c 00
        E 17 94 3c 5d
        E 182 84 3c 00
        E 2 94 3c 51
        E 182 84 3c 00
        E 17 94 3c 58
        E 182 84 3c 00
        E 9 94 3c 4a
        E 182 84 3c 00
        E 5 94 3c 4e
        E 182 84 3c 00
        E 14 94 3c 42
        E 182 84 3c 00
        E 13 94 3c 4e
        E 182 84 3c 00
        E 8 94 3c 3b
        E 237 84 3c 00
        E 9 94 3c 3b
        E 128 84 3c 00
        E 11 94 3c 3b
        E 274 84 3c 00
        E 9 94 3c 3b
        E 274 84 3c 00
        E 16 94 3c 58
        E 182 84 3c 00
        E 6 94 3c 42
        E 182 84 3c 00
        E 13 94 3c 4e
        E 182 84 3c 00
        E 15 94 3c 4c
        E 182 84 3c 00
        E 9 94 3c 58
        E 182 84 3c 00
        E 3 94 3c 4c
        E 182 84 3c 00
        E 16 94 3c 5f
        E 182 84 3c 00
        E 4 94 3c 55
        E 182 84 3c 00
        E 10 94 3c 58
        E 182 84 3c 00
        E 18 94 3c 51
        E 182 84 3c 00
        E 7 94 3c 58
        E 182 84 3c 00
        E 12 94 3c 45
        E 182 84 3c 00
        E 11 94 3c 51
        E 182 84 3c 00
        E 4 94 3c 42
        E 182 84 3c 00
        E 9 94 3c 4e
        E 182 84 3c 00
        E 9 94 3c 3b
        E 237 84 3c 00
        E 21 94 3c 3b
        E 126 94 33 3b
        E 2 84 3c 00
        E 272 84 33 00
        E 16 94 33 3b
        E 274 84 33 00
        E 17 94 33 5f
        E 182 84 33 00
        E 7 94 33 45
        E 182 84 33 00
        E 14 94 33 4e
        E 182 84 33 00
        E 4 94 33 4c
        E 182 84 33 00
        E 18 94 33 58
        E 182 84 33 00
        E 8 94 33 51
        E 182 84 33 00
        E 7 94 33 5d
        E 182 84 33 00
        E 11 94 33 51
        E 182 84 33 00
        E 10 94 33 5d
        E 182 84 33 00
        E 13 94 33 51
        E 182 84 33 00
        E 10 94 33 55
        E 182 84 33 00
        E 2 94 33 45
        E 182 84 33 00
        E 19 94 33 55
        E 182 84 33 00
        E 6 94 33 40
        E 182 84 33 00
        E 14 94 33 4a
        E 182 84 33 00
        E 4 94 33 3b
        E 237 84 33 00
        E 13 94 33 3b
        E 128 84 33 00
        E 7 94 3e 3b
        E 274 84 3e 00
        E 18 94 3e 3b
        E 274 84 3e 00
        E 13 94 3e 5a
        E 182 84 3e 00
        E 12 94 3e 40
        E 182 84 3e 00
        E 5 94 3e 55
        E 182 84 3e 00
        E 12 94 3e 4a
        E 182 84 3e 00
        E 13 94 3e 53
        E 182 84 3e 00
        E 3 94 3e 51
        E 182 84 3e 00
        E 15 94 3e 5d
        E 182 84 3e 00
        E 8 94 3e 55
        E 182 84 3e 00
        E 9 94 3e 5a
        E 182 84 3e 00
        E 14 94 3e 4e
        E 182 84 3e 00
        E 2 94 3e 55
        E 182 84 3e 00
        E 13 94 3e 45
        E 182 84 3e 00
        E 12 94 3e 53
        E 182 84 3e 00
        E 13 94 3e 42
        E 182 84 3e 00
        E 8 94 3e 4c
        E 182 84 3e 00
        E 11 94 3e 3b
        E 237 84 3e 00
        E 9 94 3e 3b
        E 128 84 3e 00
        E 12 94 3c 3b
        E 274 84 3c 00
        E 10 94 3c 3b
        E 274 84 3c 00
        E 10 94 3c 5f
        E 182 84 3c 00
        E 16 94 3c 42
        E 182 84 3c 00
        E 11 94 3c 51
        E 182 84 3c 00
        E 8 94 3c 4a
        E 182 84 3c 00
        E 8 94 3c 55
        E 182 84 3c 00
        E 14 94 3c 51
        E 182 84 3c 00
        E 6 94 3c 5d
        E 182 84 3c 00
        E 16 94 3c 51
        E 182 84 3c 00
        E 3 94 3c 5f
        E 182 84 3c 00
        E 12 94 3c 51
        E 182 84 3c 00
        E 15 94 3c 58
        E 182 84 3c 00
        E 4 94 3c 4a
        E 182 84 3c 00
        E 12 94 3c 53
        E 182 84 3c 00
        E 6 94 3c 42
        E 182 84 3c 00
        E 13 94 3c 51
        E 182 84 3c 00
        E 14 94 3c 3b
        E 237 84 3c 00
        E 4 94 3c 3b
        E 128 84 3c 00
        E 13 94 3c 3b
        E 274 84 3c 00
        E 15 94 3c 3b
        E 274 84 3c 00
        E 10 94 3c 58
        E 182 84 3c 00
        E 10 94 3c 42
        E 182 84 3c 00
        E 16 94 3c 51
        E 182 84 3c 00
        E 4 94 3c 47
        E 182 84 3c 00
        E 12 94 3c 58
        E 182 84 3c 00
        E 10 94 3c 4c
        E 182 84 3c 00
        E 7 94 3c 5d
        E 182 84 3c 00
        E 12 94 3c 51
        E 182 84 3c 00
        E 13 94 3c 58
        E 182 84 3c 00
        E 7 94 3c 51
        E 182 84 3c 00
        E 13 94 3c 58
        E 182 84 3c 00
        E 8 94 3c 45
        E 182 84 3c 00
        E 10 94 3c 4e
        E 182 84 3c 00
        E 12 94 3c 45
        E 182 84 3c 00
        E 4 94 3c 4e
        E 182 84 3c 00
        E 16 94 3c 3b
        E 237 84 3c 00
        E 8 94 3c 3b
        E 128 84 3c 00
        E 9 94 3b 3b
        E 274 84 3b 00
        E 15 94 3b 3b
        E 274 84 3b 00
        E 8 94 3b 5f
        E 182 84 3b 00
        E 15 94 3b 47
        E 182 84 3b 00
        E 6 94 3b 51
        E 182 84 3b 00
        E 15 94 3b 4a
        E 182 84 3b 00
        E 9 94 3b 55
        E 182 84 3b 00
        E 11 94 3b 4c
        E 182 84 3b 00
        E 8 94 3b 5d
        E 182 84 3b 00
        E 10 94 3b 51
        E 182 84 3b 00
        E 9 94 3b 5f
        E 182 84 3b 00
        E 8 94 3b 51
        E 182 84 3b 00
        E 590 94 3b 45
        E 182 84 3b 00
        E 1356 94 3e 40
        E 182 84 3e 00
        E 967 94 3e 55
        E 182 84 3e 00
        E 779 94 3e 4e
        E 182 84 3e 00
        E 199 94 3e 4c
        E 182 84 3e 00
        E 977 94 3c 5d
        E 182 84 3c 00
        E 390 94 3c 4c
        E 182 84 3c 00
        E 197 94 3c 4c
        E 182 84 3c 00
        E 395 94 3c 58
        E 182 84 3c 00
        E 968 94 3c 4e
        E 182 84 3c 00
        E 401 94 3c 3b
        E 274 84 3c 00
        E 1066 94 3c 58
        E 182 84 3c 00
        E 11 94 3c 51
        E 182 84 3c 00
        E 393 94 3c 5a
        E 182 84 3c 00
        E 9 94 3c 51
        E 182 84 3c 00
        E 12 94 3c 58
        E 182 84 3c 00
        E 204 94 3c 53
        E 182 84 3c 00
        E 394 94 3c 3b
        E 237 84 3c 00
        E 7 94 3c 3b
        E 128 84 3c 00
        E 301 94 33 3b
        E 274 84 33 00
        E 10 94 33 5d
        E 182 84 33 00
        E 969 94 33 5a
        E 182 84 33 00
        E 12 94 33 51
        E 182 84 33 00
        E 1158 94 33 4e
        E 182 84 33 00
        E 690 94 3e 3b
        E 274 84 3e 00
        E 15 94 3e 5d
        E 182 84 3e 00
        E 585 94 3e 58
        E 182 84 3e 00
        E 770 94 3e 51
        E 182 84 3e 00
        E 977 94 3e 3b
        E 237 84 3e 00
        E 0 b4 7b 00
        E 1 ff 2f 00
      >
    >
  >
  <TRACK
    NAME "Oboe"
    PEAKCOL 4282040170
    VOLPAN 1.000000 0 1 -1
    MIDIOUT -1
    ISBUS 0 0
    <ITEM
      POSITION 10.292106
      LENGTH 72.101874
      NAME "Oboe"
      VOLPAN 1 0 1 -1
      <SOURCE MIDI
        HASDATA 1 960 QN
        E 0 c5 44 00
        E 11527 95 4b 76
        E 3840 85 4b 00
        E 7674 95 48 6d
        E 3840 85 48 00
        E 3843 95 4e 6d
        E 3840 85 4e 00
        E 7 95 54 72
        E 3840 85 54 00
        E 3838 95 53 6b
        E 3838 95 4e 72
        E 2 85 53 00
        E 3838 85 4e 00
        E 3838 95 54 6b
        E 3840 85 54 00
        E 0 95 4f 70
        E 3840 85 4f 00
        E 3841 95 4f 6b
        E 3840 85 4f 00
        E 3 95 4f 6b
        E 3840 85 4f 00
        E 3838 95 4a 77
        E 3839 95 4f 6b
        E 1 85 4a 00
        E 3839 85 4f 00
        E 3843 95 53 74
        E 3840 85 53 00
        E 0 b5 7b 00
        E 1 ff 2f 00
      >
    >
  >
  <TRACK
    NAME "Choir"
    PEAKCOL 4284506208
    VOLPAN 1.000000 0 1 -1
    MIDIOUT -1
    ISBUS 0 0
    <ITEM
      POSITION 0.009162
      LENGTH 92.405760
      NAME "Choir"
      VOLPAN 1 0 1 -1
      <SOURCE MIDI
        HASDATA 1 960 QN
        E 0 c6 34 00
        E 10 96 3f 76
        E 6 96 32 72
        E 3527 86 3f 00
        E 6 86 32 00
        E 321 96 33 77
        E 3533 86 33 00
        E 289 96 42 72
        E 4 96 38 76
        E 3529 86 42 00
        E 4 86 38 00
        E 298 96 3c 70
        E 7 96 37 77
        E 3526 86 3c 00
        E 7 86 37 00
        E 296 96 3c 70
        E 16 96 32 76
        E 3517 86 3c 00
        E 16 86 32 00
        E 311 96 33 74
        E 3533 86 33 00
        E 287 96 3e 74
        E 5 96 42 72
        E 5 96 38 72
        E 3 96 32 76
        E 3520 86 3e 00
        E 5 86 42 00
        E 5 86 38 00
        E 3 86 32 00
        E 293 96 3c 74
        E 6 96 3f 76
        E 11 96 32 77
        E 2 96 37 70
        E 3514 86 3c 00
        E 6 86 3f 00
        E 11 86 32 00
        E 2 86 37 00
        E 287 96 3c 72
        E 9 96 3f 72
        E 2 96 37 72
        E 13 96 32 74
        E 3509 86 3c 00
        E 9 86 3f 00
        E 2 86 37 00
        E 13 86 32 00
        E 283 96 3e 79
        E 11 96 42 70
        E 3 96 3b 70
        E 1 96 32 70
        E 3518 86 3e 00
        E 11 86 42 00
        E 3 86 3b 00
        E 1 86 32 00
        E 293 96 3e 76
        E 11 96 42 79
        E 4 96 32 70
        E 0 96 38 76
        E 3518 86 3e 00
        E 11 86 42 00
        E 4 86 32 00
        E 0 86 38 00
        E 296 96 3f 79
        E 1 96 3c 72
        E 10 96 32 70
        E 3 96 37 76
        E 3519 86 3f 00
        E 1 86 3c 00
        E 10 86 32 00
        E 3 86 37 00
        E 290 96 3c 70
        E 10 96 3f 77
        E 5 96 37 79
        E 9 96 32 70
        E 3509 86 3c 00
        E 10 86 3f 00
        E 5 86 37 00
        E 9 86 32 00
        E 280 96 3f 76
        E 13 96 3b 72
        E 1 96 37 76
        E 6 96 33 72
        E 3513 86 3f 00
        E 13 86 3b 00
        E 1 86 37 00
        E 6 86 33 00
        E 291 96 3e 72
        E 8 96 42 72
        E 4 96 38 76
        E 8 96 32 74
        E 3513 86 3e 00
        E 8 86 42 00
        E 4 86 38 00
        E 8 86 32 00
        E 288 96 3c 76
        E 6 96 3f 77
        E 7 96 37 79
        E 2 96 32 76
        E 3518 86 3c 00
        E 6 86 3f 00
        E 7 86 37 00
        E 2 86 32 00
        E 288 96 3c 72
        E 10 96 3f 70
        E 5 96 37 76
        E 11 96 32 74
        E 3507 86 3c 00
        E 10 86 3f 00
        E 5 86 37 00
        E 11 86 32 00
        E 281 96 3f 74
        E 5 96 37 79
        E 15 96 3b 79
        E 8 96 33 72
        E 3505 86 3f 00
        E 5 86 37 00
        E 15 86 3b 00
        E 8 86 33 00
        E 283 96 3e 74
        E 2 96 42 79
        E 9 96 32 79
        E 0 96 38 77
        E 3522 86 3e 00
        E 2 86 42 00
        E 9 86 32 00
        E 0 86 38 00
        E 294 96 3c 77
        E 5 96 3f 79
        E 13 96 37 70
        E 3 96 32 72
        E 3512 86 3c 00
        E 5 86 3f 00
        E 13 86 37 00
        E 3 86 32 00
        E 290 96 3c 74
        E 3 96 3f 74
        E 11 96 37 76
        E 5 96 32 72
        E 3514 86 3c 00
        E 3 86 3f 00
        E 11 86 37 00
        E 5 86 32 00
        E 289 96 3e 74
        E 5 96 42 77
        E 2 96 3b 72
        E 8 96 32 74
        E 3518 86 3e 00
        E 5 86 42 00
        E 2 86 3b 00
        E 8 86 32 00
        E 297 96 38 72
        E 6 96 32 77
        E 3527 86 38 00
        E 6 86 32 00
        E 11821 96 42 77
        E 7 96 38 79
        E 3526 86 42 00
        E 7 86 38 00
        E 0 b6 7b 00
        E 1 ff 2f 00
      >
    >
  >
  <TRACK
    NAME "Bass"
    PEAKCOL 4286528191
    VOLPAN 1.000000 0 1 -1
    MIDIOUT -1
    ISBUS 0 0
    <ITEM
      POSITION 0.005082
      LENGTH 92.673415
      NAME "Bass"
      VOLPAN 1 0 1 -1
      <SOURCE MIDI
        HASDATA 1 960 QN
        E 0 c7 2b 00
        E 6 97 24 7d
        E 3840 87 24 00
        E 1 97 27 7d
        E 3838 97 26 7d
        E 2 87 27 00
        E 3835 97 24 7d
        E 3 87 26 00
        E 3837 87 24 00
        E 6 97 24 7d
        E 3839 97 27 7d
        E 1 87 24 00
        E 3836 97 26 7d
        E 3 87 27 00
        E 3836 97 24 7d
        E 1 87 26 00
        E 3838 97 24 7d
        E 1 87 24 00
        E 3839 87 24 00
        E 2 97 26 7d
        E 3840 87 26 00
        E 1 97 26 7d
        E 3840 87 26 00
        E 4 97 2b 7d
        E 3839 97 30 7d
        E 1 87 2b 00
        E 3839 87 30 00
        E 0 97 33 7d
        E 3836 97 37 7d
        E 4 87 33 00
        E 3835 97 37 7d
        E 1 87 37 00
        E 3837 97 37 7d
        E 2 87 37 00
        E 3838 87 37 00
        E 1 97 33 7d
        E 3840 87 33 00
        E 0 97 37 7d
        E 3840 87 37 00
        E 2 97 37 7d
        E 3840 87 37 00
        E 6 97 37 7d
        E 3831 97 32 7d
        E 9 87 37 00
        E 3831 87 32 00
        E 6 97 2c 7d
        E 3838 97 2b 7d
        E 2 87 2c 00
        E 3838 87 2b 00
        E 4 97 2b 7d
        E 3837 97 27 7d
        E 3 87 2b 00
        E 3837 87 27 00
        E 2 97 26 7d
        E 3840 87 26 00
        E 0 b7 7b 00
        E 1 ff 2f 00
      >
    >
  >
>
