<REAPER_PROJECT 0.1 "7.0" 1700000000
  TEMPO 108.000000 4 4
  SAMPLERATE 48000 0 0
  RENDER_FILE ""
  RENDER_FMT 0 2 0
  RENDER_1X 0
  RENDER_RANGE 1 0 101.542114 0 0
  RENDER_RESAMPLE 3 0 1
  <MASTERTRACK
    VOLPAN 1 0 1 -1
    DEFCHAN 0
  >
  <TRACK
    NAME "Lead"
    PEAKCOL 4284506208
    VOLPAN 1.000000 0 1 -1
    MIDIOUT -1
    ISBUS 0 0
    <ITEM
      POSITION 0.000000
      LENGTH 71.291665
      NAME "Lead"
      VOLPAN 1 0 1 -1
      <SOURCE MIDI
        HASDATA 1 960 QN
        E 0 c0 28 00
        E 0 90 52 47
        E 866 80 52 00
        E 72 90 51 3e
        E 879 80 51 00
        E 52 90 52 47
        E 920 90 56 32
        E 232 80 52 00
        E 149 80 56 00
        E 565 90 57 35
        E 783 80 57 00
        E 98 90 51 2e
        E 380 80 51 00
        E 563 90 54 3e
        E 621 80 54 00
        E 546 90 51 39
        E 348 90 4f 42
        E 201 80 51 00
        E 37 80 4f 00
        E 115 90 4d 3a
        E 729 80 4d 00
        E 427 90 4d 49
        E 227 80 4d 00
        E 473 90 4a 4c
        E 693 90 4b 38
        E 109 80 4a 00
        E 129 80 4b 00
        E 456 90 4f 26
        E 182 80 4f 00
        E 971 90 4e 3d
        E 349 90 4f 39
        E 247 80 4f 00
        E 108 90 54 52
        E 97 80 4e 00
        E 708 80 54 00
        E 113 90 52 4c
        E 820 80 52 00
        E 113 90 52 5b
        E 740 80 52 00
        E 164 90 4f 4f
        E 732 80 4f 00
        E 195 90 52 47
        E 927 90 4e 32
        E 391 80 4e 00
        E 17 80 52 00
        E 557 90 51 4d
        E 397 80 51 00
        E 56 90 51 44
        E 759 80 51 00
        E 160 90 51 51
        E 782 80 51 00
        E 161 90 4f 49
        E 736 80 4f 00
        E 638 90 4f 41
        E 700 80 4f 00
        E 936 90 54 47
        E 456 80 54 00
        E 237 90 52 3c
        E 217 80 52 00
        E 693 90 4f 56
        E 959 90 4e 4a
        E 173 80 4f 00
        E 621 80 4e 00
        E 567 90 51 4f
        E 480 90 4f 56
        E 280 80 51 00
        E 406 90 52 59
        E 85 80 4f 00
        E 499 80 52 00
        E 353 90 51 37
        E 182 80 51 00
        E 730 90 4f 4f
        E 718 90 4d 4d
        E 1 80 4f 00
        E 428 80 4d 00
        E 495 90 4b 4a
        E 473 80 4b 00
        E 442 90 4a 47
        E 413 80 4a 00
        E 500 90 4d 54
        E 396 80 4d 00
        E 92 90 4c 47
        E 814 80 4c 00
        E 213 90 51 57
        E 428 90 52 52
        E 234 80 52 00
        E 129 80 51 00
        E 51 90 55 44
        E 769 80 55 00
        E 614 90 56 4e
        E 175 90 54 4e
        E 179 90 50 4d
        E 54 80 54 00
        E 130 90 4f 4c
        E 28 80 56 00
        E 24 80 50 00
        E 126 90 4b 4e
        E 59 80 4f 00
        E 134 90 4a 62
        E 37 80 4b 00
        E 411 90 4b 5d
        E 240 80 4b 00
        E 148 80 4a 00
        E 70 90 4f 4f
        E 899 80 4f 00
        E 167 90 4d 4f
        E 810 90 4f 4c
        E 19 80 4d 00
        E 452 90 4f 3e
        E 239 80 4f 00
        E 103 80 4f 00
        E 103 90 55 29
        E 195 80 55 00
        E 757 90 53 49
        E 798 80 53 00
        E 380 90 51 4e
        E 665 90 51 54
        E 154 80 51 00
        E 542 80 51 00
        E 242 90 4f 54
        E 724 80 4f 00
        E 202 90 4d 4e
        E 662 80 4d 00
        E 161 90 4f 54
        E 110 90 4d 5b
        E 778 80 4f 00
        E 67 80 4d 00
        E 72 90 49 4e
        E 531 90 47 44
        E 238 80 47 00
        E 65 80 49 00
        E 203 90 4c 43
        E 740 80 4c 00
        E 74 90 49 47
        E 192 80 49 00
        E 726 90 50 56
        E 622 80 50 00
        E 305 90 4d 39
        E 179 80 4d 00
        E 769 90 53 51
        E 528 80 53 00
        E 375 90 56 56
        E 884 80 56 00
        E 289 90 4c 49
        E 694 90 4f 2d
        E 178 80 4c 00
        E 23 80 4f 00
        E 743 90 55 4f
        E 715 80 55 00
        E 189 90 57 59
        E 775 80 57 00
        E 146 90 53 54
        E 826 80 53 00
        E 122 90 4c 4c
        E 810 80 4c 00
        E 127 90 4b 4e
        E 699 80 4b 00
        E 216 90 48 3c
        E 842 80 48 00
        E 562 90 53 4f
        E 446 90 51 51
        E 371 80 53 00
        E 313 90 4d 41
        E 93 80 51 00
        E 291 80 4d 00
        E 784 90 50 52
        E 792 80 50 00
        E 133 90 4f 5d
        E 791 80 4f 00
        E 382 90 59 48
        E 688 90 4d 47
        E 735 80 4d 00
        E 241 80 59 00
        E 65 90 51 52
        E 705 80 51 00
        E 95 90 4f 59
        E 869 80 4f 00
        E 74 90 50 61
        E 776 80 50 00
        E 158 90 4b 48
        E 843 80 4b 00
        E 69 90 49 3f
        E 459 90 4c 2d
        E 126 80 49 00
        E 278 80 4c 00
        E 1003 90 54 47
        E 755 80 54 00
        E 148 90 55 43
        E 695 80 55 00
        E 255 90 53 4d
        E 356 80 53 00
        E 115 90 51 4a
        E 243 80 51 00
        E 211 90 4d 4e
        E 850 80 4d 00
        E 68 90 52 57
        E 397 80 52 00
        E 70 90 51 52
        E 231 80 51 00
        E 243 90 54 4e
        E 780 80 54 00
        E 154 90 53 37
        E 750 80 53 00
        E 633 90 50 5c
        E 797 80 50 00
        E 246 90 55 48
        E 748 80 55 00
        E 53 90 4c 59
        E 524 80 4c 00
        E 422 90 4b 34
        E 355 80 4b 00
        E 546 90 4c 41
        E 442 80 4c 00
        E 1317 90 52 52
        E 198 80 52 00
        E 368 90 4e 4e
        E 400 80 4e 00
        E 672 90 4f 54
        E 781 80 4f 00
        E 244 90 4b 47
        E 399 80 4b 00
        E 515 90 48 46
        E 403 80 48 00
        E 790 90 50 44
        E 175 80 50 00
        E 1208 90 4c 53
        E 917 80 4c 00
        E 15 90 4b 4f
        E 443 90 4d 59
        E 251 80 4d 00
        E 220 90 4d 4f
        E 253 80 4b 00
        E 559 80 4d 00
        E 113 90 4c 54
        E 758 80 4c 00
        E 169 90 4f 41
        E 802 80 4f 00
        E 578 90 51 51
        E 247 90 4c 47
        E 166 80 51 00
        E 61 90 56 47
        E 1 80 4c 00
        E 217 90 54 48
        E 148 80 56 00
        E 84 80 54 00
        E 8 90 4f 47
        E 232 90 4d 49
        E 18 80 4f 00
        E 218 90 4b 53
        E 4 80 4d 00
        E 224 90 4b 48
        E 22 80 4b 00
        E 516 80 4b 00
        E 162 90 4b 4e
        E 903 80 4b 00
        E 26 90 4b 5c
        E 349 90 4b 4c
        E 243 80 4b 00
        E 101 90 50 4e
        E 85 80 4b 00
        E 321 80 50 00
        E 284 90 4c 5b
        E 597 80 4c 00
        E 322 90 4c 54
        E 732 80 4c 00
        E 195 90 4f 54
        E 598 80 4f 00
        E 355 90 4c 51
        E 853 80 4c 00
        E 64 90 4d 4c
        E 1045 80 4d 00
        E 129 90 4f 3f
        E 937 80 4f 00
        E 438 90 4f 30
        E 400 80 4f 00
        E 556 90 55 47
        E 385 80 55 00
        E 518 90 4c 54
        E 408 80 4c 00
        E 518 90 4b 53
        E 406 80 4b 00
        E 523 90 53 66
        E 847 80 53 00
        E 75 90 55 6a
        E 718 80 55 00
        E 222 90 4f 5e
        E 531 80 4f 00
        E 513 90 4b 66
        E 351 90 4b 61
        E 494 80 4b 00
        E 423 90 4e 61
        E 22 80 4b 00
        E 893 90 4e 65
        E 706 80 4e 00
        E 76 80 4e 00
        E 165 90 50 67
        E 747 80 50 00
        E 283 90 4f 6a
        E 810 80 4f 00
        E 14 90 57 63
        E 764 80 57 00
        E 161 90 4b 54
        E 695 80 4b 00
        E 246 90 4b 48
        E 352 80 4b 00
        E 0 b0 7b 00
        E 1 ff 2f 00
      >
    >
  >
  <TRACK
    NAME "Strings"
    PEAKCOL 4284186559
    VOLPAN 1.000000 0 1 -1
    MIDIOUT -1
    ISBUS 0 0
    <ITEM
      POSITION 0.000000
      LENGTH 71.252554
      NAME "Strings"
      VOLPAN 1 0 1 -1
      <SOURCE MIDI
        HASDATA 1 960 QN
        E 0 c1 30 00
        E 0 91 41 26
        E 5 91 3d 13
        E 1796 81 41 00
        E 108 91 32 26
        E 23 91 3f 23
        E 68 81 3d 00
        E 1834 81 32 00
        E 11 91 3e 26
        E 88 81 3f 00
        E 1837 91 3e 1b
        E 11 91 3e 16
        E 42 81 3e 00
        E 1806 81 3e 00
        E 167 81 3e 00
        E 1790 91 3f 1b
        E 27 91 3f 23
        E 1 91 3f 19
        E 1814 81 3f 00
        E 66 81 3f 00
        E 111 81 3f 00
        E 3745 91 3e 26
        E 1979 81 3e 00
        E 3781 91 3c 34
        E 19 91 3f 34
        E 2 91 3c 34
        E 2 91 3c 34
        E 1709 81 3c 00
        E 134 81 3c 00
        E 19 81 3f 00
        E 43 81 3c 00
        E 13 91 3f 34
        E 1900 91 40 2a
        E 230 81 3f 00
        E 1735 81 40 00
        E 1871 91 32 30
        E 24 91 3e 2f
        E 1895 91 3d 39
        E 26 91 3c 34
        E 61 81 32 00
        E 121 81 3e 00
        E 1548 81 3d 00
        E 170 91 3c 32
        E 11 91 34 29
        E 83 81 3c 00
        E 1802 81 34 00
        E 66 81 3c 00
        E 1899 91 31 38
        E 1870 81 31 00
        E 34 91 3c 37
        E 6 91 3d 32
        E 1867 81 3c 00
        E 41 81 3d 00
        E 26 91 3c 39
        E 1887 81 3c 00
        E 5 91 3e 32
        E 10 91 3e 30
        E 1836 81 3e 00
        E 122 81 3e 00
        E 1895 91 3d 33
        E 1901 81 3d 00
        E 14 91 35 32
        E 1875 81 35 00
        E 25 91 40 42
        E 5 91 31 43
        E 2 91 3b 43
        E 2 91 3c 32
        E 5 91 34 4e
        E 1 91 3d 3d
        E 3 91 41 43
        E 5 91 41 43
        E 1820 81 3d 00
        E 26 81 34 00
        E 4 81 3b 00
        E 5 81 31 00
        E 36 91 33 46
        E 5 91 3f 47
        E 9 91 3e 44
        E 3 81 40 00
        E 1 91 32 42
        E 2 81 3c 00
        E 2 91 37 5b
        E 6 91 32 42
        E 5 91 33 3e
        E 6 91 3f 42
        E 65 81 41 00
        E 8 81 41 00
        E 1586 81 33 00
        E 183 81 32 00
        E 4 81 33 00
        E 42 81 3f 00
        E 7 91 3f 30
        E 8 91 3f 24
        E 2 91 3f 2b
        E 3 91 3e 35
        E 2 91 3e 2e
        E 1 91 3e 2a
        E 1 91 40 1d
        E 1 91 3f 37
        E 11 81 37 00
        E 2 81 32 00
        E 70 81 3e 00
        E 27 81 3f 00
        E 1627 81 3e 00
        E 62 81 3f 00
        E 44 81 3f 00
        E 7 81 40 00
        E 10 81 3e 00
        E 28 81 3f 00
        E 1 81 3f 00
        E 3 91 3f 4d
        E 4 91 3e 42
        E 6 91 3e 43
        E 4 91 32 44
        E 3 91 3f 46
        E 2 91 33 3c
        E 3 91 3e 43
        E 3 91 3f 4d
        E 29 81 3e 00
        E 1700 81 3e 00
        E 54 81 3f 00
        E 87 81 3f 00
        E 25 81 3e 00
        E 5 91 3d 38
        E 7 91 3b 47
        E 2 91 3c 4c
        E 5 91 3c 4c
        E 1 91 3b 46
        E 0 91 3b 4e
        E 1 91 3f 39
        E 2 91 34 46
        E 49 81 3e 00
        E 40 81 32 00
        E 24 81 33 00
        E 111 81 3f 00
        E 1535 81 34 00
        E 83 81 3d 00
        E 25 81 3f 00
        E 2 81 3c 00
        E 31 81 3c 00
        E 5 91 3e 46
        E 6 91 3f 44
        E 2 91 33 46
        E 3 91 33 43
        E 2 91 32 47
        E 7 91 32 47
        E 2 91 32 47
        E 2 91 32 44
        E 59 81 3b 00
        E 44 81 3b 00
        E 25 81 3b 00
        E 1605 81 3e 00
        E 45 81 33 00
        E 86 81 3f 00
        E 21 81 32 00
        E 10 91 3b 3d
        E 2 91 3b 49
        E 0 91 3b 37
        E 5 81 32 00
        E 1 91 3b 38
        E 0 91 2f 41
        E 8 91 30 33
        E 3 91 41 24
        E 5 91 3b 49
        E 16 81 32 00
        E 29 81 32 00
        E 23 81 33 00
        E 1708 81 3b 00
        E 116 81 41 00
        E 0 91 3c 35
        E 6 91 40 4e
        E 2 81 2f 00
        E 2 91 34 34
        E 0 91 35 2f
        E 0 91 31 3a
        E 2 91 3d 3c
        E 4 91 33 43
        E 1 81 3b 00
        E 3 91 40 4e
        E 18 81 3b 00
        E 69 81 3b 00
        E 77 81 30 00
        E 23 81 3b 00
        E 1512 81 35 00
        E 95 81 3d 00
        E 24 81 33 00
        E 37 81 40 00
        E 49 91 3e 43
        E 8 91 3f 39
        E 3 91 32 3d
        E 1 91 3e 3e
        E 5 91 3f 39
        E 1 91 3e 3a
        E 3 91 32 3d
        E 1 91 3d 39
        E 3 81 3c 00
        E 17 81 31 00
        E 47 81 40 00
        E 109 81 34 00
        E 1667 81 3e 00
        E 17 81 3d 00
        E 25 81 3f 00
        E 7 81 3e 00
        E 7 91 3c 48
        E 7 91 31 52
        E 2 91 36 4e
        E 4 91 40 39
        E 1 91 3d 4a
        E 5 91 30 46
        E 6 91 3c 48
        E 1 91 3c 48
        E 3 81 32 00
        E 12 81 3f 00
        E 23 81 32 00
        E 26 81 3e 00
        E 1639 81 3c 00
        E 22 81 31 00
        E 41 81 40 00
        E 70 81 3c 00
        E 59 91 3f 34
        E 8 91 33 34
        E 3 91 32 2b
        E 2 91 3e 29
        E 2 91 32 2d
        E 0 91 3e 30
        E 3 91 3f 2b
        E 7 91 32 2b
        E 35 81 3d 00
        E 14 81 36 00
        E 1 81 30 00
        E 70 81 3c 00
        E 1547 81 32 00
        E 32 81 32 00
        E 34 81 32 00
        E 116 81 33 00
        E 38 91 3f 46
        E 6 91 3e 3d
        E 3 91 3b 3c
        E 0 91 3f 46
        E 7 91 33 46
        E 0 91 3e 42
        E 5 91 3f 42
        E 4 81 3e 00
        E 5 91 3f 3c
        E 9 81 3f 00
        E 124 81 3f 00
        E 83 81 3e 00
        E 1431 81 33 00
        E 111 81 3f 00
        E 19 81 3f 00
        E 82 81 3e 00
        E 36 91 3e 46
        E 1 91 3e 3a
        E 4 91 3f 3e
        E 3 91 3f 3d
        E 1 81 3f 00
        E 1 91 32 46
        E 5 91 3f 42
        E 1 91 3e 4a
        E 1 91 3e 44
        E 68 81 3e 00
        E 8 81 3b 00
        E 57 81 3f 00
        E 1632 81 3e 00
        E 18 81 32 00
        E 54 81 3f 00
        E 17 81 3f 00
        E 49 91 40 4c
        E 3 81 3e 00
        E 0 91 3f 47
        E 4 91 3f 4c
        E 2 91 38 35
        E 2 91 3b 4f
        E 1 91 3f 3a
        E 1 91 3a 42
        E 5 91 37 3d
        E 90 81 3e 00
        E 26 81 3e 00
        E 11 81 3f 00
        E 1685 81 3f 00
        E 18 81 3f 00
        E 16 81 38 00
        E 4 81 3b 00
        E 25 81 3f 00
        E 25 91 3c 3e
        E 6 91 3d 3e
        E 8 91 39 34
        E 1 91 39 38
        E 2 91 3b 41
        E 6 91 3c 3e
        E 1 91 32 30
        E 2 91 3b 41
        E 13 81 3a 00
        E 6 81 40 00
        E 19 81 37 00
        E 1768 81 3c 00
        E 62 81 39 00
        E 5 81 32 00
        E 17 81 3d 00
        E 0 91 3b 3c
        E 10 91 41 49
        E 3 91 31 3d
        E 4 91 3c 43
        E 2 91 3c 3a
        E 0 91 3b 3c
        E 0 91 41 41
        E 7 81 39 00
        E 2 91 3c 2a
        E 102 81 3b 00
        E 19 81 3c 00
        E 39 81 3b 00
        E 1656 81 3c 00
        E 2 81 41 00
        E 31 81 3c 00
        E 40 91 3e 44
        E 7 91 32 43
        E 2 91 3f 43
        E 1 91 32 43
        E 9 91 33 47
        E 1 91 33 3c
        E 6 81 3b 00
        E 6 91 33 3d
        E 1 91 3e 44
        E 9 81 3c 00
        E 54 81 3b 00
        E 24 81 31 00
        E 21 81 41 00
        E 1689 81 3e 00
        E 7 81 32 00
        E 15 81 33 00
        E 11 81 32 00
        E 32 81 33 00
        E 26 91 3c 49
        E 8 91 3c 4e
        E 8 91 3c 41
        E 2 91 3c 4e
        E 3 91 41 3e
        E 1 91 40 52
        E 3 91 3b 4d
        E 5 91 40 42
        E 59 81 3e 00
        E 7 81 3f 00
        E 119 81 33 00
        E 1647 81 3c 00
        E 9 81 3c 00
        E 14 81 3c 00
        E 12 81 41 00
        E 37 91 3f 4c
        E 1 91 3e 46
        E 2 91 3f 3e
        E 5 91 3e 38
        E 2 81 40 00
        E 3 91 3e 39
        E 3 91 32 3d
        E 4 91 3e 35
        E 5 91 32 3d
        E 62 81 3b 00
        E 30 81 3c 00
        E 42 81 40 00
        E 1628 81 3f 00
        E 7 81 32 00
        E 70 81 3e 00
        E 40 91 3c 2f
        E 3 81 3e 00
        E 6 91 3b 2e
        E 2 81 3e 00
        E 7 91 3d 30
        E 4 91 3b 2e
        E 3 91 3c 2b
        E 2 91 3b 2d
        E 7 91 3c 2d
        E 4 91 3c 2f
        E 1 81 32 00
        E 72 81 3e 00
        E 28 81 3f 00
        E 1692 81 3b 00
        E 58 81 3b 00
        E 19 81 3c 00
        E 30 91 41 37
        E 2 91 3d 22
        E 2 91 3c 2e
        E 2 91 3d 34
        E 2 91 3b 2f
        E 0 91 3c 30
        E 1 91 3c 30
        E 2 81 3c 00
        E 0 91 31 2a
        E 2 81 3d 00
        E 15 81 3c 00
        E 23 81 3c 00
        E 37 81 3b 00
        E 1722 81 3b 00
        E 44 81 3d 00
        E 22 81 41 00
        E 0 81 3d 00
        E 36 91 31 3a
        E 1 91 3b 34
        E 4 91 2f 2e
        E 3 91 31 34
        E 1 91 3e 35
        E 1 91 3c 34
        E 0 91 3c 2d
        E 5 91 3c 32
        E 3 81 31 00
        E 31 81 3c 00
        E 11 81 3c 00
        E 3 81 3c 00
        E 1810 81 3e 00
        E 3 81 3c 00
        E 8 81 3c 00
        E 17 81 2f 00
        E 7 81 3c 00
        E 17 91 3a 3e
        E 3 91 30 3c
        E 0 91 3b 3d
        E 2 91 3c 35
        E 0 91 3b 3d
        E 6 91 3c 29
        E 1 91 3b 34
        E 2 91 3c 35
        E 49 81 31 00
        E 18 81 3b 00
        E 72 81 31 00
        E 1615 81 3a 00
        E 52 81 30 00
        E 68 81 3b 00
        E 25 91 41 2b
        E 1 91 40 34
        E 4 91 40 34
        E 4 81 3c 00
        E 4 91 41 2b
        E 4 81 3b 00
        E 1 91 3c 32
        E 1 91 3c 34
        E 3 91 3c 34
        E 0 91 3c 30
        E 31 81 3b 00
        E 6 81 3c 00
        E 134 81 3c 00
        E 1493 81 41 00
        E 166 81 3c 00
        E 76 91 33 3e
        E 3 91 3b 35
        E 1 91 3e 23
        E 0 91 3c 2a
        E 2 91 32 2d
        E 9 81 40 00
        E 1 91 39 30
        E 0 91 3a 2f
        E 3 91 39 30
        E 54 81 40 00
        E 36 81 3c 00
        E 5 81 3c 00
        E 18 81 41 00
        E 40 81 3c 00
        E 1664 81 3e 00
        E 4 81 33 00
        E 69 91 3f 39
        E 1 91 3e 38
        E 9 91 3f 39
        E 3 91 32 37
        E 9 91 3a 30
        E 2 91 3e 38
        E 5 91 3e 38
        E 1 91 3e 34
        E 26 81 39 00
        E 30 81 3c 00
        E 9 81 3a 00
        E 4 81 3b 00
        E 38 81 32 00
        E 75 81 39 00
        E 1603 81 3f 00
        E 29 81 3a 00
        E 14 81 3e 00
        E 12 81 3e 00
        E 54 91 3e 3c
        E 6 91 3e 3c
        E 1 91 31 3d
        E 3 91 3e 34
        E 3 91 3e 28
        E 1 91 3e 2d
        E 6 91 3f 34
        E 6 81 32 00
        E 8 91 3f 20
        E 20 81 3f 00
        E 61 81 3e 00
        E 8 81 3e 00
        E 1684 81 3e 00
        E 24 81 3e 00
        E 47 81 3f 00
        E 35 81 3e 00
        E 14 91 3f 29
        E 3 91 3d 33
        E 1 91 33 26
        E 1 91 3e 2e
        E 1 91 3f 29
        E 1 91 3e 25
        E 2 91 3e 2e
        E 1 81 3e 00
        E 9 91 3e 23
        E 54 81 3f 00
        E 66 81 3e 00
        E 10 81 31 00
        E 1625 81 3f 00
        E 82 81 3d 00
        E 40 81 33 00
        E 0 81 3e 00
        E 17 91 33 3f
        E 1 91 3e 3d
        E 0 91 3e 35
        E 2 91 3e 39
        E 1 91 3f 3d
        E 5 91 3d 48
        E 6 91 3e 35
        E 2 91 3c 34
        E 43 81 3e 00
        E 40 81 3f 00
        E 12 81 3e 00
        E 54 81 3e 00
        E 1620 81 3f 00
        E 16 81 3e 00
        E 48 81 3e 00
        E 87 81 3e 00
        E 4 81 33 00
        E 49 81 3e 00
        E 42 81 3d 00
        E 27 81 3c 00
        E 3715 91 40 37
        E 9 91 3f 37
        E 1790 81 40 00
        E 13 81 3f 00
        E 99 91 41 42
        E 1979 81 41 00
        E 1854 91 33 44
        E 1799 81 33 00
        E 133 91 3d 4e
        E 1848 81 3d 00
        E 73 91 32 4f
        E 1907 91 32 4e
        E 11 91 3f 4d
        E 11 91 3e 3a
        E 79 81 32 00
        E 1862 81 32 00
        E 26 81 3e 00
        E 14 81 3f 00
        E 0 b1 7b 00
        E 1 ff 2f 00
      >
    >
  >
  <TRACK
    NAME "Violin1"
    PEAKCOL 4284186559
    VOLPAN 1.000000 0 1 -1
    MIDIOUT -1
    ISBUS 0 0
    <ITEM
      POSITION 5.570367
      LENGTH 69.025783
      NAME "Violin1"
      VOLPAN 1 0 1 -1
      <SOURCE MIDI
        HASDATA 1 960 QN
        E 0 c2 28 00
        E 9626 92 4f 2d
        E 1860 82 4f 00
        E 1962 92 48 41
        E 1998 82 48 00
        E 5711 92 44 43
        E 1983 82 44 00
        E 1812 92 49 43
        E 1953 82 49 00
        E 1 92 49 47
        E 2081 82 49 00
        E 1751 92 49 4a
        E 1893 82 49 00
        E 15 92 4d 4d
        E 1938 92 4d 47
        E 75 82 4d 00
        E 1824 92 4e 3c
        E 67 82 4d 00
        E 1754 82 4e 00
        E 123 92 4d 43
        E 1908 92 48 49
        E 82 82 4d 00
        E 1837 92 51 52
        E 69 82 48 00
        E 1721 82 51 00
        E 138 92 54 4e
        E 1897 92 49 3e
        E 37 82 54 00
        E 1882 82 49 00
        E 3 92 4d 4c
        E 1825 82 4d 00
        E 112 92 51 5d
        E 1913 92 4f 5e
        E 146 82 51 00
        E 1733 82 4f 00
        E 51 92 56 3e
        E 1920 92 56 56
        E 49 82 56 00
        E 1859 92 4c 5b
        E 153 82 56 00
        E 1645 82 4c 00
        E 121 92 4c 5d
        E 1905 92 4f 5d
        E 66 82 4c 00
        E 1878 92 49 43
        E 198 82 4f 00
        E 1651 82 49 00
        E 63 92 56 51
        E 1900 82 56 00
        E 14 92 47 57
        E 1815 82 47 00
        E 116 92 3e 47
        E 1919 92 41 53
        E 15 82 3e 00
        E 1933 92 3f 58
        E 17 82 41 00
        E 1865 82 3f 00
        E 15 92 42 59
        E 1883 92 3e 5e
        E 152 82 42 00
        E 1778 92 43 5c
        E 37 82 3e 00
        E 1841 82 43 00
        E 58 92 3f 49
        E 1916 92 4c 56
        E 130 82 3f 00
        E 1792 92 4e 48
        E 63 82 4c 00
        E 1889 92 4d 5b
        E 34 82 4e 00
        E 1831 82 4d 00
        E 57 92 4c 42
        E 1869 82 4c 00
        E 36 92 55 3a
        E 1913 92 53 47
        E 55 82 55 00
        E 1810 82 53 00
        E 54 92 57 4a
        E 1950 92 62 41
        E 85 82 57 00
        E 1792 92 65 41
        E 87 82 62 00
        E 1846 92 5f 3e
        E 79 82 65 00
        E 1828 82 5f 00
        E 22 92 57 42
        E 1930 92 56 4f
        E 61 82 57 00
        E 1810 82 56 00
        E 22 92 57 4e
        E 1860 82 57 00
        E 53 92 60 41
        E 2016 82 60 00
        E 3751 92 59 59
        E 1927 82 59 00
        E 3823 92 58 49
        E 1977 82 58 00
        E 5718 92 4b 54
        E 1997 82 4b 00
        E 0 b2 7b 00
        E 1 ff 2f 00
      >
    >
  >
  <TRACK
    NAME "Horns"
    PEAKCOL 4290740026
    VOLPAN 1.000000 0 1 -1
    MIDIOUT -1
    ISBUS 0 0
    <ITEM
      POSITION 28.444775
      LENGTH 70.147162
      NAME "Horns"
      VOLPAN 1 0 1 -1
      <SOURCE MIDI
        HASDATA 1 960 QN
        E 0 c3 3c 00
        E 49153 93 3c 43
        E 1936 93 2e 4a
        E 18 83 3c 00
        E 1923 93 3c 4a
        E 16 83 2e 00
        E 1908 83 3c 00
        E 1885 93 32 47
        E 1918 93 34 4a
        E 31 83 32 00
        E 1854 83 34 00
        E 39 93 30 42
        E 1925 83 30 00
        E 1918 93 3d 4a
        E 1821 83 3d 00
        E 91 93 30 4a
        E 1886 83 30 00
        E 44 93 34 44
        E 1928 83 34 00
        E 1912 93 33 44
        E 1912 93 2f 46
        E 1 83 33 00
        E 1920 93 24 46
        E 41 83 2f 00
        E 1857 83 24 00
        E 1963 93 29 4d
        E 1860 83 29 00
        E 50 93 25 4c
        E 1892 83 25 00
        E 21 93 26 48
        E 1985 83 26 00
        E 1851 93 1d 47
        E 1930 93 18 44
        E 17 83 1d 00
        E 1903 93 1d 49
        E 34 83 18 00
        E 1884 83 1d 00
        E 1917 93 0b 43
        E 1863 83 0b 00
        E 62 93 26 4d
        E 1910 93 14 41
        E 52 83 26 00
        E 1829 83 14 00
        E 1976 93 1a 42
        E 1928 83 1a 00
        E 5 93 27 41
        E 1899 93 29 41
        E 33 83 27 00
        E 1851 83 29 00
        E 1961 93 28 58
        E 1919 83 28 00
        E 17 93 34 58
        E 1893 93 32 54
        E 32 83 34 00
        E 1874 83 32 00
        E 1952 93 28 58
        E 1882 83 28 00
        E 19 93 28 57
        E 1921 93 26 59
        E 3 83 28 00
        E 1908 83 26 00
        E 1941 93 30 58
        E 1914 93 28 49
        E 40 83 30 00
        E 1859 83 28 00
        E 32 93 27 4a
        E 1947 83 27 00
        E 1875 93 2b 47
        E 1922 93 2b 59
        E 57 83 2b 00
        E 1875 93 27 54
        E 23 83 2b 00
        E 1860 83 27 00
        E 1937 93 1f 54
        E 1907 83 1f 00
        E 31 93 27 58
        E 1908 93 29 51
        E 17 83 27 00
        E 1951 83 29 00
        E 1884 93 27 56
        E 1907 93 21 58
        E 77 83 27 00
        E 1840 83 21 00
        E 33 93 1f 46
        E 1938 83 1f 00
        E 1884 93 20 51
        E 1892 83 20 00
        E 10 93 1f 54
        E 1917 83 1f 00
        E 6 93 27 54
        E 1866 83 27 00
        E 1981 93 29 56
        E 1914 83 29 00
        E 12 93 2c 59
        E 1917 93 32 54
        E 56 83 2c 00
        E 1931 83 32 00
        E 0 b3 7b 00
        E 1 ff 2f 00
      >
    >
  >
  <TRACK
    NAME "Brass"
    PEAKCOL 4290740026
    VOLPAN 1.000000 0 1 -1
    MIDIOUT -1
    ISBUS 0 0
    <ITEM
      POSITION 49.774411
      LENGTH 21.416056
      NAME "Brass"
      VOLPAN 1 0 1 -1
      <SOURCE MIDI
        HASDATA 1 960 QN
        E 0 c4 3d 00
        E 86010 94 4f 52
        E 12 94 43 5c
        E 7 94 43 5c
        E 4 94 42 4f
        E 1 94 44 5b
        E 1113 84 4f 00
        E 17 84 44 00
        E 12 84 43 00
        E 15 84 42 00
        E 1 84 43 00
        E 981 94 52 57
        E 19 94 41 4e
        E 2 94 44 52
        E 0 94 44 4e
        E 13 94 42 4f
        E 1085 84 44 00
        E 18 84 52 00
        E 40 84 44 00
        E 3 84 41 00
        E 20 84 42 00
        E 974 94 46 53
        E 6 94 44 42
        E 0 94 51 4a
        E 3 94 43 4a
        E 1 94 43 4a
        E 1111 84 43 00
        E 21 84 51 00
        E 14 84 43 00
        E 25 84 46 00
        E 19 84 44 00
        E 940 94 52 5c
        E 5 94 3f 56
        E 7 94 43 52
        E 12 94 43 62
        E 0 94 40 48
        E 1129 84 52 00
        E 20 84 43 00
        E 2 84 40 00
        E 2 84 43 00
        E 9 84 3f 00
        E 986 94 51 62
        E 4 94 43 61
        E 0 94 43 51
        E 11 94 45 57
        E 2 94 44 4d
        E 1119 84 43 00
        E 3 84 51 00
        E 8 84 45 00
        E 55 84 44 00
        E 17 84 43 00
        E 943 94 52 5c
        E 2 94 43 5c
        E 0 94 46 5d
        E 5 94 45 53
        E 3 94 42 4e
        E 1134 84 45 00
        E 5 84 43 00
        E 4 84 46 00
        E 11 84 52 00
        E 84 84 42 00
        E 910 94 4f 59
        E 1 94 43 58
        E 7 94 43 5d
        E 7 94 43 54
        E 10 94 43 53
        E 1113 84 43 00
        E 6 84 43 00
        E 36 84 4f 00
        E 5 84 43 00
        E 41 84 43 00
        E 930 94 51 5d
        E 15 94 43 5c
        E 1 94 44 5c
        E 7 94 44 5c
        E 2 94 43 56
        E 1104 84 51 00
        E 13 84 43 00
        E 7 84 44 00
        E 9 84 44 00
        E 13 84 43 00
        E 993 94 45 66
        E 3 94 51 57
        E 4 94 45 57
        E 6 94 43 59
        E 2 94 43 4a
        E 1117 84 51 00
        E 20 84 43 00
        E 20 84 43 00
        E 2 84 45 00
        E 16 84 45 00
        E 970 94 51 5c
        E 6 94 45 5c
        E 6 94 3e 48
        E 0 94 45 58
        E 9 94 43 4e
        E 1114 84 51 00
        E 1 84 45 00
        E 30 84 45 00
        E 7 84 3e 00
        E 17 84 43 00
        E 973 94 52 65
        E 3 94 46 62
        E 3 94 43 57
        E 5 94 43 4f
        E 12 94 43 51
        E 1095 84 46 00
        E 42 84 43 00
        E 4 84 52 00
        E 14 84 43 00
        E 16 84 43 00
        E 970 94 52 62
        E 4 94 44 59
        E 0 94 43 58
        E 1 94 43 58
        E 8 94 42 4d
        E 1106 84 43 00
        E 10 84 44 00
        E 11 84 52 00
        E 1 84 42 00
        E 1 84 43 00
        E 1009 94 50 68
        E 13 94 43 67
        E 1 94 43 67
        E 1 94 44 66
        E 1 94 44 68
        E 1119 84 50 00
        E 12 84 43 00
        E 21 84 43 00
        E 18 84 44 00
        E 24 84 44 00
        E 958 94 43 6b
        E 3 94 42 63
        E 1 94 54 5b
        E 3 94 46 6d
        E 11 94 45 66
        E 1108 84 45 00
        E 23 84 54 00
        E 1 84 42 00
        E 39 84 46 00
        E 36 84 43 00
        E 927 94 50 6d
        E 5 94 43 66
        E 2 94 44 6a
        E 11 94 43 68
        E 6 94 43 65
        E 1104 84 44 00
        E 20 84 43 00
        E 8 84 50 00
        E 5 84 43 00
        E 3 84 43 00
        E 992 94 51 61
        E 0 94 43 61
        E 11 94 45 6c
        E 4 94 43 72
        E 0 94 46 65
        E 1107 84 43 00
        E 17 84 51 00
        E 1 84 45 00
        E 29 84 43 00
        E 12 84 46 00
        E 990 94 50 63
        E 5 94 43 67
        E 8 94 43 66
        E 5 94 44 62
        E 1 94 43 67
        E 1109 84 43 00
        E 41 84 43 00
        E 19 84 50 00
        E 5 84 44 00
        E 26 84 43 00
        E 929 94 43 68
        E 4 94 43 68
        E 13 94 43 65
        E 0 94 43 6d
        E 12 94 4f 5d
        E 56 84 43 00
        E 4 84 43 00
        E 15 84 43 00
        E 2 84 43 00
        E 6 84 4f 00
        E 0 b4 7b 00
        E 1 ff 2f 00
      >
    >
  >
  <TRACK
    NAME "Bass"
    PEAKCOL 4286528191
    VOLPAN 1.000000 0 1 -1
    MIDIOUT -1
    ISBUS 0 0
    <ITEM
      POSITION 0.000000
      LENGTH 71.161245
      NAME "Bass"
      VOLPAN 1 0 1 -1
      <SOURCE MIDI
        HASDATA 1 960 QN
        E 0 c5 2b 00
        E 0 95 25 35
        E 854 85 25 00
        E 111 95 26 3a
        E 843 85 26 00
        E 112 95 25 30
        E 870 85 25 00
        E 91 95 2a 37
        E 866 85 2a 00
        E 96 95 30 3f
        E 864 85 30 00
        E 93 95 35 3e
        E 857 85 35 00
        E 107 95 30 3e
        E 858 85 30 00
        E 96 95 2b 2d
        E 882 85 2b 00
        E 82 95 30 3a
        E 877 85 30 00
        E 84 95 35 3c
        E 859 85 35 00
        E 99 95 31 37
        E 862 85 31 00
        E 96 95 33 34
        E 856 85 33 00
        E 113 95 30 34
        E 867 85 30 00
        E 86 95 33 49
        E 855 85 33 00
        E 105 95 33 48
        E 841 85 33 00
        E 123 95 31 3c
        E 869 85 31 00
        E 89 95 32 4d
        E 843 85 32 00
        E 113 95 32 46
        E 861 85 32 00
        E 106 95 30 47
        E 870 85 30 00
        E 79 95 2d 4e
        E 881 85 2d 00
        E 87 95 32 4f
        E 883 85 32 00
        E 77 95 30 47
        E 870 85 30 00
        E 90 95 30 47
        E 860 85 30 00
        E 95 95 32 43
        E 864 85 32 00
        E 98 95 30 47
        E 874 85 30 00
        E 87 95 30 47
        E 867 85 30 00
        E 93 95 30 49
        E 868 85 30 00
        E 90 95 32 47
        E 851 85 32 00
        E 116 95 30 4a
        E 879 85 30 00
        E 79 95 34 48
        E 862 85 34 00
        E 96 95 33 48
        E 860 85 33 00
        E 101 95 2e 4d
        E 866 85 2e 00
        E 95 95 33 44
        E 862 85 33 00
        E 92 95 30 3d
        E 849 85 30 00
        E 113 95 30 47
        E 863 85 30 00
        E 103 95 30 47
        E 868 85 30 00
        E 87 95 32 4e
        E 860 85 32 00
        E 103 95 35 49
        E 854 85 35 00
        E 107 95 30 49
        E 852 85 30 00
        E 101 95 34 4d
        E 894 85 34 00
        E 67 95 30 48
        E 881 85 30 00
        E 83 95 34 4c
        E 862 85 34 00
        E 93 95 31 47
        E 877 85 31 00
        E 85 95 30 47
        E 854 85 30 00
        E 112 95 31 4d
        E 865 85 31 00
        E 99 95 2b 47
        E 855 85 2b 00
        E 97 95 34 4a
        E 861 85 34 00
        E 102 95 31 4d
        E 876 85 31 00
        E 75 95 33 4f
        E 880 85 33 00
        E 90 95 30 48
        E 861 85 30 00
        E 91 95 30 43
        E 870 85 30 00
        E 92 95 34 4c
        E 863 85 34 00
        E 109 95 30 58
        E 859 85 30 00
        E 88 95 34 56
        E 865 85 34 00
        E 95 95 2f 5c
        E 876 85 2f 00
        E 82 95 2c 5d
        E 871 85 2c 00
        E 93 95 31 47
        E 858 85 31 00
        E 103 95 2c 5d
        E 865 85 2c 00
        E 98 95 30 5c
        E 867 85 30 00
        E 83 95 34 53
        E 870 85 34 00
        E 95 95 30 61
        E 854 85 30 00
        E 109 95 30 51
        E 866 85 30 00
        E 93 95 2f 58
        E 836 85 2f 00
        E 121 95 2f 56
        E 866 85 2f 00
        E 98 95 30 5d
        E 861 85 30 00
        E 99 95 2e 5b
        E 848 85 2e 00
        E 110 95 32 5c
        E 863 85 32 00
        E 99 95 28 4e
        E 872 85 28 00
        E 84 95 31 59
        E 870 85 31 00
        E 93 95 36 59
        E 876 85 36 00
        E 83 95 36 56
        E 862 85 36 00
        E 104 95 35 56
        E 869 85 35 00
        E 85 95 32 4f
        E 863 85 32 00
        E 97 95 33 62
        E 844 85 33 00
        E 116 95 30 61
        E 862 85 30 00
        E 101 95 29 56
        E 841 85 29 00
        E 119 95 30 58
        E 852 85 30 00
        E 108 95 30 59
        E 867 85 30 00
        E 90 95 30 5b
        E 866 85 30 00
        E 93 95 2f 59
        E 858 85 2f 00
        E 106 95 30 5b
        E 863 85 30 00
        E 87 95 33 56
        E 848 85 33 00
        E 128 95 32 5e
        E 840 85 32 00
        E 116 95 28 57
        E 858 85 28 00
        E 103 95 30 58
        E 863 85 30 00
        E 93 95 31 52
        E 854 85 31 00
        E 104 95 30 59
        E 853 85 30 00
        E 109 95 30 53
        E 864 85 30 00
        E 94 95 30 48
        E 858 85 30 00
        E 105 95 31 58
        E 875 85 31 00
        E 77 95 33 54
        E 881 85 33 00
        E 82 95 34 56
        E 867 85 34 00
        E 96 95 32 48
        E 861 85 32 00
        E 100 95 34 51
        E 861 85 34 00
        E 96 95 2f 4c
        E 884 85 2f 00
        E 78 95 35 54
        E 865 85 35 00
        E 98 95 30 41
        E 882 85 30 00
        E 76 95 34 4e
        E 846 85 34 00
        E 107 95 30 4e
        E 844 85 30 00
        E 124 95 2c 52
        E 861 85 2c 00
        E 98 95 32 46
        E 855 85 32 00
        E 102 95 35 4a
        E 871 85 35 00
        E 91 95 35 51
        E 866 85 35 00
        E 94 95 2c 49
        E 858 85 2c 00
        E 109 95 32 46
        E 879 85 32 00
        E 73 95 33 4e
        E 854 85 33 00
        E 106 95 33 46
        E 875 85 33 00
        E 92 95 34 57
        E 879 85 34 00
        E 73 95 30 59
        E 861 85 30 00
        E 105 95 28 52
        E 869 85 28 00
        E 87 95 31 52
        E 859 85 31 00
        E 98 95 32 4d
        E 876 85 32 00
        E 87 95 32 4e
        E 869 85 32 00
        E 93 95 27 4d
        E 861 85 27 00
        E 95 95 31 53
        E 867 85 31 00
        E 100 95 32 4a
        E 875 85 32 00
        E 78 95 32 62
        E 879 85 32 00
        E 79 95 30 5e
        E 864 85 30 00
        E 100 95 32 6a
        E 875 85 32 00
        E 80 95 30 5c
        E 859 85 30 00
        E 104 95 34 61
        E 862 85 34 00
        E 96 95 31 54
        E 855 85 31 00
        E 105 95 32 60
        E 867 85 32 00
        E 91 95 2a 5d
        E 856 85 2a 00
        E 115 95 32 66
        E 864 85 32 00
        E 90 95 33 62
        E 852 85 33 00
        E 105 95 32 68
        E 855 85 32 00
        E 111 95 26 5d
        E 870 85 26 00
        E 0 b5 7b 00
        E 1 ff 2f 00
      >
    >
  >
  <TRACK
    NAME "Pedal"
    PEAKCOL 4284506208
    VOLPAN 1.000000 0 1 -1
    MIDIOUT -1
    ISBUS 0 0
    <ITEM
      POSITION 0.000000
      LENGTH 71.191801
      NAME "Pedal"
      VOLPAN 1 0 1 -1
      <SOURCE MIDI
        HASDATA 1 960 QN
        E 0 c6 2b 00
        E 0 96 10 26
        E 3841 96 13 23
        E 25 86 10 00
        E 3813 86 13 00
        E 1 96 13 23
        E 3837 86 13 00
        E 6 96 0e 24
        E 3834 96 0c 38
        E 18 86 0e 00
        E 3812 86 0c 00
        E 10 96 0d 35
        E 3822 86 0d 00
        E 20 96 0e 2f
        E 3836 96 0e 35
        E 22 86 0e 00
        E 3808 86 0e 00
        E 13 96 0c 30
        E 3804 86 0c 00
        E 39 96 0d 32
        E 3835 96 0d 30
        E 10 86 0d 00
        E 3822 86 0d 00
        E 14 96 0d 2f
        E 3836 96 0c 33
        E 27 86 0d 00
        E 3804 86 0c 00
        E 12 96 0e 44
        E 3843 96 0d 34
        E 4 86 0e 00
        E 3831 96 0e 43
        E 47 86 0d 00
        E 3755 86 0e 00
        E 43 96 0c 44
        E 3832 96 0d 43
        E 7 86 0c 00
        E 3829 86 0d 00
        E 4 96 0c 41
        E 3812 86 0c 00
        E 31 96 0c 43
        E 3834 86 0c 00
        E 7 96 0e 44
        E 3839 96 0d 46
        E 12 86 0e 00
        E 3819 86 0d 00
        E 14 96 0c 37
        E 3792 86 0c 00
        E 46 96 0d 32
        E 3845 96 0d 32
        E 35 86 0d 00
        E 3780 86 0d 00
        E 22 96 0d 32
        E 3837 96 0d 37
        E 2 86 0d 00
        E 3766 86 0d 00
        E 72 96 0d 3c
        E 3841 86 0d 00
        E 2 96 0e 35
        E 3783 86 0e 00
        E 56 96 0d 4f
        E 3842 96 0d 4f
        E 10 86 0d 00
        E 3822 96 0c 47
        E 49 86 0d 00
        E 3761 86 0c 00
        E 0 b6 7b 00
        E 1 ff 2f 00
      >
    >
  >
  <TRACK
    NAME "Glock"
    PEAKCOL 4290756410
    VOLPAN 1.000000 0 1 -1
    MIDIOUT -1
    ISBUS 0 0
    <ITEM
      POSITION 6.945356
      LENGTH 70.263092
      NAME "Glock"
      VOLPAN 1 0 1 -1
      <SOURCE MIDI
        HASDATA 1 960 QN
        E 0 c7 09 00
        E 12002 97 69 2d
        E 292 87 69 00
        E 669 97 68 38
        E 286 87 68 00
        E 1633 97 65 3e
        E 290 87 65 00
        E 669 97 6a 3e
        E 289 87 6a 00
        E 189 97 67 3e
        E 289 87 67 00
        E 672 97 68 42
        E 291 87 68 00
        E 188 97 67 3c
        E 293 87 67 00
        E 1151 97 65 30
        E 294 87 65 00
        E 1142 97 69 35
        E 283 87 69 00
        E 1641 97 64 37
        E 289 87 64 00
        E 1143 97 68 41
        E 289 87 68 00
        E 197 97 68 39
        E 287 87 68 00
        E 192 97 65 35
        E 285 87 65 00
        E 190 97 66 39
        E 292 87 66 00
        E 193 97 69 42
        E 289 87 69 00
        E 194 97 65 34
        E 285 87 65 00
        E 197 97 68 42
        E 289 87 68 00
        E 186 97 66 3d
        E 285 87 66 00
        E 190 97 65 43
        E 290 87 65 00
        E 199 97 68 3f
        E 297 87 68 00
        E 181 97 67 43
        E 283 87 67 00
        E 198 97 67 38
        E 290 87 67 00
        E 184 97 66 3e
        E 295 87 66 00
        E 187 97 65 35
        E 292 87 65 00
        E 189 97 65 2f
        E 283 87 65 00
        E 200 97 65 2e
        E 286 87 65 00
        E 185 97 66 2a
        E 286 87 66 00
        E 197 97 67 38
        E 290 87 67 00
        E 193 97 68 3d
        E 284 87 68 00
        E 196 97 68 37
        E 289 87 68 00
        E 191 97 68 38
        E 289 87 68 00
        E 187 97 66 3a
        E 290 87 66 00
        E 196 97 67 41
        E 285 87 67 00
        E 187 97 66 42
        E 289 87 66 00
        E 200 97 66 3c
        E 290 87 66 00
        E 191 97 66 44
        E 291 87 66 00
        E 183 97 68 3f
        E 286 87 68 00
        E 197 97 68 43
        E 284 87 68 00
        E 195 97 67 41
        E 289 87 67 00
        E 189 97 65 39
        E 296 87 65 00
        E 189 97 67 39
        E 293 87 67 00
        E 183 97 6a 38
        E 291 87 6a 00
        E 188 97 65 34
        E 288 87 65 00
        E 191 97 69 2d
        E 290 87 69 00
        E 194 97 6a 3c
        E 288 87 6a 00
        E 194 97 69 34
        E 283 87 69 00
        E 191 97 6a 38
        E 288 87 6a 00
        E 191 97 69 3e
        E 285 87 69 00
        E 199 97 66 3a
        E 294 87 66 00
        E 184 97 67 43
        E 286 87 67 00
        E 202 97 65 3c
        E 292 87 65 00
        E 185 97 65 39
        E 285 87 65 00
        E 195 97 66 3a
        E 282 87 66 00
        E 197 97 65 3f
        E 289 87 65 00
        E 192 97 66 43
        E 293 87 66 00
        E 188 97 65 42
        E 288 87 65 00
        E 187 97 68 39
        E 284 87 68 00
        E 197 97 68 37
        E 286 87 68 00
        E 196 97 66 35
        E 285 87 66 00
        E 189 97 64 26
        E 286 87 64 00
        E 202 97 69 3c
        E 292 87 69 00
        E 184 97 67 34
        E 285 87 67 00
        E 200 97 65 3a
        E 294 87 65 00
        E 182 97 64 47
        E 289 87 64 00
        E 190 97 64 46
        E 294 87 64 00
        E 181 97 63 46
        E 286 87 63 00
        E 198 97 65 4e
        E 287 87 65 00
        E 192 97 65 4a
        E 289 87 65 00
        E 192 97 64 4e
        E 286 87 64 00
        E 200 97 65 47
        E 288 87 65 00
        E 185 97 64 4d
        E 287 87 64 00
        E 194 97 62 4d
        E 284 87 62 00
        E 200 97 63 3c
        E 295 87 63 00
        E 182 97 62 3e
        E 286 87 62 00
        E 191 97 63 43
        E 290 87 63 00
        E 190 97 63 30
        E 288 87 63 00
        E 199 97 63 47
        E 282 87 63 00
        E 196 97 68 49
        E 285 87 68 00
        E 193 97 62 42
        E 287 87 62 00
        E 192 97 63 43
        E 290 87 63 00
        E 190 97 64 4f
        E 290 87 64 00
        E 193 97 62 43
        E 286 87 62 00
        E 190 97 65 47
        E 292 87 65 00
        E 185 97 6a 4e
        E 285 87 6a 00
        E 200 97 64 49
        E 287 87 64 00
        E 196 97 64 4d
        E 287 87 64 00
        E 190 97 68 4c
        E 283 87 68 00
        E 194 97 67 4e
        E 292 87 67 00
        E 197 97 68 46
        E 284 87 68 00
        E 188 97 67 4d
        E 290 87 67 00
        E 188 97 66 42
        E 286 87 66 00
        E 197 97 65 43
        E 293 87 65 00
        E 186 97 64 3f
        E 288 87 64 00
        E 192 97 64 4d
        E 287 87 64 00
        E 197 97 64 46
        E 289 87 64 00
        E 186 97 65 49
        E 286 87 65 00
        E 197 97 64 4e
        E 289 87 64 00
        E 191 97 64 41
        E 291 87 64 00
        E 189 97 6f 48
        E 281 87 6f 00
        E 199 97 68 4a
        E 287 87 68 00
        E 193 97 67 4c
        E 284 87 67 00
        E 198 97 63 48
        E 287 87 63 00
        E 191 97 66 51
        E 280 87 66 00
        E 201 97 65 4d
        E 290 87 65 00
        E 186 97 65 4c
        E 291 87 65 00
        E 189 97 62 47
        E 293 87 62 00
        E 192 97 62 42
        E 287 87 62 00
        E 191 97 63 43
        E 290 87 63 00
        E 187 97 5c 3c
        E 288 87 5c 00
        E 195 97 67 48
        E 291 87 67 00
        E 189 97 61 3d
        E 285 87 61 00
        E 195 97 67 4e
        E 288 87 67 00
        E 189 97 67 4d
        E 290 87 67 00
        E 197 97 68 4c
        E 289 87 68 00
        E 185 97 68 4e
        E 281 87 68 00
        E 201 97 68 49
        E 291 87 68 00
        E 189 97 62 4d
        E 293 87 62 00
        E 189 97 68 48
        E 281 87 68 00
        E 194 97 67 4a
        E 288 87 67 00
        E 195 97 64 51
        E 279 87 64 00
        E 200 97 69 4f
        E 292 87 69 00
        E 189 97 65 48
        E 288 87 65 00
        E 195 97 64 47
        E 284 87 64 00
        E 198 97 65 3f
        E 293 87 65 00
        E 181 97 60 3f
        E 287 87 60 00
        E 193 97 65 38
        E 290 87 65 00
        E 193 97 6a 4f
        E 287 87 6a 00
        E 187 97 64 49
        E 283 87 64 00
        E 201 97 6a 4c
        E 284 87 6a 00
        E 197 97 64 4f
        E 287 87 64 00
        E 194 97 65 4a
        E 291 87 65 00
        E 185 97 62 48
        E 281 87 62 00
        E 200 97 68 4d
        E 294 87 68 00
        E 187 97 6e 44
        E 289 87 6e 00
        E 190 97 68 52
        E 287 87 68 00
        E 189 97 64 49
        E 287 87 64 00
        E 201 97 64 42
        E 289 87 64 00
        E 188 97 65 4e
        E 290 87 65 00
        E 192 97 64 4c
        E 288 87 64 00
        E 193 97 61 43
        E 285 87 61 00
        E 197 97 62 3a
        E 287 87 62 00
        E 189 97 65 38
        E 280 87 65 00
        E 194 97 63 2e
        E 287 87 63 00
        E 196 97 61 3c
        E 287 87 61 00
        E 194 97 63 42
        E 288 87 63 00
        E 187 97 64 47
        E 291 87 64 00
        E 195 97 64 3c
        E 291 87 64 00
        E 188 97 64 46
        E 286 87 64 00
        E 195 97 60 3e
        E 291 87 60 00
        E 188 97 62 47
        E 290 87 62 00
        E 190 97 62 49
        E 287 87 62 00
        E 186 97 65 43
        E 289 87 65 00
        E 203 97 61 3a
        E 286 87 61 00
        E 193 97 67 48
        E 294 87 67 00
        E 183 97 63 43
        E 293 87 63 00
        E 184 97 64 3d
        E 291 87 64 00
        E 191 97 64 3e
        E 288 87 64 00
        E 192 97 5f 3c
        E 286 87 5f 00
        E 196 97 60 3f
        E 287 87 60 00
        E 189 97 60 34
        E 287 87 60 00
        E 199 97 64 33
        E 289 87 64 00
        E 187 97 68 48
        E 284 87 68 00
        E 198 97 63 43
        E 289 87 63 00
        E 189 97 65 42
        E 289 87 65 00
        E 196 97 65 37
        E 293 87 65 00
        E 6424 97 63 42
        E 293 87 63 00
        E 183 97 5f 44
        E 290 87 5f 00
        E 674 97 64 3c
        E 287 87 64 00
        E 193 97 63 43
        E 283 87 63 00
        E 203 97 67 38
        E 285 87 67 00
        E 2110 97 5f 34
        E 290 87 5f 00
        E 2108 97 63 4d
        E 287 87 63 00
        E 676 97 5e 4f
        E 288 87 5e 00
        E 3553 97 66 4d
        E 290 87 66 00
        E 186 97 62 58
        E 289 87 62 00
        E 1152 97 6a 4a
        E 293 87 6a 00
        E 4024 97 62 4d
        E 291 87 62 00
        E 2590 97 68 51
        E 287 87 68 00
        E 1148 97 68 51
        E 284 87 68 00
        E 202 97 67 58
        E 289 87 67 00
        E 190 97 64 49
        E 287 87 64 00
        E 1636 97 65 4a
        E 281 87 65 00
        E 2599 97 67 52
        E 281 87 67 00
        E 0 b7 7b 00
        E 1 ff 2f 00
      >
    >
  >
  <TRACK
    NAME "Timpani"
    PEAKCOL 4290722362
    VOLPAN 1.000000 0 1 -1
    MIDIOUT -1
    ISBUS 0 0
    <ITEM
      POSITION 28.444781
      LENGTH 71.197332
      NAME "Timpani"
      VOLPAN 1 0 1 -1
      <SOURCE MIDI
        HASDATA 1 960 QN
        E 0 c8 2f 00
        E 49153 98 26 68
        E 95 88 26 00
        E 24 98 25 43
        E 97 88 25 00
        E 24 98 26 61
        E 98 88 26 00
        E 20 98 26 68
        E 96 88 26 00
        E 25 98 26 54
        E 97 88 26 00
        E 23 98 26 68
        E 97 88 26 00
        E 23 98 24 41
        E 95 88 24 00
        E 24 98 26 6a
        E 96 88 26 00
        E 25 98 25 60
        E 97 88 25 00
        E 23 98 26 65
        E 96 88 26 00
        E 24 98 26 61
        E 96 88 26 00
        E 24 98 25 5b
        E 95 88 25 00
        E 25 98 24 56
        E 96 88 24 00
        E 24 98 24 5b
        E 96 88 24 00
        E 24 98 24 49
        E 96 88 24 00
        E 24 98 26 68
        E 95 88 26 00
        E 25 98 26 62
        E 96 88 26 00
        E 24 98 24 5b
        E 96 88 24 00
        E 24 98 26 61
        E 96 88 26 00
        E 24 98 25 5b
        E 95 88 25 00
        E 25 98 26 65
        E 96 88 26 00
        E 24 98 25 54
        E 97 88 25 00
        E 23 98 25 54
        E 96 88 25 00
        E 24 98 26 67
        E 96 88 26 00
        E 24 98 24 4f
        E 97 88 24 00
        E 23 98 25 59
        E 96 88 25 00
        E 24 98 24 5c
        E 96 88 24 00
        E 24 98 26 62
        E 96 88 26 00
        E 24 98 26 67
        E 96 88 26 00
        E 24 98 26 66
        E 96 88 26 00
        E 24 98 25 5e
        E 96 88 25 00
        E 24 98 25 61
        E 95 88 25 00
        E 25 98 24 49
        E 96 88 24 00
        E 24 98 25 58
        E 95 88 25 00
        E 25 98 24 58
        E 98 88 24 00
        E 22 98 25 5d
        E 96 88 25 00
        E 24 98 24 62
        E 95 88 24 00
        E 25 98 24 66
        E 95 88 24 00
        E 26 98 25 5c
        E 98 88 25 00
        E 21 98 24 4c
        E 96 88 24 00
        E 25 98 24 51
        E 96 88 24 00
        E 23 98 24 6b
        E 95 88 24 00
        E 25 98 24 6e
        E 95 88 24 00
        E 25 98 24 71
        E 96 88 24 00
        E 24 98 24 6d
        E 96 88 24 00
        E 23 98 25 54
        E 95 88 25 00
        E 26 98 25 5c
        E 97 88 25 00
        E 23 98 24 60
        E 95 88 24 00
        E 24 98 24 4e
        E 96 88 24 00
        E 24 98 24 66
        E 96 88 24 00
        E 25 98 24 5e
        E 96 88 24 00
        E 24 98 24 61
        E 97 88 24 00
        E 23 98 24 6e
        E 96 88 24 00
        E 24 98 24 65
        E 97 88 24 00
        E 23 98 23 52
        E 96 88 23 00
        E 24 98 24 5d
        E 97 88 24 00
        E 23 98 23 58
        E 96 88 23 00
        E 24 98 24 54
        E 95 88 24 00
        E 25 98 24 65
        E 94 88 24 00
        E 26 98 24 6d
        E 97 88 24 00
        E 23 98 24 6c
        E 95 88 24 00
        E 26 98 25 52
        E 95 88 25 00
        E 24 98 25 54
        E 96 88 25 00
        E 24 98 25 54
        E 96 88 25 00
        E 24 98 24 4a
        E 96 88 24 00
        E 24 98 24 66
        E 95 88 24 00
        E 25 98 24 4e
        E 95 88 24 00
        E 25 98 23 5b
        E 95 88 23 00
        E 25 98 24 60
        E 96 88 24 00
        E 23 98 24 79
        E 96 88 24 00
        E 25 98 24 60
        E 96 88 24 00
        E 24 98 24 68
        E 97 88 24 00
        E 23 98 23 52
        E 95 88 23 00
        E 25 98 24 5e
        E 96 88 24 00
        E 24 98 24 68
        E 97 88 24 00
        E 23 98 24 75
        E 97 88 24 00
        E 23 98 24 70
        E 96 88 24 00
        E 24 98 24 6d
        E 97 88 24 00
        E 23 98 24 56
        E 95 88 24 00
        E 25 98 24 54
        E 97 88 24 00
        E 22 98 26 5e
        E 96 88 26 00
        E 25 98 24 5b
        E 97 88 24 00
        E 23 98 24 3f
        E 95 88 24 00
        E 25 98 26 61
        E 97 88 26 00
        E 23 98 26 62
        E 94 88 26 00
        E 27 98 26 6d
        E 96 88 26 00
        E 23 98 25 5e
        E 97 88 25 00
        E 23 98 25 54
        E 98 88 25 00
        E 21 98 25 4e
        E 96 88 25 00
        E 26 98 26 68
        E 94 88 26 00
        E 25 98 26 71
        E 97 88 26 00
        E 23 98 25 4f
        E 97 88 25 00
        E 23 98 26 68
        E 94 88 26 00
        E 26 98 26 63
        E 97 88 26 00
        E 23 98 24 51
        E 97 88 24 00
        E 23 98 27 4e
        E 96 88 27 00
        E 24 98 24 5b
        E 96 88 24 00
        E 24 98 24 51
        E 96 88 24 00
        E 23 98 24 5d
        E 96 88 24 00
        E 25 98 24 61
        E 94 88 24 00
        E 26 98 24 5c
        E 95 88 24 00
        E 25 98 23 54
        E 95 88 23 00
        E 25 98 24 70
        E 97 88 24 00
        E 23 98 24 75
        E 96 88 24 00
        E 24 98 24 63
        E 96 88 24 00
        E 24 98 24 6c
        E 97 88 24 00
        E 23 98 24 66
        E 97 88 24 00
        E 24 98 24 63
        E 96 88 24 00
        E 24 98 24 77
        E 96 88 24 00
        E 24 98 24 59
        E 96 88 24 00
        E 23 98 25 58
        E 96 88 25 00
        E 25 98 25 51
        E 96 88 25 00
        E 23 98 26 54
        E 96 88 26 00
        E 24 98 26 61
        E 97 88 26 00
        E 23 98 26 61
        E 96 88 26 00
        E 24 98 26 5d
        E 95 88 26 00
        E 25 98 26 63
        E 97 88 26 00
        E 23 98 26 56
        E 96 88 26 00
        E 25 98 26 58
        E 96 88 26 00
        E 23 98 26 5b
        E 95 88 26 00
        E 26 98 26 6a
        E 97 88 26 00
        E 22 98 26 60
        E 96 88 26 00
        E 25 98 26 4e
        E 96 88 26 00
        E 22 98 26 71
        E 97 88 26 00
        E 24 98 26 67
        E 95 88 26 00
        E 24 98 25 57
        E 98 88 25 00
        E 23 98 24 51
        E 96 88 24 00
        E 24 98 26 5c
        E 95 88 26 00
        E 25 98 25 4d
        E 96 88 25 00
        E 24 98 26 57
        E 96 88 26 00
        E 24 98 24 48
        E 97 88 24 00
        E 23 98 23 54
        E 96 88 23 00
        E 25 98 26 65
        E 96 88 26 00
        E 23 98 26 67
        E 96 88 26 00
        E 24 98 26 6c
        E 98 88 26 00
        E 22 98 26 5d
        E 96 88 26 00
        E 23 98 26 59
        E 95 88 26 00
        E 26 98 26 6c
        E 95 88 26 00
        E 24 98 24 47
        E 97 88 24 00
        E 24 98 26 59
        E 97 88 26 00
        E 23 98 26 72
        E 97 88 26 00
        E 22 98 26 65
        E 96 88 26 00
        E 26 98 26 68
        E 97 88 26 00
        E 22 98 25 5c
        E 96 88 25 00
        E 23 98 24 60
        E 96 88 24 00
        E 25 98 24 5e
        E 96 88 24 00
        E 24 98 25 53
        E 96 88 25 00
        E 24 98 24 5b
        E 96 88 24 00
        E 24 98 23 51
        E 95 88 23 00
        E 25 98 24 61
        E 97 88 24 00
        E 23 98 24 62
        E 97 88 24 00
        E 23 98 23 5b
        E 95 88 23 00
        E 25 98 24 5c
        E 97 88 24 00
        E 23 98 24 62
        E 96 88 24 00
        E 24 98 24 67
        E 97 88 24 00
        E 23 98 24 59
        E 96 88 24 00
        E 24 98 24 61
        E 97 88 24 00
        E 22 98 24 70
        E 96 88 24 00
        E 26 98 23 54
        E 96 88 23 00
        E 23 98 23 5d
        E 96 88 23 00
        E 25 98 26 6d
        E 96 88 26 00
        E 23 98 25 57
        E 95 88 25 00
        E 24 98 26 75
        E 96 88 26 00
        E 25 98 24 52
        E 96 88 24 00
        E 24 98 26 5d
        E 96 88 26 00
        E 25 98 26 61
        E 96 88 26 00
        E 23 98 26 68
        E 96 88 26 00
        E 24 98 25 4e
        E 96 88 25 00
        E 25 98 25 4e
        E 96 88 25 00
        E 23 98 26 6d
        E 96 88 26 00
        E 24 98 26 68
        E 95 88 26 00
        E 26 98 25 5b
        E 97 88 25 00
        E 22 98 25 4a
        E 95 88 25 00
        E 25 98 25 61
        E 97 88 25 00
        E 23 98 27 54
        E 96 88 27 00
        E 24 98 26 60
        E 96 88 26 00
        E 24 98 24 59
        E 97 88 24 00
        E 23 98 24 65
        E 96 88 24 00
        E 24 98 25 5b
        E 96 88 25 00
        E 24 98 25 5e
        E 97 88 25 00
        E 23 98 24 4e
        E 96 88 24 00
        E 24 98 25 5c
        E 95 88 25 00
        E 25 98 25 61
        E 96 88 25 00
        E 24 98 24 75
        E 96 88 24 00
        E 24 98 24 72
        E 97 88 24 00
        E 23 98 24 5d
        E 95 88 24 00
        E 24 98 24 4c
        E 94 88 24 00
        E 27 98 24 5d
        E 96 88 24 00
        E 24 98 24 5b
        E 95 88 24 00
        E 24 98 23 54
        E 95 88 23 00
        E 26 98 24 59
        E 96 88 24 00
        E 24 98 26 3e
        E 96 88 26 00
        E 24 98 24 63
        E 95 88 24 00
        E 25 98 24 4c
        E 97 88 24 00
        E 23 98 25 53
        E 97 88 25 00
        E 23 98 24 5c
        E 95 88 24 00
        E 25 98 24 5d
        E 96 88 24 00
        E 24 98 24 67
        E 96 88 24 00
        E 24 98 24 5b
        E 96 88 24 00
        E 25 98 26 58
        E 96 88 26 00
        E 23 98 26 56
        E 97 88 26 00
        E 23 98 24 5e
        E 96 88 24 00
        E 24 98 24 68
        E 94 88 24 00
        E 26 98 24 6a
        E 95 88 24 00
        E 25 98 24 54
        E 97 88 24 00
        E 24 98 25 57
        E 96 88 25 00
        E 22 98 24 59
        E 96 88 24 00
        E 25 98 24 70
        E 95 88 24 00
        E 25 98 23 4e
        E 96 88 23 00
        E 24 98 24 60
        E 96 88 24 00
        E 23 98 24 5d
        E 96 88 24 00
        E 25 98 24 66
        E 96 88 24 00
        E 24 98 23 58
        E 95 88 23 00
        E 25 98 24 61
        E 95 88 24 00
        E 25 98 24 68
        E 96 88 24 00
        E 24 98 24 70
        E 97 88 24 00
        E 23 98 24 62
        E 97 88 24 00
        E 23 98 24 60
        E 95 88 24 00
        E 25 98 24 59
        E 96 88 24 00
        E 23 98 24 5c
        E 97 88 24 00
        E 24 98 24 76
        E 95 88 24 00
        E 25 98 24 63
        E 97 88 24 00
        E 23 98 24 5b
        E 97 88 24 00
        E 22 98 24 5b
        E 95 88 24 00
        E 26 98 29 54
        E 96 88 29 00
        E 25 98 26 68
        E 97 88 26 00
        E 22 98 26 5d
        E 96 88 26 00
        E 23 98 26 58
        E 97 88 26 00
        E 24 98 26 65
        E 96 88 26 00
        E 24 98 26 77
        E 96 88 26 00
        E 24 98 26 61
        E 96 88 26 00
        E 24 98 26 63
        E 97 88 26 00
        E 22 98 26 54
        E 95 88 26 00
        E 26 98 27 53
        E 96 88 27 00
        E 24 98 26 63
        E 96 88 26 00
        E 23 98 26 6a
        E 97 88 26 00
        E 24 98 27 59
        E 97 88 27 00
        E 23 98 26 5e
        E 97 88 26 00
        E 24 98 26 68
        E 96 88 26 00
        E 24 98 26 63
        E 96 88 26 00
        E 22 98 26 5b
        E 95 88 26 00
        E 26 98 26 6e
        E 97 88 26 00
        E 23 98 26 73
        E 96 88 26 00
        E 24 98 25 44
        E 97 88 25 00
        E 23 98 26 5e
        E 96 88 26 00
        E 24 98 26 66
        E 95 88 26 00
        E 24 98 26 67
        E 96 88 26 00
        E 24 98 26 53
        E 97 88 26 00
        E 24 98 26 61
        E 96 88 26 00
        E 23 98 26 66
        E 96 88 26 00
        E 25 98 26 71
        E 96 88 26 00
        E 24 98 26 61
        E 95 88 26 00
        E 25 98 26 5b
        E 96 88 26 00
        E 24 98 25 59
        E 96 88 25 00
        E 24 98 24 53
        E 96 88 24 00
        E 24 98 24 56
        E 96 88 24 00
        E 24 98 24 53
        E 97 88 24 00
        E 23 98 24 54
        E 97 88 24 00
        E 23 98 26 59
        E 95 88 26 00
        E 25 98 26 67
        E 96 88 26 00
        E 24 98 24 54
        E 97 88 24 00
        E 24 98 26 5c
        E 95 88 26 00
        E 25 98 26 62
        E 96 88 26 00
        E 23 98 25 57
        E 97 88 25 00
        E 23 98 24 51
        E 96 88 24 00
        E 24 98 26 6e
        E 96 88 26 00
        E 24 98 26 6c
        E 96 88 26 00
        E 24 98 26 4e
        E 96 88 26 00
        E 24 98 26 6a
        E 95 88 26 00
        E 24 98 26 63
        E 95 88 26 00
        E 26 98 24 47
        E 96 88 24 00
        E 24 98 24 56
        E 95 88 24 00
        E 25 98 25 4e
        E 95 88 25 00
        E 25 98 24 54
        E 95 88 24 00
        E 25 98 24 6a
        E 96 88 24 00
        E 24 98 24 52
        E 96 88 24 00
        E 23 98 25 59
        E 96 88 25 00
        E 25 98 24 5e
        E 97 88 24 00
        E 22 98 24 67
        E 97 88 24 00
        E 23 98 24 61
        E 97 88 24 00
        E 24 98 25 57
        E 97 88 25 00
        E 23 98 24 61
        E 96 88 24 00
        E 24 98 24 59
        E 96 88 24 00
        E 24 98 25 52
        E 96 88 25 00
        E 24 98 25 54
        E 96 88 25 00
        E 24 98 24 66
        E 97 88 24 00
        E 23 98 24 6d
        E 95 88 24 00
        E 25 98 25 5b
        E 95 88 25 00
        E 25 98 26 51
        E 96 88 26 00
        E 24 98 27 53
        E 94 88 27 00
        E 26 98 26 61
        E 96 88 26 00
        E 24 98 26 6b
        E 96 88 26 00
        E 24 98 25 48
        E 96 88 25 00
        E 24 98 26 5e
        E 95 88 26 00
        E 24 98 26 5c
        E 95 88 26 00
        E 26 98 26 58
        E 95 88 26 00
        E 25 98 25 48
        E 96 88 25 00
        E 23 98 26 68
        E 96 88 26 00
        E 25 98 26 6a
        E 96 88 26 00
        E 24 98 26 6e
        E 97 88 26 00
        E 23 98 26 61
        E 95 88 26 00
        E 25 98 26 61
        E 95 88 26 00
        E 25 98 26 61
        E 96 88 26 00
        E 24 98 26 5b
        E 96 88 26 00
        E 24 98 25 53
        E 96 88 25 00
        E 24 98 24 66
        E 95 88 24 00
        E 25 98 24 59
        E 97 88 24 00
        E 23 98 24 61
        E 96 88 24 00
        E 23 98 24 4a
        E 97 88 24 00
        E 24 98 1d 4e
        E 95 88 1d 00
        E 25 98 25 54
        E 96 88 25 00
        E 23 98 24 6a
        E 96 88 24 00
        E 25 98 25 5b
        E 96 88 25 00
        E 24 98 24 4c
        E 97 88 24 00
        E 23 98 24 65
        E 96 88 24 00
        E 24 98 24 63
        E 96 88 24 00
        E 24 98 25 60
        E 96 88 25 00
        E 24 98 25 5d
        E 96 88 25 00
        E 24 98 25 4d
        E 96 88 25 00
        E 24 98 25 49
        E 95 88 25 00
        E 25 98 25 46
        E 97 88 25 00
        E 23 98 24 42
        E 96 88 24 00
        E 24 98 24 53
        E 95 88 24 00
        E 25 98 23 49
        E 98 88 23 00
        E 22 98 25 56
        E 95 88 25 00
        E 25 98 26 66
        E 96 88 26 00
        E 24 98 25 52
        E 96 88 25 00
        E 24 98 25 41
        E 96 88 25 00
        E 25 98 25 46
        E 97 88 25 00
        E 21 98 26 62
        E 96 88 26 00
        E 25 98 25 5b
        E 96 88 25 00
        E 24 98 25 4e
        E 96 88 25 00
        E 23 98 26 61
        E 97 88 26 00
        E 24 98 25 49
        E 96 88 25 00
        E 24 98 26 61
        E 95 88 26 00
        E 26 98 26 54
        E 97 88 26 00
        E 22 98 24 47
        E 96 88 24 00
        E 25 98 26 63
        E 97 88 26 00
        E 22 98 24 3f
        E 96 88 24 00
        E 24 98 26 57
        E 96 88 26 00
        E 24 98 26 65
        E 96 88 26 00
        E 24 98 26 61
        E 96 88 26 00
        E 24 98 25 61
        E 96 88 25 00
        E 24 98 24 49
        E 95 88 24 00
        E 25 98 24 3e
        E 96 88 24 00
        E 25 98 24 56
        E 96 88 24 00
        E 24 98 24 5c
        E 96 88 24 00
        E 23 98 25 3f
        E 96 88 25 00
        E 24 98 25 47
        E 96 88 25 00
        E 24 98 24 57
        E 95 88 24 00
        E 25 98 24 59
        E 98 88 24 00
        E 22 98 25 54
        E 96 88 25 00
        E 23 98 24 58
        E 94 88 24 00
        E 27 98 23 54
        E 96 88 23 00
        E 25 98 25 68
        E 96 88 25 00
        E 23 98 26 56
        E 95 88 26 00
        E 25 98 26 58
        E 96 88 26 00
        E 24 98 26 61
        E 96 88 26 00
        E 23 98 26 5c
        E 96 88 26 00
        E 25 98 26 4e
        E 96 88 26 00
        E 24 98 26 6a
        E 96 88 26 00
        E 24 98 25 61
        E 96 88 25 00
        E 24 98 24 59
        E 97 88 24 00
        E 23 98 26 73
        E 96 88 26 00
        E 24 98 24 51
        E 96 88 24 00
        E 24 98 24 47
        E 95 88 24 00
        E 25 98 25 52
        E 95 88 25 00
        E 25 98 25 62
        E 95 88 25 00
        E 25 98 25 5d
        E 97 88 25 00
        E 24 98 24 4c
        E 97 88 24 00
        E 23 98 25 61
        E 96 88 25 00
        E 23 98 25 63
        E 96 88 25 00
        E 25 98 26 5d
        E 96 88 26 00
        E 22 98 26 68
        E 96 88 26 00
        E 25 98 26 66
        E 95 88 26 00
        E 24 98 25 51
        E 96 88 25 00
        E 25 98 26 54
        E 96 88 26 00
        E 25 98 25 4c
        E 96 88 25 00
        E 23 98 25 52
        E 96 88 25 00
        E 24 98 26 60
        E 95 88 26 00
        E 25 98 26 5c
        E 98 88 26 00
        E 22 98 25 4d
        E 95 88 25 00
        E 25 98 25 47
        E 96 88 25 00
        E 24 98 26 5b
        E 97 88 26 00
        E 23 98 26 3c
        E 96 88 26 00
        E 24 98 26 3f
        E 96 88 26 00
        E 25 98 26 4a
        E 97 88 26 00
        E 22 98 26 54
        E 97 88 26 00
        E 23 98 26 5d
        E 96 88 26 00
        E 24 98 25 4d
        E 95 88 25 00
        E 25 98 26 5b
        E 95 88 26 00
        E 25 98 25 3e
        E 97 88 25 00
        E 22 98 26 49
        E 96 88 26 00
        E 25 98 25 44
        E 96 88 25 00
        E 24 98 26 75
        E 97 88 26 00
        E 22 98 25 4c
        E 95 88 25 00
        E 26 98 25 58
        E 96 88 25 00
        E 24 98 24 61
        E 95 88 24 00
        E 25 98 25 58
        E 97 88 25 00
        E 23 98 24 4e
        E 96 88 24 00
        E 24 98 25 54
        E 97 88 25 00
        E 23 98 24 41
        E 97 88 24 00
        E 23 98 25 5b
        E 96 88 25 00
        E 24 98 24 4c
        E 97 88 24 00
        E 23 98 25 4a
        E 96 88 25 00
        E 24 98 26 6c
        E 96 88 26 00
        E 24 98 26 75
        E 96 88 26 00
        E 23 98 25 59
        E 96 88 25 00
        E 25 98 25 47
        E 96 88 25 00
        E 24 98 26 5d
        E 96 88 26 00
        E 24 98 26 54
        E 97 88 26 00
        E 23 98 25 4f
        E 96 88 25 00
        E 24 98 26 65
        E 97 88 26 00
        E 23 98 26 62
        E 96 88 26 00
        E 24 98 26 59
        E 96 88 26 00
        E 24 98 26 51
        E 96 88 26 00
        E 24 98 26 44
        E 96 88 26 00
        E 24 98 24 58
        E 96 88 24 00
        E 24 98 24 5d
        E 95 88 24 00
        E 24 98 24 59
        E 96 88 24 00
        E 25 98 24 41
        E 95 88 24 00
        E 25 98 24 53
        E 97 88 24 00
        E 23 98 24 58
        E 94 88 24 00
        E 26 98 24 53
        E 96 88 24 00
        E 24 98 24 4f
        E 96 88 24 00
        E 24 98 24 65
        E 95 88 24 00
        E 25 98 24 58
        E 96 88 24 00
        E 24 98 24 66
        E 95 88 24 00
        E 25 98 24 60
        E 96 88 24 00
        E 23 98 24 5b
        E 97 88 24 00
        E 24 98 24 61
        E 94 88 24 00
        E 26 98 24 63
        E 97 88 24 00
        E 23 98 25 42
        E 95 88 25 00
        E 25 98 25 62
        E 95 88 25 00
        E 24 98 25 56
        E 97 88 25 00
        E 24 98 23 4d
        E 97 88 23 00
        E 23 98 23 4d
        E 94 88 23 00
        E 27 98 24 62
        E 97 88 24 00
        E 22 98 24 62
        E 95 88 24 00
        E 25 98 24 58
        E 97 88 24 00
        E 22 98 25 2e
        E 95 88 25 00
        E 26 98 24 53
        E 95 88 24 00
        E 25 98 24 59
        E 97 88 24 00
        E 22 98 24 5e
        E 97 88 24 00
        E 25 98 24 61
        E 96 88 24 00
        E 22 98 25 47
        E 97 88 25 00
        E 24 98 25 51
        E 96 88 25 00
        E 24 98 24 6b
        E 96 88 24 00
        E 24 98 24 56
        E 96 88 24 00
        E 24 98 24 47
        E 95 88 24 00
        E 25 98 25 5b
        E 95 88 25 00
        E 25 98 25 47
        E 96 88 25 00
        E 24 98 25 5d
        E 96 88 25 00
        E 24 98 25 6c
        E 96 88 25 00
        E 23 98 24 4a
        E 97 88 24 00
        E 24 98 25 5b
        E 95 88 25 00
        E 25 98 25 58
        E 96 88 25 00
        E 24 98 24 4e
        E 96 88 24 00
        E 24 98 25 5e
        E 95 88 25 00
        E 25 98 25 51
        E 96 88 25 00
        E 24 98 25 5c
        E 95 88 25 00
        E 25 98 25 53
        E 95 88 25 00
        E 24 98 24 4e
        E 96 88 24 00
        E 25 98 24 59
        E 95 88 24 00
        E 25 98 24 3d
        E 94 88 24 00
        E 26 98 24 63
        E 96 88 24 00
        E 25 98 25 47
        E 96 88 25 00
        E 24 98 24 4e
        E 97 88 24 00
        E 22 98 25 58
        E 97 88 25 00
        E 23 98 25 4c
        E 96 88 25 00
        E 24 98 24 6e
        E 95 88 24 00
        E 24 98 25 59
        E 96 88 25 00
        E 25 98 25 4d
        E 97 88 25 00
        E 23 98 24 52
        E 95 88 24 00
        E 25 98 25 56
        E 96 88 25 00
        E 24 98 25 5b
        E 95 88 25 00
        E 25 98 25 5e
        E 96 88 25 00
        E 24 98 25 59
        E 96 88 25 00
        E 24 98 24 51
        E 96 88 24 00
        E 24 98 24 46
        E 95 88 24 00
        E 26 98 24 5b
        E 97 88 24 00
        E 22 98 25 4c
        E 97 88 25 00
        E 23 98 24 56
        E 96 88 24 00
        E 24 98 24 61
        E 96 88 24 00
        E 24 98 24 58
        E 95 88 24 00
        E 25 98 24 61
        E 97 88 24 00
        E 22 98 24 43
        E 96 88 24 00
        E 25 98 24 63
        E 96 88 24 00
        E 25 98 25 3d
        E 95 88 25 00
        E 24 98 24 5d
        E 95 88 24 00
        E 24 98 24 68
        E 94 88 24 00
        E 26 98 24 4e
        E 97 88 24 00
        E 24 98 24 63
        E 98 88 24 00
        E 23 98 24 5b
        E 96 88 24 00
        E 24 98 24 4e
        E 95 88 24 00
        E 24 98 23 51
        E 95 88 23 00
        E 25 98 21 2b
        E 96 88 21 00
        E 24 98 23 51
        E 97 88 23 00
        E 23 98 23 41
        E 95 88 23 00
        E 25 98 24 4e
        E 95 88 24 00
        E 25 98 24 53
        E 96 88 24 00
        E 25 98 25 46
        E 97 88 25 00
        E 22 98 25 4d
        E 97 88 25 00
        E 23 98 24 4e
        E 96 88 24 00
        E 24 98 25 56
        E 97 88 25 00
        E 23 98 25 62
        E 97 88 25 00
        E 24 98 25 4c
        E 94 88 25 00
        E 25 98 25 4a
        E 95 88 25 00
        E 25 98 25 56
        E 96 88 25 00
        E 24 98 25 4d
        E 96 88 25 00
        E 24 98 25 5b
        E 95 88 25 00
        E 25 98 25 47
        E 96 88 25 00
        E 24 98 24 59
        E 94 88 24 00
        E 26 98 24 53
        E 96 88 24 00
        E 24 98 25 67
        E 96 88 25 00
        E 23 98 24 5d
        E 96 88 24 00
        E 25 98 24 67
        E 96 88 24 00
        E 25 98 24 7c
        E 96 88 24 00
        E 23 98 24 5c
        E 96 88 24 00
        E 24 98 24 77
        E 98 88 24 00
        E 22 98 24 6a
        E 97 88 24 00
        E 23 98 24 7b
        E 96 88 24 00
        E 24 98 25 68
        E 95 88 25 00
        E 25 98 25 66
        E 97 88 25 00
        E 22 98 24 75
        E 95 88 24 00
        E 26 98 24 71
        E 95 88 24 00
        E 25 98 24 53
        E 96 88 24 00
        E 24 98 24 78
        E 95 88 24 00
        E 25 98 25 59
        E 97 88 25 00
        E 24 98 26 66
        E 96 88 26 00
        E 24 98 27 5b
        E 95 88 27 00
        E 23 98 26 6a
        E 97 88 26 00
        E 24 98 26 75
        E 96 88 26 00
        E 23 98 25 61
        E 95 88 25 00
        E 26 98 26 79
        E 96 88 26 00
        E 24 98 26 5e
        E 97 88 26 00
        E 23 98 27 60
        E 96 88 27 00
        E 23 98 26 79
        E 97 88 26 00
        E 24 98 26 68
        E 96 88 26 00
        E 24 98 26 68
        E 95 88 26 00
        E 25 98 26 7b
        E 95 88 26 00
        E 25 98 25 6e
        E 96 88 25 00
        E 24 98 25 73
        E 95 88 25 00
        E 25 98 26 76
        E 96 88 26 00
        E 24 98 24 63
        E 97 88 24 00
        E 23 98 25 4e
        E 97 88 25 00
        E 23 98 24 6c
        E 96 88 24 00
        E 24 98 26 78
        E 97 88 26 00
        E 24 98 24 6c
        E 96 88 24 00
        E 23 98 24 62
        E 95 88 24 00
        E 25 98 23 5b
        E 97 88 23 00
        E 24 98 24 63
        E 95 88 24 00
        E 24 98 26 75
        E 96 88 26 00
        E 24 98 25 61
        E 96 88 25 00
        E 24 98 25 65
        E 97 88 25 00
        E 23 98 24 61
        E 95 88 24 00
        E 24 98 26 7a
        E 96 88 26 00
        E 25 98 24 61
        E 96 88 24 00
        E 25 98 24 59
        E 95 88 24 00
        E 24 98 25 6b
        E 95 88 25 00
        E 25 98 25 62
        E 96 88 25 00
        E 24 98 25 4c
        E 98 88 25 00
        E 22 98 25 4e
        E 96 88 25 00
        E 25 98 26 58
        E 95 88 26 00
        E 24 98 25 51
        E 96 88 25 00
        E 24 98 24 52
        E 96 88 24 00
        E 24 98 24 6d
        E 97 88 24 00
        E 23 98 25 6b
        E 95 88 25 00
        E 25 98 24 77
        E 97 88 24 00
        E 23 98 24 7a
        E 96 88 24 00
        E 24 98 24 68
        E 97 88 24 00
        E 22 98 24 6e
        E 95 88 24 00
        E 26 98 25 62
        E 97 88 25 00
        E 22 98 24 68
        E 95 88 24 00
        E 26 98 25 61
        E 95 88 25 00
        E 25 98 25 63
        E 96 88 25 00
        E 24 98 25 63
        E 96 88 25 00
        E 24 98 25 67
        E 97 88 25 00
        E 23 98 25 4c
        E 95 88 25 00
        E 25 98 25 68
        E 96 88 25 00
        E 24 98 25 68
        E 97 88 25 00
        E 23 98 25 63
        E 95 88 25 00
        E 25 98 25 6e
        E 96 88 25 00
        E 23 98 26 7b
        E 97 88 26 00
        E 24 98 25 71
        E 96 88 25 00
        E 24 98 24 6d
        E 96 88 24 00
        E 24 98 24 6a
        E 95 88 24 00
        E 26 98 25 60
        E 96 88 25 00
        E 23 98 26 75
        E 97 88 26 00
        E 23 98 26 75
        E 96 88 26 00
        E 24 98 26 62
        E 96 88 26 00
        E 24 98 25 4e
        E 95 88 25 00
        E 25 98 28 56
        E 97 88 28 00
        E 22 98 24 6d
        E 96 88 24 00
        E 25 98 25 54
        E 95 88 25 00
        E 25 98 24 59
        E 96 88 24 00
        E 24 98 23 61
        E 94 88 23 00
        E 26 98 24 58
        E 97 88 24 00
        E 23 98 24 61
        E 97 88 24 00
        E 23 98 24 6c
        E 97 88 24 00
        E 23 98 25 58
        E 96 88 25 00
        E 24 98 24 70
        E 96 88 24 00
        E 24 98 23 67
        E 95 88 23 00
        E 25 98 23 65
        E 95 88 23 00
        E 25 98 23 61
        E 96 88 23 00
        E 24 98 24 62
        E 97 88 24 00
        E 23 98 23 68
        E 96 88 23 00
        E 24 98 24 6b
        E 95 88 24 00
        E 25 98 24 6a
        E 97 88 24 00
        E 22 98 24 5b
        E 97 88 24 00
        E 24 98 24 65
        E 96 88 24 00
        E 24 98 24 6a
        E 95 88 24 00
        E 25 98 24 70
        E 96 88 24 00
        E 24 98 24 6a
        E 96 88 24 00
        E 23 98 24 79
        E 96 88 24 00
        E 25 98 24 6e
        E 97 88 24 00
        E 23 98 24 68
        E 97 88 24 00
        E 24 98 24 71
        E 96 88 24 00
        E 24 98 24 61
        E 96 88 24 00
        E 23 98 24 68
        E 95 88 24 00
        E 26 98 24 7c
        E 96 88 24 00
        E 23 98 24 62
        E 96 88 24 00
        E 25 98 24 5e
        E 97 88 24 00
        E 22 98 23 5d
        E 96 88 23 00
        E 24 98 24 66
        E 95 88 24 00
        E 25 98 24 68
        E 97 88 24 00
        E 23 98 24 65
        E 97 88 24 00
        E 24 98 24 61
        E 96 88 24 00
        E 23 98 24 5d
        E 95 88 24 00
        E 25 98 24 73
        E 97 88 24 00
        E 23 98 24 79
        E 96 88 24 00
        E 24 98 24 7b
        E 96 88 24 00
        E 24 98 24 7b
        E 94 88 24 00
        E 26 98 24 5b
        E 96 88 24 00
        E 24 98 24 70
        E 95 88 24 00
        E 25 98 24 62
        E 95 88 24 00
        E 25 98 24 47
        E 96 88 24 00
        E 24 98 24 7b
        E 96 88 24 00
        E 24 98 24 61
        E 96 88 24 00
        E 24 98 24 66
        E 97 88 24 00
        E 23 98 23 59
        E 98 88 23 00
        E 23 98 24 6a
        E 96 88 24 00
        E 23 98 24 5d
        E 96 88 24 00
        E 24 98 24 59
        E 95 88 24 00
        E 25 98 24 60
        E 95 88 24 00
        E 25 98 24 61
        E 95 88 24 00
        E 25 98 24 63
        E 96 88 24 00
        E 24 98 24 73
        E 96 88 24 00
        E 24 98 24 75
        E 96 88 24 00
        E 24 98 24 67
        E 97 88 24 00
        E 23 98 24 6a
        E 98 88 24 00
        E 22 98 24 75
        E 94 88 24 00
        E 26 98 24 67
        E 94 88 24 00
        E 26 98 25 54
        E 96 88 25 00
        E 24 98 25 5e
        E 96 88 25 00
        E 24 98 24 72
        E 96 88 24 00
        E 24 98 27 5e
        E 96 88 27 00
        E 24 98 27 62
        E 96 88 27 00
        E 23 98 26 5d
        E 95 88 26 00
        E 26 98 26 6e
        E 95 88 26 00
        E 25 98 26 5c
        E 95 88 26 00
        E 25 98 26 6a
        E 96 88 26 00
        E 23 98 26 73
        E 96 88 26 00
        E 25 98 26 6b
        E 96 88 26 00
        E 24 98 26 6b
        E 97 88 26 00
        E 22 98 26 70
        E 97 88 26 00
        E 25 98 26 73
        E 96 88 26 00
        E 23 98 26 63
        E 96 88 26 00
        E 23 98 26 6e
        E 95 88 26 00
        E 26 98 26 5b
        E 95 88 26 00
        E 24 98 26 5c
        E 97 88 26 00
        E 24 98 26 54
        E 97 88 26 00
        E 23 98 26 63
        E 97 88 26 00
        E 23 98 26 6a
        E 96 88 26 00
        E 24 98 26 6e
        E 95 88 26 00
        E 25 98 26 5c
        E 96 88 26 00
        E 24 98 26 67
        E 97 88 26 00
        E 24 98 26 61
        E 97 88 26 00
        E 22 98 26 59
        E 97 88 26 00
        E 23 98 26 54
        E 95 88 26 00
        E 25 98 26 68
        E 95 88 26 00
        E 25 98 26 68
        E 97 88 26 00
        E 23 98 26 6c
        E 97 88 26 00
        E 22 98 26 56
        E 96 88 26 00
        E 25 98 26 5e
        E 96 88 26 00
        E 24 98 26 73
        E 96 88 26 00
        E 24 98 26 75
        E 96 88 26 00
        E 24 98 26 60
        E 98 88 26 00
        E 22 98 24 67
        E 97 88 24 00
        E 23 98 24 6d
        E 96 88 24 00
        E 24 98 24 71
        E 96 88 24 00
        E 24 98 24 67
        E 97 88 24 00
        E 23 98 24 62
        E 96 88 24 00
        E 24 98 24 73
        E 96 88 24 00
        E 24 98 24 67
        E 95 88 24 00
        E 25 98 24 63
        E 95 88 24 00
        E 25 98 24 6c
        E 96 88 24 00
        E 24 98 24 6d
        E 96 88 24 00
        E 25 98 24 67
        E 96 88 24 00
        E 23 98 24 57
        E 96 88 24 00
        E 24 98 24 62
        E 94 88 24 00
        E 26 98 24 6c
        E 97 88 24 00
        E 23 98 24 60
        E 96 88 24 00
        E 24 98 24 5d
        E 96 88 24 00
        E 24 98 26 61
        E 96 88 26 00
        E 23 98 26 56
        E 98 88 26 00
        E 23 98 26 41
        E 97 88 26 00
        E 23 98 26 6b
        E 97 88 26 00
        E 23 98 26 5e
        E 97 88 26 00
        E 23 98 26 6b
        E 96 88 26 00
        E 24 98 26 72
        E 95 88 26 00
        E 25 98 26 79
        E 97 88 26 00
        E 23 98 26 63
        E 97 88 26 00
        E 23 98 26 79
        E 96 88 26 00
        E 24 98 26 62
        E 97 88 26 00
        E 23 98 26 68
        E 95 88 26 00
        E 25 98 26 77
        E 97 88 26 00
        E 23 98 26 68
        E 96 88 26 00
        E 24 98 26 66
        E 95 88 26 00
        E 25 98 26 61
        E 96 88 26 00
        E 25 98 26 75
        E 96 88 26 00
        E 23 98 26 59
        E 95 88 26 00
        E 25 98 26 68
        E 95 88 26 00
        E 25 98 26 6d
        E 96 88 26 00
        E 25 98 26 73
        E 95 88 26 00
        E 23 98 26 68
        E 96 88 26 00
        E 25 98 26 60
        E 97 88 26 00
        E 23 98 26 6e
        E 97 88 26 00
        E 24 98 26 76
        E 95 88 26 00
        E 24 98 26 75
        E 95 88 26 00
        E 25 98 26 67
        E 95 88 26 00
        E 25 98 26 68
        E 97 88 26 00
        E 23 98 26 58
        E 96 88 26 00
        E 25 98 26 5b
        E 96 88 26 00
        E 23 98 26 4d
        E 95 88 26 00
        E 25 98 26 6c
        E 97 88 26 00
        E 23 98 26 72
        E 96 88 26 00
        E 23 98 26 68
        E 96 88 26 00
        E 25 98 26 66
        E 96 88 26 00
        E 24 98 26 6b
        E 96 88 26 00
        E 24 98 26 75
        E 96 88 26 00
        E 24 98 26 61
        E 95 88 26 00
        E 25 98 26 67
        E 96 88 26 00
        E 23 98 26 67
        E 96 88 26 00
        E 24 98 26 67
        E 95 88 26 00
        E 26 98 26 73
        E 96 88 26 00
        E 24 98 26 5e
        E 96 88 26 00
        E 24 98 26 52
        E 95 88 26 00
        E 25 98 26 78
        E 97 88 26 00
        E 23 98 26 7c
        E 95 88 26 00
        E 24 98 26 61
        E 95 88 26 00
        E 26 98 26 59
        E 96 88 26 00
        E 23 98 24 68
        E 96 88 24 00
        E 25 98 24 52
        E 97 88 24 00
        E 23 98 24 66
        E 96 88 24 00
        E 24 98 24 66
        E 95 88 24 00
        E 25 98 24 79
        E 97 88 24 00
        E 23 98 24 68
        E 97 88 24 00
        E 23 98 24 62
        E 96 88 24 00
        E 24 98 24 66
        E 96 88 24 00
        E 25 98 24 78
        E 95 88 24 00
        E 25 98 24 6c
        E 96 88 24 00
        E 23 98 24 7c
        E 96 88 24 00
        E 24 98 24 6e
        E 96 88 24 00
        E 24 98 24 66
        E 97 88 24 00
        E 23 98 24 5b
        E 95 88 24 00
        E 25 98 24 57
        E 95 88 24 00
        E 25 98 24 79
        E 97 88 24 00
        E 23 98 24 60
        E 96 88 24 00
        E 25 98 25 47
        E 96 88 25 00
        E 23 98 24 65
        E 95 88 24 00
        E 25 98 23 51
        E 96 88 23 00
        E 24 98 24 59
        E 97 88 24 00
        E 23 98 24 5e
        E 96 88 24 00
        E 24 98 24 6a
        E 97 88 24 00
        E 23 98 24 66
        E 95 88 24 00
        E 25 98 24 65
        E 95 88 24 00
        E 26 98 24 68
        E 94 88 24 00
        E 25 98 24 6e
        E 96 88 24 00
        E 24 98 24 66
        E 97 88 24 00
        E 23 98 24 68
        E 96 88 24 00
        E 24 98 24 61
        E 96 88 24 00
        E 24 98 23 54
        E 96 88 23 00
        E 24 98 24 6b
        E 96 88 24 00
        E 24 98 26 6a
        E 97 88 26 00
        E 23 98 26 5b
        E 96 88 26 00
        E 25 98 26 63
        E 96 88 26 00
        E 23 98 26 66
        E 97 88 26 00
        E 23 98 26 68
        E 95 88 26 00
        E 25 98 26 5c
        E 96 88 26 00
        E 24 98 26 75
        E 96 88 26 00
        E 24 98 26 5e
        E 96 88 26 00
        E 24 98 26 6e
        E 95 88 26 00
        E 25 98 26 65
        E 96 88 26 00
        E 24 98 26 6b
        E 95 88 26 00
        E 26 98 26 65
        E 95 88 26 00
        E 24 98 26 6d
        E 97 88 26 00
        E 23 98 26 72
        E 95 88 26 00
        E 25 98 26 5b
        E 96 88 26 00
        E 24 98 26 61
        E 96 88 26 00
        E 24 98 26 75
        E 96 88 26 00
        E 24 98 26 59
        E 97 88 26 00
        E 23 98 26 6d
        E 96 88 26 00
        E 24 98 26 67
        E 96 88 26 00
        E 24 98 26 66
        E 95 88 26 00
        E 25 98 26 6d
        E 97 88 26 00
        E 22 98 26 5e
        E 96 88 26 00
        E 25 98 25 54
        E 96 88 25 00
        E 24 98 26 65
        E 96 88 26 00
        E 24 98 26 61
        E 96 88 26 00
        E 24 98 26 79
        E 96 88 26 00
        E 24 98 26 6e
        E 96 88 26 00
        E 24 98 26 6e
        E 94 88 26 00
        E 26 98 26 67
        E 95 88 26 00
        E 25 98 26 5e
        E 95 88 26 00
        E 24 98 26 70
        E 96 88 26 00
        E 25 98 24 49
        E 97 88 24 00
        E 24 98 24 6a
        E 95 88 24 00
        E 24 98 24 53
        E 96 88 24 00
        E 23 98 24 6d
        E 96 88 24 00
        E 25 98 24 70
        E 96 88 24 00
        E 24 98 24 79
        E 96 88 24 00
        E 24 98 24 6a
        E 95 88 24 00
        E 25 98 24 60
        E 96 88 24 00
        E 25 98 24 67
        E 96 88 24 00
        E 23 98 24 6e
        E 97 88 24 00
        E 23 98 24 61
        E 96 88 24 00
        E 24 98 24 67
        E 97 88 24 00
        E 24 98 24 71
        E 96 88 24 00
        E 23 98 24 7c
        E 96 88 24 00
        E 24 98 24 6a
        E 96 88 24 00
        E 24 98 24 63
        E 97 88 24 00
        E 23 98 26 58
        E 96 88 26 00
        E 24 98 26 6c
        E 96 88 26 00
        E 24 98 26 71
        E 95 88 26 00
        E 25 98 26 7b
        E 96 88 26 00
        E 24 98 26 4c
        E 96 88 26 00
        E 24 98 26 58
        E 95 88 26 00
        E 25 98 26 6a
        E 95 88 26 00
        E 25 98 26 59
        E 96 88 26 00
        E 25 98 26 5b
        E 96 88 26 00
        E 23 98 26 61
        E 95 88 26 00
        E 25 98 26 75
        E 96 88 26 00
        E 23 98 26 70
        E 96 88 26 00
        E 25 98 26 59
        E 96 88 26 00
        E 24 98 26 6c
        E 96 88 26 00
        E 24 98 26 62
        E 95 88 26 00
        E 25 98 25 58
        E 95 88 25 00
        E 25 98 26 63
        E 96 88 26 00
        E 24 98 26 67
        E 95 88 26 00
        E 25 98 26 62
        E 96 88 26 00
        E 25 98 26 70
        E 96 88 26 00
        E 23 98 26 6e
        E 96 88 26 00
        E 24 98 26 60
        E 96 88 26 00
        E 24 98 26 68
        E 96 88 26 00
        E 24 98 26 68
        E 95 88 26 00
        E 25 98 26 7b
        E 96 88 26 00
        E 24 98 26 61
        E 96 88 26 00
        E 24 98 26 79
        E 96 88 26 00
        E 24 98 26 6e
        E 94 88 26 00
        E 25 98 26 6e
        E 96 88 26 00
        E 25 98 26 6e
        E 95 88 26 00
        E 25 98 26 60
        E 95 88 26 00
        E 25 98 26 65
        E 98 88 26 00
        E 22 98 25 4d
        E 97 88 25 00
        E 24 98 24 63
        E 96 88 24 00
        E 24 98 24 5c
        E 95 88 24 00
        E 24 98 24 67
        E 95 88 24 00
        E 26 98 24 6b
        E 96 88 24 00
        E 23 98 24 7c
        E 97 88 24 00
        E 23 98 24 61
        E 95 88 24 00
        E 25 98 24 6b
        E 96 88 24 00
        E 24 98 24 62
        E 95 88 24 00
        E 26 98 24 58
        E 95 88 24 00
        E 23 98 24 6e
        E 95 88 24 00
        E 26 98 24 5e
        E 96 88 24 00
        E 25 98 24 6d
        E 96 88 24 00
        E 23 98 24 5d
        E 96 88 24 00
        E 24 98 24 68
        E 96 88 24 00
        E 25 98 24 76
        E 96 88 24 00
        E 23 98 24 67
        E 96 88 24 00
        E 24 98 24 52
        E 95 88 24 00
        E 25 98 24 6c
        E 95 88 24 00
        E 26 98 24 75
        E 95 88 24 00
        E 24 98 24 70
        E 95 88 24 00
        E 25 98 24 6e
        E 95 88 24 00
        E 25 98 24 65
        E 97 88 24 00
        E 23 98 24 59
        E 96 88 24 00
        E 25 98 24 78
        E 97 88 24 00
        E 21 98 24 72
        E 96 88 24 00
        E 26 98 24 5b
        E 98 88 24 00
        E 22 98 24 5b
        E 95 88 24 00
        E 24 98 24 77
        E 96 88 24 00
        E 24 98 24 70
        E 96 88 24 00
        E 25 98 24 71
        E 96 88 24 00
        E 23 98 24 6d
        E 95 88 24 00
        E 24 98 26 71
        E 96 88 26 00
        E 26 98 26 5d
        E 95 88 26 00
        E 24 98 26 61
        E 96 88 26 00
        E 24 98 25 53
        E 97 88 25 00
        E 23 98 26 5e
        E 95 88 26 00
        E 24 98 26 6c
        E 97 88 26 00
        E 24 98 26 66
        E 96 88 26 00
        E 24 98 26 62
        E 97 88 26 00
        E 23 98 26 59
        E 96 88 26 00
        E 25 98 26 72
        E 94 88 26 00
        E 25 98 26 68
        E 97 88 26 00
        E 23 98 26 6d
        E 97 88 26 00
        E 23 98 26 5e
        E 96 88 26 00
        E 24 98 26 73
        E 96 88 26 00
        E 24 98 25 4d
        E 95 88 25 00
        E 25 98 26 73
        E 96 88 26 00
        E 24 98 25 54
        E 95 88 25 00
        E 25 98 24 68
        E 96 88 24 00
        E 25 98 24 7b
        E 97 88 24 00
        E 22 98 24 6a
        E 96 88 24 00
        E 23 98 24 75
        E 97 88 24 00
        E 24 98 24 75
        E 97 88 24 00
        E 23 98 24 70
        E 95 88 24 00
        E 26 98 24 6e
        E 97 88 24 00
        E 22 98 24 5b
        E 95 88 24 00
        E 25 98 24 61
        E 96 88 24 00
        E 24 98 24 70
        E 96 88 24 00
        E 24 98 24 70
        E 96 88 24 00
        E 23 98 24 6b
        E 97 88 24 00
        E 24 98 24 65
        E 96 88 24 00
        E 24 98 24 61
        E 96 88 24 00
        E 25 98 24 5d
        E 96 88 24 00
        E 23 98 26 65
        E 96 88 26 00
        E 24 98 26 54
        E 97 88 26 00
        E 23 98 26 6e
        E 96 88 26 00
        E 24 98 26 5d
        E 96 88 26 00
        E 24 98 26 73
        E 94 88 26 00
        E 26 98 26 51
        E 95 88 26 00
        E 24 98 26 63
        E 96 88 26 00
        E 25 98 26 6c
        E 96 88 26 00
        E 23 98 26 68
        E 95 88 26 00
        E 26 98 26 70
        E 96 88 26 00
        E 24 98 26 79
        E 95 88 26 00
        E 25 98 26 7a
        E 97 88 26 00
        E 23 98 26 6c
        E 96 88 26 00
        E 24 98 26 61
        E 96 88 26 00
        E 24 98 26 7c
        E 96 88 26 00
        E 24 98 26 61
        E 95 88 26 00
        E 25 98 26 4a
        E 97 88 26 00
        E 23 98 26 5d
        E 96 88 26 00
        E 24 98 26 61
        E 95 88 26 00
        E 25 98 26 60
        E 96 88 26 00
        E 24 98 26 6a
        E 96 88 26 00
        E 25 98 26 7c
        E 96 88 26 00
        E 23 98 26 71
        E 96 88 26 00
        E 24 98 26 5c
        E 96 88 26 00
        E 24 98 26 77
        E 96 88 26 00
        E 24 98 26 6c
        E 98 88 26 00
        E 23 98 26 68
        E 95 88 26 00
        E 24 98 26 5e
        E 96 88 26 00
        E 24 98 26 63
        E 97 88 26 00
        E 23 98 26 63
        E 96 88 26 00
        E 23 98 26 59
        E 95 88 26 00
        E 26 98 26 68
        E 96 88 26 00
        E 24 98 24 73
        E 95 88 24 00
        E 25 98 24 5e
        E 96 88 24 00
        E 24 98 24 61
        E 96 88 24 00
        E 24 98 24 6b
        E 96 88 24 00
        E 24 98 24 71
        E 98 88 24 00
        E 22 98 24 68
        E 96 88 24 00
        E 24 98 24 72
        E 97 88 24 00
        E 24 98 24 67
        E 94 88 24 00
        E 25 98 24 58
        E 96 88 24 00
        E 24 98 24 68
        E 96 88 24 00
        E 24 98 24 62
        E 96 88 24 00
        E 24 98 24 68
        E 96 88 24 00
        E 24 98 24 62
        E 96 88 24 00
        E 24 98 24 7c
        E 97 88 24 00
        E 23 98 24 5b
        E 95 88 24 00
        E 25 98 24 70
        E 95 88 24 00
        E 25 98 26 5e
        E 95 88 26 00
        E 24 98 25 58
        E 97 88 25 00
        E 24 98 26 65
        E 97 88 26 00
        E 23 98 26 5e
        E 96 88 26 00
        E 24 98 26 6d
        E 96 88 26 00
        E 24 98 26 79
        E 94 88 26 00
        E 26 98 26 6e
        E 97 88 26 00
        E 23 98 26 5d
        E 94 88 26 00
        E 26 98 26 54
        E 96 88 26 00
        E 24 98 26 67
        E 95 88 26 00
        E 25 98 26 68
        E 96 88 26 00
        E 23 98 26 68
        E 96 88 26 00
        E 25 98 26 61
        E 95 88 26 00
        E 24 98 26 59
        E 96 88 26 00
        E 25 98 26 6e
        E 96 88 26 00
        E 24 98 26 76
        E 97 88 26 00
        E 22 98 26 60
        E 97 88 26 00
        E 24 98 26 58
        E 96 88 26 00
        E 24 98 26 62
        E 97 88 26 00
        E 24 98 26 66
        E 94 88 26 00
        E 25 98 26 61
        E 96 88 26 00
        E 24 98 26 72
        E 96 88 26 00
        E 24 98 26 6c
        E 96 88 26 00
        E 23 98 26 75
        E 96 88 26 00
        E 25 98 26 5d
        E 96 88 26 00
        E 25 98 26 62
        E 95 88 26 00
        E 24 98 26 6e
        E 96 88 26 00
        E 24 98 26 62
        E 96 88 26 00
        E 23 98 26 76
        E 96 88 26 00
        E 25 98 26 53
        E 96 88 26 00
        E 24 98 26 67
        E 96 88 26 00
        E 24 98 26 47
        E 95 88 26 00
        E 25 98 26 67
        E 95 88 26 00
        E 26 98 26 73
        E 96 88 26 00
        E 23 98 26 6a
        E 97 88 26 00
        E 23 98 26 63
        E 95 88 26 00
        E 25 98 26 65
        E 96 88 26 00
        E 24 98 26 63
        E 97 88 26 00
        E 23 98 26 57
        E 96 88 26 00
        E 24 98 26 6b
        E 97 88 26 00
        E 24 98 26 58
        E 96 88 26 00
        E 23 98 26 6d
        E 97 88 26 00
        E 23 98 26 7c
        E 96 88 26 00
        E 24 98 26 72
        E 95 88 26 00
        E 25 98 26 67
        E 96 88 26 00
        E 25 98 26 68
        E 95 88 26 00
        E 24 98 26 58
        E 96 88 26 00
        E 25 98 26 5c
        E 96 88 26 00
        E 0 b8 7b 00
        E 1 ff 2f 00
      >
    >
  >
>
