<REAPER_PROJECT 0.1 "7.0" 1700000000
  TEMPO 84.000000 4 4
  SAMPLERATE 48000 0 0
  RENDER_FILE ""
  RENDER_FMT 0 2 0
  RENDER_1X 0
  RENDER_RANGE 1 0 80.595731 0 0
  RENDER_RESAMPLE 3 0 1
  <MASTERTRACK
    VOLPAN 1 0 1 -1
    DEFCHAN 0
  >
  <TRACK
    NAME "Lead"
    PEAKCOL 4284506208
    VOLPAN 1.000000 0 1 -1
    MIDIOUT -1
    ISBUS 0 0
    <ITEM
      POSITION 1.234949
      LENGTH 61.765206
      NAME "Lead"
      VOLPAN 1 0 1 -1
      <SOURCE MIDI
        HASDATA 1 960 QN
        E 0 c0 28 00
        E 1660 90 4d 4b
        E 481 80 4d 00
        E 1985 90 4c 51
        E 946 80 4c 00
        E 3462 90 51 4d
        E 980 80 51 00
        E 750 90 4d 5a
        E 236 80 4d 00
        E 371 90 4b 4f
        E 948 80 4b 00
        E 1416 90 49 4d
        E 971 80 49 00
        E 439 90 52 53
        E 802 80 52 00
        E 1421 90 4c 5a
        E 514 80 4c 00
        E 1412 90 4c 55
        E 234 80 4c 00
        E 590 90 51 7d
        E 562 90 4f 7d
        E 347 80 51 00
        E 613 80 4f 00
        E 148 90 4b 68
        E 943 80 4b 00
        E 162 90 48 3c
        E 209 80 48 00
        E 1265 90 4b 64
        E 518 80 4b 00
        E 236 90 48 6a
        E 962 80 48 00
        E 116 90 4c 43
        E 443 80 4c 00
        E 675 90 49 47
        E 967 80 49 00
        E 162 90 4b 49
        E 960 80 4b 00
        E 694 90 50 66
        E 844 90 4d 45
        E 53 80 50 00
        E 184 80 4d 00
        E 583 90 4a 7a
        E 1045 80 4a 00
        E 50 90 4b 64
        E 965 80 4b 00
        E 815 90 49 60
        E 703 80 49 00
        E 284 90 4b 64
        E 960 80 4b 00
        E 163 90 4b 3c
        E 498 80 4b 00
        E 613 90 4a 7a
        E 828 90 40 41
        E 12 80 4a 00
        E 228 80 40 00
        E 574 90 44 60
        E 1025 80 44 00
        E 100 90 46 5a
        E 265 90 4b 71
        E 254 80 4b 00
        E 37 90 48 60
        E 126 80 46 00
        E 124 80 48 00
        E 19 90 4a 71
        E 234 80 4a 00
        E 42 90 4e 7d
        E 924 80 4e 00
        E 174 90 4a 7d
        E 690 80 4a 00
        E 441 90 4c 58
        E 746 80 4c 00
        E 364 90 4a 64
        E 887 80 4a 00
        E 210 90 47 53
        E 878 80 47 00
        E 247 90 49 4d
        E 546 90 4c 45
        E 246 80 4c 00
        E 252 80 49 00
        E 31 90 49 2e
        E 456 80 49 00
        E 676 90 4c 76
        E 940 80 4c 00
        E 153 90 48 6e
        E 232 80 48 00
        E 327 90 4b 73
        E 959 80 4b 00
        E 122 90 48 64
        E 1267 90 4d 34
        E 243 80 48 00
        E 607 80 4d 00
        E 601 90 48 56
        E 507 80 48 00
        E 1148 90 4c 5c
        E 980 80 4c 00
        E 138 90 4c 7d
        E 989 80 4c 00
        E 345 90 4a 7d
        E 885 90 4e 7d
        E 43 80 4a 00
        E 1602 90 4a 3a
        E 272 80 4e 00
        E 579 80 4a 00
        E 1479 90 4c 7d
        E 497 90 4f 5e
        E 242 80 4f 00
        E 245 80 4c 00
        E 13 90 4a 5a
        E 978 90 4b 66
        E 3 80 4a 00
        E 924 80 4b 00
        E 168 90 4c 3a
        E 437 80 4c 00
        E 914 90 4f 64
        E 878 90 4d 45
        E 40 80 4f 00
        E 384 80 4d 00
        E 694 90 49 45
        E 772 80 49 00
        E 666 90 48 5c
        E 467 80 48 00
        E 293 90 4c 7d
        E 923 80 4c 00
        E 171 90 4b 58
        E 875 80 4b 00
        E 795 90 4e 6e
        E 944 80 4e 00
        E 3480 90 4a 49
        E 466 80 4a 00
        E 2861 90 4a 75
        E 933 80 4a 00
        E 194 90 49 51
        E 867 80 49 00
        E 0 b0 7b 00
        E 1 ff 2f 00
      >
    >
  >
  <TRACK
    NAME "Canon"
    PEAKCOL 4284506208
    VOLPAN 1.000000 0 1 -1
    MIDIOUT -1
    ISBUS 0 0
    <ITEM
      POSITION 4.092705
      LENGTH 63.523433
      NAME "Canon"
      VOLPAN 1 0 1 -1
      <SOURCE MIDI
        HASDATA 1 960 QN
        E 0 c1 29 00
        E 5501 91 52 49
        E 479 81 52 00
        E 1992 91 54 36
        E 985 81 54 00
        E 3440 91 54 43
        E 1021 81 54 00
        E 680 91 55 3d
        E 239 81 55 00
        E 380 91 52 41
        E 946 81 52 00
        E 1439 91 55 4f
        E 975 81 55 00
        E 406 91 57 56
        E 564 91 53 47
        E 256 81 53 00
        E 73 81 57 00
        E 208 91 4d 45
        E 283 81 4d 00
        E 830 91 56 4f
        E 481 81 56 00
        E 640 91 56 47
        E 759 81 56 00
        E 51 91 55 41
        E 224 81 55 00
        E 619 91 57 60
        E 564 91 54 66
        E 382 81 57 00
        E 571 81 54 00
        E 162 91 54 53
        E 919 81 54 00
        E 176 91 50 1d
        E 218 81 50 00
        E 1253 91 53 55
        E 541 81 53 00
        E 191 91 53 5a
        E 923 81 53 00
        E 170 91 57 3c
        E 456 81 57 00
        E 661 91 54 4b
        E 1019 81 54 00
        E 117 91 53 47
        E 881 81 53 00
        E 769 91 57 49
        E 785 81 57 00
        E 47 91 58 3c
        E 233 81 58 00
        E 610 91 51 5a
        E 1047 81 51 00
        E 29 91 54 45
        E 963 81 54 00
        E 828 91 52 5a
        E 701 81 52 00
        E 296 91 56 45
        E 919 81 56 00
        E 187 91 57 3c
        E 481 81 57 00
        E 620 91 4e 66
        E 842 91 4d 34
        E 57 81 4e 00
        E 189 81 4d 00
        E 577 91 4c 41
        E 1019 81 4c 00
        E 101 91 4c 43
        E 278 91 4e 4f
        E 232 81 4e 00
        E 34 91 51 4f
        E 152 81 4c 00
        E 101 81 51 00
        E 17 91 52 55
        E 257 81 52 00
        E 20 91 55 7c
        E 877 81 55 00
        E 229 91 52 6e
        E 667 81 52 00
        E 463 91 51 4f
        E 713 81 51 00
        E 398 91 54 5a
        E 889 81 54 00
        E 197 91 52 55
        E 889 81 52 00
        E 232 91 4d 36
        E 551 91 4e 2e
        E 242 81 4e 00
        E 273 81 4d 00
        E 29 91 54 23
        E 482 81 54 00
        E 645 91 54 5a
        E 928 81 54 00
        E 171 91 52 4f
        E 228 81 52 00
        E 335 91 55 60
        E 915 81 55 00
        E 164 91 4b 55
        E 1239 91 4a 30
        E 126 81 4b 00
        E 715 81 4a 00
        E 618 91 4b 3f
        E 502 81 4b 00
        E 1182 91 59 36
        E 984 81 59 00
        E 113 91 57 5a
        E 956 81 57 00
        E 387 91 52 73
        E 874 91 55 77
        E 39 81 52 00
        E 1607 91 54 34
        E 448 81 55 00
        E 412 81 54 00
        E 1478 91 53 77
        E 494 91 56 41
        E 243 81 56 00
        E 184 81 53 00
        E 65 91 59 4f
        E 921 81 59 00
        E 53 91 55 53
        E 980 81 55 00
        E 147 91 54 2e
        E 460 81 54 00
        E 857 91 56 47
        E 826 81 56 00
        E 71 91 57 41
        E 425 81 57 00
        E 686 91 4c 3f
        E 822 81 4c 00
        E 647 91 4f 45
        E 477 81 4f 00
        E 2456 91 51 51
        E 942 81 51 00
        E 1818 91 53 3d
        E 1000 81 53 00
        E 3696 91 4d 4d
        E 488 81 4d 00
        E 2585 91 4f 4d
        E 781 81 4f 00
        E 325 91 51 5a
        E 1029 81 51 00
        E 0 b1 7b 00
        E 1 ff 2f 00
      >
    >
  >
  <TRACK
    NAME "Viola"
    PEAKCOL 4284186559
    VOLPAN 1.000000 0 1 -1
    MIDIOUT -1
    ISBUS 0 0
    <ITEM
      POSITION 5.797813
      LENGTH 68.359030
      NAME "Viola"
      VOLPAN 1 0 1 -1
      <SOURCE MIDI
        HASDATA 1 960 QN
        E 0 c2 2a 00
        E 7792 92 57 25
        E 1018 82 57 00
        E 540 92 57 32
        E 482 82 57 00
        E 842 92 58 3c
        E 901 82 58 00
        E 223 92 56 41
        E 1032 82 56 00
        E 198 92 59 4f
        E 704 82 59 00
        E 39 92 54 32
        E 694 82 54 00
        E 414 92 58 19
        E 815 82 58 00
        E 535 92 54 36
        E 1097 82 54 00
        E 3 92 54 60
        E 619 92 56 25
        E 240 82 56 00
        E 27 82 54 00
        E 344 92 53 36
        E 908 82 53 00
        E 105 92 57 43
        E 1048 82 57 00
        E 284 92 54 4b
        E 972 82 54 00
        E 461 92 54 34
        E 528 92 55 1f
        E 236 82 55 00
        E 100 82 54 00
        E 237 92 57 11
        E 279 82 57 00
        E 822 92 55 41
        E 530 82 55 00
        E 587 92 55 49
        E 639 82 55 00
        E 186 92 57 2a
        E 241 82 57 00
        E 584 92 57 4f
        E 538 92 56 55
        E 435 82 57 00
        E 498 82 56 00
        E 194 92 56 3c
        E 904 82 56 00
        E 202 92 55 0f
        E 200 82 55 00
        E 1276 92 58 2a
        E 558 82 58 00
        E 182 92 55 43
        E 974 82 55 00
        E 126 92 58 30
        E 517 82 58 00
        E 585 92 56 36
        E 970 82 56 00
        E 171 92 54 32
        E 899 82 54 00
        E 757 92 54 3c
        E 833 92 55 1b
        E 19 82 54 00
        E 205 82 55 00
        E 604 92 55 4f
        E 984 82 55 00
        E 93 92 55 34
        E 906 82 55 00
        E 896 92 55 4d
        E 686 82 55 00
        E 303 92 58 4f
        E 1008 82 58 00
        E 113 92 55 23
        E 451 82 55 00
        E 644 92 57 4d
        E 810 82 57 00
        E 16 92 59 21
        E 234 82 59 00
        E 598 92 60 3c
        E 1032 82 60 00
        E 103 92 62 3a
        E 263 92 60 4d
        E 229 82 60 00
        E 42 92 5b 4f
        E 163 82 62 00
        E 75 82 5b 00
        E 31 92 55 41
        E 240 82 55 00
        E 32 92 58 6e
        E 958 82 58 00
        E 156 92 5b 6c
        E 729 82 5b 00
        E 392 92 55 3d
        E 691 82 55 00
        E 426 92 55 49
        E 850 82 55 00
        E 228 92 57 41
        E 837 82 57 00
        E 284 92 5a 30
        E 539 92 54 26
        E 241 82 54 00
        E 251 82 5a 00
        E 65 92 56 15
        E 442 82 56 00
        E 683 92 5a 5a
        E 943 82 5a 00
        E 171 92 59 55
        E 243 82 59 00
        E 290 92 57 45
        E 897 82 57 00
        E 210 92 53 47
        E 1234 92 54 1f
        E 105 82 53 00
        E 756 82 54 00
        E 603 92 58 26
        E 539 82 58 00
        E 1116 92 56 3c
        E 1041 82 56 00
        E 71 92 58 56
        E 909 82 58 00
        E 431 92 55 5c
        E 875 92 53 58
        E 72 82 55 00
        E 1584 92 54 1d
        E 347 82 53 00
        E 484 82 54 00
        E 1502 92 56 62
        E 491 92 57 2a
        E 247 82 57 00
        E 243 92 56 49
        E 2 82 56 00
        E 863 82 56 00
        E 129 92 56 47
        E 998 82 56 00
        E 102 92 54 1d
        E 493 82 54 00
        E 857 92 57 45
        E 817 82 57 00
        E 54 92 56 32
        E 413 82 56 00
        E 690 92 58 17
        E 785 82 58 00
        E 685 92 55 34
        E 501 82 55 00
        E 231 92 5b 4f
        E 971 82 5b 00
        E 131 92 5a 41
        E 1008 82 5a 00
        E 106 92 5a 34
        E 552 92 58 60
        E 361 82 5a 00
        E 585 82 58 00
        E 188 92 58 4d
        E 877 82 58 00
        E 197 92 58 3c
        E 1038 82 58 00
        E 82 92 55 2a
        E 1062 82 55 00
        E 68 92 58 0d
        E 405 82 58 00
        E 718 92 57 2a
        E 485 82 57 00
        E 823 92 5e 49
        E 458 82 5e 00
        E 413 92 5a 55
        E 987 82 5a 00
        E 134 92 5a 30
        E 838 82 5a 00
        E 259 92 5d 2c
        E 864 82 5d 00
        E 238 92 5a 51
        E 1060 82 5a 00
        E 306 92 58 45
        E 869 82 58 00
        E 238 92 5b 76
        E 872 92 59 56
        E 113 82 5b 00
        E 797 82 59 00
        E 191 92 57 4b
        E 996 82 57 00
        E 83 92 5a 0a
        E 458 82 5a 00
        E 0 b2 7b 00
        E 1 ff 2f 00
      >
    >
  >
  <TRACK
    NAME "Harp"
    PEAKCOL 4290756410
    VOLPAN 1.000000 0 1 -1
    MIDIOUT -1
    ISBUS 0 0
    <ITEM
      POSITION 0.087848
      LENGTH 68.293433
      NAME "Harp"
      VOLPAN 1 0 1 -1
      <SOURCE MIDI
        HASDATA 1 960 QN
        E 0 c3 2e 00
        E 118 93 29 66
        E 240 93 32 51
        E 482 93 3f 45
        E 136 83 32 00
        E 274 83 3f 00
        E 400 83 29 00
        E 273 93 26 71
        E 116 93 28 62
        E 238 93 2e 58
        E 122 93 31 56
        E 361 93 3a 3c
        E 198 83 31 00
        E 160 93 43 3c
        E 58 83 3a 00
        E 208 83 43 00
        E 68 83 26 00
        E 120 83 28 00
        E 252 83 2e 00
        E 252 93 28 6a
        E 366 93 30 4b
        E 118 93 31 3a
        E 383 83 30 00
        E 84 83 31 00
        E 587 83 28 00
        E 742 93 30 5e
        E 124 93 32 3c
        E 243 93 36 3d
        E 117 93 39 34
        E 17 83 30 00
        E 84 83 32 00
        E 19 93 3c 2c
        E 131 83 36 00
        E 62 83 39 00
        E 78 83 3c 00
        E 450 93 26 71
        E 602 93 32 45
        E 239 93 37 43
        E 263 83 32 00
        E 149 83 37 00
        E 284 83 26 00
        E 383 93 28 6c
        E 118 93 2a 6e
        E 360 93 31 5c
        E 555 83 31 00
        E 516 83 28 00
        E 13 93 46 19
        E 126 83 46 00
        E 11 83 2a 00
        E 697 93 2e 60
        E 361 93 34 49
        E 121 93 35 36
        E 122 93 3a 3c
        E 170 83 34 00
        E 81 83 35 00
        E 65 83 3a 00
        E 160 93 42 34
        E 128 83 42 00
        E 325 83 2e 00
        E 393 93 2f 36
        E 717 93 3d 38
        E 265 83 3d 00
        E 583 83 2f 00
        E 114 93 22 45
        E 721 93 36 41
        E 374 83 36 00
        E 225 93 42 28
        E 119 83 42 00
        E 103 83 22 00
        E 137 93 25 66
        E 601 93 30 4f
        E 357 93 35 45
        E 149 83 30 00
        E 92 93 3c 34
        E 119 93 3f 47
        E 4 83 35 00
        E 115 93 41 3c
        E 34 83 3c 00
        E 62 83 25 00
        E 10 83 3f 00
        E 17 93 42 2c
        E 51 83 41 00
        E 69 93 46 3a
        E 5 83 42 00
        E 72 83 46 00
        E 163 93 26 7c
        E 119 93 26 6c
        E 119 93 29 71
        E 120 93 32 5c
        E 121 93 32 68
        E 118 93 2f 47
        E 121 93 33 47
        E 119 93 34 4d
        E 123 93 3a 34
        E 120 93 3e 36
        E 12 83 2f 00
        E 85 83 33 00
        E 23 93 3d 41
        E 45 83 34 00
        E 70 83 3a 00
        E 5 93 3f 2c
        E 79 83 3e 00
        E 41 93 3f 3f
        E 25 83 3d 00
        E 77 83 3f 00
        E 4 83 26 00
        E 15 93 44 36
        E 52 83 3f 00
        E 14 83 26 00
        E 53 93 48 34
        E 7 83 44 00
        E 70 83 48 00
        E 4 83 29 00
        E 128 83 32 00
        E 31 93 23 73
        E 79 83 32 00
        E 41 93 24 64
        E 118 93 28 5a
        E 123 93 2a 5e
        E 120 93 27 49
        E 119 93 32 4b
        E 119 93 31 55
        E 119 93 32 38
        E 121 93 37 49
        E 118 93 3b 2a
        E 31 83 32 00
        E 65 83 31 00
        E 26 93 3c 3d
        E 51 83 32 00
        E 70 93 3f 3f
        E 1 83 37 00
        E 71 83 3b 00
        E 45 93 3f 21
        E 37 83 3c 00
        E 42 83 23 00
        E 25 83 3f 00
        E 18 93 45 2a
        E 49 83 24 00
        E 3 83 3f 00
        E 66 93 46 3c
        E 6 83 45 00
        E 71 83 28 00
        E 1 83 46 00
        E 163 83 2a 00
        E 4 93 25 6e
        E 88 83 27 00
        E 27 93 28 68
        E 122 93 26 47
        E 121 93 2d 45
        E 121 93 33 5e
        E 119 93 30 49
        E 120 93 34 47
        E 122 93 35 23
        E 119 93 3b 4d
        E 120 93 39 38
        E 22 83 30 00
        E 87 83 34 00
        E 10 93 3c 3c
        E 53 83 35 00
        E 68 93 3f 34
        E 8 83 3b 00
        E 64 83 39 00
        E 49 93 3f 3d
        E 30 83 3c 00
        E 68 83 3f 00
        E 21 93 46 28
        E 26 83 25 00
        E 23 83 3f 00
        E 55 83 28 00
        E 13 93 48 38
        E 6 83 46 00
        E 72 83 48 00
        E 30 83 26 00
        E 127 83 2d 00
        E 7 93 24 5e
        E 52 83 33 00
        E 69 93 24 6c
        E 121 93 28 56
        E 117 93 28 64
        E 116 93 28 5a
        E 125 93 30 43
        E 121 93 30 45
        E 115 93 33 38
        E 125 93 39 32
        E 121 93 35 41
        E 30 83 30 00
        E 63 83 30 00
        E 23 93 3d 45
        E 49 83 33 00
        E 69 83 39 00
        E 1 93 3f 51
        E 82 83 35 00
        E 39 93 40 3d
        E 27 83 3d 00
        E 74 83 3f 00
        E 12 83 24 00
        E 10 93 44 3a
        E 52 83 40 00
        E 52 83 24 00
        E 13 93 42 30
        E 11 83 44 00
        E 66 83 42 00
        E 2 83 28 00
        E 135 83 28 00
        E 28 93 27 58
        E 92 83 28 00
        E 25 93 27 68
        E 124 93 2b 60
        E 118 93 2b 58
        E 118 93 33 53
        E 119 93 31 49
        E 123 93 32 43
        E 123 93 38 34
        E 116 93 37 34
        E 123 93 3d 2e
        E 33 83 31 00
        E 68 83 32 00
        E 18 93 3e 2c
        E 56 83 38 00
        E 61 93 41 45
        E 11 83 37 00
        E 60 83 3d 00
        E 51 93 44 45
        E 36 83 3e 00
        E 36 83 27 00
        E 21 83 41 00
        E 27 93 46 3d
        E 51 83 44 00
        E 50 83 27 00
        E 17 93 4a 45
        E 10 83 46 00
        E 66 83 4a 00
        E 9 83 2b 00
        E 87 83 2b 00
        E 71 93 25 77
        E 98 83 33 00
        E 22 93 26 71
        E 121 93 2a 71
        E 116 93 29 60
        E 123 93 31 4b
        E 122 93 31 4d
        E 118 93 31 3d
        E 121 93 37 3d
        E 115 93 38 34
        E 124 93 3d 36
        E 46 83 31 00
        E 38 83 31 00
        E 38 93 3c 26
        E 39 83 37 00
        E 78 83 38 00
        E 3 93 3e 34
        E 65 83 3d 00
        E 51 93 41 34
        E 35 83 3c 00
        E 33 83 25 00
        E 39 83 3e 00
        E 13 93 45 34
        E 53 83 41 00
        E 25 83 26 00
        E 46 93 4a 30
        E 3 83 45 00
        E 74 83 4a 00
        E 28 83 2a 00
        E 109 83 29 00
        E 24 93 26 68
        E 103 83 31 00
        E 17 93 29 71
        E 121 93 26 60
        E 118 93 2f 45
        E 123 93 2e 4b
        E 115 93 30 55
        E 121 93 34 30
        E 120 93 33 45
        E 119 93 3d 51
        E 88 83 2e 00
        E 35 93 3a 3c
        E 13 83 30 00
        E 92 83 34 00
        E 14 93 3e 3f
        E 50 83 33 00
        E 67 83 3d 00
        E 3 93 41 3d
        E 72 83 3a 00
        E 49 93 41 34
        E 23 83 3e 00
        E 70 83 26 00
        E 5 83 41 00
        E 18 93 48 3c
        E 58 83 41 00
        E 41 83 29 00
        E 24 93 45 3f
        E 5 83 48 00
        E 54 83 26 00
        E 18 83 45 00
        E 141 83 2f 00
        E 22 93 24 71
        E 121 93 29 79
        E 118 93 28 66
        E 119 93 30 49
        E 124 93 2f 56
        E 115 93 34 5a
        E 126 93 35 5a
        E 116 93 39 36
        E 122 93 3d 3c
        E 89 83 2f 00
        E 29 93 40 49
        E 18 83 34 00
        E 92 83 35 00
        E 11 93 3f 43
        E 59 83 39 00
        E 61 93 47 3c
        E 8 83 3d 00
        E 62 83 40 00
        E 77 83 3f 00
        E 49 83 24 00
        E 23 83 47 00
        E 115 83 29 00
        E 156 83 28 00
        E 62 83 30 00
        E 45 93 23 76
        E 120 93 27 75
        E 125 93 26 62
        E 117 93 2e 60
        E 121 93 32 5a
        E 119 93 32 47
        E 120 93 33 58
        E 121 93 39 47
        E 118 93 3d 2e
        E 63 83 32 00
        E 61 93 3e 32
        E 33 83 32 00
        E 80 83 33 00
        E 2 93 3f 36
        E 60 83 39 00
        E 63 93 44 2c
        E 1 83 3d 00
        E 85 83 3e 00
        E 56 83 3f 00
        E 42 83 23 00
        E 40 83 44 00
        E 79 83 27 00
        E 169 83 26 00
        E 61 83 2e 00
        E 66 93 27 64
        E 118 93 28 4f
        E 121 93 25 4b
        E 126 93 31 58
        E 116 93 32 43
        E 118 93 34 3c
        E 126 93 35 47
        E 115 93 37 3f
        E 123 93 3d 3f
        E 76 83 32 00
        E 42 93 40 32
        E 26 83 34 00
        E 82 83 35 00
        E 13 93 47 30
        E 49 83 37 00
        E 68 93 43 38
        E 7 83 3d 00
        E 72 83 40 00
        E 72 83 47 00
        E 58 83 27 00
        E 15 83 43 00
        E 75 83 28 00
        E 207 83 25 00
        E 39 83 31 00
        E 58 93 28 68
        E 120 93 2d 66
        E 120 93 31 60
        E 117 93 34 4b
        E 121 93 34 45
        E 123 93 3d 56
        E 117 93 40 4f
        E 120 93 45 34
        E 110 83 34 00
        E 9 93 49 45
        E 85 83 34 00
        E 63 83 3d 00
        E 66 83 40 00
        E 85 83 45 00
        E 71 83 49 00
        E 189 83 28 00
        E 116 83 2d 00
        E 162 83 31 00
        E 124 93 24 77
        E 121 93 23 60
        E 123 93 26 68
        E 116 93 26 6c
        E 123 93 30 4f
        E 116 93 30 4f
        E 121 93 32 51
        E 121 93 35 47
        E 120 93 40 38
        E 80 83 30 00
        E 43 93 3e 4d
        E 27 83 30 00
        E 71 83 32 00
        E 21 93 41 55
        E 56 83 35 00
        E 64 93 41 3d
        E 5 83 40 00
        E 74 83 3e 00
        E 78 83 41 00
        E 65 83 41 00
        E 11 83 24 00
        E 71 83 23 00
        E 130 83 26 00
        E 115 83 26 00
        E 49 93 25 6a
        E 119 93 28 71
        E 121 93 2d 68
        E 119 93 34 60
        E 123 93 33 4f
        E 118 93 3b 53
        E 118 93 3c 56
        E 122 93 3f 3d
        E 120 93 45 4b
        E 6 83 34 00
        E 85 83 33 00
        E 57 83 3b 00
        E 64 83 3c 00
        E 72 83 3f 00
        E 86 83 45 00
        E 231 83 25 00
        E 74 83 28 00
        E 148 83 2d 00
        E 140 93 28 71
        E 114 93 26 58
        E 126 93 26 51
        E 117 93 33 56
        E 120 93 32 41
        E 118 93 33 36
        E 123 93 3f 34
        E 119 93 3e 38
        E 121 93 3f 3f
        E 3 83 33 00
        E 77 83 32 00
        E 70 83 33 00
        E 74 83 3f 00
        E 68 83 3e 00
        E 73 83 3f 00
        E 216 83 28 00
        E 142 83 26 00
        E 39 83 26 00
        E 198 93 25 75
        E 116 93 28 66
        E 123 93 24 4d
        E 121 93 30 53
        E 117 93 31 4d
        E 119 93 30 53
        E 125 93 31 45
        E 116 93 3d 38
        E 121 93 3c 3c
        E 71 83 31 00
        E 51 93 3d 34
        E 30 83 30 00
        E 79 83 31 00
        E 10 93 40 25
        E 56 83 3d 00
        E 62 93 49 3c
        E 4 83 3c 00
        E 77 83 3d 00
        E 72 83 40 00
        E 62 83 25 00
        E 9 83 49 00
        E 157 83 28 00
        E 131 83 24 00
        E 1 83 30 00
        E 92 93 29 7c
        E 115 93 26 6a
        E 122 93 2c 68
        E 123 93 31 60
        E 119 93 36 5c
        E 118 93 38 56
        E 118 93 35 43
        E 121 93 3c 47
        E 119 93 40 41
        E 82 83 36 00
        E 43 93 3e 34
        E 34 83 38 00
        E 61 83 35 00
        E 20 93 48 3c
        E 53 83 3c 00
        E 67 83 40 00
        E 1 93 48 4b
        E 83 83 3e 00
        E 57 83 48 00
        E 81 83 48 00
        E 6 83 29 00
        E 105 83 26 00
        E 126 83 2c 00
        E 120 83 31 00
        E 20 93 25 77
        E 124 93 24 6e
        E 117 93 28 58
        E 120 93 31 5a
        E 122 93 33 60
        E 124 93 37 45
        E 118 93 3c 51
        E 121 93 3f 45
        E 117 83 31 00
        E 1 93 42 4b
        E 81 83 33 00
        E 68 83 37 00
        E 78 83 3c 00
        E 66 83 3f 00
        E 74 83 42 00
        E 222 83 25 00
        E 85 83 24 00
        E 122 83 28 00
        E 162 93 24 6e
        E 121 93 28 68
        E 124 93 24 4f
        E 117 93 28 5e
        E 119 93 31 41
        E 122 93 33 3c
        E 116 93 31 2a
        E 125 93 35 38
        E 118 93 3c 3a
        E 65 83 31 00
        E 52 93 3f 34
        E 29 83 33 00
        E 66 83 31 00
        E 25 93 41 30
        E 60 83 35 00
        E 58 93 48 23
        E 6 83 3c 00
        E 78 83 3f 00
        E 71 83 41 00
        E 68 83 48 00
        E 29 83 24 00
        E 116 83 28 00
        E 149 83 24 00
        E 31 83 28 00
        E 57 93 24 6a
        E 119 93 28 56
        E 122 93 29 5c
        E 119 93 2f 3f
        E 117 93 31 58
        E 124 93 33 4d
        E 119 93 36 47
        E 119 93 3c 34
        E 117 93 3f 34
        E 71 83 31 00
        E 54 93 3e 34
        E 27 83 33 00
        E 70 83 36 00
        E 19 93 41 3c
        E 54 83 3c 00
        E 70 93 48 34
        E 1 83 3f 00
        E 77 83 3e 00
        E 74 83 41 00
        E 16 83 24 00
        E 55 83 48 00
        E 108 83 28 00
        E 120 83 29 00
        E 146 83 2f 00
        E 2 93 25 71
        E 117 93 25 73
        E 121 93 25 58
        E 123 93 25 56
        E 116 93 24 53
        E 123 93 30 3f
        E 116 93 30 43
        E 121 93 31 4b
        E 123 93 35 3d
        E 117 93 3a 38
        E 39 83 30 00
        E 61 83 30 00
        E 24 93 3f 34
        E 57 83 31 00
        E 60 83 35 00
        E 1 93 3d 38
        E 80 83 3a 00
        E 38 93 3d 4f
        E 35 83 3f 00
        E 43 83 25 00
        E 24 83 3d 00
        E 21 93 3e 38
        E 49 83 3d 00
        E 46 83 25 00
        E 24 93 42 3d
        E 8 83 3e 00
        E 68 83 42 00
        E 32 83 25 00
        E 105 83 25 00
        E 27 93 24 75
        E 88 83 24 00
        E 35 93 28 64
        E 116 93 28 5a
        E 123 93 27 60
        E 119 93 33 4f
        E 122 93 31 43
        E 118 93 34 4d
        E 121 93 32 3c
        E 116 93 3a 3f
        E 124 93 3d 3f
        E 34 83 31 00
        E 76 83 34 00
        E 6 93 3e 34
        E 58 83 32 00
        E 64 93 3c 34
        E 4 83 3a 00
        E 81 83 3d 00
        E 37 93 40 34
        E 34 83 3e 00
        E 40 83 24 00
        E 25 83 3c 00
        E 22 93 40 28
        E 54 83 40 00
        E 65 93 4a 2a
        E 6 83 40 00
        E 5 83 28 00
        E 65 83 4a 00
        E 29 83 28 00
        E 109 83 27 00
        E 24 93 23 71
        E 78 83 33 00
        E 42 93 24 68
        E 120 93 26 68
        E 122 93 28 49
        E 115 93 29 45
        E 124 93 33 3c
        E 121 93 33 2e
        E 119 93 33 2e
        E 120 93 34 45
        E 118 93 35 2c
        E 36 83 33 00
        E 76 83 33 00
        E 12 93 3c 41
        E 54 83 33 00
        E 63 93 3c 2a
        E 11 83 34 00
        E 65 83 35 00
        E 41 93 40 41
        E 34 83 3c 00
        E 67 83 3c 00
        E 7 83 23 00
        E 15 93 40 38
        E 47 83 40 00
        E 12 83 24 00
        E 62 93 42 43
        E 3 83 40 00
        E 71 83 42 00
        E 39 83 26 00
        E 69 83 28 00
        E 56 93 25 55
        E 106 83 29 00
        E 14 93 24 5e
        E 119 93 28 5e
        E 122 93 25 4f
        E 119 93 30 3c
        E 119 93 2f 43
        E 120 93 30 4d
        E 124 93 34 38
        E 118 93 36 30
        E 121 93 3c 47
        E 35 83 2f 00
        E 54 83 30 00
        E 32 93 3e 43
        E 55 83 34 00
        E 61 93 3e 3f
        E 17 83 36 00
        E 70 83 3c 00
        E 37 93 3e 3c
        E 23 83 3e 00
        E 49 83 25 00
        E 17 83 3e 00
        E 26 93 43 47
        E 54 83 3e 00
        E 5 83 24 00
        E 65 93 47 30
        E 2 83 43 00
        E 76 83 47 00
        E 24 83 28 00
        E 126 83 25 00
        E 10 93 25 6f
        E 119 93 24 71
        E 12 83 30 00
        E 109 93 26 76
        E 121 93 2f 66
        E 120 93 31 47
        E 123 93 32 47
        E 119 93 31 47
        E 115 93 32 2c
        E 124 93 38 4b
        E 121 93 39 43
        E 39 83 32 00
        E 59 83 31 00
        E 20 93 3c 3a
        E 59 83 32 00
        E 58 93 3e 3d
        E 2 83 38 00
        E 81 83 39 00
        E 40 93 3d 3f
        E 26 83 3c 00
        E 69 83 3e 00
        E 15 83 25 00
        E 13 93 40 2c
        E 54 83 3d 00
        E 59 83 24 00
        E 5 93 43 34
        E 10 83 40 00
        E 67 83 43 00
        E 5 83 26 00
        E 155 93 26 7b
        E 17 83 2f 00
        E 103 93 27 71
        E 10 83 31 00
        E 112 93 29 68
        E 119 93 29 58
        E 120 93 2d 49
        E 120 93 31 58
        E 118 93 32 53
        E 122 93 36 4d
        E 120 93 38 45
        E 124 93 39 3a
        E 36 83 31 00
        E 55 83 32 00
        E 26 93 3c 3d
        E 48 83 36 00
        E 68 83 38 00
        E 3 93 3b 36
        E 80 83 39 00
        E 39 93 41 2a
        E 28 83 3c 00
        E 79 83 3b 00
        E 13 93 41 28
        E 22 83 26 00
        E 30 83 41 00
        E 67 93 49 38
        E 4 83 41 00
        E 23 83 27 00
        E 50 83 49 00
        E 13 83 29 00
        E 95 83 29 00
        E 57 93 28 6f
        E 89 83 2d 00
        E 32 93 2b 56
        E 118 93 2f 55
        E 120 93 33 60
        E 124 93 37 45
        E 119 93 39 3a
        E 120 93 3e 3d
        E 119 93 41 23
        E 120 93 46 23
        E 3 83 33 00
        E 87 83 37 00
        E 55 83 39 00
        E 76 83 3e 00
        E 71 83 41 00
        E 68 83 46 00
        E 241 83 28 00
        E 128 83 2b 00
        E 75 83 2f 00
        E 159 93 25 68
        E 115 93 25 5e
        E 122 93 31 68
        E 119 93 30 41
        E 123 93 32 3c
        E 118 93 3b 4b
        E 120 93 3d 3c
        E 122 93 3e 3c
        E 120 93 47 2a
        E 1 83 30 00
        E 78 83 32 00
        E 61 83 3b 00
        E 85 83 3d 00
        E 58 83 3e 00
        E 99 83 47 00
        E 184 83 25 00
        E 132 83 25 00
        E 120 83 31 00
        E 141 93 24 64
        E 122 93 25 62
        E 115 93 30 75
        E 122 93 30 4f
        E 119 93 32 49
        E 120 93 3b 51
        E 123 93 3c 45
        E 120 93 41 45
        E 117 93 47 3c
        E 24 83 30 00
        E 63 83 32 00
        E 63 83 3b 00
        E 65 83 3c 00
        E 74 83 41 00
        E 78 83 47 00
        E 216 83 24 00
        E 139 83 25 00
        E 100 83 30 00
        E 138 93 24 75
        E 122 93 24 76
        E 121 93 26 56
        E 116 93 28 53
        E 123 93 2e 4d
        E 117 93 30 4f
        E 123 93 2f 3d
        E 121 93 33 3a
        E 258 83 30 00
        E 98 83 2f 00
        E 1 93 3e 36
        E 64 83 33 00
        E 205 83 3e 00
        E 47 83 24 00
        E 116 83 24 00
        E 116 83 26 00
        E 131 83 28 00
        E 136 83 2e 00
        E 24 93 2a 77
        E 366 93 2f 4f
        E 716 93 3c 45
        E 118 93 40 3d
        E 157 83 3c 00
        E 64 83 40 00
        E 127 83 2a 00
        E 12 93 46 3a
        E 77 83 46 00
        E 165 93 24 64
        E 118 93 29 5c
        E 9 83 2f 00
        E 236 93 30 4f
        E 354 93 34 45
        E 123 93 34 3a
        E 243 93 3a 2a
        E 78 83 34 00
        E 37 93 3d 3c
        E 60 83 34 00
        E 138 83 3a 00
        E 71 83 3d 00
        E 46 83 24 00
        E 195 83 29 00
        E 212 83 30 00
        E 117 93 28 5c
        E 126 93 28 5e
        E 839 93 40 3a
        E 315 83 40 00
        E 238 83 28 00
        E 119 83 28 00
        E 289 93 26 7b
        E 116 93 28 6a
        E 480 93 33 45
        E 465 83 33 00
        E 133 93 3e 41
        E 223 83 3e 00
        E 136 83 26 00
        E 86 83 28 00
        E 398 93 2b 4d
        E 241 93 2f 51
        E 241 93 36 34
        E 455 83 36 00
        E 582 83 2b 00
        E 219 83 2f 00
        E 183 93 27 60
        E 720 93 3e 3a
        E 365 83 3e 00
        E 455 83 27 00
        E 138 93 26 76
        E 241 93 2d 4f
        E 119 93 32 4b
        E 360 93 3e 3c
        E 122 93 41 49
        E 111 83 32 00
        E 224 83 3e 00
        E 77 83 41 00
        E 282 83 26 00
        E 252 83 2d 00
        E 135 93 26 76
        E 837 93 40 56
        E 407 83 40 00
        E 250 83 26 00
        E 423 93 28 60
        E 720 93 3d 23
        E 459 83 3d 00
        E 352 83 28 00
        E 0 b3 7b 00
        E 1 ff 2f 00
      >
    >
  >
  <TRACK
    NAME "Flute"
    PEAKCOL 4282040170
    VOLPAN 1.000000 0 1 -1
    MIDIOUT -1
    ISBUS 0 0
    <ITEM
      POSITION 12.864916
      LENGTH 65.830815
      NAME "Flute"
      VOLPAN 1 0 1 -1
      <SOURCE MIDI
        HASDATA 1 960 QN
        E 0 c4 49 00
        E 17290 94 5d 6c
        E 1893 84 5d 00
        E 27 94 5e 64
        E 1913 84 5e 00
        E 1921 94 58 73
        E 1809 84 58 00
        E 115 94 59 68
        E 1858 84 59 00
        E 61 94 57 62
        E 1938 84 57 00
        E 1893 94 56 79
        E 1911 94 58 6c
        E 42 84 56 00
        E 1882 94 56 6c
        E 42 84 58 00
        E 2035 84 56 00
        E 1773 94 51 6e
        E 1909 84 51 00
        E 8 94 4d 71
        E 1921 94 4c 68
        E 27 84 4d 00
        E 1854 84 4c 00
        E 1953 94 4e 6e
        E 1922 94 4a 75
        E 8 84 4e 00
        E 1797 84 4a 00
        E 116 94 47 76
        E 1863 84 47 00
        E 1971 94 45 7a
        E 1929 94 47 71
        E 53 84 45 00
        E 1861 94 45 6c
        E 47 84 47 00
        E 1760 84 45 00
        E 2050 94 49 6c
        E 1914 84 49 00
        E 6 94 4c 7d
        E 1868 84 4c 00
        E 49 94 46 68
        E 1813 84 46 00
        E 2021 94 4c 76
        E 1826 84 4c 00
        E 82 94 4c 6e
        E 1930 94 4c 6c
        E 1 84 4c 00
        E 1855 84 4c 00
        E 3911 94 51 6c
        E 2020 84 51 00
        E 7566 94 54 68
        E 1853 84 54 00
        E 3902 94 4f 64
        E 1908 94 4f 68
        E 81 84 4f 00
        E 1859 84 4f 00
        E 3842 94 55 66
        E 1902 94 58 66
        E 53 84 55 00
        E 1918 84 58 00
        E 0 b4 7b 00
        E 1 ff 2f 00
      >
    >
  >
  <TRACK
    NAME "Glock"
    PEAKCOL 4290756410
    VOLPAN 1.000000 0 1 -1
    MIDIOUT -1
    ISBUS 0 0
    <ITEM
      POSITION 6.073226
      LENGTH 67.814699
      NAME "Glock"
      VOLPAN 1 0 1 -1
      <SOURCE MIDI
        HASDATA 1 960 QN
        E 0 c5 09 00
        E 8162 95 67 5e
        E 287 85 67 00
        E 677 95 67 5a
        E 291 85 67 00
        E 3541 95 68 58
        E 286 85 68 00
        E 670 95 68 68
        E 286 85 68 00
        E 200 95 68 6a
        E 288 85 68 00
        E 673 95 68 68
        E 288 85 68 00
        E 190 95 68 62
        E 279 85 68 00
        E 1162 95 67 5a
        E 281 85 67 00
        E 1155 95 67 6c
        E 289 85 67 00
        E 195 95 62 58
        E 283 85 62 00
        E 195 95 67 5c
        E 290 85 67 00
        E 190 95 69 5a
        E 286 85 69 00
        E 197 95 65 62
        E 288 85 65 00
        E 190 95 65 5e
        E 286 85 65 00
        E 196 95 68 5c
        E 282 85 68 00
        E 197 95 68 5c
        E 291 85 68 00
        E 189 95 68 6a
        E 282 85 68 00
        E 199 95 68 66
        E 287 85 68 00
        E 193 95 68 62
        E 287 85 68 00
        E 190 95 68 62
        E 290 85 68 00
        E 189 95 68 68
        E 288 85 68 00
        E 195 95 68 68
        E 283 85 68 00
        E 198 95 69 64
        E 294 85 69 00
        E 187 95 68 68
        E 289 85 68 00
        E 189 95 68 5c
        E 285 85 68 00
        E 197 95 65 5c
        E 291 85 65 00
        E 184 95 66 56
        E 284 85 66 00
        E 198 95 64 51
        E 288 85 64 00
        E 191 95 6e 47
        E 285 85 6e 00
        E 2117 95 67 64
        E 290 85 67 00
        E 190 95 66 56
        E 291 85 66 00
        E 191 95 67 5c
        E 292 85 67 00
        E 188 95 67 64
        E 284 85 67 00
        E 191 95 67 60
        E 285 85 67 00
        E 198 95 68 60
        E 288 85 68 00
        E 194 95 67 6c
        E 284 85 67 00
        E 192 95 68 62
        E 285 85 68 00
        E 195 95 67 6c
        E 288 85 67 00
        E 196 95 67 66
        E 287 85 67 00
        E 191 95 67 68
        E 291 85 67 00
        E 192 95 65 56
        E 287 85 65 00
        E 189 95 67 66
        E 295 85 67 00
        E 185 95 66 53
        E 287 85 66 00
        E 196 95 65 51
        E 290 85 65 00
        E 189 95 65 45
        E 287 85 65 00
        E 197 95 67 64
        E 292 85 67 00
        E 181 95 66 5a
        E 292 85 66 00
        E 190 95 67 5c
        E 289 85 67 00
        E 189 95 65 58
        E 289 85 65 00
        E 194 95 68 68
        E 289 85 68 00
        E 190 95 6a 60
        E 285 85 6a 00
        E 195 95 69 71
        E 288 85 69 00
        E 191 95 69 60
        E 288 85 69 00
        E 191 95 67 66
        E 287 85 67 00
        E 197 95 67 64
        E 287 85 67 00
        E 193 95 68 6c
        E 290 85 68 00
        E 187 95 67 62
        E 288 85 67 00
        E 195 95 69 62
        E 294 85 69 00
        E 184 95 69 62
        E 286 85 69 00
        E 189 95 68 68
        E 291 85 68 00
        E 192 95 67 5e
        E 291 85 67 00
        E 190 95 66 43
        E 284 85 66 00
        E 200 95 68 5a
        E 288 85 68 00
        E 187 95 69 64
        E 288 85 69 00
        E 196 95 69 5c
        E 287 85 69 00
        E 2114 95 6a 64
        E 286 85 6a 00
        E 188 95 6a 64
        E 292 85 6a 00
        E 188 95 69 62
        E 289 85 69 00
        E 193 95 68 5a
        E 286 85 68 00
        E 199 95 69 60
        E 290 85 69 00
        E 185 95 69 5c
        E 285 85 69 00
        E 199 95 68 68
        E 289 85 68 00
        E 190 95 68 62
        E 291 85 68 00
        E 190 95 66 62
        E 293 85 66 00
        E 188 95 67 6a
        E 292 85 67 00
        E 179 95 67 6a
        E 289 85 67 00
        E 196 95 68 5c
        E 289 85 68 00
        E 192 95 65 5a
        E 288 85 65 00
        E 195 95 67 5a
        E 293 85 67 00
        E 182 95 66 60
        E 289 85 66 00
        E 194 95 68 4b
        E 291 85 68 00
        E 184 95 63 4f
        E 284 85 63 00
        E 199 95 68 64
        E 282 85 68 00
        E 197 95 67 62
        E 290 85 67 00
        E 192 95 68 64
        E 294 85 68 00
        E 186 95 66 56
        E 288 85 66 00
        E 190 95 69 5c
        E 287 85 69 00
        E 195 95 69 62
        E 289 85 69 00
        E 188 95 69 6c
        E 280 85 69 00
        E 202 95 6a 64
        E 287 85 6a 00
        E 193 95 68 6a
        E 288 85 68 00
        E 187 95 68 6c
        E 294 85 68 00
        E 191 95 66 68
        E 291 85 66 00
        E 186 95 67 6c
        E 287 85 67 00
        E 196 95 66 5e
        E 283 85 66 00
        E 196 95 66 60
        E 290 85 66 00
        E 190 95 66 5c
        E 289 85 66 00
        E 192 95 67 60
        E 286 85 67 00
        E 193 95 63 47
        E 294 85 63 00
        E 187 95 63 5c
        E 288 85 63 00
        E 194 95 67 66
        E 287 85 67 00
        E 2114 95 68 68
        E 282 85 68 00
        E 192 95 68 62
        E 289 85 68 00
        E 190 95 68 6a
        E 283 85 68 00
        E 201 95 68 6a
        E 291 85 68 00
        E 188 95 68 6c
        E 284 85 68 00
        E 197 95 67 62
        E 292 85 67 00
        E 185 95 68 68
        E 283 85 68 00
        E 195 95 68 68
        E 285 85 68 00
        E 202 95 67 53
        E 287 85 67 00
        E 191 95 67 56
        E 286 85 67 00
        E 192 95 66 4d
        E 289 85 66 00
        E 1636 95 69 5c
        E 284 85 69 00
        E 1153 95 69 56
        E 290 85 69 00
        E 191 95 68 5c
        E 287 85 68 00
        E 6430 95 68 5a
        E 290 85 68 00
        E 194 95 68 62
        E 293 85 68 00
        E 666 95 67 51
        E 288 85 67 00
        E 2108 95 66 5c
        E 288 85 66 00
        E 197 95 67 5e
        E 292 85 67 00
        E 2103 95 69 5c
        E 290 85 69 00
        E 2110 95 68 62
        E 288 85 68 00
        E 676 95 6a 4b
        E 286 85 6a 00
        E 3550 95 68 62
        E 290 85 68 00
        E 194 95 68 5e
        E 290 85 68 00
        E 0 b5 7b 00
        E 1 ff 2f 00
      >
    >
  >
  <TRACK
    NAME "Bass"
    PEAKCOL 4286528191
    VOLPAN 1.000000 0 1 -1
    MIDIOUT -1
    ISBUS 0 0
    <ITEM
      POSITION 0.002615
      LENGTH 68.035798
      NAME "Bass"
      VOLPAN 1 0 1 -1
      <SOURCE MIDI
        HASDATA 1 960 QN
        E 0 c6 2b 00
        E 4 96 26 6c
        E 105 86 26 00
        E 856 96 21 6a
        E 101 86 21 00
        E 847 96 25 62
        E 105 86 25 00
        E 866 96 29 6e
        E 103 86 29 00
        E 859 96 25 71
        E 103 86 25 00
        E 856 96 21 68
        E 104 86 21 00
        E 854 96 25 71
        E 106 86 25 00
        E 857 96 26 76
        E 105 86 26 00
        E 851 96 26 64
        E 104 86 26 00
        E 853 96 29 6e
        E 103 86 29 00
        E 865 96 2f 73
        E 102 86 2f 00
        E 851 96 2c 6a
        E 105 86 2c 00
        E 854 96 25 79
        E 101 86 25 00
        E 859 96 21 73
        E 105 86 21 00
        E 859 96 26 75
        E 104 86 26 00
        E 855 96 27 77
        E 102 86 27 00
        E 861 96 25 6f
        E 103 86 25 00
        E 857 96 26 6f
        E 103 86 26 00
        E 861 96 24 66
        E 105 86 24 00
        E 849 96 21 77
        E 105 86 21 00
        E 853 96 25 6a
        E 104 86 25 00
        E 860 96 24 6e
        E 104 86 24 00
        E 853 96 23 73
        E 105 86 23 00
        E 852 96 29 6a
        E 104 86 29 00
        E 854 96 24 73
        E 104 86 24 00
        E 860 96 1e 6a
        E 104 86 1e 00
        E 858 96 25 6e
        E 104 86 25 00
        E 859 96 1e 6e
        E 104 86 1e 00
        E 851 96 26 79
        E 106 86 26 00
        E 852 96 29 71
        E 103 86 29 00
        E 866 96 23 6f
        E 105 86 23 00
        E 851 96 29 6e
        E 103 86 29 00
        E 848 96 31 6c
        E 103 86 31 00
        E 863 96 30 6a
        E 104 86 30 00
        E 854 96 31 6e
        E 104 86 31 00
        E 857 96 33 6a
        E 105 86 33 00
        E 856 96 31 6e
        E 104 86 31 00
        E 855 96 2e 6e
        E 100 86 2e 00
        E 860 96 33 73
        E 103 86 33 00
        E 861 96 2d 6c
        E 103 86 2d 00
        E 849 96 27 6c
        E 105 86 27 00
        E 860 96 23 6c
        E 102 86 23 00
        E 860 96 24 77
        E 104 86 24 00
        E 859 96 1f 6e
        E 106 86 1f 00
        E 846 96 24 75
        E 102 86 24 00
        E 862 96 25 6e
        E 106 86 25 00
        E 848 96 24 6e
        E 106 86 24 00
        E 860 96 2a 71
        E 104 86 2a 00
        E 858 96 25 73
        E 104 86 25 00
        E 854 96 1f 64
        E 103 86 1f 00
        E 853 96 1b 66
        E 104 86 1b 00
        E 862 96 19 6e
        E 105 86 19 00
        E 854 96 1b 75
        E 104 86 1b 00
        E 856 96 1a 62
        E 105 86 1a 00
        E 852 96 1a 68
        E 105 86 1a 00
        E 860 96 1b 76
        E 103 86 1b 00
        E 853 96 1c 75
        E 103 86 1c 00
        E 857 96 1a 6a
        E 103 86 1a 00
        E 860 96 1c 7b
        E 101 86 1c 00
        E 858 96 1a 75
        E 104 86 1a 00
        E 854 96 1b 71
        E 104 86 1b 00
        E 858 96 1d 6a
        E 103 86 1d 00
        E 853 96 23 75
        E 103 86 23 00
        E 862 96 25 75
        E 104 86 25 00
        E 851 96 24 6e
        E 103 86 24 00
        E 857 96 28 6c
        E 102 86 28 00
        E 859 96 24 6a
        E 104 86 24 00
        E 859 96 25 6a
        E 104 86 25 00
        E 850 96 26 77
        E 103 86 26 00
        E 855 96 25 76
        E 104 86 25 00
        E 861 96 28 73
        E 102 86 28 00
        E 860 96 23 6e
        E 103 86 23 00
        E 860 96 24 6e
        E 104 86 24 00
        E 851 96 28 6a
        E 104 86 28 00
        E 853 96 24 6e
        E 100 86 24 00
        E 866 96 24 6e
        E 102 86 24 00
        E 855 96 23 76
        E 107 86 23 00
        E 857 96 20 73
        E 104 86 20 00
        E 855 96 25 60
        E 103 86 25 00
        E 857 96 25 76
        E 104 86 25 00
        E 855 96 23 77
        E 104 86 23 00
        E 856 96 25 68
        E 104 86 25 00
        E 855 96 26 6a
        E 104 86 26 00
        E 859 96 2a 6a
        E 102 86 2a 00
        E 855 96 30 6e
        E 104 86 30 00
        E 857 96 30 62
        E 104 86 30 00
        E 862 96 32 75
        E 105 86 32 00
        E 848 96 37 77
        E 103 86 37 00
        E 862 96 36 64
        E 105 86 36 00
        E 846 96 37 71
        E 103 86 37 00
        E 855 96 32 6c
        E 106 86 32 00
        E 859 96 32 6c
        E 105 86 32 00
        E 856 96 33 6f
        E 104 86 33 00
        E 860 96 30 75
        E 104 86 30 00
        E 851 96 33 73
        E 105 86 33 00
        E 858 96 37 76
        E 106 86 37 00
        E 0 b6 7b 00
        E 1 ff 2f 00
      >
    >
  >
  <TRACK
    NAME "Pedal"
    PEAKCOL 4284506208
    VOLPAN 1.000000 0 1 -1
    MIDIOUT -1
    ISBUS 0 0
    <ITEM
      POSITION 0.000000
      LENGTH 68.683306
      NAME "Pedal"
      VOLPAN 1 0 1 -1
      <SOURCE MIDI
        HASDATA 1 960 QN
        E 0 c7 2b 00
        E 0 97 17 4f
        E 3843 97 1c 45
        E 22 87 17 00
        E 3806 87 1c 00
        E 11 97 1b 4d
        E 3840 97 1b 47
        E 33 87 1b 00
        E 3798 87 1b 00
        E 9 97 1a 4d
        E 3838 87 1a 00
        E 0 97 1a 55
        E 3838 97 19 47
        E 18 87 1a 00
        E 3802 87 19 00
        E 23 97 19 47
        E 3836 87 19 00
        E 5 97 18 47
        E 3831 97 19 4b
        E 48 87 18 00
        E 3787 87 19 00
        E 13 97 18 43
        E 3785 87 18 00
        E 54 97 1c 53
        E 3832 87 1c 00
        E 13 97 19 4b
        E 3831 97 19 49
        E 25 87 19 00
        E 3804 87 19 00
        E 18 97 19 45
        E 3833 97 1c 49
        E 13 87 19 00
        E 3825 87 1c 00
        E 6 97 0d 4b
        E 3839 97 19 51
        E 21 87 0d 00
        E 3754 87 19 00
        E 67 97 18 4b
        E 3842 97 13 47
        E 14 87 18 00
        E 3810 87 13 00
        E 16 97 1b 4d
        E 3835 87 1b 00
        E 4 97 18 43
        E 3833 97 1c 4b
        E 48 87 18 00
        E 3795 97 1c 4b
        E 37 87 1c 00
        E 3821 87 1c 00
        E 0 b7 7b 00
        E 1 ff 2f 00
      >
    >
  >
>
