<REAPER_PROJECT 0.1 "7.0" 1700000000
  TEMPO 120.000000 4 4
  SAMPLERATE 48000 0 0
  RENDER_FILE ""
  RENDER_FMT 0 2 0
  RENDER_1X 0
  RENDER_RANGE 1 0 62.011212 0 0
  RENDER_RESAMPLE 3 0 1
  <MASTERTRACK
    VOLPAN 1 0 1 -1
    DEFCHAN 0
  >
  <TRACK
    NAME "Violin1"
    PEAKCOL 4284186559
    VOLPAN 1.000000 0 1 -1
    MIDIOUT -1
    ISBUS 0 0
    <ITEM
      POSITION 1.007269
      LENGTH 47.246709
      NAME "Violin1"
      VOLPAN 1 0 1 -1
      <SOURCE MIDI
        HASDATA 1 960 QN
        E 0 c0 28 00
        E 1934 90 4d 64
        E 279 80 4d 00
        E 3563 90 4a 5b
        E 300 80 4a 00
        E 7401 90 52 66
        E 297 80 52 00
        E 1584 90 57 66
        E 293 80 57 00
        E 1651 90 59 5f
        E 312 80 59 00
        E 1604 90 5a 57
        E 284 80 5a 00
        E 1624 90 60 5f
        E 302 80 60 00
        E 1624 90 5b 57
        E 295 80 5b 00
        E 1621 90 60 71
        E 273 80 60 00
        E 1657 90 5b 66
        E 299 80 5b 00
        E 1623 90 60 6c
        E 298 80 60 00
        E 1605 90 60 7a
        E 269 80 60 00
        E 1662 90 5b 69
        E 290 80 5b 00
        E 1613 90 60 75
        E 288 80 60 00
        E 1645 90 63 66
        E 274 80 63 00
        E 1644 90 5f 74
        E 309 80 5f 00
        E 1605 90 5b 66
        E 282 80 5b 00
        E 1657 90 59 54
        E 295 80 59 00
        E 1627 90 59 66
        E 309 80 59 00
        E 1602 90 59 6b
        E 270 80 59 00
        E 1636 90 5d 68
        E 296 80 5d 00
        E 1621 90 60 6e
        E 321 80 60 00
        E 1614 90 5f 5e
        E 277 80 5f 00
        E 1630 90 60 66
        E 285 80 60 00
        E 1638 90 5d 66
        E 272 80 5d 00
        E 1665 90 5d 5c
        E 290 80 5d 00
        E 1621 90 60 64
        E 295 80 60 00
        E 1648 90 5b 57
        E 282 80 5b 00
        E 1615 90 5b 4c
        E 305 80 5b 00
        E 1588 90 5b 5c
        E 295 80 5b 00
        E 1638 90 5e 57
        E 282 80 5e 00
        E 1649 90 5f 54
        E 307 80 5f 00
        E 1617 90 5e 5c
        E 298 80 5e 00
        E 1621 90 5c 3d
        E 298 80 5c 00
        E 1638 90 60 56
        E 280 80 60 00
        E 1657 90 5d 5e
        E 280 80 5d 00
        E 1612 90 59 57
        E 295 80 59 00
        E 1623 90 57 4c
        E 280 80 57 00
        E 3568 90 56 77
        E 305 80 56 00
        E 1637 90 5b 77
        E 295 80 5b 00
        E 3496 90 60 77
        E 302 80 60 00
        E 1634 90 5c 73
        E 286 80 5c 00
        E 0 b0 7b 00
        E 1 ff 2f 00
      >
    >
  >
  <TRACK
    NAME "Strings"
    PEAKCOL 4284186559
    VOLPAN 1.000000 0 1 -1
    MIDIOUT -1
    ISBUS 0 0
    <ITEM
      POSITION 0.000696
      LENGTH 50.167906
      NAME "Strings"
      VOLPAN 1 0 1 -1
      <SOURCE MIDI
        HASDATA 1 960 QN
        E 0 c1 30 00
        E 1 91 48 46
        E 11 91 48 46
        E 1 91 3e 3a
        E 1826 81 48 00
        E 70 91 48 47
        E 4 91 3c 47
        E 7 91 48 47
        E 3 91 48 41
        E 70 81 48 00
        E 15 81 3e 00
        E 1772 81 48 00
        E 59 91 47 4f
        E 1 81 3c 00
        E 0 91 38 5f
        E 6 91 44 49
        E 67 81 48 00
        E 12 81 48 00
        E 1728 81 38 00
        E 54 81 47 00
        E 42 91 3d 42
        E 17 91 48 3a
        E 84 81 44 00
        E 1760 81 48 00
        E 116 81 3d 00
        E 1871 91 48 3a
        E 4 91 31 3f
        E 1 91 48 52
        E 0 91 48 44
        E 7 91 48 52
        E 1706 81 48 00
        E 119 81 48 00
        E 80 91 49 41
        E 12 81 31 00
        E 67 81 48 00
        E 133 81 48 00
        E 1705 91 44 4f
        E 8 91 3c 52
        E 151 81 49 00
        E 1574 81 44 00
        E 185 91 44 52
        E 3 91 47 4c
        E 21 91 48 41
        E 92 81 3c 00
        E 1792 81 48 00
        E 16 91 48 39
        E 41 81 47 00
        E 15 81 44 00
        E 1833 81 48 00
        E 37 91 37 4a
        E 4 91 48 44
        E 0 91 49 32
        E 6 91 49 3a
        E 0 91 3f 37
        E 3 91 49 3a
        E 1854 81 48 00
        E 6 81 37 00
        E 10 81 49 00
        E 0 81 49 00
        E 30 91 30 2f
        E 0 91 48 3f
        E 0 91 47 47
        E 5 91 48 47
        E 1 91 47 44
        E 2 91 34 52
        E 1 81 3f 00
        E 0 91 47 49
        E 5 91 3b 47
        E 31 81 49 00
        E 1814 81 48 00
        E 0 81 48 00
        E 10 81 47 00
        E 17 81 3b 00
        E 6 81 34 00
        E 24 81 47 00
        E 1 91 48 4c
        E 5 91 3d 44
        E 5 91 44 5c
        E 2 91 38 52
        E 0 91 48 4c
        E 2 91 32 42
        E 0 91 49 44
        E 10 91 48 44
        E 16 81 30 00
        E 51 81 47 00
        E 1627 81 48 00
        E 138 81 49 00
        E 26 81 32 00
        E 37 91 3d 46
        E 5 91 48 59
        E 7 91 33 69
        E 1 91 35 64
        E 1 81 44 00
        E 6 91 33 69
        E 2 91 3f 56
        E 1 81 48 00
        E 2 91 47 66
        E 1 91 49 57
        E 41 81 48 00
        E 16 81 38 00
        E 20 81 3d 00
        E 1672 81 33 00
        E 37 81 3f 00
        E 37 81 47 00
        E 3 81 3d 00
        E 21 81 33 00
        E 41 81 48 00
        E 7 91 49 5b
        E 1 91 43 5e
        E 6 91 32 54
        E 2 91 48 37
        E 3 91 36 4f
        E 1 91 43 5e
        E 4 91 47 5b
        E 7 91 48 49
        E 19 81 49 00
        E 79 81 35 00
        E 1662 81 47 00
        E 45 81 48 00
        E 59 81 43 00
        E 27 81 36 00
        E 10 91 3d 56
        E 1 91 49 54
        E 5 91 36 56
        E 1 91 30 42
        E 1 91 49 54
        E 8 91 49 4e
        E 1 91 32 4f
        E 0 91 42 52
        E 15 81 49 00
        E 72 81 43 00
        E 13 81 48 00
        E 123 81 32 00
        E 1608 81 3d 00
        E 13 81 49 00
        E 3 81 30 00
        E 39 81 36 00
        E 13 81 49 00
        E 0 91 49 57
        E 8 91 48 59
        E 5 91 2b 56
        E 0 91 34 63
        E 5 91 3c 5b
        E 1 91 3d 57
        E 1 91 49 4f
        E 3 91 49 51
        E 85 81 32 00
        E 7 81 49 00
        E 32 81 42 00
        E 1615 81 34 00
        E 15 81 49 00
        E 23 81 3d 00
        E 104 81 49 00
        E 12 81 3c 00
        E 3 91 48 64
        E 1 91 49 68
        E 2 81 48 00
        E 0 91 3c 5c
        E 6 91 48 61
        E 3 91 32 66
        E 0 91 3c 4a
        E 1 91 31 59
        E 6 91 49 68
        E 53 81 2b 00
        E 8 81 49 00
        E 1734 81 48 00
        E 99 81 3c 00
        E 6 91 49 35
        E 4 91 40 47
        E 2 91 48 5b
        E 0 91 3c 42
        E 1 81 31 00
        E 1 91 48 3c
        E 4 91 48 4c
        E 1 91 36 5c
        E 9 81 32 00
        E 1 91 48 47
        E 30 81 48 00
        E 51 81 49 00
        E 52 81 3c 00
        E 30 81 49 00
        E 1541 81 49 00
        E 80 81 40 00
        E 15 81 3c 00
        E 90 81 36 00
        E 11 91 43 49
        E 9 91 42 44
        E 1 91 35 63
        E 0 91 49 44
        E 4 91 49 46
        E 3 91 37 41
        E 4 91 33 4a
        E 1 91 48 4a
        E 11 81 48 00
        E 5 81 48 00
        E 54 81 48 00
        E 76 81 48 00
        E 1685 81 35 00
        E 8 81 42 00
        E 31 81 49 00
        E 23 81 33 00
        E 2 81 49 00
        E 2 91 33 63
        E 1 91 33 63
        E 9 91 32 54
        E 0 91 49 56
        E 1 91 34 56
        E 6 91 33 56
        E 5 91 3c 6b
        E 3 91 43 57
        E 1 81 37 00
        E 25 81 43 00
        E 28 81 48 00
        E 1650 81 34 00
        E 61 81 33 00
        E 64 81 43 00
        E 66 91 44 54
        E 3 91 43 5c
        E 4 91 47 54
        E 0 91 44 4f
        E 0 91 48 44
        E 3 91 33 6e
        E 1 91 36 52
        E 2 91 37 5e
        E 24 81 33 00
        E 29 81 33 00
        E 24 81 3c 00
        E 19 81 32 00
        E 14 81 49 00
        E 1563 81 47 00
        E 28 81 44 00
        E 17 81 43 00
        E 24 81 33 00
        E 105 81 36 00
        E 64 91 41 4e
        E 7 91 30 39
        E 1 81 48 00
        E 1 91 38 2d
        E 1 91 30 39
        E 0 91 37 34
        E 1 81 44 00
        E 4 91 41 37
        E 1 91 44 34
        E 6 91 48 3d
        E 182 81 37 00
        E 1478 81 37 00
        E 104 81 48 00
        E 131 91 42 3c
        E 5 91 3c 4a
        E 1 81 41 00
        E 1 91 36 4a
        E 2 91 32 66
        E 4 91 3d 44
        E 1 91 48 44
        E 0 91 4a 4a
        E 0 91 33 35
        E 18 81 44 00
        E 32 81 38 00
        E 59 81 41 00
        E 4 81 30 00
        E 16 81 30 00
        E 1619 81 48 00
        E 29 81 36 00
        E 14 81 32 00
        E 48 81 42 00
        E 24 81 33 00
        E 41 91 49 57
        E 7 91 32 4f
        E 4 91 32 44
        E 1 91 32 4f
        E 1 91 3e 4f
        E 8 91 32 41
        E 1 91 49 57
        E 3 91 3c 42
        E 95 81 3c 00
        E 24 81 4a 00
        E 13 81 3d 00
        E 1654 81 32 00
        E 44 81 49 00
        E 30 81 3e 00
        E 4 81 32 00
        E 30 91 35 5b
        E 11 81 32 00
        E 2 91 33 49
        E 3 91 48 4e
        E 2 91 47 47
        E 0 91 41 4a
        E 2 91 31 4c
        E 0 91 3d 4c
        E 6 91 47 44
        E 5 81 3c 00
        E 19 81 49 00
        E 11 81 32 00
        E 1796 81 31 00
        E 19 81 33 00
        E 29 81 35 00
        E 14 81 47 00
        E 4 91 33 34
        E 2 91 48 4a
        E 1 81 47 00
        E 6 91 3d 41
        E 0 91 31 5e
        E 11 91 44 49
        E 0 91 3c 22
        E 3 91 31 4c
        E 1 81 3d 00
        E 0 91 35 3f
        E 125 81 41 00
        E 47 81 48 00
        E 1638 81 48 00
        E 8 81 3d 00
        E 56 81 35 00
        E 27 91 40 41
        E 0 91 48 39
        E 6 91 36 44
        E 1 91 32 4c
        E 3 91 3d 42
        E 1 91 4a 3d
        E 2 91 49 3f
        E 2 91 49 39
        E 5 81 33 00
        E 23 81 3c 00
        E 53 81 44 00
        E 6 81 31 00
        E 56 81 31 00
        E 1650 81 4a 00
        E 22 81 40 00
        E 41 81 49 00
        E 3 81 48 00
        E 44 91 49 44
        E 2 91 42 59
        E 4 91 30 4e
        E 2 91 48 4a
        E 1 91 3d 42
        E 1 91 3d 4e
        E 1 91 31 4c
        E 3 91 3e 44
        E 88 81 3d 00
        E 1 81 49 00
        E 25 81 32 00
        E 66 81 36 00
        E 1656 81 3e 00
        E 3 81 30 00
        E 22 81 48 00
        E 34 81 3d 00
        E 4 91 3e 44
        E 6 91 3d 52
        E 4 81 42 00
        E 2 91 3f 4a
        E 2 91 33 49
        E 1 91 48 4e
        E 0 91 33 49
        E 1 91 32 56
        E 2 91 48 4e
        E 77 81 31 00
        E 21 81 49 00
        E 33 81 3d 00
        E 1649 81 3d 00
        E 34 81 3f 00
        E 47 81 32 00
        E 25 81 3e 00
        E 17 91 49 4a
        E 5 91 33 51
        E 1 91 39 44
        E 3 91 3f 54
        E 2 91 3f 54
        E 3 91 32 49
        E 6 81 33 00
        E 0 81 48 00
        E 0 91 48 3c
        E 4 91 43 4e
        E 81 81 33 00
        E 37 81 48 00
        E 1657 81 32 00
        E 25 81 39 00
        E 43 81 49 00
        E 46 81 43 00
        E 6 91 3d 34
        E 2 91 32 39
        E 2 91 3e 1b
        E 7 91 42 47
        E 2 91 33 47
        E 6 91 33 47
        E 3 81 33 00
        E 1 81 48 00
        E 3 91 48 4a
        E 0 91 48 4a
        E 3 81 3f 00
        E 50 81 3f 00
        E 1738 81 3d 00
        E 31 81 33 00
        E 16 81 3e 00
        E 38 81 48 00
        E 17 91 49 4c
        E 10 91 33 4a
        E 0 91 49 42
        E 0 91 48 46
        E 4 91 33 4a
        E 4 81 32 00
        E 3 91 34 3f
        E 0 91 43 47
        E 3 91 48 35
        E 10 81 33 00
        E 26 81 48 00
        E 8 81 42 00
        E 1798 81 34 00
        E 9 81 43 00
        E 4 81 33 00
        E 48 91 37 34
        E 2 91 3c 39
        E 1 91 42 1f
        E 5 81 33 00
        E 0 91 34 4f
        E 0 91 47 41
        E 6 81 48 00
        E 2 91 31 42
        E 4 91 47 41
        E 1 91 48 42
        E 38 81 49 00
        E 5 81 48 00
        E 71 81 49 00
        E 1619 81 3c 00
        E 95 81 48 00
        E 60 81 37 00
        E 7 81 34 00
        E 4 91 3d 2d
        E 1 91 43 32
        E 5 91 49 44
        E 2 91 32 44
        E 6 91 40 37
        E 1 91 48 42
        E 1 91 3e 42
        E 2 81 42 00
        E 1 91 48 42
        E 21 81 31 00
        E 2 81 47 00
        E 133 81 47 00
        E 1513 81 3d 00
        E 182 81 48 00
        E 20 81 32 00
        E 28 91 32 3a
        E 7 91 48 39
        E 3 91 32 3a
        E 0 91 47 20
        E 1 91 48 39
        E 1 81 43 00
        E 3 91 3c 31
        E 3 91 33 2d
        E 5 91 36 32
        E 47 81 3e 00
        E 37 81 40 00
        E 34 81 49 00
        E 43 81 48 00
        E 1654 81 33 00
        E 9 81 47 00
        E 71 91 4a 28
        E 0 91 37 37
        E 2 91 3f 37
        E 2 91 30 28
        E 8 91 49 3c
        E 0 91 31 41
        E 1 91 49 3c
        E 10 91 49 2d
        E 39 81 48 00
        E 29 81 32 00
        E 26 81 36 00
        E 1 81 32 00
        E 1 81 3c 00
        E 65 81 48 00
        E 1646 81 30 00
        E 5 81 4a 00
        E 10 81 49 00
        E 79 91 3c 2d
        E 5 91 48 44
        E 1 91 31 37
        E 2 91 46 4a
        E 0 91 3c 2d
        E 10 91 30 31
        E 2 91 37 37
        E 0 91 3a 44
        E 7 81 49 00
        E 41 81 49 00
        E 19 81 31 00
        E 19 81 3f 00
        E 29 81 37 00
        E 1645 81 46 00
        E 72 81 3c 00
        E 11 81 31 00
        E 17 81 3a 00
        E 39 91 46 5b
        E 3 91 45 42
        E 1 91 49 31
        E 4 91 32 39
        E 4 91 32 39
        E 4 81 30 00
        E 1 81 3c 00
        E 3 91 33 39
        E 1 91 48 28
        E 1 91 48 2d
        E 128 81 48 00
        E 17 81 37 00
        E 1604 81 49 00
        E 59 81 46 00
        E 63 81 33 00
        E 8 81 32 00
        E 3 81 32 00
        E 21 91 49 27
        E 5 91 31 2f
        E 0 91 30 25
        E 0 91 3c 2a
        E 5 91 41 22
        E 1 91 35 2c
        E 1 91 32 27
        E 1 91 31 31
        E 63 81 48 00
        E 34 81 48 00
        E 69 81 45 00
        E 1637 81 32 00
        E 22 81 31 00
        E 70 91 47 35
        E 5 91 48 3d
        E 7 91 48 3d
        E 1 91 30 2c
        E 2 91 32 34
        E 9 81 41 00
        E 20 81 35 00
        E 44 81 30 00
        E 5 81 49 00
        E 36 81 31 00
        E 6 81 3c 00
        E 1663 81 30 00
        E 20 81 48 00
        E 1 81 47 00
        E 4 81 48 00
        E 112 91 3e 3c
        E 5 91 47 42
        E 8 91 3f 42
        E 45 81 32 00
        E 1795 81 3f 00
        E 67 91 36 3f
        E 6 91 48 34
        E 51 81 47 00
        E 24 81 3e 00
        E 1846 91 32 4f
        E 53 81 36 00
        E 19 81 48 00
        E 1848 91 44 4e
        E 54 81 32 00
        E 1844 91 32 5f
        E 3 91 32 5f
        E 72 81 44 00
        E 1658 81 32 00
        E 182 81 32 00
        E 19 91 32 77
        E 2 91 32 77
        E 1855 81 32 00
        E 65 91 3d 3f
        E 2 91 32 5c
        E 1 91 40 4f
        E 71 81 32 00
        E 1769 81 32 00
        E 66 81 40 00
        E 3 91 41 4c
        E 9 91 3e 54
        E 64 81 3d 00
        E 1866 91 42 5f
        E 2 91 49 56
        E 45 81 3e 00
        E 6 81 41 00
        E 1696 81 49 00
        E 291 81 42 00
        E 0 b1 7b 00
        E 1 ff 2f 00
      >
    >
  >
  <TRACK
    NAME "Flute"
    PEAKCOL 4282040170
    VOLPAN 1.000000 0 1 -1
    MIDIOUT -1
    ISBUS 0 0
    <ITEM
      POSITION 5.003642
      LENGTH 45.347762
      NAME "Flute"
      VOLPAN 1 0 1 -1
      <SOURCE MIDI
        HASDATA 1 960 QN
        E 0 c2 49 00
        E 9607 92 51 57
        E 471 82 51 00
        E 5286 92 57 54
        E 492 82 57 00
        E 3347 92 5b 52
        E 471 82 5b 00
        E 3353 92 5e 5b
        E 486 82 5e 00
        E 1438 92 5e 5f
        E 472 82 5e 00
        E 1445 92 60 69
        E 470 82 60 00
        E 3380 92 60 69
        E 462 82 60 00
        E 1463 92 60 69
        E 460 82 60 00
        E 1450 92 5b 5b
        E 478 82 5b 00
        E 3378 92 5d 68
        E 458 82 5d 00
        E 1460 92 59 64
        E 454 82 59 00
        E 1461 92 59 46
        E 474 82 59 00
        E 3376 92 54 5e
        E 506 82 54 00
        E 1389 92 54 68
        E 503 82 54 00
        E 1424 92 50 5b
        E 473 82 50 00
        E 3379 92 4d 5f
        E 451 82 4d 00
        E 1448 92 48 5e
        E 487 82 48 00
        E 1438 92 4b 5b
        E 469 82 4b 00
        E 3386 92 49 56
        E 489 82 49 00
        E 1429 92 4e 44
        E 459 82 4e 00
        E 1450 92 4a 51
        E 481 82 4a 00
        E 3355 92 50 46
        E 497 82 50 00
        E 1436 92 4f 4c
        E 506 82 4f 00
        E 1420 92 4a 41
        E 470 82 4a 00
        E 7196 92 4f 52
        E 474 82 4f 00
        E 5303 92 57 69
        E 484 82 57 00
        E 1430 92 50 6c
        E 499 82 50 00
        E 5260 92 56 73
        E 490 82 56 00
        E 1430 92 59 71
        E 480 82 59 00
        E 0 b2 7b 00
        E 1 ff 2f 00
      >
    >
  >
  <TRACK
    NAME "Clarinet"
    PEAKCOL 4282040170
    VOLPAN 1.000000 0 1 -1
    MIDIOUT -1
    ISBUS 0 0
    <ITEM
      POSITION 1.004894
      LENGTH 45.344559
      NAME "Clarinet"
      VOLPAN 1 0 1 -1
      <SOURCE MIDI
        HASDATA 1 960 QN
        E 0 c3 47 00
        E 1929 93 45 5c
        E 464 83 45 00
        E 5285 93 4c 56
        E 491 83 4c 00
        E 9126 93 41 52
        E 489 83 41 00
        E 1421 93 3e 4e
        E 473 83 3e 00
        E 3368 93 3b 56
        E 506 83 3b 00
        E 1412 93 3c 5c
        E 487 83 3c 00
        E 1431 93 39 66
        E 482 83 39 00
        E 3346 93 39 6c
        E 460 83 39 00
        E 1476 93 37 6b
        E 483 83 37 00
        E 1436 93 38 66
        E 471 83 38 00
        E 3363 93 3e 71
        E 482 83 3e 00
        E 1433 93 3d 63
        E 477 83 3d 00
        E 1431 93 3c 5e
        E 455 83 3c 00
        E 3406 93 35 56
        E 458 83 35 00
        E 1455 93 35 57
        E 489 83 35 00
        E 1446 93 33 59
        E 479 83 33 00
        E 3345 93 38 5b
        E 498 83 38 00
        E 1431 93 3d 5b
        E 476 83 3d 00
        E 1459 93 38 56
        E 469 83 38 00
        E 3355 93 38 4c
        E 482 83 38 00
        E 1429 93 33 41
        E 471 83 33 00
        E 1450 93 36 44
        E 453 83 36 00
        E 3386 93 33 49
        E 488 83 33 00
        E 1434 93 34 4a
        E 470 83 34 00
        E 1457 93 35 42
        E 451 83 35 00
        E 5313 93 35 4e
        E 458 83 35 00
        E 1445 93 38 42
        E 477 83 38 00
        E 5297 93 37 73
        E 507 83 37 00
        E 1420 93 3b 73
        E 468 83 3b 00
        E 0 b3 7b 00
        E 1 ff 2f 00
      >
    >
  >
  <TRACK
    NAME "Oboe"
    PEAKCOL 4282040170
    VOLPAN 1.000000 0 1 -1
    MIDIOUT -1
    ISBUS 0 0
    <ITEM
      POSITION 7.002428
      LENGTH 48.099834
      NAME "Oboe"
      VOLPAN 1 0 1 -1
      <SOURCE MIDI
        HASDATA 1 960 QN
        E 0 c4 44 00
        E 13445 94 42 4a
        E 1950 84 42 00
        E 3811 94 40 52
        E 1924 94 42 59
        E 8 84 40 00
        E 1919 94 3d 52
        E 5 84 42 00
        E 2016 84 3d 00
        E 1805 94 44 64
        E 1897 84 44 00
        E 24 94 46 5f
        E 1910 94 4a 5f
        E 59 84 46 00
        E 1817 84 4a 00
        E 1963 94 4e 5f
        E 1903 84 4e 00
        E 38 94 4c 56
        E 1889 84 4c 00
        E 25 94 3f 5b
        E 1900 84 3f 00
        E 1946 94 44 3f
        E 1914 94 4a 5b
        E 7 84 44 00
        E 1900 94 4a 56
        E 69 84 4a 00
        E 1821 84 4a 00
        E 1961 94 49 52
        E 1905 94 4b 54
        E 11 84 49 00
        E 1832 84 4b 00
        E 86 94 44 57
        E 1900 84 44 00
        E 1937 94 41 56
        E 1914 94 3d 52
        E 24 84 41 00
        E 1910 94 3c 4c
        E 18 84 3d 00
        E 1965 84 3c 00
        E 1857 94 41 47
        E 1825 84 41 00
        E 106 94 41 4e
        E 1898 84 41 00
        E 12 94 43 3f
        E 1842 84 43 00
        E 1996 94 45 3f
        E 1909 94 43 46
        E 18 84 45 00
        E 1882 84 43 00
        E 20 94 44 44
        E 1922 84 44 00
        E 9610 94 4d 5f
        E 1832 84 4d 00
        E 2006 94 47 5f
        E 1898 84 47 00
        E 1925 94 4a 61
        E 1939 84 4a 00
        E 1923 94 45 5f
        E 1887 84 45 00
        E 1959 94 40 5e
        E 1911 84 40 00
        E 0 b4 7b 00
        E 1 ff 2f 00
      >
    >
  >
  <TRACK
    NAME "Lead"
    PEAKCOL 4284506208
    VOLPAN 1.000000 0 1 -1
    MIDIOUT -1
    ISBUS 0 0
    <ITEM
      POSITION 0.188302
      LENGTH 49.940873
      NAME "Lead"
      VOLPAN 1 0 1 -1
      <SOURCE MIDI
        HASDATA 1 960 QN
        E 0 c5 47 00
        E 362 95 49 61
        E 971 95 4b 63
        E 213 85 49 00
        E 572 85 4b 00
        E 44 95 49 5c
        E 72 95 4a 66
        E 98 95 4d 5b
        E 63 95 4f 52
        E 68 85 4a 00
        E 25 95 52 63
        E 78 95 55 47
        E 4 85 4d 00
        E 54 85 4f 00
        E 113 85 52 00
        E 110 85 49 00
        E 444 85 55 00
        E 482 95 51 5e
        E 357 85 51 00
        E 118 95 57 51
        E 554 85 57 00
        E 273 95 57 5c
        E 737 85 57 00
        E 103 95 54 63
        E 723 85 54 00
        E 123 95 50 5c
        E 635 85 50 00
        E 186 95 51 6b
        E 584 85 51 00
        E 276 95 56 5f
        E 794 85 56 00
        E 451 95 57 5c
        E 840 95 59 4c
        E 269 85 57 00
        E 450 85 59 00
        E 107 95 59 32
        E 374 85 59 00
        E 841 95 55 66
        E 449 95 57 52
        E 292 85 55 00
        E 441 85 57 00
        E 109 95 57 4c
        E 650 85 57 00
        E 554 95 55 54
        E 159 85 55 00
        E 338 95 55 54
        E 592 85 55 00
        E 578 95 55 54
        E 484 95 57 5c
        E 269 85 55 00
        E 436 85 57 00
        E 133 95 55 59
        E 659 95 51 63
        E 4 85 55 00
        E 528 85 51 00
        E 441 95 53 5f
        E 49 95 54 52
        E 691 85 53 00
        E 13 85 54 00
        E 144 95 52 6e
        E 674 85 52 00
        E 146 95 54 61
        E 179 85 54 00
        E 414 95 56 61
        E 173 85 56 00
        E 438 95 59 59
        E 316 85 59 00
        E 173 95 56 74
        E 764 85 56 00
        E 57 95 58 70
        E 602 85 58 00
        E 246 95 56 63
        E 720 85 56 00
        E 126 95 58 4f
        E 203 95 55 4e
        E 211 95 54 4c
        E 48 85 55 00
        E 234 85 58 00
        E 464 85 54 00
        E 71 95 56 51
        E 357 85 56 00
        E 501 95 58 5c
        E 734 85 58 00
        E 333 95 57 75
        E 590 95 5a 66
        E 123 85 57 00
        E 193 85 5a 00
        E 107 95 54 74
        E 234 85 54 00
        E 180 95 58 47
        E 674 85 58 00
        E 1139 95 57 5c
        E 385 85 57 00
        E 434 95 54 6b
        E 700 85 54 00
        E 153 95 4d 63
        E 710 85 4d 00
        E 104 95 54 61
        E 425 95 57 6b
        E 231 85 57 00
        E 26 85 54 00
        E 152 95 58 6c
        E 710 85 58 00
        E 141 95 5a 3c
        E 186 85 5a 00
        E 642 95 57 57
        E 505 85 57 00
        E 334 95 56 5c
        E 660 85 56 00
        E 447 95 55 63
        E 568 95 55 5c
        E 213 85 55 00
        E 554 85 55 00
        E 98 95 51 71
        E 728 85 51 00
        E 107 95 54 77
        E 738 85 54 00
        E 71 95 57 6c
        E 529 85 57 00
        E 316 95 54 68
        E 220 95 55 4c
        E 200 95 59 44
        E 41 85 55 00
        E 264 85 54 00
        E 63 85 59 00
        E 48 95 55 3d
        E 578 85 55 00
        E 495 95 54 54
        E 491 95 54 66
        E 186 85 54 00
        E 52 85 54 00
        E 232 95 4d 54
        E 304 85 4d 00
        E 598 95 52 5f
        E 755 85 52 00
        E 70 95 4f 5e
        E 813 85 4f 00
        E 267 95 52 5e
        E 709 85 52 00
        E 324 95 54 5e
        E 697 85 54 00
        E 131 95 54 41
        E 367 85 54 00
        E 480 95 4e 44
        E 181 85 4e 00
        E 763 95 54 52
        E 716 95 55 5f
        E 3 85 54 00
        E 577 85 55 00
        E 255 95 4e 5b
        E 769 85 4e 00
        E 683 95 4d 5e
        E 414 85 4d 00
        E 296 95 4f 52
        E 369 85 4f 00
        E 477 95 54 4c
        E 531 85 54 00
        E 659 95 56 51
        E 492 95 57 54
        E 198 85 56 00
        E 538 85 57 00
        E 80 95 59 4f
        E 215 95 55 54
        E 219 95 4d 51
        E 12 85 55 00
        E 254 85 59 00
        E 448 85 4d 00
        E 100 95 54 68
        E 642 85 54 00
        E 207 95 57 4f
        E 507 85 57 00
        E 346 95 55 4c
        E 410 85 55 00
        E 406 95 4f 47
        E 706 85 4f 00
        E 139 95 54 47
        E 712 85 54 00
        E 132 95 55 3c
        E 700 85 55 00
        E 371 95 54 20
        E 192 85 54 00
        E 1175 95 56 56
        E 352 85 56 00
        E 96 95 55 4e
        E 243 85 55 00
        E 204 95 54 27
        E 155 85 54 00
        E 677 95 51 42
        E 416 95 4f 4a
        E 210 85 51 00
        E 28 85 4f 00
        E 190 95 4b 28
        E 201 85 4b 00
        E 889 95 55 3a
        E 194 85 55 00
        E 404 95 4c 41
        E 410 95 4f 49
        E 231 85 4f 00
        E 67 85 4c 00
        E 118 95 52 42
        E 703 85 52 00
        E 386 95 4a 3a
        E 171 85 4a 00
        E 124 95 4c 22
        E 182 85 4c 00
        E 530 95 4d 3a
        E 512 85 4d 00
        E 341 95 4e 41
        E 693 85 4e 00
        E 125 95 50 4c
        E 481 85 50 00
        E 342 95 4d 61
        E 789 85 4d 00
        E 76 95 49 4a
        E 779 85 49 00
        E 25 95 4a 44
        E 714 85 4a 00
        E 138 95 47 49
        E 704 85 47 00
        E 149 95 4a 20
        E 180 85 4a 00
        E 650 95 49 3f
        E 182 85 49 00
        E 658 95 4a 64
        E 693 85 4a 00
        E 142 95 47 52
        E 190 85 47 00
        E 663 95 49 74
        E 632 85 49 00
        E 186 95 48 6e
        E 671 85 48 00
        E 183 95 4a 70
        E 406 95 48 70
        E 400 85 4a 00
        E 352 85 48 00
        E 78 95 4b 77
        E 723 85 4b 00
        E 104 95 48 7d
        E 737 85 48 00
        E 117 95 4a 75
        E 625 95 49 70
        E 52 85 4a 00
        E 193 85 49 00
        E 372 95 48 70
        E 689 85 48 00
        E 171 95 46 7d
        E 939 95 46 74
        E 560 85 46 00
        E 81 85 46 00
        E 202 95 43 68
        E 667 85 43 00
        E 167 95 45 6b
        E 720 95 44 68
        E 62 85 45 00
        E 360 95 45 61
        E 195 85 44 00
        E 515 85 45 00
        E 497 95 46 74
        E 475 95 46 5e
        E 245 85 46 00
        E 122 85 46 00
        E 0 b5 7b 00
        E 1 ff 2f 00
      >
    >
  >
  <TRACK
    NAME "Bass"
    PEAKCOL 4286528191
    VOLPAN 1.000000 0 1 -1
    MIDIOUT -1
    ISBUS 0 0
    <ITEM
      POSITION 0.000000
      LENGTH 49.655901
      NAME "Bass"
      VOLPAN 1 0 1 -1
      <SOURCE MIDI
        HASDATA 1 960 QN
        E 0 c6 2b 00
        E 0 96 24 6e
        E 103 86 24 00
        E 861 96 27 64
        E 101 86 27 00
        E 855 96 24 68
        E 104 86 24 00
        E 857 96 29 71
        E 104 86 29 00
        E 857 96 26 6e
        E 104 86 26 00
        E 854 96 1f 68
        E 103 86 1f 00
        E 860 96 24 68
        E 103 86 24 00
        E 852 96 24 66
        E 106 86 24 00
        E 858 96 26 6c
        E 105 86 26 00
        E 856 96 2b 66
        E 103 86 2b 00
        E 855 96 30 6e
        E 103 86 30 00
        E 855 96 35 6e
        E 103 86 35 00
        E 865 96 32 6b
        E 104 86 32 00
        E 850 96 2e 6b
        E 103 86 2e 00
        E 857 96 30 5f
        E 101 86 30 00
        E 862 96 30 6e
        E 104 86 30 00
        E 854 96 30 6c
        E 101 86 30 00
        E 856 96 33 69
        E 103 86 33 00
        E 863 96 30 6b
        E 104 86 30 00
        E 846 96 35 73
        E 106 86 35 00
        E 862 96 31 5e
        E 106 86 31 00
        E 854 96 32 6b
        E 104 86 32 00
        E 856 96 30 6b
        E 103 86 30 00
        E 852 96 35 68
        E 104 86 35 00
        E 858 96 32 73
        E 105 86 32 00
        E 856 96 37 74
        E 104 86 37 00
        E 856 96 37 70
        E 104 86 37 00
        E 854 96 37 7a
        E 102 86 37 00
        E 865 96 33 75
        E 105 86 33 00
        E 853 96 37 77
        E 103 86 37 00
        E 854 96 37 6e
        E 103 86 37 00
        E 859 96 33 75
        E 104 86 33 00
        E 857 96 2f 6c
        E 103 86 2f 00
        E 852 96 30 71
        E 102 86 30 00
        E 859 96 30 77
        E 104 86 30 00
        E 862 96 2b 77
        E 104 86 2b 00
        E 851 96 30 7a
        E 103 86 30 00
        E 859 96 2d 70
        E 103 86 2d 00
        E 859 96 31 6b
        E 102 86 31 00
        E 851 96 31 74
        E 107 86 31 00
        E 854 96 2f 70
        E 106 86 2f 00
        E 857 96 2b 70
        E 103 86 2b 00
        E 853 96 31 6e
        E 105 86 31 00
        E 857 96 33 73
        E 102 86 33 00
        E 863 96 31 56
        E 104 86 31 00
        E 860 96 33 66
        E 103 86 33 00
        E 850 96 2f 6c
        E 103 86 2f 00
        E 860 96 2c 66
        E 105 86 2c 00
        E 847 96 30 73
        E 106 86 30 00
        E 862 96 2a 6b
        E 103 86 2a 00
        E 851 96 31 66
        E 104 86 31 00
        E 857 96 2b 66
        E 104 86 2b 00
        E 867 96 30 6b
        E 103 86 30 00
        E 845 96 33 6e
        E 104 86 33 00
        E 856 96 2f 61
        E 105 86 2f 00
        E 853 96 2d 70
        E 105 86 2d 00
        E 859 96 30 75
        E 103 86 30 00
        E 858 96 33 69
        E 104 86 33 00
        E 859 96 30 6e
        E 104 86 30 00
        E 847 96 35 66
        E 104 86 35 00
        E 860 96 30 66
        E 103 86 30 00
        E 860 96 2b 69
        E 104 86 2b 00
        E 855 96 30 69
        E 100 86 30 00
        E 857 96 30 71
        E 104 86 30 00
        E 860 96 30 5e
        E 103 86 30 00
        E 857 96 2c 5b
        E 102 86 2c 00
        E 856 96 30 5c
        E 104 86 30 00
        E 858 96 2e 54
        E 105 86 2e 00
        E 851 96 2f 59
        E 104 86 2f 00
        E 859 96 36 4f
        E 105 86 36 00
        E 854 96 30 57
        E 103 86 30 00
        E 863 96 35 54
        E 104 86 35 00
        E 850 96 32 59
        E 104 86 32 00
        E 856 96 35 5b
        E 101 86 35 00
        E 859 96 32 59
        E 103 86 32 00
        E 860 96 32 52
        E 101 86 32 00
        E 859 96 30 49
        E 102 86 30 00
        E 857 96 32 59
        E 104 86 32 00
        E 854 96 30 46
        E 104 86 30 00
        E 855 96 35 61
        E 103 86 35 00
        E 861 96 30 5c
        E 104 86 30 00
        E 847 96 33 5c
        E 102 86 33 00
        E 872 96 30 5c
        E 101 86 30 00
        E 855 96 32 51
        E 103 86 32 00
        E 858 96 30 5c
        E 104 86 30 00
        E 853 96 35 7c
        E 102 86 35 00
        E 856 96 30 77
        E 102 86 30 00
        E 860 96 2e 7a
        E 104 86 2e 00
        E 854 96 2f 7a
        E 103 86 2f 00
        E 860 96 35 79
        E 105 86 35 00
        E 847 96 30 7c
        E 106 86 30 00
        E 857 96 35 7d
        E 104 86 35 00
        E 859 96 2f 7a
        E 103 86 2f 00
        E 858 96 32 7d
        E 103 86 32 00
        E 854 96 32 79
        E 106 86 32 00
        E 856 96 37 7d
        E 104 86 37 00
        E 859 96 32 74
        E 106 86 32 00
        E 851 96 37 7d
        E 101 86 37 00
        E 854 96 32 7a
        E 101 86 32 00
        E 866 96 33 7d
        E 103 86 33 00
        E 0 b6 7b 00
        E 1 ff 2f 00
      >
    >
  >
  <TRACK
    NAME "Pedal"
    PEAKCOL 4284506208
    VOLPAN 1.000000 0 1 -1
    MIDIOUT -1
    ISBUS 0 0
    <ITEM
      POSITION 0.000000
      LENGTH 50.090550
      NAME "Pedal"
      VOLPAN 1 0 1 -1
      <SOURCE MIDI
        HASDATA 1 960 QN
        E 0 c7 2b 00
        E 0 97 11 4e
        E 3841 97 11 4e
        E 25 87 11 00
        E 3813 87 11 00
        E 1 97 11 49
        E 3837 87 11 00
        E 6 97 13 4e
        E 3834 97 0e 52
        E 18 87 13 00
        E 3812 87 0e 00
        E 10 97 0b 4c
        E 3822 87 0b 00
        E 20 97 0f 4f
        E 3836 97 0f 59
        E 22 87 0f 00
        E 3808 87 0f 00
        E 13 97 0e 59
        E 3804 87 0e 00
        E 39 97 0e 59
        E 3835 97 0e 57
        E 10 87 0e 00
        E 3822 87 0e 00
        E 14 97 0e 3c
        E 3836 97 10 52
        E 27 87 0e 00
        E 3804 87 10 00
        E 12 97 0f 47
        E 3843 97 1b 4a
        E 4 87 0f 00
        E 3831 97 0f 47
        E 47 87 1b 00
        E 3755 87 0f 00
        E 43 97 0e 46
        E 3832 97 0d 35
        E 7 87 0e 00
        E 3829 87 0d 00
        E 4 97 0e 31
        E 3812 87 0e 00
        E 31 97 0e 34
        E 3834 87 0e 00
        E 7 97 0c 3a
        E 3839 97 10 3a
        E 12 87 0c 00
        E 3819 87 10 00
        E 14 97 0e 63
        E 3792 87 0e 00
        E 46 97 10 63
        E 3845 97 18 61
        E 35 87 10 00
        E 3780 87 18 00
        E 0 b7 7b 00
        E 1 ff 2f 00
      >
    >
  >
  <TRACK
    NAME "Glock"
    PEAKCOL 4290756410
    VOLPAN 1.000000 0 1 -1
    MIDIOUT -1
    ISBUS 0 0
    <ITEM
      POSITION 4.250699
      LENGTH 49.747904
      NAME "Glock"
      VOLPAN 1 0 1 -1
      <SOURCE MIDI
        HASDATA 1 960 QN
        E 0 c8 09 00
        E 8161 98 6a 54
        E 292 88 6a 00
        E 670 98 6a 4c
        E 286 88 6a 00
        E 1633 98 6a 51
        E 290 88 6a 00
        E 669 98 6a 5b
        E 289 88 6a 00
        E 189 98 6a 4f
        E 289 88 6a 00
        E 672 98 6a 56
        E 291 88 6a 00
        E 188 98 6a 4e
        E 293 88 6a 00
        E 1150 98 69 51
        E 294 88 69 00
        E 1144 98 69 49
        E 283 88 69 00
        E 1639 98 6a 57
        E 289 88 6a 00
        E 185 98 6a 5c
        E 289 88 6a 00
        E 196 98 69 4f
        E 287 88 69 00
        E 192 98 69 51
        E 285 88 69 00
        E 191 98 6a 52
        E 292 88 6a 00
        E 192 98 6a 5e
        E 289 88 6a 00
        E 194 98 69 54
        E 285 88 69 00
        E 196 98 69 57
        E 289 88 69 00
        E 187 98 6a 59
        E 285 88 6a 00
        E 191 98 6a 59
        E 290 88 6a 00
        E 197 98 6a 61
        E 297 88 6a 00
        E 182 98 6a 61
        E 283 88 6a 00
        E 198 98 6a 5c
        E 290 88 6a 00
        E 184 98 6f 5b
        E 295 88 6f 00
        E 187 98 6e 57
        E 292 88 6e 00
        E 189 98 67 44
        E 283 88 67 00
        E 200 98 69 5f
        E 286 88 69 00
        E 185 98 68 5f
        E 286 88 68 00
        E 198 98 69 5b
        E 290 88 69 00
        E 192 98 6a 59
        E 284 88 6a 00
        E 196 98 6a 5b
        E 289 88 6a 00
        E 191 98 68 56
        E 289 88 68 00
        E 187 98 69 64
        E 290 88 69 00
        E 196 98 69 66
        E 285 88 69 00
        E 188 98 69 63
        E 289 88 69 00
        E 198 98 67 63
        E 290 88 67 00
        E 192 98 6a 61
        E 291 88 6a 00
        E 183 98 69 5c
        E 286 88 69 00
        E 197 98 6a 57
        E 284 88 6a 00
        E 195 98 67 57
        E 289 88 67 00
        E 189 98 67 56
        E 296 88 67 00
        E 189 98 69 56
        E 293 88 69 00
        E 183 98 68 4e
        E 291 88 68 00
        E 188 98 67 5f
        E 288 88 67 00
        E 191 98 6c 5c
        E 290 88 6c 00
        E 194 98 6b 5f
        E 288 88 6b 00
        E 193 98 69 59
        E 283 88 69 00
        E 193 98 6a 64
        E 288 88 6a 00
        E 190 98 6a 5f
        E 285 88 6a 00
        E 199 98 6a 59
        E 294 88 6a 00
        E 184 98 6a 69
        E 286 88 6a 00
        E 201 98 66 52
        E 292 88 66 00
        E 186 98 6d 61
        E 285 88 6d 00
        E 194 98 6a 5f
        E 282 88 6a 00
        E 197 98 69 5b
        E 289 88 69 00
        E 192 98 6a 66
        E 293 88 6a 00
        E 188 98 69 5b
        E 288 88 69 00
        E 188 98 69 51
        E 284 88 69 00
        E 197 98 69 54
        E 286 88 69 00
        E 196 98 6a 4c
        E 285 88 6a 00
        E 190 98 68 56
        E 286 88 68 00
        E 200 98 69 54
        E 292 88 69 00
        E 185 98 69 56
        E 285 88 69 00
        E 199 98 69 52
        E 294 88 69 00
        E 183 98 6a 57
        E 289 88 6a 00
        E 190 98 6a 5b
        E 294 88 6a 00
        E 181 98 69 52
        E 286 88 69 00
        E 199 98 68 5b
        E 287 88 68 00
        E 191 98 69 56
        E 289 88 69 00
        E 192 98 6a 5b
        E 286 88 6a 00
        E 199 98 6a 5e
        E 288 88 6a 00
        E 186 98 64 4e
        E 287 88 64 00
        E 194 98 69 4e
        E 284 88 69 00
        E 200 98 69 52
        E 295 88 69 00
        E 182 98 69 49
        E 286 88 69 00
        E 192 98 61 3a
        E 290 88 61 00
        E 189 98 69 4c
        E 288 88 69 00
        E 199 98 6a 52
        E 282 88 6a 00
        E 196 98 6a 4e
        E 285 88 6a 00
        E 193 98 68 52
        E 287 88 68 00
        E 192 98 6a 57
        E 290 88 6a 00
        E 190 98 6b 5e
        E 290 88 6b 00
        E 193 98 6a 56
        E 286 88 6a 00
        E 190 98 69 54
        E 292 88 69 00
        E 186 98 6a 57
        E 285 88 6a 00
        E 199 98 69 52
        E 287 88 69 00
        E 195 98 69 51
        E 287 88 69 00
        E 191 98 68 5b
        E 283 88 68 00
        E 195 98 69 57
        E 292 88 69 00
        E 195 98 6a 52
        E 284 88 6a 00
        E 189 98 69 4c
        E 290 88 69 00
        E 189 98 67 3f
        E 286 88 67 00
        E 196 98 6a 5b
        E 293 88 6a 00
        E 186 98 69 51
        E 288 88 69 00
        E 193 98 6a 5b
        E 287 88 6a 00
        E 196 98 68 52
        E 289 88 68 00
        E 186 98 6a 57
        E 286 88 6a 00
        E 197 98 68 56
        E 289 88 68 00
        E 191 98 69 56
        E 291 88 69 00
        E 189 98 68 57
        E 281 88 68 00
        E 199 98 6a 63
        E 287 88 6a 00
        E 193 98 69 49
        E 284 88 69 00
        E 197 98 68 42
        E 287 88 68 00
        E 192 98 67 46
        E 280 88 67 00
        E 201 98 6a 41
        E 290 88 6a 00
        E 186 98 6a 3f
        E 291 88 6a 00
        E 189 98 68 3a
        E 293 88 68 00
        E 191 98 67 2d
        E 287 88 67 00
        E 192 98 6a 4e
        E 290 88 6a 00
        E 187 98 6a 42
        E 288 88 6a 00
        E 195 98 69 3d
        E 291 88 69 00
        E 189 98 68 42
        E 285 88 68 00
        E 195 98 6a 4e
        E 288 88 6a 00
        E 190 98 6a 44
        E 290 88 6a 00
        E 195 98 6a 4a
        E 289 88 6a 00
        E 186 98 69 46
        E 281 88 69 00
        E 201 98 6a 51
        E 291 88 6a 00
        E 189 98 6a 4e
        E 293 88 6a 00
        E 189 98 6a 44
        E 281 88 6a 00
        E 194 98 6a 49
        E 288 88 6a 00
        E 195 98 6a 4e
        E 279 88 6a 00
        E 200 98 6a 42
        E 292 88 6a 00
        E 189 98 69 3d
        E 288 88 69 00
        E 195 98 6a 2a
        E 284 88 6a 00
        E 197 98 6a 46
        E 293 88 6a 00
        E 182 98 6a 3f
        E 287 88 6a 00
        E 194 98 6a 4e
        E 290 88 6a 00
        E 191 98 69 4c
        E 287 88 69 00
        E 189 98 6a 4e
        E 283 88 6a 00
        E 200 98 6a 4e
        E 284 88 6a 00
        E 197 98 69 3c
        E 287 88 69 00
        E 1154 98 6a 3c
        E 291 88 6a 00
        E 186 98 6a 44
        E 281 88 6a 00
        E 6439 98 6b 63
        E 294 88 6b 00
        E 187 98 6a 5f
        E 289 88 6a 00
        E 670 98 69 71
        E 287 88 69 00
        E 190 98 6a 6e
        E 287 88 6a 00
        E 199 98 69 64
        E 289 88 69 00
        E 2109 98 6a 61
        E 290 88 6a 00
        E 2111 98 6a 69
        E 288 88 6a 00
        E 673 98 6a 64
        E 285 88 6a 00
        E 3557 98 6a 63
        E 287 88 6a 00
        E 190 98 6a 61
        E 280 88 6a 00
        E 1155 98 6a 6b
        E 287 88 6a 00
        E 4035 98 6a 63
        E 287 88 6a 00
        E 0 b8 7b 00
        E 1 ff 2f 00
      >
    >
  >
  <TRACK
    NAME "Horns"
    PEAKCOL 4290740026
    VOLPAN 1.000000 0 1 -1
    MIDIOUT -1
    ISBUS 0 0
    <ITEM
      POSITION 10.002336
      LENGTH 50.108875
      NAME "Horns"
      VOLPAN 1 0 1 -1
      <SOURCE MIDI
        HASDATA 1 960 QN
        E 0 ca 3c 00
        E 19204 9a 30 42
        E 1939 9a 34 5b
        E 15 8a 30 00
        E 1919 9a 32 52
        E 23 8a 34 00
        E 1901 8a 32 00
        E 1888 9a 30 59
        E 1919 9a 2c 54
        E 30 8a 30 00
        E 1855 8a 2c 00
        E 32 9a 31 59
        E 1925 8a 31 00
        E 1925 9a 3c 68
        E 1821 8a 3c 00
        E 90 9a 40 5b
        E 1886 8a 40 00
        E 37 9a 31 56
        E 1928 8a 31 00
        E 1916 9a 3d 42
        E 1913 8a 3d 00
        E 0 9a 3f 54
        E 1921 9a 40 4e
        E 41 8a 3f 00
        E 1857 8a 40 00
        E 1968 9a 40 4e
        E 1860 8a 40 00
        E 49 9a 3d 54
        E 1892 8a 3d 00
        E 21 9a 33 4e
        E 1985 8a 33 00
        E 1843 9a 3c 54
        E 1930 9a 37 4e
        E 17 8a 3c 00
        E 1905 9a 3c 4e
        E 32 8a 37 00
        E 1886 8a 3c 00
        E 1918 9a 3e 41
        E 1863 8a 3e 00
        E 71 9a 37 44
        E 1902 9a 31 3a
        E 60 8a 37 00
        E 1821 8a 31 00
        E 1969 9a 31 3a
        E 1928 8a 31 00
        E 10 9a 3d 3f
        E 1905 9a 3c 3f
        E 27 8a 3d 00
        E 1857 8a 3c 00
        E 1955 9a 40 47
        E 1919 8a 40 00
        E 15 9a 3b 6e
        E 1893 9a 3a 71
        E 32 8a 3b 00
        E 1874 8a 3a 00
        E 1959 9a 37 77
        E 1882 8a 37 00
        E 14 9a 34 74
        E 1917 9a 3a 66
        E 7 8a 34 00
        E 1904 8a 3a 00
        E 1938 9a 3a 69
        E 1923 9a 3b 5b
        E 31 8a 3a 00
        E 1868 8a 3b 00
        E 24 9a 36 64
        E 1947 8a 36 00
        E 1879 9a 32 61
        E 1932 9a 37 6e
        E 47 8a 32 00
        E 1883 9a 3c 6e
        E 25 8a 37 00
        E 1858 8a 3c 00
        E 1929 9a 37 6c
        E 1907 8a 37 00
        E 30 9a 39 69
        E 1925 8a 39 00
        E 0 ba 7b 00
        E 1 ff 2f 00
      >
    >
  >
>
