<REAPER_PROJECT 0.1 "7.0" 1700000000
  TEMPO 72.000000 4 4
  SAMPLERATE 48000 0 0
  RENDER_FILE ""
  RENDER_FMT 0 2 0
  RENDER_1X 0
  RENDER_RANGE 1 0 130.119089 0 0
  RENDER_RESAMPLE 3 0 1
  <MASTERTRACK
    VOLPAN 1 0 1 -1
    DEFCHAN 0
  >
  <TRACK
    NAME "Lead"
    PEAKCOL 4284506208
    VOLPAN 1.000000 0 1 -1
    MIDIOUT -1
    ISBUS 0 0
    <ITEM
      POSITION 0.000000
      LENGTH 80.490813
      NAME "Lead"
      VOLPAN 1 0 1 -1
      <SOURCE MIDI
        HASDATA 1 960 QN
        E 0 c0 28 00
        E 0 90 48 53
        E 603 90 49 3f
        E 518 80 48 00
        E 50 80 49 00
        E 870 90 48 43
        E 984 80 48 00
        E 332 90 4d 54
        E 851 90 4a 3e
        E 125 80 4d 00
        E 386 80 4a 00
        E 241 90 49 1c
        E 229 80 49 00
        E 569 90 45 47
        E 267 80 45 00
        E 813 90 48 32
        E 938 80 48 00
        E 6 90 45 46
        E 562 80 45 00
        E 644 90 41 43
        E 1153 80 41 00
        E 266 90 42 44
        E 800 80 42 00
        E 184 90 42 44
        E 1038 80 42 00
        E 139 90 42 34
        E 511 80 42 00
        E 695 90 3e 36
        E 705 80 3e 00
        E 501 90 3c 2f
        E 235 80 3c 00
        E 1545 90 3f 32
        E 1155 80 3f 00
        E 159 90 3e 3c
        E 365 90 47 65
        E 415 80 3e 00
        E 171 90 43 37
        E 582 80 47 00
        E 8 80 43 00
        E 841 90 3f 36
        E 1053 80 3f 00
        E 270 90 42 59
        E 836 90 3d 41
        E 201 80 42 00
        E 305 80 3d 00
        E 289 90 45 32
        E 239 80 45 00
        E 528 90 47 58
        E 248 80 47 00
        E 851 90 43 46
        E 912 80 43 00
        E 27 90 48 4b
        E 528 80 48 00
        E 676 90 49 56
        E 1108 80 49 00
        E 325 90 49 47
        E 804 80 49 00
        E 161 90 49 4c
        E 1011 80 49 00
        E 175 90 49 44
        E 488 80 49 00
        E 729 90 4b 47
        E 770 80 4b 00
        E 413 90 48 2a
        E 223 80 48 00
        E 1577 90 4a 4b
        E 1098 80 4a 00
        E 210 90 4a 50
        E 346 90 47 6e
        E 409 80 4a 00
        E 783 90 44 4c
        E 1086 80 47 00
        E 61 80 44 00
        E 1746 90 49 44
        E 1999 80 49 00
        E 650 90 4c 58
        E 1656 90 48 53
        E 549 80 4c 00
        E 518 80 48 00
        E 486 90 4a 75
        E 476 80 4a 00
        E 1094 90 47 75
        E 532 80 47 00
        E 1619 90 48 68
        E 1844 80 48 00
        E 65 90 44 58
        E 1107 80 44 00
        E 1301 90 42 6e
        E 447 90 40 65
        E 800 80 40 00
        E 168 90 43 6a
        E 777 80 42 00
        E 392 80 43 00
        E 281 90 42 61
        E 1236 90 41 6e
        E 239 80 41 00
        E 150 80 42 00
        E 284 90 40 68
        E 31 90 3e 5d
        E 740 80 40 00
        E 676 90 3d 61
        E 505 80 3d 00
        E 68 80 3e 00
        E 123 90 3d 58
        E 243 90 3e 63
        E 790 80 3d 00
        E 186 90 41 6e
        E 37 80 3e 00
        E 764 80 41 00
        E 271 90 40 6e
        E 367 90 3f 68
        E 735 80 40 00
        E 658 90 47 79
        E 132 80 3f 00
        E 446 80 47 00
        E 21 90 4a 66
        E 402 90 3f 49
        E 445 80 3f 00
        E 78 80 4a 00
        E 805 90 48 5d
        E 263 80 48 00
        E 543 90 49 70
        E 257 80 49 00
        E 247 90 49 70
        E 331 90 4b 7b
        E 214 80 49 00
        E 409 90 42 7c
        E 391 80 4b 00
        E 295 90 4a 79
        E 958 80 4a 00
        E 522 80 42 00
        E 421 90 49 7b
        E 31 90 40 72
        E 12 90 46 73
        E 503 80 49 00
        E 188 90 48 7c
        E 477 80 46 00
        E 137 90 50 76
        E 226 80 40 00
        E 280 80 48 00
        E 49 80 50 00
        E 874 90 4c 7c
        E 1041 80 4c 00
        E 290 90 50 7b
        E 834 90 50 79
        E 193 80 50 00
        E 327 80 50 00
        E 261 90 4e 60
        E 217 80 4e 00
        E 551 90 4a 7b
        E 253 80 4a 00
        E 832 90 4c 7a
        E 943 90 4a 73
        E 19 80 4c 00
        E 562 80 4a 00
        E 625 90 48 79
        E 1107 80 48 00
        E 329 90 48 7d
        E 749 80 48 00
        E 227 90 47 7b
        E 1058 80 47 00
        E 99 90 48 66
        E 507 80 48 00
        E 707 90 45 7b
        E 743 80 45 00
        E 469 90 48 5e
        E 233 80 48 00
        E 1550 90 45 7c
        E 1126 80 45 00
        E 189 90 43 7b
        E 806 80 43 00
        E 0 b0 7b 00
        E 1 ff 2f 00
      >
    >
  >
  <TRACK
    NAME "Strings"
    PEAKCOL 4284186559
    VOLPAN 1.000000 0 1 -1
    MIDIOUT -1
    ISBUS 0 0
    <ITEM
      POSITION 0.002314
      LENGTH 80.160115
      NAME "Strings"
      VOLPAN 1 0 1 -1
      <SOURCE MIDI
        HASDATA 1 960 QN
        E 0 c1 30 00
        E 3 91 3b 2d
        E 1 91 3c 39
        E 1 91 3c 39
        E 1826 81 3c 00
        E 81 91 30 2f
        E 5 91 3c 32
        E 5 91 3d 32
        E 16 91 3b 37
        E 56 81 3b 00
        E 1 81 3c 00
        E 1787 81 3c 00
        E 58 81 30 00
        E 0 91 32 41
        E 5 91 31 3f
        E 4 91 3c 32
        E 53 81 3d 00
        E 65 81 3b 00
        E 1686 81 32 00
        E 61 81 31 00
        E 45 91 3b 24
        E 16 91 3c 22
        E 89 81 3c 00
        E 1750 81 3c 00
        E 122 81 3b 00
        E 1853 91 30 2d
        E 0 91 3b 27
        E 16 91 3b 27
        E 1 91 2f 3f
        E 9 91 3c 22
        E 1703 81 3b 00
        E 148 81 2f 00
        E 49 91 3d 2d
        E 5 81 30 00
        E 44 81 3b 00
        E 151 81 3c 00
        E 1720 91 3d 3f
        E 3 91 34 3f
        E 147 81 3d 00
        E 1591 81 3d 00
        E 169 91 3d 32
        E 24 91 3c 29
        E 3 91 3d 2d
        E 92 81 34 00
        E 1774 81 3c 00
        E 57 91 31 36
        E 22 81 3d 00
        E 48 81 3d 00
        E 1809 81 31 00
        E 14 91 3c 2a
        E 2 91 3b 3f
        E 5 91 3c 31
        E 3 91 3c 31
        E 1 91 3c 2d
        E 7 91 32 31
        E 2 91 3b 32
        E 2 91 31 2d
        E 1837 81 3b 00
        E 2 81 3b 00
        E 22 81 3c 00
        E 1 81 3c 00
        E 20 81 3c 00
        E 8 81 3c 00
        E 13 91 39 44
        E 3 91 3c 4b
        E 2 81 31 00
        E 5 91 38 32
        E 1 91 39 44
        E 1 91 38 32
        E 4 91 39 20
        E 1 91 3d 34
        E 4 91 3c 4b
        E 13 81 32 00
        E 1797 81 3c 00
        E 46 81 39 00
        E 11 81 39 00
        E 39 91 3d 3a
        E 2 91 42 3f
        E 1 91 3d 44
        E 3 91 30 32
        E 0 91 3c 32
        E 2 91 41 39
        E 3 91 3f 39
        E 5 81 3d 00
        E 1 91 3d 32
        E 3 81 39 00
        E 34 81 3c 00
        E 10 81 38 00
        E 14 81 38 00
        E 1649 81 3d 00
        E 74 81 30 00
        E 47 81 41 00
        E 43 81 3c 00
        E 16 91 3a 2d
        E 1 91 3c 3f
        E 1 91 3c 3f
        E 4 91 3d 43
        E 4 81 42 00
        E 4 91 34 2d
        E 5 91 3c 36
        E 2 91 3c 20
        E 9 91 3c 39
        E 52 81 3d 00
        E 27 81 3d 00
        E 31 81 3f 00
        E 1601 81 3d 00
        E 92 81 3c 00
        E 33 81 34 00
        E 0 81 3c 00
        E 51 81 3c 00
        E 6 91 3c 3f
        E 6 91 3c 44
        E 1 91 2f 44
        E 3 91 3d 39
        E 0 91 3c 39
        E 6 91 40 2d
        E 0 91 3c 3f
        E 2 81 3c 00
        E 2 91 3e 39
        E 56 81 3c 00
        E 15 81 3a 00
        E 1676 81 3c 00
        E 23 81 3c 00
        E 71 81 2f 00
        E 42 81 3c 00
        E 13 91 3f 32
        E 2 91 42 39
        E 6 91 3e 3f
        E 5 91 3c 3f
        E 3 91 3a 50
        E 5 91 3f 32
        E 7 91 40 41
        E 0 91 3d 43
        E 39 81 3d 00
        E 96 81 3e 00
        E 4 81 40 00
        E 65 81 3c 00
        E 1522 81 3c 00
        E 30 81 42 00
        E 74 81 3f 00
        E 14 81 3f 00
        E 32 81 3d 00
        E 19 81 40 00
        E 1 91 3c 43
        E 2 91 39 41
        E 11 91 35 44
        E 1 91 2a 43
        E 1 91 3a 46
        E 0 91 2a 43
        E 0 91 3d 3f
        E 5 91 3d 3f
        E 78 81 3e 00
        E 4 81 3a 00
        E 1674 81 3d 00
        E 109 81 35 00
        E 15 81 3a 00
        E 20 91 3d 3c
        E 1 81 39 00
        E 2 91 3c 44
        E 3 91 35 2d
        E 0 91 32 24
        E 6 91 3c 44
        E 1 91 37 3a
        E 3 91 3e 3a
        E 3 81 2a 00
        E 6 91 3e 3a
        E 12 81 2a 00
        E 33 81 3c 00
        E 42 81 3d 00
        E 1711 81 3c 00
        E 9 81 35 00
        E 55 81 32 00
        E 31 81 3c 00
        E 2 91 40 50
        E 1 91 40 24
        E 4 91 3d 47
        E 1 91 3f 31
        E 5 91 33 44
        E 5 91 3d 47
        E 7 91 3c 31
        E 1 91 3c 2c
        E 6 81 3d 00
        E 105 81 3e 00
        E 22 81 37 00
        E 31 81 3e 00
        E 1529 81 3d 00
        E 110 81 33 00
        E 41 81 3d 00
        E 58 91 3e 34
        E 1 91 40 47
        E 1 91 3e 34
        E 3 81 40 00
        E 0 91 40 47
        E 1 91 3b 3f
        E 6 91 30 37
        E 2 91 3b 3c
        E 1 91 31 39
        E 5 81 3c 00
        E 27 81 3c 00
        E 20 81 40 00
        E 125 81 3f 00
        E 1680 81 40 00
        E 9 81 40 00
        E 18 81 3b 00
        E 17 91 3d 44
        E 4 91 3d 4c
        E 2 81 3b 00
        E 0 91 39 3f
        E 1 91 30 44
        E 1 91 3b 51
        E 9 91 3a 4b
        E 4 91 3d 4c
        E 2 91 3b 44
        E 19 81 3e 00
        E 18 81 31 00
        E 20 81 3e 00
        E 31 81 30 00
        E 1626 81 3d 00
        E 29 81 3d 00
        E 40 81 3d 00
        E 59 81 3b 00
        E 25 81 30 00
        E 36 91 32 3a
        E 1 91 38 3a
        E 1 91 31 44
        E 0 91 30 3f
        E 1 91 3e 4e
        E 0 91 3c 3f
        E 2 91 3b 4c
        E 2 91 30 3f
        E 51 81 3b 00
        E 22 81 3a 00
        E 51 81 39 00
        E 1543 81 3b 00
        E 5 81 3c 00
        E 42 81 38 00
        E 21 81 31 00
        E 166 91 3c 41
        E 7 91 3c 41
        E 2 91 3d 32
        E 4 91 39 36
        E 1 91 3c 36
        E 6 91 45 37
        E 7 91 42 3f
        E 1 81 32 00
        E 2 91 3c 39
        E 13 81 30 00
        E 89 81 30 00
        E 95 81 3e 00
        E 1552 81 3c 00
        E 22 81 3c 00
        E 0 81 3c 00
        E 103 81 3d 00
        E 17 91 3c 37
        E 9 91 3c 47
        E 4 91 3c 3c
        E 4 91 3d 49
        E 5 91 3d 49
        E 0 91 3c 47
        E 4 91 3e 47
        E 2 91 37 43
        E 5 81 42 00
        E 50 81 39 00
        E 61 81 3c 00
        E 15 81 45 00
        E 1613 81 37 00
        E 83 81 3c 00
        E 15 81 3c 00
        E 27 81 3c 00
        E 28 91 3d 39
        E 5 81 3c 00
        E 3 91 3b 5b
        E 4 91 3c 44
        E 1 91 3b 56
        E 1 91 3c 5e
        E 1 91 30 60
        E 3 91 3c 5d
        E 6 91 3c 4c
        E 102 81 3d 00
        E 18 81 3d 00
        E 20 81 3e 00
        E 1659 81 3c 00
        E 23 81 3b 00
        E 27 81 3b 00
        E 20 81 3c 00
        E 28 91 3c 60
        E 6 91 3d 49
        E 2 91 3c 5b
        E 3 91 3d 63
        E 1 91 3e 58
        E 1 91 3c 60
        E 3 91 3d 61
        E 1 91 3c 56
        E 1 81 30 00
        E 13 81 3d 00
        E 6 81 3c 00
        E 34 81 3c 00
        E 1748 81 3c 00
        E 60 81 3c 00
        E 11 81 3c 00
        E 9 81 3d 00
        E 16 91 3d 50
        E 5 91 3c 58
        E 5 91 3d 43
        E 0 91 3c 44
        E 0 91 3c 58
        E 6 91 3c 56
        E 2 91 3c 4e
        E 5 91 3d 50
        E 5 81 3c 00
        E 111 81 3d 00
        E 37 81 3e 00
        E 17 81 3d 00
        E 1650 81 3c 00
        E 16 81 3c 00
        E 62 91 3c 5d
        E 7 81 3d 00
        E 0 91 3d 53
        E 4 91 3c 50
        E 1 91 3d 44
        E 5 81 3d 00
        E 0 91 3d 4b
        E 2 91 3d 50
        E 5 91 3e 54
        E 3 91 3c 5d
        E 75 81 3c 00
        E 25 81 3d 00
        E 13 81 3c 00
        E 65 81 3c 00
        E 1605 81 3e 00
        E 20 81 3c 00
        E 10 81 3d 00
        E 30 81 3d 00
        E 16 81 3d 00
        E 30 91 3c 65
        E 1 91 3e 5b
        E 8 91 3e 50
        E 3 91 3c 65
        E 5 91 41 60
        E 9 91 40 61
        E 2 91 2a 53
        E 6 91 2a 4e
        E 87 81 3d 00
        E 5 81 3c 00
        E 7 81 3c 00
        E 1644 81 3e 00
        E 82 81 3c 00
        E 31 81 2a 00
        E 2 81 3c 00
        E 15 81 2a 00
        E 27 91 3c 50
        E 0 91 3e 4e
        E 3 91 3c 3e
        E 2 91 3c 3e
        E 1 91 42 3c
        E 0 91 3c 50
        E 5 91 30 37
        E 2 81 40 00
        E 1 91 3b 2d
        E 111 81 3e 00
        E 18 81 41 00
        E 1644 81 3b 00
        E 63 81 3c 00
        E 35 81 3c 00
        E 30 81 3c 00
        E 5 91 3d 49
        E 1 81 3c 00
        E 0 81 42 00
        E 0 91 3c 46
        E 1 91 37 4b
        E 4 91 37 49
        E 1 91 31 3f
        E 1 91 36 4c
        E 6 91 31 37
        E 0 91 30 37
        E 78 81 30 00
        E 39 81 3e 00
        E 1701 81 3c 00
        E 33 81 37 00
        E 14 81 30 00
        E 29 91 3c 4e
        E 5 91 3d 50
        E 1 91 3d 59
        E 1 81 31 00
        E 3 91 3d 59
        E 2 81 36 00
        E 2 91 3c 4e
        E 1 91 3d 44
        E 0 91 3d 56
        E 7 91 3c 47
        E 5 81 3d 00
        E 6 81 37 00
        E 54 81 31 00
        E 1718 81 3d 00
        E 46 81 3d 00
        E 11 81 3d 00
        E 55 91 3d 58
        E 4 81 3c 00
        E 6 81 3d 00
        E 2 91 3c 5b
        E 2 91 3c 4b
        E 0 91 3c 5b
        E 6 91 2a 50
        E 3 91 3b 58
        E 3 91 3d 58
        E 1 91 3b 58
        E 22 81 3c 00
        E 7 81 3d 00
        E 4 81 3c 00
        E 1817 81 3c 00
        E 8 81 3d 00
        E 30 81 3c 00
        E 13 81 3c 00
        E 1 91 3d 53
        E 4 91 3c 50
        E 0 91 3b 58
        E 2 91 3c 50
        E 1 91 3d 53
        E 1 81 3b 00
        E 0 91 3d 51
        E 10 91 3b 58
        E 2 91 2c 50
        E 44 81 2a 00
        E 30 81 3b 00
        E 68 81 3d 00
        E 1514 81 3c 00
        E 86 81 3d 00
        E 40 81 3c 00
        E 70 81 3d 00
        E 45 91 33 46
        E 0 91 32 44
        E 1 91 33 46
        E 4 91 33 31
        E 5 91 3a 3e
        E 1 91 3a 50
        E 3 91 39 47
        E 2 81 3b 00
        E 10 91 3b 46
        E 2 81 3b 00
        E 6 81 2c 00
        E 136 81 3d 00
        E 1709 81 3b 00
        E 41 91 3c 50
        E 4 91 3d 53
        E 3 91 3c 44
        E 3 91 3d 53
        E 2 91 24 46
        E 7 91 3b 47
        E 2 91 23 54
        E 3 91 3d 44
        E 21 81 3a 00
        E 14 81 33 00
        E 17 81 3a 00
        E 24 81 33 00
        E 8 81 33 00
        E 36 81 32 00
        E 39 81 39 00
        E 1638 81 24 00
        E 13 81 3b 00
        E 15 81 23 00
        E 66 91 30 4b
        E 12 91 34 41
        E 4 91 29 51
        E 2 91 3a 5e
        E 2 91 27 50
        E 2 91 40 61
        E 0 91 40 61
        E 4 91 3a 5d
        E 7 81 3c 00
        E 63 81 3d 00
        E 17 81 3d 00
        E 22 81 3c 00
        E 38 81 3d 00
        E 1671 81 34 00
        E 14 81 29 00
        E 14 81 30 00
        E 48 91 42 65
        E 2 91 3c 66
        E 1 91 3b 6b
        E 1 91 3d 75
        E 8 91 3d 75
        E 5 91 41 5e
        E 6 91 3b 5d
        E 2 91 3d 6b
        E 17 81 40 00
        E 10 81 27 00
        E 10 81 3a 00
        E 54 81 3a 00
        E 28 81 40 00
        E 1639 81 42 00
        E 63 81 41 00
        E 6 81 3b 00
        E 34 81 3c 00
        E 37 91 41 66
        E 7 91 3f 53
        E 2 81 3d 00
        E 0 91 31 44
        E 2 91 30 46
        E 4 91 3d 56
        E 4 91 2d 5d
        E 2 91 3e 59
        E 3 91 42 44
        E 14 81 3b 00
        E 95 81 3d 00
        E 12 81 3d 00
        E 1664 81 42 00
        E 34 81 41 00
        E 43 81 30 00
        E 58 91 37 61
        E 24 81 3f 00
        E 50 81 3d 00
        E 2 81 31 00
        E 57 81 2d 00
        E 50 81 3e 00
        E 1724 91 41 6b
        E 3 91 26 5b
        E 7 91 3b 66
        E 2 91 3b 6d
        E 41 81 37 00
        E 1740 81 41 00
        E 51 81 3b 00
        E 94 81 26 00
        E 0 91 30 60
        E 90 81 3b 00
        E 1808 91 3c 43
        E 82 81 30 00
        E 1701 81 3c 00
        E 130 91 3f 54
        E 14 91 36 51
        E 1784 81 3f 00
        E 16 81 36 00
        E 106 91 28 53
        E 11 91 26 51
        E 1806 81 28 00
        E 107 91 31 66
        E 10 91 3d 66
        E 36 81 26 00
        E 1826 81 3d 00
        E 57 91 41 5e
        E 8 91 3d 4b
        E 88 81 31 00
        E 1812 91 3b 60
        E 12 91 3c 39
        E 50 81 41 00
        E 7 81 3d 00
        E 1892 81 3c 00
        E 42 81 3b 00
        E 0 b1 7b 00
        E 1 ff 2f 00
      >
    >
  >
  <TRACK
    NAME "Harp"
    PEAKCOL 4290756410
    VOLPAN 1.000000 0 1 -1
    MIDIOUT -1
    ISBUS 0 0
    <ITEM
      POSITION 0.000383
      LENGTH 80.201134
      NAME "Harp"
      VOLPAN 1 0 1 -1
      <SOURCE MIDI
        HASDATA 1 960 QN
        E 0 c2 2e 00
        E 0 92 27 49
        E 118 92 28 3e
        E 123 92 2c 3e
        E 122 92 34 3a
        E 119 92 31 37
        E 119 92 34 34
        E 116 92 37 39
        E 126 92 3d 32
        E 118 92 3d 3a
        E 77 82 31 00
        E 44 92 40 36
        E 23 82 34 00
        E 73 82 37 00
        E 23 92 42 2a
        E 49 82 3d 00
        E 71 92 48 25
        E 12 82 3d 00
        E 70 82 40 00
        E 35 92 42 29
        E 30 82 42 00
        E 59 82 27 00
        E 9 82 48 00
        E 26 92 3f 43
        E 50 82 42 00
        E 49 82 28 00
        E 17 92 3c 27
        E 8 82 3f 00
        E 53 82 2c 00
        E 16 82 3c 00
        E 46 92 3b 25
        E 34 82 34 00
        E 5 82 3b 00
        E 78 92 25 47
        E 120 92 29 46
        E 120 92 2d 47
        E 122 92 33 34
        E 123 92 33 3a
        E 118 92 36 2c
        E 122 92 3f 34
        E 118 92 41 43
        E 115 92 44 24
        E 5 82 33 00
        E 71 82 33 00
        E 49 92 3e 2c
        E 32 82 36 00
        E 86 82 3f 00
        E 0 92 3e 34
        E 46 82 41 00
        E 73 82 44 00
        E 2 92 36 32
        E 76 82 3e 00
        E 44 92 33 25
        E 26 82 3e 00
        E 74 82 36 00
        E 20 92 32 34
        E 3 82 25 00
        E 48 82 33 00
        E 61 82 29 00
        E 7 92 2d 2d
        E 7 82 32 00
        E 62 82 2d 00
        E 50 92 21 2f
        E 122 92 26 47
        E 120 92 25 3c
        E 118 92 2d 4b
        E 119 92 2b 3f
        E 122 92 31 37
        E 123 92 34 37
        E 118 92 38 3f
        E 121 92 3d 41
        E 119 92 3e 37
        E 97 82 31 00
        E 24 92 40 31
        E 22 82 34 00
        E 93 82 38 00
        E 2 92 40 29
        E 60 82 3d 00
        E 8 82 2d 00
        E 55 92 48 29
        E 1 82 3e 00
        E 76 82 40 00
        E 25 82 21 00
        E 16 92 44 3f
        E 21 82 40 00
        E 82 82 48 00
        E 14 82 26 00
        E 3 92 40 32
        E 54 82 44 00
        E 28 82 25 00
        E 37 92 3d 25
        E 5 82 40 00
        E 72 82 3d 00
        E 35 82 2d 00
        E 8 92 3b 3e
        E 39 82 3b 00
        E 36 82 2b 00
        E 46 92 26 4e
        E 123 92 2b 4b
        E 119 92 2d 3f
        E 117 92 2c 44
        E 123 92 30 49
        E 118 92 33 37
        E 121 92 36 36
        E 122 92 39 27
        E 115 92 39 34
        E 84 82 30 00
        E 39 92 3c 41
        E 34 82 33 00
        E 72 82 36 00
        E 13 92 3f 36
        E 58 82 39 00
        E 62 82 39 00
        E 0 92 42 3e
        E 74 82 3c 00
        E 44 92 45 36
        E 42 82 3f 00
        E 58 82 42 00
        E 8 82 26 00
        E 12 92 45 2c
        E 52 82 45 00
        E 62 82 2b 00
        E 12 82 45 00
        E 1 92 48 2a
        E 78 82 48 00
        E 37 82 2d 00
        E 3 92 47 3f
        E 39 82 47 00
        E 13 82 2c 00
        E 64 92 28 3a
        E 121 92 2a 49
        E 122 92 29 3a
        E 120 92 2d 43
        E 118 92 30 37
        E 122 92 34 34
        E 116 92 35 31
        E 121 92 39 34
        E 122 92 39 36
        E 65 82 30 00
        E 56 92 3d 29
        E 30 82 34 00
        E 68 82 35 00
        E 22 92 40 2c
        E 41 82 39 00
        E 79 92 41 25
        E 6 82 39 00
        E 69 82 3d 00
        E 43 92 42 34
        E 38 82 40 00
        E 66 82 28 00
        E 4 82 41 00
        E 11 92 46 31
        E 55 82 42 00
        E 24 82 2a 00
        E 44 92 47 1d
        E 4 82 46 00
        E 75 82 47 00
        E 3 82 29 00
        E 36 92 47 36
        E 38 82 47 00
        E 67 82 2d 00
        E 13 92 27 41
        E 126 92 26 3f
        E 117 92 2b 37
        E 122 92 2d 41
        E 120 92 31 36
        E 119 92 35 39
        E 117 92 36 3a
        E 119 92 3e 2f
        E 121 92 3d 25
        E 89 82 31 00
        E 33 92 40 46
        E 33 82 35 00
        E 74 82 36 00
        E 10 92 42 39
        E 50 82 3e 00
        E 72 92 46 32
        E 7 82 3d 00
        E 77 82 40 00
        E 38 92 43 32
        E 25 82 42 00
        E 71 82 27 00
        E 2 82 46 00
        E 19 92 3e 2a
        E 58 82 43 00
        E 10 82 26 00
        E 56 82 3e 00
        E 0 92 3e 36
        E 54 82 2b 00
        E 24 82 3e 00
        E 42 92 3b 2a
        E 39 82 3b 00
        E 78 92 24 49
        E 17 82 2d 00
        E 106 92 2a 51
        E 119 92 2e 43
        E 118 92 31 4b
        E 122 92 37 4e
        E 117 92 38 2f
        E 124 92 3d 3a
        E 121 92 44 34
        E 118 82 31 00
        E 0 92 42 39
        E 70 82 37 00
        E 47 92 42 31
        E 17 82 38 00
        E 80 82 3d 00
        E 25 92 3d 34
        E 63 82 44 00
        E 56 92 36 2f
        E 6 82 42 00
        E 73 82 42 00
        E 41 92 36 3a
        E 34 82 3d 00
        E 64 82 36 00
        E 5 82 24 00
        E 17 92 31 32
        E 55 82 36 00
        E 53 82 2a 00
        E 13 82 31 00
        E 3 92 32 3c
        E 97 82 2e 00
        E 20 92 27 3a
        E 122 92 26 49
        E 119 92 27 4c
        E 116 92 27 43
        E 124 92 28 3f
        E 121 92 27 44
        E 119 92 34 37
        E 119 92 33 36
        E 118 92 33 3a
        E 124 92 37 3e
        E 120 92 35 41
        E 35 82 34 00
        E 69 82 33 00
        E 15 92 3b 31
        E 52 82 33 00
        E 29 82 32 00
        E 40 92 3f 31
        E 1 82 37 00
        E 72 82 35 00
        E 29 82 27 00
        E 17 92 40 32
        E 27 82 3b 00
        E 71 82 26 00
        E 2 82 3f 00
        E 19 92 44 34
        E 57 82 40 00
        E 64 82 44 00
        E 0 92 43 43
        E 4 82 27 00
        E 71 82 43 00
        E 24 82 27 00
        E 17 92 44 2c
        E 39 82 44 00
        E 81 92 27 3a
        E 7 82 28 00
        E 116 82 27 00
        E 0 92 26 41
        E 118 92 28 3e
        E 123 92 2d 32
        E 121 92 2f 43
        E 120 92 33 32
        E 118 92 34 1d
        E 118 92 35 27
        E 122 92 39 31
        E 121 92 3b 34
        E 36 82 33 00
        E 55 82 34 00
        E 30 92 40 29
        E 49 82 35 00
        E 66 92 40 2f
        E 12 82 39 00
        E 68 82 3b 00
        E 42 92 43 2f
        E 28 82 40 00
        E 69 82 27 00
        E 3 82 40 00
        E 23 92 45 29
        E 49 82 43 00
        E 14 82 26 00
        E 55 92 47 36
        E 10 82 45 00
        E 66 82 28 00
        E 2 82 47 00
        E 44 92 45 2c
        E 38 82 45 00
        E 56 82 2d 00
        E 24 92 24 3f
        E 93 82 2f 00
        E 29 92 27 3a
        E 115 92 29 3f
        E 123 92 2b 3c
        E 122 92 2d 4b
        E 119 92 31 37
        E 120 92 34 31
        E 120 92 36 2d
        E 118 92 34 2c
        E 121 92 39 32
        E 43 82 31 00
        E 58 82 34 00
        E 18 92 3e 34
        E 65 82 36 00
        E 54 92 40 34
        E 13 82 34 00
        E 63 82 39 00
        E 44 92 40 2f
        E 32 82 3e 00
        E 70 82 24 00
        E 0 82 40 00
        E 19 92 40 2a
        E 51 82 40 00
        E 64 82 27 00
        E 7 92 47 2f
        E 3 82 40 00
        E 74 82 47 00
        E 4 82 29 00
        E 41 92 43 36
        E 38 82 43 00
        E 47 82 2b 00
        E 30 92 25 43
        E 91 82 2d 00
        E 29 92 28 49
        E 125 92 2b 46
        E 114 92 2c 3e
        E 122 92 32 49
        E 121 92 35 3c
        E 121 92 36 29
        E 120 92 39 2d
        E 119 92 40 32
        E 64 82 32 00
        E 54 92 40 3f
        E 23 82 35 00
        E 93 82 36 00
        E 6 92 44 32
        E 46 82 39 00
        E 72 92 47 34
        E 9 82 40 00
        E 79 82 40 00
        E 33 92 44 2d
        E 34 82 44 00
        E 72 82 47 00
        E 14 92 40 2c
        E 13 82 25 00
        E 40 82 44 00
        E 60 82 28 00
        E 10 92 40 24
        E 1 82 40 00
        E 78 82 40 00
        E 34 82 2b 00
        E 4 92 3b 2a
        E 37 82 3b 00
        E 82 92 25 49
        E 4 82 2c 00
        E 118 92 29 4b
        E 119 92 28 51
        E 123 92 2b 44
        E 118 92 30 3e
        E 117 92 36 47
        E 121 92 34 3a
        E 123 92 3b 34
        E 119 92 3d 39
        E 73 82 30 00
        E 47 92 3f 32
        E 27 82 36 00
        E 77 82 34 00
        E 15 92 3e 2c
        E 45 82 3b 00
        E 78 92 47 3f
        E 9 82 3d 00
        E 68 82 3f 00
        E 42 92 3e 2c
        E 26 82 3e 00
        E 35 82 25 00
        E 41 82 47 00
        E 17 92 41 36
        E 57 82 3e 00
        E 3 82 29 00
        E 60 92 3d 2c
        E 4 82 41 00
        E 73 82 3d 00
        E 2 82 28 00
        E 39 92 3b 36
        E 38 82 3b 00
        E 71 82 2b 00
        E 16 92 24 36
        E 119 92 25 43
        E 118 92 25 43
        E 120 92 29 47
        E 117 92 31 43
        E 121 92 31 49
        E 122 92 31 44
        E 117 92 36 37
        E 123 92 35 44
        E 120 92 3b 43
        E 34 82 31 00
        E 66 82 31 00
        E 22 92 3d 3e
        E 57 82 36 00
        E 56 82 35 00
        E 7 92 3c 32
        E 69 82 3b 00
        E 52 92 42 39
        E 31 82 3d 00
        E 63 82 24 00
        E 4 82 3c 00
        E 19 92 41 3c
        E 56 82 42 00
        E 15 82 25 00
        E 50 92 47 44
        E 2 82 41 00
        E 74 82 47 00
        E 26 82 25 00
        E 14 92 43 44
        E 38 82 43 00
        E 73 82 29 00
        E 10 92 27 43
        E 92 82 31 00
        E 29 92 2d 54
        E 121 92 30 56
        E 118 92 34 49
        E 124 92 38 46
        E 119 92 3b 43
        E 116 92 3f 3e
        E 124 92 42 43
        E 117 82 34 00
        E 1 92 47 41
        E 76 82 38 00
        E 44 92 42 36
        E 29 82 3b 00
        E 71 82 3f 00
        E 18 92 3e 2d
        E 46 82 42 00
        E 74 92 3b 3e
        E 7 82 47 00
        E 71 82 42 00
        E 43 92 39 4b
        E 29 82 3e 00
        E 72 82 3b 00
        E 21 92 34 4c
        E 15 82 27 00
        E 36 82 39 00
        E 28 82 2d 00
        E 41 82 34 00
        E 1 92 2a 41
        E 116 92 25 3c
        E 52 82 30 00
        E 72 92 24 49
        E 118 92 26 4e
        E 122 92 30 56
        E 122 92 32 49
        E 118 92 3a 44
        E 119 92 3b 4e
        E 117 92 3e 49
        E 126 92 46 37
        E 115 92 46 41
        E 4 82 32 00
        E 88 82 3a 00
        E 28 92 3f 49
        E 28 82 3b 00
        E 64 82 3e 00
        E 30 92 3d 49
        E 57 82 46 00
        E 12 82 2a 00
        E 48 92 3a 34
        E 9 82 46 00
        E 69 82 3f 00
        E 45 82 25 00
        E 2 92 34 44
        E 29 82 3d 00
        E 69 82 3a 00
        E 18 82 24 00
        E 1 92 31 3a
        E 57 82 34 00
        E 62 92 29 3f
        E 4 82 31 00
        E 34 82 26 00
        E 68 82 30 00
        E 14 92 29 43
        E 122 92 27 49
        E 118 92 27 51
        E 123 92 28 5e
        E 119 92 27 49
        E 122 92 2c 49
        E 117 92 33 56
        E 119 92 2d 43
        E 119 92 38 32
        E 122 92 37 4c
        E 118 92 3a 43
        E 41 82 33 00
        E 67 82 2d 00
        E 13 92 3e 3a
        E 50 82 38 00
        E 30 82 29 00
        E 38 82 37 00
        E 5 92 40 49
        E 74 82 3a 00
        E 29 82 29 00
        E 16 92 40 43
        E 22 82 3e 00
        E 75 82 27 00
        E 8 82 40 00
        E 13 92 44 32
        E 51 82 40 00
        E 63 82 27 00
        E 6 92 46 56
        E 4 82 44 00
        E 73 82 46 00
        E 48 92 43 43
        E 8 82 28 00
        E 30 82 43 00
        E 48 82 27 00
        E 30 92 25 4e
        E 83 82 2c 00
        E 36 92 24 46
        E 117 92 24 3f
        E 126 92 33 3e
        E 116 92 34 2f
        E 121 92 3b 32
        E 122 92 3f 3a
        E 122 92 40 3a
        E 118 82 33 00
        E 3 92 47 36
        E 77 82 34 00
        E 39 92 40 2d
        E 30 82 3b 00
        E 65 82 3f 00
        E 24 92 3f 49
        E 54 82 40 00
        E 68 92 3d 34
        E 11 82 47 00
        E 72 82 40 00
        E 36 92 34 44
        E 17 82 3f 00
        E 83 82 3d 00
        E 10 82 25 00
        E 11 92 31 3e
        E 52 82 34 00
        E 43 82 24 00
        E 23 92 28 32
        E 5 82 31 00
        E 98 82 24 00
        E 18 92 27 49
        E 121 92 24 4b
        E 120 92 27 50
        E 118 92 28 5d
        E 123 92 25 51
        E 116 92 31 49
        E 126 92 30 44
        E 116 92 34 41
        E 120 92 34 3e
        E 118 92 35 3a
        E 122 92 3b 43
        E 44 82 30 00
        E 46 82 34 00
        E 32 92 3d 3e
        E 50 82 34 00
        E 40 82 28 00
        E 27 92 41 44
        E 3 82 35 00
        E 71 82 3b 00
        E 44 82 27 00
        E 5 92 42 3a
        E 26 82 3d 00
        E 66 82 41 00
        E 27 92 41 32
        E 14 82 24 00
        E 40 82 42 00
        E 29 82 27 00
        E 37 92 47 4b
        E 3 82 41 00
        E 74 82 47 00
        E 14 82 28 00
        E 27 92 43 44
        E 38 82 43 00
        E 63 82 25 00
        E 23 92 26 49
        E 115 92 27 53
        E 26 82 31 00
        E 97 92 29 58
        E 121 92 28 4b
        E 116 92 26 46
        E 124 92 33 43
        E 121 92 33 43
        E 117 92 32 46
        E 121 92 36 44
        E 122 92 36 44
        E 15 82 33 00
        E 82 82 33 00
        E 18 92 3e 3f
        E 58 82 32 00
        E 62 92 3f 41
        E 13 82 36 00
        E 69 82 36 00
        E 42 92 3f 37
        E 23 82 3e 00
        E 75 82 3f 00
        E 4 82 26 00
        E 17 92 42 43
        E 58 82 3f 00
        E 2 82 27 00
        E 61 92 42 3a
        E 3 82 42 00
        E 74 82 42 00
        E 40 92 44 3a
        E 22 82 29 00
        E 17 82 44 00
        E 58 82 28 00
        E 24 92 25 51
        E 83 82 26 00
        E 37 92 26 51
        E 120 92 2a 5d
        E 122 92 2d 54
        E 116 92 33 51
        E 125 92 31 53
        E 116 92 36 49
        E 125 92 36 4b
        E 118 92 36 47
        E 120 92 3d 3f
        E 29 82 31 00
        E 89 82 36 00
        E 1 92 3d 4b
        E 55 82 36 00
        E 63 82 36 00
        E 3 92 3f 3f
        E 76 82 3d 00
        E 44 92 41 51
        E 25 82 3d 00
        E 73 82 25 00
        E 8 82 3f 00
        E 10 92 43 3f
        E 54 82 41 00
        E 67 92 49 4e
        E 2 82 43 00
        E 1 82 26 00
        E 73 82 49 00
        E 47 92 45 37
        E 3 82 2a 00
        E 35 82 45 00
        E 79 82 2d 00
        E 5 92 27 61
        E 81 82 33 00
        E 36 92 27 49
        E 120 92 26 49
        E 120 92 22 3a
        E 119 92 32 49
        E 124 92 32 43
        E 114 92 32 39
        E 124 92 36 3a
        E 120 92 3a 44
        E 74 82 32 00
        E 44 92 3e 31
        E 38 82 32 00
        E 46 82 32 00
        E 35 92 38 39
        E 73 82 36 00
        E 49 92 40 43
        E 5 82 3a 00
        E 62 82 3e 00
        E 55 92 42 3a
        E 27 82 38 00
        E 75 82 27 00
        E 1 82 40 00
        E 12 92 45 3a
        E 62 82 42 00
        E 41 82 27 00
        E 22 92 4a 34
        E 2 82 45 00
        E 76 82 4a 00
        E 25 82 26 00
        E 17 92 47 32
        E 40 82 47 00
        E 65 82 22 00
        E 16 92 28 59
        E 114 92 24 53
        E 124 92 29 49
        E 115 92 32 5d
        E 122 92 32 47
        E 120 92 37 3a
        E 125 92 3c 3f
        E 115 92 3e 46
        E 126 92 45 46
        E 1 82 32 00
        E 76 82 32 00
        E 40 92 3f 3e
        E 29 82 37 00
        E 64 82 3c 00
        E 26 92 3f 34
        E 46 82 3e 00
        E 74 92 38 43
        E 14 82 45 00
        E 58 82 3f 00
        E 48 92 33 47
        E 28 82 3f 00
        E 69 82 38 00
        E 12 82 28 00
        E 9 92 2d 3f
        E 59 82 33 00
        E 61 82 24 00
        E 3 92 30 3e
        E 4 82 2d 00
        E 80 82 29 00
        E 34 92 24 41
        E 120 92 24 44
        E 120 92 25 56
        E 119 92 25 56
        E 120 92 29 51
        E 122 92 33 51
        E 122 92 31 44
        E 119 92 31 43
        E 121 92 37 3e
        E 116 92 35 41
        E 120 92 3d 3a
        E 32 82 31 00
        E 70 82 31 00
        E 17 92 3c 3a
        E 61 82 37 00
        E 41 82 30 00
        E 20 92 3f 43
        E 2 82 35 00
        E 73 82 3d 00
        E 19 82 24 00
        E 29 92 40 34
        E 21 82 3c 00
        E 54 82 24 00
        E 28 82 3f 00
        E 13 92 42 49
        E 62 82 40 00
        E 18 82 25 00
        E 38 92 46 49
        E 9 82 42 00
        E 68 82 46 00
        E 28 82 25 00
        E 20 92 43 3c
        E 38 82 43 00
        E 39 82 29 00
        E 44 92 28 56
        E 98 82 33 00
        E 19 92 25 51
        E 117 92 2a 60
        E 123 92 24 50
        E 121 92 30 4e
        E 119 92 32 3a
        E 119 92 30 32
        E 121 92 36 3f
        E 118 92 36 47
        E 87 82 30 00
        E 35 92 3b 43
        E 42 82 32 00
        E 65 82 30 00
        E 16 92 3f 4c
        E 50 82 36 00
        E 64 82 36 00
        E 6 92 3c 43
        E 67 82 3b 00
        E 51 92 42 32
        E 29 82 3f 00
        E 62 82 28 00
        E 13 82 3c 00
        E 16 92 3d 3a
        E 52 82 42 00
        E 57 82 25 00
        E 9 92 4a 36
        E 6 82 3d 00
        E 43 82 2a 00
        E 28 82 4a 00
        E 44 92 45 49
        E 38 82 45 00
        E 58 82 24 00
        E 26 92 26 65
        E 119 92 29 66
        E 121 92 23 54
        E 120 92 28 60
        E 121 92 2e 58
        E 118 92 33 58
        E 117 92 30 4e
        E 125 92 36 3f
        E 117 92 37 49
        E 120 92 3a 56
        E 21 82 33 00
        E 74 82 30 00
        E 28 92 3e 4b
        E 52 82 36 00
        E 63 92 3d 4b
        E 2 82 37 00
        E 72 82 3a 00
        E 51 92 41 56
        E 25 82 3e 00
        E 66 82 3d 00
        E 6 82 26 00
        E 22 92 41 39
        E 55 82 41 00
        E 28 82 29 00
        E 38 92 46 4c
        E 3 82 41 00
        E 74 82 46 00
        E 40 92 43 59
        E 1 82 23 00
        E 37 82 43 00
        E 82 92 27 60
        E 6 82 28 00
        E 65 82 2e 00
        E 48 92 26 59
        E 122 92 24 53
        E 123 92 26 60
        E 119 92 27 59
        E 116 92 2e 4b
        E 122 92 34 5d
        E 117 92 34 51
        E 123 92 35 56
        E 118 92 3b 50
        E 43 82 2e 00
        E 62 82 34 00
        E 16 92 3a 4b
        E 49 82 34 00
        E 73 82 35 00
        E 1 92 3f 43
        E 66 82 3b 00
        E 53 92 40 47
        E 17 82 3a 00
        E 87 82 27 00
        E 0 82 3f 00
        E 14 92 43 43
        E 52 82 40 00
        E 48 82 26 00
        E 19 92 47 4e
        E 8 82 43 00
        E 69 82 47 00
        E 46 82 24 00
        E 0 92 43 4b
        E 39 82 43 00
        E 54 82 26 00
        E 29 92 26 6e
        E 109 82 27 00
        E 9 92 26 6e
        E 117 92 26 61
        E 121 92 24 63
        E 121 92 30 58
        E 122 92 32 4e
        E 121 92 30 51
        E 121 92 33 58
        E 118 92 35 49
        E 75 82 30 00
        E 41 92 3b 54
        E 28 82 32 00
        E 74 82 30 00
        E 19 92 3e 58
        E 50 82 33 00
        E 69 92 3c 50
        E 16 82 35 00
        E 57 82 3b 00
        E 46 92 45 46
        E 26 82 3e 00
        E 39 82 26 00
        E 32 82 3c 00
        E 27 92 41 5b
        E 50 82 45 00
        E 57 82 26 00
        E 11 92 4a 58
        E 6 82 41 00
        E 57 82 26 00
        E 14 82 4a 00
        E 43 92 45 4e
        E 38 82 45 00
        E 59 82 24 00
        E 25 92 24 65
        E 120 92 28 6d
        E 117 92 28 60
        E 124 92 29 5e
        E 121 92 30 5d
        E 118 92 33 5e
        E 121 92 33 54
        E 116 92 34 5b
        E 124 92 3b 5b
        E 76 82 30 00
        E 44 92 3c 53
        E 32 82 33 00
        E 64 82 33 00
        E 23 92 3d 58
        E 59 82 34 00
        E 63 92 3f 51
        E 5 82 3b 00
        E 74 82 3c 00
        E 36 92 41 58
        E 38 82 3d 00
        E 61 82 3f 00
        E 20 92 47 58
        E 2 82 24 00
        E 49 82 41 00
        E 41 82 28 00
        E 32 92 48 51
        E 1 82 47 00
        E 76 82 48 00
        E 10 82 28 00
        E 33 92 47 59
        E 38 82 47 00
        E 60 82 29 00
        E 18 92 27 66
        E 120 92 28 66
        E 124 92 26 63
        E 118 92 24 5d
        E 119 92 31 5e
        E 126 92 33 58
        E 115 92 33 58
        E 120 92 33 3f
        E 119 92 35 43
        E 67 82 31 00
        E 55 92 3e 41
        E 49 82 33 00
        E 55 82 33 00
        E 13 92 3e 3a
        E 44 82 33 00
        E 79 92 3c 50
        E 13 82 35 00
        E 67 82 3e 00
        E 41 92 40 4e
        E 27 82 3e 00
        E 71 82 3c 00
        E 9 82 27 00
        E 12 92 43 47
        E 51 82 40 00
        E 38 82 28 00
        E 29 82 43 00
        E 3 92 4b 3a
        E 77 82 4b 00
        E 33 82 26 00
        E 11 92 45 50
        E 39 82 45 00
        E 50 82 24 00
        E 32 92 24 51
        E 120 92 23 4b
        E 117 92 23 4b
        E 121 92 26 65
        E 119 92 28 5e
        E 123 92 29 4e
        E 115 92 2e 4b
        E 124 92 33 51
        E 119 92 33 43
        E 118 92 39 44
        E 41 82 29 00
        E 61 82 2e 00
        E 20 92 3d 53
        E 57 82 33 00
        E 57 82 33 00
        E 2 92 3b 51
        E 82 82 39 00
        E 39 92 3e 54
        E 31 82 3d 00
        E 65 82 3b 00
        E 9 82 24 00
        E 18 92 44 50
        E 49 82 3e 00
        E 54 82 23 00
        E 14 92 48 3f
        E 8 82 44 00
        E 68 82 48 00
        E 46 92 43 43
        E 4 82 23 00
        E 35 82 43 00
        E 79 92 25 66
        E 8 82 26 00
        E 87 82 28 00
        E 25 92 24 5b
        E 123 92 29 66
        E 117 92 24 49
        E 123 92 30 68
        E 118 92 31 6a
        E 123 92 34 59
        E 115 92 34 60
        E 125 92 34 51
        E 118 92 3b 4b
        E 26 82 31 00
        E 75 82 34 00
        E 18 92 3b 56
        E 49 82 34 00
        E 70 92 41 61
        E 3 82 34 00
        E 69 82 3b 00
        E 52 92 40 51
        E 22 82 3b 00
        E 71 82 25 00
        E 4 82 41 00
        E 24 92 43 54
        E 47 82 40 00
        E 25 82 24 00
        E 43 92 49 51
        E 8 82 43 00
        E 69 82 49 00
        E 3 82 29 00
        E 39 92 43 49
        E 39 82 43 00
        E 84 92 25 70
        E 12 82 24 00
        E 98 82 30 00
        E 11 92 24 60
        E 117 92 24 58
        E 121 92 24 59
        E 119 92 32 66
        E 120 92 33 5e
        E 125 92 32 43
        E 117 92 37 68
        E 122 92 30 49
        E 75 82 32 00
        E 44 92 3b 59
        E 9 82 33 00
        E 89 82 32 00
        E 23 92 3f 59
        E 40 82 37 00
        E 75 92 3d 5d
        E 13 82 30 00
        E 75 82 3b 00
        E 33 92 42 5d
        E 31 82 3f 00
        E 62 82 25 00
        E 4 82 3d 00
        E 24 92 42 4b
        E 48 82 42 00
        E 74 92 48 5b
        E 5 82 42 00
        E 23 82 24 00
        E 32 82 24 00
        E 16 82 48 00
        E 43 92 45 46
        E 38 82 45 00
        E 65 82 24 00
        E 18 92 25 6e
        E 120 92 25 60
        E 119 92 24 59
        E 120 92 25 56
        E 123 92 32 4b
        E 120 92 31 44
        E 116 92 32 51
        E 122 92 3d 4b
        E 119 92 3d 43
        E 64 82 32 00
        E 55 92 41 49
        E 23 82 31 00
        E 83 82 32 00
        E 14 92 41 51
        E 62 82 3d 00
        E 60 92 49 4c
        E 1 82 3d 00
        E 76 82 41 00
        E 39 92 41 41
        E 32 82 41 00
        E 74 82 49 00
        E 20 92 3f 43
        E 3 82 25 00
        E 45 82 41 00
        E 49 82 25 00
        E 19 92 3c 51
        E 6 82 3f 00
        E 70 82 3c 00
        E 46 92 3b 51
        E 20 82 24 00
        E 19 82 3b 00
        E 60 82 25 00
        E 19 92 23 60
        E 119 92 25 5e
        E 122 92 30 66
        E 118 92 34 66
        E 120 92 36 5b
        E 120 92 3c 50
        E 121 92 40 4b
        E 118 92 42 58
        E 92 82 34 00
        E 29 92 48 53
        E 68 82 36 00
        E 55 92 3f 54
        E 33 82 3c 00
        E 67 82 40 00
        E 18 92 41 4c
        E 48 82 42 00
        E 71 82 48 00
        E 2 92 3b 58
        E 79 82 3f 00
        E 42 92 35 58
        E 24 82 41 00
        E 78 82 3b 00
        E 17 92 35 4b
        E 29 82 23 00
        E 30 82 35 00
        E 45 82 25 00
        E 14 92 26 41
        E 8 82 35 00
        E 69 82 30 00
        E 47 92 21 51
        E 115 92 29 61
        E 122 92 26 68
        E 120 92 2f 75
        E 120 92 2d 59
        E 122 92 33 60
        E 122 92 34 5e
        E 115 92 3b 6b
        E 124 92 3e 53
        E 118 82 2d 00
        E 3 92 3f 58
        E 79 82 33 00
        E 37 92 3d 50
        E 39 82 34 00
        E 74 82 3b 00
        E 8 92 49 5d
        E 56 82 3e 00
        E 45 82 26 00
        E 18 92 43 46
        E 3 82 3f 00
        E 80 82 3d 00
        E 2 82 21 00
        E 34 92 46 50
        E 31 82 49 00
        E 70 82 43 00
        E 4 82 29 00
        E 15 92 3c 47
        E 49 82 46 00
        E 39 82 26 00
        E 33 92 3c 54
        E 8 82 3c 00
        E 70 82 3c 00
        E 8 82 2f 00
        E 36 92 3c 58
        E 39 82 3c 00
        E 80 92 25 66
        E 122 92 24 66
        E 116 92 2d 63
        E 122 92 32 68
        E 119 92 36 6e
        E 120 92 3d 60
        E 120 92 3e 61
        E 120 92 41 58
        E 123 92 49 43
        E 8 82 32 00
        E 64 82 36 00
        E 48 92 3e 54
        E 13 82 3d 00
        E 78 82 3e 00
        E 27 92 3e 56
        E 36 82 41 00
        E 83 82 49 00
        E 2 92 3e 59
        E 74 82 3e 00
        E 44 92 2e 51
        E 29 82 3e 00
        E 72 82 3e 00
        E 8 82 25 00
        E 11 92 32 50
        E 56 82 2e 00
        E 66 82 32 00
        E 1 92 28 4e
        E 7 82 24 00
        E 94 82 2d 00
        E 18 92 21 5b
        E 122 92 25 76
        E 114 92 27 79
        E 124 92 27 6d
        E 117 92 1e 68
        E 122 92 35 66
        E 121 92 28 4c
        E 122 92 32 5b
        E 116 92 2f 5d
        E 121 92 39 60
        E 118 92 3e 51
        E 34 82 28 00
        E 69 82 32 00
        E 19 92 3b 59
        E 64 82 2f 00
        E 47 82 28 00
        E 7 92 3e 51
        E 5 82 39 00
        E 78 82 3e 00
        E 40 92 3c 58
        E 18 82 21 00
        E 4 82 3b 00
        E 71 82 3e 00
        E 7 82 25 00
        E 21 92 43 4e
        E 52 82 3c 00
        E 49 82 27 00
        E 15 92 47 59
        E 11 82 43 00
        E 66 82 47 00
        E 1 82 27 00
        E 41 92 43 5b
        E 38 82 43 00
        E 53 82 1e 00
        E 35 92 25 73
        E 71 82 35 00
        E 46 92 2a 75
        E 121 92 31 61
        E 119 92 31 6d
        E 121 92 31 59
        E 118 92 3e 51
        E 120 92 3b 53
        E 121 92 41 60
        E 114 82 31 00
        E 9 92 4a 6e
        E 73 82 31 00
        E 47 92 40 56
        E 12 82 3e 00
        E 87 82 3b 00
        E 18 92 3c 58
        E 55 82 41 00
        E 67 92 3d 58
        E 6 82 4a 00
        E 73 82 40 00
        E 35 92 30 58
        E 38 82 3c 00
        E 74 82 3d 00
        E 5 82 25 00
        E 11 92 2a 5d
        E 42 82 30 00
        E 76 92 27 5e
        E 10 82 2a 00
        E 1 82 2a 00
        E 106 82 31 00
        E 0 92 1c 56
        E 120 92 19 68
        E 124 92 22 6b
        E 117 92 27 6e
        E 118 92 25 6d
        E 124 92 25 60
        E 117 92 30 66
        E 122 92 34 5d
        E 121 92 33 65
        E 121 92 32 60
        E 118 92 3c 59
        E 45 82 30 00
        E 48 82 34 00
        E 27 92 3d 54
        E 50 82 33 00
        E 49 82 27 00
        E 21 92 40 66
        E 7 82 32 00
        E 74 82 3c 00
        E 6 82 1c 00
        E 34 92 3c 65
        E 24 82 3d 00
        E 14 82 19 00
        E 65 82 40 00
        E 14 92 40 59
        E 56 82 3c 00
        E 51 82 22 00
        E 16 82 40 00
        E 0 92 47 63
        E 75 82 27 00
        E 2 82 47 00
        E 41 92 43 53
        E 39 82 43 00
        E 24 82 25 00
        E 60 92 26 72
        E 101 82 25 00
        E 17 92 27 6d
        E 120 92 28 6b
        E 121 92 32 75
        E 119 92 35 66
        E 118 92 3b 75
        E 120 92 3c 6a
        E 123 92 41 6e
        E 115 92 47 5b
        E 14 82 32 00
        E 74 82 35 00
        E 37 92 3f 60
        E 15 82 3b 00
        E 90 82 3c 00
        E 14 92 3e 5d
        E 51 82 41 00
        E 64 92 38 5b
        E 10 82 47 00
        E 71 82 3f 00
        E 43 92 32 65
        E 30 82 3e 00
        E 73 82 38 00
        E 9 82 26 00
        E 8 92 32 6d
        E 51 82 32 00
        E 9 82 27 00
        E 59 92 29 5b
        E 8 82 32 00
        E 99 82 28 00
        E 15 92 24 60
        E 118 92 26 6b
        E 120 92 1c 76
        E 120 92 24 7a
        E 119 92 29 61
        E 123 92 27 61
        E 119 92 31 66
        E 119 92 31 58
        E 119 92 30 5e
        E 124 92 36 46
        E 118 92 39 56
        E 20 82 31 00
        E 100 92 3f 53
        E 2 82 31 00
        E 47 82 30 00
        E 34 82 29 00
        E 35 92 3f 50
        E 9 82 36 00
        E 69 82 24 00
        E 8 82 39 00
        E 35 92 40 58
        E 23 82 3f 00
        E 71 82 26 00
        E 6 82 3f 00
        E 18 92 40 5d
        E 55 82 40 00
        E 49 82 1c 00
        E 21 82 40 00
        E 0 92 47 51
        E 77 82 47 00
        E 39 92 43 5e
        E 1 82 24 00
        E 37 82 43 00
        E 68 82 29 00
        E 17 92 25 6d
        E 117 82 27 00
        E 0 92 28 73
        E 122 92 29 78
        E 122 92 2a 76
        E 116 92 34 60
        E 120 92 33 63
        E 124 92 35 56
        E 117 92 35 60
        E 123 92 37 66
        E 116 92 37 66
        E 40 82 33 00
        E 59 82 35 00
        E 20 92 3d 58
        E 59 82 35 00
        E 61 92 42 5e
        E 5 82 37 00
        E 68 82 37 00
        E 51 92 3d 59
        E 19 82 3d 00
        E 68 82 25 00
        E 13 82 42 00
        E 20 92 41 5e
        E 52 82 3d 00
        E 60 82 28 00
        E 8 92 49 60
        E 5 82 41 00
        E 55 82 29 00
        E 19 82 49 00
        E 38 92 43 61
        E 39 82 43 00
        E 82 82 2a 00
        E 1 92 26 6e
        E 105 82 34 00
        E 15 92 21 66
        E 121 92 2b 72
        E 117 92 2e 6b
        E 124 92 34 63
        E 121 92 35 66
        E 118 92 3a 5d
        E 120 92 40 6e
        E 116 92 45 61
        E 15 82 2e 00
        E 78 82 34 00
        E 27 92 41 5b
        E 38 82 35 00
        E 75 82 3a 00
        E 9 92 3a 59
        E 40 82 40 00
        E 78 92 38 5b
        E 2 82 45 00
        E 74 82 41 00
        E 48 92 32 63
        E 29 82 3a 00
        E 56 82 26 00
        E 6 82 38 00
        E 30 92 32 59
        E 48 82 32 00
        E 27 82 21 00
        E 43 92 27 58
        E 9 82 32 00
        E 46 82 2b 00
        E 63 92 24 60
        E 125 92 26 7c
        E 116 92 25 73
        E 121 92 2f 72
        E 118 92 31 6b
        E 120 92 32 6a
        E 122 92 3b 6d
        E 118 92 3c 66
        E 121 92 41 61
        E 120 92 47 5b
        E 6 82 31 00
        E 65 82 32 00
        E 50 92 41 58
        E 44 82 3b 00
        E 46 82 3c 00
        E 29 92 3d 60
        E 53 82 41 00
        E 59 82 27 00
        E 9 92 3c 6e
        E 8 82 47 00
        E 65 82 41 00
        E 14 82 24 00
        E 31 92 32 61
        E 37 82 3d 00
        E 67 82 3c 00
        E 19 82 26 00
        E 0 92 31 5e
        E 37 82 25 00
        E 9 82 32 00
        E 74 92 2f 53
        E 3 82 31 00
        E 96 82 2f 00
        E 17 92 27 5e
        E 120 92 26 75
        E 126 92 28 73
        E 116 92 29 7a
        E 125 92 26 72
        E 116 92 30 5e
        E 118 92 32 66
        E 122 92 33 6e
        E 123 92 35 60
        E 118 92 33 61
        E 121 92 3c 60
        E 25 82 32 00
        E 83 82 33 00
        E 9 92 3d 5e
        E 45 82 2f 00
        E 2 82 35 00
        E 77 92 40 50
        E 1 82 33 00
        E 73 82 3c 00
        E 1 82 27 00
        E 40 92 40 5b
        E 33 82 3d 00
        E 55 82 26 00
        E 16 82 40 00
        E 17 92 3f 5d
        E 50 82 40 00
        E 54 82 28 00
        E 15 92 49 54
        E 4 82 3f 00
        E 50 82 29 00
        E 22 82 49 00
        E 47 92 43 5e
        E 37 82 43 00
        E 27 82 26 00
        E 53 92 26 60
        E 87 82 30 00
        E 34 92 27 68
        E 123 92 26 68
        E 118 92 2c 66
        E 121 92 2e 68
        E 116 92 32 6b
        E 123 92 32 5e
        E 119 92 39 5d
        E 119 92 39 65
        E 125 92 3a 61
        E 18 82 32 00
        E 73 82 32 00
        E 28 92 3f 65
        E 51 82 39 00
        E 66 92 39 65
        E 9 82 39 00
        E 73 82 3a 00
        E 40 92 41 5b
        E 26 82 3f 00
        E 21 82 26 00
        E 49 82 39 00
        E 26 92 45 66
        E 48 82 41 00
        E 35 82 27 00
        E 36 92 47 60
        E 4 82 45 00
        E 73 82 47 00
        E 26 82 26 00
        E 15 92 43 49
        E 39 82 43 00
        E 78 92 20 77
        E 12 82 2c 00
        E 104 82 2e 00
        E 7 92 25 76
        E 121 92 28 68
        E 118 92 27 72
        E 125 92 30 6e
        E 115 92 34 70
        E 122 92 35 60
        E 116 92 38 66
        E 126 92 3a 59
        E 74 82 30 00
        E 44 92 3a 59
        E 31 82 34 00
        E 65 82 35 00
        E 22 92 3d 61
        E 47 82 38 00
        E 76 92 3e 58
        E 8 82 3a 00
        E 62 82 3a 00
        E 48 92 45 60
        E 33 82 3d 00
        E 17 82 20 00
        E 54 82 3e 00
        E 16 92 45 56
        E 61 82 45 00
        E 59 82 25 00
        E 0 92 49 63
        E 5 82 45 00
        E 73 82 49 00
        E 20 82 28 00
        E 22 92 45 51
        E 38 82 45 00
        E 33 82 27 00
        E 46 92 25 73
        E 120 92 27 72
        E 122 92 27 60
        E 124 92 2d 54
        E 116 92 24 63
        E 118 92 30 60
        E 123 92 34 51
        E 118 92 34 53
        E 123 92 39 5e
        E 119 92 35 53
        E 27 82 30 00
        E 68 82 34 00
        E 24 92 3d 51
        E 50 82 34 00
        E 71 92 3b 54
        E 11 82 39 00
        E 69 82 35 00
        E 38 92 44 44
        E 35 82 3d 00
        E 21 82 25 00
        E 55 82 3b 00
        E 13 92 46 47
        E 44 82 44 00
        E 52 82 27 00
        E 25 92 4a 3f
        E 1 82 46 00
        E 75 82 4a 00
        E 23 82 27 00
        E 19 92 45 3a
        E 39 82 45 00
        E 65 82 2d 00
        E 132 82 24 00
        E 0 b2 7b 00
        E 1 ff 2f 00
      >
    >
  >
  <TRACK
    NAME "Choir"
    PEAKCOL 4284506208
    VOLPAN 1.000000 0 1 -1
    MIDIOUT -1
    ISBUS 0 0
    <ITEM
      POSITION 48.006558
      LENGTH 80.212530
      NAME "Choir"
      VOLPAN 1 0 1 -1
      <SOURCE MIDI
        HASDATA 1 960 QN
        E 0 c3 34 00
        E 55304 93 3d 66
        E 1 93 38 5b
        E 10 93 31 60
        E 15 93 30 4c
        E 1611 83 38 00
        E 79 83 3d 00
        E 111 83 30 00
        E 4 83 31 00
        E 87 93 3e 70
        E 6 93 32 70
        E 2 93 40 6a
        E 27 93 32 70
        E 1561 83 40 00
        E 112 83 32 00
        E 40 83 32 00
        E 90 83 3e 00
        E 66 93 3c 63
        E 15 93 40 75
        E 13 93 37 7d
        E 23 93 2b 65
        E 1643 83 2b 00
        E 18 83 40 00
        E 12 83 37 00
        E 114 83 3c 00
        E 101 93 3d 6b
        E 3 93 41 68
        E 7 93 33 59
        E 1 93 2c 5e
        E 1662 83 33 00
        E 76 83 2c 00
        E 53 83 3d 00
        E 42 83 41 00
        E 77 93 3f 61
        E 7 93 37 59
        E 1 93 30 58
        E 29 93 2b 5d
        E 1604 83 37 00
        E 111 83 2b 00
        E 39 83 30 00
        E 23 83 3f 00
        E 98 93 3e 7b
        E 1 93 3d 56
        E 17 93 2f 54
        E 1 93 31 54
        E 1686 83 31 00
        E 76 83 3e 00
        E 139 93 32 75
        E 2 93 3f 61
        E 14 83 2f 00
        E 1 93 32 75
        E 3 93 38 70
        E 54 83 3d 00
        E 1529 83 38 00
        E 35 83 3f 00
        E 162 83 32 00
        E 58 83 32 00
        E 67 93 3f 79
        E 3 93 3e 6a
        E 7 93 2d 6e
        E 8 93 30 66
        E 1586 83 30 00
        E 148 83 3f 00
        E 116 83 3e 00
        E 7 83 2d 00
        E 44 93 3c 6e
        E 8 93 2f 75
        E 6 93 31 6d
        E 5 93 33 66
        E 1638 83 33 00
        E 125 83 31 00
        E 24 83 3c 00
        E 51 83 2f 00
        E 59 93 3c 72
        E 19 93 40 7c
        E 4 93 33 6b
        E 1 93 2c 65
        E 1528 83 33 00
        E 53 83 2c 00
        E 80 83 3c 00
        E 56 83 40 00
        E 184 93 3d 75
        E 0 93 31 6e
        E 17 93 31 6e
        E 7 93 3d 68
        E 1572 83 3d 00
        E 194 83 3d 00
        E 27 83 31 00
        E 79 83 31 00
        E 23 93 3e 7b
        E 17 93 37 7d
        E 0 93 36 7b
        E 2 93 30 7c
        E 1594 83 37 00
        E 102 83 30 00
        E 134 83 36 00
        E 33 83 3e 00
        E 39 93 39 5b
        E 8 93 3e 7c
        E 12 93 34 6d
        E 6 93 30 6a
        E 1715 83 39 00
        E 4 83 30 00
        E 94 83 3e 00
        E 75 93 3b 6a
        E 6 93 39 4e
        E 4 93 3e 6b
        E 2 83 34 00
        E 11 93 35 68
        E 1599 83 39 00
        E 107 83 35 00
        E 72 83 3e 00
        E 124 93 32 7c
        E 0 93 3f 6d
        E 4 93 34 70
        E 17 93 3c 75
        E 39 83 3b 00
        E 1628 83 3f 00
        E 83 83 32 00
        E 149 93 3e 7b
        E 11 93 3f 75
        E 1 93 32 6e
        E 12 93 2c 6e
        E 9 83 34 00
        E 15 83 3c 00
        E 1615 83 32 00
        E 53 83 2c 00
        E 20 83 3f 00
        E 54 83 3e 00
        E 120 93 3d 5e
        E 22 93 3b 61
        E 3 93 34 6d
        E 2 93 33 61
        E 1659 83 34 00
        E 26 83 3b 00
        E 24 83 33 00
        E 60 83 3d 00
        E 136 93 3d 61
        E 2 93 36 78
        E 3 93 3c 6b
        E 4 93 34 6e
        E 1652 83 36 00
        E 34 83 34 00
        E 144 83 3d 00
        E 3 83 3c 00
        E 80 93 40 7c
        E 4 93 3c 7c
        E 8 93 36 7d
        E 7 93 2f 78
        E 1576 83 36 00
        E 199 83 3c 00
        E 129 93 3c 6b
        E 6 93 34 70
        E 11 93 2f 6a
        E 6 93 37 75
        E 2 83 40 00
        E 22 83 2f 00
        E 1722 83 3c 00
        E 11 83 34 00
        E 135 93 3c 66
        E 2 93 3c 66
        E 8 93 34 54
        E 15 93 30 77
        E 13 83 2f 00
        E 2 83 37 00
        E 1738 83 3c 00
        E 2 83 3c 00
        E 60 83 34 00
        E 76 93 3e 79
        E 6 93 3b 7d
        E 5 93 36 7d
        E 4 93 31 68
        E 1 83 30 00
        E 1584 83 3b 00
        E 199 83 36 00
        E 5 83 3e 00
        E 89 83 31 00
        E 30 93 3e 7c
        E 13 93 40 77
        E 3 93 35 5b
        E 1 93 30 61
        E 1785 83 40 00
        E 11 83 35 00
        E 12 83 3e 00
        E 98 93 3c 79
        E 1 93 34 7c
        E 2 83 30 00
        E 4 93 40 6a
        E 3 93 30 79
        E 1595 83 3c 00
        E 145 83 40 00
        E 131 83 30 00
        E 21 93 3e 78
        E 15 93 40 70
        E 5 93 36 73
        E 9 83 34 00
        E 11 93 30 77
        E 1476 83 40 00
        E 121 83 3e 00
        E 16 83 30 00
        E 209 83 36 00
        E 75 93 36 79
        E 1 93 3e 70
        E 6 93 40 6e
        E 1 93 30 59
        E 1597 83 30 00
        E 31 83 36 00
        E 130 83 40 00
        E 14 83 3e 00
        E 140 93 3c 76
        E 2 93 34 7a
        E 7 93 40 6a
        E 2 93 30 6e
        E 1647 83 40 00
        E 66 83 34 00
        E 4 83 3c 00
        E 67 83 30 00
        E 123 93 3e 73
        E 2 93 3c 7b
        E 1 93 34 7b
        E 13 93 30 7a
        E 1729 83 3c 00
        E 15 83 34 00
        E 27 83 3e 00
        E 138 93 3c 63
        E 2 93 40 6b
        E 6 83 30 00
        E 7 93 34 5d
        E 11 93 30 63
        E 1624 83 30 00
        E 42 83 40 00
        E 57 83 34 00
        E 38 83 3c 00
        E 124 93 3e 61
        E 11 93 30 7c
        E 3 93 40 79
        E 4 93 36 75
        E 1659 83 30 00
        E 4 83 3e 00
        E 25 83 40 00
        E 147 83 36 00
        E 72 93 3e 78
        E 6 93 36 73
        E 1 93 40 79
        E 12 93 30 63
        E 1738 83 40 00
        E 38 83 3e 00
        E 1 83 36 00
        E 124 93 3c 78
        E 10 93 40 76
        E 10 93 30 73
        E 1 93 34 70
        E 34 83 30 00
        E 1758 83 40 00
        E 48 83 30 00
        E 6 83 3c 00
        E 23 83 34 00
        E 24 93 3e 68
        E 14 93 30 75
        E 3 93 37 65
        E 3 93 40 6b
        E 1724 83 30 00
        E 8 83 37 00
        E 108 83 3e 00
        E 67 93 37 5b
        E 8 93 40 4e
        E 14 93 3b 6b
        E 1 93 34 68
        E 69 83 40 00
        E 1593 83 37 00
        E 6 83 34 00
        E 152 83 40 00
        E 23 83 3b 00
        E 53 93 37 72
        E 1 93 3c 76
        E 20 93 40 73
        E 1 93 30 61
        E 1652 83 37 00
        E 95 83 3c 00
        E 106 83 30 00
        E 44 93 3b 6a
        E 1 93 3e 6a
        E 17 93 32 7b
        E 3 93 36 61
        E 37 83 40 00
        E 1542 83 3b 00
        E 142 83 32 00
        E 39 83 36 00
        E 119 83 3e 00
        E 21 93 40 68
        E 5 93 3e 79
        E 6 93 36 77
        E 24 93 30 6b
        E 1724 83 30 00
        E 18 83 40 00
        E 19 83 3e 00
        E 90 83 36 00
        E 27 93 3e 79
        E 3 93 36 6d
        E 25 93 3b 6b
        E 2 93 32 5b
        E 1775 83 36 00
        E 71 83 3e 00
        E 11 83 3b 00
        E 43 93 40 7c
        E 2 93 3e 5e
        E 3 93 30 72
        E 3 93 36 79
        E 58 83 32 00
        E 1638 83 30 00
        E 63 83 40 00
        E 75 83 3e 00
        E 22 83 36 00
        E 42 93 3e 7d
        E 14 93 3b 79
        E 10 93 36 78
        E 10 93 32 68
        E 1703 83 3e 00
        E 34 83 36 00
        E 42 83 3b 00
        E 84 83 32 00
        E 40 93 36 76
        E 1 93 40 7c
        E 1 93 3e 72
        E 6 93 30 76
        E 1713 83 36 00
        E 27 83 3e 00
        E 9 83 40 00
        E 6 83 30 00
        E 151 93 36 5b
        E 2 93 40 68
        E 12 93 3e 61
        E 2 93 30 63
        E 1505 83 36 00
        E 109 83 3e 00
        E 99 83 30 00
        E 19 83 40 00
        E 172 93 40 73
        E 5 93 39 6a
        E 1 93 3e 59
        E 9 93 32 6a
        E 1754 83 40 00
        E 38 83 3e 00
        E 99 83 39 00
        E 14 93 3e 76
        E 7 93 36 6e
        E 3 93 32 6e
        E 1 93 3b 6d
        E 50 83 32 00
        E 1572 83 3b 00
        E 231 83 3e 00
        E 64 93 3e 79
        E 9 93 40 7d
        E 3 93 36 75
        E 1 93 30 6e
        E 15 83 32 00
        E 33 83 36 00
        E 1692 83 3e 00
        E 22 83 30 00
        E 130 83 40 00
        E 4 93 40 7b
        E 9 93 3e 70
        E 4 93 36 72
        E 6 93 30 7b
        E 5 83 36 00
        E 1506 83 30 00
        E 173 83 3e 00
        E 19 83 36 00
        E 67 83 40 00
        E 133 93 3c 54
        E 3 93 34 73
        E 10 93 30 65
        E 3 93 40 61
        E 1705 83 3c 00
        E 45 83 40 00
        E 10 83 30 00
        E 24 83 34 00
        E 116 93 3e 7b
        E 7 93 34 7c
        E 15 93 37 73
        E 4 93 30 5b
        E 1705 83 34 00
        E 34 83 3e 00
        E 189 83 30 00
        E 100 83 37 00
        E 0 b3 7b 00
        E 1 ff 2f 00
      >
    >
  >
  <TRACK
    NAME "Cello"
    PEAKCOL 4284186559
    VOLPAN 1.000000 0 1 -1
    MIDIOUT -1
    ISBUS 0 0
    <ITEM
      POSITION 1.682608
      LENGTH 75.073935
      NAME "Cello"
      VOLPAN 1 0 1 -1
      <SOURCE MIDI
        HASDATA 1 960 QN
        E 0 c4 2a 00
        E 1938 94 39 41
        E 2052 84 39 00
        E 1782 94 35 3c
        E 2014 84 35 00
        E 5653 94 39 43
        E 1878 84 39 00
        E 1963 94 3e 47
        E 1876 84 3e 00
        E 58 94 3b 53
        E 1855 84 3b 00
        E 61 94 3b 54
        E 1896 84 3b 00
        E 35 94 3c 41
        E 1825 84 3c 00
        E 81 94 39 56
        E 1918 94 37 56
        E 45 84 39 00
        E 1842 84 37 00
        E 34 94 32 61
        E 1900 84 32 00
        E 23 94 2f 47
        E 1923 94 30 58
        E 18 84 2f 00
        E 1756 84 30 00
        E 147 94 2e 59
        E 1814 84 2e 00
        E 101 94 2b 5b
        E 1918 94 25 4b
        E 31 84 2b 00
        E 1906 84 25 00
        E 5 94 30 51
        E 1861 84 30 00
        E 40 94 31 51
        E 1930 94 37 60
        E 11 84 31 00
        E 1905 94 34 6a
        E 145 84 37 00
        E 1758 84 34 00
        E 16 94 33 5b
        E 1852 84 33 00
        E 59 94 34 6e
        E 1869 84 34 00
        E 55 94 35 65
        E 1900 84 35 00
        E 29 94 36 75
        E 1886 84 36 00
        E 29 94 35 47
        E 1917 94 3c 6e
        E 9 84 35 00
        E 1852 84 3c 00
        E 83 94 40 5d
        E 1918 94 44 72
        E 38 84 40 00
        E 1753 84 44 00
        E 107 94 3f 5d
        E 1940 94 43 68
        E 10 84 3f 00
        E 1899 94 48 6b
        E 33 84 43 00
        E 1836 84 48 00
        E 49 94 45 75
        E 1820 84 45 00
        E 97 94 48 7b
        E 1917 94 41 5b
        E 87 84 48 00
        E 1725 84 41 00
        E 108 94 49 63
        E 1917 84 49 00
        E 1930 94 40 6b
        E 1905 94 42 72
        E 45 84 40 00
        E 1919 84 42 00
        E 3798 94 3d 68
        E 1903 84 3d 00
        E 0 b4 7b 00
        E 1 ff 2f 00
      >
    >
  >
  <TRACK
    NAME "Bass"
    PEAKCOL 4286528191
    VOLPAN 1.000000 0 1 -1
    MIDIOUT -1
    ISBUS 0 0
    <ITEM
      POSITION 0.000000
      LENGTH 80.019353
      NAME "Bass"
      VOLPAN 1 0 1 -1
      <SOURCE MIDI
        HASDATA 1 960 QN
        E 0 c5 2b 00
        E 0 95 26 58
        E 854 85 26 00
        E 111 95 2c 51
        E 843 85 2c 00
        E 112 95 26 54
        E 870 85 26 00
        E 91 95 21 59
        E 866 85 21 00
        E 96 95 26 5e
        E 864 85 26 00
        E 93 95 2a 54
        E 857 85 2a 00
        E 107 95 30 58
        E 858 85 30 00
        E 96 95 2a 4b
        E 882 85 2a 00
        E 82 95 30 56
        E 877 85 30 00
        E 85 95 30 4e
        E 859 85 30 00
        E 98 95 32 4e
        E 862 85 32 00
        E 96 95 2f 58
        E 856 85 2f 00
        E 113 95 32 51
        E 867 85 32 00
        E 86 95 34 58
        E 855 85 34 00
        E 105 95 31 4c
        E 841 85 31 00
        E 123 95 31 43
        E 869 85 31 00
        E 89 95 32 5b
        E 843 85 32 00
        E 113 95 37 54
        E 861 85 37 00
        E 106 95 31 51
        E 870 85 31 00
        E 79 95 34 53
        E 881 85 34 00
        E 88 95 32 56
        E 883 85 32 00
        E 76 95 31 4c
        E 870 85 31 00
        E 90 95 31 4e
        E 860 85 31 00
        E 95 95 39 46
        E 864 85 39 00
        E 98 95 31 54
        E 874 85 31 00
        E 87 95 34 59
        E 867 85 34 00
        E 93 95 34 5e
        E 868 85 34 00
        E 90 95 34 60
        E 851 85 34 00
        E 116 95 32 63
        E 879 85 32 00
        E 79 95 30 65
        E 862 85 30 00
        E 96 95 32 68
        E 860 85 32 00
        E 101 95 30 5e
        E 866 85 30 00
        E 96 95 30 58
        E 862 85 30 00
        E 91 95 34 4c
        E 849 85 34 00
        E 113 95 31 5d
        E 863 85 31 00
        E 103 95 30 60
        E 868 85 30 00
        E 87 95 30 5d
        E 860 85 30 00
        E 103 95 31 59
        E 854 85 31 00
        E 107 95 32 5d
        E 852 85 32 00
        E 101 95 2c 61
        E 894 85 2c 00
        E 67 95 31 6a
        E 881 85 31 00
        E 83 95 34 5b
        E 862 85 34 00
        E 93 95 31 5d
        E 877 85 31 00
        E 85 95 34 56
        E 854 85 34 00
        E 112 95 31 5e
        E 865 85 31 00
        E 99 95 30 56
        E 855 85 30 00
        E 97 95 30 66
        E 861 85 30 00
        E 102 95 35 66
        E 876 85 35 00
        E 75 95 32 76
        E 880 85 32 00
        E 90 95 38 68
        E 861 85 38 00
        E 91 95 30 63
        E 870 85 30 00
        E 93 95 37 76
        E 863 85 37 00
        E 108 95 33 6b
        E 859 85 33 00
        E 88 95 35 6e
        E 865 85 35 00
        E 95 95 34 6b
        E 876 85 34 00
        E 82 95 34 73
        E 871 85 34 00
        E 93 95 36 79
        E 858 85 36 00
        E 103 95 36 76
        E 865 85 36 00
        E 99 95 32 5b
        E 867 85 32 00
        E 82 95 38 65
        E 870 85 38 00
        E 95 95 32 78
        E 854 85 32 00
        E 109 95 2e 6a
        E 866 85 2e 00
        E 93 95 30 66
        E 836 85 30 00
        E 121 95 30 6e
        E 866 85 30 00
        E 98 95 32 79
        E 861 85 32 00
        E 99 95 2f 7b
        E 848 85 2f 00
        E 110 95 34 70
        E 863 85 34 00
        E 99 95 30 65
        E 872 85 30 00
        E 84 95 2c 6d
        E 870 85 2c 00
        E 93 95 36 6d
        E 876 85 36 00
        E 83 95 32 6e
        E 862 85 32 00
        E 105 95 29 68
        E 869 85 29 00
        E 84 95 31 7b
        E 863 85 31 00
        E 97 95 30 7b
        E 844 85 30 00
        E 116 95 33 7b
        E 862 85 33 00
        E 101 95 35 76
        E 841 85 35 00
        E 120 95 30 76
        E 852 85 30 00
        E 107 95 31 7d
        E 867 85 31 00
        E 90 95 32 76
        E 866 85 32 00
        E 93 95 34 7b
        E 858 85 34 00
        E 106 95 33 7d
        E 863 85 33 00
        E 87 95 2d 7c
        E 848 85 2d 00
        E 128 95 32 7d
        E 840 85 32 00
        E 116 95 2d 77
        E 858 85 2d 00
        E 103 95 32 7c
        E 863 85 32 00
        E 94 95 30 76
        E 854 85 30 00
        E 103 95 33 77
        E 853 85 33 00
        E 110 95 37 78
        E 864 85 37 00
        E 93 95 30 76
        E 858 85 30 00
        E 105 95 30 78
        E 875 85 30 00
        E 77 95 32 7c
        E 881 85 32 00
        E 82 95 36 7d
        E 867 85 36 00
        E 97 95 38 7a
        E 861 85 38 00
        E 100 95 32 7b
        E 861 85 32 00
        E 95 95 30 70
        E 884 85 30 00
        E 79 95 31 73
        E 865 85 31 00
        E 0 b5 7b 00
        E 1 ff 2f 00
      >
    >
  >
  <TRACK
    NAME "Pedal"
    PEAKCOL 4284506208
    VOLPAN 1.000000 0 1 -1
    MIDIOUT -1
    ISBUS 0 0
    <ITEM
      POSITION 0.000000
      LENGTH 80.136966
      NAME "Pedal"
      VOLPAN 1 0 1 -1
      <SOURCE MIDI
        HASDATA 1 960 QN
        E 0 c6 2b 00
        E 0 96 0b 32
        E 3841 96 0e 3c
        E 25 86 0b 00
        E 3813 86 0e 00
        E 1 96 0a 36
        E 3837 86 0a 00
        E 6 96 0d 39
        E 3834 96 0c 39
        E 18 86 0d 00
        E 3812 86 0c 00
        E 10 96 11 3a
        E 3822 86 11 00
        E 20 96 0f 46
        E 3836 96 0c 46
        E 22 86 0f 00
        E 3808 86 0c 00
        E 13 96 05 3a
        E 3804 86 05 00
        E 39 96 0d 3a
        E 3835 96 0b 43
        E 10 86 0d 00
        E 3822 86 0b 00
        E 14 96 0c 44
        E 3836 96 0b 53
        E 27 86 0c 00
        E 3804 86 0b 00
        E 12 96 00 56
        E 3843 96 0b 56
        E 4 86 00 00
        E 3831 96 0d 50
        E 47 86 0b 00
        E 3755 86 0d 00
        E 43 96 0c 5b
        E 3832 96 0e 59
        E 7 86 0c 00
        E 3829 86 0e 00
        E 4 96 0c 5d
        E 3812 86 0c 00
        E 31 96 06 60
        E 3834 86 06 00
        E 7 96 11 5d
        E 3839 96 0b 61
        E 12 86 11 00
        E 3819 86 0b 00
        E 14 96 0e 61
        E 3792 86 0e 00
        E 46 96 09 65
        E 3880 86 09 00
        E 0 b6 7b 00
        E 1 ff 2f 00
      >
    >
  >
  <TRACK
    NAME "Glock"
    PEAKCOL 4290756410
    VOLPAN 1.000000 0 1 -1
    MIDIOUT -1
    ISBUS 0 0
    <ITEM
      POSITION 7.085100
      LENGTH 79.091615
      NAME "Glock"
      VOLPAN 1 0 1 -1
      <SOURCE MIDI
        HASDATA 1 960 QN
        E 0 c7 09 00
        E 8162 97 68 44
        E 292 87 68 00
        E 670 97 68 3a
        E 286 87 68 00
        E 3553 97 68 3c
        E 290 87 68 00
        E 668 97 68 49
        E 289 87 68 00
        E 188 97 67 43
        E 289 87 67 00
        E 673 97 67 4c
        E 291 87 67 00
        E 188 97 67 49
        E 293 87 67 00
        E 1152 97 69 44
        E 294 87 69 00
        E 1141 97 66 3c
        E 283 87 66 00
        E 3561 97 68 44
        E 289 87 68 00
        E 1141 97 68 4e
        E 289 87 68 00
        E 199 97 68 51
        E 287 87 68 00
        E 3072 97 66 4e
        E 285 87 66 00
        E 189 97 68 49
        E 292 87 68 00
        E 2113 97 65 49
        E 289 87 65 00
        E 196 97 68 43
        E 285 87 68 00
        E 197 97 68 4c
        E 289 87 68 00
        E 185 97 68 49
        E 285 87 68 00
        E 189 97 68 51
        E 290 87 68 00
        E 201 97 68 58
        E 297 87 68 00
        E 181 97 66 4b
        E 283 87 66 00
        E 198 97 68 54
        E 290 87 68 00
        E 182 97 68 59
        E 295 87 68 00
        E 187 97 67 50
        E 292 87 67 00
        E 190 97 66 4b
        E 283 87 66 00
        E 201 97 68 51
        E 286 87 68 00
        E 182 97 63 49
        E 286 87 63 00
        E 199 97 64 49
        E 290 87 64 00
        E 193 97 6b 44
        E 284 87 6b 00
        E 197 97 61 36
        E 289 87 61 00
        E 2111 97 66 4e
        E 289 87 66 00
        E 185 97 65 4c
        E 290 87 65 00
        E 198 97 67 51
        E 285 87 67 00
        E 184 97 67 4e
        E 289 87 67 00
        E 202 97 67 4e
        E 290 87 67 00
        E 193 97 68 58
        E 291 87 68 00
        E 180 97 69 51
        E 286 87 69 00
        E 198 97 68 53
        E 284 87 68 00
        E 195 97 6a 4c
        E 289 87 6a 00
        E 188 97 6a 51
        E 296 87 6a 00
        E 191 97 6a 50
        E 293 87 6a 00
        E 182 97 68 4c
        E 291 87 68 00
        E 187 97 67 60
        E 288 87 67 00
        E 191 97 66 58
        E 290 87 66 00
        E 196 97 61 50
        E 288 87 61 00
        E 194 97 63 4b
        E 283 87 63 00
        E 2109 97 69 63
        E 288 87 69 00
        E 190 97 66 5e
        E 285 87 66 00
        E 202 97 63 56
        E 294 87 63 00
        E 182 97 67 59
        E 286 87 67 00
        E 205 97 6a 53
        E 292 87 6a 00
        E 184 97 67 5d
        E 285 87 67 00
        E 195 97 65 5d
        E 282 87 65 00
        E 196 97 68 68
        E 289 87 68 00
        E 192 97 68 73
        E 293 87 68 00
        E 189 97 68 65
        E 288 87 68 00
        E 186 97 69 63
        E 284 87 69 00
        E 197 97 68 65
        E 286 87 68 00
        E 197 97 67 4c
        E 285 87 67 00
        E 187 97 68 53
        E 286 87 68 00
        E 204 97 66 53
        E 292 87 66 00
        E 183 97 5f 44
        E 285 87 5f 00
        E 2122 97 69 5b
        E 294 87 69 00
        E 180 97 62 56
        E 289 87 62 00
        E 190 97 6a 5b
        E 294 87 6a 00
        E 179 97 68 63
        E 286 87 68 00
        E 200 97 6b 5e
        E 287 87 6b 00
        E 192 97 6b 5b
        E 289 87 6b 00
        E 192 97 67 65
        E 286 87 67 00
        E 202 97 69 60
        E 288 87 69 00
        E 182 97 67 65
        E 287 87 67 00
        E 195 97 67 60
        E 284 87 67 00
        E 201 97 68 6e
        E 295 87 68 00
        E 181 97 66 5d
        E 286 87 66 00
        E 190 97 67 5b
        E 290 87 67 00
        E 190 97 61 4e
        E 288 87 61 00
        E 201 97 64 50
        E 282 87 64 00
        E 196 97 64 50
        E 285 87 64 00
        E 2112 97 67 68
        E 287 87 67 00
        E 192 97 6b 68
        E 290 87 6b 00
        E 190 97 69 66
        E 290 87 69 00
        E 194 97 69 6d
        E 286 87 69 00
        E 188 97 66 6a
        E 292 87 66 00
        E 185 97 68 6d
        E 285 87 68 00
        E 201 97 63 66
        E 287 87 63 00
        E 196 97 68 63
        E 287 87 68 00
        E 190 97 68 6d
        E 283 87 68 00
        E 194 97 68 75
        E 292 87 68 00
        E 199 97 66 6b
        E 284 87 66 00
        E 186 97 66 6a
        E 290 87 66 00
        E 187 97 69 5b
        E 286 87 69 00
        E 198 97 68 59
        E 293 87 68 00
        E 5465 97 64 65
        E 288 87 64 00
        E 193 97 67 6a
        E 287 87 67 00
        E 678 97 69 65
        E 289 87 69 00
        E 184 97 66 73
        E 286 87 66 00
        E 198 97 64 60
        E 289 87 64 00
        E 2111 97 67 59
        E 291 87 67 00
        E 4028 97 65 63
        E 281 87 65 00
        E 680 97 67 66
        E 287 87 67 00
        E 3553 97 68 6e
        E 284 87 68 00
        E 198 97 68 61
        E 287 87 68 00
        E 3071 97 67 6b
        E 280 87 67 00
        E 0 b7 7b 00
        E 1 ff 2f 00
      >
    >
  >
>
