<REAPER_PROJECT 0.1 "7.0" 1700000000
  TEMPO 96.000000 4 4
  SAMPLERATE 48000 0 0
  RENDER_FILE ""
  RENDER_FMT 0 2 0
  RENDER_1X 0
  RENDER_RANGE 1 0 128.065656 0 0
  RENDER_RESAMPLE 3 0 1
  <MASTERTRACK
    VOLPAN 1 0 1 -1
    DEFCHAN 0
  >
  <TRACK
    NAME "Lead"
    PEAKCOL 4284506208
    VOLPAN 1.000000 0 1 -1
    MIDIOUT -1
    ISBUS 0 0
    <ITEM
      POSITION 0.741287
      LENGTH 125.047327
      NAME "Lead"
      VOLPAN 1 0 1 -1
      <SOURCE MIDI
        HASDATA 1 960 QN
        E 0 c0 49 00
        E 1139 90 48 3f
        E 882 90 4c 50
        E 94 80 48 00
        E 769 80 4c 00
        E 166 90 4b 50
        E 823 90 54 57
        E 23 80 4b 00
        E 172 90 57 55
        E 44 80 54 00
        E 857 80 57 00
        E 130 90 54 45
        E 504 90 56 22
        E 335 80 54 00
        E 90 80 56 00
        E 581 90 52 3e
        E 418 80 52 00
        E 598 90 54 3d
        E 197 80 54 00
        E 832 90 56 49
        E 971 80 56 00
        E 48 90 4f 65
        E 1012 90 53 4b
        E 701 80 4f 00
        E 160 80 53 00
        E 2715 90 4d 3f
        E 821 80 4d 00
        E 1209 90 54 59
        E 202 90 50 4b
        E 248 80 50 00
        E 167 90 4d 55
        E 201 90 4a 4f
        E 63 80 4d 00
        E 39 80 54 00
        E 96 90 48 67
        E 40 80 4a 00
        E 816 80 48 00
        E 2408 90 4d 3e
        E 178 90 4f 46
        E 57 80 4d 00
        E 175 80 4f 00
        E 6213 90 54 42
        E 799 90 55 42
        E 31 80 54 00
        E 858 80 55 00
        E 109 90 58 44
        E 865 80 58 00
        E 162 90 56 49
        E 752 80 56 00
        E 258 90 57 3f
        E 964 80 57 00
        E 308 90 55 3b
        E 793 90 55 25
        E 157 80 55 00
        E 285 80 55 00
        E 2927 90 58 60
        E 879 80 58 00
        E 165 90 57 5c
        E 660 90 4f 33
        E 104 80 57 00
        E 292 80 4f 00
        E 632 90 59 3d
        E 914 80 59 00
        E 3245 90 55 3a
        E 849 80 55 00
        E 930 90 4b 2f
        E 609 80 4b 00
        E 418 90 52 4e
        E 748 80 52 00
        E 6769 90 48 34
        E 763 80 48 00
        E 3 90 4d 3a
        E 322 90 56 3f
        E 131 80 4d 00
        E 121 80 56 00
        E 54 90 58 4b
        E 234 80 58 00
        E 76 90 4d 3b
        E 239 80 4d 00
        E 868 90 57 19
        E 450 80 57 00
        E 1573 90 57 3b
        E 1022 90 4f 59
        E 307 80 57 00
        E 719 90 4e 38
        E 512 90 49 3a
        E 208 80 4f 00
        E 70 80 4e 00
        E 491 80 49 00
        E 470 90 48 48
        E 491 80 48 00
        E 288 90 3f 2a
        E 888 80 3f 00
        E 2157 90 41 4c
        E 911 80 41 00
        E 365 90 49 2d
        E 1783 80 49 00
        E 16 90 49 48
        E 1110 90 42 27
        E 264 80 49 00
        E 640 90 3f 2c
        E 83 80 42 00
        E 443 90 42 17
        E 319 80 3f 00
        E 363 80 42 00
        E 972 90 4b 4e
        E 862 80 4b 00
        E 1924 90 4e 56
        E 784 80 4e 00
        E 217 90 49 50
        E 957 80 49 00
        E 1230 90 49 53
        E 880 80 49 00
        E 637 90 4a 50
        E 651 80 4a 00
        E 1383 90 56 59
        E 892 80 56 00
        E 117 90 4d 56
        E 746 80 4d 00
        E 273 90 55 60
        E 1012 80 55 00
        E 7 90 55 59
        E 957 80 55 00
        E 72 90 4a 3e
        E 471 80 4a 00
        E 567 90 50 42
        E 422 80 50 00
        E 564 90 53 50
        E 890 80 53 00
        E 2195 90 4f 50
        E 842 80 4f 00
        E 145 90 56 5c
        E 525 90 50 56
        E 230 80 50 00
        E 251 80 56 00
        E 1541 90 4d 44
        E 224 80 4d 00
        E 276 90 4b 30
        E 463 80 4b 00
        E 572 90 4d 63
        E 893 80 4d 00
        E 126 90 4f 4e
        E 899 80 4f 00
        E 126 90 4a 4c
        E 778 80 4a 00
        E 220 90 4e 56
        E 896 80 4e 00
        E 140 90 4f 5c
        E 941 80 4f 00
        E 81 90 49 53
        E 840 80 49 00
        E 172 90 4c 3b
        E 213 80 4c 00
        E 798 90 4b 5e
        E 503 90 4a 56
        E 193 80 4b 00
        E 680 80 4a 00
        E 80178 90 37 5c
        E 480 90 3b 56
        E 480 90 3e 52
        E 480 80 37 00
        E 0 80 3b 00
        E 480 80 3e 00
        E 1920 90 30 65
        E 0 90 37 60
        E 3360 80 30 00
        E 0 80 37 00
        E 0 b0 7b 00
        E 1 ff 2f 00
      >
    >
  >
  <TRACK
    NAME "Violin1"
    PEAKCOL 4284186559
    VOLPAN 1.000000 0 1 -1
    MIDIOUT -1
    ISBUS 0 0
    <ITEM
      POSITION 1.236463
      LENGTH 124.929193
      NAME "Violin1"
      VOLPAN 1 0 1 -1
      <SOURCE MIDI
        HASDATA 1 960 QN
        E 0 c1 28 00
        E 1899 91 4b 29
        E 1889 81 4b 00
        E 83 91 4c 4b
        E 1828 81 4c 00
        E 3908 91 56 38
        E 1917 91 55 3a
        E 42 81 56 00
        E 1879 81 55 00
        E 37 91 48 44
        E 1988 81 48 00
        E 3741 91 58 45
        E 1731 81 58 00
        E 207 91 55 37
        E 1889 91 56 3f
        E 185 81 55 00
        E 1729 81 56 00
        E 25 91 56 30
        E 1887 81 56 00
        E 1939 91 55 3e
        E 1945 91 55 38
        E 7 81 55 00
        E 1879 81 55 00
        E 9 91 55 27
        E 1919 81 55 00
        E 1922 91 60 3b
        E 1939 91 61 46
        E 25 81 60 00
        E 2028 81 61 00
        E 3686 91 60 30
        E 1815 81 60 00
        E 125 91 5b 33
        E 1908 91 60 2c
        E 13 81 5b 00
        E 1914 91 5b 2a
        E 16 81 60 00
        E 1896 91 4c 38
        E 51 81 5b 00
        E 1581 81 4c 00
        E 2223 91 5c 33
        E 1922 91 55 27
        E 15 81 5c 00
        E 1879 91 55 15
        E 64 81 55 00
        E 1859 81 55 00
        E 1920 91 57 33
        E 2159 81 57 00
        E 3618 91 52 2f
        E 1896 81 52 00
        E 11 91 59 26
        E 1785 81 59 00
        E 3982 91 66 31
        E 1963 81 66 00
        E 1885 91 5a 49
        E 1876 81 5a 00
        E 44 91 61 52
        E 1887 81 61 00
        E 1934 91 57 36
        E 1542 91 4a 4c
        E 365 91 5f 3e
        E 97 81 57 00
        E 1388 81 4a 00
        E 68 91 57 3a
        E 377 91 5b 48
        E 3 81 5f 00
        E 1499 81 57 00
        E 33 91 55 3e
        E 412 91 59 4b
        E 31 81 5b 00
        E 1507 81 55 00
        E 370 91 55 34
        E 53 81 59 00
        E 1492 91 57 3b
        E 304 81 55 00
        E 78 91 56 3f
        E 1540 81 57 00
        E 377 91 53 48
        E 96 81 56 00
        E 1413 91 56 44
        E 392 91 4f 4c
        E 6 81 53 00
        E 1547 91 55 3b
        E 15 81 56 00
        E 362 91 4a 53
        E 85 81 4f 00
        E 1279 81 55 00
        E 168 91 61 30
        E 233 81 4a 00
        E 1609 81 61 00
        E 92 91 61 44
        E 380 91 3f 42
        E 1611 81 61 00
        E 474 81 3f 00
        E 1377 91 60 4e
        E 2118 81 60 00
        E 1709 91 5f 44
        E 1866 81 5f 00
        E 1983 91 5f 45
        E 1921 91 59 37
        E 37 81 5f 00
        E 1894 91 57 3b
        E 63 81 59 00
        E 1850 91 56 3f
        E 48 81 57 00
        E 1847 91 57 3f
        E 53 81 56 00
        E 1802 81 57 00
        E 72 91 56 3a
        E 1939 91 4a 2d
        E 1 81 56 00
        E 1828 81 4a 00
        E 86 91 4f 44
        E 1920 91 54 3f
        E 94 81 4f 00
        E 1789 81 54 00
        E 42 91 57 42
        E 1886 91 52 3f
        E 62 81 57 00
        E 1810 81 52 00
        E 63 91 56 36
        E 1924 91 5b 41
        E 73 81 56 00
        E 1852 81 5b 00
        E 12 91 5e 3a
        E 1809 81 5e 00
        E 100 91 63 38
        E 1910 81 63 00
        E 4 91 60 41
        E 1916 91 5b 2c
        E 97 81 60 00
        E 1831 91 5b 50
        E 15 81 5b 00
        E 1728 81 5b 00
        E 163 91 5e 3b
        E 1917 81 5e 00
        E 12 91 5d 48
        E 1881 81 5d 00
        E 42 91 57 42
        E 1835 81 57 00
        E 84 91 54 33
        E 1899 91 51 4c
        E 41 81 54 00
        E 1902 91 56 38
        E 55 81 51 00
        E 1861 81 56 00
        E 8 91 53 57
        E 1917 81 53 00
        E 6 91 53 41
        E 1908 91 55 3d
        E 85 81 53 00
        E 1826 81 55 00
        E 16 91 55 41
        E 1899 81 55 00
        E 16 91 58 4f
        E 1909 91 54 38
        E 126 81 58 00
        E 1824 91 58 46
        E 27 81 54 00
        E 1890 91 58 46
        E 97 81 58 00
        E 1753 81 58 00
        E 67 91 53 42
        E 1865 81 53 00
        E 57 91 56 42
        E 1884 81 56 00
        E 22 91 51 2d
        E 1929 91 56 42
        E 83 81 51 00
        E 1620 81 56 00
        E 215 91 5b 3f
        E 1884 81 5b 00
        E 20 91 5d 50
        E 1945 91 59 52
        E 45 81 5d 00
        E 1850 91 56 37
        E 259 81 59 00
        E 1761 81 56 00
        E 0 b1 7b 00
        E 1 ff 2f 00
      >
    >
  >
  <TRACK
    NAME "Strings"
    PEAKCOL 4284186559
    VOLPAN 1.000000 0 1 -1
    MIDIOUT -1
    ISBUS 0 0
    <ITEM
      POSITION 13.997824
      LENGTH 42.120078
      NAME "Strings"
      VOLPAN 1 0 1 -1
      <SOURCE MIDI
        HASDATA 1 960 QN
        E 0 c2 30 00
        E 21501 92 3c 41
        E 5 92 49 3a
        E 1 92 30 2f
        E 1 92 32 3d
        E 1 92 48 3d
        E 0 92 3c 41
        E 12 92 48 3b
        E 1852 82 48 00
        E 9 82 30 00
        E 33 82 3c 00
        E 9 92 3f 37
        E 3 92 33 3f
        E 11 92 49 41
        E 65 82 48 00
        E 12 82 32 00
        E 4 82 3c 00
        E 123 82 49 00
        E 1699 92 3d 3a
        E 8 92 3d 37
        E 5 92 3e 37
        E 6 92 4b 31
        E 29 82 33 00
        E 44 82 3f 00
        E 16 82 49 00
        E 1715 82 3d 00
        E 7 82 4b 00
        E 15 82 3e 00
        E 15 82 3d 00
        E 59 92 4a 4b
        E 8 92 48 3e
        E 3 92 3e 4e
        E 8 92 49 3e
        E 1786 82 48 00
        E 88 82 4a 00
        E 23 92 4a 3f
        E 2 82 49 00
        E 6 92 48 37
        E 5 92 42 37
        E 13 92 44 3a
        E 30 82 3e 00
        E 1702 82 4a 00
        E 49 82 44 00
        E 5 82 48 00
        E 110 92 40 38
        E 4 92 3d 37
        E 6 92 4a 37
        E 9 92 3f 34
        E 0 92 43 41
        E 92 82 42 00
        E 1716 82 40 00
        E 90 92 32 48
        E 2 92 4a 45
        E 12 92 4a 45
        E 1 92 3c 3f
        E 8 92 43 46
        E 10 82 43 00
        E 47 82 3d 00
        E 31 82 4a 00
        E 10 82 3f 00
        E 1710 82 3c 00
        E 4 82 4a 00
        E 84 82 4a 00
        E 15 92 4a 48
        E 5 92 4a 48
        E 37 82 32 00
        E 103 82 43 00
        E 1678 82 4a 00
        E 2 82 4a 00
        E 90 92 48 2c
        E 13 92 32 31
        E 5 92 31 36
        E 1753 82 48 00
        E 96 82 31 00
        E 31 92 4a 41
        E 11 92 32 3d
        E 9 92 32 46
        E 19 92 48 48
        E 76 82 32 00
        E 1799 82 4a 00
        E 11 92 3b 46
        E 7 92 4b 49
        E 10 82 32 00
        E 5 92 49 3a
        E 3 92 3c 48
        E 5 92 4b 49
        E 0 92 32 41
        E 16 82 32 00
        E 38 82 48 00
        E 1602 82 4b 00
        E 174 82 49 00
        E 11 82 3b 00
        E 15 82 4b 00
        E 8 82 32 00
        E 82 82 3c 00
        E 21852 92 47 1e
        E 3 92 3e 1e
        E 3 92 3e 22
        E 1 92 3d 22
        E 18 92 3d 20
        E 1844 82 3e 00
        E 47 82 3d 00
        E 3 92 43 22
        E 1 92 44 22
        E 4 92 32 20
        E 91 82 3e 00
        E 25 82 47 00
        E 76 82 3d 00
        E 1680 82 44 00
        E 34 92 3f 26
        E 10 92 40 22
        E 77 82 43 00
        E 30 82 32 00
        E 1678 82 3f 00
        E 75 82 40 00
        E 55 92 3f 14
        E 5 92 3e 1e
        E 1874 82 3f 00
        E 45 92 49 19
        E 6 92 32 18
        E 1 92 37 1f
        E 13 92 4b 1c
        E 14 82 3e 00
        E 1841 82 4b 00
        E 18 82 37 00
        E 23 82 32 00
        E 73 82 49 00
        E 1845 92 4b 31
        E 3 92 3f 31
        E 6 92 4a 3b
        E 3 92 33 37
        E 1 92 4a 38
        E 1856 82 4a 00
        E 20 82 33 00
        E 24 92 48 34
        E 4 92 4b 36
        E 2 92 3d 31
        E 1 92 4b 31
        E 3 92 4a 2d
        E 24 92 42 30
        E 42 82 4b 00
        E 55 82 4a 00
        E 12 82 3f 00
        E 1655 82 4b 00
        E 37 82 3d 00
        E 81 92 3d 27
        E 3 82 42 00
        E 3 92 3f 2c
        E 3 92 3f 26
        E 1 92 26 26
        E 6 92 3f 19
        E 7 92 4a 29
        E 32 82 4b 00
        E 48 82 48 00
        E 44 82 4a 00
        E 1574 82 3d 00
        E 70 82 3f 00
        E 60 82 26 00
        E 11 82 3f 00
        E 67 82 3f 00
        E 8 92 3c 2d
        E 1 92 4a 37
        E 2 92 4a 31
        E 5 92 4b 2d
        E 2 92 4b 37
        E 5 92 4b 37
        E 158 82 4a 00
        E 1604 82 4a 00
        E 15 82 4a 00
        E 79 82 3c 00
        E 17 82 4b 00
        E 21 92 4b 2f
        E 1 92 49 2c
        E 1 92 3f 2c
        E 1 92 4a 2f
        E 11 92 3c 31
        E 7 92 4a 2f
        E 4 82 4b 00
        E 1 92 3e 30
        E 31 82 4b 00
        E 1734 82 4b 00
        E 21 82 3f 00
        E 30 82 49 00
        E 38 82 3c 00
        E 35 92 41 27
        E 6 92 49 22
        E 8 92 32 1e
        E 9 92 3e 2a
        E 0 92 4a 29
        E 0 92 4a 20
        E 1 82 4a 00
        E 19 82 4a 00
        E 65 82 3e 00
        E 260 82 41 00
        E 12 82 4a 00
        E 16 82 3e 00
        E 20 82 49 00
        E 10 82 32 00
        E 0 82 4a 00
        E 0 b2 7b 00
        E 1 ff 2f 00
      >
    >
  >
  <TRACK
    NAME "Brass"
    PEAKCOL 4290740026
    VOLPAN 1.000000 0 1 -1
    MIDIOUT -1
    ISBUS 0 0
    <ITEM
      POSITION 28.008241
      LENGTH 12.074961
      NAME "Brass"
      VOLPAN 1 0 1 -1
      <SOURCE MIDI
        HASDATA 1 960 QN
        E 0 c3 3d 00
        E 43021 93 43 41
        E 3 93 37 38
        E 12 93 43 38
        E 1133 83 37 00
        E 7 83 43 00
        E 28 83 43 00
        E 952 93 45 52
        E 18 93 39 45
        E 4 93 39 45
        E 1125 83 39 00
        E 29 83 39 00
        E 9 83 45 00
        E 987 93 38 5c
        E 6 93 44 5c
        E 7 93 45 50
        E 6 93 32 4b
        E 1114 83 44 00
        E 5 83 45 00
        E 25 83 38 00
        E 55 83 32 00
        E 973 93 47 55
        E 0 93 39 50
        E 1178 83 39 00
        E 16 83 47 00
        E 931 93 47 5e
        E 5 93 38 4c
        E 1 93 45 53
        E 11 93 3b 53
        E 1083 83 47 00
        E 11 83 38 00
        E 41 83 3b 00
        E 29 83 45 00
        E 995 93 3c 37
        E 3 93 48 37
        E 8 93 3c 3b
        E 1100 83 3c 00
        E 48 83 3c 00
        E 6 83 48 00
        E 984 93 3b 5e
        E 19 93 46 4b
        E 1130 83 46 00
        E 8 83 3b 00
        E 1006 93 39 53
        E 5 93 39 4f
        E 5 93 45 56
        E 17 93 44 4c
        E 1086 83 39 00
        E 14 83 39 00
        E 29 83 45 00
        E 0 83 44 00
        E 1001 93 37 46
        E 1 93 43 45
        E 9 93 43 45
        E 1096 83 43 00
        E 6 83 43 00
        E 13 83 37 00
        E 0 b3 7b 00
        E 1 ff 2f 00
      >
    >
  >
  <TRACK
    NAME "Choir"
    PEAKCOL 4284506208
    VOLPAN 1.000000 0 1 -1
    MIDIOUT -1
    ISBUS 0 0
    <ITEM
      POSITION 28.011238
      LENGTH 70.013322
      NAME "Choir"
      VOLPAN 1 0 1 -1
      <SOURCE MIDI
        HASDATA 1 960 QN
        E 0 c4 34 00
        E 43025 94 40 2f
        E 1688 84 40 00
        E 212 94 40 5a
        E 30 94 3c 4e
        E 1501 84 3c 00
        E 190 84 40 00
        E 211 94 3e 46
        E 0 94 47 49
        E 1656 84 3e 00
        E 122 84 47 00
        E 136 94 4a 46
        E 11 94 3e 50
        E 2 94 3e 4b
        E 1701 84 3e 00
        E 14 84 3e 00
        E 43 84 4a 00
        E 150 94 49 41
        E 17 94 3e 42
        E 4 94 3e 45
        E 3 94 3e 45
        E 1719 84 3e 00
        E 77 84 3e 00
        E 41 84 49 00
        E 53 84 3e 00
        E 11 94 40 4e
        E 4 94 48 4f
        E 1730 84 40 00
        E 92 84 48 00
        E 82 94 48 3f
        E 16 94 41 52
        E 12 94 40 5a
        E 3 94 40 5a
        E 1754 84 48 00
        E 79 84 40 00
        E 64 94 49 4f
        E 4 94 3f 57
        E 4 84 40 00
        E 17 84 41 00
        E 1728 84 3f 00
        E 2 84 49 00
        E 187 94 40 44
        E 1589 84 40 00
        E 314 94 3f 30
        E 3 94 48 3e
        E 1662 84 3f 00
        E 101 84 48 00
        E 164 94 47 49
        E 15 94 40 55
        E 1673 84 40 00
        E 184 84 47 00
        E 43 94 3f 52
        E 1 94 40 4f
        E 10 94 3f 52
        E 1601 84 40 00
        E 103 84 3f 00
        E 59 84 3f 00
        E 123 94 48 3f
        E 20 94 3e 55
        E 13 94 3e 33
        E 1629 84 48 00
        E 24 84 3e 00
        E 79 84 3e 00
        E 167 94 3f 4e
        E 3 94 49 49
        E 10 94 3f 4e
        E 1675 84 49 00
        E 42 84 3f 00
        E 78 84 3f 00
        E 115 94 49 44
        E 6 94 3f 55
        E 1 94 3f 55
        E 11 94 3f 4e
        E 1515 84 49 00
        E 156 84 3f 00
        E 37 84 3f 00
        E 54 84 3f 00
        E 150 94 3f 5a
        E 4 94 3f 5a
        E 12 94 3f 52
        E 1703 84 3f 00
        E 23 84 3f 00
        E 23 84 3f 00
        E 146 94 47 57
        E 8 94 3e 4e
        E 7 94 3b 4b
        E 1757 84 3e 00
        E 100 84 47 00
        E 49 84 3b 00
        E 1 94 4a 65
        E 38 94 3c 57
        E 1695 84 3c 00
        E 97 84 4a 00
        E 89 94 3f 6a
        E 4 94 4b 61
        E 4 94 41 6a
        E 1559 84 41 00
        E 298 84 4b 00
        E 4 84 3f 00
        E 50 94 48 65
        E 11 94 3e 6d
        E 16 94 3e 6d
        E 1568 84 3e 00
        E 227 84 48 00
        E 75 84 3e 00
        E 34 94 3e 6b
        E 6 94 3e 6b
        E 1758 84 3e 00
        E 77 84 3e 00
        E 70 94 49 5a
        E 10 94 3f 68
        E 8 94 40 57
        E 0 94 3f 6a
        E 1621 84 49 00
        E 42 84 3f 00
        E 18 84 40 00
        E 152 84 3f 00
        E 61 94 3e 6d
        E 7 94 48 5e
        E 25 94 3f 6f
        E 1657 84 3e 00
        E 69 84 48 00
        E 87 84 3f 00
        E 78 94 3f 6f
        E 2 94 3f 6f
        E 4 94 48 6b
        E 1648 84 48 00
        E 84 84 3f 00
        E 148 84 3f 00
        E 56 94 3e 71
        E 2 94 3f 79
        E 2 94 40 71
        E 1607 84 40 00
        E 155 84 3f 00
        E 46 84 3e 00
        E 88 94 3e 6a
        E 8 94 3f 65
        E 18 94 3e 6a
        E 1610 84 3f 00
        E 167 84 3e 00
        E 28 84 3e 00
        E 89 94 49 60
        E 0 94 3e 67
        E 5 94 3d 63
        E 26 94 3f 52
        E 1738 84 3f 00
        E 40 84 3e 00
        E 57 84 3d 00
        E 61 94 3f 6b
        E 11 84 49 00
        E 3 94 3f 61
        E 11 94 3e 72
        E 1690 84 3e 00
        E 24 84 3f 00
        E 44 84 3f 00
        E 139 94 3e 5e
        E 14 94 3f 6e
        E 4 94 3f 6e
        E 1693 84 3e 00
        E 157 84 3f 00
        E 43 94 47 5c
        E 3 94 32 49
        E 11 94 4a 5a
        E 23 84 3f 00
        E 1650 84 32 00
        E 95 84 47 00
        E 117 84 4a 00
        E 13 94 48 64
        E 7 94 3f 63
        E 32 94 3e 65
        E 1637 84 48 00
        E 164 84 3e 00
        E 30 84 3f 00
        E 52 94 49 5d
        E 6 94 3e 6b
        E 8 94 3e 5e
        E 31 94 3e 64
        E 1593 84 3e 00
        E 59 84 49 00
        E 209 84 3e 00
        E 11 84 3e 00
        E 13 94 3f 72
        E 2 94 48 79
        E 13 94 41 60
        E 1668 84 3f 00
        E 151 84 48 00
        E 7 84 41 00
        E 2001 94 48 5c
        E 7 94 3f 50
        E 0 94 3e 6a
        E 7 94 3e 5e
        E 1577 84 3f 00
        E 52 84 48 00
        E 60 84 3e 00
        E 94 84 3e 00
        E 119 94 3f 68
        E 4 94 3f 57
        E 1 94 48 63
        E 9 94 3f 72
        E 1664 84 3f 00
        E 13 84 3f 00
        E 31 84 48 00
        E 53 84 3f 00
        E 151 94 48 68
        E 7 94 3e 5a
        E 2 94 3f 67
        E 1 94 3f 67
        E 1620 84 48 00
        E 82 84 3f 00
        E 113 84 3e 00
        E 89 94 3f 67
        E 1 94 3e 59
        E 3 94 48 57
        E 9 94 3f 67
        E 169 84 3f 00
        E 1554 84 3e 00
        E 3 84 3f 00
        E 4 84 3f 00
        E 25 84 48 00
        E 155 94 3e 5e
        E 0 94 4a 5c
        E 4 94 3c 55
        E 17 94 3f 56
        E 1691 84 3f 00
        E 105 84 3e 00
        E 68 84 4a 00
        E 26 94 4b 60
        E 2 94 40 65
        E 7 94 40 65
        E 6 94 41 6f
        E 59 84 3c 00
        E 1662 84 40 00
        E 135 84 41 00
        E 38 84 40 00
        E 18 94 3e 72
        E 4 94 3e 72
        E 0 94 48 5a
        E 7 94 3e 59
        E 26 84 4b 00
        E 1639 84 3e 00
        E 40 84 3e 00
        E 59 84 3e 00
        E 85 84 48 00
        E 54 94 48 67
        E 15 94 3e 6a
        E 25 94 3e 4f
        E 1 94 41 5a
        E 1691 84 3e 00
        E 62 84 3e 00
        E 20 84 41 00
        E 83 84 48 00
        E 24 94 3e 49
        E 9 94 48 63
        E 7 94 3f 6a
        E 5 94 3f 6a
        E 1646 84 3e 00
        E 14 84 3f 00
        E 28 84 3f 00
        E 209 94 3f 61
        E 14 94 3f 61
        E 7 94 48 67
        E 9 94 3f 61
        E 124 84 48 00
        E 1545 84 3f 00
        E 50 84 3f 00
        E 95 84 48 00
        E 35 84 3f 00
        E 47 94 3e 52
        E 1 94 48 61
        E 3 94 3e 6b
        E 0 94 3e 6e
        E 1771 84 48 00
        E 34 84 3e 00
        E 117 94 3f 75
        E 1 94 48 65
        E 11 94 40 60
        E 7 94 3e 65
        E 4 84 3e 00
        E 6 84 3e 00
        E 1590 84 40 00
        E 50 84 3e 00
        E 26 84 48 00
        E 48 84 3f 00
        E 170 94 3e 5e
        E 3 94 48 55
        E 6 94 3e 63
        E 3 94 3f 6e
        E 1568 84 3e 00
        E 33 84 48 00
        E 129 84 3e 00
        E 112 84 3f 00
        E 61 94 3e 60
        E 5 94 48 68
        E 11 94 3f 52
        E 11 94 3e 60
        E 1718 84 3e 00
        E 82 84 3f 00
        E 39 84 48 00
        E 27 84 3e 00
        E 33 94 48 64
        E 7 94 3f 6e
        E 4 94 3e 6f
        E 17 94 3f 6e
        E 1546 84 3e 00
        E 210 84 3f 00
        E 17 84 48 00
        E 115 94 4b 6e
        E 4 94 43 63
        E 7 94 41 65
        E 5 94 41 65
        E 40 84 3f 00
        E 1652 84 43 00
        E 76 84 41 00
        E 32 84 4b 00
        E 1 84 41 00
        E 92 94 3e 68
        E 19 94 3f 4e
        E 7 94 47 67
        E 11 94 3f 6b
        E 1559 84 47 00
        E 172 84 3f 00
        E 44 84 3e 00
        E 105 84 3f 00
        E 20 94 48 5a
        E 8 94 3c 5c
        E 4 94 3f 6b
        E 10 94 3f 63
        E 1601 84 3f 00
        E 70 84 48 00
        E 143 84 3f 00
        E 73 94 4a 72
        E 16 94 40 6a
        E 10 94 40 6a
        E 20 94 3f 6b
        E 7 84 3c 00
        E 1633 84 40 00
        E 97 84 4a 00
        E 5 84 40 00
        E 41 84 3f 00
        E 94 94 48 77
        E 4 94 3f 68
        E 4 94 3e 55
        E 18 94 41 6b
        E 1630 84 3f 00
        E 141 84 3e 00
        E 24 84 48 00
        E 105 94 48 68
        E 4 94 3f 4c
        E 12 94 3f 4f
        E 14 94 3e 65
        E 32 84 41 00
        E 1597 84 3f 00
        E 80 84 3f 00
        E 64 84 48 00
        E 8 84 3e 00
        E 108 94 48 6e
        E 3 94 3e 6a
        E 5 94 3e 61
        E 11 94 3e 6a
        E 1564 84 3e 00
        E 116 84 3e 00
        E 24 84 3e 00
        E 73 84 48 00
        E 0 b4 7b 00
        E 1 ff 2f 00
      >
    >
  >
  <TRACK
    NAME "Horns"
    PEAKCOL 4290740026
    VOLPAN 1.000000 0 1 -1
    MIDIOUT -1
    ISBUS 0 0
    <ITEM
      POSITION 42.009164
      LENGTH 68.881221
      NAME "Horns"
      VOLPAN 1 0 1 -1
      <SOURCE MIDI
        HASDATA 1 960 QN
        E 0 c5 3c 00
        E 64526 95 31 27
        E 1881 85 31 00
        E 1948 95 33 29
        E 1951 85 33 00
        E 1911 95 26 1f
        E 1877 85 26 00
        E 1966 95 36 38
        E 1937 85 36 00
        E 1904 95 35 2d
        E 1907 85 35 00
        E 1917 95 26 2f
        E 1823 85 26 00
        E 2001 95 23 4f
        E 1942 95 2b 5a
        E 72 85 23 00
        E 1839 85 2b 00
        E 14 95 27 4f
        E 1877 85 27 00
        E 1950 95 2b 53
        E 1880 85 2b 00
        E 40 95 27 53
        E 1831 85 27 00
        E 91 95 1a 4b
        E 1947 85 1a 00
        E 1897 95 26 57
        E 1933 85 26 00
        E 3 95 2a 52
        E 1985 85 2a 00
        E 3754 95 33 4e
        E 1915 85 33 00
        E 3 95 30 5d
        E 1933 95 33 4f
        E 12 85 30 00
        E 1906 85 33 00
        E 1911 95 36 57
        E 1904 95 33 53
        E 51 85 36 00
        E 1841 85 33 00
        E 48 95 38 4f
        E 1958 85 38 00
        E 1880 95 30 45
        E 1917 95 37 50
        E 42 85 30 00
        E 1875 95 3c 56
        E 15 85 37 00
        E 1930 85 3c 00
        E 1902 95 38 48
        E 1877 85 38 00
        E 51 95 35 61
        E 1896 95 2b 57
        E 32 85 35 00
        E 1892 85 2b 00
        E 1925 95 37 55
        E 1910 95 38 55
        E 63 85 37 00
        E 1862 95 38 4c
        E 14 85 38 00
        E 1886 85 38 00
        E 1962 95 37 5a
        E 1902 95 37 5a
        E 88 85 37 00
        E 1802 85 37 00
        E 47 95 3c 55
        E 1896 85 3c 00
        E 1920 95 41 56
        E 1934 95 3e 4f
        E 20 85 41 00
        E 1905 95 41 55
        E 88 85 3e 00
        E 1816 85 41 00
        E 1913 95 3e 4f
        E 1930 95 39 55
        E 6 85 3e 00
        E 1932 85 39 00
        E 10 95 3b 4e
        E 1948 85 3b 00
        E 0 b5 7b 00
        E 1 ff 2f 00
      >
    >
  >
  <TRACK
    NAME "Harp"
    PEAKCOL 4290756410
    VOLPAN 1.000000 0 1 -1
    MIDIOUT -1
    ISBUS 0 0
    <ITEM
      POSITION 0.077234
      LENGTH 69.678348
      NAME "Harp"
      VOLPAN 1 0 1 -1
      <SOURCE MIDI
        HASDATA 1 960 QN
        E 0 c6 2e 00
        E 119 96 27 46
        E 245 96 31 48
        E 476 96 3f 30
        E 138 86 31 00
        E 102 96 3e 38
        E 119 96 42 46
        E 58 86 3f 00
        E 135 86 3e 00
        E 48 96 42 3d
        E 26 86 42 00
        E 92 96 3e 37
        E 49 86 42 00
        E 31 86 27 00
        E 42 86 3e 00
        E 242 96 26 5c
        E 355 96 32 48
        E 623 86 32 00
        E 520 86 26 00
        E 1499 96 40 41
        E 319 86 40 00
        E 42 96 45 3b
        E 169 86 45 00
        E 673 96 2f 55
        E 597 96 3b 41
        E 238 96 3f 3e
        E 125 86 3b 00
        E 141 86 3f 00
        E 458 86 2f 00
        E 241 96 28 49
        E 477 96 34 44
        E 455 86 34 00
        E 601 86 28 00
        E 744 96 31 4c
        E 359 96 36 3f
        E 142 86 31 00
        E 101 96 3d 46
        E 122 86 36 00
        E 148 86 3d 00
        E 209 96 45 26
        E 75 86 45 00
        E 1366 96 3e 30
        E 269 86 3e 00
        E 1288 96 37 37
        E 404 86 37 00
        E 1399 96 40 45
        E 238 96 48 38
        E 213 86 40 00
        E 147 96 3c 3f
        E 6 86 48 00
        E 215 86 3c 00
        E 501 96 2b 56
        E 1201 96 3c 38
        E 230 86 3c 00
        E 108 86 2b 00
        E 861 96 3b 3d
        E 116 96 41 3a
        E 365 96 44 3a
        E 26 86 3b 00
        E 68 86 41 00
        E 229 86 44 00
        E 397 96 25 30
        E 121 96 25 46
        E 475 96 31 3a
        E 125 96 32 46
        E 235 96 36 3e
        E 123 96 36 3f
        E 81 86 31 00
        E 67 86 32 00
        E 138 86 36 00
        E 71 96 40 41
        E 11 86 36 00
        E 72 86 25 00
        E 94 86 25 00
        E 47 86 40 00
        E 617 96 28 49
        E 121 96 2b 52
        E 483 96 34 3d
        E 117 96 38 3f
        E 120 96 33 3b
        E 170 86 34 00
        E 69 86 38 00
        E 80 86 33 00
        E 44 96 40 3f
        E 116 96 42 3a
        E 64 86 40 00
        E 61 86 42 00
        E 74 86 28 00
        E 81 86 2b 00
        E 201 96 26 4e
        E 123 96 26 42
        E 115 96 26 3b
        E 121 96 32 41
        E 118 96 33 4f
        E 121 96 32 4f
        E 122 96 37 41
        E 121 96 37 3f
        E 74 86 32 00
        E 68 86 33 00
        E 62 86 32 00
        E 94 86 37 00
        E 62 86 37 00
        E 365 86 26 00
        E 94 86 26 00
        E 16 96 47 34
        E 38 86 47 00
        E 84 96 24 4c
        E 7 86 26 00
        E 234 96 27 38
        E 362 96 33 30
        E 363 96 35 37
        E 115 96 3a 3f
        E 31 86 33 00
        E 90 96 3e 2f
        E 119 86 35 00
        E 2 96 39 3f
        E 71 86 3a 00
        E 79 86 3e 00
        E 69 86 24 00
        E 5 86 39 00
        E 137 96 3e 30
        E 79 86 3e 00
        E 30 86 27 00
        E 129 96 27 4c
        E 482 96 2e 46
        E 117 96 32 45
        E 123 96 34 3f
        E 238 96 33 33
        E 80 86 2e 00
        E 41 96 3c 3d
        E 33 86 32 00
        E 71 86 34 00
        E 141 86 33 00
        E 75 86 3c 00
        E 36 96 40 26
        E 63 86 27 00
        E 57 96 45 33
        E 55 86 40 00
        E 67 96 47 41
        E 6 86 45 00
        E 70 86 47 00
        E 45 96 45 3b
        E 37 86 45 00
        E 444 96 25 3f
        E 119 96 33 3f
        E 237 96 2e 3b
        E 244 96 33 30
        E 97 86 33 00
        E 113 86 2e 00
        E 148 86 33 00
        E 4 96 3d 42
        E 118 96 3f 34
        E 102 86 3d 00
        E 69 86 3f 00
        E 188 96 45 3f
        E 39 86 45 00
        E 61 86 25 00
        E 257 96 29 50
        E 124 96 2a 49
        E 240 96 31 3e
        E 242 96 36 38
        E 119 96 37 38
        E 132 86 31 00
        E 158 86 36 00
        E 70 96 3e 45
        E 8 86 37 00
        E 216 86 3e 00
        E 14 96 42 31
        E 125 86 42 00
        E 103 86 29 00
        E 13 96 43 31
        E 38 86 43 00
        E 82 86 2a 00
        E 237 96 25 46
        E 244 96 31 3a
        E 235 96 33 29
        E 241 96 36 3a
        E 83 86 31 00
        E 38 96 3c 34
        E 95 86 33 00
        E 151 86 36 00
        E 72 86 3c 00
        E 42 96 3f 30
        E 121 96 43 29
        E 51 86 3f 00
        E 69 96 49 3a
        E 3 86 43 00
        E 75 86 49 00
        E 7 86 25 00
        E 33 96 45 34
        E 37 86 45 00
        E 208 96 1c 3f
        E 118 96 26 3e
        E 117 96 27 3b
        E 122 96 30 36
        E 358 96 36 37
        E 196 86 30 00
        E 46 96 40 34
        E 169 86 36 00
        E 152 86 40 00
        E 160 96 46 3b
        E 115 86 1c 00
        E 5 86 46 00
        E 104 86 26 00
        E 87 86 27 00
        E 166 96 25 53
        E 123 96 27 49
        E 118 96 31 4c
        E 479 96 34 3e
        E 121 96 36 3a
        E 118 96 3f 37
        E 178 86 34 00
        E 60 86 36 00
        E 4 96 42 3b
        E 69 86 3f 00
        E 162 86 42 00
        E 11 96 43 38
        E 114 86 25 00
        E 4 96 4a 3f
        E 6 86 43 00
        E 70 86 4a 00
        E 24 86 27 00
        E 121 86 31 00
        E 21 96 25 53
        E 720 96 35 49
        E 117 96 3a 45
        E 344 86 35 00
        E 69 86 3a 00
        E 287 86 25 00
        E 1340 96 3f 1e
        E 245 96 43 27
        E 116 96 4a 1e
        E 10 86 3f 00
        E 108 96 44 23
        E 31 86 43 00
        E 74 86 4a 00
        E 17 96 3d 1f
        E 53 86 44 00
        E 74 86 3d 00
        E 237 96 25 3a
        E 118 96 23 4b
        E 359 96 30 30
        E 241 96 35 38
        E 119 96 35 41
        E 122 96 34 23
        E 66 86 30 00
        E 50 96 37 2c
        E 90 86 35 00
        E 34 96 3e 2a
        E 49 86 35 00
        E 82 86 34 00
        E 63 86 37 00
        E 73 86 3e 00
        E 65 86 25 00
        E 103 86 23 00
        E 45 96 45 26
        E 79 86 45 00
        E 39 96 47 26
        E 40 86 47 00
        E 78 96 26 49
        E 362 96 33 3b
        E 121 96 30 33
        E 236 96 34 3a
        E 125 96 34 2a
        E 116 96 34 30
        E 74 86 30 00
        E 50 96 3c 33
        E 83 86 34 00
        E 98 86 34 00
        E 55 86 34 00
        E 88 86 3c 00
        E 141 86 26 00
        E 14 96 3e 1f
        E 126 86 3e 00
        E 207 86 33 00
        E 24 96 26 4c
        E 483 96 31 2f
        E 240 96 34 30
        E 240 96 33 38
        E 75 86 31 00
        E 142 86 34 00
        E 141 96 3e 1f
        E 10 86 33 00
        E 212 86 3e 00
        E 7 86 26 00
        E 972 96 27 1b
        E 119 96 33 12
        E 362 96 3c 1f
        E 20 86 27 00
        E 81 86 33 00
        E 17 96 3e 2d
        E 207 86 3c 00
        E 35 96 43 1b
        E 25 86 3e 00
        E 95 96 3e 30
        E 56 86 43 00
        E 64 96 4a 20
        E 3 86 3e 00
        E 73 86 4a 00
        E 164 96 24 41
        E 357 96 26 37
        E 242 96 31 34
        E 360 96 34 30
        E 118 96 38 22
        E 27 86 31 00
        E 216 96 3a 26
        E 14 86 34 00
        E 52 86 38 00
        E 160 86 3a 00
        E 28 86 24 00
        E 282 86 26 00
        E 301 96 1d 2f
        E 244 96 34 26
        E 119 96 2f 36
        E 117 96 29 3b
        E 310 86 34 00
        E 71 86 2f 00
        E 83 86 29 00
        E 257 96 3f 2a
        E 122 96 44 29
        E 49 86 3f 00
        E 67 96 46 2f
        E 5 86 44 00
        E 72 86 46 00
        E 4 86 1d 00
        E 405 96 27 33
        E 119 96 34 36
        E 357 96 35 34
        E 119 96 3f 29
        E 122 96 40 2c
        E 9 86 34 00
        E 197 86 35 00
        E 36 96 3e 1f
        E 49 86 3f 00
        E 70 96 47 27
        E 5 86 40 00
        E 112 96 3f 29
        E 32 86 3e 00
        E 76 86 47 00
        E 61 86 3f 00
        E 74 96 3f 25
        E 73 86 3f 00
        E 48 96 3c 1f
        E 12 86 27 00
        E 27 86 3c 00
        E 440 96 26 31
        E 238 96 32 30
        E 121 96 2d 1e
        E 122 96 34 26
        E 116 96 3f 2c
        E 125 96 3e 31
        E 13 86 32 00
        E 87 86 2d 00
        E 78 86 34 00
        E 60 96 38 1f
        E 2 86 3f 00
        E 69 86 3e 00
        E 49 96 3c 22
        E 97 86 38 00
        E 20 96 4b 1c
        E 57 86 3c 00
        E 67 86 4b 00
        E 236 96 1a 3e
        E 33 86 26 00
        E 211 96 27 2f
        E 239 96 30 3b
        E 121 96 33 1e
        E 116 96 33 30
        E 120 96 36 1f
        E 204 86 30 00
        E 40 96 3c 26
        E 10 86 33 00
        E 78 86 33 00
        E 76 86 36 00
        E 154 86 3c 00
        E 93 86 1a 00
        E 64 96 3f 22
        E 123 86 3f 00
        E 85 86 27 00
        E 33 96 47 34
        E 39 86 47 00
        E 85 96 27 4c
        E 237 96 24 3d
        E 241 96 30 38
        E 122 96 32 2d
        E 239 96 35 3f
        E 120 96 34 19
        E 76 86 30 00
        E 79 86 32 00
        E 85 96 3e 31
        E 58 86 35 00
        E 74 86 34 00
        E 108 96 40 33
        E 23 86 3e 00
        E 21 86 27 00
        E 76 96 3e 27
        E 44 86 40 00
        E 78 96 47 33
        E 4 86 3e 00
        E 74 86 47 00
        E 26 86 24 00
        E 14 96 45 36
        E 38 86 45 00
        E 203 96 26 3f
        E 119 96 26 42
        E 238 96 31 33
        E 124 96 32 31
        E 116 96 37 33
        E 119 96 39 33
        E 214 86 31 00
        E 29 96 3e 1f
        E 23 86 32 00
        E 87 86 37 00
        E 55 86 39 00
        E 76 96 42 25
        E 76 86 3e 00
        E 140 86 42 00
        E 22 96 44 1f
        E 103 86 26 00
        E 19 96 48 2d
        E 2 86 44 00
        E 77 86 48 00
        E 17 86 26 00
        E 23 96 47 2c
        E 39 86 47 00
        E 199 96 26 45
        E 362 96 32 1f
        E 118 96 26 27
        E 239 96 32 1b
        E 119 96 35 26
        E 73 86 32 00
        E 49 96 3d 19
        E 36 86 26 00
        E 139 86 32 00
        E 65 86 35 00
        E 4 96 3e 19
        E 77 86 3d 00
        E 139 86 3e 00
        E 20 96 45 2a
        E 77 86 26 00
        E 46 96 4c 25
        E 3 86 45 00
        E 73 86 4c 00
        E 162 96 26 41
        E 119 96 20 3f
        E 243 96 20 38
        E 117 96 31 3a
        E 244 96 26 2a
        E 116 96 33 26
        E 123 96 34 1e
        E 79 86 31 00
        E 40 96 3d 22
        E 106 86 26 00
        E 77 86 33 00
        E 64 86 34 00
        E 77 86 3d 00
        E 133 86 26 00
        E 127 86 20 00
        E 134 96 47 31
        E 38 86 47 00
        E 84 96 1a 45
        E 32 86 20 00
        E 87 96 26 44
        E 120 96 25 3d
        E 121 96 26 30
        E 121 96 30 2d
        E 119 96 25 2f
        E 116 96 32 2f
        E 244 96 38 25
        E 80 86 30 00
        E 42 96 3d 15
        E 8 86 25 00
        E 86 86 32 00
        E 141 96 41 29
        E 12 86 38 00
        E 72 86 3d 00
        E 107 86 1a 00
        E 28 86 41 00
        E 24 96 3f 30
        E 97 86 26 00
        E 24 96 49 2d
        E 5 86 3f 00
        E 61 86 25 00
        E 11 86 49 00
        E 163 86 26 00
        E 120 96 27 42
        E 118 96 24 3e
        E 120 96 27 3f
        E 122 96 30 33
        E 120 96 33 33
        E 117 96 33 34
        E 311 86 30 00
        E 78 86 33 00
        E 76 86 33 00
        E 256 96 42 33
        E 118 96 40 23
        E 55 86 42 00
        E 43 86 27 00
        E 23 96 48 22
        E 4 86 40 00
        E 70 86 24 00
        E 3 86 48 00
        E 44 96 47 2c
        E 38 86 47 00
        E 73 86 27 00
        E 130 96 27 3e
        E 121 96 25 3a
        E 240 96 35 33
        E 238 96 28 26
        E 339 86 35 00
        E 113 86 28 00
        E 507 86 27 00
        E 115 86 25 00
        E 605 96 23 4c
        E 123 96 32 50
        E 235 96 30 4b
        E 124 96 35 33
        E 118 96 34 2c
        E 31 86 32 00
        E 91 96 3b 57
        E 47 86 30 00
        E 72 96 3b 49
        E 11 86 35 00
        E 62 86 34 00
        E 78 86 3b 00
        E 73 86 3b 00
        E 14 96 44 3e
        E 123 96 41 45
        E 4 86 44 00
        E 74 86 41 00
        E 40 96 43 45
        E 38 86 43 00
        E 81 96 26 64
        E 131 86 23 00
        E 230 96 2a 56
        E 122 96 36 50
        E 119 96 3e 49
        E 119 96 34 57
        E 118 96 41 46
        E 126 96 41 2c
        E 2 86 2a 00
        E 68 86 36 00
        E 46 96 41 2d
        E 20 86 3e 00
        E 77 86 34 00
        E 22 96 38 30
        E 47 86 41 00
        E 64 86 41 00
        E 11 96 3d 45
        E 84 86 41 00
        E 38 96 36 4b
        E 23 86 38 00
        E 54 86 26 00
        E 21 86 3d 00
        E 18 96 32 45
        E 56 86 36 00
        E 69 86 32 00
        E 114 96 25 59
        E 124 96 2a 5a
        E 117 96 2a 65
        E 123 96 31 53
        E 121 96 37 4e
        E 119 96 37 53
        E 121 96 3d 57
        E 117 96 42 45
        E 122 96 43 53
        E 47 86 31 00
        E 74 96 43 2c
        E 14 86 37 00
        E 78 86 37 00
        E 28 96 42 2c
        E 25 86 3d 00
        E 74 86 42 00
        E 20 96 40 49
        E 54 86 43 00
        E 66 96 3b 42
        E 17 86 43 00
        E 61 86 42 00
        E 9 86 25 00
        E 29 96 34 38
        E 26 86 40 00
        E 20 86 2a 00
        E 59 86 3b 00
        E 18 96 34 46
        E 47 86 34 00
        E 34 86 2a 00
        E 39 96 31 3b
        E 7 86 34 00
        E 71 86 31 00
        E 163 96 26 50
        E 117 96 25 50
        E 120 96 27 4c
        E 123 96 31 45
        E 356 96 33 3e
        E 242 96 3e 2d
        E 1 86 31 00
        E 117 96 41 2c
        E 92 86 33 00
        E 156 86 3e 00
        E 66 86 41 00
        E 51 96 3f 41
        E 116 96 44 3f
        E 1 86 26 00
        E 60 86 3f 00
        E 18 86 25 00
        E 45 96 3e 3a
        E 1 86 44 00
        E 62 86 27 00
        E 15 86 3e 00
        E 40 96 3c 42
        E 38 86 3c 00
        E 83 96 26 53
        E 120 96 2b 55
        E 117 96 25 49
        E 244 96 32 46
        E 357 96 36 4c
        E 178 86 32 00
        E 61 96 3e 23
        E 120 96 43 2f
        E 54 86 36 00
        E 68 96 47 4c
        E 69 86 3e 00
        E 52 96 4b 49
        E 27 86 43 00
        E 22 86 26 00
        E 51 86 47 00
        E 17 96 40 4f
        E 59 86 4b 00
        E 47 86 2b 00
        E 17 86 40 00
        E 0 96 3e 3e
        E 79 86 3e 00
        E 39 96 3c 44
        E 10 86 25 00
        E 28 86 3c 00
        E 82 96 26 64
        E 121 96 2b 5e
        E 119 96 28 60
        E 119 96 27 53
        E 241 96 32 52
        E 118 96 32 45
        E 361 96 3c 38
        E 23 86 32 00
        E 81 86 32 00
        E 19 96 3f 46
        E 119 96 40 48
        E 72 86 3c 00
        E 46 96 44 46
        E 30 86 3f 00
        E 73 86 40 00
        E 33 86 26 00
        E 39 86 44 00
        E 63 86 2b 00
        E 97 86 28 00
        E 126 86 27 00
        E 502 96 31 3b
        E 121 96 32 42
        E 439 86 31 00
        E 57 86 32 00
        E 584 96 49 31
        E 78 86 49 00
        E 639 96 29 50
        E 239 96 3e 4b
        E 240 96 40 45
        E 75 86 29 00
        E 150 86 3e 00
        E 139 86 40 00
        E 1679 96 3c 4b
        E 310 86 3c 00
        E 172 96 43 46
        E 124 86 43 00
        E 112 96 47 44
        E 38 86 47 00
        E 440 96 2e 53
        E 124 96 31 53
        E 241 96 37 53
        E 327 86 31 00
        E 135 86 37 00
        E 374 96 3f 34
        E 125 86 3f 00
        E 117 96 47 29
        E 38 86 47 00
        E 32 86 2e 00
        E 652 96 32 4e
        E 478 96 45 3d
        E 32 86 32 00
        E 89 96 38 46
        E 198 86 45 00
        E 67 86 38 00
        E 457 96 26 48
        E 715 96 33 4b
        E 441 86 33 00
        E 160 96 47 46
        E 199 86 26 00
        E 32 86 47 00
        E 8 96 42 46
        E 121 86 42 00
        E 1562 96 3f 42
        E 214 86 3f 00
        E 625 96 26 57
        E 121 96 2a 5a
        E 719 96 37 49
        E 118 96 37 3e
        E 200 86 37 00
        E 73 86 37 00
        E 315 86 26 00
        E 69 86 2a 00
        E 183 96 2a 50
        E 121 96 2a 50
        E 600 96 35 30
        E 405 86 35 00
        E 319 96 40 36
        E 121 86 2a 00
        E 4 86 40 00
        E 122 86 2a 00
        E 830 96 3f 46
        E 361 96 43 41
        E 106 86 3f 00
        E 218 86 43 00
        E 273 96 30 48
        E 78 86 30 00
        E 44 96 24 50
        E 1511 86 24 00
        E 0 b6 7b 00
        E 1 ff 2f 00
      >
    >
  >
  <TRACK
    NAME "Glock"
    PEAKCOL 4290756410
    VOLPAN 1.000000 0 1 -1
    MIDIOUT -1
    ISBUS 0 0
    <ITEM
      POSITION 5.312182
      LENGTH 67.787502
      NAME "Glock"
      VOLPAN 1 0 1 -1
      <SOURCE MIDI
        HASDATA 1 960 QN
        E 0 c7 09 00
        E 8160 97 68 42
        E 285 87 68 00
        E 675 97 65 3b
        E 290 87 65 00
        E 3549 97 69 44
        E 291 87 69 00
        E 672 97 69 4c
        E 289 87 69 00
        E 186 97 6a 48
        E 293 87 6a 00
        E 670 97 69 44
        E 287 87 69 00
        E 194 97 69 3d
        E 295 87 69 00
        E 1146 97 65 49
        E 287 87 65 00
        E 1152 97 68 3b
        E 290 87 68 00
        E 1626 97 69 3e
        E 283 87 69 00
        E 2123 97 69 4b
        E 294 87 69 00
        E 178 97 69 4f
        E 289 87 69 00
        E 678 97 6a 44
        E 295 87 6a 00
        E 2102 97 69 4e
        E 288 87 69 00
        E 670 97 67 3f
        E 292 87 67 00
        E 191 97 60 37
        E 291 87 60 00
        E 3068 97 68 44
        E 292 87 68 00
        E 1150 97 68 48
        E 287 87 68 00
        E 196 97 67 45
        E 290 87 67 00
        E 3066 97 63 36
        E 290 87 63 00
        E 670 97 68 41
        E 286 87 68 00
        E 187 97 63 33
        E 285 87 63 00
        E 203 97 68 48
        E 294 87 68 00
        E 184 97 69 4b
        E 290 87 69 00
        E 187 97 6a 4c
        E 289 87 6a 00
        E 675 97 69 4b
        E 297 87 69 00
        E 175 97 67 45
        E 288 87 67 00
        E 1640 97 63 29
        E 286 87 63 00
        E 1638 97 65 31
        E 284 87 65 00
        E 191 97 64 34
        E 287 87 64 00
        E 673 97 60 29
        E 290 87 60 00
        E 187 97 60 36
        E 283 87 60 00
        E 202 97 63 38
        E 289 87 63 00
        E 3554 97 65 3b
        E 288 87 65 00
        E 189 97 65 37
        E 289 87 65 00
        E 190 97 6e 3e
        E 295 87 6e 00
        E 664 97 65 3a
        E 286 87 65 00
        E 195 97 65 30
        E 292 87 65 00
        E 184 97 60 3b
        E 286 87 60 00
        E 684 97 64 3f
        E 291 87 64 00
        E 186 97 63 3e
        E 289 87 63 00
        E 184 97 61 2d
        E 287 87 61 00
        E 682 97 63 34
        E 287 87 63 00
        E 666 97 66 3b
        E 288 87 66 00
        E 1154 97 66 37
        E 282 87 66 00
        E 206 97 68 36
        E 286 87 68 00
        E 186 97 62 37
        E 283 87 62 00
        E 198 97 63 38
        E 290 87 63 00
        E 1630 97 63 37
        E 286 87 63 00
        E 197 97 6e 3e
        E 291 87 6e 00
        E 1146 97 69 30
        E 286 87 69 00
        E 193 97 63 30
        E 290 87 63 00
        E 1151 97 63 2f
        E 294 87 63 00
        E 2587 97 6e 33
        E 290 87 6e 00
        E 665 97 6f 3d
        E 282 87 6f 00
        E 194 97 62 3b
        E 289 87 62 00
        E 681 97 64 26
        E 287 87 64 00
        E 188 97 64 3b
        E 290 87 64 00
        E 186 97 62 3f
        E 289 87 62 00
        E 194 97 66 38
        E 287 87 66 00
        E 2116 97 65 2f
        E 291 87 65 00
        E 191 97 64 36
        E 288 87 64 00
        E 1151 97 63 36
        E 288 87 63 00
        E 674 97 63 4e
        E 293 87 63 00
        E 183 97 67 4f
        E 286 87 67 00
        E 678 97 63 53
        E 288 87 63 00
        E 186 97 63 50
        E 285 87 63 00
        E 193 97 66 4f
        E 292 87 66 00
        E 197 97 64 3a
        E 285 87 64 00
        E 191 97 62 50
        E 289 87 62 00
        E 192 97 67 53
        E 292 87 67 00
        E 187 97 61 48
        E 287 87 61 00
        E 676 97 62 48
        E 288 87 62 00
        E 187 97 63 38
        E 293 87 63 00
        E 188 97 61 52
        E 281 87 61 00
        E 200 97 64 53
        E 294 87 64 00
        E 189 97 63 44
        E 284 87 63 00
        E 2596 97 68 57
        E 290 87 68 00
        E 188 97 63 56
        E 280 87 63 00
        E 6437 97 63 4c
        E 283 87 63 00
        E 200 97 6d 4f
        E 290 87 6d 00
        E 672 97 6f 53
        E 292 87 6f 00
        E 188 97 67 4e
        E 286 87 67 00
        E 2592 97 63 45
        E 293 87 63 00
        E 2102 97 66 4b
        E 285 87 66 00
        E 677 97 62 46
        E 286 87 62 00
        E 5474 97 65 49
        E 295 87 65 00
        E 187 97 67 4e
        E 286 87 67 00
        E 1158 97 61 48
        E 284 87 61 00
        E 0 b7 7b 00
        E 1 ff 2f 00
      >
    >
  >
  <TRACK
    NAME "Bass"
    PEAKCOL 4286528191
    VOLPAN 1.000000 0 1 -1
    MIDIOUT -1
    ISBUS 0 0
    <ITEM
      POSITION 0.001184
      LENGTH 70.042510
      NAME "Bass"
      VOLPAN 1 0 1 -1
      <SOURCE MIDI
        HASDATA 1 960 QN
        E 0 c8 2b 00
        E 2 98 24 5c
        E 862 88 24 00
        E 96 98 29 5d
        E 862 88 29 00
        E 100 98 26 56
        E 873 88 26 00
        E 89 98 23 50
        E 856 88 23 00
        E 105 98 24 5c
        E 868 88 24 00
        E 94 98 1f 5c
        E 857 88 1f 00
        E 97 98 25 50
        E 862 88 25 00
        E 102 98 20 53
        E 856 88 20 00
        E 102 98 25 56
        E 860 88 25 00
        E 100 98 20 57
        E 855 88 20 00
        E 103 98 25 50
        E 876 88 25 00
        E 87 98 28 57
        E 876 88 28 00
        E 85 98 26 5a
        E 881 88 26 00
        E 71 98 28 5c
        E 862 88 28 00
        E 101 98 24 63
        E 874 88 24 00
        E 85 98 26 5a
        E 860 88 26 00
        E 99 98 25 4b
        E 872 88 25 00
        E 90 98 24 57
        E 832 88 24 00
        E 129 98 24 59
        E 883 88 24 00
        E 82 98 24 53
        E 862 88 24 00
        E 88 98 24 55
        E 869 88 24 00
        E 100 98 26 59
        E 869 88 26 00
        E 81 98 24 60
        E 861 88 24 00
        E 101 98 27 55
        E 875 88 27 00
        E 96 98 24 4f
        E 878 88 24 00
        E 86 98 2a 56
        E 872 88 2a 00
        E 77 98 25 5a
        E 860 88 25 00
        E 101 98 24 59
        E 849 88 24 00
        E 106 98 24 5c
        E 856 88 24 00
        E 111 98 26 59
        E 868 88 26 00
        E 91 98 24 65
        E 874 88 24 00
        E 85 98 24 57
        E 861 88 24 00
        E 97 98 24 59
        E 879 88 24 00
        E 83 98 1d 52
        E 860 88 1d 00
        E 96 98 1c 60
        E 873 88 1c 00
        E 88 98 1b 59
        E 866 88 1b 00
        E 101 98 19 5c
        E 862 88 19 00
        E 88 98 1e 59
        E 866 88 1e 00
        E 100 98 25 60
        E 857 88 25 00
        E 101 98 25 63
        E 846 88 25 00
        E 118 98 24 60
        E 873 88 24 00
        E 85 98 24 4b
        E 874 88 24 00
        E 80 98 23 53
        E 870 88 23 00
        E 92 98 25 50
        E 858 88 25 00
        E 107 98 25 5e
        E 851 88 25 00
        E 111 98 1a 3b
        E 882 88 1a 00
        E 79 98 25 49
        E 854 88 25 00
        E 108 98 20 3a
        E 856 88 20 00
        E 100 98 2b 53
        E 879 88 2b 00
        E 79 98 20 3d
        E 878 88 20 00
        E 82 98 24 45
        E 874 88 24 00
        E 83 98 20 42
        E 861 88 20 00
        E 103 98 24 4b
        E 857 88 24 00
        E 96 98 27 42
        E 874 88 27 00
        E 90 98 26 57
        E 859 88 26 00
        E 102 98 1d 4c
        E 876 88 1d 00
        E 83 98 1e 34
        E 859 88 1e 00
        E 101 98 1d 45
        E 875 88 1d 00
        E 87 98 19 3e
        E 846 88 19 00
        E 113 98 19 49
        E 877 88 19 00
        E 86 98 24 4b
        E 866 88 24 00
        E 90 98 27 42
        E 865 88 27 00
        E 98 98 24 49
        E 848 88 24 00
        E 102 98 24 38
        E 866 88 24 00
        E 99 98 25 59
        E 876 88 25 00
        E 87 98 1d 46
        E 877 88 1d 00
        E 83 98 24 4b
        E 865 88 24 00
        E 91 98 26 44
        E 866 88 26 00
        E 100 98 25 42
        E 849 88 25 00
        E 110 98 20 2d
        E 867 88 20 00
        E 88 98 25 4b
        E 848 88 25 00
        E 114 98 1f 4f
        E 868 88 1f 00
        E 98 98 25 49
        E 865 88 25 00
        E 93 98 26 2f
        E 853 88 26 00
        E 104 98 1f 49
        E 858 88 1f 00
        E 106 98 1b 27
        E 870 88 1b 00
        E 91 98 25 49
        E 861 88 25 00
        E 95 98 25 2c
        E 865 88 25 00
        E 94 98 25 4c
        E 865 88 25 00
        E 98 98 24 44
        E 858 88 24 00
        E 103 98 25 64
        E 863 88 25 00
        E 95 98 26 44
        E 853 88 26 00
        E 105 98 24 68
        E 860 88 24 00
        E 102 98 27 3d
        E 874 88 27 00
        E 83 98 26 5e
        E 867 88 26 00
        E 101 98 1c 46
        E 868 88 1c 00
        E 81 98 25 61
        E 867 88 25 00
        E 100 98 1f 3d
        E 863 88 1f 00
        E 93 98 24 6e
        E 848 88 24 00
        E 114 98 26 4b
        E 855 88 26 00
        E 105 98 24 6b
        E 873 88 24 00
        E 85 98 19 67
        E 863 88 19 00
        E 96 98 24 5a
        E 889 88 24 00
        E 79 98 1f 57
        E 870 88 1f 00
        E 88 98 25 5e
        E 873 88 25 00
        E 80 98 25 59
        E 858 88 25 00
        E 101 98 25 67
        E 882 88 25 00
        E 76 98 27 67
        E 874 88 27 00
        E 93 98 26 61
        E 854 88 26 00
        E 101 98 27 6e
        E 860 88 27 00
        E 104 98 24 6a
        E 869 88 24 00
        E 94 98 1f 67
        E 872 88 1f 00
        E 88 98 20 53
        E 862 88 20 00
        E 100 98 24 67
        E 875 88 24 00
        E 86 98 26 63
        E 879 88 26 00
        E 76 98 2a 60
        E 851 88 2a 00
        E 119 98 30 5e
        E 856 88 30 00
        E 93 98 2b 63
        E 863 88 2b 00
        E 100 98 30 61
        E 858 88 30 00
        E 95 98 2c 63
        E 872 88 2c 00
        E 90 98 2f 61
        E 856 88 2f 00
        E 107 98 32 60
        E 873 88 32 00
        E 0 b8 7b 00
        E 1 ff 2f 00
      >
    >
  >
  <TRACK
    NAME "Pedal"
    PEAKCOL 4284506208
    VOLPAN 1.000000 0 1 -1
    MIDIOUT -1
    ISBUS 0 0
    <ITEM
      POSITION 0.002751
      LENGTH 70.097836
      NAME "Pedal"
      VOLPAN 1 0 1 -1
      <SOURCE MIDI
        HASDATA 1 960 QN
        E 0 ca 2b 00
        E 4 9a 18 42
        E 3784 8a 18 00
        E 58 9a 19 3e
        E 3825 8a 19 00
        E 8 9a 17 44
        E 3816 8a 17 00
        E 26 9a 18 46
        E 3832 8a 18 00
        E 5 9a 19 3e
        E 3780 8a 19 00
        E 62 9a 18 3b
        E 3787 8a 18 00
        E 55 9a 18 3f
        E 3839 9a 18 45
        E 38 8a 18 00
        E 3763 8a 18 00
        E 37 9a 19 44
        E 3819 8a 19 00
        E 22 9a 19 41
        E 3842 9a 19 3e
        E 34 8a 19 00
        E 3806 9a 18 44
        E 8 8a 19 00
        E 3797 8a 18 00
        E 32 9a 19 34
        E 3842 9a 18 2f
        E 2 8a 19 00
        E 3842 9a 0d 22
        E 33 8a 18 00
        E 3805 8a 0d 00
        E 0 9a 18 33
        E 3822 8a 18 00
        E 15 9a 19 2d
        E 3837 9a 12 31
        E 23 8a 19 00
        E 3819 9a 0b 2c
        E 16 8a 12 00
        E 3808 8a 0b 00
        E 18 9a 18 33
        E 3836 9a 19 4c
        E 11 8a 18 00
        E 3833 8a 19 00
        E 7 9a 18 4f
        E 3787 8a 18 00
        E 44 9a 18 4f
        E 3804 8a 18 00
        E 36 9a 18 50
        E 3808 8a 18 00
        E 36 9a 19 4b
        E 3837 9a 17 4e
        E 43 8a 19 00
        E 3797 8a 17 00
        E 1 9a 18 49
        E 3833 9a 0c 44
        E 5 8a 18 00
        E 3842 8a 0c 00
        E 0 ba 7b 00
        E 1 ff 2f 00
      >
    >
  >
  <TRACK
    NAME "Timpani"
    PEAKCOL 4290722362
    VOLPAN 1.000000 0 1 -1
    MIDIOUT -1
    ISBUS 0 0
    <ITEM
      POSITION 27.999948
      LENGTH 70.083942
      NAME "Timpani"
      VOLPAN 1 0 1 -1
      <SOURCE MIDI
        HASDATA 1 960 QN
        E 0 cb 2f 00
        E 43008 9b 25 34
        E 96 8b 25 00
        E 24 9b 24 37
        E 95 8b 24 00
        E 144 9b 24 42
        E 96 8b 24 00
        E 146 9b 24 55
        E 97 8b 24 00
        E 382 9b 24 5c
        E 95 8b 24 00
        E 25 9b 24 4f
        E 96 8b 24 00
        E 264 9b 24 53
        E 97 8b 24 00
        E 263 9b 24 3a
        E 97 8b 24 00
        E 263 9b 25 45
        E 97 8b 25 00
        E 144 9b 26 68
        E 95 8b 26 00
        E 384 9b 25 5e
        E 95 8b 25 00
        E 145 9b 25 44
        E 97 8b 25 00
        E 143 9b 24 4b
        E 97 8b 24 00
        E 23 9b 26 61
        E 96 8b 26 00
        E 24 9b 26 60
        E 96 8b 26 00
        E 24 9b 1f 45
        E 95 8b 1f 00
        E 25 9b 25 48
        E 97 8b 25 00
        E 143 9b 25 5e
        E 95 8b 25 00
        E 385 9b 24 61
        E 96 8b 24 00
        E 264 9b 25 46
        E 96 8b 25 00
        E 24 9b 24 53
        E 95 8b 24 00
        E 24 9b 24 57
        E 96 8b 24 00
        E 26 9b 25 49
        E 96 8b 25 00
        E 23 9b 24 55
        E 96 8b 24 00
        E 144 9b 24 36
        E 95 8b 24 00
        E 745 9b 25 52
        E 97 8b 25 00
        E 23 9b 25 5a
        E 95 8b 25 00
        E 504 9b 25 59
        E 97 8b 25 00
        E 144 9b 24 34
        E 97 8b 24 00
        E 143 9b 25 4b
        E 95 8b 25 00
        E 145 9b 24 50
        E 97 8b 24 00
        E 263 9b 24 60
        E 97 8b 24 00
        E 23 9b 26 57
        E 96 8b 26 00
        E 24 9b 26 5c
        E 95 8b 26 00
        E 24 9b 25 63
        E 95 8b 25 00
        E 26 9b 26 56
        E 95 8b 26 00
        E 25 9b 25 50
        E 95 8b 25 00
        E 145 9b 26 59
        E 97 8b 26 00
        E 502 9b 26 59
        E 96 8b 26 00
        E 25 9b 26 49
        E 96 8b 26 00
        E 143 9b 26 5d
        E 96 8b 26 00
        E 25 9b 25 4b
        E 95 8b 25 00
        E 25 9b 26 59
        E 97 8b 26 00
        E 23 9b 26 5e
        E 96 8b 26 00
        E 24 9b 26 5d
        E 97 8b 26 00
        E 23 9b 27 3b
        E 96 8b 27 00
        E 24 9b 26 36
        E 96 8b 26 00
        E 144 9b 26 60
        E 95 8b 26 00
        E 145 9b 24 59
        E 94 8b 24 00
        E 26 9b 22 41
        E 97 8b 22 00
        E 143 9b 25 3d
        E 97 8b 25 00
        E 143 9b 26 59
        E 95 8b 26 00
        E 25 9b 25 5a
        E 95 8b 25 00
        E 25 9b 25 5a
        E 97 8b 25 00
        E 23 9b 25 5d
        E 97 8b 25 00
        E 23 9b 24 52
        E 96 8b 24 00
        E 144 9b 26 6a
        E 96 8b 26 00
        E 144 9b 25 63
        E 96 8b 25 00
        E 23 9b 24 48
        E 95 8b 24 00
        E 26 9b 25 53
        E 96 8b 25 00
        E 24 9b 24 3e
        E 96 8b 24 00
        E 264 9b 25 50
        E 97 8b 25 00
        E 23 9b 25 4f
        E 96 8b 25 00
        E 144 9b 25 4b
        E 97 8b 25 00
        E 382 9b 25 5c
        E 96 8b 25 00
        E 24 9b 24 49
        E 96 8b 24 00
        E 145 9b 24 45
        E 97 8b 24 00
        E 143 9b 24 42
        E 96 8b 24 00
        E 25 9b 24 33
        E 96 8b 24 00
        E 143 9b 24 4e
        E 97 8b 24 00
        E 263 9b 24 45
        E 96 8b 24 00
        E 144 9b 25 57
        E 96 8b 25 00
        E 144 9b 24 48
        E 95 8b 24 00
        E 265 9b 24 60
        E 97 8b 24 00
        E 23 9b 23 59
        E 96 8b 23 00
        E 23 9b 24 6b
        E 97 8b 24 00
        E 24 9b 25 48
        E 95 8b 25 00
        E 25 9b 25 55
        E 96 8b 25 00
        E 24 9b 25 3b
        E 96 8b 25 00
        E 24 9b 24 46
        E 95 8b 24 00
        E 25 9b 24 59
        E 96 8b 24 00
        E 144 9b 24 4e
        E 95 8b 24 00
        E 25 9b 24 45
        E 96 8b 24 00
        E 144 9b 24 53
        E 95 8b 24 00
        E 264 9b 24 65
        E 96 8b 24 00
        E 25 9b 24 5d
        E 94 8b 24 00
        E 146 9b 24 5e
        E 96 8b 24 00
        E 144 9b 25 3a
        E 97 8b 25 00
        E 142 9b 1d 44
        E 96 8b 1d 00
        E 745 9b 24 68
        E 98 8b 24 00
        E 22 9b 25 57
        E 96 8b 25 00
        E 384 9b 23 38
        E 97 8b 23 00
        E 263 9b 24 36
        E 96 8b 24 00
        E 384 9b 25 53
        E 97 8b 25 00
        E 143 9b 24 5d
        E 96 8b 24 00
        E 144 9b 25 41
        E 96 8b 25 00
        E 24 9b 24 67
        E 96 8b 24 00
        E 24 9b 23 4e
        E 97 8b 23 00
        E 23 9b 23 55
        E 97 8b 23 00
        E 143 9b 24 56
        E 97 8b 24 00
        E 503 9b 26 2f
        E 95 8b 26 00
        E 25 9b 24 42
        E 96 8b 24 00
        E 24 9b 25 42
        E 96 8b 25 00
        E 23 9b 24 60
        E 97 8b 24 00
        E 144 9b 24 65
        E 96 8b 24 00
        E 24 9b 25 50
        E 95 8b 25 00
        E 25 9b 25 50
        E 97 8b 25 00
        E 143 9b 25 55
        E 95 8b 25 00
        E 25 9b 24 6e
        E 96 8b 24 00
        E 505 9b 25 4b
        E 96 8b 25 00
        E 24 9b 24 2f
        E 96 8b 24 00
        E 23 9b 24 3b
        E 97 8b 24 00
        E 23 9b 24 67
        E 95 8b 24 00
        E 25 9b 24 42
        E 97 8b 24 00
        E 143 9b 24 65
        E 97 8b 24 00
        E 23 9b 24 67
        E 96 8b 24 00
        E 24 9b 27 42
        E 97 8b 27 00
        E 144 9b 24 71
        E 95 8b 24 00
        E 24 9b 24 65
        E 95 8b 24 00
        E 265 9b 24 52
        E 97 8b 24 00
        E 23 9b 24 3f
        E 97 8b 24 00
        E 143 9b 24 3e
        E 97 8b 24 00
        E 503 9b 25 59
        E 95 8b 25 00
        E 25 9b 24 67
        E 96 8b 24 00
        E 143 9b 24 5e
        E 97 8b 24 00
        E 24 9b 23 49
        E 95 8b 23 00
        E 25 9b 24 60
        E 95 8b 24 00
        E 26 9b 24 5e
        E 97 8b 24 00
        E 22 9b 24 4b
        E 97 8b 24 00
        E 23 9b 24 52
        E 97 8b 24 00
        E 264 9b 25 3b
        E 96 8b 25 00
        E 23 9b 24 2c
        E 96 8b 24 00
        E 24 9b 25 4e
        E 95 8b 25 00
        E 25 9b 25 4c
        E 96 8b 25 00
        E 144 9b 24 64
        E 96 8b 24 00
        E 24 9b 25 53
        E 95 8b 25 00
        E 25 9b 25 50
        E 96 8b 25 00
        E 24 9b 24 60
        E 96 8b 24 00
        E 144 9b 25 48
        E 96 8b 25 00
        E 144 9b 25 60
        E 96 8b 25 00
        E 24 9b 24 3d
        E 95 8b 24 00
        E 145 9b 25 3f
        E 97 8b 25 00
        E 264 9b 24 60
        E 97 8b 24 00
        E 22 9b 24 6e
        E 96 8b 24 00
        E 144 9b 23 42
        E 96 8b 23 00
        E 24 9b 24 55
        E 96 8b 24 00
        E 144 9b 27 36
        E 96 8b 27 00
        E 24 9b 24 4f
        E 96 8b 24 00
        E 24 9b 24 50
        E 95 8b 24 00
        E 385 9b 26 6b
        E 97 8b 26 00
        E 144 9b 27 42
        E 95 8b 27 00
        E 263 9b 26 77
        E 95 8b 26 00
        E 26 9b 26 7d
        E 95 8b 26 00
        E 506 9b 26 72
        E 97 8b 26 00
        E 22 9b 25 5c
        E 96 8b 25 00
        E 24 9b 26 7b
        E 96 8b 26 00
        E 144 9b 25 6a
        E 96 8b 25 00
        E 144 9b 24 6e
        E 97 8b 24 00
        E 23 9b 1b 33
        E 96 8b 1b 00
        E 264 9b 24 60
        E 96 8b 24 00
        E 24 9b 24 7c
        E 97 8b 24 00
        E 23 9b 24 75
        E 96 8b 24 00
        E 25 9b 24 77
        E 95 8b 24 00
        E 23 9b 24 75
        E 96 8b 24 00
        E 25 9b 24 7d
        E 96 8b 24 00
        E 25 9b 24 5c
        E 96 8b 24 00
        E 263 9b 24 72
        E 95 8b 24 00
        E 145 9b 25 52
        E 95 8b 25 00
        E 385 9b 24 6b
        E 95 8b 24 00
        E 25 9b 24 60
        E 97 8b 24 00
        E 23 9b 24 7b
        E 96 8b 24 00
        E 25 9b 25 5c
        E 96 8b 25 00
        E 22 9b 24 77
        E 95 8b 24 00
        E 25 9b 25 72
        E 96 8b 25 00
        E 25 9b 24 77
        E 96 8b 24 00
        E 24 9b 23 65
        E 97 8b 23 00
        E 23 9b 24 6e
        E 96 8b 24 00
        E 264 9b 25 5e
        E 96 8b 25 00
        E 144 9b 24 72
        E 96 8b 24 00
        E 24 9b 24 45
        E 97 8b 24 00
        E 23 9b 23 3d
        E 95 8b 23 00
        E 25 9b 25 6a
        E 95 8b 25 00
        E 25 9b 25 61
        E 95 8b 25 00
        E 25 9b 25 5e
        E 95 8b 25 00
        E 25 9b 25 6d
        E 94 8b 25 00
        E 26 9b 23 56
        E 97 8b 23 00
        E 143 9b 24 79
        E 96 8b 24 00
        E 24 9b 24 75
        E 97 8b 24 00
        E 23 9b 24 72
        E 95 8b 24 00
        E 145 9b 23 6a
        E 96 8b 23 00
        E 24 9b 23 6f
        E 97 8b 23 00
        E 23 9b 26 5a
        E 96 8b 26 00
        E 24 9b 24 63
        E 96 8b 24 00
        E 24 9b 27 34
        E 97 8b 27 00
        E 143 9b 24 6f
        E 97 8b 24 00
        E 23 9b 24 77
        E 95 8b 24 00
        E 25 9b 23 60
        E 97 8b 23 00
        E 23 9b 23 60
        E 95 8b 23 00
        E 25 9b 24 71
        E 96 8b 24 00
        E 24 9b 24 72
        E 98 8b 24 00
        E 22 9b 24 75
        E 95 8b 24 00
        E 25 9b 24 7c
        E 97 8b 24 00
        E 263 9b 25 65
        E 97 8b 25 00
        E 23 9b 24 6d
        E 95 8b 24 00
        E 25 9b 25 5a
        E 96 8b 25 00
        E 24 9b 24 6f
        E 96 8b 24 00
        E 24 9b 24 4b
        E 94 8b 24 00
        E 26 9b 24 52
        E 95 8b 24 00
        E 25 9b 24 79
        E 94 8b 24 00
        E 26 9b 24 63
        E 97 8b 24 00
        E 23 9b 24 5a
        E 97 8b 24 00
        E 23 9b 24 6f
        E 97 8b 24 00
        E 24 9b 24 72
        E 95 8b 24 00
        E 24 9b 24 60
        E 97 8b 24 00
        E 23 9b 25 75
        E 96 8b 25 00
        E 25 9b 24 77
        E 96 8b 24 00
        E 23 9b 24 77
        E 95 8b 24 00
        E 25 9b 24 6e
        E 95 8b 24 00
        E 25 9b 24 6e
        E 95 8b 24 00
        E 145 9b 25 56
        E 96 8b 25 00
        E 24 9b 24 77
        E 96 8b 24 00
        E 24 9b 25 6f
        E 97 8b 25 00
        E 23 9b 25 59
        E 97 8b 25 00
        E 23 9b 25 6e
        E 96 8b 25 00
        E 144 9b 24 67
        E 96 8b 24 00
        E 24 9b 24 75
        E 96 8b 24 00
        E 144 9b 23 6d
        E 96 8b 23 00
        E 24 9b 23 72
        E 96 8b 23 00
        E 24 9b 24 75
        E 97 8b 24 00
        E 23 9b 25 6e
        E 98 8b 25 00
        E 22 9b 24 60
        E 97 8b 24 00
        E 263 9b 25 63
        E 96 8b 25 00
        E 144 9b 1a 46
        E 95 8b 1a 00
        E 25 9b 25 6a
        E 95 8b 25 00
        E 25 9b 25 77
        E 96 8b 25 00
        E 24 9b 25 6e
        E 95 8b 25 00
        E 145 9b 25 6f
        E 98 8b 25 00
        E 23 9b 25 6e
        E 96 8b 25 00
        E 144 9b 25 75
        E 96 8b 25 00
        E 263 9b 25 7a
        E 96 8b 25 00
        E 24 9b 25 6d
        E 95 8b 25 00
        E 25 9b 24 5a
        E 96 8b 24 00
        E 24 9b 25 6a
        E 96 8b 25 00
        E 24 9b 25 6e
        E 96 8b 25 00
        E 23 9b 24 68
        E 97 8b 24 00
        E 24 9b 24 75
        E 96 8b 24 00
        E 24 9b 24 75
        E 97 8b 24 00
        E 23 9b 24 74
        E 95 8b 24 00
        E 25 9b 24 7c
        E 95 8b 24 00
        E 25 9b 24 61
        E 97 8b 24 00
        E 23 9b 24 75
        E 97 8b 24 00
        E 23 9b 24 7b
        E 96 8b 24 00
        E 25 9b 24 77
        E 96 8b 24 00
        E 23 9b 24 63
        E 97 8b 24 00
        E 22 9b 24 71
        E 95 8b 24 00
        E 27 9b 24 74
        E 96 8b 24 00
        E 144 9b 24 5e
        E 97 8b 24 00
        E 22 9b 23 6e
        E 96 8b 23 00
        E 24 9b 25 63
        E 96 8b 25 00
        E 144 9b 24 7c
        E 97 8b 24 00
        E 23 9b 24 57
        E 96 8b 24 00
        E 144 9b 24 6e
        E 96 8b 24 00
        E 24 9b 24 7d
        E 96 8b 24 00
        E 144 9b 24 71
        E 97 8b 24 00
        E 23 9b 25 68
        E 96 8b 25 00
        E 25 9b 24 7a
        E 95 8b 24 00
        E 23 9b 24 77
        E 96 8b 24 00
        E 25 9b 23 61
        E 95 8b 23 00
        E 25 9b 24 6f
        E 98 8b 24 00
        E 22 9b 25 63
        E 96 8b 25 00
        E 24 9b 24 6a
        E 96 8b 24 00
        E 24 9b 24 79
        E 97 8b 24 00
        E 23 9b 25 77
        E 94 8b 25 00
        E 26 9b 25 75
        E 97 8b 25 00
        E 143 9b 23 72
        E 96 8b 23 00
        E 24 9b 24 63
        E 97 8b 24 00
        E 23 9b 24 5c
        E 95 8b 24 00
        E 25 9b 24 7c
        E 97 8b 24 00
        E 24 9b 24 5e
        E 95 8b 24 00
        E 24 9b 23 60
        E 96 8b 23 00
        E 24 9b 24 79
        E 97 8b 24 00
        E 23 9b 24 6a
        E 96 8b 24 00
        E 23 9b 24 5a
        E 96 8b 24 00
        E 25 9b 24 6a
        E 96 8b 24 00
        E 24 9b 24 6e
        E 96 8b 24 00
        E 24 9b 24 67
        E 96 8b 24 00
        E 23 9b 25 59
        E 96 8b 25 00
        E 25 9b 24 7b
        E 96 8b 24 00
        E 24 9b 24 5c
        E 96 8b 24 00
        E 384 9b 24 7b
        E 95 8b 24 00
        E 26 9b 24 75
        E 96 8b 24 00
        E 23 9b 24 77
        E 96 8b 24 00
        E 264 9b 24 75
        E 97 8b 24 00
        E 23 9b 24 75
        E 96 8b 24 00
        E 23 9b 25 60
        E 97 8b 25 00
        E 24 9b 25 5a
        E 96 8b 25 00
        E 24 9b 24 56
        E 96 8b 24 00
        E 24 9b 24 63
        E 96 8b 24 00
        E 24 9b 24 6e
        E 96 8b 24 00
        E 24 9b 24 59
        E 97 8b 24 00
        E 144 9b 25 64
        E 95 8b 25 00
        E 24 9b 24 7a
        E 95 8b 24 00
        E 26 9b 24 75
        E 95 8b 24 00
        E 144 9b 24 7c
        E 96 8b 24 00
        E 144 9b 24 77
        E 96 8b 24 00
        E 25 9b 24 71
        E 96 8b 24 00
        E 23 9b 24 77
        E 98 8b 24 00
        E 22 9b 24 60
        E 96 8b 24 00
        E 24 9b 25 50
        E 96 8b 25 00
        E 144 9b 24 7a
        E 95 8b 24 00
        E 25 9b 25 60
        E 96 8b 25 00
        E 24 9b 24 77
        E 96 8b 24 00
        E 24 9b 23 60
        E 96 8b 23 00
        E 24 9b 24 7a
        E 95 8b 24 00
        E 26 9b 24 79
        E 96 8b 24 00
        E 23 9b 24 7c
        E 97 8b 24 00
        E 142 9b 24 7c
        E 96 8b 24 00
        E 25 9b 24 6a
        E 96 8b 24 00
        E 24 9b 24 72
        E 96 8b 24 00
        E 23 9b 24 79
        E 96 8b 24 00
        E 25 9b 24 6f
        E 96 8b 24 00
        E 144 9b 24 7c
        E 96 8b 24 00
        E 144 9b 25 53
        E 97 8b 25 00
        E 263 9b 24 71
        E 95 8b 24 00
        E 145 9b 24 59
        E 97 8b 24 00
        E 23 9b 24 72
        E 96 8b 24 00
        E 24 9b 23 6e
        E 96 8b 23 00
        E 24 9b 23 71
        E 96 8b 23 00
        E 145 9b 22 5c
        E 95 8b 22 00
        E 25 9b 23 6e
        E 95 8b 23 00
        E 23 9b 21 61
        E 96 8b 21 00
        E 24 9b 24 65
        E 97 8b 24 00
        E 23 9b 25 5e
        E 97 8b 25 00
        E 25 9b 25 5d
        E 96 8b 25 00
        E 23 9b 25 64
        E 96 8b 25 00
        E 24 9b 25 68
        E 97 8b 25 00
        E 23 9b 25 55
        E 94 8b 25 00
        E 145 9b 24 61
        E 96 8b 24 00
        E 25 9b 25 72
        E 96 8b 25 00
        E 144 9b 25 75
        E 96 8b 25 00
        E 25 9b 24 7d
        E 96 8b 24 00
        E 23 9b 23 6f
        E 96 8b 23 00
        E 24 9b 24 7d
        E 95 8b 24 00
        E 25 9b 25 64
        E 98 8b 25 00
        E 22 9b 25 61
        E 95 8b 25 00
        E 145 9b 25 6d
        E 97 8b 25 00
        E 23 9b 24 56
        E 97 8b 24 00
        E 23 9b 24 5d
        E 98 8b 24 00
        E 21 9b 25 65
        E 97 8b 25 00
        E 24 9b 25 67
        E 96 8b 25 00
        E 24 9b 24 7c
        E 95 8b 24 00
        E 25 9b 24 74
        E 96 8b 24 00
        E 24 9b 24 74
        E 96 8b 24 00
        E 25 9b 23 60
        E 96 8b 23 00
        E 22 9b 24 7d
        E 96 8b 24 00
        E 25 9b 24 72
        E 96 8b 24 00
        E 144 9b 24 7b
        E 95 8b 24 00
        E 25 9b 24 75
        E 97 8b 24 00
        E 22 9b 24 6e
        E 96 8b 24 00
        E 25 9b 24 6b
        E 96 8b 24 00
        E 24 9b 24 67
        E 95 8b 24 00
        E 25 9b 25 56
        E 96 8b 25 00
        E 24 9b 24 65
        E 95 8b 24 00
        E 146 9b 24 60
        E 96 8b 24 00
        E 23 9b 24 60
        E 96 8b 24 00
        E 24 9b 25 6b
        E 96 8b 25 00
        E 24 9b 24 71
        E 97 8b 24 00
        E 23 9b 24 71
        E 96 8b 24 00
        E 144 9b 24 75
        E 96 8b 24 00
        E 24 9b 24 75
        E 97 8b 24 00
        E 22 9b 24 72
        E 96 8b 24 00
        E 25 9b 24 7a
        E 98 8b 24 00
        E 22 9b 23 68
        E 96 8b 23 00
        E 24 9b 24 5d
        E 96 8b 24 00
        E 24 9b 25 64
        E 96 8b 25 00
        E 24 9b 24 67
        E 96 8b 24 00
        E 25 9b 24 6a
        E 96 8b 24 00
        E 23 9b 24 5e
        E 96 8b 24 00
        E 23 9b 24 79
        E 97 8b 24 00
        E 23 9b 24 6e
        E 97 8b 24 00
        E 23 9b 25 75
        E 95 8b 25 00
        E 26 9b 25 5a
        E 96 8b 25 00
        E 24 9b 25 75
        E 97 8b 25 00
        E 23 9b 24 6a
        E 96 8b 24 00
        E 24 9b 25 59
        E 95 8b 25 00
        E 25 9b 25 71
        E 97 8b 25 00
        E 23 9b 24 65
        E 97 8b 24 00
        E 143 9b 24 6d
        E 98 8b 24 00
        E 22 9b 25 6f
        E 96 8b 25 00
        E 24 9b 25 6b
        E 96 8b 25 00
        E 24 9b 24 61
        E 95 8b 24 00
        E 25 9b 24 67
        E 97 8b 24 00
        E 23 9b 25 68
        E 97 8b 25 00
        E 24 9b 24 6e
        E 96 8b 24 00
        E 23 9b 25 6b
        E 96 8b 25 00
        E 24 9b 24 75
        E 96 8b 24 00
        E 24 9b 24 77
        E 96 8b 24 00
        E 24 9b 24 74
        E 95 8b 24 00
        E 25 9b 24 75
        E 97 8b 24 00
        E 23 9b 24 7a
        E 95 8b 24 00
        E 25 9b 23 6d
        E 96 8b 23 00
        E 24 9b 23 6e
        E 97 8b 23 00
        E 24 9b 24 7c
        E 96 8b 24 00
        E 143 9b 24 67
        E 96 8b 24 00
        E 24 9b 25 67
        E 95 8b 25 00
        E 25 9b 24 63
        E 96 8b 24 00
        E 23 9b 24 63
        E 96 8b 24 00
        E 25 9b 25 60
        E 96 8b 25 00
        E 24 9b 25 61
        E 95 8b 25 00
        E 26 9b 24 77
        E 95 8b 24 00
        E 24 9b 24 7d
        E 96 8b 24 00
        E 24 9b 24 75
        E 96 8b 24 00
        E 24 9b 24 77
        E 95 8b 24 00
        E 25 9b 24 6e
        E 97 8b 24 00
        E 23 9b 24 6e
        E 95 8b 24 00
        E 25 9b 24 79
        E 96 8b 24 00
        E 25 9b 25 67
        E 97 8b 25 00
        E 22 9b 24 77
        E 96 8b 24 00
        E 24 9b 25 59
        E 96 8b 25 00
        E 25 9b 23 6b
        E 96 8b 23 00
        E 23 9b 24 75
        E 95 8b 24 00
        E 25 9b 24 6b
        E 96 8b 24 00
        E 24 9b 23 5e
        E 96 8b 23 00
        E 24 9b 24 65
        E 96 8b 24 00
        E 24 9b 24 77
        E 95 8b 24 00
        E 25 9b 24 68
        E 96 8b 24 00
        E 24 9b 24 6f
        E 96 8b 24 00
        E 24 9b 24 79
        E 97 8b 24 00
        E 23 9b 24 67
        E 95 8b 24 00
        E 25 9b 24 79
        E 96 8b 24 00
        E 25 9b 24 7a
        E 97 8b 24 00
        E 22 9b 24 71
        E 96 8b 24 00
        E 24 9b 24 72
        E 97 8b 24 00
        E 23 9b 24 67
        E 97 8b 24 00
        E 23 9b 24 6e
        E 96 8b 24 00
        E 24 9b 24 75
        E 95 8b 24 00
        E 25 9b 25 67
        E 96 8b 25 00
        E 24 9b 25 63
        E 96 8b 25 00
        E 24 9b 25 63
        E 96 8b 25 00
        E 24 9b 24 6a
        E 97 8b 24 00
        E 23 9b 26 7b
        E 96 8b 26 00
        E 24 9b 26 7c
        E 96 8b 26 00
        E 24 9b 25 60
        E 95 8b 25 00
        E 25 9b 26 7d
        E 96 8b 26 00
        E 24 9b 25 64
        E 95 8b 25 00
        E 25 9b 24 68
        E 96 8b 24 00
        E 24 9b 25 71
        E 95 8b 25 00
        E 25 9b 26 7c
        E 96 8b 26 00
        E 24 9b 26 79
        E 95 8b 26 00
        E 24 9b 24 68
        E 96 8b 24 00
        E 25 9b 26 77
        E 96 8b 26 00
        E 24 9b 25 6d
        E 96 8b 25 00
        E 24 9b 25 52
        E 95 8b 25 00
        E 24 9b 25 5a
        E 97 8b 25 00
        E 24 9b 24 5c
        E 97 8b 24 00
        E 23 9b 25 67
        E 97 8b 25 00
        E 22 9b 25 6e
        E 95 8b 25 00
        E 26 9b 25 5a
        E 97 8b 25 00
        E 23 9b 24 79
        E 95 8b 24 00
        E 24 9b 24 52
        E 96 8b 24 00
        E 25 9b 25 63
        E 95 8b 25 00
        E 26 9b 24 7b
        E 96 8b 24 00
        E 23 9b 23 71
        E 98 8b 23 00
        E 22 9b 24 7b
        E 96 8b 24 00
        E 24 9b 24 7b
        E 96 8b 24 00
        E 24 9b 23 5e
        E 95 8b 23 00
        E 25 9b 23 67
        E 96 8b 23 00
        E 24 9b 23 6f
        E 95 8b 23 00
        E 25 9b 1f 3f
        E 95 8b 1f 00
        E 24 9b 25 59
        E 97 8b 25 00
        E 24 9b 25 5c
        E 97 8b 25 00
        E 22 9b 24 71
        E 96 8b 24 00
        E 25 9b 24 7c
        E 96 8b 24 00
        E 24 9b 24 74
        E 97 8b 24 00
        E 24 9b 24 6f
        E 96 8b 24 00
        E 22 9b 24 6f
        E 96 8b 24 00
        E 25 9b 24 71
        E 96 8b 24 00
        E 24 9b 24 75
        E 96 8b 24 00
        E 24 9b 24 79
        E 95 8b 24 00
        E 25 9b 24 77
        E 96 8b 24 00
        E 23 9b 24 75
        E 95 8b 24 00
        E 26 9b 23 67
        E 95 8b 23 00
        E 25 9b 23 64
        E 97 8b 23 00
        E 23 9b 23 5a
        E 96 8b 23 00
        E 24 9b 23 6f
        E 96 8b 23 00
        E 24 9b 24 7d
        E 96 8b 24 00
        E 24 9b 24 68
        E 97 8b 24 00
        E 23 9b 24 63
        E 95 8b 24 00
        E 25 9b 24 79
        E 97 8b 24 00
        E 23 9b 24 79
        E 97 8b 24 00
        E 23 9b 24 72
        E 96 8b 24 00
        E 24 9b 24 75
        E 96 8b 24 00
        E 24 9b 24 67
        E 96 8b 24 00
        E 24 9b 24 7b
        E 94 8b 24 00
        E 26 9b 24 64
        E 96 8b 24 00
        E 24 9b 24 75
        E 95 8b 24 00
        E 25 9b 24 7d
        E 96 8b 24 00
        E 23 9b 24 74
        E 96 8b 24 00
        E 25 9b 24 6a
        E 95 8b 24 00
        E 25 9b 24 6f
        E 96 8b 24 00
        E 24 9b 24 68
        E 96 8b 24 00
        E 24 9b 24 68
        E 96 8b 24 00
        E 24 9b 23 46
        E 96 8b 23 00
        E 24 9b 24 68
        E 97 8b 24 00
        E 23 9b 24 74
        E 96 8b 24 00
        E 24 9b 24 5e
        E 96 8b 24 00
        E 24 9b 24 67
        E 97 8b 24 00
        E 23 9b 24 75
        E 95 8b 24 00
        E 24 9b 24 7d
        E 97 8b 24 00
        E 24 9b 24 7c
        E 97 8b 24 00
        E 23 9b 24 6d
        E 97 8b 24 00
        E 23 9b 24 71
        E 94 8b 24 00
        E 26 9b 24 74
        E 94 8b 24 00
        E 26 9b 24 6d
        E 96 8b 24 00
        E 24 9b 24 6e
        E 96 8b 24 00
        E 24 9b 24 6a
        E 96 8b 24 00
        E 24 9b 24 53
        E 95 8b 24 00
        E 25 9b 24 48
        E 96 8b 24 00
        E 24 9b 25 53
        E 95 8b 25 00
        E 25 9b 24 49
        E 96 8b 24 00
        E 24 9b 24 59
        E 95 8b 24 00
        E 25 9b 24 5c
        E 97 8b 24 00
        E 23 9b 24 77
        E 94 8b 24 00
        E 25 9b 24 75
        E 96 8b 24 00
        E 25 9b 24 6a
        E 96 8b 24 00
        E 24 9b 24 67
        E 96 8b 24 00
        E 24 9b 24 6b
        E 95 8b 24 00
        E 25 9b 24 6e
        E 96 8b 24 00
        E 23 9b 24 65
        E 96 8b 24 00
        E 25 9b 24 5d
        E 96 8b 24 00
        E 24 9b 24 6e
        E 97 8b 24 00
        E 23 9b 24 50
        E 95 8b 24 00
        E 25 9b 24 67
        E 96 8b 24 00
        E 24 9b 24 67
        E 96 8b 24 00
        E 24 9b 24 5a
        E 96 8b 24 00
        E 24 9b 24 55
        E 96 8b 24 00
        E 24 9b 24 7d
        E 96 8b 24 00
        E 23 9b 24 67
        E 97 8b 24 00
        E 24 9b 25 55
        E 96 8b 25 00
        E 23 9b 25 59
        E 97 8b 25 00
        E 24 9b 24 7a
        E 96 8b 24 00
        E 24 9b 23 75
        E 97 8b 23 00
        E 23 9b 23 75
        E 96 8b 23 00
        E 24 9b 23 71
        E 97 8b 23 00
        E 24 9b 23 79
        E 96 8b 23 00
        E 23 9b 23 79
        E 97 8b 23 00
        E 23 9b 24 7d
        E 96 8b 24 00
        E 24 9b 24 6b
        E 96 8b 24 00
        E 24 9b 25 50
        E 96 8b 25 00
        E 24 9b 24 75
        E 97 8b 24 00
        E 23 9b 25 5a
        E 97 8b 25 00
        E 23 9b 25 6f
        E 95 8b 25 00
        E 24 9b 25 68
        E 96 8b 25 00
        E 25 9b 24 7b
        E 95 8b 24 00
        E 25 9b 24 64
        E 96 8b 24 00
        E 24 9b 24 7d
        E 95 8b 24 00
        E 25 9b 24 75
        E 95 8b 24 00
        E 25 9b 23 75
        E 97 8b 23 00
        E 23 9b 23 59
        E 96 8b 23 00
        E 24 9b 23 72
        E 95 8b 23 00
        E 26 9b 24 67
        E 96 8b 24 00
        E 23 9b 24 7a
        E 97 8b 24 00
        E 22 9b 24 7c
        E 97 8b 24 00
        E 25 9b 24 64
        E 96 8b 24 00
        E 23 9b 24 79
        E 96 8b 24 00
        E 24 9b 25 65
        E 97 8b 25 00
        E 23 9b 24 67
        E 96 8b 24 00
        E 24 9b 24 6e
        E 95 8b 24 00
        E 25 9b 24 60
        E 96 8b 24 00
        E 24 9b 24 79
        E 96 8b 24 00
        E 24 9b 24 77
        E 96 8b 24 00
        E 24 9b 24 79
        E 96 8b 24 00
        E 25 9b 24 6a
        E 97 8b 24 00
        E 22 9b 24 7c
        E 95 8b 24 00
        E 25 9b 24 71
        E 97 8b 24 00
        E 24 9b 24 7c
        E 95 8b 24 00
        E 24 9b 24 67
        E 95 8b 24 00
        E 25 9b 24 67
        E 97 8b 24 00
        E 23 9b 24 60
        E 95 8b 24 00
        E 26 9b 24 5a
        E 95 8b 24 00
        E 24 9b 25 6a
        E 95 8b 25 00
        E 25 9b 24 4b
        E 96 8b 24 00
        E 24 9b 24 71
        E 97 8b 24 00
        E 23 9b 24 5e
        E 97 8b 24 00
        E 23 9b 24 59
        E 96 8b 24 00
        E 25 9b 24 6f
        E 96 8b 24 00
        E 22 9b 24 5e
        E 95 8b 24 00
        E 26 9b 24 7b
        E 96 8b 24 00
        E 25 9b 24 7b
        E 96 8b 24 00
        E 23 9b 24 77
        E 96 8b 24 00
        E 24 9b 24 6e
        E 96 8b 24 00
        E 24 9b 24 7a
        E 96 8b 24 00
        E 25 9b 24 77
        E 97 8b 24 00
        E 22 9b 24 79
        E 96 8b 24 00
        E 23 9b 24 63
        E 96 8b 24 00
        E 26 9b 24 6e
        E 96 8b 24 00
        E 22 9b 24 77
        E 96 8b 24 00
        E 25 9b 25 67
        E 96 8b 25 00
        E 24 9b 25 6b
        E 97 8b 25 00
        E 24 9b 24 6b
        E 96 8b 24 00
        E 23 9b 24 67
        E 95 8b 24 00
        E 25 9b 25 63
        E 95 8b 25 00
        E 25 9b 24 67
        E 96 8b 24 00
        E 24 9b 24 60
        E 96 8b 24 00
        E 23 9b 26 7a
        E 96 8b 26 00
        E 25 9b 26 6f
        E 96 8b 26 00
        E 23 9b 26 74
        E 96 8b 26 00
        E 25 9b 26 7a
        E 97 8b 26 00
        E 22 9b 26 7d
        E 98 8b 26 00
        E 23 9b 26 77
        E 95 8b 26 00
        E 25 9b 24 61
        E 97 8b 24 00
        E 23 9b 26 6d
        E 97 8b 26 00
        E 23 9b 24 6d
        E 97 8b 24 00
        E 23 9b 24 68
        E 96 8b 24 00
        E 24 9b 25 4f
        E 96 8b 25 00
        E 25 9b 25 55
        E 95 8b 25 00
        E 23 9b 24 65
        E 94 8b 24 00
        E 27 9b 24 64
        E 95 8b 24 00
        E 25 9b 24 7d
        E 96 8b 24 00
        E 25 9b 24 68
        E 95 8b 24 00
        E 24 9b 24 75
        E 95 8b 24 00
        E 25 9b 24 74
        E 97 8b 24 00
        E 23 9b 24 68
        E 96 8b 24 00
        E 25 9b 24 74
        E 97 8b 24 00
        E 23 9b 24 67
        E 97 8b 24 00
        E 22 9b 24 67
        E 97 8b 24 00
        E 23 9b 24 7d
        E 95 8b 24 00
        E 25 9b 25 6f
        E 96 8b 25 00
        E 24 9b 24 71
        E 96 8b 24 00
        E 24 9b 24 7d
        E 97 8b 24 00
        E 22 9b 23 6e
        E 95 8b 23 00
        E 26 9b 23 6e
        E 96 8b 23 00
        E 24 9b 24 65
        E 95 8b 24 00
        E 26 9b 23 55
        E 96 8b 23 00
        E 23 9b 24 63
        E 97 8b 24 00
        E 23 9b 24 61
        E 96 8b 24 00
        E 24 9b 24 77
        E 96 8b 24 00
        E 24 9b 24 77
        E 97 8b 24 00
        E 23 9b 24 61
        E 96 8b 24 00
        E 25 9b 23 61
        E 97 8b 23 00
        E 22 9b 24 75
        E 95 8b 24 00
        E 25 9b 24 75
        E 96 8b 24 00
        E 24 9b 24 75
        E 96 8b 24 00
        E 24 9b 25 59
        E 96 8b 25 00
        E 23 9b 25 64
        E 97 8b 25 00
        E 24 9b 24 53
        E 96 8b 24 00
        E 24 9b 24 68
        E 96 8b 24 00
        E 24 9b 25 61
        E 96 8b 25 00
        E 23 9b 25 5a
        E 96 8b 25 00
        E 25 9b 24 6e
        E 95 8b 24 00
        E 25 9b 26 75
        E 96 8b 26 00
        E 24 9b 26 7d
        E 96 8b 26 00
        E 24 9b 26 71
        E 96 8b 26 00
        E 24 9b 24 6e
        E 95 8b 24 00
        E 25 9b 24 67
        E 96 8b 24 00
        E 24 9b 26 7d
        E 95 8b 26 00
        E 25 9b 26 72
        E 96 8b 26 00
        E 24 9b 26 7b
        E 95 8b 26 00
        E 25 9b 25 60
        E 95 8b 25 00
        E 25 9b 25 4e
        E 96 8b 25 00
        E 24 9b 24 64
        E 95 8b 24 00
        E 25 9b 24 79
        E 95 8b 24 00
        E 25 9b 24 77
        E 96 8b 24 00
        E 24 9b 24 79
        E 96 8b 24 00
        E 25 9b 24 74
        E 95 8b 24 00
        E 24 9b 23 61
        E 95 8b 23 00
        E 25 9b 24 7b
        E 96 8b 24 00
        E 24 9b 24 75
        E 97 8b 24 00
        E 23 9b 24 7c
        E 95 8b 24 00
        E 25 9b 25 61
        E 95 8b 25 00
        E 25 9b 25 5a
        E 96 8b 25 00
        E 24 9b 24 59
        E 95 8b 24 00
        E 25 9b 24 7d
        E 96 8b 24 00
        E 24 9b 23 67
        E 97 8b 23 00
        E 23 9b 24 79
        E 96 8b 24 00
        E 23 9b 25 5a
        E 97 8b 25 00
        E 25 9b 25 67
        E 95 8b 25 00
        E 24 9b 25 63
        E 96 8b 25 00
        E 24 9b 24 50
        E 95 8b 24 00
        E 25 9b 24 74
        E 97 8b 24 00
        E 23 9b 25 60
        E 96 8b 25 00
        E 24 9b 24 7a
        E 97 8b 24 00
        E 22 9b 24 72
        E 96 8b 24 00
        E 25 9b 24 79
        E 96 8b 24 00
        E 24 9b 24 7d
        E 96 8b 24 00
        E 23 9b 24 6d
        E 96 8b 24 00
        E 24 9b 23 6b
        E 96 8b 23 00
        E 25 9b 24 75
        E 96 8b 24 00
        E 24 9b 24 7d
        E 95 8b 24 00
        E 25 9b 23 5e
        E 95 8b 23 00
        E 26 9b 24 6b
        E 97 8b 24 00
        E 22 9b 24 72
        E 95 8b 24 00
        E 26 9b 24 67
        E 94 8b 24 00
        E 25 9b 24 55
        E 96 8b 24 00
        E 24 9b 24 79
        E 96 8b 24 00
        E 25 9b 24 72
        E 96 8b 24 00
        E 23 9b 24 77
        E 96 8b 24 00
        E 24 9b 24 64
        E 97 8b 24 00
        E 23 9b 24 67
        E 96 8b 24 00
        E 24 9b 24 7c
        E 97 8b 24 00
        E 23 9b 24 7a
        E 95 8b 24 00
        E 24 9b 24 57
        E 96 8b 24 00
        E 25 9b 25 6b
        E 97 8b 25 00
        E 23 9b 25 60
        E 95 8b 25 00
        E 25 9b 24 75
        E 96 8b 24 00
        E 25 9b 24 74
        E 97 8b 24 00
        E 22 9b 24 79
        E 96 8b 24 00
        E 23 9b 24 57
        E 96 8b 24 00
        E 25 9b 23 5c
        E 95 8b 23 00
        E 0 bb 7b 00
        E 1 ff 2f 00
      >
    >
  >
>
