<REAPER_PROJECT 0.1 "7.0" 1700000000
  TEMPO 50.000000 4 4
  SAMPLERATE 48000 0 0
  RENDER_FILE ""
  RENDER_FMT 0 2 0
  RENDER_1X 0
  RENDER_RANGE 1 0 181.887500 0 0
  RENDER_RESAMPLE 3 0 1
  <MASTERTRACK
    VOLPAN 1 0 1 -1
    DEFCHAN 0
  >
  <TRACK
    NAME "kalimba"
    PEAKCOL 4290756410
    VOLPAN 1.000000 0 1 -1
    MIDIOUT -1
    ISBUS 0 0
    <ITEM
      POSITION 0.000000
      LENGTH 169.114000
      NAME "kalimba"
      VOLPAN 1 0 1 -1
      <SOURCE MIDI
        HASDATA 1 960 QN
        E 0 c0 6c 00
        E 0 90 45 5b
        E 211 80 45 00
        E 13289 90 45 6f
        E 211 80 45 00
        E 8789 90 45 5d
        E 2 90 51 23
        E 58 80 51 00
        E 151 80 45 00
        E 13289 90 47 64
        E 211 80 47 00
        E 8789 90 4c 64
        E 211 80 4c 00
        E 13289 90 51 69
        E 211 80 51 00
        E 8789 90 53 70
        E 211 80 53 00
        E 13289 90 54 5b
        E 211 80 54 00
        E 8789 90 51 69
        E 211 80 51 00
        E 13289 90 4c 5a
        E 211 80 4c 00
        E 8789 90 47 5d
        E 211 80 47 00
        E 13289 90 45 62
        E 211 80 45 00
        E 8789 90 47 69
        E 2 90 53 2a
        E 58 80 53 00
        E 151 80 47 00
        E 0 b0 7b 00
        E 1 ff 2f 00
      >
    >
  >
  <TRACK
    NAME "alto_flute"
    PEAKCOL 4282040170
    VOLPAN 1.000000 0 1 -1
    MIDIOUT -1
    ISBUS 0 0
    <ITEM
      POSITION 0.000000
      LENGTH 179.742778
      NAME "alto_flute"
      VOLPAN 1 0 1 -1
      <SOURCE MIDI
        HASDATA 1 960 QN
        E 0 c1 49 00
        E 0 91 45 6d
        E 192 81 45 00
        E 50 91 45 5a
        E 192 81 45 00
        E 55 91 45 61
        E 192 81 45 00
        E 33 91 45 62
        E 103 91 43 58
        E 67 81 43 00
        E 10 91 43 62
        E 12 81 45 00
        E 55 81 43 00
        E 9 91 45 6d
        E 192 81 45 00
        E 265 91 45 68
        E 192 81 45 00
        E 149 91 43 58
        E 67 81 43 00
        E 10 91 43 62
        E 67 81 43 00
        E 10 91 45 6d
        E 192 81 45 00
        E 273 91 45 5b
        E 192 81 45 00
        E 155 91 43 4d
        E 67 81 43 00
        E 10 91 43 58
        E 67 81 43 00
        E 10 91 45 62
        E 192 81 45 00
        E 292 91 45 61
        E 192 81 45 00
        E 131 91 43 4f
        E 67 81 43 00
        E 9 91 43 5a
        E 67 81 43 00
        E 10 91 45 64
        E 192 81 45 00
        E 33 91 45 69
        E 192 81 45 00
        E 43 91 45 58
        E 192 81 45 00
        E 69 91 45 61
        E 64 91 43 4d
        E 67 81 43 00
        E 10 91 43 58
        E 51 81 45 00
        E 16 81 43 00
        E 10 91 45 62
        E 192 81 45 00
        E 290 91 45 61
        E 192 81 45 00
        E 160 91 43 4c
        E 67 81 43 00
        E 9 91 43 56
        E 67 81 43 00
        E 10 91 45 62
        E 192 81 45 00
        E 287 91 45 5a
        E 192 81 45 00
        E 108 91 43 53
        E 67 81 43 00
        E 10 91 43 5d
        E 67 81 43 00
        E 10 91 45 69
        E 192 81 45 00
        E 298 91 45 5b
        E 192 81 45 00
        E 141 91 43 51
        E 67 81 43 00
        E 9 91 43 5b
        E 67 81 43 00
        E 10 91 45 68
        E 192 81 45 00
        E 43 91 45 53
        E 192 81 45 00
        E 56 91 45 68
        E 192 81 45 00
        E 42 91 45 5a
        E 84 91 43 45
        E 67 81 43 00
        E 9 91 43 4f
        E 32 81 45 00
        E 35 81 43 00
        E 10 91 45 5b
        E 192 81 45 00
        E 278 91 40 5a
        E 192 81 40 00
        E 155 91 3e 53
        E 67 81 3e 00
        E 9 91 3e 5d
        E 67 81 3e 00
        E 10 91 40 69
        E 192 81 40 00
        E 286 91 40 53
        E 192 81 40 00
        E 137 91 3e 4c
        E 67 81 3e 00
        E 10 91 3e 56
        E 67 81 3e 00
        E 10 91 40 62
        E 192 81 40 00
        E 282 91 3b 61
        E 192 81 3b 00
        E 146 91 3e 41
        E 67 81 3e 00
        E 10 91 3e 4c
        E 67 81 3e 00
        E 10 91 40 58
        E 192 81 40 00
        E 40 91 40 6b
        E 192 81 40 00
        E 49 91 3b 5a
        E 192 81 3b 00
        E 36 91 40 62
        E 102 91 39 54
        E 67 81 39 00
        E 10 91 39 5f
        E 13 81 40 00
        E 54 81 39 00
        E 10 91 3b 6b
        E 192 81 3b 00
        E 276 91 40 58
        E 192 81 40 00
        E 143 91 39 3f
        E 67 81 39 00
        E 10 91 39 4a
        E 67 81 39 00
        E 10 91 3b 56
        E 192 81 3b 00
        E 287 91 39 66
        E 192 81 39 00
        E 118 91 37 46
        E 67 81 37 00
        E 9 91 37 51
        E 67 81 37 00
        E 10 91 39 5d
        E 192 81 39 00
        E 307 91 39 62
        E 192 81 39 00
        E 113 91 37 4d
        E 67 81 37 00
        E 10 91 37 58
        E 67 81 37 00
        E 10 91 39 62
        E 192 81 39 00
        E 57 91 39 62
        E 192 81 39 00
        E 44 91 39 6b
        E 192 81 39 00
        E 61 91 39 5d
        E 70 91 37 41
        E 67 81 37 00
        E 10 91 37 4c
        E 45 81 39 00
        E 22 81 37 00
        E 9 91 39 58
        E 192 81 39 00
        E 311 91 39 61
        E 192 81 39 00
        E 127 91 37 4a
        E 67 81 37 00
        E 10 91 37 54
        E 67 81 37 00
        E 9 91 39 61
        E 192 81 39 00
        E 282 91 39 5d
        E 192 81 39 00
        E 134 91 37 54
        E 67 81 37 00
        E 10 91 37 5f
        E 67 81 37 00
        E 10 91 39 6b
        E 192 81 39 00
        E 282 91 39 5d
        E 192 81 39 00
        E 155 91 37 4a
        E 67 81 37 00
        E 10 91 37 54
        E 67 81 37 00
        E 9 91 39 61
        E 192 81 39 00
        E 50 91 39 58
        E 192 81 39 00
        E 20 91 39 64
        E 192 81 39 00
        E 48 91 39 61
        E 95 91 37 4f
        E 67 81 37 00
        E 10 91 37 5a
        E 20 81 39 00
        E 47 81 37 00
        E 10 91 39 66
        E 192 81 39 00
        E 287 91 39 6d
        E 192 81 39 00
        E 144 91 37 3f
        E 67 81 37 00
        E 10 91 37 4a
        E 67 81 37 00
        E 10 91 39 56
        E 192 81 39 00
        E 278 91 39 6d
        E 192 81 39 00
        E 145 91 37 53
        E 67 81 37 00
        E 9 91 37 5d
        E 67 81 37 00
        E 10 91 39 69
        E 192 81 39 00
        E 272 91 39 69
        E 192 81 39 00
        E 139 91 37 41
        E 67 81 37 00
        E 10 91 37 4c
        E 67 81 37 00
        E 10 91 39 58
        E 192 81 39 00
        E 58 91 39 6d
        E 192 81 39 00
        E 43 91 39 5a
        E 192 81 39 00
        E 38 91 39 53
        E 111 91 37 43
        E 67 81 37 00
        E 10 91 37 4d
        E 4 81 39 00
        E 63 81 37 00
        E 9 91 39 5a
        E 192 81 39 00
        E 270 91 39 64
        E 192 81 39 00
        E 144 91 37 46
        E 67 81 37 00
        E 9 91 37 51
        E 67 81 37 00
        E 10 91 39 5d
        E 192 81 39 00
        E 293 91 39 62
        E 192 81 39 00
        E 134 91 37 46
        E 67 81 37 00
        E 9 91 37 51
        E 67 81 37 00
        E 10 91 39 5d
        E 192 81 39 00
        E 292 91 39 56
        E 192 81 39 00
        E 113 91 37 4d
        E 67 81 37 00
        E 10 91 37 58
        E 67 81 37 00
        E 10 91 39 62
        E 192 81 39 00
        E 55 91 3b 6d
        E 192 81 3b 00
        E 49 91 40 6d
        E 192 81 40 00
        E 58 91 40 5f
        E 79 91 39 54
        E 67 81 39 00
        E 10 91 39 5f
        E 36 81 40 00
        E 31 81 39 00
        E 9 91 3b 6b
        E 192 81 3b 00
        E 294 91 40 62
        E 192 81 40 00
        E 117 91 3e 4a
        E 67 81 3e 00
        E 10 91 3e 54
        E 67 81 3e 00
        E 10 91 40 61
        E 192 81 40 00
        E 306 91 3b 56
        E 192 81 3b 00
        E 120 91 3e 4a
        E 67 81 3e 00
        E 10 91 3e 54
        E 67 81 3e 00
        E 10 91 40 61
        E 192 81 40 00
        E 286 91 40 5a
        E 192 81 40 00
        E 136 91 39 3e
        E 67 81 39 00
        E 9 91 39 48
        E 67 81 39 00
        E 10 91 3b 54
        E 192 81 3b 00
        E 57 91 40 62
        E 192 81 40 00
        E 50 91 40 53
        E 192 81 40 00
        E 46 91 3b 5a
        E 76 91 37 41
        E 67 81 37 00
        E 10 91 37 4c
        E 39 81 3b 00
        E 28 81 37 00
        E 10 91 39 58
        E 192 81 39 00
        E 309 91 39 5f
        E 192 81 39 00
        E 115 91 37 46
        E 67 81 37 00
        E 10 91 37 51
        E 67 81 37 00
        E 10 91 39 5d
        E 192 81 39 00
        E 303 91 39 61
        E 192 81 39 00
        E 115 91 37 4a
        E 67 81 37 00
        E 10 91 37 54
        E 67 81 37 00
        E 10 91 39 61
        E 192 81 39 00
        E 286 91 39 61
        E 192 81 39 00
        E 158 91 37 53
        E 67 81 37 00
        E 10 91 37 5d
        E 67 81 37 00
        E 10 91 39 69
        E 192 81 39 00
        E 25 91 39 62
        E 192 81 39 00
        E 57 91 39 5d
        E 192 81 39 00
        E 57 91 39 6d
        E 81 91 37 45
        E 67 81 37 00
        E 10 91 37 4f
        E 34 81 39 00
        E 33 81 37 00
        E 10 91 39 5b
        E 192 81 39 00
        E 279 91 39 69
        E 192 81 39 00
        E 131 91 37 4f
        E 67 81 37 00
        E 10 91 37 5a
        E 67 81 37 00
        E 9 91 39 64
        E 192 81 39 00
        E 302 91 39 5f
        E 192 81 39 00
        E 125 91 37 54
        E 67 81 37 00
        E 10 91 37 5f
        E 67 81 37 00
        E 10 91 39 6b
        E 192 81 39 00
        E 290 91 39 5a
        E 192 81 39 00
        E 127 91 37 41
        E 67 81 37 00
        E 10 91 37 4c
        E 67 81 37 00
        E 9 91 39 58
        E 192 81 39 00
        E 70 91 39 61
        E 192 81 39 00
        E 50 91 39 61
        E 192 81 39 00
        E 38 91 39 5b
        E 89 91 37 3f
        E 67 81 37 00
        E 9 91 37 4a
        E 27 81 39 00
        E 40 81 37 00
        E 10 91 39 56
        E 192 81 39 00
        E 283 91 39 5a
        E 192 81 39 00
        E 122 91 37 53
        E 67 81 37 00
        E 10 91 37 5d
        E 67 81 37 00
        E 10 91 39 69
        E 192 81 39 00
        E 305 91 39 64
        E 192 81 39 00
        E 138 91 37 43
        E 67 81 37 00
        E 10 91 37 4d
        E 67 81 37 00
        E 9 91 39 5a
        E 192 81 39 00
        E 271 91 39 5a
        E 192 81 39 00
        E 135 91 37 4f
        E 67 81 37 00
        E 10 91 37 5a
        E 67 81 37 00
        E 9 91 39 64
        E 192 81 39 00
        E 45 91 39 5f
        E 192 81 39 00
        E 64 91 39 53
        E 192 81 39 00
        E 34 91 39 53
        E 90 91 37 3f
        E 67 81 37 00
        E 10 91 37 4a
        E 25 81 39 00
        E 42 81 37 00
        E 10 91 39 56
        E 192 81 39 00
        E 294 91 39 5f
        E 192 81 39 00
        E 149 91 37 4d
        E 67 81 37 00
        E 10 91 37 58
        E 67 81 37 00
        E 10 91 39 62
        E 192 81 39 00
        E 283 91 39 5d
        E 192 81 39 00
        E 113 91 34 46
        E 67 81 34 00
        E 10 91 37 51
        E 67 81 37 00
        E 10 91 37 5d
        E 192 81 37 00
        E 288 91 37 5b
        E 192 81 37 00
        E 138 91 34 41
        E 67 81 34 00
        E 10 91 37 4c
        E 67 81 37 00
        E 9 91 37 58
        E 192 81 37 00
        E 59 91 3b 5a
        E 192 81 3b 00
        E 42 91 3b 56
        E 192 81 3b 00
        E 66 91 40 5f
        E 73 91 3e 48
        E 67 81 3e 00
        E 10 91 3e 53
        E 42 81 40 00
        E 25 81 3e 00
        E 10 91 40 5f
        E 192 81 40 00
        E 298 91 40 53
        E 192 81 40 00
        E 134 91 3e 51
        E 67 81 3e 00
        E 10 91 3e 5b
        E 67 81 3e 00
        E 9 91 40 68
        E 192 81 40 00
        E 292 91 3b 5d
        E 192 81 3b 00
        E 111 91 3e 46
        E 67 81 3e 00
        E 10 91 3e 51
        E 67 81 3e 00
        E 9 91 40 5d
        E 192 81 40 00
        E 299 91 40 56
        E 192 81 40 00
        E 131 91 43 4f
        E 67 81 43 00
        E 10 91 43 5a
        E 67 81 43 00
        E 9 91 45 64
        E 192 81 45 00
        E 58 91 45 62
        E 192 81 45 00
        E 50 91 45 56
        E 192 81 45 00
        E 34 91 45 5f
        E 90 91 43 43
        E 67 81 43 00
        E 10 91 43 4d
        E 25 81 45 00
        E 42 81 43 00
        E 10 91 45 5a
        E 192 81 45 00
        E 295 91 45 58
        E 192 81 45 00
        E 129 91 43 4f
        E 67 81 43 00
        E 10 91 43 5a
        E 67 81 43 00
        E 10 91 45 64
        E 192 81 45 00
        E 278 91 45 61
        E 192 81 45 00
        E 135 91 43 53
        E 67 81 43 00
        E 10 91 43 5d
        E 67 81 43 00
        E 10 91 45 69
        E 192 81 45 00
        E 286 91 45 56
        E 192 81 45 00
        E 148 91 43 4a
        E 67 81 43 00
        E 10 91 43 54
        E 67 81 43 00
        E 10 91 45 61
        E 192 81 45 00
        E 45 91 45 54
        E 192 81 45 00
        E 47 91 45 64
        E 192 81 45 00
        E 62 91 45 6d
        E 71 91 43 51
        E 67 81 43 00
        E 10 91 43 5b
        E 44 81 45 00
        E 23 81 43 00
        E 10 91 45 68
        E 192 81 45 00
        E 285 91 45 54
        E 192 81 45 00
        E 149 91 43 43
        E 67 81 43 00
        E 10 91 43 4d
        E 67 81 43 00
        E 10 91 45 5a
        E 192 81 45 00
        E 284 91 45 62
        E 192 81 45 00
        E 128 91 43 56
        E 67 81 43 00
        E 10 91 43 61
        E 67 81 43 00
        E 9 91 45 6d
        E 192 81 45 00
        E 297 91 45 5d
        E 192 81 45 00
        E 120 91 43 48
        E 67 81 43 00
        E 10 91 43 53
        E 67 81 43 00
        E 10 91 45 5f
        E 192 81 45 00
        E 64 91 45 58
        E 192 81 45 00
        E 48 91 45 6b
        E 192 81 45 00
        E 26 91 45 5a
        E 88 91 43 45
        E 67 81 43 00
        E 10 91 43 4f
        E 27 81 45 00
        E 40 81 43 00
        E 10 91 45 5b
        E 192 81 45 00
        E 295 91 45 69
        E 192 81 45 00
        E 138 91 43 4a
        E 67 81 43 00
        E 10 91 43 54
        E 67 81 43 00
        E 10 91 45 61
        E 192 81 45 00
        E 273 91 45 69
        E 192 81 45 00
        E 147 91 43 58
        E 67 81 43 00
        E 10 91 43 62
        E 67 81 43 00
        E 9 91 45 6d
        E 192 81 45 00
        E 280 91 45 62
        E 192 81 45 00
        E 149 91 43 45
        E 67 81 43 00
        E 10 91 43 4f
        E 67 81 43 00
        E 9 91 45 5b
        E 192 81 45 00
        E 56 91 45 61
        E 192 81 45 00
        E 28 91 45 54
        E 192 81 45 00
        E 68 91 45 69
        E 77 91 43 45
        E 67 81 43 00
        E 10 91 43 4f
        E 38 81 45 00
        E 29 81 43 00
        E 9 91 45 5b
        E 192 81 45 00
        E 273 91 45 54
        E 192 81 45 00
        E 149 91 3e 3f
        E 67 81 3e 00
        E 10 91 3e 4a
        E 67 81 3e 00
        E 10 91 40 56
        E 192 81 40 00
        E 286 91 40 61
        E 192 81 40 00
        E 133 91 3e 48
        E 67 81 3e 00
        E 10 91 3e 53
        E 67 81 3e 00
        E 9 91 40 5f
        E 192 81 40 00
        E 296 91 3b 64
        E 192 81 3b 00
        E 141 91 39 4a
        E 67 81 39 00
        E 10 91 39 54
        E 67 81 39 00
        E 10 91 3b 61
        E 192 81 3b 00
        E 21 91 40 61
        E 192 81 40 00
        E 75 91 3b 56
        E 192 81 3b 00
        E 29 91 40 61
        E 105 91 39 41
        E 67 81 39 00
        E 10 91 39 4c
        E 10 81 40 00
        E 57 81 39 00
        E 10 91 3b 58
        E 192 81 3b 00
        E 286 91 3b 5a
        E 192 81 3b 00
        E 111 91 39 54
        E 67 81 39 00
        E 10 91 39 5f
        E 67 81 39 00
        E 9 91 3b 6b
        E 192 81 3b 00
        E 296 91 39 56
        E 192 81 39 00
        E 145 91 37 4f
        E 67 81 37 00
        E 10 91 37 5a
        E 67 81 37 00
        E 10 91 39 66
        E 192 81 39 00
        E 283 91 39 5a
        E 192 81 39 00
        E 121 91 37 3e
        E 67 81 37 00
        E 10 91 37 48
        E 67 81 37 00
        E 10 91 39 54
        E 192 81 39 00
        E 48 91 39 5f
        E 192 81 39 00
        E 47 91 39 6b
        E 192 81 39 00
        E 48 91 39 6b
        E 104 91 37 46
        E 67 81 37 00
        E 10 91 37 51
        E 11 81 39 00
        E 56 81 37 00
        E 10 91 39 5d
        E 192 81 39 00
        E 273 91 39 58
        E 192 81 39 00
        E 144 91 37 4c
        E 67 81 37 00
        E 10 91 37 56
        E 67 81 37 00
        E 10 91 39 62
        E 192 81 39 00
        E 277 91 39 5a
        E 192 81 39 00
        E 154 91 37 56
        E 67 81 37 00
        E 9 91 37 61
        E 67 81 37 00
        E 10 91 39 6d
        E 192 81 39 00
        E 289 91 39 69
        E 192 81 39 00
        E 126 91 37 53
        E 67 81 37 00
        E 10 91 37 5d
        E 67 81 37 00
        E 10 91 39 69
        E 192 81 39 00
        E 59 91 39 64
        E 192 81 39 00
        E 40 91 39 61
        E 192 81 39 00
        E 45 91 39 6b
        E 78 91 37 54
        E 67 81 37 00
        E 10 91 37 5f
        E 37 81 39 00
        E 30 81 37 00
        E 10 91 39 6b
        E 192 81 39 00
        E 281 91 39 56
        E 192 81 39 00
        E 147 91 37 3f
        E 67 81 37 00
        E 10 91 37 4a
        E 67 81 37 00
        E 10 91 39 56
        E 192 81 39 00
        E 299 91 39 62
        E 192 81 39 00
        E 122 91 37 41
        E 67 81 37 00
        E 10 91 37 4c
        E 67 81 37 00
        E 10 91 39 58
        E 192 81 39 00
        E 303 91 39 68
        E 192 81 39 00
        E 116 91 37 4a
        E 67 81 37 00
        E 10 91 37 54
        E 67 81 37 00
        E 9 91 39 61
        E 192 81 39 00
        E 67 91 39 5b
        E 192 81 39 00
        E 30 91 39 62
        E 192 81 39 00
        E 43 91 39 62
        E 96 91 37 41
        E 67 81 37 00
        E 10 91 37 4c
        E 19 81 39 00
        E 48 81 37 00
        E 10 91 39 58
        E 192 81 39 00
        E 298 91 39 5a
        E 192 81 39 00
        E 126 91 37 51
        E 67 81 37 00
        E 9 91 37 5b
        E 67 81 37 00
        E 10 91 39 68
        E 192 81 39 00
        E 277 91 39 5f
        E 192 81 39 00
        E 138 91 37 3e
        E 67 81 37 00
        E 10 91 37 48
        E 67 81 37 00
        E 9 91 39 54
        E 192 81 39 00
        E 306 91 39 69
        E 192 81 39 00
        E 115 91 37 54
        E 67 81 37 00
        E 10 91 37 5f
        E 67 81 37 00
        E 10 91 39 6b
        E 192 81 39 00
        E 49 91 39 5a
        E 192 81 39 00
        E 46 91 3b 6d
        E 192 81 3b 00
        E 58 91 3b 5a
        E 76 91 3e 3f
        E 67 81 3e 00
        E 10 91 3e 4a
        E 39 81 3b 00
        E 28 81 3e 00
        E 10 91 40 56
        E 192 81 40 00
        E 291 91 40 69
        E 192 81 40 00
        E 129 91 39 4c
        E 67 81 39 00
        E 10 91 39 56
        E 67 81 39 00
        E 9 91 3b 62
        E 192 81 3b 00
        E 314 91 3b 6d
        E 192 81 3b 00
        E 121 91 3e 46
        E 67 81 3e 00
        E 9 91 3e 51
        E 67 81 3e 00
        E 10 91 40 5d
        E 192 81 40 00
        E 293 91 40 61
        E 192 81 40 00
        E 119 91 39 51
        E 67 81 39 00
        E 10 91 39 5b
        E 67 81 39 00
        E 10 91 3b 68
        E 192 81 3b 00
        E 49 91 40 5b
        E 192 81 40 00
        E 52 91 3b 58
        E 192 81 3b 00
        E 59 91 3b 61
        E 68 91 3e 4a
        E 67 81 3e 00
        E 10 91 3e 54
        E 47 81 3b 00
        E 20 81 3e 00
        E 10 91 40 61
        E 192 81 40 00
        E 291 91 45 5a
        E 192 81 45 00
        E 152 91 43 4a
        E 67 81 43 00
        E 10 91 43 54
        E 67 81 43 00
        E 10 91 45 61
        E 192 81 45 00
        E 279 91 45 53
        E 192 81 45 00
        E 123 91 43 4f
        E 67 81 43 00
        E 10 91 43 5a
        E 67 81 43 00
        E 10 91 45 66
        E 192 81 45 00
        E 297 91 45 61
        E 192 81 45 00
        E 130 91 43 4d
        E 67 81 43 00
        E 10 91 43 58
        E 67 81 43 00
        E 9 91 45 62
        E 192 81 45 00
        E 45 91 45 68
        E 192 81 45 00
        E 44 91 45 68
        E 192 81 45 00
        E 54 91 45 6d
        E 88 91 43 48
        E 67 81 43 00
        E 10 91 43 53
        E 27 81 45 00
        E 40 81 43 00
        E 9 91 45 5f
        E 192 81 45 00
        E 289 91 45 64
        E 192 81 45 00
        E 152 91 43 56
        E 67 81 43 00
        E 10 91 43 61
        E 67 81 43 00
        E 9 91 45 6d
        E 192 81 45 00
        E 287 91 45 5f
        E 192 81 45 00
        E 111 91 43 3f
        E 67 81 43 00
        E 9 91 43 4a
        E 67 81 43 00
        E 10 91 45 56
        E 192 81 45 00
        E 308 91 45 6d
        E 192 81 45 00
        E 134 91 43 43
        E 67 81 43 00
        E 10 91 43 4d
        E 67 81 43 00
        E 10 91 45 5a
        E 192 81 45 00
        E 39 91 45 54
        E 192 81 45 00
        E 52 91 45 61
        E 192 81 45 00
        E 59 91 45 6d
        E 67 91 43 48
        E 67 81 43 00
        E 10 91 43 53
        E 48 81 45 00
        E 19 81 43 00
        E 10 91 45 5f
        E 192 81 45 00
        E 285 91 45 6d
        E 192 81 45 00
        E 147 91 43 45
        E 67 81 43 00
        E 9 91 43 4f
        E 67 81 43 00
        E 10 91 45 5b
        E 192 81 45 00
        E 289 91 45 5a
        E 192 81 45 00
        E 130 91 43 51
        E 67 81 43 00
        E 9 91 43 5b
        E 67 81 43 00
        E 10 91 45 68
        E 192 81 45 00
        E 276 91 45 56
        E 192 81 45 00
        E 144 91 43 4f
        E 67 81 43 00
        E 10 91 43 5a
        E 67 81 43 00
        E 10 91 45 66
        E 192 81 45 00
        E 53 91 45 66
        E 192 81 45 00
        E 48 91 45 6d
        E 192 81 45 00
        E 55 91 45 54
        E 67 91 43 51
        E 67 81 43 00
        E 9 91 43 5b
        E 49 81 45 00
        E 18 81 43 00
        E 10 91 45 68
        E 192 81 45 00
        E 314 91 45 6d
        E 192 81 45 00
        E 125 91 43 4f
        E 67 81 43 00
        E 10 91 43 5a
        E 67 81 43 00
        E 10 91 45 64
        E 192 81 45 00
        E 274 91 45 64
        E 192 81 45 00
        E 155 91 43 3e
        E 67 81 43 00
        E 10 91 43 48
        E 67 81 43 00
        E 10 91 45 54
        E 192 81 45 00
        E 272 91 47 5b
        E 192 81 47 00
        E 136 91 4a 4f
        E 67 81 4a 00
        E 10 91 4a 5a
        E 67 81 4a 00
        E 9 91 4c 66
        E 192 81 4c 00
        E 48 91 4c 5f
        E 192 81 4c 00
        E 57 91 4c 5d
        E 192 81 4c 00
        E 34 91 4c 54
        E 81 91 4a 51
        E 67 81 4a 00
        E 9 91 4a 5b
        E 35 81 4c 00
        E 32 81 4a 00
        E 10 91 4c 68
        E 192 81 4c 00
        E 291 91 47 61
        E 192 81 47 00
        E 137 91 45 3e
        E 67 81 45 00
        E 9 91 45 48
        E 67 81 45 00
        E 10 91 47 54
        E 192 81 47 00
        E 298 91 4c 62
        E 192 81 4c 00
        E 139 91 4a 46
        E 67 81 4a 00
        E 10 91 4a 51
        E 67 81 4a 00
        E 9 91 4c 5d
        E 192 81 4c 00
        E 283 91 47 58
        E 192 81 47 00
        E 130 91 43 4a
        E 67 81 43 00
        E 10 91 43 54
        E 67 81 43 00
        E 10 91 45 61
        E 192 81 45 00
        E 47 91 45 5d
        E 192 81 45 00
        E 39 91 45 66
        E 192 81 45 00
        E 71 91 45 6d
        E 68 91 43 4c
        E 67 81 43 00
        E 10 91 43 56
        E 47 81 45 00
        E 20 81 43 00
        E 9 91 45 62
        E 192 81 45 00
        E 297 91 45 61
        E 192 81 45 00
        E 126 91 43 46
        E 67 81 43 00
        E 10 91 43 51
        E 67 81 43 00
        E 10 91 45 5d
        E 192 81 45 00
        E 309 91 45 64
        E 192 81 45 00
        E 110 91 43 43
        E 67 81 43 00
        E 9 91 43 4d
        E 67 81 43 00
        E 10 91 45 5a
        E 192 81 45 00
        E 305 91 45 5d
        E 192 81 45 00
        E 119 91 43 53
        E 67 81 43 00
        E 10 91 43 5d
        E 67 81 43 00
        E 10 91 45 69
        E 192 81 45 00
        E 47 91 45 5a
        E 192 81 45 00
        E 59 91 45 68
        E 192 81 45 00
        E 43 91 45 68
        E 99 91 43 4f
        E 67 81 43 00
        E 9 91 43 5a
        E 17 81 45 00
        E 50 81 43 00
        E 10 91 45 64
        E 192 81 45 00
        E 293 91 45 61
        E 192 81 45 00
        E 127 91 43 54
        E 67 81 43 00
        E 9 91 43 5f
        E 67 81 43 00
        E 10 91 45 6b
        E 192 81 45 00
        E 298 91 45 61
        E 192 81 45 00
        E 129 91 43 54
        E 67 81 43 00
        E 10 91 43 5f
        E 67 81 43 00
        E 10 91 45 6b
        E 192 81 45 00
        E 289 91 45 62
        E 192 81 45 00
        E 122 91 43 4f
        E 67 81 43 00
        E 10 91 43 5a
        E 67 81 43 00
        E 10 91 45 64
        E 192 81 45 00
        E 37 91 45 54
        E 192 81 45 00
        E 50 91 45 5f
        E 192 81 45 00
        E 47 91 45 62
        E 94 91 43 53
        E 67 81 43 00
        E 10 91 43 5d
        E 21 81 45 00
        E 46 81 43 00
        E 10 91 45 69
        E 192 81 45 00
        E 286 91 45 61
        E 192 81 45 00
        E 148 91 43 4f
        E 67 81 43 00
        E 10 91 43 5a
        E 67 81 43 00
        E 10 91 45 66
        E 192 81 45 00
        E 284 91 45 53
        E 192 81 45 00
        E 144 91 43 54
        E 67 81 43 00
        E 10 91 43 5f
        E 67 81 43 00
        E 9 91 45 6b
        E 192 81 45 00
        E 290 91 45 5a
        E 192 81 45 00
        E 125 91 43 4c
        E 67 81 43 00
        E 10 91 43 56
        E 67 81 43 00
        E 10 91 45 62
        E 192 81 45 00
        E 36 91 45 5b
        E 192 81 45 00
        E 53 91 45 5a
        E 192 81 45 00
        E 41 91 45 6d
        E 90 91 43 46
        E 67 81 43 00
        E 10 91 43 51
        E 25 81 45 00
        E 42 81 43 00
        E 9 91 45 5d
        E 192 81 45 00
        E 282 91 45 58
        E 192 81 45 00
        E 153 91 3e 46
        E 67 81 3e 00
        E 10 91 3e 51
        E 67 81 3e 00
        E 10 91 40 5d
        E 192 81 40 00
        E 274 91 3b 5d
        E 192 81 3b 00
        E 130 91 3e 41
        E 67 81 3e 00
        E 10 91 3e 4c
        E 67 81 3e 00
        E 10 91 40 58
        E 192 81 40 00
        E 313 91 3b 64
        E 192 81 3b 00
        E 120 91 39 53
        E 67 81 39 00
        E 10 91 39 5d
        E 67 81 39 00
        E 10 91 3b 69
        E 192 81 3b 00
        E 43 91 40 54
        E 192 81 40 00
        E 66 91 40 5b
        E 192 81 40 00
        E 39 91 40 64
        E 80 91 3e 4f
        E 67 81 3e 00
        E 10 91 3e 5a
        E 35 81 40 00
        E 32 81 3e 00
        E 10 91 40 64
        E 192 81 40 00
        E 299 91 40 6d
        E 192 81 40 00
        E 136 91 3e 3e
        E 67 81 3e 00
        E 10 91 3e 48
        E 67 81 3e 00
        E 10 91 40 54
        E 192 81 40 00
        E 264 91 40 5b
        E 192 81 40 00
        E 135 91 43 4f
        E 67 81 43 00
        E 10 91 43 5a
        E 67 81 43 00
        E 10 91 45 64
        E 192 81 45 00
        E 296 91 45 58
        E 192 81 45 00
        E 147 91 43 4c
        E 67 81 43 00
        E 10 91 43 56
        E 67 81 43 00
        E 10 91 45 62
        E 192 81 45 00
        E 36 91 45 6b
        E 192 81 45 00
        E 42 91 45 54
        E 192 81 45 00
        E 55 91 45 5a
        E 101 91 43 3c
        E 67 81 43 00
        E 10 91 43 46
        E 14 81 45 00
        E 53 81 43 00
        E 9 91 45 53
        E 192 81 45 00
        E 279 91 45 5a
        E 192 81 45 00
        E 137 91 43 58
        E 67 81 43 00
        E 10 91 43 62
        E 67 81 43 00
        E 10 91 45 6d
        E 192 81 45 00
        E 293 91 45 56
        E 192 81 45 00
        E 138 91 43 43
        E 67 81 43 00
        E 9 91 43 4d
        E 67 81 43 00
        E 10 91 45 5a
        E 192 81 45 00
        E 287 91 45 68
        E 192 81 45 00
        E 111 91 43 45
        E 67 81 43 00
        E 10 91 43 4f
        E 67 81 43 00
        E 10 91 45 5b
        E 192 81 45 00
        E 58 91 45 62
        E 192 81 45 00
        E 61 91 45 53
        E 192 81 45 00
        E 29 91 45 5a
        E 106 91 43 46
        E 67 81 43 00
        E 10 91 43 51
        E 9 81 45 00
        E 58 81 43 00
        E 10 91 45 5d
        E 192 81 45 00
        E 266 91 45 62
        E 192 81 45 00
        E 141 91 43 43
        E 67 81 43 00
        E 10 91 43 4d
        E 67 81 43 00
        E 10 91 45 5a
        E 192 81 45 00
        E 295 91 45 5d
        E 192 81 45 00
        E 135 91 43 3e
        E 67 81 43 00
        E 10 91 43 48
        E 67 81 43 00
        E 10 91 45 54
        E 192 81 45 00
        E 269 91 45 62
        E 192 81 45 00
        E 156 91 43 3e
        E 67 81 43 00
        E 10 91 43 48
        E 67 81 43 00
        E 9 91 45 54
        E 192 81 45 00
        E 48 91 45 62
        E 192 81 45 00
        E 36 91 45 64
        E 192 81 45 00
        E 42 91 45 69
        E 91 91 43 4a
        E 67 81 43 00
        E 10 91 43 54
        E 24 81 45 00
        E 43 81 43 00
        E 9 91 45 61
        E 192 81 45 00
        E 305 91 45 5a
        E 192 81 45 00
        E 127 91 43 48
        E 67 81 43 00
        E 9 91 43 53
        E 67 81 43 00
        E 10 91 45 5f
        E 192 81 45 00
        E 271 91 45 6d
        E 192 81 45 00
        E 137 91 43 45
        E 67 81 43 00
        E 10 91 43 4f
        E 67 81 43 00
        E 10 91 45 5a
        E 192 81 45 00
        E 285 91 45 5a
        E 192 81 45 00
        E 138 91 43 45
        E 67 81 43 00
        E 10 91 43 4f
        E 67 81 43 00
        E 9 91 45 5b
        E 192 81 45 00
        E 59 91 45 5d
        E 192 81 45 00
        E 36 91 45 6b
        E 192 81 45 00
        E 51 91 40 64
        E 85 91 39 3e
        E 67 81 39 00
        E 10 91 39 48
        E 30 81 40 00
        E 37 81 39 00
        E 10 91 3b 54
        E 192 81 3b 00
        E 296 91 40 5f
        E 192 81 40 00
        E 135 91 39 3e
        E 67 81 39 00
        E 10 91 39 48
        E 67 81 39 00
        E 10 91 3b 54
        E 192 81 3b 00
        E 275 91 3b 62
        E 192 81 3b 00
        E 158 91 3e 3c
        E 67 81 3e 00
        E 10 91 3e 46
        E 67 81 3e 00
        E 10 91 40 53
        E 192 81 40 00
        E 266 91 3b 68
        E 192 81 3b 00
        E 136 91 39 4a
        E 67 81 39 00
        E 10 91 39 54
        E 67 81 39 00
        E 10 91 3b 61
        E 192 81 3b 00
        E 48 91 3b 54
        E 192 81 3b 00
        E 68 91 3b 5a
        E 192 81 3b 00
        E 46 91 40 61
        E 88 91 3e 4c
        E 67 81 3e 00
        E 10 91 3e 56
        E 27 81 40 00
        E 40 81 3e 00
        E 10 91 40 62
        E 192 81 40 00
        E 263 91 45 66
        E 192 81 45 00
        E 160 91 43 45
        E 67 81 43 00
        E 10 91 43 4f
        E 67 81 43 00
        E 9 91 45 5a
        E 192 81 45 00
        E 264 91 45 62
        E 192 81 45 00
        E 142 91 43 3e
        E 67 81 43 00
        E 10 91 43 48
        E 67 81 43 00
        E 9 91 45 54
        E 192 81 45 00
        E 286 91 45 68
        E 192 81 45 00
        E 136 91 43 3f
        E 67 81 43 00
        E 10 91 43 4a
        E 67 81 43 00
        E 10 91 45 56
        E 192 81 45 00
        E 60 91 45 6b
        E 192 81 45 00
        E 30 91 45 5b
        E 192 81 45 00
        E 62 91 45 68
        E 91 91 43 41
        E 67 81 43 00
        E 10 91 43 4c
        E 24 81 45 00
        E 43 81 43 00
        E 10 91 45 58
        E 192 81 45 00
        E 283 91 45 64
        E 192 81 45 00
        E 0 b1 7b 00
        E 1 ff 2f 00
      >
    >
  >
  <TRACK
    NAME "wind_machine"
    PEAKCOL 4284506208
    VOLPAN 1.000000 0 1 -1
    MIDIOUT -1
    ISBUS 0 0
    <ITEM
      POSITION 0.000000
      LENGTH 179.987500
      NAME "wind_machine"
      VOLPAN 1 0 1 -1
      <SOURCE MIDI
        HASDATA 1 960 QN
        E 0 c2 7a 00
        E 0 92 53 38
        E 4410 82 53 00
        E 90 92 53 38
        E 4410 82 53 00
        E 90 92 53 38
        E 4410 82 53 00
        E 90 92 53 38
        E 4410 82 53 00
        E 90 92 53 38
        E 4410 82 53 00
        E 90 92 53 38
        E 4410 82 53 00
        E 90 92 53 38
        E 4410 82 53 00
        E 90 92 53 38
        E 4410 82 53 00
        E 90 92 53 38
        E 4410 82 53 00
        E 90 92 53 38
        E 4410 82 53 00
        E 90 92 53 38
        E 4410 82 53 00
        E 90 92 53 38
        E 4410 82 53 00
        E 90 92 53 38
        E 4410 82 53 00
        E 90 92 53 38
        E 4410 82 53 00
        E 90 92 53 38
        E 4410 82 53 00
        E 90 92 53 38
        E 4410 82 53 00
        E 90 92 53 38
        E 4410 82 53 00
        E 90 92 53 38
        E 4410 82 53 00
        E 90 92 53 38
        E 4410 82 53 00
        E 90 92 53 38
        E 4410 82 53 00
        E 90 92 53 38
        E 4410 82 53 00
        E 90 92 53 38
        E 4410 82 53 00
        E 90 92 53 38
        E 4410 82 53 00
        E 90 92 53 38
        E 4410 82 53 00
        E 90 92 53 38
        E 4410 82 53 00
        E 90 92 53 38
        E 4410 82 53 00
        E 90 92 53 38
        E 4410 82 53 00
        E 90 92 53 38
        E 4410 82 53 00
        E 90 92 53 38
        E 4410 82 53 00
        E 90 92 53 38
        E 4410 82 53 00
        E 90 92 53 38
        E 4410 82 53 00
        E 90 92 53 38
        E 4410 82 53 00
        E 0 b2 7b 00
        E 1 ff 2f 00
      >
    >
  >
  <TRACK
    NAME "shaker_perc"
    PEAKCOL 4290722362
    VOLPAN 1.000000 0 1 -1
    MIDIOUT -1
    ISBUS 0 0
    <ITEM
      POSITION 0.000000
      LENGTH 179.950000
      NAME "shaker_perc"
      VOLPAN 1 0 1 -1
      <SOURCE MIDI
        HASDATA 1 960 QN
        E 0 c9 00 00
        E 0 99 45 43
        E 360 89 45 00
        E 1080 99 45 27
        E 360 89 45 00
        E 120 99 45 45
        E 360 89 45 00
        E 600 99 45 3e
        E 360 89 45 00
        E 120 99 45 2c
        E 360 89 45 00
        E 120 99 45 3e
        E 360 89 45 00
        E 120 99 45 27
        E 360 89 45 00
        E 120 99 45 41
        E 360 89 45 00
        E 120 99 45 28
        E 360 89 45 00
        E 120 99 45 43
        E 360 89 45 00
        E 120 99 45 27
        E 360 89 45 00
        E 120 99 45 43
        E 360 89 45 00
        E 600 99 45 45
        E 360 89 45 00
        E 120 99 45 27
        E 360 89 45 00
        E 600 99 45 28
        E 360 89 45 00
        E 120 99 45 41
        E 360 89 45 00
        E 120 99 45 28
        E 360 89 45 00
        E 1080 99 45 45
        E 360 89 45 00
        E 120 99 45 31
        E 360 89 45 00
        E 120 99 45 46
        E 360 89 45 00
        E 120 99 45 2f
        E 360 89 45 00
        E 120 99 45 3f
        E 360 89 45 00
        E 120 99 45 2a
        E 360 89 45 00
        E 120 99 45 41
        E 360 89 45 00
        E 120 99 45 2f
        E 360 89 45 00
        E 600 99 45 2e
        E 360 89 45 00
        E 120 99 45 3e
        E 360 89 45 00
        E 120 99 45 2c
        E 360 89 45 00
        E 600 99 45 2c
        E 360 89 45 00
        E 120 99 45 48
        E 360 89 45 00
        E 120 99 45 27
        E 360 89 45 00
        E 120 99 45 48
        E 360 89 45 00
        E 120 99 45 2e
        E 360 89 45 00
        E 120 99 45 3e
        E 360 89 45 00
        E 120 99 45 28
        E 360 89 45 00
        E 120 99 45 3f
        E 360 89 45 00
        E 120 99 45 28
        E 360 89 45 00
        E 120 99 45 3f
        E 360 89 45 00
        E 600 99 45 45
        E 360 89 45 00
        E 120 99 45 2e
        E 360 89 45 00
        E 120 99 45 46
        E 360 89 45 00
        E 120 99 45 28
        E 360 89 45 00
        E 1080 99 45 45
        E 360 89 45 00
        E 120 99 45 2a
        E 360 89 45 00
        E 120 99 45 3e
        E 360 89 45 00
        E 120 99 45 2c
        E 360 89 45 00
        E 120 99 45 45
        E 360 89 45 00
        E 120 99 45 31
        E 360 89 45 00
        E 120 99 45 43
        E 360 89 45 00
        E 120 99 45 2c
        E 360 89 45 00
        E 600 99 45 2f
        E 360 89 45 00
        E 120 99 45 3f
        E 360 89 45 00
        E 120 99 45 2c
        E 360 89 45 00
        E 120 99 45 45
        E 360 89 45 00
        E 120 99 45 2e
        E 360 89 45 00
        E 120 99 45 41
        E 360 89 45 00
        E 120 99 45 2e
        E 360 89 45 00
        E 120 99 45 3f
        E 360 89 45 00
        E 120 99 45 27
        E 360 89 45 00
        E 600 99 45 27
        E 360 89 45 00
        E 120 99 45 41
        E 360 89 45 00
        E 120 99 45 2a
        E 360 89 45 00
        E 120 99 45 45
        E 360 89 45 00
        E 120 99 45 2c
        E 360 89 45 00
        E 120 99 45 3e
        E 360 89 45 00
        E 120 99 45 28
        E 360 89 45 00
        E 120 99 45 3e
        E 360 89 45 00
        E 120 99 45 27
        E 360 89 45 00
        E 120 99 45 45
        E 360 89 45 00
        E 120 99 45 27
        E 360 89 45 00
        E 120 99 45 43
        E 360 89 45 00
        E 120 99 45 31
        E 360 89 45 00
        E 120 99 45 46
        E 360 89 45 00
        E 120 99 45 2e
        E 360 89 45 00
        E 120 99 45 41
        E 360 89 45 00
        E 600 99 45 43
        E 360 89 45 00
        E 120 99 45 25
        E 360 89 45 00
        E 120 99 45 3f
        E 360 89 45 00
        E 120 99 45 2c
        E 360 89 45 00
        E 120 99 45 3f
        E 360 89 45 00
        E 120 99 45 2c
        E 360 89 45 00
        E 120 99 45 41
        E 360 89 45 00
        E 120 99 45 28
        E 360 89 45 00
        E 120 99 45 43
        E 360 89 45 00
        E 120 99 45 2f
        E 360 89 45 00
        E 120 99 45 46
        E 360 89 45 00
        E 120 99 45 2e
        E 360 89 45 00
        E 120 99 45 43
        E 360 89 45 00
        E 120 99 45 2f
        E 360 89 45 00
        E 120 99 45 3e
        E 360 89 45 00
        E 120 99 45 27
        E 360 89 45 00
        E 120 99 45 3e
        E 360 89 45 00
        E 120 99 45 2c
        E 360 89 45 00
        E 120 99 45 3c
        E 360 89 45 00
        E 120 99 45 2c
        E 360 89 45 00
        E 600 99 45 2a
        E 360 89 45 00
        E 120 99 45 46
        E 360 89 45 00
        E 120 99 45 2c
        E 360 89 45 00
        E 120 99 45 3c
        E 360 89 45 00
        E 120 99 45 28
        E 360 89 45 00
        E 600 99 45 2c
        E 360 89 45 00
        E 600 99 45 2a
        E 360 89 45 00
        E 120 99 45 3c
        E 360 89 45 00
        E 120 99 45 25
        E 360 89 45 00
        E 120 99 45 43
        E 360 89 45 00
        E 120 99 45 2e
        E 360 89 45 00
        E 120 99 45 43
        E 360 89 45 00
        E 600 99 45 41
        E 360 89 45 00
        E 120 99 45 2c
        E 360 89 45 00
        E 120 99 45 3e
        E 360 89 45 00
        E 120 99 45 25
        E 360 89 45 00
        E 120 99 45 3c
        E 360 89 45 00
        E 120 99 45 27
        E 360 89 45 00
        E 120 99 45 3f
        E 360 89 45 00
        E 120 99 45 2c
        E 360 89 45 00
        E 120 99 45 41
        E 360 89 45 00
        E 600 99 45 45
        E 360 89 45 00
        E 120 99 45 2c
        E 360 89 45 00
        E 120 99 45 46
        E 360 89 45 00
        E 120 99 45 2c
        E 360 89 45 00
        E 120 99 45 41
        E 360 89 45 00
        E 120 99 45 2a
        E 360 89 45 00
        E 120 99 45 43
        E 360 89 45 00
        E 120 99 45 31
        E 360 89 45 00
        E 120 99 45 3e
        E 360 89 45 00
        E 120 99 45 2f
        E 360 89 45 00
        E 120 99 45 41
        E 360 89 45 00
        E 120 99 45 2f
        E 360 89 45 00
        E 600 99 45 2e
        E 360 89 45 00
        E 120 99 45 3f
        E 360 89 45 00
        E 600 99 45 48
        E 360 89 45 00
        E 120 99 45 28
        E 360 89 45 00
        E 120 99 45 3f
        E 360 89 45 00
        E 600 99 45 3f
        E 360 89 45 00
        E 120 99 45 27
        E 360 89 45 00
        E 600 99 45 25
        E 360 89 45 00
        E 120 99 45 48
        E 360 89 45 00
        E 120 99 45 27
        E 360 89 45 00
        E 120 99 45 43
        E 360 89 45 00
        E 600 99 45 45
        E 360 89 45 00
        E 120 99 45 2f
        E 360 89 45 00
        E 600 99 45 27
        E 360 89 45 00
        E 120 99 45 43
        E 360 89 45 00
        E 600 99 45 43
        E 360 89 45 00
        E 600 99 45 43
        E 360 89 45 00
        E 120 99 45 2c
        E 360 89 45 00
        E 120 99 45 3c
        E 360 89 45 00
        E 600 99 45 45
        E 360 89 45 00
        E 120 99 45 28
        E 360 89 45 00
        E 120 99 45 3e
        E 360 89 45 00
        E 600 99 45 3e
        E 360 89 45 00
        E 120 99 45 2c
        E 360 89 45 00
        E 120 99 45 46
        E 360 89 45 00
        E 120 99 45 27
        E 360 89 45 00
        E 120 99 45 3c
        E 360 89 45 00
        E 600 99 45 3c
        E 360 89 45 00
        E 120 99 45 2e
        E 360 89 45 00
        E 120 99 45 45
        E 360 89 45 00
        E 120 99 45 2a
        E 360 89 45 00
        E 120 99 45 45
        E 360 89 45 00
        E 600 99 45 3f
        E 360 89 45 00
        E 120 99 45 2a
        E 360 89 45 00
        E 120 99 45 41
        E 360 89 45 00
        E 120 99 45 27
        E 360 89 45 00
        E 120 99 45 45
        E 360 89 45 00
        E 120 99 45 27
        E 360 89 45 00
        E 120 99 45 46
        E 360 89 45 00
        E 120 99 45 25
        E 360 89 45 00
        E 600 99 45 27
        E 360 89 45 00
        E 120 99 45 46
        E 360 89 45 00
        E 120 99 45 25
        E 360 89 45 00
        E 120 99 45 48
        E 360 89 45 00
        E 120 99 45 25
        E 360 89 45 00
        E 1080 99 45 3c
        E 360 89 45 00
        E 120 99 45 27
        E 360 89 45 00
        E 120 99 45 46
        E 360 89 45 00
        E 120 99 45 2f
        E 360 89 45 00
        E 120 99 45 46
        E 360 89 45 00
        E 120 99 45 27
        E 360 89 45 00
        E 120 99 45 46
        E 360 89 45 00
        E 120 99 45 2e
        E 360 89 45 00
        E 120 99 45 3c
        E 360 89 45 00
        E 120 99 45 2f
        E 360 89 45 00
        E 600 99 45 2f
        E 360 89 45 00
        E 600 99 45 2f
        E 360 89 45 00
        E 600 99 45 2a
        E 360 89 45 00
        E 120 99 45 46
        E 360 89 45 00
        E 120 99 45 27
        E 360 89 45 00
        E 120 99 45 45
        E 360 89 45 00
        E 600 99 45 43
        E 360 89 45 00
        E 120 99 45 2c
        E 360 89 45 00
        E 120 99 45 3f
        E 360 89 45 00
        E 120 99 45 27
        E 360 89 45 00
        E 120 99 45 43
        E 360 89 45 00
        E 120 99 45 2f
        E 360 89 45 00
        E 120 99 45 46
        E 360 89 45 00
        E 120 99 45 2c
        E 360 89 45 00
        E 600 99 45 27
        E 360 89 45 00
        E 120 99 45 3f
        E 360 89 45 00
        E 1080 99 45 2c
        E 360 89 45 00
        E 120 99 45 48
        E 360 89 45 00
        E 120 99 45 2f
        E 360 89 45 00
        E 120 99 45 41
        E 360 89 45 00
        E 120 99 45 27
        E 360 89 45 00
        E 600 99 45 2f
        E 360 89 45 00
        E 600 99 45 28
        E 360 89 45 00
        E 600 99 45 2c
        E 360 89 45 00
        E 1560 99 45 25
        E 360 89 45 00
        E 600 99 45 2a
        E 360 89 45 00
        E 120 99 45 43
        E 360 89 45 00
        E 120 99 45 27
        E 360 89 45 00
        E 120 99 45 41
        E 360 89 45 00
        E 120 99 45 28
        E 360 89 45 00
        E 120 99 45 46
        E 360 89 45 00
        E 1080 99 45 2f
        E 360 89 45 00
        E 120 99 45 45
        E 360 89 45 00
        E 600 99 45 43
        E 360 89 45 00
        E 120 99 45 27
        E 360 89 45 00
        E 120 99 45 3e
        E 360 89 45 00
        E 120 99 45 28
        E 360 89 45 00
        E 120 99 45 48
        E 360 89 45 00
        E 120 99 45 2f
        E 360 89 45 00
        E 120 99 45 43
        E 360 89 45 00
        E 120 99 45 25
        E 360 89 45 00
        E 120 99 45 3e
        E 360 89 45 00
        E 120 99 45 31
        E 360 89 45 00
        E 1080 99 45 3e
        E 360 89 45 00
        E 120 99 45 27
        E 360 89 45 00
        E 120 99 45 3c
        E 360 89 45 00
        E 120 99 45 2f
        E 360 89 45 00
        E 120 99 45 45
        E 360 89 45 00
        E 600 99 45 41
        E 360 89 45 00
        E 120 99 45 27
        E 360 89 45 00
        E 120 99 45 43
        E 360 89 45 00
        E 120 99 45 2f
        E 360 89 45 00
        E 600 99 45 27
        E 360 89 45 00
        E 600 99 45 27
        E 360 89 45 00
        E 120 99 45 3f
        E 360 89 45 00
        E 120 99 45 2f
        E 360 89 45 00
        E 120 99 45 3e
        E 360 89 45 00
        E 120 99 45 2a
        E 360 89 45 00
        E 120 99 45 46
        E 360 89 45 00
        E 120 99 45 2e
        E 360 89 45 00
        E 0 b9 7b 00
        E 1 ff 2f 00
      >
    >
  >
>
