<REAPER_PROJECT 0.1 "7.0" 1700000000
  TEMPO 44.000000 4 4
  SAMPLERATE 48000 0 0
  RENDER_FILE ""
  RENDER_FMT 0 2 0
  RENDER_1X 0
  RENDER_RANGE 1 0 219.939395 0 0
  RENDER_RESAMPLE 3 0 1
  <MASTERTRACK
    VOLPAN 1 0 1 -1
    DEFCHAN 0
  >
  <TRACK
    NAME "glass_harp"
    PEAKCOL 4290756410
    VOLPAN 1.000000 0 1 -1
    MIDIOUT -1
    ISBUS 0 0
    <ITEM
      POSITION 0.000000
      LENGTH 218.039395
      NAME "glass_harp"
      VOLPAN 1 0 1 -1
      <SOURCE MIDI
        HASDATA 1 960 QN
        E 0 c0 62 00
        E 0 90 45 4d
        E 0 90 4a 4d
        E 0 90 4d 4d
        E 4096 80 45 00
        E 0 80 4a 00
        E 0 80 4d 00
        E 171 90 45 4d
        E 0 90 4a 4d
        E 0 90 4d 4d
        E 4096 80 45 00
        E 0 80 4a 00
        E 0 80 4d 00
        E 170 90 45 4d
        E 0 90 46 4d
        E 0 90 4c 4d
        E 4096 80 45 00
        E 0 80 46 00
        E 0 80 4c 00
        E 171 90 46 4d
        E 0 90 4a 4d
        E 0 90 4d 4d
        E 4096 80 46 00
        E 0 80 4a 00
        E 0 80 4d 00
        E 171 90 45 4d
        E 0 90 4a 4d
        E 0 90 4d 4d
        E 4096 80 45 00
        E 0 80 4a 00
        E 0 80 4d 00
        E 170 90 45 4d
        E 0 90 4a 4d
        E 0 90 4d 4d
        E 4096 80 45 00
        E 0 80 4a 00
        E 0 80 4d 00
        E 171 90 45 4d
        E 0 90 4a 4d
        E 0 90 4d 4d
        E 4096 80 45 00
        E 0 80 4a 00
        E 0 80 4d 00
        E 171 90 41 4d
        E 0 90 46 4d
        E 0 90 4c 4d
        E 4096 80 41 00
        E 0 80 46 00
        E 0 80 4c 00
        E 170 90 45 4d
        E 0 90 4a 4d
        E 0 90 4d 4d
        E 4096 80 45 00
        E 0 80 4a 00
        E 0 80 4d 00
        E 171 90 45 4d
        E 0 90 46 4d
        E 0 90 4c 4d
        E 4096 80 45 00
        E 0 80 46 00
        E 0 80 4c 00
        E 171 90 46 4d
        E 0 90 4a 4d
        E 0 90 4d 4d
        E 4096 80 46 00
        E 0 80 4a 00
        E 0 80 4d 00
        E 170 90 45 4d
        E 0 90 4a 4d
        E 0 90 4d 4d
        E 4096 80 45 00
        E 0 80 4a 00
        E 0 80 4d 00
        E 171 90 45 4d
        E 0 90 4a 4d
        E 0 90 4d 4d
        E 4096 80 45 00
        E 0 80 4a 00
        E 0 80 4d 00
        E 171 90 45 4d
        E 0 90 4a 4d
        E 0 90 4d 4d
        E 4096 80 45 00
        E 0 80 4a 00
        E 0 80 4d 00
        E 170 90 41 4d
        E 0 90 46 4d
        E 0 90 4c 4d
        E 4096 80 41 00
        E 0 80 46 00
        E 0 80 4c 00
        E 171 90 45 4d
        E 0 90 4a 4d
        E 0 90 4d 4d
        E 4096 80 45 00
        E 0 80 4a 00
        E 0 80 4d 00
        E 171 90 45 4d
        E 0 90 46 4d
        E 0 90 4c 4d
        E 4096 80 45 00
        E 0 80 46 00
        E 0 80 4c 00
        E 170 90 46 4d
        E 0 90 4a 4d
        E 0 90 4d 4d
        E 4096 80 46 00
        E 0 80 4a 00
        E 0 80 4d 00
        E 171 90 45 4d
        E 0 90 4a 4d
        E 0 90 4d 4d
        E 4096 80 45 00
        E 0 80 4a 00
        E 0 80 4d 00
        E 171 90 45 4d
        E 0 90 4a 4d
        E 0 90 4d 4d
        E 4096 80 45 00
        E 0 80 4a 00
        E 0 80 4d 00
        E 170 90 45 4d
        E 0 90 4a 4d
        E 0 90 4d 4d
        E 4096 80 45 00
        E 0 80 4a 00
        E 0 80 4d 00
        E 171 90 41 4d
        E 0 90 46 4d
        E 0 90 4c 4d
        E 4096 80 41 00
        E 0 80 46 00
        E 0 80 4c 00
        E 171 90 45 4d
        E 0 90 4a 4d
        E 0 90 4d 4d
        E 4096 80 45 00
        E 0 80 4a 00
        E 0 80 4d 00
        E 170 90 45 4d
        E 0 90 46 4d
        E 0 90 4c 4d
        E 4096 80 45 00
        E 0 80 46 00
        E 0 80 4c 00
        E 171 90 46 4d
        E 0 90 4a 4d
        E 0 90 4d 4d
        E 4096 80 46 00
        E 0 80 4a 00
        E 0 80 4d 00
        E 171 90 45 4d
        E 0 90 4a 4d
        E 0 90 4d 4d
        E 4096 80 45 00
        E 0 80 4a 00
        E 0 80 4d 00
        E 170 90 45 4d
        E 0 90 4a 4d
        E 0 90 4d 4d
        E 4096 80 45 00
        E 0 80 4a 00
        E 0 80 4d 00
        E 171 90 45 4d
        E 0 90 4a 4d
        E 0 90 4d 4d
        E 4096 80 45 00
        E 0 80 4a 00
        E 0 80 4d 00
        E 171 90 41 4d
        E 0 90 46 4d
        E 0 90 4c 4d
        E 4096 80 41 00
        E 0 80 46 00
        E 0 80 4c 00
        E 170 90 45 4d
        E 0 90 4a 4d
        E 0 90 4d 4d
        E 4096 80 45 00
        E 0 80 4a 00
        E 0 80 4d 00
        E 171 90 45 4d
        E 0 90 46 4d
        E 0 90 4c 4d
        E 4096 80 45 00
        E 0 80 46 00
        E 0 80 4c 00
        E 171 90 46 4d
        E 0 90 4a 4d
        E 0 90 4d 4d
        E 4096 80 46 00
        E 0 80 4a 00
        E 0 80 4d 00
        E 170 90 45 4d
        E 0 90 4a 4d
        E 0 90 4d 4d
        E 4096 80 45 00
        E 0 80 4a 00
        E 0 80 4d 00
        E 171 90 45 4d
        E 0 90 4a 4d
        E 0 90 4d 4d
        E 4096 80 45 00
        E 0 80 4a 00
        E 0 80 4d 00
        E 171 90 45 4d
        E 0 90 4a 4d
        E 0 90 4d 4d
        E 4096 80 45 00
        E 0 80 4a 00
        E 0 80 4d 00
        E 170 90 45 4d
        E 0 90 4a 4d
        E 0 90 4d 4d
        E 4096 80 45 00
        E 0 80 4a 00
        E 0 80 4d 00
        E 0 b0 7b 00
        E 1 ff 2f 00
      >
    >
  >
  <TRACK
    NAME "shamisen"
    PEAKCOL 4284506208
    VOLPAN 1.000000 0 1 -1
    MIDIOUT -1
    ISBUS 0 0
    <ITEM
      POSITION 0.000000
      LENGTH 216.342425
      NAME "shamisen"
      VOLPAN 1 0 1 -1
      <SOURCE MIDI
        HASDATA 1 960 QN
        E 0 c1 6a 00
        E 0 91 41 75
        E 29 91 4d 5e
        E 77 81 4d 00
        E 2795 81 41 00
        E 1366 91 45 62
        E 2901 81 45 00
        E 1365 91 40 5c
        E 2901 81 40 00
        E 1366 91 41 60
        E 2901 81 41 00
        E 1366 91 45 6b
        E 2901 81 45 00
        E 1365 91 4a 6b
        E 2901 81 4a 00
        E 1366 91 4d 6b
        E 2901 81 4d 00
        E 1366 91 4c 5c
        E 2901 81 4c 00
        E 1365 91 4a 60
        E 2901 81 4a 00
        E 1366 91 4c 74
        E 2901 81 4c 00
        E 1366 91 4d 65
        E 2901 81 4d 00
        E 1365 91 4a 60
        E 2901 81 4a 00
        E 1366 91 45 6d
        E 2901 81 45 00
        E 1366 91 4a 5c
        E 2901 81 4a 00
        E 1365 91 46 69
        E 2901 81 46 00
        E 1366 91 45 6f
        E 2901 81 45 00
        E 1366 91 40 65
        E 2901 81 40 00
        E 1365 91 46 5c
        E 2901 81 46 00
        E 1366 91 4a 70
        E 2901 81 4a 00
        E 1366 91 4d 5c
        E 2901 81 4d 00
        E 1365 91 4a 6f
        E 2901 81 4a 00
        E 1366 91 46 5e
        E 2901 81 46 00
        E 1366 91 4a 5e
        E 2901 81 4a 00
        E 1365 91 4c 5e
        E 2901 81 4c 00
        E 1366 91 4a 6d
        E 2901 81 4a 00
        E 1366 91 4d 6d
        E 2901 81 4d 00
        E 1365 91 51 60
        E 2901 81 51 00
        E 1366 91 51 6f
        E 2901 81 51 00
        E 1366 91 4d 5e
        E 2901 81 4d 00
        E 1365 91 4a 69
        E 2901 81 4a 00
        E 1366 91 46 65
        E 2901 81 46 00
        E 1366 91 46 65
        E 2901 81 46 00
        E 1365 91 4a 5e
        E 2901 81 4a 00
        E 1366 91 4a 60
        E 2901 81 4a 00
        E 1366 91 45 6d
        E 2901 81 45 00
        E 1365 91 45 6b
        E 2901 81 45 00
        E 0 b1 7b 00
        E 1 ff 2f 00
      >
    >
  >
  <TRACK
    NAME "tenor_drum"
    PEAKCOL 4290722362
    VOLPAN 1.000000 0 1 -1
    MIDIOUT -1
    ISBUS 0 0
    <ITEM
      POSITION 0.000000
      LENGTH 217.982576
      NAME "tenor_drum"
      VOLPAN 1 0 1 -1
      <SOURCE MIDI
        HASDATA 1 960 QN
        E 0 c9 00 00
        E 0 99 2f 2e
        E 216 89 2f 00
        E 24 99 2f 2c
        E 216 89 2f 00
        E 24 99 2f 2c
        E 216 89 2f 00
        E 24 99 2f 27
        E 216 89 2f 00
        E 24 99 2f 2c
        E 216 89 2f 00
        E 24 99 2f 3d
        E 216 89 2f 00
        E 24 99 2f 3d
        E 216 89 2f 00
        E 24 99 2f 37
        E 216 89 2f 00
        E 24 99 2f 48
        E 216 89 2f 00
        E 24 99 2f 4c
        E 216 89 2f 00
        E 24 99 2f 58
        E 216 89 2f 00
        E 24 99 2f 5a
        E 216 89 2f 00
        E 24 99 2f 5c
        E 216 89 2f 00
        E 24 99 2f 6f
        E 216 89 2f 00
        E 24 99 2f 69
        E 216 89 2f 00
        E 24 99 2f 79
        E 216 89 2f 00
        E 24 99 2f 7b
        E 216 89 2f 00
        E 211 99 2f 2a
        E 216 89 2f 00
        E 24 99 2f 23
        E 216 89 2f 00
        E 24 99 2f 25
        E 216 89 2f 00
        E 24 99 2f 2a
        E 216 89 2f 00
        E 24 99 2f 37
        E 216 89 2f 00
        E 24 99 2f 2e
        E 216 89 2f 00
        E 24 99 2f 3d
        E 216 89 2f 00
        E 24 99 2f 42
        E 216 89 2f 00
        E 24 99 2f 42
        E 216 89 2f 00
        E 24 99 2f 4d
        E 216 89 2f 00
        E 24 99 2f 58
        E 216 89 2f 00
        E 24 99 2f 53
        E 216 89 2f 00
        E 24 99 2f 65
        E 216 89 2f 00
        E 24 99 2f 6f
        E 216 89 2f 00
        E 24 99 2f 70
        E 216 89 2f 00
        E 24 99 2f 79
        E 216 89 2f 00
        E 24 99 2f 7b
        E 216 89 2f 00
        E 210 99 2f 27
        E 216 89 2f 00
        E 24 99 2f 25
        E 216 89 2f 00
        E 24 99 2f 30
        E 216 89 2f 00
        E 24 99 2f 30
        E 216 89 2f 00
        E 24 99 2f 27
        E 216 89 2f 00
        E 24 99 2f 2c
        E 216 89 2f 00
        E 24 99 2f 32
        E 216 89 2f 00
        E 24 99 2f 37
        E 216 89 2f 00
        E 24 99 2f 42
        E 216 89 2f 00
        E 24 99 2f 4d
        E 216 89 2f 00
        E 24 99 2f 4c
        E 216 89 2f 00
        E 24 99 2f 58
        E 216 89 2f 00
        E 24 99 2f 64
        E 216 89 2f 00
        E 24 99 2f 65
        E 216 89 2f 00
        E 24 99 2f 77
        E 216 89 2f 00
        E 24 99 2f 75
        E 216 89 2f 00
        E 24 99 2f 7b
        E 216 89 2f 00
        E 211 99 2f 27
        E 216 89 2f 00
        E 24 99 2f 23
        E 216 89 2f 00
        E 24 99 2f 2e
        E 216 89 2f 00
        E 24 99 2f 35
        E 216 89 2f 00
        E 24 99 2f 32
        E 216 89 2f 00
        E 24 99 2f 37
        E 216 89 2f 00
        E 24 99 2f 35
        E 216 89 2f 00
        E 24 99 2f 42
        E 216 89 2f 00
        E 24 99 2f 3d
        E 216 89 2f 00
        E 24 99 2f 4f
        E 216 89 2f 00
        E 24 99 2f 4c
        E 216 89 2f 00
        E 24 99 2f 57
        E 216 89 2f 00
        E 24 99 2f 67
        E 216 89 2f 00
        E 24 99 2f 64
        E 216 89 2f 00
        E 24 99 2f 6d
        E 216 89 2f 00
        E 24 99 2f 7d
        E 216 89 2f 00
        E 24 99 2f 7d
        E 216 89 2f 00
        E 211 99 2f 27
        E 216 89 2f 00
        E 24 99 2f 27
        E 216 89 2f 00
        E 24 99 2f 30
        E 216 89 2f 00
        E 24 99 2f 30
        E 216 89 2f 00
        E 24 99 2f 2e
        E 216 89 2f 00
        E 24 99 2f 3d
        E 216 89 2f 00
        E 24 99 2f 3f
        E 216 89 2f 00
        E 24 99 2f 3f
        E 216 89 2f 00
        E 24 99 2f 41
        E 216 89 2f 00
        E 24 99 2f 4f
        E 216 89 2f 00
        E 24 99 2f 53
        E 216 89 2f 00
        E 24 99 2f 4f
        E 216 89 2f 00
        E 24 99 2f 58
        E 216 89 2f 00
        E 24 99 2f 64
        E 216 89 2f 00
        E 24 99 2f 77
        E 216 89 2f 00
        E 24 99 2f 7b
        E 216 89 2f 00
        E 24 99 2f 7d
        E 216 89 2f 00
        E 210 99 2f 32
        E 216 89 2f 00
        E 24 99 2f 2c
        E 216 89 2f 00
        E 24 99 2f 27
        E 216 89 2f 00
        E 24 99 2f 32
        E 216 89 2f 00
        E 24 99 2f 30
        E 216 89 2f 00
        E 24 99 2f 30
        E 216 89 2f 00
        E 24 99 2f 32
        E 216 89 2f 00
        E 24 99 2f 44
        E 216 89 2f 00
        E 24 99 2f 48
        E 216 89 2f 00
        E 24 99 2f 4d
        E 216 89 2f 00
        E 24 99 2f 4a
        E 216 89 2f 00
        E 24 99 2f 58
        E 216 89 2f 00
        E 24 99 2f 60
        E 216 89 2f 00
        E 24 99 2f 60
        E 216 89 2f 00
        E 24 99 2f 6b
        E 216 89 2f 00
        E 24 99 2f 74
        E 216 89 2f 00
        E 24 99 2f 7b
        E 216 89 2f 00
        E 211 99 2f 2c
        E 216 89 2f 00
        E 24 99 2f 23
        E 216 89 2f 00
        E 24 99 2f 32
        E 216 89 2f 00
        E 24 99 2f 2a
        E 216 89 2f 00
        E 24 99 2f 30
        E 216 89 2f 00
        E 24 99 2f 2e
        E 216 89 2f 00
        E 24 99 2f 30
        E 216 89 2f 00
        E 24 99 2f 37
        E 216 89 2f 00
        E 24 99 2f 3d
        E 216 89 2f 00
        E 24 99 2f 42
        E 216 89 2f 00
        E 24 99 2f 58
        E 216 89 2f 00
        E 24 99 2f 55
        E 216 89 2f 00
        E 24 99 2f 64
        E 216 89 2f 00
        E 24 99 2f 67
        E 216 89 2f 00
        E 24 99 2f 69
        E 216 89 2f 00
        E 24 99 2f 7b
        E 216 89 2f 00
        E 24 99 2f 7b
        E 216 89 2f 00
        E 211 99 2f 21
        E 216 89 2f 00
        E 24 99 2f 30
        E 216 89 2f 00
        E 24 99 2f 25
        E 216 89 2f 00
        E 24 99 2f 32
        E 216 89 2f 00
        E 24 99 2f 2c
        E 216 89 2f 00
        E 24 99 2f 37
        E 216 89 2f 00
        E 24 99 2f 34
        E 216 89 2f 00
        E 24 99 2f 42
        E 216 89 2f 00
        E 24 99 2f 3d
        E 216 89 2f 00
        E 24 99 2f 51
        E 216 89 2f 00
        E 24 99 2f 4f
        E 216 89 2f 00
        E 24 99 2f 4f
        E 216 89 2f 00
        E 24 99 2f 65
        E 216 89 2f 00
        E 24 99 2f 67
        E 216 89 2f 00
        E 24 99 2f 74
        E 216 89 2f 00
        E 24 99 2f 75
        E 216 89 2f 00
        E 24 99 2f 7d
        E 216 89 2f 00
        E 210 99 2f 32
        E 216 89 2f 00
        E 24 99 2f 30
        E 216 89 2f 00
        E 24 99 2f 29
        E 216 89 2f 00
        E 24 99 2f 2e
        E 216 89 2f 00
        E 24 99 2f 32
        E 216 89 2f 00
        E 24 99 2f 37
        E 216 89 2f 00
        E 24 99 2f 39
        E 216 89 2f 00
        E 24 99 2f 37
        E 216 89 2f 00
        E 24 99 2f 42
        E 216 89 2f 00
        E 24 99 2f 53
        E 216 89 2f 00
        E 24 99 2f 53
        E 216 89 2f 00
        E 24 99 2f 5e
        E 216 89 2f 00
        E 24 99 2f 64
        E 216 89 2f 00
        E 24 99 2f 60
        E 216 89 2f 00
        E 24 99 2f 69
        E 216 89 2f 00
        E 24 99 2f 74
        E 216 89 2f 00
        E 24 99 2f 7b
        E 216 89 2f 00
        E 211 99 2f 21
        E 216 89 2f 00
        E 24 99 2f 27
        E 216 89 2f 00
        E 24 99 2f 27
        E 216 89 2f 00
        E 24 99 2f 35
        E 216 89 2f 00
        E 24 99 2f 37
        E 216 89 2f 00
        E 24 99 2f 35
        E 216 89 2f 00
        E 24 99 2f 32
        E 216 89 2f 00
        E 24 99 2f 37
        E 216 89 2f 00
        E 24 99 2f 42
        E 216 89 2f 00
        E 24 99 2f 4f
        E 216 89 2f 00
        E 24 99 2f 58
        E 216 89 2f 00
        E 24 99 2f 58
        E 216 89 2f 00
        E 24 99 2f 65
        E 216 89 2f 00
        E 24 99 2f 62
        E 216 89 2f 00
        E 24 99 2f 75
        E 216 89 2f 00
        E 24 99 2f 74
        E 216 89 2f 00
        E 24 99 2f 7d
        E 216 89 2f 00
        E 211 99 2f 2e
        E 216 89 2f 00
        E 24 99 2f 2c
        E 216 89 2f 00
        E 24 99 2f 32
        E 216 89 2f 00
        E 24 99 2f 2e
        E 216 89 2f 00
        E 24 99 2f 2c
        E 216 89 2f 00
        E 24 99 2f 2c
        E 216 89 2f 00
        E 24 99 2f 37
        E 216 89 2f 00
        E 24 99 2f 41
        E 216 89 2f 00
        E 24 99 2f 4a
        E 216 89 2f 00
        E 24 99 2f 46
        E 216 89 2f 00
        E 24 99 2f 48
        E 216 89 2f 00
        E 24 99 2f 51
        E 216 89 2f 00
        E 24 99 2f 5c
        E 216 89 2f 00
        E 24 99 2f 69
        E 216 89 2f 00
        E 24 99 2f 72
        E 216 89 2f 00
        E 24 99 2f 7c
        E 216 89 2f 00
        E 24 99 2f 7b
        E 216 89 2f 00
        E 210 99 2f 2e
        E 216 89 2f 00
        E 24 99 2f 2c
        E 216 89 2f 00
        E 24 99 2f 27
        E 216 89 2f 00
        E 24 99 2f 2c
        E 216 89 2f 00
        E 24 99 2f 34
        E 216 89 2f 00
        E 24 99 2f 35
        E 216 89 2f 00
        E 24 99 2f 32
        E 216 89 2f 00
        E 24 99 2f 42
        E 216 89 2f 00
        E 24 99 2f 48
        E 216 89 2f 00
        E 24 99 2f 44
        E 216 89 2f 00
        E 24 99 2f 57
        E 216 89 2f 00
        E 24 99 2f 51
        E 216 89 2f 00
        E 24 99 2f 64
        E 216 89 2f 00
        E 24 99 2f 6d
        E 216 89 2f 00
        E 24 99 2f 74
        E 216 89 2f 00
        E 24 99 2f 77
        E 216 89 2f 00
        E 24 99 2f 7d
        E 216 89 2f 00
        E 211 99 2f 2c
        E 216 89 2f 00
        E 24 99 2f 21
        E 216 89 2f 00
        E 24 99 2f 21
        E 216 89 2f 00
        E 24 99 2f 34
        E 216 89 2f 00
        E 24 99 2f 37
        E 216 89 2f 00
        E 24 99 2f 2c
        E 216 89 2f 00
        E 24 99 2f 3d
        E 216 89 2f 00
        E 24 99 2f 42
        E 216 89 2f 00
        E 24 99 2f 3d
        E 216 89 2f 00
        E 24 99 2f 48
        E 216 89 2f 00
        E 24 99 2f 51
        E 216 89 2f 00
        E 24 99 2f 53
        E 216 89 2f 00
        E 24 99 2f 62
        E 216 89 2f 00
        E 24 99 2f 70
        E 216 89 2f 00
        E 24 99 2f 78
        E 216 89 2f 00
        E 24 99 2f 7b
        E 216 89 2f 00
        E 24 99 2f 7d
        E 216 89 2f 00
        E 211 99 2f 23
        E 216 89 2f 00
        E 24 99 2f 30
        E 216 89 2f 00
        E 24 99 2f 30
        E 216 89 2f 00
        E 24 99 2f 30
        E 216 89 2f 00
        E 24 99 2f 30
        E 216 89 2f 00
        E 24 99 2f 39
        E 216 89 2f 00
        E 24 99 2f 32
        E 216 89 2f 00
        E 24 99 2f 3b
        E 216 89 2f 00
        E 24 99 2f 3d
        E 216 89 2f 00
        E 24 99 2f 44
        E 216 89 2f 00
        E 24 99 2f 58
        E 216 89 2f 00
        E 24 99 2f 5e
        E 216 89 2f 00
        E 24 99 2f 5c
        E 216 89 2f 00
        E 24 99 2f 69
        E 216 89 2f 00
        E 24 99 2f 72
        E 216 89 2f 00
        E 24 99 2f 78
        E 216 89 2f 00
        E 24 99 2f 7d
        E 216 89 2f 00
        E 210 99 2f 30
        E 216 89 2f 00
        E 24 99 2f 23
        E 216 89 2f 00
        E 24 99 2f 32
        E 216 89 2f 00
        E 24 99 2f 2e
        E 216 89 2f 00
        E 24 99 2f 37
        E 216 89 2f 00
        E 24 99 2f 2c
        E 216 89 2f 00
        E 24 99 2f 3f
        E 216 89 2f 00
        E 24 99 2f 46
        E 216 89 2f 00
        E 24 99 2f 48
        E 216 89 2f 00
        E 24 99 2f 48
        E 216 89 2f 00
        E 24 99 2f 57
        E 216 89 2f 00
        E 24 99 2f 57
        E 216 89 2f 00
        E 24 99 2f 69
        E 216 89 2f 00
        E 24 99 2f 6b
        E 216 89 2f 00
        E 24 99 2f 6f
        E 216 89 2f 00
        E 24 99 2f 78
        E 216 89 2f 00
        E 24 99 2f 7d
        E 216 89 2f 00
        E 211 99 2f 27
        E 216 89 2f 00
        E 24 99 2f 2e
        E 216 89 2f 00
        E 24 99 2f 32
        E 216 89 2f 00
        E 24 99 2f 25
        E 216 89 2f 00
        E 24 99 2f 2a
        E 216 89 2f 00
        E 24 99 2f 30
        E 216 89 2f 00
        E 24 99 2f 32
        E 216 89 2f 00
        E 24 99 2f 42
        E 216 89 2f 00
        E 24 99 2f 41
        E 216 89 2f 00
        E 24 99 2f 51
        E 216 89 2f 00
        E 24 99 2f 4c
        E 216 89 2f 00
        E 24 99 2f 5c
        E 216 89 2f 00
        E 24 99 2f 5e
        E 216 89 2f 00
        E 24 99 2f 6b
        E 216 89 2f 00
        E 24 99 2f 6f
        E 216 89 2f 00
        E 24 99 2f 78
        E 216 89 2f 00
        E 24 99 2f 7b
        E 216 89 2f 00
        E 211 99 2f 25
        E 216 89 2f 00
        E 24 99 2f 32
        E 216 89 2f 00
        E 24 99 2f 25
        E 216 89 2f 00
        E 24 99 2f 2c
        E 216 89 2f 00
        E 24 99 2f 27
        E 216 89 2f 00
        E 24 99 2f 2c
        E 216 89 2f 00
        E 24 99 2f 3b
        E 216 89 2f 00
        E 24 99 2f 41
        E 216 89 2f 00
        E 24 99 2f 48
        E 216 89 2f 00
        E 24 99 2f 48
        E 216 89 2f 00
        E 24 99 2f 4f
        E 216 89 2f 00
        E 24 99 2f 53
        E 216 89 2f 00
        E 24 99 2f 5e
        E 216 89 2f 00
        E 24 99 2f 65
        E 216 89 2f 00
        E 24 99 2f 6d
        E 216 89 2f 00
        E 24 99 2f 74
        E 216 89 2f 00
        E 24 99 2f 7d
        E 216 89 2f 00
        E 210 99 2f 2a
        E 216 89 2f 00
        E 24 99 2f 2c
        E 216 89 2f 00
        E 24 99 2f 32
        E 216 89 2f 00
        E 24 99 2f 25
        E 216 89 2f 00
        E 24 99 2f 32
        E 216 89 2f 00
        E 24 99 2f 3b
        E 216 89 2f 00
        E 24 99 2f 39
        E 216 89 2f 00
        E 24 99 2f 37
        E 216 89 2f 00
        E 24 99 2f 3f
        E 216 89 2f 00
        E 24 99 2f 48
        E 216 89 2f 00
        E 24 99 2f 51
        E 216 89 2f 00
        E 24 99 2f 4f
        E 216 89 2f 00
        E 24 99 2f 5e
        E 216 89 2f 00
        E 24 99 2f 6d
        E 216 89 2f 00
        E 24 99 2f 6f
        E 216 89 2f 00
        E 24 99 2f 74
        E 216 89 2f 00
        E 24 99 2f 7d
        E 216 89 2f 00
        E 211 99 2f 2e
        E 216 89 2f 00
        E 24 99 2f 2e
        E 216 89 2f 00
        E 24 99 2f 2a
        E 216 89 2f 00
        E 24 99 2f 2c
        E 216 89 2f 00
        E 24 99 2f 32
        E 216 89 2f 00
        E 24 99 2f 2c
        E 216 89 2f 00
        E 24 99 2f 3d
        E 216 89 2f 00
        E 24 99 2f 37
        E 216 89 2f 00
        E 24 99 2f 46
        E 216 89 2f 00
        E 24 99 2f 48
        E 216 89 2f 00
        E 24 99 2f 58
        E 216 89 2f 00
        E 24 99 2f 4f
        E 216 89 2f 00
        E 24 99 2f 58
        E 216 89 2f 00
        E 24 99 2f 69
        E 216 89 2f 00
        E 24 99 2f 70
        E 216 89 2f 00
        E 24 99 2f 7a
        E 216 89 2f 00
        E 24 99 2f 7b
        E 216 89 2f 00
        E 211 99 2f 27
        E 216 89 2f 00
        E 24 99 2f 30
        E 216 89 2f 00
        E 24 99 2f 27
        E 216 89 2f 00
        E 24 99 2f 29
        E 216 89 2f 00
        E 24 99 2f 34
        E 216 89 2f 00
        E 24 99 2f 39
        E 216 89 2f 00
        E 24 99 2f 35
        E 216 89 2f 00
        E 24 99 2f 42
        E 216 89 2f 00
        E 24 99 2f 42
        E 216 89 2f 00
        E 24 99 2f 42
        E 216 89 2f 00
        E 24 99 2f 53
        E 216 89 2f 00
        E 24 99 2f 4f
        E 216 89 2f 00
        E 24 99 2f 69
        E 216 89 2f 00
        E 24 99 2f 60
        E 216 89 2f 00
        E 24 99 2f 6b
        E 216 89 2f 00
        E 24 99 2f 7b
        E 216 89 2f 00
        E 24 99 2f 7d
        E 216 89 2f 00
        E 210 99 2f 21
        E 216 89 2f 00
        E 24 99 2f 29
        E 216 89 2f 00
        E 24 99 2f 2a
        E 216 89 2f 00
        E 24 99 2f 32
        E 216 89 2f 00
        E 24 99 2f 32
        E 216 89 2f 00
        E 24 99 2f 2c
        E 216 89 2f 00
        E 24 99 2f 41
        E 216 89 2f 00
        E 24 99 2f 39
        E 216 89 2f 00
        E 24 99 2f 3d
        E 216 89 2f 00
        E 24 99 2f 46
        E 216 89 2f 00
        E 24 99 2f 4a
        E 216 89 2f 00
        E 24 99 2f 60
        E 216 89 2f 00
        E 24 99 2f 69
        E 216 89 2f 00
        E 24 99 2f 60
        E 216 89 2f 00
        E 24 99 2f 6d
        E 216 89 2f 00
        E 24 99 2f 75
        E 216 89 2f 00
        E 24 99 2f 7d
        E 216 89 2f 00
        E 211 99 2f 2a
        E 216 89 2f 00
        E 24 99 2f 2c
        E 216 89 2f 00
        E 24 99 2f 25
        E 216 89 2f 00
        E 24 99 2f 2c
        E 216 89 2f 00
        E 24 99 2f 30
        E 216 89 2f 00
        E 24 99 2f 3d
        E 216 89 2f 00
        E 24 99 2f 39
        E 216 89 2f 00
        E 24 99 2f 37
        E 216 89 2f 00
        E 24 99 2f 42
        E 216 89 2f 00
        E 24 99 2f 48
        E 216 89 2f 00
        E 24 99 2f 4d
        E 216 89 2f 00
        E 24 99 2f 5c
        E 216 89 2f 00
        E 24 99 2f 58
        E 216 89 2f 00
        E 24 99 2f 6f
        E 216 89 2f 00
        E 24 99 2f 78
        E 216 89 2f 00
        E 24 99 2f 75
        E 216 89 2f 00
        E 24 99 2f 7b
        E 216 89 2f 00
        E 211 99 2f 29
        E 216 89 2f 00
        E 24 99 2f 21
        E 216 89 2f 00
        E 24 99 2f 23
        E 216 89 2f 00
        E 24 99 2f 30
        E 216 89 2f 00
        E 24 99 2f 29
        E 216 89 2f 00
        E 24 99 2f 30
        E 216 89 2f 00
        E 24 99 2f 3f
        E 216 89 2f 00
        E 24 99 2f 3b
        E 216 89 2f 00
        E 24 99 2f 44
        E 216 89 2f 00
        E 24 99 2f 46
        E 216 89 2f 00
        E 24 99 2f 4f
        E 216 89 2f 00
        E 24 99 2f 53
        E 216 89 2f 00
        E 24 99 2f 65
        E 216 89 2f 00
        E 24 99 2f 69
        E 216 89 2f 00
        E 24 99 2f 78
        E 216 89 2f 00
        E 24 99 2f 74
        E 216 89 2f 00
        E 24 99 2f 7d
        E 216 89 2f 00
        E 210 99 2f 21
        E 216 89 2f 00
        E 24 99 2f 29
        E 216 89 2f 00
        E 24 99 2f 29
        E 216 89 2f 00
        E 24 99 2f 25
        E 216 89 2f 00
        E 24 99 2f 32
        E 216 89 2f 00
        E 24 99 2f 2e
        E 216 89 2f 00
        E 24 99 2f 3d
        E 216 89 2f 00
        E 24 99 2f 42
        E 216 89 2f 00
        E 24 99 2f 48
        E 216 89 2f 00
        E 24 99 2f 4c
        E 216 89 2f 00
        E 24 99 2f 4d
        E 216 89 2f 00
        E 24 99 2f 5e
        E 216 89 2f 00
        E 24 99 2f 64
        E 216 89 2f 00
        E 24 99 2f 69
        E 216 89 2f 00
        E 24 99 2f 6b
        E 216 89 2f 00
        E 24 99 2f 75
        E 216 89 2f 00
        E 24 99 2f 7d
        E 216 89 2f 00
        E 211 99 2f 32
        E 216 89 2f 00
        E 24 99 2f 2a
        E 216 89 2f 00
        E 24 99 2f 2e
        E 216 89 2f 00
        E 24 99 2f 34
        E 216 89 2f 00
        E 24 99 2f 37
        E 216 89 2f 00
        E 24 99 2f 35
        E 216 89 2f 00
        E 24 99 2f 34
        E 216 89 2f 00
        E 24 99 2f 37
        E 216 89 2f 00
        E 24 99 2f 3d
        E 216 89 2f 00
        E 24 99 2f 48
        E 216 89 2f 00
        E 24 99 2f 4c
        E 216 89 2f 00
        E 24 99 2f 5a
        E 216 89 2f 00
        E 24 99 2f 5c
        E 216 89 2f 00
        E 24 99 2f 6f
        E 216 89 2f 00
        E 24 99 2f 74
        E 216 89 2f 00
        E 24 99 2f 79
        E 216 89 2f 00
        E 24 99 2f 7d
        E 216 89 2f 00
        E 211 99 2f 32
        E 216 89 2f 00
        E 24 99 2f 21
        E 216 89 2f 00
        E 24 99 2f 27
        E 216 89 2f 00
        E 24 99 2f 30
        E 216 89 2f 00
        E 24 99 2f 2e
        E 216 89 2f 00
        E 24 99 2f 35
        E 216 89 2f 00
        E 24 99 2f 3f
        E 216 89 2f 00
        E 24 99 2f 42
        E 216 89 2f 00
        E 24 99 2f 48
        E 216 89 2f 00
        E 24 99 2f 48
        E 216 89 2f 00
        E 24 99 2f 4a
        E 216 89 2f 00
        E 24 99 2f 53
        E 216 89 2f 00
        E 24 99 2f 62
        E 216 89 2f 00
        E 24 99 2f 6f
        E 216 89 2f 00
        E 24 99 2f 6f
        E 216 89 2f 00
        E 24 99 2f 78
        E 216 89 2f 00
        E 24 99 2f 7d
        E 216 89 2f 00
        E 210 99 2f 29
        E 216 89 2f 00
        E 24 99 2f 27
        E 216 89 2f 00
        E 24 99 2f 29
        E 216 89 2f 00
        E 24 99 2f 34
        E 216 89 2f 00
        E 24 99 2f 32
        E 216 89 2f 00
        E 24 99 2f 30
        E 216 89 2f 00
        E 24 99 2f 32
        E 216 89 2f 00
        E 24 99 2f 42
        E 216 89 2f 00
        E 24 99 2f 3d
        E 216 89 2f 00
        E 24 99 2f 42
        E 216 89 2f 00
        E 24 99 2f 4d
        E 216 89 2f 00
        E 24 99 2f 5e
        E 216 89 2f 00
        E 24 99 2f 58
        E 216 89 2f 00
        E 24 99 2f 67
        E 216 89 2f 00
        E 24 99 2f 70
        E 216 89 2f 00
        E 24 99 2f 74
        E 216 89 2f 00
        E 24 99 2f 7b
        E 216 89 2f 00
        E 211 99 2f 2c
        E 216 89 2f 00
        E 24 99 2f 2c
        E 216 89 2f 00
        E 24 99 2f 32
        E 216 89 2f 00
        E 24 99 2f 30
        E 216 89 2f 00
        E 24 99 2f 2e
        E 216 89 2f 00
        E 24 99 2f 37
        E 216 89 2f 00
        E 24 99 2f 30
        E 216 89 2f 00
        E 24 99 2f 42
        E 216 89 2f 00
        E 24 99 2f 3d
        E 216 89 2f 00
        E 24 99 2f 42
        E 216 89 2f 00
        E 24 99 2f 4c
        E 216 89 2f 00
        E 24 99 2f 5c
        E 216 89 2f 00
        E 24 99 2f 64
        E 216 89 2f 00
        E 24 99 2f 60
        E 216 89 2f 00
        E 24 99 2f 6f
        E 216 89 2f 00
        E 24 99 2f 79
        E 216 89 2f 00
        E 24 99 2f 7c
        E 216 89 2f 00
        E 211 99 2f 2c
        E 216 89 2f 00
        E 24 99 2f 2a
        E 216 89 2f 00
        E 24 99 2f 27
        E 216 89 2f 00
        E 24 99 2f 30
        E 216 89 2f 00
        E 24 99 2f 2e
        E 216 89 2f 00
        E 24 99 2f 35
        E 216 89 2f 00
        E 24 99 2f 3b
        E 216 89 2f 00
        E 24 99 2f 35
        E 216 89 2f 00
        E 24 99 2f 48
        E 216 89 2f 00
        E 24 99 2f 4f
        E 216 89 2f 00
        E 24 99 2f 51
        E 216 89 2f 00
        E 24 99 2f 55
        E 216 89 2f 00
        E 24 99 2f 5e
        E 216 89 2f 00
        E 24 99 2f 69
        E 216 89 2f 00
        E 24 99 2f 78
        E 216 89 2f 00
        E 24 99 2f 78
        E 216 89 2f 00
        E 24 99 2f 7b
        E 216 89 2f 00
        E 210 99 2f 25
        E 216 89 2f 00
        E 24 99 2f 2c
        E 216 89 2f 00
        E 24 99 2f 25
        E 216 89 2f 00
        E 24 99 2f 30
        E 216 89 2f 00
        E 24 99 2f 2c
        E 216 89 2f 00
        E 24 99 2f 30
        E 216 89 2f 00
        E 24 99 2f 3f
        E 216 89 2f 00
        E 24 99 2f 3b
        E 216 89 2f 00
        E 24 99 2f 4c
        E 216 89 2f 00
        E 24 99 2f 42
        E 216 89 2f 00
        E 24 99 2f 58
        E 216 89 2f 00
        E 24 99 2f 51
        E 216 89 2f 00
        E 24 99 2f 67
        E 216 89 2f 00
        E 24 99 2f 64
        E 216 89 2f 00
        E 24 99 2f 6d
        E 216 89 2f 00
        E 24 99 2f 74
        E 216 89 2f 00
        E 24 99 2f 7d
        E 216 89 2f 00
        E 211 99 2f 30
        E 216 89 2f 00
        E 24 99 2f 2a
        E 216 89 2f 00
        E 24 99 2f 32
        E 216 89 2f 00
        E 24 99 2f 30
        E 216 89 2f 00
        E 24 99 2f 37
        E 216 89 2f 00
        E 24 99 2f 37
        E 216 89 2f 00
        E 24 99 2f 37
        E 216 89 2f 00
        E 24 99 2f 42
        E 216 89 2f 00
        E 24 99 2f 3d
        E 216 89 2f 00
        E 24 99 2f 4c
        E 216 89 2f 00
        E 24 99 2f 58
        E 216 89 2f 00
        E 24 99 2f 57
        E 216 89 2f 00
        E 24 99 2f 69
        E 216 89 2f 00
        E 24 99 2f 60
        E 216 89 2f 00
        E 24 99 2f 75
        E 216 89 2f 00
        E 24 99 2f 77
        E 216 89 2f 00
        E 24 99 2f 7d
        E 216 89 2f 00
        E 211 99 2f 30
        E 216 89 2f 00
        E 24 99 2f 2c
        E 216 89 2f 00
        E 24 99 2f 2c
        E 216 89 2f 00
        E 24 99 2f 2c
        E 216 89 2f 00
        E 24 99 2f 30
        E 216 89 2f 00
        E 24 99 2f 30
        E 216 89 2f 00
        E 24 99 2f 3d
        E 216 89 2f 00
        E 24 99 2f 3b
        E 216 89 2f 00
        E 24 99 2f 46
        E 216 89 2f 00
        E 24 99 2f 51
        E 216 89 2f 00
        E 24 99 2f 4d
        E 216 89 2f 00
        E 24 99 2f 53
        E 216 89 2f 00
        E 24 99 2f 64
        E 216 89 2f 00
        E 24 99 2f 64
        E 216 89 2f 00
        E 24 99 2f 74
        E 216 89 2f 00
        E 24 99 2f 7b
        E 216 89 2f 00
        E 24 99 2f 7b
        E 216 89 2f 00
        E 210 99 2f 23
        E 216 89 2f 00
        E 24 99 2f 29
        E 216 89 2f 00
        E 24 99 2f 27
        E 216 89 2f 00
        E 24 99 2f 2c
        E 216 89 2f 00
        E 24 99 2f 35
        E 216 89 2f 00
        E 24 99 2f 39
        E 216 89 2f 00
        E 24 99 2f 3d
        E 216 89 2f 00
        E 24 99 2f 37
        E 216 89 2f 00
        E 24 99 2f 3d
        E 216 89 2f 00
        E 24 99 2f 4d
        E 216 89 2f 00
        E 24 99 2f 4d
        E 216 89 2f 00
        E 24 99 2f 58
        E 216 89 2f 00
        E 24 99 2f 5e
        E 216 89 2f 00
        E 24 99 2f 62
        E 216 89 2f 00
        E 24 99 2f 77
        E 216 89 2f 00
        E 24 99 2f 7d
        E 216 89 2f 00
        E 24 99 2f 7d
        E 216 89 2f 00
        E 211 99 2f 32
        E 216 89 2f 00
        E 24 99 2f 21
        E 216 89 2f 00
        E 24 99 2f 2c
        E 216 89 2f 00
        E 24 99 2f 34
        E 216 89 2f 00
        E 24 99 2f 32
        E 216 89 2f 00
        E 24 99 2f 2e
        E 216 89 2f 00
        E 24 99 2f 3d
        E 216 89 2f 00
        E 24 99 2f 39
        E 216 89 2f 00
        E 24 99 2f 3b
        E 216 89 2f 00
        E 24 99 2f 4d
        E 216 89 2f 00
        E 24 99 2f 4c
        E 216 89 2f 00
        E 24 99 2f 5c
        E 216 89 2f 00
        E 24 99 2f 60
        E 216 89 2f 00
        E 24 99 2f 70
        E 216 89 2f 00
        E 24 99 2f 69
        E 216 89 2f 00
        E 24 99 2f 77
        E 216 89 2f 00
        E 24 99 2f 7d
        E 216 89 2f 00
        E 211 99 2f 27
        E 216 89 2f 00
        E 24 99 2f 2a
        E 216 89 2f 00
        E 24 99 2f 25
        E 216 89 2f 00
        E 24 99 2f 34
        E 216 89 2f 00
        E 24 99 2f 32
        E 216 89 2f 00
        E 24 99 2f 2c
        E 216 89 2f 00
        E 24 99 2f 3f
        E 216 89 2f 00
        E 24 99 2f 42
        E 216 89 2f 00
        E 24 99 2f 42
        E 216 89 2f 00
        E 24 99 2f 4c
        E 216 89 2f 00
        E 24 99 2f 4f
        E 216 89 2f 00
        E 24 99 2f 5e
        E 216 89 2f 00
        E 24 99 2f 67
        E 216 89 2f 00
        E 24 99 2f 64
        E 216 89 2f 00
        E 24 99 2f 74
        E 216 89 2f 00
        E 24 99 2f 74
        E 216 89 2f 00
        E 24 99 2f 7b
        E 216 89 2f 00
        E 210 99 2f 27
        E 216 89 2f 00
        E 24 99 2f 2c
        E 216 89 2f 00
        E 24 99 2f 21
        E 216 89 2f 00
        E 24 99 2f 27
        E 216 89 2f 00
        E 24 99 2f 2e
        E 216 89 2f 00
        E 24 99 2f 39
        E 216 89 2f 00
        E 24 99 2f 3d
        E 216 89 2f 00
        E 24 99 2f 37
        E 216 89 2f 00
        E 24 99 2f 46
        E 216 89 2f 00
        E 24 99 2f 4a
        E 216 89 2f 00
        E 24 99 2f 58
        E 216 89 2f 00
        E 24 99 2f 58
        E 216 89 2f 00
        E 24 99 2f 64
        E 216 89 2f 00
        E 24 99 2f 64
        E 216 89 2f 00
        E 24 99 2f 6d
        E 216 89 2f 00
        E 24 99 2f 75
        E 216 89 2f 00
        E 24 99 2f 7b
        E 216 89 2f 00
        E 0 b9 7b 00
        E 1 ff 2f 00
      >
    >
  >
>
