<REAPER_PROJECT 0.1 "7.0" 1700000000
  TEMPO 40.000000 4 4
  SAMPLERATE 48000 0 0
  RENDER_FILE ""
  RENDER_FMT 0 2 0
  RENDER_1X 0
  RENDER_RANGE 1 0 271.705433 0 0
  RENDER_RESAMPLE 3 0 1
  <MASTERTRACK
    VOLPAN 1 0 1 -1
    DEFCHAN 0
  >
  <TRACK
    NAME "erhu"
    PEAKCOL 4284506208
    VOLPAN 1.000000 0 1 -1
    MIDIOUT -1
    ISBUS 0 0
    <ITEM
      POSITION 0.016764
      LENGTH 269.788669
      NAME "erhu"
      VOLPAN 1 0 1 -1
      <SOURCE MIDI
        HASDATA 1 960 QN
        E 0 c0 6e 00
        E 11 90 4a 64
        E 1728 80 4a 00
        E 191 90 4c 74
        E 192 80 4c 00
        E 48 90 4a 6d
        E 192 80 4a 00
        E 48 90 4c 62
        E 1248 80 4c 00
        E 193 90 4a 6d
        E 1728 80 4a 00
        E 182 90 4c 62
        E 192 80 4c 00
        E 50 90 4e 6d
        E 192 80 4e 00
        E 59 90 4c 60
        E 1248 80 4c 00
        E 172 90 4a 5c
        E 1728 80 4a 00
        E 199 90 4c 69
        E 192 80 4c 00
        E 57 90 4c 64
        E 192 80 4c 00
        E 42 90 47 6e
        E 1248 80 47 00
        E 186 90 47 77
        E 1728 80 47 00
        E 187 90 47 60
        E 192 80 47 00
        E 59 90 4c 6d
        E 192 80 4c 00
        E 53 90 4e 67
        E 1248 80 4e 00
        E 175 90 4a 6d
        E 1728 80 4a 00
        E 195 90 4a 62
        E 192 80 4a 00
        E 51 90 4e 62
        E 192 80 4e 00
        E 64 90 4a 6b
        E 1248 80 4a 00
        E 172 90 45 6b
        E 1728 80 45 00
        E 187 90 40 67
        E 192 80 40 00
        E 71 90 45 6b
        E 192 80 45 00
        E 36 90 40 67
        E 1248 80 40 00
        E 189 90 42 77
        E 1728 80 42 00
        E 209 90 45 60
        E 192 80 45 00
        E 29 90 40 75
        E 192 80 40 00
        E 44 90 3c 62
        E 1248 80 3c 00
        E 204 90 3e 67
        E 1728 80 3e 00
        E 187 90 3e 70
        E 192 80 3e 00
        E 47 90 40 77
        E 192 80 40 00
        E 45 90 45 67
        E 1248 80 45 00
        E 190 90 4a 6d
        E 1728 80 4a 00
        E 205 90 4a 77
        E 192 80 4a 00
        E 49 90 4c 5e
        E 192 80 4c 00
        E 46 90 50 70
        E 1248 80 50 00
        E 184 90 4e 79
        E 1728 80 4e 00
        E 191 90 4a 72
        E 192 80 4a 00
        E 44 90 47 74
        E 192 80 47 00
        E 45 90 4a 62
        E 1248 80 4a 00
        E 211 90 4c 77
        E 1728 80 4c 00
        E 197 90 50 6d
        E 192 80 50 00
        E 42 90 4c 72
        E 192 80 4c 00
        E 30 90 4c 67
        E 1248 80 4c 00
        E 195 90 4e 75
        E 1728 80 4e 00
        E 189 90 50 77
        E 192 80 50 00
        E 61 90 4c 77
        E 192 80 4c 00
        E 40 90 4c 69
        E 1248 80 4c 00
        E 186 90 4e 72
        E 1728 80 4e 00
        E 204 90 4e 62
        E 192 80 4e 00
        E 54 90 50 77
        E 192 80 50 00
        E 30 90 4e 69
        E 1248 80 4e 00
        E 192 90 50 74
        E 1728 80 50 00
        E 207 90 50 62
        E 192 80 50 00
        E 33 90 50 75
        E 192 80 50 00
        E 57 90 50 65
        E 1248 80 50 00
        E 187 90 4c 72
        E 1728 80 4c 00
        E 202 90 47 79
        E 192 80 47 00
        E 50 90 45 65
        E 192 80 45 00
        E 38 90 40 6d
        E 1248 80 40 00
        E 187 90 40 77
        E 1728 80 40 00
        E 211 90 3e 62
        E 192 80 3e 00
        E 27 90 40 5e
        E 192 80 40 00
        E 65 90 45 5c
        E 1248 80 45 00
        E 190 90 40 75
        E 1728 80 40 00
        E 188 90 40 6d
        E 192 80 40 00
        E 56 90 45 72
        E 192 80 45 00
        E 29 90 4a 62
        E 1248 80 4a 00
        E 214 90 45 75
        E 1728 80 45 00
        E 189 90 42 5c
        E 192 80 42 00
        E 56 90 47 77
        E 192 80 47 00
        E 40 90 4a 65
        E 1248 80 4a 00
        E 190 90 4a 5e
        E 1728 80 4a 00
        E 202 90 47 67
        E 192 80 47 00
        E 28 90 4a 6b
        E 192 80 4a 00
        E 63 90 4a 65
        E 1248 80 4a 00
        E 182 90 45 72
        E 1728 80 45 00
        E 201 90 40 65
        E 192 80 40 00
        E 49 90 45 64
        E 192 80 45 00
        E 42 90 40 6b
        E 1248 80 40 00
        E 189 90 40 5e
        E 1728 80 40 00
        E 207 90 3e 6e
        E 192 80 3e 00
        E 44 90 40 79
        E 192 80 40 00
        E 42 90 3c 6d
        E 1248 80 3c 00
        E 200 90 3e 67
        E 1728 80 3e 00
        E 168 90 3e 5e
        E 192 80 3e 00
        E 65 90 45 77
        E 192 80 45 00
        E 36 90 4a 77
        E 1248 80 4a 00
        E 209 90 4a 69
        E 1728 80 4a 00
        E 177 90 4c 5c
        E 192 80 4c 00
        E 53 90 50 67
        E 192 80 50 00
        E 62 90 4c 77
        E 1248 80 4c 00
        E 184 90 47 6d
        E 1728 80 47 00
        E 183 90 47 74
        E 192 80 47 00
        E 39 90 42 6d
        E 192 80 42 00
        E 74 90 3e 64
        E 1248 80 3e 00
        E 173 90 40 6b
        E 1728 80 40 00
        E 209 90 40 6d
        E 192 80 40 00
        E 38 90 40 70
        E 192 80 40 00
        E 50 90 3e 77
        E 1248 80 3e 00
        E 193 90 3e 75
        E 1728 80 3e 00
        E 174 90 3c 69
        E 192 80 3c 00
        E 65 90 3e 79
        E 192 80 3e 00
        E 37 90 3e 72
        E 1248 80 3e 00
        E 194 90 3e 62
        E 1728 80 3e 00
        E 189 90 3c 70
        E 192 80 3c 00
        E 51 90 3e 75
        E 192 80 3e 00
        E 56 90 3e 74
        E 1248 80 3e 00
        E 175 90 40 79
        E 1728 80 40 00
        E 208 90 40 72
        E 192 80 40 00
        E 33 90 45 67
        E 192 80 45 00
        E 71 90 40 72
        E 1248 80 40 00
        E 175 90 40 72
        E 1728 80 40 00
        E 197 90 3e 70
        E 192 80 3e 00
        E 52 90 40 6e
        E 192 80 40 00
        E 46 90 3e 60
        E 1248 80 3e 00
        E 183 90 40 60
        E 1728 80 40 00
        E 210 90 3e 69
        E 192 80 3e 00
        E 39 90 40 74
        E 192 80 40 00
        E 57 90 3e 70
        E 1248 80 3e 00
        E 174 90 3e 74
        E 1728 80 3e 00
        E 196 90 3c 6b
        E 192 80 3c 00
        E 47 90 3e 6d
        E 192 80 3e 00
        E 58 90 3e 69
        E 1248 80 3e 00
        E 199 90 3c 70
        E 1728 80 3c 00
        E 194 90 3c 6b
        E 192 80 3c 00
        E 29 90 40 70
        E 192 80 40 00
        E 55 90 40 65
        E 1248 80 40 00
        E 193 90 3e 72
        E 1728 80 3e 00
        E 203 90 40 72
        E 192 80 40 00
        E 49 90 3c 74
        E 192 80 3c 00
        E 21 90 40 77
        E 1248 80 40 00
        E 217 90 42 67
        E 1728 80 42 00
        E 167 90 3e 5e
        E 192 80 3e 00
        E 53 90 40 67
        E 192 80 40 00
        E 50 90 42 64
        E 1248 80 42 00
        E 202 90 3e 60
        E 1728 80 3e 00
        E 185 90 3e 6d
        E 192 80 3e 00
        E 47 90 3e 5c
        E 192 80 3e 00
        E 44 90 3e 72
        E 1248 80 3e 00
        E 186 90 3e 67
        E 1728 80 3e 00
        E 209 90 3c 62
        E 192 80 3c 00
        E 35 90 3c 62
        E 192 80 3c 00
        E 51 90 3e 74
        E 1248 80 3e 00
        E 201 90 40 77
        E 1728 80 40 00
        E 193 90 40 6d
        E 192 80 40 00
        E 50 90 45 5e
        E 192 80 45 00
        E 35 90 40 79
        E 1248 80 40 00
        E 207 90 45 62
        E 1728 80 45 00
        E 192 90 40 65
        E 192 80 40 00
        E 33 90 40 64
        E 192 80 40 00
        E 65 90 3e 5e
        E 1248 80 3e 00
        E 187 90 40 6b
        E 1728 80 40 00
        E 180 90 42 67
        E 192 80 42 00
        E 64 90 42 64
        E 192 80 42 00
        E 29 90 47 72
        E 1248 80 47 00
        E 200 90 4c 60
        E 1728 80 4c 00
        E 193 90 4a 69
        E 192 80 4a 00
        E 48 90 50 77
        E 192 80 50 00
        E 36 90 50 72
        E 1248 80 50 00
        E 196 90 4a 64
        E 1728 80 4a 00
        E 189 90 4c 72
        E 192 80 4c 00
        E 50 90 47 77
        E 192 80 47 00
        E 68 90 4a 67
        E 1248 80 4a 00
        E 182 90 4c 70
        E 1728 80 4c 00
        E 198 90 4a 6e
        E 192 80 4a 00
        E 54 90 4c 6e
        E 192 80 4c 00
        E 35 90 47 72
        E 1248 80 47 00
        E 188 90 4a 5e
        E 1728 80 4a 00
        E 210 90 4a 77
        E 192 80 4a 00
        E 31 90 50 67
        E 192 80 50 00
        E 56 90 50 6d
        E 1248 80 50 00
        E 188 90 4c 67
        E 1728 80 4c 00
        E 197 90 50 69
        E 192 80 50 00
        E 47 90 50 72
        E 192 80 50 00
        E 43 90 4c 74
        E 1248 80 4c 00
        E 207 90 47 72
        E 1728 80 47 00
        E 186 90 4c 5c
        E 192 80 4c 00
        E 51 90 4c 67
        E 192 80 4c 00
        E 41 90 4c 62
        E 1248 80 4c 00
        E 0 b0 7b 00
        E 1 ff 2f 00
      >
    >
  >
  <TRACK
    NAME "koto"
    PEAKCOL 4284506208
    VOLPAN 1.000000 0 1 -1
    MIDIOUT -1
    ISBUS 0 0
    <ITEM
      POSITION 0.000000
      LENGTH 268.742500
      NAME "koto"
      VOLPAN 1 0 1 -1
      <SOURCE MIDI
        HASDATA 1 960 QN
        E 0 c1 6b 00
        E 0 91 47 48
        E 91 81 47 00
        E 5 91 47 47
        E 91 81 47 00
        E 5 91 47 3c
        E 91 81 47 00
        E 5 91 47 36
        E 91 81 47 00
        E 5 91 47 3a
        E 91 81 47 00
        E 5 91 47 3c
        E 91 81 47 00
        E 5 91 47 3a
        E 91 81 47 00
        E 5 91 47 3a
        E 91 81 47 00
        E 5 91 47 3a
        E 91 81 47 00
        E 5 91 47 38
        E 91 81 47 00
        E 5 91 47 43
        E 91 81 47 00
        E 5 91 47 43
        E 91 81 47 00
        E 5 91 47 48
        E 91 81 47 00
        E 5 91 47 36
        E 91 81 47 00
        E 5 91 47 43
        E 91 81 47 00
        E 5 91 47 4a
        E 91 81 47 00
        E 5 91 47 43
        E 91 81 47 00
        E 5 91 47 41
        E 91 81 47 00
        E 5 91 47 43
        E 91 81 47 00
        E 5 91 47 47
        E 91 81 47 00
        E 5 91 47 48
        E 91 81 47 00
        E 5 91 47 3e
        E 91 81 47 00
        E 5 91 47 36
        E 91 81 47 00
        E 5 91 47 3a
        E 91 81 47 00
        E 5 91 47 43
        E 91 81 47 00
        E 5 91 47 45
        E 91 81 47 00
        E 5 91 47 47
        E 91 81 47 00
        E 5 91 47 3f
        E 91 81 47 00
        E 5 91 47 3f
        E 91 81 47 00
        E 5 91 47 3e
        E 91 81 47 00
        E 5 91 47 3a
        E 91 81 47 00
        E 5 91 47 43
        E 91 81 47 00
        E 5 91 47 48
        E 91 81 47 00
        E 5 91 47 3e
        E 91 81 47 00
        E 5 91 47 36
        E 91 81 47 00
        E 5 91 47 38
        E 91 81 47 00
        E 5 91 47 36
        E 91 81 47 00
        E 5 91 47 43
        E 91 81 47 00
        E 5 91 47 3a
        E 91 81 47 00
        E 5 91 47 43
        E 91 81 47 00
        E 5 91 47 36
        E 91 81 47 00
        E 869 91 4c 59
        E 3936 81 4c 00
        E 864 91 47 3c
        E 91 81 47 00
        E 5 91 47 4a
        E 91 81 47 00
        E 5 91 47 45
        E 91 81 47 00
        E 5 91 47 3c
        E 91 81 47 00
        E 5 91 47 3e
        E 91 81 47 00
        E 5 91 47 43
        E 91 81 47 00
        E 5 91 47 4a
        E 91 81 47 00
        E 5 91 47 4a
        E 91 81 47 00
        E 5 91 47 3e
        E 91 81 47 00
        E 5 91 47 4a
        E 91 81 47 00
        E 5 91 47 36
        E 91 81 47 00
        E 5 91 47 36
        E 91 81 47 00
        E 5 91 47 45
        E 91 81 47 00
        E 5 91 47 48
        E 91 81 47 00
        E 5 91 47 43
        E 91 81 47 00
        E 5 91 47 48
        E 91 81 47 00
        E 5 91 47 3c
        E 91 81 47 00
        E 5 91 47 3f
        E 91 81 47 00
        E 5 91 47 43
        E 91 81 47 00
        E 5 91 47 3f
        E 91 81 47 00
        E 5 91 47 3f
        E 91 81 47 00
        E 5 91 47 47
        E 91 81 47 00
        E 5 91 47 3a
        E 91 81 47 00
        E 5 91 47 47
        E 91 81 47 00
        E 5 91 47 3e
        E 91 81 47 00
        E 5 91 47 43
        E 91 81 47 00
        E 5 91 47 48
        E 91 81 47 00
        E 5 91 47 3f
        E 91 81 47 00
        E 5 91 47 3f
        E 91 81 47 00
        E 5 91 47 3a
        E 91 81 47 00
        E 5 91 47 48
        E 91 81 47 00
        E 5 91 47 47
        E 91 81 47 00
        E 5 91 47 47
        E 91 81 47 00
        E 5 91 47 48
        E 91 81 47 00
        E 5 91 47 3a
        E 91 81 47 00
        E 5 91 47 4c
        E 91 81 47 00
        E 5 91 47 48
        E 91 81 47 00
        E 5 91 47 38
        E 91 81 47 00
        E 5 91 47 36
        E 91 81 47 00
        E 5 91 47 43
        E 91 81 47 00
        E 5 91 47 47
        E 91 81 47 00
        E 869 91 42 4c
        E 91 81 42 00
        E 5 91 42 53
        E 91 81 42 00
        E 5 91 42 45
        E 91 81 42 00
        E 5 91 42 47
        E 91 81 42 00
        E 5 91 42 50
        E 91 81 42 00
        E 5 91 42 43
        E 91 81 42 00
        E 5 91 42 3f
        E 91 81 42 00
        E 5 91 42 50
        E 91 81 42 00
        E 5 91 42 3f
        E 91 81 42 00
        E 5 91 42 53
        E 91 81 42 00
        E 5 91 42 4c
        E 91 81 42 00
        E 5 91 42 41
        E 91 81 42 00
        E 5 91 42 48
        E 91 81 42 00
        E 5 91 42 4a
        E 91 81 42 00
        E 5 91 42 43
        E 91 81 42 00
        E 5 91 42 48
        E 91 81 42 00
        E 5 91 42 52
        E 91 81 42 00
        E 5 91 42 3f
        E 91 81 42 00
        E 5 91 42 47
        E 91 81 42 00
        E 5 91 42 52
        E 91 81 42 00
        E 5 91 42 53
        E 91 81 42 00
        E 5 91 42 47
        E 91 81 42 00
        E 5 91 42 53
        E 91 81 42 00
        E 5 91 42 4c
        E 91 81 42 00
        E 5 91 42 45
        E 91 81 42 00
        E 5 91 42 4e
        E 91 81 42 00
        E 5 91 42 55
        E 91 81 42 00
        E 5 91 42 4c
        E 91 81 42 00
        E 5 91 42 43
        E 91 81 42 00
        E 5 91 42 47
        E 91 81 42 00
        E 5 91 42 48
        E 91 81 42 00
        E 5 91 42 50
        E 91 81 42 00
        E 5 91 42 50
        E 91 81 42 00
        E 5 91 42 4c
        E 91 81 42 00
        E 5 91 42 3f
        E 91 81 42 00
        E 5 91 42 55
        E 91 81 42 00
        E 5 91 42 47
        E 91 81 42 00
        E 5 91 42 47
        E 91 81 42 00
        E 5 91 42 4e
        E 91 81 42 00
        E 5 91 42 43
        E 91 81 42 00
        E 5 91 42 4c
        E 91 81 42 00
        E 869 91 42 53
        E 91 81 42 00
        E 5 91 42 41
        E 91 81 42 00
        E 5 91 42 4a
        E 91 81 42 00
        E 5 91 42 53
        E 91 81 42 00
        E 5 91 42 45
        E 91 81 42 00
        E 5 91 42 3f
        E 91 81 42 00
        E 5 91 42 4e
        E 91 81 42 00
        E 5 91 42 3f
        E 91 81 42 00
        E 5 91 42 53
        E 91 81 42 00
        E 5 91 42 4a
        E 91 81 42 00
        E 5 91 42 43
        E 91 81 42 00
        E 5 91 42 55
        E 91 81 42 00
        E 5 91 42 45
        E 91 81 42 00
        E 5 91 42 48
        E 91 81 42 00
        E 5 91 42 50
        E 91 81 42 00
        E 5 91 42 4c
        E 91 81 42 00
        E 5 91 42 48
        E 91 81 42 00
        E 5 91 42 48
        E 91 81 42 00
        E 5 91 42 50
        E 91 81 42 00
        E 5 91 42 4a
        E 91 81 42 00
        E 5 91 42 47
        E 91 81 42 00
        E 5 91 42 50
        E 91 81 42 00
        E 5 91 42 48
        E 91 81 42 00
        E 5 91 42 45
        E 91 81 42 00
        E 5 91 42 45
        E 91 81 42 00
        E 5 91 42 55
        E 91 81 42 00
        E 5 91 42 55
        E 91 81 42 00
        E 5 91 42 4e
        E 91 81 42 00
        E 5 91 42 48
        E 91 81 42 00
        E 5 91 42 47
        E 91 81 42 00
        E 5 91 42 4c
        E 91 81 42 00
        E 5 91 42 4e
        E 91 81 42 00
        E 5 91 42 4c
        E 91 81 42 00
        E 5 91 42 41
        E 91 81 42 00
        E 5 91 42 48
        E 91 81 42 00
        E 5 91 42 4a
        E 91 81 42 00
        E 5 91 42 50
        E 91 81 42 00
        E 5 91 42 47
        E 91 81 42 00
        E 5 91 42 43
        E 91 81 42 00
        E 5 91 42 55
        E 91 81 42 00
        E 5 91 42 3f
        E 91 81 42 00
        E 869 91 47 5b
        E 3936 81 47 00
        E 864 91 4a 59
        E 3936 81 4a 00
        E 864 91 4e 4c
        E 91 81 4e 00
        E 5 91 4e 48
        E 91 81 4e 00
        E 5 91 4e 4e
        E 91 81 4e 00
        E 5 91 4e 50
        E 91 81 4e 00
        E 5 91 4e 47
        E 91 81 4e 00
        E 5 91 4e 47
        E 91 81 4e 00
        E 5 91 4e 4c
        E 91 81 4e 00
        E 5 91 4e 48
        E 91 81 4e 00
        E 5 91 4e 50
        E 91 81 4e 00
        E 5 91 4e 48
        E 91 81 4e 00
        E 5 91 4e 47
        E 91 81 4e 00
        E 5 91 4e 3f
        E 91 81 4e 00
        E 5 91 4e 57
        E 91 81 4e 00
        E 5 91 4e 59
        E 91 81 4e 00
        E 5 91 4e 43
        E 91 81 4e 00
        E 5 91 4e 53
        E 91 81 4e 00
        E 5 91 4e 43
        E 91 81 4e 00
        E 5 91 4e 4a
        E 91 81 4e 00
        E 5 91 4e 4a
        E 91 81 4e 00
        E 5 91 4e 57
        E 91 81 4e 00
        E 5 91 4e 41
        E 91 81 4e 00
        E 5 91 4e 47
        E 91 81 4e 00
        E 5 91 4e 47
        E 91 81 4e 00
        E 5 91 4e 43
        E 91 81 4e 00
        E 5 91 4e 50
        E 91 81 4e 00
        E 5 91 4e 4c
        E 91 81 4e 00
        E 5 91 4e 4c
        E 91 81 4e 00
        E 5 91 4e 59
        E 91 81 4e 00
        E 5 91 4e 55
        E 91 81 4e 00
        E 5 91 4e 50
        E 91 81 4e 00
        E 5 91 4e 4c
        E 91 81 4e 00
        E 5 91 4e 52
        E 91 81 4e 00
        E 5 91 4e 53
        E 91 81 4e 00
        E 5 91 4e 3f
        E 91 81 4e 00
        E 5 91 4e 55
        E 91 81 4e 00
        E 5 91 4e 4c
        E 91 81 4e 00
        E 5 91 4e 45
        E 91 81 4e 00
        E 5 91 4e 53
        E 91 81 4e 00
        E 5 91 4e 57
        E 91 81 4e 00
        E 5 91 4e 4e
        E 91 81 4e 00
        E 5 91 4e 50
        E 91 81 4e 00
        E 869 91 4c 5c
        E 3936 81 4c 00
        E 864 91 4c 62
        E 3936 81 4c 00
        E 864 91 4a 3f
        E 91 81 4a 00
        E 5 91 4a 3f
        E 91 81 4a 00
        E 5 91 4a 3f
        E 91 81 4a 00
        E 5 91 4a 43
        E 91 81 4a 00
        E 5 91 4a 3f
        E 91 81 4a 00
        E 5 91 4a 35
        E 91 81 4a 00
        E 5 91 4a 3a
        E 91 81 4a 00
        E 5 91 4a 3a
        E 91 81 4a 00
        E 5 91 4a 36
        E 91 81 4a 00
        E 5 91 4a 35
        E 91 81 4a 00
        E 5 91 4a 43
        E 91 81 4a 00
        E 5 91 4a 36
        E 91 81 4a 00
        E 5 91 4a 35
        E 91 81 4a 00
        E 5 91 4a 3a
        E 91 81 4a 00
        E 5 91 4a 38
        E 91 81 4a 00
        E 5 91 4a 3e
        E 91 81 4a 00
        E 5 91 4a 41
        E 91 81 4a 00
        E 5 91 4a 47
        E 91 81 4a 00
        E 5 91 4a 3f
        E 91 81 4a 00
        E 5 91 4a 45
        E 91 81 4a 00
        E 5 91 4a 35
        E 91 81 4a 00
        E 5 91 4a 3f
        E 91 81 4a 00
        E 5 91 4a 43
        E 91 81 4a 00
        E 5 91 4a 47
        E 91 81 4a 00
        E 5 91 4a 3a
        E 91 81 4a 00
        E 5 91 4a 36
        E 91 81 4a 00
        E 5 91 4a 43
        E 91 81 4a 00
        E 5 91 4a 3a
        E 91 81 4a 00
        E 5 91 4a 3c
        E 91 81 4a 00
        E 5 91 4a 36
        E 91 81 4a 00
        E 5 91 4a 45
        E 91 81 4a 00
        E 5 91 4a 47
        E 91 81 4a 00
        E 5 91 4a 45
        E 91 81 4a 00
        E 5 91 4a 3f
        E 91 81 4a 00
        E 5 91 4a 3a
        E 91 81 4a 00
        E 5 91 4a 47
        E 91 81 4a 00
        E 5 91 4a 36
        E 91 81 4a 00
        E 5 91 4a 47
        E 91 81 4a 00
        E 5 91 4a 47
        E 91 81 4a 00
        E 5 91 4a 35
        E 91 81 4a 00
        E 5 91 4a 36
        E 91 81 4a 00
        E 869 91 47 3f
        E 91 81 47 00
        E 5 91 47 3f
        E 91 81 47 00
        E 5 91 47 47
        E 91 81 47 00
        E 5 91 47 3f
        E 91 81 47 00
        E 5 91 47 4a
        E 91 81 47 00
        E 5 91 47 47
        E 91 81 47 00
        E 5 91 47 53
        E 91 81 47 00
        E 5 91 47 4e
        E 91 81 47 00
        E 5 91 47 3f
        E 91 81 47 00
        E 5 91 47 48
        E 91 81 47 00
        E 5 91 47 50
        E 91 81 47 00
        E 5 91 47 47
        E 91 81 47 00
        E 5 91 47 52
        E 91 81 47 00
        E 5 91 47 52
        E 91 81 47 00
        E 5 91 47 3f
        E 91 81 47 00
        E 5 91 47 47
        E 91 81 47 00
        E 5 91 47 48
        E 91 81 47 00
        E 5 91 47 50
        E 91 81 47 00
        E 5 91 47 55
        E 91 81 47 00
        E 5 91 47 52
        E 91 81 47 00
        E 5 91 47 45
        E 91 81 47 00
        E 5 91 47 53
        E 91 81 47 00
        E 5 91 47 3f
        E 91 81 47 00
        E 5 91 47 55
        E 91 81 47 00
        E 5 91 47 57
        E 91 81 47 00
        E 5 91 47 3f
        E 91 81 47 00
        E 5 91 47 4c
        E 91 81 47 00
        E 5 91 47 55
        E 91 81 47 00
        E 5 91 47 3f
        E 91 81 47 00
        E 5 91 47 47
        E 91 81 47 00
        E 5 91 47 4a
        E 91 81 47 00
        E 5 91 47 53
        E 91 81 47 00
        E 5 91 47 50
        E 91 81 47 00
        E 5 91 47 41
        E 91 81 47 00
        E 5 91 47 45
        E 91 81 47 00
        E 5 91 47 43
        E 91 81 47 00
        E 5 91 47 4c
        E 91 81 47 00
        E 5 91 47 47
        E 91 81 47 00
        E 5 91 47 4c
        E 91 81 47 00
        E 5 91 47 3f
        E 91 81 47 00
        E 5 91 47 4c
        E 91 81 47 00
        E 869 91 42 43
        E 91 81 42 00
        E 5 91 42 47
        E 91 81 42 00
        E 5 91 42 43
        E 91 81 42 00
        E 5 91 42 3e
        E 91 81 42 00
        E 5 91 42 4a
        E 91 81 42 00
        E 5 91 42 4e
        E 91 81 42 00
        E 5 91 42 43
        E 91 81 42 00
        E 5 91 42 3f
        E 91 81 42 00
        E 5 91 42 50
        E 91 81 42 00
        E 5 91 42 47
        E 91 81 42 00
        E 5 91 42 43
        E 91 81 42 00
        E 5 91 42 47
        E 91 81 42 00
        E 5 91 42 4c
        E 91 81 42 00
        E 5 91 42 3f
        E 91 81 42 00
        E 5 91 42 50
        E 91 81 42 00
        E 5 91 42 50
        E 91 81 42 00
        E 5 91 42 41
        E 91 81 42 00
        E 5 91 42 41
        E 91 81 42 00
        E 5 91 42 45
        E 91 81 42 00
        E 5 91 42 50
        E 91 81 42 00
        E 5 91 42 4c
        E 91 81 42 00
        E 5 91 42 4e
        E 91 81 42 00
        E 5 91 42 3f
        E 91 81 42 00
        E 5 91 42 4c
        E 91 81 42 00
        E 5 91 42 3f
        E 91 81 42 00
        E 5 91 42 4a
        E 91 81 42 00
        E 5 91 42 3e
        E 91 81 42 00
        E 5 91 42 4e
        E 91 81 42 00
        E 5 91 42 50
        E 91 81 42 00
        E 5 91 42 43
        E 91 81 42 00
        E 5 91 42 3e
        E 91 81 42 00
        E 5 91 42 41
        E 91 81 42 00
        E 5 91 42 3e
        E 91 81 42 00
        E 5 91 42 48
        E 91 81 42 00
        E 5 91 42 4c
        E 91 81 42 00
        E 5 91 42 3f
        E 91 81 42 00
        E 5 91 42 43
        E 91 81 42 00
        E 5 91 42 43
        E 91 81 42 00
        E 5 91 42 4c
        E 91 81 42 00
        E 5 91 42 4a
        E 91 81 42 00
        E 5 91 42 52
        E 91 81 42 00
        E 869 91 40 47
        E 91 81 40 00
        E 5 91 40 50
        E 91 81 40 00
        E 5 91 40 53
        E 91 81 40 00
        E 5 91 40 50
        E 91 81 40 00
        E 5 91 40 43
        E 91 81 40 00
        E 5 91 40 50
        E 91 81 40 00
        E 5 91 40 47
        E 91 81 40 00
        E 5 91 40 50
        E 91 81 40 00
        E 5 91 40 3f
        E 91 81 40 00
        E 5 91 40 41
        E 91 81 40 00
        E 5 91 40 43
        E 91 81 40 00
        E 5 91 40 53
        E 91 81 40 00
        E 5 91 40 4e
        E 91 81 40 00
        E 5 91 40 47
        E 91 81 40 00
        E 5 91 40 50
        E 91 81 40 00
        E 5 91 40 47
        E 91 81 40 00
        E 5 91 40 3f
        E 91 81 40 00
        E 5 91 40 4c
        E 91 81 40 00
        E 5 91 40 52
        E 91 81 40 00
        E 5 91 40 53
        E 91 81 40 00
        E 5 91 40 48
        E 91 81 40 00
        E 5 91 40 52
        E 91 81 40 00
        E 5 91 40 45
        E 91 81 40 00
        E 5 91 40 3f
        E 91 81 40 00
        E 5 91 40 41
        E 91 81 40 00
        E 5 91 40 3f
        E 91 81 40 00
        E 5 91 40 3f
        E 91 81 40 00
        E 5 91 40 47
        E 91 81 40 00
        E 5 91 40 4c
        E 91 81 40 00
        E 5 91 40 50
        E 91 81 40 00
        E 5 91 40 50
        E 91 81 40 00
        E 5 91 40 47
        E 91 81 40 00
        E 5 91 40 41
        E 91 81 40 00
        E 5 91 40 43
        E 91 81 40 00
        E 5 91 40 45
        E 91 81 40 00
        E 5 91 40 43
        E 91 81 40 00
        E 5 91 40 43
        E 91 81 40 00
        E 5 91 40 4a
        E 91 81 40 00
        E 5 91 40 3e
        E 91 81 40 00
        E 5 91 40 50
        E 91 81 40 00
        E 5 91 40 3f
        E 91 81 40 00
        E 869 91 45 4c
        E 91 81 45 00
        E 5 91 45 47
        E 91 81 45 00
        E 5 91 45 47
        E 91 81 45 00
        E 5 91 45 50
        E 91 81 45 00
        E 5 91 45 52
        E 91 81 45 00
        E 5 91 45 4c
        E 91 81 45 00
        E 5 91 45 47
        E 91 81 45 00
        E 5 91 45 41
        E 91 81 45 00
        E 5 91 45 41
        E 91 81 45 00
        E 5 91 45 48
        E 91 81 45 00
        E 5 91 45 43
        E 91 81 45 00
        E 5 91 45 47
        E 91 81 45 00
        E 5 91 45 4a
        E 91 81 45 00
        E 5 91 45 45
        E 91 81 45 00
        E 5 91 45 43
        E 91 81 45 00
        E 5 91 45 52
        E 91 81 45 00
        E 5 91 45 47
        E 91 81 45 00
        E 5 91 45 4c
        E 91 81 45 00
        E 5 91 45 55
        E 91 81 45 00
        E 5 91 45 43
        E 91 81 45 00
        E 5 91 45 3f
        E 91 81 45 00
        E 5 91 45 43
        E 91 81 45 00
        E 5 91 45 3f
        E 91 81 45 00
        E 5 91 45 52
        E 91 81 45 00
        E 5 91 45 4c
        E 91 81 45 00
        E 5 91 45 52
        E 91 81 45 00
        E 5 91 45 41
        E 91 81 45 00
        E 5 91 45 4c
        E 91 81 45 00
        E 5 91 45 3f
        E 91 81 45 00
        E 5 91 45 48
        E 91 81 45 00
        E 5 91 45 4c
        E 91 81 45 00
        E 5 91 45 43
        E 91 81 45 00
        E 5 91 45 53
        E 91 81 45 00
        E 5 91 45 53
        E 91 81 45 00
        E 5 91 45 4e
        E 91 81 45 00
        E 5 91 45 48
        E 91 81 45 00
        E 5 91 45 50
        E 91 81 45 00
        E 5 91 45 4a
        E 91 81 45 00
        E 5 91 45 4a
        E 91 81 45 00
        E 5 91 45 3e
        E 91 81 45 00
        E 5 91 45 43
        E 91 81 45 00
        E 869 91 47 62
        E 3936 81 47 00
        E 864 91 4c 3f
        E 91 81 4c 00
        E 5 91 4c 50
        E 91 81 4c 00
        E 5 91 4c 3f
        E 91 81 4c 00
        E 5 91 4c 3f
        E 91 81 4c 00
        E 5 91 4c 47
        E 91 81 4c 00
        E 5 91 4c 43
        E 91 81 4c 00
        E 5 91 4c 45
        E 91 81 4c 00
        E 5 91 4c 47
        E 91 81 4c 00
        E 5 91 4c 50
        E 91 81 4c 00
        E 5 91 4c 45
        E 91 81 4c 00
        E 5 91 4c 48
        E 91 81 4c 00
        E 5 91 4c 43
        E 91 81 4c 00
        E 5 91 4c 50
        E 91 81 4c 00
        E 5 91 4c 4e
        E 91 81 4c 00
        E 5 91 4c 4a
        E 91 81 4c 00
        E 5 91 4c 45
        E 91 81 4c 00
        E 5 91 4c 43
        E 91 81 4c 00
        E 5 91 4c 41
        E 91 81 4c 00
        E 5 91 4c 50
        E 91 81 4c 00
        E 5 91 4c 48
        E 91 81 4c 00
        E 5 91 4c 43
        E 91 81 4c 00
        E 5 91 4c 3f
        E 91 81 4c 00
        E 5 91 4c 4a
        E 91 81 4c 00
        E 5 91 4c 4c
        E 91 81 4c 00
        E 5 91 4c 3f
        E 91 81 4c 00
        E 5 91 4c 4a
        E 91 81 4c 00
        E 5 91 4c 53
        E 91 81 4c 00
        E 5 91 4c 52
        E 91 81 4c 00
        E 5 91 4c 41
        E 91 81 4c 00
        E 5 91 4c 43
        E 91 81 4c 00
        E 5 91 4c 53
        E 91 81 4c 00
        E 5 91 4c 48
        E 91 81 4c 00
        E 5 91 4c 50
        E 91 81 4c 00
        E 5 91 4c 4a
        E 91 81 4c 00
        E 5 91 4c 50
        E 91 81 4c 00
        E 5 91 4c 53
        E 91 81 4c 00
        E 5 91 4c 50
        E 91 81 4c 00
        E 5 91 4c 50
        E 91 81 4c 00
        E 5 91 4c 4c
        E 91 81 4c 00
        E 5 91 4c 52
        E 91 81 4c 00
        E 5 91 4c 43
        E 91 81 4c 00
        E 869 91 4a 53
        E 3936 81 4a 00
        E 864 91 47 4a
        E 91 81 47 00
        E 5 91 47 47
        E 91 81 47 00
        E 5 91 47 41
        E 91 81 47 00
        E 5 91 47 4e
        E 91 81 47 00
        E 5 91 47 48
        E 91 81 47 00
        E 5 91 47 43
        E 91 81 47 00
        E 5 91 47 3f
        E 91 81 47 00
        E 5 91 47 3a
        E 91 81 47 00
        E 5 91 47 4c
        E 91 81 47 00
        E 5 91 47 4e
        E 91 81 47 00
        E 5 91 47 3a
        E 91 81 47 00
        E 5 91 47 3a
        E 91 81 47 00
        E 5 91 47 3f
        E 91 81 47 00
        E 5 91 47 45
        E 91 81 47 00
        E 5 91 47 3e
        E 91 81 47 00
        E 5 91 47 3f
        E 91 81 47 00
        E 5 91 47 41
        E 91 81 47 00
        E 5 91 47 4c
        E 91 81 47 00
        E 5 91 47 4c
        E 91 81 47 00
        E 5 91 47 4a
        E 91 81 47 00
        E 5 91 47 43
        E 91 81 47 00
        E 5 91 47 4c
        E 91 81 47 00
        E 5 91 47 3f
        E 91 81 47 00
        E 5 91 47 3f
        E 91 81 47 00
        E 5 91 47 47
        E 91 81 47 00
        E 5 91 47 3f
        E 91 81 47 00
        E 5 91 47 4a
        E 91 81 47 00
        E 5 91 47 50
        E 91 81 47 00
        E 5 91 47 4e
        E 91 81 47 00
        E 5 91 47 4a
        E 91 81 47 00
        E 5 91 47 3c
        E 91 81 47 00
        E 5 91 47 48
        E 91 81 47 00
        E 5 91 47 50
        E 91 81 47 00
        E 5 91 47 47
        E 91 81 47 00
        E 5 91 47 43
        E 91 81 47 00
        E 5 91 47 47
        E 91 81 47 00
        E 5 91 47 48
        E 91 81 47 00
        E 5 91 47 43
        E 91 81 47 00
        E 5 91 47 45
        E 91 81 47 00
        E 5 91 47 43
        E 91 81 47 00
        E 5 91 47 47
        E 91 81 47 00
        E 869 91 42 50
        E 3936 81 42 00
        E 864 91 40 47
        E 91 81 40 00
        E 5 91 40 3a
        E 91 81 40 00
        E 5 91 40 3c
        E 91 81 40 00
        E 5 91 40 4c
        E 91 81 40 00
        E 5 91 40 45
        E 91 81 40 00
        E 5 91 40 47
        E 91 81 40 00
        E 5 91 40 4c
        E 91 81 40 00
        E 5 91 40 3a
        E 91 81 40 00
        E 5 91 40 3a
        E 91 81 40 00
        E 5 91 40 3e
        E 91 81 40 00
        E 5 91 40 43
        E 91 81 40 00
        E 5 91 40 3f
        E 91 81 40 00
        E 5 91 40 3a
        E 91 81 40 00
        E 5 91 40 4a
        E 91 81 40 00
        E 5 91 40 3c
        E 91 81 40 00
        E 5 91 40 47
        E 91 81 40 00
        E 5 91 40 38
        E 91 81 40 00
        E 5 91 40 4c
        E 91 81 40 00
        E 5 91 40 47
        E 91 81 40 00
        E 5 91 40 4c
        E 91 81 40 00
        E 5 91 40 45
        E 91 81 40 00
        E 5 91 40 47
        E 91 81 40 00
        E 5 91 40 4c
        E 91 81 40 00
        E 5 91 40 41
        E 91 81 40 00
        E 5 91 40 47
        E 91 81 40 00
        E 5 91 40 43
        E 91 81 40 00
        E 5 91 40 3e
        E 91 81 40 00
        E 5 91 40 3c
        E 91 81 40 00
        E 5 91 40 4a
        E 91 81 40 00
        E 5 91 40 45
        E 91 81 40 00
        E 5 91 40 4c
        E 91 81 40 00
        E 5 91 40 48
        E 91 81 40 00
        E 5 91 40 43
        E 91 81 40 00
        E 5 91 40 43
        E 91 81 40 00
        E 5 91 40 47
        E 91 81 40 00
        E 5 91 40 38
        E 91 81 40 00
        E 5 91 40 43
        E 91 81 40 00
        E 5 91 40 3e
        E 91 81 40 00
        E 5 91 40 47
        E 91 81 40 00
        E 5 91 40 3c
        E 91 81 40 00
        E 5 91 40 41
        E 91 81 40 00
        E 869 91 3e 50
        E 3936 81 3e 00
        E 864 91 40 41
        E 91 81 40 00
        E 5 91 40 36
        E 91 81 40 00
        E 5 91 40 4a
        E 91 81 40 00
        E 5 91 40 4a
        E 91 81 40 00
        E 5 91 40 3a
        E 91 81 40 00
        E 5 91 40 47
        E 91 81 40 00
        E 5 91 40 41
        E 91 81 40 00
        E 5 91 40 4a
        E 91 81 40 00
        E 5 91 40 3f
        E 91 81 40 00
        E 5 91 40 3f
        E 91 81 40 00
        E 5 91 40 36
        E 91 81 40 00
        E 5 91 40 47
        E 91 81 40 00
        E 5 91 40 4a
        E 91 81 40 00
        E 5 91 40 47
        E 91 81 40 00
        E 5 91 40 41
        E 91 81 40 00
        E 5 91 40 43
        E 91 81 40 00
        E 5 91 40 36
        E 91 81 40 00
        E 5 91 40 4a
        E 91 81 40 00
        E 5 91 40 3f
        E 91 81 40 00
        E 5 91 40 3a
        E 91 81 40 00
        E 5 91 40 3f
        E 91 81 40 00
        E 5 91 40 48
        E 91 81 40 00
        E 5 91 40 3f
        E 91 81 40 00
        E 5 91 40 41
        E 91 81 40 00
        E 5 91 40 38
        E 91 81 40 00
        E 5 91 40 36
        E 91 81 40 00
        E 5 91 40 3a
        E 91 81 40 00
        E 5 91 40 36
        E 91 81 40 00
        E 5 91 40 4c
        E 91 81 40 00
        E 5 91 40 45
        E 91 81 40 00
        E 5 91 40 38
        E 91 81 40 00
        E 5 91 40 36
        E 91 81 40 00
        E 5 91 40 45
        E 91 81 40 00
        E 5 91 40 43
        E 91 81 40 00
        E 5 91 40 3c
        E 91 81 40 00
        E 5 91 40 45
        E 91 81 40 00
        E 5 91 40 36
        E 91 81 40 00
        E 5 91 40 36
        E 91 81 40 00
        E 5 91 40 3a
        E 91 81 40 00
        E 5 91 40 48
        E 91 81 40 00
        E 5 91 40 36
        E 91 81 40 00
        E 869 91 42 43
        E 91 81 42 00
        E 5 91 42 47
        E 91 81 42 00
        E 5 91 42 4c
        E 91 81 42 00
        E 5 91 42 52
        E 91 81 42 00
        E 5 91 42 47
        E 91 81 42 00
        E 5 91 42 4e
        E 91 81 42 00
        E 5 91 42 59
        E 91 81 42 00
        E 5 91 42 52
        E 91 81 42 00
        E 5 91 42 53
        E 91 81 42 00
        E 5 91 42 50
        E 91 81 42 00
        E 5 91 42 52
        E 91 81 42 00
        E 5 91 42 4c
        E 91 81 42 00
        E 5 91 42 50
        E 91 81 42 00
        E 5 91 42 45
        E 91 81 42 00
        E 5 91 42 43
        E 91 81 42 00
        E 5 91 42 50
        E 91 81 42 00
        E 5 91 42 4e
        E 91 81 42 00
        E 5 91 42 4a
        E 91 81 42 00
        E 5 91 42 4c
        E 91 81 42 00
        E 5 91 42 55
        E 91 81 42 00
        E 5 91 42 59
        E 91 81 42 00
        E 5 91 42 52
        E 91 81 42 00
        E 5 91 42 53
        E 91 81 42 00
        E 5 91 42 55
        E 91 81 42 00
        E 5 91 42 4a
        E 91 81 42 00
        E 5 91 42 50
        E 91 81 42 00
        E 5 91 42 50
        E 91 81 42 00
        E 5 91 42 53
        E 91 81 42 00
        E 5 91 42 55
        E 91 81 42 00
        E 5 91 42 41
        E 91 81 42 00
        E 5 91 42 55
        E 91 81 42 00
        E 5 91 42 50
        E 91 81 42 00
        E 5 91 42 59
        E 91 81 42 00
        E 5 91 42 47
        E 91 81 42 00
        E 5 91 42 50
        E 91 81 42 00
        E 5 91 42 53
        E 91 81 42 00
        E 5 91 42 57
        E 91 81 42 00
        E 5 91 42 43
        E 91 81 42 00
        E 5 91 42 52
        E 91 81 42 00
        E 5 91 42 45
        E 91 81 42 00
        E 5 91 42 4c
        E 91 81 42 00
        E 869 91 42 36
        E 91 81 42 00
        E 5 91 42 43
        E 91 81 42 00
        E 5 91 42 36
        E 91 81 42 00
        E 5 91 42 3c
        E 91 81 42 00
        E 5 91 42 3f
        E 91 81 42 00
        E 5 91 42 3e
        E 91 81 42 00
        E 5 91 42 3f
        E 91 81 42 00
        E 5 91 42 47
        E 91 81 42 00
        E 5 91 42 3a
        E 91 81 42 00
        E 5 91 42 3f
        E 91 81 42 00
        E 5 91 42 47
        E 91 81 42 00
        E 5 91 42 45
        E 91 81 42 00
        E 5 91 42 47
        E 91 81 42 00
        E 5 91 42 41
        E 91 81 42 00
        E 5 91 42 3f
        E 91 81 42 00
        E 5 91 42 3f
        E 91 81 42 00
        E 5 91 42 3f
        E 91 81 42 00
        E 5 91 42 45
        E 91 81 42 00
        E 5 91 42 45
        E 91 81 42 00
        E 5 91 42 3a
        E 91 81 42 00
        E 5 91 42 45
        E 91 81 42 00
        E 5 91 42 4c
        E 91 81 42 00
        E 5 91 42 38
        E 91 81 42 00
        E 5 91 42 3c
        E 91 81 42 00
        E 5 91 42 38
        E 91 81 42 00
        E 5 91 42 3a
        E 91 81 42 00
        E 5 91 42 3a
        E 91 81 42 00
        E 5 91 42 45
        E 91 81 42 00
        E 5 91 42 43
        E 91 81 42 00
        E 5 91 42 3a
        E 91 81 42 00
        E 5 91 42 3a
        E 91 81 42 00
        E 5 91 42 47
        E 91 81 42 00
        E 5 91 42 3c
        E 91 81 42 00
        E 5 91 42 48
        E 91 81 42 00
        E 5 91 42 3a
        E 91 81 42 00
        E 5 91 42 4a
        E 91 81 42 00
        E 5 91 42 3f
        E 91 81 42 00
        E 5 91 42 3e
        E 91 81 42 00
        E 5 91 42 36
        E 91 81 42 00
        E 5 91 42 4a
        E 91 81 42 00
        E 5 91 42 43
        E 91 81 42 00
        E 869 91 47 50
        E 3936 81 47 00
        E 864 91 42 3f
        E 91 81 42 00
        E 5 91 42 45
        E 91 81 42 00
        E 5 91 42 48
        E 91 81 42 00
        E 5 91 42 3a
        E 91 81 42 00
        E 5 91 42 3f
        E 91 81 42 00
        E 5 91 42 3e
        E 91 81 42 00
        E 5 91 42 43
        E 91 81 42 00
        E 5 91 42 48
        E 91 81 42 00
        E 5 91 42 4c
        E 91 81 42 00
        E 5 91 42 45
        E 91 81 42 00
        E 5 91 42 41
        E 91 81 42 00
        E 5 91 42 3a
        E 91 81 42 00
        E 5 91 42 3f
        E 91 81 42 00
        E 5 91 42 4e
        E 91 81 42 00
        E 5 91 42 48
        E 91 81 42 00
        E 5 91 42 43
        E 91 81 42 00
        E 5 91 42 41
        E 91 81 42 00
        E 5 91 42 4c
        E 91 81 42 00
        E 5 91 42 48
        E 91 81 42 00
        E 5 91 42 47
        E 91 81 42 00
        E 5 91 42 4c
        E 91 81 42 00
        E 5 91 42 4a
        E 91 81 42 00
        E 5 91 42 4c
        E 91 81 42 00
        E 5 91 42 43
        E 91 81 42 00
        E 5 91 42 41
        E 91 81 42 00
        E 5 91 42 4e
        E 91 81 42 00
        E 5 91 42 43
        E 91 81 42 00
        E 5 91 42 41
        E 91 81 42 00
        E 5 91 42 47
        E 91 81 42 00
        E 5 91 42 43
        E 91 81 42 00
        E 5 91 42 4c
        E 91 81 42 00
        E 5 91 42 4e
        E 91 81 42 00
        E 5 91 42 3c
        E 91 81 42 00
        E 5 91 42 3a
        E 91 81 42 00
        E 5 91 42 3a
        E 91 81 42 00
        E 5 91 42 45
        E 91 81 42 00
        E 5 91 42 3a
        E 91 81 42 00
        E 5 91 42 4e
        E 91 81 42 00
        E 5 91 42 3f
        E 91 81 42 00
        E 5 91 42 3f
        E 91 81 42 00
        E 5 91 42 41
        E 91 81 42 00
        E 869 91 40 53
        E 3936 81 40 00
        E 864 91 42 5c
        E 3936 81 42 00
        E 864 91 47 48
        E 91 81 47 00
        E 5 91 47 4e
        E 91 81 47 00
        E 5 91 47 53
        E 91 81 47 00
        E 5 91 47 4c
        E 91 81 47 00
        E 5 91 47 55
        E 91 81 47 00
        E 5 91 47 4a
        E 91 81 47 00
        E 5 91 47 50
        E 91 81 47 00
        E 5 91 47 48
        E 91 81 47 00
        E 5 91 47 47
        E 91 81 47 00
        E 5 91 47 45
        E 91 81 47 00
        E 5 91 47 53
        E 91 81 47 00
        E 5 91 47 50
        E 91 81 47 00
        E 5 91 47 55
        E 91 81 47 00
        E 5 91 47 4a
        E 91 81 47 00
        E 5 91 47 53
        E 91 81 47 00
        E 5 91 47 47
        E 91 81 47 00
        E 5 91 47 41
        E 91 81 47 00
        E 5 91 47 50
        E 91 81 47 00
        E 5 91 47 47
        E 91 81 47 00
        E 5 91 47 48
        E 91 81 47 00
        E 5 91 47 53
        E 91 81 47 00
        E 5 91 47 47
        E 91 81 47 00
        E 5 91 47 4c
        E 91 81 47 00
        E 5 91 47 48
        E 91 81 47 00
        E 5 91 47 50
        E 91 81 47 00
        E 5 91 47 53
        E 91 81 47 00
        E 5 91 47 43
        E 91 81 47 00
        E 5 91 47 52
        E 91 81 47 00
        E 5 91 47 3f
        E 91 81 47 00
        E 5 91 47 3f
        E 91 81 47 00
        E 5 91 47 47
        E 91 81 47 00
        E 5 91 47 4c
        E 91 81 47 00
        E 5 91 47 43
        E 91 81 47 00
        E 5 91 47 4c
        E 91 81 47 00
        E 5 91 47 47
        E 91 81 47 00
        E 5 91 47 47
        E 91 81 47 00
        E 5 91 47 50
        E 91 81 47 00
        E 5 91 47 43
        E 91 81 47 00
        E 5 91 47 43
        E 91 81 47 00
        E 5 91 47 41
        E 91 81 47 00
        E 5 91 47 53
        E 91 81 47 00
        E 869 91 4c 3a
        E 91 81 4c 00
        E 5 91 4c 45
        E 91 81 4c 00
        E 5 91 4c 4c
        E 91 81 4c 00
        E 5 91 4c 3e
        E 91 81 4c 00
        E 5 91 4c 4e
        E 91 81 4c 00
        E 5 91 4c 4c
        E 91 81 4c 00
        E 5 91 4c 43
        E 91 81 4c 00
        E 5 91 4c 41
        E 91 81 4c 00
        E 5 91 4c 48
        E 91 81 4c 00
        E 5 91 4c 3f
        E 91 81 4c 00
        E 5 91 4c 3a
        E 91 81 4c 00
        E 5 91 4c 4a
        E 91 81 4c 00
        E 5 91 4c 47
        E 91 81 4c 00
        E 5 91 4c 4a
        E 91 81 4c 00
        E 5 91 4c 47
        E 91 81 4c 00
        E 5 91 4c 4c
        E 91 81 4c 00
        E 5 91 4c 45
        E 91 81 4c 00
        E 5 91 4c 41
        E 91 81 4c 00
        E 5 91 4c 47
        E 91 81 4c 00
        E 5 91 4c 47
        E 91 81 4c 00
        E 5 91 4c 3f
        E 91 81 4c 00
        E 5 91 4c 3f
        E 91 81 4c 00
        E 5 91 4c 48
        E 91 81 4c 00
        E 5 91 4c 4c
        E 91 81 4c 00
        E 5 91 4c 3e
        E 91 81 4c 00
        E 5 91 4c 4c
        E 91 81 4c 00
        E 5 91 4c 3a
        E 91 81 4c 00
        E 5 91 4c 3f
        E 91 81 4c 00
        E 5 91 4c 43
        E 91 81 4c 00
        E 5 91 4c 48
        E 91 81 4c 00
        E 5 91 4c 3a
        E 91 81 4c 00
        E 5 91 4c 47
        E 91 81 4c 00
        E 5 91 4c 3e
        E 91 81 4c 00
        E 5 91 4c 3a
        E 91 81 4c 00
        E 5 91 4c 43
        E 91 81 4c 00
        E 5 91 4c 4c
        E 91 81 4c 00
        E 5 91 4c 4a
        E 91 81 4c 00
        E 5 91 4c 48
        E 91 81 4c 00
        E 5 91 4c 3a
        E 91 81 4c 00
        E 5 91 4c 3f
        E 91 81 4c 00
        E 5 91 4c 3f
        E 91 81 4c 00
        E 869 91 4e 45
        E 91 81 4e 00
        E 5 91 4e 41
        E 91 81 4e 00
        E 5 91 4e 3f
        E 91 81 4e 00
        E 5 91 4e 3e
        E 91 81 4e 00
        E 5 91 4e 3f
        E 91 81 4e 00
        E 5 91 4e 3a
        E 91 81 4e 00
        E 5 91 4e 3f
        E 91 81 4e 00
        E 5 91 4e 3a
        E 91 81 4e 00
        E 5 91 4e 48
        E 91 81 4e 00
        E 5 91 4e 3c
        E 91 81 4e 00
        E 5 91 4e 4c
        E 91 81 4e 00
        E 5 91 4e 3a
        E 91 81 4e 00
        E 5 91 4e 3f
        E 91 81 4e 00
        E 5 91 4e 3e
        E 91 81 4e 00
        E 5 91 4e 50
        E 91 81 4e 00
        E 5 91 4e 3f
        E 91 81 4e 00
        E 5 91 4e 4e
        E 91 81 4e 00
        E 5 91 4e 3f
        E 91 81 4e 00
        E 5 91 4e 41
        E 91 81 4e 00
        E 5 91 4e 45
        E 91 81 4e 00
        E 5 91 4e 47
        E 91 81 4e 00
        E 5 91 4e 50
        E 91 81 4e 00
        E 5 91 4e 4a
        E 91 81 4e 00
        E 5 91 4e 3a
        E 91 81 4e 00
        E 5 91 4e 45
        E 91 81 4e 00
        E 5 91 4e 4c
        E 91 81 4e 00
        E 5 91 4e 41
        E 91 81 4e 00
        E 5 91 4e 41
        E 91 81 4e 00
        E 5 91 4e 45
        E 91 81 4e 00
        E 5 91 4e 3e
        E 91 81 4e 00
        E 5 91 4e 4c
        E 91 81 4e 00
        E 5 91 4e 41
        E 91 81 4e 00
        E 5 91 4e 3f
        E 91 81 4e 00
        E 5 91 4e 43
        E 91 81 4e 00
        E 5 91 4e 3a
        E 91 81 4e 00
        E 5 91 4e 4a
        E 91 81 4e 00
        E 5 91 4e 47
        E 91 81 4e 00
        E 5 91 4e 3f
        E 91 81 4e 00
        E 5 91 4e 3a
        E 91 81 4e 00
        E 5 91 4e 48
        E 91 81 4e 00
        E 5 91 4e 47
        E 91 81 4e 00
        E 869 91 4e 43
        E 91 81 4e 00
        E 5 91 4e 3e
        E 91 81 4e 00
        E 5 91 4e 50
        E 91 81 4e 00
        E 5 91 4e 41
        E 91 81 4e 00
        E 5 91 4e 3e
        E 91 81 4e 00
        E 5 91 4e 4a
        E 91 81 4e 00
        E 5 91 4e 43
        E 91 81 4e 00
        E 5 91 4e 4c
        E 91 81 4e 00
        E 5 91 4e 3a
        E 91 81 4e 00
        E 5 91 4e 4c
        E 91 81 4e 00
        E 5 91 4e 43
        E 91 81 4e 00
        E 5 91 4e 3a
        E 91 81 4e 00
        E 5 91 4e 4e
        E 91 81 4e 00
        E 5 91 4e 3e
        E 91 81 4e 00
        E 5 91 4e 4a
        E 91 81 4e 00
        E 5 91 4e 45
        E 91 81 4e 00
        E 5 91 4e 3c
        E 91 81 4e 00
        E 5 91 4e 4a
        E 91 81 4e 00
        E 5 91 4e 50
        E 91 81 4e 00
        E 5 91 4e 3a
        E 91 81 4e 00
        E 5 91 4e 47
        E 91 81 4e 00
        E 5 91 4e 50
        E 91 81 4e 00
        E 5 91 4e 4e
        E 91 81 4e 00
        E 5 91 4e 47
        E 91 81 4e 00
        E 5 91 4e 3a
        E 91 81 4e 00
        E 5 91 4e 45
        E 91 81 4e 00
        E 5 91 4e 3c
        E 91 81 4e 00
        E 5 91 4e 3f
        E 91 81 4e 00
        E 5 91 4e 4c
        E 91 81 4e 00
        E 5 91 4e 4c
        E 91 81 4e 00
        E 5 91 4e 4c
        E 91 81 4e 00
        E 5 91 4e 50
        E 91 81 4e 00
        E 5 91 4e 41
        E 91 81 4e 00
        E 5 91 4e 47
        E 91 81 4e 00
        E 5 91 4e 4c
        E 91 81 4e 00
        E 5 91 4e 3e
        E 91 81 4e 00
        E 5 91 4e 4c
        E 91 81 4e 00
        E 5 91 4e 4a
        E 91 81 4e 00
        E 5 91 4e 43
        E 91 81 4e 00
        E 5 91 4e 3e
        E 91 81 4e 00
        E 5 91 4e 43
        E 91 81 4e 00
        E 869 91 4c 3f
        E 91 81 4c 00
        E 5 91 4c 3a
        E 91 81 4c 00
        E 5 91 4c 47
        E 91 81 4c 00
        E 5 91 4c 48
        E 91 81 4c 00
        E 5 91 4c 3c
        E 91 81 4c 00
        E 5 91 4c 43
        E 91 81 4c 00
        E 5 91 4c 43
        E 91 81 4c 00
        E 5 91 4c 3c
        E 91 81 4c 00
        E 5 91 4c 36
        E 91 81 4c 00
        E 5 91 4c 43
        E 91 81 4c 00
        E 5 91 4c 41
        E 91 81 4c 00
        E 5 91 4c 48
        E 91 81 4c 00
        E 5 91 4c 47
        E 91 81 4c 00
        E 5 91 4c 43
        E 91 81 4c 00
        E 5 91 4c 36
        E 91 81 4c 00
        E 5 91 4c 3f
        E 91 81 4c 00
        E 5 91 4c 3f
        E 91 81 4c 00
        E 5 91 4c 48
        E 91 81 4c 00
        E 5 91 4c 3a
        E 91 81 4c 00
        E 5 91 4c 47
        E 91 81 4c 00
        E 5 91 4c 3f
        E 91 81 4c 00
        E 5 91 4c 3a
        E 91 81 4c 00
        E 5 91 4c 3e
        E 91 81 4c 00
        E 5 91 4c 45
        E 91 81 4c 00
        E 5 91 4c 36
        E 91 81 4c 00
        E 5 91 4c 43
        E 91 81 4c 00
        E 5 91 4c 3c
        E 91 81 4c 00
        E 5 91 4c 3f
        E 91 81 4c 00
        E 5 91 4c 45
        E 91 81 4c 00
        E 5 91 4c 47
        E 91 81 4c 00
        E 5 91 4c 3c
        E 91 81 4c 00
        E 5 91 4c 43
        E 91 81 4c 00
        E 5 91 4c 36
        E 91 81 4c 00
        E 5 91 4c 47
        E 91 81 4c 00
        E 5 91 4c 3a
        E 91 81 4c 00
        E 5 91 4c 41
        E 91 81 4c 00
        E 5 91 4c 41
        E 91 81 4c 00
        E 5 91 4c 36
        E 91 81 4c 00
        E 5 91 4c 3f
        E 91 81 4c 00
        E 5 91 4c 47
        E 91 81 4c 00
        E 5 91 4c 3f
        E 91 81 4c 00
        E 869 91 4a 60
        E 3936 81 4a 00
        E 864 91 47 52
        E 91 81 47 00
        E 5 91 47 3e
        E 91 81 47 00
        E 5 91 47 43
        E 91 81 47 00
        E 5 91 47 47
        E 91 81 47 00
        E 5 91 47 53
        E 91 81 47 00
        E 5 91 47 53
        E 91 81 47 00
        E 5 91 47 47
        E 91 81 47 00
        E 5 91 47 45
        E 91 81 47 00
        E 5 91 47 4c
        E 91 81 47 00
        E 5 91 47 52
        E 91 81 47 00
        E 5 91 47 47
        E 91 81 47 00
        E 5 91 47 3e
        E 91 81 47 00
        E 5 91 47 4a
        E 91 81 47 00
        E 5 91 47 47
        E 91 81 47 00
        E 5 91 47 4e
        E 91 81 47 00
        E 5 91 47 50
        E 91 81 47 00
        E 5 91 47 4e
        E 91 81 47 00
        E 5 91 47 52
        E 91 81 47 00
        E 5 91 47 50
        E 91 81 47 00
        E 5 91 47 4a
        E 91 81 47 00
        E 5 91 47 41
        E 91 81 47 00
        E 5 91 47 52
        E 91 81 47 00
        E 5 91 47 47
        E 91 81 47 00
        E 5 91 47 4a
        E 91 81 47 00
        E 5 91 47 47
        E 91 81 47 00
        E 5 91 47 53
        E 91 81 47 00
        E 5 91 47 48
        E 91 81 47 00
        E 5 91 47 50
        E 91 81 47 00
        E 5 91 47 3e
        E 91 81 47 00
        E 5 91 47 43
        E 91 81 47 00
        E 5 91 47 47
        E 91 81 47 00
        E 5 91 47 48
        E 91 81 47 00
        E 5 91 47 3f
        E 91 81 47 00
        E 5 91 47 52
        E 91 81 47 00
        E 5 91 47 45
        E 91 81 47 00
        E 5 91 47 48
        E 91 81 47 00
        E 5 91 47 4c
        E 91 81 47 00
        E 5 91 47 47
        E 91 81 47 00
        E 5 91 47 50
        E 91 81 47 00
        E 5 91 47 43
        E 91 81 47 00
        E 5 91 47 53
        E 91 81 47 00
        E 0 b1 7b 00
        E 1 ff 2f 00
      >
    >
  >
  <TRACK
    NAME "bass_drum"
    PEAKCOL 4290722362
    VOLPAN 1.000000 0 1 -1
    MIDIOUT -1
    ISBUS 0 0
    <ITEM
      POSITION 0.000000
      LENGTH 263.350000
      NAME "bass_drum"
      VOLPAN 1 0 1 -1
      <SOURCE MIDI
        HASDATA 1 960 QN
        E 0 c9 00 00
        E 0 99 23 7d
        E 480 89 23 00
        E 4320 99 23 7d
        E 480 89 23 00
        E 4320 99 23 7d
        E 480 89 23 00
        E 4320 99 23 7d
        E 480 89 23 00
        E 4320 99 23 7d
        E 480 89 23 00
        E 4320 99 23 7d
        E 480 89 23 00
        E 4320 99 23 7d
        E 480 89 23 00
        E 4320 99 23 7d
        E 480 89 23 00
        E 4320 99 23 7d
        E 480 89 23 00
        E 4320 99 23 7d
        E 480 89 23 00
        E 4320 99 23 7d
        E 480 89 23 00
        E 4320 99 23 7d
        E 480 89 23 00
        E 4320 99 23 7d
        E 480 89 23 00
        E 4320 99 23 7d
        E 480 89 23 00
        E 4320 99 23 7d
        E 480 89 23 00
        E 4320 99 23 7d
        E 480 89 23 00
        E 4320 99 23 7d
        E 480 89 23 00
        E 4320 99 23 7d
        E 480 89 23 00
        E 4320 99 23 7d
        E 480 89 23 00
        E 4320 99 23 7d
        E 480 89 23 00
        E 4320 99 23 7d
        E 480 89 23 00
        E 4320 99 23 7d
        E 480 89 23 00
        E 4320 99 23 7d
        E 480 89 23 00
        E 4320 99 23 7d
        E 480 89 23 00
        E 4320 99 23 7d
        E 480 89 23 00
        E 4320 99 23 7d
        E 480 89 23 00
        E 4320 99 23 7d
        E 480 89 23 00
        E 4320 99 23 7d
        E 480 89 23 00
        E 4320 99 23 7d
        E 480 89 23 00
        E 4320 99 23 7d
        E 480 89 23 00
        E 4320 99 23 7d
        E 480 89 23 00
        E 4320 99 23 7d
        E 480 89 23 00
        E 4320 99 23 7d
        E 480 89 23 00
        E 4320 99 23 7d
        E 480 89 23 00
        E 4320 99 23 7d
        E 480 89 23 00
        E 4320 99 23 7d
        E 480 89 23 00
        E 0 b9 7b 00
        E 1 ff 2f 00
      >
    >
  >
>
