<REAPER_PROJECT 0.1 "7.0" 1700000000
  TEMPO 55.000000 4 4
  SAMPLERATE 48000 0 0
  RENDER_FILE ""
  RENDER_FMT 0 2 0
  RENDER_1X 0
  RENDER_RANGE 1 0 165.317180 0 0
  RENDER_RESAMPLE 3 0 1
  <MASTERTRACK
    VOLPAN 1 0 1 -1
    DEFCHAN 0
  >
  <TRACK
    NAME "handpan"
    PEAKCOL 4284506208
    VOLPAN 1.000000 0 1 -1
    MIDIOUT -1
    ISBUS 0 0
    <ITEM
      POSITION 0.000000
      LENGTH 158.857367
      NAME "handpan"
      VOLPAN 1 0 1 -1
      <SOURCE MIDI
        HASDATA 1 960 QN
        E 0 c0 60 00
        E 0 90 43 50
        E 672 80 43 00
        E 4294 90 3f 5d
        E 4 90 4b 20
        E 668 80 3f 00
        E 273 80 4b 00
        E 4020 90 43 4d
        E 672 80 43 00
        E 4294 90 43 5a
        E 4 90 4f 1e
        E 668 80 43 00
        E 273 80 4f 00
        E 4020 90 3e 5a
        E 672 80 3e 00
        E 4294 90 39 58
        E 4 90 45 1d
        E 668 80 39 00
        E 273 80 45 00
        E 4020 90 3a 4b
        E 672 80 3a 00
        E 4294 90 39 52
        E 4 90 45 1b
        E 668 80 39 00
        E 273 80 45 00
        E 4020 90 39 56
        E 672 80 39 00
        E 4294 90 3e 52
        E 4 90 4a 1b
        E 668 80 3e 00
        E 273 80 4a 00
        E 4020 90 43 4e
        E 5 90 4f 1a
        E 667 80 43 00
        E 274 80 4f 00
        E 4020 90 46 5b
        E 672 80 46 00
        E 4293 90 4a 5d
        E 672 80 4a 00
        E 4294 90 46 4e
        E 672 80 46 00
        E 4293 90 45 5b
        E 5 90 51 1e
        E 667 80 45 00
        E 274 80 51 00
        E 4020 90 4a 55
        E 672 80 4a 00
        E 4293 90 46 5b
        E 672 80 46 00
        E 4294 90 43 4b
        E 5 90 4f 1a
        E 667 80 43 00
        E 274 80 4f 00
        E 4019 90 46 5d
        E 672 80 46 00
        E 4294 90 45 53
        E 672 80 45 00
        E 4293 90 46 5d
        E 672 80 46 00
        E 4294 90 4b 52
        E 672 80 4b 00
        E 4293 90 4b 4e
        E 672 80 4b 00
        E 4294 90 4a 52
        E 672 80 4a 00
        E 4293 90 46 55
        E 672 80 46 00
        E 4294 90 4a 5a
        E 672 80 4a 00
        E 4293 90 4a 58
        E 672 80 4a 00
        E 4294 90 46 56
        E 672 80 46 00
        E 4293 90 4a 56
        E 672 80 4a 00
        E 0 b0 7b 00
        E 1 ff 2f 00
      >
    >
  >
  <TRACK
    NAME "alto_flute"
    PEAKCOL 4282040170
    VOLPAN 1.000000 0 1 -1
    MIDIOUT -1
    ISBUS 0 0
    <ITEM
      POSITION 0.009768
      LENGTH 163.407412
      NAME "alto_flute"
      VOLPAN 1 0 1 -1
      <SOURCE MIDI
        HASDATA 1 960 QN
        E 0 c1 49 00
        E 9 91 43 55
        E 192 81 43 00
        E 33 91 43 56
        E 192 81 43 00
        E 61 91 43 55
        E 192 81 43 00
        E 29 91 46 4b
        E 104 91 43 43
        E 67 81 43 00
        E 10 91 45 4d
        E 11 81 46 00
        E 56 81 45 00
        E 9 91 46 58
        E 192 81 46 00
        E 274 91 43 5b
        E 192 81 43 00
        E 144 91 3f 48
        E 67 81 3f 00
        E 9 91 43 52
        E 67 81 43 00
        E 10 91 43 5b
        E 192 81 43 00
        E 275 91 43 4e
        E 192 81 43 00
        E 152 91 3f 45
        E 67 81 3f 00
        E 10 91 43 4e
        E 67 81 43 00
        E 10 91 43 5a
        E 192 81 43 00
        E 279 91 43 5e
        E 192 81 43 00
        E 137 91 43 4d
        E 67 81 43 00
        E 10 91 45 56
        E 67 81 45 00
        E 9 91 46 62
        E 192 81 46 00
        E 47 91 43 5d
        E 192 81 43 00
        E 60 91 46 63
        E 192 81 46 00
        E 29 91 46 5e
        E 99 91 3f 43
        E 67 81 3f 00
        E 10 91 43 4d
        E 16 81 46 00
        E 51 81 43 00
        E 10 91 43 58
        E 192 81 43 00
        E 276 91 3e 56
        E 192 81 3e 00
        E 148 91 37 43
        E 67 81 37 00
        E 10 91 37 4d
        E 67 81 37 00
        E 10 91 39 58
        E 192 81 39 00
        E 296 91 3e 53
        E 192 81 3e 00
        E 122 91 37 4d
        E 67 81 37 00
        E 10 91 37 56
        E 67 81 37 00
        E 9 91 39 62
        E 192 81 39 00
        E 297 91 3e 60
        E 192 81 3e 00
        E 129 91 3a 4a
        E 67 81 3a 00
        E 10 91 3e 53
        E 67 81 3e 00
        E 10 91 3e 5e
        E 192 81 3e 00
        E 50 91 3e 60
        E 192 81 3e 00
        E 49 91 3e 58
        E 192 81 3e 00
        E 52 91 39 52
        E 82 91 37 42
        E 67 81 37 00
        E 9 91 37 4b
        E 34 81 39 00
        E 33 81 37 00
        E 10 91 39 56
        E 192 81 39 00
        E 281 91 3e 60
        E 192 81 3e 00
        E 134 91 3a 3e
        E 67 81 3a 00
        E 10 91 3e 48
        E 67 81 3e 00
        E 9 91 3e 53
        E 192 81 3e 00
        E 292 91 43 5e
        E 192 81 43 00
        E 130 91 3f 4a
        E 67 81 3f 00
        E 10 91 43 53
        E 67 81 43 00
        E 10 91 43 5e
        E 192 81 43 00
        E 277 91 43 56
        E 192 81 43 00
        E 154 91 43 4a
        E 67 81 43 00
        E 9 91 45 53
        E 67 81 45 00
        E 10 91 46 5e
        E 192 81 46 00
        E 53 91 43 58
        E 192 81 43 00
        E 37 91 46 63
        E 192 81 46 00
        E 51 91 43 50
        E 78 91 3f 43
        E 67 81 3f 00
        E 10 91 43 4d
        E 37 81 43 00
        E 30 81 43 00
        E 10 91 43 58
        E 192 81 43 00
        E 302 91 43 63
        E 192 81 43 00
        E 122 91 3f 45
        E 67 81 3f 00
        E 10 91 43 4e
        E 67 81 43 00
        E 9 91 43 5a
        E 192 81 43 00
        E 285 91 46 4b
        E 192 81 46 00
        E 134 91 3f 4b
        E 67 81 3f 00
        E 9 91 43 55
        E 67 81 43 00
        E 10 91 43 60
        E 192 81 43 00
        E 308 91 43 4b
        E 192 81 43 00
        E 118 91 3e 3e
        E 67 81 3e 00
        E 10 91 3e 48
        E 67 81 3e 00
        E 10 91 3f 53
        E 192 81 3f 00
        E 56 91 3f 5e
        E 192 81 3f 00
        E 43 91 3f 5b
        E 192 81 3f 00
        E 36 91 3f 5b
        E 98 91 3e 48
        E 67 81 3e 00
        E 10 91 3e 52
        E 17 81 3f 00
        E 50 81 3e 00
        E 10 91 3f 5b
        E 192 81 3f 00
        E 290 91 3a 56
        E 192 81 3a 00
        E 143 91 3e 43
        E 67 81 3e 00
        E 9 91 3e 4d
        E 67 81 3e 00
        E 10 91 3f 58
        E 192 81 3f 00
        E 283 91 3f 4b
        E 192 81 3f 00
        E 138 91 37 4a
        E 67 81 37 00
        E 10 91 39 53
        E 67 81 39 00
        E 10 91 3a 5e
        E 192 81 3a 00
        E 276 91 3f 5d
        E 192 81 3f 00
        E 127 91 37 4e
        E 67 81 37 00
        E 10 91 39 58
        E 67 81 39 00
        E 10 91 3a 63
        E 192 81 3a 00
        E 63 91 3f 5b
        E 192 81 3f 00
        E 33 91 3f 62
        E 192 81 3f 00
        E 58 91 43 5d
        E 97 91 3f 3d
        E 67 81 3f 00
        E 10 91 43 46
        E 18 81 43 00
        E 49 81 43 00
        E 10 91 43 52
        E 192 81 43 00
        E 268 91 46 58
        E 192 81 46 00
        E 134 91 43 3e
        E 67 81 43 00
        E 10 91 45 48
        E 67 81 45 00
        E 9 91 46 53
        E 192 81 46 00
        E 308 91 43 52
        E 192 81 43 00
        E 134 91 3f 45
        E 67 81 3f 00
        E 10 91 43 4e
        E 67 81 43 00
        E 10 91 43 5a
        E 192 81 43 00
        E 267 91 46 63
        E 192 81 46 00
        E 152 91 3f 3d
        E 67 81 3f 00
        E 10 91 43 46
        E 67 81 43 00
        E 9 91 43 52
        E 192 81 43 00
        E 31 91 43 5d
        E 192 81 43 00
        E 73 91 43 4d
        E 192 81 43 00
        E 29 91 43 5a
        E 80 91 43 38
        E 67 81 43 00
        E 10 91 45 42
        E 35 81 43 00
        E 32 81 45 00
        E 10 91 46 4d
        E 192 81 46 00
        E 293 91 43 60
        E 192 81 43 00
        E 136 91 3a 43
        E 67 81 3a 00
        E 10 91 3e 4d
        E 67 81 3e 00
        E 9 91 3e 58
        E 192 81 3e 00
        E 291 91 39 4d
        E 192 81 39 00
        E 144 91 37 43
        E 67 81 37 00
        E 10 91 37 4d
        E 67 81 37 00
        E 9 91 39 58
        E 192 81 39 00
        E 290 91 3e 60
        E 192 81 3e 00
        E 139 91 3a 3d
        E 67 81 3a 00
        E 9 91 3e 46
        E 67 81 3e 00
        E 10 91 3e 52
        E 192 81 3e 00
        E 29 91 3e 4b
        E 192 81 3e 00
        E 61 91 3e 58
        E 192 81 3e 00
        E 42 91 3e 5a
        E 83 91 3a 3a
        E 67 81 3a 00
        E 10 91 3e 43
        E 32 81 3e 00
        E 35 81 3e 00
        E 10 91 3e 4e
        E 192 81 3e 00
        E 303 91 3e 4b
        E 192 81 3e 00
        E 123 91 3a 43
        E 67 81 3a 00
        E 9 91 3e 4d
        E 67 81 3e 00
        E 10 91 3e 58
        E 192 81 3e 00
        E 286 91 3e 58
        E 192 81 3e 00
        E 131 91 3a 43
        E 67 81 3a 00
        E 10 91 3e 4d
        E 67 81 3e 00
        E 9 91 3e 58
        E 192 81 3e 00
        E 285 91 3a 4e
        E 192 81 3a 00
        E 142 91 37 4e
        E 67 81 37 00
        E 10 91 39 58
        E 67 81 39 00
        E 9 91 3a 63
        E 192 81 3a 00
        E 63 91 3f 52
        E 192 81 3f 00
        E 49 91 3a 50
        E 192 81 3a 00
        E 38 91 3a 4d
        E 70 91 3e 4d
        E 67 81 3e 00
        E 10 91 3e 56
        E 45 81 3a 00
        E 22 81 3e 00
        E 9 91 3f 62
        E 192 81 3f 00
        E 295 91 3f 63
        E 192 81 3f 00
        E 153 91 3e 42
        E 67 81 3e 00
        E 10 91 3e 4b
        E 67 81 3e 00
        E 10 91 3f 56
        E 192 81 3f 00
        E 280 91 3f 63
        E 192 81 3f 00
        E 135 91 37 43
        E 67 81 37 00
        E 10 91 39 4d
        E 67 81 39 00
        E 9 91 3a 58
        E 192 81 3a 00
        E 280 91 3f 55
        E 192 81 3f 00
        E 124 91 3e 36
        E 67 81 3e 00
        E 10 91 3e 40
        E 67 81 3e 00
        E 9 91 3f 4b
        E 192 81 3f 00
        E 56 91 45 52
        E 192 81 45 00
        E 42 91 45 62
        E 192 81 45 00
        E 64 91 45 62
        E 79 91 43 43
        E 67 81 43 00
        E 10 91 43 4d
        E 36 81 45 00
        E 31 81 43 00
        E 9 91 45 58
        E 192 81 45 00
        E 296 91 45 52
        E 192 81 45 00
        E 121 91 43 36
        E 67 81 43 00
        E 10 91 43 40
        E 67 81 43 00
        E 10 91 45 4b
        E 192 81 45 00
        E 307 91 45 52
        E 192 81 45 00
        E 135 91 43 36
        E 67 81 43 00
        E 10 91 43 40
        E 67 81 43 00
        E 10 91 45 4b
        E 192 81 45 00
        E 266 91 45 5d
        E 192 81 45 00
        E 156 91 43 4b
        E 67 81 43 00
        E 9 91 43 55
        E 67 81 43 00
        E 10 91 45 60
        E 192 81 45 00
        E 48 91 45 56
        E 192 81 45 00
        E 46 91 45 52
        E 192 81 45 00
        E 53 91 45 60
        E 74 91 43 36
        E 67 81 43 00
        E 10 91 43 40
        E 41 81 45 00
        E 26 81 43 00
        E 10 91 45 4b
        E 192 81 45 00
        E 282 91 4a 4e
        E 192 81 4a 00
        E 136 91 46 42
        E 67 81 46 00
        E 10 91 4a 4b
        E 67 81 4a 00
        E 10 91 4a 56
        E 192 81 4a 00
        E 292 91 4a 55
        E 192 81 4a 00
        E 135 91 43 48
        E 67 81 43 00
        E 9 91 43 52
        E 67 81 43 00
        E 10 91 45 5d
        E 192 81 45 00
        E 281 91 4a 5a
        E 192 81 4a 00
        E 129 91 43 3e
        E 67 81 43 00
        E 10 91 43 48
        E 67 81 43 00
        E 10 91 45 52
        E 192 81 45 00
        E 48 91 45 63
        E 192 81 45 00
        E 51 91 4a 5e
        E 192 81 4a 00
        E 43 91 4a 60
        E 106 91 46 40
        E 67 81 46 00
        E 9 91 4a 4a
        E 10 81 4a 00
        E 57 81 4a 00
        E 10 91 4a 55
        E 192 81 4a 00
        E 296 91 4a 5e
        E 192 81 4a 00
        E 129 91 46 48
        E 67 81 46 00
        E 10 91 4a 52
        E 67 81 4a 00
        E 10 91 4a 5d
        E 192 81 4a 00
        E 272 91 4a 4d
        E 192 81 4a 00
        E 135 91 43 48
        E 67 81 43 00
        E 10 91 45 52
        E 67 81 45 00
        E 10 91 46 5b
        E 192 81 46 00
        E 290 91 43 55
        E 192 81 43 00
        E 148 91 43 3b
        E 67 81 43 00
        E 10 91 45 45
        E 67 81 45 00
        E 10 91 46 50
        E 192 81 46 00
        E 49 91 43 5d
        E 192 81 43 00
        E 23 91 43 52
        E 192 81 43 00
        E 52 91 43 4e
        E 86 91 43 50
        E 67 81 43 00
        E 9 91 45 5a
        E 30 81 43 00
        E 37 81 45 00
        E 10 91 46 63
        E 192 81 46 00
        E 309 91 43 5a
        E 192 81 43 00
        E 126 91 43 46
        E 67 81 43 00
        E 9 91 45 50
        E 67 81 45 00
        E 10 91 46 5a
        E 192 81 46 00
        E 285 91 43 55
        E 192 81 43 00
        E 130 91 3f 4d
        E 67 81 3f 00
        E 10 91 43 56
        E 67 81 43 00
        E 10 91 43 62
        E 192 81 43 00
        E 307 91 43 5e
        E 192 81 43 00
        E 115 91 43 3d
        E 67 81 43 00
        E 10 91 45 46
        E 67 81 45 00
        E 10 91 46 52
        E 192 81 46 00
        E 56 91 46 5a
        E 192 81 46 00
        E 42 91 4b 5a
        E 192 81 4b 00
        E 53 91 4b 53
        E 76 91 43 4a
        E 67 81 43 00
        E 10 91 45 53
        E 39 81 4b 00
        E 28 81 45 00
        E 10 91 46 5e
        E 192 81 46 00
        E 299 91 46 63
        E 192 81 46 00
        E 147 91 4a 42
        E 67 81 4a 00
        E 9 91 4a 4b
        E 67 81 4a 00
        E 10 91 4b 56
        E 192 81 4b 00
        E 275 91 46 4e
        E 192 81 46 00
        E 120 91 4a 45
        E 67 81 4a 00
        E 10 91 4a 4e
        E 67 81 4a 00
        E 10 91 4b 5a
        E 192 81 4b 00
        E 307 91 4b 5b
        E 192 81 4b 00
        E 127 91 4a 45
        E 67 81 4a 00
        E 10 91 4a 4e
        E 67 81 4a 00
        E 10 91 4b 5a
        E 192 81 4b 00
        E 41 91 4b 52
        E 192 81 4b 00
        E 51 91 4b 52
        E 192 81 4b 00
        E 66 91 4b 62
        E 85 91 4b 4b
        E 67 81 4b 00
        E 10 91 4f 55
        E 30 81 4b 00
        E 37 81 4f 00
        E 10 91 4f 60
        E 192 81 4f 00
        E 285 91 52 5d
        E 192 81 52 00
        E 130 91 4b 43
        E 67 81 4b 00
        E 10 91 4f 4d
        E 67 81 4f 00
        E 10 91 4f 58
        E 192 81 4f 00
        E 290 91 4f 52
        E 192 81 4f 00
        E 141 91 4b 42
        E 67 81 4b 00
        E 10 91 4f 4b
        E 67 81 4f 00
        E 10 91 4f 56
        E 192 81 4f 00
        E 282 91 4f 5d
        E 192 81 4f 00
        E 139 91 4b 3e
        E 67 81 4b 00
        E 10 91 4f 48
        E 67 81 4f 00
        E 9 91 4f 52
        E 192 81 4f 00
        E 35 91 4f 52
        E 192 81 4f 00
        E 48 91 52 4e
        E 192 81 52 00
        E 36 91 4f 5e
        E 91 91 4f 4b
        E 67 81 4f 00
        E 10 91 51 55
        E 24 81 4f 00
        E 43 81 51 00
        E 10 91 52 60
        E 192 81 52 00
        E 286 91 4f 63
        E 192 81 4f 00
        E 157 91 4b 43
        E 67 81 4b 00
        E 9 91 4f 4d
        E 67 81 4f 00
        E 10 91 4f 58
        E 192 81 4f 00
        E 270 91 4a 5d
        E 192 81 4a 00
        E 149 91 43 3e
        E 67 81 43 00
        E 10 91 43 48
        E 67 81 43 00
        E 9 91 45 52
        E 192 81 45 00
        E 266 91 4a 63
        E 192 81 4a 00
        E 154 91 46 3e
        E 67 81 46 00
        E 10 91 4a 48
        E 67 81 4a 00
        E 10 91 4a 53
        E 192 81 4a 00
        E 29 91 45 50
        E 192 81 45 00
        E 59 91 45 52
        E 192 81 45 00
        E 39 91 4a 5e
        E 107 91 46 4d
        E 67 81 46 00
        E 10 91 4a 56
        E 8 81 4a 00
        E 59 81 4a 00
        E 10 91 4a 62
        E 192 81 4a 00
        E 279 91 4a 56
        E 192 81 4a 00
        E 133 91 46 4b
        E 67 81 46 00
        E 10 91 4a 55
        E 67 81 4a 00
        E 10 91 4a 60
        E 192 81 4a 00
        E 279 91 4a 4b
        E 192 81 4a 00
        E 133 91 43 4b
        E 67 81 43 00
        E 10 91 43 55
        E 67 81 43 00
        E 10 91 45 60
        E 192 81 45 00
        E 304 91 4b 62
        E 192 81 4b 00
        E 125 91 43 42
        E 67 81 43 00
        E 10 91 45 4b
        E 67 81 45 00
        E 10 91 46 56
        E 192 81 46 00
        E 45 91 4b 50
        E 192 81 4b 00
        E 50 91 4b 53
        E 192 81 4b 00
        E 64 91 46 5a
        E 63 91 4a 3e
        E 67 81 4a 00
        E 10 91 4a 48
        E 52 81 46 00
        E 15 81 4a 00
        E 10 91 4b 53
        E 192 81 4b 00
        E 296 91 4b 62
        E 192 81 4b 00
        E 133 91 4a 3e
        E 67 81 4a 00
        E 10 91 4a 48
        E 67 81 4a 00
        E 10 91 4b 52
        E 192 81 4b 00
        E 283 91 4b 5b
        E 192 81 4b 00
        E 140 91 4a 3e
        E 67 81 4a 00
        E 9 91 4a 48
        E 67 81 4a 00
        E 10 91 4b 52
        E 192 81 4b 00
        E 296 91 46 58
        E 192 81 46 00
        E 141 91 4a 4a
        E 67 81 4a 00
        E 10 91 4a 53
        E 67 81 4a 00
        E 9 91 4b 5e
        E 192 81 4b 00
        E 39 91 4b 63
        E 192 81 4b 00
        E 41 91 51 63
        E 192 81 51 00
        E 48 91 51 5a
        E 84 91 4f 3b
        E 67 81 4f 00
        E 10 91 4f 45
        E 31 81 51 00
        E 36 81 4f 00
        E 10 91 51 50
        E 192 81 51 00
        E 298 91 51 4e
        E 192 81 51 00
        E 126 91 4f 46
        E 67 81 4f 00
        E 10 91 4f 50
        E 67 81 4f 00
        E 9 91 51 5a
        E 192 81 51 00
        E 290 91 51 58
        E 192 81 51 00
        E 144 91 4f 48
        E 67 81 4f 00
        E 10 91 4f 52
        E 67 81 4f 00
        E 10 91 51 5d
        E 192 81 51 00
        E 275 91 51 60
        E 192 81 51 00
        E 145 91 4f 36
        E 67 81 4f 00
        E 9 91 4f 40
        E 67 81 4f 00
        E 10 91 51 4b
        E 192 81 51 00
        E 56 91 51 63
        E 192 81 51 00
        E 43 91 51 63
        E 192 81 51 00
        E 36 91 51 5d
        E 90 91 4f 38
        E 67 81 4f 00
        E 10 91 4f 42
        E 25 81 51 00
        E 42 81 4f 00
        E 10 91 51 4d
        E 192 81 51 00
        E 293 91 51 4d
        E 192 81 51 00
        E 141 91 4f 42
        E 67 81 4f 00
        E 10 91 4f 4b
        E 67 81 4f 00
        E 10 91 51 56
        E 192 81 51 00
        E 292 91 55 58
        E 192 81 55 00
        E 133 91 52 3a
        E 67 81 52 00
        E 10 91 52 43
        E 67 81 52 00
        E 10 91 55 4e
        E 192 81 55 00
        E 264 91 51 63
        E 192 81 51 00
        E 157 91 52 45
        E 67 81 52 00
        E 10 91 52 4e
        E 67 81 52 00
        E 9 91 55 5a
        E 192 81 55 00
        E 51 91 55 4d
        E 192 81 55 00
        E 37 91 55 5a
        E 192 81 55 00
        E 44 91 51 52
        E 79 91 52 4a
        E 67 81 52 00
        E 10 91 52 53
        E 36 81 51 00
        E 31 81 52 00
        E 10 91 55 5e
        E 192 81 55 00
        E 306 91 55 5e
        E 192 81 55 00
        E 138 91 52 4e
        E 67 81 52 00
        E 10 91 52 58
        E 67 81 52 00
        E 10 91 55 63
        E 192 81 55 00
        E 289 91 55 4b
        E 192 81 55 00
        E 116 91 52 45
        E 67 81 52 00
        E 10 91 52 4e
        E 67 81 52 00
        E 10 91 55 5a
        E 192 81 55 00
        E 300 91 55 52
        E 192 81 55 00
        E 119 91 52 3e
        E 67 81 52 00
        E 10 91 52 48
        E 67 81 52 00
        E 10 91 55 52
        E 192 81 55 00
        E 44 91 55 5a
        E 192 81 55 00
        E 72 91 55 53
        E 192 81 55 00
        E 21 91 55 4d
        E 95 91 52 4d
        E 67 81 52 00
        E 9 91 52 56
        E 21 81 55 00
        E 46 81 52 00
        E 10 91 55 62
        E 192 81 55 00
        E 290 91 52 5d
        E 192 81 52 00
        E 133 91 4f 38
        E 67 81 4f 00
        E 10 91 51 42
        E 67 81 51 00
        E 9 91 52 4d
        E 192 81 52 00
        E 298 91 4f 58
        E 192 81 4f 00
        E 141 91 4b 46
        E 67 81 4b 00
        E 9 91 4f 50
        E 67 81 4f 00
        E 10 91 4f 5a
        E 192 81 4f 00
        E 278 91 52 5e
        E 192 81 52 00
        E 129 91 52 43
        E 67 81 52 00
        E 10 91 52 4d
        E 67 81 52 00
        E 9 91 55 58
        E 192 81 55 00
        E 56 91 52 4e
        E 192 81 52 00
        E 51 91 55 60
        E 192 81 55 00
        E 55 91 55 58
        E 64 91 52 40
        E 67 81 52 00
        E 10 91 52 4a
        E 51 81 55 00
        E 16 81 52 00
        E 9 91 55 55
        E 192 81 55 00
        E 300 91 55 5a
        E 192 81 55 00
        E 133 91 52 43
        E 67 81 52 00
        E 9 91 52 4d
        E 67 81 52 00
        E 10 91 55 58
        E 192 81 55 00
        E 299 91 52 52
        E 192 81 52 00
        E 135 91 4f 3a
        E 67 81 4f 00
        E 10 91 51 43
        E 67 81 51 00
        E 10 91 52 4e
        E 192 81 52 00
        E 269 91 52 52
        E 192 81 52 00
        E 134 91 4f 3b
        E 67 81 4f 00
        E 10 91 51 45
        E 67 81 51 00
        E 10 91 52 50
        E 192 81 52 00
        E 59 91 55 4d
        E 192 81 55 00
        E 43 91 55 58
        E 192 81 55 00
        E 40 91 52 62
        E 101 91 4f 40
        E 67 81 4f 00
        E 9 91 51 4a
        E 15 81 52 00
        E 52 81 51 00
        E 10 91 52 55
        E 192 81 52 00
        E 294 91 52 5a
        E 192 81 52 00
        E 115 91 4b 3e
        E 67 81 4b 00
        E 9 91 4f 48
        E 67 81 4f 00
        E 10 91 4f 52
        E 192 81 4f 00
        E 291 91 4f 56
        E 192 81 4f 00
        E 140 91 4f 36
        E 67 81 4f 00
        E 10 91 51 40
        E 67 81 51 00
        E 10 91 52 4b
        E 192 81 52 00
        E 302 91 4f 52
        E 192 81 4f 00
        E 127 91 4f 38
        E 67 81 4f 00
        E 10 91 51 42
        E 67 81 51 00
        E 10 91 52 4d
        E 192 81 52 00
        E 37 91 52 4d
        E 192 81 52 00
        E 46 91 4f 5a
        E 192 81 4f 00
        E 60 91 4f 5a
        E 79 91 4b 43
        E 67 81 4b 00
        E 10 91 4f 4d
        E 36 81 4f 00
        E 31 81 4f 00
        E 10 91 4f 58
        E 192 81 4f 00
        E 289 91 52 5e
        E 192 81 52 00
        E 132 91 4f 50
        E 67 81 4f 00
        E 10 91 51 5a
        E 67 81 51 00
        E 10 91 52 63
        E 192 81 52 00
        E 283 91 51 5a
        E 192 81 51 00
        E 149 91 52 3a
        E 67 81 52 00
        E 10 91 52 43
        E 67 81 52 00
        E 10 91 55 4e
        E 192 81 55 00
        E 275 91 51 5e
        E 192 81 51 00
        E 153 91 52 43
        E 67 81 52 00
        E 10 91 52 4d
        E 67 81 52 00
        E 10 91 55 58
        E 192 81 55 00
        E 39 91 55 5a
        E 192 81 55 00
        E 33 91 55 53
        E 192 81 55 00
        E 73 91 51 4b
        E 82 91 4f 4a
        E 67 81 4f 00
        E 9 91 4f 53
        E 34 81 51 00
        E 33 81 4f 00
        E 10 91 51 5e
        E 192 81 51 00
        E 285 91 55 62
        E 192 81 55 00
        E 124 91 4f 43
        E 67 81 4f 00
        E 10 91 4f 4d
        E 67 81 4f 00
        E 10 91 51 58
        E 192 81 51 00
        E 299 91 55 63
        E 192 81 55 00
        E 134 91 52 4b
        E 67 81 52 00
        E 10 91 52 55
        E 67 81 52 00
        E 9 91 55 60
        E 192 81 55 00
        E 269 91 55 5a
        E 192 81 55 00
        E 137 91 52 43
        E 67 81 52 00
        E 10 91 52 4d
        E 67 81 52 00
        E 9 91 55 58
        E 192 81 55 00
        E 63 91 55 52
        E 192 81 55 00
        E 48 91 52 53
        E 192 81 52 00
        E 40 91 55 52
        E 105 91 4f 43
        E 67 81 4f 00
        E 9 91 51 4d
        E 11 81 55 00
        E 56 81 51 00
        E 10 91 52 58
        E 192 81 52 00
        E 268 91 55 63
        E 192 81 55 00
        E 154 91 52 48
        E 67 81 52 00
        E 9 91 52 52
        E 67 81 52 00
        E 10 91 55 5d
        E 192 81 55 00
        E 275 91 55 63
        E 192 81 55 00
        E 135 91 4f 3d
        E 67 81 4f 00
        E 10 91 51 46
        E 67 81 51 00
        E 10 91 52 52
        E 192 81 52 00
        E 290 91 55 4b
        E 192 81 55 00
        E 136 91 52 4d
        E 67 81 52 00
        E 10 91 52 56
        E 67 81 52 00
        E 10 91 55 62
        E 192 81 55 00
        E 50 91 55 5e
        E 192 81 55 00
        E 42 91 55 52
        E 192 81 55 00
        E 47 91 51 5a
        E 92 91 4f 43
        E 67 81 4f 00
        E 9 91 4f 4d
        E 24 81 51 00
        E 43 81 4f 00
        E 10 91 51 58
        E 192 81 51 00
        E 278 91 51 5a
        E 192 81 51 00
        E 127 91 4f 4b
        E 67 81 4f 00
        E 10 91 4f 55
        E 67 81 4f 00
        E 10 91 51 60
        E 192 81 51 00
        E 299 91 51 5b
        E 192 81 51 00
        E 136 91 4f 4a
        E 67 81 4f 00
        E 10 91 4f 53
        E 67 81 4f 00
        E 10 91 51 5e
        E 192 81 51 00
        E 281 91 51 5a
        E 192 81 51 00
        E 131 91 4f 48
        E 67 81 4f 00
        E 10 91 4f 52
        E 67 81 4f 00
        E 10 91 51 5b
        E 192 81 51 00
        E 67 91 51 58
        E 192 81 51 00
        E 35 91 51 4b
        E 192 81 51 00
        E 63 91 51 5b
        E 75 91 4f 3d
        E 67 81 4f 00
        E 10 91 4f 46
        E 40 81 51 00
        E 27 81 4f 00
        E 10 91 51 52
        E 192 81 51 00
        E 273 91 51 63
        E 192 81 51 00
        E 152 91 52 36
        E 67 81 52 00
        E 9 91 52 40
        E 67 81 52 00
        E 10 91 55 4b
        E 192 81 55 00
        E 286 91 55 63
        E 192 81 55 00
        E 132 91 52 36
        E 67 81 52 00
        E 10 91 52 40
        E 67 81 52 00
        E 9 91 55 4b
        E 192 81 55 00
        E 298 91 55 4e
        E 192 81 55 00
        E 133 91 52 4e
        E 67 81 52 00
        E 10 91 52 58
        E 67 81 52 00
        E 10 91 55 63
        E 192 81 55 00
        E 51 91 51 50
        E 192 81 51 00
        E 43 91 55 5e
        E 192 81 55 00
        E 38 91 55 5d
        E 94 91 52 4e
        E 67 81 52 00
        E 9 91 52 58
        E 22 81 55 00
        E 45 81 52 00
        E 10 91 55 63
        E 192 81 55 00
        E 289 91 55 5a
        E 192 81 55 00
        E 121 91 52 4e
        E 67 81 52 00
        E 9 91 52 58
        E 67 81 52 00
        E 10 91 55 63
        E 192 81 55 00
        E 294 91 55 4d
        E 192 81 55 00
        E 152 91 52 36
        E 67 81 52 00
        E 9 91 52 40
        E 67 81 52 00
        E 10 91 55 4b
        E 192 81 55 00
        E 285 91 52 55
        E 192 81 52 00
        E 117 91 4b 40
        E 67 81 4b 00
        E 9 91 4f 4a
        E 67 81 4f 00
        E 10 91 4f 55
        E 192 81 4f 00
        E 59 91 52 56
        E 192 81 52 00
        E 48 91 4f 5e
        E 192 81 4f 00
        E 54 91 4f 55
        E 90 91 4b 4b
        E 67 81 4b 00
        E 10 91 4f 55
        E 25 81 4f 00
        E 42 81 4f 00
        E 10 91 4f 60
        E 192 81 4f 00
        E 280 91 4f 52
        E 192 81 4f 00
        E 129 91 4b 4e
        E 67 81 4b 00
        E 9 91 4f 58
        E 67 81 4f 00
        E 10 91 4f 63
        E 192 81 4f 00
        E 293 91 4f 58
        E 192 81 4f 00
        E 126 91 4b 36
        E 67 81 4b 00
        E 10 91 4f 40
        E 67 81 4f 00
        E 9 91 4f 4b
        E 192 81 4f 00
        E 291 91 4f 58
        E 192 81 4f 00
        E 126 91 4f 45
        E 67 81 4f 00
        E 9 91 51 4e
        E 67 81 51 00
        E 10 91 52 5a
        E 192 81 52 00
        E 56 91 55 5e
        E 192 81 55 00
        E 48 91 55 5a
        E 192 81 55 00
        E 50 91 55 56
        E 74 91 52 48
        E 67 81 52 00
        E 10 91 52 52
        E 41 81 55 00
        E 26 81 52 00
        E 10 91 55 5b
        E 192 81 55 00
        E 288 91 55 5a
        E 192 81 55 00
        E 145 91 4f 45
        E 67 81 4f 00
        E 10 91 51 4e
        E 67 81 51 00
        E 9 91 52 5a
        E 192 81 52 00
        E 298 91 55 4e
        E 192 81 55 00
        E 117 91 52 45
        E 67 81 52 00
        E 9 91 52 4e
        E 67 81 52 00
        E 10 91 55 5a
        E 192 81 55 00
        E 289 91 55 5b
        E 192 81 55 00
        E 135 91 4f 50
        E 67 81 4f 00
        E 10 91 51 5a
        E 67 81 51 00
        E 10 91 52 63
        E 192 81 52 00
        E 63 91 55 4e
        E 192 81 55 00
        E 33 91 52 4d
        E 192 81 52 00
        E 60 91 55 58
        E 84 91 4f 45
        E 67 81 4f 00
        E 10 91 51 4e
        E 31 81 55 00
        E 36 81 51 00
        E 10 91 52 5a
        E 192 81 52 00
        E 282 91 4f 5b
        E 192 81 4f 00
        E 138 91 4b 3b
        E 67 81 4b 00
        E 9 91 4f 45
        E 67 81 4f 00
        E 10 91 4f 50
        E 192 81 4f 00
        E 286 91 52 53
        E 192 81 52 00
        E 137 91 4b 42
        E 67 81 4b 00
        E 10 91 4f 4b
        E 67 81 4f 00
        E 10 91 4f 56
        E 192 81 4f 00
        E 279 91 52 5a
        E 192 81 52 00
        E 146 91 4b 48
        E 67 81 4b 00
        E 10 91 4f 52
        E 67 81 4f 00
        E 10 91 4f 5d
        E 192 81 4f 00
        E 59 91 4f 5b
        E 192 81 4f 00
        E 33 91 4f 55
        E 192 81 4f 00
        E 40 91 4f 63
        E 89 91 4b 36
        E 67 81 4b 00
        E 10 91 4f 40
        E 26 81 4f 00
        E 41 81 4f 00
        E 10 91 4f 4b
        E 192 81 4f 00
        E 307 91 4f 4e
        E 192 81 4f 00
        E 112 91 4b 4a
        E 67 81 4b 00
        E 10 91 4f 53
        E 67 81 4f 00
        E 10 91 4f 5e
        E 192 81 4f 00
        E 285 91 51 50
        E 192 81 51 00
        E 144 91 52 38
        E 67 81 52 00
        E 10 91 52 42
        E 67 81 52 00
        E 10 91 55 4d
        E 192 81 55 00
        E 300 91 51 5b
        E 192 81 51 00
        E 120 91 52 36
        E 67 81 52 00
        E 10 91 52 40
        E 67 81 52 00
        E 10 91 55 4b
        E 192 81 55 00
        E 68 91 55 58
        E 192 81 55 00
        E 23 91 55 58
        E 192 81 55 00
        E 62 91 51 5e
        E 69 91 52 3a
        E 67 81 52 00
        E 10 91 52 43
        E 46 81 51 00
        E 21 81 52 00
        E 10 91 55 4e
        E 192 81 55 00
        E 316 91 55 63
        E 192 81 55 00
        E 121 91 52 46
        E 67 81 52 00
        E 10 91 52 50
        E 67 81 52 00
        E 10 91 55 5a
        E 192 81 55 00
        E 286 91 55 62
        E 192 81 55 00
        E 142 91 52 40
        E 67 81 52 00
        E 10 91 52 4a
        E 67 81 52 00
        E 9 91 55 55
        E 192 81 55 00
        E 278 91 55 52
        E 192 81 55 00
        E 124 91 52 43
        E 67 81 52 00
        E 10 91 52 4d
        E 67 81 52 00
        E 10 91 55 58
        E 192 81 55 00
        E 48 91 55 5e
        E 192 81 55 00
        E 67 91 52 5a
        E 192 81 52 00
        E 40 91 52 4b
        E 78 91 52 40
        E 67 81 52 00
        E 10 91 52 4a
        E 37 81 52 00
        E 30 81 52 00
        E 10 91 55 55
        E 192 81 55 00
        E 308 91 55 4d
        E 192 81 55 00
        E 121 91 4f 3e
        E 67 81 4f 00
        E 10 91 51 48
        E 67 81 51 00
        E 10 91 52 53
        E 192 81 52 00
        E 286 91 52 4b
        E 192 81 52 00
        E 132 91 52 3d
        E 67 81 52 00
        E 9 91 52 46
        E 67 81 52 00
        E 10 91 55 52
        E 192 81 55 00
        E 285 91 55 53
        E 192 81 55 00
        E 136 91 4f 43
        E 67 81 4f 00
        E 9 91 51 4d
        E 67 81 51 00
        E 10 91 52 58
        E 192 81 52 00
        E 49 91 55 4b
        E 192 81 55 00
        E 51 91 52 55
        E 192 81 52 00
        E 47 91 55 58
        E 99 91 4f 46
        E 67 81 4f 00
        E 10 91 51 50
        E 16 81 55 00
        E 51 81 51 00
        E 10 91 52 5a
        E 192 81 52 00
        E 269 91 52 5b
        E 192 81 52 00
        E 142 91 4b 38
        E 67 81 4b 00
        E 10 91 4f 42
        E 67 81 4f 00
        E 10 91 4f 4d
        E 192 81 4f 00
        E 306 91 52 4d
        E 192 81 52 00
        E 134 91 4b 36
        E 67 81 4b 00
        E 10 91 4f 40
        E 67 81 4f 00
        E 10 91 4f 4b
        E 192 81 4f 00
        E 278 91 4f 56
        E 192 81 4f 00
        E 135 91 4f 3e
        E 67 81 4f 00
        E 10 91 51 48
        E 67 81 51 00
        E 9 91 52 52
        E 192 81 52 00
        E 54 91 4f 55
        E 192 81 4f 00
        E 30 91 4f 4e
        E 192 81 4f 00
        E 59 91 4f 5b
        E 77 91 4b 45
        E 67 81 4b 00
        E 10 91 4f 4e
        E 38 81 4f 00
        E 29 81 4f 00
        E 10 91 4f 5a
        E 192 81 4f 00
        E 303 91 4f 53
        E 192 81 4f 00
        E 0 b1 7b 00
        E 1 ff 2f 00
      >
    >
  >
  <TRACK
    NAME "kalimba"
    PEAKCOL 4290756410
    VOLPAN 1.000000 0 1 -1
    MIDIOUT -1
    ISBUS 0 0
    <ITEM
      POSITION 0.000000
      LENGTH 158.333730
      NAME "kalimba"
      VOLPAN 1 0 1 -1
      <SOURCE MIDI
        HASDATA 1 960 QN
        E 0 c2 6c 00
        E 0 92 43 60
        E 2 92 4f 1b
        E 58 82 4f 00
        E 151 82 43 00
        E 9720 92 3e 60
        E 2 92 51 1b
        E 58 82 51 00
        E 151 82 3e 00
        E 9720 92 43 66
        E 2 92 4f 1e
        E 58 82 4f 00
        E 151 82 43 00
        E 9720 92 43 60
        E 211 82 43 00
        E 9720 92 3e 53
        E 2 92 51 18
        E 58 82 51 00
        E 151 82 3e 00
        E 9720 92 3a 5d
        E 211 82 3a 00
        E 9720 92 33 63
        E 2 92 3f 1d
        E 58 82 3f 00
        E 151 82 33 00
        E 9720 92 39 53
        E 2 92 4c 18
        E 58 82 4c 00
        E 151 82 39 00
        E 9720 92 3e 58
        E 211 82 3e 00
        E 9720 92 43 5a
        E 211 82 43 00
        E 9720 92 46 5e
        E 211 82 46 00
        E 9720 92 45 60
        E 211 82 45 00
        E 9720 92 4b 60
        E 211 82 4b 00
        E 9720 92 4a 63
        E 211 82 4a 00
        E 9720 92 4f 63
        E 211 82 4f 00
        E 0 b2 7b 00
        E 1 ff 2f 00
      >
    >
  >
>
