<REAPER_PROJECT 0.1 "7.0" 1700000000
  TEMPO 46.000000 4 4
  SAMPLERATE 48000 0 0
  RENDER_FILE ""
  RENDER_FMT 0 2 0
  RENDER_1X 0
  RENDER_RANGE 1 0 262.724637 0 0
  RENDER_RESAMPLE 3 0 1
  <MASTERTRACK
    VOLPAN 1 0 1 -1
    DEFCHAN 0
  >
  <TRACK
    NAME "glass_harp"
    PEAKCOL 4290756410
    VOLPAN 1.000000 0 1 -1
    MIDIOUT -1
    ISBUS 0 0
    <ITEM
      POSITION 0.000000
      LENGTH 260.679709
      NAME "glass_harp"
      VOLPAN 1 0 1 -1
      <SOURCE MIDI
        HASDATA 1 960 QN
        E 0 c0 62 00
        E 0 90 45 4b
        E 0 90 4a 4b
        E 0 90 4c 4b
        E 5120 80 45 00
        E 0 80 4a 00
        E 0 80 4c 00
        E 213 90 45 4b
        E 0 90 4a 4b
        E 0 90 4c 4b
        E 5120 80 45 00
        E 0 80 4a 00
        E 0 80 4c 00
        E 214 90 45 4b
        E 0 90 4a 4b
        E 0 90 4c 4b
        E 5120 80 45 00
        E 0 80 4a 00
        E 0 80 4c 00
        E 213 90 45 4b
        E 0 90 48 4b
        E 0 90 4c 4b
        E 5120 80 45 00
        E 0 80 48 00
        E 0 80 4c 00
        E 213 90 45 4b
        E 0 90 4a 4b
        E 0 90 4c 4b
        E 5120 80 45 00
        E 0 80 4a 00
        E 0 80 4c 00
        E 214 90 45 4b
        E 0 90 4a 4b
        E 0 90 4c 4b
        E 5120 80 45 00
        E 0 80 4a 00
        E 0 80 4c 00
        E 213 90 43 4b
        E 0 90 48 4b
        E 0 90 4a 4b
        E 5120 80 43 00
        E 0 80 48 00
        E 0 80 4a 00
        E 213 90 43 4b
        E 0 90 48 4b
        E 0 90 4c 4b
        E 5120 80 43 00
        E 0 80 48 00
        E 0 80 4c 00
        E 214 90 45 4b
        E 0 90 4a 4b
        E 0 90 4c 4b
        E 5120 80 45 00
        E 0 80 4a 00
        E 0 80 4c 00
        E 213 90 45 4b
        E 0 90 4a 4b
        E 0 90 4c 4b
        E 5120 80 45 00
        E 0 80 4a 00
        E 0 80 4c 00
        E 213 90 45 4b
        E 0 90 48 4b
        E 0 90 4c 4b
        E 5120 80 45 00
        E 0 80 48 00
        E 0 80 4c 00
        E 214 90 45 4b
        E 0 90 4a 4b
        E 0 90 4c 4b
        E 5120 80 45 00
        E 0 80 4a 00
        E 0 80 4c 00
        E 213 90 45 4b
        E 0 90 4a 4b
        E 0 90 4c 4b
        E 5120 80 45 00
        E 0 80 4a 00
        E 0 80 4c 00
        E 213 90 43 4b
        E 0 90 48 4b
        E 0 90 4a 4b
        E 5120 80 43 00
        E 0 80 48 00
        E 0 80 4a 00
        E 214 90 43 4b
        E 0 90 48 4b
        E 0 90 4c 4b
        E 5120 80 43 00
        E 0 80 48 00
        E 0 80 4c 00
        E 213 90 45 4b
        E 0 90 4a 4b
        E 0 90 4c 4b
        E 5120 80 45 00
        E 0 80 4a 00
        E 0 80 4c 00
        E 213 90 45 4b
        E 0 90 4a 4b
        E 0 90 4c 4b
        E 5120 80 45 00
        E 0 80 4a 00
        E 0 80 4c 00
        E 214 90 45 4b
        E 0 90 48 4b
        E 0 90 4c 4b
        E 5120 80 45 00
        E 0 80 48 00
        E 0 80 4c 00
        E 213 90 45 4b
        E 0 90 4a 4b
        E 0 90 4c 4b
        E 5120 80 45 00
        E 0 80 4a 00
        E 0 80 4c 00
        E 213 90 45 4b
        E 0 90 4a 4b
        E 0 90 4c 4b
        E 5120 80 45 00
        E 0 80 4a 00
        E 0 80 4c 00
        E 214 90 43 4b
        E 0 90 48 4b
        E 0 90 4a 4b
        E 5120 80 43 00
        E 0 80 48 00
        E 0 80 4a 00
        E 213 90 43 4b
        E 0 90 48 4b
        E 0 90 4c 4b
        E 5120 80 43 00
        E 0 80 48 00
        E 0 80 4c 00
        E 213 90 45 4b
        E 0 90 4a 4b
        E 0 90 4c 4b
        E 5120 80 45 00
        E 0 80 4a 00
        E 0 80 4c 00
        E 214 90 45 4b
        E 0 90 4a 4b
        E 0 90 4c 4b
        E 5120 80 45 00
        E 0 80 4a 00
        E 0 80 4c 00
        E 213 90 45 4b
        E 0 90 48 4b
        E 0 90 4c 4b
        E 5120 80 45 00
        E 0 80 48 00
        E 0 80 4c 00
        E 213 90 45 4b
        E 0 90 4a 4b
        E 0 90 4c 4b
        E 5120 80 45 00
        E 0 80 4a 00
        E 0 80 4c 00
        E 214 90 45 4b
        E 0 90 4a 4b
        E 0 90 4c 4b
        E 5120 80 45 00
        E 0 80 4a 00
        E 0 80 4c 00
        E 213 90 43 4b
        E 0 90 48 4b
        E 0 90 4a 4b
        E 5120 80 43 00
        E 0 80 48 00
        E 0 80 4a 00
        E 213 90 43 4b
        E 0 90 48 4b
        E 0 90 4c 4b
        E 5120 80 43 00
        E 0 80 48 00
        E 0 80 4c 00
        E 214 90 45 4b
        E 0 90 4a 4b
        E 0 90 4c 4b
        E 5120 80 45 00
        E 0 80 4a 00
        E 0 80 4c 00
        E 213 90 45 4b
        E 0 90 4a 4b
        E 0 90 4c 4b
        E 5120 80 45 00
        E 0 80 4a 00
        E 0 80 4c 00
        E 213 90 45 4b
        E 0 90 48 4b
        E 0 90 4c 4b
        E 5120 80 45 00
        E 0 80 48 00
        E 0 80 4c 00
        E 214 90 45 4b
        E 0 90 4a 4b
        E 0 90 4c 4b
        E 5120 80 45 00
        E 0 80 4a 00
        E 0 80 4c 00
        E 213 90 45 4b
        E 0 90 4a 4b
        E 0 90 4c 4b
        E 5120 80 45 00
        E 0 80 4a 00
        E 0 80 4c 00
        E 213 90 43 4b
        E 0 90 48 4b
        E 0 90 4a 4b
        E 5120 80 43 00
        E 0 80 48 00
        E 0 80 4a 00
        E 214 90 45 4b
        E 0 90 4a 4b
        E 0 90 4c 4b
        E 5120 80 45 00
        E 0 80 4a 00
        E 0 80 4c 00
        E 0 b0 7b 00
        E 1 ff 2f 00
      >
    >
  >
  <TRACK
    NAME "erhu"
    PEAKCOL 4284506208
    VOLPAN 1.000000 0 1 -1
    MIDIOUT -1
    ISBUS 0 0
    <ITEM
      POSITION 0.000000
      LENGTH 258.621739
      NAME "erhu"
      VOLPAN 1 0 1 -1
      <SOURCE MIDI
        HASDATA 1 960 QN
        E 0 c1 6e 00
        E 0 91 43 6a
        E 2112 81 43 00
        E 1728 91 3e 6e
        E 2112 81 3e 00
        E 1728 91 3e 6c
        E 2112 81 3e 00
        E 1728 91 3e 70
        E 2112 81 3e 00
        E 1728 91 43 6e
        E 2112 81 43 00
        E 1728 91 45 67
        E 2112 81 45 00
        E 1728 91 4a 6c
        E 2112 81 4a 00
        E 1728 91 4a 69
        E 2112 81 4a 00
        E 1728 91 4f 67
        E 2112 81 4f 00
        E 1728 91 4f 67
        E 2112 81 4f 00
        E 1728 91 50 6a
        E 2112 81 50 00
        E 1728 91 4c 70
        E 2112 81 4c 00
        E 1728 91 4f 63
        E 2112 81 4f 00
        E 1728 91 4a 62
        E 2112 81 4a 00
        E 1728 91 45 65
        E 2112 81 45 00
        E 1728 91 4a 70
        E 2112 81 4a 00
        E 1728 91 4a 67
        E 2112 81 4a 00
        E 1728 91 4a 67
        E 2112 81 4a 00
        E 1728 91 4a 62
        E 2112 81 4a 00
        E 1728 91 48 6a
        E 2112 81 48 00
        E 1728 91 45 69
        E 2112 81 45 00
        E 1728 91 43 63
        E 2112 81 43 00
        E 1728 91 43 65
        E 2112 81 43 00
        E 1728 91 3e 6a
        E 2112 81 3e 00
        E 1728 91 3c 6a
        E 2112 81 3c 00
        E 1728 91 3e 65
        E 2112 81 3e 00
        E 1728 91 3e 72
        E 2112 81 3e 00
        E 1728 91 3e 65
        E 2112 81 3e 00
        E 1728 91 3c 72
        E 2112 81 3c 00
        E 1728 91 3c 65
        E 2112 81 3c 00
        E 1728 91 40 6c
        E 2112 81 40 00
        E 1728 91 3e 69
        E 2112 81 3e 00
        E 1728 91 3e 72
        E 2112 81 3e 00
        E 1728 91 3e 6e
        E 2112 81 3e 00
        E 1728 91 3e 62
        E 2112 81 3e 00
        E 1728 91 3e 6e
        E 2112 81 3e 00
        E 1728 91 43 70
        E 2112 81 43 00
        E 1728 91 43 6a
        E 2112 81 43 00
        E 1728 91 48 70
        E 2112 81 48 00
        E 1728 91 4c 65
        E 2112 81 4c 00
        E 1728 91 4c 6c
        E 2112 81 4c 00
        E 1728 91 4a 70
        E 2112 81 4a 00
        E 1728 91 4a 65
        E 2112 81 4a 00
        E 1728 91 4a 69
        E 2112 81 4a 00
        E 1728 91 45 65
        E 2112 81 45 00
        E 1728 91 43 67
        E 2112 81 43 00
        E 1728 91 3e 67
        E 2112 81 3e 00
        E 1728 91 3e 65
        E 2112 81 3e 00
        E 1728 91 3c 6a
        E 2112 81 3c 00
        E 1728 91 3e 69
        E 2112 81 3e 00
        E 0 b1 7b 00
        E 1 ff 2f 00
      >
    >
  >
  <TRACK
    NAME "wind_machine"
    PEAKCOL 4284506208
    VOLPAN 1.000000 0 1 -1
    MIDIOUT -1
    ISBUS 0 0
    <ITEM
      POSITION 0.000000
      LENGTH 260.824637
      NAME "wind_machine"
      VOLPAN 1 0 1 -1
      <SOURCE MIDI
        HASDATA 1 960 QN
        E 0 c2 7a 00
        E 0 92 54 39
        E 5227 82 54 00
        E 106 92 54 39
        E 5227 82 54 00
        E 107 92 54 39
        E 5227 82 54 00
        E 106 92 54 39
        E 5227 82 54 00
        E 106 92 54 39
        E 5227 82 54 00
        E 107 92 54 39
        E 5227 82 54 00
        E 106 92 54 39
        E 5227 82 54 00
        E 106 92 54 39
        E 5227 82 54 00
        E 107 92 54 39
        E 5227 82 54 00
        E 106 92 54 39
        E 5227 82 54 00
        E 106 92 54 39
        E 5227 82 54 00
        E 107 92 54 39
        E 5227 82 54 00
        E 106 92 54 39
        E 5227 82 54 00
        E 106 92 54 39
        E 5227 82 54 00
        E 107 92 54 39
        E 5227 82 54 00
        E 106 92 54 39
        E 5227 82 54 00
        E 106 92 54 39
        E 5227 82 54 00
        E 107 92 54 39
        E 5227 82 54 00
        E 106 92 54 39
        E 5227 82 54 00
        E 106 92 54 39
        E 5227 82 54 00
        E 107 92 54 39
        E 5227 82 54 00
        E 106 92 54 39
        E 5227 82 54 00
        E 106 92 54 39
        E 5227 82 54 00
        E 107 92 54 39
        E 5227 82 54 00
        E 106 92 54 39
        E 5227 82 54 00
        E 106 92 54 39
        E 5227 82 54 00
        E 107 92 54 39
        E 5227 82 54 00
        E 106 92 54 39
        E 5227 82 54 00
        E 106 92 54 39
        E 5227 82 54 00
        E 107 92 54 39
        E 5227 82 54 00
        E 106 92 54 39
        E 5227 82 54 00
        E 106 92 54 39
        E 5227 82 54 00
        E 107 92 54 39
        E 5227 82 54 00
        E 106 92 54 39
        E 5227 82 54 00
        E 106 92 54 39
        E 5227 82 54 00
        E 107 92 54 39
        E 5227 82 54 00
        E 0 b2 7b 00
        E 1 ff 2f 00
      >
    >
  >
>
