<REAPER_PROJECT 0.1 "7.0" 1700000000
  TEMPO 80.000000 4 4
  SAMPLERATE 48000 0 0
  RENDER_FILE ""
  RENDER_FMT 0 2 0
  RENDER_1X 0
  RENDER_RANGE 1 0 74.000000 0 0
  RENDER_RESAMPLE 3 0 1
  <MASTERTRACK
    VOLPAN 1 0 1 -1
    DEFCHAN 0
  >
  <TRACK
    NAME "Lead"
    PEAKCOL 4284506208
    VOLPAN 1.000000 0 1 -1
    MIDIOUT -1
    ISBUS 0 0
    <ITEM
      POSITION 0.292431
      LENGTH 71.552680
      NAME "Lead"
      VOLPAN 1 0 1 -1
      <SOURCE MIDI
        HASDATA 1 960 QN
        E 0 c0 51 00
        E 374 90 4f 58
        E 460 90 50 3e
        E 240 80 50 00
        E 219 90 54 3e
        E 291 80 4f 00
        E 263 80 54 00
        E 1376 90 50 4a
        E 499 80 50 00
        E 801 90 52 3e
        E 305 80 52 00
        E 327 90 50 4f
        E 240 80 50 00
        E 392 90 4d 6d
        E 1100 80 4d 00
        E 199 90 4f 3e
        E 770 90 50 3e
        E 220 80 4f 00
        E 20 80 50 00
        E 530 90 54 52
        E 400 90 50 4f
        E 810 80 54 00
        E 290 80 50 00
        E 530 90 50 3e
        E 554 80 50 00
        E 756 90 54 47
        E 1151 90 50 3e
        E 59 80 54 00
        E 1041 80 50 00
        E 206 90 50 60
        E 1108 80 50 00
        E 178 90 54 43
        E 1210 80 54 00
        E 73 90 54 44
        E 1100 80 54 00
        E 191 90 50 53
        E 1100 80 50 00
        E 170 90 50 3e
        E 1210 80 50 00
        E 99 90 4d 43
        E 1100 80 4d 00
        E 184 90 4f 4f
        E 831 80 4f 00
        E 440 90 4f 3e
        E 914 80 4f 00
        E 394 90 4f 43
        E 831 80 4f 00
        E 1333 90 4d 67
        E 528 90 50 3e
        E 240 80 50 00
        E 222 80 4d 00
        E 66 90 54 49
        E 554 80 54 00
        E 734 90 50 4c
        E 1100 80 50 00
        E 187 90 50 3e
        E 990 80 50 00
        E 306 90 4d 3e
        E 554 80 4d 00
        E 91 90 4f 49
        E 643 90 50 3e
        E 240 80 50 00
        E 217 80 4f 00
        E 187 90 54 3e
        E 880 90 50 43
        E 220 80 54 00
        E 20 80 50 00
        E 640 90 4d 69
        E 831 80 4d 00
        E 1095 90 4f 4d
        E 831 90 50 3e
        E 240 80 50 00
        E 37 80 4f 00
        E 554 90 54 3e
        E 461 90 50 3e
        E 240 80 50 00
        E 213 80 54 00
        E 7 90 4d 50
        E 554 80 4d 00
        E 1387 90 4d 3e
        E 320 90 4b 4d
        E 179 80 4d 00
        E 61 80 4b 00
        E 81 90 49 4d
        E 240 80 49 00
        E 80 90 46 4d
        E 240 80 46 00
        E 80 90 44 6d
        E 1100 80 44 00
        E 170 90 46 4c
        E 554 80 46 00
        E 96 90 49 3e
        E 240 80 49 00
        E 410 90 4d 3e
        E 499 80 4d 00
        E 794 90 4b 55
        E 831 80 4b 00
        E 455 90 4b 47
        E 1100 80 4b 00
        E 186 90 4d 3e
        E 990 80 4d 00
        E 542 90 4f 4a
        E 1042 90 52 5e
        E 66 80 4f 00
        E 1034 80 52 00
        E 196 90 50 3e
        E 990 80 50 00
        E 418 90 50 47
        E 515 90 50 46
        E 585 80 50 00
        E 63 90 52 3e
        E 240 80 52 00
        E 212 80 50 00
        E 196 90 57 4a
        E 1100 80 57 00
        E 832 90 55 3e
        E 822 90 52 3e
        E 240 80 52 00
        E 38 80 55 00
        E 543 90 50 3e
        E 831 80 50 00
        E 89 90 50 3e
        E 990 80 50 00
        E 141 90 52 53
        E 1100 80 52 00
        E 208 90 54 4f
        E 1100 80 54 00
        E 165 90 50 3e
        E 249 80 50 00
        E 1162 90 52 3e
        E 1100 80 52 00
        E 315 90 54 46
        E 1054 90 52 3e
        E 46 80 54 00
        E 203 80 52 00
        E 1395 90 50 44
        E 935 90 50 53
        E 173 80 50 00
        E 454 90 4d 49
        E 204 80 50 00
        E 896 80 4d 00
        E 188 90 4f 46
        E 1210 80 4f 00
        E 314 90 4f 6d
        E 536 90 50 3e
        E 240 80 50 00
        E 297 90 54 5c
        E 27 80 4f 00
        E 1073 80 54 00
        E 552 90 52 3e
        E 917 90 52 47
        E 277 80 52 00
        E 16 80 52 00
        E 989 90 50 3e
        E 1100 80 50 00
        E 1395 90 50 3e
        E 277 80 50 00
        E 758 90 4d 46
        E 554 80 4d 00
        E 744 90 4f 41
        E 1210 80 4f 00
        E 79 90 4f 43
        E 1100 80 4f 00
        E 200 90 4d 3e
        E 1100 80 4d 00
        E 1376 90 4f 47
        E 1057 90 4d 41
        E 43 80 4f 00
        E 1057 80 4d 00
        E 0 b0 7b 00
        E 1 ff 2f 00
      >
    >
  >
  <TRACK
    NAME "Piano"
    PEAKCOL 4290756410
    VOLPAN 1.000000 0 1 -1
    MIDIOUT -1
    ISBUS 0 0
    <ITEM
      POSITION 0.000000
      LENGTH 71.950000
      NAME "Piano"
      VOLPAN 1 0 1 -1
      <SOURCE MIDI
        HASDATA 1 960 QN
        E 0 c1 00 00
        E 0 91 41 55
        E 0 91 38 55
        E 0 91 3c 55
        E 0 91 3f 55
        E 0 91 37 55
        E 0 91 29 5b
        E 0 91 24 63
        E 0 91 2a 41
        E 96 81 2a 00
        E 192 81 24 00
        E 0 91 2a 37
        E 96 81 2a 00
        E 576 91 25 4f
        E 0 91 2a 43
        E 96 81 2a 00
        E 96 81 25 00
        E 96 91 2a 35
        E 96 81 2a 00
        E 96 81 41 00
        E 0 81 38 00
        E 0 81 3c 00
        E 0 81 3f 00
        E 0 81 37 00
        E 288 81 29 00
        E 192 91 41 55
        E 0 91 38 55
        E 0 91 3c 55
        E 0 91 3f 55
        E 0 91 37 55
        E 0 91 24 66
        E 0 91 24 66
        E 0 91 2a 43
        E 96 81 2a 00
        E 192 81 24 00
        E 0 91 2a 35
        E 96 81 2a 00
        E 576 91 25 4f
        E 0 91 2a 41
        E 96 81 2a 00
        E 96 81 25 00
        E 288 81 41 00
        E 0 81 38 00
        E 0 81 3c 00
        E 0 81 3f 00
        E 0 81 37 00
        E 288 81 24 00
        E 192 91 41 4f
        E 0 91 38 4f
        E 0 91 3c 4f
        E 0 91 3f 4f
        E 0 91 37 4f
        E 0 91 29 58
        E 0 91 24 66
        E 288 81 24 00
        E 672 91 25 4a
        E 0 91 2a 43
        E 96 81 2a 00
        E 96 81 25 00
        E 96 91 2a 35
        E 96 81 2a 00
        E 96 81 41 00
        E 0 81 38 00
        E 0 81 3c 00
        E 0 81 3f 00
        E 0 81 37 00
        E 288 81 29 00
        E 192 91 29 49
        E 0 91 24 66
        E 0 91 2a 43
        E 96 81 2a 00
        E 192 81 24 00
        E 0 91 2a 35
        E 96 81 2a 00
        E 576 91 25 4f
        E 192 81 25 00
        E 576 81 29 00
        E 192 91 3d 47
        E 0 91 41 47
        E 0 91 38 47
        E 0 91 3b 47
        E 0 91 3f 47
        E 0 91 25 60
        E 0 91 24 66
        E 0 91 2a 43
        E 96 81 2a 00
        E 192 81 24 00
        E 0 91 2a 35
        E 96 81 2a 00
        E 576 91 25 4f
        E 0 91 2a 43
        E 96 81 2a 00
        E 96 81 25 00
        E 96 91 2a 35
        E 96 81 2a 00
        E 96 81 3d 00
        E 0 81 41 00
        E 0 81 38 00
        E 0 81 3b 00
        E 0 81 3f 00
        E 288 81 25 00
        E 192 91 3d 55
        E 0 91 41 55
        E 0 91 38 55
        E 0 91 3b 55
        E 0 91 3f 55
        E 0 91 24 66
        E 0 91 24 66
        E 0 91 2a 43
        E 96 81 2a 00
        E 192 81 24 00
        E 0 91 2a 35
        E 96 81 2a 00
        E 576 91 25 52
        E 0 91 2a 43
        E 96 81 2a 00
        E 96 81 25 00
        E 96 91 2a 35
        E 96 81 2a 00
        E 96 81 3d 00
        E 0 81 41 00
        E 0 81 38 00
        E 0 81 3b 00
        E 0 81 3f 00
        E 288 81 24 00
        E 192 91 3d 4f
        E 0 91 41 4f
        E 0 91 38 4f
        E 0 91 3b 4f
        E 0 91 3f 4f
        E 0 91 25 59
        E 0 91 24 63
        E 0 91 2a 43
        E 96 81 2a 00
        E 192 81 24 00
        E 0 91 2a 35
        E 96 81 2a 00
        E 576 91 25 4d
        E 0 91 2a 40
        E 96 81 2a 00
        E 96 81 25 00
        E 96 91 2a 35
        E 96 81 2a 00
        E 96 81 3d 00
        E 0 81 41 00
        E 0 81 38 00
        E 0 81 3b 00
        E 0 81 3f 00
        E 288 81 25 00
        E 192 91 24 4a
        E 0 91 24 66
        E 288 81 24 00
        E 0 91 2a 35
        E 96 81 2a 00
        E 576 91 25 4d
        E 0 91 2a 43
        E 96 81 2a 00
        E 96 81 25 00
        E 576 81 24 00
        E 192 91 38 4f
        E 0 91 3c 4f
        E 0 91 3f 4f
        E 0 91 42 4f
        E 0 91 3a 4f
        E 0 91 2c 59
        E 0 91 24 66
        E 0 91 2a 44
        E 96 81 2a 00
        E 192 81 24 00
        E 0 91 2a 35
        E 96 81 2a 00
        E 576 91 25 53
        E 0 91 2a 43
        E 96 81 2a 00
        E 96 81 25 00
        E 96 91 2a 35
        E 96 81 2a 00
        E 96 81 38 00
        E 0 81 3c 00
        E 0 81 3f 00
        E 0 81 42 00
        E 0 81 3a 00
        E 288 81 2c 00
        E 192 91 2c 4d
        E 0 91 24 66
        E 0 91 2a 43
        E 96 81 2a 00
        E 192 81 24 00
        E 0 91 2a 35
        E 96 81 2a 00
        E 576 91 25 4f
        E 0 91 2a 3e
        E 96 81 2a 00
        E 96 81 25 00
        E 96 91 2a 35
        E 96 81 2a 00
        E 384 81 2c 00
        E 192 91 38 47
        E 0 91 3c 47
        E 0 91 3f 47
        E 0 91 42 47
        E 0 91 3a 47
        E 0 91 2c 5b
        E 0 91 24 66
        E 0 91 2a 41
        E 96 81 2a 00
        E 192 81 24 00
        E 0 91 2a 35
        E 96 81 2a 00
        E 576 91 25 4f
        E 192 81 25 00
        E 96 91 2a 35
        E 96 81 2a 00
        E 96 81 38 00
        E 0 81 3c 00
        E 0 81 3f 00
        E 0 81 42 00
        E 0 81 3a 00
        E 288 81 2c 00
        E 192 91 38 4f
        E 0 91 3c 4f
        E 0 91 3f 4f
        E 0 91 42 4f
        E 0 91 3a 4f
        E 0 91 2c 4c
        E 0 91 24 66
        E 0 91 2a 43
        E 96 81 2a 00
        E 192 81 24 00
        E 0 91 2a 35
        E 96 81 2a 00
        E 576 91 25 4d
        E 0 91 2a 43
        E 96 81 2a 00
        E 96 81 25 00
        E 96 91 2a 35
        E 96 81 2a 00
        E 96 81 38 00
        E 0 81 3c 00
        E 0 81 3f 00
        E 0 81 42 00
        E 0 81 3a 00
        E 288 81 2c 00
        E 192 91 3f 47
        E 0 91 37 47
        E 0 91 3a 47
        E 0 91 3d 47
        E 0 91 41 47
        E 0 91 27 58
        E 0 91 24 66
        E 0 91 2a 43
        E 96 81 2a 00
        E 192 81 24 00
        E 0 91 2a 35
        E 96 81 2a 00
        E 576 91 25 52
        E 0 91 2a 43
        E 96 81 2a 00
        E 96 81 25 00
        E 96 91 2a 35
        E 96 81 2a 00
        E 96 81 3f 00
        E 0 81 37 00
        E 0 81 3a 00
        E 0 81 3d 00
        E 0 81 41 00
        E 288 81 27 00
        E 192 91 27 46
        E 0 91 24 66
        E 0 91 2a 41
        E 96 81 2a 00
        E 192 81 24 00
        E 0 91 2a 35
        E 96 81 2a 00
        E 576 91 25 4f
        E 0 91 2a 43
        E 96 81 2a 00
        E 96 81 25 00
        E 96 91 2a 35
        E 96 81 2a 00
        E 384 81 27 00
        E 192 91 3f 4d
        E 0 91 37 4d
        E 0 91 3a 4d
        E 0 91 3d 4d
        E 0 91 41 4d
        E 0 91 27 60
        E 0 91 24 66
        E 0 91 2a 41
        E 96 81 2a 00
        E 192 81 24 00
        E 0 91 2a 35
        E 96 81 2a 00
        E 576 91 25 4f
        E 0 91 2a 41
        E 96 81 2a 00
        E 96 81 25 00
        E 96 91 2a 35
        E 96 81 2a 00
        E 96 81 3f 00
        E 0 81 37 00
        E 0 81 3a 00
        E 0 81 3d 00
        E 0 81 41 00
        E 288 81 27 00
        E 192 91 3f 49
        E 0 91 37 49
        E 0 91 3a 49
        E 0 91 3d 49
        E 0 91 41 49
        E 0 91 27 47
        E 0 91 24 66
        E 0 91 2a 43
        E 96 81 2a 00
        E 192 81 24 00
        E 0 91 2a 35
        E 96 81 2a 00
        E 576 91 25 50
        E 0 91 2a 44
        E 96 81 2a 00
        E 96 81 25 00
        E 96 91 2a 35
        E 96 81 2a 00
        E 96 81 3f 00
        E 0 81 37 00
        E 0 81 3a 00
        E 0 81 3d 00
        E 0 81 41 00
        E 288 81 27 00
        E 192 91 41 52
        E 0 91 38 52
        E 0 91 3c 52
        E 0 91 3f 52
        E 0 91 37 52
        E 0 91 29 5b
        E 0 91 24 63
        E 288 81 24 00
        E 0 91 2a 35
        E 96 81 2a 00
        E 576 91 25 4a
        E 0 91 2a 43
        E 96 81 2a 00
        E 96 81 25 00
        E 96 91 2a 35
        E 96 81 2a 00
        E 96 81 41 00
        E 0 81 38 00
        E 0 81 3c 00
        E 0 81 3f 00
        E 0 81 37 00
        E 288 81 29 00
        E 192 91 41 49
        E 0 91 38 49
        E 0 91 3c 49
        E 0 91 3f 49
        E 0 91 37 49
        E 0 91 29 4a
        E 0 91 24 66
        E 288 81 24 00
        E 672 91 25 4f
        E 192 81 25 00
        E 96 91 2a 35
        E 96 81 2a 00
        E 96 81 41 00
        E 0 81 38 00
        E 0 81 3c 00
        E 0 81 3f 00
        E 0 81 37 00
        E 288 81 29 00
        E 192 91 41 49
        E 0 91 38 49
        E 0 91 3c 49
        E 0 91 3f 49
        E 0 91 37 49
        E 0 91 29 66
        E 0 91 24 66
        E 0 91 2a 43
        E 96 81 2a 00
        E 192 81 24 00
        E 0 91 2a 35
        E 96 81 2a 00
        E 576 91 25 4f
        E 0 91 2a 40
        E 96 81 2a 00
        E 96 81 25 00
        E 96 91 2a 35
        E 96 81 2a 00
        E 96 81 41 00
        E 0 81 38 00
        E 0 81 3c 00
        E 0 81 3f 00
        E 0 81 37 00
        E 288 81 29 00
        E 192 91 41 4c
        E 0 91 38 4c
        E 0 91 3c 4c
        E 0 91 3f 4c
        E 0 91 37 4c
        E 0 91 29 4c
        E 0 91 24 66
        E 0 91 2a 43
        E 96 81 2a 00
        E 192 81 24 00
        E 0 91 2a 35
        E 96 81 2a 00
        E 576 91 25 4f
        E 0 91 2a 43
        E 96 81 2a 00
        E 96 81 25 00
        E 288 81 41 00
        E 0 81 38 00
        E 0 81 3c 00
        E 0 81 3f 00
        E 0 81 37 00
        E 288 81 29 00
        E 192 91 3d 59
        E 0 91 41 59
        E 0 91 38 59
        E 0 91 3b 59
        E 0 91 3f 59
        E 0 91 25 5e
        E 0 91 24 61
        E 0 91 2a 44
        E 96 81 2a 00
        E 192 81 24 00
        E 0 91 2a 35
        E 96 81 2a 00
        E 576 91 25 4f
        E 0 91 2a 43
        E 96 81 2a 00
        E 96 81 25 00
        E 96 91 2a 35
        E 96 81 2a 00
        E 96 81 3d 00
        E 0 81 41 00
        E 0 81 38 00
        E 0 81 3b 00
        E 0 81 3f 00
        E 288 81 25 00
        E 192 91 3d 49
        E 0 91 41 49
        E 0 91 38 49
        E 0 91 3b 49
        E 0 91 3f 49
        E 0 91 25 44
        E 0 91 24 66
        E 0 91 2a 46
        E 96 81 2a 00
        E 192 81 24 00
        E 672 91 25 4f
        E 0 91 2a 44
        E 96 81 2a 00
        E 96 81 25 00
        E 288 81 3d 00
        E 0 81 41 00
        E 0 81 38 00
        E 0 81 3b 00
        E 0 81 3f 00
        E 288 81 25 00
        E 192 91 3d 58
        E 0 91 41 58
        E 0 91 38 58
        E 0 91 3b 58
        E 0 91 3f 58
        E 0 91 25 59
        E 0 91 24 66
        E 0 91 2a 44
        E 96 81 2a 00
        E 192 81 24 00
        E 0 91 2a 35
        E 96 81 2a 00
        E 576 91 25 4c
        E 0 91 2a 44
        E 96 81 2a 00
        E 96 81 25 00
        E 96 91 2a 35
        E 96 81 2a 00
        E 96 81 3d 00
        E 0 81 41 00
        E 0 81 38 00
        E 0 81 3b 00
        E 0 81 3f 00
        E 288 81 25 00
        E 192 91 24 4a
        E 0 91 24 66
        E 0 91 2a 44
        E 96 81 2a 00
        E 192 81 24 00
        E 0 91 2a 35
        E 96 81 2a 00
        E 576 91 25 4d
        E 192 81 25 00
        E 96 91 2a 35
        E 96 81 2a 00
        E 384 81 24 00
        E 192 91 38 49
        E 0 91 3c 49
        E 0 91 3f 49
        E 0 91 42 49
        E 0 91 3a 49
        E 0 91 2c 5c
        E 0 91 24 66
        E 0 91 2a 43
        E 96 81 2a 00
        E 192 81 24 00
        E 0 91 2a 35
        E 96 81 2a 00
        E 576 91 25 49
        E 0 91 2a 43
        E 96 81 2a 00
        E 96 81 25 00
        E 96 91 2a 35
        E 96 81 2a 00
        E 96 81 38 00
        E 0 81 3c 00
        E 0 81 3f 00
        E 0 81 42 00
        E 0 81 3a 00
        E 288 81 2c 00
        E 192 91 38 4f
        E 0 91 3c 4f
        E 0 91 3f 4f
        E 0 91 42 4f
        E 0 91 3a 4f
        E 0 91 27 4c
        E 0 91 24 66
        E 0 91 2a 43
        E 96 81 2a 00
        E 192 81 24 00
        E 672 91 25 4f
        E 0 91 2a 41
        E 96 81 2a 00
        E 96 81 25 00
        E 96 91 2a 35
        E 96 81 2a 00
        E 96 81 38 00
        E 0 81 3c 00
        E 0 81 3f 00
        E 0 81 42 00
        E 0 81 3a 00
        E 288 81 27 00
        E 192 91 38 55
        E 0 91 3c 55
        E 0 91 3f 55
        E 0 91 42 55
        E 0 91 3a 55
        E 0 91 2c 53
        E 0 91 24 64
        E 288 81 24 00
        E 0 91 2a 35
        E 96 81 2a 00
        E 576 91 25 46
        E 0 91 2a 47
        E 96 81 2a 00
        E 96 81 25 00
        E 288 81 38 00
        E 0 81 3c 00
        E 0 81 3f 00
        E 0 81 42 00
        E 0 81 3a 00
        E 288 81 2c 00
        E 192 91 38 50
        E 0 91 3c 50
        E 0 91 3f 50
        E 0 91 42 50
        E 0 91 3a 50
        E 0 91 2c 49
        E 0 91 24 66
        E 0 91 2a 43
        E 96 81 2a 00
        E 192 81 24 00
        E 0 91 2a 35
        E 96 81 2a 00
        E 576 91 25 4f
        E 0 91 2a 43
        E 96 81 2a 00
        E 96 81 25 00
        E 96 91 2a 35
        E 96 81 2a 00
        E 96 81 38 00
        E 0 81 3c 00
        E 0 81 3f 00
        E 0 81 42 00
        E 0 81 3a 00
        E 288 81 2c 00
        E 192 91 3f 4a
        E 0 91 37 4a
        E 0 91 3a 4a
        E 0 91 3d 4a
        E 0 91 41 4a
        E 0 91 27 59
        E 0 91 24 61
        E 0 91 2a 43
        E 96 81 2a 00
        E 192 81 24 00
        E 672 91 25 53
        E 0 91 2a 43
        E 96 81 2a 00
        E 96 81 25 00
        E 96 91 2a 35
        E 96 81 2a 00
        E 96 81 3f 00
        E 0 81 37 00
        E 0 81 3a 00
        E 0 81 3d 00
        E 0 81 41 00
        E 288 81 27 00
        E 192 91 24 66
        E 0 91 24 66
        E 0 91 2a 43
        E 96 81 2a 00
        E 192 81 24 00
        E 0 91 2a 35
        E 96 81 2a 00
        E 576 91 25 4f
        E 0 91 2a 43
        E 96 81 2a 00
        E 96 81 25 00
        E 96 91 2a 35
        E 96 81 2a 00
        E 384 81 24 00
        E 192 91 3f 4a
        E 0 91 37 4a
        E 0 91 3a 4a
        E 0 91 3d 4a
        E 0 91 41 4a
        E 0 91 27 59
        E 0 91 24 66
        E 0 91 2a 43
        E 96 81 2a 00
        E 192 81 24 00
        E 0 91 2a 35
        E 96 81 2a 00
        E 576 91 25 4f
        E 0 91 2a 43
        E 96 81 2a 00
        E 96 81 25 00
        E 96 91 2a 35
        E 96 81 2a 00
        E 96 81 3f 00
        E 0 81 37 00
        E 0 81 3a 00
        E 0 81 3d 00
        E 0 81 41 00
        E 288 81 27 00
        E 192 91 3f 4c
        E 0 91 37 4c
        E 0 91 3a 4c
        E 0 91 3d 4c
        E 0 91 41 4c
        E 0 91 27 4a
        E 0 91 24 66
        E 0 91 2a 40
        E 96 81 2a 00
        E 192 81 24 00
        E 0 91 2a 35
        E 96 81 2a 00
        E 576 91 25 4f
        E 0 91 2a 43
        E 96 81 2a 00
        E 96 81 25 00
        E 96 91 2a 35
        E 96 81 2a 00
        E 96 81 3f 00
        E 0 81 37 00
        E 0 81 3a 00
        E 0 81 3d 00
        E 0 81 41 00
        E 288 81 27 00
        E 192 91 41 4f
        E 0 91 38 4f
        E 0 91 3c 4f
        E 0 91 3f 4f
        E 0 91 37 4f
        E 0 91 29 5b
        E 0 91 24 66
        E 0 91 2a 43
        E 96 81 2a 00
        E 192 81 24 00
        E 0 91 2a 35
        E 96 81 2a 00
        E 576 91 25 4f
        E 0 91 2a 43
        E 96 81 2a 00
        E 96 81 25 00
        E 96 91 2a 35
        E 96 81 2a 00
        E 96 81 41 00
        E 0 81 38 00
        E 0 81 3c 00
        E 0 81 3f 00
        E 0 81 37 00
        E 288 81 29 00
        E 192 91 41 4c
        E 0 91 38 4c
        E 0 91 3c 4c
        E 0 91 3f 4c
        E 0 91 37 4c
        E 0 91 24 66
        E 0 91 24 66
        E 0 91 2a 43
        E 96 81 2a 00
        E 192 81 24 00
        E 0 91 2a 35
        E 96 81 2a 00
        E 576 91 25 4f
        E 0 91 2a 40
        E 96 81 2a 00
        E 96 81 25 00
        E 288 81 41 00
        E 0 81 38 00
        E 0 81 3c 00
        E 0 81 3f 00
        E 0 81 37 00
        E 288 81 24 00
        E 192 91 41 4a
        E 0 91 38 4a
        E 0 91 3c 4a
        E 0 91 3f 4a
        E 0 91 37 4a
        E 0 91 29 56
        E 0 91 24 66
        E 0 91 2a 46
        E 96 81 2a 00
        E 192 81 24 00
        E 0 91 2a 35
        E 96 81 2a 00
        E 576 91 25 50
        E 192 81 25 00
        E 96 91 2a 35
        E 96 81 2a 00
        E 96 81 41 00
        E 0 81 38 00
        E 0 81 3c 00
        E 0 81 3f 00
        E 0 81 37 00
        E 288 81 29 00
        E 192 91 29 4d
        E 0 91 24 66
        E 0 91 2a 40
        E 96 81 2a 00
        E 192 81 24 00
        E 0 91 2a 35
        E 96 81 2a 00
        E 576 91 25 4f
        E 0 91 2a 43
        E 96 81 2a 00
        E 96 81 25 00
        E 96 91 2a 35
        E 96 81 2a 00
        E 384 81 29 00
        E 192 91 3d 4d
        E 0 91 41 4d
        E 0 91 38 4d
        E 0 91 3b 4d
        E 0 91 3f 4d
        E 0 91 25 55
        E 0 91 24 66
        E 0 91 2a 43
        E 96 81 2a 00
        E 192 81 24 00
        E 0 91 2a 35
        E 96 81 2a 00
        E 576 91 25 50
        E 0 91 2a 43
        E 96 81 2a 00
        E 96 81 25 00
        E 288 81 3d 00
        E 0 81 41 00
        E 0 81 38 00
        E 0 81 3b 00
        E 0 81 3f 00
        E 288 81 25 00
        E 192 91 3d 53
        E 0 91 41 53
        E 0 91 38 53
        E 0 91 3b 53
        E 0 91 3f 53
        E 0 91 25 49
        E 0 91 24 66
        E 0 91 2a 41
        E 96 81 2a 00
        E 192 81 24 00
        E 0 91 2a 35
        E 96 81 2a 00
        E 576 91 25 4f
        E 0 91 2a 43
        E 96 81 2a 00
        E 96 81 25 00
        E 96 91 2a 35
        E 96 81 2a 00
        E 96 81 3d 00
        E 0 81 41 00
        E 0 81 38 00
        E 0 81 3b 00
        E 0 81 3f 00
        E 288 81 25 00
        E 192 91 3d 49
        E 0 91 41 49
        E 0 91 38 49
        E 0 91 3b 49
        E 0 91 3f 49
        E 0 91 25 55
        E 0 91 24 64
        E 0 91 2a 43
        E 96 81 2a 00
        E 192 81 24 00
        E 0 91 2a 35
        E 96 81 2a 00
        E 576 91 25 4f
        E 0 91 2a 43
        E 96 81 2a 00
        E 96 81 25 00
        E 96 91 2a 35
        E 96 81 2a 00
        E 96 81 3d 00
        E 0 81 41 00
        E 0 81 38 00
        E 0 81 3b 00
        E 0 81 3f 00
        E 288 81 25 00
        E 192 91 3d 4a
        E 0 91 41 4a
        E 0 91 38 4a
        E 0 91 3b 4a
        E 0 91 3f 4a
        E 0 91 25 4d
        E 0 91 24 66
        E 0 91 2a 44
        E 96 81 2a 00
        E 192 81 24 00
        E 672 91 25 4f
        E 0 91 2a 43
        E 96 81 2a 00
        E 96 81 25 00
        E 96 91 2a 35
        E 96 81 2a 00
        E 96 81 3d 00
        E 0 81 41 00
        E 0 81 38 00
        E 0 81 3b 00
        E 0 81 3f 00
        E 288 81 25 00
        E 192 91 3a 47
        E 0 91 3d 47
        E 0 91 41 47
        E 0 91 38 47
        E 0 91 3c 47
        E 0 91 2e 5b
        E 0 91 24 66
        E 0 91 2a 43
        E 96 81 2a 00
        E 192 81 24 00
        E 0 91 2a 35
        E 96 81 2a 00
        E 576 91 25 4a
        E 0 91 2a 41
        E 96 81 2a 00
        E 96 81 25 00
        E 96 91 2a 35
        E 96 81 2a 00
        E 96 81 3a 00
        E 0 81 3d 00
        E 0 81 41 00
        E 0 81 38 00
        E 0 81 3c 00
        E 288 81 2e 00
        E 192 91 29 49
        E 0 91 24 66
        E 0 91 2a 43
        E 96 81 2a 00
        E 192 81 24 00
        E 0 91 2a 35
        E 96 81 2a 00
        E 576 91 25 4c
        E 192 81 25 00
        E 96 91 2a 35
        E 96 81 2a 00
        E 384 81 29 00
        E 192 91 3a 4a
        E 0 91 3d 4a
        E 0 91 41 4a
        E 0 91 38 4a
        E 0 91 3c 4a
        E 0 91 2e 5c
        E 0 91 24 66
        E 0 91 2a 44
        E 96 81 2a 00
        E 192 81 24 00
        E 0 91 2a 35
        E 96 81 2a 00
        E 576 91 25 49
        E 0 91 2a 40
        E 96 81 2a 00
        E 96 81 25 00
        E 96 91 2a 35
        E 96 81 2a 00
        E 96 81 3a 00
        E 0 81 3d 00
        E 0 81 41 00
        E 0 81 38 00
        E 0 81 3c 00
        E 288 81 2e 00
        E 192 91 3a 47
        E 0 91 3d 47
        E 0 91 41 47
        E 0 91 38 47
        E 0 91 3c 47
        E 0 91 29 4a
        E 0 91 24 66
        E 0 91 2a 46
        E 96 81 2a 00
        E 192 81 24 00
        E 672 91 25 4d
        E 192 81 25 00
        E 96 91 2a 35
        E 96 81 2a 00
        E 96 81 3a 00
        E 0 81 3d 00
        E 0 81 41 00
        E 0 81 38 00
        E 0 81 3c 00
        E 288 81 29 00
        E 192 91 3f 52
        E 0 91 37 52
        E 0 91 3a 52
        E 0 91 3d 52
        E 0 91 41 52
        E 0 91 27 5b
        E 0 91 24 66
        E 0 91 2a 41
        E 96 81 2a 00
        E 192 81 24 00
        E 0 91 2a 35
        E 96 81 2a 00
        E 576 91 25 56
        E 0 91 2a 43
        E 96 81 2a 00
        E 96 81 25 00
        E 96 91 2a 35
        E 96 81 2a 00
        E 96 81 3f 00
        E 0 81 37 00
        E 0 81 3a 00
        E 0 81 3d 00
        E 0 81 41 00
        E 288 81 27 00
        E 192 91 3f 49
        E 0 91 37 49
        E 0 91 3a 49
        E 0 91 3d 49
        E 0 91 41 49
        E 0 91 24 49
        E 0 91 24 64
        E 0 91 2a 41
        E 96 81 2a 00
        E 192 81 24 00
        E 0 91 2a 35
        E 96 81 2a 00
        E 576 91 25 4a
        E 0 91 2a 43
        E 96 81 2a 00
        E 96 81 25 00
        E 96 91 2a 35
        E 96 81 2a 00
        E 96 81 3f 00
        E 0 81 37 00
        E 0 81 3a 00
        E 0 81 3d 00
        E 0 81 41 00
        E 288 81 24 00
        E 192 91 3f 4f
        E 0 91 37 4f
        E 0 91 3a 4f
        E 0 91 3d 4f
        E 0 91 41 4f
        E 0 91 27 5b
        E 0 91 24 66
        E 0 91 2a 44
        E 96 81 2a 00
        E 192 81 24 00
        E 0 91 2a 35
        E 96 81 2a 00
        E 576 91 25 4d
        E 0 91 2a 44
        E 96 81 2a 00
        E 96 81 25 00
        E 96 91 2a 35
        E 96 81 2a 00
        E 96 81 3f 00
        E 0 81 37 00
        E 0 81 3a 00
        E 0 81 3d 00
        E 0 81 41 00
        E 288 81 27 00
        E 192 91 24 46
        E 0 91 24 64
        E 0 91 2a 3e
        E 96 81 2a 00
        E 192 81 24 00
        E 0 91 2a 35
        E 96 81 2a 00
        E 576 91 25 4f
        E 192 81 25 00
        E 576 81 24 00
        E 0 b1 7b 00
        E 1 ff 2f 00
      >
    >
  >
  <TRACK
    NAME "Drums"
    PEAKCOL 4290722362
    VOLPAN 1.000000 0 1 -1
    MIDIOUT -1
    ISBUS 0 0
    <ITEM
      POSITION 0.000000
      LENGTH 71.287525
      NAME "Drums"
      VOLPAN 1 0 1 -1
      <SOURCE MIDI
        HASDATA 1 960 QN
        E 0 c9 00 00
        E 0 99 41 70
        E 0 99 2a 4f
        E 144 89 2a 00
        E 816 99 26 7d
        E 0 99 27 7a
        E 288 89 26 00
        E 0 89 27 00
        E 192 99 2a 4f
        E 96 89 2a 00
        E 144 99 26 4f
        E 77 89 26 00
        E 153 89 41 00
        E 10 99 41 6f
        E 0 99 2a 53
        E 144 89 2a 00
        E 96 99 26 4f
        E 58 89 26 00
        E 2 99 26 4f
        E 58 89 26 00
        E 122 99 2a 4f
        E 96 89 2a 00
        E 384 99 26 7d
        E 0 99 27 75
        E 288 89 26 00
        E 0 89 27 00
        E 192 89 41 00
        E 240 99 26 4f
        E 58 89 26 00
        E 2 99 26 4f
        E 58 89 26 00
        E 122 99 24 7d
        E 0 99 2a 4f
        E 19 99 41 4f
        E 125 89 2a 00
        E 144 89 24 00
        E 432 99 26 4f
        E 77 89 26 00
        E 163 99 26 7d
        E 0 99 27 77
        E 288 89 26 00
        E 0 89 27 00
        E 662 89 41 00
        E 10 99 24 7b
        E 0 99 2a 4f
        E 19 99 41 4f
        E 125 89 2a 00
        E 96 99 26 4f
        E 48 89 24 00
        E 29 89 26 00
        E 643 99 26 7d
        E 0 99 27 77
        E 288 89 26 00
        E 0 89 27 00
        E 192 89 41 00
        E 480 99 24 7d
        E 0 99 2a 4f
        E 19 99 3d 4f
        E 125 89 2a 00
        E 144 89 24 00
        E 672 99 26 7d
        E 0 99 27 77
        E 288 89 26 00
        E 0 89 27 00
        E 662 89 3d 00
        E 10 99 24 7d
        E 0 99 2a 4f
        E 19 99 3d 4f
        E 125 89 2a 00
        E 144 89 24 00
        E 192 99 2a 4f
        E 96 89 2a 00
        E 144 99 26 4f
        E 77 89 26 00
        E 163 99 26 7d
        E 0 99 27 77
        E 288 89 26 00
        E 0 89 27 00
        E 192 89 3d 00
        E 480 99 24 7d
        E 0 99 2a 4f
        E 19 99 3d 4f
        E 125 89 2a 00
        E 144 89 24 00
        E 192 99 2a 4f
        E 96 89 2a 00
        E 144 99 26 4f
        E 77 89 26 00
        E 163 99 26 7d
        E 0 99 27 75
        E 288 89 26 00
        E 0 89 27 00
        E 662 89 3d 00
        E 10 99 24 7d
        E 0 99 2a 4f
        E 19 99 3d 4f
        E 125 89 2a 00
        E 144 89 24 00
        E 432 99 26 4f
        E 77 89 26 00
        E 163 99 26 7d
        E 0 99 27 77
        E 288 89 26 00
        E 0 89 27 00
        E 192 89 3d 00
        E 0 99 2a 4f
        E 96 89 2a 00
        E 384 99 24 7d
        E 0 99 2a 4f
        E 19 99 38 4f
        E 125 89 2a 00
        E 144 89 24 00
        E 672 99 26 7d
        E 0 99 27 7a
        E 288 89 26 00
        E 0 89 27 00
        E 192 99 2a 4f
        E 96 89 2a 00
        E 374 89 38 00
        E 10 99 24 7d
        E 0 99 2a 4f
        E 19 99 38 4f
        E 125 89 2a 00
        E 96 99 26 4f
        E 48 89 24 00
        E 29 89 26 00
        E 643 99 26 7d
        E 0 99 27 7a
        E 288 89 26 00
        E 0 89 27 00
        E 192 89 38 00
        E 480 99 24 7d
        E 0 99 2a 4f
        E 19 99 38 4f
        E 125 89 2a 00
        E 144 89 24 00
        E 672 99 26 7d
        E 0 99 27 75
        E 288 89 26 00
        E 0 89 27 00
        E 662 89 38 00
        E 10 99 24 7d
        E 0 99 2a 4f
        E 19 99 38 4f
        E 125 89 2a 00
        E 96 99 26 4f
        E 48 89 24 00
        E 29 89 26 00
        E 643 99 26 7d
        E 0 99 27 77
        E 288 89 26 00
        E 0 89 27 00
        E 192 89 38 00
        E 0 99 2a 4f
        E 96 89 2a 00
        E 384 99 24 7d
        E 0 99 2a 4f
        E 19 99 3f 4f
        E 125 89 2a 00
        E 144 89 24 00
        E 432 99 26 4f
        E 77 89 26 00
        E 163 99 26 7d
        E 0 99 27 77
        E 288 89 26 00
        E 0 89 27 00
        E 192 99 2a 4f
        E 96 89 2a 00
        E 144 99 26 4f
        E 77 89 26 00
        E 153 89 3f 00
        E 10 99 24 7d
        E 0 99 2a 4f
        E 19 99 3f 4f
        E 125 89 2a 00
        E 144 89 24 00
        E 672 99 26 7d
        E 0 99 27 77
        E 288 89 26 00
        E 0 89 27 00
        E 192 89 3f 00
        E 240 99 26 4f
        E 77 89 26 00
        E 163 99 24 7d
        E 0 99 2a 4f
        E 19 99 3f 4f
        E 125 89 2a 00
        E 144 89 24 00
        E 192 99 2a 4f
        E 96 89 2a 00
        E 144 99 26 4f
        E 58 89 26 00
        E 2 99 26 4f
        E 58 89 26 00
        E 2 99 26 4f
        E 58 89 26 00
        E 62 99 26 7d
        E 0 99 27 79
        E 288 89 26 00
        E 0 89 27 00
        E 662 89 3f 00
        E 10 99 24 7c
        E 0 99 2a 4f
        E 19 99 3f 4f
        E 125 89 2a 00
        E 96 99 26 4f
        E 48 89 24 00
        E 10 89 26 00
        E 2 99 26 4f
        E 58 89 26 00
        E 2 99 26 4f
        E 58 89 26 00
        E 62 99 2a 4f
        E 96 89 2a 00
        E 384 99 26 7d
        E 0 99 27 7a
        E 288 89 26 00
        E 0 89 27 00
        E 192 89 3f 00
        E 0 99 2a 4f
        E 96 89 2a 00
        E 144 99 26 4f
        E 58 89 26 00
        E 2 99 26 4f
        E 58 89 26 00
        E 122 99 24 7d
        E 0 99 2a 4f
        E 19 99 41 4f
        E 125 89 2a 00
        E 144 89 24 00
        E 192 99 2a 4f
        E 96 89 2a 00
        E 384 99 26 7d
        E 0 99 27 75
        E 288 89 26 00
        E 0 89 27 00
        E 192 99 2a 4f
        E 96 89 2a 00
        E 374 89 41 00
        E 10 99 24 7b
        E 0 99 2a 4f
        E 19 99 41 4f
        E 125 89 2a 00
        E 144 89 24 00
        E 672 99 26 7d
        E 0 99 27 75
        E 288 89 26 00
        E 0 89 27 00
        E 192 89 41 00
        E 480 99 24 7d
        E 0 99 2a 4f
        E 19 99 41 4f
        E 125 89 2a 00
        E 144 89 24 00
        E 432 99 26 4f
        E 77 89 26 00
        E 163 99 26 7d
        E 0 99 27 77
        E 288 89 26 00
        E 0 89 27 00
        E 662 89 41 00
        E 10 99 24 7d
        E 0 99 2a 4f
        E 19 99 41 4f
        E 125 89 2a 00
        E 144 89 24 00
        E 432 99 26 4f
        E 77 89 26 00
        E 163 99 26 7d
        E 0 99 27 75
        E 288 89 26 00
        E 0 89 27 00
        E 192 89 41 00
        E 480 99 24 7d
        E 0 99 2a 4f
        E 19 99 3d 4f
        E 125 89 2a 00
        E 144 89 24 00
        E 192 99 2a 4f
        E 96 89 2a 00
        E 384 99 26 7d
        E 0 99 27 77
        E 288 89 26 00
        E 0 89 27 00
        E 192 99 2a 4f
        E 96 89 2a 00
        E 374 89 3d 00
        E 10 99 24 7d
        E 0 99 2a 4f
        E 19 99 3d 4f
        E 125 89 2a 00
        E 96 99 26 4f
        E 48 89 24 00
        E 10 89 26 00
        E 2 99 26 4f
        E 58 89 26 00
        E 362 99 26 4f
        E 58 89 26 00
        E 2 99 26 4f
        E 58 89 26 00
        E 2 99 26 4f
        E 58 89 26 00
        E 62 99 26 7d
        E 0 99 27 79
        E 288 89 26 00
        E 0 89 27 00
        E 192 89 3d 00
        E 480 99 24 7d
        E 0 99 2a 4f
        E 19 99 3d 4f
        E 125 89 2a 00
        E 144 89 24 00
        E 672 99 26 7d
        E 0 99 27 7b
        E 288 89 26 00
        E 0 89 27 00
        E 192 99 2a 4f
        E 96 89 2a 00
        E 374 89 3d 00
        E 10 99 24 7d
        E 0 99 2a 4f
        E 19 99 3d 4f
        E 125 89 2a 00
        E 144 89 24 00
        E 672 99 26 7d
        E 0 99 27 77
        E 288 89 26 00
        E 0 89 27 00
        E 192 89 3d 00
        E 0 99 2a 4f
        E 96 89 2a 00
        E 384 99 24 7d
        E 0 99 2a 4f
        E 19 99 38 4f
        E 125 89 2a 00
        E 144 89 24 00
        E 192 99 2a 4f
        E 96 89 2a 00
        E 384 99 26 7d
        E 0 99 27 75
        E 288 89 26 00
        E 0 89 27 00
        E 662 89 38 00
        E 10 99 24 7d
        E 0 99 2a 4f
        E 19 99 38 4f
        E 125 89 2a 00
        E 96 99 26 4f
        E 48 89 24 00
        E 29 89 26 00
        E 403 99 26 4f
        E 77 89 26 00
        E 163 99 26 7d
        E 0 99 27 77
        E 288 89 26 00
        E 0 89 27 00
        E 192 89 38 00
        E 480 99 24 7d
        E 0 99 2a 4f
        E 19 99 38 4f
        E 125 89 2a 00
        E 144 89 24 00
        E 672 99 26 7d
        E 0 99 27 7a
        E 288 89 26 00
        E 0 89 27 00
        E 662 89 38 00
        E 10 99 24 7d
        E 0 99 2a 4f
        E 19 99 38 4f
        E 125 89 2a 00
        E 144 89 24 00
        E 192 99 2a 4f
        E 96 89 2a 00
        E 384 99 26 7d
        E 0 99 27 75
        E 288 89 26 00
        E 0 89 27 00
        E 192 89 38 00
        E 480 99 24 7d
        E 0 99 2a 4f
        E 19 99 3f 4f
        E 125 89 2a 00
        E 144 89 24 00
        E 192 99 2a 4f
        E 96 89 2a 00
        E 144 99 26 4f
        E 77 89 26 00
        E 163 99 26 7d
        E 0 99 27 79
        E 288 89 26 00
        E 0 89 27 00
        E 432 99 26 4f
        E 58 89 26 00
        E 2 99 26 4f
        E 58 89 26 00
        E 112 89 3f 00
        E 10 99 24 7d
        E 0 99 2a 4f
        E 19 99 3f 4f
        E 125 89 2a 00
        E 144 89 24 00
        E 672 99 26 7d
        E 0 99 27 77
        E 288 89 26 00
        E 0 89 27 00
        E 192 89 3f 00
        E 480 99 24 7d
        E 0 99 2a 4f
        E 19 99 3f 4f
        E 125 89 2a 00
        E 144 89 24 00
        E 672 99 26 7d
        E 0 99 27 7b
        E 288 89 26 00
        E 0 89 27 00
        E 662 89 3f 00
        E 10 99 24 7d
        E 0 99 2a 4f
        E 19 99 3f 4f
        E 125 89 2a 00
        E 96 99 26 4f
        E 48 89 24 00
        E 29 89 26 00
        E 643 99 26 7d
        E 0 99 27 75
        E 288 89 26 00
        E 0 89 27 00
        E 192 89 3f 00
        E 480 99 24 7d
        E 0 99 2a 4f
        E 19 99 41 4f
        E 125 89 2a 00
        E 144 89 24 00
        E 672 99 26 7d
        E 0 99 27 79
        E 288 89 26 00
        E 0 89 27 00
        E 662 89 41 00
        E 10 99 24 7c
        E 0 99 2a 4f
        E 19 99 41 4f
        E 125 89 2a 00
        E 96 99 26 4f
        E 48 89 24 00
        E 29 89 26 00
        E 403 99 26 4f
        E 58 89 26 00
        E 2 99 26 4f
        E 58 89 26 00
        E 2 99 26 4f
        E 58 89 26 00
        E 62 99 26 7d
        E 0 99 27 75
        E 288 89 26 00
        E 0 89 27 00
        E 192 89 41 00
        E 480 99 24 7d
        E 0 99 2a 4f
        E 19 99 41 4f
        E 125 89 2a 00
        E 144 89 24 00
        E 672 99 26 7d
        E 0 99 27 7a
        E 288 89 26 00
        E 0 89 27 00
        E 192 99 2a 4f
        E 96 89 2a 00
        E 374 89 41 00
        E 10 99 24 7d
        E 0 99 2a 4f
        E 19 99 41 4f
        E 125 89 2a 00
        E 144 89 24 00
        E 432 99 26 4f
        E 58 89 26 00
        E 2 99 26 4f
        E 58 89 26 00
        E 122 99 26 7d
        E 0 99 27 75
        E 288 89 26 00
        E 0 89 27 00
        E 192 89 41 00
        E 0 99 2a 4f
        E 96 89 2a 00
        E 144 99 26 4f
        E 77 89 26 00
        E 163 99 24 7d
        E 0 99 2a 4f
        E 19 99 3d 4f
        E 125 89 2a 00
        E 144 89 24 00
        E 672 99 26 7d
        E 0 99 27 77
        E 288 89 26 00
        E 0 89 27 00
        E 192 99 2a 4f
        E 96 89 2a 00
        E 144 99 26 4f
        E 58 89 26 00
        E 2 99 26 4f
        E 58 89 26 00
        E 112 89 3d 00
        E 10 99 24 7d
        E 0 99 2a 4f
        E 19 99 3d 4f
        E 125 89 2a 00
        E 96 99 26 4f
        E 48 89 24 00
        E 29 89 26 00
        E 643 99 26 7d
        E 0 99 27 7a
        E 288 89 26 00
        E 0 89 27 00
        E 192 89 3d 00
        E 0 99 2a 4f
        E 96 89 2a 00
        E 144 99 26 4f
        E 77 89 26 00
        E 163 99 24 7d
        E 0 99 2a 4f
        E 19 99 3d 4f
        E 125 89 2a 00
        E 144 89 24 00
        E 192 99 2a 4f
        E 96 89 2a 00
        E 384 99 26 7d
        E 0 99 27 77
        E 288 89 26 00
        E 0 89 27 00
        E 192 99 2a 4f
        E 96 89 2a 00
        E 374 89 3d 00
        E 10 99 24 7d
        E 0 99 2a 4f
        E 19 99 3d 4f
        E 125 89 2a 00
        E 144 89 24 00
        E 432 99 26 4f
        E 77 89 26 00
        E 163 99 26 7d
        E 0 99 27 7b
        E 288 89 26 00
        E 0 89 27 00
        E 192 89 3d 00
        E 480 99 24 7d
        E 0 99 2a 4f
        E 19 99 3a 4f
        E 125 89 2a 00
        E 144 89 24 00
        E 192 99 2a 4f
        E 96 89 2a 00
        E 384 99 26 7d
        E 0 99 27 79
        E 288 89 26 00
        E 0 89 27 00
        E 662 89 3a 00
        E 10 99 24 7b
        E 0 99 2a 4f
        E 19 99 3a 4f
        E 125 89 2a 00
        E 144 89 24 00
        E 672 99 26 7d
        E 0 99 27 77
        E 288 89 26 00
        E 0 89 27 00
        E 192 89 3a 00
        E 0 99 2a 4f
        E 96 89 2a 00
        E 144 99 26 4f
        E 77 89 26 00
        E 163 99 24 7d
        E 0 99 2a 4f
        E 19 99 3a 4f
        E 125 89 2a 00
        E 144 89 24 00
        E 672 99 26 7d
        E 0 99 27 7b
        E 288 89 26 00
        E 0 89 27 00
        E 192 99 2a 4f
        E 96 89 2a 00
        E 144 99 26 4f
        E 77 89 26 00
        E 153 89 3a 00
        E 10 99 24 7c
        E 0 99 2a 4f
        E 19 99 3a 4f
        E 125 89 2a 00
        E 96 99 26 4f
        E 48 89 24 00
        E 29 89 26 00
        E 403 99 26 4f
        E 77 89 26 00
        E 163 99 26 7d
        E 0 99 27 7a
        E 288 89 26 00
        E 0 89 27 00
        E 192 89 3a 00
        E 480 99 24 7d
        E 0 99 2a 4f
        E 19 99 3f 4f
        E 125 89 2a 00
        E 144 89 24 00
        E 192 99 2a 4f
        E 96 89 2a 00
        E 144 99 26 4f
        E 77 89 26 00
        E 163 99 26 7d
        E 0 99 27 75
        E 288 89 26 00
        E 0 89 27 00
        E 192 99 2a 4f
        E 96 89 2a 00
        E 144 99 26 4f
        E 77 89 26 00
        E 153 89 3f 00
        E 10 99 24 7d
        E 0 99 2a 4f
        E 19 99 3f 4f
        E 125 89 2a 00
        E 144 89 24 00
        E 432 99 26 4f
        E 77 89 26 00
        E 163 99 26 7d
        E 0 99 27 77
        E 288 89 26 00
        E 0 89 27 00
        E 192 89 3f 00
        E 480 99 24 7d
        E 0 99 2a 4f
        E 19 99 3f 4f
        E 125 89 2a 00
        E 144 89 24 00
        E 192 99 2a 4f
        E 96 89 2a 00
        E 144 99 26 4f
        E 77 89 26 00
        E 163 99 26 7d
        E 0 99 27 77
        E 288 89 26 00
        E 0 89 27 00
        E 432 99 26 4f
        E 58 89 26 00
        E 2 99 26 4f
        E 58 89 26 00
        E 112 89 3f 00
        E 10 99 3f 66
        E 240 89 3f 00
        E 80 99 3f 67
        E 240 89 3f 00
        E 80 99 3f 64
        E 240 89 3f 00
        E 0 b9 7b 00
        E 1 ff 2f 00
      >
    >
  >
  <TRACK
    NAME "808"
    PEAKCOL 4284506208
    VOLPAN 1.000000 0 1 -1
    MIDIOUT -1
    ISBUS 0 0
    <ITEM
      POSITION 0.000000
      LENGTH 71.537500
      NAME "808"
      VOLPAN 1 0 1 -1
      <SOURCE MIDI
        HASDATA 1 960 QN
        E 0 c2 26 00
        E 0 92 1d 73
        E 1910 82 1d 00
        E 10 92 1d 73
        E 710 82 1d 00
        E 10 92 1d 44
        E 480 82 1d 00
        E 720 92 1d 73
        E 1680 82 1d 00
        E 0 92 1d 6d
        E 50 82 1d 00
        E 10 92 1e 6d
        E 50 82 1e 00
        E 10 92 20 6d
        E 50 82 20 00
        E 10 92 24 6d
        E 50 82 24 00
        E 10 92 24 73
        E 480 82 24 00
        E 0 92 24 6d
        E 50 82 24 00
        E 10 92 23 6d
        E 50 82 23 00
        E 10 92 21 6d
        E 50 82 21 00
        E 10 92 1d 6d
        E 50 82 1d 00
        E 10 92 1d 44
        E 480 82 1d 00
        E 720 92 19 73
        E 1680 82 19 00
        E 0 92 19 6d
        E 50 82 19 00
        E 10 92 1a 6d
        E 50 82 1a 00
        E 10 92 1c 6d
        E 50 82 1c 00
        E 10 92 20 6d
        E 50 82 20 00
        E 10 92 20 79
        E 480 82 20 00
        E 0 92 20 77
        E 50 82 20 00
        E 10 92 1f 77
        E 50 82 1f 00
        E 10 92 1d 77
        E 50 82 1d 00
        E 10 92 19 77
        E 50 82 19 00
        E 10 92 19 44
        E 480 82 19 00
        E 720 92 19 73
        E 1910 82 19 00
        E 10 92 19 73
        E 710 82 19 00
        E 10 92 19 44
        E 480 82 19 00
        E 720 92 20 73
        E 1680 82 20 00
        E 0 92 20 6d
        E 50 82 20 00
        E 10 92 1f 6d
        E 50 82 1f 00
        E 10 92 1e 6d
        E 50 82 1e 00
        E 10 92 1b 79
        E 50 82 1b 00
        E 10 92 1b 79
        E 480 82 1b 00
        E 0 92 1b 77
        E 50 82 1b 00
        E 10 92 1c 77
        E 50 82 1c 00
        E 10 92 1d 77
        E 50 82 1d 00
        E 10 92 20 77
        E 50 82 20 00
        E 10 92 20 44
        E 480 82 20 00
        E 720 92 20 73
        E 1910 82 20 00
        E 10 92 20 73
        E 710 82 20 00
        E 10 92 20 44
        E 480 82 20 00
        E 720 92 1b 79
        E 1910 82 1b 00
        E 10 92 1b 73
        E 710 82 1b 00
        E 10 92 1b 44
        E 480 82 1b 00
        E 720 92 1b 73
        E 1680 82 1b 00
        E 0 92 1b 6d
        E 50 82 1b 00
        E 10 92 1c 6d
        E 50 82 1c 00
        E 10 92 1e 6d
        E 50 82 1e 00
        E 10 92 22 6d
        E 50 82 22 00
        E 10 92 22 73
        E 480 82 22 00
        E 0 92 22 6d
        E 50 82 22 00
        E 10 92 21 6d
        E 50 82 21 00
        E 10 92 1f 6d
        E 50 82 1f 00
        E 10 92 1b 6d
        E 50 82 1b 00
        E 10 92 1b 44
        E 720 82 1b 00
        E 480 92 1d 79
        E 1910 82 1d 00
        E 10 92 1d 79
        E 710 82 1d 00
        E 10 92 1d 44
        E 480 82 1d 00
        E 720 92 1d 79
        E 1910 82 1d 00
        E 10 92 1d 73
        E 710 82 1d 00
        E 10 92 1d 44
        E 480 82 1d 00
        E 720 92 19 79
        E 1680 82 19 00
        E 0 92 19 77
        E 50 82 19 00
        E 10 92 1a 77
        E 50 82 1a 00
        E 10 92 1c 77
        E 50 82 1c 00
        E 10 92 20 77
        E 50 82 20 00
        E 10 92 20 73
        E 480 82 20 00
        E 0 92 20 6d
        E 50 82 20 00
        E 10 92 1f 6d
        E 50 82 1f 00
        E 10 92 1d 6d
        E 50 82 1d 00
        E 10 92 19 6d
        E 50 82 19 00
        E 10 92 19 44
        E 480 82 19 00
        E 720 92 19 79
        E 1910 82 19 00
        E 10 92 19 73
        E 710 82 19 00
        E 10 92 19 44
        E 480 82 19 00
        E 720 92 20 73
        E 1910 82 20 00
        E 10 92 20 73
        E 710 82 20 00
        E 10 92 20 44
        E 480 82 20 00
        E 720 92 1b 73
        E 1680 82 1b 00
        E 0 92 1b 6d
        E 50 82 1b 00
        E 10 92 1c 6d
        E 50 82 1c 00
        E 10 92 1d 6d
        E 50 82 1d 00
        E 10 92 20 6d
        E 50 82 20 00
        E 10 92 20 73
        E 710 82 20 00
        E 10 92 20 44
        E 480 82 20 00
        E 720 92 1b 73
        E 1910 82 1b 00
        E 10 92 1b 73
        E 710 82 1b 00
        E 10 92 1b 44
        E 480 82 1b 00
        E 720 92 1b 73
        E 1910 82 1b 00
        E 10 92 1b 73
        E 710 82 1b 00
        E 10 92 1b 44
        E 480 82 1b 00
        E 720 92 1d 79
        E 1910 82 1d 00
        E 10 92 1d 79
        E 710 82 1d 00
        E 10 92 1d 44
        E 480 82 1d 00
        E 720 92 24 73
        E 1680 82 24 00
        E 0 92 24 6d
        E 50 82 24 00
        E 10 92 23 6d
        E 50 82 23 00
        E 10 92 21 6d
        E 50 82 21 00
        E 10 92 1d 6d
        E 50 82 1d 00
        E 10 92 1d 73
        E 710 82 1d 00
        E 10 92 1d 44
        E 480 82 1d 00
        E 720 92 20 79
        E 1680 82 20 00
        E 0 92 20 77
        E 50 82 20 00
        E 10 92 1f 77
        E 50 82 1f 00
        E 10 92 1d 77
        E 50 82 1d 00
        E 10 92 19 77
        E 50 82 19 00
        E 10 92 19 73
        E 710 82 19 00
        E 10 92 19 44
        E 480 82 19 00
        E 720 92 19 79
        E 1910 82 19 00
        E 10 92 19 73
        E 710 82 19 00
        E 10 92 19 44
        E 480 82 19 00
        E 720 92 22 73
        E 1910 82 22 00
        E 10 92 22 73
        E 710 82 22 00
        E 10 92 22 44
        E 480 82 22 00
        E 720 92 22 73
        E 1910 82 22 00
        E 10 92 22 73
        E 710 82 22 00
        E 10 92 22 44
        E 480 82 22 00
        E 720 92 1b 73
        E 1910 82 1b 00
        E 10 92 1b 73
        E 710 82 1b 00
        E 10 92 1b 44
        E 480 82 1b 00
        E 720 92 22 73
        E 1680 82 22 00
        E 0 92 22 6d
        E 50 82 22 00
        E 10 92 21 6d
        E 50 82 21 00
        E 10 92 1f 6d
        E 50 82 1f 00
        E 10 92 1b 6d
        E 50 82 1b 00
        E 10 92 1b 73
        E 710 82 1b 00
        E 10 92 1b 44
        E 480 82 1b 00
        E 0 b2 7b 00
        E 1 ff 2f 00
      >
    >
  >
  <TRACK
    NAME "DarkPad"
    PEAKCOL 4284506208
    VOLPAN 1.000000 0 1 -1
    MIDIOUT -1
    ISBUS 0 0
    <ITEM
      POSITION 0.020903
      LENGTH 72.079097
      NAME "DarkPad"
      VOLPAN 1 0 1 -1
      <SOURCE MIDI
        HASDATA 1 960 QN
        E 0 c3 5f 00
        E 27 93 2b 27
        E 2 93 30 27
        E 6989 83 30 00
        E 689 93 31 27
        E 4 93 2c 27
        E 10 93 3b 27
        E 3 93 2f 27
        E 2287 83 2b 00
        E 4685 83 31 00
        E 14 83 3b 00
        E 647 93 24 2d
        E 20 93 27 27
        E 9 93 30 27
        E 4 93 2b 27
        E 14 93 2e 2d
        E 2 93 3a 27
        E 13 93 37 27
        E 2276 83 2c 00
        E 13 83 2f 00
        E 4667 83 30 00
        E 20 83 3a 00
        E 13 83 37 00
        E 632 93 27 27
        E 16 93 2a 2a
        E 13 93 33 27
        E 1 93 2e 27
        E 12 93 31 27
        E 29 93 44 27
        E 2230 83 24 00
        E 20 83 27 00
        E 13 83 2b 00
        E 14 83 2e 00
        E 4670 83 33 00
        E 42 83 44 00
        E 617 93 24 27
        E 16 93 27 2f
        E 13 93 30 27
        E 5 93 2b 27
        E 11 93 2e 29
        E 29 93 41 27
        E 2233 83 27 00
        E 16 83 2a 00
        E 14 83 2e 00
        E 12 83 31 00
        E 4669 83 30 00
        E 45 83 41 00
        E 622 93 25 27
        E 10 93 28 27
        E 17 93 2c 2a
        E 12 93 3b 27
        E 1 93 2f 29
        E 16 93 38 27
        E 13 93 42 27
        E 2230 83 24 00
        E 16 83 27 00
        E 18 83 2b 00
        E 11 83 2e 00
        E 4684 83 3b 00
        E 17 83 38 00
        E 13 83 42 00
        E 622 93 24 27
        E 15 93 27 2a
        E 11 93 2b 27
        E 2 93 30 27
        E 14 93 2e 27
        E 2 93 3a 27
        E 2260 83 25 00
        E 10 83 28 00
        E 17 83 2c 00
        E 13 83 2f 00
        E 4673 83 30 00
        E 16 83 3a 00
        E 642 93 27 27
        E 20 93 2a 2d
        E 9 93 2e 2a
        E 0 93 33 27
        E 16 93 31 27
        E 4 93 3d 27
        E 9 93 3a 27
        E 16 93 44 27
        E 2235 83 24 00
        E 15 83 27 00
        E 11 83 2b 00
        E 16 83 2e 00
        E 4667 83 33 00
        E 20 83 3d 00
        E 9 83 3a 00
        E 16 83 44 00
        E 619 93 24 27
        E 13 93 27 27
        E 15 93 2b 27
        E 17 93 2e 27
        E 12 93 37 27
        E 17 93 41 27
        E 2228 83 27 00
        E 20 83 2a 00
        E 9 83 2e 00
        E 16 83 31 00
        E 4699 83 37 00
        E 17 83 41 00
        E 616 93 25 2a
        E 19 93 28 2f
        E 10 93 31 27
        E 2 93 2c 27
        E 12 93 2f 27
        E 29 93 42 27
        E 2233 83 24 00
        E 13 83 27 00
        E 15 83 2b 00
        E 17 83 2e 00
        E 4668 83 31 00
        E 43 83 42 00
        E 623 93 25 27
        E 11 93 28 27
        E 18 93 31 27
        E 1 93 2c 27
        E 10 93 3b 27
        E 4 93 2f 27
        E 29 93 42 27
        E 2227 83 25 00
        E 19 83 28 00
        E 12 83 2c 00
        E 12 83 2f 00
        E 4675 83 31 00
        E 11 83 3b 00
        E 33 83 42 00
        E 615 93 27 2a
        E 44 93 31 27
        E 0 93 3d 27
        E 2263 83 25 00
        E 11 83 28 00
        E 19 83 2c 00
        E 14 83 2f 00
        E 3059 83 3d 00
        E 2271 83 27 00
        E 0 83 31 00
        E 0 b3 7b 00
        E 1 ff 2f 00
      >
    >
  >
  <TRACK
    NAME "VocalChop"
    PEAKCOL 4284506208
    VOLPAN 1.000000 0 1 -1
    MIDIOUT -1
    ISBUS 0 0
    <ITEM
      POSITION 0.225000
      LENGTH 58.675000
      NAME "VocalChop"
      VOLPAN 1 0 1 -1
      <SOURCE MIDI
        HASDATA 1 960 QN
        E 0 c4 36 00
        E 288 94 41 50
        E 96 84 41 00
        E 624 94 44 50
        E 96 84 44 00
        E 432 94 48 2f
        E 96 84 48 00
        E 4128 94 4d 2f
        E 96 84 4d 00
        E 3552 94 50 50
        E 96 84 50 00
        E 3648 94 50 47
        E 96 84 50 00
        E 912 94 50 2f
        E 96 84 50 00
        E 0 94 50 2f
        E 96 84 50 00
        E 0 94 50 47
        E 96 84 50 00
        E 0 94 50 50
        E 96 84 50 00
        E 8016 94 4b 2f
        E 96 84 4b 00
        E 0 94 4b 2f
        E 96 84 4b 00
        E 0 94 4b 47
        E 96 84 4b 00
        E 0 94 4b 50
        E 96 84 4b 00
        E 3936 94 4b 2f
        E 96 84 4b 00
        E 0 94 4b 2f
        E 96 84 4b 00
        E 0 94 4b 47
        E 96 84 4b 00
        E 0 94 4b 50
        E 96 84 4b 00
        E 2256 94 4b 2f
        E 96 84 4b 00
        E 0 94 4b 2f
        E 96 84 4b 00
        E 0 94 4b 47
        E 96 84 4b 00
        E 0 94 4b 50
        E 96 84 4b 00
        E 2256 94 50 2f
        E 96 84 50 00
        E 0 94 50 2f
        E 96 84 50 00
        E 0 94 50 47
        E 96 84 50 00
        E 0 94 50 50
        E 96 84 50 00
        E 4656 94 4d 2f
        E 96 84 4d 00
        E 0 94 4d 2f
        E 96 84 4d 00
        E 0 94 4d 47
        E 96 84 4d 00
        E 0 94 4d 50
        E 96 84 4d 00
        E 3456 94 4d 2f
        E 96 84 4d 00
        E 0 94 4d 2f
        E 96 84 4d 00
        E 0 94 4d 47
        E 96 84 4d 00
        E 0 94 4d 50
        E 96 84 4d 00
        E 816 94 4d 2f
        E 96 84 4d 00
        E 0 94 4d 2f
        E 96 84 4d 00
        E 0 94 4d 47
        E 96 84 4d 00
        E 0 94 4d 50
        E 96 84 4d 00
        E 1536 94 49 2f
        E 96 84 49 00
        E 0 94 49 2f
        E 96 84 49 00
        E 0 94 49 47
        E 96 84 49 00
        E 0 94 49 50
        E 96 84 49 00
        E 336 94 49 2f
        E 96 84 49 00
        E 0 94 49 2f
        E 96 84 49 00
        E 0 94 49 47
        E 96 84 49 00
        E 0 94 49 50
        E 96 84 49 00
        E 2256 94 48 2f
        E 96 84 48 00
        E 0 94 48 2f
        E 96 84 48 00
        E 0 94 48 47
        E 96 84 48 00
        E 0 94 48 50
        E 96 84 48 00
        E 816 94 4b 2f
        E 96 84 4b 00
        E 0 94 4b 2f
        E 96 84 4b 00
        E 0 94 4b 47
        E 96 84 4b 00
        E 0 94 4b 50
        E 96 84 4b 00
        E 816 94 4b 2f
        E 96 84 4b 00
        E 0 94 4b 2f
        E 96 84 4b 00
        E 0 94 4b 47
        E 96 84 4b 00
        E 0 94 4b 50
        E 96 84 4b 00
        E 1536 94 4b 2f
        E 96 84 4b 00
        E 0 94 4b 2f
        E 96 84 4b 00
        E 0 94 4b 47
        E 96 84 4b 00
        E 0 94 4b 50
        E 96 84 4b 00
        E 2976 94 46 2f
        E 96 84 46 00
        E 0 94 46 2f
        E 96 84 46 00
        E 0 94 46 47
        E 96 84 46 00
        E 0 94 46 50
        E 96 84 46 00
        E 2016 94 43 2f
        E 96 84 43 00
        E 0 94 43 2f
        E 96 84 43 00
        E 0 94 43 47
        E 96 84 43 00
        E 0 94 43 50
        E 96 84 43 00
        E 336 94 46 2f
        E 96 84 46 00
        E 0 94 46 2f
        E 96 84 46 00
        E 0 94 46 47
        E 96 84 46 00
        E 0 94 46 50
        E 96 84 46 00
        E 336 94 46 2f
        E 96 84 46 00
        E 0 94 46 2f
        E 96 84 46 00
        E 0 94 46 47
        E 96 84 46 00
        E 0 94 46 50
        E 96 84 46 00
        E 96 94 46 2f
        E 96 84 46 00
        E 0 94 46 2f
        E 96 84 46 00
        E 0 94 46 47
        E 96 84 46 00
        E 0 94 46 50
        E 96 84 46 00
        E 2256 94 48 2f
        E 96 84 48 00
        E 0 94 48 2f
        E 96 84 48 00
        E 0 94 48 47
        E 96 84 48 00
        E 0 94 48 50
        E 96 84 48 00
        E 2256 94 44 2f
        E 96 84 44 00
        E 0 94 44 2f
        E 96 84 44 00
        E 0 94 44 47
        E 96 84 44 00
        E 0 94 44 50
        E 96 84 44 00
        E 4656 94 44 2f
        E 96 84 44 00
        E 0 94 44 2f
        E 96 84 44 00
        E 0 94 44 47
        E 96 84 44 00
        E 0 94 44 50
        E 96 84 44 00
        E 336 94 49 2f
        E 96 84 49 00
        E 0 94 49 2f
        E 96 84 49 00
        E 0 94 49 47
        E 96 84 49 00
        E 0 94 49 50
        E 96 84 49 00
        E 2016 94 49 2f
        E 96 84 49 00
        E 0 94 49 2f
        E 96 84 49 00
        E 0 94 49 47
        E 96 84 49 00
        E 0 94 49 50
        E 96 84 49 00
        E 1536 94 44 2f
        E 96 84 44 00
        E 0 94 44 2f
        E 96 84 44 00
        E 0 94 44 47
        E 96 84 44 00
        E 0 94 44 50
        E 96 84 44 00
        E 0 b4 7b 00
        E 1 ff 2f 00
      >
    >
  >
>
