<REAPER_PROJECT 0.1 "7.0" 1700000000
  TEMPO 140.000000 4 4
  SAMPLERATE 48000 0 0
  RENDER_FILE ""
  RENDER_FMT 0 2 0
  RENDER_1X 0
  RENDER_RANGE 1 0 39.792737 0 0
  RENDER_RESAMPLE 3 0 1
  <MASTERTRACK
    VOLPAN 1 0 1 -1
    DEFCHAN 0
  >
  <TRACK
    NAME "Lead"
    PEAKCOL 4284506208
    VOLPAN 1.000000 0 1 -1
    MIDIOUT -1
    ISBUS 0 0
    <ITEM
      POSITION 0.048183
      LENGTH 37.844554
      NAME "Lead"
      VOLPAN 1 0 1 -1
      <SOURCE MIDI
        HASDATA 1 960 QN
        E 0 c0 51 00
        E 108 90 4b 3c
        E 389 90 4d 3c
        E 240 80 4d 00
        E 150 90 4f 3c
        E 240 80 4f 00
        E 149 90 52 3c
        E 240 80 52 00
        E 150 90 54 50
        E 14 80 4b 00
        E 224 80 54 00
        E 877 90 50 3c
        E 476 80 50 00
        E 618 90 50 51
        E 1048 80 50 00
        E 61 90 52 3c
        E 559 90 50 3c
        E 240 80 50 00
        E 145 80 52 00
        E 174 90 4d 3e
        E 944 80 4d 00
        E 165 90 4f 41
        E 850 80 4f 00
        E 978 90 4d 41
        E 853 90 4d 41
        E 91 80 4d 00
        E 463 90 50 3c
        E 240 80 50 00
        E 150 80 4d 00
        E 165 90 54 43
        E 429 80 54 00
        E 936 90 50 3c
        E 524 80 50 00
        E 326 90 50 3c
        E 476 80 50 00
        E 631 90 50 48
        E 944 80 50 00
        E 516 90 4d 3c
        E 1012 90 4f 49
        E 286 90 52 3c
        E 240 80 52 00
        E 45 90 54 3c
        E 240 80 54 00
        E 45 90 57 5a
        E 88 80 4f 00
        E 140 80 4d 00
        E 248 80 57 00
        E 82 90 54 46
        E 552 90 55 3c
        E 240 80 55 00
        E 161 80 54 00
        E 151 90 59 3c
        E 1039 80 59 00
        E 83 90 57 42
        E 944 80 57 00
        E 149 90 59 3c
        E 944 80 59 00
        E 153 90 57 43
        E 429 80 57 00
        E 703 90 57 3c
        E 524 80 57 00
        E 558 90 54 49
        E 944 80 54 00
        E 165 90 55 4c
        E 944 80 55 00
        E 176 90 54 3c
        E 550 90 55 3c
        E 240 80 55 00
        E 249 80 54 00
        E 60 90 59 3c
        E 944 80 59 00
        E 305 90 57 4a
        E 238 80 57 00
        E 969 90 59 3c
        E 429 80 59 00
        E 1289 90 57 3f
        E 944 80 57 00
        E 153 90 57 3c
        E 375 90 54 3c
        E 240 80 54 00
        E 135 90 50 53
        E 194 80 57 00
        E 656 80 50 00
        E 375 90 50 3c
        E 1039 80 50 00
        E 197 90 4f 3f
        E 857 90 50 3c
        E 944 80 50 00
        E 104 80 4f 00
        E 566 90 4d 3c
        E 1039 80 4d 00
        E 52 90 4f 3c
        E 944 80 4f 00
        E 721 90 50 3c
        E 850 80 50 00
        E 244 90 4f 3e
        E 344 90 50 3c
        E 240 80 50 00
        E 104 90 54 45
        E 351 80 4f 00
        E 364 80 54 00
        E 264 90 50 45
        E 944 80 50 00
        E 170 90 50 3c
        E 850 80 50 00
        E 256 90 52 41
        E 238 80 52 00
        E 876 90 54 50
        E 944 80 54 00
        E 166 90 54 3c
        E 944 80 54 00
        E 282 90 55 46
        E 988 90 55 3c
        E 51 80 55 00
        E 893 80 55 00
        E 168 90 54 41
        E 944 80 54 00
        E 166 90 50 3c
        E 850 80 50 00
        E 247 90 52 3c
        E 944 80 52 00
        E 176 90 50 64
        E 944 80 50 00
        E 704 90 4d 3c
        E 850 80 4d 00
        E 273 90 4d 4a
        E 944 80 4d 00
        E 143 90 50 5f
        E 568 90 4f 3f
        E 376 80 50 00
        E 302 90 4b 42
        E 240 80 4b 00
        E 26 80 4f 00
        E 413 90 48 66
        E 143 90 49 3c
        E 143 90 4d 45
        E 97 80 49 00
        E 467 80 48 00
        E 475 80 4d 00
        E 87 90 4d 42
        E 134 90 4b 3c
        E 133 90 48 3c
        E 107 80 4b 00
        E 26 90 46 3c
        E 107 80 48 00
        E 27 90 43 3c
        E 106 80 46 00
        E 27 90 41 56
        E 48 80 4d 00
        E 59 80 43 00
        E 837 80 41 00
        E 51 90 43 3c
        E 850 80 43 00
        E 266 90 44 43
        E 1039 80 44 00
        E 58 90 44 46
        E 944 80 44 00
        E 534 90 46 41
        E 188 90 48 3c
        E 187 90 49 3c
        E 53 80 48 00
        E 135 90 4d 3c
        E 52 80 49 00
        E 135 90 4f 3c
        E 53 80 4d 00
        E 141 80 46 00
        E 656 80 4f 00
        E 258 90 4d 4a
        E 453 90 50 5b
        E 240 80 50 00
        E 22 80 4d 00
        E 190 90 54 6c
        E 745 90 50 3c
        E 199 80 54 00
        E 277 80 50 00
        E 85 90 50 48
        E 850 80 50 00
        E 250 90 50 43
        E 1039 80 50 00
        E 71 90 4f 3c
        E 557 90 50 3c
        E 240 80 50 00
        E 147 80 4f 00
        E 170 90 54 41
        E 944 80 54 00
        E 1430 90 50 3c
        E 857 90 52 3c
        E 87 80 50 00
        E 857 80 52 00
        E 405 90 54 3e
        E 214 80 54 00
        E 672 90 50 43
        E 1039 80 50 00
        E 304 90 4f 6c
        E 715 80 4f 00
        E 512 90 4d 42
        E 944 80 4d 00
        E 0 b0 7b 00
        E 1 ff 2f 00
      >
    >
  >
  <TRACK
    NAME "Drums"
    PEAKCOL 4290722362
    VOLPAN 1.000000 0 1 -1
    MIDIOUT -1
    ISBUS 0 0
    <ITEM
      POSITION 0.000000
      LENGTH 37.350014
      NAME "Drums"
      VOLPAN 1 0 1 -1
      <SOURCE MIDI
        HASDATA 1 960 QN
        E 0 c9 00 00
        E 0 99 41 73
        E 0 99 2e 5e
        E 240 89 2e 00
        E 240 99 29 4c
        E 96 89 29 00
        E 24 99 29 4c
        E 96 89 29 00
        E 24 99 29 4c
        E 0 99 26 4c
        E 77 89 26 00
        E 19 89 29 00
        E 24 99 29 5d
        E 96 89 29 00
        E 24 99 26 7d
        E 0 99 27 79
        E 288 89 26 00
        E 0 89 27 00
        E 192 99 29 4c
        E 96 89 29 00
        E 24 99 29 4c
        E 96 89 29 00
        E 24 99 2c 4c
        E 96 89 2c 00
        E 24 99 2e 57
        E 96 89 2e 00
        E 14 89 41 00
        E 10 99 41 6b
        E 0 99 29 4c
        E 55 89 29 00
        E 14 99 29 4c
        E 55 89 29 00
        E 13 99 29 4c
        E 55 89 29 00
        E 14 99 29 4c
        E 55 89 29 00
        E 13 99 29 4c
        E 55 89 29 00
        E 14 99 29 4c
        E 55 89 29 00
        E 13 99 29 4c
        E 55 89 29 00
        E 14 99 29 4c
        E 64 89 29 00
        E 16 99 29 4c
        E 64 89 29 00
        E 16 99 2c 5a
        E 64 89 2c 00
        E 256 99 26 7d
        E 0 99 27 7a
        E 60 99 29 4c
        E 48 89 29 00
        E 12 99 29 4c
        E 48 89 29 00
        E 12 99 29 5b
        E 48 89 29 00
        E 60 89 26 00
        E 0 89 27 00
        E 192 89 41 00
        E 0 99 2a 51
        E 115 89 2a 00
        E 125 99 26 4c
        E 77 89 26 00
        E 163 99 24 7d
        E 0 99 2e 4c
        E 19 99 41 4c
        E 77 89 2e 00
        E 24 99 2c 4c
        E 96 89 2c 00
        E 24 99 2b 4c
        E 48 89 24 00
        E 48 89 2b 00
        E 24 99 29 58
        E 96 89 29 00
        E 24 99 2a 51
        E 115 89 2a 00
        E 365 99 26 7d
        E 0 99 27 79
        E 96 99 29 4c
        E 77 89 29 00
        E 19 99 29 4c
        E 77 89 29 00
        E 19 89 26 00
        E 0 89 27 00
        E 0 99 29 4c
        E 77 89 29 00
        E 19 99 29 5a
        E 77 89 29 00
        E 19 99 29 4c
        E 64 89 29 00
        E 16 99 29 4c
        E 64 89 29 00
        E 16 99 29 54
        E 64 89 29 00
        E 246 89 41 00
        E 10 99 24 7b
        E 0 99 2a 4c
        E 19 99 41 4c
        E 96 89 2a 00
        E 173 89 24 00
        E 192 99 29 4c
        E 64 89 29 00
        E 16 99 29 4c
        E 64 89 29 00
        E 16 99 29 5d
        E 64 89 29 00
        E 16 99 26 4c
        E 77 89 26 00
        E 163 99 26 7d
        E 0 99 27 75
        E 288 89 26 00
        E 0 89 27 00
        E 192 89 41 00
        E 0 99 2a 4c
        E 115 89 2a 00
        E 125 99 26 4c
        E 58 89 26 00
        E 2 99 26 4c
        E 58 89 26 00
        E 2 99 26 4c
        E 58 89 26 00
        E 62 99 24 7d
        E 0 99 29 4c
        E 19 99 3d 4c
        E 36 89 29 00
        E 14 99 29 4c
        E 55 89 29 00
        E 13 99 29 4c
        E 55 89 29 00
        E 14 99 29 4c
        E 55 89 29 00
        E 13 99 29 4c
        E 14 89 24 00
        E 41 89 29 00
        E 14 99 29 4c
        E 55 89 29 00
        E 13 99 29 5a
        E 55 89 29 00
        E 14 99 29 4c
        E 64 89 29 00
        E 16 99 29 4c
        E 64 89 29 00
        E 16 99 29 58
        E 64 89 29 00
        E 256 99 26 7d
        E 0 99 27 74
        E 120 99 29 4c
        E 96 89 29 00
        E 24 99 29 4c
        E 48 89 26 00
        E 0 89 27 00
        E 48 89 29 00
        E 24 99 29 5b
        E 96 89 29 00
        E 24 99 2c 51
        E 77 89 2c 00
        E 19 99 29 4c
        E 77 89 29 00
        E 19 99 29 4c
        E 77 89 29 00
        E 19 99 29 4c
        E 77 89 29 00
        E 19 99 29 4c
        E 77 89 29 00
        E 9 89 3d 00
        E 10 99 24 7d
        E 0 99 31 4c
        E 19 99 3d 4c
        E 29 89 31 00
        E 12 99 30 4c
        E 48 89 30 00
        E 12 99 2e 4c
        E 48 89 2e 00
        E 12 99 2e 4c
        E 48 89 2e 00
        E 60 89 24 00
        E 192 99 2a 4c
        E 115 89 2a 00
        E 365 99 26 7d
        E 0 99 27 73
        E 120 99 29 4c
        E 96 89 29 00
        E 24 99 29 4c
        E 48 89 26 00
        E 0 89 27 00
        E 48 89 29 00
        E 24 99 29 4c
        E 96 89 29 00
        E 24 89 3d 00
        E 0 99 2a 4c
        E 115 89 2a 00
        E 365 99 24 7d
        E 0 99 2e 4c
        E 19 99 3d 4c
        E 77 89 2e 00
        E 24 99 2b 4c
        E 96 89 2b 00
        E 24 99 29 4c
        E 48 89 24 00
        E 48 89 29 00
        E 24 99 29 4c
        E 96 89 29 00
        E 24 99 2e 4c
        E 96 89 2e 00
        E 24 99 2c 4c
        E 96 89 2c 00
        E 24 99 2b 4c
        E 96 89 2b 00
        E 24 99 29 4c
        E 96 89 29 00
        E 24 99 26 7d
        E 0 99 27 7a
        E 80 99 29 4c
        E 64 89 29 00
        E 16 99 2c 53
        E 64 89 2c 00
        E 64 89 26 00
        E 0 89 27 00
        E 192 99 2a 4d
        E 115 89 2a 00
        E 125 99 26 4c
        E 77 89 26 00
        E 153 89 3d 00
        E 10 99 24 7b
        E 0 99 31 4c
        E 19 99 3d 4c
        E 77 89 31 00
        E 24 99 2e 4c
        E 96 89 2e 00
        E 24 99 2c 4c
        E 0 99 26 4c
        E 48 89 24 00
        E 29 89 26 00
        E 19 89 2c 00
        E 24 99 2c 56
        E 96 89 2c 00
        E 24 99 29 4c
        E 96 89 29 00
        E 24 99 29 4c
        E 96 89 29 00
        E 24 99 29 4c
        E 96 89 29 00
        E 24 99 29 5d
        E 96 89 29 00
        E 24 99 26 7d
        E 0 99 27 77
        E 60 99 29 4c
        E 48 89 29 00
        E 12 99 29 4c
        E 48 89 29 00
        E 12 99 29 4c
        E 48 89 29 00
        E 60 89 26 00
        E 0 89 27 00
        E 192 89 3d 00
        E 0 99 2a 51
        E 115 89 2a 00
        E 125 99 26 4c
        E 77 89 26 00
        E 163 99 24 7d
        E 0 99 29 4c
        E 19 99 3a 4c
        E 29 89 29 00
        E 12 99 29 4c
        E 48 89 29 00
        E 12 99 29 4c
        E 48 89 29 00
        E 12 99 29 4c
        E 48 89 29 00
        E 60 89 24 00
        E 192 99 29 53
        E 48 89 29 00
        E 12 99 29 4c
        E 48 89 29 00
        E 12 99 29 4c
        E 48 89 29 00
        E 12 99 29 4c
        E 48 89 29 00
        E 252 99 26 7d
        E 0 99 27 79
        E 288 89 26 00
        E 0 89 27 00
        E 192 99 2e 4c
        E 240 89 2e 00
        E 230 89 3a 00
        E 10 99 24 7c
        E 0 99 2e 4c
        E 19 99 3a 4c
        E 77 89 2e 00
        E 24 99 2b 4c
        E 96 89 2b 00
        E 24 99 29 4c
        E 0 99 26 4c
        E 48 89 24 00
        E 29 89 26 00
        E 19 89 29 00
        E 24 99 29 4c
        E 96 89 29 00
        E 24 99 31 4c
        E 64 89 31 00
        E 16 99 2e 4c
        E 64 89 2e 00
        E 16 99 2c 57
        E 64 89 2c 00
        E 16 99 26 4c
        E 77 89 26 00
        E 163 99 26 7d
        E 0 99 27 76
        E 120 99 29 4c
        E 96 89 29 00
        E 24 99 29 4c
        E 48 89 26 00
        E 0 89 27 00
        E 48 89 29 00
        E 24 99 29 58
        E 96 89 29 00
        E 24 89 3a 00
        E 0 99 2a 50
        E 115 89 2a 00
        E 365 99 24 7d
        E 0 99 29 4c
        E 19 99 3a 4c
        E 77 89 29 00
        E 24 99 29 4c
        E 96 89 29 00
        E 24 99 29 4c
        E 48 89 24 00
        E 48 89 29 00
        E 24 99 29 4c
        E 96 89 29 00
        E 24 99 29 4c
        E 77 89 29 00
        E 19 99 29 4c
        E 77 89 29 00
        E 19 99 29 4c
        E 77 89 29 00
        E 19 99 29 4c
        E 77 89 29 00
        E 19 99 29 5d
        E 77 89 29 00
        E 19 99 26 7d
        E 0 99 27 79
        E 80 99 29 4c
        E 64 89 29 00
        E 16 99 2e 5d
        E 64 89 2e 00
        E 64 89 26 00
        E 0 89 27 00
        E 192 99 29 4c
        E 48 89 29 00
        E 12 99 29 4c
        E 48 89 29 00
        E 12 99 29 4c
        E 48 89 29 00
        E 12 99 29 5d
        E 48 89 29 00
        E 242 89 3a 00
        E 10 99 24 7b
        E 0 99 29 4c
        E 19 99 3a 4c
        E 45 89 29 00
        E 16 99 29 4c
        E 64 89 29 00
        E 16 99 29 4c
        E 64 89 29 00
        E 64 89 24 00
        E 192 99 2a 4f
        E 115 89 2a 00
        E 365 99 26 7d
        E 0 99 27 74
        E 120 99 29 4c
        E 96 89 29 00
        E 24 99 29 4c
        E 48 89 26 00
        E 0 89 27 00
        E 48 89 29 00
        E 24 99 29 4c
        E 96 89 29 00
        E 24 89 3a 00
        E 0 99 2a 51
        E 115 89 2a 00
        E 125 99 26 4c
        E 58 89 26 00
        E 2 99 26 4c
        E 58 89 26 00
        E 122 99 24 7d
        E 0 99 29 4c
        E 19 99 3c 4c
        E 77 89 29 00
        E 24 99 29 4c
        E 96 89 29 00
        E 24 99 29 4c
        E 48 89 24 00
        E 48 89 29 00
        E 24 99 29 4c
        E 96 89 29 00
        E 24 99 29 4c
        E 55 89 29 00
        E 14 99 29 4c
        E 55 89 29 00
        E 13 99 29 4c
        E 55 89 29 00
        E 14 99 29 4c
        E 34 99 26 4c
        E 21 89 29 00
        E 13 99 29 4c
        E 43 89 26 00
        E 12 89 29 00
        E 14 99 29 5b
        E 55 89 29 00
        E 13 99 29 5b
        E 55 89 29 00
        E 14 99 26 7d
        E 0 99 27 76
        E 96 99 29 4c
        E 77 89 29 00
        E 19 99 29 4c
        E 77 89 29 00
        E 19 89 26 00
        E 0 89 27 00
        E 0 99 29 4c
        E 77 89 29 00
        E 19 99 29 57
        E 77 89 29 00
        E 19 99 2a 4c
        E 115 89 2a 00
        E 355 89 3c 00
        E 10 99 24 7a
        E 0 99 2c 4c
        E 19 99 3c 4c
        E 58 89 2c 00
        E 19 99 2c 4c
        E 77 89 2c 00
        E 19 99 2e 4c
        E 77 89 2e 00
        E 19 89 24 00
        E 0 99 2e 4c
        E 77 89 2e 00
        E 19 99 2e 4c
        E 77 89 2e 00
        E 19 99 29 4c
        E 77 89 29 00
        E 19 99 29 4c
        E 77 89 29 00
        E 19 99 29 4c
        E 48 99 26 4c
        E 29 89 29 00
        E 19 99 29 4c
        E 29 89 26 00
        E 48 89 29 00
        E 19 99 29 56
        E 77 89 29 00
        E 19 99 26 7d
        E 0 99 27 77
        E 288 89 26 00
        E 0 89 27 00
        E 192 89 3c 00
        E 0 99 2a 4c
        E 115 89 2a 00
        E 365 99 24 7d
        E 0 99 2a 4c
        E 19 99 3c 4c
        E 96 89 2a 00
        E 173 89 24 00
        E 192 99 29 53
        E 64 89 29 00
        E 16 99 29 4c
        E 64 89 29 00
        E 16 99 29 4c
        E 64 89 29 00
        E 256 99 26 7d
        E 0 99 27 7a
        E 0 99 2c 4c
        E 96 89 2c 00
        E 24 99 2e 4c
        E 96 89 2e 00
        E 24 99 2e 4c
        E 48 89 26 00
        E 0 89 27 00
        E 48 89 2e 00
        E 24 99 31 57
        E 96 89 31 00
        E 24 99 2c 4c
        E 48 89 2c 00
        E 12 99 2b 4c
        E 48 89 2b 00
        E 12 99 29 54
        E 48 89 29 00
        E 12 99 29 54
        E 48 89 29 00
        E 242 89 3c 00
        E 10 99 24 7d
        E 0 99 2e 4c
        E 19 99 3c 4c
        E 36 89 2e 00
        E 14 99 2e 4c
        E 55 89 2e 00
        E 13 99 2e 4c
        E 55 89 2e 00
        E 14 99 2e 4c
        E 55 89 2e 00
        E 13 99 30 4c
        E 14 89 24 00
        E 41 89 30 00
        E 14 99 30 4c
        E 55 89 30 00
        E 13 99 31 4c
        E 55 89 31 00
        E 14 99 29 4c
        E 48 89 29 00
        E 12 99 29 4c
        E 48 89 29 00
        E 12 99 29 4c
        E 48 89 29 00
        E 12 99 29 56
        E 48 89 29 00
        E 252 99 26 7d
        E 0 99 27 75
        E 80 99 29 4c
        E 64 89 29 00
        E 16 99 29 54
        E 64 89 29 00
        E 64 89 26 00
        E 0 89 27 00
        E 192 89 3c 00
        E 0 99 2a 4c
        E 115 89 2a 00
        E 365 99 24 7d
        E 0 99 29 4c
        E 19 99 41 4c
        E 45 89 29 00
        E 16 99 29 4c
        E 64 89 29 00
        E 16 99 29 4c
        E 64 89 29 00
        E 64 89 24 00
        E 192 99 2a 50
        E 115 89 2a 00
        E 365 99 26 7d
        E 0 99 27 79
        E 80 99 30 4c
        E 64 89 30 00
        E 16 99 31 5a
        E 64 89 31 00
        E 64 89 26 00
        E 0 89 27 00
        E 192 99 2e 4c
        E 96 89 2e 00
        E 24 99 2e 4c
        E 96 89 2e 00
        E 24 99 30 4c
        E 96 89 30 00
        E 24 99 31 4c
        E 96 89 31 00
        E 14 89 41 00
        E 10 99 24 7b
        E 0 99 2e 4c
        E 19 99 41 4c
        E 29 89 2e 00
        E 12 99 2e 4c
        E 48 89 2e 00
        E 12 99 30 4c
        E 48 89 30 00
        E 12 99 31 4c
        E 48 89 31 00
        E 60 89 24 00
        E 192 99 2c 4c
        E 96 89 2c 00
        E 24 99 2c 4c
        E 96 89 2c 00
        E 24 99 2e 4c
        E 0 99 26 4c
        E 77 89 26 00
        E 19 89 2e 00
        E 24 99 31 56
        E 96 89 31 00
        E 24 99 26 7d
        E 0 99 27 73
        E 80 99 29 4c
        E 64 89 29 00
        E 16 99 29 57
        E 64 89 29 00
        E 64 89 26 00
        E 0 89 27 00
        E 192 89 41 00
        E 0 99 2a 4c
        E 115 89 2a 00
        E 365 99 24 7d
        E 0 99 29 4c
        E 19 99 41 4c
        E 58 89 29 00
        E 19 99 29 4c
        E 77 89 29 00
        E 19 99 29 4c
        E 77 89 29 00
        E 19 89 24 00
        E 0 99 29 4c
        E 77 89 29 00
        E 19 99 29 5d
        E 77 89 29 00
        E 19 99 31 4c
        E 96 89 31 00
        E 24 99 2e 4c
        E 96 89 2e 00
        E 24 99 2c 4c
        E 96 89 2c 00
        E 24 99 29 5d
        E 96 89 29 00
        E 24 99 26 7d
        E 0 99 27 79
        E 69 99 29 4c
        E 55 89 29 00
        E 13 99 29 4c
        E 55 89 29 00
        E 14 99 29 4c
        E 55 89 29 00
        E 13 99 29 4c
        E 14 89 26 00
        E 0 89 27 00
        E 41 89 29 00
        E 14 99 29 4c
        E 55 89 29 00
        E 13 99 29 53
        E 55 89 29 00
        E 14 99 29 4c
        E 64 89 29 00
        E 16 99 29 53
        E 64 89 29 00
        E 16 99 29 53
        E 64 89 29 00
        E 16 99 26 4c
        E 58 89 26 00
        E 2 99 26 4c
        E 58 89 26 00
        E 2 99 26 4c
        E 58 89 26 00
        E 52 89 41 00
        E 10 99 24 7a
        E 0 99 2a 4c
        E 19 99 41 4c
        E 96 89 2a 00
        E 173 89 24 00
        E 192 99 2a 51
        E 115 89 2a 00
        E 125 99 26 4c
        E 77 89 26 00
        E 163 99 26 7d
        E 0 99 27 74
        E 120 99 29 4c
        E 96 89 29 00
        E 24 99 29 4c
        E 48 89 26 00
        E 0 89 27 00
        E 48 89 29 00
        E 24 99 29 53
        E 96 89 29 00
        E 24 89 41 00
        E 0 99 2a 4c
        E 115 89 2a 00
        E 365 99 24 7d
        E 0 99 29 4c
        E 19 99 3d 4c
        E 77 89 29 00
        E 24 99 29 4c
        E 96 89 29 00
        E 24 99 29 4c
        E 48 89 24 00
        E 48 89 29 00
        E 24 99 29 4c
        E 96 89 29 00
        E 24 99 29 4c
        E 48 89 29 00
        E 12 99 29 4c
        E 48 89 29 00
        E 12 99 29 4c
        E 48 89 29 00
        E 12 99 29 5d
        E 48 89 29 00
        E 12 99 26 4c
        E 77 89 26 00
        E 163 99 26 7d
        E 0 99 27 76
        E 60 99 29 4c
        E 48 89 29 00
        E 12 99 29 4c
        E 48 89 29 00
        E 12 99 29 4c
        E 48 89 29 00
        E 60 89 26 00
        E 0 89 27 00
        E 192 99 2c 4c
        E 96 89 2c 00
        E 24 99 2e 4c
        E 96 89 2e 00
        E 24 99 2e 4c
        E 96 89 2e 00
        E 24 99 31 4c
        E 96 89 31 00
        E 14 89 3d 00
        E 10 99 24 7a
        E 0 99 2a 4c
        E 19 99 3d 4c
        E 96 89 2a 00
        E 173 89 24 00
        E 192 99 29 4d
        E 64 89 29 00
        E 16 99 29 4c
        E 64 89 29 00
        E 16 99 29 4c
        E 64 89 29 00
        E 256 99 26 7d
        E 0 99 27 74
        E 60 99 29 4c
        E 48 89 29 00
        E 12 99 29 53
        E 48 89 29 00
        E 12 99 29 53
        E 48 89 29 00
        E 60 89 26 00
        E 0 89 27 00
        E 192 89 3d 00
        E 0 99 2a 4c
        E 115 89 2a 00
        E 365 99 24 7d
        E 0 99 2a 4c
        E 19 99 3d 4c
        E 96 89 2a 00
        E 173 89 24 00
        E 192 99 29 4c
        E 77 89 29 00
        E 19 99 29 4c
        E 77 89 29 00
        E 19 99 29 4c
        E 77 89 29 00
        E 19 99 29 4c
        E 77 89 29 00
        E 19 99 29 5d
        E 77 89 29 00
        E 19 99 26 7d
        E 0 99 27 74
        E 288 89 26 00
        E 0 89 27 00
        E 192 99 29 4c
        E 55 89 29 00
        E 14 99 29 4c
        E 55 89 29 00
        E 13 99 29 4c
        E 55 89 29 00
        E 14 99 29 4c
        E 55 89 29 00
        E 13 99 29 4c
        E 55 89 29 00
        E 14 99 29 4c
        E 55 89 29 00
        E 13 99 29 4c
        E 55 89 29 00
        E 4 89 3d 00
        E 10 99 24 7a
        E 0 99 29 4c
        E 19 99 3d 4c
        E 45 89 29 00
        E 16 99 29 4c
        E 64 89 29 00
        E 16 99 29 4c
        E 64 89 29 00
        E 64 89 24 00
        E 192 99 2e 4c
        E 64 89 2e 00
        E 16 99 29 4c
        E 64 89 29 00
        E 16 99 29 5d
        E 64 89 29 00
        E 256 99 26 7d
        E 0 99 27 73
        E 69 99 29 4c
        E 55 89 29 00
        E 13 99 29 4c
        E 55 89 29 00
        E 14 99 29 4c
        E 55 89 29 00
        E 13 99 29 4c
        E 14 89 26 00
        E 0 89 27 00
        E 41 89 29 00
        E 14 99 29 4c
        E 55 89 29 00
        E 13 99 29 5d
        E 55 89 29 00
        E 14 89 3d 00
        E 0 99 2e 51
        E 240 89 2e 00
        E 0 99 26 4c
        E 77 89 26 00
        E 163 99 24 7d
        E 0 99 2a 4c
        E 19 99 3a 4c
        E 96 89 2a 00
        E 173 89 24 00
        E 192 99 2a 4c
        E 115 89 2a 00
        E 365 99 26 7d
        E 0 99 27 79
        E 288 89 26 00
        E 0 89 27 00
        E 192 99 29 4c
        E 64 89 29 00
        E 16 99 29 4c
        E 64 89 29 00
        E 16 99 29 5a
        E 64 89 29 00
        E 246 89 3a 00
        E 10 99 24 7c
        E 0 99 2e 4c
        E 19 99 3a 4c
        E 77 89 2e 00
        E 24 99 2b 4c
        E 96 89 2b 00
        E 24 99 29 4c
        E 48 89 24 00
        E 48 89 29 00
        E 24 99 29 54
        E 96 89 29 00
        E 24 99 29 4c
        E 77 89 29 00
        E 19 99 29 4c
        E 77 89 29 00
        E 19 99 29 4c
        E 77 89 29 00
        E 19 99 29 4c
        E 77 89 29 00
        E 19 99 29 5d
        E 77 89 29 00
        E 19 99 26 7d
        E 0 99 27 76
        E 0 99 2c 51
        E 96 89 2c 00
        E 24 99 2c 4c
        E 96 89 2c 00
        E 24 99 2e 4c
        E 48 89 26 00
        E 0 89 27 00
        E 48 89 2e 00
        E 24 99 31 4c
        E 96 89 31 00
        E 24 89 3a 00
        E 0 99 2e 51
        E 240 89 2e 00
        E 240 99 24 7d
        E 0 99 2a 4c
        E 19 99 3a 4c
        E 96 89 2a 00
        E 173 89 24 00
        E 192 99 29 53
        E 64 89 29 00
        E 16 99 29 4c
        E 64 89 29 00
        E 16 99 29 4c
        E 64 89 29 00
        E 16 99 26 4c
        E 77 89 26 00
        E 163 99 26 7d
        E 0 99 27 7a
        E 96 99 29 4c
        E 77 89 29 00
        E 19 99 29 4c
        E 77 89 29 00
        E 19 89 26 00
        E 0 89 27 00
        E 0 99 29 5b
        E 77 89 29 00
        E 19 99 29 5b
        E 77 89 29 00
        E 19 99 29 4c
        E 96 89 29 00
        E 24 99 29 4c
        E 96 89 29 00
        E 24 99 29 4c
        E 96 89 29 00
        E 24 99 29 4c
        E 96 89 29 00
        E 14 89 3a 00
        E 10 99 24 7c
        E 0 99 29 4c
        E 19 99 3a 4c
        E 45 89 29 00
        E 16 99 29 4c
        E 64 89 29 00
        E 16 99 29 4c
        E 64 89 29 00
        E 64 89 24 00
        E 192 99 29 51
        E 48 89 29 00
        E 12 99 2b 4c
        E 48 89 2b 00
        E 12 99 2e 4c
        E 48 89 2e 00
        E 12 99 31 4c
        E 48 89 31 00
        E 252 99 26 7d
        E 0 99 27 76
        E 69 99 29 4c
        E 55 89 29 00
        E 13 99 29 4c
        E 55 89 29 00
        E 14 99 29 4c
        E 55 89 29 00
        E 13 99 29 4c
        E 14 89 26 00
        E 0 89 27 00
        E 41 89 29 00
        E 14 99 29 5d
        E 55 89 29 00
        E 13 99 29 5d
        E 55 89 29 00
        E 14 89 3a 00
        E 0 99 2e 4c
        E 240 89 2e 00
        E 0 99 26 4c
        E 77 89 26 00
        E 163 99 24 7d
        E 0 99 2a 4c
        E 19 99 3c 4c
        E 96 89 2a 00
        E 173 89 24 00
        E 192 99 31 4c
        E 96 89 31 00
        E 24 99 31 4c
        E 96 89 31 00
        E 24 99 31 4c
        E 96 89 31 00
        E 24 99 31 57
        E 96 89 31 00
        E 24 99 26 7d
        E 0 99 27 77
        E 120 99 29 4c
        E 96 89 29 00
        E 24 99 29 4c
        E 48 89 26 00
        E 0 89 27 00
        E 48 89 29 00
        E 24 99 29 5d
        E 96 89 29 00
        E 24 99 2a 4f
        E 115 89 2a 00
        E 125 99 26 4c
        E 77 89 26 00
        E 153 89 3c 00
        E 10 99 24 7d
        E 0 99 29 4c
        E 19 99 3c 4c
        E 58 89 29 00
        E 19 99 29 4c
        E 77 89 29 00
        E 19 99 2b 4c
        E 48 99 26 4c
        E 29 89 2b 00
        E 19 89 24 00
        E 0 99 2e 4c
        E 29 89 26 00
        E 48 89 2e 00
        E 19 99 31 56
        E 77 89 31 00
        E 19 99 29 4c
        E 77 89 29 00
        E 19 99 29 4d
        E 77 89 29 00
        E 19 99 29 4c
        E 48 99 26 4c
        E 29 89 29 00
        E 19 99 29 4c
        E 29 89 26 00
        E 48 89 29 00
        E 19 99 29 4c
        E 77 89 29 00
        E 19 99 26 7d
        E 0 99 27 78
        E 80 99 29 4c
        E 64 89 29 00
        E 16 99 29 54
        E 64 89 29 00
        E 64 89 26 00
        E 0 89 27 00
        E 192 89 3c 00
        E 0 99 2a 4c
        E 115 89 2a 00
        E 365 99 24 7d
        E 0 99 29 4c
        E 19 99 3c 4c
        E 45 89 29 00
        E 16 99 29 4c
        E 64 89 29 00
        E 16 99 29 4c
        E 64 89 29 00
        E 64 89 24 00
        E 192 99 29 4c
        E 96 89 29 00
        E 24 99 29 4c
        E 96 89 29 00
        E 24 99 29 4c
        E 96 89 29 00
        E 24 99 29 5b
        E 96 89 29 00
        E 24 99 26 7d
        E 0 99 27 79
        E 80 99 29 4c
        E 64 89 29 00
        E 16 99 29 57
        E 64 89 29 00
        E 64 89 26 00
        E 0 89 27 00
        E 192 99 29 4c
        E 48 89 29 00
        E 12 99 29 4c
        E 48 89 29 00
        E 12 99 29 4c
        E 48 89 29 00
        E 12 99 29 56
        E 48 89 29 00
        E 242 89 3c 00
        E 10 99 24 7d
        E 0 99 29 4c
        E 19 99 3c 4c
        E 77 89 29 00
        E 24 99 29 4c
        E 96 89 29 00
        E 24 99 29 4c
        E 48 89 24 00
        E 48 89 29 00
        E 24 99 29 57
        E 96 89 29 00
        E 24 99 29 4c
        E 96 89 29 00
        E 24 99 29 4c
        E 96 89 29 00
        E 24 99 29 4c
        E 96 89 29 00
        E 24 99 29 56
        E 96 89 29 00
        E 24 99 26 7d
        E 0 99 27 77
        E 288 89 26 00
        E 0 89 27 00
        E 192 89 3c 00
        E 0 99 2a 51
        E 115 89 2a 00
        E 125 99 26 4c
        E 77 89 26 00
        E 163 99 24 7d
        E 0 99 2a 4c
        E 19 99 41 4c
        E 96 89 2a 00
        E 173 89 24 00
        E 192 99 2e 4c
        E 96 89 2e 00
        E 24 99 2e 4c
        E 96 89 2e 00
        E 24 99 30 4c
        E 96 89 30 00
        E 24 99 31 58
        E 96 89 31 00
        E 24 99 26 7d
        E 0 99 27 74
        E 96 99 29 4c
        E 77 89 29 00
        E 19 99 29 4c
        E 77 89 29 00
        E 19 89 26 00
        E 0 89 27 00
        E 0 99 29 4c
        E 77 89 29 00
        E 19 99 29 4c
        E 77 89 29 00
        E 19 99 29 4c
        E 96 89 29 00
        E 24 99 29 4c
        E 96 89 29 00
        E 24 99 2c 4c
        E 96 89 2c 00
        E 24 99 31 4c
        E 96 89 31 00
        E 14 89 41 00
        E 10 99 24 7c
        E 0 99 29 4c
        E 19 99 41 4c
        E 77 89 29 00
        E 24 99 29 4c
        E 96 89 29 00
        E 24 99 29 4c
        E 48 89 24 00
        E 48 89 29 00
        E 24 99 29 5b
        E 96 89 29 00
        E 24 99 2e 4c
        E 77 89 2e 00
        E 19 99 2c 4c
        E 77 89 2c 00
        E 19 99 2c 4c
        E 77 89 2c 00
        E 19 99 2c 4c
        E 77 89 2c 00
        E 19 99 2c 5d
        E 77 89 2c 00
        E 19 99 26 7d
        E 0 99 27 78
        E 0 99 2c 4c
        E 48 89 2c 00
        E 12 99 2b 4c
        E 48 89 2b 00
        E 12 99 29 4c
        E 48 89 29 00
        E 12 99 29 58
        E 48 89 29 00
        E 60 89 26 00
        E 0 89 27 00
        E 192 89 41 00
        E 0 99 2e 4f
        E 240 89 2e 00
        E 240 99 24 7d
        E 0 99 2a 4c
        E 19 99 41 4c
        E 96 89 2a 00
        E 173 89 24 00
        E 192 99 2a 4c
        E 115 89 2a 00
        E 365 99 26 7d
        E 0 99 27 7a
        E 60 99 29 4c
        E 48 89 29 00
        E 12 99 29 4c
        E 48 89 29 00
        E 12 99 29 5a
        E 48 89 29 00
        E 60 89 26 00
        E 0 89 27 00
        E 192 99 2a 4c
        E 115 89 2a 00
        E 355 89 41 00
        E 10 99 24 7a
        E 0 99 29 4c
        E 19 99 41 4c
        E 45 89 29 00
        E 16 99 29 4c
        E 64 89 29 00
        E 16 99 29 4c
        E 64 89 29 00
        E 64 89 24 00
        E 192 99 29 4c
        E 64 89 29 00
        E 16 99 29 4c
        E 64 89 29 00
        E 16 99 29 57
        E 64 89 29 00
        E 256 99 26 7d
        E 0 99 27 77
        E 96 99 2c 4c
        E 77 89 2c 00
        E 19 99 29 4c
        E 77 89 29 00
        E 19 89 26 00
        E 0 89 27 00
        E 0 99 29 4c
        E 77 89 29 00
        E 19 99 29 4c
        E 77 89 29 00
        E 19 89 41 00
        E 0 99 2e 51
        E 240 89 2e 00
        E 240 99 24 7d
        E 0 99 31 4c
        E 19 99 3d 4c
        E 45 89 31 00
        E 16 99 29 4c
        E 64 89 29 00
        E 16 99 29 4c
        E 64 89 29 00
        E 64 89 24 00
        E 192 99 2a 4c
        E 115 89 2a 00
        E 365 99 26 7d
        E 0 99 27 73
        E 60 99 2e 4c
        E 48 89 2e 00
        E 12 99 2c 4c
        E 48 89 2c 00
        E 12 99 29 56
        E 48 89 29 00
        E 60 89 26 00
        E 0 89 27 00
        E 192 99 29 4c
        E 48 89 29 00
        E 12 99 29 4c
        E 48 89 29 00
        E 12 99 29 4c
        E 48 89 29 00
        E 12 99 29 5b
        E 48 89 29 00
        E 242 89 3d 00
        E 10 99 24 7d
        E 0 99 29 4c
        E 19 99 3d 4c
        E 58 89 29 00
        E 19 99 29 4c
        E 77 89 29 00
        E 19 99 29 4c
        E 48 99 26 4c
        E 29 89 29 00
        E 19 89 24 00
        E 0 99 29 4c
        E 10 89 26 00
        E 2 99 26 4c
        E 58 89 26 00
        E 7 89 29 00
        E 19 99 29 5a
        E 77 89 29 00
        E 19 99 2a 4c
        E 115 89 2a 00
        E 365 99 26 7d
        E 0 99 27 73
        E 288 89 26 00
        E 0 89 27 00
        E 192 89 3d 00
        E 0 99 2a 4d
        E 115 89 2a 00
        E 365 99 24 7d
        E 0 99 29 4c
        E 19 99 3d 4c
        E 45 89 29 00
        E 16 99 29 4c
        E 64 89 29 00
        E 16 99 29 4c
        E 64 89 29 00
        E 64 89 24 00
        E 192 99 29 4c
        E 96 89 29 00
        E 24 99 29 4c
        E 96 89 29 00
        E 24 99 29 4c
        E 96 89 29 00
        E 24 99 29 57
        E 96 89 29 00
        E 24 99 26 7d
        E 0 99 27 7a
        E 80 99 29 4c
        E 64 89 29 00
        E 16 99 2e 4c
        E 64 89 2e 00
        E 64 89 26 00
        E 0 89 27 00
        E 192 99 29 50
        E 64 89 29 00
        E 16 99 29 4c
        E 64 89 29 00
        E 16 99 29 4c
        E 64 89 29 00
        E 246 89 3d 00
        E 10 99 24 7c
        E 0 99 29 4c
        E 19 99 3d 4c
        E 29 89 29 00
        E 12 99 29 4c
        E 48 89 29 00
        E 12 99 29 4c
        E 48 89 29 00
        E 12 99 29 4c
        E 48 89 29 00
        E 60 89 24 00
        E 192 99 29 4c
        E 48 89 29 00
        E 12 99 29 4c
        E 48 89 29 00
        E 12 99 29 4c
        E 48 89 29 00
        E 12 99 29 57
        E 48 89 29 00
        E 252 99 26 7d
        E 0 99 27 78
        E 0 99 2c 4c
        E 64 89 2c 00
        E 16 99 2b 4c
        E 64 89 2b 00
        E 16 99 29 4c
        E 64 89 29 00
        E 64 89 26 00
        E 0 89 27 00
        E 192 89 3d 00
        E 0 99 2e 4c
        E 240 89 2e 00
        E 240 99 24 7d
        E 0 99 2a 4c
        E 19 99 3f 4c
        E 96 89 2a 00
        E 173 89 24 00
        E 192 99 29 4c
        E 64 89 29 00
        E 16 99 29 4c
        E 64 89 29 00
        E 16 99 29 5d
        E 64 89 29 00
        E 256 99 26 7d
        E 0 99 27 76
        E 288 89 26 00
        E 0 89 27 00
        E 192 99 29 51
        E 55 89 29 00
        E 14 99 29 4f
        E 55 89 29 00
        E 13 99 29 4c
        E 55 89 29 00
        E 14 99 29 4c
        E 55 89 29 00
        E 13 99 29 4c
        E 55 89 29 00
        E 14 99 29 4c
        E 55 89 29 00
        E 13 99 29 4c
        E 55 89 29 00
        E 4 89 3f 00
        E 10 99 24 7b
        E 0 99 29 4c
        E 19 99 3f 4c
        E 45 89 29 00
        E 16 99 29 4c
        E 64 89 29 00
        E 16 99 29 4c
        E 64 89 29 00
        E 64 89 24 00
        E 192 99 29 4c
        E 55 89 29 00
        E 14 99 29 4c
        E 55 89 29 00
        E 13 99 29 4c
        E 55 89 29 00
        E 14 99 29 4c
        E 34 99 26 4c
        E 21 89 29 00
        E 13 99 29 4c
        E 43 89 26 00
        E 12 89 29 00
        E 14 99 29 4c
        E 55 89 29 00
        E 13 99 29 5d
        E 55 89 29 00
        E 14 99 26 7d
        E 0 99 27 73
        E 80 99 29 4c
        E 64 89 29 00
        E 16 99 29 54
        E 64 89 29 00
        E 64 89 26 00
        E 0 89 27 00
        E 192 89 3f 00
        E 0 99 2a 4d
        E 115 89 2a 00
        E 125 99 26 4c
        E 77 89 26 00
        E 163 99 24 7d
        E 0 99 2a 4c
        E 19 99 3f 4c
        E 96 89 2a 00
        E 173 89 24 00
        E 192 99 29 53
        E 64 89 29 00
        E 16 99 29 4c
        E 64 89 29 00
        E 16 99 29 4c
        E 64 89 29 00
        E 256 99 26 7d
        E 0 99 27 78
        E 120 99 29 4c
        E 96 89 29 00
        E 24 99 29 4c
        E 48 89 26 00
        E 0 89 27 00
        E 48 89 29 00
        E 24 99 29 4c
        E 96 89 29 00
        E 24 99 29 4c
        E 96 89 29 00
        E 24 99 29 4c
        E 96 89 29 00
        E 24 99 29 4c
        E 96 89 29 00
        E 24 99 29 5d
        E 96 89 29 00
        E 14 89 3f 00
        E 10 99 3f 6c
        E 240 89 3f 00
        E 80 99 3f 62
        E 240 89 3f 00
        E 80 99 3f 5f
        E 240 89 3f 00
        E 0 b9 7b 00
        E 1 ff 2f 00
      >
    >
  >
  <TRACK
    NAME "808"
    PEAKCOL 4284506208
    VOLPAN 1.000000 0 1 -1
    MIDIOUT -1
    ISBUS 0 0
    <ITEM
      POSITION 0.000000
      LENGTH 37.771429
      NAME "808"
      VOLPAN 1 0 1 -1
      <SOURCE MIDI
        HASDATA 1 960 QN
        E 0 c1 26 00
        E 0 91 1d 70
        E 1430 81 1d 00
        E 10 91 1d 41
        E 480 81 1d 00
        E 480 91 1d 70
        E 960 81 1d 00
        E 0 91 1d 41
        E 240 81 1d 00
        E 0 91 1d 41
        E 50 81 1d 00
        E 10 91 1e 41
        E 50 81 1e 00
        E 10 91 20 41
        E 50 81 20 00
        E 10 91 24 70
        E 50 81 24 00
        E 10 91 24 70
        E 1200 81 24 00
        E 0 91 24 69
        E 50 81 24 00
        E 10 91 23 69
        E 50 81 23 00
        E 10 91 21 69
        E 50 81 21 00
        E 10 91 1d 69
        E 50 81 1d 00
        E 10 91 1d 41
        E 480 81 1d 00
        E 480 91 1d 70
        E 960 81 1d 00
        E 0 91 1d 41
        E 240 81 1d 00
        E 0 91 1d 41
        E 50 81 1d 00
        E 10 91 1e 41
        E 50 81 1e 00
        E 10 91 1e 41
        E 50 81 1e 00
        E 10 91 20 41
        E 50 81 20 00
        E 10 91 20 70
        E 1200 81 20 00
        E 0 91 20 69
        E 50 81 20 00
        E 10 91 1f 69
        E 50 81 1f 00
        E 10 91 1d 69
        E 50 81 1d 00
        E 10 91 19 69
        E 50 81 19 00
        E 10 91 19 41
        E 480 81 19 00
        E 480 91 19 70
        E 960 81 19 00
        E 0 91 19 41
        E 240 81 19 00
        E 0 91 19 41
        E 50 81 19 00
        E 10 91 1a 41
        E 50 81 1a 00
        E 10 91 1c 41
        E 50 81 1c 00
        E 10 91 20 41
        E 50 81 20 00
        E 10 91 20 70
        E 1200 81 20 00
        E 0 91 20 69
        E 50 81 20 00
        E 10 91 1f 69
        E 50 81 1f 00
        E 10 91 1d 69
        E 50 81 1d 00
        E 10 91 19 69
        E 50 81 19 00
        E 10 91 19 41
        E 480 81 19 00
        E 480 91 19 70
        E 960 81 19 00
        E 0 91 19 41
        E 240 81 19 00
        E 0 91 19 41
        E 50 81 19 00
        E 10 91 1b 41
        E 50 81 1b 00
        E 10 91 1d 41
        E 50 81 1d 00
        E 10 91 22 70
        E 50 81 22 00
        E 10 91 22 70
        E 1430 81 22 00
        E 10 91 22 41
        E 480 81 22 00
        E 480 91 22 70
        E 960 81 22 00
        E 0 91 22 41
        E 240 81 22 00
        E 0 91 22 41
        E 50 81 22 00
        E 10 91 21 41
        E 50 81 21 00
        E 10 91 20 41
        E 50 81 20 00
        E 10 91 1d 41
        E 50 81 1d 00
        E 10 91 1d 70
        E 1200 81 1d 00
        E 0 91 1d 69
        E 50 81 1d 00
        E 10 91 1e 69
        E 50 81 1e 00
        E 10 91 1f 69
        E 50 81 1f 00
        E 10 91 22 69
        E 50 81 22 00
        E 10 91 22 41
        E 480 81 22 00
        E 480 91 22 70
        E 960 81 22 00
        E 0 91 22 41
        E 240 81 22 00
        E 0 91 22 41
        E 50 81 22 00
        E 10 91 22 41
        E 50 81 22 00
        E 10 91 23 41
        E 50 81 23 00
        E 10 91 24 41
        E 50 81 24 00
        E 10 91 24 70
        E 1430 81 24 00
        E 10 91 24 41
        E 480 81 24 00
        E 480 91 24 70
        E 960 81 24 00
        E 0 91 24 41
        E 384 81 24 00
        E 96 91 24 70
        E 1430 81 24 00
        E 10 91 24 41
        E 480 81 24 00
        E 480 91 1f 70
        E 720 81 1f 00
        E 0 91 1f 69
        E 50 81 1f 00
        E 10 91 20 69
        E 50 81 20 00
        E 10 91 21 69
        E 50 81 21 00
        E 10 91 24 69
        E 50 81 24 00
        E 10 91 24 41
        E 240 81 24 00
        E 0 91 24 41
        E 50 81 24 00
        E 10 91 23 41
        E 50 81 23 00
        E 10 91 21 41
        E 50 81 21 00
        E 10 91 1d 70
        E 50 81 1d 00
        E 10 91 1d 70
        E 1430 81 1d 00
        E 10 91 1d 41
        E 480 81 1d 00
        E 480 91 1d 70
        E 960 81 1d 00
        E 0 91 1d 41
        E 384 81 1d 00
        E 96 91 1d 70
        E 1430 81 1d 00
        E 10 91 1d 41
        E 480 81 1d 00
        E 480 91 1d 76
        E 960 81 1d 00
        E 0 91 1d 41
        E 240 81 1d 00
        E 0 91 1d 41
        E 50 81 1d 00
        E 10 91 1c 41
        E 50 81 1c 00
        E 10 91 1b 41
        E 50 81 1b 00
        E 10 91 19 41
        E 50 81 19 00
        E 10 91 19 76
        E 1430 81 19 00
        E 10 91 19 41
        E 480 81 19 00
        E 480 91 20 70
        E 720 81 20 00
        E 0 91 20 69
        E 50 81 20 00
        E 10 91 1f 69
        E 50 81 1f 00
        E 10 91 1d 69
        E 50 81 1d 00
        E 10 91 19 69
        E 50 81 19 00
        E 10 91 19 41
        E 384 81 19 00
        E 96 91 19 70
        E 1430 81 19 00
        E 10 91 19 41
        E 480 81 19 00
        E 480 91 20 76
        E 720 81 20 00
        E 0 91 20 73
        E 50 81 20 00
        E 10 91 1f 73
        E 50 81 1f 00
        E 10 91 1d 73
        E 50 81 1d 00
        E 10 91 19 73
        E 50 81 19 00
        E 10 91 19 41
        E 240 81 19 00
        E 0 91 19 41
        E 50 81 19 00
        E 10 91 1b 41
        E 50 81 1b 00
        E 10 91 1d 41
        E 50 81 1d 00
        E 10 91 22 41
        E 50 81 22 00
        E 10 91 22 70
        E 1430 81 22 00
        E 10 91 22 41
        E 480 81 22 00
        E 480 91 22 70
        E 960 81 22 00
        E 0 91 22 41
        E 240 81 22 00
        E 0 91 22 41
        E 50 81 22 00
        E 10 91 21 41
        E 50 81 21 00
        E 10 91 20 41
        E 50 81 20 00
        E 10 91 1d 41
        E 50 81 1d 00
        E 10 91 1d 76
        E 1200 81 1d 00
        E 0 91 1d 73
        E 50 81 1d 00
        E 10 91 1e 73
        E 50 81 1e 00
        E 10 91 1f 73
        E 50 81 1f 00
        E 10 91 22 73
        E 50 81 22 00
        E 10 91 22 41
        E 480 81 22 00
        E 480 91 22 70
        E 960 81 22 00
        E 0 91 22 41
        E 240 81 22 00
        E 0 91 22 41
        E 50 81 22 00
        E 10 91 22 41
        E 50 81 22 00
        E 10 91 23 41
        E 50 81 23 00
        E 10 91 24 41
        E 50 81 24 00
        E 10 91 24 70
        E 1430 81 24 00
        E 10 91 24 41
        E 480 81 24 00
        E 480 91 24 70
        E 960 81 24 00
        E 0 91 24 41
        E 384 81 24 00
        E 96 91 24 70
        E 1430 81 24 00
        E 10 91 24 41
        E 480 81 24 00
        E 480 91 1f 76
        E 720 81 1f 00
        E 0 91 1f 73
        E 50 81 1f 00
        E 10 91 20 73
        E 50 81 20 00
        E 10 91 21 73
        E 50 81 21 00
        E 10 91 24 73
        E 50 81 24 00
        E 10 91 24 41
        E 384 81 24 00
        E 96 91 24 70
        E 1200 81 24 00
        E 0 91 24 69
        E 50 81 24 00
        E 10 91 23 69
        E 50 81 23 00
        E 10 91 21 69
        E 50 81 21 00
        E 10 91 1d 69
        E 50 81 1d 00
        E 10 91 1d 41
        E 480 81 1d 00
        E 480 91 24 70
        E 720 81 24 00
        E 0 91 24 69
        E 50 81 24 00
        E 10 91 23 69
        E 50 81 23 00
        E 10 91 21 69
        E 50 81 21 00
        E 10 91 1d 69
        E 50 81 1d 00
        E 10 91 1d 41
        E 384 81 1d 00
        E 96 91 1d 70
        E 1430 81 1d 00
        E 10 91 1d 41
        E 480 81 1d 00
        E 480 91 1d 70
        E 960 81 1d 00
        E 0 91 1d 41
        E 240 81 1d 00
        E 0 91 1d 41
        E 50 81 1d 00
        E 10 91 1e 41
        E 50 81 1e 00
        E 10 91 1e 41
        E 50 81 1e 00
        E 10 91 20 41
        E 50 81 20 00
        E 10 91 20 76
        E 1200 81 20 00
        E 0 91 20 73
        E 50 81 20 00
        E 10 91 1f 73
        E 50 81 1f 00
        E 10 91 1d 73
        E 50 81 1d 00
        E 10 91 19 73
        E 50 81 19 00
        E 10 91 19 41
        E 480 81 19 00
        E 480 91 19 76
        E 960 81 19 00
        E 0 91 19 41
        E 384 81 19 00
        E 96 91 19 70
        E 1430 81 19 00
        E 10 91 19 41
        E 480 81 19 00
        E 480 91 19 70
        E 960 81 19 00
        E 0 91 19 41
        E 240 81 19 00
        E 0 91 19 41
        E 50 81 19 00
        E 10 91 19 41
        E 50 81 19 00
        E 10 91 1a 41
        E 50 81 1a 00
        E 10 91 1b 41
        E 50 81 1b 00
        E 10 91 1b 70
        E 1430 81 1b 00
        E 10 91 1b 41
        E 480 81 1b 00
        E 480 91 1b 76
        E 960 81 1b 00
        E 0 91 1b 41
        E 384 81 1b 00
        E 96 91 1b 70
        E 1430 81 1b 00
        E 10 91 1b 41
        E 480 81 1b 00
        E 480 91 1b 76
        E 960 81 1b 00
        E 0 91 1b 41
        E 384 81 1b 00
        E 0 b1 7b 00
        E 1 ff 2f 00
      >
    >
  >
  <TRACK
    NAME "SynthLead"
    PEAKCOL 4284506208
    VOLPAN 1.000000 0 1 -1
    MIDIOUT -1
    ISBUS 0 0
    <ITEM
      POSITION 0.428571
      LENGTH 36.228571
      NAME "SynthLead"
      VOLPAN 1 0 1 -1
      <SOURCE MIDI
        HASDATA 1 960 QN
        E 0 c2 52 00
        E 960 92 54 56
        E 960 92 50 5d
        E 288 82 54 00
        E 672 92 4d 56
        E 288 82 50 00
        E 960 82 4d 00
        E 2592 92 54 56
        E 1248 82 54 00
        E 672 92 55 56
        E 960 92 50 5d
        E 288 82 55 00
        E 960 82 50 00
        E 672 92 4d 5d
        E 960 92 4d 56
        E 288 82 4d 00
        E 960 82 4d 00
        E 1632 92 49 5d
        E 1248 82 49 00
        E 672 92 46 5d
        E 960 92 49 56
        E 288 82 46 00
        E 672 92 49 5d
        E 288 82 49 00
        E 672 92 4d 56
        E 288 82 49 00
        E 672 92 4d 5d
        E 288 82 4d 00
        E 672 92 49 56
        E 288 82 4d 00
        E 672 92 48 5d
        E 288 82 49 00
        E 672 92 4b 56
        E 288 82 48 00
        E 672 92 48 5d
        E 288 82 4b 00
        E 672 92 48 56
        E 288 82 48 00
        E 672 92 48 5d
        E 288 82 48 00
        E 672 92 4b 56
        E 288 82 48 00
        E 672 92 48 5d
        E 288 82 4b 00
        E 672 92 48 56
        E 288 82 48 00
        E 672 92 44 5d
        E 288 82 48 00
        E 672 92 44 56
        E 288 82 44 00
        E 672 92 41 5d
        E 288 82 44 00
        E 672 92 41 56
        E 288 82 41 00
        E 672 92 3c 5d
        E 288 82 41 00
        E 672 92 41 56
        E 288 82 3c 00
        E 672 92 44 5d
        E 288 82 41 00
        E 672 92 44 56
        E 288 82 44 00
        E 672 92 49 5d
        E 288 82 44 00
        E 672 92 4d 56
        E 288 82 49 00
        E 672 92 50 5d
        E 288 82 4d 00
        E 672 92 50 56
        E 288 82 50 00
        E 672 92 4d 5d
        E 288 82 50 00
        E 672 92 50 56
        E 288 82 4d 00
        E 672 92 50 5d
        E 288 82 50 00
        E 672 92 55 56
        E 288 82 50 00
        E 672 92 52 5d
        E 288 82 55 00
        E 672 92 4d 56
        E 288 82 52 00
        E 672 92 49 5d
        E 288 82 4d 00
        E 672 92 46 56
        E 288 82 49 00
        E 672 92 49 5d
        E 288 82 46 00
        E 672 92 4d 56
        E 288 82 49 00
        E 672 92 52 5d
        E 288 82 4d 00
        E 672 92 55 56
        E 288 82 52 00
        E 672 92 54 5d
        E 288 82 55 00
        E 672 92 54 56
        E 288 82 54 00
        E 672 92 54 5d
        E 288 82 54 00
        E 672 92 54 56
        E 288 82 54 00
        E 672 92 57 5d
        E 288 82 54 00
        E 672 92 57 56
        E 288 82 57 00
        E 672 92 57 5d
        E 288 82 57 00
        E 672 92 4f 56
        E 288 82 57 00
        E 672 92 54 5d
        E 288 82 4f 00
        E 672 92 50 56
        E 288 82 54 00
        E 672 92 54 5d
        E 288 82 50 00
        E 672 92 54 56
        E 288 82 54 00
        E 672 92 54 5d
        E 288 82 54 00
        E 672 92 54 56
        E 288 82 54 00
        E 672 92 59 5d
        E 288 82 54 00
        E 672 92 54 56
        E 288 82 59 00
        E 672 92 55 5d
        E 288 82 54 00
        E 672 92 59 56
        E 288 82 55 00
        E 672 92 55 5d
        E 288 82 59 00
        E 960 82 55 00
        E 672 92 59 5d
        E 1248 82 59 00
        E 2592 92 4f 5d
        E 1248 82 4f 00
        E 1632 92 4f 56
        E 960 92 4b 5d
        E 288 82 4f 00
        E 960 82 4b 00
        E 0 b2 7b 00
        E 1 ff 2f 00
      >
    >
  >
  <TRACK
    NAME "Pad"
    PEAKCOL 4284506208
    VOLPAN 1.000000 0 1 -1
    MIDIOUT -1
    ISBUS 0 0
    <ITEM
      POSITION 0.000000
      LENGTH 35.225714
      NAME "Pad"
      VOLPAN 1 0 1 -1
      <SOURCE MIDI
        HASDATA 1 960 QN
        E 0 c3 58 00
        E 0 93 35 41
        E 1882 83 35 00
        E 38 93 28 41
        E 1882 83 28 00
        E 38 93 35 41
        E 1882 83 35 00
        E 38 93 28 41
        E 0 93 35 41
        E 1882 83 28 00
        E 0 83 35 00
        E 38 93 28 41
        E 0 93 35 41
        E 1882 83 28 00
        E 0 83 35 00
        E 38 93 35 41
        E 1882 83 35 00
        E 38 93 35 41
        E 1882 83 35 00
        E 38 93 28 41
        E 0 93 35 41
        E 0 93 3d 41
        E 1882 83 28 00
        E 0 83 35 00
        E 0 83 3d 00
        E 38 93 28 41
        E 0 93 35 41
        E 0 93 3d 41
        E 1882 83 28 00
        E 0 83 35 00
        E 0 83 3d 00
        E 38 93 28 41
        E 0 93 35 41
        E 0 93 3d 41
        E 1882 83 28 00
        E 0 83 35 00
        E 0 83 3d 00
        E 38 93 28 41
        E 0 93 35 41
        E 0 93 3d 41
        E 1882 83 28 00
        E 0 83 35 00
        E 0 83 3d 00
        E 38 93 28 41
        E 0 93 35 41
        E 0 93 3d 41
        E 1882 83 28 00
        E 0 83 35 00
        E 0 83 3d 00
        E 38 93 28 41
        E 0 93 33 41
        E 0 93 3c 41
        E 1882 83 28 00
        E 0 83 33 00
        E 0 83 3c 00
        E 38 93 28 41
        E 0 93 33 41
        E 0 93 3c 41
        E 1882 83 28 00
        E 0 83 33 00
        E 0 83 3c 00
        E 38 93 28 41
        E 0 93 33 41
        E 0 93 3c 41
        E 1882 83 28 00
        E 0 83 33 00
        E 0 83 3c 00
        E 38 93 28 41
        E 0 93 33 41
        E 0 93 3c 41
        E 1882 83 28 00
        E 0 83 33 00
        E 0 83 3c 00
        E 38 93 28 41
        E 0 93 35 41
        E 0 93 3c 41
        E 1882 83 28 00
        E 0 83 35 00
        E 0 83 3c 00
        E 38 93 28 41
        E 0 93 35 41
        E 0 93 3c 41
        E 1882 83 28 00
        E 0 83 35 00
        E 0 83 3c 00
        E 38 93 28 41
        E 0 93 35 41
        E 0 93 3c 41
        E 1882 83 28 00
        E 0 83 35 00
        E 0 83 3c 00
        E 38 93 28 41
        E 0 93 35 41
        E 0 93 3c 41
        E 1882 83 28 00
        E 0 83 35 00
        E 0 83 3c 00
        E 38 93 28 41
        E 0 93 35 41
        E 0 93 3d 41
        E 1882 83 28 00
        E 0 83 35 00
        E 0 83 3d 00
        E 38 93 28 41
        E 0 93 35 41
        E 0 93 3d 41
        E 1882 83 28 00
        E 0 83 35 00
        E 0 83 3d 00
        E 38 93 28 41
        E 0 93 35 41
        E 0 93 3d 41
        E 1882 83 28 00
        E 0 83 35 00
        E 0 83 3d 00
        E 38 93 28 41
        E 0 93 35 41
        E 0 93 3d 41
        E 1882 83 28 00
        E 0 83 35 00
        E 0 83 3d 00
        E 38 93 28 3e
        E 0 93 35 3e
        E 0 93 3d 3e
        E 1882 83 28 00
        E 0 83 35 00
        E 0 83 3d 00
        E 38 93 28 41
        E 0 93 35 41
        E 0 93 3d 41
        E 1882 83 28 00
        E 0 83 35 00
        E 0 83 3d 00
        E 38 93 28 41
        E 0 93 35 41
        E 0 93 3d 41
        E 1882 83 28 00
        E 0 83 35 00
        E 0 83 3d 00
        E 38 93 28 41
        E 0 93 35 41
        E 0 93 3d 41
        E 1882 83 28 00
        E 0 83 35 00
        E 0 83 3d 00
        E 38 93 28 41
        E 0 93 33 41
        E 0 93 3c 41
        E 1882 83 28 00
        E 0 83 33 00
        E 0 83 3c 00
        E 38 93 28 3e
        E 0 93 33 3e
        E 0 93 3c 3e
        E 1882 83 28 00
        E 0 83 33 00
        E 0 83 3c 00
        E 38 93 28 41
        E 0 93 33 41
        E 0 93 3c 41
        E 1882 83 28 00
        E 0 83 33 00
        E 0 83 3c 00
        E 38 93 28 3e
        E 0 93 33 3e
        E 0 93 3c 3e
        E 1882 83 28 00
        E 0 83 33 00
        E 0 83 3c 00
        E 38 93 28 41
        E 0 93 35 41
        E 0 93 3c 41
        E 1882 83 28 00
        E 0 83 35 00
        E 0 83 3c 00
        E 38 93 28 41
        E 0 93 35 41
        E 0 93 3c 41
        E 1882 83 28 00
        E 0 83 35 00
        E 0 83 3c 00
        E 38 93 28 41
        E 0 93 35 41
        E 0 93 3c 41
        E 1882 83 28 00
        E 0 83 35 00
        E 0 83 3c 00
        E 38 93 28 3e
        E 0 93 35 3e
        E 0 93 3c 3e
        E 1882 83 28 00
        E 0 83 35 00
        E 0 83 3c 00
        E 38 93 28 41
        E 0 93 35 41
        E 0 93 3d 41
        E 1882 83 28 00
        E 0 83 35 00
        E 0 83 3d 00
        E 38 93 28 41
        E 0 93 35 41
        E 0 93 3d 41
        E 1882 83 28 00
        E 0 83 35 00
        E 0 83 3d 00
        E 38 93 3d 41
        E 1882 83 3d 00
        E 38 93 3d 41
        E 1882 83 3d 00
        E 38 93 28 41
        E 1882 83 28 00
        E 0 b3 7b 00
        E 1 ff 2f 00
      >
    >
  >
  <TRACK
    NAME "Adlibs"
    PEAKCOL 4284506208
    VOLPAN 1.000000 0 1 -1
    MIDIOUT -1
    ISBUS 0 0
    <ITEM
      POSITION 0.698313
      LENGTH 31.270580
      NAME "Adlibs"
      VOLPAN 1 0 1 -1
      <SOURCE MIDI
        HASDATA 1 960 QN
        E 0 c4 36 00
        E 1564 94 50 4f
        E 607 84 50 00
        E 66 94 4d 3f
        E 772 84 4d 00
        E 2340 94 4d 4f
        E 807 84 4d 00
        E 9813 94 4d 4f
        E 409 84 4d 00
        E 957 94 49 46
        E 299 84 49 00
        E 2909 94 4d 4f
        E 344 84 4d 00
        E 568 94 4d 4f
        E 1216 84 4d 00
        E 640 94 4f 4f
        E 737 84 4f 00
        E 7567 94 54 4f
        E 1339 84 54 00
        E 876 94 50 4d
        E 769 94 50 3e
        E 274 84 50 00
        E 172 84 50 00
        E 3231 94 4d 4f
        E 453 84 4d 00
        E 3471 94 50 4f
        E 795 84 50 00
        E 5179 94 49 46
        E 289 84 49 00
        E 1655 94 49 43
        E 290 84 49 00
        E 286 94 52 48
        E 381 84 52 00
        E 850 94 52 4f
        E 345 84 52 00
        E 499 94 52 46
        E 480 84 52 00
        E 2853 94 54 46
        E 527 84 54 00
        E 402 94 4b 4d
        E 627 84 4b 00
        E 676 94 4b 4f
        E 381 84 4b 00
        E 1830 94 48 4f
        E 471 84 48 00
        E 1183 94 4d 46
        E 343 84 4d 00
        E 3072 94 4d 4f
        E 565 84 4d 00
        E 2750 94 50 45
        E 301 84 50 00
        E 1186 94 4d 4f
        E 970 84 4d 00
        E 0 b4 7b 00
        E 1 ff 2f 00
      >
    >
  >
>
