<REAPER_PROJECT 0.1 "7.0" 1700000000
  TEMPO 142.000000 4 4
  SAMPLERATE 48000 0 0
  RENDER_FILE ""
  RENDER_FMT 0 2 0
  RENDER_1X 0
  RENDER_RANGE 1 0 37.681315 0 0
  RENDER_RESAMPLE 3 0 1
  <MASTERTRACK
    VOLPAN 1 0 1 -1
    DEFCHAN 0
  >
  <TRACK
    NAME "Lead"
    PEAKCOL 4284506208
    VOLPAN 1.000000 0 1 -1
    MIDIOUT -1
    ISBUS 0 0
    <ITEM
      POSITION 0.000000
      LENGTH 35.781315
      NAME "Lead"
      VOLPAN 1 0 1 -1
      <SOURCE MIDI
        HASDATA 1 960 QN
        E 0 c0 51 00
        E 0 90 46 5e
        E 988 80 46 00
        E 75 90 45 3b
        E 527 90 45 44
        E 379 80 45 00
        E 519 80 45 00
        E 159 90 45 3b
        E 524 90 46 3b
        E 240 80 46 00
        E 134 80 45 00
        E 149 90 4a 3b
        E 808 80 4a 00
        E 230 90 46 43
        E 898 80 46 00
        E 161 90 46 67
        E 517 90 48 3c
        E 381 80 46 00
        E 517 80 48 00
        E 276 90 48 3b
        E 204 80 48 00
        E 265 90 4b 3b
        E 204 80 4b 00
        E 265 90 4f 46
        E 988 80 4f 00
        E 79 90 4d 3b
        E 898 80 4d 00
        E 383 90 4d 3b
        E 209 90 4f 4f
        E 208 90 51 4f
        E 32 80 4f 00
        E 177 90 54 4f
        E 31 80 51 00
        E 177 90 56 67
        E 32 80 54 00
        E 32 80 4d 00
        E 457 90 52 3b
        E 240 80 52 00
        E 281 90 4f 42
        E 453 80 56 00
        E 0 80 4f 00
        E 68 90 4f 3b
        E 680 80 4f 00
        E 375 90 51 3b
        E 525 90 52 3b
        E 240 80 52 00
        E 133 80 51 00
        E 152 90 56 3b
        E 612 80 56 00
        E 695 90 52 3f
        E 808 90 52 46
        E 551 80 52 00
        E 129 80 52 00
        E 373 90 4f 3b
        E 612 80 4f 00
        E 452 90 4f 3b
        E 988 80 4f 00
        E 301 90 51 3b
        E 408 90 52 3b
        E 240 80 52 00
        E 168 90 56 52
        E 82 80 51 00
        E 816 80 56 00
        E 147 90 52 3b
        E 612 80 52 00
        E 437 90 54 3b
        E 988 80 54 00
        E 304 90 52 5d
        E 453 80 52 00
        E 376 90 52 3b
        E 898 80 52 00
        E 159 90 52 3b
        E 808 80 52 00
        E 465 90 51 3b
        E 539 90 52 3b
        E 141 80 51 00
        E 99 80 52 00
        E 298 90 56 4b
        E 898 80 56 00
        E 665 90 52 4b
        E 988 80 52 00
        E 80 90 52 3c
        E 898 80 52 00
        E 146 90 52 40
        E 898 80 52 00
        E 154 90 52 3b
        E 808 80 52 00
        E 237 90 51 42
        E 748 80 51 00
        E 423 90 52 3b
        E 898 80 52 00
        E 44 90 56 3b
        E 898 80 56 00
        E 509 90 52 3b
        E 696 90 52 3b
        E 112 80 52 00
        E 786 80 52 00
        E 155 90 4f 52
        E 898 80 4f 00
        E 160 90 51 47
        E 530 90 4d 3b
        E 240 80 4d 00
        E 128 80 51 00
        E 163 90 4a 3b
        E 269 90 4b 3b
        E 229 80 4a 00
        E 11 80 4b 00
        E 30 90 4f 3b
        E 511 90 4f 3b
        E 477 80 4f 00
        E 58 90 4d 3b
        E 240 80 4d 00
        E 123 80 4f 00
        E 171 90 4a 44
        E 698 90 4b 3b
        E 200 80 4a 00
        E 40 80 4b 00
        E 458 90 4f 3b
        E 285 90 4d 3b
        E 523 80 4f 00
        E 89 80 4d 00
        E 699 90 4a 43
        E 161 90 4b 3b
        E 160 90 4f 3b
        E 80 80 4b 00
        E 81 90 51 3b
        E 79 80 4f 00
        E 81 90 54 3b
        E 80 80 51 00
        E 81 90 56 54
        E 79 80 54 00
        E 16 80 4a 00
        E 803 80 56 00
        E 34 90 54 3b
        E 808 80 54 00
        E 359 90 52 42
        E 952 90 52 3b
        E 36 80 52 00
        E 644 80 52 00
        E 373 90 52 4b
        E 527 90 4f 3b
        E 227 80 4f 00
        E 144 80 52 00
        E 918 90 51 42
        E 760 90 4f 3b
        E 228 80 51 00
        E 183 90 4d 3b
        E 240 80 4d 00
        E 171 90 4a 49
        E 76 80 4f 00
        E 442 90 4b 3b
        E 162 80 4a 00
        E 78 80 4b 00
        E 278 90 4f 42
        E 808 80 4f 00
        E 794 90 4d 3b
        E 453 80 4d 00
        E 579 90 4f 5c
        E 898 80 4f 00
        E 177 90 51 4d
        E 529 90 52 3b
        E 151 80 51 00
        E 89 80 52 00
        E 288 90 56 3b
        E 500 90 54 3b
        E 249 80 54 00
        E 239 80 56 00
        E 1115 90 52 54
        E 898 80 52 00
        E 136 90 52 3e
        E 408 80 52 00
        E 647 90 4f 40
        E 498 80 4f 00
        E 553 90 51 40
        E 531 90 52 3b
        E 240 80 52 00
        E 127 80 51 00
        E 163 90 56 3f
        E 898 80 56 00
        E 413 90 54 3b
        E 398 90 52 3b
        E 240 80 52 00
        E 158 90 4f 43
        E 12 80 54 00
        E 886 80 4f 00
        E 399 90 51 3b
        E 810 90 4f 3b
        E 88 80 51 00
        E 139 80 4f 00
        E 317 90 4f 3b
        E 754 90 51 3c
        E 54 80 4f 00
        E 773 90 4d 3e
        E 161 80 51 00
        E 737 80 4d 00
        E 132 90 4d 43
        E 680 80 4d 00
        E 618 90 4f 3b
        E 408 80 4f 00
        E 416 90 52 43
        E 748 80 52 00
        E 844 90 52 3f
        E 898 80 52 00
        E 368 90 4f 3b
        E 808 80 4f 00
        E 0 b0 7b 00
        E 1 ff 2f 00
      >
    >
  >
  <TRACK
    NAME "Drums"
    PEAKCOL 4290722362
    VOLPAN 1.000000 0 1 -1
    MIDIOUT -1
    ISBUS 0 0
    <ITEM
      POSITION 0.000000
      LENGTH 35.635211
      NAME "Drums"
      VOLPAN 1 0 1 -1
      <SOURCE MIDI
        HASDATA 1 960 QN
        E 0 c9 00 00
        E 0 99 37 77
        E 0 99 24 7c
        E 0 99 2a 60
        E 0 99 37 59
        E 0 99 3a 4f
        E 0 99 3e 54
        E 0 99 41 5a
        E 115 89 2a 00
        E 173 89 24 00
        E 192 99 2a 47
        E 115 89 2a 00
        E 365 99 2a 60
        E 115 89 2a 00
        E 125 99 26 7c
        E 0 99 27 65
        E 0 99 2a 46
        E 48 89 2a 00
        E 32 99 2a 46
        E 48 89 2a 00
        E 32 99 2a 51
        E 32 89 27 00
        E 16 89 2a 00
        E 32 89 37 00
        E 0 89 3a 00
        E 0 89 3e 00
        E 0 89 41 00
        E 0 89 26 00
        E 0 99 37 65
        E 0 99 2a 47
        E 115 89 2a 00
        E 173 89 37 00
        E 192 99 24 7c
        E 0 99 2a 60
        E 0 99 37 56
        E 0 99 3a 55
        E 0 99 3e 4f
        E 0 99 41 56
        E 115 89 2a 00
        E 173 89 37 00
        E 0 89 24 00
        E 192 99 37 65
        E 0 99 2a 47
        E 115 89 2a 00
        E 365 99 2a 60
        E 115 89 2a 00
        E 125 99 26 7c
        E 0 99 27 65
        E 192 89 27 00
        E 48 89 37 00
        E 0 89 3a 00
        E 0 89 3e 00
        E 0 89 41 00
        E 0 89 26 00
        E 0 99 2a 47
        E 115 89 2a 00
        E 365 99 37 77
        E 0 99 24 7c
        E 0 99 2a 60
        E 0 99 37 51
        E 0 99 3a 55
        E 0 99 3e 51
        E 0 99 41 52
        E 96 89 37 00
        E 19 89 2a 00
        E 173 89 24 00
        E 192 99 2a 47
        E 115 89 2a 00
        E 365 99 2a 60
        E 115 89 2a 00
        E 125 99 37 46
        E 0 99 26 7c
        E 0 99 27 65
        E 58 99 36 46
        E 19 89 37 00
        E 38 99 35 46
        E 20 89 36 00
        E 38 99 34 46
        E 19 89 27 00
        E 0 89 35 00
        E 38 99 33 46
        E 10 89 37 00
        E 0 89 3a 00
        E 0 89 3e 00
        E 0 89 41 00
        E 0 89 26 00
        E 0 99 32 65
        E 0 99 2a 47
        E 10 89 34 00
        E 57 89 33 00
        E 48 89 2a 00
        E 173 89 37 00
        E 192 99 24 7c
        E 0 99 2a 60
        E 0 99 37 56
        E 0 99 3a 55
        E 0 99 3e 55
        E 0 99 41 55
        E 115 89 2a 00
        E 173 89 32 00
        E 0 89 24 00
        E 192 99 32 65
        E 0 99 2a 47
        E 115 89 2a 00
        E 365 99 2e 60
        E 240 99 26 7c
        E 0 99 27 65
        E 48 89 2e 00
        E 144 89 27 00
        E 48 89 37 00
        E 0 89 3a 00
        E 0 89 3e 00
        E 0 89 41 00
        E 0 89 26 00
        E 0 99 2a 47
        E 115 89 2a 00
        E 365 99 3a 77
        E 0 99 24 7c
        E 0 99 2a 60
        E 0 99 3a 77
        E 0 99 3d 4f
        E 0 99 41 52
        E 0 99 38 4e
        E 96 89 32 00
        E 19 89 2a 00
        E 173 89 24 00
        E 192 99 2a 47
        E 115 89 2a 00
        E 365 99 2a 60
        E 115 89 2a 00
        E 125 99 3a 46
        E 0 99 26 7c
        E 0 99 27 65
        E 58 99 39 46
        E 19 89 3a 00
        E 38 99 38 46
        E 20 89 39 00
        E 38 99 37 46
        E 19 89 27 00
        E 0 89 38 00
        E 38 99 36 46
        E 10 89 3a 00
        E 0 89 3d 00
        E 0 89 41 00
        E 0 89 38 00
        E 0 89 26 00
        E 0 99 35 65
        E 0 99 2e 47
        E 10 89 37 00
        E 57 89 36 00
        E 221 89 3a 00
        E 0 89 2e 00
        E 192 99 24 7c
        E 0 99 2a 60
        E 0 99 3a 54
        E 0 99 3d 55
        E 0 99 41 59
        E 0 99 38 59
        E 115 89 2a 00
        E 125 99 35 46
        E 48 89 35 00
        E 0 89 24 00
        E 10 99 36 46
        E 19 89 35 00
        E 38 99 37 46
        E 20 89 36 00
        E 38 99 38 46
        E 19 89 37 00
        E 38 99 39 46
        E 10 99 3a 65
        E 0 99 2a 47
        E 10 89 38 00
        E 57 89 39 00
        E 48 89 2a 00
        E 365 99 2a 60
        E 115 89 2a 00
        E 125 99 26 7c
        E 0 99 27 65
        E 0 99 2a 46
        E 48 89 2a 00
        E 32 99 2a 46
        E 48 89 2a 00
        E 32 99 2a 51
        E 32 89 27 00
        E 16 89 2a 00
        E 32 89 3a 00
        E 0 89 3d 00
        E 0 89 41 00
        E 0 89 38 00
        E 0 89 26 00
        E 0 99 2a 47
        E 115 89 2a 00
        E 365 99 35 77
        E 0 99 24 7c
        E 0 99 2e 60
        E 0 99 3a 51
        E 0 99 3d 52
        E 0 99 41 56
        E 0 99 38 5a
        E 96 89 3a 00
        E 192 89 24 00
        E 0 89 2e 00
        E 192 99 2a 47
        E 115 89 2a 00
        E 365 99 2a 60
        E 115 89 2a 00
        E 125 99 26 7c
        E 0 99 27 65
        E 0 99 2a 46
        E 29 89 2a 00
        E 19 99 2a 46
        E 29 89 2a 00
        E 19 99 2a 46
        E 29 89 2a 00
        E 19 99 2a 58
        E 29 89 2a 00
        E 19 89 27 00
        E 0 99 2a 58
        E 29 89 2a 00
        E 19 89 3a 00
        E 0 89 3d 00
        E 0 89 41 00
        E 0 89 38 00
        E 0 89 26 00
        E 0 99 35 65
        E 0 99 2a 47
        E 115 89 2a 00
        E 173 89 35 00
        E 192 99 24 7c
        E 0 99 2a 60
        E 0 99 3a 4e
        E 0 99 3d 4f
        E 0 99 41 58
        E 0 99 38 59
        E 115 89 2a 00
        E 125 99 35 46
        E 48 89 35 00
        E 0 89 24 00
        E 10 99 36 46
        E 19 89 35 00
        E 38 99 37 46
        E 20 89 36 00
        E 38 99 38 46
        E 19 89 37 00
        E 38 99 39 46
        E 10 99 3a 65
        E 0 99 2a 47
        E 10 89 38 00
        E 57 89 39 00
        E 48 89 2a 00
        E 365 99 2e 60
        E 240 99 26 7c
        E 0 99 27 65
        E 0 99 2a 46
        E 48 89 2e 00
        E 0 89 2a 00
        E 32 99 2a 46
        E 48 89 2a 00
        E 32 99 2a 51
        E 32 89 27 00
        E 16 89 2a 00
        E 32 89 3a 00
        E 0 89 3d 00
        E 0 89 41 00
        E 0 89 38 00
        E 0 89 26 00
        E 0 99 2a 47
        E 115 89 2a 00
        E 365 99 30 77
        E 0 99 24 7c
        E 0 99 2a 60
        E 0 99 3f 54
        E 0 99 42 4e
        E 0 99 3a 4e
        E 0 99 3d 4f
        E 96 89 3a 00
        E 19 89 2a 00
        E 173 89 24 00
        E 192 99 2a 47
        E 115 89 2a 00
        E 365 99 2a 60
        E 115 89 2a 00
        E 125 99 26 7c
        E 0 99 27 65
        E 192 89 27 00
        E 48 89 3f 00
        E 0 89 42 00
        E 0 89 3a 00
        E 0 89 3d 00
        E 0 89 26 00
        E 0 99 30 65
        E 0 99 2a 47
        E 115 89 2a 00
        E 173 89 30 00
        E 192 99 24 7c
        E 0 99 2a 60
        E 0 99 3f 52
        E 0 99 42 5a
        E 0 99 3a 4f
        E 0 99 3d 4e
        E 115 89 2a 00
        E 125 99 2a 46
        E 29 89 2a 00
        E 19 89 30 00
        E 0 89 24 00
        E 0 99 2a 46
        E 29 89 2a 00
        E 19 99 2a 46
        E 29 89 2a 00
        E 19 99 2a 58
        E 29 89 2a 00
        E 19 99 2a 58
        E 29 89 2a 00
        E 19 99 30 65
        E 0 99 2a 47
        E 115 89 2a 00
        E 365 99 2a 60
        E 115 89 2a 00
        E 125 99 26 7c
        E 0 99 27 65
        E 192 89 27 00
        E 48 89 3f 00
        E 0 89 42 00
        E 0 89 3a 00
        E 0 89 3d 00
        E 0 89 26 00
        E 0 99 2a 47
        E 115 89 2a 00
        E 365 99 33 77
        E 0 99 24 7c
        E 0 99 2a 60
        E 0 99 3f 4f
        E 0 99 42 58
        E 0 99 3a 56
        E 0 99 3d 4f
        E 96 89 30 00
        E 19 89 2a 00
        E 173 89 24 00
        E 192 99 2a 47
        E 115 89 2a 00
        E 365 99 2a 60
        E 115 89 2a 00
        E 125 99 26 7c
        E 0 99 27 65
        E 0 99 2a 46
        E 21 89 2a 00
        E 13 99 2a 46
        E 21 89 2a 00
        E 14 99 2a 46
        E 21 89 2a 00
        E 13 99 2a 47
        E 21 89 2a 00
        E 13 99 2a 5a
        E 21 89 2a 00
        E 13 99 2a 54
        E 21 89 27 00
        E 0 89 2a 00
        E 14 99 2a 5a
        E 21 89 2a 00
        E 13 89 3f 00
        E 0 89 42 00
        E 0 89 3a 00
        E 0 89 3d 00
        E 0 89 26 00
        E 0 99 33 65
        E 0 99 2a 47
        E 115 89 2a 00
        E 173 89 33 00
        E 192 99 24 7c
        E 0 99 2a 60
        E 115 89 2a 00
        E 125 99 2a 46
        E 29 89 2a 00
        E 19 89 33 00
        E 0 89 24 00
        E 0 99 2a 46
        E 29 89 2a 00
        E 19 99 2a 46
        E 29 89 2a 00
        E 19 99 2a 58
        E 29 89 2a 00
        E 19 99 2a 58
        E 29 89 2a 00
        E 19 99 33 65
        E 0 99 2a 47
        E 115 89 2a 00
        E 365 99 2a 60
        E 115 89 2a 00
        E 125 99 26 7c
        E 0 99 27 65
        E 0 99 2a 46
        E 21 89 2a 00
        E 13 99 2a 46
        E 21 89 2a 00
        E 14 99 2a 47
        E 21 89 2a 00
        E 13 99 2a 47
        E 21 89 2a 00
        E 13 99 2a 54
        E 21 89 2a 00
        E 13 99 2a 54
        E 21 89 27 00
        E 0 89 2a 00
        E 14 99 2a 5a
        E 21 89 2a 00
        E 13 89 26 00
        E 0 99 2a 47
        E 115 89 2a 00
        E 365 99 35 77
        E 0 99 24 7c
        E 0 99 2a 60
        E 0 99 41 59
        E 0 99 38 56
        E 0 99 3c 5a
        E 0 99 3f 5a
        E 96 89 33 00
        E 19 89 2a 00
        E 173 89 24 00
        E 192 99 2e 47
        E 288 89 2e 00
        E 192 99 2a 60
        E 115 89 2a 00
        E 125 99 26 7c
        E 0 99 27 65
        E 192 89 27 00
        E 48 89 41 00
        E 0 89 38 00
        E 0 89 3c 00
        E 0 89 3f 00
        E 0 89 26 00
        E 0 99 35 65
        E 0 99 2a 47
        E 115 89 2a 00
        E 173 89 35 00
        E 192 99 24 7c
        E 0 99 2a 60
        E 0 99 41 58
        E 0 99 38 5a
        E 0 99 3c 55
        E 0 99 3f 55
        E 115 89 2a 00
        E 173 89 35 00
        E 0 89 24 00
        E 192 99 35 65
        E 0 99 2a 47
        E 115 89 2a 00
        E 365 99 2a 60
        E 115 89 2a 00
        E 125 99 26 7c
        E 0 99 27 65
        E 0 99 2a 46
        E 48 89 2a 00
        E 32 99 2a 51
        E 48 89 2a 00
        E 32 99 2a 51
        E 32 89 27 00
        E 16 89 2a 00
        E 32 89 41 00
        E 0 89 38 00
        E 0 89 3c 00
        E 0 89 3f 00
        E 0 89 26 00
        E 0 99 2a 47
        E 115 89 2a 00
        E 365 99 35 77
        E 0 99 24 7c
        E 0 99 2a 60
        E 0 99 41 55
        E 0 99 38 58
        E 0 99 3c 52
        E 0 99 3f 4e
        E 96 89 35 00
        E 19 89 2a 00
        E 173 89 24 00
        E 192 99 2a 47
        E 115 89 2a 00
        E 365 99 2a 60
        E 115 89 2a 00
        E 125 99 26 7c
        E 0 99 27 65
        E 192 89 27 00
        E 48 89 41 00
        E 0 89 38 00
        E 0 89 3c 00
        E 0 89 3f 00
        E 0 89 26 00
        E 0 99 35 65
        E 0 99 2a 47
        E 115 89 2a 00
        E 173 89 35 00
        E 192 99 24 7c
        E 0 99 2a 60
        E 115 89 2a 00
        E 125 99 35 46
        E 0 99 2a 46
        E 21 89 2a 00
        E 13 99 2a 47
        E 14 89 35 00
        E 0 89 24 00
        E 7 89 2a 00
        E 3 99 34 46
        E 11 99 2a 46
        E 8 89 35 00
        E 13 89 2a 00
        E 13 99 2a 47
        E 12 99 33 46
        E 9 89 2a 00
        E 11 89 34 00
        E 2 99 2a 54
        E 21 89 2a 00
        E 13 99 2a 54
        E 2 99 32 46
        E 19 89 33 00
        E 0 89 2a 00
        E 14 99 2a 5a
        E 21 89 2a 00
        E 3 99 31 46
        E 10 99 30 65
        E 0 99 2a 47
        E 10 89 32 00
        E 57 89 31 00
        E 48 89 2a 00
        E 365 99 2a 60
        E 115 89 2a 00
        E 125 99 26 7c
        E 0 99 27 65
        E 0 99 2a 46
        E 29 89 2a 00
        E 19 99 2a 46
        E 29 89 2a 00
        E 19 99 2a 46
        E 29 89 2a 00
        E 19 99 2a 4f
        E 29 89 2a 00
        E 19 89 27 00
        E 0 99 2a 58
        E 29 89 2a 00
        E 19 89 26 00
        E 0 99 2a 58
        E 115 89 2a 00
        E 365 99 37 77
        E 0 99 24 7c
        E 0 99 2a 60
        E 0 99 37 56
        E 0 99 3a 55
        E 0 99 3e 54
        E 0 99 41 4f
        E 96 89 30 00
        E 19 89 2a 00
        E 173 89 24 00
        E 192 99 2a 47
        E 115 89 2a 00
        E 365 99 2a 60
        E 115 89 2a 00
        E 125 99 37 46
        E 0 99 26 7c
        E 0 99 27 65
        E 0 99 2a 46
        E 29 89 2a 00
        E 19 99 2a 46
        E 10 99 36 46
        E 19 89 37 00
        E 0 89 2a 00
        E 19 99 2a 58
        E 19 99 35 46
        E 10 89 2a 00
        E 10 89 36 00
        E 9 99 2a 4f
        E 29 89 2a 00
        E 0 99 34 46
        E 19 89 27 00
        E 0 89 35 00
        E 0 99 2a 58
        E 29 89 2a 00
        E 9 99 33 46
        E 10 89 37 00
        E 0 89 3a 00
        E 0 89 3e 00
        E 0 89 41 00
        E 0 89 26 00
        E 0 99 32 65
        E 0 99 2a 47
        E 10 89 34 00
        E 57 89 33 00
        E 48 89 2a 00
        E 173 89 37 00
        E 192 99 24 7c
        E 0 99 2a 60
        E 0 99 37 51
        E 0 99 3a 59
        E 0 99 3e 4e
        E 0 99 41 56
        E 115 89 2a 00
        E 125 99 32 46
        E 0 99 2a 46
        E 29 89 2a 00
        E 19 89 32 00
        E 0 89 24 00
        E 0 99 2a 46
        E 10 99 33 46
        E 19 89 32 00
        E 0 89 2a 00
        E 19 99 2a 46
        E 19 99 34 46
        E 10 89 2a 00
        E 10 89 33 00
        E 9 99 2a 4f
        E 29 89 2a 00
        E 0 99 35 46
        E 19 89 34 00
        E 0 99 2a 58
        E 29 89 2a 00
        E 9 99 36 46
        E 10 99 37 65
        E 0 99 2a 47
        E 10 89 35 00
        E 57 89 36 00
        E 48 89 2a 00
        E 365 99 2a 60
        E 115 89 2a 00
        E 125 99 26 7c
        E 0 99 27 65
        E 192 89 27 00
        E 48 89 37 00
        E 0 89 3a 00
        E 0 89 3e 00
        E 0 89 41 00
        E 0 89 26 00
        E 0 99 2a 47
        E 115 89 2a 00
        E 365 99 32 77
        E 0 99 24 7c
        E 0 99 2a 60
        E 0 99 37 5a
        E 0 99 3a 5a
        E 0 99 3e 54
        E 0 99 41 54
        E 96 89 37 00
        E 19 89 2a 00
        E 173 89 24 00
        E 192 99 2a 47
        E 115 89 2a 00
        E 365 99 2a 60
        E 115 89 2a 00
        E 125 99 32 46
        E 0 99 26 7c
        E 0 99 27 65
        E 0 99 2a 46
        E 29 89 2a 00
        E 19 99 2a 46
        E 10 99 33 46
        E 19 89 32 00
        E 0 89 2a 00
        E 19 99 2a 46
        E 19 99 34 46
        E 10 89 2a 00
        E 10 89 33 00
        E 9 99 2a 58
        E 29 89 2a 00
        E 0 99 35 46
        E 19 89 27 00
        E 0 89 34 00
        E 0 99 2a 58
        E 29 89 2a 00
        E 9 99 36 46
        E 10 89 37 00
        E 0 89 3a 00
        E 0 89 3e 00
        E 0 89 41 00
        E 0 89 26 00
        E 0 99 37 65
        E 0 99 2a 47
        E 10 89 35 00
        E 57 89 36 00
        E 48 89 2a 00
        E 173 89 32 00
        E 192 99 24 7c
        E 0 99 2a 60
        E 0 99 37 56
        E 0 99 3a 52
        E 0 99 3e 51
        E 0 99 41 58
        E 115 89 2a 00
        E 125 99 2a 46
        E 21 89 2a 00
        E 13 99 2a 46
        E 14 89 37 00
        E 0 89 24 00
        E 7 89 2a 00
        E 14 99 2a 47
        E 21 89 2a 00
        E 13 99 2a 47
        E 21 89 2a 00
        E 13 99 2a 4e
        E 21 89 2a 00
        E 13 99 2a 54
        E 21 89 2a 00
        E 14 99 2a 5a
        E 21 89 2a 00
        E 13 99 37 65
        E 0 99 2e 47
        E 288 89 2e 00
        E 192 99 2a 60
        E 115 89 2a 00
        E 125 99 26 7c
        E 0 99 27 65
        E 192 89 27 00
        E 48 89 37 00
        E 0 89 3a 00
        E 0 89 3e 00
        E 0 89 41 00
        E 0 89 26 00
        E 0 99 2a 47
        E 115 89 2a 00
        E 365 99 3a 77
        E 0 99 24 7c
        E 0 99 2a 60
        E 0 99 3a 77
        E 0 99 3d 51
        E 0 99 41 5a
        E 0 99 38 4f
        E 96 89 37 00
        E 19 89 2a 00
        E 173 89 24 00
        E 192 99 2a 47
        E 115 89 2a 00
        E 365 99 2a 60
        E 115 89 2a 00
        E 125 99 3a 46
        E 0 99 26 7c
        E 0 99 27 65
        E 0 99 2a 46
        E 29 89 2a 00
        E 19 99 2a 46
        E 10 99 39 46
        E 19 89 3a 00
        E 0 89 2a 00
        E 19 99 2a 46
        E 19 99 38 46
        E 10 89 2a 00
        E 10 89 39 00
        E 9 99 2a 58
        E 29 89 2a 00
        E 0 99 37 46
        E 19 89 27 00
        E 0 89 38 00
        E 0 99 2a 58
        E 29 89 2a 00
        E 9 99 36 46
        E 10 89 3a 00
        E 0 89 3d 00
        E 0 89 41 00
        E 0 89 38 00
        E 0 89 26 00
        E 0 99 35 65
        E 0 99 2a 47
        E 10 89 37 00
        E 57 89 36 00
        E 48 89 2a 00
        E 173 89 3a 00
        E 192 99 24 7c
        E 0 99 2a 60
        E 115 89 2a 00
        E 125 99 35 46
        E 0 99 2a 46
        E 29 89 2a 00
        E 19 89 35 00
        E 0 89 24 00
        E 0 99 2a 4f
        E 10 99 36 46
        E 19 89 35 00
        E 0 89 2a 00
        E 19 99 2a 46
        E 19 99 37 46
        E 10 89 2a 00
        E 10 89 36 00
        E 9 99 2a 4f
        E 29 89 2a 00
        E 0 99 38 46
        E 19 89 37 00
        E 0 99 2a 58
        E 29 89 2a 00
        E 9 99 39 46
        E 10 99 3a 65
        E 0 99 2a 47
        E 10 89 38 00
        E 57 89 39 00
        E 48 89 2a 00
        E 365 99 2a 60
        E 115 89 2a 00
        E 125 99 26 7c
        E 0 99 27 65
        E 0 99 2a 46
        E 48 89 2a 00
        E 32 99 2a 46
        E 48 89 2a 00
        E 32 99 2a 51
        E 32 89 27 00
        E 16 89 2a 00
        E 32 89 26 00
        E 0 99 2a 47
        E 115 89 2a 00
        E 365 99 35 77
        E 0 99 24 7c
        E 0 99 2a 60
        E 0 99 3a 58
        E 0 99 3d 54
        E 0 99 41 5a
        E 0 99 38 4e
        E 96 89 3a 00
        E 19 89 2a 00
        E 173 89 24 00
        E 192 99 2a 47
        E 115 89 2a 00
        E 365 99 2a 60
        E 115 89 2a 00
        E 125 99 26 7c
        E 0 99 27 65
        E 0 99 2a 46
        E 21 89 2a 00
        E 13 99 2a 46
        E 21 89 2a 00
        E 14 99 2a 46
        E 21 89 2a 00
        E 13 99 2a 4e
        E 21 89 2a 00
        E 13 99 2a 4e
        E 21 89 2a 00
        E 13 99 2a 54
        E 21 89 27 00
        E 0 89 2a 00
        E 14 99 2a 5a
        E 21 89 2a 00
        E 13 89 3a 00
        E 0 89 3d 00
        E 0 89 41 00
        E 0 89 38 00
        E 0 89 26 00
        E 0 99 35 65
        E 0 99 2a 47
        E 115 89 2a 00
        E 173 89 35 00
        E 192 99 24 7c
        E 0 99 2a 60
        E 115 89 2a 00
        E 125 99 35 46
        E 0 99 2a 46
        E 48 89 35 00
        E 0 89 24 00
        E 0 89 2a 00
        E 10 99 36 46
        E 19 89 35 00
        E 3 99 2a 46
        E 35 99 37 46
        E 13 89 2a 00
        E 7 89 36 00
        E 25 99 2a 51
        E 13 99 38 46
        E 19 89 37 00
        E 16 89 2a 00
        E 22 99 39 46
        E 10 99 3a 65
        E 0 99 2a 47
        E 10 89 38 00
        E 57 89 39 00
        E 48 89 2a 00
        E 365 99 2e 60
        E 240 99 26 7c
        E 0 99 27 65
        E 0 99 2a 46
        E 21 89 2a 00
        E 13 99 2a 46
        E 14 89 2e 00
        E 7 89 2a 00
        E 14 99 2a 46
        E 21 89 2a 00
        E 13 99 2a 47
        E 21 89 2a 00
        E 13 99 2a 5a
        E 21 89 2a 00
        E 13 99 2a 54
        E 21 89 27 00
        E 0 89 2a 00
        E 14 99 2a 5a
        E 21 89 2a 00
        E 13 89 26 00
        E 0 99 2a 47
        E 115 89 2a 00
        E 365 99 30 77
        E 0 99 24 7c
        E 0 99 2a 60
        E 0 99 3f 56
        E 0 99 42 59
        E 0 99 3a 4f
        E 0 99 3d 4f
        E 96 89 3a 00
        E 19 89 2a 00
        E 173 89 24 00
        E 192 99 2a 47
        E 115 89 2a 00
        E 365 99 2a 60
        E 115 89 2a 00
        E 125 99 26 7c
        E 0 99 27 65
        E 0 99 2a 46
        E 48 89 2a 00
        E 32 99 2a 46
        E 48 89 2a 00
        E 32 99 2a 51
        E 32 89 27 00
        E 16 89 2a 00
        E 32 89 3f 00
        E 0 89 42 00
        E 0 89 3a 00
        E 0 89 3d 00
        E 0 89 26 00
        E 0 99 30 65
        E 0 99 2a 47
        E 115 89 2a 00
        E 173 89 30 00
        E 192 99 24 7c
        E 0 99 2a 60
        E 0 99 3f 52
        E 0 99 42 5a
        E 0 99 3a 52
        E 0 99 3d 58
        E 115 89 2a 00
        E 125 99 30 46
        E 0 99 2a 46
        E 29 89 2a 00
        E 19 89 30 00
        E 0 89 24 00
        E 0 99 2a 46
        E 10 99 31 46
        E 19 89 30 00
        E 0 89 2a 00
        E 19 99 2a 4f
        E 19 99 32 46
        E 10 89 2a 00
        E 10 89 31 00
        E 9 99 2a 4f
        E 29 89 2a 00
        E 19 89 32 00
        E 0 99 2a 58
        E 29 89 2a 00
        E 19 99 33 65
        E 0 99 2a 47
        E 115 89 2a 00
        E 365 99 2a 60
        E 115 89 2a 00
        E 125 99 26 7c
        E 0 99 27 65
        E 192 89 27 00
        E 48 89 3f 00
        E 0 89 42 00
        E 0 89 3a 00
        E 0 89 3d 00
        E 0 89 26 00
        E 0 99 2a 47
        E 115 89 2a 00
        E 365 99 33 77
        E 0 99 24 7c
        E 0 99 2a 60
        E 0 99 3f 58
        E 0 99 42 4f
        E 0 99 3a 4e
        E 0 99 3d 4e
        E 96 89 33 00
        E 19 89 2a 00
        E 173 89 24 00
        E 192 99 2e 47
        E 288 89 2e 00
        E 192 99 2a 60
        E 115 89 2a 00
        E 125 99 26 7c
        E 0 99 27 65
        E 0 99 2a 46
        E 21 89 2a 00
        E 13 99 2a 46
        E 21 89 2a 00
        E 14 99 2a 4e
        E 21 89 2a 00
        E 13 99 2a 47
        E 21 89 2a 00
        E 13 99 2a 4e
        E 21 89 2a 00
        E 13 99 2a 54
        E 21 89 27 00
        E 0 89 2a 00
        E 14 99 2a 5a
        E 21 89 2a 00
        E 13 89 3f 00
        E 0 89 42 00
        E 0 89 3a 00
        E 0 89 3d 00
        E 0 89 26 00
        E 0 99 33 65
        E 0 99 2a 47
        E 115 89 2a 00
        E 173 89 33 00
        E 192 99 24 7c
        E 0 99 2a 60
        E 0 99 3f 52
        E 0 99 42 5a
        E 0 99 3a 55
        E 0 99 3d 52
        E 115 89 2a 00
        E 125 99 2a 46
        E 29 89 2a 00
        E 19 89 33 00
        E 0 89 24 00
        E 0 99 2a 46
        E 29 89 2a 00
        E 19 99 2a 46
        E 29 89 2a 00
        E 19 99 2a 58
        E 29 89 2a 00
        E 19 99 2a 58
        E 29 89 2a 00
        E 19 99 33 65
        E 0 99 2a 47
        E 115 89 2a 00
        E 365 99 2a 60
        E 115 89 2a 00
        E 125 99 26 7c
        E 0 99 27 65
        E 0 99 2a 46
        E 21 89 2a 00
        E 13 99 2a 46
        E 21 89 2a 00
        E 14 99 2a 46
        E 21 89 2a 00
        E 13 99 2a 4e
        E 21 89 2a 00
        E 13 99 2a 4e
        E 21 89 2a 00
        E 13 99 2a 5a
        E 21 89 27 00
        E 0 89 2a 00
        E 14 99 2a 5a
        E 21 89 2a 00
        E 13 89 3f 00
        E 0 89 42 00
        E 0 89 3a 00
        E 0 89 3d 00
        E 0 89 26 00
        E 0 99 2e 47
        E 288 89 2e 00
        E 192 99 35 77
        E 0 99 24 7c
        E 0 99 2a 60
        E 0 99 41 58
        E 0 99 38 59
        E 0 99 3c 5a
        E 0 99 3f 51
        E 96 89 33 00
        E 19 89 2a 00
        E 173 89 24 00
        E 192 99 2a 47
        E 115 89 2a 00
        E 365 99 2a 60
        E 115 89 2a 00
        E 125 99 35 46
        E 0 99 26 7c
        E 0 99 27 65
        E 58 99 34 46
        E 19 89 35 00
        E 38 99 33 46
        E 20 89 34 00
        E 38 99 32 46
        E 19 89 27 00
        E 0 89 33 00
        E 38 99 31 46
        E 10 89 41 00
        E 0 89 38 00
        E 0 89 3c 00
        E 0 89 3f 00
        E 0 89 26 00
        E 0 99 30 65
        E 0 99 2e 47
        E 10 89 32 00
        E 57 89 31 00
        E 221 89 35 00
        E 0 89 2e 00
        E 192 99 24 7c
        E 0 99 2a 60
        E 115 89 2a 00
        E 125 99 30 46
        E 0 99 2a 46
        E 21 89 2a 00
        E 13 99 2a 46
        E 14 89 30 00
        E 0 89 24 00
        E 7 89 2a 00
        E 3 99 31 46
        E 11 99 2a 46
        E 8 89 30 00
        E 13 89 2a 00
        E 13 99 2a 4e
        E 12 99 32 46
        E 9 89 2a 00
        E 11 89 31 00
        E 2 99 2a 4e
        E 21 89 2a 00
        E 13 99 2a 54
        E 2 99 33 46
        E 19 89 32 00
        E 0 89 2a 00
        E 14 99 2a 5a
        E 21 89 2a 00
        E 3 99 34 46
        E 10 99 35 65
        E 0 99 2a 47
        E 10 89 33 00
        E 57 89 34 00
        E 48 89 2a 00
        E 365 99 2a 60
        E 115 89 2a 00
        E 125 99 26 7c
        E 0 99 27 65
        E 192 89 27 00
        E 48 89 26 00
        E 0 99 2a 47
        E 115 89 2a 00
        E 365 99 30 77
        E 0 99 24 7c
        E 0 99 2a 60
        E 0 99 41 55
        E 0 99 38 58
        E 0 99 3c 52
        E 0 99 3f 52
        E 96 89 35 00
        E 19 89 2a 00
        E 173 89 24 00
        E 192 99 2a 47
        E 115 89 2a 00
        E 365 99 2a 60
        E 115 89 2a 00
        E 125 99 26 7c
        E 0 99 27 65
        E 192 89 27 00
        E 48 89 41 00
        E 0 89 38 00
        E 0 89 3c 00
        E 0 89 3f 00
        E 0 89 26 00
        E 0 99 30 65
        E 0 99 2a 47
        E 115 89 2a 00
        E 173 89 30 00
        E 192 99 24 7c
        E 0 99 2a 60
        E 115 89 2a 00
        E 125 99 30 46
        E 48 89 30 00
        E 0 89 24 00
        E 10 99 31 46
        E 19 89 30 00
        E 38 99 32 46
        E 20 89 31 00
        E 38 99 33 46
        E 19 89 32 00
        E 38 99 34 46
        E 10 99 35 65
        E 0 99 2a 47
        E 10 89 33 00
        E 57 89 34 00
        E 48 89 2a 00
        E 365 99 2a 60
        E 115 89 2a 00
        E 125 99 26 7c
        E 0 99 27 65
        E 192 89 27 00
        E 48 89 26 00
        E 0 99 2e 47
        E 288 89 2e 00
        E 192 99 37 77
        E 0 99 24 7c
        E 0 99 2e 60
        E 0 99 37 4e
        E 0 99 3a 59
        E 0 99 3e 55
        E 0 99 41 58
        E 96 89 35 00
        E 192 89 24 00
        E 0 89 2e 00
        E 192 99 2a 47
        E 115 89 2a 00
        E 365 99 2e 60
        E 240 99 26 7c
        E 0 99 27 65
        E 48 89 2e 00
        E 144 89 27 00
        E 48 89 37 00
        E 0 89 3a 00
        E 0 89 3e 00
        E 0 89 41 00
        E 0 89 26 00
        E 0 99 37 65
        E 0 99 2a 47
        E 115 89 2a 00
        E 173 89 37 00
        E 192 99 24 7c
        E 0 99 2e 60
        E 240 99 37 46
        E 0 99 2a 46
        E 48 89 37 00
        E 0 89 24 00
        E 0 89 2e 00
        E 0 89 2a 00
        E 10 99 36 46
        E 19 89 37 00
        E 3 99 2a 46
        E 35 99 35 46
        E 13 89 2a 00
        E 7 89 36 00
        E 25 99 2a 51
        E 13 99 34 46
        E 19 89 35 00
        E 16 89 2a 00
        E 22 99 33 46
        E 10 99 32 65
        E 0 99 2a 47
        E 10 89 34 00
        E 57 89 33 00
        E 48 89 2a 00
        E 365 99 2a 60
        E 115 89 2a 00
        E 125 99 26 7c
        E 0 99 27 65
        E 0 99 2a 46
        E 29 89 2a 00
        E 19 99 2a 46
        E 29 89 2a 00
        E 19 99 2a 46
        E 29 89 2a 00
        E 19 99 2a 4f
        E 29 89 2a 00
        E 19 89 27 00
        E 0 99 2a 58
        E 29 89 2a 00
        E 19 89 26 00
        E 0 99 2a 47
        E 115 89 2a 00
        E 365 99 37 77
        E 0 99 24 7c
        E 0 99 2a 60
        E 0 99 37 77
        E 0 99 3a 52
        E 0 99 3e 56
        E 0 99 41 4f
        E 96 89 32 00
        E 19 89 2a 00
        E 173 89 24 00
        E 192 99 2a 47
        E 115 89 2a 00
        E 365 99 2a 60
        E 115 89 2a 00
        E 125 99 26 7c
        E 0 99 27 65
        E 0 99 2a 46
        E 29 89 2a 00
        E 19 99 2a 46
        E 29 89 2a 00
        E 19 99 2a 46
        E 29 89 2a 00
        E 19 99 2a 58
        E 29 89 2a 00
        E 19 89 27 00
        E 0 99 2a 58
        E 29 89 2a 00
        E 19 89 37 00
        E 0 89 3a 00
        E 0 89 3e 00
        E 0 89 41 00
        E 0 89 26 00
        E 0 99 37 65
        E 0 99 2a 47
        E 115 89 2a 00
        E 173 89 37 00
        E 192 99 24 7c
        E 0 99 2a 60
        E 115 89 2a 00
        E 173 89 37 00
        E 0 89 24 00
        E 192 99 37 65
        E 0 99 2a 47
        E 115 89 2a 00
        E 365 99 2a 60
        E 115 89 2a 00
        E 125 99 26 7c
        E 0 99 27 65
        E 192 89 27 00
        E 48 89 26 00
        E 0 99 2a 47
        E 115 89 2a 00
        E 365 99 30 77
        E 0 99 24 7c
        E 0 99 2a 60
        E 0 99 3f 5a
        E 0 99 42 51
        E 0 99 3a 4f
        E 0 99 3d 52
        E 96 89 37 00
        E 19 89 2a 00
        E 173 89 24 00
        E 192 99 2a 47
        E 115 89 2a 00
        E 365 99 2a 60
        E 115 89 2a 00
        E 125 99 26 7c
        E 0 99 27 65
        E 0 99 2a 46
        E 21 89 2a 00
        E 13 99 2a 46
        E 21 89 2a 00
        E 14 99 2a 46
        E 21 89 2a 00
        E 13 99 2a 54
        E 21 89 2a 00
        E 13 99 2a 5a
        E 21 89 2a 00
        E 13 99 2a 54
        E 21 89 27 00
        E 0 89 2a 00
        E 14 99 2a 5a
        E 21 89 2a 00
        E 13 89 3f 00
        E 0 89 42 00
        E 0 89 3a 00
        E 0 89 3d 00
        E 0 89 26 00
        E 0 99 30 65
        E 0 99 2a 47
        E 115 89 2a 00
        E 173 89 30 00
        E 192 99 24 7c
        E 0 99 2a 60
        E 115 89 2a 00
        E 125 99 2a 46
        E 21 89 2a 00
        E 13 99 2a 46
        E 14 89 30 00
        E 0 89 24 00
        E 7 89 2a 00
        E 14 99 2a 46
        E 21 89 2a 00
        E 13 99 2a 47
        E 21 89 2a 00
        E 13 99 2a 4e
        E 21 89 2a 00
        E 13 99 2a 54
        E 21 89 2a 00
        E 14 99 2a 5a
        E 21 89 2a 00
        E 13 99 30 65
        E 0 99 2a 5a
        E 115 89 2a 00
        E 365 99 2e 60
        E 240 99 26 7c
        E 0 99 27 65
        E 48 89 2e 00
        E 144 89 27 00
        E 48 89 26 00
        E 0 99 2a 47
        E 115 89 2a 00
        E 365 99 30 77
        E 0 99 24 7c
        E 0 99 2a 60
        E 0 99 3f 51
        E 0 99 42 5a
        E 0 99 3a 4e
        E 0 99 3d 4f
        E 96 89 30 00
        E 19 89 2a 00
        E 173 89 24 00
        E 192 99 2a 47
        E 115 89 2a 00
        E 365 99 2a 60
        E 115 89 2a 00
        E 125 99 30 46
        E 0 99 26 7c
        E 0 99 27 65
        E 58 99 31 46
        E 19 89 30 00
        E 38 99 32 46
        E 20 89 31 00
        E 57 89 27 00
        E 0 89 32 00
        E 48 89 3f 00
        E 0 89 42 00
        E 0 89 3a 00
        E 0 89 3d 00
        E 0 89 26 00
        E 0 99 33 65
        E 0 99 2a 47
        E 115 89 2a 00
        E 173 89 30 00
        E 192 99 24 7c
        E 0 99 2e 60
        E 0 99 3f 52
        E 0 99 42 58
        E 0 99 3a 58
        E 0 99 3d 4f
        E 240 99 33 46
        E 0 99 2a 46
        E 48 89 33 00
        E 0 89 24 00
        E 0 89 2e 00
        E 0 89 2a 00
        E 10 99 32 46
        E 19 89 33 00
        E 3 99 2a 46
        E 35 99 31 46
        E 13 89 2a 00
        E 7 89 32 00
        E 25 99 2a 51
        E 32 89 31 00
        E 16 89 2a 00
        E 32 99 30 65
        E 0 99 2a 47
        E 115 89 2a 00
        E 365 99 2a 60
        E 115 89 2a 00
        E 125 99 26 7c
        E 0 99 27 65
        E 0 99 2a 46
        E 48 89 2a 00
        E 32 99 2a 46
        E 48 89 2a 00
        E 32 99 2a 51
        E 32 89 27 00
        E 16 89 2a 00
        E 32 89 3f 00
        E 0 89 42 00
        E 0 89 3a 00
        E 0 89 3d 00
        E 0 89 26 00
        E 0 99 2a 47
        E 115 89 2a 00
        E 365 99 3c 77
        E 0 99 24 7c
        E 0 99 2a 60
        E 0 99 3c 77
        E 0 99 3f 4f
        E 0 99 37 58
        E 0 99 3a 4f
        E 96 89 30 00
        E 19 89 2a 00
        E 173 89 24 00
        E 192 99 2a 47
        E 115 89 2a 00
        E 365 99 2e 60
        E 240 99 26 7c
        E 0 99 27 65
        E 48 89 2e 00
        E 144 89 27 00
        E 48 89 3c 00
        E 0 89 3f 00
        E 0 89 37 00
        E 0 89 3a 00
        E 0 89 26 00
        E 0 99 3c 65
        E 0 99 2a 47
        E 115 89 2a 00
        E 173 89 3c 00
        E 192 99 24 7c
        E 0 99 2a 60
        E 0 99 3c 56
        E 0 99 3f 59
        E 0 99 37 4f
        E 0 99 3a 4f
        E 115 89 2a 00
        E 125 99 2a 46
        E 48 89 3c 00
        E 0 89 24 00
        E 0 89 2a 00
        E 32 99 2a 46
        E 48 89 2a 00
        E 32 99 2a 51
        E 48 89 2a 00
        E 32 99 3c 65
        E 0 99 2e 47
        E 288 89 2e 00
        E 192 99 2a 60
        E 115 89 2a 00
        E 125 99 26 7c
        E 0 99 27 65
        E 0 99 2a 46
        E 21 89 2a 00
        E 13 99 2a 46
        E 21 89 2a 00
        E 14 99 2a 47
        E 21 89 2a 00
        E 13 99 2a 47
        E 21 89 2a 00
        E 13 99 2a 54
        E 21 89 2a 00
        E 13 99 2a 54
        E 21 89 27 00
        E 0 89 2a 00
        E 14 99 2a 5a
        E 21 89 2a 00
        E 13 89 3c 00
        E 0 89 3f 00
        E 0 89 37 00
        E 0 89 3a 00
        E 0 89 26 00
        E 0 99 2a 47
        E 115 89 2a 00
        E 461 89 3c 00
        E 0 b9 7b 00
        E 1 ff 2f 00
      >
    >
  >
  <TRACK
    NAME "808"
    PEAKCOL 4284506208
    VOLPAN 1.000000 0 1 -1
    MIDIOUT -1
    ISBUS 0 0
    <ITEM
      POSITION 0.000000
      LENGTH 35.626761
      NAME "808"
      VOLPAN 1 0 1 -1
      <SOURCE MIDI
        HASDATA 1 960 QN
        E 0 c1 27 00
        E 0 91 1f 6f
        E 1680 81 1f 00
        E 0 91 1f 69
        E 50 81 1f 00
        E 10 91 1e 69
        E 50 81 1e 00
        E 10 91 1d 69
        E 50 81 1d 00
        E 10 91 1a 6f
        E 50 81 1a 00
        E 10 91 1a 6f
        E 768 81 1a 00
        E 192 91 1a 56
        E 0 91 1f 6f
        E 86 81 1a 00
        E 10 81 1f 00
        E 0 91 1f 69
        E 24 81 1f 00
        E 10 91 1e 69
        E 24 81 1e 00
        E 9 91 1d 69
        E 24 81 1d 00
        E 10 91 1b 69
        E 24 81 1b 00
        E 9 91 1b 56
        E 86 81 1b 00
        E 10 91 1b 52
        E 24 81 1b 00
        E 10 91 1b 52
        E 24 81 1b 00
        E 10 91 1b 52
        E 24 81 1b 00
        E 9 91 1c 52
        E 24 81 1c 00
        E 10 91 1c 56
        E 96 81 1c 00
        E 0 91 1c 52
        E 24 81 1c 00
        E 9 91 1c 52
        E 24 81 1c 00
        E 10 91 1c 52
        E 24 81 1c 00
        E 10 91 1d 52
        E 24 81 1d 00
        E 9 91 1d 56
        E 86 81 1d 00
        E 10 91 1d 52
        E 24 81 1d 00
        E 10 91 1d 52
        E 24 81 1d 00
        E 9 91 1d 52
        E 24 81 1d 00
        E 10 91 1e 56
        E 24 81 1e 00
        E 10 91 1e 56
        E 29 81 1e 00
        E 9 91 1f 6f
        E 1910 81 1f 00
        E 10 91 1f 6f
        E 768 81 1f 00
        E 192 91 1f 6f
        E 950 81 1f 00
        E 10 91 1f 56
        E 0 91 22 6f
        E 432 81 1f 00
        E 192 81 22 00
        E 0 91 22 69
        E 50 81 22 00
        E 10 91 22 69
        E 50 81 22 00
        E 10 91 21 69
        E 50 81 21 00
        E 10 91 20 69
        E 50 81 20 00
        E 10 91 20 56
        E 432 81 20 00
        E 432 91 21 56
        E 96 81 21 00
        E 0 91 21 52
        E 14 81 21 00
        E 10 91 21 52
        E 14 81 21 00
        E 10 91 21 52
        E 14 81 21 00
        E 10 91 22 52
        E 14 81 22 00
        E 10 91 22 74
        E 768 81 22 00
        E 192 91 22 6f
        E 950 81 22 00
        E 10 91 22 6f
        E 1910 81 22 00
        E 10 91 22 6f
        E 768 81 22 00
        E 192 91 22 6f
        E 720 81 22 00
        E 0 91 22 69
        E 50 81 22 00
        E 10 91 21 69
        E 50 81 21 00
        E 10 91 1f 69
        E 50 81 1f 00
        E 10 91 1b 69
        E 50 81 1b 00
        E 10 91 1b 6f
        E 0 91 1b 6f
        E 121 81 1b 00
        E 9 81 1b 00
        E 0 91 1b 69
        E 50 81 1b 00
        E 10 91 1b 69
        E 50 81 1b 00
        E 10 91 1b 69
        E 50 81 1b 00
        E 10 91 1c 69
        E 50 81 1c 00
        E 10 91 1c 56
        E 130 81 1c 00
        E 1 91 1c 52
        E 50 81 1c 00
        E 10 91 1c 52
        E 50 81 1c 00
        E 10 91 1c 52
        E 50 81 1c 00
        E 10 91 1d 52
        E 50 81 1d 00
        E 10 91 1d 56
        E 130 81 1d 00
        E 0 91 1d 52
        E 50 81 1d 00
        E 10 91 1d 52
        E 50 81 1d 00
        E 10 91 1d 52
        E 50 81 1d 00
        E 10 91 1e 52
        E 50 81 1e 00
        E 10 91 1e 56
        E 130 81 1e 00
        E 0 91 1e 52
        E 50 81 1e 00
        E 10 91 1e 52
        E 50 81 1e 00
        E 10 91 1e 52
        E 50 81 1e 00
        E 10 91 1f 52
        E 50 81 1f 00
        E 10 91 1f 56
        E 130 81 1f 00
        E 0 91 1f 52
        E 50 81 1f 00
        E 10 91 1f 52
        E 50 81 1f 00
        E 10 91 1f 52
        E 50 81 1f 00
        E 10 91 20 52
        E 50 81 20 00
        E 10 91 20 56
        E 59 81 20 00
        E 10 91 1b 6f
        E 96 81 1b 00
        E 0 91 1b 69
        E 42 81 1b 00
        E 9 91 1c 69
        E 42 81 1c 00
        E 10 91 1e 69
        E 42 81 1e 00
        E 9 91 21 69
        E 42 81 21 00
        E 10 91 21 56
        E 185 81 21 00
        E 473 91 1b 6f
        E 950 81 1b 00
        E 10 91 1b 6f
        E 1910 81 1b 00
        E 10 91 1b 74
        E 768 81 1b 00
        E 192 91 1b 6f
        E 950 81 1b 00
        E 10 91 1b 56
        E 0 91 1d 6f
        E 648 81 1b 00
        E 408 81 1d 00
        E 0 91 1d 69
        E 50 81 1d 00
        E 10 91 1d 69
        E 50 81 1d 00
        E 10 91 1d 69
        E 50 81 1d 00
        E 10 91 1c 69
        E 50 81 1c 00
        E 10 91 1c 56
        E 384 81 1c 00
        E 0 91 1c 52
        E 50 81 1c 00
        E 10 91 1c 52
        E 50 81 1c 00
        E 10 91 1c 52
        E 50 81 1c 00
        E 10 91 1d 52
        E 50 81 1d 00
        E 10 91 1d 6f
        E 768 81 1d 00
        E 192 91 1d 6f
        E 950 81 1d 00
        E 10 91 1d 6f
        E 1910 81 1d 00
        E 10 91 1d 6f
        E 768 81 1d 00
        E 192 91 1d 6f
        E 950 81 1d 00
        E 10 91 1d 56
        E 0 91 1f 6f
        E 648 81 1d 00
        E 408 81 1f 00
        E 0 91 1f 69
        E 50 81 1f 00
        E 10 91 1f 69
        E 50 81 1f 00
        E 10 91 1f 69
        E 50 81 1f 00
        E 10 91 1e 69
        E 50 81 1e 00
        E 10 91 1e 56
        E 384 81 1e 00
        E 0 91 1e 52
        E 50 81 1e 00
        E 10 91 1d 52
        E 50 81 1d 00
        E 10 91 1c 52
        E 50 81 1c 00
        E 10 91 1a 74
        E 50 81 1a 00
        E 10 91 1a 74
        E 768 81 1a 00
        E 192 91 1a 56
        E 0 91 1f 6f
        E 86 81 1a 00
        E 10 81 1f 00
        E 0 91 1f 69
        E 24 81 1f 00
        E 10 91 1e 69
        E 24 81 1e 00
        E 9 91 1d 69
        E 24 81 1d 00
        E 10 91 1b 69
        E 24 81 1b 00
        E 9 91 1b 69
        E 96 81 1b 00
        E 0 91 1b 52
        E 24 81 1b 00
        E 10 91 1b 52
        E 24 81 1b 00
        E 10 91 1b 52
        E 24 81 1b 00
        E 9 91 1c 52
        E 24 81 1c 00
        E 10 91 1c 56
        E 96 81 1c 00
        E 0 91 1c 52
        E 24 81 1c 00
        E 9 91 1c 52
        E 24 81 1c 00
        E 10 91 1c 52
        E 24 81 1c 00
        E 10 91 1d 52
        E 24 81 1d 00
        E 9 91 1d 56
        E 96 81 1d 00
        E 0 91 1d 52
        E 24 81 1d 00
        E 10 91 1d 52
        E 24 81 1d 00
        E 9 91 1d 52
        E 24 81 1d 00
        E 10 91 1e 56
        E 24 81 1e 00
        E 10 91 1e 56
        E 29 81 1e 00
        E 9 91 1f 6f
        E 1910 81 1f 00
        E 10 91 1f 6f
        E 768 81 1f 00
        E 192 91 1f 6f
        E 950 81 1f 00
        E 10 91 1f 56
        E 0 91 22 6f
        E 432 81 1f 00
        E 192 81 22 00
        E 0 91 22 69
        E 50 81 22 00
        E 10 91 22 69
        E 50 81 22 00
        E 10 91 21 69
        E 50 81 21 00
        E 10 91 20 69
        E 50 81 20 00
        E 10 91 20 56
        E 432 81 20 00
        E 432 91 21 56
        E 96 81 21 00
        E 0 91 21 52
        E 14 81 21 00
        E 10 91 20 52
        E 14 81 20 00
        E 10 91 1f 52
        E 14 81 1f 00
        E 10 91 1d 74
        E 14 81 1d 00
        E 10 91 1d 74
        E 768 81 1d 00
        E 192 91 1d 56
        E 0 91 22 6f
        E 86 81 1d 00
        E 10 81 22 00
        E 0 91 22 69
        E 24 81 22 00
        E 10 91 21 69
        E 24 81 21 00
        E 9 91 20 69
        E 24 81 20 00
        E 10 91 1e 69
        E 24 81 1e 00
        E 9 91 1e 56
        E 96 81 1e 00
        E 0 91 1e 52
        E 24 81 1e 00
        E 10 91 1e 52
        E 24 81 1e 00
        E 10 91 1e 52
        E 24 81 1e 00
        E 9 91 1f 56
        E 24 81 1f 00
        E 10 91 1f 56
        E 96 81 1f 00
        E 0 91 1f 52
        E 24 81 1f 00
        E 9 91 1f 52
        E 24 81 1f 00
        E 10 91 1f 52
        E 24 81 1f 00
        E 10 91 20 52
        E 24 81 20 00
        E 9 91 20 56
        E 96 81 20 00
        E 0 91 20 52
        E 24 81 20 00
        E 10 91 20 52
        E 24 81 20 00
        E 9 91 20 52
        E 24 81 20 00
        E 10 91 21 52
        E 24 81 21 00
        E 10 91 21 56
        E 29 81 21 00
        E 9 91 22 6f
        E 1910 81 22 00
        E 10 91 22 74
        E 768 81 22 00
        E 192 91 22 6f
        E 720 81 22 00
        E 0 91 22 69
        E 50 81 22 00
        E 10 91 21 69
        E 50 81 21 00
        E 10 91 1f 69
        E 50 81 1f 00
        E 10 91 1b 6f
        E 50 81 1b 00
        E 10 91 1b 56
        E 0 91 1b 6f
        E 121 81 1b 00
        E 9 81 1b 00
        E 0 91 1b 69
        E 50 81 1b 00
        E 10 91 1b 69
        E 50 81 1b 00
        E 10 91 1b 69
        E 50 81 1b 00
        E 10 91 1c 69
        E 50 81 1c 00
        E 10 91 1c 56
        E 130 81 1c 00
        E 1 91 1c 52
        E 50 81 1c 00
        E 10 91 1c 52
        E 50 81 1c 00
        E 10 91 1c 52
        E 50 81 1c 00
        E 10 91 1d 56
        E 50 81 1d 00
        E 10 91 1d 56
        E 130 81 1d 00
        E 0 91 1d 52
        E 50 81 1d 00
        E 10 91 1d 52
        E 50 81 1d 00
        E 10 91 1d 52
        E 50 81 1d 00
        E 10 91 1e 52
        E 50 81 1e 00
        E 10 91 1e 56
        E 130 81 1e 00
        E 0 91 1e 52
        E 50 81 1e 00
        E 10 91 1e 52
        E 50 81 1e 00
        E 10 91 1e 52
        E 50 81 1e 00
        E 10 91 1f 52
        E 50 81 1f 00
        E 10 91 1f 56
        E 130 81 1f 00
        E 0 91 1f 52
        E 50 81 1f 00
        E 10 91 1f 52
        E 50 81 1f 00
        E 10 91 1f 52
        E 50 81 1f 00
        E 10 91 20 52
        E 50 81 20 00
        E 10 91 20 56
        E 59 81 20 00
        E 10 91 1b 74
        E 96 81 1b 00
        E 0 91 1b 74
        E 42 81 1b 00
        E 9 91 1c 74
        E 42 81 1c 00
        E 10 91 1e 74
        E 42 81 1e 00
        E 9 91 21 74
        E 42 81 21 00
        E 10 91 21 56
        E 185 81 21 00
        E 473 91 1b 6f
        E 950 81 1b 00
        E 10 91 1b 6f
        E 1910 81 1b 00
        E 10 91 1b 74
        E 768 81 1b 00
        E 192 91 1b 6f
        E 950 81 1b 00
        E 10 91 1b 56
        E 0 91 1d 6f
        E 648 81 1b 00
        E 408 81 1d 00
        E 0 91 1d 69
        E 50 81 1d 00
        E 10 91 1d 69
        E 50 81 1d 00
        E 10 91 1d 69
        E 50 81 1d 00
        E 10 91 1c 69
        E 50 81 1c 00
        E 10 91 1c 56
        E 384 81 1c 00
        E 0 91 1c 52
        E 50 81 1c 00
        E 10 91 1c 52
        E 50 81 1c 00
        E 10 91 1c 52
        E 50 81 1c 00
        E 10 91 1d 6f
        E 50 81 1d 00
        E 10 91 1d 6f
        E 768 81 1d 00
        E 192 91 1d 6f
        E 950 81 1d 00
        E 10 91 1d 6f
        E 1680 81 1d 00
        E 0 91 1d 69
        E 50 81 1d 00
        E 10 91 1e 69
        E 50 81 1e 00
        E 10 91 20 69
        E 50 81 20 00
        E 10 91 24 69
        E 50 81 24 00
        E 10 91 24 6f
        E 720 81 24 00
        E 0 91 24 69
        E 50 81 24 00
        E 10 91 23 69
        E 50 81 23 00
        E 10 91 21 69
        E 50 81 21 00
        E 10 91 1d 6f
        E 50 81 1d 00
        E 10 91 1d 56
        E 0 91 1d 6f
        E 82 81 1d 00
        E 14 81 1d 00
        E 0 91 1d 69
        E 8 81 1d 00
        E 9 91 1d 69
        E 8 81 1d 00
        E 9 91 1d 69
        E 8 81 1d 00
        E 9 91 1e 69
        E 8 81 1e 00
        E 10 91 1e 56
        E 86 81 1e 00
        E 10 91 1e 52
        E 8 81 1e 00
        E 9 91 1e 52
        E 8 81 1e 00
        E 9 91 1e 52
        E 8 81 1e 00
        E 9 91 1f 56
        E 8 81 1f 00
        E 9 91 1f 56
        E 86 81 1f 00
        E 10 91 1f 52
        E 8 81 1f 00
        E 9 91 1f 52
        E 8 81 1f 00
        E 9 91 1f 52
        E 8 81 1f 00
        E 10 91 20 56
        E 8 81 20 00
        E 9 91 20 56
        E 96 81 20 00
        E 0 91 20 52
        E 8 81 20 00
        E 9 91 20 52
        E 8 81 20 00
        E 9 91 20 52
        E 8 81 20 00
        E 9 91 21 56
        E 8 81 21 00
        E 9 91 21 56
        E 96 81 21 00
        E 0 91 21 52
        E 8 81 21 00
        E 9 91 21 52
        E 8 81 21 00
        E 10 91 21 52
        E 8 81 21 00
        E 9 91 22 56
        E 8 81 22 00
        E 9 91 22 56
        E 96 81 22 00
        E 0 91 22 52
        E 1 81 22 00
        E 9 91 21 52
        E 1 81 21 00
        E 9 91 20 52
        E 1 81 20 00
        E 10 91 1d 52
        E 1 81 1d 00
        E 9 91 1d 56
        E 0 91 1f 6f
        E 18 81 1d 00
        E 0 81 1f 00
        E 9 91 23 56
        E 82 81 23 00
        E 1187 91 1e 56
        E 384 81 1e 00
        E 0 91 1e 52
        E 50 81 1e 00
        E 10 91 1e 52
        E 50 81 1e 00
        E 10 91 1e 52
        E 50 81 1e 00
        E 10 91 1f 52
        E 50 81 1f 00
        E 10 91 1f 6f
        E 768 81 1f 00
        E 192 91 1f 6f
        E 950 81 1f 00
        E 10 91 1f 6f
        E 1910 81 1f 00
        E 10 91 1f 6f
        E 768 81 1f 00
        E 192 91 1f 6f
        E 720 81 1f 00
        E 0 91 1f 69
        E 50 81 1f 00
        E 10 91 1e 69
        E 50 81 1e 00
        E 10 91 1d 69
        E 50 81 1d 00
        E 10 91 1b 69
        E 50 81 1b 00
        E 10 91 1b 56
        E 0 91 1b 6f
        E 324 81 1b 00
        E 84 81 1b 00
        E 0 91 1b 69
        E 50 81 1b 00
        E 10 91 1b 69
        E 50 81 1b 00
        E 10 91 1b 69
        E 50 81 1b 00
        E 10 91 1c 69
        E 50 81 1c 00
        E 10 91 1c 56
        E 324 81 1c 00
        E 324 91 1d 56
        E 324 81 1d 00
        E 300 91 1b 74
        E 14 81 1b 00
        E 10 91 1e 56
        E 324 81 1e 00
        E 612 91 1b 6f
        E 950 81 1b 00
        E 10 91 1b 6f
        E 1910 81 1b 00
        E 10 91 1b 6f
        E 768 81 1b 00
        E 192 91 1b 6f
        E 950 81 1b 00
        E 10 91 1b 56
        E 0 91 24 6f
        E 86 81 1b 00
        E 10 81 24 00
        E 0 91 24 69
        E 38 81 24 00
        E 10 91 23 69
        E 38 81 23 00
        E 10 91 20 69
        E 38 81 20 00
        E 10 91 1c 69
        E 38 81 1c 00
        E 10 91 1c 56
        E 96 81 1c 00
        E 0 91 1c 52
        E 38 81 1c 00
        E 10 91 1c 52
        E 38 81 1c 00
        E 10 91 1c 52
        E 38 81 1c 00
        E 10 91 1d 56
        E 38 81 1d 00
        E 10 91 1d 56
        E 96 81 1d 00
        E 0 91 1d 52
        E 38 81 1d 00
        E 10 91 1d 52
        E 38 81 1d 00
        E 10 91 1d 52
        E 38 81 1d 00
        E 10 91 1e 56
        E 38 81 1e 00
        E 10 91 1e 56
        E 96 81 1e 00
        E 0 91 1e 52
        E 38 81 1e 00
        E 10 91 1e 52
        E 38 81 1e 00
        E 10 91 1e 52
        E 38 81 1e 00
        E 10 91 1f 52
        E 38 81 1f 00
        E 10 91 1f 56
        E 96 81 1f 00
        E 0 91 1f 52
        E 38 81 1f 00
        E 10 91 1f 52
        E 38 81 1f 00
        E 10 91 1f 52
        E 38 81 1f 00
        E 10 91 20 56
        E 38 81 20 00
        E 10 91 20 56
        E 96 81 20 00
        E 0 91 20 52
        E 38 81 20 00
        E 10 91 20 52
        E 38 81 20 00
        E 10 91 20 52
        E 38 81 20 00
        E 10 91 21 52
        E 38 81 21 00
        E 10 91 21 56
        E 96 81 21 00
        E 0 91 21 52
        E 14 81 21 00
        E 10 91 21 52
        E 14 81 21 00
        E 10 91 20 52
        E 14 81 20 00
        E 10 91 1f 6f
        E 14 81 1f 00
        E 10 91 1f 6f
        E 86 81 1f 00
        E 10 91 22 56
        E 96 81 22 00
        E 0 91 22 52
        E 38 81 22 00
        E 10 91 22 52
        E 38 81 22 00
        E 10 91 22 52
        E 38 81 22 00
        E 10 91 23 56
        E 38 81 23 00
        E 10 91 23 56
        E 144 81 23 00
        E 432 91 1f 56
        E 0 91 24 6f
        E 86 81 1f 00
        E 10 81 24 00
        E 0 91 24 69
        E 24 81 24 00
        E 10 91 23 69
        E 24 81 23 00
        E 9 91 22 69
        E 24 81 22 00
        E 10 91 20 69
        E 24 81 20 00
        E 9 91 20 56
        E 96 81 20 00
        E 0 91 20 52
        E 24 81 20 00
        E 10 91 20 52
        E 24 81 20 00
        E 10 91 20 52
        E 24 81 20 00
        E 9 91 21 56
        E 24 81 21 00
        E 10 91 21 56
        E 96 81 21 00
        E 0 91 21 52
        E 24 81 21 00
        E 9 91 21 52
        E 24 81 21 00
        E 10 91 21 52
        E 24 81 21 00
        E 10 91 22 56
        E 24 81 22 00
        E 9 91 22 56
        E 96 81 22 00
        E 0 91 22 52
        E 24 81 22 00
        E 10 91 22 52
        E 24 81 22 00
        E 9 91 22 52
        E 24 81 22 00
        E 10 91 23 56
        E 24 81 23 00
        E 10 91 23 56
        E 115 81 23 00
        E 0 b1 7b 00
        E 1 ff 2f 00
      >
    >
  >
  <TRACK
    NAME "DarkPad"
    PEAKCOL 4284506208
    VOLPAN 1.000000 0 1 -1
    MIDIOUT -1
    ISBUS 0 0
    <ITEM
      POSITION 0.012413
      LENGTH 35.580545
      NAME "DarkPad"
      VOLPAN 1 0 1 -1
      <SOURCE MIDI
        HASDATA 1 960 QN
        E 0 c2 5f 00
        E 28 92 29 28
        E 3 92 32 26
        E 6989 82 32 00
        E 686 92 32 26
        E 4 92 29 26
        E 13 92 2d 26
        E 2289 82 29 00
        E 4683 82 32 00
        E 667 92 27 26
        E 14 92 28 2a
        E 14 92 33 26
        E 1 92 2a 26
        E 14 92 2e 26
        E 0 92 3b 26
        E 15 92 36 26
        E 2274 82 29 00
        E 13 82 2d 00
        E 4672 82 33 00
        E 15 82 3b 00
        E 15 82 36 00
        E 632 92 24 2a
        E 12 92 25 2a
        E 15 92 27 26
        E 2 92 30 26
        E 12 92 38 26
        E 1 92 2b 28
        E 29 92 3e 26
        E 2234 82 27 00
        E 14 82 28 00
        E 15 82 2a 00
        E 14 82 2e 00
        E 4670 82 30 00
        E 12 82 38 00
        E 30 82 3e 00
        E 620 92 26 26
        E 14 92 27 26
        E 14 92 29 2a
        E 1 92 32 26
        E 13 92 2d 26
        E 29 92 40 26
        E 2233 82 24 00
        E 12 82 25 00
        E 15 82 27 00
        E 15 82 2b 00
        E 4672 82 32 00
        E 42 82 40 00
        E 620 92 26 26
        E 16 92 27 26
        E 10 92 29 26
        E 3 92 32 26
        E 16 92 3a 26
        E 0 92 2d 26
        E 9 92 35 26
        E 20 92 40 26
        E 2230 82 26 00
        E 14 82 27 00
        E 14 82 29 00
        E 14 82 2d 00
        E 4672 82 32 00
        E 16 82 3a 00
        E 9 82 35 00
        E 20 82 40 00
        E 614 92 27 26
        E 14 92 28 26
        E 14 92 33 26
        E 3 92 2a 28
        E 12 92 3b 26
        E 2 92 2e 26
        E 29 92 41 26
        E 2233 82 26 00
        E 16 82 27 00
        E 10 82 29 00
        E 19 82 2d 00
        E 4665 82 33 00
        E 15 82 3b 00
        E 31 82 41 00
        E 619 92 24 2a
        E 13 92 25 26
        E 17 92 27 26
        E 16 92 2b 26
        E 2256 82 27 00
        E 14 82 28 00
        E 17 82 2a 00
        E 14 82 2e 00
        E 5334 92 26 26
        E 13 92 27 2a
        E 13 92 29 29
        E 16 92 3a 26
        E 2 92 2d 26
        E 11 92 35 26
        E 2248 82 24 00
        E 13 82 25 00
        E 17 82 27 00
        E 16 82 2b 00
        E 4682 82 3a 00
        E 13 82 35 00
        E 651 92 28 26
        E 28 92 2e 26
        E 1 92 3b 26
        E 2260 82 26 00
        E 13 82 27 00
        E 13 82 29 00
        E 18 82 2d 00
        E 4685 82 3b 00
        E 658 92 25 26
        E 57 92 3e 26
        E 2251 82 28 00
        E 28 82 2e 00
        E 381 82 3e 00
        E 1111 82 25 00
        E 0 b2 7b 00
        E 1 ff 2f 00
      >
    >
  >
  <TRACK
    NAME "SynthLead"
    PEAKCOL 4284506208
    VOLPAN 1.000000 0 1 -1
    MIDIOUT -1
    ISBUS 0 0
    <ITEM
      POSITION 0.211268
      LENGTH 34.832394
      NAME "SynthLead"
      VOLPAN 1 0 1 -1
      <SOURCE MIDI
        HASDATA 1 960 QN
        E 0 c3 52 00
        E 480 93 46 52
        E 480 93 4a 58
        E 192 83 46 00
        E 288 93 4a 52
        E 192 83 4a 00
        E 480 83 4a 00
        E 1248 93 4a 52
        E 672 83 4a 00
        E 288 93 52 52
        E 480 93 4f 58
        E 192 83 52 00
        E 480 83 4f 00
        E 288 93 52 58
        E 480 93 52 52
        E 192 83 52 00
        E 480 83 52 00
        E 768 93 56 58
        E 672 83 56 00
        E 768 93 52 52
        E 672 83 52 00
        E 768 93 52 58
        E 480 93 56 52
        E 192 83 52 00
        E 480 83 56 00
        E 288 93 4a 52
        E 480 93 4d 58
        E 192 83 4a 00
        E 288 93 52 52
        E 192 83 4d 00
        E 288 93 4d 58
        E 192 83 52 00
        E 288 93 4a 52
        E 192 83 4d 00
        E 288 93 4d 58
        E 192 83 4a 00
        E 288 93 4d 52
        E 192 83 4d 00
        E 288 93 4f 58
        E 192 83 4d 00
        E 288 93 4b 52
        E 192 83 4f 00
        E 288 93 46 58
        E 192 83 4b 00
        E 288 93 43 52
        E 192 83 46 00
        E 288 93 43 58
        E 192 83 43 00
        E 288 93 46 52
        E 192 83 43 00
        E 288 93 46 58
        E 192 83 46 00
        E 288 93 4b 52
        E 192 83 46 00
        E 288 93 4f 58
        E 192 83 4b 00
        E 288 93 4f 52
        E 192 83 4f 00
        E 288 93 4b 58
        E 192 83 4f 00
        E 288 93 4b 52
        E 192 83 4b 00
        E 288 93 4b 58
        E 192 83 4b 00
        E 288 93 4b 52
        E 192 83 4b 00
        E 288 93 4b 58
        E 192 83 4b 00
        E 288 93 46 52
        E 192 83 4b 00
        E 288 93 48 58
        E 192 83 46 00
        E 288 93 48 52
        E 192 83 48 00
        E 288 93 45 58
        E 192 83 48 00
        E 288 93 48 52
        E 192 83 45 00
        E 288 93 48 58
        E 192 83 48 00
        E 288 93 4d 52
        E 192 83 48 00
        E 288 93 48 58
        E 192 83 4d 00
        E 288 93 48 52
        E 192 83 48 00
        E 288 93 4d 58
        E 192 83 48 00
        E 288 93 48 52
        E 192 83 4d 00
        E 288 93 48 58
        E 192 83 48 00
        E 288 93 45 52
        E 192 83 48 00
        E 288 93 41 58
        E 192 83 45 00
        E 288 93 3c 52
        E 192 83 41 00
        E 288 93 3c 58
        E 192 83 3c 00
        E 288 93 45 52
        E 192 83 3c 00
        E 288 93 46 58
        E 192 83 45 00
        E 288 93 4a 52
        E 192 83 46 00
        E 288 93 4f 58
        E 192 83 4a 00
        E 288 93 52 52
        E 192 83 4f 00
        E 288 93 56 58
        E 192 83 52 00
        E 288 93 56 52
        E 192 83 56 00
        E 288 93 4f 58
        E 192 83 56 00
        E 288 93 52 52
        E 192 83 4f 00
        E 288 93 56 58
        E 192 83 52 00
        E 288 93 52 52
        E 192 83 56 00
        E 288 93 56 58
        E 192 83 52 00
        E 288 93 56 52
        E 192 83 56 00
        E 288 93 56 58
        E 192 83 56 00
        E 288 93 56 52
        E 192 83 56 00
        E 288 93 56 58
        E 192 83 56 00
        E 288 93 52 52
        E 192 83 56 00
        E 288 93 52 58
        E 192 83 52 00
        E 288 93 52 52
        E 192 83 52 00
        E 288 93 56 58
        E 192 83 52 00
        E 288 93 56 52
        E 192 83 56 00
        E 288 93 52 58
        E 192 83 56 00
        E 288 93 4d 52
        E 192 83 52 00
        E 288 93 4a 58
        E 192 83 4d 00
        E 288 93 4d 52
        E 192 83 4a 00
        E 288 93 4a 58
        E 192 83 4d 00
        E 288 93 46 52
        E 192 83 4a 00
        E 288 93 41 58
        E 192 83 46 00
        E 288 93 41 52
        E 192 83 41 00
        E 288 93 3e 58
        E 192 83 41 00
        E 288 93 3a 52
        E 192 83 3e 00
        E 288 93 3e 58
        E 192 83 3a 00
        E 288 93 3a 52
        E 192 83 3e 00
        E 288 93 43 58
        E 192 83 3a 00
        E 288 93 3f 52
        E 192 83 43 00
        E 288 93 3a 58
        E 192 83 3f 00
        E 288 93 43 52
        E 192 83 3a 00
        E 288 93 3f 58
        E 192 83 43 00
        E 288 93 43 52
        E 192 83 3f 00
        E 288 93 43 58
        E 192 83 43 00
        E 288 93 46 52
        E 192 83 43 00
        E 288 93 46 58
        E 192 83 46 00
        E 288 93 43 52
        E 192 83 46 00
        E 288 93 43 58
        E 192 83 43 00
        E 288 93 43 52
        E 192 83 43 00
        E 288 93 43 58
        E 192 83 43 00
        E 288 93 43 52
        E 192 83 43 00
        E 288 93 43 58
        E 192 83 43 00
        E 288 93 3f 52
        E 192 83 43 00
        E 288 93 48 58
        E 192 83 3f 00
        E 288 93 41 52
        E 192 83 48 00
        E 288 93 45 58
        E 192 83 41 00
        E 288 93 41 52
        E 192 83 45 00
        E 288 93 41 58
        E 192 83 41 00
        E 288 93 45 52
        E 192 83 41 00
        E 288 93 45 58
        E 192 83 45 00
        E 288 93 41 52
        E 192 83 45 00
        E 288 93 3c 58
        E 192 83 41 00
        E 288 93 45 52
        E 192 83 3c 00
        E 288 93 48 58
        E 192 83 45 00
        E 288 93 45 52
        E 192 83 48 00
        E 288 93 48 58
        E 192 83 45 00
        E 288 93 4d 52
        E 192 83 48 00
        E 288 93 51 58
        E 192 83 4d 00
        E 288 93 4d 52
        E 192 83 51 00
        E 288 93 4a 58
        E 192 83 4d 00
        E 288 93 4a 52
        E 192 83 4a 00
        E 288 93 4a 58
        E 192 83 4a 00
        E 288 93 4f 52
        E 192 83 4a 00
        E 288 93 4a 58
        E 192 83 4f 00
        E 288 93 46 52
        E 192 83 4a 00
        E 288 93 46 58
        E 192 83 46 00
        E 288 93 43 52
        E 192 83 46 00
        E 288 93 3e 58
        E 192 83 43 00
        E 288 93 43 52
        E 192 83 3e 00
        E 288 93 3e 58
        E 192 83 43 00
        E 288 93 43 52
        E 192 83 3e 00
        E 288 93 3e 58
        E 192 83 43 00
        E 288 93 3a 52
        E 192 83 3e 00
        E 288 93 43 58
        E 192 83 3a 00
        E 288 93 46 52
        E 192 83 43 00
        E 288 93 43 58
        E 192 83 46 00
        E 480 83 43 00
        E 6048 93 4f 58
        E 480 93 52 52
        E 192 83 4f 00
        E 288 93 57 58
        E 192 83 52 00
        E 288 93 57 52
        E 192 83 57 00
        E 288 93 4f 58
        E 192 83 57 00
        E 288 93 4b 52
        E 192 83 4f 00
        E 288 93 4b 58
        E 192 83 4b 00
        E 480 83 4b 00
        E 0 b3 7b 00
        E 1 ff 2f 00
      >
    >
  >
  <TRACK
    NAME "VocalChop"
    PEAKCOL 4284506208
    VOLPAN 1.000000 0 1 -1
    MIDIOUT -1
    ISBUS 0 0
    <ITEM
      POSITION 0.369718
      LENGTH 34.526056
      NAME "VocalChop"
      VOLPAN 1 0 1 -1
      <SOURCE MIDI
        HASDATA 1 960 QN
        E 0 c4 36 00
        E 840 94 3e 43
        E 96 84 3e 00
        E 24 94 3e 43
        E 96 84 3e 00
        E 24 94 3e 43
        E 19 84 3e 00
        E 701 94 3e 43
        E 19 84 3e 00
        E 941 94 3a 43
        E 96 84 3a 00
        E 24 94 3a 43
        E 96 84 3a 00
        E 2304 94 3a 43
        E 96 84 3a 00
        E 24 94 3a 43
        E 96 84 3a 00
        E 264 94 3e 43
        E 96 84 3e 00
        E 264 94 3e 43
        E 19 84 3e 00
        E 1421 94 3e 43
        E 19 84 3e 00
        E 4181 94 3e 43
        E 96 84 3e 00
        E 24 94 3e 43
        E 19 84 3e 00
        E 1061 94 3a 43
        E 96 84 3a 00
        E 24 94 3a 43
        E 96 84 3a 00
        E 24 94 3a 43
        E 96 84 3a 00
        E 24 94 3a 43
        E 19 84 3a 00
        E 5381 94 3a 43
        E 96 84 3a 00
        E 24 94 3a 43
        E 96 84 3a 00
        E 24 94 3a 43
        E 96 84 3a 00
        E 24 94 3a 43
        E 19 84 3a 00
        E 101 94 3a 43
        E 96 84 3a 00
        E 24 94 3a 43
        E 96 84 3a 00
        E 24 94 3a 43
        E 96 84 3a 00
        E 24 94 3a 43
        E 19 84 3a 00
        E 341 94 3a 43
        E 96 84 3a 00
        E 24 94 3a 43
        E 96 84 3a 00
        E 24 94 3a 43
        E 96 84 3a 00
        E 24 94 3a 43
        E 19 84 3a 00
        E 821 94 3f 43
        E 96 84 3f 00
        E 24 94 3f 43
        E 96 84 3f 00
        E 24 94 3f 43
        E 96 84 3f 00
        E 24 94 3f 43
        E 19 84 3f 00
        E 2261 94 3c 43
        E 96 84 3c 00
        E 24 94 3c 43
        E 96 84 3c 00
        E 24 94 3c 43
        E 96 84 3c 00
        E 24 94 3c 43
        E 19 84 3c 00
        E 821 94 41 43
        E 96 84 41 00
        E 24 94 41 43
        E 96 84 41 00
        E 24 94 41 43
        E 96 84 41 00
        E 24 94 41 43
        E 19 84 41 00
        E 341 94 3c 43
        E 96 84 3c 00
        E 24 94 3c 43
        E 96 84 3c 00
        E 24 94 3c 43
        E 96 84 3c 00
        E 24 94 3c 43
        E 19 84 3c 00
        E 821 94 41 43
        E 96 84 41 00
        E 24 94 41 43
        E 96 84 41 00
        E 24 94 41 43
        E 96 84 41 00
        E 24 94 41 43
        E 19 84 41 00
        E 341 94 3c 43
        E 96 84 3c 00
        E 24 94 3c 43
        E 96 84 3c 00
        E 24 94 3c 43
        E 96 84 3c 00
        E 24 94 3c 43
        E 19 84 3c 00
        E 341 94 3a 43
        E 96 84 3a 00
        E 24 94 3a 43
        E 96 84 3a 00
        E 24 94 3a 43
        E 96 84 3a 00
        E 24 94 3a 43
        E 19 84 3a 00
        E 3941 94 3a 43
        E 96 84 3a 00
        E 24 94 3a 43
        E 96 84 3a 00
        E 24 94 3a 43
        E 96 84 3a 00
        E 24 94 3a 43
        E 19 84 3a 00
        E 1541 94 3a 43
        E 96 84 3a 00
        E 24 94 3a 43
        E 96 84 3a 00
        E 24 94 3a 43
        E 96 84 3a 00
        E 24 94 3a 43
        E 19 84 3a 00
        E 1061 94 3e 43
        E 96 84 3e 00
        E 24 94 3e 43
        E 96 84 3e 00
        E 24 94 3e 43
        E 96 84 3e 00
        E 24 94 3e 43
        E 19 84 3e 00
        E 1541 94 3e 43
        E 96 84 3e 00
        E 24 94 3e 43
        E 96 84 3e 00
        E 24 94 3e 43
        E 96 84 3e 00
        E 24 94 3e 43
        E 19 84 3e 00
        E 2021 94 3a 43
        E 96 84 3a 00
        E 24 94 3a 43
        E 96 84 3a 00
        E 24 94 3a 43
        E 96 84 3a 00
        E 24 94 3a 43
        E 19 84 3a 00
        E 341 94 3a 43
        E 96 84 3a 00
        E 24 94 3a 43
        E 96 84 3a 00
        E 24 94 3a 43
        E 96 84 3a 00
        E 24 94 3a 43
        E 19 84 3a 00
        E 341 94 3e 43
        E 96 84 3e 00
        E 24 94 3e 43
        E 96 84 3e 00
        E 24 94 3e 43
        E 96 84 3e 00
        E 24 94 3e 43
        E 19 84 3e 00
        E 101 94 41 43
        E 96 84 41 00
        E 24 94 41 43
        E 96 84 41 00
        E 24 94 41 43
        E 96 84 41 00
        E 24 94 41 43
        E 19 84 41 00
        E 2981 94 3e 43
        E 96 84 3e 00
        E 24 94 3e 43
        E 96 84 3e 00
        E 24 94 3e 43
        E 96 84 3e 00
        E 24 94 3e 43
        E 19 84 3e 00
        E 101 94 3a 43
        E 96 84 3a 00
        E 24 94 3a 43
        E 96 84 3a 00
        E 24 94 3a 43
        E 96 84 3a 00
        E 24 94 3a 43
        E 19 84 3a 00
        E 341 94 3f 43
        E 96 84 3f 00
        E 24 94 3f 43
        E 96 84 3f 00
        E 24 94 3f 43
        E 96 84 3f 00
        E 24 94 3f 43
        E 19 84 3f 00
        E 821 94 43 43
        E 96 84 43 00
        E 24 94 43 43
        E 96 84 43 00
        E 24 94 43 43
        E 96 84 43 00
        E 24 94 43 43
        E 19 84 43 00
        E 341 94 3f 43
        E 96 84 3f 00
        E 24 94 3f 43
        E 96 84 3f 00
        E 24 94 3f 43
        E 96 84 3f 00
        E 24 94 3f 43
        E 19 84 3f 00
        E 1541 94 43 43
        E 96 84 43 00
        E 24 94 43 43
        E 96 84 43 00
        E 24 94 43 43
        E 96 84 43 00
        E 24 94 43 43
        E 19 84 43 00
        E 1541 94 3f 43
        E 96 84 3f 00
        E 24 94 3f 43
        E 96 84 3f 00
        E 24 94 3f 43
        E 96 84 3f 00
        E 24 94 3f 43
        E 19 84 3f 00
        E 341 94 3f 43
        E 96 84 3f 00
        E 24 94 3f 43
        E 96 84 3f 00
        E 24 94 3f 43
        E 96 84 3f 00
        E 24 94 3f 43
        E 19 84 3f 00
        E 101 94 45 43
        E 96 84 45 00
        E 24 94 45 43
        E 96 84 45 00
        E 24 94 45 43
        E 96 84 45 00
        E 24 94 45 43
        E 19 84 45 00
        E 1541 94 45 43
        E 96 84 45 00
        E 24 94 45 43
        E 96 84 45 00
        E 24 94 45 43
        E 96 84 45 00
        E 24 94 45 43
        E 19 84 45 00
        E 1061 94 45 43
        E 96 84 45 00
        E 24 94 45 43
        E 96 84 45 00
        E 24 94 45 43
        E 96 84 45 00
        E 24 94 45 43
        E 19 84 45 00
        E 101 94 48 43
        E 96 84 48 00
        E 24 94 48 43
        E 96 84 48 00
        E 24 94 48 43
        E 96 84 48 00
        E 24 94 48 43
        E 19 84 48 00
        E 2261 94 4d 43
        E 96 84 4d 00
        E 24 94 4d 43
        E 96 84 4d 00
        E 24 94 4d 43
        E 96 84 4d 00
        E 24 94 4d 43
        E 19 84 4d 00
        E 2261 94 52 43
        E 96 84 52 00
        E 24 94 52 43
        E 96 84 52 00
        E 24 94 52 43
        E 96 84 52 00
        E 24 94 52 43
        E 19 84 52 00
        E 821 94 4f 43
        E 96 84 4f 00
        E 24 94 4f 43
        E 96 84 4f 00
        E 24 94 4f 43
        E 96 84 4f 00
        E 24 94 4f 43
        E 19 84 4f 00
        E 341 94 4f 43
        E 96 84 4f 00
        E 24 94 4f 43
        E 96 84 4f 00
        E 24 94 4f 43
        E 96 84 4f 00
        E 24 94 4f 43
        E 19 84 4f 00
        E 101 94 52 43
        E 96 84 52 00
        E 24 94 52 43
        E 96 84 52 00
        E 24 94 52 43
        E 96 84 52 00
        E 24 94 52 43
        E 19 84 52 00
        E 341 94 4f 43
        E 96 84 4f 00
        E 24 94 4f 43
        E 96 84 4f 00
        E 24 94 4f 43
        E 96 84 4f 00
        E 24 94 4f 43
        E 19 84 4f 00
        E 341 94 52 43
        E 96 84 52 00
        E 24 94 52 43
        E 96 84 52 00
        E 24 94 52 43
        E 96 84 52 00
        E 24 94 52 43
        E 19 84 52 00
        E 6701 94 54 43
        E 96 84 54 00
        E 24 94 54 43
        E 96 84 54 00
        E 24 94 54 43
        E 19 84 54 00
        E 1541 94 52 43
        E 96 84 52 00
        E 24 94 52 43
        E 96 84 52 00
        E 24 94 52 43
        E 96 84 52 00
        E 24 94 52 43
        E 19 84 52 00
        E 701 94 52 43
        E 19 84 52 00
        E 1541 94 54 43
        E 96 84 54 00
        E 384 94 54 43
        E 96 84 54 00
        E 144 94 54 43
        E 96 84 54 00
        E 0 b4 7b 00
        E 1 ff 2f 00
      >
    >
  >
>
