<REAPER_PROJECT 0.1 "7.0" 1700000000
  TEMPO 130.000000 4 4
  SAMPLERATE 48000 0 0
  RENDER_FILE ""
  RENDER_FMT 0 2 0
  RENDER_1X 0
  RENDER_RANGE 1 0 42.878944 0 0
  RENDER_RESAMPLE 3 0 1
  <MASTERTRACK
    VOLPAN 1 0 1 -1
    DEFCHAN 0
  >
  <TRACK
    NAME "Lead"
    PEAKCOL 4284506208
    VOLPAN 1.000000 0 1 -1
    MIDIOUT -1
    ISBUS 0 0
    <ITEM
      POSITION 0.120780
      LENGTH 40.858163
      NAME "Lead"
      VOLPAN 1 0 1 -1
      <SOURCE MIDI
        HASDATA 1 960 QN
        E 0 c0 51 00
        E 251 90 4f 3f
        E 916 90 4b 37
        E 174 80 4f 00
        E 817 80 4b 00
        E 159 90 4d 3b
        E 991 80 4d 00
        E 177 90 4b 37
        E 675 80 4b 00
        E 475 90 4b 37
        E 991 80 4b 00
        E 530 90 4d 3f
        E 822 90 4f 37
        E 892 80 4f 00
        E 257 90 4b 37
        E 28 80 4d 00
        E 569 90 4d 4e
        E 227 80 4b 00
        E 772 80 4d 00
        E 167 90 4f 37
        E 500 80 4f 00
        E 79 90 4d 37
        E 240 80 4d 00
        E 338 90 4a 37
        E 892 80 4a 00
        E 489 90 4b 5b
        E 824 80 4b 00
        E 99 90 4b 4e
        E 991 80 4b 00
        E 183 90 4b 37
        E 574 90 4b 37
        E 417 80 4b 00
        E 475 80 4b 00
        E 263 90 48 45
        E 999 80 48 00
        E 167 90 4a 37
        E 149 90 4b 37
        E 149 90 4d 37
        E 91 80 4b 00
        E 57 90 50 37
        E 92 80 4d 00
        E 57 90 53 45
        E 91 80 50 00
        E 159 80 53 00
        E 146 80 4a 00
        E 1108 90 4f 37
        E 225 80 4f 00
        E 582 90 50 37
        E 991 80 50 00
        E 172 90 4f 46
        E 500 80 4f 00
        E 84 90 50 37
        E 240 80 50 00
        E 344 90 54 37
        E 892 80 54 00
        E 270 90 53 37
        E 749 80 53 00
        E 421 90 4f 5d
        E 991 80 4f 00
        E 179 90 4f 37
        E 892 80 4f 00
        E 259 90 4d 3a
        E 1090 80 4d 00
        E 57 90 4f 3a
        E 500 80 4f 00
        E 1261 90 53 37
        E 450 80 53 00
        E 712 90 4f 37
        E 275 80 4f 00
        E 106 90 53 37
        E 240 80 53 00
        E 141 90 54 37
        E 240 80 54 00
        E 141 90 57 45
        E 991 80 57 00
        E 1113 90 54 4e
        E 892 80 54 00
        E 505 90 56 3c
        E 585 90 53 37
        E 240 80 53 00
        E 166 80 56 00
        E 180 90 4f 45
        E 991 80 4f 00
        E 741 90 53 3f
        E 1090 80 53 00
        E 77 90 50 37
        E 991 80 50 00
        E 152 90 54 4f
        E 991 80 54 00
        E 172 90 53 37
        E 550 80 53 00
        E 627 90 54 38
        E 586 90 53 37
        E 240 80 53 00
        E 165 80 54 00
        E 180 90 4f 43
        E 275 90 53 37
        E 225 80 4f 00
        E 15 80 53 00
        E 34 90 54 37
        E 240 80 54 00
        E 34 90 57 3f
        E 441 90 56 37
        E 450 80 56 00
        E 1 80 57 00
        E 4 90 57 37
        E 550 80 57 00
        E 860 90 56 40
        E 353 90 57 3d
        E 500 80 57 00
        E 138 80 56 00
        E 879 90 56 37
        E 892 80 56 00
        E 140 90 54 37
        E 550 80 54 00
        E 953 90 56 4e
        E 991 80 56 00
        E 191 90 56 37
        E 450 80 56 00
        E 707 90 57 37
        E 500 80 57 00
        E 654 90 54 5d
        E 1173 90 56 37
        E 826 80 54 00
        E 66 80 56 00
        E 1306 90 53 3c
        E 500 80 53 00
        E 686 90 54 3f
        E 500 80 54 00
        E 647 90 57 5b
        E 1090 80 57 00
        E 88 90 56 3c
        E 991 80 56 00
        E 281 90 56 48
        E 500 80 56 00
        E 652 90 54 37
        E 450 80 54 00
        E 603 90 57 3c
        E 991 80 57 00
        E 161 90 54 5d
        E 999 80 54 00
        E 159 90 54 37
        E 892 80 54 00
        E 518 90 53 37
        E 550 80 53 00
        E 368 90 4f 3d
        E 582 90 50 37
        E 240 80 50 00
        E 169 80 4f 00
        E 173 90 54 43
        E 991 80 54 00
        E 756 90 53 37
        E 824 80 53 00
        E 350 90 54 5b
        E 991 80 54 00
        E 162 90 53 37
        E 991 80 53 00
        E 178 90 54 37
        E 550 80 54 00
        E 609 90 54 37
        E 566 90 53 44
        E 425 80 54 00
        E 75 80 53 00
        E 679 90 54 43
        E 450 80 54 00
        E 1284 90 53 37
        E 991 80 53 00
        E 411 90 56 3c
        E 250 80 56 00
        E 667 90 54 37
        E 892 80 54 00
        E 0 b0 7b 00
        E 1 ff 2f 00
      >
    >
  >
  <TRACK
    NAME "Drums"
    PEAKCOL 4290722362
    VOLPAN 1.000000 0 1 -1
    MIDIOUT -1
    ISBUS 0 0
    <ITEM
      POSITION 0.000000
      LENGTH 40.853846
      NAME "Drums"
      VOLPAN 1 0 1 -1
      <SOURCE MIDI
        HASDATA 1 960 QN
        E 0 c9 00 00
        E 0 99 3c 76
        E 0 99 24 7a
        E 0 99 2a 4e
        E 96 89 2a 00
        E 144 99 38 44
        E 48 89 24 00
        E 48 89 38 00
        E 144 99 38 46
        E 0 99 2a 41
        E 0 99 48 45
        E 77 89 48 00
        E 19 89 38 00
        E 0 89 2a 00
        E 144 99 38 49
        E 96 89 38 00
        E 144 99 26 7a
        E 0 99 27 65
        E 0 99 2a 4e
        E 96 89 2a 00
        E 96 89 27 00
        E 48 89 26 00
        E 0 99 38 45
        E 96 89 38 00
        E 144 99 2a 41
        E 96 89 2a 00
        E 384 99 24 7a
        E 0 99 38 66
        E 0 99 2a 4e
        E 96 89 38 00
        E 0 89 2a 00
        E 192 89 24 00
        E 192 99 2a 41
        E 96 89 2a 00
        E 144 99 38 44
        E 96 89 38 00
        E 144 99 3c 76
        E 0 99 26 7a
        E 0 99 27 65
        E 0 99 38 5f
        E 0 99 2a 4e
        E 96 89 38 00
        E 0 89 2a 00
        E 96 89 27 00
        E 48 89 26 00
        E 0 99 38 41
        E 96 89 38 00
        E 144 89 3c 00
        E 0 99 38 45
        E 0 99 2a 41
        E 96 89 38 00
        E 0 89 2a 00
        E 144 99 38 41
        E 96 89 38 00
        E 144 99 3c 76
        E 0 99 24 7a
        E 0 99 38 64
        E 0 99 2a 4e
        E 96 89 38 00
        E 0 89 2a 00
        E 144 99 38 41
        E 48 89 3c 00
        E 0 89 24 00
        E 48 89 38 00
        E 144 99 38 41
        E 0 99 2a 41
        E 96 89 38 00
        E 0 89 2a 00
        E 144 99 38 43
        E 96 89 38 00
        E 144 99 26 7a
        E 0 99 27 65
        E 0 99 38 68
        E 0 99 2a 4e
        E 96 89 38 00
        E 0 89 2a 00
        E 96 89 27 00
        E 48 89 26 00
        E 0 99 38 49
        E 96 89 38 00
        E 144 99 2a 41
        E 96 89 2a 00
        E 384 99 24 7a
        E 0 99 2a 4e
        E 96 89 2a 00
        E 144 99 38 49
        E 48 89 24 00
        E 48 89 38 00
        E 144 99 38 48
        E 0 99 2a 41
        E 96 89 38 00
        E 0 89 2a 00
        E 144 99 38 45
        E 96 89 38 00
        E 144 99 3c 76
        E 0 99 26 7a
        E 0 99 27 65
        E 0 99 38 60
        E 0 99 2a 4e
        E 96 89 38 00
        E 0 89 2a 00
        E 96 89 27 00
        E 48 89 26 00
        E 240 89 3c 00
        E 0 99 2a 41
        E 96 89 2a 00
        E 144 99 38 41
        E 96 89 38 00
        E 144 99 38 76
        E 0 99 24 7a
        E 0 99 2a 4e
        E 96 89 2a 00
        E 144 99 38 43
        E 48 89 3c 00
        E 0 89 24 00
        E 48 89 38 00
        E 144 99 38 45
        E 0 99 2a 41
        E 96 89 38 00
        E 0 89 2a 00
        E 144 99 38 45
        E 96 89 38 00
        E 144 99 26 7a
        E 0 99 27 65
        E 0 99 38 69
        E 0 99 2a 4e
        E 96 89 38 00
        E 0 89 2a 00
        E 96 89 27 00
        E 48 89 26 00
        E 0 99 38 41
        E 96 89 38 00
        E 144 99 2a 41
        E 96 89 2a 00
        E 384 99 24 7a
        E 0 99 38 5f
        E 0 99 2a 4e
        E 96 89 38 00
        E 0 89 2a 00
        E 144 99 38 49
        E 48 89 24 00
        E 48 89 38 00
        E 144 99 2a 41
        E 96 89 2a 00
        E 144 99 38 44
        E 96 89 38 00
        E 144 99 38 76
        E 0 99 26 7a
        E 0 99 27 65
        E 0 99 38 5f
        E 0 99 2a 4e
        E 96 89 38 00
        E 0 89 2a 00
        E 96 89 27 00
        E 48 89 26 00
        E 0 99 38 41
        E 0 99 44 41
        E 77 89 44 00
        E 19 89 38 00
        E 144 89 38 00
        E 0 99 38 41
        E 0 99 2a 41
        E 96 89 38 00
        E 0 89 2a 00
        E 144 99 38 41
        E 96 89 38 00
        E 144 99 38 76
        E 0 99 24 7a
        E 0 99 38 63
        E 0 99 2a 4e
        E 96 89 38 00
        E 0 89 2a 00
        E 144 99 38 41
        E 48 89 38 00
        E 0 89 24 00
        E 48 89 38 00
        E 144 99 2a 41
        E 96 89 2a 00
        E 384 99 26 7a
        E 0 99 27 65
        E 0 99 2a 4e
        E 96 89 2a 00
        E 96 89 27 00
        E 48 89 26 00
        E 240 99 38 41
        E 0 99 2a 41
        E 96 89 38 00
        E 0 89 2a 00
        E 144 99 38 45
        E 0 99 44 46
        E 77 89 44 00
        E 19 89 38 00
        E 144 99 24 7a
        E 0 99 38 66
        E 0 99 2a 4e
        E 96 89 38 00
        E 0 89 2a 00
        E 144 99 38 43
        E 48 89 24 00
        E 48 89 38 00
        E 144 99 38 41
        E 0 99 2a 41
        E 96 89 38 00
        E 0 89 2a 00
        E 144 99 38 48
        E 96 89 38 00
        E 144 99 38 76
        E 0 99 26 7a
        E 0 99 27 65
        E 0 99 38 69
        E 0 99 2a 4e
        E 96 89 38 00
        E 0 89 2a 00
        E 96 89 27 00
        E 48 89 26 00
        E 0 99 38 46
        E 0 99 44 41
        E 77 89 44 00
        E 19 89 38 00
        E 144 89 38 00
        E 0 99 38 49
        E 0 99 2a 41
        E 96 89 38 00
        E 0 89 2a 00
        E 144 99 38 46
        E 96 89 38 00
        E 144 99 38 76
        E 0 99 24 7a
        E 0 99 38 61
        E 0 99 2a 4e
        E 96 89 38 00
        E 0 89 2a 00
        E 144 99 38 41
        E 48 89 38 00
        E 0 89 24 00
        E 48 89 38 00
        E 144 99 38 48
        E 0 99 2a 41
        E 0 99 43 41
        E 77 89 43 00
        E 19 89 38 00
        E 0 89 2a 00
        E 144 99 38 41
        E 96 89 38 00
        E 144 99 26 7a
        E 0 99 27 65
        E 0 99 38 6a
        E 0 99 2a 4e
        E 96 89 38 00
        E 0 89 2a 00
        E 96 89 27 00
        E 48 89 26 00
        E 240 99 38 45
        E 0 99 2a 41
        E 96 89 38 00
        E 0 89 2a 00
        E 144 99 43 41
        E 77 89 43 00
        E 163 99 24 7a
        E 0 99 38 68
        E 0 99 2a 4e
        E 96 89 38 00
        E 0 89 2a 00
        E 144 99 38 44
        E 48 89 24 00
        E 48 89 38 00
        E 144 99 38 45
        E 0 99 2a 41
        E 96 89 38 00
        E 0 89 2a 00
        E 384 99 37 76
        E 0 99 26 7a
        E 0 99 27 65
        E 0 99 38 5f
        E 0 99 2a 4e
        E 96 89 38 00
        E 0 89 2a 00
        E 96 89 27 00
        E 48 89 26 00
        E 0 99 43 41
        E 77 89 43 00
        E 163 89 38 00
        E 0 99 2a 41
        E 96 89 2a 00
        E 144 99 38 41
        E 96 89 38 00
        E 144 99 38 76
        E 0 99 24 7a
        E 0 99 38 69
        E 0 99 2a 4e
        E 96 89 38 00
        E 0 89 2a 00
        E 144 99 38 41
        E 48 89 37 00
        E 0 89 24 00
        E 48 89 38 00
        E 144 99 38 41
        E 0 99 2a 41
        E 96 89 38 00
        E 0 89 2a 00
        E 144 99 38 44
        E 96 89 38 00
        E 144 99 26 7a
        E 0 99 27 65
        E 0 99 38 63
        E 0 99 2a 4e
        E 96 89 38 00
        E 0 89 2a 00
        E 96 89 27 00
        E 48 89 26 00
        E 0 99 38 41
        E 96 89 38 00
        E 144 99 38 41
        E 0 99 2a 41
        E 96 89 38 00
        E 0 89 2a 00
        E 144 99 38 41
        E 96 89 38 00
        E 144 99 24 7a
        E 0 99 2a 4e
        E 96 89 2a 00
        E 144 99 38 46
        E 48 89 24 00
        E 48 89 38 00
        E 144 99 38 41
        E 0 99 2a 41
        E 96 89 38 00
        E 0 89 2a 00
        E 144 99 38 48
        E 96 89 38 00
        E 144 99 37 76
        E 0 99 26 7a
        E 0 99 27 65
        E 0 99 2a 4e
        E 96 89 2a 00
        E 96 89 27 00
        E 48 89 26 00
        E 0 99 38 41
        E 0 99 43 46
        E 77 89 43 00
        E 19 89 38 00
        E 144 89 38 00
        E 0 99 38 41
        E 0 99 2a 41
        E 96 89 38 00
        E 0 89 2a 00
        E 144 99 38 46
        E 96 89 38 00
        E 144 99 3c 76
        E 0 99 24 7a
        E 0 99 38 68
        E 0 99 2a 4e
        E 96 89 38 00
        E 0 89 2a 00
        E 144 99 38 43
        E 48 89 37 00
        E 0 89 24 00
        E 48 89 38 00
        E 144 99 38 41
        E 0 99 2a 41
        E 0 99 48 43
        E 77 89 48 00
        E 19 89 38 00
        E 0 89 2a 00
        E 144 99 38 41
        E 96 89 38 00
        E 144 99 26 7a
        E 0 99 27 65
        E 0 99 38 5f
        E 0 99 2a 4e
        E 96 89 38 00
        E 0 89 2a 00
        E 96 89 27 00
        E 48 89 26 00
        E 0 99 38 43
        E 96 89 38 00
        E 144 99 38 41
        E 0 99 2a 41
        E 96 89 38 00
        E 0 89 2a 00
        E 144 99 38 41
        E 96 89 38 00
        E 144 99 24 7a
        E 0 99 2a 4e
        E 96 89 2a 00
        E 144 99 38 41
        E 48 89 24 00
        E 48 89 38 00
        E 144 99 2a 41
        E 96 89 2a 00
        E 144 99 38 45
        E 96 89 38 00
        E 144 99 3c 76
        E 0 99 26 7a
        E 0 99 27 65
        E 0 99 38 65
        E 0 99 2a 4e
        E 96 89 38 00
        E 0 89 2a 00
        E 96 89 27 00
        E 48 89 26 00
        E 240 89 3c 00
        E 0 99 38 48
        E 0 99 2a 41
        E 96 89 38 00
        E 0 89 2a 00
        E 384 99 3c 76
        E 0 99 24 7a
        E 0 99 38 65
        E 0 99 2a 4e
        E 96 89 38 00
        E 0 89 2a 00
        E 144 99 38 41
        E 48 89 3c 00
        E 0 89 24 00
        E 48 89 38 00
        E 144 99 38 45
        E 0 99 2a 41
        E 96 89 38 00
        E 0 89 2a 00
        E 144 99 38 41
        E 96 89 38 00
        E 144 99 26 7a
        E 0 99 27 65
        E 0 99 2a 4e
        E 96 89 2a 00
        E 96 89 27 00
        E 48 89 26 00
        E 0 99 38 41
        E 96 89 38 00
        E 144 99 38 41
        E 0 99 2a 41
        E 96 89 38 00
        E 0 89 2a 00
        E 384 99 24 7a
        E 0 99 38 68
        E 0 99 2a 4e
        E 96 89 38 00
        E 0 89 2a 00
        E 192 89 24 00
        E 192 99 38 41
        E 0 99 2a 41
        E 96 89 38 00
        E 0 89 2a 00
        E 144 99 38 41
        E 96 89 38 00
        E 144 99 3c 76
        E 0 99 26 7a
        E 0 99 27 65
        E 0 99 2a 4e
        E 96 89 2a 00
        E 96 89 27 00
        E 48 89 26 00
        E 0 99 38 44
        E 96 89 38 00
        E 144 89 3c 00
        E 0 99 2a 41
        E 96 89 2a 00
        E 384 99 3c 76
        E 0 99 24 7a
        E 0 99 38 68
        E 0 99 2a 4e
        E 96 89 38 00
        E 0 89 2a 00
        E 144 99 38 46
        E 48 89 3c 00
        E 0 89 24 00
        E 48 89 38 00
        E 144 99 38 43
        E 0 99 2a 41
        E 96 89 38 00
        E 0 89 2a 00
        E 144 99 38 44
        E 96 89 38 00
        E 144 99 26 7a
        E 0 99 27 65
        E 0 99 38 6a
        E 0 99 2a 4e
        E 96 89 38 00
        E 0 89 2a 00
        E 96 89 27 00
        E 48 89 26 00
        E 0 99 38 44
        E 96 89 38 00
        E 144 99 2a 41
        E 96 89 2a 00
        E 144 99 38 45
        E 0 99 48 41
        E 77 89 48 00
        E 19 89 38 00
        E 144 99 24 7a
        E 0 99 38 6a
        E 0 99 2a 4e
        E 96 89 38 00
        E 0 89 2a 00
        E 192 89 24 00
        E 192 99 38 45
        E 0 99 2a 41
        E 96 89 38 00
        E 0 89 2a 00
        E 144 99 38 45
        E 96 89 38 00
        E 144 99 3c 76
        E 0 99 26 7a
        E 0 99 27 65
        E 0 99 2a 4e
        E 96 89 2a 00
        E 96 89 27 00
        E 48 89 26 00
        E 240 89 3c 00
        E 0 99 38 48
        E 0 99 2a 41
        E 96 89 38 00
        E 0 89 2a 00
        E 144 99 38 46
        E 96 89 38 00
        E 144 99 3c 76
        E 0 99 24 7a
        E 0 99 2a 4e
        E 96 89 2a 00
        E 192 89 3c 00
        E 0 89 24 00
        E 192 99 38 41
        E 0 99 2a 41
        E 0 99 48 49
        E 77 89 48 00
        E 19 89 38 00
        E 0 89 2a 00
        E 144 99 38 46
        E 96 89 38 00
        E 144 99 26 7a
        E 0 99 27 65
        E 0 99 38 60
        E 0 99 2a 4e
        E 96 89 38 00
        E 0 89 2a 00
        E 96 89 27 00
        E 48 89 26 00
        E 0 99 38 48
        E 96 89 38 00
        E 144 99 38 41
        E 0 99 2a 41
        E 96 89 38 00
        E 0 89 2a 00
        E 144 99 38 43
        E 96 89 38 00
        E 144 99 24 7a
        E 0 99 38 61
        E 0 99 2a 4e
        E 96 89 38 00
        E 0 89 2a 00
        E 144 99 38 41
        E 48 89 24 00
        E 48 89 38 00
        E 144 99 2a 41
        E 96 89 2a 00
        E 384 99 3c 76
        E 0 99 26 7a
        E 0 99 27 65
        E 0 99 38 66
        E 0 99 2a 4e
        E 96 89 38 00
        E 0 89 2a 00
        E 96 89 27 00
        E 48 89 26 00
        E 0 99 48 41
        E 77 89 48 00
        E 163 89 3c 00
        E 0 99 38 41
        E 0 99 2a 41
        E 96 89 38 00
        E 0 89 2a 00
        E 144 99 38 46
        E 96 89 38 00
        E 144 99 38 76
        E 0 99 24 7a
        E 0 99 2a 4e
        E 96 89 2a 00
        E 192 89 3c 00
        E 0 89 24 00
        E 192 99 38 41
        E 0 99 2a 41
        E 96 89 38 00
        E 0 89 2a 00
        E 144 99 38 41
        E 96 89 38 00
        E 144 99 26 7a
        E 0 99 27 65
        E 0 99 38 65
        E 0 99 2a 4e
        E 96 89 38 00
        E 0 89 2a 00
        E 96 89 27 00
        E 48 89 26 00
        E 0 99 38 46
        E 96 89 38 00
        E 144 99 38 49
        E 0 99 2a 41
        E 96 89 38 00
        E 0 89 2a 00
        E 144 99 38 41
        E 0 99 44 41
        E 77 89 44 00
        E 19 89 38 00
        E 144 99 24 7a
        E 0 99 2a 4e
        E 96 89 2a 00
        E 144 99 38 49
        E 48 89 24 00
        E 48 89 38 00
        E 144 99 38 44
        E 0 99 2a 41
        E 96 89 38 00
        E 0 89 2a 00
        E 144 99 38 44
        E 96 89 38 00
        E 144 99 38 76
        E 0 99 26 7a
        E 0 99 27 65
        E 0 99 38 61
        E 0 99 2a 4e
        E 96 89 38 00
        E 0 89 2a 00
        E 96 89 27 00
        E 48 89 26 00
        E 0 99 38 49
        E 0 99 44 41
        E 77 89 44 00
        E 19 89 38 00
        E 144 89 38 00
        E 0 99 38 46
        E 0 99 2a 41
        E 96 89 38 00
        E 0 89 2a 00
        E 384 99 38 76
        E 0 99 24 7a
        E 0 99 2a 4e
        E 96 89 2a 00
        E 192 89 38 00
        E 0 89 24 00
        E 192 99 38 41
        E 0 99 2a 41
        E 96 89 38 00
        E 0 89 2a 00
        E 144 99 38 44
        E 96 89 38 00
        E 144 99 26 7a
        E 0 99 27 65
        E 0 99 38 60
        E 0 99 2a 4e
        E 96 89 38 00
        E 0 89 2a 00
        E 96 89 27 00
        E 48 89 26 00
        E 240 99 2a 41
        E 96 89 2a 00
        E 144 99 38 48
        E 0 99 44 46
        E 77 89 44 00
        E 19 89 38 00
        E 144 99 24 7a
        E 0 99 38 60
        E 0 99 2a 4e
        E 96 89 38 00
        E 0 89 2a 00
        E 144 99 38 43
        E 48 89 24 00
        E 48 89 38 00
        E 144 99 38 41
        E 0 99 2a 41
        E 96 89 38 00
        E 0 89 2a 00
        E 384 99 38 76
        E 0 99 26 7a
        E 0 99 27 65
        E 0 99 38 66
        E 0 99 2a 4e
        E 96 89 38 00
        E 0 89 2a 00
        E 96 89 27 00
        E 48 89 26 00
        E 0 99 44 41
        E 77 89 44 00
        E 163 89 38 00
        E 0 99 2a 41
        E 96 89 2a 00
        E 144 99 38 41
        E 96 89 38 00
        E 144 99 38 76
        E 0 99 24 7a
        E 0 99 38 66
        E 0 99 2a 4e
        E 96 89 38 00
        E 0 89 2a 00
        E 192 89 38 00
        E 0 89 24 00
        E 192 99 38 41
        E 0 99 2a 41
        E 96 89 38 00
        E 0 89 2a 00
        E 384 99 26 7a
        E 0 99 27 65
        E 0 99 38 60
        E 0 99 2a 4e
        E 96 89 38 00
        E 0 89 2a 00
        E 96 89 27 00
        E 48 89 26 00
        E 0 99 38 45
        E 96 89 38 00
        E 144 99 38 48
        E 0 99 2a 41
        E 96 89 38 00
        E 0 89 2a 00
        E 384 99 24 7a
        E 0 99 38 66
        E 0 99 2a 4e
        E 96 89 38 00
        E 0 89 2a 00
        E 192 89 24 00
        E 192 99 38 49
        E 0 99 2a 41
        E 96 89 38 00
        E 0 89 2a 00
        E 144 99 38 46
        E 96 89 38 00
        E 144 99 38 76
        E 0 99 26 7a
        E 0 99 27 65
        E 0 99 2a 4e
        E 96 89 2a 00
        E 96 89 27 00
        E 48 89 26 00
        E 0 99 38 45
        E 0 99 43 41
        E 77 89 43 00
        E 19 89 38 00
        E 144 89 38 00
        E 0 99 38 43
        E 0 99 2a 41
        E 96 89 38 00
        E 0 89 2a 00
        E 384 99 37 76
        E 0 99 24 7a
        E 0 99 2a 4e
        E 96 89 2a 00
        E 144 99 38 43
        E 48 89 38 00
        E 0 89 24 00
        E 48 89 38 00
        E 144 99 38 49
        E 0 99 2a 41
        E 0 99 43 41
        E 77 89 43 00
        E 19 89 38 00
        E 0 89 2a 00
        E 144 99 38 43
        E 96 89 38 00
        E 144 99 26 7a
        E 0 99 27 65
        E 0 99 2a 4e
        E 96 89 2a 00
        E 96 89 27 00
        E 48 89 26 00
        E 0 99 38 46
        E 96 89 38 00
        E 144 99 38 46
        E 0 99 2a 41
        E 96 89 38 00
        E 0 89 2a 00
        E 144 99 38 46
        E 96 89 38 00
        E 144 99 24 7a
        E 0 99 38 60
        E 0 99 2a 4e
        E 96 89 38 00
        E 0 89 2a 00
        E 192 89 24 00
        E 192 99 2a 41
        E 96 89 2a 00
        E 384 99 38 76
        E 0 99 26 7a
        E 0 99 27 65
        E 0 99 38 66
        E 0 99 2a 4e
        E 96 89 38 00
        E 0 89 2a 00
        E 96 89 27 00
        E 48 89 26 00
        E 0 99 38 43
        E 96 89 38 00
        E 144 89 37 00
        E 0 99 2a 41
        E 96 89 2a 00
        E 144 99 38 45
        E 96 89 38 00
        E 144 99 3c 76
        E 0 99 24 7a
        E 0 99 38 66
        E 0 99 2a 4e
        E 96 89 38 00
        E 0 89 2a 00
        E 144 99 38 48
        E 48 89 38 00
        E 0 89 24 00
        E 48 89 38 00
        E 144 99 38 45
        E 0 99 2a 41
        E 96 89 38 00
        E 0 89 2a 00
        E 144 99 38 43
        E 96 89 38 00
        E 144 99 26 7a
        E 0 99 27 65
        E 0 99 38 60
        E 0 99 2a 4e
        E 96 89 38 00
        E 0 89 2a 00
        E 96 89 27 00
        E 48 89 26 00
        E 0 99 38 48
        E 96 89 38 00
        E 144 99 2a 41
        E 96 89 2a 00
        E 384 99 24 7a
        E 0 99 2a 4e
        E 96 89 2a 00
        E 144 99 38 41
        E 48 89 24 00
        E 48 89 38 00
        E 144 99 2a 41
        E 96 89 2a 00
        E 144 99 38 44
        E 96 89 38 00
        E 144 99 3c 76
        E 0 99 26 7a
        E 0 99 27 65
        E 0 99 2a 4e
        E 96 89 2a 00
        E 96 89 27 00
        E 48 89 26 00
        E 0 99 38 44
        E 0 99 48 46
        E 77 89 48 00
        E 19 89 38 00
        E 144 89 3c 00
        E 0 99 38 41
        E 0 99 2a 41
        E 96 89 38 00
        E 0 89 2a 00
        E 144 99 38 41
        E 96 89 38 00
        E 144 99 3c 76
        E 0 99 24 7a
        E 0 99 2a 4e
        E 96 89 2a 00
        E 144 99 38 41
        E 48 89 3c 00
        E 0 89 24 00
        E 48 89 38 00
        E 144 99 38 41
        E 0 99 2a 41
        E 96 89 38 00
        E 0 89 2a 00
        E 144 99 38 41
        E 96 89 38 00
        E 144 99 26 7a
        E 0 99 27 65
        E 0 99 2a 4e
        E 96 89 2a 00
        E 96 89 27 00
        E 48 89 26 00
        E 0 99 38 49
        E 96 89 38 00
        E 144 99 2a 41
        E 96 89 2a 00
        E 144 99 48 41
        E 77 89 48 00
        E 163 99 24 7a
        E 0 99 38 60
        E 0 99 2a 4e
        E 96 89 38 00
        E 0 89 2a 00
        E 144 99 38 46
        E 48 89 24 00
        E 48 89 38 00
        E 144 99 38 41
        E 0 99 2a 41
        E 96 89 38 00
        E 0 89 2a 00
        E 144 99 38 46
        E 96 89 38 00
        E 144 99 3c 76
        E 0 99 26 7a
        E 0 99 27 65
        E 0 99 38 69
        E 0 99 2a 4e
        E 96 89 38 00
        E 0 89 2a 00
        E 96 89 27 00
        E 48 89 26 00
        E 0 99 38 41
        E 0 99 48 41
        E 77 89 48 00
        E 19 89 38 00
        E 144 89 3c 00
        E 0 99 38 48
        E 0 99 2a 41
        E 96 89 38 00
        E 0 89 2a 00
        E 144 99 38 46
        E 96 89 38 00
        E 144 99 3c 76
        E 0 99 24 7a
        E 0 99 2a 4e
        E 96 89 2a 00
        E 144 99 38 41
        E 48 89 3c 00
        E 0 89 24 00
        E 48 89 38 00
        E 144 99 38 41
        E 0 99 2a 41
        E 96 89 38 00
        E 0 89 2a 00
        E 384 99 26 7a
        E 0 99 27 65
        E 0 99 2a 4e
        E 96 89 2a 00
        E 96 89 27 00
        E 48 89 26 00
        E 0 99 38 44
        E 96 89 38 00
        E 144 99 2a 41
        E 96 89 2a 00
        E 144 99 38 41
        E 0 99 48 46
        E 77 89 48 00
        E 19 89 38 00
        E 144 99 24 7a
        E 0 99 38 65
        E 0 99 2a 4e
        E 96 89 38 00
        E 0 89 2a 00
        E 144 99 38 49
        E 48 89 24 00
        E 48 89 38 00
        E 144 99 38 41
        E 0 99 2a 41
        E 96 89 38 00
        E 0 89 2a 00
        E 144 99 38 41
        E 96 89 38 00
        E 144 99 3c 76
        E 0 99 26 7a
        E 0 99 27 65
        E 0 99 2a 4e
        E 96 89 2a 00
        E 96 89 27 00
        E 48 89 26 00
        E 0 99 38 41
        E 0 99 48 44
        E 77 89 48 00
        E 19 89 38 00
        E 144 89 3c 00
        E 0 99 38 46
        E 0 99 2a 41
        E 96 89 38 00
        E 0 89 2a 00
        E 144 99 38 48
        E 96 89 38 00
        E 144 99 3c 76
        E 0 99 24 7a
        E 0 99 2a 4e
        E 96 89 2a 00
        E 144 99 38 41
        E 48 89 3c 00
        E 0 89 24 00
        E 48 89 38 00
        E 144 99 38 41
        E 0 99 2a 41
        E 96 89 38 00
        E 0 89 2a 00
        E 384 99 26 7a
        E 0 99 27 65
        E 0 99 38 65
        E 0 99 2a 4e
        E 96 89 38 00
        E 0 89 2a 00
        E 96 89 27 00
        E 48 89 26 00
        E 0 99 38 48
        E 96 89 38 00
        E 144 99 38 49
        E 0 99 2a 41
        E 96 89 38 00
        E 0 89 2a 00
        E 144 99 38 41
        E 96 89 38 00
        E 144 99 24 7a
        E 0 99 38 68
        E 0 99 2a 4e
        E 96 89 38 00
        E 0 89 2a 00
        E 144 99 38 41
        E 48 89 24 00
        E 48 89 38 00
        E 144 99 38 41
        E 0 99 2a 41
        E 96 89 38 00
        E 0 89 2a 00
        E 144 99 38 43
        E 96 89 38 00
        E 144 99 3c 76
        E 0 99 26 7a
        E 0 99 27 65
        E 0 99 38 66
        E 0 99 2a 4e
        E 96 89 38 00
        E 0 89 2a 00
        E 96 89 27 00
        E 48 89 26 00
        E 240 89 3c 00
        E 0 99 38 41
        E 0 99 2a 41
        E 96 89 38 00
        E 0 89 2a 00
        E 384 99 34 76
        E 0 99 24 7a
        E 0 99 38 5f
        E 0 99 2a 4e
        E 96 89 38 00
        E 0 89 2a 00
        E 144 99 38 43
        E 48 89 3c 00
        E 0 89 24 00
        E 48 89 38 00
        E 144 99 38 41
        E 0 99 2a 41
        E 96 89 38 00
        E 0 89 2a 00
        E 144 99 38 41
        E 96 89 38 00
        E 144 99 26 7a
        E 0 99 27 65
        E 0 99 38 64
        E 0 99 2a 4e
        E 96 89 38 00
        E 0 89 2a 00
        E 96 89 27 00
        E 48 89 26 00
        E 0 99 38 46
        E 96 89 38 00
        E 144 99 2a 41
        E 96 89 2a 00
        E 144 99 38 41
        E 96 89 38 00
        E 144 99 24 7a
        E 0 99 38 61
        E 0 99 2a 4e
        E 96 89 38 00
        E 0 89 2a 00
        E 144 99 38 41
        E 48 89 24 00
        E 48 89 38 00
        E 144 99 2a 41
        E 96 89 2a 00
        E 144 99 38 41
        E 96 89 38 00
        E 144 99 33 76
        E 0 99 26 7a
        E 0 99 27 65
        E 0 99 2a 4e
        E 96 89 2a 00
        E 96 89 27 00
        E 48 89 26 00
        E 0 99 38 45
        E 96 89 38 00
        E 144 89 34 00
        E 0 99 38 48
        E 0 99 2a 41
        E 96 89 38 00
        E 0 89 2a 00
        E 144 99 38 49
        E 96 89 38 00
        E 144 99 34 76
        E 0 99 24 7a
        E 0 99 38 64
        E 0 99 2a 4e
        E 96 89 38 00
        E 0 89 2a 00
        E 144 99 38 46
        E 48 89 33 00
        E 0 89 24 00
        E 48 89 38 00
        E 144 99 2a 41
        E 96 89 2a 00
        E 144 99 38 48
        E 96 89 38 00
        E 144 99 26 7a
        E 0 99 27 65
        E 0 99 38 5f
        E 0 99 2a 4e
        E 96 89 38 00
        E 0 89 2a 00
        E 96 89 27 00
        E 48 89 26 00
        E 0 99 38 49
        E 96 89 38 00
        E 144 99 38 46
        E 0 99 2a 41
        E 96 89 38 00
        E 0 89 2a 00
        E 144 99 38 48
        E 96 89 38 00
        E 144 99 24 7a
        E 0 99 2a 4e
        E 96 89 2a 00
        E 144 99 38 44
        E 48 89 24 00
        E 48 89 38 00
        E 144 99 38 44
        E 0 99 2a 41
        E 96 89 38 00
        E 0 89 2a 00
        E 144 99 38 44
        E 96 89 38 00
        E 144 99 34 76
        E 0 99 26 7a
        E 0 99 27 65
        E 0 99 2a 4e
        E 96 89 2a 00
        E 96 89 27 00
        E 48 89 26 00
        E 0 99 38 43
        E 96 89 38 00
        E 144 89 34 00
        E 0 99 38 41
        E 0 99 2a 41
        E 96 89 38 00
        E 0 89 2a 00
        E 144 99 38 43
        E 96 89 38 00
        E 144 99 38 76
        E 0 99 24 7a
        E 0 99 2a 4e
        E 96 89 2a 00
        E 144 99 38 45
        E 48 89 34 00
        E 0 89 24 00
        E 48 89 38 00
        E 144 99 38 41
        E 0 99 2a 41
        E 96 89 38 00
        E 0 89 2a 00
        E 144 99 38 41
        E 96 89 38 00
        E 144 99 26 7a
        E 0 99 27 65
        E 0 99 38 61
        E 0 99 2a 4e
        E 96 89 38 00
        E 0 89 2a 00
        E 96 89 27 00
        E 48 89 26 00
        E 0 99 38 46
        E 96 89 38 00
        E 144 99 2a 41
        E 96 89 2a 00
        E 384 99 24 7a
        E 0 99 38 5f
        E 0 99 2a 4e
        E 96 89 38 00
        E 0 89 2a 00
        E 192 89 24 00
        E 192 99 38 41
        E 0 99 2a 41
        E 96 89 38 00
        E 0 89 2a 00
        E 144 99 38 46
        E 96 89 38 00
        E 144 99 38 76
        E 0 99 26 7a
        E 0 99 27 65
        E 0 99 2a 4e
        E 96 89 2a 00
        E 96 89 27 00
        E 48 89 26 00
        E 0 99 38 43
        E 96 89 38 00
        E 144 89 38 00
        E 0 99 38 41
        E 0 99 2a 41
        E 96 89 38 00
        E 0 89 2a 00
        E 144 99 38 45
        E 96 89 38 00
        E 144 99 38 76
        E 0 99 24 7a
        E 0 99 38 6a
        E 0 99 2a 4e
        E 96 89 38 00
        E 0 89 2a 00
        E 144 99 38 41
        E 48 89 38 00
        E 0 89 24 00
        E 48 89 38 00
        E 144 99 38 41
        E 0 99 2a 41
        E 96 89 38 00
        E 0 89 2a 00
        E 144 99 38 45
        E 96 89 38 00
        E 144 99 26 7a
        E 0 99 27 65
        E 0 99 38 68
        E 0 99 2a 4e
        E 96 89 38 00
        E 0 89 2a 00
        E 96 89 27 00
        E 48 89 26 00
        E 0 99 38 48
        E 96 89 38 00
        E 144 99 38 41
        E 0 99 2a 41
        E 96 89 38 00
        E 0 89 2a 00
        E 144 99 38 41
        E 96 89 38 00
        E 144 99 24 7a
        E 0 99 2a 4e
        E 96 89 2a 00
        E 144 99 38 46
        E 48 89 24 00
        E 48 89 38 00
        E 144 99 38 41
        E 0 99 2a 41
        E 96 89 38 00
        E 0 89 2a 00
        E 384 99 38 76
        E 0 99 26 7a
        E 0 99 27 65
        E 0 99 38 61
        E 0 99 2a 4e
        E 96 89 38 00
        E 0 89 2a 00
        E 96 89 27 00
        E 48 89 26 00
        E 0 99 38 49
        E 0 99 44 41
        E 77 89 44 00
        E 19 89 38 00
        E 144 89 38 00
        E 0 99 2a 41
        E 96 89 2a 00
        E 144 99 38 45
        E 96 89 38 00
        E 432 89 38 00
        E 0 b9 7b 00
        E 1 ff 2f 00
      >
    >
  >
  <TRACK
    NAME "808"
    PEAKCOL 4284506208
    VOLPAN 1.000000 0 1 -1
    MIDIOUT -1
    ISBUS 0 0
    <ITEM
      POSITION 0.000000
      LENGTH 40.669231
      NAME "808"
      VOLPAN 1 0 1 -1
      <SOURCE MIDI
        HASDATA 1 960 QN
        E 0 c1 26 00
        E 0 91 1f 65
        E 720 81 1f 00
        E 0 91 1f 5f
        E 50 81 1f 00
        E 10 91 20 5f
        E 50 81 20 00
        E 10 91 21 5f
        E 50 81 21 00
        E 10 91 24 65
        E 50 81 24 00
        E 10 91 24 65
        E 864 81 24 00
        E 96 91 24 68
        E 720 81 24 00
        E 0 91 24 68
        E 50 81 24 00
        E 10 91 25 68
        E 50 81 25 00
        E 10 91 27 68
        E 50 81 27 00
        E 10 91 2b 68
        E 50 81 2b 00
        E 10 91 2b 65
        E 720 81 2b 00
        E 0 91 2b 5f
        E 50 81 2b 00
        E 10 91 2a 5f
        E 50 81 2a 00
        E 10 91 28 5f
        E 50 81 28 00
        E 10 91 24 5f
        E 50 81 24 00
        E 10 91 24 65
        E 864 81 24 00
        E 96 91 24 68
        E 864 81 24 00
        E 96 91 24 68
        E 864 81 24 00
        E 96 91 24 65
        E 720 81 24 00
        E 0 91 24 5f
        E 50 81 24 00
        E 10 91 23 5f
        E 50 81 23 00
        E 10 91 22 5f
        E 50 81 22 00
        E 10 91 20 68
        E 50 81 20 00
        E 10 91 20 68
        E 864 81 20 00
        E 96 91 20 65
        E 864 81 20 00
        E 96 91 20 65
        E 864 81 20 00
        E 96 91 20 68
        E 720 81 20 00
        E 0 91 20 68
        E 50 81 20 00
        E 10 91 1f 68
        E 50 81 1f 00
        E 10 91 1e 68
        E 50 81 1e 00
        E 10 91 1b 68
        E 50 81 1b 00
        E 10 91 1b 68
        E 720 81 1b 00
        E 0 91 1b 68
        E 50 81 1b 00
        E 10 91 1c 68
        E 50 81 1c 00
        E 10 91 1d 68
        E 50 81 1d 00
        E 10 91 20 68
        E 50 81 20 00
        E 10 91 20 65
        E 720 81 20 00
        E 0 91 20 5f
        E 50 81 20 00
        E 10 91 1f 5f
        E 50 81 1f 00
        E 10 91 1e 5f
        E 50 81 1e 00
        E 10 91 1b 5f
        E 50 81 1b 00
        E 10 91 1b 65
        E 720 81 1b 00
        E 0 91 1b 5f
        E 50 81 1b 00
        E 10 91 1c 5f
        E 50 81 1c 00
        E 10 91 1d 5f
        E 50 81 1d 00
        E 10 91 20 5f
        E 50 81 20 00
        E 10 91 20 65
        E 720 81 20 00
        E 0 91 20 5f
        E 50 81 20 00
        E 10 91 1f 5f
        E 50 81 1f 00
        E 10 91 1d 5f
        E 50 81 1d 00
        E 10 91 1a 5f
        E 50 81 1a 00
        E 10 91 1a 65
        E 720 81 1a 00
        E 0 91 1a 5f
        E 50 81 1a 00
        E 10 91 1b 5f
        E 50 81 1b 00
        E 10 91 1c 5f
        E 50 81 1c 00
        E 10 91 1f 65
        E 50 81 1f 00
        E 10 91 1f 65
        E 864 81 1f 00
        E 96 91 1f 68
        E 864 81 1f 00
        E 96 91 1f 68
        E 864 81 1f 00
        E 96 91 1f 68
        E 864 81 1f 00
        E 96 91 1f 65
        E 864 81 1f 00
        E 96 91 1f 65
        E 864 81 1f 00
        E 96 91 1f 65
        E 720 81 1f 00
        E 0 91 1f 5f
        E 50 81 1f 00
        E 10 91 20 5f
        E 50 81 20 00
        E 10 91 21 5f
        E 50 81 21 00
        E 10 91 24 5f
        E 50 81 24 00
        E 10 91 24 65
        E 864 81 24 00
        E 96 91 24 68
        E 864 81 24 00
        E 96 91 24 65
        E 720 81 24 00
        E 0 91 24 5f
        E 50 81 24 00
        E 10 91 23 5f
        E 50 81 23 00
        E 10 91 22 5f
        E 50 81 22 00
        E 10 91 1f 5f
        E 50 81 1f 00
        E 10 91 1f 68
        E 720 81 1f 00
        E 0 91 1f 68
        E 50 81 1f 00
        E 10 91 21 68
        E 50 81 21 00
        E 10 91 25 68
        E 50 81 25 00
        E 10 91 2b 68
        E 50 81 2b 00
        E 10 91 2b 65
        E 720 81 2b 00
        E 0 91 2b 5f
        E 50 81 2b 00
        E 10 91 2a 5f
        E 50 81 2a 00
        E 10 91 28 5f
        E 50 81 28 00
        E 10 91 24 65
        E 50 81 24 00
        E 10 91 24 65
        E 864 81 24 00
        E 96 91 24 65
        E 864 81 24 00
        E 96 91 24 68
        E 864 81 24 00
        E 96 91 24 68
        E 864 81 24 00
        E 96 91 24 65
        E 864 81 24 00
        E 96 91 24 68
        E 720 81 24 00
        E 0 91 24 68
        E 50 81 24 00
        E 10 91 23 68
        E 50 81 23 00
        E 10 91 22 68
        E 50 81 22 00
        E 10 91 1f 68
        E 50 81 1f 00
        E 10 91 1f 65
        E 720 81 1f 00
        E 0 91 1f 5f
        E 50 81 1f 00
        E 10 91 20 5f
        E 50 81 20 00
        E 10 91 21 5f
        E 50 81 21 00
        E 10 91 24 68
        E 50 81 24 00
        E 10 91 24 68
        E 864 81 24 00
        E 96 91 24 65
        E 864 81 24 00
        E 96 91 24 65
        E 864 81 24 00
        E 96 91 24 65
        E 720 81 24 00
        E 0 91 24 5f
        E 50 81 24 00
        E 10 91 23 5f
        E 50 81 23 00
        E 10 91 22 5f
        E 50 81 22 00
        E 10 91 20 5f
        E 50 81 20 00
        E 10 91 20 65
        E 864 81 20 00
        E 96 91 20 65
        E 864 81 20 00
        E 96 91 20 65
        E 720 81 20 00
        E 0 91 20 5f
        E 50 81 20 00
        E 10 91 22 5f
        E 50 81 22 00
        E 10 91 26 5f
        E 50 81 26 00
        E 10 91 2c 5f
        E 50 81 2c 00
        E 10 91 2c 68
        E 720 81 2c 00
        E 0 91 2c 68
        E 50 81 2c 00
        E 10 91 2a 68
        E 50 81 2a 00
        E 10 91 26 68
        E 50 81 26 00
        E 10 91 20 68
        E 50 81 20 00
        E 10 91 20 68
        E 864 81 20 00
        E 96 91 20 65
        E 864 81 20 00
        E 96 91 20 65
        E 864 81 20 00
        E 96 91 20 68
        E 720 81 20 00
        E 0 91 20 68
        E 50 81 20 00
        E 10 91 20 68
        E 50 81 20 00
        E 10 91 20 68
        E 50 81 20 00
        E 10 91 1f 68
        E 50 81 1f 00
        E 10 91 1f 65
        E 864 81 1f 00
        E 96 91 1f 68
        E 720 81 1f 00
        E 0 91 1f 68
        E 50 81 1f 00
        E 10 91 21 68
        E 50 81 21 00
        E 10 91 25 68
        E 50 81 25 00
        E 10 91 2b 68
        E 50 81 2b 00
        E 10 91 2b 65
        E 720 81 2b 00
        E 0 91 2b 5f
        E 50 81 2b 00
        E 10 91 29 5f
        E 50 81 29 00
        E 10 91 25 5f
        E 50 81 25 00
        E 10 91 1f 5f
        E 50 81 1f 00
        E 10 91 1f 65
        E 864 81 1f 00
        E 96 91 1f 65
        E 720 81 1f 00
        E 0 91 1f 5f
        E 50 81 1f 00
        E 10 91 1e 5f
        E 50 81 1e 00
        E 10 91 1d 5f
        E 50 81 1d 00
        E 10 91 1a 5f
        E 50 81 1a 00
        E 10 91 1a 65
        E 720 81 1a 00
        E 0 91 1b 5f
        E 50 81 1b 00
        E 10 91 1d 5f
        E 50 81 1d 00
        E 10 91 22 5f
        E 50 81 22 00
        E 10 91 2b 5f
        E 50 81 2b 00
        E 10 91 2b 68
        E 720 81 2b 00
        E 0 91 2b 68
        E 50 81 2b 00
        E 10 91 29 68
        E 50 81 29 00
        E 10 91 25 68
        E 50 81 25 00
        E 10 91 1f 68
        E 50 81 1f 00
        E 10 91 1f 65
        E 720 81 1f 00
        E 0 91 1f 5f
        E 50 81 1f 00
        E 10 91 20 5f
        E 50 81 20 00
        E 10 91 21 5f
        E 50 81 21 00
        E 10 91 24 5f
        E 50 81 24 00
        E 10 91 24 65
        E 864 81 24 00
        E 96 91 24 65
        E 864 81 24 00
        E 96 91 24 65
        E 720 81 24 00
        E 0 91 24 5f
        E 50 81 24 00
        E 10 91 26 5f
        E 50 81 26 00
        E 10 91 2a 5f
        E 50 81 2a 00
        E 10 91 30 5f
        E 50 81 30 00
        E 10 91 30 68
        E 864 81 30 00
        E 96 91 30 65
        E 864 81 30 00
        E 96 91 30 65
        E 720 81 30 00
        E 0 91 30 5f
        E 50 81 30 00
        E 10 91 2e 5f
        E 50 81 2e 00
        E 10 91 2a 5f
        E 50 81 2a 00
        E 10 91 24 5f
        E 50 81 24 00
        E 10 91 24 65
        E 864 81 24 00
        E 96 91 24 65
        E 864 81 24 00
        E 96 91 24 65
        E 864 81 24 00
        E 96 91 24 68
        E 864 81 24 00
        E 96 91 24 68
        E 720 81 24 00
        E 0 91 24 68
        E 50 81 24 00
        E 10 91 25 68
        E 50 81 25 00
        E 10 91 27 68
        E 50 81 27 00
        E 10 91 2b 68
        E 50 81 2b 00
        E 10 91 2b 65
        E 720 81 2b 00
        E 0 91 2b 5f
        E 50 81 2b 00
        E 10 91 2a 5f
        E 50 81 2a 00
        E 10 91 28 5f
        E 50 81 28 00
        E 10 91 24 5f
        E 50 81 24 00
        E 10 91 24 65
        E 864 81 24 00
        E 96 91 24 65
        E 864 81 24 00
        E 96 91 24 65
        E 720 81 24 00
        E 0 91 24 5f
        E 50 81 24 00
        E 10 91 26 5f
        E 50 81 26 00
        E 10 91 2a 5f
        E 50 81 2a 00
        E 10 91 30 65
        E 50 81 30 00
        E 10 91 30 65
        E 720 81 30 00
        E 0 91 2f 5f
        E 50 81 2f 00
        E 10 91 2c 5f
        E 50 81 2c 00
        E 10 91 26 5f
        E 50 81 26 00
        E 10 91 1b 5f
        E 50 81 1b 00
        E 10 91 1b 65
        E 864 81 1b 00
        E 96 91 1b 68
        E 864 81 1b 00
        E 96 91 1b 68
        E 720 81 1b 00
        E 0 91 1b 68
        E 50 81 1b 00
        E 10 91 1d 68
        E 50 81 1d 00
        E 10 91 21 68
        E 50 81 21 00
        E 10 91 27 68
        E 50 81 27 00
        E 10 91 27 65
        E 720 81 27 00
        E 0 91 27 5f
        E 50 81 27 00
        E 10 91 25 5f
        E 50 81 25 00
        E 10 91 21 5f
        E 50 81 21 00
        E 10 91 1b 68
        E 50 81 1b 00
        E 10 91 1b 68
        E 864 81 1b 00
        E 96 91 1b 65
        E 864 81 1b 00
        E 96 91 1b 68
        E 864 81 1b 00
        E 96 91 1b 65
        E 720 81 1b 00
        E 0 91 1b 5f
        E 50 81 1b 00
        E 10 91 1c 5f
        E 50 81 1c 00
        E 10 91 1d 5f
        E 50 81 1d 00
        E 10 91 20 65
        E 50 81 20 00
        E 10 91 20 65
        E 720 81 20 00
        E 0 91 20 5f
        E 50 81 20 00
        E 10 91 1f 5f
        E 50 81 1f 00
        E 10 91 1e 5f
        E 50 81 1e 00
        E 10 91 1b 5f
        E 50 81 1b 00
        E 10 91 1b 68
        E 720 81 1b 00
        E 0 91 1b 68
        E 50 81 1b 00
        E 10 91 1c 68
        E 50 81 1c 00
        E 10 91 1d 68
        E 50 81 1d 00
        E 10 91 20 68
        E 50 81 20 00
        E 10 91 20 68
        E 864 81 20 00
        E 96 91 20 68
        E 720 81 20 00
        E 0 91 20 68
        E 50 81 20 00
        E 10 91 22 68
        E 50 81 22 00
        E 10 91 26 68
        E 50 81 26 00
        E 10 91 2c 68
        E 50 81 2c 00
        E 10 91 2c 65
        E 720 81 2c 00
        E 0 91 2c 5f
        E 50 81 2c 00
        E 10 91 2a 5f
        E 50 81 2a 00
        E 10 91 26 5f
        E 50 81 26 00
        E 10 91 20 68
        E 50 81 20 00
        E 10 91 20 68
        E 864 81 20 00
        E 96 91 20 65
        E 864 81 20 00
        E 96 91 20 65
        E 864 81 20 00
        E 0 b1 7b 00
        E 1 ff 2f 00
      >
    >
  >
  <TRACK
    NAME "DarkPad"
    PEAKCOL 4284506208
    VOLPAN 1.000000 0 1 -1
    MIDIOUT -1
    ISBUS 0 0
    <ITEM
      POSITION 0.013846
      LENGTH 39.614110
      NAME "DarkPad"
      VOLPAN 1 0 1 -1
      <SOURCE MIDI
        HASDATA 1 960 QN
        E 0 c2 5f 00
        E 29 92 30 24
        E 16 92 38 24
        E 6973 82 30 00
        E 16 82 38 00
        E 645 92 24 24
        E 17 92 25 24
        E 14 92 27 24
        E 10 92 2b 24
        E 29 92 3e 24
        E 6989 82 3e 00
        E 619 92 26 24
        E 19 92 27 26
        E 10 92 29 28
        E 18 92 2d 24
        E 1 92 3a 24
        E 10 92 35 24
        E 18 92 40 24
        E 2230 82 24 00
        E 17 82 25 00
        E 14 82 27 00
        E 10 82 2b 00
        E 4690 82 3a 00
        E 10 82 35 00
        E 18 82 40 00
        E 617 92 24 26
        E 16 92 25 26
        E 13 92 30 24
        E 1 92 27 28
        E 16 92 2b 24
        E 2256 82 26 00
        E 19 82 27 00
        E 10 82 29 00
        E 18 82 2d 00
        E 4669 82 30 00
        E 664 92 24 24
        E 13 92 25 26
        E 13 92 27 26
        E 3 92 30 24
        E 10 92 2b 24
        E 2 92 38 24
        E 27 92 3e 24
        E 2234 82 24 00
        E 16 82 25 00
        E 14 82 27 00
        E 16 82 2b 00
        E 4670 82 30 00
        E 12 82 38 00
        E 27 82 3e 00
        E 619 92 24 26
        E 17 92 25 28
        E 12 92 30 24
        E 3 92 27 24
        E 14 92 38 24
        E 0 92 2b 24
        E 15 92 33 24
        E 14 92 3e 24
        E 2233 82 24 00
        E 13 82 25 00
        E 13 82 27 00
        E 13 82 2b 00
        E 4671 82 30 00
        E 17 82 38 00
        E 15 82 33 00
        E 14 82 3e 00
        E 618 92 26 24
        E 18 92 27 24
        E 11 92 32 24
        E 3 92 29 25
        E 10 92 2d 24
        E 5 92 3a 24
        E 2255 82 24 00
        E 17 82 25 00
        E 15 82 27 00
        E 14 82 2b 00
        E 4670 82 32 00
        E 18 82 3a 00
        E 644 92 24 25
        E 18 92 25 28
        E 11 92 30 24
        E 3 92 27 24
        E 12 92 2b 24
        E 3 92 38 24
        E 2257 82 26 00
        E 18 82 27 00
        E 14 82 29 00
        E 10 82 2d 00
        E 4672 82 30 00
        E 18 82 38 00
        E 643 92 24 24
        E 18 92 25 24
        E 10 92 27 24
        E 16 92 2b 24
        E 2261 82 24 00
        E 18 82 25 00
        E 14 82 27 00
        E 12 82 2b 00
        E 5332 92 27 26
        E 16 92 28 28
        E 16 92 2a 24
        E 11 92 2e 26
        E 2 92 3b 24
        E 27 92 41 24
        E 2231 82 24 00
        E 18 82 25 00
        E 10 82 27 00
        E 16 82 2b 00
        E 4687 82 3b 00
        E 27 82 41 00
        E 662 92 38 24
        E 31 92 3e 24
        E 2230 82 27 00
        E 16 82 28 00
        E 16 82 2a 00
        E 11 82 2e 00
        E 3063 82 38 00
        E 9 82 3e 00
        E 0 b2 7b 00
        E 1 ff 2f 00
      >
    >
  >
  <TRACK
    NAME "SynthLead"
    PEAKCOL 4284506208
    VOLPAN 1.000000 0 1 -1
    MIDIOUT -1
    ISBUS 0 0
    <ITEM
      POSITION 0.461538
      LENGTH 40.415385
      NAME "SynthLead"
      VOLPAN 1 0 1 -1
      <SOURCE MIDI
        HASDATA 1 960 QN
        E 0 c3 52 00
        E 960 93 48 4c
        E 960 93 48 52
        E 336 83 48 00
        E 624 93 48 4c
        E 336 83 48 00
        E 960 83 48 00
        E 2544 93 4b 4c
        E 1296 83 4b 00
        E 624 93 50 4c
        E 960 93 54 52
        E 336 83 50 00
        E 960 83 54 00
        E 624 93 50 52
        E 960 93 4b 4c
        E 336 83 50 00
        E 624 93 50 52
        E 336 83 4b 00
        E 624 93 50 4c
        E 336 83 50 00
        E 624 93 4f 52
        E 336 83 50 00
        E 624 93 4a 4c
        E 336 83 4f 00
        E 624 93 4a 52
        E 336 83 4a 00
        E 624 93 46 4c
        E 336 83 4a 00
        E 624 93 4a 52
        E 336 83 46 00
        E 624 93 4a 4c
        E 336 83 4a 00
        E 624 93 4f 52
        E 336 83 4a 00
        E 624 93 4a 4c
        E 336 83 4f 00
        E 624 93 4b 52
        E 336 83 4a 00
        E 624 93 4b 4c
        E 336 83 4b 00
        E 624 93 4b 52
        E 336 83 4b 00
        E 624 93 4f 4c
        E 336 83 4b 00
        E 624 93 4f 52
        E 336 83 4f 00
        E 624 93 4b 4c
        E 336 83 4f 00
        E 624 93 48 52
        E 336 83 4b 00
        E 624 93 48 4c
        E 336 83 48 00
        E 624 93 48 52
        E 336 83 48 00
        E 624 93 48 4c
        E 336 83 48 00
        E 624 93 4b 52
        E 336 83 48 00
        E 624 93 4b 4c
        E 336 83 4b 00
        E 624 93 4f 52
        E 336 83 4b 00
        E 624 93 54 4c
        E 336 83 4f 00
        E 624 93 54 52
        E 336 83 54 00
        E 624 93 4f 4c
        E 336 83 54 00
        E 624 93 54 52
        E 336 83 4f 00
        E 624 93 57 4c
        E 336 83 54 00
        E 624 93 57 52
        E 336 83 57 00
        E 624 93 57 4c
        E 336 83 57 00
        E 624 93 50 52
        E 336 83 57 00
        E 624 93 50 4c
        E 336 83 50 00
        E 624 93 4b 52
        E 336 83 50 00
        E 624 93 4b 4c
        E 336 83 4b 00
        E 624 93 4f 52
        E 336 83 4b 00
        E 624 93 52 4c
        E 336 83 4f 00
        E 624 93 56 52
        E 336 83 52 00
        E 624 93 4f 4c
        E 336 83 56 00
        E 624 93 4a 52
        E 336 83 4f 00
        E 624 93 4f 4c
        E 336 83 4a 00
        E 624 93 4f 52
        E 336 83 4f 00
        E 624 93 52 4c
        E 336 83 4f 00
        E 624 93 57 52
        E 336 83 52 00
        E 624 93 54 4c
        E 336 83 57 00
        E 624 93 54 52
        E 336 83 54 00
        E 624 93 4f 4c
        E 336 83 54 00
        E 624 93 4b 52
        E 336 83 4f 00
        E 624 93 4f 4c
        E 336 83 4b 00
        E 624 93 4b 52
        E 336 83 4f 00
        E 624 93 4b 4c
        E 336 83 4b 00
        E 624 93 4b 52
        E 336 83 4b 00
        E 624 93 4b 4c
        E 336 83 4b 00
        E 624 93 4f 52
        E 336 83 4b 00
        E 624 93 4b 4c
        E 336 83 4f 00
        E 624 93 4f 52
        E 336 83 4b 00
        E 624 93 54 4c
        E 336 83 4f 00
        E 624 93 54 52
        E 336 83 54 00
        E 624 93 57 4c
        E 336 83 54 00
        E 624 93 57 52
        E 336 83 57 00
        E 624 93 57 4c
        E 336 83 57 00
        E 624 93 52 52
        E 336 83 57 00
        E 960 83 52 00
        E 1584 93 46 4c
        E 1296 83 46 00
        E 1584 93 50 52
        E 1296 83 50 00
        E 2544 93 50 52
        E 1296 83 50 00
        E 1584 93 57 4c
        E 1296 83 57 00
        E 0 b3 7b 00
        E 1 ff 2f 00
      >
    >
  >
  <TRACK
    NAME "VocalChop"
    PEAKCOL 4284506208
    VOLPAN 1.000000 0 1 -1
    MIDIOUT -1
    ISBUS 0 0
    <ITEM
      POSITION 0.346154
      LENGTH 39.976923
      NAME "VocalChop"
      VOLPAN 1 0 1 -1
      <SOURCE MIDI
        HASDATA 1 960 QN
        E 0 c4 36 00
        E 720 94 3f 3f
        E 384 84 3f 00
        E 1536 94 3c 3f
        E 384 84 3c 00
        E 2256 94 3b 3f
        E 384 84 3b 00
        E 8496 94 44 3f
        E 384 84 44 00
        E 2256 94 43 3f
        E 384 84 43 00
        E 2736 94 3e 3f
        E 384 84 3e 00
        E 816 94 3e 3f
        E 384 84 3e 00
        E 2256 94 43 3f
        E 384 84 43 00
        E 1536 94 3f 3f
        E 384 84 3f 00
        E 2736 94 43 3f
        E 384 84 43 00
        E 336 94 43 3f
        E 384 84 43 00
        E 816 94 43 3f
        E 384 84 43 00
        E 336 94 48 3f
        E 384 84 48 00
        E 336 94 4b 3f
        E 384 84 4b 00
        E 2016 94 48 3f
        E 384 84 48 00
        E 1056 94 4b 3f
        E 384 84 4b 00
        E 816 94 4b 3f
        E 384 84 4b 00
        E 336 94 48 3f
        E 384 84 48 00
        E 816 94 44 3f
        E 384 84 44 00
        E 1536 94 3f 3f
        E 384 84 3f 00
        E 1536 94 44 3f
        E 384 84 44 00
        E 336 94 48 3f
        E 384 84 48 00
        E 2016 94 43 3f
        E 384 84 43 00
        E 1056 94 43 3f
        E 384 84 43 00
        E 2016 94 43 3f
        E 384 84 43 00
        E 1056 94 3e 3f
        E 384 84 3e 00
        E 816 94 3e 3f
        E 384 84 3e 00
        E 336 94 3b 3f
        E 384 84 3b 00
        E 1536 94 3f 3f
        E 384 84 3f 00
        E 816 94 43 3f
        E 384 84 43 00
        E 336 94 43 3f
        E 384 84 43 00
        E 1536 94 43 3f
        E 384 84 43 00
        E 1536 94 48 3f
        E 384 84 48 00
        E 96 94 43 3f
        E 384 84 43 00
        E 336 94 48 3f
        E 384 84 48 00
        E 3456 94 43 3f
        E 384 84 43 00
        E 336 94 48 3f
        E 384 84 48 00
        E 96 94 4b 3f
        E 384 84 4b 00
        E 1056 94 4f 3f
        E 384 84 4f 00
        E 96 94 4b 3f
        E 384 84 4b 00
        E 336 94 47 3f
        E 384 84 47 00
        E 336 94 47 3f
        E 384 84 47 00
        E 96 94 43 3f
        E 384 84 43 00
        E 336 94 3f 3f
        E 384 84 3f 00
        E 5376 94 3c 3f
        E 384 84 3c 00
        E 1536 94 3f 3f
        E 384 84 3f 00
        E 336 94 44 3f
        E 384 84 44 00
        E 2736 94 3f 3f
        E 384 84 3f 00
        E 0 b4 7b 00
        E 1 ff 2f 00
      >
    >
  >
>
