<REAPER_PROJECT 0.1 "7.0" 1700000000
  TEMPO 138.000000 4 4
  SAMPLERATE 48000 0 0
  RENDER_FILE ""
  RENDER_FMT 0 2 0
  RENDER_1X 0
  RENDER_RANGE 1 0 43.846255 0 0
  RENDER_RESAMPLE 3 0 1
  <MASTERTRACK
    VOLPAN 1 0 1 -1
    DEFCHAN 0
  >
  <TRACK
    NAME "Lead"
    PEAKCOL 4284506208
    VOLPAN 1.000000 0 1 -1
    MIDIOUT -1
    ISBUS 0 0
    <ITEM
      POSITION 0.001805
      LENGTH 41.944450
      NAME "Lead"
      VOLPAN 1 0 1 -1
      <SOURCE MIDI
        HASDATA 1 960 QN
        E 0 c0 51 00
        E 4 90 4d 73
        E 954 80 4d 00
        E 49 90 4c 5c
        E 875 80 4c 00
        E 144 90 4c 44
        E 656 80 4c 00
        E 359 90 4d 44
        E 219 80 4d 00
        E 823 90 4a 44
        E 481 80 4a 00
        E 516 90 4c 44
        E 867 80 4c 00
        E 156 90 4d 4b
        E 219 80 4d 00
        E 813 90 4d 47
        E 780 80 4d 00
        E 230 90 4f 44
        E 241 80 4f 00
        E 1023 90 4d 55
        E 768 90 4d 55
        E 99 80 4d 00
        E 768 80 4d 00
        E 149 90 4d 44
        E 394 80 4d 00
        E 613 90 4f 44
        E 722 80 4f 00
        E 169 90 4f 52
        E 438 80 4f 00
        E 211 90 51 44
        E 656 80 51 00
        E 596 90 4d 44
        E 780 80 4d 00
        E 479 90 4d 48
        E 867 80 4d 00
        E 145 90 4d 5e
        E 867 80 4d 00
        E 269 90 4c 44
        E 875 80 4c 00
        E 28 90 4c 44
        E 954 80 4c 00
        E 60 90 4a 44
        E 438 80 4a 00
        E 825 90 4c 59
        E 783 90 4c 44
        E 84 80 4c 00
        E 696 80 4c 00
        E 221 90 4d 44
        E 954 80 4d 00
        E 77 90 4c 44
        E 504 90 4d 44
        E 240 80 4d 00
        E 123 80 4c 00
        E 141 90 51 53
        E 219 80 51 00
        E 803 90 4f 44
        E 507 90 4d 70
        E 84 80 4f 00
        E 870 80 4d 00
        E 443 90 4a 44
        E 775 90 4c 44
        E 92 80 4a 00
        E 775 80 4c 00
        E 27 90 4a 47
        E 780 80 4a 00
        E 731 90 4c 45
        E 515 90 4d 4b
        E 352 80 4c 00
        E 515 80 4d 00
        E 166 90 4d 4b
        E 867 80 4d 00
        E 383 90 4a 44
        E 780 80 4a 00
        E 2 90 4c 4b
        E 501 90 4d 5b
        E 453 80 4c 00
        E 414 80 4d 00
        E 159 90 4a 44
        E 867 80 4a 00
        E 140 90 4c 44
        E 101 90 4d 44
        E 101 90 51 44
        E 101 90 52 44
        E 38 80 4d 00
        E 63 90 56 44
        E 34 80 4c 00
        E 4 80 51 00
        E 63 90 58 44
        E 38 80 52 00
        E 101 80 56 00
        E 641 80 58 00
        E 233 90 56 44
        E 954 80 56 00
        E 69 90 58 47
        E 867 80 58 00
        E 80 90 54 44
        E 240 80 54 00
        E 708 90 51 44
        E 197 80 51 00
        E 449 90 52 4e
        E 954 80 52 00
        E 84 90 56 4a
        E 867 80 56 00
        E 124 90 54 4d
        E 656 80 54 00
        E 388 90 51 44
        E 780 80 51 00
        E 211 90 52 45
        E 241 80 52 00
        E 799 90 52 44
        E 867 80 52 00
        E 393 90 51 44
        E 656 80 51 00
        E 109 90 4d 44
        E 591 80 4d 00
        E 1171 90 4d 48
        E 796 90 4f 50
        E 71 80 4d 00
        E 796 80 4f 00
        E 632 90 4d 44
        E 954 80 4d 00
        E 86 90 4f 44
        E 252 90 51 44
        E 240 80 51 00
        E 11 90 52 44
        E 240 80 52 00
        E 12 90 56 44
        E 112 80 4f 00
        E 128 80 56 00
        E 12 90 58 56
        E 867 80 58 00
        E 154 90 56 44
        E 394 80 56 00
        E 624 90 59 53
        E 722 80 59 00
        E 293 90 58 45
        E 656 80 58 00
        E 863 90 54 4b
        E 867 80 54 00
        E 165 90 56 44
        E 954 80 56 00
        E 46 90 59 44
        E 867 80 59 00
        E 149 90 59 44
        E 438 80 59 00
        E 584 90 56 44
        E 511 90 56 44
        E 269 80 56 00
        E 322 80 56 00
        E 434 90 54 44
        E 867 80 54 00
        E 157 90 51 70
        E 867 80 51 00
        E 642 90 54 47
        E 780 80 54 00
        E 247 90 52 4b
        E 954 80 52 00
        E 64 90 51 55
        E 867 80 51 00
        E 159 90 4d 4a
        E 867 80 4d 00
        E 391 90 4d 63
        E 256 90 4a 44
        E 138 80 4d 00
        E 816 80 4a 00
        E 61 90 4c 4a
        E 438 80 4c 00
        E 941 90 4c 44
        E 451 90 4d 44
        E 240 80 4d 00
        E 176 80 4c 00
        E 34 90 51 44
        E 591 80 51 00
        E 191 90 4f 55
        E 253 90 51 44
        E 240 80 51 00
        E 13 90 52 44
        E 240 80 52 00
        E 14 90 56 44
        E 194 80 4f 00
        E 46 80 56 00
        E 13 90 58 4b
        E 867 80 58 00
        E 17 90 58 44
        E 438 80 58 00
        E 208 90 56 44
        E 219 80 56 00
        E 808 90 54 44
        E 954 80 54 00
        E 50 90 54 44
        E 867 80 54 00
        E 161 90 54 50
        E 656 80 54 00
        E 340 90 56 44
        E 780 80 56 00
        E 258 90 54 4e
        E 481 80 54 00
        E 517 90 56 44
        E 438 80 56 00
        E 590 90 54 4d
        E 438 80 54 00
        E 580 90 51 44
        E 780 80 51 00
        E 809 90 52 44
        E 867 80 52 00
        E 283 90 54 59
        E 263 90 58 44
        E 438 80 58 00
        E 166 80 54 00
        E 406 90 56 44
        E 394 80 56 00
        E 0 b0 7b 00
        E 1 ff 2f 00
      >
    >
  >
  <TRACK
    NAME "Drums"
    PEAKCOL 4290722362
    VOLPAN 1.000000 0 1 -1
    MIDIOUT -1
    ISBUS 0 0
    <ITEM
      POSITION 0.000000
      LENGTH 41.368130
      NAME "Drums"
      VOLPAN 1 0 1 -1
      <SOURCE MIDI
        HASDATA 1 960 QN
        E 0 c9 00 00
        E 0 99 3e 7b
        E 0 99 29 50
        E 96 89 29 00
        E 24 99 29 66
        E 96 89 29 00
        E 24 99 29 53
        E 48 89 29 00
        E 12 99 29 50
        E 48 89 29 00
        E 12 99 29 50
        E 48 89 29 00
        E 12 99 29 50
        E 48 89 29 00
        E 12 99 29 50
        E 96 89 29 00
        E 24 99 29 66
        E 96 89 29 00
        E 24 99 29 59
        E 64 89 29 00
        E 16 99 2b 50
        E 64 89 2b 00
        E 16 99 2e 50
        E 64 89 2e 00
        E 16 99 26 7d
        E 0 99 27 7d
        E 80 99 2e 50
        E 64 89 2e 00
        E 16 99 2e 5f
        E 64 89 2e 00
        E 16 99 29 52
        E 48 89 26 00
        E 0 89 27 00
        E 16 89 29 00
        E 16 99 29 50
        E 64 89 29 00
        E 16 99 29 50
        E 64 89 29 00
        E 16 99 2a 53
        E 115 89 2a 00
        E 125 99 2e 50
        E 77 89 2e 00
        E 19 99 2d 50
        E 77 89 2d 00
        E 19 99 2d 50
        E 38 89 3e 00
        E 10 99 3e 70
        E 29 89 2d 00
        E 19 99 2b 50
        E 77 89 2b 00
        E 19 99 2b 66
        E 77 89 2b 00
        E 19 99 29 50
        E 77 89 29 00
        E 19 99 29 50
        E 77 89 29 00
        E 19 99 29 50
        E 77 89 29 00
        E 19 99 29 50
        E 77 89 29 00
        E 19 99 29 63
        E 77 89 29 00
        E 19 99 29 5b
        E 96 89 29 00
        E 24 99 29 50
        E 96 89 29 00
        E 24 99 26 7d
        E 0 99 27 7d
        E 0 99 2b 50
        E 48 89 2b 00
        E 12 99 29 50
        E 48 89 29 00
        E 12 99 29 50
        E 48 89 29 00
        E 12 99 29 50
        E 48 89 29 00
        E 12 99 29 50
        E 48 89 26 00
        E 0 89 27 00
        E 16 89 29 00
        E 16 99 29 50
        E 64 89 29 00
        E 16 99 29 66
        E 64 89 29 00
        E 16 89 3e 00
        E 0 99 2e 53
        E 240 89 2e 00
        E 0 99 2a 50
        E 115 89 2a 00
        E 125 99 24 7d
        E 0 99 2d 50
        E 19 99 3e 50
        E 45 89 2d 00
        E 16 99 2b 50
        E 64 89 2b 00
        E 16 99 29 50
        E 64 89 29 00
        E 16 99 2a 50
        E 48 89 24 00
        E 67 89 2a 00
        E 125 99 29 50
        E 48 89 29 00
        E 12 99 29 50
        E 48 89 29 00
        E 12 99 2d 50
        E 48 89 2d 00
        E 12 99 30 64
        E 48 89 30 00
        E 12 99 29 50
        E 48 89 29 00
        E 12 99 29 50
        E 48 89 29 00
        E 12 99 29 50
        E 48 89 29 00
        E 12 99 29 5c
        E 48 89 29 00
        E 12 99 26 7d
        E 0 99 27 7d
        E 240 99 29 50
        E 48 89 26 00
        E 0 89 27 00
        E 0 89 29 00
        E 12 99 29 50
        E 48 89 29 00
        E 12 99 29 50
        E 48 89 29 00
        E 12 99 29 66
        E 48 89 29 00
        E 12 99 2d 50
        E 96 89 2d 00
        E 24 99 29 66
        E 96 89 29 00
        E 24 99 29 50
        E 96 89 29 00
        E 24 99 29 50
        E 96 89 29 00
        E 14 89 3e 00
        E 10 99 24 7d
        E 0 99 2a 50
        E 19 99 3e 50
        E 96 89 2a 00
        E 125 99 2a 50
        E 48 89 24 00
        E 67 89 2a 00
        E 125 99 2a 50
        E 115 89 2a 00
        E 125 99 2a 50
        E 0 99 26 50
        E 58 89 26 00
        E 2 99 26 50
        E 55 89 2a 00
        E 3 89 26 00
        E 2 99 26 50
        E 58 89 26 00
        E 62 99 26 7d
        E 0 99 27 7b
        E 240 99 2e 50
        E 48 89 26 00
        E 0 89 27 00
        E 192 89 3e 00
        E 0 89 2e 00
        E 0 99 2b 5b
        E 77 89 2b 00
        E 19 99 2b 53
        E 77 89 2b 00
        E 19 99 2b 50
        E 77 89 2b 00
        E 19 99 2b 50
        E 77 89 2b 00
        E 19 99 2b 50
        E 77 89 2b 00
        E 19 99 24 7d
        E 0 99 29 50
        E 19 99 3a 50
        E 58 89 29 00
        E 19 99 29 50
        E 77 89 29 00
        E 19 99 29 50
        E 77 89 29 00
        E 19 89 24 00
        E 0 99 29 50
        E 77 89 29 00
        E 19 99 29 66
        E 77 89 29 00
        E 19 99 2e 50
        E 96 89 2e 00
        E 24 99 30 50
        E 96 89 30 00
        E 24 99 2a 50
        E 115 89 2a 00
        E 125 99 26 7d
        E 0 99 27 7d
        E 240 99 29 52
        E 48 89 26 00
        E 0 89 27 00
        E 0 89 29 00
        E 12 99 29 50
        E 48 89 29 00
        E 12 99 29 50
        E 48 89 29 00
        E 12 99 29 50
        E 48 89 29 00
        E 12 99 29 50
        E 64 89 29 00
        E 16 99 2b 50
        E 64 89 2b 00
        E 16 99 30 5f
        E 64 89 30 00
        E 16 99 2b 52
        E 0 99 26 50
        E 48 89 2b 00
        E 12 99 29 50
        E 17 89 26 00
        E 31 89 29 00
        E 12 99 29 50
        E 48 89 29 00
        E 12 99 29 50
        E 48 89 29 00
        E 2 89 3a 00
        E 10 99 24 7d
        E 0 99 2a 50
        E 19 99 3a 50
        E 96 89 2a 00
        E 125 99 2b 59
        E 48 89 24 00
        E 29 89 2b 00
        E 19 99 2b 53
        E 77 89 2b 00
        E 19 99 2b 50
        E 77 89 2b 00
        E 19 99 2b 50
        E 77 89 2b 00
        E 19 99 2b 50
        E 77 89 2b 00
        E 19 99 29 50
        E 64 89 29 00
        E 16 99 29 50
        E 64 89 29 00
        E 16 99 29 50
        E 64 89 29 00
        E 16 99 26 7d
        E 0 99 27 7d
        E 60 99 29 50
        E 48 89 29 00
        E 12 99 29 50
        E 48 89 29 00
        E 12 99 29 61
        E 48 89 29 00
        E 12 99 30 53
        E 48 89 26 00
        E 0 89 27 00
        E 29 89 30 00
        E 19 99 2d 55
        E 77 89 2d 00
        E 19 99 29 50
        E 48 89 3a 00
        E 29 89 29 00
        E 19 99 29 50
        E 77 89 29 00
        E 19 99 29 50
        E 77 89 29 00
        E 19 99 2a 50
        E 115 89 2a 00
        E 125 99 24 7d
        E 0 99 2b 50
        E 19 99 3a 50
        E 45 89 2b 00
        E 16 99 29 50
        E 64 89 29 00
        E 16 99 29 50
        E 64 89 29 00
        E 16 99 29 50
        E 48 89 24 00
        E 16 89 29 00
        E 16 99 29 50
        E 64 89 29 00
        E 16 99 29 50
        E 64 89 29 00
        E 16 99 2a 58
        E 115 89 2a 00
        E 125 99 29 50
        E 64 89 29 00
        E 16 99 29 50
        E 64 89 29 00
        E 16 99 29 66
        E 64 89 29 00
        E 16 99 26 7d
        E 0 99 27 7c
        E 80 99 29 50
        E 64 89 29 00
        E 16 99 2e 5f
        E 64 89 2e 00
        E 16 99 2e 50
        E 48 89 26 00
        E 0 89 27 00
        E 192 89 2e 00
        E 0 99 2a 58
        E 115 89 2a 00
        E 125 99 29 50
        E 0 99 26 50
        E 55 89 29 00
        E 14 99 29 50
        E 8 89 26 00
        E 47 89 29 00
        E 13 99 29 50
        E 55 89 29 00
        E 14 99 29 50
        E 24 89 3a 00
        E 10 99 24 7d
        E 0 99 2a 50
        E 19 99 3a 50
        E 2 89 29 00
        E 13 99 29 50
        E 55 89 29 00
        E 14 99 29 50
        E 12 89 2a 00
        E 43 89 29 00
        E 13 99 29 50
        E 55 89 29 00
        E 14 99 29 50
        E 48 89 24 00
        E 0 89 29 00
        E 12 99 29 50
        E 48 89 29 00
        E 12 99 2d 50
        E 48 89 2d 00
        E 12 99 30 5c
        E 48 89 30 00
        E 12 99 2d 56
        E 48 89 2d 00
        E 12 99 2d 50
        E 48 89 2d 00
        E 12 99 2e 50
        E 48 89 2e 00
        E 12 99 2e 50
        E 48 89 2e 00
        E 12 99 2a 50
        E 0 99 26 50
        E 77 89 26 00
        E 38 89 2a 00
        E 125 99 26 7d
        E 0 99 27 7d
        E 240 99 29 5b
        E 48 89 26 00
        E 0 89 27 00
        E 16 89 29 00
        E 16 99 29 50
        E 64 89 29 00
        E 16 99 29 50
        E 64 89 29 00
        E 16 89 3a 00
        E 0 99 2a 59
        E 115 89 2a 00
        E 125 99 2e 50
        E 0 99 26 50
        E 77 89 26 00
        E 163 89 2e 00
        E 0 99 24 7d
        E 0 99 2a 50
        E 19 99 41 50
        E 96 89 2a 00
        E 125 99 29 50
        E 48 89 24 00
        E 29 89 29 00
        E 19 99 29 50
        E 77 89 29 00
        E 19 99 29 50
        E 77 89 29 00
        E 19 99 29 50
        E 77 89 29 00
        E 19 99 29 5b
        E 77 89 29 00
        E 19 99 29 50
        E 55 89 29 00
        E 14 99 29 50
        E 55 89 29 00
        E 13 99 29 50
        E 55 89 29 00
        E 14 99 29 50
        E 34 99 26 7d
        E 0 99 27 7d
        E 21 89 29 00
        E 13 99 29 50
        E 46 99 29 50
        E 9 89 29 00
        E 14 99 29 50
        E 41 89 29 00
        E 14 89 29 00
        E 2 99 2b 50
        E 11 99 29 66
        E 53 89 2b 00
        E 2 89 29 00
        E 14 99 30 50
        E 48 89 26 00
        E 0 89 27 00
        E 16 89 30 00
        E 16 99 29 5e
        E 64 89 29 00
        E 16 99 29 5e
        E 64 89 29 00
        E 16 99 29 50
        E 77 89 29 00
        E 19 99 29 50
        E 77 89 29 00
        E 19 99 29 50
        E 48 99 26 50
        E 29 89 29 00
        E 19 99 29 50
        E 29 89 26 00
        E 48 89 29 00
        E 19 99 29 50
        E 77 89 29 00
        E 9 89 41 00
        E 10 99 24 7d
        E 0 99 2a 50
        E 19 99 41 50
        E 96 89 2a 00
        E 125 99 2e 50
        E 0 99 26 50
        E 48 89 24 00
        E 10 89 26 00
        E 2 99 26 50
        E 58 89 26 00
        E 2 99 26 50
        E 58 89 26 00
        E 62 89 2e 00
        E 0 99 29 50
        E 77 89 29 00
        E 19 99 29 50
        E 77 89 29 00
        E 19 99 29 50
        E 77 89 29 00
        E 19 99 29 50
        E 77 89 29 00
        E 19 99 29 63
        E 77 89 29 00
        E 19 99 26 7d
        E 0 99 27 7d
        E 69 99 2e 58
        E 55 89 2e 00
        E 13 99 2e 50
        E 55 89 2e 00
        E 14 99 2e 50
        E 34 99 29 53
        E 21 89 2e 00
        E 13 99 2e 50
        E 14 89 26 00
        E 0 89 27 00
        E 41 89 2e 00
        E 7 89 29 00
        E 7 99 2e 50
        E 17 99 29 50
        E 38 89 2e 00
        E 13 99 2e 50
        E 45 89 29 00
        E 10 89 2e 00
        E 14 89 41 00
        E 0 99 29 50
        E 48 89 29 00
        E 12 99 29 50
        E 48 89 29 00
        E 12 99 29 50
        E 48 89 29 00
        E 12 99 29 66
        E 48 89 29 00
        E 12 99 2a 50
        E 115 89 2a 00
        E 125 99 24 7d
        E 0 99 29 50
        E 19 99 41 50
        E 58 89 29 00
        E 19 99 29 50
        E 77 89 29 00
        E 19 99 29 50
        E 77 89 29 00
        E 19 89 24 00
        E 0 99 29 50
        E 77 89 29 00
        E 19 99 29 5c
        E 77 89 29 00
        E 19 99 29 50
        E 77 89 29 00
        E 19 99 29 50
        E 77 89 29 00
        E 19 99 29 50
        E 77 89 29 00
        E 19 99 29 50
        E 77 89 29 00
        E 19 99 29 61
        E 77 89 29 00
        E 19 99 26 7d
        E 0 99 27 7c
        E 80 99 2b 50
        E 64 89 2b 00
        E 16 99 30 61
        E 64 89 30 00
        E 16 99 2a 50
        E 48 89 26 00
        E 0 89 27 00
        E 67 89 2a 00
        E 125 99 2e 50
        E 96 89 2e 00
        E 24 99 2e 66
        E 96 89 2e 00
        E 24 99 2a 50
        E 115 89 2a 00
        E 115 89 41 00
        E 10 99 24 7d
        E 0 99 29 50
        E 19 99 41 50
        E 45 89 29 00
        E 16 99 29 50
        E 64 89 29 00
        E 16 99 29 50
        E 64 89 29 00
        E 16 99 2a 50
        E 48 89 24 00
        E 67 89 2a 00
        E 125 99 29 50
        E 64 89 29 00
        E 16 99 29 50
        E 64 89 29 00
        E 16 99 29 63
        E 64 89 29 00
        E 16 99 29 53
        E 55 89 29 00
        E 14 99 29 59
        E 55 89 29 00
        E 13 99 29 50
        E 55 89 29 00
        E 14 99 29 50
        E 34 99 26 7d
        E 0 99 27 7d
        E 21 89 29 00
        E 13 99 29 50
        E 55 89 29 00
        E 14 99 29 50
        E 17 99 29 50
        E 38 89 29 00
        E 13 99 29 50
        E 45 89 29 00
        E 10 89 29 00
        E 14 99 2e 50
        E 48 89 26 00
        E 0 89 27 00
        E 192 89 41 00
        E 0 89 2e 00
        E 0 99 29 50
        E 64 89 29 00
        E 16 99 2b 50
        E 64 89 2b 00
        E 16 99 30 66
        E 64 89 30 00
        E 16 99 2a 50
        E 0 99 26 50
        E 77 89 26 00
        E 38 89 2a 00
        E 125 99 24 7d
        E 0 99 2e 50
        E 19 99 3c 50
        E 45 89 2e 00
        E 16 99 2d 50
        E 64 89 2d 00
        E 16 99 2b 50
        E 64 89 2b 00
        E 16 99 29 50
        E 48 89 24 00
        E 16 89 29 00
        E 16 99 29 50
        E 64 89 29 00
        E 16 99 29 63
        E 64 89 29 00
        E 16 99 2a 56
        E 115 89 2a 00
        E 125 99 2a 50
        E 0 99 26 50
        E 77 89 26 00
        E 38 89 2a 00
        E 125 99 26 7d
        E 0 99 27 7d
        E 96 99 29 50
        E 77 89 29 00
        E 19 99 29 50
        E 77 89 29 00
        E 19 89 26 00
        E 0 89 27 00
        E 0 99 29 50
        E 77 89 29 00
        E 19 99 29 66
        E 77 89 29 00
        E 19 99 29 50
        E 77 89 29 00
        E 19 99 29 50
        E 77 89 29 00
        E 19 99 29 50
        E 77 89 29 00
        E 19 99 29 50
        E 77 89 29 00
        E 19 99 29 50
        E 77 89 29 00
        E 9 89 3c 00
        E 10 99 24 7d
        E 0 99 2a 50
        E 19 99 3c 50
        E 96 89 2a 00
        E 125 99 2a 50
        E 48 89 24 00
        E 67 89 2a 00
        E 125 99 2d 50
        E 48 89 2d 00
        E 12 99 2e 50
        E 48 89 2e 00
        E 12 99 2e 50
        E 48 89 2e 00
        E 12 99 30 66
        E 48 89 30 00
        E 12 99 29 59
        E 55 89 29 00
        E 14 99 29 59
        E 55 89 29 00
        E 13 99 29 50
        E 55 89 29 00
        E 14 99 29 50
        E 34 99 26 7d
        E 0 99 27 7b
        E 21 89 29 00
        E 13 99 29 50
        E 55 89 29 00
        E 14 99 29 50
        E 55 89 29 00
        E 13 99 29 50
        E 55 89 29 00
        E 14 99 29 50
        E 48 89 26 00
        E 0 89 27 00
        E 29 89 29 00
        E 19 99 29 52
        E 77 89 29 00
        E 19 99 29 50
        E 48 89 3c 00
        E 29 89 29 00
        E 19 99 29 50
        E 77 89 29 00
        E 19 99 29 50
        E 77 89 29 00
        E 19 99 2a 50
        E 115 89 2a 00
        E 125 99 24 7d
        E 0 99 29 50
        E 19 99 3c 50
        E 77 89 29 00
        E 24 99 29 50
        E 96 89 29 00
        E 24 99 29 50
        E 48 89 24 00
        E 29 89 29 00
        E 19 99 29 50
        E 77 89 29 00
        E 19 99 2b 50
        E 77 89 2b 00
        E 19 99 2e 50
        E 77 89 2e 00
        E 19 99 30 5f
        E 77 89 30 00
        E 19 99 29 50
        E 0 99 26 50
        E 64 89 29 00
        E 13 89 26 00
        E 3 99 29 50
        E 64 89 29 00
        E 16 99 29 5e
        E 64 89 29 00
        E 16 99 26 7d
        E 0 99 27 7c
        E 80 99 29 50
        E 64 89 29 00
        E 16 99 29 63
        E 64 89 29 00
        E 16 99 29 52
        E 48 89 26 00
        E 0 89 27 00
        E 16 89 29 00
        E 16 99 29 50
        E 64 89 29 00
        E 16 99 29 50
        E 64 89 29 00
        E 16 99 2a 56
        E 115 89 2a 00
        E 125 99 30 53
        E 48 89 30 00
        E 12 99 2d 50
        E 48 89 2d 00
        E 12 99 29 50
        E 48 89 29 00
        E 12 99 29 50
        E 48 89 29 00
        E 2 89 3c 00
        E 10 99 24 7d
        E 0 99 29 50
        E 19 99 3c 50
        E 77 89 29 00
        E 24 99 29 50
        E 96 89 29 00
        E 24 99 2e 50
        E 48 89 24 00
        E 192 89 2e 00
        E 0 99 2e 53
        E 240 89 2e 00
        E 0 99 29 50
        E 96 89 29 00
        E 24 99 29 5f
        E 96 89 29 00
        E 24 99 26 7d
        E 0 99 27 7c
        E 240 99 2a 50
        E 48 89 26 00
        E 0 89 27 00
        E 67 89 2a 00
        E 125 89 3c 00
        E 0 99 2a 58
        E 115 89 2a 00
        E 125 99 2e 50
        E 240 89 2e 00
        E 0 99 24 7d
        E 0 99 29 50
        E 19 99 3e 50
        E 45 89 29 00
        E 16 99 29 50
        E 64 89 29 00
        E 16 99 29 50
        E 64 89 29 00
        E 16 99 2a 50
        E 48 89 24 00
        E 67 89 2a 00
        E 125 99 29 50
        E 48 89 29 00
        E 12 99 29 50
        E 48 89 29 00
        E 12 99 29 50
        E 48 89 29 00
        E 12 99 29 5c
        E 48 89 29 00
        E 12 99 2a 50
        E 115 89 2a 00
        E 125 99 26 7d
        E 0 99 27 7b
        E 240 99 29 50
        E 48 89 26 00
        E 0 89 27 00
        E 48 89 29 00
        E 24 99 2b 5f
        E 96 89 2b 00
        E 24 99 29 55
        E 48 89 29 00
        E 12 99 29 50
        E 48 89 29 00
        E 12 99 29 50
        E 48 89 29 00
        E 12 99 29 50
        E 48 89 29 00
        E 12 99 2e 50
        E 64 89 2e 00
        E 16 99 29 50
        E 64 89 29 00
        E 16 99 29 50
        E 64 89 29 00
        E 6 89 3e 00
        E 10 99 24 7d
        E 0 99 29 50
        E 19 99 3e 50
        E 77 89 29 00
        E 24 99 29 50
        E 96 89 29 00
        E 24 99 2a 50
        E 0 99 26 50
        E 48 89 24 00
        E 29 89 26 00
        E 38 89 2a 00
        E 125 99 29 50
        E 64 89 29 00
        E 16 99 29 50
        E 64 89 29 00
        E 16 99 2b 50
        E 64 89 2b 00
        E 16 99 2b 50
        E 0 99 26 50
        E 77 89 2b 00
        E 0 89 26 00
        E 19 99 2d 50
        E 77 89 2d 00
        E 19 99 2e 50
        E 48 99 26 7d
        E 0 99 27 7b
        E 29 89 2e 00
        E 19 99 2e 50
        E 77 89 2e 00
        E 19 99 30 63
        E 77 89 30 00
        E 19 99 29 50
        E 48 89 26 00
        E 0 89 27 00
        E 0 89 29 00
        E 12 99 29 50
        E 48 89 29 00
        E 12 99 29 50
        E 48 89 29 00
        E 12 99 29 63
        E 48 89 29 00
        E 12 89 3e 00
        E 0 99 2a 50
        E 115 89 2a 00
        E 125 99 2a 50
        E 115 89 2a 00
        E 125 99 24 7d
        E 0 99 2e 50
        E 19 99 3e 50
        E 221 89 2e 00
        E 0 99 2a 50
        E 48 89 24 00
        E 67 89 2a 00
        E 125 99 2e 50
        E 96 89 2e 00
        E 24 99 29 5f
        E 96 89 29 00
        E 24 99 29 50
        E 0 99 26 50
        E 58 89 26 00
        E 2 99 26 50
        E 4 89 29 00
        E 16 99 29 50
        E 38 89 26 00
        E 2 99 26 50
        E 24 89 29 00
        E 16 99 29 66
        E 18 89 26 00
        E 46 89 29 00
        E 16 99 26 7d
        E 0 99 27 7d
        E 69 99 29 50
        E 55 89 29 00
        E 13 99 29 50
        E 55 89 29 00
        E 14 99 29 50
        E 34 99 29 50
        E 21 89 29 00
        E 13 99 29 50
        E 14 89 26 00
        E 0 89 27 00
        E 16 89 29 00
        E 16 99 29 50
        E 9 89 29 00
        E 14 99 29 52
        E 41 89 29 00
        E 14 89 29 00
        E 2 99 29 66
        E 11 99 29 66
        E 53 89 29 00
        E 2 89 29 00
        E 14 99 2a 53
        E 115 89 2a 00
        E 125 99 2a 50
        E 115 89 2a 00
        E 115 89 3e 00
        E 10 99 24 7d
        E 0 99 29 50
        E 19 99 3e 50
        E 77 89 29 00
        E 24 99 29 50
        E 96 89 29 00
        E 24 99 29 50
        E 48 89 24 00
        E 16 89 29 00
        E 16 99 29 50
        E 64 89 29 00
        E 16 99 29 50
        E 64 89 29 00
        E 16 99 29 58
        E 55 89 29 00
        E 14 99 29 58
        E 55 89 29 00
        E 13 99 29 50
        E 55 89 29 00
        E 14 99 29 50
        E 34 99 2e 50
        E 21 89 29 00
        E 13 99 29 50
        E 55 89 29 00
        E 14 99 29 50
        E 55 89 29 00
        E 13 99 29 50
        E 55 89 29 00
        E 14 89 2e 00
        E 0 99 26 7d
        E 0 99 27 7c
        E 69 99 29 50
        E 55 89 29 00
        E 13 99 29 50
        E 55 89 29 00
        E 14 99 2b 50
        E 34 99 29 58
        E 21 89 2b 00
        E 13 99 2b 50
        E 14 89 26 00
        E 0 89 27 00
        E 29 89 29 00
        E 12 89 2b 00
        E 7 99 29 50
        E 7 99 2d 52
        E 55 89 2d 00
        E 13 99 2e 5c
        E 2 89 29 00
        E 19 99 29 50
        E 34 89 2e 00
        E 14 89 3e 00
        E 29 89 29 00
        E 19 99 29 50
        E 77 89 29 00
        E 19 99 29 50
        E 77 89 29 00
        E 19 99 2a 50
        E 0 99 26 50
        E 58 89 26 00
        E 2 99 26 50
        E 55 89 2a 00
        E 3 89 26 00
        E 122 99 24 7d
        E 0 99 2d 50
        E 19 99 3a 50
        E 45 89 2d 00
        E 16 99 29 50
        E 64 89 29 00
        E 16 99 29 50
        E 64 89 29 00
        E 16 99 29 50
        E 48 89 24 00
        E 16 89 29 00
        E 16 99 29 50
        E 64 89 29 00
        E 16 99 29 66
        E 64 89 29 00
        E 16 99 29 50
        E 64 89 29 00
        E 16 99 29 50
        E 64 89 29 00
        E 16 99 29 66
        E 64 89 29 00
        E 16 99 2e 50
        E 96 89 2e 00
        E 24 99 2e 50
        E 96 89 2e 00
        E 24 99 26 7d
        E 0 99 27 7c
        E 0 99 30 50
        E 77 89 30 00
        E 19 99 2e 50
        E 77 89 2e 00
        E 19 99 2b 50
        E 77 89 2b 00
        E 19 89 26 00
        E 0 89 27 00
        E 0 99 29 5e
        E 77 89 29 00
        E 19 99 29 5e
        E 77 89 29 00
        E 19 99 29 56
        E 64 89 29 00
        E 16 99 29 50
        E 64 89 29 00
        E 16 99 29 50
        E 64 89 29 00
        E 16 99 2a 50
        E 0 99 26 50
        E 77 89 26 00
        E 38 89 2a 00
        E 115 89 3a 00
        E 10 99 24 7d
        E 0 99 29 50
        E 19 99 3a 50
        E 29 89 29 00
        E 12 99 29 50
        E 48 89 29 00
        E 12 99 29 50
        E 48 89 29 00
        E 12 99 29 50
        E 48 89 29 00
        E 12 99 29 50
        E 0 99 26 50
        E 48 89 24 00
        E 29 89 29 00
        E 0 89 26 00
        E 19 99 29 50
        E 77 89 29 00
        E 19 99 29 50
        E 77 89 29 00
        E 19 99 29 50
        E 77 89 29 00
        E 19 99 29 63
        E 77 89 29 00
        E 19 99 29 50
        E 64 89 29 00
        E 16 99 29 50
        E 64 89 29 00
        E 16 99 2b 66
        E 64 89 2b 00
        E 16 99 26 7d
        E 0 99 27 7b
        E 120 99 29 61
        E 96 89 29 00
        E 24 99 2e 50
        E 48 89 26 00
        E 0 89 27 00
        E 0 89 2e 00
        E 12 99 2b 50
        E 48 89 2b 00
        E 12 99 29 50
        E 48 89 29 00
        E 12 99 29 66
        E 48 89 29 00
        E 12 89 3a 00
        E 0 99 2a 59
        E 115 89 2a 00
        E 125 99 2e 50
        E 240 89 2e 00
        E 0 99 24 7d
        E 0 99 2a 50
        E 19 99 3a 50
        E 96 89 2a 00
        E 125 99 2a 50
        E 48 89 24 00
        E 67 89 2a 00
        E 125 99 29 50
        E 96 89 29 00
        E 24 99 29 66
        E 96 89 29 00
        E 24 99 29 58
        E 48 89 29 00
        E 12 99 29 50
        E 48 89 29 00
        E 12 99 29 50
        E 48 89 29 00
        E 12 99 29 50
        E 48 89 29 00
        E 12 99 26 7d
        E 0 99 27 7d
        E 240 99 2e 50
        E 48 89 26 00
        E 0 89 27 00
        E 48 89 2e 00
        E 24 99 29 66
        E 96 89 29 00
        E 24 99 29 50
        E 64 89 29 00
        E 16 99 29 50
        E 64 89 29 00
        E 16 99 29 5b
        E 64 89 29 00
        E 16 99 2e 50
        E 55 89 2e 00
        E 14 99 2e 50
        E 55 89 2e 00
        E 13 99 2e 50
        E 55 89 2e 00
        E 14 99 2e 50
        E 24 89 3a 00
        E 5 89 2e 00
        E 5 99 24 7d
        E 0 99 2a 50
        E 19 99 3a 50
        E 15 99 2e 50
        E 55 89 2e 00
        E 14 99 2e 50
        E 12 89 2a 00
        E 43 89 2e 00
        E 13 99 2e 50
        E 55 89 2e 00
        E 14 99 29 50
        E 48 89 24 00
        E 48 89 29 00
        E 24 99 29 5e
        E 96 89 29 00
        E 24 99 2a 50
        E 115 89 2a 00
        E 125 99 29 50
        E 96 89 29 00
        E 24 99 2e 63
        E 96 89 2e 00
        E 24 99 26 7d
        E 0 99 27 7c
        E 120 99 29 66
        E 96 89 29 00
        E 24 99 29 50
        E 48 89 26 00
        E 0 89 27 00
        E 0 89 29 00
        E 12 99 29 50
        E 48 89 29 00
        E 12 99 29 50
        E 48 89 29 00
        E 12 99 2b 5e
        E 48 89 2b 00
        E 12 89 3a 00
        E 0 99 2e 50
        E 48 89 2e 00
        E 12 99 2b 50
        E 48 89 2b 00
        E 12 99 29 50
        E 48 89 29 00
        E 12 99 29 50
        E 48 89 29 00
        E 12 99 2a 50
        E 0 99 26 50
        E 77 89 26 00
        E 38 89 2a 00
        E 125 99 24 7d
        E 0 99 2a 50
        E 19 99 41 50
        E 96 89 2a 00
        E 125 99 2a 50
        E 48 89 24 00
        E 67 89 2a 00
        E 125 99 2e 58
        E 240 89 2e 00
        E 0 99 29 58
        E 0 99 26 50
        E 77 89 26 00
        E 19 89 29 00
        E 24 99 29 50
        E 96 89 29 00
        E 24 99 26 7d
        E 0 99 27 7b
        E 240 99 29 50
        E 48 89 26 00
        E 0 89 27 00
        E 48 89 29 00
        E 24 99 29 5e
        E 96 89 29 00
        E 24 99 2a 59
        E 115 89 2a 00
        E 125 99 29 50
        E 0 99 26 50
        E 58 89 26 00
        E 2 99 26 50
        E 36 89 29 00
        E 22 89 26 00
        E 2 99 2e 50
        E 0 99 26 50
        E 58 89 26 00
        E 38 89 2e 00
        E 14 89 41 00
        E 10 99 24 7d
        E 0 99 29 50
        E 19 99 41 50
        E 77 89 29 00
        E 24 99 29 50
        E 96 89 29 00
        E 24 99 29 50
        E 0 99 26 50
        E 48 89 24 00
        E 0 89 29 00
        E 12 99 29 50
        E 17 89 26 00
        E 31 89 29 00
        E 12 99 29 61
        E 48 89 29 00
        E 12 99 29 61
        E 48 89 29 00
        E 12 99 2a 58
        E 115 89 2a 00
        E 125 99 29 50
        E 96 89 29 00
        E 24 99 29 50
        E 96 89 29 00
        E 24 99 26 7d
        E 0 99 27 7d
        E 240 99 2a 50
        E 48 89 26 00
        E 0 89 27 00
        E 67 89 2a 00
        E 125 89 41 00
        E 0 99 2a 50
        E 115 89 2a 00
        E 125 99 2a 50
        E 0 99 26 50
        E 77 89 26 00
        E 38 89 2a 00
        E 125 99 24 7d
        E 0 99 29 50
        E 19 99 41 50
        E 29 89 29 00
        E 12 99 29 50
        E 48 89 29 00
        E 12 99 29 50
        E 48 89 29 00
        E 12 99 29 50
        E 48 89 29 00
        E 12 99 2b 50
        E 48 89 24 00
        E 7 89 2b 00
        E 14 99 2b 50
        E 55 89 2b 00
        E 13 99 2b 50
        E 55 89 2b 00
        E 14 99 2b 50
        E 34 99 29 50
        E 21 89 2b 00
        E 13 99 29 50
        E 14 89 29 00
        E 12 99 29 50
        E 29 89 29 00
        E 14 99 29 66
        E 5 89 29 00
        E 12 99 29 50
        E 38 89 29 00
        E 10 89 29 00
        E 3 99 29 66
        E 9 99 29 66
        E 46 89 29 00
        E 2 89 29 00
        E 12 99 30 50
        E 48 89 30 00
        E 12 99 2e 50
        E 48 89 2e 00
        E 12 99 2b 50
        E 48 89 2b 00
        E 12 99 29 61
        E 48 89 29 00
        E 12 99 26 7d
        E 0 99 27 7d
        E 240 99 2a 50
        E 48 89 26 00
        E 0 89 27 00
        E 67 89 2a 00
        E 125 99 2e 50
        E 96 89 2e 00
        E 24 99 29 5c
        E 96 89 29 00
        E 24 99 2e 50
        E 0 99 26 50
        E 77 89 26 00
        E 153 89 41 00
        E 10 89 2e 00
        E 0 99 24 7d
        E 0 99 29 50
        E 19 99 41 50
        E 29 89 29 00
        E 12 99 29 50
        E 48 89 29 00
        E 12 99 29 50
        E 48 89 29 00
        E 12 99 29 50
        E 48 89 29 00
        E 12 99 29 50
        E 48 89 24 00
        E 0 89 29 00
        E 12 99 29 50
        E 48 89 29 00
        E 12 99 29 50
        E 48 89 29 00
        E 12 99 29 50
        E 48 89 29 00
        E 12 99 29 50
        E 77 89 29 00
        E 19 99 29 50
        E 77 89 29 00
        E 19 99 2b 50
        E 48 99 26 50
        E 29 89 2b 00
        E 19 99 2e 50
        E 29 89 26 00
        E 48 89 2e 00
        E 19 99 30 66
        E 77 89 30 00
        E 19 99 26 7d
        E 0 99 27 7c
        E 240 99 2a 50
        E 48 89 26 00
        E 0 89 27 00
        E 67 89 2a 00
        E 125 89 41 00
        E 0 99 29 50
        E 96 89 29 00
        E 24 99 29 66
        E 96 89 29 00
        E 24 99 2a 50
        E 115 89 2a 00
        E 125 99 24 7d
        E 0 99 2e 50
        E 19 99 3c 50
        E 29 89 2e 00
        E 12 99 2b 50
        E 48 89 2b 00
        E 12 99 29 50
        E 48 89 29 00
        E 12 99 29 58
        E 48 89 29 00
        E 12 99 29 58
        E 48 89 24 00
        E 0 89 29 00
        E 12 99 29 50
        E 48 89 29 00
        E 12 99 29 50
        E 48 89 29 00
        E 12 99 29 50
        E 48 89 29 00
        E 12 99 30 59
        E 64 89 30 00
        E 16 99 2b 50
        E 64 89 2b 00
        E 16 99 29 50
        E 64 89 29 00
        E 16 99 29 56
        E 48 89 29 00
        E 12 99 29 50
        E 48 89 29 00
        E 12 99 2b 50
        E 48 89 2b 00
        E 12 99 2e 50
        E 48 89 2e 00
        E 12 99 26 7d
        E 0 99 27 7b
        E 240 99 2a 50
        E 48 89 26 00
        E 0 89 27 00
        E 67 89 2a 00
        E 125 99 2e 50
        E 48 89 2e 00
        E 12 99 29 50
        E 48 89 29 00
        E 12 99 29 50
        E 48 89 29 00
        E 12 99 29 64
        E 48 89 29 00
        E 12 99 29 50
        E 77 89 29 00
        E 19 99 29 50
        E 77 89 29 00
        E 19 99 29 50
        E 38 89 3c 00
        E 10 99 24 7d
        E 19 99 3c 50
        E 10 89 29 00
        E 19 99 29 50
        E 77 89 29 00
        E 19 99 29 50
        E 77 89 29 00
        E 19 99 29 59
        E 0 99 26 50
        E 48 89 24 00
        E 0 89 29 00
        E 12 99 29 50
        E 17 89 26 00
        E 31 89 29 00
        E 12 99 29 50
        E 48 89 29 00
        E 12 99 29 50
        E 48 89 29 00
        E 12 99 29 59
        E 96 89 29 00
        E 24 99 29 50
        E 96 89 29 00
        E 24 99 2e 50
        E 240 89 2e 00
        E 0 99 26 7d
        E 0 99 27 7c
        E 80 99 29 50
        E 64 89 29 00
        E 16 99 29 5f
        E 64 89 29 00
        E 16 99 29 50
        E 48 89 26 00
        E 0 89 27 00
        E 48 89 29 00
        E 24 99 29 66
        E 96 89 29 00
        E 24 89 3c 00
        E 0 99 29 50
        E 96 89 29 00
        E 24 99 29 5e
        E 96 89 29 00
        E 24 99 2e 50
        E 240 89 2e 00
        E 0 99 24 7d
        E 0 99 2a 50
        E 19 99 3c 50
        E 96 89 2a 00
        E 125 99 29 50
        E 48 89 24 00
        E 16 89 29 00
        E 16 99 29 50
        E 64 89 29 00
        E 16 99 29 5e
        E 64 89 29 00
        E 16 99 29 59
        E 96 89 29 00
        E 24 99 29 50
        E 96 89 29 00
        E 24 99 29 56
        E 77 89 29 00
        E 19 99 29 50
        E 77 89 29 00
        E 19 99 29 50
        E 48 99 26 7d
        E 0 99 27 7d
        E 29 89 29 00
        E 19 99 29 50
        E 77 89 29 00
        E 19 99 29 50
        E 77 89 29 00
        E 19 99 2a 50
        E 48 89 26 00
        E 0 89 27 00
        E 67 89 2a 00
        E 125 99 29 59
        E 64 89 29 00
        E 16 99 2b 50
        E 64 89 2b 00
        E 16 99 2e 50
        E 64 89 2e 00
        E 16 99 29 50
        E 55 89 29 00
        E 14 99 29 50
        E 55 89 29 00
        E 13 99 29 50
        E 55 89 29 00
        E 14 99 29 50
        E 24 89 3c 00
        E 10 99 24 7d
        E 0 99 2e 50
        E 19 99 3c 50
        E 2 89 29 00
        E 13 99 29 50
        E 30 89 2e 00
        E 16 99 2e 50
        E 9 89 29 00
        E 14 99 29 50
        E 41 89 2e 00
        E 14 89 29 00
        E 2 99 2e 50
        E 11 99 29 50
        E 53 89 2e 00
        E 2 89 29 00
        E 14 99 2e 55
        E 48 89 24 00
        E 7 89 2e 00
        E 14 99 2e 55
        E 55 89 2e 00
        E 13 99 2e 50
        E 55 89 2e 00
        E 14 99 2e 50
        E 34 99 29 50
        E 21 89 2e 00
        E 13 99 30 50
        E 30 89 29 00
        E 16 99 29 61
        E 9 89 30 00
        E 14 99 30 50
        E 41 89 29 00
        E 14 89 30 00
        E 2 99 29 61
        E 11 99 30 50
        E 53 89 29 00
        E 2 89 30 00
        E 14 99 29 5b
        E 0 99 26 50
        E 64 89 29 00
        E 13 89 26 00
        E 3 99 29 50
        E 64 89 29 00
        E 16 99 29 50
        E 64 89 29 00
        E 16 99 26 7d
        E 0 99 27 7c
        E 240 99 30 50
        E 48 89 26 00
        E 0 89 27 00
        E 29 89 30 00
        E 19 99 2e 50
        E 77 89 2e 00
        E 19 99 2d 50
        E 48 89 3c 00
        E 29 89 2d 00
        E 19 99 2b 50
        E 77 89 2b 00
        E 19 99 29 66
        E 77 89 29 00
        E 19 99 2a 50
        E 0 99 26 50
        E 58 89 26 00
        E 2 99 26 50
        E 55 89 2a 00
        E 3 89 26 00
        E 2 99 26 50
        E 58 89 26 00
        E 62 99 24 7d
        E 0 99 29 50
        E 19 99 3e 50
        E 45 89 29 00
        E 16 99 29 50
        E 64 89 29 00
        E 16 99 2b 50
        E 64 89 2b 00
        E 16 99 29 50
        E 48 89 24 00
        E 29 89 29 00
        E 19 99 29 50
        E 77 89 29 00
        E 19 99 29 50
        E 77 89 29 00
        E 19 99 29 50
        E 77 89 29 00
        E 19 99 29 63
        E 77 89 29 00
        E 19 99 2b 59
        E 96 89 2b 00
        E 24 99 29 50
        E 96 89 29 00
        E 24 99 26 7d
        E 0 99 27 7b
        E 240 99 2e 50
        E 48 89 26 00
        E 0 89 27 00
        E 192 89 2e 00
        E 0 99 29 55
        E 96 89 29 00
        E 24 99 29 50
        E 96 89 29 00
        E 24 99 2e 50
        E 77 89 2e 00
        E 19 99 2d 50
        E 77 89 2d 00
        E 19 99 2b 50
        E 38 89 3e 00
        E 10 99 24 7d
        E 19 99 3e 50
        E 10 89 2b 00
        E 19 99 2b 50
        E 77 89 2b 00
        E 19 99 29 50
        E 77 89 29 00
        E 19 99 2e 50
        E 48 89 24 00
        E 16 89 2e 00
        E 16 99 29 66
        E 64 89 29 00
        E 16 99 29 66
        E 64 89 29 00
        E 16 99 2a 50
        E 115 89 2a 00
        E 125 99 30 59
        E 0 99 26 50
        E 55 89 30 00
        E 14 99 30 59
        E 8 89 26 00
        E 47 89 30 00
        E 13 99 2e 50
        E 55 89 2e 00
        E 14 99 2e 50
        E 34 99 26 7d
        E 0 99 27 7c
        E 21 89 2e 00
        E 13 99 2d 50
        E 55 89 2d 00
        E 14 99 2b 50
        E 17 99 29 66
        E 38 89 2b 00
        E 13 99 2b 50
        E 45 89 29 00
        E 10 89 2b 00
        E 14 99 2b 50
        E 48 89 26 00
        E 0 89 27 00
        E 48 89 2b 00
        E 24 99 29 5c
        E 96 89 29 00
        E 24 89 3e 00
        E 0 99 2a 58
        E 115 89 2a 00
        E 125 99 2a 50
        E 115 89 2a 00
        E 125 99 24 7d
        E 0 99 29 50
        E 19 99 3e 50
        E 77 89 29 00
        E 24 99 29 50
        E 96 89 29 00
        E 24 99 2a 50
        E 48 89 24 00
        E 67 89 2a 00
        E 125 99 2a 50
        E 115 89 2a 00
        E 125 99 2a 50
        E 115 89 2a 00
        E 125 99 26 7d
        E 0 99 27 7b
        E 80 99 29 50
        E 64 89 29 00
        E 16 99 29 50
        E 64 89 29 00
        E 16 99 2e 50
        E 48 89 26 00
        E 0 89 27 00
        E 0 89 2e 00
        E 12 99 2e 50
        E 48 89 2e 00
        E 12 99 2d 50
        E 48 89 2d 00
        E 12 99 2b 50
        E 48 89 2b 00
        E 12 99 29 50
        E 48 89 29 00
        E 12 99 29 50
        E 48 89 29 00
        E 12 99 29 50
        E 48 89 29 00
        E 12 99 29 63
        E 48 89 29 00
        E 12 99 2b 50
        E 0 99 26 50
        E 58 89 26 00
        E 2 99 26 50
        E 4 89 2b 00
        E 16 99 29 50
        E 38 89 26 00
        E 2 99 26 50
        E 24 89 29 00
        E 16 99 29 50
        E 18 89 26 00
        E 46 89 29 00
        E 6 89 3e 00
        E 10 99 24 7d
        E 0 99 30 50
        E 19 99 3e 50
        E 58 89 30 00
        E 19 99 2e 50
        E 77 89 2e 00
        E 19 99 2d 50
        E 77 89 2d 00
        E 19 89 24 00
        E 0 99 2b 50
        E 77 89 2b 00
        E 19 99 29 5f
        E 77 89 29 00
        E 19 99 2a 56
        E 115 89 2a 00
        E 125 99 30 50
        E 96 89 30 00
        E 24 99 29 5c
        E 96 89 29 00
        E 24 99 26 7d
        E 0 99 27 7b
        E 240 99 29 50
        E 48 89 26 00
        E 0 89 27 00
        E 0 89 29 00
        E 12 99 29 50
        E 48 89 29 00
        E 12 99 29 50
        E 48 89 29 00
        E 12 99 29 5c
        E 48 89 29 00
        E 12 89 3e 00
        E 0 99 29 50
        E 77 89 29 00
        E 19 99 29 50
        E 77 89 29 00
        E 19 99 29 50
        E 77 89 29 00
        E 19 99 29 50
        E 77 89 29 00
        E 19 99 29 50
        E 77 89 29 00
        E 19 99 24 7d
        E 0 99 2a 50
        E 19 99 37 50
        E 96 89 2a 00
        E 125 99 29 50
        E 48 89 24 00
        E 0 89 29 00
        E 12 99 29 50
        E 48 89 29 00
        E 12 99 2d 50
        E 48 89 2d 00
        E 12 99 30 5e
        E 48 89 30 00
        E 12 99 29 50
        E 48 89 29 00
        E 12 99 29 50
        E 48 89 29 00
        E 12 99 29 5b
        E 48 89 29 00
        E 12 99 29 5b
        E 48 89 29 00
        E 12 99 2b 50
        E 55 89 2b 00
        E 14 99 29 50
        E 55 89 29 00
        E 13 99 29 50
        E 55 89 29 00
        E 14 99 29 50
        E 34 99 26 7d
        E 0 99 27 7a
        E 21 89 29 00
        E 13 99 29 50
        E 55 89 29 00
        E 14 99 29 5f
        E 55 89 29 00
        E 13 99 29 5f
        E 55 89 29 00
        E 14 99 29 5b
        E 48 89 26 00
        E 0 89 27 00
        E 48 89 29 00
        E 24 99 29 50
        E 96 89 29 00
        E 24 99 29 58
        E 64 89 29 00
        E 16 99 29 50
        E 64 89 29 00
        E 16 99 29 50
        E 64 89 29 00
        E 16 99 2e 50
        E 230 89 37 00
        E 10 89 2e 00
        E 0 99 24 7d
        E 0 99 2e 50
        E 19 99 37 50
        E 77 89 2e 00
        E 24 99 29 50
        E 96 89 29 00
        E 24 99 2a 50
        E 48 89 24 00
        E 67 89 2a 00
        E 125 99 2e 50
        E 240 89 2e 00
        E 0 99 29 50
        E 64 89 29 00
        E 16 99 29 50
        E 64 89 29 00
        E 16 99 29 61
        E 64 89 29 00
        E 16 99 26 7d
        E 0 99 27 7a
        E 80 99 29 50
        E 64 89 29 00
        E 16 99 29 5f
        E 64 89 29 00
        E 16 99 29 50
        E 48 89 26 00
        E 0 89 27 00
        E 16 89 29 00
        E 16 99 29 50
        E 64 89 29 00
        E 16 99 2b 63
        E 64 89 2b 00
        E 16 89 37 00
        E 0 99 29 50
        E 96 89 29 00
        E 24 99 29 5b
        E 96 89 29 00
        E 24 99 2e 50
        E 0 99 26 50
        E 77 89 26 00
        E 163 89 2e 00
        E 0 99 24 7d
        E 0 99 29 50
        E 19 99 37 50
        E 58 89 29 00
        E 19 99 29 50
        E 77 89 29 00
        E 19 99 29 50
        E 77 89 29 00
        E 19 89 24 00
        E 0 99 29 50
        E 77 89 29 00
        E 19 99 29 50
        E 77 89 29 00
        E 19 99 2e 52
        E 240 89 2e 00
        E 0 99 2e 50
        E 55 89 2e 00
        E 14 99 2e 50
        E 55 89 2e 00
        E 13 99 2e 50
        E 55 89 2e 00
        E 14 99 2e 50
        E 34 99 26 7d
        E 0 99 27 7c
        E 21 89 2e 00
        E 13 99 30 50
        E 35 99 29 50
        E 20 89 30 00
        E 14 99 30 50
        E 21 89 29 00
        E 13 99 29 50
        E 21 89 30 00
        E 13 99 30 5c
        E 21 89 29 00
        E 14 99 29 58
        E 20 89 30 00
        E 14 99 29 58
        E 21 89 29 00
        E 13 99 29 50
        E 14 89 26 00
        E 0 89 27 00
        E 0 89 29 00
        E 12 99 29 50
        E 29 89 29 00
        E 14 99 2b 5f
        E 5 89 29 00
        E 12 99 2b 50
        E 38 89 2b 00
        E 10 89 2b 00
        E 3 99 2b 5f
        E 9 99 2e 50
        E 46 89 2b 00
        E 2 89 2e 00
        E 12 99 2a 53
        E 115 89 2a 00
        E 125 99 2e 50
        E 0 99 26 50
        E 55 89 2e 00
        E 3 89 26 00
        E 2 99 26 50
        E 9 99 2d 50
        E 49 89 26 00
        E 2 99 26 50
        E 4 89 2d 00
        E 13 99 2b 50
        E 41 89 26 00
        E 14 89 2b 00
        E 14 99 29 50
        E 24 89 37 00
        E 10 99 24 7d
        E 0 99 2e 50
        E 19 99 37 50
        E 2 89 29 00
        E 13 99 29 50
        E 55 89 29 00
        E 7 89 2e 00
        E 7 99 29 50
        E 17 99 30 50
        E 38 89 29 00
        E 13 99 29 50
        E 45 89 30 00
        E 10 89 29 00
        E 14 99 29 50
        E 48 89 24 00
        E 48 89 29 00
        E 24 99 29 5c
        E 96 89 29 00
        E 24 99 29 50
        E 64 89 29 00
        E 16 99 2b 50
        E 64 89 2b 00
        E 16 99 30 66
        E 64 89 30 00
        E 16 99 2a 50
        E 115 89 2a 00
        E 125 99 26 7d
        E 0 99 27 7b
        E 96 99 29 50
        E 77 89 29 00
        E 19 99 29 50
        E 77 89 29 00
        E 19 89 26 00
        E 0 89 27 00
        E 0 99 29 50
        E 77 89 29 00
        E 19 99 29 5c
        E 77 89 29 00
        E 19 89 37 00
        E 0 99 29 50
        E 64 89 29 00
        E 16 99 29 50
        E 64 89 29 00
        E 16 99 29 5f
        E 64 89 29 00
        E 16 99 2a 50
        E 115 89 2a 00
        E 125 99 24 7d
        E 0 99 29 50
        E 19 99 3a 50
        E 77 89 29 00
        E 24 99 29 50
        E 96 89 29 00
        E 24 99 2a 50
        E 48 89 24 00
        E 67 89 2a 00
        E 125 99 2a 59
        E 115 89 2a 00
        E 125 99 29 50
        E 48 89 29 00
        E 12 99 29 50
        E 48 89 29 00
        E 12 99 29 50
        E 48 89 29 00
        E 12 99 29 50
        E 48 89 29 00
        E 12 99 26 7d
        E 0 99 27 7d
        E 240 99 2a 50
        E 48 89 26 00
        E 0 89 27 00
        E 67 89 2a 00
        E 125 99 2b 52
        E 48 89 2b 00
        E 12 99 2b 50
        E 48 89 2b 00
        E 12 99 2b 50
        E 48 89 2b 00
        E 12 99 2b 50
        E 48 89 2b 00
        E 12 99 29 50
        E 0 99 26 50
        E 48 89 29 00
        E 12 99 29 50
        E 17 89 26 00
        E 31 89 29 00
        E 12 99 29 50
        E 48 89 29 00
        E 12 99 29 50
        E 48 89 29 00
        E 2 89 3a 00
        E 10 99 24 7d
        E 0 99 29 50
        E 19 99 3a 50
        E 45 89 29 00
        E 16 99 29 50
        E 64 89 29 00
        E 16 99 29 50
        E 64 89 29 00
        E 16 99 29 50
        E 48 89 24 00
        E 16 89 29 00
        E 16 99 29 63
        E 64 89 29 00
        E 16 99 29 63
        E 64 89 29 00
        E 16 99 29 50
        E 48 89 29 00
        E 12 99 29 50
        E 48 89 29 00
        E 12 99 29 5b
        E 48 89 29 00
        E 12 99 29 5b
        E 48 89 29 00
        E 12 99 2d 50
        E 48 89 2d 00
        E 12 99 2b 50
        E 48 89 2b 00
        E 12 99 2b 50
        E 48 89 2b 00
        E 12 99 2b 63
        E 48 89 2b 00
        E 12 99 26 7d
        E 0 99 27 7d
        E 0 99 30 50
        E 64 89 30 00
        E 16 99 2b 50
        E 64 89 2b 00
        E 16 99 29 64
        E 64 89 29 00
        E 16 99 29 50
        E 48 89 26 00
        E 0 89 27 00
        E 29 89 29 00
        E 19 99 29 50
        E 77 89 29 00
        E 19 99 29 50
        E 48 89 3a 00
        E 29 89 29 00
        E 19 99 29 50
        E 77 89 29 00
        E 19 99 29 5e
        E 77 89 29 00
        E 19 99 2a 50
        E 115 89 2a 00
        E 125 99 24 7d
        E 0 99 29 50
        E 19 99 3a 50
        E 36 89 29 00
        E 14 99 29 50
        E 55 89 29 00
        E 13 99 29 50
        E 55 89 29 00
        E 14 99 29 50
        E 34 99 2a 50
        E 21 89 29 00
        E 13 99 29 50
        E 14 89 24 00
        E 41 89 29 00
        E 14 99 29 5e
        E 12 89 2a 00
        E 43 89 29 00
        E 13 99 29 5e
        E 55 89 29 00
        E 14 99 2a 52
        E 115 89 2a 00
        E 125 99 2b 50
        E 0 99 26 50
        E 48 89 2b 00
        E 12 99 29 50
        E 17 89 26 00
        E 31 89 29 00
        E 12 99 29 50
        E 48 89 29 00
        E 12 99 29 5e
        E 48 89 29 00
        E 12 99 26 7d
        E 0 99 27 7d
        E 69 99 29 50
        E 55 89 29 00
        E 13 99 29 50
        E 55 89 29 00
        E 14 99 2b 50
        E 34 99 2e 50
        E 21 89 2b 00
        E 13 99 2d 50
        E 14 89 26 00
        E 0 89 27 00
        E 0 89 2e 00
        E 12 99 2e 50
        E 29 89 2d 00
        E 14 99 2e 50
        E 5 89 2e 00
        E 12 99 2e 50
        E 38 89 2e 00
        E 10 89 2e 00
        E 3 99 30 5b
        E 9 99 2e 5e
        E 46 89 30 00
        E 2 89 2e 00
        E 12 99 2e 50
        E 55 89 2e 00
        E 14 99 2d 58
        E 55 89 2d 00
        E 13 99 2d 50
        E 55 89 2d 00
        E 14 99 2d 50
        E 34 99 29 50
        E 0 99 26 50
        E 21 89 2d 00
        E 13 99 2b 50
        E 30 89 29 00
        E 13 89 26 00
        E 3 99 29 50
        E 9 89 2b 00
        E 14 99 2b 50
        E 41 89 29 00
        E 14 89 2b 00
        E 2 99 29 50
        E 11 99 2b 50
        E 53 89 29 00
        E 2 89 2b 00
        E 4 89 3a 00
        E 10 99 24 7d
        E 0 99 2d 50
        E 19 99 3a 50
        E 29 89 2d 00
        E 12 99 2b 50
        E 48 89 2b 00
        E 12 99 29 50
        E 48 89 29 00
        E 12 99 29 50
        E 48 89 29 00
        E 12 99 2a 50
        E 0 99 26 50
        E 48 89 24 00
        E 10 89 26 00
        E 2 99 26 50
        E 55 89 2a 00
        E 3 89 26 00
        E 122 99 29 50
        E 48 89 29 00
        E 12 99 29 50
        E 48 89 29 00
        E 12 99 29 50
        E 48 89 29 00
        E 12 99 29 66
        E 48 89 29 00
        E 12 99 29 50
        E 96 89 29 00
        E 24 99 29 5f
        E 96 89 29 00
        E 24 99 26 7d
        E 0 99 27 7c
        E 120 99 29 5b
        E 96 89 29 00
        E 24 99 29 56
        E 48 89 26 00
        E 0 89 27 00
        E 0 89 29 00
        E 12 99 29 50
        E 48 89 29 00
        E 12 99 29 50
        E 48 89 29 00
        E 12 99 29 50
        E 48 89 29 00
        E 12 89 3a 00
        E 0 99 2a 50
        E 115 89 2a 00
        E 125 99 2a 50
        E 115 89 2a 00
        E 125 99 24 7d
        E 0 99 29 50
        E 19 99 3e 50
        E 36 89 29 00
        E 14 99 29 50
        E 55 89 29 00
        E 13 99 29 50
        E 55 89 29 00
        E 14 99 29 50
        E 34 99 2a 50
        E 21 89 29 00
        E 13 99 29 50
        E 14 89 24 00
        E 41 89 29 00
        E 14 99 29 50
        E 12 89 2a 00
        E 43 89 29 00
        E 13 99 29 64
        E 55 89 29 00
        E 14 99 2b 5b
        E 55 89 2b 00
        E 14 99 2b 56
        E 55 89 2b 00
        E 13 99 2b 50
        E 55 89 2b 00
        E 14 99 2b 50
        E 34 99 29 55
        E 21 89 2b 00
        E 13 99 2b 50
        E 14 89 29 00
        E 12 99 29 50
        E 29 89 2b 00
        E 14 99 2b 50
        E 5 89 29 00
        E 12 99 29 50
        E 38 89 2b 00
        E 10 89 29 00
        E 3 99 2b 50
        E 9 99 29 50
        E 46 89 2b 00
        E 2 89 29 00
        E 12 99 26 7d
        E 0 99 27 7d
        E 240 99 29 50
        E 48 89 26 00
        E 0 89 27 00
        E 48 89 29 00
        E 24 99 2e 5c
        E 96 89 2e 00
        E 24 99 29 50
        E 96 89 29 00
        E 24 99 29 5f
        E 96 89 29 00
        E 24 99 29 59
        E 0 99 26 50
        E 77 89 26 00
        E 19 89 29 00
        E 24 99 29 50
        E 96 89 29 00
        E 14 89 3e 00
        E 10 99 24 7d
        E 0 99 2e 50
        E 19 99 3e 50
        E 221 89 2e 00
        E 0 99 2b 50
        E 48 89 24 00
        E 0 89 2b 00
        E 12 99 2b 50
        E 48 89 2b 00
        E 12 99 2b 50
        E 48 89 2b 00
        E 12 99 2b 5b
        E 48 89 2b 00
        E 12 99 30 50
        E 48 89 30 00
        E 12 99 2b 50
        E 48 89 2b 00
        E 12 99 29 50
        E 48 89 29 00
        E 12 99 29 66
        E 48 89 29 00
        E 12 99 29 50
        E 48 89 29 00
        E 12 99 29 50
        E 48 89 29 00
        E 12 99 29 50
        E 48 89 29 00
        E 12 99 29 5b
        E 48 89 29 00
        E 12 99 26 7d
        E 0 99 27 7c
        E 0 99 30 50
        E 48 89 30 00
        E 12 99 30 50
        E 48 89 30 00
        E 12 99 30 61
        E 48 89 30 00
        E 12 99 30 61
        E 48 89 30 00
        E 12 99 2b 50
        E 48 89 26 00
        E 0 89 27 00
        E 16 89 2b 00
        E 16 99 2d 50
        E 64 89 2d 00
        E 16 99 2e 66
        E 64 89 2e 00
        E 16 89 3e 00
        E 0 99 2e 50
        E 96 89 2e 00
        E 24 99 29 5f
        E 96 89 29 00
        E 24 99 2a 50
        E 115 89 2a 00
        E 125 99 24 7d
        E 0 99 2a 50
        E 19 99 3e 50
        E 96 89 2a 00
        E 125 99 2e 50
        E 48 89 24 00
        E 0 89 2e 00
        E 12 99 2e 50
        E 48 89 2e 00
        E 12 99 2d 50
        E 48 89 2d 00
        E 12 99 2b 5b
        E 48 89 2b 00
        E 12 99 29 50
        E 48 89 29 00
        E 12 99 29 50
        E 48 89 29 00
        E 12 99 29 50
        E 48 89 29 00
        E 12 99 29 64
        E 48 89 29 00
        E 12 99 29 50
        E 0 99 26 50
        E 58 89 26 00
        E 2 99 26 50
        E 4 89 29 00
        E 16 99 29 50
        E 38 89 26 00
        E 2 99 26 50
        E 24 89 29 00
        E 16 99 29 61
        E 18 89 26 00
        E 46 89 29 00
        E 16 99 26 7d
        E 0 99 27 7a
        E 120 99 2e 66
        E 96 89 2e 00
        E 24 99 29 50
        E 48 89 26 00
        E 0 89 27 00
        E 48 89 29 00
        E 24 99 29 50
        E 96 89 29 00
        E 24 99 2a 59
        E 115 89 2a 00
        E 125 99 29 50
        E 96 89 29 00
        E 24 99 29 5f
        E 96 89 29 00
        E 14 89 3e 00
        E 10 99 3e 70
        E 240 89 3e 00
        E 80 99 3e 69
        E 240 89 3e 00
        E 80 99 3e 69
        E 240 89 3e 00
        E 0 b9 7b 00
        E 1 ff 2f 00
      >
    >
  >
  <TRACK
    NAME "808"
    PEAKCOL 4284506208
    VOLPAN 1.000000 0 1 -1
    MIDIOUT -1
    ISBUS 0 0
    <ITEM
      POSITION 0.000000
      LENGTH 41.882609
      NAME "808"
      VOLPAN 1 0 1 -1
      <SOURCE MIDI
        HASDATA 1 960 QN
        E 0 c1 27 00
        E 0 91 1a 79
        E 1430 81 1a 00
        E 10 91 1a 45
        E 480 81 1a 00
        E 480 91 1a 7a
        E 960 81 1a 00
        E 0 91 1a 45
        E 240 81 1a 00
        E 0 91 1a 45
        E 50 81 1a 00
        E 10 91 1b 45
        E 50 81 1b 00
        E 10 91 1d 45
        E 50 81 1d 00
        E 10 91 21 45
        E 50 81 21 00
        E 10 91 21 79
        E 1200 81 21 00
        E 0 91 21 73
        E 50 81 21 00
        E 10 91 20 73
        E 50 81 20 00
        E 10 91 1e 73
        E 50 81 1e 00
        E 10 91 1a 73
        E 50 81 1a 00
        E 10 91 1a 45
        E 480 81 1a 00
        E 480 91 1a 79
        E 960 81 1a 00
        E 0 91 1a 45
        E 240 81 1a 00
        E 0 91 1a 45
        E 50 81 1a 00
        E 10 91 1b 45
        E 50 81 1b 00
        E 10 91 1b 45
        E 50 81 1b 00
        E 10 91 1d 45
        E 50 81 1d 00
        E 10 91 1d 79
        E 1200 81 1d 00
        E 0 91 1d 73
        E 50 81 1d 00
        E 10 91 1e 73
        E 50 81 1e 00
        E 10 91 1f 73
        E 50 81 1f 00
        E 10 91 22 73
        E 50 81 22 00
        E 10 91 22 45
        E 480 81 22 00
        E 480 91 22 7a
        E 960 81 22 00
        E 0 91 22 45
        E 240 81 22 00
        E 0 91 22 45
        E 50 81 22 00
        E 10 91 21 45
        E 50 81 21 00
        E 10 91 20 45
        E 50 81 20 00
        E 10 91 1d 79
        E 50 81 1d 00
        E 10 91 1d 79
        E 1200 81 1d 00
        E 0 91 1d 73
        E 50 81 1d 00
        E 10 91 1e 73
        E 50 81 1e 00
        E 10 91 1f 73
        E 50 81 1f 00
        E 10 91 22 73
        E 50 81 22 00
        E 10 91 22 45
        E 470 81 22 00
        E 490 91 22 7a
        E 960 81 22 00
        E 0 91 22 45
        E 240 81 22 00
        E 0 91 22 45
        E 50 81 22 00
        E 10 91 22 45
        E 50 81 22 00
        E 10 91 23 45
        E 50 81 23 00
        E 10 91 24 79
        E 50 81 24 00
        E 10 91 24 79
        E 1200 81 24 00
        E 0 91 24 73
        E 50 81 24 00
        E 10 91 23 73
        E 50 81 23 00
        E 10 91 21 73
        E 50 81 21 00
        E 10 91 1d 73
        E 50 81 1d 00
        E 10 91 1d 45
        E 480 81 1d 00
        E 480 91 1d 7a
        E 960 81 1d 00
        E 0 91 1d 45
        E 384 81 1d 00
        E 96 91 1d 79
        E 1430 81 1d 00
        E 10 91 1d 45
        E 480 81 1d 00
        E 480 91 1d 79
        E 960 81 1d 00
        E 0 91 1d 45
        E 240 81 1d 00
        E 0 91 1d 45
        E 50 81 1d 00
        E 10 91 1e 45
        E 50 81 1e 00
        E 10 91 20 45
        E 50 81 20 00
        E 10 91 24 45
        E 50 81 24 00
        E 10 91 24 7a
        E 1430 81 24 00
        E 10 91 24 45
        E 480 81 24 00
        E 480 91 24 79
        E 960 81 24 00
        E 0 91 24 45
        E 240 81 24 00
        E 0 91 24 45
        E 50 81 24 00
        E 10 91 23 45
        E 50 81 23 00
        E 10 91 22 45
        E 50 81 22 00
        E 10 91 1f 45
        E 50 81 1f 00
        E 10 91 1f 79
        E 1200 81 1f 00
        E 0 91 1f 73
        E 50 81 1f 00
        E 10 91 20 73
        E 50 81 20 00
        E 10 91 21 73
        E 50 81 21 00
        E 10 91 24 73
        E 50 81 24 00
        E 10 91 24 45
        E 470 81 24 00
        E 490 91 24 79
        E 960 81 24 00
        E 0 91 24 45
        E 240 81 24 00
        E 0 91 24 45
        E 50 81 24 00
        E 10 91 23 45
        E 50 81 23 00
        E 10 91 23 45
        E 50 81 23 00
        E 10 91 21 45
        E 50 81 21 00
        E 10 91 21 7a
        E 1200 81 21 00
        E 0 91 21 7a
        E 50 81 21 00
        E 10 91 20 7a
        E 50 81 20 00
        E 10 91 1e 7a
        E 50 81 1e 00
        E 10 91 1a 7a
        E 50 81 1a 00
        E 10 91 1a 45
        E 470 81 1a 00
        E 250 91 1a 45
        E 50 81 1a 00
        E 10 91 1b 45
        E 50 81 1b 00
        E 10 91 1d 45
        E 50 81 1d 00
        E 10 91 21 45
        E 50 81 21 00
        E 10 91 21 7a
        E 720 81 21 00
        E 0 91 21 7a
        E 50 81 21 00
        E 10 91 20 7a
        E 50 81 20 00
        E 10 91 1e 7a
        E 50 81 1e 00
        E 10 91 1a 7a
        E 50 81 1a 00
        E 10 91 1a 45
        E 470 81 1a 00
        E 10 91 1a 79
        E 1430 81 1a 00
        E 10 91 1a 45
        E 480 81 1a 00
        E 480 91 1a 79
        E 960 81 1a 00
        E 0 91 1a 45
        E 240 81 1a 00
        E 0 91 1a 45
        E 50 81 1a 00
        E 10 91 1b 45
        E 50 81 1b 00
        E 10 91 1e 45
        E 50 81 1e 00
        E 10 91 22 7a
        E 50 81 22 00
        E 10 91 22 7a
        E 1430 81 22 00
        E 10 91 22 45
        E 480 81 22 00
        E 480 91 22 79
        E 960 81 22 00
        E 0 91 22 45
        E 240 81 22 00
        E 0 91 22 45
        E 50 81 22 00
        E 10 91 21 45
        E 50 81 21 00
        E 10 91 20 45
        E 50 81 20 00
        E 10 91 1d 45
        E 50 81 1d 00
        E 10 91 1d 79
        E 1200 81 1d 00
        E 0 91 1d 73
        E 50 81 1d 00
        E 10 91 1e 73
        E 50 81 1e 00
        E 10 91 1f 73
        E 50 81 1f 00
        E 10 91 22 73
        E 50 81 22 00
        E 10 91 22 45
        E 470 81 22 00
        E 250 91 22 45
        E 50 81 22 00
        E 10 91 21 45
        E 50 81 21 00
        E 10 91 20 45
        E 50 81 20 00
        E 10 91 1d 45
        E 50 81 1d 00
        E 10 91 1d 79
        E 720 81 1d 00
        E 0 91 1d 73
        E 50 81 1d 00
        E 10 91 1e 73
        E 50 81 1e 00
        E 10 91 1f 73
        E 50 81 1f 00
        E 10 91 22 73
        E 50 81 22 00
        E 10 91 22 45
        E 240 81 22 00
        E 0 91 22 45
        E 50 81 22 00
        E 10 91 21 45
        E 50 81 21 00
        E 10 91 20 45
        E 50 81 20 00
        E 10 91 1d 45
        E 50 81 1d 00
        E 10 91 1d 7a
        E 1430 81 1d 00
        E 10 91 1d 45
        E 480 81 1d 00
        E 480 91 1d 7a
        E 960 81 1d 00
        E 0 91 1d 45
        E 384 81 1d 00
        E 96 91 1d 79
        E 1430 81 1d 00
        E 10 91 1d 45
        E 480 81 1d 00
        E 480 91 1d 79
        E 960 81 1d 00
        E 0 91 1d 45
        E 240 81 1d 00
        E 0 91 1d 45
        E 50 81 1d 00
        E 10 91 1d 45
        E 50 81 1d 00
        E 10 91 1e 45
        E 50 81 1e 00
        E 10 91 1f 45
        E 50 81 1f 00
        E 10 91 1f 7a
        E 1200 81 1f 00
        E 0 91 1f 7a
        E 50 81 1f 00
        E 10 91 20 7a
        E 50 81 20 00
        E 10 91 21 7a
        E 50 81 21 00
        E 10 91 24 7a
        E 50 81 24 00
        E 10 91 24 45
        E 470 81 24 00
        E 490 91 24 79
        E 960 81 24 00
        E 0 91 24 45
        E 240 81 24 00
        E 0 91 24 45
        E 50 81 24 00
        E 10 91 23 45
        E 50 81 23 00
        E 10 91 22 45
        E 50 81 22 00
        E 10 91 1f 79
        E 50 81 1f 00
        E 10 91 1f 79
        E 1200 81 1f 00
        E 0 91 1f 73
        E 50 81 1f 00
        E 10 91 20 73
        E 50 81 20 00
        E 10 91 21 73
        E 50 81 21 00
        E 10 91 24 73
        E 50 81 24 00
        E 10 91 24 45
        E 480 81 24 00
        E 480 91 1f 7a
        E 720 81 1f 00
        E 0 91 1f 7a
        E 50 81 1f 00
        E 10 91 20 7a
        E 50 81 20 00
        E 10 91 21 7a
        E 50 81 21 00
        E 10 91 24 7a
        E 50 81 24 00
        E 10 91 24 45
        E 240 81 24 00
        E 0 91 24 45
        E 50 81 24 00
        E 10 91 22 45
        E 50 81 22 00
        E 10 91 1f 45
        E 50 81 1f 00
        E 10 91 1a 45
        E 50 81 1a 00
        E 10 91 1a 7a
        E 1430 81 1a 00
        E 10 91 1a 45
        E 480 81 1a 00
        E 480 91 21 79
        E 720 81 21 00
        E 0 91 21 73
        E 50 81 21 00
        E 10 91 20 73
        E 50 81 20 00
        E 10 91 1e 73
        E 50 81 1e 00
        E 10 91 1a 73
        E 50 81 1a 00
        E 10 91 1a 45
        E 470 81 1a 00
        E 10 91 1a 79
        E 1430 81 1a 00
        E 10 91 1a 45
        E 480 81 1a 00
        E 480 91 21 79
        E 720 81 21 00
        E 0 91 21 73
        E 50 81 21 00
        E 10 91 20 73
        E 50 81 20 00
        E 10 91 1e 73
        E 50 81 1e 00
        E 10 91 1a 73
        E 50 81 1a 00
        E 10 91 1a 45
        E 470 81 1a 00
        E 10 91 1a 7a
        E 1200 81 1a 00
        E 0 91 1a 7a
        E 50 81 1a 00
        E 10 91 1b 7a
        E 50 81 1b 00
        E 10 91 1c 7a
        E 50 81 1c 00
        E 10 91 1f 7a
        E 50 81 1f 00
        E 10 91 1f 45
        E 470 81 1f 00
        E 490 91 1f 7a
        E 960 81 1f 00
        E 0 91 1f 45
        E 384 81 1f 00
        E 96 91 1f 79
        E 1430 81 1f 00
        E 10 91 1f 45
        E 480 81 1f 00
        E 480 91 1f 79
        E 960 81 1f 00
        E 0 91 1f 45
        E 240 81 1f 00
        E 0 91 1f 45
        E 50 81 1f 00
        E 10 91 20 45
        E 50 81 20 00
        E 10 91 20 45
        E 50 81 20 00
        E 10 91 22 45
        E 50 81 22 00
        E 10 91 22 79
        E 1430 81 22 00
        E 10 91 22 45
        E 480 81 22 00
        E 480 91 22 7a
        E 960 81 22 00
        E 0 91 22 45
        E 384 81 22 00
        E 96 91 22 79
        E 1430 81 22 00
        E 10 91 22 45
        E 480 81 22 00
        E 480 91 22 7a
        E 960 81 22 00
        E 0 91 22 45
        E 240 81 22 00
        E 0 91 22 45
        E 50 81 22 00
        E 10 91 21 45
        E 50 81 21 00
        E 10 91 1e 45
        E 50 81 1e 00
        E 10 91 1a 45
        E 50 81 1a 00
        E 10 91 1a 79
        E 1430 81 1a 00
        E 10 91 1a 45
        E 480 81 1a 00
        E 480 91 1a 79
        E 960 81 1a 00
        E 0 91 1a 45
        E 384 81 1a 00
        E 96 91 1a 7a
        E 1430 81 1a 00
        E 10 91 1a 45
        E 480 81 1a 00
        E 480 91 21 79
        E 720 81 21 00
        E 0 91 21 73
        E 50 81 21 00
        E 10 91 20 73
        E 50 81 20 00
        E 10 91 1e 73
        E 50 81 1e 00
        E 10 91 1a 73
        E 50 81 1a 00
        E 10 91 1a 45
        E 576 81 1a 00
        E 0 b1 7b 00
        E 1 ff 2f 00
      >
    >
  >
  <TRACK
    NAME "Strings"
    PEAKCOL 4284186559
    VOLPAN 1.000000 0 1 -1
    MIDIOUT -1
    ISBUS 0 0
    <ITEM
      POSITION 0.000000
      LENGTH 41.843445
      NAME "Strings"
      VOLPAN 1 0 1 -1
      <SOURCE MIDI
        HASDATA 1 960 QN
        E 0 c2 30 00
        E 0 92 3e 30
        E 2 92 29 30
        E 11 92 44 30
        E 1891 82 3e 00
        E 2 92 41 30
        E 20 92 39 30
        E 1 92 28 30
        E 2 82 29 00
        E 4 92 44 30
        E 14 82 44 00
        E 1881 92 44 30
        E 5 82 28 00
        E 4 82 41 00
        E 3 92 35 30
        E 4 82 44 00
        E 0 92 44 30
        E 10 82 39 00
        E 1892 82 44 00
        E 14 82 35 00
        E 8 92 3e 30
        E 6 92 41 30
        E 8 82 44 00
        E 1914 82 3e 00
        E 2 82 41 00
        E 1904 92 44 30
        E 5 92 44 30
        E 2 92 3a 30
        E 1 92 3e 30
        E 3 92 44 30
        E 1903 82 3a 00
        E 5 92 44 30
        E 3 82 3e 00
        E 6 82 44 00
        E 5 82 44 00
        E 9 82 44 00
        E 1892 82 44 00
        E 4 92 35 30
        E 3 92 3a 30
        E 1904 92 28 30
        E 7 92 3c 30
        E 5 82 3a 00
        E 1 82 35 00
        E 0 92 41 30
        E 0 92 35 30
        E 6 92 41 30
        E 1 92 44 30
        E 2 92 44 30
        E 0 92 44 30
        E 1899 82 28 00
        E 1 92 44 30
        E 1 92 44 30
        E 1 92 44 30
        E 1 82 44 00
        E 2 82 41 00
        E 2 92 41 30
        E 2 82 41 00
        E 2 82 35 00
        E 0 92 35 30
        E 10 82 3c 00
        E 0 92 39 30
        E 1 92 3c 30
        E 1 82 44 00
        E 0 92 44 30
        E 9 82 44 00
        E 1880 82 44 00
        E 6 92 41 30
        E 5 82 3c 00
        E 1 92 28 30
        E 3 92 44 30
        E 0 92 44 30
        E 1 82 44 00
        E 3 82 35 00
        E 0 92 44 30
        E 0 92 35 30
        E 2 82 44 00
        E 3 82 44 00
        E 4 82 39 00
        E 3 82 41 00
        E 0 92 41 30
        E 2 92 41 30
        E 1884 82 41 00
        E 1 82 44 00
        E 10 92 44 30
        E 0 92 29 30
        E 3 92 44 30
        E 3 92 41 30
        E 2 82 28 00
        E 1 82 44 00
        E 2 82 35 00
        E 0 92 35 30
        E 4 92 3c 30
        E 1 92 28 30
        E 1 92 44 30
        E 6 82 41 00
        E 2 82 44 00
        E 7 82 41 00
        E 1882 82 29 00
        E 2 82 44 00
        E 2 82 28 00
        E 2 92 28 30
        E 2 82 44 00
        E 0 82 3c 00
        E 0 92 28 30
        E 2 92 44 30
        E 4 92 44 30
        E 2 92 3c 30
        E 1 82 35 00
        E 0 92 34 30
        E 5 92 28 30
        E 5 92 44 30
        E 1 82 41 00
        E 10 82 44 00
        E 1877 82 28 00
        E 8 92 37 30
        E 3 82 28 00
        E 2 92 44 30
        E 1 82 44 00
        E 3 92 44 30
        E 0 92 44 30
        E 2 92 3c 30
        E 3 82 3c 00
        E 0 82 34 00
        E 0 92 34 30
        E 3 92 44 30
        E 1 82 44 00
        E 0 92 44 30
        E 2 82 28 00
        E 0 82 44 00
        E 1890 82 37 00
        E 6 82 44 00
        E 4 82 44 00
        E 3 92 44 30
        E 7 92 3c 30
        E 2 82 44 00
        E 2 82 34 00
        E 0 92 28 30
        E 0 92 34 30
        E 1 92 40 30
        E 2 92 44 30
        E 1 82 44 00
        E 2 92 37 30
        E 6 82 3c 00
        E 1 82 44 00
        E 1 92 44 30
        E 1891 82 28 00
        E 2 92 40 30
        E 2 92 44 30
        E 1 92 3c 30
        E 1 92 44 30
        E 2 82 44 00
        E 5 82 40 00
        E 1 82 37 00
        E 1 82 34 00
        E 0 92 34 30
        E 1 82 3c 00
        E 2 92 40 30
        E 3 92 37 30
        E 1 82 44 00
        E 2 92 44 30
        E 4 82 44 00
        E 1891 82 44 00
        E 3 82 3c 00
        E 0 82 40 00
        E 1 82 44 00
        E 9 82 40 00
        E 1 92 39 30
        E 2 82 34 00
        E 0 92 44 30
        E 0 92 32 30
        E 2 92 41 30
        E 4 92 44 30
        E 1 92 44 30
        E 3 92 28 30
        E 3 92 28 30
        E 7 82 44 00
        E 1 82 37 00
        E 1882 82 44 00
        E 3 82 41 00
        E 2 92 39 30
        E 1 82 39 00
        E 0 82 44 00
        E 1 92 39 30
        E 1 92 44 30
        E 1 92 35 30
        E 5 82 28 00
        E 0 82 28 00
        E 2 92 28 30
        E 1 82 32 00
        E 0 92 32 30
        E 3 92 44 30
        E 9 92 28 30
        E 1 82 44 00
        E 1882 82 35 00
        E 11 82 44 00
        E 1 92 3e 30
        E 7 82 39 00
        E 0 92 3e 30
        E 2 92 28 30
        E 1 82 39 00
        E 2 82 44 00
        E 1 82 32 00
        E 0 92 32 30
        E 0 92 44 30
        E 2 92 44 30
        E 3 82 28 00
        E 4 82 28 00
        E 3 92 28 30
        E 1 92 41 30
        E 1889 82 28 00
        E 1 82 44 00
        E 0 82 44 00
        E 9 92 44 30
        E 3 92 44 30
        E 1 92 44 30
        E 0 92 44 30
        E 4 82 32 00
        E 0 92 35 30
        E 0 92 32 30
        E 1 82 3e 00
        E 4 82 3e 00
        E 1 82 41 00
        E 3 92 39 30
        E 3 92 44 30
        E 14 82 28 00
        E 1876 82 44 00
        E 6 92 28 30
        E 0 92 44 30
        E 2 82 44 00
        E 1 92 28 30
        E 2 92 3a 30
        E 1 92 44 30
        E 3 82 44 00
        E 3 82 32 00
        E 0 92 32 30
        E 1 92 35 30
        E 8 82 44 00
        E 1 92 41 30
        E 1 82 39 00
        E 4 82 44 00
        E 0 82 35 00
        E 1887 82 3a 00
        E 10 82 28 00
        E 5 82 28 00
        E 3 82 32 00
        E 0 92 32 30
        E 1 92 41 30
        E 3 92 44 30
        E 0 92 3e 30
        E 3 82 44 00
        E 0 92 28 30
        E 1 92 44 30
        E 1 82 44 00
        E 2 92 41 30
        E 0 92 44 30
        E 2 82 35 00
        E 1 82 41 00
        E 1896 82 3e 00
        E 6 92 44 30
        E 4 82 32 00
        E 0 92 28 30
        E 0 92 32 31
        E 4 82 44 00
        E 5 92 44 30
        E 0 92 28 30
        E 2 92 3a 30
        E 1 82 41 00
        E 1 92 44 30
        E 0 92 28 30
        E 11 82 28 00
        E 0 82 44 00
        E 0 82 44 00
        E 3 82 41 00
        E 1880 92 44 30
        E 4 92 41 30
        E 5 82 44 00
        E 1 92 3e 30
        E 1 82 28 00
        E 2 82 44 00
        E 0 82 32 00
        E 0 92 44 30
        E 0 92 32 31
        E 5 82 28 00
        E 0 92 44 30
        E 3 92 3a 30
        E 0 92 35 30
        E 4 82 3a 00
        E 9 82 28 00
        E 11 82 44 00
        E 1874 82 41 00
        E 0 82 44 00
        E 1 92 3c 30
        E 3 92 41 30
        E 1 82 44 00
        E 5 82 44 00
        E 1 82 3a 00
        E 3 82 32 00
        E 0 82 35 00
        E 0 92 35 30
        E 0 92 30 33
        E 4 92 44 30
        E 1 82 3e 00
        E 2 92 3c 30
        E 6 92 44 30
        E 1 92 44 30
        E 1895 82 35 00
        E 1 82 3c 00
        E 0 92 35 30
        E 0 92 44 30
        E 2 82 41 00
        E 0 92 44 30
        E 0 92 44 30
        E 8 82 30 00
        E 0 92 30 33
        E 4 92 44 30
        E 2 82 44 00
        E 0 92 3c 30
        E 1 82 44 00
        E 2 82 3c 00
        E 1 82 44 00
        E 2 92 28 30
        E 1894 92 39 30
        E 1 92 3c 30
        E 4 82 44 00
        E 1 82 35 00
        E 3 82 44 00
        E 0 82 3c 00
        E 0 92 39 30
        E 5 82 30 00
        E 0 92 30 34
        E 1 92 44 30
        E 1 92 44 30
        E 1 92 44 30
        E 4 82 44 00
        E 2 82 44 00
        E 5 92 3c 30
        E 10 82 28 00
        E 1876 82 3c 00
        E 1 82 39 00
        E 7 92 44 30
        E 2 92 44 30
        E 1 92 35 30
        E 1 82 39 00
        E 3 92 44 30
        E 1 82 44 00
        E 4 82 30 00
        E 0 92 30 34
        E 2 82 3c 00
        E 0 92 44 30
        E 8 92 39 30
        E 3 92 28 30
        E 3 82 44 00
        E 2 82 44 00
        E 1884 82 35 00
        E 3 82 44 00
        E 5 92 28 30
        E 3 92 3c 30
        E 2 92 34 30
        E 2 92 44 30
        E 1 92 28 30
        E 2 82 30 00
        E 0 92 30 34
        E 1 92 28 30
        E 2 82 44 00
        E 1 82 44 00
        E 1 92 40 30
        E 6 82 44 00
        E 4 82 39 00
        E 6 82 28 00
        E 1879 82 34 00
        E 9 92 40 30
        E 0 92 28 30
        E 4 92 40 30
        E 0 92 40 30
        E 1 92 44 30
        E 1 82 28 00
        E 2 92 28 30
        E 1 82 28 00
        E 0 82 28 00
        E 2 82 30 00
        E 0 92 30 34
        E 1 82 44 00
        E 2 92 3c 30
        E 4 82 3c 00
        E 16 82 40 00
        E 1871 82 40 00
        E 2 82 28 00
        E 4 82 28 00
        E 1 82 40 00
        E 9 92 3c 30
        E 1 82 40 00
        E 4 82 44 00
        E 5 82 30 00
        E 0 92 30 36
        E 0 92 43 30
        E 2 92 44 30
        E 1 92 40 30
        E 1 92 34 30
        E 3 92 44 30
        E 4 92 44 30
        E 3 82 3c 00
        E 1890 82 43 00
        E 4 82 44 00
        E 1 82 34 00
        E 0 92 44 30
        E 6 82 3c 00
        E 5 82 30 00
        E 0 92 30 36
        E 4 92 37 30
        E 4 92 44 30
        E 1 92 44 30
        E 3 92 34 30
        E 1 92 37 30
        E 1 92 44 30
        E 2 82 40 00
        E 3 82 44 00
        E 0 82 44 00
        E 1873 82 44 00
        E 17 82 37 00
        E 0 92 44 30
        E 1 92 41 30
        E 2 92 44 30
        E 0 92 39 30
        E 7 92 44 30
        E 1 82 30 00
        E 0 92 32 36
        E 2 92 35 30
        E 4 92 28 30
        E 5 82 44 00
        E 2 82 44 00
        E 4 82 34 00
        E 11 82 37 00
        E 3 82 44 00
        E 1873 82 44 00
        E 3 92 28 30
        E 0 92 44 30
        E 1 92 35 30
        E 3 82 44 00
        E 2 92 44 30
        E 2 82 41 00
        E 5 82 32 00
        E 0 92 32 37
        E 1 82 35 00
        E 3 82 28 00
        E 5 82 44 00
        E 1 82 39 00
        E 0 92 44 30
        E 3 92 44 30
        E 0 92 44 30
        E 1894 82 44 00
        E 0 92 44 30
        E 5 92 44 30
        E 2 82 28 00
        E 0 82 44 00
        E 4 92 28 30
        E 2 82 32 00
        E 0 92 32 37
        E 6 82 35 00
        E 0 92 28 30
        E 1 92 3e 30
        E 2 92 28 30
        E 5 82 44 00
        E 0 92 44 30
        E 4 82 44 00
        E 7 82 44 00
        E 1883 82 44 00
        E 2 92 44 30
        E 0 92 3e 30
        E 1 82 28 00
        E 4 92 35 30
        E 3 92 41 30
        E 2 82 32 00
        E 0 92 32 39
        E 2 92 44 30
        E 3 82 44 00
        E 4 82 28 00
        E 1 82 3e 00
        E 2 92 28 30
        E 1 92 39 30
        E 1 82 28 00
        E 11 82 44 00
        E 1878 82 41 00
        E 2 82 44 00
        E 7 82 44 00
        E 8 82 32 00
        E 0 92 32 39
        E 3 82 39 00
        E 0 92 44 30
        E 0 92 44 30
        E 1 82 28 00
        E 1 82 35 00
        E 2 82 3e 00
        E 2 92 44 30
        E 0 92 37 30
        E 3 92 43 30
        E 0 92 44 30
        E 2 92 28 30
        E 1898 92 3a 30
        E 3 82 43 00
        E 0 92 44 30
        E 1 92 44 30
        E 0 92 44 30
        E 4 82 32 00
        E 0 92 32 3a
        E 6 82 44 00
        E 1 82 37 00
        E 2 92 44 30
        E 1 82 44 00
        E 0 92 28 30
        E 1 92 43 30
        E 6 82 44 00
        E 0 82 44 00
        E 1 82 28 00
        E 1892 82 44 00
        E 2 82 44 00
        E 0 92 43 30
        E 0 92 44 30
        E 2 82 44 00
        E 0 92 28 30
        E 5 92 44 30
        E 1 82 3a 00
        E 0 82 32 00
        E 0 92 32 3a
        E 7 82 44 00
        E 5 92 28 30
        E 1 92 44 30
        E 0 92 44 30
        E 3 82 43 00
        E 8 82 28 00
        E 1886 82 28 00
        E 1 92 28 30
        E 0 92 28 30
        E 9 82 32 00
        E 0 92 32 3a
        E 2 92 28 30
        E 1 92 28 30
        E 1 82 44 00
        E 4 92 44 30
        E 1 82 43 00
        E 0 82 44 00
        E 2 92 28 30
        E 2 82 44 00
        E 1 92 3a 30
        E 9 82 44 00
        E 4 82 28 00
        E 1881 82 28 00
        E 0 92 3e 30
        E 1 82 28 00
        E 3 82 28 00
        E 1 92 41 30
        E 1 82 44 00
        E 3 92 44 30
        E 3 82 32 00
        E 0 92 32 3a
        E 1 82 28 00
        E 3 92 44 30
        E 3 92 35 30
        E 6 92 44 30
        E 1 92 3a 30
        E 3 82 28 00
        E 5 82 3a 00
        E 1875 82 3e 00
        E 14 92 44 30
        E 1 82 44 00
        E 6 82 41 00
        E 0 92 3e 30
        E 2 82 32 00
        E 5 82 3a 00
        E 7 82 35 00
        E 1 92 44 30
        E 9 82 44 00
        E 0 82 44 00
        E 1886 92 44 30
        E 14 82 44 00
        E 1 82 3e 00
        E 23 82 44 00
        E 1869 82 44 00
        E 34 92 28 30
        E 1897 92 44 30
        E 5 92 39 30
        E 4 82 28 00
        E 5 92 32 3e
        E 10 92 28 30
        E 1896 82 39 00
        E 12 82 44 00
        E 2 82 32 00
        E 3 92 41 30
        E 2 82 28 00
        E 1902 82 41 00
        E 5 92 44 30
        E 1915 92 44 30
        E 7 82 44 00
        E 13 92 35 30
        E 1904 82 44 00
        E 19 82 35 00
        E 0 b2 7b 00
        E 1 ff 2f 00
      >
    >
  >
  <TRACK
    NAME "Choir"
    PEAKCOL 4284506208
    VOLPAN 1.000000 0 1 -1
    MIDIOUT -1
    ISBUS 0 0
    <ITEM
      POSITION 0.006446
      LENGTH 41.770862
      NAME "Choir"
      VOLPAN 1 0 1 -1
      <SOURCE MIDI
        HASDATA 1 960 QN
        E 0 c3 34 00
        E 14 93 41 44
        E 10 93 32 4a
        E 1756 83 41 00
        E 10 83 32 00
        E 152 93 32 47
        E 1766 83 32 00
        E 138 93 41 4a
        E 11 93 45 45
        E 1755 83 41 00
        E 11 83 45 00
        E 146 93 3e 47
        E 3 93 41 44
        E 1763 83 3e 00
        E 3 83 41 00
        E 145 93 3e 48
        E 17 93 32 44
        E 1749 83 3e 00
        E 17 83 32 00
        E 150 93 32 47
        E 1766 83 32 00
        E 155 93 3a 48
        E 0 93 32 47
        E 1766 83 3a 00
        E 0 83 32 00
        E 2058 93 3c 4a
        E 11 93 41 4a
        E 5 93 39 4a
        E 3 93 30 4a
        E 1747 83 3c 00
        E 11 83 41 00
        E 5 83 39 00
        E 3 83 30 00
        E 141 93 41 45
        E 1 93 3c 4a
        E 13 93 39 47
        E 2 93 30 4a
        E 1750 83 41 00
        E 1 83 3c 00
        E 13 83 39 00
        E 2 83 30 00
        E 140 93 3c 4a
        E 1 93 39 4a
        E 3 93 41 45
        E 11 93 30 4a
        E 1751 83 3c 00
        E 1 83 39 00
        E 3 83 41 00
        E 11 83 30 00
        E 134 93 3c 4a
        E 5 93 41 45
        E 12 93 39 47
        E 8 93 30 45
        E 1741 83 3c 00
        E 5 83 41 00
        E 12 83 39 00
        E 8 83 30 00
        E 129 93 3c 45
        E 7 93 40 48
        E 5 93 37 4a
        E 7 93 30 4a
        E 1747 83 3c 00
        E 7 83 40 00
        E 5 83 37 00
        E 7 83 30 00
        E 135 93 3c 48
        E 10 93 40 48
        E 1 93 37 47
        E 7 93 30 4a
        E 1748 83 3c 00
        E 10 83 40 00
        E 1 83 37 00
        E 7 83 30 00
        E 133 93 3c 45
        E 12 93 37 48
        E 0 93 40 44
        E 7 93 30 4a
        E 1747 83 3c 00
        E 12 83 37 00
        E 0 83 40 00
        E 7 83 30 00
        E 137 93 3c 4a
        E 7 93 37 4a
        E 1 93 40 4a
        E 5 93 30 45
        E 1753 83 3c 00
        E 7 83 37 00
        E 1 83 40 00
        E 5 83 30 00
        E 146 93 3e 45
        E 2 93 41 47
        E 11 93 39 45
        E 1 93 32 47
        E 1752 83 3e 00
        E 2 83 41 00
        E 11 83 39 00
        E 1 83 32 00
        E 134 93 3e 44
        E 10 93 39 45
        E 2 93 41 48
        E 7 93 32 4a
        E 1747 83 3e 00
        E 10 83 39 00
        E 2 83 41 00
        E 7 83 32 00
        E 140 93 41 48
        E 1 93 3e 4a
        E 9 93 39 45
        E 10 93 32 4a
        E 1746 83 41 00
        E 1 83 3e 00
        E 9 83 39 00
        E 10 83 32 00
        E 127 93 3e 4a
        E 8 93 41 47
        E 11 93 39 45
        E 11 93 32 47
        E 1736 83 3e 00
        E 8 83 41 00
        E 11 83 39 00
        E 11 83 32 00
        E 133 93 3e 4a
        E 2 93 41 44
        E 4 93 3a 44
        E 16 93 32 47
        E 1744 83 3e 00
        E 2 83 41 00
        E 4 83 3a 00
        E 16 83 32 00
        E 125 93 3e 47
        E 9 93 41 44
        E 3 93 3a 45
        E 5 93 32 45
        E 1749 83 3e 00
        E 9 83 41 00
        E 3 83 3a 00
        E 5 83 32 00
        E 144 93 3e 4a
        E 1 93 41 48
        E 6 93 3a 47
        E 5 93 32 4a
        E 1754 83 3e 00
        E 1 83 41 00
        E 6 83 3a 00
        E 5 83 32 00
        E 137 93 3e 48
        E 4 93 41 4a
        E 3 93 3a 45
        E 16 93 32 4a
        E 1743 83 3e 00
        E 4 83 41 00
        E 3 83 3a 00
        E 16 83 32 00
        E 135 93 3c 48
        E 4 93 41 4a
        E 3 93 39 44
        E 10 93 30 45
        E 1749 83 3c 00
        E 4 83 41 00
        E 3 83 39 00
        E 10 83 30 00
        E 134 93 3c 4a
        E 1 93 41 48
        E 6 93 39 45
        E 16 93 30 48
        E 1743 83 3c 00
        E 1 83 41 00
        E 6 83 39 00
        E 16 83 30 00
        E 131 93 3c 48
        E 8 93 41 4a
        E 6 93 39 44
        E 2 93 30 45
        E 1750 83 3c 00
        E 8 83 41 00
        E 6 83 39 00
        E 2 83 30 00
        E 140 93 3c 4a
        E 3 93 41 48
        E 7 93 39 48
        E 13 93 30 48
        E 1743 83 3c 00
        E 3 83 41 00
        E 7 83 39 00
        E 13 83 30 00
        E 124 93 3c 47
        E 10 93 37 4a
        E 4 93 40 48
        E 15 93 30 48
        E 1737 83 3c 00
        E 10 83 37 00
        E 4 83 40 00
        E 15 83 30 00
        E 133 93 40 47
        E 0 93 3c 44
        E 13 93 37 47
        E 7 93 30 48
        E 1746 83 40 00
        E 0 83 3c 00
        E 13 83 37 00
        E 7 83 30 00
        E 126 93 3c 45
        E 12 93 40 45
        E 6 93 37 47
        E 7 93 30 44
        E 1741 83 3c 00
        E 12 83 40 00
        E 6 83 37 00
        E 7 83 30 00
        E 130 93 3c 45
        E 5 93 40 45
        E 11 93 37 45
        E 1 93 30 45
        E 1749 83 3c 00
        E 5 83 40 00
        E 11 83 37 00
        E 1 83 30 00
        E 141 93 41 44
        E 0 93 3e 47
        E 6 93 39 44
        E 5 93 32 48
        E 1755 83 41 00
        E 0 83 3e 00
        E 6 83 39 00
        E 5 83 32 00
        E 144 93 3e 45
        E 7 93 41 45
        E 6 93 32 47
        E 1 93 39 45
        E 1752 83 3e 00
        E 7 83 41 00
        E 6 83 32 00
        E 1 83 39 00
        E 139 93 3e 48
        E 5 93 39 4a
        E 1 93 41 45
        E 16 93 32 47
        E 1744 83 3e 00
        E 5 83 39 00
        E 1 83 41 00
        E 16 83 32 00
        E 132 93 41 4a
        E 2 93 3e 45
        E 7 93 39 4a
        E 15 93 32 47
        E 1742 83 41 00
        E 2 83 3e 00
        E 7 83 39 00
        E 15 83 32 00
        E 132 93 3e 48
        E 6 93 37 4a
        E 6 93 3a 48
        E 12 93 32 4a
        E 1742 83 3e 00
        E 6 83 37 00
        E 6 83 3a 00
        E 12 83 32 00
        E 126 93 3e 47
        E 5 93 37 44
        E 10 93 3a 48
        E 9 93 32 4a
        E 1742 83 3e 00
        E 5 83 37 00
        E 10 83 3a 00
        E 9 83 32 00
        E 134 93 3e 45
        E 3 93 3a 47
        E 2 93 37 44
        E 7 93 32 45
        E 1754 83 3e 00
        E 3 83 3a 00
        E 2 83 37 00
        E 7 83 32 00
        E 142 93 37 45
        E 2 93 3e 4a
        E 7 93 32 45
        E 5 93 3a 4a
        E 1752 83 37 00
        E 2 83 3e 00
        E 7 83 32 00
        E 5 83 3a 00
        E 135 93 3e 48
        E 12 93 41 45
        E 5 93 32 45
        E 2 93 3a 47
        E 1747 83 3e 00
        E 12 83 41 00
        E 5 83 32 00
        E 2 83 3a 00
        E 3983 93 41 4a
        E 2 93 3a 4a
        E 1764 83 41 00
        E 2 83 3a 00
        E 146 93 3e 47
        E 8 93 41 4a
        E 2 93 39 47
        E 1756 83 3e 00
        E 8 83 41 00
        E 2 83 39 00
        E 160 93 32 45
        E 1766 83 32 00
        E 2056 93 3e 45
        E 15 93 39 47
        E 1751 83 3e 00
        E 15 83 39 00
        E 0 b3 7b 00
        E 1 ff 2f 00
      >
    >
  >
  <TRACK
    NAME "SynthLead"
    PEAKCOL 4284506208
    VOLPAN 1.000000 0 1 -1
    MIDIOUT -1
    ISBUS 0 0
    <ITEM
      POSITION 0.217391
      LENGTH 41.676087
      NAME "SynthLead"
      VOLPAN 1 0 1 -1
      <SOURCE MIDI
        HASDATA 1 960 QN
        E 0 c4 52 00
        E 480 94 4a 5e
        E 600 84 4a 00
        E 360 94 4a 5e
        E 600 84 4a 00
        E 1320 94 41 5e
        E 600 84 41 00
        E 360 94 3e 5e
        E 480 94 41 66
        E 120 84 3e 00
        E 480 84 41 00
        E 360 94 3e 66
        E 480 94 3e 5e
        E 120 84 3e 00
        E 480 84 3e 00
        E 840 94 4a 66
        E 600 84 4a 00
        E 840 94 41 5e
        E 600 84 41 00
        E 1320 94 46 5e
        E 600 84 46 00
        E 840 94 4a 66
        E 480 94 4a 5e
        E 120 84 4a 00
        E 480 84 4a 00
        E 360 94 41 5e
        E 480 94 41 66
        E 120 84 41 00
        E 360 94 46 5e
        E 120 84 41 00
        E 360 94 41 66
        E 120 84 46 00
        E 360 94 3c 5e
        E 120 84 41 00
        E 360 94 3c 66
        E 120 84 3c 00
        E 360 94 3c 5e
        E 120 84 3c 00
        E 360 94 41 66
        E 120 84 3c 00
        E 360 94 41 5e
        E 120 84 41 00
        E 360 94 45 66
        E 120 84 41 00
        E 360 94 41 5e
        E 120 84 45 00
        E 360 94 45 66
        E 120 84 41 00
        E 360 94 45 5e
        E 120 84 45 00
        E 360 94 45 66
        E 120 84 45 00
        E 360 94 48 5e
        E 120 84 45 00
        E 360 94 48 66
        E 120 84 48 00
        E 360 94 45 5e
        E 120 84 48 00
        E 360 94 48 66
        E 120 84 45 00
        E 360 94 48 5e
        E 120 84 48 00
        E 360 94 48 66
        E 120 84 48 00
        E 360 94 48 5e
        E 120 84 48 00
        E 360 94 4c 66
        E 120 84 48 00
        E 360 94 4f 5e
        E 120 84 4c 00
        E 360 94 4c 66
        E 120 84 4f 00
        E 360 94 4f 5e
        E 120 84 4c 00
        E 360 94 4f 66
        E 120 84 4f 00
        E 360 94 4f 5e
        E 120 84 4f 00
        E 360 94 4c 66
        E 120 84 4f 00
        E 360 94 4f 5e
        E 120 84 4c 00
        E 360 94 4c 66
        E 120 84 4f 00
        E 360 94 4c 5e
        E 120 84 4c 00
        E 360 94 4c 66
        E 120 84 4c 00
        E 360 94 48 5e
        E 120 84 4c 00
        E 360 94 43 66
        E 120 84 48 00
        E 360 94 40 5e
        E 120 84 43 00
        E 360 94 41 66
        E 120 84 40 00
        E 360 94 41 5e
        E 120 84 41 00
        E 360 94 41 66
        E 120 84 41 00
        E 360 94 3e 5e
        E 120 84 41 00
        E 360 94 41 66
        E 120 84 3e 00
        E 360 94 45 5e
        E 120 84 41 00
        E 360 94 41 66
        E 120 84 45 00
        E 360 94 41 5e
        E 120 84 41 00
        E 360 94 3e 66
        E 120 84 41 00
        E 360 94 45 5e
        E 120 84 3e 00
        E 360 94 4a 66
        E 120 84 45 00
        E 360 94 4a 5e
        E 120 84 4a 00
        E 360 94 4d 66
        E 120 84 4a 00
        E 360 94 4a 5e
        E 120 84 4d 00
        E 360 94 4d 66
        E 120 84 4a 00
        E 360 94 4a 5e
        E 120 84 4d 00
        E 360 94 4d 66
        E 120 84 4a 00
        E 360 94 4d 5e
        E 120 84 4d 00
        E 360 94 4d 66
        E 120 84 4d 00
        E 360 94 52 5e
        E 120 84 4d 00
        E 360 94 56 66
        E 120 84 52 00
        E 360 94 52 5e
        E 120 84 56 00
        E 360 94 4d 66
        E 120 84 52 00
        E 360 94 4a 5e
        E 120 84 4d 00
        E 360 94 46 66
        E 120 84 4a 00
        E 360 94 46 5e
        E 120 84 46 00
        E 360 94 41 66
        E 120 84 46 00
        E 360 94 3e 5e
        E 120 84 41 00
        E 360 94 46 66
        E 120 84 3e 00
        E 360 94 41 5e
        E 120 84 46 00
        E 360 94 46 66
        E 120 84 41 00
        E 360 94 41 5e
        E 120 84 46 00
        E 360 94 3c 66
        E 120 84 41 00
        E 360 94 3c 5e
        E 120 84 3c 00
        E 360 94 45 66
        E 120 84 3c 00
        E 360 94 48 5e
        E 120 84 45 00
        E 360 94 48 66
        E 120 84 48 00
        E 360 94 48 5e
        E 120 84 48 00
        E 360 94 4d 66
        E 120 84 48 00
        E 360 94 51 5e
        E 120 84 4d 00
        E 360 94 4d 66
        E 120 84 51 00
        E 360 94 51 5e
        E 120 84 4d 00
        E 360 94 4d 66
        E 120 84 51 00
        E 360 94 4d 5e
        E 120 84 4d 00
        E 360 94 48 66
        E 120 84 4d 00
        E 360 94 48 5e
        E 120 84 48 00
        E 360 94 4d 66
        E 120 84 48 00
        E 360 94 48 5e
        E 120 84 4d 00
        E 360 94 48 66
        E 120 84 48 00
        E 360 94 48 5e
        E 120 84 48 00
        E 360 94 48 66
        E 120 84 48 00
        E 360 94 4c 5e
        E 120 84 48 00
        E 360 94 4f 66
        E 120 84 4c 00
        E 360 94 4c 5e
        E 120 84 4f 00
        E 360 94 48 66
        E 120 84 4c 00
        E 360 94 4c 5e
        E 120 84 48 00
        E 360 94 48 66
        E 120 84 4c 00
        E 360 94 4c 5e
        E 120 84 48 00
        E 360 94 4c 66
        E 120 84 4c 00
        E 360 94 4c 5e
        E 120 84 4c 00
        E 360 94 48 66
        E 120 84 4c 00
        E 360 94 43 5e
        E 120 84 48 00
        E 360 94 48 66
        E 120 84 43 00
        E 360 94 4c 5e
        E 120 84 48 00
        E 360 94 4d 66
        E 120 84 4c 00
        E 360 94 4a 5e
        E 120 84 4d 00
        E 360 94 4d 66
        E 120 84 4a 00
        E 360 94 51 5e
        E 120 84 4d 00
        E 360 94 51 66
        E 120 84 51 00
        E 360 94 4d 5e
        E 120 84 51 00
        E 360 94 51 66
        E 120 84 4d 00
        E 360 94 51 5e
        E 120 84 51 00
        E 360 94 4d 66
        E 120 84 51 00
        E 360 94 51 5e
        E 120 84 4d 00
        E 360 94 4d 66
        E 120 84 51 00
        E 360 94 51 5e
        E 120 84 4d 00
        E 360 94 4d 66
        E 120 84 51 00
        E 360 94 4d 5e
        E 120 84 4d 00
        E 360 94 4a 66
        E 120 84 4d 00
        E 360 94 4a 5e
        E 120 84 4a 00
        E 360 94 46 66
        E 120 84 4a 00
        E 360 94 43 5e
        E 120 84 46 00
        E 360 94 3e 66
        E 120 84 43 00
        E 360 94 46 5e
        E 120 84 3e 00
        E 360 94 46 66
        E 120 84 46 00
        E 360 94 43 5e
        E 120 84 46 00
        E 360 94 46 66
        E 120 84 43 00
        E 360 94 46 5e
        E 120 84 46 00
        E 360 94 46 66
        E 120 84 46 00
        E 360 94 46 5e
        E 120 84 46 00
        E 360 94 4a 66
        E 120 84 46 00
        E 360 94 46 5e
        E 120 84 4a 00
        E 360 94 43 66
        E 120 84 46 00
        E 360 94 46 5e
        E 120 84 43 00
        E 360 94 46 66
        E 120 84 46 00
        E 360 94 43 5e
        E 120 84 46 00
        E 360 94 46 66
        E 120 84 43 00
        E 360 94 46 5e
        E 120 84 46 00
        E 360 94 4a 66
        E 120 84 46 00
        E 360 94 4a 5e
        E 120 84 4a 00
        E 480 84 4a 00
        E 5640 94 45 66
        E 480 94 4a 5e
        E 120 84 45 00
        E 480 84 4a 00
        E 360 94 4d 5e
        E 480 94 51 66
        E 120 84 4d 00
        E 360 94 51 5e
        E 120 84 51 00
        E 480 84 51 00
        E 1800 94 51 66
        E 600 84 51 00
        E 1800 94 51 5e
        E 600 84 51 00
        E 0 b4 7b 00
        E 1 ff 2f 00
      >
    >
  >
  <TRACK
    NAME "Glock"
    PEAKCOL 4290756410
    VOLPAN 1.000000 0 1 -1
    MIDIOUT -1
    ISBUS 0 0
    <ITEM
      POSITION 0.217391
      LENGTH 41.317391
      NAME "Glock"
      VOLPAN 1 0 1 -1
      <SOURCE MIDI
        HASDATA 1 960 QN
        E 0 c5 09 00
        E 480 95 6c 52
        E 288 85 6c 00
        E 192 95 6c 52
        E 288 85 6c 00
        E 192 95 6c 52
        E 288 85 6c 00
        E 3552 95 6c 4e
        E 288 85 6c 00
        E 672 95 6c 4a
        E 288 85 6c 00
        E 192 95 6c 4e
        E 288 85 6c 00
        E 672 95 6c 52
        E 288 85 6c 00
        E 192 95 6c 47
        E 288 85 6c 00
        E 1152 95 6c 4e
        E 288 85 6c 00
        E 1152 95 6c 4b
        E 288 85 6c 00
        E 1632 95 6c 4a
        E 288 85 6c 00
        E 672 95 6c 52
        E 288 85 6c 00
        E 192 95 6c 52
        E 288 85 6c 00
        E 192 95 6c 48
        E 288 85 6c 00
        E 192 95 6c 50
        E 288 85 6c 00
        E 192 95 6c 52
        E 288 85 6c 00
        E 192 95 6c 52
        E 288 85 6c 00
        E 192 95 6c 52
        E 288 85 6c 00
        E 192 95 6c 52
        E 288 85 6c 00
        E 192 95 6c 48
        E 288 85 6c 00
        E 192 95 6c 47
        E 288 85 6c 00
        E 192 95 6c 52
        E 288 85 6c 00
        E 192 95 6c 52
        E 288 85 6c 00
        E 192 95 6c 4a
        E 288 85 6c 00
        E 192 95 6c 52
        E 288 85 6c 00
        E 192 95 6c 50
        E 288 85 6c 00
        E 2112 95 6c 52
        E 288 85 6c 00
        E 192 95 6c 4a
        E 288 85 6c 00
        E 192 95 6c 4d
        E 288 85 6c 00
        E 192 95 6c 4b
        E 288 85 6c 00
        E 192 95 6c 4e
        E 288 85 6c 00
        E 192 95 6c 4e
        E 288 85 6c 00
        E 192 95 6c 47
        E 288 85 6c 00
        E 192 95 6c 4a
        E 288 85 6c 00
        E 192 95 6c 4d
        E 288 85 6c 00
        E 192 95 6c 52
        E 288 85 6c 00
        E 192 95 6c 4e
        E 288 85 6c 00
        E 192 95 6c 52
        E 288 85 6c 00
        E 192 95 6c 47
        E 288 85 6c 00
        E 192 95 6c 4b
        E 288 85 6c 00
        E 192 95 6c 52
        E 288 85 6c 00
        E 192 95 6c 52
        E 288 85 6c 00
        E 192 95 6c 52
        E 288 85 6c 00
        E 192 95 6c 52
        E 288 85 6c 00
        E 192 95 6c 47
        E 288 85 6c 00
        E 192 95 6c 4a
        E 288 85 6c 00
        E 192 95 6c 52
        E 288 85 6c 00
        E 192 95 6c 52
        E 288 85 6c 00
        E 192 95 6c 52
        E 288 85 6c 00
        E 192 95 6c 4e
        E 288 85 6c 00
        E 192 95 6c 52
        E 288 85 6c 00
        E 192 95 6c 47
        E 288 85 6c 00
        E 192 95 6c 4d
        E 288 85 6c 00
        E 192 95 6c 48
        E 288 85 6c 00
        E 192 95 6c 4b
        E 288 85 6c 00
        E 192 95 6c 52
        E 288 85 6c 00
        E 192 95 6c 4d
        E 288 85 6c 00
        E 192 95 6c 52
        E 288 85 6c 00
        E 192 95 6c 52
        E 288 85 6c 00
        E 192 95 6c 4a
        E 288 85 6c 00
        E 192 95 6c 52
        E 288 85 6c 00
        E 192 95 6c 4e
        E 288 85 6c 00
        E 2112 95 6c 4a
        E 288 85 6c 00
        E 192 95 6c 52
        E 288 85 6c 00
        E 192 95 6c 47
        E 288 85 6c 00
        E 192 95 6c 4d
        E 288 85 6c 00
        E 192 95 6c 48
        E 288 85 6c 00
        E 192 95 6c 52
        E 288 85 6c 00
        E 192 95 6c 52
        E 288 85 6c 00
        E 192 95 6c 47
        E 288 85 6c 00
        E 192 95 6c 50
        E 288 85 6c 00
        E 192 95 6c 52
        E 288 85 6c 00
        E 192 95 6c 52
        E 288 85 6c 00
        E 192 95 6c 4d
        E 288 85 6c 00
        E 192 95 6c 47
        E 288 85 6c 00
        E 192 95 6c 4e
        E 288 85 6c 00
        E 192 95 6c 4e
        E 288 85 6c 00
        E 192 95 6c 4e
        E 288 85 6c 00
        E 192 95 6c 47
        E 288 85 6c 00
        E 192 95 6c 52
        E 288 85 6c 00
        E 192 95 6c 4b
        E 288 85 6c 00
        E 192 95 6c 47
        E 288 85 6c 00
        E 192 95 6c 50
        E 288 85 6c 00
        E 192 95 6c 4e
        E 288 85 6c 00
        E 192 95 6c 4e
        E 288 85 6c 00
        E 192 95 6c 4e
        E 288 85 6c 00
        E 192 95 6c 48
        E 288 85 6c 00
        E 192 95 6c 47
        E 288 85 6c 00
        E 192 95 6c 48
        E 288 85 6c 00
        E 192 95 6c 4d
        E 288 85 6c 00
        E 192 95 6c 52
        E 288 85 6c 00
        E 192 95 6c 52
        E 288 85 6c 00
        E 192 95 6c 52
        E 288 85 6c 00
        E 192 95 6c 4d
        E 288 85 6c 00
        E 192 95 6c 52
        E 288 85 6c 00
        E 192 95 6c 50
        E 288 85 6c 00
        E 192 95 6c 4a
        E 288 85 6c 00
        E 192 95 6c 52
        E 288 85 6c 00
        E 2112 95 6c 47
        E 288 85 6c 00
        E 192 95 6c 4e
        E 288 85 6c 00
        E 192 95 6c 4a
        E 288 85 6c 00
        E 192 95 6c 4e
        E 288 85 6c 00
        E 192 95 6c 4d
        E 288 85 6c 00
        E 192 95 6c 50
        E 288 85 6c 00
        E 192 95 6c 4a
        E 288 85 6c 00
        E 192 95 6c 47
        E 288 85 6c 00
        E 192 95 6c 52
        E 288 85 6c 00
        E 192 95 6c 52
        E 288 85 6c 00
        E 192 95 6c 52
        E 288 85 6c 00
        E 192 95 6c 4e
        E 288 85 6c 00
        E 192 95 6c 47
        E 288 85 6c 00
        E 192 95 6c 50
        E 288 85 6c 00
        E 192 95 6c 47
        E 288 85 6c 00
        E 192 95 6c 52
        E 288 85 6c 00
        E 192 95 6c 48
        E 288 85 6c 00
        E 192 95 6c 52
        E 288 85 6c 00
        E 192 95 6c 52
        E 288 85 6c 00
        E 192 95 6c 4d
        E 288 85 6c 00
        E 192 95 6c 52
        E 288 85 6c 00
        E 192 95 6c 50
        E 288 85 6c 00
        E 192 95 6c 4e
        E 288 85 6c 00
        E 192 95 6c 47
        E 288 85 6c 00
        E 192 95 6c 52
        E 288 85 6c 00
        E 192 95 6c 4a
        E 288 85 6c 00
        E 192 95 6c 52
        E 288 85 6c 00
        E 192 95 6c 4e
        E 288 85 6c 00
        E 192 95 6c 47
        E 288 85 6c 00
        E 192 95 6c 52
        E 288 85 6c 00
        E 192 95 6c 4a
        E 288 85 6c 00
        E 192 95 6c 52
        E 288 85 6c 00
        E 192 95 6c 47
        E 288 85 6c 00
        E 192 95 6c 52
        E 288 85 6c 00
        E 192 95 6c 52
        E 288 85 6c 00
        E 192 95 6c 50
        E 288 85 6c 00
        E 2592 95 6c 4e
        E 288 85 6c 00
        E 192 95 6c 52
        E 288 85 6c 00
        E 6432 95 6c 4e
        E 288 85 6c 00
        E 192 95 6c 4e
        E 288 85 6c 00
        E 192 95 6c 4e
        E 288 85 6c 00
        E 192 95 6c 47
        E 288 85 6c 00
        E 192 95 6c 52
        E 288 85 6c 00
        E 192 95 6c 4b
        E 288 85 6c 00
        E 192 95 6c 4a
        E 288 85 6c 00
        E 0 b5 7b 00
        E 1 ff 2f 00
      >
    >
  >
  <TRACK
    NAME "Adlibs"
    PEAKCOL 4284506208
    VOLPAN 1.000000 0 1 -1
    MIDIOUT -1
    ISBUS 0 0
    <ITEM
      POSITION 0.896910
      LENGTH 40.913977
      NAME "Adlibs"
      VOLPAN 1 0 1 -1
      <SOURCE MIDI
        HASDATA 1 960 QN
        E 0 c6 36 00
        E 1980 96 4a 56
        E 646 86 4a 00
        E 5536 96 4a 50
        E 387 86 4a 00
        E 2971 96 4d 44
        E 625 86 4d 00
        E 4204 96 48 58
        E 576 86 48 00
        E 121 96 4d 58
        E 636 86 4d 00
        E 8371 96 4f 53
        E 370 86 4f 00
        E 930 96 4f 45
        E 1400 86 4f 00
        E 16783 96 4d 53
        E 481 86 4d 00
        E 2089 96 48 58
        E 370 86 48 00
        E 4404 96 51 56
        E 634 86 51 00
        E 2418 96 54 55
        E 1034 96 4f 58
        E 25 86 54 00
        E 722 86 4f 00
        E 421 96 54 58
        E 806 86 54 00
        E 617 96 4f 58
        E 1128 86 4f 00
        E 5414 96 51 52
        E 867 86 51 00
        E 1016 96 51 56
        E 527 86 51 00
        E 3640 96 4a 48
        E 348 86 4a 00
        E 1795 96 4a 45
        E 399 86 4a 00
        E 13017 96 4d 53
        E 1090 86 4d 00
        E 2957 96 51 58
        E 343 86 51 00
        E 0 b6 7b 00
        E 1 ff 2f 00
      >
    >
  >
>
