<REAPER_PROJECT 0.1 "7.0" 1700000000
  TEMPO 72.000000 4 4
  SAMPLERATE 48000 0 0
  RENDER_FILE ""
  RENDER_FMT 0 2 0
  RENDER_1X 0
  RENDER_RANGE 1 0 55.440438 0 0
  RENDER_RESAMPLE 3 0 1
  <MASTERTRACK
    VOLPAN 1 0 1 -1
    DEFCHAN 0
  >
  <TRACK
    NAME "drone_pad"
    PEAKCOL 4284506208
    VOLPAN 1.000000 0 1 -1
    MIDIOUT -1
    ISBUS 0 0
    <ITEM
      POSITION 0.009292
      LENGTH 53.367930
      NAME "drone_pad"
      VOLPAN 1 0 1 -1
      <SOURCE MIDI
        HASDATA 1 960 QN
        E 0 c0 5c 00
        E 11 90 1a 19
        E 61365 80 1a 00
        E 0 b0 7b 00
        E 1 ff 2f 00
      >
    >
  >
  <TRACK
    NAME "granular_noise"
    PEAKCOL 4284506208
    VOLPAN 1.000000 0 1 -1
    MIDIOUT -1
    ISBUS 0 0
    <ITEM
      POSITION 0.000000
      LENGTH 53.540438
      NAME "granular_noise"
      VOLPAN 1 0 1 -1
      <SOURCE MIDI
        HASDATA 1 960 QN
        E 0 c1 61 00
        E 0 91 27 3c
        E 15 91 27 3c
        E 7670 91 25 3c
        E 15 91 23 3c
        E 2297 81 27 00
        E 45 81 27 00
        E 5317 91 25 3c
        E 15 91 25 3c
        E 15 91 31 3c
        E 2207 81 25 00
        E 395 81 23 00
        E 4442 81 31 00
        E 601 91 24 3c
        E 21 91 23 3c
        E 25 91 3b 11
        E 2341 81 25 00
        E 56 81 25 00
        E 4462 81 3b 00
        E 791 91 25 3c
        E 6 91 25 3c
        E 2240 81 24 00
        E 68 81 23 00
        E 5356 91 23 3c
        E 16 91 26 27
        E 14 91 2f 3c
        E 16 91 3f 3c
        E 2138 81 25 00
        E 93 81 25 00
        E 4639 81 2f 00
        E 293 81 3f 00
        E 472 91 26 3c
        E 17 91 26 1c
        E 10 91 30 0d
        E 21 91 3c 3c
        E 2239 81 23 00
        E 33 81 26 00
        E 4630 81 30 00
        E 32 81 3c 00
        E 700 91 25 3c
        E 10 91 26 1b
        E 31 91 3e 04
        E 2241 81 26 00
        E 253 81 26 00
        E 2777 81 3e 00
        E 2393 81 26 00
        E 96 81 25 00
        E 0 b1 7b 00
        E 1 ff 2f 00
      >
    >
  >
  <TRACK
    NAME "lead_piano"
    PEAKCOL 4290756410
    VOLPAN 1.000000 0 1 -1
    MIDIOUT -1
    ISBUS 0 0
    <ITEM
      POSITION 0.001015
      LENGTH 43.420271
      NAME "lead_piano"
      VOLPAN 1 0 1 -1
      <SOURCE MIDI
        HASDATA 1 960 QN
        E 0 c2 00 00
        E 1 92 3e 41
        E 960 92 41 5d
        E 11 82 3e 00
        E 940 92 40 50
        E 17 82 41 00
        E 940 82 40 00
        E 31 92 3c 55
        E 972 82 3c 00
        E 11478 92 3e 55
        E 963 82 3e 00
        E 3 92 41 58
        E 917 82 41 00
        E 42 92 40 45
        E 951 82 40 00
        E 17 92 3c 54
        E 983 82 3c 00
        E 11489 92 3e 59
        E 967 82 3e 00
        E 2 92 41 5b
        E 957 82 41 00
        E 3 92 40 61
        E 955 92 3c 49
        E 42 82 40 00
        E 926 82 3c 00
        E 11516 92 3e 50
        E 951 82 3e 00
        E 10 92 41 5d
        E 961 92 40 5b
        E 14 82 41 00
        E 940 92 3c 51
        E 17 82 40 00
        E 930 82 3c 00
        E 0 b2 7b 00
        E 1 ff 2f 00
      >
    >
  >
  <TRACK
    NAME "cello_ostinato"
    PEAKCOL 4284186559
    VOLPAN 1.000000 0 1 -1
    MIDIOUT -1
    ISBUS 0 0
    <ITEM
      POSITION 0.000859
      LENGTH 53.358322
      NAME "cello_ostinato"
      VOLPAN 1 0 1 -1
      <SOURCE MIDI
        HASDATA 1 960 QN
        E 0 c3 2a 00
        E 1 93 41 3c
        E 416 83 41 00
        E 63 93 45 3c
        E 481 93 3e 3c
        E 362 83 3e 00
        E 41 83 45 00
        E 77 93 3d 3c
        E 481 93 39 20
        E 321 83 3d 00
        E 40 83 39 00
        E 118 93 3e 3c
        E 479 93 39 3c
        E 368 83 3e 00
        E 7 83 39 00
        E 105 93 39 3c
        E 480 93 39 3c
        E 326 83 39 00
        E 153 93 39 38
        E 390 83 39 00
        E 91 93 3a 31
        E 391 83 3a 00
        E 5 83 39 00
        E 85 93 3e 2f
        E 479 93 3a 33
        E 329 83 3e 00
        E 151 93 3a 2d
        E 366 83 3a 00
        E 3 83 3a 00
        E 113 93 34 21
        E 374 83 34 00
        E 105 93 32 3c
        E 479 93 37 1b
        E 405 83 32 00
        E 79 93 35 30
        E 389 83 37 00
        E 4 83 35 00
        E 84 93 30 3c
        E 479 93 35 2b
        E 393 83 30 00
        E 86 93 30 3c
        E 393 83 35 00
        E 90 93 30 3c
        E 417 83 30 00
        E 63 93 30 3c
        E 441 83 30 00
        E 36 93 30 3c
        E 356 83 30 00
        E 31 83 30 00
        E 94 93 32 2c
        E 377 83 32 00
        E 103 93 34 27
        E 482 93 30 3c
        E 377 83 30 00
        E 101 93 30 3c
        E 6 83 34 00
        E 476 93 30 3c
        E 401 83 30 00
        E 79 93 30 3c
        E 370 83 30 00
        E 109 93 30 3c
        E 406 83 30 00
        E 1 83 30 00
        E 73 93 36 15
        E 384 83 36 00
        E 95 93 39 3c
        E 481 93 38 3c
        E 378 83 39 00
        E 21 83 38 00
        E 83 93 32 3c
        E 387 83 32 00
        E 91 93 31 3c
        E 479 93 39 3c
        E 408 83 31 00
        E 73 93 3e 3c
        E 364 83 39 00
        E 115 93 39 3c
        E 469 83 3e 00
        E 12 93 40 3c
        E 367 83 39 00
        E 15 83 40 00
        E 97 93 41 3c
        E 398 83 41 00
        E 82 93 3a 3c
        E 481 93 3e 2c
        E 323 83 3a 00
        E 43 83 3e 00
        E 113 93 3e 29
        E 482 93 3a 3c
        E 387 83 3a 00
        E 7 83 3e 00
        E 84 93 3a 3c
        E 398 83 3a 00
        E 82 93 35 3c
        E 481 93 32 27
        E 358 83 35 00
        E 0 83 32 00
        E 121 93 35 3c
        E 389 83 35 00
        E 90 93 33 3c
        E 389 83 33 00
        E 94 93 30 3c
        E 478 93 30 3c
        E 373 83 30 00
        E 60 83 30 00
        E 47 93 34 3c
        E 481 93 35 3c
        E 339 83 34 00
        E 140 93 35 3c
        E 373 83 35 00
        E 4 83 35 00
        E 104 93 35 3c
        E 479 93 31 3c
        E 374 83 31 00
        E 47 83 35 00
        E 59 93 30 3c
        E 379 83 30 00
        E 101 93 30 3c
        E 482 93 34 3c
        E 399 83 30 00
        E 79 93 34 3c
        E 414 83 34 00
        E 65 93 32 3c
        E 388 83 34 00
        E 94 93 32 3c
        E 332 83 32 00
        E 59 83 32 00
        E 90 93 2f 3c
        E 379 83 2f 00
        E 100 93 35 1c
        E 480 93 31 17
        E 370 83 35 00
        E 2 83 31 00
        E 108 93 30 3c
        E 480 93 36 37
        E 410 83 30 00
        E 8 83 36 00
        E 62 93 39 3c
        E 352 83 39 00
        E 129 93 3e 3c
        E 380 83 3e 00
        E 97 93 42 3c
        E 482 93 3f 3c
        E 426 83 42 00
        E 53 93 39 30
        E 389 83 39 00
        E 14 83 3f 00
        E 77 93 3a 23
        E 410 83 3a 00
        E 69 93 39 39
        E 388 83 39 00
        E 92 93 3a 2c
        E 383 83 3a 00
        E 99 93 39 2d
        E 400 83 39 00
        E 80 93 3a 2c
        E 479 93 39 47
        E 366 83 39 00
        E 71 83 3a 00
        E 44 93 35 28
        E 382 83 35 00
        E 97 93 35 3c
        E 480 93 33 3c
        E 386 83 33 00
        E 58 83 35 00
        E 36 93 30 3c
        E 480 93 2f 3c
        E 402 83 30 00
        E 77 93 35 3c
        E 333 83 2f 00
        E 149 93 34 3c
        E 387 83 35 00
        E 93 93 33 3c
        E 366 83 34 00
        E 30 83 33 00
        E 83 93 33 3c
        E 362 83 33 00
        E 117 93 34 3c
        E 375 83 34 00
        E 107 93 37 3c
        E 372 83 37 00
        E 108 93 3c 33
        E 479 93 37 3c
        E 402 83 3c 00
        E 6 83 37 00
        E 73 93 37 3c
        E 393 83 37 00
        E 88 93 3c 2c
        E 375 83 3c 00
        E 103 93 3c 35
        E 392 83 3c 00
        E 90 93 3b 3c
        E 479 93 3e 3c
        E 358 83 3b 00
        E 54 83 3e 00
        E 67 93 38 3c
        E 368 83 38 00
        E 111 93 38 3c
        E 370 83 38 00
        E 110 93 35 3c
        E 390 83 35 00
        E 93 93 3e 3c
        E 478 93 3e 3c
        E 389 83 3e 00
        E 4 83 3e 00
        E 88 93 45 3c
        E 479 93 4c 31
        E 385 83 45 00
        E 8 83 4c 00
        E 88 93 4d 2d
        E 366 83 4d 00
        E 114 93 4d 2d
        E 478 93 4c 2f
        E 364 83 4d 00
        E 118 93 52 27
        E 410 83 4c 00
        E 70 93 4d 33
        E 420 83 52 00
        E 63 93 4f 28
        E 370 83 4d 00
        E 20 83 4f 00
        E 86 93 52 43
        E 373 83 52 00
        E 107 93 54 34
        E 480 93 54 38
        E 365 83 54 00
        E 6 83 54 00
        E 109 93 54 29
        E 480 93 54 31
        E 358 83 54 00
        E 48 83 54 00
        E 77 93 51 29
        E 364 83 51 00
        E 115 93 50 07
        E 480 93 53 19
        E 367 83 53 00
        E 34 83 50 00
        E 81 93 51 20
        E 381 83 51 00
        E 96 93 54 31
        E 383 83 54 00
        E 98 93 4f 2f
        E 479 93 51 33
        E 384 83 4f 00
        E 4 83 51 00
        E 90 93 54 35
        E 397 83 54 00
        E 83 93 4f 2f
        E 482 93 4c 30
        E 333 83 4f 00
        E 48 83 4c 00
        E 97 93 4f 1c
        E 378 83 4f 00
        E 103 93 54 20
        E 480 93 54 0f
        E 388 83 54 00
        E 7 83 54 00
        E 0 b3 7b 00
        E 1 ff 2f 00
      >
    >
  >
>
