<REAPER_PROJECT 0.1 "7.0" 1700000000
  TEMPO 88.000000 4 4
  SAMPLERATE 48000 0 0
  RENDER_FILE ""
  RENDER_FMT 0 2 0
  RENDER_1X 0
  RENDER_RANGE 1 0 45.618104 0 0
  RENDER_RESAMPLE 3 0 1
  <MASTERTRACK
    VOLPAN 1 0 1 -1
    DEFCHAN 0
  >
  <TRACK
    NAME "analog_bass"
    PEAKCOL 4286528191
    VOLPAN 1.000000 0 1 -1
    MIDIOUT -1
    ISBUS 0 0
    <ITEM
      POSITION 0.000954
      LENGTH 42.370951
      NAME "analog_bass"
      VOLPAN 1 0 1 -1
      <SOURCE MIDI
        HASDATA 1 960 QN
        E 0 c0 26 00
        E 1 90 27 46
        E 479 80 27 00
        E 4 90 27 46
        E 475 80 27 00
        E 4 90 27 24
        E 476 90 25 0c
        E 5 80 27 00
        E 472 80 25 00
        E 1926 90 26 46
        E 479 80 26 00
        E 1 90 27 1c
        E 478 90 27 46
        E 3 80 27 00
        E 474 80 27 00
        E 10 90 25 11
        E 473 80 25 00
        E 1919 90 25 46
        E 478 80 25 00
        E 8 90 28 1c
        E 472 90 24 46
        E 1 80 28 00
        E 476 80 24 00
        E 13 90 25 46
        E 480 80 25 00
        E 1912 90 26 46
        E 478 80 26 00
        E 5 90 27 46
        E 479 90 27 46
        E 4 80 27 00
        E 475 80 27 00
        E 2 90 25 46
        E 482 80 25 00
        E 1916 90 27 46
        E 485 80 27 00
        E 0 90 27 1f
        E 475 90 27 46
        E 11 80 27 00
        E 469 90 25 46
        E 8 80 27 00
        E 482 80 25 00
        E 1911 90 26 46
        E 474 80 26 00
        E 5 90 27 1f
        E 474 80 27 00
        E 9 90 26 46
        E 481 80 26 00
        E 2 90 24 1a
        E 478 80 24 00
        E 1919 90 27 46
        E 477 90 26 46
        E 4 80 27 00
        E 463 80 26 00
        E 12 90 27 1e
        E 475 80 27 00
        E 8 90 25 46
        E 483 80 25 00
        E 1912 90 25 46
        E 484 90 26 28
        E 2 80 25 00
        E 478 80 26 00
        E 3 90 26 46
        E 478 80 26 00
        E 1 90 26 46
        E 478 80 26 00
        E 1922 90 27 46
        E 473 80 27 00
        E 4 90 28 46
        E 484 90 28 46
        E 1 80 28 00
        E 474 90 23 46
        E 6 80 28 00
        E 480 80 23 00
        E 1919 90 26 46
        E 476 90 27 16
        E 2 80 26 00
        E 481 90 26 1c
        E 2 80 27 00
        E 477 80 26 00
        E 0 90 24 17
        E 480 80 24 00
        E 1920 90 26 46
        E 477 80 26 00
        E 2 90 29 22
        E 478 80 29 00
        E 0 90 27 46
        E 482 90 24 10
        E 2 80 27 00
        E 476 80 24 00
        E 1925 90 25 46
        E 482 90 27 46
        E 7 80 25 00
        E 465 90 27 46
        E 12 80 27 00
        E 471 80 27 00
        E 8 90 25 46
        E 487 80 25 00
        E 1907 90 27 46
        E 483 90 2b 46
        E 3 80 27 00
        E 473 90 27 46
        E 10 80 2b 00
        E 467 80 27 00
        E 4 90 25 22
        E 472 80 25 00
        E 1928 90 25 46
        E 475 80 25 00
        E 1 90 27 46
        E 481 90 27 46
        E 10 80 27 00
        E 465 80 27 00
        E 13 90 27 46
        E 479 80 27 00
        E 1914 90 27 46
        E 483 90 29 21
        E 2 80 27 00
        E 469 80 29 00
        E 4 90 26 46
        E 479 80 26 00
        E 6 90 25 46
        E 483 80 25 00
        E 1918 90 26 46
        E 470 90 28 1a
        E 7 80 26 00
        E 473 80 28 00
        E 3 90 27 46
        E 481 90 25 46
        E 4 80 27 00
        E 476 80 25 00
        E 0 b0 7b 00
        E 1 ff 2f 00
      >
    >
  >
  <TRACK
    NAME "drums"
    PEAKCOL 4290722362
    VOLPAN 1.000000 0 1 -1
    MIDIOUT -1
    ISBUS 0 0
    <ITEM
      POSITION 0.000000
      LENGTH 43.621297
      NAME "drums"
      VOLPAN 1 0 1 -1
      <SOURCE MIDI
        HASDATA 1 960 QN
        E 0 c9 00 00
        E 0 99 24 46
        E 340 89 24 00
        E 380 99 26 46
        E 77 89 26 00
        E 163 99 29 46
        E 96 89 29 00
        E 863 99 24 68
        E 241 99 26 38
        E 77 89 26 00
        E 20 89 24 00
        E 622 99 2a 2a
        E 95 89 2a 00
        E 623 99 26 51
        E 77 89 26 00
        E 166 99 24 48
        E 342 89 24 00
        E 617 99 29 46
        E 96 89 29 00
        E 865 99 24 72
        E 334 89 24 00
        E 626 99 2a 44
        E 96 89 2a 00
        E 864 99 24 4f
        E 331 89 24 00
        E 629 99 2b 46
        E 95 89 2b 00
        E 864 99 24 51
        E 344 89 24 00
        E 375 99 26 3a
        E 76 89 26 00
        E 168 99 27 21
        E 96 89 27 00
        E 861 99 24 56
        E 334 89 24 00
        E 629 99 2a 46
        E 95 89 2a 00
        E 864 99 24 4e
        E 337 89 24 00
        E 623 99 2a 3b
        E 97 89 2a 00
        E 622 99 26 43
        E 77 89 26 00
        E 161 99 24 52
        E 335 89 24 00
        E 385 99 26 46
        E 77 89 26 00
        E 166 99 29 46
        E 97 89 29 00
        E 863 99 24 60
        E 239 99 26 2f
        E 77 89 26 00
        E 14 89 24 00
        E 629 99 2a 22
        E 95 89 2a 00
        E 865 99 24 46
        E 333 89 24 00
        E 628 99 29 46
        E 98 89 29 00
        E 861 99 24 56
        E 333 89 24 00
        E 627 99 2a 38
        E 95 89 2a 00
        E 625 99 26 49
        E 77 89 26 00
        E 164 99 24 59
        E 337 89 24 00
        E 382 99 26 46
        E 77 89 26 00
        E 165 99 29 46
        E 97 89 29 00
        E 860 99 24 4f
        E 243 99 26 38
        E 78 89 26 00
        E 19 89 24 00
        E 379 99 26 48
        E 76 89 26 00
        E 164 99 2a 3e
        E 97 89 2a 00
        E 861 99 24 5f
        E 339 89 24 00
        E 383 99 26 46
        E 77 89 26 00
        E 165 99 2b 46
        E 96 89 2b 00
        E 623 99 25 46
        E 77 89 25 00
        E 166 99 24 57
        E 340 89 24 00
        E 617 99 2a 46
        E 94 89 2a 00
        E 866 99 24 5d
        E 334 89 24 00
        E 625 99 2a 46
        E 97 89 2a 00
        E 866 99 24 48
        E 338 89 24 00
        E 620 99 2a 4c
        E 97 89 2a 00
        E 863 99 24 52
        E 333 89 24 00
        E 628 99 29 46
        E 96 89 29 00
        E 864 99 24 52
        E 333 89 24 00
        E 626 99 2a 46
        E 96 89 2a 00
        E 866 99 24 65
        E 337 89 24 00
        E 621 99 2a 46
        E 96 89 2a 00
        E 867 99 24 60
        E 343 89 24 00
        E 616 99 2a 48
        E 95 89 2a 00
        E 624 99 26 32
        E 77 89 26 00
        E 163 99 24 64
        E 341 89 24 00
        E 620 99 29 46
        E 95 89 29 00
        E 623 99 26 46
        E 77 89 26 00
        E 164 99 24 48
        E 334 89 24 00
        E 387 99 26 44
        E 77 89 26 00
        E 163 99 2a 3d
        E 96 89 2a 00
        E 865 99 24 60
        E 337 89 24 00
        E 621 99 29 46
        E 96 89 29 00
        E 865 99 24 77
        E 333 89 24 00
        E 628 99 2a 3a
        E 96 89 2a 00
        E 861 99 24 5d
        E 335 89 24 00
        E 386 99 25 46
        E 77 89 25 00
        E 163 99 29 46
        E 96 89 29 00
        E 624 99 25 46
        E 78 89 25 00
        E 163 99 24 52
        E 340 89 24 00
        E 617 99 2a 41
        E 95 89 2a 00
        E 865 99 24 57
        E 339 89 24 00
        E 622 99 2a 46
        E 95 89 2a 00
        E 869 99 24 57
        E 335 89 24 00
        E 621 99 2a 46
        E 96 89 2a 00
        E 864 99 24 51
        E 333 89 24 00
        E 629 99 2a 46
        E 96 89 2a 00
        E 624 99 26 46
        E 77 89 26 00
        E 158 99 24 6d
        E 4 99 2a 5a
        E 2 99 24 6d
        E 74 89 2a 00
        E 111 89 24 00
        E 151 89 24 00
        E 145 99 24 70
        E 193 89 24 00
        E 45 99 24 75
        E 192 89 24 00
        E 48 99 2a 6e
        E 2 99 2a 6e
        E 76 89 2a 00
        E 22 89 2a 00
        E 140 99 2a 62
        E 77 89 2a 00
        E 164 99 2a 59
        E 76 89 2a 00
        E 162 99 2a 3b
        E 78 89 2a 00
        E 0 b9 7b 00
        E 1 ff 2f 00
      >
    >
  >
  <TRACK
    NAME "pulse_synth"
    PEAKCOL 4284506208
    VOLPAN 1.000000 0 1 -1
    MIDIOUT -1
    ISBUS 0 0
    <ITEM
      POSITION 0.015787
      LENGTH 37.149967
      NAME "pulse_synth"
      VOLPAN 1 0 1 -1
      <SOURCE MIDI
        HASDATA 1 960 QN
        E 0 c1 50 00
        E 22 91 4a 52
        E 2023 81 4a 00
        E 1808 91 44 49
        E 2103 81 44 00
        E 1711 91 41 51
        E 48 81 41 00
        E 7645 91 3e 59
        E 2058 81 3e 00
        E 1782 91 3c 51
        E 2288 81 3c 00
        E 9226 91 3f 46
        E 2284 81 3f 00
        E 1596 91 3c 51
        E 2184 81 3c 00
        E 9311 91 3e 60
        E 1996 81 3e 00
        E 1857 91 3e 59
        E 2247 81 3e 00
        E 0 b1 7b 00
        E 1 ff 2f 00
      >
    >
  >
  <TRACK
    NAME "viola_textures"
    PEAKCOL 4284186559
    VOLPAN 1.000000 0 1 -1
    MIDIOUT -1
    ISBUS 0 0
    <ITEM
      POSITION 5.457885
      LENGTH 38.260219
      NAME "viola_textures"
      VOLPAN 1 0 1 -1
      <SOURCE MIDI
        HASDATA 1 960 QN
        E 0 c2 29 00
        E 7685 92 40 33
        E 473 92 3f 25
        E 388 82 40 00
        E 88 92 41 3a
        E 411 82 41 00
        E 49 82 3f 00
        E 36 92 44 2d
        E 471 92 40 36
        E 287 82 44 00
        E 204 92 43 33
        E 353 82 43 00
        E 8 82 40 00
        E 107 92 41 32
        E 484 92 3c 3a
        E 386 82 41 00
        E 95 92 3c 32
        E 373 82 3c 00
        E 28 82 3c 00
        E 79 92 38 2d
        E 486 92 3d 36
        E 414 82 3d 00
        E 29 82 38 00
        E 45 92 36 1e
        E 382 82 36 00
        E 88 92 33 3b
        E 394 82 33 00
        E 69 92 31 1e
        E 370 82 31 00
        E 116 92 38 1f
        E 372 82 38 00
        E 122 92 37 0e
        E 512 82 37 00
        E 7645 92 36 2f
        E 395 82 36 00
        E 77 92 39 19
        E 399 82 39 00
        E 92 92 39 35
        E 387 82 39 00
        E 93 92 38 2c
        E 356 82 38 00
        E 111 92 38 46
        E 477 92 38 38
        E 344 82 38 00
        E 150 92 34 46
        E 413 82 38 00
        E 58 92 35 1e
        E 416 82 34 00
        E 73 92 37 3a
        E 377 82 37 00
        E 13 82 35 00
        E 93 92 34 30
        E 391 82 34 00
        E 73 92 33 46
        E 486 92 2f 46
        E 412 82 2f 00
        E 53 82 33 00
        E 17 92 30 32
        E 369 82 30 00
        E 104 92 31 1a
        E 391 82 31 00
        E 100 92 31 46
        E 399 82 31 00
        E 75 92 30 06
        E 440 82 30 00
        E 7720 92 35 36
        E 477 92 31 46
        E 316 82 35 00
        E 55 82 31 00
        E 115 92 37 36
        E 477 92 38 2d
        E 382 82 37 00
        E 8 82 38 00
        E 97 92 3d 35
        E 473 92 38 27
        E 361 82 38 00
        E 29 82 3d 00
        E 94 92 34 46
        E 359 82 34 00
        E 122 92 38 28
        E 410 82 38 00
        E 70 92 33 41
        E 477 92 38 3b
        E 385 82 33 00
        E 93 92 3d 36
        E 390 82 38 00
        E 11 82 3d 00
        E 76 92 40 28
        E 386 82 40 00
        E 94 92 3f 2d
        E 388 82 3f 00
        E 92 92 40 08
        E 487 92 3f 1e
        E 345 82 40 00
        E 45 82 3f 00
        E 96 92 38 0c
        E 388 82 38 00
        E 7768 92 38 2f
        E 481 92 38 28
        E 337 82 38 00
        E 135 92 38 2d
        E 371 82 38 00
        E 62 82 38 00
        E 51 92 3c 2c
        E 478 92 39 3a
        E 335 82 3c 00
        E 149 92 3d 3b
        E 365 82 3d 00
        E 98 82 39 00
        E 26 92 3d 27
        E 372 82 3d 00
        E 93 92 41 2f
        E 386 82 41 00
        E 95 92 3e 46
        E 478 92 3d 35
        E 413 82 3d 00
        E 29 82 3e 00
        E 48 92 3d 36
        E 401 82 3d 00
        E 80 92 3f 2d
        E 465 92 44 46
        E 475 82 3f 00
        E 16 92 3e 27
        E 328 82 44 00
        E 59 82 3e 00
        E 76 92 3e 46
        E 485 92 45 46
        E 441 82 3e 00
        E 17 82 45 00
        E 0 b2 7b 00
        E 1 ff 2f 00
      >
    >
  >
>
