<REAPER_PROJECT 0.1 "7.0" 1700000000
  TEMPO 76.000000 4 4
  SAMPLERATE 48000 0 0
  RENDER_FILE ""
  RENDER_FMT 0 2 0
  RENDER_1X 0
  RENDER_RANGE 1 0 53.834434 0 0
  RENDER_RESAMPLE 3 0 1
  <MASTERTRACK
    VOLPAN 1 0 1 -1
    DEFCHAN 0
  >
  <TRACK
    NAME "felt_piano"
    PEAKCOL 4290756410
    VOLPAN 1.000000 0 1 -1
    MIDIOUT -1
    ISBUS 0 0
    <ITEM
      POSITION 0.000000
      LENGTH 50.638080
      NAME "felt_piano"
      VOLPAN 1 0 1 -1
      <SOURCE MIDI
        HASDATA 1 960 QN
        E 0 c0 00 00
        E 0 90 3e 3d
        E 3847 90 41 4d
        E 92 80 3e 00
        E 3726 80 41 00
        E 6 90 40 3b
        E 3775 80 40 00
        E 81 90 3c 4a
        E 3827 90 39 50
        E 81 80 3c 00
        E 3738 80 39 00
        E 26 90 3c 50
        E 3702 80 3c 00
        E 142 90 3a 40
        E 3743 80 3a 00
        E 89 90 37 58
        E 3840 90 41 53
        E 16 80 37 00
        E 3818 90 44 4a
        E 19 80 41 00
        E 3655 80 44 00
        E 197 90 43 3a
        E 3769 80 43 00
        E 54 90 3f 56
        E 3804 80 3f 00
        E 35 90 3e 53
        E 3830 90 41 47
        E 35 80 3e 00
        E 3815 90 3f 39
        E 47 80 41 00
        E 3802 90 3c 52
        E 59 80 3f 00
        E 3784 80 3c 00
        E 0 b0 7b 00
        E 1 ff 2f 00
      >
    >
  >
  <TRACK
    NAME "soft_strings"
    PEAKCOL 4284186559
    VOLPAN 1.000000 0 1 -1
    MIDIOUT -1
    ISBUS 0 0
    <ITEM
      POSITION 0.000048
      LENGTH 51.590899
      NAME "soft_strings"
      VOLPAN 1 0 1 -1
      <SOURCE MIDI
        HASDATA 1 960 QN
        E 0 c1 30 00
        E 0 91 31 36
        E 3 91 36 36
        E 1 91 39 36
        E 7679 91 36 36
        E 9 91 37 36
        E 2 91 32 32
        E 1224 81 39 00
        E 54 81 36 00
        E 70 81 31 00
        E 6327 91 30 36
        E 3 91 36 36
        E 7 91 38 36
        E 1469 81 37 00
        E 192 81 32 00
        E 267 81 36 00
        E 5742 91 3f 3f
        E 3 91 38 36
        E 7 91 31 36
        E 1308 81 38 00
        E 428 81 30 00
        E 334 81 36 00
        E 5607 91 3b 47
        E 6 91 33 38
        E 2 91 31 36
        E 932 81 38 00
        E 275 81 3f 00
        E 157 81 31 00
        E 6285 91 31 45
        E 9 91 36 4d
        E 15 91 3a 4d
        E 165 81 3b 00
        E 1219 81 33 00
        E 420 81 31 00
        E 5863 91 38 4f
        E 6 91 2f 4c
        E 2 91 36 4c
        E 1460 81 36 00
        E 57 81 3a 00
        E 691 81 31 00
        E 5465 91 30 47
        E 5 91 38 40
        E 12 91 3f 36
        E 1168 81 38 00
        E 542 81 36 00
        E 225 81 2f 00
        E 6360 81 3f 00
        E 383 81 38 00
        E 153 81 30 00
        E 0 b1 7b 00
        E 1 ff 2f 00
      >
    >
  >
  <TRACK
    NAME "reverse_bells"
    PEAKCOL 4290756410
    VOLPAN 1.000000 0 1 -1
    MIDIOUT -1
    ISBUS 0 0
    <ITEM
      POSITION 0.014554
      LENGTH 51.919879
      NAME "reverse_bells"
      VOLPAN 1 0 1 -1
      <SOURCE MIDI
        HASDATA 1 960 QN
        E 0 c2 0e 00
        E 18 92 3e 36
        E 63013 82 3e 00
        E 0 b2 7b 00
        E 1 ff 2f 00
      >
    >
  >
>
