<REAPER_PROJECT 0.1 "7.0" 1700000000
  TEMPO 102.000000 4 4
  SAMPLERATE 48000 0 0
  RENDER_FILE ""
  RENDER_FMT 0 2 0
  RENDER_1X 0
  RENDER_RANGE 1 0 39.637383 0 0
  RENDER_RESAMPLE 3 0 1
  <MASTERTRACK
    VOLPAN 1 0 1 -1
    DEFCHAN 0
  >
  <TRACK
    NAME "industrial_perc"
    PEAKCOL 4290722362
    VOLPAN 1.000000 0 1 -1
    MIDIOUT -1
    ISBUS 0 0
    <ITEM
      POSITION 0.000000
      LENGTH 37.601234
      NAME "industrial_perc"
      VOLPAN 1 0 1 -1
      <SOURCE MIDI
        HASDATA 1 960 QN
        E 0 c9 00 00
        E 0 99 2a 62
        E 1 99 24 7d
        E 38 99 29 3e
        E 77 89 29 00
        E 28 89 2a 00
        E 98 89 24 00
        E 238 99 2a 6f
        E 144 89 2a 00
        E 335 99 26 67
        E 2 99 2a 6d
        E 143 89 2a 00
        E 96 89 26 00
        E 240 99 2a 7d
        E 146 89 2a 00
        E 333 99 2a 58
        E 1 99 24 77
        E 142 89 2a 00
        E 95 89 24 00
        E 99 99 2a 60
        E 77 89 2a 00
        E 66 99 26 75
        E 238 89 26 00
        E 3 99 2a 7b
        E 142 89 2a 00
        E 98 99 26 63
        E 1 99 2a 71
        E 144 89 2a 00
        E 95 89 26 00
        E 38 99 2a 77
        E 78 89 2a 00
        E 124 99 24 7a
        E 240 89 24 00
        E 240 99 24 7c
        E 0 99 2a 5d
        E 143 89 2a 00
        E 96 89 24 00
        E 242 99 2a 7d
        E 147 89 2a 00
        E 332 99 2a 4f
        E 0 99 26 7b
        E 115 99 2a 65
        E 30 89 2a 00
        E 47 89 2a 00
        E 49 89 26 00
        E 239 99 2a 6c
        E 143 89 2a 00
        E 337 99 24 7a
        E 0 99 2a 6f
        E 143 89 2a 00
        E 97 89 24 00
        E 240 99 26 73
        E 240 99 2a 63
        E 1 89 26 00
        E 142 89 2a 00
        E 97 99 26 7b
        E 1 99 2a 65
        E 145 89 2a 00
        E 92 89 26 00
        E 164 99 2a 6d
        E 77 89 2a 00
        E 1 99 24 73
        E 241 89 24 00
        E 239 99 24 65
        E 0 99 2a 7b
        E 145 89 2a 00
        E 94 89 24 00
        E 240 99 2a 63
        E 145 89 2a 00
        E 336 99 2a 77
        E 0 99 26 7d
        E 144 89 2a 00
        E 67 99 26 77
        E 31 89 26 00
        E 45 89 26 00
        E 193 99 2b 54
        E 143 89 2b 00
        E 336 99 24 79
        E 1 99 2a 6f
        E 144 89 2a 00
        E 95 89 24 00
        E 241 99 26 7b
        E 240 89 26 00
        E 0 99 2a 60
        E 144 89 2a 00
        E 96 99 26 7d
        E 1 99 2a 65
        E 145 89 2a 00
        E 90 89 26 00
        E 244 99 24 7c
        E 244 89 24 00
        E 236 99 2a 63
        E 0 99 24 7c
        E 143 89 2a 00
        E 99 89 24 00
        E 238 99 2a 67
        E 144 89 2a 00
        E 336 99 2a 62
        E 0 99 26 74
        E 144 89 2a 00
        E 97 89 26 00
        E 66 99 2a 6f
        E 76 89 2a 00
        E 97 99 2a 6f
        E 20 99 26 5b
        E 77 89 26 00
        E 45 89 2a 00
        E 338 99 24 71
        E 0 99 2a 75
        E 143 89 2a 00
        E 100 89 24 00
        E 237 99 26 7d
        E 240 99 2a 74
        E 2 89 26 00
        E 142 89 2a 00
        E 96 99 2a 51
        E 0 99 26 6c
        E 145 89 2a 00
        E 96 89 26 00
        E 239 99 24 7d
        E 244 89 24 00
        E 236 99 2a 62
        E 0 99 24 60
        E 144 89 2a 00
        E 97 89 24 00
        E 239 99 2a 73
        E 144 89 2a 00
        E 336 99 26 6a
        E 0 99 2a 7b
        E 146 89 2a 00
        E 94 89 26 00
        E 239 99 2a 53
        E 97 99 2a 68
        E 48 89 2a 00
        E 28 89 2a 00
        E 308 99 2a 77
        E 0 99 24 7d
        E 145 89 2a 00
        E 94 89 24 00
        E 241 99 26 7c
        E 239 89 26 00
        E 0 99 2a 73
        E 143 89 2a 00
        E 98 99 2a 5b
        E 0 99 26 7d
        E 145 89 2a 00
        E 94 89 26 00
        E 240 99 24 7a
        E 245 89 24 00
        E 236 99 24 67
        E 0 99 2a 6c
        E 144 89 2a 00
        E 93 89 24 00
        E 243 99 2a 4c
        E 142 89 2a 00
        E 338 99 2a 63
        E 0 99 26 74
        E 143 89 2a 00
        E 97 89 26 00
        E 239 99 2a 7c
        E 144 89 2a 00
        E 289 99 26 7c
        E 48 99 2a 7c
        E 0 99 24 6a
        E 30 89 26 00
        E 113 89 2a 00
        E 100 89 24 00
        E 237 99 26 79
        E 239 89 26 00
        E 1 99 2a 65
        E 144 89 2a 00
        E 96 99 2a 7d
        E 0 99 26 7d
        E 143 89 2a 00
        E 95 89 26 00
        E 242 99 24 7d
        E 240 89 24 00
        E 240 99 2a 60
        E 0 99 24 7d
        E 145 89 2a 00
        E 92 89 24 00
        E 243 99 2a 73
        E 143 89 2a 00
        E 337 99 2a 58
        E 1 99 26 79
        E 143 89 2a 00
        E 97 89 26 00
        E 239 99 2a 7d
        E 144 89 2a 00
        E 29 99 26 6a
        E 76 89 26 00
        E 231 99 2a 75
        E 0 99 24 7d
        E 146 89 2a 00
        E 92 89 24 00
        E 11 99 2a 68
        E 77 89 2a 00
        E 154 99 26 7d
        E 241 99 2a 6d
        E 2 89 26 00
        E 142 89 2a 00
        E 95 99 2a 68
        E 0 99 26 75
        E 143 89 2a 00
        E 97 89 26 00
        E 240 99 24 7d
        E 182 99 26 71
        E 57 89 24 00
        E 19 89 26 00
        E 222 99 24 7d
        E 0 99 2a 63
        E 143 89 2a 00
        E 97 89 24 00
        E 182 99 26 5d
        E 58 99 2a 5d
        E 19 89 26 00
        E 126 89 2a 00
        E 335 99 26 77
        E 0 99 2a 51
        E 144 89 2a 00
        E 93 89 26 00
        E 52 99 2a 71
        E 77 89 2a 00
        E 114 99 2a 74
        E 143 89 2a 00
        E 336 99 24 79
        E 2 99 2a 71
        E 18 99 2a 71
        E 78 89 2a 00
        E 49 89 2a 00
        E 92 89 24 00
        E 242 99 26 7d
        E 239 89 26 00
        E 1 99 2a 5e
        E 147 89 2a 00
        E 93 99 26 6c
        E 0 99 2a 7d
        E 144 89 2a 00
        E 97 89 26 00
        E 238 99 24 73
        E 240 89 24 00
        E 241 99 24 7d
        E 0 99 2a 4d
        E 87 99 26 6a
        E 59 89 2a 00
        E 17 89 26 00
        E 77 89 24 00
        E 240 99 2a 7d
        E 143 89 2a 00
        E 336 99 26 7a
        E 1 99 2a 65
        E 144 89 2a 00
        E 96 89 26 00
        E 240 99 2a 79
        E 145 89 2a 00
        E 334 99 2a 65
        E 1 99 24 65
        E 143 89 2a 00
        E 97 89 24 00
        E 239 99 26 6c
        E 241 89 26 00
        E 0 99 2a 68
        E 143 89 2a 00
        E 97 99 2a 5e
        E 0 99 26 7c
        E 144 89 2a 00
        E 19 99 26 6d
        E 77 89 26 00
        E 2 89 26 00
        E 74 99 26 75
        E 77 89 26 00
        E 87 99 24 7d
        E 239 89 24 00
        E 241 99 24 7d
        E 0 99 2a 77
        E 144 89 2a 00
        E 94 89 24 00
        E 242 99 2a 67
        E 58 99 2a 79
        E 77 89 2a 00
        E 8 89 2a 00
        E 78 99 2a 63
        E 77 89 2a 00
        E 182 99 26 7d
        E 0 99 2a 6d
        E 144 89 2a 00
        E 96 89 26 00
        E 240 99 2a 77
        E 146 89 2a 00
        E 334 99 24 7d
        E 1 99 2a 65
        E 144 89 2a 00
        E 96 89 24 00
        E 239 99 26 79
        E 238 89 26 00
        E 2 99 2b 45
        E 144 89 2b 00
        E 96 99 2a 6c
        E 0 99 26 6c
        E 143 89 2a 00
        E 98 89 26 00
        E 239 99 24 77
        E 87 99 2a 77
        E 77 89 2a 00
        E 78 89 24 00
        E 237 99 2a 71
        E 1 99 24 65
        E 143 89 2a 00
        E 50 99 2a 68
        E 48 89 24 00
        E 28 89 2a 00
        E 211 99 2a 62
        E 143 89 2a 00
        E 337 99 2a 6f
        E 1 99 26 68
        E 141 89 2a 00
        E 99 89 26 00
        E 239 99 2a 6d
        E 144 89 2a 00
        E 336 99 2a 75
        E 1 99 24 77
        E 143 89 2a 00
        E 97 89 24 00
        E 239 99 26 7d
        E 237 89 26 00
        E 3 99 2a 7a
        E 143 89 2a 00
        E 97 99 2a 6c
        E 0 99 26 7d
        E 144 89 2a 00
        E 97 89 26 00
        E 239 99 24 7d
        E 240 89 24 00
        E 240 99 2a 68
        E 0 99 24 4f
        E 144 89 2a 00
        E 98 89 24 00
        E 238 99 2a 63
        E 145 89 2a 00
        E 334 99 2a 7b
        E 2 99 26 7d
        E 144 89 2a 00
        E 97 89 26 00
        E 238 99 2a 67
        E 144 89 2a 00
        E 336 99 24 77
        E 1 99 2a 60
        E 146 89 2a 00
        E 94 89 24 00
        E 239 99 26 77
        E 240 99 2a 54
        E 1 89 26 00
        E 142 89 2a 00
        E 96 99 26 7d
        E 1 99 2a 7d
        E 144 89 2a 00
        E 95 89 26 00
        E 59 99 2a 56
        E 19 99 24 42
        E 58 89 2a 00
        E 18 89 24 00
        E 87 99 24 79
        E 240 89 24 00
        E 240 99 2a 73
        E 0 99 24 7c
        E 144 89 2a 00
        E 99 89 24 00
        E 237 99 2a 7d
        E 144 89 2a 00
        E 163 99 26 58
        E 78 89 26 00
        E 95 99 2a 58
        E 0 99 26 71
        E 144 89 2a 00
        E 96 89 26 00
        E 239 99 2a 7d
        E 143 89 2a 00
        E 337 99 24 77
        E 1 99 2a 58
        E 144 89 2a 00
        E 94 89 24 00
        E 243 99 26 4a
        E 239 89 26 00
        E 0 99 2a 7d
        E 144 89 2a 00
        E 95 99 26 5d
        E 1 99 2a 7a
        E 143 89 2a 00
        E 96 89 26 00
        E 241 99 24 7d
        E 145 99 2a 5d
        E 76 89 2a 00
        E 18 89 24 00
        E 241 99 2a 74
        E 0 99 24 7b
        E 144 89 2a 00
        E 101 89 24 00
        E 236 99 2a 67
        E 143 89 2a 00
        E 336 99 2a 7d
        E 0 99 26 77
        E 143 89 2a 00
        E 98 89 26 00
        E 239 99 2a 7b
        E 145 89 2a 00
        E 335 99 24 7d
        E 1 99 2a 68
        E 144 89 2a 00
        E 96 89 24 00
        E 76 99 26 6d
        E 76 89 26 00
        E 87 99 26 77
        E 221 99 2a 7d
        E 19 99 2a 7d
        E 2 89 26 00
        E 55 89 2a 00
        E 87 89 2a 00
        E 96 99 26 7d
        E 0 99 2a 7a
        E 143 89 2a 00
        E 97 89 26 00
        E 240 99 24 7d
        E 235 89 24 00
        E 245 99 2a 79
        E 0 99 24 68
        E 142 89 2a 00
        E 101 89 24 00
        E 237 99 2a 7a
        E 143 89 2a 00
        E 336 99 2a 77
        E 1 99 26 4d
        E 141 89 2a 00
        E 97 89 26 00
        E 242 99 2a 6a
        E 144 89 2a 00
        E 336 99 2a 7d
        E 1 99 24 7b
        E 144 89 2a 00
        E 97 89 24 00
        E 238 99 26 7d
        E 220 99 26 4f
        E 20 99 2a 6d
        E 1 89 26 00
        E 56 89 26 00
        E 88 89 2a 00
        E 95 99 26 7d
        E 0 99 2a 5e
        E 143 89 2a 00
        E 96 89 26 00
        E 242 99 24 68
        E 241 89 24 00
        E 237 99 24 7c
        E 1 99 2a 77
        E 145 89 2a 00
        E 91 89 24 00
        E 244 99 2a 77
        E 19 99 28 45
        E 77 89 28 00
        E 49 89 2a 00
        E 335 99 2a 4c
        E 0 99 26 7d
        E 143 89 2a 00
        E 95 89 26 00
        E 242 99 2a 67
        E 143 89 2a 00
        E 68 99 2a 7d
        E 77 89 2a 00
        E 192 99 2a 7d
        E 1 99 24 7a
        E 143 89 2a 00
        E 100 89 24 00
        E 236 99 26 7d
        E 240 99 2a 4a
        E 1 89 26 00
        E 143 89 2a 00
        E 96 99 2a 59
        E 0 99 26 6c
        E 143 89 2a 00
        E 98 89 26 00
        E 239 99 24 71
        E 242 89 24 00
        E 0 b9 7b 00
        E 1 ff 2f 00
      >
    >
  >
  <TRACK
    NAME "distorted_bass"
    PEAKCOL 4286528191
    VOLPAN 1.000000 0 1 -1
    MIDIOUT -1
    ISBUS 0 0
    <ITEM
      POSITION 0.001795
      LENGTH 37.709106
      NAME "distorted_bass"
      VOLPAN 1 0 1 -1
      <SOURCE MIDI
        HASDATA 1 960 QN
        E 0 c0 26 00
        E 3 90 39 4c
        E 558 80 39 00
        E 83 90 38 4c
        E 144 90 3d 23
        E 27 80 38 00
        E 372 80 3d 00
        E 92 90 3f 4c
        E 583 80 3f 00
        E 60 90 3d 34
        E 579 80 3d 00
        E 60 90 3d 2d
        E 572 80 3d 00
        E 64 90 3e 4c
        E 564 80 3e 00
        E 80 90 3f 4c
        E 570 80 3f 00
        E 75 90 44 4c
        E 572 80 44 00
        E 58 90 44 4c
        E 581 80 44 00
        E 61 90 43 4c
        E 562 80 43 00
        E 83 90 3f 4c
        E 580 80 3f 00
        E 54 90 44 4c
        E 577 80 44 00
        E 66 90 45 4c
        E 144 90 3f 25
        E 27 80 45 00
        E 376 80 3f 00
        E 97 90 41 4c
        E 577 80 41 00
        E 56 90 3f 4c
        E 575 80 3f 00
        E 68 90 40 4c
        E 145 90 3b 4c
        E 25 80 40 00
        E 375 80 3b 00
        E 100 90 3f 2a
        E 572 80 3f 00
        E 60 90 3e 4c
        E 577 80 3e 00
        E 68 90 3d 4c
        E 574 80 3d 00
        E 66 90 38 4c
        E 568 80 38 00
        E 66 90 38 4c
        E 146 90 3d 4c
        E 26 80 38 00
        E 382 80 3d 00
        E 91 90 38 22
        E 573 80 38 00
        E 71 90 39 20
        E 573 80 39 00
        E 60 90 38 4c
        E 588 80 38 00
        E 55 90 37 4c
        E 142 90 31 4c
        E 32 80 37 00
        E 379 80 31 00
        E 91 90 32 4c
        E 571 80 32 00
        E 62 90 32 4c
        E 586 80 32 00
        E 56 90 2f 4c
        E 571 80 2f 00
        E 74 90 30 4c
        E 580 80 30 00
        E 51 90 30 4c
        E 586 80 30 00
        E 58 90 33 4c
        E 583 80 33 00
        E 62 90 37 4c
        E 583 80 37 00
        E 48 90 37 4c
        E 576 80 37 00
        E 67 90 36 4c
        E 577 80 36 00
        E 68 90 30 4c
        E 575 80 30 00
        E 59 90 38 4c
        E 572 80 38 00
        E 70 90 38 4c
        E 143 90 33 4c
        E 33 80 38 00
        E 370 80 33 00
        E 97 90 34 4c
        E 575 80 34 00
        E 59 90 33 4c
        E 575 80 33 00
        E 68 90 34 4c
        E 568 80 34 00
        E 75 90 2e 4c
        E 566 80 2e 00
        E 69 90 34 4c
        E 570 80 34 00
        E 74 90 33 4c
        E 579 80 33 00
        E 63 90 38 4c
        E 574 80 38 00
        E 59 90 39 4c
        E 580 80 39 00
        E 64 90 39 4c
        E 574 80 39 00
        E 68 90 39 4c
        E 571 80 39 00
        E 64 90 38 4c
        E 572 80 38 00
        E 71 90 3c 4c
        E 143 90 3e 4c
        E 31 80 3c 00
        E 371 80 3e 00
        E 99 90 3e 4c
        E 566 80 3e 00
        E 67 90 3f 4c
        E 558 80 3f 00
        E 85 90 37 2a
        E 561 80 37 00
        E 83 90 39 22
        E 579 80 39 00
        E 53 90 38 4c
        E 145 90 3d 4c
        E 29 80 38 00
        E 372 80 3d 00
        E 98 90 3e 4c
        E 562 80 3e 00
        E 83 90 45 4c
        E 580 80 45 00
        E 51 90 44 4c
        E 575 80 44 00
        E 66 90 41 4c
        E 581 80 41 00
        E 65 90 46 4c
        E 595 80 46 00
        E 39 90 44 4c
        E 574 80 44 00
        E 69 90 44 4c
        E 144 90 3e 4c
        E 24 80 44 00
        E 380 80 3e 00
        E 95 90 40 4c
        E 569 80 40 00
        E 65 90 3e 4c
        E 574 80 3e 00
        E 70 90 3c 31
        E 570 80 3c 00
        E 71 90 3c 25
        E 574 80 3c 00
        E 61 90 39 4c
        E 573 80 39 00
        E 68 90 33 4c
        E 574 80 33 00
        E 72 90 3c 39
        E 572 80 3c 00
        E 62 90 39 4c
        E 576 80 39 00
        E 68 90 3c 4c
        E 577 80 3c 00
        E 64 90 3a 2d
        E 578 80 3a 00
        E 53 90 36 4c
        E 570 80 36 00
        E 76 90 38 2c
        E 567 80 38 00
        E 75 90 38 4c
        E 144 90 3d 28
        E 25 80 38 00
        E 375 80 3d 00
        E 93 90 38 4c
        E 569 80 38 00
        E 70 90 39 4c
        E 585 80 39 00
        E 61 90 3e 28
        E 566 80 3e 00
        E 67 90 3e 4c
        E 576 80 3e 00
        E 68 90 39 4c
        E 580 80 39 00
        E 61 90 37 4c
        E 570 80 37 00
        E 64 90 38 4c
        E 576 80 38 00
        E 68 90 34 4c
        E 581 80 34 00
        E 63 90 31 4c
        E 574 80 31 00
        E 58 90 37 4c
        E 566 80 37 00
        E 78 90 39 4c
        E 144 90 33 4c
        E 34 80 39 00
        E 375 80 33 00
        E 89 90 34 4c
        E 577 80 34 00
        E 57 90 32 4c
        E 576 80 32 00
        E 67 90 35 4c
        E 570 80 35 00
        E 74 90 31 4c
        E 576 80 31 00
        E 58 90 31 4c
        E 573 80 31 00
        E 69 90 34 4c
        E 144 90 2c 4c
        E 29 80 34 00
        E 363 80 2c 00
        E 108 90 30 4c
        E 572 80 30 00
        E 61 90 2c 4c
        E 582 80 2c 00
        E 61 90 30 4c
        E 575 80 30 00
        E 69 90 2e 4c
        E 574 80 2e 00
        E 61 90 2f 4c
        E 582 80 2f 00
        E 0 b0 7b 00
        E 1 ff 2f 00
      >
    >
  >
  <TRACK
    NAME "brass_stabs"
    PEAKCOL 4290740026
    VOLPAN 1.000000 0 1 -1
    MIDIOUT -1
    ISBUS 0 0
    <ITEM
      POSITION 0.004396
      LENGTH 36.414626
      NAME "brass_stabs"
      VOLPAN 1 0 1 -1
      <SOURCE MIDI
        HASDATA 1 960 QN
        E 0 c1 3d 00
        E 7 91 32 4c
        E 246 81 32 00
        E 1195 91 34 4c
        E 240 81 34 00
        E 2161 91 32 4c
        E 229 81 32 00
        E 1216 91 34 4c
        E 250 81 34 00
        E 2138 91 32 4c
        E 239 81 32 00
        E 1203 91 35 4c
        E 242 81 35 00
        E 2174 91 32 4c
        E 242 81 32 00
        E 1191 91 30 4c
        E 242 81 30 00
        E 2134 91 32 4c
        E 237 81 32 00
        E 1222 91 33 4c
        E 239 81 33 00
        E 2165 91 32 4c
        E 250 81 32 00
        E 1183 91 34 4c
        E 240 81 34 00
        E 2150 91 32 4c
        E 238 81 32 00
        E 1217 91 35 4c
        E 231 81 35 00
        E 2159 91 32 4c
        E 254 81 32 00
        E 1198 91 34 4c
        E 242 81 34 00
        E 2156 91 2d 4c
        E 240 81 2d 00
        E 1184 91 34 4c
        E 242 81 34 00
        E 2177 91 32 4c
        E 235 81 32 00
        E 1200 91 34 4c
        E 243 81 34 00
        E 2159 91 31 4c
        E 231 81 31 00
        E 1211 91 34 4c
        E 238 81 34 00
        E 2153 91 32 4c
        E 230 81 32 00
        E 1201 91 34 4c
        E 244 81 34 00
        E 2177 91 32 4c
        E 239 81 32 00
        E 1185 91 34 4c
        E 234 81 34 00
        E 2174 91 32 4c
        E 247 81 32 00
        E 1182 91 34 4c
        E 244 81 34 00
        E 2170 91 32 4c
        E 244 81 32 00
        E 1197 91 34 4c
        E 242 81 34 00
        E 2146 91 32 4c
        E 228 81 32 00
        E 1212 91 33 4c
        E 233 81 33 00
        E 0 b1 7b 00
        E 1 ff 2f 00
      >
    >
  >
  <TRACK
    NAME "aggressive_strings"
    PEAKCOL 4284186559
    VOLPAN 1.000000 0 1 -1
    MIDIOUT -1
    ISBUS 0 0
    <ITEM
      POSITION 0.000040
      LENGTH 37.737343
      NAME "aggressive_strings"
      VOLPAN 1 0 1 -1
      <SOURCE MIDI
        HASDATA 1 960 QN
        E 0 c2 28 00
        E 0 92 3d 4c
        E 1 92 32 4c
        E 826 82 32 00
        E 104 82 3d 00
        E 29 92 3d 4c
        E 0 92 32 4c
        E 947 82 3d 00
        E 12 92 3f 4c
        E 3 92 31 4c
        E 114 82 32 00
        E 787 82 31 00
        E 8 82 3f 00
        E 50 92 32 4c
        E 1 92 3e 40
        E 906 82 32 00
        E 50 92 3c 4c
        E 3 92 31 4c
        E 35 82 3e 00
        E 907 82 3c 00
        E 18 92 31 4c
        E 1 92 3e 58
        E 31 82 31 00
        E 889 82 31 00
        E 13 82 3e 00
        E 23 92 32 4c
        E 4 92 40 4d
        E 939 82 40 00
        E 18 92 3e 4c
        E 3 92 32 4c
        E 8 82 32 00
        E 946 82 32 00
        E 3 92 3c 4c
        E 2 92 3c 4c
        E 13 82 3e 00
        E 868 82 3c 00
        E 77 92 39 4c
        E 0 92 3e 4c
        E 41 82 3c 00
        E 834 82 39 00
        E 57 82 3e 00
        E 28 92 40 4c
        E 2 92 3d 3e
        E 864 82 3d 00
        E 27 82 40 00
        E 67 92 3f 4c
        E 1 92 3c 4c
        E 884 82 3f 00
        E 49 82 3c 00
        E 28 92 3c 45
        E 1 92 3c 45
        E 900 82 3c 00
        E 58 92 3d 4c
        E 1 92 3d 4c
        E 7 82 3c 00
        E 882 82 3d 00
        E 60 82 3d 00
        E 10 92 3c 4c
        E 1 92 3c 3e
        E 959 92 3e 4c
        E 1 92 3a 4c
        E 4 82 3c 00
        E 3 82 3c 00
        E 869 82 3a 00
        E 82 92 32 4c
        E 1 92 3d 14
        E 27 82 3e 00
        E 875 82 3d 00
        E 3 82 32 00
        E 55 92 3e 4c
        E 0 92 33 4c
        E 860 82 33 00
        E 29 82 3e 00
        E 71 92 40 36
        E 3 92 32 4c
        E 943 82 40 00
        E 14 92 3f 4c
        E 2 92 31 4c
        E 4 82 32 00
        E 896 82 3f 00
        E 26 82 31 00
        E 32 92 32 4c
        E 2 92 3c 4c
        E 933 82 32 00
        E 12 82 3c 00
        E 15 92 32 4c
        E 0 92 40 3b
        E 878 82 32 00
        E 82 92 32 4c
        E 0 92 3c 4d
        E 21 82 40 00
        E 896 82 3c 00
        E 26 82 32 00
        E 16 92 3f 36
        E 0 92 33 4c
        E 800 82 33 00
        E 142 82 3f 00
        E 15 92 3c 4c
        E 3 92 3d 0c
        E 941 82 3c 00
        E 19 92 3d 2d
        E 1 92 40 43
        E 42 82 3d 00
        E 825 82 3d 00
        E 89 92 3c 4c
        E 1 92 3c 4c
        E 39 82 40 00
        E 916 82 3c 00
        E 7 92 40 2a
        E 0 92 39 4c
        E 77 82 3c 00
        E 881 92 38 4c
        E 3 92 38 4c
        E 12 82 40 00
        E 35 82 39 00
        E 824 82 38 00
        E 87 92 38 4c
        E 2 92 3d 39
        E 39 82 38 00
        E 816 82 3d 00
        E 55 82 38 00
        E 48 92 3d 4c
        E 1 92 3d 4c
        E 872 82 3d 00
        E 73 82 3d 00
        E 15 92 3c 4c
        E 1 92 3e 4a
        E 892 82 3e 00
        E 67 92 32 4c
        E 1 92 40 4c
        E 62 82 3c 00
        E 845 82 32 00
        E 52 92 3d 19
        E 1 92 32 4c
        E 12 82 40 00
        E 883 82 3d 00
        E 31 82 32 00
        E 32 92 32 4c
        E 0 92 40 39
        E 931 82 40 00
        E 28 92 3f 4c
        E 2 92 31 4c
        E 18 82 32 00
        E 929 82 31 00
        E 11 92 32 4c
        E 0 92 3d 4c
        E 66 82 3f 00
        E 853 82 3d 00
        E 34 82 32 00
        E 6 92 32 4c
        E 2 92 3d 4c
        E 900 82 3d 00
        E 26 82 32 00
        E 34 92 41 4a
        E 3 92 32 4c
        E 917 82 41 00
        E 41 92 32 4c
        E 1 92 3e 38
        E 13 82 32 00
        E 926 82 3e 00
        E 18 92 3c 4c
        E 2 92 3c 2d
        E 55 82 32 00
        E 853 82 3c 00
        E 52 92 3f 4c
        E 0 92 3e 0d
        E 5 82 3c 00
        E 948 82 3e 00
        E 7 92 40 34
        E 0 92 3c 4c
        E 40 82 3f 00
        E 920 92 3c 34
        E 1 92 3f 3d
        E 35 82 40 00
        E 31 82 3c 00
        E 863 82 3f 00
        E 29 92 3c 38
        E 0 92 3c 2d
        E 6 82 3c 00
        E 876 82 3c 00
        E 77 92 3e 4c
        E 2 92 3d 51
        E 45 82 3c 00
        E 893 82 3e 00
        E 23 92 3d 40
        E 0 92 3d 43
        E 16 82 3d 00
        E 921 82 3d 00
        E 20 92 3c 4c
        E 1 92 40 4c
        E 20 82 3d 00
        E 912 82 40 00
        E 29 92 40 3d
        E 2 92 32 4c
        E 73 82 3c 00
        E 885 92 32 4c
        E 1 92 3e 2a
        E 12 82 40 00
        E 40 82 32 00
        E 806 82 32 00
        E 79 82 3e 00
        E 20 92 40 4c
        E 1 92 32 4c
        E 954 82 40 00
        E 5 92 32 4c
        E 1 92 3e 25
        E 66 82 32 00
        E 796 82 32 00
        E 88 82 3e 00
        E 11 92 32 4c
        E 2 92 3c 31
        E 899 82 32 00
        E 59 92 32 4c
        E 1 92 3f 45
        E 33 82 3c 00
        E 876 82 32 00
        E 9 82 3f 00
        E 42 92 31 4c
        E 1 92 3d 2c
        E 925 82 3d 00
        E 32 92 33 4c
        E 2 92 3f 43
        E 47 82 31 00
        E 903 82 33 00
        E 8 92 3c 4c
        E 2 92 3c 4c
        E 17 82 3f 00
        E 941 92 3f 4c
        E 1 92 3e 20
        E 2 82 3c 00
        E 39 82 3c 00
        E 909 82 3e 00
        E 8 92 3f 4c
        E 3 92 38 4c
        E 126 82 3f 00
        E 738 82 38 00
        E 62 82 3f 00
        E 33 92 3f 4c
        E 0 92 3d 36
        E 906 82 3d 00
        E 39 82 3f 00
        E 13 92 3c 4c
        E 3 92 37 4c
        E 960 92 3f 47
        E 1 92 3d 23
        E 40 82 3c 00
        E 0 82 37 00
        E 917 92 3c 4c
        E 0 92 3c 4c
        E 2 82 3d 00
        E 43 82 3f 00
        E 824 82 3c 00
        E 72 82 3c 00
        E 21 92 3e 3d
        E 0 92 3c 1b
        E 916 82 3c 00
        E 27 82 3e 00
        E 0 b2 7b 00
        E 1 ff 2f 00
      >
    >
  >
>
