<REAPER_PROJECT 0.1 "7.0" 1700000000
  TEMPO 68.000000 4 4
  SAMPLERATE 48000 0 0
  RENDER_FILE ""
  RENDER_FMT 0 2 0
  RENDER_1X 0
  RENDER_RANGE 1 0 59.610075 0 0
  RENDER_RESAMPLE 3 0 1
  <MASTERTRACK
    VOLPAN 1 0 1 -1
    DEFCHAN 0
  >
  <TRACK
    NAME "tape_hiss"
    PEAKCOL 4284506208
    VOLPAN 1.000000 0 1 -1
    MIDIOUT -1
    ISBUS 0 0
    <ITEM
      POSITION 0.001581
      LENGTH 55.925457
      NAME "tape_hiss"
      VOLPAN 1 0 1 -1
      <SOURCE MIDI
        HASDATA 1 960 QN
        E 0 c0 61 00
        E 2 90 3f 32
        E 60738 80 3f 00
        E 0 b0 7b 00
        E 1 ff 2f 00
      >
    >
  >
  <TRACK
    NAME "vocal_chops"
    PEAKCOL 4284506208
    VOLPAN 1.000000 0 1 -1
    MIDIOUT -1
    ISBUS 0 0
    <ITEM
      POSITION 0.000000
      LENGTH 57.710075
      NAME "vocal_chops"
      VOLPAN 1 0 1 -1
      <SOURCE MIDI
        HASDATA 1 960 QN
        E 0 c1 34 00
        E 0 91 3e 33
        E 0 91 45 3c
        E 7 91 41 31
        E 3833 91 46 41
        E 3 91 41 3c
        E 0 91 3e 44
        E 938 81 41 00
        E 3 81 3e 00
        E 10 81 45 00
        E 2886 91 41 32
        E 2 91 45 33
        E 1 91 3c 33
        E 836 81 41 00
        E 96 81 3e 00
        E 45 81 46 00
        E 2855 91 40 3b
        E 8 91 3c 34
        E 0 91 43 49
        E 831 81 3c 00
        E 62 81 45 00
        E 167 81 41 00
        E 2775 91 45 3a
        E 1 91 41 43
        E 5 91 3e 47
        E 691 81 43 00
        E 79 81 3c 00
        E 60 81 40 00
        E 2996 91 41 4b
        E 13 91 3e 4b
        E 2 91 46 4f
        E 920 81 45 00
        E 99 81 3e 00
        E 21 81 41 00
        E 2793 91 45 54
        E 1 91 41 36
        E 0 91 3c 34
        E 1113 81 3e 00
        E 3 81 46 00
        E 132 81 41 00
        E 2585 91 3c 38
        E 3 91 43 39
        E 1 91 40 3c
        E 1010 81 45 00
        E 59 81 3c 00
        E 12 81 41 00
        E 2757 91 3e 3a
        E 0 91 45 46
        E 7 91 41 4f
        E 886 81 3c 00
        E 150 81 40 00
        E 48 81 43 00
        E 2753 91 41 4b
        E 2 91 46 49
        E 4 91 3e 4e
        E 811 81 3e 00
        E 40 81 45 00
        E 101 81 41 00
        E 2881 91 45 54
        E 2 91 41 3b
        E 11 91 3c 51
        E 630 81 46 00
        E 411 81 3e 00
        E 187 81 41 00
        E 2584 91 3c 3f
        E 17 91 43 59
        E 6 91 40 4a
        E 669 81 3c 00
        E 230 81 45 00
        E 254 81 41 00
        E 2677 91 41 53
        E 5 91 3e 40
        E 3 91 45 4b
        E 848 81 43 00
        E 50 81 40 00
        E 73 81 3c 00
        E 2858 91 46 44
        E 11 91 3e 36
        E 5 91 41 44
        E 917 81 45 00
        E 25 81 41 00
        E 126 81 3e 00
        E 2753 91 41 46
        E 9 91 45 51
        E 6 91 3c 4e
        E 805 81 41 00
        E 82 81 46 00
        E 186 81 3e 00
        E 2759 91 40 4c
        E 8 91 43 43
        E 1 91 3c 3c
        E 873 81 41 00
        E 156 81 45 00
        E 229 81 3c 00
        E 3586 81 40 00
        E 57 81 3c 00
        E 173 81 43 00
        E 0 b1 7b 00
        E 1 ff 2f 00
      >
    >
  >
  <TRACK
    NAME "piano_echoes"
    PEAKCOL 4290756410
    VOLPAN 1.000000 0 1 -1
    MIDIOUT -1
    ISBUS 0 0
    <ITEM
      POSITION 2.636485
      LENGTH 46.030362
      NAME "piano_echoes"
      VOLPAN 1 0 1 -1
      <SOURCE MIDI
        HASDATA 1 960 QN
        E 0 c2 00 00
        E 2868 92 3b 27
        E 960 82 3b 00
        E 14 92 3d 32
        E 953 92 41 32
        E 25 82 3d 00
        E 933 82 41 00
        E 3 92 3e 32
        E 983 82 3e 00
        E 11502 92 3c 32
        E 954 92 3d 32
        E 47 82 3c 00
        E 905 82 3d 00
        E 13 92 41 32
        E 955 92 3e 32
        E 9 82 41 00
        E 923 82 3e 00
        E 11548 92 3b 32
        E 946 82 3b 00
        E 14 92 3e 32
        E 962 82 3e 00
        E 4 92 41 32
        E 958 82 41 00
        E 6 92 3e 32
        E 978 82 3e 00
        E 11502 92 3d 32
        E 944 82 3d 00
        E 16 92 3e 32
        E 962 92 41 32
        E 6 82 3e 00
        E 927 82 41 00
        E 21 92 3e 32
        E 1000 82 3e 00
        E 0 b2 7b 00
        E 1 ff 2f 00
      >
    >
  >
  <TRACK
    NAME "sub_bass"
    PEAKCOL 4286528191
    VOLPAN 1.000000 0 1 -1
    MIDIOUT -1
    ISBUS 0 0
    <ITEM
      POSITION 0.000000
      LENGTH 56.483645
      NAME "sub_bass"
      VOLPAN 1 0 1 -1
      <SOURCE MIDI
        HASDATA 1 960 QN
        E 0 c3 26 00
        E 0 93 3b 25
        E 221 93 32 38
        E 37 83 3b 00
        E 570 83 32 00
        E 131 93 32 30
        E 875 83 32 00
        E 90 93 32 33
        E 881 83 32 00
        E 77 93 32 32
        E 870 83 32 00
        E 91 93 34 32
        E 210 93 3a 32
        E 51 83 34 00
        E 552 83 3a 00
        E 146 93 3b 31
        E 857 83 3b 00
        E 101 93 3a 32
        E 869 83 3a 00
        E 94 93 3a 30
        E 874 83 3a 00
        E 85 93 35 32
        E 863 83 35 00
        E 97 93 35 32
        E 871 83 35 00
        E 91 93 35 33
        E 868 83 35 00
        E 90 93 35 30
        E 869 83 35 00
        E 92 93 3c 32
        E 873 83 3c 00
        E 85 93 3c 33
        E 867 83 3c 00
        E 91 93 3c 3a
        E 875 83 3c 00
        E 88 93 3b 2d
        E 869 83 3b 00
        E 92 93 32 32
        E 865 83 32 00
        E 94 93 32 2c
        E 860 83 32 00
        E 102 93 31 25
        E 851 83 31 00
        E 109 93 32 36
        E 838 83 32 00
        E 122 93 3b 38
        E 879 83 3b 00
        E 72 93 3b 3c
        E 868 83 3b 00
        E 100 93 3a 32
        E 865 83 3a 00
        E 92 93 3a 36
        E 878 83 3a 00
        E 84 93 35 29
        E 875 83 35 00
        E 87 93 35 29
        E 853 83 35 00
        E 106 93 35 32
        E 871 83 35 00
        E 87 93 32 2c
        E 868 83 32 00
        E 92 93 3c 2e
        E 866 83 3c 00
        E 97 93 3c 36
        E 876 83 3c 00
        E 85 93 3c 34
        E 883 83 3c 00
        E 71 93 3b 32
        E 872 83 3b 00
        E 90 93 32 34
        E 856 83 32 00
        E 105 93 32 32
        E 867 83 32 00
        E 94 93 32 30
        E 877 83 32 00
        E 84 93 32 32
        E 875 83 32 00
        E 84 93 34 32
        E 211 93 3b 32
        E 44 83 34 00
        E 560 83 3b 00
        E 145 93 3b 32
        E 834 83 3b 00
        E 125 93 3a 3b
        E 869 83 3a 00
        E 90 93 3b 32
        E 848 83 3b 00
        E 113 93 35 32
        E 860 83 35 00
        E 99 93 35 2d
        E 867 83 35 00
        E 92 93 35 29
        E 868 83 35 00
        E 93 93 32 2c
        E 862 83 32 00
        E 94 93 3c 32
        E 856 83 3c 00
        E 110 93 3c 39
        E 856 83 3c 00
        E 103 93 3c 32
        E 853 83 3c 00
        E 108 93 3b 3b
        E 848 83 3b 00
        E 111 93 32 32
        E 867 83 32 00
        E 92 93 32 30
        E 872 83 32 00
        E 85 93 31 28
        E 871 83 31 00
        E 94 93 32 38
        E 867 83 32 00
        E 97 93 3c 32
        E 872 83 3c 00
        E 85 93 3b 32
        E 861 83 3b 00
        E 101 93 3a 32
        E 858 83 3a 00
        E 98 93 3a 32
        E 865 83 3a 00
        E 90 93 35 32
        E 868 83 35 00
        E 100 93 35 30
        E 864 83 35 00
        E 93 93 35 2f
        E 872 83 35 00
        E 85 93 35 29
        E 870 83 35 00
        E 95 93 3c 32
        E 872 83 3c 00
        E 86 93 3c 32
        E 871 83 3c 00
        E 89 93 3c 41
        E 857 83 3c 00
        E 101 93 3c 32
        E 865 83 3c 00
        E 0 b3 7b 00
        E 1 ff 2f 00
      >
    >
  >
>
