<REAPER_PROJECT 0.1 "7.0" 1700000000
  TEMPO 95.000000 4 4
  SAMPLERATE 48000 0 0
  RENDER_FILE ""
  RENDER_FMT 0 2 0
  RENDER_1X 0
  RENDER_RANGE 1 0 62.661737 0 0
  RENDER_RESAMPLE 3 0 1
  <MASTERTRACK
    VOLPAN 1 0 1 -1
    DEFCHAN 0
  >
  <TRACK
    NAME "piano_lead"
    PEAKCOL 4290756410
    VOLPAN 1.000000 0 1 -1
    MIDIOUT -1
    ISBUS 0 0
    <ITEM
      POSITION 0.002023
      LENGTH 53.151952
      NAME "piano_lead"
      VOLPAN 1 0 1 -1
      <SOURCE MIDI
        HASDATA 1 960 QN
        E 0 c0 00 00
        E 3 90 3d 50
        E 952 80 3d 00
        E 2 90 3e 47
        E 952 80 3e 00
        E 17 90 3c 59
        E 949 90 3e 43
        E 14 80 3c 00
        E 936 80 3e 00
        E 11548 90 3e 52
        E 944 90 3f 43
        E 49 80 3e 00
        E 895 80 3f 00
        E 21 90 3c 4a
        E 950 90 39 43
        E 8 80 3c 00
        E 928 80 39 00
        E 11557 90 3d 43
        E 955 90 3e 4f
        E 2 80 3d 00
        E 946 90 3c 47
        E 23 80 3e 00
        E 926 80 3c 00
        E 20 90 39 43
        E 966 80 39 00
        E 11519 90 3e 43
        E 963 90 3e 49
        E 8 80 3e 00
        E 929 80 3e 00
        E 22 90 3d 52
        E 956 90 39 43
        E 9 80 3d 00
        E 958 80 39 00
        E 11519 90 3e 43
        E 951 90 3e 43
        E 3 80 3e 00
        E 960 90 3c 4c
        E 13 80 3e 00
        E 930 80 3c 00
        E 18 90 3d 37
        E 958 80 3d 00
        E 11515 90 3e 43
        E 969 80 3e 00
        E 3 90 3e 4c
        E 947 80 3e 00
        E 8 90 3c 53
        E 948 80 3c 00
        E 17 90 3e 37
        E 957 80 3e 00
        E 0 b0 7b 00
        E 1 ff 2f 00
      >
    >
  >
  <TRACK
    NAME "choir_layer"
    PEAKCOL 4284506208
    VOLPAN 1.000000 0 1 -1
    MIDIOUT -1
    ISBUS 0 0
    <ITEM
      POSITION 0.003485
      LENGTH 53.138517
      NAME "choir_layer"
      VOLPAN 1 0 1 -1
      <SOURCE MIDI
        HASDATA 1 960 QN
        E 0 c1 34 00
        E 5 91 48 43
        E 966 91 4c 36
        E 27 81 48 00
        E 864 81 4c 00
        E 63 91 4a 33
        E 966 81 4a 00
        E 0 91 49 43
        E 927 81 49 00
        E 11545 91 4a 43
        E 980 91 49 3c
        E 47 81 4a 00
        E 794 81 49 00
        E 110 91 48 40
        E 850 81 48 00
        E 99 91 49 43
        E 955 81 49 00
        E 11535 91 44 37
        E 950 91 46 2b
        E 47 81 44 00
        E 908 81 46 00
        E 14 91 49 24
        E 954 91 49 43
        E 49 81 49 00
        E 973 81 49 00
        E 11468 91 42 43
        E 952 91 48 2e
        E 54 81 42 00
        E 907 91 4a 3c
        E 68 81 48 00
        E 916 91 4b 43
        E 15 81 4a 00
        E 892 81 4b 00
        E 11558 91 4a 2a
        E 963 91 48 28
        E 120 81 4a 00
        E 815 81 48 00
        E 26 91 46 31
        E 938 81 46 00
        E 19 91 48 21
        E 972 81 48 00
        E 11491 91 4b 43
        E 935 91 49 43
        E 3 81 4b 00
        E 983 81 49 00
        E 6 91 4a 41
        E 958 91 49 43
        E 12 81 4a 00
        E 925 81 49 00
        E 0 b1 7b 00
        E 1 ff 2f 00
      >
    >
  >
  <TRACK
    NAME "strings_layer"
    PEAKCOL 4284186559
    VOLPAN 1.000000 0 1 -1
    MIDIOUT -1
    ISBUS 0 0
    <ITEM
      POSITION 0.009244
      LENGTH 53.115399
      NAME "strings_layer"
      VOLPAN 1 0 1 -1
      <SOURCE MIDI
        HASDATA 1 960 QN
        E 0 c2 30 00
        E 14 92 30 36
        E 884 82 30 00
        E 73 92 32 41
        E 889 82 32 00
        E 61 92 30 43
        E 931 82 30 00
        E 22 92 33 43
        E 929 82 33 00
        E 11564 92 34 3a
        E 922 82 34 00
        E 31 92 2d 43
        E 946 92 32 43
        E 105 82 2d 00
        E 866 92 33 43
        E 17 82 32 00
        E 958 82 33 00
        E 11515 92 31 43
        E 962 92 2c 43
        E 29 82 31 00
        E 930 82 2c 00
        E 17 92 34 43
        E 930 92 33 43
        E 25 82 34 00
        E 914 82 33 00
        E 11541 92 2c 43
        E 957 92 32 43
        E 41 82 2c 00
        E 923 92 30 43
        E 53 82 32 00
        E 885 82 30 00
        E 25 92 31 43
        E 1029 82 31 00
        E 11450 92 30 43
        E 960 92 32 43
        E 16 82 30 00
        E 944 92 30 43
        E 14 82 32 00
        E 908 82 30 00
        E 37 92 32 43
        E 973 82 32 00
        E 11530 92 31 46
        E 940 92 33 43
        E 96 82 31 00
        E 865 92 30 43
        E 104 82 33 00
        E 823 82 30 00
        E 36 92 33 36
        E 913 82 33 00
        E 0 b2 7b 00
        E 1 ff 2f 00
      >
    >
  >
  <TRACK
    NAME "drums"
    PEAKCOL 4290722362
    VOLPAN 1.000000 0 1 -1
    MIDIOUT -1
    ISBUS 0 0
    <ITEM
      POSITION 0.000000
      LENGTH 60.655001
      NAME "drums"
      VOLPAN 1 0 1 -1
      <SOURCE MIDI
        HASDATA 1 960 QN
        E 0 c9 00 00
        E 0 99 24 50
        E 0 99 2a 43
        E 29 99 2a 43
        E 77 89 2a 00
        E 39 89 2a 00
        E 98 89 24 00
        E 237 99 29 43
        E 145 89 29 00
        E 335 99 26 7a
        E 240 89 26 00
        E 239 99 2a 55
        E 1 99 24 62
        E 143 89 2a 00
        E 94 89 24 00
        E 243 99 2a 4c
        E 0 99 24 64
        E 144 89 2a 00
        E 100 89 24 00
        E 236 99 2a 49
        E 143 89 2a 00
        E 337 99 26 71
        E 240 89 26 00
        E 240 99 24 7c
        E 0 99 2a 43
        E 143 89 2a 00
        E 93 89 24 00
        E 244 99 2a 73
        E 0 99 24 7c
        E 143 89 2a 00
        E 103 89 24 00
        E 235 99 2a 61
        E 47 99 2a 61
        E 76 89 2a 00
        E 20 89 2a 00
        E 336 99 26 7d
        E 239 89 26 00
        E 241 99 2a 62
        E 0 99 24 7d
        E 145 89 2a 00
        E 96 89 24 00
        E 238 99 2a 61
        E 1 99 24 7d
        E 142 89 2a 00
        E 98 89 24 00
        E 240 99 2a 4a
        E 144 89 2a 00
        E 336 99 26 7a
        E 243 89 26 00
        E 237 99 2a 4a
        E 0 99 24 67
        E 144 89 2a 00
        E 92 89 24 00
        E 244 99 2a 55
        E 0 99 24 65
        E 143 89 2a 00
        E 95 89 24 00
        E 242 99 2a 67
        E 147 89 2a 00
        E 333 99 26 7d
        E 238 89 26 00
        E 242 99 24 71
        E 0 99 2a 7c
        E 144 89 2a 00
        E 94 89 24 00
        E 242 99 2a 7c
        E 0 99 24 7d
        E 144 89 2a 00
        E 97 89 24 00
        E 239 99 2a 5c
        E 145 89 2a 00
        E 28 99 2a 3c
        E 78 89 2a 00
        E 230 99 26 7d
        E 243 89 26 00
        E 235 99 24 7d
        E 1 99 2a 7b
        E 146 89 2a 00
        E 92 89 24 00
        E 241 99 24 7a
        E 0 99 2a 7d
        E 145 89 2a 00
        E 97 89 24 00
        E 239 99 2a 75
        E 144 89 2a 00
        E 336 99 26 7d
        E 240 89 26 00
        E 240 99 2a 6d
        E 0 99 24 7a
        E 141 89 2a 00
        E 102 89 24 00
        E 236 99 2a 7a
        E 1 99 24 7d
        E 144 89 2a 00
        E 94 89 24 00
        E 242 99 2a 59
        E 145 89 2a 00
        E 335 99 26 7a
        E 57 99 2a 49
        E 76 89 2a 00
        E 97 99 26 33
        E 12 89 26 00
        E 65 89 26 00
        E 173 99 2a 58
        E 0 99 24 56
        E 144 89 2a 00
        E 94 89 24 00
        E 242 99 2a 43
        E 0 99 24 7d
        E 143 89 2a 00
        E 98 89 24 00
        E 240 99 29 43
        E 147 89 29 00
        E 150 99 26 61
        E 76 89 26 00
        E 106 99 26 59
        E 241 89 26 00
        E 239 99 24 64
        E 0 99 2a 4a
        E 143 89 2a 00
        E 101 89 24 00
        E 236 99 24 61
        E 0 99 29 43
        E 143 89 29 00
        E 97 89 24 00
        E 240 99 2a 4a
        E 144 89 2a 00
        E 336 99 26 7a
        E 239 89 26 00
        E 241 99 2a 44
        E 0 99 24 7d
        E 143 89 2a 00
        E 98 89 24 00
        E 239 99 24 7d
        E 0 99 2a 4f
        E 144 89 2a 00
        E 94 89 24 00
        E 242 99 2a 78
        E 144 89 2a 00
        E 336 99 26 7d
        E 242 89 26 00
        E 238 99 24 7d
        E 0 99 2a 55
        E 146 89 2a 00
        E 93 89 24 00
        E 145 99 2a 6d
        E 78 89 2a 00
        E 17 99 24 7d
        E 0 99 2a 52
        E 145 89 2a 00
        E 93 89 24 00
        E 243 99 2a 59
        E 143 89 2a 00
        E 338 99 26 7d
        E 239 89 26 00
        E 240 99 24 6e
        E 0 99 2a 50
        E 143 89 2a 00
        E 98 89 24 00
        E 239 99 2a 56
        E 0 99 24 6b
        E 145 89 2a 00
        E 38 99 26 3a
        E 57 89 24 00
        E 20 89 26 00
        E 219 99 2a 50
        E 143 89 2a 00
        E 50 99 26 47
        E 76 89 26 00
        E 213 99 26 71
        E 241 89 26 00
        E 238 99 24 6d
        E 1 99 2a 6b
        E 148 89 2a 00
        E 91 89 24 00
        E 240 99 2a 77
        E 0 99 24 77
        E 144 89 2a 00
        E 100 89 24 00
        E 237 99 2a 5b
        E 143 89 2a 00
        E 336 99 26 7d
        E 242 89 26 00
        E 238 99 24 7d
        E 0 99 2a 56
        E 145 89 2a 00
        E 97 89 24 00
        E 238 99 24 7d
        E 0 99 2a 5f
        E 144 89 2a 00
        E 96 89 24 00
        E 240 99 2a 6a
        E 144 89 2a 00
        E 336 99 26 7d
        E 241 89 26 00
        E 239 99 2a 73
        E 0 99 24 70
        E 142 89 2a 00
        E 97 89 24 00
        E 240 99 24 7d
        E 0 99 2a 5b
        E 144 89 2a 00
        E 94 89 24 00
        E 243 99 2a 55
        E 144 89 2a 00
        E 336 99 26 6e
        E 240 89 26 00
        E 115 99 2a 3d
        E 77 89 2a 00
        E 48 99 24 70
        E 0 99 2a 44
        E 145 89 2a 00
        E 94 89 24 00
        E 241 99 24 78
        E 0 99 28 43
        E 144 89 28 00
        E 58 99 26 43
        E 39 89 24 00
        E 38 89 26 00
        E 200 99 2a 43
        E 144 89 2a 00
        E 327 99 2a 43
        E 10 99 26 52
        E 67 89 2a 00
        E 177 89 26 00
        E 6 99 26 44
        E 77 89 26 00
        E 153 99 24 4f
        E 0 99 2a 49
        E 141 89 2a 00
        E 99 89 24 00
        E 240 99 24 5f
        E 0 99 2a 5c
        E 144 89 2a 00
        E 95 89 24 00
        E 241 99 29 43
        E 144 89 29 00
        E 336 99 26 7d
        E 242 89 26 00
        E 238 99 24 7d
        E 0 99 2a 46
        E 145 89 2a 00
        E 95 89 24 00
        E 240 99 24 77
        E 1 99 2a 73
        E 144 89 2a 00
        E 95 89 24 00
        E 240 99 2a 75
        E 144 89 2a 00
        E 336 99 26 7d
        E 238 89 26 00
        E 242 99 24 7d
        E 0 99 2a 7a
        E 142 89 2a 00
        E 98 89 24 00
        E 240 99 24 7d
        E 0 99 2a 64
        E 144 89 2a 00
        E 94 89 24 00
        E 242 99 2a 61
        E 144 89 2a 00
        E 289 99 2a 4f
        E 47 99 26 7d
        E 31 89 2a 00
        E 209 89 26 00
        E 240 99 24 67
        E 0 99 2a 46
        E 144 89 2a 00
        E 95 89 24 00
        E 241 99 24 65
        E 1 99 2a 3d
        E 144 89 2a 00
        E 97 89 24 00
        E 238 99 2a 76
        E 145 89 2a 00
        E 336 99 26 7c
        E 242 89 26 00
        E 237 99 24 7a
        E 0 99 2a 5f
        E 143 89 2a 00
        E 101 89 24 00
        E 236 99 2a 78
        E 1 99 24 7d
        E 144 89 2a 00
        E 94 89 24 00
        E 241 99 2a 71
        E 142 89 2a 00
        E 319 99 2a 55
        E 19 99 26 7a
        E 59 89 2a 00
        E 181 89 26 00
        E 240 99 24 78
        E 0 99 2a 75
        E 143 89 2a 00
        E 100 89 24 00
        E 237 99 24 76
        E 0 99 2a 62
        E 143 89 2a 00
        E 96 89 24 00
        E 241 99 2a 5f
        E 145 89 2a 00
        E 172 99 26 70
        E 77 89 26 00
        E 86 99 26 79
        E 58 99 26 68
        E 76 89 26 00
        E 48 99 2a 62
        E 59 89 26 00
        E 18 89 2a 00
        E 221 99 2a 6e
        E 0 99 24 7c
        E 145 89 2a 00
        E 96 89 24 00
        E 239 99 24 7d
        E 1 99 2a 68
        E 144 89 2a 00
        E 97 89 24 00
        E 237 99 2a 7a
        E 143 89 2a 00
        E 337 99 26 7d
        E 240 89 26 00
        E 240 99 2a 46
        E 1 99 24 7d
        E 143 89 2a 00
        E 96 89 24 00
        E 241 99 24 43
        E 0 99 29 43
        E 145 89 29 00
        E 96 89 24 00
        E 18 99 26 43
        E 77 89 26 00
        E 144 99 2a 43
        E 144 89 2a 00
        E 336 99 26 65
        E 238 89 26 00
        E 241 99 2a 43
        E 0 99 24 7c
        E 143 89 2a 00
        E 96 89 24 00
        E 242 99 2a 59
        E 0 99 24 76
        E 144 89 2a 00
        E 97 89 24 00
        E 239 99 29 43
        E 142 89 29 00
        E 338 99 26 61
        E 58 99 2a 4c
        E 77 89 2a 00
        E 107 89 26 00
        E 238 99 24 7b
        E 1 99 2a 56
        E 144 89 2a 00
        E 8 99 2a 49
        E 77 89 2a 00
        E 8 89 24 00
        E 242 99 24 7d
        E 0 99 2a 44
        E 143 89 2a 00
        E 92 89 24 00
        E 244 99 2a 64
        E 144 89 2a 00
        E 337 99 26 7b
        E 235 89 26 00
        E 244 99 2a 70
        E 0 99 24 77
        E 145 89 2a 00
        E 77 99 2a 62
        E 17 89 24 00
        E 60 89 2a 00
        E 182 99 2a 7c
        E 0 99 24 7b
        E 144 89 2a 00
        E 95 89 24 00
        E 241 99 2a 61
        E 147 89 2a 00
        E 333 99 26 7d
        E 240 89 26 00
        E 239 99 24 7c
        E 2 99 2a 64
        E 143 89 2a 00
        E 94 89 24 00
        E 241 99 2a 74
        E 1 99 24 6a
        E 146 89 2a 00
        E 93 89 24 00
        E 241 99 2a 73
        E 143 89 2a 00
        E 337 99 26 5f
        E 242 89 26 00
        E 238 99 2a 6e
        E 0 99 24 6e
        E 10 99 2a 55
        E 78 89 2a 00
        E 55 89 2a 00
        E 95 89 24 00
        E 242 99 2a 75
        E 0 99 24 73
        E 143 89 2a 00
        E 96 89 24 00
        E 241 99 2a 58
        E 144 89 2a 00
        E 336 99 26 70
        E 242 89 26 00
        E 238 99 24 78
        E 1 99 2a 74
        E 145 89 2a 00
        E 94 89 24 00
        E 240 99 24 7d
        E 1 99 2a 55
        E 144 89 2a 00
        E 95 89 24 00
        E 240 99 2a 7b
        E 143 89 2a 00
        E 337 99 26 77
        E 238 89 26 00
        E 242 99 24 7a
        E 0 99 2a 67
        E 143 89 2a 00
        E 98 89 24 00
        E 114 99 2a 49
        E 76 89 2a 00
        E 49 99 2a 70
        E 0 99 24 7d
        E 58 99 2a 3c
        E 76 89 2a 00
        E 11 89 2a 00
        E 93 89 24 00
        E 242 99 2a 64
        E 145 89 2a 00
        E 335 99 26 7d
        E 242 89 26 00
        E 238 99 24 56
        E 0 99 2a 4a
        E 146 89 2a 00
        E 92 89 24 00
        E 242 99 2a 43
        E 0 99 24 67
        E 142 89 2a 00
        E 50 99 2a 43
        E 49 89 24 00
        E 27 89 2a 00
        E 212 99 2a 43
        E 144 89 2a 00
        E 336 99 26 50
        E 237 89 26 00
        E 243 99 2a 49
        E 1 99 24 68
        E 142 89 2a 00
        E 98 89 24 00
        E 239 99 2a 5c
        E 0 99 24 61
        E 145 89 2a 00
        E 93 89 24 00
        E 242 99 2a 4f
        E 145 89 2a 00
        E 335 99 26 73
        E 239 89 26 00
        E 241 99 24 77
        E 0 99 2a 5c
        E 0 99 2a 5c
        E 76 89 2a 00
        E 70 89 2a 00
        E 93 89 24 00
        E 240 99 2a 46
        E 0 99 24 7d
        E 144 89 2a 00
        E 94 89 24 00
        E 242 99 2a 62
        E 39 99 26 55
        E 77 89 26 00
        E 30 89 2a 00
        E 95 99 26 43
        E 77 89 26 00
        E 163 99 26 7a
        E 241 89 26 00
        E 238 99 24 7d
        E 1 99 2a 7d
        E 144 89 2a 00
        E 92 89 24 00
        E 243 99 2a 6a
        E 1 99 24 7b
        E 142 89 2a 00
        E 98 89 24 00
        E 240 99 2a 6b
        E 144 89 2a 00
        E 336 99 26 7d
        E 243 89 26 00
        E 236 99 2a 67
        E 1 99 24 7c
        E 143 89 2a 00
        E 99 89 24 00
        E 238 99 24 7a
        E 1 99 2a 55
        E 143 89 2a 00
        E 96 89 24 00
        E 240 99 2a 55
        E 144 89 2a 00
        E 336 99 26 65
        E 241 89 26 00
        E 239 99 24 4c
        E 0 99 2a 3d
        E 146 89 2a 00
        E 94 89 24 00
        E 240 99 24 7d
        E 0 99 2a 73
        E 145 89 2a 00
        E 95 89 24 00
        E 0 99 26 44
        E 78 89 26 00
        E 162 99 2a 5f
        E 146 89 2a 00
        E 267 99 2a 56
        E 68 99 26 7d
        E 9 89 2a 00
        E 232 89 26 00
        E 238 99 24 7d
        E 0 99 2a 73
        E 144 89 2a 00
        E 100 89 24 00
        E 236 99 2a 58
        E 0 99 24 7a
        E 145 89 2a 00
        E 93 89 24 00
        E 241 99 2a 70
        E 145 89 2a 00
        E 336 99 26 7d
        E 239 89 26 00
        E 240 99 2a 6e
        E 1 99 24 7c
        E 144 89 2a 00
        E 98 89 24 00
        E 238 99 2a 67
        E 0 99 24 7d
        E 144 89 2a 00
        E 99 89 24 00
        E 237 99 2a 5f
        E 0 99 2a 5f
        E 76 89 2a 00
        E 67 89 2a 00
        E 337 99 26 7d
        E 240 89 26 00
        E 240 99 24 7d
        E 0 99 2a 55
        E 146 89 2a 00
        E 96 89 24 00
        E 238 99 24 7d
        E 1 99 2a 49
        E 145 89 2a 00
        E 93 89 24 00
        E 78 99 24 43
        E 77 89 24 00
        E 86 99 29 43
        E 144 89 29 00
        E 336 99 26 4c
        E 241 89 26 00
        E 238 99 2a 43
        E 1 99 24 71
        E 146 89 2a 00
        E 91 89 24 00
        E 243 99 24 56
        E 1 99 2a 5b
        E 144 89 2a 00
        E 92 89 24 00
        E 243 99 2a 56
        E 146 89 2a 00
        E 334 99 26 6b
        E 240 89 26 00
        E 240 99 24 79
        E 0 99 2a 43
        E 145 89 2a 00
        E 93 89 24 00
        E 242 99 2a 78
        E 0 99 24 79
        E 143 89 2a 00
        E 95 89 24 00
        E 2 99 2a 5e
        E 76 89 2a 00
        E 164 99 2a 7d
        E 143 89 2a 00
        E 337 99 26 7d
        E 242 89 26 00
        E 238 99 2a 77
        E 0 99 24 7a
        E 144 89 2a 00
        E 95 89 24 00
        E 240 99 24 7d
        E 1 99 2a 7d
        E 145 89 2a 00
        E 87 89 24 00
        E 248 99 2a 59
        E 142 89 2a 00
        E 338 99 26 7d
        E 239 89 26 00
        E 241 99 2a 65
        E 0 99 24 74
        E 143 89 2a 00
        E 96 89 24 00
        E 240 99 24 7d
        E 1 99 2a 56
        E 144 89 2a 00
        E 95 89 24 00
        E 241 99 2a 4f
        E 146 89 2a 00
        E 335 99 26 7a
        E 241 89 26 00
        E 237 99 2a 49
        E 2 99 24 5b
        E 141 89 2a 00
        E 97 89 24 00
        E 241 99 24 76
        E 0 99 2a 47
        E 145 89 2a 00
        E 99 89 24 00
        E 169 99 2a 64
        E 68 99 2a 64
        E 9 89 2a 00
        E 133 89 2a 00
        E 174 99 2a 4d
        E 77 89 2a 00
        E 86 99 26 78
        E 238 89 26 00
        E 241 99 24 75
        E 1 99 2a 74
        E 143 89 2a 00
        E 95 89 24 00
        E 242 99 2a 5b
        E 0 99 24 5f
        E 143 89 2a 00
        E 94 89 24 00
        E 23 99 2a 4d
        E 77 89 2a 00
        E 143 99 2a 76
        E 145 89 2a 00
        E 334 99 26 7d
        E 241 89 26 00
        E 240 99 2a 61
        E 0 99 24 79
        E 144 89 2a 00
        E 96 89 24 00
        E 240 99 2a 6e
        E 0 99 24 7b
        E 145 89 2a 00
        E 95 89 24 00
        E 240 99 2a 4a
        E 143 89 2a 00
        E 338 99 26 7d
        E 124 99 2a 6b
        E 77 89 2a 00
        E 39 89 26 00
        E 239 99 2a 5f
        E 0 99 24 68
        E 144 89 2a 00
        E 95 89 24 00
        E 49 99 27 2a
        E 76 89 27 00
        E 0 b9 7b 00
        E 1 ff 2f 00
      >
    >
  >
  <TRACK
    NAME "synth_bass"
    PEAKCOL 4286528191
    VOLPAN 1.000000 0 1 -1
    MIDIOUT -1
    ISBUS 0 0
    <ITEM
      POSITION 0.000161
      LENGTH 60.666596
      NAME "synth_bass"
      VOLPAN 1 0 1 -1
      <SOURCE MIDI
        HASDATA 1 960 QN
        E 0 c3 26 00
        E 0 93 3a 43
        E 96 93 3e 43
        E 19 83 3a 00
        E 255 83 3e 00
        E 111 93 3d 1f
        E 240 93 3d 43
        E 144 83 3d 00
        E 96 93 49 25
        E 148 83 3d 00
        E 235 83 49 00
        E 97 93 4a 27
        E 386 83 4a 00
        E 93 93 3e 43
        E 384 83 3e 00
        E 96 93 38 43
        E 240 93 38 43
        E 145 83 38 00
        E 95 93 3e 43
        E 143 83 38 00
        E 242 83 3e 00
        E 95 93 3f 43
        E 387 83 3f 00
        E 93 93 38 2b
        E 389 83 38 00
        E 91 93 37 43
        E 240 93 37 1f
        E 141 83 37 00
        E 100 93 43 10
        E 146 83 37 00
        E 241 83 43 00
        E 92 93 44 43
        E 383 83 44 00
        E 97 93 45 12
        E 375 83 45 00
        E 105 93 46 18
        E 240 93 46 43
        E 132 83 46 00
        E 107 93 43 43
        E 146 83 46 00
        E 235 83 43 00
        E 100 93 43 43
        E 381 83 43 00
        E 99 93 3f 43
        E 385 83 3f 00
        E 95 93 41 43
        E 240 93 41 43
        E 148 83 41 00
        E 92 93 3f 12
        E 140 83 41 00
        E 243 83 3f 00
        E 97 93 3f 43
        E 385 83 3f 00
        E 95 93 3f 43
        E 386 83 3f 00
        E 95 93 40 22
        E 239 93 40 43
        E 149 83 40 00
        E 90 93 3f 43
        E 142 83 40 00
        E 241 83 3f 00
        E 99 93 40 1b
        E 95 93 4a 30
        E 21 83 40 00
        E 251 83 4a 00
        E 112 93 4a 12
        E 384 83 4a 00
        E 97 93 48 1f
        E 239 93 48 43
        E 147 83 48 00
        E 94 93 46 19
        E 146 83 48 00
        E 241 83 46 00
        E 92 93 4a 2e
        E 388 83 4a 00
        E 93 93 4a 22
        E 389 83 4a 00
        E 91 93 48 12
        E 240 93 48 43
        E 145 83 48 00
        E 94 93 44 27
        E 135 83 48 00
        E 251 83 44 00
        E 95 93 48 21
        E 387 83 48 00
        E 93 93 46 43
        E 384 83 46 00
        E 95 93 48 43
        E 241 93 48 22
        E 154 83 48 00
        E 85 93 49 43
        E 142 83 48 00
        E 249 83 49 00
        E 89 93 4b 1f
        E 386 83 4b 00
        E 94 93 44 43
        E 377 83 44 00
        E 103 93 3e 43
        E 241 93 3e 43
        E 140 83 3e 00
        E 100 93 3e 43
        E 144 83 3e 00
        E 241 83 3e 00
        E 93 93 31 43
        E 382 83 31 00
        E 99 93 32 43
        E 383 83 32 00
        E 97 93 30 43
        E 241 93 30 43
        E 133 83 30 00
        E 106 93 2e 43
        E 142 83 30 00
        E 248 83 2e 00
        E 90 93 31 43
        E 385 83 31 00
        E 95 93 31 43
        E 383 83 31 00
        E 97 93 30 43
        E 240 93 30 2a
        E 132 83 30 00
        E 108 93 2e 43
        E 146 83 30 00
        E 232 83 2e 00
        E 102 93 2d 43
        E 393 83 2d 00
        E 87 93 30 43
        E 96 93 35 43
        E 18 83 30 00
        E 247 83 35 00
        E 119 93 40 1b
        E 240 93 40 13
        E 153 83 40 00
        E 88 93 3f 19
        E 140 83 40 00
        E 257 83 3f 00
        E 82 93 3f 43
        E 393 83 3f 00
        E 88 93 3f 2d
        E 381 83 3f 00
        E 99 93 41 2a
        E 240 93 41 12
        E 140 83 41 00
        E 100 93 3f 13
        E 140 83 41 00
        E 234 83 3f 00
        E 105 93 3f 43
        E 385 83 3f 00
        E 96 93 32 43
        E 392 83 32 00
        E 87 93 30 43
        E 240 93 30 43
        E 138 83 30 00
        E 102 93 2e 43
        E 139 83 30 00
        E 252 83 2e 00
        E 90 93 32 43
        E 383 83 32 00
        E 96 93 32 43
        E 386 83 32 00
        E 94 93 30 43
        E 241 93 30 43
        E 140 83 30 00
        E 99 93 2d 43
        E 152 83 30 00
        E 233 83 2d 00
        E 95 93 2f 43
        E 386 83 2f 00
        E 94 93 2e 43
        E 379 83 2e 00
        E 101 93 30 43
        E 240 93 32 43
        E 139 83 30 00
        E 102 93 31 43
        E 150 83 32 00
        E 222 83 31 00
        E 107 93 33 43
        E 389 83 33 00
        E 91 93 30 43
        E 390 83 30 00
        E 90 93 32 43
        E 240 93 32 43
        E 142 83 32 00
        E 99 93 32 43
        E 145 83 32 00
        E 238 83 32 00
        E 97 93 31 43
        E 384 83 31 00
        E 96 93 2d 43
        E 386 83 2d 00
        E 93 93 30 43
        E 240 93 30 43
        E 149 83 30 00
        E 91 93 2e 43
        E 142 83 30 00
        E 242 83 2e 00
        E 97 93 32 43
        E 384 83 32 00
        E 95 93 32 43
        E 381 83 32 00
        E 100 93 30 43
        E 239 93 30 43
        E 142 83 30 00
        E 98 93 2c 43
        E 146 83 30 00
        E 237 83 2c 00
        E 97 93 32 43
        E 387 83 32 00
        E 93 93 33 43
        E 383 83 33 00
        E 98 93 35 43
        E 240 93 35 43
        E 146 83 35 00
        E 94 93 33 2b
        E 143 83 35 00
        E 243 83 33 00
        E 94 93 33 43
        E 386 83 33 00
        E 93 93 33 43
        E 381 83 33 00
        E 100 93 34 43
        E 240 93 40 1c
        E 149 83 34 00
        E 90 93 40 27
        E 148 83 40 00
        E 234 83 40 00
        E 98 93 3f 43
        E 387 83 3f 00
        E 94 93 3e 0d
        E 392 83 3e 00
        E 87 93 3b 25
        E 240 93 31 43
        E 133 83 3b 00
        E 107 93 2d 43
        E 142 83 31 00
        E 241 83 2d 00
        E 96 93 32 43
        E 385 83 32 00
        E 97 93 32 43
        E 381 83 32 00
        E 99 93 30 43
        E 240 93 30 43
        E 146 83 30 00
        E 93 93 2e 43
        E 138 83 30 00
        E 249 83 2e 00
        E 93 93 3c 43
        E 378 83 3c 00
        E 103 93 39 43
        E 376 83 39 00
        E 103 93 3d 43
        E 240 93 48 43
        E 140 83 3d 00
        E 100 93 49 43
        E 151 83 48 00
        E 240 83 49 00
        E 90 93 4a 19
        E 386 83 4a 00
        E 94 93 44 43
        E 383 83 44 00
        E 96 93 48 43
        E 241 93 49 2a
        E 139 83 48 00
        E 100 93 45 1f
        E 141 83 49 00
        E 241 83 45 00
        E 99 93 4b 43
        E 392 83 4b 00
        E 87 93 44 43
        E 384 83 44 00
        E 97 93 46 1c
        E 239 93 48 13
        E 151 83 46 00
        E 89 93 43 2e
        E 141 83 48 00
        E 244 83 43 00
        E 95 93 43 1b
        E 374 83 43 00
        E 106 93 45 28
        E 379 83 45 00
        E 100 93 46 43
        E 240 93 46 43
        E 136 83 46 00
        E 105 93 46 43
        E 143 83 46 00
        E 244 83 46 00
        E 93 93 42 43
        E 381 83 42 00
        E 100 93 41 16
        E 95 93 3f 10
        E 20 83 41 00
        E 246 83 3f 00
        E 119 93 41 15
        E 239 93 41 1e
        E 143 83 41 00
        E 97 93 3e 13
        E 144 83 41 00
        E 229 83 3e 00
        E 107 93 3e 43
        E 386 83 3e 00
        E 94 93 3f 43
        E 385 83 3f 00
        E 95 93 48 43
        E 240 93 48 27
        E 152 83 48 00
        E 89 93 46 2b
        E 139 83 48 00
        E 248 83 46 00
        E 93 93 4a 1c
        E 391 83 4a 00
        E 88 93 4a 43
        E 381 83 4a 00
        E 99 93 48 2e
        E 240 93 48 2d
        E 139 83 48 00
        E 101 93 46 43
        E 145 83 48 00
        E 237 83 46 00
        E 98 93 49 43
        E 384 83 49 00
        E 97 93 4a 43
        E 385 83 4a 00
        E 94 93 48 43
        E 241 93 48 43
        E 142 83 48 00
        E 97 93 46 2d
        E 139 83 48 00
        E 244 83 46 00
        E 97 93 48 1b
        E 379 83 48 00
        E 101 93 4a 43
        E 382 83 4a 00
        E 99 93 45 24
        E 240 93 45 22
        E 142 83 45 00
        E 98 93 49 22
        E 150 83 45 00
        E 236 83 49 00
        E 93 93 4b 43
        E 386 83 4b 00
        E 94 93 44 43
        E 374 83 44 00
        E 106 93 48 21
        E 241 93 48 43
        E 143 83 48 00
        E 96 93 45 43
        E 145 83 48 00
        E 245 83 45 00
        E 90 93 4a 1e
        E 377 83 4a 00
        E 103 93 45 43
        E 384 83 45 00
        E 97 93 46 43
        E 240 93 45 43
        E 143 83 46 00
        E 97 93 45 19
        E 136 83 45 00
        E 249 83 45 00
        E 94 93 44 28
        E 379 83 44 00
        E 101 93 45 1c
        E 391 83 45 00
        E 89 93 46 43
        E 241 93 46 1f
        E 149 83 46 00
        E 91 93 37 1c
        E 144 83 46 00
        E 236 83 37 00
        E 99 93 39 1c
        E 375 83 39 00
        E 105 93 33 43
        E 388 83 33 00
        E 92 93 35 43
        E 242 93 35 1e
        E 142 83 35 00
        E 97 93 33 0c
        E 145 83 35 00
        E 240 83 33 00
        E 93 93 33 43
        E 382 83 33 00
        E 100 93 40 0a
        E 393 83 40 00
        E 87 93 40 25
        E 240 93 40 43
        E 144 83 40 00
        E 95 93 40 43
        E 149 83 40 00
        E 238 83 40 00
        E 93 93 3d 43
        E 383 83 3d 00
        E 97 93 3e 43
        E 388 83 3e 00
        E 92 93 30 43
        E 241 93 30 1e
        E 144 83 30 00
        E 96 93 2e 43
        E 148 83 30 00
        E 229 83 2e 00
        E 102 93 32 43
        E 381 83 32 00
        E 98 93 31 43
        E 97 93 3d 22
        E 17 83 31 00
        E 250 83 3d 00
        E 117 93 3c 18
        E 240 93 3d 16
        E 97 93 47 24
        E 19 83 3d 00
        E 33 83 3c 00
        E 91 93 46 43
        E 131 83 47 00
        E 248 83 46 00
        E 101 93 49 1f
        E 380 83 49 00
        E 101 93 44 43
        E 387 83 44 00
        E 92 93 43 43
        E 240 93 46 12
        E 141 83 43 00
        E 98 93 49 43
        E 146 83 46 00
        E 244 83 49 00
        E 92 93 45 15
        E 383 83 45 00
        E 97 93 49 43
        E 387 83 49 00
        E 92 93 45 43
        E 240 93 48 43
        E 149 83 45 00
        E 92 93 4b 43
        E 142 83 48 00
        E 248 83 4b 00
        E 89 93 45 1b
        E 381 83 45 00
        E 99 93 4a 43
        E 388 83 4a 00
        E 92 93 46 1e
        E 240 93 46 1f
        E 141 83 46 00
        E 99 93 43 1c
        E 142 83 46 00
        E 244 83 43 00
        E 94 93 38 43
        E 382 83 38 00
        E 99 93 39 2b
        E 384 83 39 00
        E 95 93 3a 43
        E 241 93 3a 31
        E 145 83 3a 00
        E 95 93 37 2d
        E 144 83 3a 00
        E 247 83 37 00
        E 88 93 38 43
        E 395 83 38 00
        E 85 93 33 43
        E 373 83 33 00
        E 108 93 35 43
        E 239 93 35 43
        E 143 83 35 00
        E 97 93 33 43
        E 147 83 35 00
        E 232 83 33 00
        E 102 93 33 43
        E 378 83 33 00
        E 101 93 32 43
        E 382 83 32 00
        E 98 93 30 43
        E 241 93 30 43
        E 146 83 30 00
        E 93 93 30 43
        E 96 93 33 22
        E 17 83 30 00
        E 29 83 30 00
        E 220 83 33 00
        E 119 93 32 43
        E 380 83 32 00
        E 101 93 31 43
        E 385 83 31 00
        E 93 93 30 43
        E 240 93 30 43
        E 149 83 30 00
        E 91 93 2e 43
        E 148 83 30 00
        E 239 83 2e 00
        E 93 93 32 43
        E 380 83 32 00
        E 100 93 32 43
        E 391 83 32 00
        E 89 93 3c 1b
        E 240 93 3d 24
        E 145 83 3c 00
        E 95 93 3a 43
        E 96 93 2d 43
        E 18 83 3a 00
        E 38 83 3d 00
        E 213 83 2d 00
        E 115 93 31 43
        E 382 83 31 00
        E 0 b3 7b 00
        E 1 ff 2f 00
      >
    >
  >
  <TRACK
    NAME "brass_pad"
    PEAKCOL 4290740026
    VOLPAN 1.000000 0 1 -1
    MIDIOUT -1
    ISBUS 0 0
    <ITEM
      POSITION 0.001712
      LENGTH 60.760025
      NAME "brass_pad"
      VOLPAN 1 0 1 -1
      <SOURCE MIDI
        HASDATA 1 960 QN
        E 0 c4 3d 00
        E 3 94 32 43
        E 2 94 2c 43
        E 2 94 37 43
        E 3831 94 32 43
        E 1 94 38 43
        E 7 94 33 43
        E 17 84 37 00
        E 72 84 32 00
        E 29 84 2c 00
        E 3694 84 38 00
        E 22 94 32 43
        E 1 94 39 0f
        E 9 94 32 43
        E 66 84 33 00
        E 99 84 32 00
        E 3670 94 30 43
        E 0 94 2f 43
        E 2 94 39 43
        E 19 84 32 00
        E 91 84 32 00
        E 47 84 39 00
        E 3683 94 31 43
        E 1 94 2c 43
        E 4 94 32 43
        E 72 84 39 00
        E 12 84 2f 00
        E 132 84 30 00
        E 3607 94 32 43
        E 0 94 32 43
        E 1 94 40 43
        E 20 84 31 00
        E 68 84 32 00
        E 126 84 2c 00
        E 3628 94 39 43
        E 2 94 2d 43
        E 5 94 32 43
        E 9 84 32 00
        E 41 84 32 00
        E 143 84 40 00
        E 3520 84 39 00
        E 112 94 30 43
        E 7 94 31 43
        E 12 94 31 43
        E 4 84 32 00
        E 180 84 2d 00
        E 3646 94 38 43
        E 2 84 31 00
        E 1 94 2c 43
        E 5 94 32 43
        E 118 84 31 00
        E 66 84 30 00
        E 3642 94 32 43
        E 9 94 3e 43
        E 3 84 38 00
        E 4 94 32 43
        E 112 84 2c 00
        E 130 84 32 00
        E 3578 94 32 43
        E 5 94 38 43
        E 14 94 32 43
        E 89 84 3e 00
        E 16 84 32 00
        E 123 84 32 00
        E 3559 84 32 00
        E 32 94 30 43
        E 11 94 31 43
        E 0 94 2f 43
        E 20 84 32 00
        E 20 84 38 00
        E 3798 94 38 43
        E 16 94 31 43
        E 3 94 32 43
        E 100 84 30 00
        E 49 84 31 00
        E 67 84 2f 00
        E 3536 84 32 00
        E 7 84 31 00
        E 71 94 32 43
        E 0 94 38 43
        E 5 94 32 43
        E 154 84 38 00
        E 3672 84 38 00
        E 1 94 32 43
        E 16 94 38 18
        E 0 94 32 43
        E 123 84 32 00
        E 31 84 32 00
        E 3583 84 32 00
        E 83 94 39 43
        E 6 94 32 43
        E 12 84 32 00
        E 1 94 31 43
        E 30 84 38 00
        E 3787 94 32 43
        E 7 94 31 43
        E 14 94 37 43
        E 132 84 31 00
        E 29 84 32 00
        E 2 84 39 00
        E 3658 84 37 00
        E 3 84 31 00
        E 4 94 32 43
        E 3 94 32 43
        E 8 94 38 43
        E 163 84 32 00
        E 3639 84 38 00
        E 28 94 38 43
        E 1 94 32 43
        E 6 94 32 43
        E 176 84 32 00
        E 64 84 32 00
        E 3585 94 39 43
        E 8 94 31 43
        E 2 94 31 43
        E 68 84 32 00
        E 152 84 38 00
        E 44 84 32 00
        E 3567 94 38 43
        E 7 94 32 43
        E 11 94 33 43
        E 75 84 31 00
        E 24 84 31 00
        E 40 84 39 00
        E 3633 84 38 00
        E 57 94 3e 43
        E 2 94 32 43
        E 1 94 32 43
        E 40 84 32 00
        E 41 84 33 00
        E 3737 94 32 43
        E 18 94 31 43
        E 3 94 39 43
        E 74 84 3e 00
        E 88 84 32 00
        E 5 84 32 00
        E 3670 94 39 43
        E 5 94 34 43
        E 0 94 30 43
        E 111 84 32 00
        E 73 84 31 00
        E 88 84 39 00
        E 3546 84 30 00
        E 55 84 39 00
        E 10 84 34 00
        E 0 b4 7b 00
        E 1 ff 2f 00
      >
    >
  >
>
