<REAPER_PROJECT 0.1 "7.0" 1700000000
  TEMPO 84.000000 4 4
  SAMPLERATE 48000 0 0
  RENDER_FILE ""
  RENDER_FMT 0 2 0
  RENDER_1X 0
  RENDER_RANGE 1 0 47.695307 0 0
  RENDER_RESAMPLE 3 0 1
  <MASTERTRACK
    VOLPAN 1 0 1 -1
    DEFCHAN 0
  >
  <TRACK
    NAME "marimba"
    PEAKCOL 4290756410
    VOLPAN 1.000000 0 1 -1
    MIDIOUT -1
    ISBUS 0 0
    <ITEM
      POSITION 0.003181
      LENGTH 22.741966
      NAME "marimba"
      VOLPAN 1 0 1 -1
      <SOURCE MIDI
        HASDATA 1 960 QN
        E 0 c0 0c 00
        E 4 90 3f 3b
        E 186 80 3f 00
        E 531 90 43 32
        E 191 80 43 00
        E 534 90 43 3b
        E 185 80 43 00
        E 519 90 3f 36
        E 188 80 3f 00
        E 544 90 3d 2f
        E 196 80 3d 00
        E 517 90 43 3e
        E 180 80 43 00
        E 547 90 43 3b
        E 187 80 43 00
        E 537 90 40 34
        E 196 80 40 00
        E 514 90 3f 3b
        E 196 80 3f 00
        E 524 90 44 38
        E 207 80 44 00
        E 525 90 43 3b
        E 188 80 43 00
        E 521 90 3e 3b
        E 200 80 3e 00
        E 529 90 3d 3b
        E 188 80 3d 00
        E 519 90 43 34
        E 200 80 43 00
        E 522 90 3f 3b
        E 186 80 3f 00
        E 543 90 3f 3b
        E 188 80 3f 00
        E 542 90 3e 3b
        E 188 80 3e 00
        E 526 90 44 3b
        E 184 80 44 00
        E 520 90 44 3b
        E 199 80 44 00
        E 533 90 3f 32
        E 192 80 3f 00
        E 532 90 3e 3b
        E 193 80 3e 00
        E 519 90 42 2d
        E 195 80 42 00
        E 525 90 43 3b
        E 201 80 43 00
        E 528 90 3f 32
        E 196 80 3f 00
        E 512 90 3f 3b
        E 200 80 3f 00
        E 529 90 44 34
        E 197 80 44 00
        E 513 90 43 3a
        E 194 80 43 00
        E 533 90 3d 3b
        E 197 80 3d 00
        E 526 90 3d 3b
        E 198 80 3d 00
        E 517 90 44 3b
        E 191 80 44 00
        E 530 90 43 3c
        E 190 80 43 00
        E 530 90 3c 3b
        E 190 80 3c 00
        E 537 90 3e 3b
        E 196 80 3e 00
        E 508 90 47 30
        E 188 80 47 00
        E 538 90 43 37
        E 194 80 43 00
        E 525 90 3e 3b
        E 178 80 3e 00
        E 550 90 3d 29
        E 194 80 3d 00
        E 511 90 43 3b
        E 200 80 43 00
        E 530 90 40 3b
        E 196 80 40 00
        E 528 90 40 3b
        E 186 80 40 00
        E 532 90 3e 3b
        E 192 80 3e 00
        E 513 90 44 33
        E 180 80 44 00
        E 559 90 40 3b
        E 188 80 40 00
        E 0 b0 7b 00
        E 1 ff 2f 00
      >
    >
  >
  <TRACK
    NAME "pizz_strings"
    PEAKCOL 4284186559
    VOLPAN 1.000000 0 1 -1
    MIDIOUT -1
    ISBUS 0 0
    <ITEM
      POSITION 0.009145
      LENGTH 22.386559
      NAME "pizz_strings"
      VOLPAN 1 0 1 -1
      <SOURCE MIDI
        HASDATA 1 960 QN
        E 0 c1 2a 00
        E 12 91 33 30
        E 195 81 33 00
        E 762 91 35 2a
        E 190 81 35 00
        E 776 91 38 3b
        E 188 81 38 00
        E 757 91 31 3b
        E 200 81 31 00
        E 756 91 33 3b
        E 204 81 33 00
        E 780 91 3c 3b
        E 191 81 3c 00
        E 759 91 33 3b
        E 194 81 33 00
        E 771 91 36 30
        E 195 81 36 00
        E 749 91 37 3b
        E 195 81 37 00
        E 778 91 31 26
        E 190 81 31 00
        E 756 91 34 3b
        E 199 81 34 00
        E 766 91 39 3b
        E 201 81 39 00
        E 759 91 32 3b
        E 187 81 32 00
        E 790 91 32 3b
        E 199 81 32 00
        E 731 91 36 3b
        E 197 81 36 00
        E 796 91 32 29
        E 183 81 32 00
        E 763 91 33 3b
        E 211 81 33 00
        E 756 91 39 27
        E 190 81 39 00
        E 764 91 33 25
        E 197 81 33 00
        E 764 91 36 25
        E 194 81 36 00
        E 747 91 38 3b
        E 183 81 38 00
        E 814 91 31 3b
        E 182 81 31 00
        E 757 91 33 3b
        E 188 81 33 00
        E 766 91 39 2b
        E 175 81 39 00
        E 795 91 32 27
        E 206 81 32 00
        E 735 91 37 33
        E 199 81 37 00
        E 764 91 37 3b
        E 185 81 37 00
        E 780 91 31 3b
        E 196 81 31 00
        E 775 91 35 3b
        E 194 81 35 00
        E 739 91 37 3b
        E 196 81 37 00
        E 784 91 32 3b
        E 199 81 32 00
        E 763 91 35 3b
        E 198 81 35 00
        E 0 b1 7b 00
        E 1 ff 2f 00
      >
    >
  >
  <TRACK
    NAME "modular_synth"
    PEAKCOL 4284506208
    VOLPAN 1.000000 0 1 -1
    MIDIOUT -1
    ISBUS 0 0
    <ITEM
      POSITION 0.000441
      LENGTH 45.794866
      NAME "modular_synth"
      VOLPAN 1 0 1 -1
      <SOURCE MIDI
        HASDATA 1 960 QN
        E 0 c2 50 00
        E 1 92 3f 42
        E 458 82 3f 00
        E 22 92 40 48
        E 460 82 40 00
        E 20 92 45 51
        E 473 82 45 00
        E 6 92 41 56
        E 462 82 41 00
        E 16 92 3f 48
        E 432 82 3f 00
        E 51 92 41 4d
        E 425 82 41 00
        E 53 92 45 51
        E 449 82 45 00
        E 32 92 41 53
        E 457 82 41 00
        E 26 92 41 51
        E 466 82 41 00
        E 10 92 46 5a
        E 435 82 46 00
        E 46 92 41 4d
        E 440 82 41 00
        E 40 92 3f 53
        E 476 82 3f 00
        E 4 92 41 3e
        E 471 82 41 00
        E 8 92 45 3f
        E 448 82 45 00
        E 32 92 40 3b
        E 473 82 40 00
        E 9 92 3f 44
        E 450 82 3f 00
        E 31 92 3c 5c
        E 465 82 3c 00
        E 12 92 40 45
        E 457 82 40 00
        E 25 92 45 4b
        E 454 82 45 00
        E 22 92 41 49
        E 462 82 41 00
        E 22 92 3c 5e
        E 448 82 3c 00
        E 31 92 40 4b
        E 445 82 40 00
        E 36 92 44 51
        E 479 92 41 51
        E 1 82 44 00
        E 473 82 41 00
        E 4 92 3f 3b
        E 470 82 3f 00
        E 12 92 43 5d
        E 455 82 43 00
        E 25 92 40 5e
        E 437 82 40 00
        E 43 92 3c 5e
        E 465 82 3c 00
        E 15 92 3f 43
        E 466 82 3f 00
        E 13 92 43 49
        E 465 82 43 00
        E 15 92 40 45
        E 424 82 40 00
        E 57 92 3c 53
        E 425 82 3c 00
        E 56 92 3f 3b
        E 464 82 3f 00
        E 16 92 40 48
        E 430 82 40 00
        E 50 92 44 2f
        E 460 82 44 00
        E 19 92 41 43
        E 463 82 41 00
        E 15 92 3f 3b
        E 478 82 3f 00
        E 4 92 40 47
        E 477 82 40 00
        E 3 92 44 3c
        E 454 82 44 00
        E 27 92 41 4b
        E 440 82 41 00
        E 39 92 41 69
        E 449 82 41 00
        E 30 92 46 53
        E 464 82 46 00
        E 16 92 41 55
        E 463 82 41 00
        E 19 92 3f 56
        E 466 82 3f 00
        E 13 92 41 61
        E 445 82 41 00
        E 34 92 45 43
        E 425 82 45 00
        E 54 92 40 3b
        E 460 82 40 00
        E 22 92 3f 4d
        E 448 82 3f 00
        E 32 92 3c 3b
        E 449 82 3c 00
        E 33 92 41 4c
        E 429 82 41 00
        E 50 92 45 4c
        E 477 82 45 00
        E 1 92 41 50
        E 458 82 41 00
        E 21 92 3c 3c
        E 453 82 3c 00
        E 29 92 41 44
        E 441 82 41 00
        E 37 92 45 4c
        E 465 82 45 00
        E 16 92 41 60
        E 448 82 41 00
        E 33 92 3f 49
        E 442 82 3f 00
        E 38 92 44 49
        E 462 82 44 00
        E 19 92 3f 53
        E 443 82 3f 00
        E 37 92 3c 5a
        E 442 82 3c 00
        E 36 92 3f 3b
        E 480 92 44 53
        E 9 82 3f 00
        E 463 82 44 00
        E 8 92 3f 3e
        E 455 82 3f 00
        E 28 92 3c 53
        E 474 82 3c 00
        E 4 92 3f 3b
        E 433 82 3f 00
        E 48 92 40 2b
        E 470 82 40 00
        E 10 92 44 48
        E 465 82 44 00
        E 14 92 41 34
        E 454 82 41 00
        E 26 92 3f 43
        E 427 82 3f 00
        E 54 92 40 43
        E 465 82 40 00
        E 12 92 45 4f
        E 454 82 45 00
        E 28 92 41 54
        E 431 82 41 00
        E 48 92 41 3b
        E 442 82 41 00
        E 39 92 45 53
        E 448 82 45 00
        E 31 92 40 4b
        E 454 82 40 00
        E 30 92 3f 61
        E 460 82 3f 00
        E 19 92 41 55
        E 479 92 46 51
        E 1 82 41 00
        E 431 82 46 00
        E 47 92 3f 48
        E 457 82 3f 00
        E 23 92 3f 40
        E 480 82 3f 00
        E 0 92 3c 51
        E 470 82 3c 00
        E 8 92 40 2d
        E 468 82 40 00
        E 12 92 44 2a
        E 444 82 44 00
        E 37 92 41 49
        E 453 82 41 00
        E 29 92 3c 45
        E 435 82 3c 00
        E 44 92 40 4c
        E 434 82 40 00
        E 46 92 44 49
        E 448 82 44 00
        E 32 92 41 43
        E 474 82 41 00
        E 5 92 3f 4d
        E 437 82 3f 00
        E 44 92 43 5e
        E 447 82 43 00
        E 32 92 3f 55
        E 471 82 3f 00
        E 11 92 3c 59
        E 471 82 3c 00
        E 8 92 3f 55
        E 448 82 3f 00
        E 35 92 43 51
        E 471 82 43 00
        E 6 92 40 4d
        E 447 82 40 00
        E 31 92 3c 54
        E 446 82 3c 00
        E 36 92 3f 4b
        E 431 82 3f 00
        E 49 92 40 3a
        E 479 92 44 37
        E 9 82 40 00
        E 452 82 44 00
        E 20 92 41 54
        E 451 82 41 00
        E 29 92 3f 54
        E 471 82 3f 00
        E 10 92 40 48
        E 431 82 40 00
        E 48 92 44 48
        E 456 82 44 00
        E 24 92 41 59
        E 465 82 41 00
        E 14 92 41 47
        E 460 82 41 00
        E 21 92 45 4b
        E 481 92 40 51
        E 8 82 45 00
        E 454 82 40 00
        E 17 92 3f 55
        E 459 82 3f 00
        E 20 92 41 3b
        E 474 82 41 00
        E 6 92 46 5c
        E 447 82 46 00
        E 33 92 41 4c
        E 416 82 41 00
        E 65 92 3f 47
        E 478 82 3f 00
        E 2 92 3c 42
        E 438 82 3c 00
        E 42 92 40 30
        E 453 82 40 00
        E 27 92 44 26
        E 462 82 44 00
        E 19 92 41 5d
        E 462 82 41 00
        E 17 92 3c 44
        E 444 82 3c 00
        E 36 92 41 50
        E 435 82 41 00
        E 46 92 46 44
        E 475 82 46 00
        E 4 92 41 54
        E 459 82 41 00
        E 22 92 3f 33
        E 454 82 3f 00
        E 24 92 43 59
        E 467 82 43 00
        E 14 92 40 61
        E 463 82 40 00
        E 16 92 3d 61
        E 430 82 3d 00
        E 53 92 3e 42
        E 456 82 3e 00
        E 21 92 45 3b
        E 458 82 45 00
        E 25 92 3d 3b
        E 431 82 3d 00
        E 46 92 3e 3b
        E 455 82 3e 00
        E 0 b2 7b 00
        E 1 ff 2f 00
      >
    >
  >
  <TRACK
    NAME "drums"
    PEAKCOL 4290722362
    VOLPAN 1.000000 0 1 -1
    MIDIOUT -1
    ISBUS 0 0
    <ITEM
      POSITION 0.000000
      LENGTH 45.694129
      NAME "drums"
      VOLPAN 1 0 1 -1
      <SOURCE MIDI
        HASDATA 1 960 QN
        E 0 c9 00 00
        E 0 99 24 75
        E 340 89 24 00
        E 620 99 29 3f
        E 97 89 29 00
        E 863 99 24 7d
        E 337 89 24 00
        E 622 99 2a 3b
        E 97 89 2a 00
        E 865 99 24 7d
        E 336 89 24 00
        E 622 99 27 47
        E 95 89 27 00
        E 862 99 24 7d
        E 335 89 24 00
        E 629 99 2a 3b
        E 98 89 2a 00
        E 860 99 24 69
        E 336 89 24 00
        E 626 99 29 3b
        E 95 89 29 00
        E 865 99 24 64
        E 336 89 24 00
        E 624 99 2a 53
        E 95 89 2a 00
        E 866 99 24 77
        E 333 89 24 00
        E 625 99 2a 3b
        E 98 89 2a 00
        E 861 99 24 7c
        E 334 89 24 00
        E 631 99 2a 3b
        E 96 89 2a 00
        E 860 99 24 7d
        E 334 89 24 00
        E 629 99 2a 4d
        E 95 89 2a 00
        E 865 99 24 7d
        E 337 89 24 00
        E 622 99 2a 3b
        E 97 89 2a 00
        E 862 99 24 7d
        E 337 89 24 00
        E 620 99 27 3b
        E 96 89 27 00
        E 865 99 24 79
        E 336 89 24 00
        E 627 99 2a 4d
        E 97 89 2a 00
        E 864 99 24 7d
        E 330 89 24 00
        E 628 99 2a 49
        E 96 89 2a 00
        E 865 99 24 72
        E 334 89 24 00
        E 625 99 2a 3b
        E 95 89 2a 00
        E 866 99 24 7d
        E 344 89 24 00
        E 615 99 2a 53
        E 95 89 2a 00
        E 865 99 24 7c
        E 334 89 24 00
        E 626 99 2a 43
        E 96 89 2a 00
        E 866 99 24 7c
        E 337 89 24 00
        E 621 99 2a 54
        E 96 89 2a 00
        E 866 99 24 7d
        E 339 89 24 00
        E 618 99 29 47
        E 97 89 29 00
        E 867 99 24 7b
        E 340 89 24 00
        E 614 99 2a 56
        E 96 89 2a 00
        E 865 99 24 7d
        E 340 89 24 00
        E 617 99 29 48
        E 97 89 29 00
        E 865 99 24 78
        E 337 89 24 00
        E 626 99 2a 4c
        E 96 89 2a 00
        E 863 99 24 73
        E 336 89 24 00
        E 627 99 2a 54
        E 97 89 2a 00
        E 859 99 24 7d
        E 330 89 24 00
        E 631 99 29 5c
        E 95 89 29 00
        E 863 99 24 7d
        E 339 89 24 00
        E 625 99 2a 3f
        E 97 89 2a 00
        E 860 99 24 7d
        E 338 89 24 00
        E 622 99 2a 53
        E 95 89 2a 00
        E 867 99 24 77
        E 337 89 24 00
        E 623 99 2a 54
        E 95 89 2a 00
        E 864 99 24 7d
        E 337 89 24 00
        E 625 99 2a 5a
        E 96 89 2a 00
        E 862 99 24 7d
        E 334 89 24 00
        E 630 99 27 4b
        E 98 89 27 00
        E 860 99 24 7d
        E 333 89 24 00
        E 626 99 2a 47
        E 97 89 2a 00
        E 864 99 24 7d
        E 341 89 24 00
        E 620 99 2b 4f
        E 95 89 2b 00
        E 862 99 24 7d
        E 336 89 24 00
        E 625 99 2a 45
        E 96 89 2a 00
        E 865 99 24 7d
        E 0 99 24 7d
        E 1 99 2a 75
        E 77 89 2a 00
        E 113 89 24 00
        E 145 89 24 00
        E 144 99 24 78
        E 191 89 24 00
        E 50 99 24 7d
        E 190 89 24 00
        E 47 99 2a 5c
        E 3 99 2a 54
        E 74 89 2a 00
        E 22 89 2a 00
        E 142 99 2a 56
        E 77 89 2a 00
        E 163 99 2a 65
        E 77 89 2a 00
        E 164 99 2a 44
        E 78 89 2a 00
        E 0 b9 7b 00
        E 1 ff 2f 00
      >
    >
  >
>
