<REAPER_PROJECT 0.1 "7.0" 1700000000
  TEMPO 110.000000 4 4
  SAMPLERATE 48000 0 0
  RENDER_FILE ""
  RENDER_FMT 0 2 0
  RENDER_1X 0
  RENDER_RANGE 1 0 54.280594 0 0
  RENDER_RESAMPLE 3 0 1
  <MASTERTRACK
    VOLPAN 1 0 1 -1
    DEFCHAN 0
  >
  <TRACK
    NAME "synth_arp"
    PEAKCOL 4284506208
    VOLPAN 1.000000 0 1 -1
    MIDIOUT -1
    ISBUS 0 0
    <ITEM
      POSITION 0.000359
      LENGTH 51.379278
      NAME "synth_arp"
      VOLPAN 1 0 1 -1
      <SOURCE MIDI
        HASDATA 1 960 QN
        E 0 c0 50 00
        E 1 90 4a 3b
        E 485 90 4c 3f
        E 14 80 4a 00
        E 457 90 4a 3d
        E 4 80 4c 00
        E 468 80 4a 00
        E 7 90 49 3d
        E 449 80 49 00
        E 1951 90 4a 3d
        E 474 80 4a 00
        E 3 90 4c 3d
        E 486 90 4a 3d
        E 8 80 4c 00
        E 474 90 49 34
        E 4 80 4a 00
        E 494 80 49 00
        E 1904 90 4a 3d
        E 468 80 4a 00
        E 16 90 4c 2e
        E 465 90 4a 3d
        E 11 80 4c 00
        E 465 80 4a 00
        E 7 90 49 3d
        E 486 80 49 00
        E 1918 90 4a 3d
        E 487 90 4c 3e
        E 14 80 4a 00
        E 453 90 4a 3d
        E 9 80 4c 00
        E 462 80 4a 00
        E 13 90 49 3d
        E 467 80 49 00
        E 1934 90 4a 3d
        E 484 80 4a 00
        E 1 90 4c 3d
        E 477 80 4c 00
        E 1 90 4a 49
        E 466 80 4a 00
        E 15 90 46 26
        E 489 80 46 00
        E 1904 90 4a 3d
        E 471 90 4c 3d
        E 7 80 4a 00
        E 458 80 4c 00
        E 36 90 4a 36
        E 475 90 49 27
        E 4 80 4a 00
        E 493 80 49 00
        E 1901 90 4a 38
        E 481 80 4a 00
        E 3 90 4c 34
        E 462 80 4c 00
        E 19 90 4a 41
        E 470 90 49 3d
        E 34 80 4a 00
        E 437 80 49 00
        E 1929 90 4a 3d
        E 486 90 4c 32
        E 1 80 4a 00
        E 469 80 4c 00
        E 11 90 4a 43
        E 468 80 4a 00
        E 9 90 49 3d
        E 468 80 49 00
        E 1931 90 4a 3d
        E 476 80 4a 00
        E 9 90 4c 2f
        E 475 80 4c 00
        E 9 90 4a 3e
        E 483 90 49 2a
        E 7 80 4a 00
        E 487 80 49 00
        E 1893 90 4a 3d
        E 471 80 4a 00
        E 13 90 4c 37
        E 461 80 4c 00
        E 10 90 4a 3d
        E 460 80 4a 00
        E 33 90 49 32
        E 478 80 49 00
        E 1922 90 4a 2e
        E 467 90 4c 4a
        E 24 80 4a 00
        E 460 80 4c 00
        E 10 90 4a 2f
        E 451 80 4a 00
        E 20 90 49 3d
        E 504 80 49 00
        E 1896 90 4a 3d
        E 474 80 4a 00
        E 13 90 4c 36
        E 473 90 4a 3d
        E 20 80 4c 00
        E 458 90 49 3d
        E 16 80 4a 00
        E 456 80 49 00
        E 1928 90 4a 3d
        E 472 80 4a 00
        E 10 90 4c 3d
        E 482 90 4a 3d
        E 12 80 4c 00
        E 462 80 4a 00
        E 9 90 49 32
        E 493 80 49 00
        E 1897 90 4a 3d
        E 473 80 4a 00
        E 16 90 4c 32
        E 490 90 4a 34
        E 2 80 4c 00
        E 466 90 49 3d
        E 21 80 4a 00
        E 443 80 49 00
        E 1942 90 4a 3d
        E 469 80 4a 00
        E 8 90 4c 3e
        E 462 80 4c 00
        E 16 90 4a 3a
        E 479 90 49 3d
        E 1 80 4a 00
        E 471 80 49 00
        E 1930 90 4a 3d
        E 486 90 4c 3d
        E 16 80 4a 00
        E 460 90 4a 45
        E 6 80 4c 00
        E 470 90 49 3d
        E 8 80 4a 00
        E 463 80 49 00
        E 1930 90 4a 3d
        E 475 80 4a 00
        E 9 90 4c 30
        E 480 90 4a 3b
        E 12 80 4c 00
        E 466 90 49 46
        E 14 80 4a 00
        E 455 80 49 00
        E 1920 90 4a 3d
        E 483 80 4a 00
        E 11 90 4c 34
        E 465 80 4c 00
        E 11 90 4a 3d
        E 477 90 49 3d
        E 5 80 4a 00
        E 453 80 49 00
        E 1953 90 4a 3d
        E 463 80 4a 00
        E 0 90 4c 3d
        E 462 80 4c 00
        E 18 90 4a 3d
        E 485 80 4a 00
        E 1 90 49 3d
        E 499 80 49 00
        E 1907 90 4a 30
        E 469 80 4a 00
        E 9 90 4c 32
        E 480 90 4a 37
        E 10 80 4c 00
        E 471 90 49 2c
        E 5 80 4a 00
        E 452 80 49 00
        E 1935 90 4a 3d
        E 466 80 4a 00
        E 14 90 4c 38
        E 477 80 4c 00
        E 7 90 4a 3d
        E 480 90 49 3d
        E 1 80 4a 00
        E 472 80 49 00
        E 1922 90 4a 3d
        E 473 80 4a 00
        E 9 90 4c 3e
        E 487 90 4a 3a
        E 2 80 4c 00
        E 473 90 49 3d
        E 4 80 4a 00
        E 494 80 49 00
        E 1902 90 4a 3d
        E 468 80 4a 00
        E 14 90 4c 38
        E 460 80 4c 00
        E 11 90 4a 3d
        E 460 80 4a 00
        E 27 90 49 3d
        E 478 80 49 00
        E 1923 90 4a 3d
        E 466 80 4a 00
        E 21 90 4c 3d
        E 474 90 4a 37
        E 4 80 4c 00
        E 472 90 4a 3d
        E 22 80 4a 00
        E 474 80 4a 00
        E 0 b0 7b 00
        E 1 ff 2f 00
      >
    >
  >
  <TRACK
    NAME "drums"
    PEAKCOL 4290722362
    VOLPAN 1.000000 0 1 -1
    MIDIOUT -1
    ISBUS 0 0
    <ITEM
      POSITION 0.000000
      LENGTH 52.370877
      NAME "drums"
      VOLPAN 1 0 1 -1
      <SOURCE MIDI
        HASDATA 1 960 QN
        E 0 c9 00 00
        E 0 99 24 66
        E 291 89 24 00
        E 189 99 2a 6c
        E 116 89 2a 00
        E 364 99 24 7d
        E 289 89 24 00
        E 191 99 2a 5b
        E 116 89 2a 00
        E 364 99 24 7d
        E 288 89 24 00
        E 192 99 2a 52
        E 114 89 2a 00
        E 365 99 24 7d
        E 287 89 24 00
        E 194 99 2a 5d
        E 117 89 2a 00
        E 363 99 24 7b
        E 288 89 24 00
        E 192 99 2a 71
        E 114 89 2a 00
        E 366 99 24 79
        E 288 89 24 00
        E 192 99 2a 61
        E 113 89 2a 00
        E 367 99 24 6e
        E 285 89 24 00
        E 195 99 2a 53
        E 118 89 2a 00
        E 362 99 24 79
        E 286 89 24 00
        E 195 99 2a 42
        E 115 89 2a 00
        E 364 99 24 62
        E 287 89 24 00
        E 193 99 2a 68
        E 115 89 2a 00
        E 365 99 24 7c
        E 289 89 24 00
        E 191 99 2a 65
        E 116 89 2a 00
        E 364 99 24 79
        E 289 89 24 00
        E 190 99 2a 6c
        E 115 89 2a 00
        E 366 99 24 75
        E 288 89 24 00
        E 192 99 2a 68
        E 117 89 2a 00
        E 363 99 24 7d
        E 283 89 24 00
        E 197 99 2a 75
        E 115 89 2a 00
        E 365 99 24 6e
        E 286 89 24 00
        E 194 99 2a 52
        E 114 89 2a 00
        E 366 99 24 7d
        E 295 89 24 00
        E 185 99 2a 75
        E 114 89 2a 00
        E 366 99 24 6a
        E 286 89 24 00
        E 194 99 2a 6a
        E 115 89 2a 00
        E 365 99 24 74
        E 289 89 24 00
        E 191 99 2a 51
        E 115 89 2a 00
        E 365 99 24 78
        E 291 89 24 00
        E 189 99 2a 55
        E 116 89 2a 00
        E 365 99 24 75
        E 291 89 24 00
        E 187 99 2a 75
        E 115 89 2a 00
        E 366 99 24 7d
        E 292 89 24 00
        E 187 99 2a 75
        E 116 89 2a 00
        E 364 99 24 7d
        E 289 89 24 00
        E 192 99 2a 75
        E 116 89 2a 00
        E 364 99 24 7d
        E 288 89 24 00
        E 192 99 2a 56
        E 117 89 2a 00
        E 363 99 24 7d
        E 283 89 24 00
        E 197 99 2a 7c
        E 114 89 2a 00
        E 365 99 24 7d
        E 290 89 24 00
        E 191 99 2a 66
        E 116 89 2a 00
        E 364 99 24 77
        E 290 89 24 00
        E 190 99 2a 57
        E 114 89 2a 00
        E 366 99 24 4e
        E 289 89 24 00
        E 191 99 2a 6e
        E 114 89 2a 00
        E 366 99 24 7d
        E 288 89 24 00
        E 192 99 2a 7a
        E 116 89 2a 00
        E 364 99 24 7d
        E 287 89 24 00
        E 194 99 2a 61
        E 118 89 2a 00
        E 361 99 24 7d
        E 286 89 24 00
        E 194 99 2a 64
        E 116 89 2a 00
        E 364 99 24 7d
        E 292 89 24 00
        E 188 99 2a 77
        E 114 89 2a 00
        E 366 99 24 7d
        E 288 89 24 00
        E 192 99 2a 68
        E 115 89 2a 00
        E 365 99 24 7d
        E 288 89 24 00
        E 192 99 2a 72
        E 115 89 2a 00
        E 365 99 24 7d
        E 289 89 24 00
        E 191 99 2a 52
        E 115 89 2a 00
        E 365 99 24 72
        E 286 89 24 00
        E 194 99 2a 51
        E 115 89 2a 00
        E 365 99 24 7d
        E 287 89 24 00
        E 193 99 2a 71
        E 116 89 2a 00
        E 364 99 24 7d
        E 287 89 24 00
        E 193 99 2a 72
        E 117 89 2a 00
        E 363 99 24 7d
        E 292 89 24 00
        E 187 99 2a 6a
        E 114 89 2a 00
        E 366 99 24 7c
        E 290 89 24 00
        E 191 99 2a 59
        E 114 89 2a 00
        E 367 99 24 7d
        E 287 89 24 00
        E 192 99 2a 72
        E 116 89 2a 00
        E 364 99 24 7d
        E 285 89 24 00
        E 195 99 2a 6e
        E 115 89 2a 00
        E 365 99 24 7d
        E 290 89 24 00
        E 190 99 2a 4b
        E 115 89 2a 00
        E 364 99 24 6c
        E 287 89 24 00
        E 194 99 2a 3b
        E 114 89 2a 00
        E 367 99 24 6e
        E 289 89 24 00
        E 190 99 2a 55
        E 115 89 2a 00
        E 366 99 24 7c
        E 295 89 24 00
        E 184 99 2a 64
        E 117 89 2a 00
        E 363 99 24 7c
        E 288 89 24 00
        E 193 99 2a 65
        E 115 89 2a 00
        E 364 99 24 75
        E 291 89 24 00
        E 189 99 2a 72
        E 116 89 2a 00
        E 364 99 24 74
        E 289 89 24 00
        E 191 99 2a 7b
        E 115 89 2a 00
        E 365 99 24 7d
        E 288 89 24 00
        E 192 99 2a 71
        E 115 89 2a 00
        E 365 99 24 7d
        E 289 89 24 00
        E 191 99 2a 59
        E 115 89 2a 00
        E 365 99 24 77
        E 283 89 24 00
        E 196 99 2a 41
        E 114 89 2a 00
        E 366 99 24 5d
        E 287 89 24 00
        E 194 99 2a 64
        E 115 89 2a 00
        E 365 99 24 7c
        E 288 89 24 00
        E 192 99 2a 68
        E 116 89 2a 00
        E 364 99 24 7d
        E 287 89 24 00
        E 193 99 2a 6c
        E 116 89 2a 00
        E 364 99 24 7d
        E 290 89 24 00
        E 190 99 2a 66
        E 116 89 2a 00
        E 364 99 24 7d
        E 290 89 24 00
        E 189 99 2a 71
        E 115 89 2a 00
        E 366 99 24 7b
        E 290 89 24 00
        E 190 99 2a 6d
        E 117 89 2a 00
        E 363 99 24 7d
        E 291 89 24 00
        E 189 99 2a 5d
        E 115 89 2a 00
        E 365 99 24 79
        E 283 89 24 00
        E 197 99 2a 56
        E 115 89 2a 00
        E 365 99 24 7a
        E 288 89 24 00
        E 192 99 2a 5e
        E 115 89 2a 00
        E 365 99 24 7d
        E 290 89 24 00
        E 190 99 2a 6d
        E 115 89 2a 00
        E 365 99 24 7d
        E 290 89 24 00
        E 190 99 2a 57
        E 115 89 2a 00
        E 366 99 24 7c
        E 288 89 24 00
        E 191 99 2a 75
        E 115 89 2a 00
        E 365 99 24 7d
        E 286 89 24 00
        E 194 99 2a 7d
        E 115 89 2a 00
        E 365 99 24 7d
        E 283 89 24 00
        E 197 99 2a 77
        E 114 89 2a 00
        E 366 99 24 7d
        E 289 89 24 00
        E 191 99 2a 6e
        E 115 89 2a 00
        E 366 99 24 79
        E 291 89 24 00
        E 188 99 2a 52
        E 115 89 2a 00
        E 365 99 24 74
        E 286 89 24 00
        E 194 99 2b 3d
        E 116 89 2b 00
        E 364 99 24 78
        E 291 89 24 00
        E 190 99 2a 59
        E 115 89 2a 00
        E 364 99 24 7d
        E 290 89 24 00
        E 191 99 2a 64
        E 116 89 2a 00
        E 363 99 24 7d
        E 293 89 24 00
        E 187 99 2a 66
        E 114 89 2a 00
        E 367 99 24 7d
        E 285 89 24 00
        E 194 99 2a 7c
        E 116 89 2a 00
        E 364 99 24 7d
        E 284 89 24 00
        E 196 99 2a 7a
        E 117 89 2a 00
        E 363 99 24 7d
        E 288 89 24 00
        E 192 99 2a 74
        E 116 89 2a 00
        E 364 99 24 7b
        E 287 89 24 00
        E 193 99 2a 4f
        E 115 89 2a 00
        E 365 99 24 6c
        E 286 89 24 00
        E 194 99 2a 45
        E 116 89 2a 00
        E 364 99 24 7d
        E 288 89 24 00
        E 192 99 2a 72
        E 116 89 2a 00
        E 364 99 24 7d
        E 285 89 24 00
        E 195 99 2a 78
        E 116 89 2a 00
        E 364 99 24 7c
        E 289 89 24 00
        E 191 99 2a 56
        E 116 89 2a 00
        E 364 99 24 7d
        E 291 89 24 00
        E 190 99 2a 61
        E 115 89 2a 00
        E 363 99 24 7d
        E 286 89 24 00
        E 194 99 2a 7d
        E 115 89 2a 00
        E 366 99 24 7d
        E 287 89 24 00
        E 192 99 2a 5e
        E 116 89 2a 00
        E 365 99 24 64
        E 289 89 24 00
        E 191 99 2a 5b
        E 116 89 2a 00
        E 364 99 24 6c
        E 287 89 24 00
        E 193 99 2a 5e
        E 115 89 2a 00
        E 365 99 24 7d
        E 286 89 24 00
        E 193 99 2a 6c
        E 115 89 2a 00
        E 365 99 24 72
        E 286 89 24 00
        E 195 99 2a 62
        E 115 89 2a 00
        E 365 99 24 7d
        E 288 89 24 00
        E 192 99 2a 51
        E 114 89 2a 00
        E 366 99 24 7d
        E 290 89 24 00
        E 190 99 2a 79
        E 116 89 2a 00
        E 364 99 24 7d
        E 285 89 24 00
        E 196 99 2a 7d
        E 115 89 2a 00
        E 364 99 24 7d
        E 287 89 24 00
        E 193 99 2a 77
        E 113 89 2a 00
        E 367 99 24 78
        E 285 89 24 00
        E 194 99 2a 59
        E 115 89 2a 00
        E 366 99 24 6d
        E 282 89 24 00
        E 197 99 2a 71
        E 115 89 2a 00
        E 365 99 24 61
        E 290 89 24 00
        E 191 99 2a 66
        E 116 89 2a 00
        E 364 99 24 75
        E 287 89 24 00
        E 193 99 2a 77
        E 115 89 2a 00
        E 365 99 24 7d
        E 293 89 24 00
        E 187 99 2a 7d
        E 115 89 2a 00
        E 364 99 24 7d
        E 1 99 2a 72
        E 1 99 24 7d
        E 75 89 2a 00
        E 115 89 24 00
        E 95 89 24 00
        E 193 99 2a 77
        E 1 99 24 7d
        E 117 89 2a 00
        E 74 89 24 00
        E 49 99 24 7d
        E 194 89 24 00
        E 46 99 2a 74
        E 0 99 24 6e
        E 76 89 2a 00
        E 164 99 2a 74
        E 46 89 24 00
        E 32 89 2a 00
        E 162 99 2a 68
        E 0 99 2a 51
        E 77 89 2a 00
        E 38 89 2a 00
        E 125 99 2a 53
        E 77 89 2a 00
        E 0 b9 7b 00
        E 1 ff 2f 00
      >
    >
  >
  <TRACK
    NAME "reese_bass"
    PEAKCOL 4286528191
    VOLPAN 1.000000 0 1 -1
    MIDIOUT -1
    ISBUS 0 0
    <ITEM
      POSITION 0.000000
      LENGTH 52.380594
      NAME "reese_bass"
      VOLPAN 1 0 1 -1
      <SOURCE MIDI
        HASDATA 1 960 QN
        E 0 c1 26 00
        E 0 91 3d 3d
        E 919 91 3e 3d
        E 178 81 3d 00
        E 2372 81 3e 00
        E 375 91 38 22
        E 3651 81 38 00
        E 194 91 31 22
        E 3623 81 31 00
        E 197 91 32 3d
        E 3692 81 32 00
        E 165 91 31 1a
        E 900 91 31 26
        E 169 81 31 00
        E 2322 81 31 00
        E 442 91 32 3d
        E 3609 81 32 00
        E 233 91 31 26
        E 3717 81 31 00
        E 125 91 32 3d
        E 3628 81 32 00
        E 210 91 32 20
        E 3688 81 32 00
        E 160 91 32 28
        E 3662 81 32 00
        E 171 91 31 27
        E 915 91 32 3d
        E 158 81 31 00
        E 2449 81 32 00
        E 327 91 32 2b
        E 3676 81 32 00
        E 155 91 32 2b
        E 3654 81 32 00
        E 190 91 32 3d
        E 3701 81 32 00
        E 132 91 31 3d
        E 3662 81 31 00
        E 187 91 32 3d
        E 3578 81 32 00
        E 260 91 32 27
        E 3707 81 32 00
        E 124 91 32 3d
        E 3665 81 32 00
        E 174 91 31 3d
        E 916 91 32 26
        E 168 81 31 00
        E 2390 81 32 00
        E 371 91 32 3d
        E 3593 81 32 00
        E 256 91 32 1e
        E 3638 81 32 00
        E 201 91 32 3d
        E 899 91 31 28
        E 195 81 32 00
        E 2358 81 31 00
        E 385 91 31 3d
        E 3722 81 31 00
        E 113 91 31 1e
        E 3693 81 31 00
        E 0 b1 7b 00
        E 1 ff 2f 00
      >
    >
  >
  <TRACK
    NAME "sharp_strings"
    PEAKCOL 4284186559
    VOLPAN 1.000000 0 1 -1
    MIDIOUT -1
    ISBUS 0 0
    <ITEM
      POSITION 0.000000
      LENGTH 51.646595
      NAME "sharp_strings"
      VOLPAN 1 0 1 -1
      <SOURCE MIDI
        HASDATA 1 960 QN
        E 0 c2 28 00
        E 0 92 4a 3d
        E 451 82 4a 00
        E 1466 92 4c 3d
        E 464 82 4c 00
        E 1463 92 4a 45
        E 468 82 4a 00
        E 1441 92 4c 3d
        E 465 82 4c 00
        E 1475 92 4a 46
        E 466 82 4a 00
        E 1436 92 4c 3d
        E 463 82 4c 00
        E 1484 92 4a 41
        E 496 82 4a 00
        E 1401 92 4c 3d
        E 460 82 4c 00
        E 1463 92 4a 45
        E 452 82 4a 00
        E 1480 92 4c 2c
        E 498 82 4c 00
        E 1410 92 4a 3d
        E 491 82 4a 00
        E 1439 92 4c 3a
        E 468 82 4c 00
        E 1435 92 4a 3d
        E 461 82 4a 00
        E 1466 92 4c 4a
        E 471 82 4c 00
        E 1459 92 4a 33
        E 458 82 4a 00
        E 1443 92 4c 3d
        E 454 82 4c 00
        E 1471 92 4a 3d
        E 470 82 4a 00
        E 1455 92 4c 3d
        E 488 82 4c 00
        E 1429 92 4a 3d
        E 493 82 4a 00
        E 1439 92 4c 3e
        E 476 82 4c 00
        E 1428 92 4a 3d
        E 448 82 4a 00
        E 1468 92 4c 3d
        E 489 82 4c 00
        E 1448 92 4a 3d
        E 453 82 4a 00
        E 1463 92 4c 36
        E 485 82 4c 00
        E 1432 92 4a 3f
        E 457 82 4a 00
        E 1462 92 4c 3a
        E 470 82 4c 00
        E 1457 92 4a 3a
        E 501 82 4a 00
        E 1393 92 4c 3d
        E 489 82 4c 00
        E 1461 92 4a 42
        E 499 82 4a 00
        E 1424 92 4c 33
        E 485 82 4c 00
        E 1429 92 4a 3f
        E 490 82 4a 00
        E 1414 92 4c 3d
        E 471 82 4c 00
        E 1448 92 4a 3d
        E 504 82 4a 00
        E 1430 92 4d 3e
        E 484 82 4d 00
        E 1450 92 4a 3b
        E 480 82 4a 00
        E 1416 92 4c 3d
        E 465 82 4c 00
        E 1481 92 4a 3a
        E 457 82 4a 00
        E 1448 92 4c 37
        E 496 82 4c 00
        E 1416 92 4a 3d
        E 501 82 4a 00
        E 1424 92 4c 46
        E 481 82 4c 00
        E 1436 92 4a 3d
        E 478 82 4a 00
        E 1451 92 4c 32
        E 516 82 4c 00
        E 1416 92 4a 3d
        E 431 82 4a 00
        E 1456 92 4c 3d
        E 470 82 4c 00
        E 1477 92 4a 4f
        E 467 82 4a 00
        E 1448 92 4c 33
        E 504 82 4c 00
        E 1414 92 4a 41
        E 489 82 4a 00
        E 1424 92 4b 4a
        E 480 82 4b 00
        E 0 b2 7b 00
        E 1 ff 2f 00
      >
    >
  >
>
