<REAPER_PROJECT 0.1 "7.0" 1700000000
  TEMPO 74.000000 4 4
  SAMPLERATE 48000 0 0
  RENDER_FILE ""
  RENDER_FMT 0 2 0
  RENDER_1X 0
  RENDER_RANGE 1 0 54.904149 0 0
  RENDER_RESAMPLE 3 0 1
  <MASTERTRACK
    VOLPAN 1 0 1 -1
    DEFCHAN 0
  >
  <TRACK
    NAME "lead_piano"
    PEAKCOL 4290756410
    VOLPAN 1.000000 0 1 -1
    MIDIOUT -1
    ISBUS 0 0
    <ITEM
      POSITION 0.000990
      LENGTH 42.249448
      NAME "lead_piano"
      VOLPAN 1 0 1 -1
      <SOURCE MIDI
        HASDATA 1 960 QN
        E 0 c0 00 00
        E 1 90 41 46
        E 960 90 44 60
        E 11 80 41 00
        E 940 90 43 60
        E 17 80 44 00
        E 940 80 43 00
        E 31 90 3f 52
        E 972 80 3f 00
        E 11478 90 41 56
        E 963 80 41 00
        E 3 90 44 5a
        E 917 80 44 00
        E 42 90 43 5c
        E 951 80 43 00
        E 17 90 3f 57
        E 983 80 3f 00
        E 11489 90 41 4b
        E 967 80 41 00
        E 2 90 44 60
        E 957 80 44 00
        E 3 90 43 63
        E 955 90 3f 50
        E 42 80 43 00
        E 926 80 3f 00
        E 11516 90 41 4b
        E 951 80 41 00
        E 10 90 44 52
        E 961 90 43 5b
        E 14 80 44 00
        E 940 90 3f 52
        E 17 80 43 00
        E 930 80 3f 00
        E 0 b0 7b 00
        E 1 ff 2f 00
      >
    >
  >
  <TRACK
    NAME "soft_strings"
    PEAKCOL 4284186559
    VOLPAN 1.000000 0 1 -1
    MIDIOUT -1
    ISBUS 0 0
    <ITEM
      POSITION 0.000040
      LENGTH 53.004109
      NAME "soft_strings"
      VOLPAN 1 0 1 -1
      <SOURCE MIDI
        HASDATA 1 960 QN
        E 0 c1 30 00
        E 0 91 30 3c
        E 3 91 35 33
        E 0 91 38 32
        E 3839 91 41 44
        E 8 91 37 36
        E 1 91 30 36
        E 1031 81 38 00
        E 30 81 35 00
        E 37 81 30 00
        E 2738 91 32 36
        E 3 91 35 3a
        E 6 91 39 38
        E 1166 81 37 00
        E 104 81 30 00
        E 144 81 41 00
        E 2417 91 35 44
        E 2 91 3b 47
        E 6 91 31 3e
        E 1081 81 39 00
        E 230 81 32 00
        E 185 81 35 00
        E 2342 91 38 42
        E 5 91 35 38
        E 2 91 30 34
        E 870 81 3b 00
        E 149 81 35 00
        E 89 81 31 00
        E 2706 91 30 47
        E 8 91 41 4f
        E 11 91 37 4b
        E 455 81 38 00
        E 669 81 35 00
        E 230 81 30 00
        E 2476 91 39 4b
        E 5 91 32 48
        E 2 91 35 4c
        E 1160 81 41 00
        E 35 81 37 00
        E 372 81 30 00
        E 2267 91 31 3c
        E 4 91 3b 44
        E 9 91 35 42
        E 999 81 39 00
        E 299 81 35 00
        E 123 81 32 00
        E 2400 91 30 44
        E 3 91 38 4b
        E 4 91 35 46
        E 713 81 35 00
        E 207 81 3b 00
        E 82 81 31 00
        E 2836 91 30 5b
        E 0 91 41 4c
        E 2 91 37 4a
        E 1196 81 30 00
        E 144 81 35 00
        E 308 81 38 00
        E 2180 91 32 3f
        E 8 91 35 4b
        E 7 91 39 4b
        E 606 81 30 00
        E 93 81 37 00
        E 647 81 41 00
        E 2488 91 31 3c
        E 7 91 3b 43
        E 6 91 35 40
        E 991 81 35 00
        E 76 81 39 00
        E 143 81 32 00
        E 2610 91 30 40
        E 16 91 38 44
        E 0 91 35 4b
        E 901 81 31 00
        E 132 81 35 00
        E 6 81 3b 00
        E 2787 91 37 3c
        E 6 91 30 5e
        E 3 91 41 4e
        E 1237 81 38 00
        E 19 81 35 00
        E 107 81 30 00
        E 2469 91 32 43
        E 7 91 39 4a
        E 0 91 35 3b
        E 1252 81 37 00
        E 3 81 41 00
        E 88 81 30 00
        E 2496 91 32 50
        E 0 91 3a 53
        E 19 91 35 4a
        E 734 81 39 00
        E 476 81 35 00
        E 72 81 32 00
        E 3262 81 3a 00
        E 343 81 32 00
        E 129 81 35 00
        E 0 b1 7b 00
        E 1 ff 2f 00
      >
    >
  >
  <TRACK
    NAME "warm_pad"
    PEAKCOL 4284506208
    VOLPAN 1.000000 0 1 -1
    MIDIOUT -1
    ISBUS 0 0
    <ITEM
      POSITION 0.001015
      LENGTH 52.163687
      NAME "warm_pad"
      VOLPAN 1 0 1 -1
      <SOURCE MIDI
        HASDATA 1 960 QN
        E 0 c2 59 00
        E 1 92 24 21
        E 2 92 28 3c
        E 3 92 23 14
        E 3810 82 28 00
        E 19 92 25 3c
        E 3 92 25 3c
        E 4 92 25 3c
        E 135 82 23 00
        E 64 82 24 00
        E 3636 92 25 3c
        E 4 92 25 3c
        E 3 92 29 3c
        E 24 82 25 00
        E 101 82 25 00
        E 166 82 25 00
        E 3491 82 25 00
        E 54 92 28 3c
        E 1 92 29 3c
        E 1 92 26 3c
        E 21 82 29 00
        E 109 82 25 00
        E 3707 92 23 21
        E 4 92 26 3c
        E 2 92 28 3c
        E 43 82 26 00
        E 82 82 29 00
        E 1 82 28 00
        E 3697 92 2b 3c
        E 10 92 27 3c
        E 9 92 23 27
        E 114 82 23 00
        E 70 82 26 00
        E 53 82 28 00
        E 3594 92 23 2a
        E 1 92 2c 3c
        E 5 92 24 3c
        E 8 82 2b 00
        E 174 82 23 00
        E 2 82 27 00
        E 3649 92 2f 3c
        E 2 92 27 3c
        E 5 92 25 3c
        E 59 82 24 00
        E 26 82 2c 00
        E 9 82 23 00
        E 3741 92 23 2f
        E 1 92 28 3c
        E 2 92 24 3c
        E 4 82 27 00
        E 30 82 25 00
        E 172 82 2f 00
        E 3628 92 27 3c
        E 4 92 25 3c
        E 4 92 2b 3c
        E 44 82 24 00
        E 91 82 23 00
        E 42 82 28 00
        E 3576 82 27 00
        E 30 82 25 00
        E 48 92 24 24
        E 3 92 2b 3c
        E 5 92 25 3c
        E 15 82 2b 00
        E 3766 82 24 00
        E 58 92 28 3c
        E 1 92 24 30
        E 3 92 29 3c
        E 142 82 2b 00
        E 44 82 25 00
        E 3641 92 25 3c
        E 3 92 28 3c
        E 3 92 24 3c
        E 28 82 24 00
        E 35 82 29 00
        E 47 82 28 00
        E 3730 92 2b 3c
        E 2 92 25 3c
        E 7 92 25 3c
        E 71 82 25 00
        E 19 82 28 00
        E 26 82 24 00
        E 3716 92 25 3c
        E 3 92 28 3c
        E 3 92 2c 3c
        E 37 82 25 00
        E 87 82 25 00
        E 47 82 2b 00
        E 3662 92 2a 3c
        E 2 92 27 3c
        E 0 92 25 3c
        E 35 82 25 00
        E 55 82 2c 00
        E 26 82 28 00
        E 3713 82 25 00
        E 124 82 2a 00
        E 91 82 27 00
        E 0 b2 7b 00
        E 1 ff 2f 00
      >
    >
  >
>
