<REAPER_PROJECT 0.1 "7.0" 1700000000
  TEMPO 76.000000 4 4
  SAMPLERATE 48000 0 0
  RENDER_FILE ""
  RENDER_FMT 0 2 0
  RENDER_1X 0
  RENDER_RANGE 1 0 84.832657 0 0
  RENDER_RESAMPLE 3 0 1
  <MASTERTRACK
    VOLPAN 1 0 1 -1
    DEFCHAN 0
  >
  <TRACK
    NAME "Lead"
    PEAKCOL 4284506208
    VOLPAN 1.000000 0 1 -1
    MIDIOUT -1
    ISBUS 0 0
    <ITEM
      POSITION 0.007244
      LENGTH 82.925413
      NAME "Lead"
      VOLPAN 1 0 1 -1
      <SOURCE MIDI
        HASDATA 1 960 QN
        E 0 c0 00 00
        E 9 90 51 7c
        E 1124 80 51 00
        E 63 90 4d 4e
        E 971 90 4d 51
        E 153 80 4d 00
        E 869 80 4d 00
        E 47 90 4d 60
        E 258 80 4d 00
        E 1296 90 4d 75
        E 1030 80 4d 00
        E 764 90 4d 4e
        E 609 90 4f 4e
        E 86 80 4d 00
        E 834 80 4f 00
        E 1587 90 4f 4e
        E 840 90 53 63
        E 182 80 4f 00
        E 408 90 51 5e
        E 183 80 53 00
        E 839 80 51 00
        E 185 90 4d 4f
        E 1022 80 4d 00
        E 183 90 4d 4e
        E 1022 80 4d 00
        E 547 90 4c 4e
        E 464 80 4c 00
        E 354 90 4d 4e
        E 1124 80 4d 00
        E 79 90 4f 55
        E 597 90 4d 4e
        E 240 80 4d 00
        E 185 80 4f 00
        E 171 90 4a 69
        E 1022 80 4a 00
        E 1011 90 4c 4e
        E 1022 80 4c 00
        E 56 90 4c 4e
        E 1022 80 4c 00
        E 76 90 4d 4e
        E 232 80 4d 00
        E 970 90 4d 4e
        E 1124 80 4d 00
        E 52 90 4d 74
        E 1030 80 4d 00
        E 178 90 4d 58
        E 1022 80 4d 00
        E 173 90 4f 65
        E 1022 80 4f 00
        E 168 90 51 4e
        E 1022 80 51 00
        E 187 90 54 4f
        E 920 80 54 00
        E 647 90 51 51
        E 828 90 53 55
        E 296 80 51 00
        E 271 80 53 00
        E 397 90 54 51
        E 828 90 56 4e
        E 194 80 54 00
        E 321 80 56 00
        E 698 90 54 6e
        E 1022 80 54 00
        E 164 90 56 4e
        E 1022 80 56 00
        E 173 90 54 60
        E 920 80 54 00
        E 535 90 53 4e
        E 945 90 51 51
        E 179 80 53 00
        E 945 80 51 00
        E 82 90 54 51
        E 1022 80 54 00
        E 161 90 51 7c
        E 658 90 53 4e
        E 240 80 53 00
        E 419 90 56 4e
        E 229 80 51 00
        E 793 80 56 00
        E 61 90 54 4e
        E 920 80 54 00
        E 295 90 56 4e
        E 464 80 56 00
        E 973 90 56 4f
        E 338 90 54 55
        E 1022 80 54 00
        E 181 90 56 61
        E 159 80 56 00
        E 449 90 54 4e
        E 240 80 54 00
        E 174 80 56 00
        E 194 90 51 4e
        E 515 80 51 00
        E 668 90 51 5a
        E 1022 80 51 00
        E 172 90 4d 4e
        E 609 90 4d 4e
        E 311 80 4d 00
        E 609 80 4d 00
        E 505 90 4d 4e
        E 956 90 4d 4e
        E 168 80 4d 00
        E 854 80 4d 00
        E 420 90 4f 4e
        E 190 90 51 4e
        E 189 90 56 53
        E 51 80 51 00
        E 464 80 56 00
        E 652 80 4f 00
        E 608 90 54 60
        E 1022 80 54 00
        E 178 90 56 4e
        E 241 90 54 4f
        E 240 80 54 00
        E 1 90 51 4f
        E 240 80 51 00
        E 0 90 4f 4f
        E 198 80 56 00
        E 42 80 4f 00
        E 1 90 4c 4f
        E 240 80 4c 00
        E 1 90 4a 7a
        E 1124 80 4a 00
        E 72 90 4a 4e
        E 1124 80 4a 00
        E 75 90 4c 61
        E 1022 80 4c 00
        E 176 90 4a 51
        E 1022 80 4a 00
        E 182 90 4a 69
        E 600 90 48 58
        E 173 80 4a 00
        E 849 80 48 00
        E 177 90 4a 4e
        E 920 80 4a 00
        E 275 90 4c 4e
        E 1124 80 4c 00
        E 77 90 4a 5c
        E 567 80 4a 00
        E 25 90 4c 4e
        E 240 80 4c 00
        E 353 90 4f 51
        E 515 80 4f 00
        E 690 90 4d 4e
        E 1022 80 4d 00
        E 532 90 4d 4e
        E 515 80 4d 00
        E 329 90 4a 58
        E 612 90 4c 63
        E 410 80 4a 00
        E 517 80 4c 00
        E 489 90 4a 4e
        E 1124 80 4a 00
        E 73 90 4c 4e
        E 975 90 4a 4e
        E 149 80 4c 00
        E 873 80 4a 00
        E 168 90 4c 4e
        E 258 80 4c 00
        E 950 90 4c 4e
        E 1022 80 4c 00
        E 1006 90 4a 4e
        E 464 80 4a 00
        E 507 90 4c 4e
        E 586 90 4c 67
        E 538 80 4c 00
        E 655 90 4a 4e
        E 507 80 4c 00
        E 515 80 4a 00
        E 192 90 4c 57
        E 1022 80 4c 00
        E 161 90 4c 4e
        E 1022 80 4c 00
        E 168 90 4a 63
        E 607 90 4c 57
        E 415 80 4a 00
        E 505 80 4c 00
        E 642 90 4a 4e
        E 829 90 4a 72
        E 91 80 4a 00
        E 1042 80 4a 00
        E 79 90 4c 4e
        E 1022 80 4c 00
        E 758 90 4a 51
        E 1022 80 4a 00
        E 200 90 4c 5c
        E 515 80 4c 00
        E 662 90 4c 4e
        E 920 80 4c 00
        E 293 90 4a 4e
        E 920 80 4a 00
        E 0 b0 7b 00
        E 1 ff 2f 00
      >
    >
  >
  <TRACK
    NAME "Sax"
    PEAKCOL 4282040170
    VOLPAN 1.000000 0 1 -1
    MIDIOUT -1
    ISBUS 0 0
    <ITEM
      POSITION 1.184211
      LENGTH 81.021053
      NAME "Sax"
      VOLPAN 1 0 1 -1
      <SOURCE MIDI
        HASDATA 1 960 QN
        E 0 c1 42 00
        E 1440 91 4d 70
        E 960 81 4d 00
        E 9120 91 4e 70
        E 1440 81 4e 00
        E 1920 91 50 6e
        E 2880 81 50 00
        E 3840 91 51 69
        E 1440 81 51 00
        E 3360 91 50 69
        E 2880 81 50 00
        E 0 91 4f 67
        E 1920 81 4f 00
        E 0 91 51 69
        E 2880 81 51 00
        E 0 91 50 67
        E 1440 81 50 00
        E 0 91 51 72
        E 2880 81 51 00
        E 0 91 50 6e
        E 1440 81 50 00
        E 0 91 4f 6c
        E 1920 81 4f 00
        E 0 91 4f 6a
        E 1440 81 4f 00
        E 0 91 4e 6c
        E 1920 81 4e 00
        E 0 91 4a 70
        E 2880 81 4a 00
        E 0 91 48 6e
        E 960 81 48 00
        E 0 91 47 6c
        E 960 81 47 00
        E 0 91 47 6c
        E 2880 81 47 00
        E 0 91 48 67
        E 2880 81 48 00
        E 0 91 47 70
        E 1440 81 47 00
        E 0 91 48 67
        E 2880 81 48 00
        E 0 91 49 72
        E 1920 81 49 00
        E 0 91 4a 6c
        E 1440 81 4a 00
        E 0 91 4d 6e
        E 1920 81 4d 00
        E 0 91 4e 6a
        E 1440 81 4e 00
        E 0 91 4d 6a
        E 1440 81 4d 00
        E 0 91 49 67
        E 1440 81 49 00
        E 0 91 49 72
        E 1920 81 49 00
        E 0 91 45 67
        E 1440 81 45 00
        E 0 91 45 67
        E 1920 81 45 00
        E 0 91 45 72
        E 1920 81 45 00
        E 0 91 44 67
        E 2880 81 44 00
        E 0 91 43 6e
        E 1440 81 43 00
        E 6240 91 43 6a
        E 960 81 43 00
        E 11040 91 47 67
        E 480 81 47 00
        E 0 b1 7b 00
        E 1 ff 2f 00
      >
    >
  >
  <TRACK
    NAME "Piano"
    PEAKCOL 4290756410
    VOLPAN 1.000000 0 1 -1
    MIDIOUT -1
    ISBUS 0 0
    <ITEM
      POSITION 0.394737
      LENGTH 77.823684
      NAME "Piano"
      VOLPAN 1 0 1 -1
      <SOURCE MIDI
        HASDATA 1 960 QN
        E 0 c2 00 00
        E 480 92 39 5e
        E 432 82 39 00
        E 528 92 39 72
        E 432 82 39 00
        E 1488 92 39 72
        E 216 82 39 00
        E 744 92 3b 5e
        E 432 82 3b 00
        E 528 92 2f 72
        E 432 82 2f 00
        E 528 92 2f 5e
        E 0 92 32 5e
        E 432 82 2f 00
        E 0 82 32 00
        E 1488 92 2d 5e
        E 432 82 2d 00
        E 528 92 2d 72
        E 432 82 2d 00
        E 1488 92 2d 72
        E 216 82 2d 00
        E 1704 92 28 72
        E 0 92 2b 72
        E 432 82 28 00
        E 0 82 2b 00
        E 6288 92 2f 5e
        E 432 82 2f 00
        E 528 92 26 72
        E 432 82 26 00
        E 528 92 26 5e
        E 432 82 26 00
        E 528 92 26 72
        E 216 82 26 00
        E 744 92 29 5e
        E 432 82 29 00
        E 528 92 29 72
        E 0 92 2d 72
        E 432 82 29 00
        E 0 82 2d 00
        E 528 92 29 5e
        E 0 92 2d 5e
        E 432 82 29 00
        E 0 82 2d 00
        E 528 92 29 72
        E 0 92 2d 72
        E 216 82 29 00
        E 0 82 2d 00
        E 744 92 28 5e
        E 0 92 2b 5e
        E 432 82 28 00
        E 0 82 2b 00
        E 528 92 28 72
        E 0 92 2b 72
        E 432 82 28 00
        E 0 82 2b 00
        E 528 92 28 5e
        E 0 92 2b 5e
        E 432 82 28 00
        E 0 82 2b 00
        E 528 92 28 72
        E 0 92 2b 72
        E 216 82 28 00
        E 0 82 2b 00
        E 744 92 29 5e
        E 0 92 2d 5e
        E 432 82 29 00
        E 0 82 2d 00
        E 528 92 29 72
        E 0 92 2d 72
        E 432 82 29 00
        E 0 82 2d 00
        E 528 92 29 5e
        E 0 92 2d 5e
        E 432 82 29 00
        E 0 82 2d 00
        E 528 92 29 72
        E 0 92 2d 72
        E 216 82 29 00
        E 0 82 2d 00
        E 744 92 26 5e
        E 0 92 2f 5e
        E 432 82 26 00
        E 0 82 2f 00
        E 528 92 26 72
        E 432 82 26 00
        E 528 92 26 5e
        E 432 82 26 00
        E 528 92 26 72
        E 216 82 26 00
        E 744 92 28 5e
        E 0 92 2b 5e
        E 432 82 28 00
        E 0 82 2b 00
        E 528 92 28 72
        E 0 92 2b 72
        E 432 82 28 00
        E 0 82 2b 00
        E 528 92 28 5e
        E 0 92 2b 5e
        E 432 82 28 00
        E 0 82 2b 00
        E 528 92 28 72
        E 0 92 2b 72
        E 216 82 28 00
        E 0 82 2b 00
        E 744 92 29 5e
        E 0 92 2d 5e
        E 432 82 29 00
        E 0 82 2d 00
        E 528 92 29 72
        E 0 92 2d 72
        E 432 82 29 00
        E 0 82 2d 00
        E 528 92 29 5e
        E 0 92 2d 5e
        E 432 82 29 00
        E 0 82 2d 00
        E 528 92 29 72
        E 0 92 2d 72
        E 216 82 29 00
        E 0 82 2d 00
        E 744 92 29 5e
        E 0 92 2d 5e
        E 432 82 29 00
        E 0 82 2d 00
        E 528 92 29 72
        E 0 92 2d 72
        E 432 82 29 00
        E 0 82 2d 00
        E 528 92 29 5e
        E 0 92 2d 5e
        E 432 82 29 00
        E 0 82 2d 00
        E 528 92 29 72
        E 0 92 2d 72
        E 216 82 29 00
        E 0 82 2d 00
        E 744 92 26 5e
        E 0 92 2f 5e
        E 432 82 26 00
        E 0 82 2f 00
        E 528 92 26 72
        E 432 82 26 00
        E 528 92 26 5e
        E 432 82 26 00
        E 528 92 26 72
        E 216 82 26 00
        E 744 92 29 5e
        E 432 82 29 00
        E 528 92 29 72
        E 0 92 2d 72
        E 432 82 29 00
        E 0 82 2d 00
        E 528 92 29 5e
        E 0 92 2d 5e
        E 432 82 29 00
        E 0 82 2d 00
        E 528 92 29 72
        E 0 92 2d 72
        E 216 82 29 00
        E 0 82 2d 00
        E 744 92 28 5e
        E 0 92 2b 5e
        E 432 82 28 00
        E 0 82 2b 00
        E 528 92 28 72
        E 0 92 2b 72
        E 432 82 28 00
        E 0 82 2b 00
        E 528 92 28 5e
        E 0 92 2b 5e
        E 432 82 28 00
        E 0 82 2b 00
        E 528 92 28 72
        E 0 92 2b 72
        E 216 82 28 00
        E 0 82 2b 00
        E 744 92 29 5e
        E 0 92 2d 5e
        E 432 82 29 00
        E 0 82 2d 00
        E 528 92 29 72
        E 0 92 2d 72
        E 432 82 29 00
        E 0 82 2d 00
        E 528 92 29 5e
        E 0 92 2d 5e
        E 432 82 29 00
        E 0 82 2d 00
        E 528 92 29 72
        E 0 92 2d 72
        E 216 82 29 00
        E 0 82 2d 00
        E 744 92 26 5e
        E 0 92 2f 5e
        E 432 82 26 00
        E 0 82 2f 00
        E 528 92 26 72
        E 432 82 26 00
        E 528 92 26 5e
        E 432 82 26 00
        E 528 92 26 72
        E 216 82 26 00
        E 744 92 29 5e
        E 432 82 29 00
        E 528 92 29 72
        E 0 92 2d 72
        E 432 82 29 00
        E 0 82 2d 00
        E 528 92 29 5e
        E 0 92 2d 5e
        E 432 82 29 00
        E 0 82 2d 00
        E 528 92 29 72
        E 0 92 2d 72
        E 216 82 29 00
        E 0 82 2d 00
        E 744 92 28 5e
        E 0 92 2b 5e
        E 432 82 28 00
        E 0 82 2b 00
        E 528 92 28 72
        E 0 92 2b 72
        E 432 82 28 00
        E 0 82 2b 00
        E 528 92 28 5e
        E 0 92 2b 5e
        E 432 82 28 00
        E 0 82 2b 00
        E 528 92 28 72
        E 0 92 2b 72
        E 216 82 28 00
        E 0 82 2b 00
        E 744 92 29 5e
        E 0 92 2d 5e
        E 432 82 29 00
        E 0 82 2d 00
        E 528 92 29 72
        E 0 92 2d 72
        E 432 82 29 00
        E 0 82 2d 00
        E 528 92 29 5e
        E 0 92 2d 5e
        E 432 82 29 00
        E 0 82 2d 00
        E 528 92 29 72
        E 216 82 29 00
        E 744 92 26 5e
        E 0 92 2f 5e
        E 432 82 26 00
        E 0 82 2f 00
        E 528 92 26 72
        E 432 82 26 00
        E 3408 92 28 72
        E 432 82 28 00
        E 1488 92 2b 72
        E 216 82 2b 00
        E 744 92 2d 5e
        E 432 82 2d 00
        E 3408 92 2d 5e
        E 432 82 2d 00
        E 528 92 29 72
        E 432 82 29 00
        E 528 92 2d 5e
        E 432 82 2d 00
        E 0 b2 7b 00
        E 1 ff 2f 00
      >
    >
  >
  <TRACK
    NAME "WalkBass"
    PEAKCOL 4286528191
    VOLPAN 1.000000 0 1 -1
    MIDIOUT -1
    ISBUS 0 0
    <ITEM
      POSITION 0.000000
      LENGTH 82.126316
      NAME "WalkBass"
      VOLPAN 1 0 1 -1
      <SOURCE MIDI
        HASDATA 1 960 QN
        E 0 c3 21 00
        E 0 93 1c 7a
        E 864 83 1c 00
        E 96 93 1c 7a
        E 864 83 1c 00
        E 96 93 1d 7a
        E 864 83 1d 00
        E 96 93 20 7a
        E 864 83 20 00
        E 96 93 1f 7a
        E 864 83 1f 00
        E 96 93 1f 7a
        E 864 83 1f 00
        E 96 93 1f 7a
        E 864 83 1f 00
        E 96 93 1c 7a
        E 864 83 1c 00
        E 96 93 1c 7a
        E 864 83 1c 00
        E 96 93 21 7a
        E 864 83 21 00
        E 96 93 21 7a
        E 864 83 21 00
        E 96 93 25 7a
        E 864 83 25 00
        E 96 93 24 7a
        E 864 83 24 00
        E 96 93 1f 7a
        E 864 83 1f 00
        E 96 93 1f 7a
        E 864 83 1f 00
        E 96 93 1c 7a
        E 864 83 1c 00
        E 96 93 1c 7a
        E 864 83 1c 00
        E 96 93 1d 7a
        E 864 83 1d 00
        E 96 93 1d 7a
        E 864 83 1d 00
        E 96 93 20 7a
        E 864 83 20 00
        E 96 93 1f 7a
        E 864 83 1f 00
        E 96 93 1f 7a
        E 864 83 1f 00
        E 96 93 1f 7a
        E 864 83 1f 00
        E 96 93 1c 7a
        E 864 83 1c 00
        E 96 93 1c 7a
        E 864 83 1c 00
        E 96 93 1d 7a
        E 864 83 1d 00
        E 96 93 1d 7a
        E 864 83 1d 00
        E 96 93 1c 7a
        E 864 83 1c 00
        E 96 93 1c 7a
        E 864 83 1c 00
        E 96 93 1c 7a
        E 864 83 1c 00
        E 96 93 1c 7a
        E 864 83 1c 00
        E 96 93 1c 7a
        E 864 83 1c 00
        E 96 93 1c 7a
        E 864 83 1c 00
        E 96 93 1d 7a
        E 864 83 1d 00
        E 96 93 1d 7a
        E 864 83 1d 00
        E 96 93 20 7a
        E 864 83 20 00
        E 96 93 1f 7a
        E 864 83 1f 00
        E 96 93 1c 7a
        E 864 83 1c 00
        E 96 93 1f 7a
        E 864 83 1f 00
        E 96 93 25 7a
        E 864 83 25 00
        E 96 93 24 7a
        E 864 83 24 00
        E 96 93 23 7a
        E 864 83 23 00
        E 96 93 1f 7a
        E 864 83 1f 00
        E 96 93 1c 7a
        E 864 83 1c 00
        E 96 93 1c 7a
        E 864 83 1c 00
        E 96 93 1c 7a
        E 864 83 1c 00
        E 96 93 1d 7a
        E 864 83 1d 00
        E 96 93 1c 7a
        E 864 83 1c 00
        E 96 93 1c 7a
        E 864 83 1c 00
        E 96 93 1d 7a
        E 864 83 1d 00
        E 96 93 1d 7a
        E 864 83 1d 00
        E 96 93 20 7a
        E 864 83 20 00
        E 96 93 1f 7a
        E 864 83 1f 00
        E 96 93 23 7a
        E 864 83 23 00
        E 96 93 23 7a
        E 864 83 23 00
        E 96 93 27 7a
        E 864 83 27 00
        E 96 93 26 7a
        E 864 83 26 00
        E 96 93 21 7a
        E 864 83 21 00
        E 96 93 21 7a
        E 864 83 21 00
        E 96 93 25 7a
        E 864 83 25 00
        E 96 93 24 7a
        E 864 83 24 00
        E 96 93 23 7a
        E 864 83 23 00
        E 96 93 1f 7a
        E 864 83 1f 00
        E 96 93 1c 7a
        E 864 83 1c 00
        E 96 93 1c 7a
        E 864 83 1c 00
        E 96 93 1d 7a
        E 864 83 1d 00
        E 96 93 1d 7a
        E 864 83 1d 00
        E 96 93 20 7a
        E 864 83 20 00
        E 96 93 1f 7a
        E 864 83 1f 00
        E 96 93 21 7a
        E 864 83 21 00
        E 96 93 1f 7a
        E 864 83 1f 00
        E 96 93 1c 7a
        E 864 83 1c 00
        E 96 93 1c 7a
        E 864 83 1c 00
        E 96 93 1d 7a
        E 864 83 1d 00
        E 96 93 1d 7a
        E 864 83 1d 00
        E 96 93 1c 7a
        E 864 83 1c 00
        E 96 93 1c 7a
        E 864 83 1c 00
        E 96 93 1c 7a
        E 864 83 1c 00
        E 96 93 1c 7a
        E 864 83 1c 00
        E 96 93 1c 7a
        E 864 83 1c 00
        E 96 93 1c 7a
        E 864 83 1c 00
        E 96 93 21 7a
        E 864 83 21 00
        E 96 93 21 7a
        E 864 83 21 00
        E 96 93 1e 7a
        E 864 83 1e 00
        E 96 93 1f 7a
        E 864 83 1f 00
        E 96 93 21 7a
        E 864 83 21 00
        E 96 93 1f 7a
        E 864 83 1f 00
        E 96 93 25 7a
        E 864 83 25 00
        E 96 93 24 7a
        E 864 83 24 00
        E 96 93 26 7a
        E 864 83 26 00
        E 96 93 28 7a
        E 864 83 28 00
        E 96 93 25 7a
        E 864 83 25 00
        E 96 93 26 7a
        E 864 83 26 00
        E 96 93 28 7a
        E 864 83 28 00
        E 96 93 29 7a
        E 864 83 29 00
        E 96 93 25 7a
        E 864 83 25 00
        E 96 93 26 7a
        E 864 83 26 00
        E 96 93 29 7a
        E 864 83 29 00
        E 96 93 29 7a
        E 864 83 29 00
        E 96 93 2c 7a
        E 864 83 2c 00
        E 96 93 2b 7a
        E 864 83 2b 00
        E 96 93 29 7a
        E 864 83 29 00
        E 96 93 2b 7a
        E 864 83 2b 00
        E 96 93 2f 7a
        E 864 83 2f 00
        E 0 b3 7b 00
        E 1 ff 2f 00
      >
    >
  >
  <TRACK
    NAME "Strings"
    PEAKCOL 4284186559
    VOLPAN 1.000000 0 1 -1
    MIDIOUT -1
    ISBUS 0 0
    <ITEM
      POSITION 0.000000
      LENGTH 82.216050
      NAME "Strings"
      VOLPAN 1 0 1 -1
      <SOURCE MIDI
        HASDATA 1 960 QN
        E 0 c4 30 00
        E 0 94 30 2f
        E 6 94 3e 2f
        E 1 94 43 2f
        E 1906 94 41 2f
        E 10 84 43 00
        E 2 94 3e 2f
        E 2 84 3e 00
        E 4 94 43 2f
        E 3 94 43 2f
        E 5 84 30 00
        E 1878 84 41 00
        E 21 94 43 2f
        E 2 94 3b 2f
        E 5 84 43 00
        E 0 94 43 2f
        E 1 84 3e 00
        E 6 84 43 00
        E 1908 84 3b 00
        E 2 84 43 00
        E 0 94 43 2f
        E 7 94 43 2f
        E 7 84 43 00
        E 1904 84 43 00
        E 0 84 43 00
        E 1908 94 43 2f
        E 8 94 3e 2f
        E 9 94 30 2f
        E 4 94 43 2f
        E 3 94 43 2f
        E 1894 84 3e 00
        E 16 84 43 00
        E 6 94 43 2f
        E 8 84 43 00
        E 1 84 43 00
        E 6 84 30 00
        E 1896 94 43 2f
        E 1 94 37 31
        E 10 84 43 00
        E 1897 94 43 2f
        E 8 94 43 2f
        E 5 84 37 00
        E 8 84 43 00
        E 0 94 30 2f
        E 1904 94 43 2f
        E 4 84 43 00
        E 11 84 43 00
        E 10 84 30 00
        E 1893 84 43 00
        E 9 94 43 2f
        E 1908 94 43 2f
        E 1 94 43 2f
        E 2 94 43 2f
        E 0 94 43 2f
        E 6 94 3e 2f
        E 4 94 3b 34
        E 0 94 43 2f
        E 6 94 43 2f
        E 10 84 43 00
        E 1878 84 43 00
        E 5 84 3e 00
        E 1 84 43 00
        E 7 84 43 00
        E 1 94 43 2f
        E 1 94 43 2f
        E 4 94 3e 2f
        E 1 94 43 2f
        E 2 94 30 2f
        E 1 84 43 00
        E 3 84 3b 00
        E 0 94 39 36
        E 5 84 43 00
        E 1 84 43 00
        E 7 94 43 2f
        E 0 94 30 2f
        E 1883 84 43 00
        E 9 84 43 00
        E 2 84 3e 00
        E 2 94 43 2f
        E 3 94 43 2f
        E 1 94 43 2f
        E 1 94 43 2f
        E 6 84 39 00
        E 0 94 39 38
        E 2 94 43 2f
        E 4 94 3e 2f
        E 2 94 43 2f
        E 4 84 43 00
        E 2 84 30 00
        E 14 84 43 00
        E 1 84 30 00
        E 1866 84 43 00
        E 10 84 43 00
        E 1 84 43 00
        E 0 84 43 00
        E 9 94 43 2f
        E 2 94 30 2f
        E 0 94 43 2f
        E 3 84 39 00
        E 0 94 37 38
        E 1 84 43 00
        E 0 94 43 2f
        E 0 94 43 2f
        E 8 84 3e 00
        E 3 94 3c 2f
        E 1 94 43 2f
        E 14 84 43 00
        E 1879 94 43 2f
        E 1 94 40 2f
        E 4 94 43 2f
        E 1 94 3c 2f
        E 3 94 43 2f
        E 3 94 43 2f
        E 2 84 37 00
        E 0 94 37 38
        E 3 94 43 2f
        E 3 84 30 00
        E 1 84 43 00
        E 3 84 43 00
        E 2 84 43 00
        E 3 84 43 00
        E 5 84 43 00
        E 5 84 3c 00
        E 1867 84 43 00
        E 4 84 43 00
        E 3 84 43 00
        E 3 84 40 00
        E 5 94 39 2f
        E 10 84 43 00
        E 1 94 43 2f
        E 0 94 3e 2f
        E 2 84 37 00
        E 0 94 35 3a
        E 1 84 43 00
        E 1 84 3c 00
        E 2 94 43 2f
        E 2 94 43 2f
        E 3 94 41 2f
        E 4 94 43 2f
        E 1891 84 43 00
        E 1 84 39 00
        E 5 94 43 2f
        E 4 94 39 2f
        E 6 84 35 00
        E 0 94 35 3c
        E 1 84 43 00
        E 4 84 43 00
        E 4 94 43 2f
        E 2 94 43 2f
        E 0 94 43 2f
        E 1 84 3e 00
        E 0 84 43 00
        E 0 94 43 2f
        E 1 94 43 2f
        E 12 84 41 00
        E 1867 84 43 00
        E 4 84 39 00
        E 11 94 30 2f
        E 6 94 30 2f
        E 0 94 3b 2f
        E 1 94 43 2f
        E 2 94 30 2f
        E 3 94 3e 2f
        E 1 84 35 00
        E 0 84 43 00
        E 0 94 37 3d
        E 3 94 43 2f
        E 1 84 43 00
        E 12 84 43 00
        E 0 84 43 00
        E 10 84 43 00
        E 1871 84 30 00
        E 14 94 43 2f
        E 1 94 30 2f
        E 2 94 43 2f
        E 2 84 43 00
        E 4 84 37 00
        E 0 94 37 3d
        E 0 94 43 2f
        E 1 84 30 00
        E 2 84 3b 00
        E 0 94 43 2f
        E 1 84 3e 00
        E 3 94 43 2f
        E 1 94 30 2f
        E 3 84 30 00
        E 7 84 43 00
        E 1883 84 43 00
        E 6 94 43 2f
        E 1 84 43 00
        E 0 94 43 2f
        E 1 84 30 00
        E 0 94 43 2f
        E 2 84 43 00
        E 5 84 43 00
        E 1 94 30 2f
        E 1 94 43 2f
        E 2 84 37 00
        E 0 94 37 3d
        E 1 84 30 00
        E 9 94 43 2f
        E 4 94 43 2f
        E 5 84 43 00
        E 1876 84 43 00
        E 7 84 43 00
        E 2 84 43 00
        E 5 84 43 00
        E 1 94 30 2f
        E 1 94 43 2f
        E 0 94 43 2f
        E 3 94 3c 2f
        E 1 84 30 00
        E 3 94 43 2f
        E 2 84 37 00
        E 0 94 37 3f
        E 8 94 43 2f
        E 2 84 43 00
        E 1 84 43 00
        E 2 94 40 2f
        E 1886 84 43 00
        E 9 84 43 00
        E 1 94 43 2f
        E 7 94 3e 2f
        E 4 84 37 00
        E 0 94 39 41
        E 1 84 43 00
        E 2 94 43 2f
        E 1 84 3c 00
        E 0 94 43 2f
        E 1 94 43 2f
        E 1 94 43 2f
        E 2 84 30 00
        E 5 94 43 2f
        E 7 84 40 00
        E 6 84 43 00
        E 1881 94 43 2f
        E 1 94 43 2f
        E 1 94 43 2f
        E 1 84 43 00
        E 1 84 43 00
        E 1 94 30 2f
        E 2 94 43 2f
        E 1 94 41 2f
        E 1 84 43 00
        E 3 94 43 2f
        E 1 84 39 00
        E 0 94 39 43
        E 1 84 43 00
        E 6 84 43 00
        E 6 84 3e 00
        E 2 84 43 00
        E 1891 84 30 00
        E 3 84 43 00
        E 0 94 43 2f
        E 3 84 43 00
        E 2 84 41 00
        E 0 94 30 2f
        E 6 84 39 00
        E 0 94 39 43
        E 2 84 43 00
        E 0 94 41 2f
        E 3 84 43 00
        E 0 94 43 2f
        E 2 94 43 2f
        E 2 94 3e 2f
        E 3 94 43 2f
        E 1 84 43 00
        E 1886 84 43 00
        E 5 84 41 00
        E 4 84 43 00
        E 4 84 30 00
        E 1 84 3e 00
        E 0 94 43 2f
        E 1 94 3e 2f
        E 2 84 43 00
        E 1 94 43 2f
        E 3 84 39 00
        E 0 94 39 45
        E 5 94 30 2f
        E 1 94 43 2f
        E 5 94 43 2f
        E 3 94 3e 2f
        E 6 84 43 00
        E 1875 84 43 00
        E 10 84 43 00
        E 3 94 43 2f
        E 2 94 43 2f
        E 3 84 43 00
        E 7 84 39 00
        E 0 94 3b 45
        E 0 94 3e 2f
        E 3 94 43 2f
        E 4 94 43 2f
        E 1 94 43 2f
        E 1 84 3e 00
        E 1 84 3e 00
        E 2 94 43 2f
        E 9 84 30 00
        E 0 84 43 00
        E 1885 84 43 00
        E 3 84 43 00
        E 5 94 43 2f
        E 6 84 3b 00
        E 0 94 3b 43
        E 2 94 43 2f
        E 2 94 43 2f
        E 2 84 3e 00
        E 0 94 3e 2f
        E 0 94 43 2f
        E 3 94 30 2f
        E 3 84 43 00
        E 0 94 43 2f
        E 5 84 43 00
        E 2 84 43 00
        E 6 84 43 00
        E 1882 94 3e 2f
        E 2 84 43 00
        E 1 94 43 2f
        E 1 94 41 2f
        E 1 94 43 2f
        E 4 84 43 00
        E 2 94 43 2f
        E 2 84 3b 00
        E 0 94 39 41
        E 4 84 43 00
        E 3 84 43 00
        E 2 94 43 2f
        E 3 94 43 2f
        E 4 84 30 00
        E 2 84 3e 00
        E 8 84 43 00
        E 1877 84 43 00
        E 3 84 41 00
        E 1 94 43 2f
        E 3 94 30 2f
        E 0 94 43 2f
        E 2 84 3e 00
        E 2 94 43 2f
        E 4 84 43 00
        E 0 94 41 2f
        E 1 84 43 00
        E 1 84 39 00
        E 0 94 39 41
        E 2 84 43 00
        E 2 94 43 2f
        E 10 94 3e 2f
        E 1 84 43 00
        E 1884 84 43 00
        E 7 84 30 00
        E 1 94 43 2f
        E 3 94 30 2f
        E 3 94 30 2f
        E 3 94 43 2f
        E 2 94 43 2f
        E 2 84 39 00
        E 0 94 37 3f
        E 1 84 43 00
        E 1 84 41 00
        E 4 84 43 00
        E 7 94 43 2f
        E 1 84 43 00
        E 0 94 43 2f
        E 4 84 3e 00
        E 1880 84 43 00
        E 5 84 30 00
        E 3 84 43 00
        E 1 84 30 00
        E 1 94 43 2f
        E 2 94 40 2f
        E 2 94 43 2f
        E 2 94 30 2f
        E 1 84 43 00
        E 5 84 37 00
        E 0 94 37 3d
        E 2 94 3c 2f
        E 2 94 43 2f
        E 2 84 43 00
        E 1 84 43 00
        E 2 94 43 2f
        E 1884 84 40 00
        E 1 84 43 00
        E 14 94 43 2f
        E 1 94 30 2f
        E 1 94 43 2f
        E 2 94 43 2f
        E 4 94 43 2f
        E 3 94 39 2f
        E 1 84 37 00
        E 0 94 35 3d
        E 3 84 43 00
        E 1 84 30 00
        E 0 84 3c 00
        E 3 84 43 00
        E 4 94 30 2f
        E 5 84 43 00
        E 1888 84 43 00
        E 0 84 30 00
        E 2 94 30 2f
        E 3 94 43 2f
        E 5 94 39 2f
        E 4 84 43 00
        E 1 84 43 00
        E 1 84 35 00
        E 0 94 35 3d
        E 3 94 43 2f
        E 2 94 43 2f
        E 1 94 39 2f
        E 2 84 43 00
        E 4 84 39 00
        E 1 94 43 2f
        E 2 84 30 00
        E 1883 84 43 00
        E 10 84 30 00
        E 0 94 43 2f
        E 2 84 39 00
        E 1 94 30 2f
        E 7 94 3e 2f
        E 0 94 43 2f
        E 2 84 35 00
        E 0 94 37 3c
        E 1 94 43 2f
        E 1 84 39 00
        E 2 84 43 00
        E 5 94 3e 2f
        E 5 94 43 2f
        E 8 84 43 00
        E 6 84 43 00
        E 1876 84 30 00
        E 2 94 30 2f
        E 5 84 43 00
        E 1 84 3e 00
        E 0 94 30 2f
        E 1 94 3e 2f
        E 1 94 3b 2f
        E 4 94 3e 2f
        E 2 84 37 00
        E 0 94 37 3a
        E 6 84 43 00
        E 0 94 43 2f
        E 1 84 3e 00
        E 0 84 43 00
        E 2 94 43 2f
        E 12 84 43 00
        E 1883 84 3e 00
        E 4 94 41 2f
        E 1 94 41 2f
        E 3 84 43 00
        E 2 94 30 2f
        E 6 84 37 00
        E 0 94 35 38
        E 1 84 3e 00
        E 1 84 3b 00
        E 1 84 30 00
        E 1 94 30 2f
        E 4 94 43 2f
        E 2 84 30 00
        E 0 84 43 00
        E 3 94 43 2f
        E 0 94 43 2f
        E 1878 84 41 00
        E 18 84 30 00
        E 1 84 30 00
        E 9 84 43 00
        E 0 84 43 00
        E 0 94 43 2f
        E 1 84 35 00
        E 0 94 35 38
        E 2 94 43 2f
        E 1 84 41 00
        E 2 94 43 2f
        E 0 94 30 2f
        E 1 94 3e 2f
        E 8 94 43 2f
        E 0 94 3e 2f
        E 9 84 43 00
        E 1887 94 43 2f
        E 4 94 43 2f
        E 0 94 37 2f
        E 1 84 43 00
        E 2 84 30 00
        E 0 84 3e 00
        E 2 84 43 00
        E 0 94 43 2f
        E 0 94 30 2f
        E 1 84 35 00
        E 0 84 43 00
        E 0 94 34 38
        E 6 94 3c 2f
        E 5 84 43 00
        E 2 94 43 2f
        E 2 84 3e 00
        E 1897 84 43 00
        E 1 94 43 2f
        E 1 84 30 00
        E 2 84 43 00
        E 1 94 37 2f
        E 1 94 30 2f
        E 2 84 43 00
        E 0 84 34 00
        E 0 94 3c 2f
        E 0 94 34 36
        E 0 94 3c 2f
        E 11 84 37 00
        E 0 94 40 2f
        E 2 94 43 2f
        E 3 84 43 00
        E 3 84 3c 00
        E 1888 84 37 00
        E 1 94 3e 2f
        E 2 94 39 2f
        E 5 84 43 00
        E 3 84 43 00
        E 0 94 30 2f
        E 2 84 34 00
        E 0 94 32 34
        E 2 84 3c 00
        E 1 94 43 2f
        E 1 94 43 2f
        E 1 84 40 00
        E 3 94 43 2f
        E 1 84 30 00
        E 0 84 3c 00
        E 2 94 30 2f
        E 1895 94 43 2f
        E 0 94 3e 2f
        E 2 94 3e 2f
        E 1 94 43 2f
        E 0 94 43 2f
        E 1 84 43 00
        E 1 94 41 2f
        E 3 94 41 2f
        E 6 84 39 00
        E 0 84 32 00
        E 0 94 32 33
        E 1 84 3e 00
        E 3 84 43 00
        E 0 84 30 00
        E 11 84 30 00
        E 8 84 43 00
        E 1865 84 3e 00
        E 20 94 3b 2f
        E 1 84 3e 00
        E 7 84 43 00
        E 2 84 41 00
        E 1 84 43 00
        E 1 84 43 00
        E 0 84 32 00
        E 0 94 32 33
        E 2 94 43 2f
        E 1 94 37 2f
        E 5 84 41 00
        E 1900 84 3b 00
        E 12 84 32 00
        E 10 94 43 2f
        E 4 84 37 00
        E 4 84 43 00
        E 1898 84 43 00
        E 4 94 3c 2f
        E 1918 84 3c 00
        E 10 94 3c 2f
        E 3 94 43 2f
        E 1903 84 3c 00
        E 1 94 43 2f
        E 14 94 43 2f
        E 17 84 43 00
        E 1887 84 43 00
        E 3 94 3e 2f
        E 5 94 43 2f
        E 21 84 43 00
        E 1886 84 3e 00
        E 4 84 43 00
        E 5 94 41 2f
        E 3 94 35 2f
        E 1914 94 39 2f
        E 6 84 35 00
        E 5 84 41 00
        E 4 94 43 2f
        E 1897 94 30 2f
        E 9 94 43 2f
        E 5 94 43 2f
        E 2 94 3e 2f
        E 2 84 39 00
        E 16 84 43 00
        E 1880 84 43 00
        E 14 84 3e 00
        E 1 94 43 2f
        E 5 94 37 2f
        E 0 94 43 2f
        E 1 84 30 00
        E 8 94 43 2f
        E 8 84 43 00
        E 1894 84 43 00
        E 9 84 37 00
        E 8 84 43 00
        E 5 84 43 00
        E 0 b4 7b 00
        E 1 ff 2f 00
      >
    >
  >
>
