<REAPER_PROJECT 0.1 "7.0" 1700000000
  TEMPO 84.000000 4 4
  SAMPLERATE 48000 0 0
  RENDER_FILE ""
  RENDER_FMT 0 2 0
  RENDER_1X 0
  RENDER_RANGE 1 0 74.061886 0 0
  RENDER_RESAMPLE 3 0 1
  <MASTERTRACK
    VOLPAN 1 0 1 -1
    DEFCHAN 0
  >
  <TRACK
    NAME "Lead"
    PEAKCOL 4284506208
    VOLPAN 1.000000 0 1 -1
    MIDIOUT -1
    ISBUS 0 0
    <ITEM
      POSITION 0.174236
      LENGTH 71.987651
      NAME "Lead"
      VOLPAN 1 0 1 -1
      <SOURCE MIDI
        HASDATA 1 960 QN
        E 0 c0 00 00
        E 234 90 4d 4b
        E 1649 80 4d 00
        E 91 90 4a 68
        E 991 80 4a 00
        E 62 90 4c 4b
        E 999 80 4c 00
        E 411 90 4d 4b
        E 779 90 4f 50
        E 212 80 4d 00
        E 779 80 4f 00
        E 187 90 4f 4b
        E 892 80 4f 00
        E 260 90 51 4b
        E 225 80 51 00
        E 939 90 54 6c
        E 1090 80 54 00
        E 89 90 51 4b
        E 991 80 51 00
        E 159 90 54 54
        E 250 80 54 00
        E 914 90 51 52
        E 586 90 53 4f
        E 240 80 53 00
        E 165 80 51 00
        E 181 90 56 79
        E 991 80 56 00
        E 154 90 56 4b
        E 892 80 56 00
        E 520 90 56 4b
        E 921 90 56 52
        E 169 80 56 00
        E 921 80 56 00
        E 55 90 56 4b
        E 500 80 56 00
        E 678 90 54 54
        E 991 80 54 00
        E 160 90 51 4d
        E 991 80 51 00
        E 183 90 53 5b
        E 991 80 53 00
        E 169 90 51 4b
        E 450 80 51 00
        E 1536 90 51 4b
        E 454 90 54 4b
        E 240 80 54 00
        E 214 90 58 72
        E 182 80 51 00
        E 809 80 58 00
        E 182 90 56 4b
        E 991 80 56 00
        E 181 90 58 79
        E 999 80 58 00
        E 159 90 58 4d
        E 991 80 58 00
        E 159 90 56 4b
        E 675 80 56 00
        E 85 90 54 4b
        E 240 80 54 00
        E 521 90 51 54
        E 1053 90 51 52
        E 37 80 51 00
        E 954 80 51 00
        E 494 90 53 54
        E 500 80 53 00
        E 666 90 51 65
        E 1169 90 53 4b
        E 330 80 51 00
        E 661 80 53 00
        E 752 90 54 4b
        E 892 80 54 00
        E 283 90 54 4b
        E 550 80 54 00
        E 610 90 54 4b
        E 991 80 54 00
        E 171 90 58 5c
        E 500 80 58 00
        E 639 90 58 5b
        E 584 90 56 54
        E 407 80 58 00
        E 184 90 54 4b
        E 240 80 54 00
        E 160 80 56 00
        E 190 90 51 54
        E 675 80 51 00
        E 1297 90 51 4b
        E 926 90 4d 4b
        E 164 80 51 00
        E 86 80 4d 00
        E 1267 90 4d 54
        E 749 80 4d 00
        E 70 90 4d 7b
        E 991 80 4d 00
        E 725 90 4d 4b
        E 749 80 4d 00
        E 795 90 4f 4b
        E 108 90 4d 4b
        E 108 90 4a 4b
        E 132 80 4d 00
        E 318 80 4a 00
        E 226 80 4f 00
        E 493 90 4c 55
        E 1090 80 4c 00
        E 633 90 4a 4b
        E 256 90 4c 68
        E 240 80 4c 00
        E 15 90 4f 68
        E 240 80 4f 00
        E 15 90 51 68
        E 225 80 4a 00
        E 15 80 51 00
        E 16 90 54 68
        E 240 80 54 00
        E 15 90 56 7b
        E 944 90 54 4b
        E 47 80 56 00
        E 193 80 54 00
        E 704 90 51 75
        E 461 90 53 4b
        E 240 80 53 00
        E 220 90 56 65
        E 70 80 51 00
        E 822 80 56 00
        E 252 90 54 4b
        E 275 80 54 00
        E 906 90 54 5e
        E 1090 80 54 00
        E 176 90 56 4b
        E 991 80 56 00
        E 640 90 58 54
        E 991 80 58 00
        E 153 90 56 54
        E 991 80 56 00
        E 181 90 54 4b
        E 225 80 54 00
        E 362 90 56 4b
        E 892 80 56 00
        E 510 90 54 4b
        E 933 90 51 57
        E 157 80 54 00
        E 834 80 51 00
        E 515 90 53 5e
        E 991 80 53 00
        E 625 90 51 4d
        E 749 80 51 00
        E 187 90 4d 65
        E 999 80 4d 00
        E 514 90 4f 4b
        E 798 90 4d 4b
        E 94 80 4f 00
        E 996 80 4d 00
        E 72 90 4a 4f
        E 500 80 4a 00
        E 98 90 4c 4b
        E 500 80 4c 00
        E 662 90 4a 54
        E 991 80 4a 00
        E 160 90 4c 54
        E 500 80 4c 00
        E 656 90 4d 79
        E 999 80 4d 00
        E 170 90 4d 4b
        E 892 80 4d 00
        E 279 90 4c 4b
        E 1090 80 4c 00
        E 52 90 4c 52
        E 1090 80 4c 00
        E 84 90 4d 55
        E 595 90 4d 5b
        E 396 80 4d 00
        E 104 80 4d 00
        E 647 90 4d 59
        E 991 80 4d 00
        E 187 90 4f 4b
        E 991 80 4f 00
        E 744 90 4d 4b
        E 573 90 4d 4b
        E 319 80 4d 00
        E 771 80 4d 00
        E 892 90 4f 5b
        E 999 80 4f 00
        E 295 90 4c 5b
        E 208 90 4a 4d
        E 783 80 4c 00
        E 208 80 4a 00
        E 0 b0 7b 00
        E 1 ff 2f 00
      >
    >
  >
  <TRACK
    NAME "Sax"
    PEAKCOL 4282040170
    VOLPAN 1.000000 0 1 -1
    MIDIOUT -1
    ISBUS 0 0
    <ITEM
      POSITION 0.178571
      LENGTH 70.814286
      NAME "Sax"
      VOLPAN 1 0 1 -1
      <SOURCE MIDI
        HASDATA 1 960 QN
        E 0 c1 41 00
        E 240 91 4c 63
        E 240 81 4c 00
        E 240 91 4f 63
        E 240 81 4f 00
        E 2400 91 4d 61
        E 240 81 4d 00
        E 480 91 4d 65
        E 240 81 4d 00
        E 0 91 4a 65
        E 960 81 4a 00
        E 240 91 4d 61
        E 960 81 4d 00
        E 0 91 4a 65
        E 480 81 4a 00
        E 1440 91 51 6c
        E 240 81 51 00
        E 1200 91 58 6c
        E 240 81 58 00
        E 1680 91 58 6c
        E 960 81 58 00
        E 1440 91 58 6d
        E 240 81 58 00
        E 0 91 56 63
        E 960 81 56 00
        E 4080 91 58 6d
        E 480 81 58 00
        E 0 91 58 63
        E 960 81 58 00
        E 960 91 56 63
        E 960 81 56 00
        E 0 91 58 65
        E 480 81 58 00
        E 0 91 58 68
        E 480 81 58 00
        E 0 91 58 6c
        E 480 81 58 00
        E 0 91 58 65
        E 480 81 58 00
        E 0 91 58 63
        E 240 81 58 00
        E 0 91 58 6d
        E 960 81 58 00
        E 0 91 58 6c
        E 960 81 58 00
        E 960 91 58 65
        E 960 81 58 00
        E 0 91 58 6c
        E 480 81 58 00
        E 0 91 58 6c
        E 240 81 58 00
        E 0 91 56 6a
        E 480 81 56 00
        E 0 91 58 6a
        E 960 81 58 00
        E 0 91 58 6a
        E 240 81 58 00
        E 0 91 58 61
        E 480 81 58 00
        E 0 91 58 6a
        E 960 81 58 00
        E 0 91 56 65
        E 480 81 56 00
        E 0 91 58 61
        E 960 81 58 00
        E 0 91 56 61
        E 480 81 56 00
        E 0 91 56 6c
        E 240 81 56 00
        E 0 91 58 6c
        E 960 81 58 00
        E 0 91 58 6c
        E 480 81 58 00
        E 0 91 58 61
        E 960 81 58 00
        E 0 91 58 67
        E 480 81 58 00
        E 0 91 58 6d
        E 480 81 58 00
        E 0 91 58 68
        E 480 81 58 00
        E 480 91 56 67
        E 960 81 56 00
        E 0 91 58 6c
        E 480 81 58 00
        E 0 91 56 6c
        E 480 81 56 00
        E 0 91 54 6c
        E 240 81 54 00
        E 0 91 51 6d
        E 960 81 51 00
        E 0 91 4f 6a
        E 480 81 4f 00
        E 0 91 4d 6a
        E 480 81 4d 00
        E 0 91 4c 65
        E 240 81 4c 00
        E 0 91 4d 61
        E 240 81 4d 00
        E 0 91 4f 6c
        E 480 81 4f 00
        E 0 91 51 65
        E 480 81 51 00
        E 0 91 4f 68
        E 480 81 4f 00
        E 0 91 4c 68
        E 480 81 4c 00
        E 0 91 4a 61
        E 960 81 4a 00
        E 0 91 4a 65
        E 960 81 4a 00
        E 0 91 4d 6c
        E 240 81 4d 00
        E 0 91 4f 67
        E 480 81 4f 00
        E 0 91 4d 6d
        E 960 81 4d 00
        E 0 91 4a 6d
        E 480 81 4a 00
        E 0 91 4a 65
        E 960 81 4a 00
        E 0 91 4c 6c
        E 480 81 4c 00
        E 0 91 4c 67
        E 960 81 4c 00
        E 0 91 4e 6c
        E 480 81 4e 00
        E 0 91 4f 6c
        E 240 81 4f 00
        E 0 91 4d 63
        E 480 81 4d 00
        E 0 91 4f 6c
        E 480 81 4f 00
        E 0 91 4d 6c
        E 480 81 4d 00
        E 480 91 4c 6d
        E 480 81 4c 00
        E 0 91 4a 6d
        E 960 81 4a 00
        E 0 91 4c 6a
        E 960 81 4c 00
        E 0 91 4a 63
        E 240 81 4a 00
        E 0 91 4d 63
        E 480 81 4d 00
        E 0 91 4a 6d
        E 960 81 4a 00
        E 0 91 4c 67
        E 960 81 4c 00
        E 0 91 4c 67
        E 480 81 4c 00
        E 480 91 4e 61
        E 240 81 4e 00
        E 0 91 4a 6c
        E 960 81 4a 00
        E 0 91 4c 68
        E 960 81 4c 00
        E 0 91 4a 67
        E 960 81 4a 00
        E 0 91 4a 6c
        E 240 81 4a 00
        E 0 91 4c 6c
        E 240 81 4c 00
        E 0 91 4c 6c
        E 480 81 4c 00
        E 0 91 4e 6c
        E 240 81 4e 00
        E 0 91 4c 61
        E 480 81 4c 00
        E 0 91 4c 68
        E 240 81 4c 00
        E 0 91 4d 65
        E 240 81 4d 00
        E 0 91 4c 6c
        E 240 81 4c 00
        E 0 91 4f 6c
        E 240 81 4f 00
        E 0 91 4c 67
        E 480 81 4c 00
        E 0 91 4a 63
        E 480 81 4a 00
        E 0 91 4c 6c
        E 960 81 4c 00
        E 0 91 4d 67
        E 960 81 4d 00
        E 0 91 4f 67
        E 240 81 4f 00
        E 0 91 4c 68
        E 480 81 4c 00
        E 0 91 4d 67
        E 960 81 4d 00
        E 0 91 4c 68
        E 480 81 4c 00
        E 0 91 4c 63
        E 240 81 4c 00
        E 0 91 4d 63
        E 960 81 4d 00
        E 0 91 4c 65
        E 480 81 4c 00
        E 0 91 4e 63
        E 960 81 4e 00
        E 0 91 4a 6a
        E 960 81 4a 00
        E 480 91 4d 6c
        E 480 81 4d 00
        E 0 91 4f 68
        E 240 81 4f 00
        E 0 91 4d 65
        E 960 81 4d 00
        E 1920 91 51 61
        E 240 81 51 00
        E 0 91 4d 65
        E 960 81 4d 00
        E 480 91 4c 6d
        E 480 81 4c 00
        E 0 91 4d 6c
        E 480 81 4d 00
        E 0 91 51 63
        E 240 81 51 00
        E 1920 91 4d 67
        E 240 81 4d 00
        E 3600 91 4a 6c
        E 480 81 4a 00
        E 960 91 4a 65
        E 240 81 4a 00
        E 5040 91 4c 61
        E 240 81 4c 00
        E 0 91 4a 6c
        E 480 81 4a 00
        E 0 b1 7b 00
        E 1 ff 2f 00
      >
    >
  >
  <TRACK
    NAME "Piano"
    PEAKCOL 4290756410
    VOLPAN 1.000000 0 1 -1
    MIDIOUT -1
    ISBUS 0 0
    <ITEM
      POSITION 0.357143
      LENGTH 68.992857
      NAME "Piano"
      VOLPAN 1 0 1 -1
      <SOURCE MIDI
        HASDATA 1 960 QN
        E 0 c2 00 00
        E 480 92 3e 5b
        E 432 82 3e 00
        E 528 92 35 72
        E 432 82 35 00
        E 1488 92 35 72
        E 216 82 35 00
        E 744 92 37 5b
        E 432 82 37 00
        E 528 92 2b 72
        E 432 82 2b 00
        E 528 92 2b 5b
        E 0 92 2f 5b
        E 432 82 2b 00
        E 0 82 2f 00
        E 1488 92 29 5b
        E 432 82 29 00
        E 2448 92 29 72
        E 216 82 29 00
        E 1704 92 2f 72
        E 432 82 2f 00
        E 1488 92 2b 72
        E 0 92 2f 72
        E 216 82 2b 00
        E 0 82 2f 00
        E 4584 92 2b 5b
        E 0 92 2f 5b
        E 432 82 2b 00
        E 0 82 2f 00
        E 528 92 2b 72
        E 0 92 2f 72
        E 432 82 2b 00
        E 0 82 2f 00
        E 528 92 2b 5b
        E 0 92 2f 5b
        E 432 82 2b 00
        E 0 82 2f 00
        E 528 92 2b 72
        E 0 92 2f 72
        E 216 82 2b 00
        E 0 82 2f 00
        E 744 92 29 5b
        E 432 82 29 00
        E 528 92 29 72
        E 432 82 29 00
        E 528 92 29 5b
        E 432 82 29 00
        E 528 92 29 72
        E 216 82 29 00
        E 744 92 2b 5b
        E 0 92 2f 5b
        E 432 82 2b 00
        E 0 82 2f 00
        E 528 92 2b 72
        E 0 92 2f 72
        E 432 82 2b 00
        E 0 82 2f 00
        E 528 92 2b 5b
        E 0 92 2f 5b
        E 432 82 2b 00
        E 0 82 2f 00
        E 528 92 2b 72
        E 0 92 2f 72
        E 216 82 2b 00
        E 0 82 2f 00
        E 744 92 29 5b
        E 432 82 29 00
        E 528 92 29 72
        E 432 82 29 00
        E 528 92 29 5b
        E 432 82 29 00
        E 528 92 29 72
        E 216 82 29 00
        E 744 92 28 5b
        E 432 82 28 00
        E 528 92 28 72
        E 432 82 28 00
        E 528 92 28 5b
        E 432 82 28 00
        E 528 92 28 72
        E 216 82 28 00
        E 744 92 2b 5b
        E 432 82 2b 00
        E 528 92 2b 72
        E 0 92 2f 72
        E 432 82 2b 00
        E 0 82 2f 00
        E 528 92 2b 5b
        E 0 92 2f 5b
        E 432 82 2b 00
        E 0 82 2f 00
        E 528 92 2b 72
        E 0 92 2f 72
        E 216 82 2b 00
        E 0 82 2f 00
        E 744 92 29 5b
        E 432 82 29 00
        E 528 92 29 72
        E 432 82 29 00
        E 528 92 29 5b
        E 432 82 29 00
        E 528 92 29 72
        E 216 82 29 00
        E 744 92 29 5b
        E 432 82 29 00
        E 528 92 29 72
        E 432 82 29 00
        E 528 92 29 5b
        E 432 82 29 00
        E 528 92 29 72
        E 216 82 29 00
        E 744 92 2b 5b
        E 0 92 2f 5b
        E 432 82 2b 00
        E 0 82 2f 00
        E 528 92 2b 72
        E 0 92 2f 72
        E 432 82 2b 00
        E 0 82 2f 00
        E 528 92 2b 5b
        E 0 92 2f 5b
        E 432 82 2b 00
        E 0 82 2f 00
        E 528 92 2b 72
        E 0 92 2f 72
        E 216 82 2b 00
        E 0 82 2f 00
        E 744 92 29 5b
        E 432 82 29 00
        E 528 92 29 72
        E 432 82 29 00
        E 528 92 29 5b
        E 432 82 29 00
        E 528 92 29 72
        E 216 82 29 00
        E 744 92 2b 5b
        E 0 92 2f 5b
        E 432 82 2b 00
        E 0 82 2f 00
        E 528 92 2b 72
        E 0 92 2f 72
        E 432 82 2b 00
        E 0 82 2f 00
        E 528 92 2b 5b
        E 0 92 2f 5b
        E 432 82 2b 00
        E 0 82 2f 00
        E 528 92 2b 72
        E 0 92 2f 72
        E 216 82 2b 00
        E 0 82 2f 00
        E 744 92 29 5b
        E 432 82 29 00
        E 528 92 29 72
        E 432 82 29 00
        E 528 92 29 5b
        E 432 82 29 00
        E 528 92 29 72
        E 216 82 29 00
        E 744 92 2b 5b
        E 0 92 2f 5b
        E 432 82 2b 00
        E 0 82 2f 00
        E 528 92 2b 72
        E 0 92 2f 72
        E 432 82 2b 00
        E 0 82 2f 00
        E 528 92 2b 5b
        E 0 92 2f 5b
        E 432 82 2b 00
        E 0 82 2f 00
        E 528 92 2b 72
        E 0 92 2f 72
        E 216 82 2b 00
        E 0 82 2f 00
        E 744 92 29 5b
        E 432 82 29 00
        E 528 92 29 72
        E 432 82 29 00
        E 528 92 29 5b
        E 432 82 29 00
        E 528 92 29 72
        E 216 82 29 00
        E 744 92 2b 5b
        E 0 92 2f 5b
        E 432 82 2b 00
        E 0 82 2f 00
        E 528 92 2b 72
        E 0 92 2f 72
        E 432 82 2b 00
        E 0 82 2f 00
        E 528 92 2b 5b
        E 0 92 2f 5b
        E 432 82 2b 00
        E 0 82 2f 00
        E 528 92 2b 72
        E 0 92 2f 72
        E 216 82 2b 00
        E 0 82 2f 00
        E 9384 92 2b 72
        E 0 92 2f 72
        E 432 82 2b 00
        E 0 82 2f 00
        E 528 92 2f 5b
        E 432 82 2f 00
        E 528 92 2b 72
        E 0 92 2f 72
        E 216 82 2b 00
        E 0 82 2f 00
        E 4584 92 29 5b
        E 432 82 29 00
        E 0 b2 7b 00
        E 1 ff 2f 00
      >
    >
  >
  <TRACK
    NAME "WalkBass"
    PEAKCOL 4286528191
    VOLPAN 1.000000 0 1 -1
    MIDIOUT -1
    ISBUS 0 0
    <ITEM
      POSITION 0.000000
      LENGTH 71.457143
      NAME "WalkBass"
      VOLPAN 1 0 1 -1
      <SOURCE MIDI
        HASDATA 1 960 QN
        E 0 c3 21 00
        E 0 93 1c 77
        E 864 83 1c 00
        E 96 93 21 77
        E 864 83 21 00
        E 96 93 21 77
        E 864 83 21 00
        E 96 93 1e 77
        E 864 83 1e 00
        E 96 93 1f 77
        E 864 83 1f 00
        E 96 93 23 77
        E 864 83 23 00
        E 96 93 23 77
        E 864 83 23 00
        E 96 93 27 77
        E 864 83 27 00
        E 96 93 26 77
        E 864 83 26 00
        E 96 93 28 77
        E 864 83 28 00
        E 96 93 29 77
        E 864 83 29 00
        E 96 93 2c 77
        E 864 83 2c 00
        E 96 93 2b 77
        E 864 83 2b 00
        E 96 93 29 77
        E 864 83 29 00
        E 96 93 2b 77
        E 864 83 2b 00
        E 96 93 25 77
        E 864 83 25 00
        E 96 93 26 77
        E 864 83 26 00
        E 96 93 28 77
        E 864 83 28 00
        E 96 93 29 77
        E 864 83 29 00
        E 96 93 2c 77
        E 864 83 2c 00
        E 96 93 2b 77
        E 864 83 2b 00
        E 96 93 2b 77
        E 864 83 2b 00
        E 96 93 2b 77
        E 864 83 2b 00
        E 96 93 25 77
        E 864 83 25 00
        E 96 93 26 77
        E 864 83 26 00
        E 96 93 28 77
        E 864 83 28 00
        E 96 93 29 77
        E 864 83 29 00
        E 96 93 2c 77
        E 864 83 2c 00
        E 96 93 2b 77
        E 864 83 2b 00
        E 96 93 2b 77
        E 864 83 2b 00
        E 96 93 2b 77
        E 864 83 2b 00
        E 96 93 25 77
        E 864 83 25 00
        E 96 93 26 77
        E 864 83 26 00
        E 96 93 21 77
        E 864 83 21 00
        E 96 93 21 77
        E 864 83 21 00
        E 96 93 25 77
        E 864 83 25 00
        E 96 93 24 77
        E 864 83 24 00
        E 96 93 23 77
        E 864 83 23 00
        E 96 93 1f 77
        E 864 83 1f 00
        E 96 93 20 77
        E 864 83 20 00
        E 96 93 1f 77
        E 864 83 1f 00
        E 96 93 1f 77
        E 864 83 1f 00
        E 96 93 1f 77
        E 864 83 1f 00
        E 96 93 1c 77
        E 864 83 1c 00
        E 96 93 1c 77
        E 864 83 1c 00
        E 96 93 1d 77
        E 864 83 1d 00
        E 96 93 1d 77
        E 864 83 1d 00
        E 96 93 1c 77
        E 864 83 1c 00
        E 96 93 1c 77
        E 864 83 1c 00
        E 96 93 1d 77
        E 864 83 1d 00
        E 96 93 1d 77
        E 864 83 1d 00
        E 96 93 20 77
        E 864 83 20 00
        E 96 93 1f 77
        E 864 83 1f 00
        E 96 93 1c 77
        E 864 83 1c 00
        E 96 93 1f 77
        E 864 83 1f 00
        E 96 93 1c 77
        E 864 83 1c 00
        E 96 93 1c 77
        E 864 83 1c 00
        E 96 93 1d 77
        E 864 83 1d 00
        E 96 93 1d 77
        E 864 83 1d 00
        E 96 93 20 77
        E 864 83 20 00
        E 96 93 1f 77
        E 864 83 1f 00
        E 96 93 1c 77
        E 864 83 1c 00
        E 96 93 1f 77
        E 864 83 1f 00
        E 96 93 1c 77
        E 864 83 1c 00
        E 96 93 1c 77
        E 864 83 1c 00
        E 96 93 1d 77
        E 864 83 1d 00
        E 96 93 1d 77
        E 864 83 1d 00
        E 96 93 20 77
        E 864 83 20 00
        E 96 93 1f 77
        E 864 83 1f 00
        E 96 93 23 77
        E 864 83 23 00
        E 96 93 23 77
        E 864 83 23 00
        E 96 93 27 77
        E 864 83 27 00
        E 96 93 26 77
        E 864 83 26 00
        E 96 93 28 77
        E 864 83 28 00
        E 96 93 29 77
        E 864 83 29 00
        E 96 93 2c 77
        E 864 83 2c 00
        E 96 93 2b 77
        E 864 83 2b 00
        E 96 93 2b 77
        E 864 83 2b 00
        E 96 93 2b 77
        E 864 83 2b 00
        E 96 93 25 77
        E 864 83 25 00
        E 96 93 26 77
        E 864 83 26 00
        E 96 93 26 77
        E 864 83 26 00
        E 96 93 29 77
        E 864 83 29 00
        E 96 93 23 77
        E 864 83 23 00
        E 96 93 24 77
        E 864 83 24 00
        E 96 93 26 77
        E 864 83 26 00
        E 96 93 28 77
        E 864 83 28 00
        E 96 93 2c 77
        E 864 83 2c 00
        E 96 93 2b 77
        E 864 83 2b 00
        E 96 93 2f 77
        E 864 83 2f 00
        E 96 93 2f 77
        E 864 83 2f 00
        E 96 93 30 77
        E 864 83 30 00
        E 96 93 30 77
        E 864 83 30 00
        E 96 93 2d 77
        E 864 83 2d 00
        E 96 93 2d 77
        E 864 83 2d 00
        E 96 93 30 77
        E 864 83 30 00
        E 96 93 30 77
        E 864 83 30 00
        E 96 93 30 77
        E 864 83 30 00
        E 96 93 2d 77
        E 864 83 2d 00
        E 96 93 2d 77
        E 864 83 2d 00
        E 0 b3 7b 00
        E 1 ff 2f 00
      >
    >
  >
  <TRACK
    NAME "Cello"
    PEAKCOL 4284186559
    VOLPAN 1.000000 0 1 -1
    MIDIOUT -1
    ISBUS 0 0
    <ITEM
      POSITION 2.867542
      LENGTH 68.667341
      NAME "Cello"
      VOLPAN 1 0 1 -1
      <SOURCE MIDI
        HASDATA 1 960 QN
        E 0 c4 2a 00
        E 3854 94 32 55
        E 3840 84 32 00
        E 3837 94 2f 59
        E 3840 84 2f 00
        E 3841 94 32 54
        E 3838 94 32 59
        E 2 84 32 00
        E 3838 84 32 00
        E 3 94 32 54
        E 3838 94 35 55
        E 2 84 32 00
        E 3828 94 30 55
        E 10 84 35 00
        E 3830 84 30 00
        E 11 94 32 57
        E 3831 94 35 59
        E 9 84 32 00
        E 3831 84 35 00
        E 9 94 39 55
        E 3830 94 37 57
        E 10 84 39 00
        E 3830 84 37 00
        E 6 94 39 54
        E 3835 94 3e 59
        E 5 84 39 00
        E 3835 84 3e 00
        E 8 94 39 54
        E 3840 84 39 00
        E 3 94 37 57
        E 3832 94 39 55
        E 8 84 37 00
        E 3832 84 39 00
        E 1 94 37 59
        E 3840 84 37 00
        E 7683 94 32 59
        E 3840 84 32 00
        E 3838 94 32 59
        E 3840 84 32 00
        E 0 b4 7b 00
        E 1 ff 2f 00
      >
    >
  >
  <TRACK
    NAME "Strings"
    PEAKCOL 4284186559
    VOLPAN 1.000000 0 1 -1
    MIDIOUT -1
    ISBUS 0 0
    <ITEM
      POSITION 0.005917
      LENGTH 71.530509
      NAME "Strings"
      VOLPAN 1 0 1 -1
      <SOURCE MIDI
        HASDATA 1 960 QN
        E 0 c5 30 00
        E 8 95 46 30
        E 2 95 45 30
        E 0 95 46 30
        E 1903 95 46 30
        E 0 95 41 30
        E 3 95 46 30
        E 9 85 45 00
        E 3 85 46 00
        E 2 85 46 00
        E 0 95 46 30
        E 1887 85 46 00
        E 2 85 41 00
        E 3 85 46 00
        E 9 95 46 30
        E 9 95 3e 30
        E 5 95 46 30
        E 9 85 46 00
        E 1893 85 46 00
        E 13 85 3e 00
        E 3 85 46 00
        E 3 95 32 30
        E 2 95 46 30
        E 1915 85 46 00
        E 13 85 32 00
        E 1896 95 41 30
        E 16 95 46 30
        E 1 95 46 30
        E 3 95 46 30
        E 2 95 46 30
        E 1906 85 41 00
        E 0 85 46 00
        E 3 95 46 30
        E 1 85 46 00
        E 5 85 46 00
        E 10 85 46 00
        E 1901 95 3e 30
        E 4 85 46 00
        E 4 95 46 30
        E 1898 95 46 30
        E 14 85 3e 00
        E 3 95 46 30
        E 3 95 45 30
        E 4 85 46 00
        E 1894 85 46 00
        E 1 85 46 00
        E 4 95 32 30
        E 19 85 45 00
        E 1889 85 32 00
        E 23 95 3e 30
        E 2 95 46 30
        E 1 95 46 30
        E 7 95 46 30
        E 0 95 32 30
        E 3 95 46 30
        E 1893 85 46 00
        E 1 95 46 30
        E 2 95 46 30
        E 1 95 46 30
        E 1 95 46 30
        E 4 95 32 30
        E 4 95 46 30
        E 1 85 3e 00
        E 0 95 3e 30
        E 2 95 46 30
        E 14 85 46 00
        E 0 85 46 00
        E 6 85 46 00
        E 1 85 32 00
        E 1872 85 46 00
        E 10 85 46 00
        E 2 85 46 00
        E 4 95 46 30
        E 4 95 46 30
        E 0 95 46 30
        E 2 95 32 30
        E 2 85 46 00
        E 1 85 3e 00
        E 0 95 3e 30
        E 2 85 46 00
        E 2 85 32 00
        E 3 95 46 30
        E 2 95 46 30
        E 2 95 46 30
        E 10 85 46 00
        E 1881 85 32 00
        E 9 95 32 30
        E 1 85 46 00
        E 1 85 46 00
        E 1 85 46 00
        E 1 95 46 30
        E 1 85 46 00
        E 0 85 46 00
        E 0 95 45 30
        E 1 95 41 30
        E 3 85 3e 00
        E 0 95 3e 30
        E 4 95 46 30
        E 2 85 46 00
        E 1 95 32 30
        E 2 95 46 30
        E 1892 85 32 00
        E 5 95 43 30
        E 2 95 32 30
        E 1 85 32 00
        E 8 95 46 30
        E 0 95 46 30
        E 2 85 46 00
        E 1 85 3e 00
        E 0 95 3e 30
        E 2 95 46 30
        E 1 85 41 00
        E 3 95 46 30
        E 0 95 46 30
        E 1 85 45 00
        E 4 85 46 00
        E 11 85 46 00
        E 1873 85 32 00
        E 12 85 46 00
        E 0 85 46 00
        E 1 85 46 00
        E 1 85 46 00
        E 0 95 46 30
        E 1 95 46 30
        E 2 85 46 00
        E 4 85 43 00
        E 4 85 3e 00
        E 0 95 3e 30
        E 1 95 32 30
        E 0 95 32 30
        E 4 95 46 30
        E 6 95 43 30
        E 3 95 46 30
        E 1889 85 46 00
        E 5 85 32 00
        E 1 95 46 30
        E 1 95 46 30
        E 8 95 41 30
        E 1 85 32 00
        E 0 95 46 30
        E 1 85 3e 00
        E 0 95 3e 30
        E 1 85 43 00
        E 1 95 46 30
        E 2 85 46 00
        E 7 95 46 30
        E 1 95 46 30
        E 4 85 46 00
        E 1 85 46 00
        E 1886 85 46 00
        E 1 85 46 00
        E 0 85 41 00
        E 5 85 46 00
        E 0 95 46 30
        E 1 95 32 30
        E 2 85 46 00
        E 0 95 46 30
        E 6 95 46 30
        E 2 85 3e 00
        E 0 95 3e 30
        E 0 95 32 30
        E 2 95 46 30
        E 10 95 46 30
        E 3 85 46 00
        E 14 85 46 00
        E 1868 85 32 00
        E 3 85 46 00
        E 11 95 46 30
        E 4 95 46 30
        E 2 85 46 00
        E 3 85 3e 00
        E 0 95 40 30
        E 4 95 46 30
        E 1 85 46 00
        E 2 85 46 00
        E 4 95 43 30
        E 0 95 46 30
        E 0 95 46 30
        E 0 95 46 30
        E 1 85 32 00
        E 5 85 46 00
        E 1876 85 46 00
        E 19 95 46 30
        E 2 95 46 30
        E 1 85 46 00
        E 0 85 46 00
        E 1 95 46 30
        E 1 85 46 00
        E 1 95 46 30
        E 2 85 40 00
        E 0 95 40 32
        E 1 95 46 30
        E 1 95 46 30
        E 1 95 46 30
        E 16 85 43 00
        E 2 85 46 00
        E 7 85 46 00
        E 1878 95 46 30
        E 2 85 46 00
        E 2 85 46 00
        E 0 85 46 00
        E 8 85 46 00
        E 2 85 40 00
        E 0 95 46 30
        E 0 95 3e 32
        E 0 95 46 30
        E 1 95 46 30
        E 5 85 46 00
        E 1 85 46 00
        E 0 95 32 30
        E 0 95 46 30
        E 0 95 46 30
        E 2 85 46 00
        E 1898 95 46 30
        E 3 85 46 00
        E 1 85 46 00
        E 0 85 32 00
        E 1 95 46 30
        E 5 85 46 00
        E 2 95 46 30
        E 1 85 3e 00
        E 0 95 3e 33
        E 2 95 46 30
        E 3 95 46 30
        E 6 95 43 30
        E 1 95 46 30
        E 5 85 46 00
        E 1 85 46 00
        E 1 85 46 00
        E 1882 85 46 00
        E 1 85 46 00
        E 7 85 46 00
        E 1 85 46 00
        E 2 95 46 30
        E 5 95 32 30
        E 2 95 32 30
        E 1 85 3e 00
        E 0 95 3e 33
        E 5 85 46 00
        E 4 95 46 30
        E 0 95 46 30
        E 1 95 32 30
        E 2 85 46 00
        E 2 95 46 30
        E 5 85 43 00
        E 1889 95 46 30
        E 2 95 46 30
        E 0 95 46 30
        E 1 85 46 00
        E 2 85 46 00
        E 1 85 32 00
        E 6 85 3e 00
        E 0 85 46 00
        E 0 95 3e 33
        E 3 95 46 30
        E 0 95 46 30
        E 4 95 46 30
        E 1 85 46 00
        E 3 85 32 00
        E 0 95 46 30
        E 1 85 32 00
        E 1892 85 46 00
        E 7 85 46 00
        E 3 85 46 00
        E 0 95 32 30
        E 2 85 46 00
        E 0 95 46 30
        E 3 95 45 30
        E 1 85 3e 00
        E 0 95 3e 35
        E 4 95 32 30
        E 0 95 41 30
        E 1 85 46 00
        E 2 95 46 30
        E 0 95 46 30
        E 7 85 46 00
        E 2 85 46 00
        E 1885 85 46 00
        E 7 85 41 00
        E 4 95 41 30
        E 1 95 45 30
        E 3 85 46 00
        E 1 95 46 30
        E 3 85 3e 00
        E 0 95 3e 35
        E 5 95 46 30
        E 2 95 32 30
        E 1 95 46 30
        E 1 85 46 00
        E 2 85 45 00
        E 1 85 32 00
        E 1 95 46 30
        E 7 85 32 00
        E 1881 85 45 00
        E 6 95 46 30
        E 4 95 32 30
        E 3 85 46 00
        E 2 95 46 30
        E 3 95 46 30
        E 1 85 3e 00
        E 0 95 3e 35
        E 2 85 46 00
        E 1 95 46 30
        E 4 85 32 00
        E 1 85 41 00
        E 2 95 46 30
        E 3 85 46 00
        E 0 95 46 30
        E 8 85 46 00
        E 1885 95 32 30
        E 1 85 46 00
        E 2 95 46 30
        E 2 85 46 00
        E 1 85 46 00
        E 4 85 46 00
        E 1 85 46 00
        E 1 95 32 30
        E 1 85 32 00
        E 1 85 3e 00
        E 0 95 46 30
        E 0 95 32 30
        E 0 95 3e 35
        E 10 85 46 00
        E 1 95 32 30
        E 1 95 43 30
        E 1891 85 32 00
        E 5 85 46 00
        E 0 95 46 30
        E 4 95 32 30
        E 2 85 32 00
        E 1 85 32 00
        E 0 95 46 30
        E 3 95 46 30
        E 2 85 3e 00
        E 0 95 3e 37
        E 2 95 46 30
        E 2 95 46 30
        E 1 85 43 00
        E 8 95 46 30
        E 5 85 46 00
        E 4 85 32 00
        E 1875 85 32 00
        E 6 85 46 00
        E 3 95 32 30
        E 3 95 46 30
        E 6 95 46 30
        E 3 85 46 00
        E 0 95 46 30
        E 1 85 46 00
        E 1 85 3e 00
        E 0 95 3e 37
        E 4 95 32 30
        E 3 85 46 00
        E 1 85 46 00
        E 1 95 46 30
        E 3 95 45 30
        E 7 85 46 00
        E 1888 95 46 30
        E 2 95 43 30
        E 3 95 43 30
        E 4 95 46 30
        E 2 85 32 00
        E 2 85 3e 00
        E 0 95 3e 37
        E 3 85 46 00
        E 0 85 46 00
        E 2 85 32 00
        E 1 95 46 30
        E 1 85 46 00
        E 5 95 46 30
        E 1 95 46 30
        E 11 85 46 00
        E 1 85 45 00
        E 1866 85 46 00
        E 1 85 43 00
        E 5 85 43 00
        E 11 95 46 30
        E 2 95 46 30
        E 0 95 46 30
        E 5 95 46 30
        E 5 85 3e 00
        E 0 95 3e 38
        E 1 85 46 00
        E 6 95 46 30
        E 0 95 46 30
        E 1 95 43 30
        E 12 85 46 00
        E 0 85 46 00
        E 5 85 46 00
        E 1867 85 46 00
        E 8 85 46 00
        E 6 95 46 30
        E 2 95 45 30
        E 2 95 41 30
        E 1 85 46 00
        E 9 85 3e 00
        E 0 95 3e 38
        E 5 85 46 00
        E 1 95 46 30
        E 0 95 46 30
        E 4 95 46 30
        E 1 85 46 00
        E 0 95 46 30
        E 8 85 43 00
        E 4 85 46 00
        E 1883 95 46 30
        E 4 95 46 30
        E 2 95 41 30
        E 1 85 46 00
        E 0 95 46 30
        E 0 95 32 30
        E 5 85 46 00
        E 1 95 46 30
        E 1 85 3e 00
        E 0 95 3e 3a
        E 2 85 41 00
        E 3 85 45 00
        E 3 85 46 00
        E 3 95 46 30
        E 9 85 46 00
        E 1 85 46 00
        E 1880 85 41 00
        E 3 85 46 00
        E 0 85 46 00
        E 2 95 43 30
        E 3 95 46 30
        E 2 85 46 00
        E 0 95 46 30
        E 3 95 46 30
        E 6 85 3e 00
        E 0 95 46 30
        E 0 95 3e 3a
        E 6 85 46 00
        E 2 85 32 00
        E 3 95 32 30
        E 2 95 46 30
        E 9 85 46 00
        E 1868 85 43 00
        E 20 85 46 00
        E 0 85 46 00
        E 0 95 46 30
        E 5 95 43 30
        E 3 95 46 30
        E 2 85 3e 00
        E 0 95 3e 3a
        E 5 95 46 30
        E 1 95 46 30
        E 1 95 32 30
        E 1 85 46 00
        E 1 85 46 00
        E 0 95 46 30
        E 1 85 32 00
        E 9 85 46 00
        E 1880 85 43 00
        E 7 95 46 30
        E 2 95 46 30
        E 8 95 46 30
        E 2 85 46 00
        E 1 95 46 30
        E 1 85 3e 00
        E 0 95 3e 3a
        E 8 85 46 00
        E 1 95 46 30
        E 4 95 32 30
        E 0 95 46 30
        E 4 85 46 00
        E 2 85 46 00
        E 3 85 46 00
        E 1 85 32 00
        E 1880 85 46 00
        E 1 85 46 00
        E 8 95 46 30
        E 2 95 41 30
        E 0 95 46 30
        E 4 95 46 30
        E 1 85 46 00
        E 0 85 46 00
        E 0 95 46 30
        E 1 85 46 00
        E 0 85 3e 00
        E 0 95 3e 3a
        E 3 95 46 30
        E 5 85 32 00
        E 2 85 46 00
        E 1 95 46 30
        E 1885 85 46 00
        E 9 85 46 00
        E 3 85 46 00
        E 2 85 41 00
        E 0 95 32 30
        E 1 85 46 00
        E 1 95 46 30
        E 1 85 46 00
        E 7 85 3e 00
        E 0 95 3e 3c
        E 1 95 32 30
        E 1 85 46 00
        E 1 95 32 30
        E 2 95 32 30
        E 5 95 46 30
        E 2 95 43 30
        E 1897 95 46 30
        E 3 95 32 30
        E 2 85 32 00
        E 2 95 46 30
        E 3 85 46 00
        E 0 95 46 30
        E 1 85 3e 00
        E 0 95 3e 3c
        E 1 85 32 00
        E 1 95 46 30
        E 4 85 46 00
        E 0 85 43 00
        E 0 95 32 30
        E 2 95 43 30
        E 10 85 32 00
        E 6 85 32 00
        E 1867 85 46 00
        E 9 85 46 00
        E 9 95 46 30
        E 1 95 32 30
        E 5 95 46 30
        E 1 95 46 30
        E 4 85 32 00
        E 0 85 3e 00
        E 2 85 46 00
        E 1 85 32 00
        E 8 95 46 30
        E 4 85 46 00
        E 12 85 43 00
        E 1880 85 46 00
        E 5 95 32 30
        E 2 95 46 30
        E 4 85 46 00
        E 6 85 46 00
        E 1 95 45 30
        E 2 85 46 00
        E 1 85 32 00
        E 1902 85 32 00
        E 8 85 46 00
        E 2 95 3c 3f
        E 2 95 46 30
        E 8 85 45 00
        E 1895 85 46 00
        E 8 95 46 30
        E 7 85 3c 00
        E 1902 85 46 00
        E 23 95 46 30
        E 1912 95 43 30
        E 5 95 46 30
        E 6 85 46 00
        E 1891 85 43 00
        E 11 95 46 30
        E 10 95 3e 41
        E 2 85 46 00
        E 1905 95 45 30
        E 5 85 46 00
        E 8 85 3e 00
        E 0 95 3e 41
        E 14 95 32 30
        E 1876 85 45 00
        E 30 85 3e 00
        E 8 95 46 30
        E 2 85 32 00
        E 3 95 46 30
        E 1900 95 46 30
        E 2 95 46 30
        E 10 85 46 00
        E 17 85 46 00
        E 1907 85 46 00
        E 1 85 46 00
        E 0 b5 7b 00
        E 1 ff 2f 00
      >
    >
  >
>
