<REAPER_PROJECT 0.1 "7.0" 1700000000
  TEMPO 100.000000 4 4
  SAMPLERATE 48000 0 0
  RENDER_FILE ""
  RENDER_FMT 0 2 0
  RENDER_1X 0
  RENDER_RANGE 1 0 63.980000 0 0
  RENDER_RESAMPLE 3 0 1
  <MASTERTRACK
    VOLPAN 1 0 1 -1
    DEFCHAN 0
  >
  <TRACK
    NAME "Lead"
    PEAKCOL 4284506208
    VOLPAN 1.000000 0 1 -1
    MIDIOUT -1
    ISBUS 0 0
    <ITEM
      POSITION 0.000000
      LENGTH 57.828326
      NAME "Lead"
      VOLPAN 1 0 1 -1
      <SOURCE MIDI
        HASDATA 1 960 QN
        E 0 c0 00 00
        E 0 90 4f 78
        E 1329 90 4d 49
        E 217 80 4f 00
        E 626 90 4b 49
        E 179 80 4d 00
        E 290 80 4b 00
        E 71 90 4d 49
        E 703 80 4d 00
        E 752 90 4f 4c
        E 740 90 52 49
        E 189 80 4f 00
        E 740 80 52 00
        E 161 90 4f 56
        E 929 80 4f 00
        E 693 90 52 49
        E 836 80 52 00
        E 254 90 4f 6a
        E 1022 80 4f 00
        E 312 90 50 51
        E 841 90 52 51
        E 88 80 50 00
        E 841 80 52 00
        E 282 90 52 54
        E 929 80 52 00
        E 170 90 56 49
        E 929 80 56 00
        E 48 90 52 4c
        E 422 80 52 00
        E 900 90 52 49
        E 836 80 52 00
        E 367 90 4f 5b
        E 1022 80 4f 00
        E 510 90 4f 4f
        E 469 80 4f 00
        E 366 90 50 4e
        E 561 90 4f 5e
        E 234 80 4f 00
        E 134 80 50 00
        E 956 90 52 49
        E 703 80 52 00
        E 143 90 4f 49
        E 836 80 4f 00
        E 269 90 50 49
        E 422 80 50 00
        E 645 90 4f 51
        E 1022 80 4f 00
        E 188 90 4d 49
        E 929 80 4d 00
        E 303 90 4b 53
        E 929 80 4b 00
        E 30 90 4d 63
        E 929 80 4d 00
        E 48 90 4f 4f
        E 929 80 4f 00
        E 139 90 4d 4a
        E 422 80 4d 00
        E 679 90 4f 49
        E 211 80 4f 00
        E 885 90 4b 66
        E 217 90 4d 51
        E 216 90 50 51
        E 24 80 4d 00
        E 193 90 52 51
        E 23 80 50 00
        E 194 90 54 51
        E 23 80 52 00
        E 132 80 4b 00
        E 62 90 57 79
        E 23 80 54 00
        E 533 90 57 49
        E 929 80 57 00
        E 147 90 59 49
        E 242 80 57 00
        E 687 80 59 00
        E 169 90 5b 49
        E 929 80 5b 00
        E 165 90 57 5e
        E 1623 90 59 49
        E 251 80 57 00
        E 585 80 59 00
        E 263 90 5b 49
        E 773 80 5b 00
        E 1087 90 59 4e
        E 469 80 59 00
        E 376 90 57 51
        E 929 80 57 00
        E 418 90 59 65
        E 834 90 57 68
        E 95 80 59 00
        E 1133 90 56 49
        E 178 80 57 00
        E 658 80 56 00
        E 132 90 57 49
        E 258 80 57 00
        E 280 90 59 49
        E 599 90 56 59
        E 240 80 56 00
        E 183 80 59 00
        E 176 90 52 7c
        E 611 90 54 49
        E 240 80 54 00
        E 86 80 52 00
        E 284 90 57 49
        E 844 90 56 49
        E 93 80 57 00
        E 836 80 56 00
        E 534 90 57 49
        E 172 90 5b 6b
        E 297 80 57 00
        E 632 80 5b 00
        E 160 90 59 56
        E 821 90 56 49
        E 15 80 59 00
        E 225 80 56 00
        E 581 90 52 49
        E 1022 80 52 00
        E 313 90 54 49
        E 854 90 57 6a
        E 75 80 54 00
        E 854 80 57 00
        E 164 90 56 53
        E 929 80 56 00
        E 143 90 57 49
        E 929 80 57 00
        E 174 90 57 49
        E 211 80 57 00
        E 881 90 56 49
        E 211 80 56 00
        E 877 90 57 49
        E 515 80 57 00
        E 147 90 54 49
        E 240 80 54 00
        E 421 90 52 63
        E 421 90 54 49
        E 240 80 54 00
        E 180 90 57 5b
        E 88 80 52 00
        E 615 80 57 00
        E 409 90 56 49
        E 469 80 56 00
        E 1158 90 57 49
        E 540 90 54 49
        E 163 80 57 00
        E 77 80 54 00
        E 300 90 52 56
        E 545 90 54 49
        E 291 80 52 00
        E 131 80 54 00
        E 137 90 52 76
        E 1031 80 52 00
        E 45 90 4f 49
        E 1022 80 4f 00
        E 74 90 52 49
        E 929 80 52 00
        E 168 90 4f 59
        E 929 80 4f 00
        E 263 90 50 49
        E 469 80 50 00
        E 513 90 4f 49
        E 929 80 4f 00
        E 702 90 4d 49
        E 836 80 4d 00
        E 258 90 4b 49
        E 1022 80 4b 00
        E 77 90 4a 49
        E 929 80 4a 00
        E 148 90 4b 49
        E 929 80 4b 00
        E 169 90 4f 6a
        E 1193 90 4d 49
        E 213 80 4f 00
        E 228 90 4f 49
        E 469 80 4f 00
        E 19 80 4d 00
        E 590 90 4d 49
        E 211 80 4d 00
        E 892 90 4b 49
        E 422 80 4b 00
        E 661 90 4d 49
        E 1022 80 4d 00
        E 293 90 4f 4e
        E 867 90 4d 54
        E 62 80 4f 00
        E 172 80 4d 00
        E 863 90 4b 5b
        E 929 80 4b 00
        E 137 90 4d 5c
        E 929 80 4d 00
        E 181 90 4d 49
        E 522 90 4b 49
        E 314 80 4d 00
        E 522 80 4b 00
        E 0 b0 7b 00
        E 1 ff 2f 00
      >
    >
  >
  <TRACK
    NAME "Sax"
    PEAKCOL 4282040170
    VOLPAN 1.000000 0 1 -1
    MIDIOUT -1
    ISBUS 0 0
    <ITEM
      POSITION 0.300000
      LENGTH 56.350000
      NAME "Sax"
      VOLPAN 1 0 1 -1
      <SOURCE MIDI
        HASDATA 1 960 QN
        E 0 c1 42 00
        E 480 91 46 68
        E 240 81 46 00
        E 480 91 4b 6b
        E 480 81 4b 00
        E 1200 91 5a 68
        E 480 81 5a 00
        E 480 91 5a 66
        E 240 81 5a 00
        E 0 91 5a 6a
        E 480 81 5a 00
        E 480 91 57 65
        E 240 81 57 00
        E 0 91 56 65
        E 480 81 56 00
        E 1440 91 59 63
        E 480 81 59 00
        E 1200 91 59 68
        E 240 81 59 00
        E 1440 91 4e 6b
        E 720 81 4e 00
        E 1200 91 4b 6a
        E 240 81 4b 00
        E 0 91 4c 65
        E 240 81 4c 00
        E 6000 91 48 65
        E 480 81 48 00
        E 0 91 47 6a
        E 240 81 47 00
        E 0 91 46 6a
        E 240 81 46 00
        E 0 91 47 6a
        E 240 81 47 00
        E 0 91 52 68
        E 480 81 52 00
        E 0 91 51 6b
        E 480 81 51 00
        E 0 91 4f 6b
        E 240 81 4f 00
        E 0 91 4e 68
        E 720 81 4e 00
        E 0 91 57 66
        E 480 81 57 00
        E 0 91 56 6b
        E 480 81 56 00
        E 0 91 57 6a
        E 480 81 57 00
        E 0 91 58 66
        E 240 81 58 00
        E 0 91 59 6a
        E 240 81 59 00
        E 0 91 5a 65
        E 240 81 5a 00
        E 0 91 5a 6b
        E 240 81 5a 00
        E 0 91 5a 68
        E 480 81 5a 00
        E 0 91 59 66
        E 240 81 59 00
        E 0 91 57 65
        E 240 81 57 00
        E 480 91 53 68
        E 720 81 53 00
        E 0 91 52 66
        E 240 81 52 00
        E 0 91 50 6a
        E 240 81 50 00
        E 0 91 56 65
        E 480 81 56 00
        E 0 91 57 66
        E 720 81 57 00
        E 0 91 5a 65
        E 480 81 5a 00
        E 0 91 5a 65
        E 480 81 5a 00
        E 0 91 56 6b
        E 240 81 56 00
        E 0 91 55 68
        E 480 81 55 00
        E 0 91 50 66
        E 480 81 50 00
        E 0 91 50 6a
        E 720 81 50 00
        E 0 91 4f 66
        E 480 81 4f 00
        E 0 91 50 68
        E 240 81 50 00
        E 0 91 5a 66
        E 240 81 5a 00
        E 0 91 5a 68
        E 480 81 5a 00
        E 0 91 59 65
        E 480 81 59 00
        E 0 91 58 63
        E 480 81 58 00
        E 0 91 57 6b
        E 480 81 57 00
        E 0 91 56 68
        E 720 81 56 00
        E 0 91 57 6b
        E 480 81 57 00
        E 0 91 58 6b
        E 480 81 58 00
        E 0 91 54 6a
        E 480 81 54 00
        E 0 91 53 65
        E 480 81 53 00
        E 0 91 59 68
        E 240 81 59 00
        E 0 91 5a 65
        E 480 81 5a 00
        E 0 91 5a 68
        E 480 81 5a 00
        E 0 91 5a 68
        E 720 81 5a 00
        E 480 91 5a 68
        E 240 81 5a 00
        E 0 91 59 65
        E 480 81 59 00
        E 0 91 55 6a
        E 480 81 55 00
        E 0 91 54 68
        E 480 81 54 00
        E 0 91 55 65
        E 480 81 55 00
        E 0 91 56 65
        E 480 81 56 00
        E 0 91 55 6b
        E 240 81 55 00
        E 0 91 55 6a
        E 720 81 55 00
        E 0 91 5a 65
        E 240 81 5a 00
        E 0 91 5a 66
        E 480 81 5a 00
        E 0 91 59 6b
        E 720 81 59 00
        E 0 91 51 65
        E 480 81 51 00
        E 240 91 51 6a
        E 480 81 51 00
        E 0 91 52 68
        E 480 81 52 00
        E 0 91 53 68
        E 240 81 53 00
        E 0 91 52 6a
        E 480 81 52 00
        E 0 91 52 66
        E 240 81 52 00
        E 0 91 51 66
        E 720 81 51 00
        E 0 91 4f 68
        E 480 81 4f 00
        E 0 91 51 68
        E 720 81 51 00
        E 480 91 51 65
        E 480 81 51 00
        E 0 91 50 66
        E 720 81 50 00
        E 0 91 4e 63
        E 480 81 4e 00
        E 0 91 4d 68
        E 480 81 4d 00
        E 0 91 4e 6b
        E 240 81 4e 00
        E 0 91 4e 6b
        E 240 81 4e 00
        E 0 91 4b 66
        E 480 81 4b 00
        E 0 91 48 6b
        E 240 81 48 00
        E 0 91 46 68
        E 480 81 46 00
        E 480 91 47 6a
        E 480 81 47 00
        E 0 91 48 68
        E 240 81 48 00
        E 0 91 46 66
        E 240 81 46 00
        E 0 91 46 63
        E 480 81 46 00
        E 0 91 4b 68
        E 720 81 4b 00
        E 0 91 4a 68
        E 480 81 4a 00
        E 0 91 4b 68
        E 480 81 4b 00
        E 0 91 4c 68
        E 240 81 4c 00
        E 0 91 4b 68
        E 240 81 4b 00
        E 0 91 4a 68
        E 240 81 4a 00
        E 0 91 49 63
        E 480 81 49 00
        E 0 91 46 63
        E 480 81 46 00
        E 0 91 46 66
        E 480 81 46 00
        E 0 91 47 6b
        E 240 81 47 00
        E 0 91 49 66
        E 240 81 49 00
        E 0 91 48 66
        E 240 81 48 00
        E 0 91 46 65
        E 480 81 46 00
        E 0 91 46 66
        E 480 81 46 00
        E 0 91 46 6a
        E 240 81 46 00
        E 0 91 4a 68
        E 480 81 4a 00
        E 0 91 4b 68
        E 480 81 4b 00
        E 0 91 4a 68
        E 720 81 4a 00
        E 0 91 49 68
        E 480 81 49 00
        E 0 91 48 6a
        E 720 81 48 00
        E 0 91 46 6a
        E 480 81 46 00
        E 0 91 46 6a
        E 480 81 46 00
        E 0 91 46 68
        E 480 81 46 00
        E 0 91 46 6a
        E 720 81 46 00
        E 0 91 4b 6b
        E 720 81 4b 00
        E 0 91 4a 66
        E 240 81 4a 00
        E 0 91 4f 63
        E 480 81 4f 00
        E 0 91 4e 66
        E 480 81 4e 00
        E 0 91 4f 6a
        E 480 81 4f 00
        E 0 91 4e 63
        E 240 81 4e 00
        E 480 91 4f 6a
        E 480 81 4f 00
        E 0 91 48 6a
        E 240 81 48 00
        E 0 91 47 6a
        E 480 81 47 00
        E 0 91 46 65
        E 240 81 46 00
        E 0 91 46 6a
        E 240 81 46 00
        E 0 91 46 68
        E 480 81 46 00
        E 0 91 4b 6b
        E 240 81 4b 00
        E 0 91 4a 66
        E 480 81 4a 00
        E 240 91 4b 66
        E 480 81 4b 00
        E 0 91 4d 6a
        E 480 81 4d 00
        E 0 91 4a 6b
        E 720 81 4a 00
        E 0 91 4a 6a
        E 480 81 4a 00
        E 720 91 49 63
        E 480 81 49 00
        E 0 91 46 6a
        E 480 81 46 00
        E 720 91 4a 6b
        E 720 81 4a 00
        E 0 91 4e 68
        E 240 81 4e 00
        E 0 91 4f 6b
        E 480 81 4f 00
        E 2160 91 49 63
        E 720 81 49 00
        E 1920 91 5a 65
        E 240 81 5a 00
        E 240 91 59 66
        E 480 81 59 00
        E 4320 91 58 68
        E 720 81 58 00
        E 0 91 5a 6b
        E 480 81 5a 00
        E 960 91 5a 65
        E 240 81 5a 00
        E 0 b1 7b 00
        E 1 ff 2f 00
      >
    >
  >
  <TRACK
    NAME "Piano"
    PEAKCOL 4290756410
    VOLPAN 1.000000 0 1 -1
    MIDIOUT -1
    ISBUS 0 0
    <ITEM
      POSITION 0.300000
      LENGTH 57.235000
      NAME "Piano"
      VOLPAN 1 0 1 -1
      <SOURCE MIDI
        HASDATA 1 960 QN
        E 0 c2 00 00
        E 480 92 3a 59
        E 432 82 3a 00
        E 528 92 3a 74
        E 432 82 3a 00
        E 1488 92 3a 74
        E 216 82 3a 00
        E 744 92 37 59
        E 432 82 37 00
        E 528 92 33 74
        E 432 82 33 00
        E 528 92 33 59
        E 0 92 37 59
        E 432 82 33 00
        E 0 82 37 00
        E 1488 92 30 59
        E 432 82 30 00
        E 528 92 30 74
        E 432 82 30 00
        E 1488 92 30 74
        E 216 82 30 00
        E 1704 92 29 74
        E 432 82 29 00
        E 528 92 29 59
        E 432 82 29 00
        E 4368 92 2b 74
        E 0 92 2e 74
        E 216 82 2b 00
        E 0 82 2e 00
        E 744 92 2b 59
        E 432 82 2b 00
        E 528 92 2b 74
        E 432 82 2b 00
        E 528 92 2b 59
        E 432 82 2b 00
        E 528 92 2b 74
        E 216 82 2b 00
        E 744 92 2c 59
        E 0 92 30 59
        E 432 82 2c 00
        E 0 82 30 00
        E 528 92 2c 74
        E 0 92 30 74
        E 432 82 2c 00
        E 0 82 30 00
        E 528 92 2c 59
        E 0 92 30 59
        E 432 82 2c 00
        E 0 82 30 00
        E 528 92 2c 74
        E 0 92 30 74
        E 216 82 2c 00
        E 0 82 30 00
        E 744 92 29 59
        E 0 92 32 59
        E 432 82 29 00
        E 0 82 32 00
        E 528 92 29 74
        E 432 82 29 00
        E 528 92 29 59
        E 432 82 29 00
        E 528 92 29 74
        E 216 82 29 00
        E 744 92 2b 59
        E 0 92 2e 59
        E 432 82 2b 00
        E 0 82 2e 00
        E 528 92 2b 74
        E 0 92 2e 74
        E 432 82 2b 00
        E 0 82 2e 00
        E 528 92 2b 59
        E 0 92 2e 59
        E 432 82 2b 00
        E 0 82 2e 00
        E 528 92 2b 74
        E 0 92 2e 74
        E 216 82 2b 00
        E 0 82 2e 00
        E 744 92 2c 59
        E 0 92 30 59
        E 432 82 2c 00
        E 0 82 30 00
        E 528 92 2c 74
        E 0 92 30 74
        E 432 82 2c 00
        E 0 82 30 00
        E 528 92 2c 59
        E 0 92 30 59
        E 432 82 2c 00
        E 0 82 30 00
        E 528 92 2c 74
        E 0 92 30 74
        E 216 82 2c 00
        E 0 82 30 00
        E 744 92 29 59
        E 0 92 32 59
        E 432 82 29 00
        E 0 82 32 00
        E 528 92 29 74
        E 432 82 29 00
        E 528 92 29 59
        E 432 82 29 00
        E 528 92 29 74
        E 216 82 29 00
        E 744 92 2b 59
        E 0 92 2e 59
        E 432 82 2b 00
        E 0 82 2e 00
        E 528 92 2b 74
        E 0 92 2e 74
        E 432 82 2b 00
        E 0 82 2e 00
        E 528 92 2b 59
        E 0 92 2e 59
        E 432 82 2b 00
        E 0 82 2e 00
        E 528 92 2b 74
        E 0 92 2e 74
        E 216 82 2b 00
        E 0 82 2e 00
        E 744 92 2b 59
        E 0 92 2e 59
        E 432 82 2b 00
        E 0 82 2e 00
        E 528 92 2b 74
        E 0 92 2e 74
        E 432 82 2b 00
        E 0 82 2e 00
        E 528 92 2b 59
        E 0 92 2e 59
        E 432 82 2b 00
        E 0 82 2e 00
        E 528 92 2b 74
        E 0 92 2e 74
        E 216 82 2b 00
        E 0 82 2e 00
        E 744 92 2b 59
        E 432 82 2b 00
        E 528 92 2b 74
        E 432 82 2b 00
        E 528 92 2b 59
        E 432 82 2b 00
        E 528 92 2b 74
        E 216 82 2b 00
        E 744 92 2c 59
        E 0 92 30 59
        E 432 82 2c 00
        E 0 82 30 00
        E 528 92 2c 74
        E 0 92 30 74
        E 432 82 2c 00
        E 0 82 30 00
        E 528 92 2c 59
        E 0 92 30 59
        E 432 82 2c 00
        E 0 82 30 00
        E 528 92 2c 74
        E 0 92 30 74
        E 216 82 2c 00
        E 0 82 30 00
        E 744 92 29 59
        E 0 92 32 59
        E 432 82 29 00
        E 0 82 32 00
        E 528 92 29 74
        E 432 82 29 00
        E 528 92 29 59
        E 432 82 29 00
        E 528 92 29 74
        E 216 82 29 00
        E 744 92 2b 59
        E 0 92 2e 59
        E 432 82 2b 00
        E 0 82 2e 00
        E 528 92 2b 74
        E 0 92 2e 74
        E 432 82 2b 00
        E 0 82 2e 00
        E 528 92 2b 59
        E 0 92 2e 59
        E 432 82 2b 00
        E 0 82 2e 00
        E 528 92 2b 74
        E 0 92 2e 74
        E 216 82 2b 00
        E 0 82 2e 00
        E 744 92 2b 59
        E 432 82 2b 00
        E 528 92 2b 74
        E 432 82 2b 00
        E 528 92 2b 59
        E 432 82 2b 00
        E 528 92 2b 74
        E 216 82 2b 00
        E 744 92 2c 59
        E 0 92 30 59
        E 432 82 2c 00
        E 0 82 30 00
        E 528 92 2c 74
        E 0 92 30 74
        E 432 82 2c 00
        E 0 82 30 00
        E 528 92 2c 59
        E 0 92 30 59
        E 432 82 2c 00
        E 0 82 30 00
        E 528 92 2c 74
        E 0 92 30 74
        E 216 82 2c 00
        E 0 82 30 00
        E 744 92 29 59
        E 0 92 32 59
        E 432 82 29 00
        E 0 82 32 00
        E 4368 92 2e 74
        E 432 82 2e 00
        E 528 92 2b 59
        E 432 82 2b 00
        E 528 92 2b 74
        E 0 92 2e 74
        E 216 82 2b 00
        E 0 82 2e 00
        E 744 92 2c 59
        E 432 82 2c 00
        E 1488 92 30 59
        E 432 82 30 00
        E 2448 92 29 74
        E 432 82 29 00
        E 1488 92 29 74
        E 216 82 29 00
        E 3624 92 2e 74
        E 216 82 2e 00
        E 0 b2 7b 00
        E 1 ff 2f 00
      >
    >
  >
  <TRACK
    NAME "WalkBass"
    PEAKCOL 4286528191
    VOLPAN 1.000000 0 1 -1
    MIDIOUT -1
    ISBUS 0 0
    <ITEM
      POSITION 0.000000
      LENGTH 57.640000
      NAME "WalkBass"
      VOLPAN 1 0 1 -1
      <SOURCE MIDI
        HASDATA 1 960 QN
        E 0 c3 21 00
        E 0 93 1c 77
        E 864 83 1c 00
        E 96 93 1c 77
        E 864 83 1c 00
        E 96 93 1f 77
        E 864 83 1f 00
        E 96 93 25 77
        E 864 83 25 00
        E 96 93 24 77
        E 864 83 24 00
        E 96 93 27 77
        E 864 83 27 00
        E 96 93 27 77
        E 864 83 27 00
        E 96 93 2a 77
        E 864 83 2a 00
        E 96 93 29 77
        E 864 83 29 00
        E 96 93 27 77
        E 864 83 27 00
        E 96 93 29 77
        E 864 83 29 00
        E 96 93 2f 77
        E 864 83 2f 00
        E 96 93 2e 77
        E 864 83 2e 00
        E 96 93 2e 77
        E 864 83 2e 00
        E 96 93 2e 77
        E 864 83 2e 00
        E 96 93 32 77
        E 864 83 32 00
        E 96 93 32 77
        E 864 83 32 00
        E 96 93 32 77
        E 864 83 32 00
        E 96 93 2e 77
        E 864 83 2e 00
        E 96 93 31 77
        E 864 83 31 00
        E 96 93 30 77
        E 864 83 30 00
        E 96 93 32 77
        E 864 83 32 00
        E 96 93 32 77
        E 864 83 32 00
        E 96 93 32 77
        E 864 83 32 00
        E 96 93 32 77
        E 864 83 32 00
        E 96 93 30 77
        E 864 83 30 00
        E 96 93 2c 77
        E 864 83 2c 00
        E 96 93 2f 77
        E 864 83 2f 00
        E 96 93 2e 77
        E 864 83 2e 00
        E 96 93 2c 77
        E 864 83 2c 00
        E 96 93 2e 77
        E 864 83 2e 00
        E 96 93 32 77
        E 864 83 32 00
        E 96 93 32 77
        E 864 83 32 00
        E 96 93 32 77
        E 864 83 32 00
        E 96 93 2e 77
        E 864 83 2e 00
        E 96 93 28 77
        E 864 83 28 00
        E 96 93 29 77
        E 864 83 29 00
        E 96 93 2b 77
        E 864 83 2b 00
        E 96 93 2c 77
        E 864 83 2c 00
        E 96 93 2f 77
        E 864 83 2f 00
        E 96 93 2e 77
        E 864 83 2e 00
        E 96 93 2e 77
        E 864 83 2e 00
        E 96 93 2e 77
        E 864 83 2e 00
        E 96 93 32 77
        E 864 83 32 00
        E 96 93 32 77
        E 864 83 32 00
        E 96 93 32 77
        E 864 83 32 00
        E 96 93 2e 77
        E 864 83 2e 00
        E 96 93 32 77
        E 864 83 32 00
        E 96 93 32 77
        E 864 83 32 00
        E 96 93 32 77
        E 864 83 32 00
        E 96 93 2e 77
        E 864 83 2e 00
        E 96 93 31 77
        E 864 83 31 00
        E 96 93 30 77
        E 864 83 30 00
        E 96 93 2e 77
        E 864 83 2e 00
        E 96 93 2b 77
        E 864 83 2b 00
        E 96 93 28 77
        E 864 83 28 00
        E 96 93 29 77
        E 864 83 29 00
        E 96 93 29 77
        E 864 83 29 00
        E 96 93 29 77
        E 864 83 29 00
        E 96 93 2f 77
        E 864 83 2f 00
        E 96 93 2e 77
        E 864 83 2e 00
        E 96 93 2c 77
        E 864 83 2c 00
        E 96 93 2e 77
        E 864 83 2e 00
        E 96 93 32 77
        E 864 83 32 00
        E 96 93 32 77
        E 864 83 32 00
        E 96 93 32 77
        E 864 83 32 00
        E 96 93 2e 77
        E 864 83 2e 00
        E 96 93 31 77
        E 864 83 31 00
        E 96 93 30 77
        E 864 83 30 00
        E 96 93 30 77
        E 864 83 30 00
        E 96 93 32 77
        E 864 83 32 00
        E 96 93 32 77
        E 864 83 32 00
        E 96 93 32 77
        E 864 83 32 00
        E 96 93 32 77
        E 864 83 32 00
        E 96 93 32 77
        E 864 83 32 00
        E 96 93 2d 77
        E 864 83 2d 00
        E 96 93 2e 77
        E 864 83 2e 00
        E 96 93 29 77
        E 864 83 29 00
        E 96 93 29 77
        E 864 83 29 00
        E 96 93 26 77
        E 864 83 26 00
        E 96 93 27 77
        E 864 83 27 00
        E 96 93 22 77
        E 864 83 22 00
        E 96 93 22 77
        E 864 83 22 00
        E 96 93 1c 77
        E 864 83 1c 00
        E 96 93 1d 77
        E 864 83 1d 00
        E 96 93 1c 77
        E 864 83 1c 00
        E 96 93 1d 77
        E 864 83 1d 00
        E 96 93 23 77
        E 864 83 23 00
        E 96 93 22 77
        E 864 83 22 00
        E 96 93 20 77
        E 864 83 20 00
        E 96 93 22 77
        E 864 83 22 00
        E 96 93 28 77
        E 864 83 28 00
        E 96 93 27 77
        E 864 83 27 00
        E 96 93 26 77
        E 864 83 26 00
        E 96 93 22 77
        E 864 83 22 00
        E 96 93 20 77
        E 864 83 20 00
        E 0 b3 7b 00
        E 1 ff 2f 00
      >
    >
  >
  <TRACK
    NAME "Strings"
    PEAKCOL 4284186559
    VOLPAN 1.000000 0 1 -1
    MIDIOUT -1
    ISBUS 0 0
    <ITEM
      POSITION 0.001163
      LENGTH 57.696346
      NAME "Strings"
      VOLPAN 1 0 1 -1
      <SOURCE MIDI
        HASDATA 1 960 QN
        E 0 c4 30 00
        E 2 94 48 32
        E 3 94 43 32
        E 7 94 48 32
        E 1896 94 46 32
        E 13 94 48 32
        E 1 94 43 32
        E 1 84 43 00
        E 6 94 48 32
        E 5 84 48 00
        E 4 84 48 00
        E 1885 84 46 00
        E 13 84 48 00
        E 4 94 3f 32
        E 1 94 48 32
        E 7 94 48 32
        E 5 84 43 00
        E 15 84 48 00
        E 1886 94 48 32
        E 2 94 48 32
        E 4 84 3f 00
        E 9 84 48 00
        E 1 84 48 00
        E 1901 84 48 00
        E 19 84 48 00
        E 1898 94 48 32
        E 5 94 48 32
        E 7 94 44 32
        E 4 94 48 32
        E 10 94 48 32
        E 1901 84 48 00
        E 1 84 44 00
        E 3 94 48 32
        E 2 84 48 00
        E 2 84 48 00
        E 7 84 48 00
        E 1910 94 41 32
        E 5 84 48 00
        E 5 94 48 32
        E 1901 94 34 32
        E 3 94 46 32
        E 3 94 48 32
        E 3 84 41 00
        E 24 84 48 00
        E 1878 84 48 00
        E 8 84 34 00
        E 7 84 46 00
        E 3 94 48 32
        E 1907 94 48 32
        E 4 94 43 32
        E 3 94 48 32
        E 1 94 48 32
        E 5 94 3f 32
        E 2 84 48 00
        E 0 94 48 32
        E 1 94 48 32
        E 8 94 43 32
        E 1890 84 48 00
        E 5 94 48 32
        E 3 84 48 00
        E 1 84 48 00
        E 2 94 48 32
        E 1 84 43 00
        E 1 84 48 00
        E 4 94 48 32
        E 1 94 48 32
        E 1 84 3f 00
        E 0 94 3f 32
        E 8 94 48 32
        E 0 94 48 32
        E 3 84 43 00
        E 0 94 48 32
        E 1 84 48 00
        E 1904 94 48 32
        E 3 84 48 00
        E 0 84 48 00
        E 1 84 3f 00
        E 0 94 41 32
        E 5 94 48 32
        E 1 84 48 00
        E 1 94 48 32
        E 1 84 48 00
        E 1 94 34 32
        E 1 84 48 00
        E 0 94 48 32
        E 0 94 48 32
        E 4 84 48 00
        E 0 94 48 32
        E 2 84 48 00
        E 1893 84 48 00
        E 3 94 48 32
        E 8 84 41 00
        E 0 94 41 32
        E 1 94 34 32
        E 2 84 48 00
        E 0 84 48 00
        E 5 94 44 32
        E 0 94 48 32
        E 1 94 48 32
        E 2 84 48 00
        E 0 94 48 32
        E 0 94 48 32
        E 1 84 48 00
        E 2 84 34 00
        E 6 84 48 00
        E 1881 84 48 00
        E 5 94 48 32
        E 1 94 48 32
        E 9 84 48 00
        E 0 94 48 32
        E 2 94 48 32
        E 2 84 41 00
        E 0 94 41 32
        E 1 84 44 00
        E 2 94 48 32
        E 1 94 46 32
        E 1 84 48 00
        E 2 94 46 32
        E 1 84 34 00
        E 2 84 48 00
        E 3 84 48 00
        E 1898 94 48 32
        E 0 94 34 32
        E 1 84 48 00
        E 4 94 34 32
        E 2 94 48 32
        E 1 84 46 00
        E 1 84 41 00
        E 0 94 48 32
        E 0 94 41 32
        E 1 84 48 00
        E 0 84 48 00
        E 4 84 48 00
        E 0 94 48 32
        E 2 84 48 00
        E 4 84 46 00
        E 2 94 48 32
        E 1890 84 48 00
        E 7 84 34 00
        E 2 94 34 32
        E 1 84 48 00
        E 4 84 48 00
        E 3 84 34 00
        E 0 84 41 00
        E 0 94 43 32
        E 2 94 48 32
        E 1 94 48 32
        E 0 94 34 32
        E 5 94 46 32
        E 1 94 48 32
        E 4 94 34 32
        E 1 84 48 00
        E 5 84 48 00
        E 1886 84 48 00
        E 3 94 48 32
        E 1 84 34 00
        E 1 94 48 32
        E 0 94 48 32
        E 5 84 48 00
        E 4 94 48 32
        E 1 84 43 00
        E 0 94 43 32
        E 3 84 34 00
        E 0 94 46 32
        E 4 94 48 32
        E 1 84 34 00
        E 1 84 46 00
        E 0 94 48 32
        E 16 84 48 00
        E 1865 84 48 00
        E 1 84 48 00
        E 5 84 48 00
        E 10 94 48 32
        E 2 94 48 32
        E 1 94 35 32
        E 2 84 48 00
        E 1 94 48 32
        E 3 94 48 32
        E 3 94 48 32
        E 1 84 48 00
        E 1 84 43 00
        E 0 94 41 32
        E 7 94 48 32
        E 2 84 46 00
        E 0 84 48 00
        E 1881 84 35 00
        E 3 84 48 00
        E 16 94 48 32
        E 0 94 48 32
        E 1 84 48 00
        E 2 94 34 32
        E 3 84 48 00
        E 2 94 48 32
        E 3 84 48 00
        E 0 84 41 00
        E 0 94 41 32
        E 2 94 48 32
        E 3 84 48 00
        E 0 84 48 00
        E 3 94 48 32
        E 5 94 34 32
        E 1882 84 48 00
        E 0 84 48 00
        E 1 84 34 00
        E 14 94 48 32
        E 4 94 48 32
        E 6 84 41 00
        E 0 94 41 32
        E 5 94 34 32
        E 1 84 48 00
        E 0 94 48 32
        E 1 94 48 32
        E 1 94 48 32
        E 1 94 48 32
        E 1 84 48 00
        E 6 84 48 00
        E 10 84 34 00
        E 1880 84 48 00
        E 1 84 48 00
        E 2 94 48 32
        E 8 94 48 32
        E 2 94 34 32
        E 0 94 46 32
        E 1 84 41 00
        E 0 84 48 00
        E 0 94 41 32
        E 3 84 48 00
        E 2 94 48 32
        E 1 94 48 32
        E 1 84 34 00
        E 4 94 46 32
        E 4 84 48 00
        E 9 84 48 00
        E 1875 84 48 00
        E 7 94 48 32
        E 3 94 34 32
        E 5 84 34 00
        E 0 94 48 32
        E 1 94 46 32
        E 1 94 34 32
        E 4 84 41 00
        E 0 94 43 32
        E 2 84 48 00
        E 1 84 48 00
        E 0 94 48 32
        E 8 84 48 00
        E 1 94 48 32
        E 1 84 46 00
        E 0 84 46 00
        E 1881 84 48 00
        E 3 84 46 00
        E 2 84 34 00
        E 5 84 34 00
        E 2 84 48 00
        E 0 94 48 32
        E 1 94 48 32
        E 0 94 48 32
        E 1 84 48 00
        E 1 94 48 32
        E 3 94 48 32
        E 4 94 48 32
        E 4 84 43 00
        E 0 94 43 33
        E 12 94 48 32
        E 16 84 48 00
        E 1872 84 48 00
        E 3 84 48 00
        E 6 94 48 32
        E 1 94 48 32
        E 4 84 48 00
        E 1 94 48 32
        E 1 84 48 00
        E 4 84 43 00
        E 0 94 43 33
        E 0 94 48 32
        E 2 94 34 32
        E 1 84 48 00
        E 1 84 48 00
        E 4 94 48 32
        E 1 94 46 32
        E 19 84 48 00
        E 1875 84 48 00
        E 5 94 48 32
        E 1 94 48 32
        E 1 94 48 32
        E 2 84 48 00
        E 0 84 34 00
        E 1 84 48 00
        E 5 94 46 32
        E 1 84 48 00
        E 1 84 43 00
        E 0 94 43 33
        E 4 84 48 00
        E 0 94 48 32
        E 4 94 48 32
        E 2 94 48 32
        E 16 84 46 00
        E 1871 84 48 00
        E 3 84 48 00
        E 1 84 46 00
        E 6 94 48 32
        E 4 94 48 32
        E 1 94 48 32
        E 1 94 34 32
        E 1 84 48 00
        E 6 84 43 00
        E 0 94 43 33
        E 1 84 48 00
        E 3 94 34 32
        E 2 84 48 00
        E 6 94 48 32
        E 1 94 48 32
        E 2 84 48 00
        E 1880 84 34 00
        E 11 84 48 00
        E 6 94 48 32
        E 1 84 34 00
        E 2 84 48 00
        E 2 84 48 00
        E 0 94 48 32
        E 1 94 34 32
        E 0 94 34 32
        E 0 94 48 32
        E 2 84 43 00
        E 0 94 43 35
        E 9 94 34 32
        E 5 94 48 32
        E 12 84 48 00
        E 3 84 48 00
        E 1870 84 48 00
        E 4 84 34 00
        E 5 84 48 00
        E 0 94 48 32
        E 2 94 48 32
        E 3 84 34 00
        E 0 94 48 32
        E 0 94 48 32
        E 1 94 48 32
        E 6 84 43 00
        E 0 94 44 35
        E 2 84 34 00
        E 1 84 48 00
        E 6 94 34 32
        E 3 94 48 32
        E 4 84 48 00
        E 1876 84 48 00
        E 9 84 48 00
        E 3 84 48 00
        E 1 84 48 00
        E 8 94 48 32
        E 2 94 48 32
        E 0 94 48 32
        E 3 94 48 32
        E 2 84 44 00
        E 0 94 44 36
        E 2 84 34 00
        E 1 84 48 00
        E 3 94 48 32
        E 4 94 48 32
        E 3 94 38 32
        E 5 84 48 00
        E 1884 84 48 00
        E 5 94 48 32
        E 1 84 48 00
        E 5 84 48 00
        E 3 84 48 00
        E 4 84 48 00
        E 0 84 44 00
        E 0 94 46 36
        E 1 94 48 32
        E 6 94 48 32
        E 4 84 48 00
        E 0 94 48 32
        E 1 94 48 32
        E 1 94 48 32
        E 0 94 48 32
        E 13 84 38 00
        E 1870 84 48 00
        E 7 84 48 00
        E 5 94 48 32
        E 4 94 48 32
        E 1 94 48 32
        E 0 94 48 32
        E 4 84 48 00
        E 2 94 48 32
        E 1 84 46 00
        E 0 94 46 36
        E 9 94 48 32
        E 4 84 48 00
        E 1 94 48 32
        E 2 84 48 00
        E 5 84 48 00
        E 7 84 48 00
        E 1874 84 48 00
        E 5 94 48 32
        E 3 84 48 00
        E 0 84 48 00
        E 4 84 48 00
        E 4 94 48 32
        E 2 84 48 00
        E 0 84 46 00
        E 0 94 46 38
        E 2 94 48 32
        E 4 84 48 00
        E 2 84 48 00
        E 0 94 48 32
        E 2 94 34 32
        E 1 94 48 32
        E 0 94 48 32
        E 1888 84 48 00
        E 7 94 48 32
        E 1 94 48 32
        E 5 94 48 32
        E 3 84 48 00
        E 0 84 48 00
        E 2 84 34 00
        E 2 94 48 32
        E 1 84 46 00
        E 0 94 46 38
        E 6 84 48 00
        E 0 94 48 32
        E 3 94 48 32
        E 1 94 48 32
        E 8 84 48 00
        E 2 84 48 00
        E 1872 84 48 00
        E 8 84 48 00
        E 10 94 34 32
        E 1 94 48 32
        E 3 94 48 38
        E 3 94 48 32
        E 3 84 46 00
        E 0 94 48 38
        E 2 94 34 32
        E 1 94 48 32
        E 4 84 48 00
        E 2 84 48 00
        E 1 94 48 32
        E 3 84 48 00
        E 7 84 48 00
        E 2 84 48 00
        E 1884 84 48 00
        E 4 94 48 32
        E 0 94 48 38
        E 6 84 48 00
        E 0 94 48 32
        E 1 94 48 32
        E 0 94 48 32
        E 2 84 48 00
        E 1 84 48 00
        E 0 94 48 38
        E 1 84 48 00
        E 3 84 34 00
        E 4 84 34 00
        E 0 94 48 32
        E 6 94 48 32
        E 5 84 48 00
        E 1879 84 48 00
        E 2 84 48 00
        E 4 84 48 00
        E 3 84 48 00
        E 3 94 48 32
        E 0 94 34 32
        E 3 84 48 00
        E 7 84 48 00
        E 0 94 48 3a
        E 2 94 48 3a
        E 1 84 48 00
        E 0 94 48 32
        E 0 94 48 32
        E 1 94 48 32
        E 5 84 48 00
        E 5 94 48 32
        E 1888 84 34 00
        E 7 84 48 00
        E 1 84 48 00
        E 2 94 34 32
        E 1 94 48 3a
        E 0 94 48 32
        E 7 84 48 00
        E 0 84 48 00
        E 0 84 48 00
        E 0 94 48 3a
        E 2 94 34 32
        E 2 84 48 00
        E 3 94 48 32
        E 2 84 48 00
        E 1 94 48 32
        E 4 94 48 32
        E 1884 84 48 00
        E 8 94 48 32
        E 4 84 48 00
        E 0 94 48 32
        E 2 84 34 00
        E 3 84 48 00
        E 2 84 48 00
        E 3 84 48 00
        E 0 94 48 3b
        E 6 84 34 00
        E 0 94 48 32
        E 0 94 48 32
        E 0 94 48 32
        E 1 94 48 32
        E 7 94 48 32
        E 5 84 48 00
        E 1881 84 48 00
        E 8 84 48 00
        E 7 94 48 32
        E 5 84 48 00
        E 1 84 48 00
        E 2 84 48 00
        E 0 84 48 00
        E 11 84 48 00
        E 5 84 48 00
        E 1901 94 46 3b
        E 7 84 48 00
        E 2 94 48 32
        E 3 94 48 32
        E 1 94 48 32
        E 1906 94 48 32
        E 1 84 46 00
        E 10 84 48 00
        E 4 84 48 00
        E 10 84 48 00
        E 1895 84 48 00
        E 6 94 48 32
        E 1901 94 48 32
        E 15 94 48 32
        E 6 84 48 00
        E 1903 84 48 00
        E 6 94 48 32
        E 8 84 48 00
        E 8 94 48 32
        E 1895 84 48 00
        E 10 94 48 32
        E 1 94 48 32
        E 16 84 48 00
        E 1897 84 48 00
        E 5 94 48 32
        E 4 94 46 3f
        E 10 84 48 00
        E 1908 94 48 32
        E 2 84 46 00
        E 1 84 48 00
        E 2 94 48 32
        E 1897 84 48 00
        E 16 84 48 00
        E 0 b4 7b 00
        E 1 ff 2f 00
      >
    >
  >
  <TRACK
    NAME "Violin1"
    PEAKCOL 4284186559
    VOLPAN 1.000000 0 1 -1
    MIDIOUT -1
    ISBUS 0 0
    <ITEM
      POSITION 2.402967
      LENGTH 52.899696
      NAME "Violin1"
      VOLPAN 1 0 1 -1
      <SOURCE MIDI
        HASDATA 1 960 QN
        E 0 c5 28 00
        E 3845 95 4b 53
        E 3840 85 4b 00
        E 19198 95 52 57
        E 3840 85 52 00
        E 1 95 52 53
        E 3840 85 52 00
        E 10 95 54 51
        E 3833 95 52 54
        E 7 85 54 00
        E 3833 85 52 00
        E 0 95 57 4f
        E 3840 85 57 00
        E 0 95 5b 51
        E 3840 85 5b 00
        E 2 95 57 51
        E 3834 95 59 54
        E 6 85 57 00
        E 3834 85 59 00
        E 3 95 57 56
        E 3838 95 5b 51
        E 2 85 57 00
        E 3838 85 5b 00
        E 0 95 57 54
        E 3840 85 57 00
        E 3842 95 59 53
        E 3840 85 59 00
        E 7678 95 60 56
        E 3840 85 60 00
        E 0 b5 7b 00
        E 1 ff 2f 00
      >
    >
  >
  <TRACK
    NAME "Glock"
    PEAKCOL 4290756410
    VOLPAN 1.000000 0 1 -1
    MIDIOUT -1
    ISBUS 0 0
    <ITEM
      POSITION 6.600000
      LENGTH 55.480000
      NAME "Glock"
      VOLPAN 1 0 1 -1
      <SOURCE MIDI
        HASDATA 1 960 QN
        E 0 c6 09 00
        E 10560 96 67 47
        E 288 86 67 00
        E 1632 96 68 47
        E 288 86 68 00
        E 6432 96 68 47
        E 288 86 68 00
        E 672 96 68 47
        E 288 86 68 00
        E 672 96 68 47
        E 288 86 68 00
        E 672 96 68 47
        E 288 86 68 00
        E 672 96 68 47
        E 288 86 68 00
        E 672 96 68 47
        E 288 86 68 00
        E 672 96 68 47
        E 288 86 68 00
        E 672 96 67 47
        E 288 86 67 00
        E 672 96 68 47
        E 288 86 68 00
        E 672 96 68 47
        E 288 86 68 00
        E 672 96 68 47
        E 288 86 68 00
        E 672 96 68 47
        E 288 86 68 00
        E 672 96 68 47
        E 288 86 68 00
        E 672 96 68 47
        E 288 86 68 00
        E 4512 96 68 47
        E 288 86 68 00
        E 672 96 68 47
        E 288 86 68 00
        E 672 96 68 47
        E 288 86 68 00
        E 672 96 68 47
        E 288 86 68 00
        E 672 96 68 47
        E 288 86 68 00
        E 672 96 67 47
        E 288 86 67 00
        E 672 96 68 47
        E 288 86 68 00
        E 672 96 68 47
        E 288 86 68 00
        E 672 96 68 47
        E 288 86 68 00
        E 672 96 68 47
        E 288 86 68 00
        E 672 96 68 47
        E 288 86 68 00
        E 672 96 68 47
        E 288 86 68 00
        E 672 96 68 47
        E 288 86 68 00
        E 672 96 68 47
        E 288 86 68 00
        E 672 96 68 47
        E 288 86 68 00
        E 672 96 68 47
        E 288 86 68 00
        E 4512 96 68 47
        E 288 86 68 00
        E 672 96 67 47
        E 288 86 67 00
        E 672 96 68 47
        E 288 86 68 00
        E 672 96 68 47
        E 288 86 68 00
        E 672 96 68 47
        E 288 86 68 00
        E 672 96 68 47
        E 288 86 68 00
        E 672 96 68 47
        E 288 86 68 00
        E 672 96 68 47
        E 288 86 68 00
        E 672 96 68 47
        E 288 86 68 00
        E 672 96 68 47
        E 288 86 68 00
        E 672 96 68 47
        E 288 86 68 00
        E 672 96 68 47
        E 288 86 68 00
        E 672 96 68 47
        E 288 86 68 00
        E 672 96 68 47
        E 288 86 68 00
        E 672 96 68 47
        E 288 86 68 00
        E 672 96 68 47
        E 288 86 68 00
        E 5472 96 68 47
        E 288 86 68 00
        E 1632 96 68 47
        E 288 86 68 00
        E 672 96 68 47
        E 288 86 68 00
        E 1632 96 68 47
        E 288 86 68 00
        E 672 96 68 47
        E 288 86 68 00
        E 2592 96 68 47
        E 288 86 68 00
        E 2592 96 67 47
        E 288 86 67 00
        E 7392 96 68 47
        E 288 86 68 00
        E 2592 96 68 47
        E 288 86 68 00
        E 672 96 67 47
        E 288 86 67 00
        E 0 b6 7b 00
        E 1 ff 2f 00
      >
    >
  >
>
