<REAPER_PROJECT 0.1 "7.0" 1700000000
  TEMPO 78.000000 4 4
  SAMPLERATE 48000 0 0
  RENDER_FILE ""
  RENDER_FMT 0 2 0
  RENDER_1X 0
  RENDER_RANGE 1 0 85.659172 0 0
  RENDER_RESAMPLE 3 0 1
  <MASTERTRACK
    VOLPAN 1 0 1 -1
    DEFCHAN 0
  >
  <TRACK
    NAME "Lead"
    PEAKCOL 4284506208
    VOLPAN 1.000000 0 1 -1
    MIDIOUT -1
    ISBUS 0 0
    <ITEM
      POSITION 0.000000
      LENGTH 83.759172
      NAME "Lead"
      VOLPAN 1 0 1 -1
      <SOURCE MIDI
        HASDATA 1 960 QN
        E 0 c0 00 00
        E 0 90 4a 75
        E 1124 80 4a 00
        E 72 90 48 4c
        E 1124 80 48 00
        E 63 90 4a 5a
        E 1022 80 4a 00
        E 1160 90 4a 4c
        E 515 80 4a 00
        E 320 90 41 62
        E 1022 80 41 00
        E 395 90 4a 4c
        E 920 80 4a 00
        E 278 90 4d 4c
        E 984 90 4d 5f
        E 140 80 4d 00
        E 984 80 4d 00
        E 47 90 4f 54
        E 515 80 4f 00
        E 693 90 52 53
        E 1022 80 52 00
        E 429 90 51 5d
        E 515 80 51 00
        E 422 90 51 4c
        E 258 80 51 00
        E 463 90 52 54
        E 920 80 52 00
        E 154 90 54 4d
        E 1124 80 54 00
        E 83 90 56 58
        E 1124 80 56 00
        E 65 90 57 4c
        E 1022 80 57 00
        E 186 90 56 4f
        E 1022 80 56 00
        E 178 90 56 4c
        E 266 90 54 4c
        E 240 80 54 00
        E 9 80 56 00
        E 17 90 51 4c
        E 240 80 51 00
        E 26 90 4f 4c
        E 240 80 4f 00
        E 26 90 4b 4c
        E 240 80 4b 00
        E 25 90 4a 62
        E 695 80 4a 00
        E 972 90 4b 4c
        E 1124 80 4b 00
        E 325 90 4f 4c
        E 949 90 4d 4c
        E 175 80 4f 00
        E 847 80 4d 00
        E 174 90 4d 7b
        E 1030 80 4d 00
        E 162 90 4b 4f
        E 773 80 4b 00
        E 1029 90 4a 4c
        E 695 80 4a 00
        E 873 90 48 4c
        E 219 90 46 5a
        E 631 80 48 00
        E 493 80 46 00
        E 87 90 48 4c
        E 896 90 4a 4c
        E 126 80 48 00
        E 114 80 4a 00
        E 656 90 4d 56
        E 1022 80 4d 00
        E 186 90 4a 4d
        E 1022 80 4a 00
        E 542 90 4b 5b
        E 831 90 4b 4c
        E 89 80 4b 00
        E 831 80 4b 00
        E 759 90 4a 4c
        E 590 90 48 4c
        E 183 80 4a 00
        E 590 80 48 00
        E 683 90 4a 4c
        E 515 80 4a 00
        E 437 90 4d 51
        E 1022 80 4d 00
        E 179 90 4d 6b
        E 719 90 4f 4c
        E 240 80 4f 00
        E 478 90 54 62
        E 109 80 4d 00
        E 248 90 54 4c
        E 563 80 54 00
        E 39 90 54 51
        E 93 80 54 00
        E 1031 80 54 00
        E 412 90 56 4c
        E 858 90 57 64
        E 164 80 56 00
        E 858 80 57 00
        E 764 90 56 69
        E 1022 80 56 00
        E 175 90 56 4c
        E 1022 80 56 00
        E 169 90 54 54
        E 695 80 54 00
        E 1233 90 56 4c
        E 850 80 56 00
        E 105 90 54 56
        E 258 80 54 00
        E 954 90 56 53
        E 773 80 56 00
        E 427 90 54 61
        E 770 90 51 4c
        E 240 80 51 00
        E 12 80 54 00
        E 519 90 4d 62
        E 240 90 4f 58
        E 464 80 4f 00
        E 318 80 4d 00
        E 555 90 4f 4c
        E 1078 90 51 51
        E 46 80 4f 00
        E 1078 80 51 00
        E 182 90 51 4f
        E 1022 80 51 00
        E 47 90 52 4c
        E 1022 80 52 00
        E 195 90 52 69
        E 1022 80 52 00
        E 519 90 51 4c
        E 419 90 4d 4c
        E 240 80 4d 00
        E 178 90 4a 62
        E 185 80 51 00
        E 510 80 4a 00
        E 521 90 4d 4f
        E 1124 80 4d 00
        E 174 90 4d 4c
        E 1022 80 4d 00
        E 74 90 4a 4c
        E 515 80 4a 00
        E 74 90 4d 4c
        E 240 80 4d 00
        E 349 90 51 6f
        E 1022 80 51 00
        E 178 90 51 54
        E 773 80 51 00
        E 436 90 51 4f
        E 920 80 51 00
        E 635 90 52 4c
        E 837 90 52 4c
        E 287 80 52 00
        E 304 90 51 4c
        E 533 80 52 00
        E 65 90 4f 54
        E 424 80 51 00
        E 598 80 4f 00
        E 182 90 4f 5a
        E 713 90 51 4c
        E 309 80 4f 00
        E 713 80 51 00
        E 173 90 52 7b
        E 544 90 4f 4c
        E 240 80 4f 00
        E 238 80 52 00
        E 66 90 4b 4d
        E 920 80 4b 00
        E 286 90 4d 4f
        E 850 80 4d 00
        E 353 90 4b 4c
        E 1022 80 4b 00
        E 179 90 4d 4c
        E 1022 80 4d 00
        E 176 90 4a 4c
        E 258 80 4a 00
        E 931 90 4b 5a
        E 1022 80 4b 00
        E 769 90 4a 4c
        E 920 80 4a 00
        E 889 90 48 4c
        E 1124 80 48 00
        E 67 90 46 51
        E 1022 80 46 00
        E 161 90 48 54
        E 1022 80 48 00
        E 200 90 48 53
        E 1022 80 48 00
        E 419 90 52 4c
        E 949 90 48 4c
        E 81 80 52 00
        E 507 90 46 4c
        E 332 80 48 00
        E 588 80 46 00
        E 284 90 48 4c
        E 567 80 48 00
        E 629 90 48 4c
        E 515 80 48 00
        E 676 90 46 4c
        E 1022 80 46 00
        E 0 b0 7b 00
        E 1 ff 2f 00
      >
    >
  >
  <TRACK
    NAME "Sax"
    PEAKCOL 4282040170
    VOLPAN 1.000000 0 1 -1
    MIDIOUT -1
    ISBUS 0 0
    <ITEM
      POSITION 0.384615
      LENGTH 82.792308
      NAME "Sax"
      VOLPAN 1 0 1 -1
      <SOURCE MIDI
        HASDATA 1 960 QN
        E 0 c1 41 00
        E 480 91 49 66
        E 960 81 49 00
        E 2640 91 4d 66
        E 480 81 4d 00
        E 960 91 4d 62
        E 240 81 4d 00
        E 960 91 4f 66
        E 480 81 4f 00
        E 2640 91 56 69
        E 960 81 56 00
        E 1680 91 56 64
        E 960 81 56 00
        E 960 91 56 64
        E 960 81 56 00
        E 0 91 52 66
        E 480 81 52 00
        E 5520 91 52 68
        E 480 81 52 00
        E 960 91 56 68
        E 480 81 56 00
        E 480 91 56 66
        E 480 81 56 00
        E 5520 91 4b 6b
        E 960 81 4b 00
        E 960 91 4f 64
        E 480 81 4f 00
        E 0 91 4d 69
        E 480 81 4d 00
        E 0 91 4a 6d
        E 960 81 4a 00
        E 0 91 46 6f
        E 480 81 46 00
        E 0 91 46 62
        E 480 81 46 00
        E 0 91 42 6f
        E 240 81 42 00
        E 0 91 42 69
        E 240 81 42 00
        E 0 91 44 68
        E 960 81 44 00
        E 0 91 42 6d
        E 480 81 42 00
        E 240 91 46 6b
        E 240 81 46 00
        E 0 91 48 6b
        E 240 81 48 00
        E 0 91 46 66
        E 480 81 46 00
        E 0 91 4a 70
        E 480 81 4a 00
        E 0 91 4a 68
        E 480 81 4a 00
        E 0 91 48 6f
        E 960 81 48 00
        E 0 91 46 6b
        E 240 81 46 00
        E 0 91 46 64
        E 480 81 46 00
        E 0 91 46 70
        E 960 81 46 00
        E 0 91 46 70
        E 240 81 46 00
        E 0 91 46 6b
        E 480 81 46 00
        E 0 91 48 62
        E 480 81 48 00
        E 0 91 4b 6b
        E 960 81 4b 00
        E 0 91 4b 6b
        E 480 81 4b 00
        E 0 91 48 70
        E 480 81 48 00
        E 0 91 4a 69
        E 480 81 4a 00
        E 0 91 46 6d
        E 480 81 46 00
        E 0 91 48 6f
        E 240 81 48 00
        E 0 91 4a 64
        E 960 81 4a 00
        E 0 91 46 6b
        E 240 81 46 00
        E 480 91 4a 6f
        E 480 81 4a 00
        E 0 91 4b 68
        E 960 81 4b 00
        E 0 91 49 64
        E 480 81 49 00
        E 0 91 4a 66
        E 240 81 4a 00
        E 0 91 4a 6f
        E 480 81 4a 00
        E 0 91 48 6b
        E 240 81 48 00
        E 0 91 4a 6f
        E 480 81 4a 00
        E 0 91 4b 64
        E 480 81 4b 00
        E 0 91 4d 6f
        E 480 81 4d 00
        E 0 91 4b 68
        E 960 81 4b 00
        E 0 91 4d 6b
        E 240 81 4d 00
        E 0 91 4b 62
        E 480 81 4b 00
        E 0 91 4a 6d
        E 240 81 4a 00
        E 0 91 4b 64
        E 240 81 4b 00
        E 0 91 4d 6b
        E 480 81 4d 00
        E 0 91 4d 69
        E 480 81 4d 00
        E 0 91 4b 6b
        E 960 81 4b 00
        E 0 91 49 70
        E 480 81 49 00
        E 0 91 4b 62
        E 240 81 4b 00
        E 0 91 48 6f
        E 480 81 48 00
        E 0 91 4b 6d
        E 480 81 4b 00
        E 0 91 4b 68
        E 480 81 4b 00
        E 0 91 48 70
        E 240 81 48 00
        E 960 91 4a 68
        E 480 81 4a 00
        E 0 91 4a 70
        E 960 81 4a 00
        E 0 91 4a 6b
        E 960 81 4a 00
        E 0 91 4a 69
        E 480 81 4a 00
        E 0 91 4d 6b
        E 240 81 4d 00
        E 0 91 4b 70
        E 480 81 4b 00
        E 0 91 48 70
        E 960 81 48 00
        E 0 91 46 64
        E 240 81 46 00
        E 0 91 48 6f
        E 480 81 48 00
        E 0 91 4a 66
        E 480 81 4a 00
        E 0 91 4b 64
        E 240 81 4b 00
        E 0 91 49 6f
        E 240 81 49 00
        E 0 91 57 70
        E 960 81 57 00
        E 0 91 49 70
        E 960 81 49 00
        E 0 91 4d 6d
        E 480 81 4d 00
        E 240 91 4a 6b
        E 480 81 4a 00
        E 0 91 4b 62
        E 240 81 4b 00
        E 0 91 48 69
        E 960 81 48 00
        E 0 91 4a 64
        E 480 81 4a 00
        E 0 91 4a 64
        E 240 81 4a 00
        E 0 91 4b 64
        E 480 81 4b 00
        E 0 91 4d 68
        E 480 81 4d 00
        E 0 91 4b 69
        E 480 81 4b 00
        E 0 91 4d 6b
        E 960 81 4d 00
        E 960 91 4b 70
        E 240 81 4b 00
        E 0 91 4d 68
        E 960 81 4d 00
        E 0 91 4b 6f
        E 240 81 4b 00
        E 0 91 4b 69
        E 480 81 4b 00
        E 0 91 4b 70
        E 480 81 4b 00
        E 480 91 4d 62
        E 960 81 4d 00
        E 0 91 4b 69
        E 960 81 4b 00
        E 0 91 48 6f
        E 960 81 48 00
        E 0 91 4b 6f
        E 240 81 4b 00
        E 0 91 49 62
        E 240 81 49 00
        E 0 91 4b 64
        E 480 81 4b 00
        E 0 91 48 70
        E 480 81 48 00
        E 0 91 4b 64
        E 960 81 4b 00
        E 0 91 4a 62
        E 240 81 4a 00
        E 0 91 48 6b
        E 960 81 48 00
        E 0 91 4a 68
        E 480 81 4a 00
        E 5040 91 48 68
        E 960 81 48 00
        E 13440 91 42 62
        E 480 81 42 00
        E 0 91 42 70
        E 240 81 42 00
        E 0 b1 7b 00
        E 1 ff 2f 00
      >
    >
  >
  <TRACK
    NAME "Piano"
    PEAKCOL 4290756410
    VOLPAN 1.000000 0 1 -1
    MIDIOUT -1
    ISBUS 0 0
    <ITEM
      POSITION 0.384615
      LENGTH 81.984615
      NAME "Piano"
      VOLPAN 1 0 1 -1
      <SOURCE MIDI
        HASDATA 1 960 QN
        E 0 c2 00 00
        E 480 92 3a 5b
        E 432 82 3a 00
        E 528 92 35 72
        E 432 82 35 00
        E 1488 92 2e 72
        E 216 82 2e 00
        E 744 92 2b 5b
        E 432 82 2b 00
        E 528 92 27 72
        E 432 82 27 00
        E 528 92 27 5b
        E 0 92 2b 5b
        E 432 82 27 00
        E 0 82 2b 00
        E 1488 92 27 5b
        E 432 82 27 00
        E 528 92 2b 72
        E 432 82 2b 00
        E 1488 92 2b 72
        E 216 82 2b 00
        E 1704 92 29 72
        E 0 92 2d 72
        E 432 82 29 00
        E 0 82 2d 00
        E 6288 92 2b 5b
        E 432 82 2b 00
        E 528 92 27 72
        E 432 82 27 00
        E 528 92 27 5b
        E 0 92 2b 5b
        E 432 82 27 00
        E 0 82 2b 00
        E 528 92 27 72
        E 0 92 2b 72
        E 216 82 27 00
        E 0 82 2b 00
        E 744 92 27 5b
        E 0 92 2b 5b
        E 432 82 27 00
        E 0 82 2b 00
        E 528 92 27 72
        E 0 92 2b 72
        E 432 82 27 00
        E 0 82 2b 00
        E 528 92 27 5b
        E 0 92 2b 5b
        E 432 82 27 00
        E 0 82 2b 00
        E 528 92 27 72
        E 0 92 2b 72
        E 216 82 27 00
        E 0 82 2b 00
        E 744 92 29 5b
        E 0 92 2d 5b
        E 432 82 29 00
        E 0 82 2d 00
        E 528 92 29 72
        E 0 92 2d 72
        E 432 82 29 00
        E 0 82 2d 00
        E 528 92 29 5b
        E 0 92 2d 5b
        E 432 82 29 00
        E 0 82 2d 00
        E 528 92 29 72
        E 0 92 2d 72
        E 216 82 29 00
        E 0 82 2d 00
        E 744 92 26 5b
        E 0 92 29 5b
        E 432 82 26 00
        E 0 82 29 00
        E 528 92 26 72
        E 0 92 29 72
        E 432 82 26 00
        E 0 82 29 00
        E 528 92 26 5b
        E 0 92 29 5b
        E 432 82 26 00
        E 0 82 29 00
        E 528 92 26 72
        E 0 92 29 72
        E 216 82 26 00
        E 0 82 29 00
        E 744 92 27 5b
        E 0 92 2b 5b
        E 432 82 27 00
        E 0 82 2b 00
        E 528 92 27 72
        E 0 92 2b 72
        E 432 82 27 00
        E 0 82 2b 00
        E 528 92 27 5b
        E 0 92 2b 5b
        E 432 82 27 00
        E 0 82 2b 00
        E 528 92 27 72
        E 0 92 2b 72
        E 216 82 27 00
        E 0 82 2b 00
        E 744 92 29 5b
        E 0 92 2d 5b
        E 432 82 29 00
        E 0 82 2d 00
        E 528 92 29 72
        E 0 92 2d 72
        E 432 82 29 00
        E 0 82 2d 00
        E 528 92 29 5b
        E 0 92 2d 5b
        E 432 82 29 00
        E 0 82 2d 00
        E 528 92 29 72
        E 0 92 2d 72
        E 216 82 29 00
        E 0 82 2d 00
        E 744 92 26 5b
        E 0 92 29 5b
        E 432 82 26 00
        E 0 82 29 00
        E 528 92 26 72
        E 0 92 29 72
        E 432 82 26 00
        E 0 82 29 00
        E 528 92 26 5b
        E 0 92 29 5b
        E 432 82 26 00
        E 0 82 29 00
        E 528 92 26 72
        E 0 92 29 72
        E 216 82 26 00
        E 0 82 29 00
        E 744 92 26 5b
        E 0 92 29 5b
        E 432 82 26 00
        E 0 82 29 00
        E 528 92 26 72
        E 0 92 29 72
        E 432 82 26 00
        E 0 82 29 00
        E 528 92 26 5b
        E 0 92 29 5b
        E 432 82 26 00
        E 0 82 29 00
        E 528 92 26 72
        E 0 92 29 72
        E 216 82 26 00
        E 0 82 29 00
        E 744 92 27 5b
        E 0 92 2b 5b
        E 432 82 27 00
        E 0 82 2b 00
        E 528 92 27 72
        E 0 92 2b 72
        E 432 82 27 00
        E 0 82 2b 00
        E 528 92 27 5b
        E 0 92 2b 5b
        E 432 82 27 00
        E 0 82 2b 00
        E 528 92 27 72
        E 0 92 2b 72
        E 216 82 27 00
        E 0 82 2b 00
        E 744 92 27 5b
        E 0 92 2b 5b
        E 432 82 27 00
        E 0 82 2b 00
        E 528 92 27 72
        E 0 92 2b 72
        E 432 82 27 00
        E 0 82 2b 00
        E 528 92 27 5b
        E 0 92 2b 5b
        E 432 82 27 00
        E 0 82 2b 00
        E 528 92 27 72
        E 0 92 2b 72
        E 216 82 27 00
        E 0 82 2b 00
        E 744 92 29 5b
        E 0 92 2d 5b
        E 432 82 29 00
        E 0 82 2d 00
        E 528 92 29 72
        E 0 92 2d 72
        E 432 82 29 00
        E 0 82 2d 00
        E 528 92 29 5b
        E 0 92 2d 5b
        E 432 82 29 00
        E 0 82 2d 00
        E 528 92 29 72
        E 0 92 2d 72
        E 216 82 29 00
        E 0 82 2d 00
        E 744 92 26 5b
        E 0 92 29 5b
        E 432 82 26 00
        E 0 82 29 00
        E 528 92 26 72
        E 0 92 29 72
        E 432 82 26 00
        E 0 82 29 00
        E 528 92 26 5b
        E 0 92 29 5b
        E 432 82 26 00
        E 0 82 29 00
        E 528 92 26 72
        E 0 92 29 72
        E 216 82 26 00
        E 0 82 29 00
        E 744 92 27 5b
        E 0 92 2b 5b
        E 432 82 27 00
        E 0 82 2b 00
        E 528 92 27 72
        E 0 92 2b 72
        E 432 82 27 00
        E 0 82 2b 00
        E 528 92 27 5b
        E 0 92 2b 5b
        E 432 82 27 00
        E 0 82 2b 00
        E 528 92 27 72
        E 0 92 2b 72
        E 216 82 27 00
        E 0 82 2b 00
        E 744 92 27 5b
        E 0 92 2b 5b
        E 432 82 27 00
        E 0 82 2b 00
        E 528 92 27 72
        E 0 92 2b 72
        E 432 82 27 00
        E 0 82 2b 00
        E 528 92 27 5b
        E 0 92 2b 5b
        E 432 82 27 00
        E 0 82 2b 00
        E 528 92 27 72
        E 0 92 2b 72
        E 216 82 27 00
        E 0 82 2b 00
        E 744 92 29 5b
        E 0 92 2d 5b
        E 432 82 29 00
        E 0 82 2d 00
        E 528 92 29 72
        E 0 92 2d 72
        E 432 82 29 00
        E 0 82 2d 00
        E 528 92 29 5b
        E 0 92 2d 5b
        E 432 82 29 00
        E 0 82 2d 00
        E 528 92 29 72
        E 0 92 2d 72
        E 216 82 29 00
        E 0 82 2d 00
        E 744 92 26 5b
        E 0 92 29 5b
        E 432 82 26 00
        E 0 82 29 00
        E 528 92 26 72
        E 0 92 29 72
        E 432 82 26 00
        E 0 82 29 00
        E 528 92 26 5b
        E 0 92 29 5b
        E 432 82 26 00
        E 0 82 29 00
        E 528 92 26 72
        E 0 92 29 72
        E 216 82 26 00
        E 0 82 29 00
        E 744 92 27 5b
        E 0 92 2b 5b
        E 432 82 27 00
        E 0 82 2b 00
        E 528 92 27 72
        E 0 92 2b 72
        E 432 82 27 00
        E 0 82 2b 00
        E 528 92 27 5b
        E 0 92 2b 5b
        E 432 82 27 00
        E 0 82 2b 00
        E 528 92 27 72
        E 216 82 27 00
        E 1704 92 2d 72
        E 432 82 2d 00
        E 2448 92 26 5b
        E 432 82 26 00
        E 528 92 26 72
        E 432 82 26 00
        E 3408 92 26 72
        E 0 92 29 72
        E 432 82 26 00
        E 0 82 29 00
        E 1488 92 26 72
        E 216 82 26 00
        E 3624 92 2b 72
        E 216 82 2b 00
        E 2664 92 2b 5b
        E 432 82 2b 00
        E 0 b2 7b 00
        E 1 ff 2f 00
      >
    >
  >
  <TRACK
    NAME "WalkBass"
    PEAKCOL 4286528191
    VOLPAN 1.000000 0 1 -1
    MIDIOUT -1
    ISBUS 0 0
    <ITEM
      POSITION 0.000000
      LENGTH 83.100000
      NAME "WalkBass"
      VOLPAN 1 0 1 -1
      <SOURCE MIDI
        HASDATA 1 960 QN
        E 0 c3 21 00
        E 0 93 1a 76
        E 864 83 1a 00
        E 96 93 1d 76
        E 864 83 1d 00
        E 96 93 1d 76
        E 864 83 1d 00
        E 96 93 1a 76
        E 864 83 1a 00
        E 96 93 1b 76
        E 864 83 1b 00
        E 96 93 1a 76
        E 864 83 1a 00
        E 96 93 1a 76
        E 864 83 1a 00
        E 96 93 1a 76
        E 864 83 1a 00
        E 96 93 1a 76
        E 864 83 1a 00
        E 96 93 1b 76
        E 864 83 1b 00
        E 96 93 1b 76
        E 864 83 1b 00
        E 96 93 1e 76
        E 864 83 1e 00
        E 96 93 1d 76
        E 864 83 1d 00
        E 96 93 1a 76
        E 864 83 1a 00
        E 96 93 1d 76
        E 864 83 1d 00
        E 96 93 23 76
        E 864 83 23 00
        E 96 93 22 76
        E 864 83 22 00
        E 96 93 26 76
        E 864 83 26 00
        E 96 93 29 76
        E 864 83 29 00
        E 96 93 26 76
        E 864 83 26 00
        E 96 93 27 76
        E 864 83 27 00
        E 96 93 22 76
        E 864 83 22 00
        E 96 93 22 76
        E 864 83 22 00
        E 96 93 25 76
        E 864 83 25 00
        E 96 93 24 76
        E 864 83 24 00
        E 96 93 26 76
        E 864 83 26 00
        E 96 93 27 76
        E 864 83 27 00
        E 96 93 2a 76
        E 864 83 2a 00
        E 96 93 29 76
        E 864 83 29 00
        E 96 93 2d 76
        E 864 83 2d 00
        E 96 93 2d 76
        E 864 83 2d 00
        E 96 93 2f 76
        E 864 83 2f 00
        E 96 93 2e 76
        E 864 83 2e 00
        E 96 93 30 76
        E 864 83 30 00
        E 96 93 2e 76
        E 864 83 2e 00
        E 96 93 30 76
        E 864 83 30 00
        E 96 93 30 76
        E 864 83 30 00
        E 96 93 30 76
        E 864 83 30 00
        E 96 93 30 76
        E 864 83 30 00
        E 96 93 30 76
        E 864 83 30 00
        E 96 93 30 76
        E 864 83 30 00
        E 96 93 30 76
        E 864 83 30 00
        E 96 93 2d 76
        E 864 83 2d 00
        E 96 93 2f 76
        E 864 83 2f 00
        E 96 93 2e 76
        E 864 83 2e 00
        E 96 93 2e 76
        E 864 83 2e 00
        E 96 93 2e 76
        E 864 83 2e 00
        E 96 93 2d 76
        E 864 83 2d 00
        E 96 93 2e 76
        E 864 83 2e 00
        E 96 93 29 76
        E 864 83 29 00
        E 96 93 29 76
        E 864 83 29 00
        E 96 93 26 76
        E 864 83 26 00
        E 96 93 27 76
        E 864 83 27 00
        E 96 93 29 76
        E 864 83 29 00
        E 96 93 2b 76
        E 864 83 2b 00
        E 96 93 30 76
        E 864 83 30 00
        E 96 93 30 76
        E 864 83 30 00
        E 96 93 30 76
        E 864 83 30 00
        E 96 93 30 76
        E 864 83 30 00
        E 96 93 30 76
        E 864 83 30 00
        E 96 93 30 76
        E 864 83 30 00
        E 96 93 30 76
        E 864 83 30 00
        E 96 93 2d 76
        E 864 83 2d 00
        E 96 93 2f 76
        E 864 83 2f 00
        E 96 93 2e 76
        E 864 83 2e 00
        E 96 93 30 76
        E 864 83 30 00
        E 96 93 2e 76
        E 864 83 2e 00
        E 96 93 30 76
        E 864 83 30 00
        E 96 93 30 76
        E 864 83 30 00
        E 96 93 30 76
        E 864 83 30 00
        E 96 93 2e 76
        E 864 83 2e 00
        E 96 93 30 76
        E 864 83 30 00
        E 96 93 30 76
        E 864 83 30 00
        E 96 93 30 76
        E 864 83 30 00
        E 96 93 30 76
        E 864 83 30 00
        E 96 93 30 76
        E 864 83 30 00
        E 96 93 30 76
        E 864 83 30 00
        E 96 93 30 76
        E 864 83 30 00
        E 96 93 2d 76
        E 864 83 2d 00
        E 96 93 2f 76
        E 864 83 2f 00
        E 96 93 2e 76
        E 864 83 2e 00
        E 96 93 2d 76
        E 864 83 2d 00
        E 96 93 2e 76
        E 864 83 2e 00
        E 96 93 30 76
        E 864 83 30 00
        E 96 93 30 76
        E 864 83 30 00
        E 96 93 2b 76
        E 864 83 2b 00
        E 96 93 2b 76
        E 864 83 2b 00
        E 96 93 28 76
        E 864 83 28 00
        E 96 93 29 76
        E 864 83 29 00
        E 96 93 27 76
        E 864 83 27 00
        E 96 93 29 76
        E 864 83 29 00
        E 96 93 2f 76
        E 864 83 2f 00
        E 96 93 2e 76
        E 864 83 2e 00
        E 96 93 29 76
        E 864 83 29 00
        E 96 93 29 76
        E 864 83 29 00
        E 96 93 2f 76
        E 864 83 2f 00
        E 96 93 2e 76
        E 864 83 2e 00
        E 96 93 30 76
        E 864 83 30 00
        E 96 93 2e 76
        E 864 83 2e 00
        E 96 93 30 76
        E 864 83 30 00
        E 96 93 30 76
        E 864 83 30 00
        E 96 93 30 76
        E 864 83 30 00
        E 96 93 2e 76
        E 864 83 2e 00
        E 96 93 30 76
        E 864 83 30 00
        E 96 93 30 76
        E 864 83 30 00
        E 96 93 30 76
        E 864 83 30 00
        E 96 93 30 76
        E 864 83 30 00
        E 96 93 30 76
        E 864 83 30 00
        E 0 b3 7b 00
        E 1 ff 2f 00
      >
    >
  >
  <TRACK
    NAME "Cello"
    PEAKCOL 4284186559
    VOLPAN 1.000000 0 1 -1
    MIDIOUT -1
    ISBUS 0 0
    <ITEM
      POSITION 3.085120
      LENGTH 80.097372
      NAME "Cello"
      VOLPAN 1 0 1 -1
      <SOURCE MIDI
        HASDATA 1 960 QN
        E 0 c4 2a 00
        E 3850 94 37 5b
        E 3840 84 37 00
        E 3836 94 3a 5b
        E 3840 84 3a 00
        E 7684 94 33 5a
        E 3836 94 30 5a
        E 4 84 33 00
        E 3836 84 30 00
        E 6 94 35 58
        E 3838 94 39 5d
        E 2 84 35 00
        E 3832 94 35 5b
        E 6 84 39 00
        E 3830 94 32 5a
        E 4 84 35 00
        E 3836 84 32 00
        E 9 94 2e 5a
        E 3833 94 33 5b
        E 7 84 2e 00
        E 3833 84 33 00
        E 11 94 33 5b
        E 3833 94 35 5a
        E 7 84 33 00
        E 3833 84 35 00
        E 6 94 35 5d
        E 3838 94 32 5a
        E 2 84 35 00
        E 3837 94 37 58
        E 1 84 32 00
        E 3839 84 37 00
        E 1 94 3c 5b
        E 3838 94 3e 5a
        E 2 84 3c 00
        E 3838 84 3e 00
        E 0 94 43 58
        E 3840 84 43 00
        E 3840 94 46 5b
        E 3840 84 46 00
        E 3842 94 43 5d
        E 3837 94 43 5a
        E 3 84 43 00
        E 3837 84 43 00
        E 0 b4 7b 00
        E 1 ff 2f 00
      >
    >
  >
  <TRACK
    NAME "Strings"
    PEAKCOL 4284186559
    VOLPAN 1.000000 0 1 -1
    MIDIOUT -1
    ISBUS 0 0
    <ITEM
      POSITION 0.000000
      LENGTH 83.176923
      NAME "Strings"
      VOLPAN 1 0 1 -1
      <SOURCE MIDI
        HASDATA 1 960 QN
        E 0 c5 30 00
        E 0 95 3e 2f
        E 0 95 46 2f
        E 14 95 46 2f
        E 1897 95 46 2f
        E 7 95 46 2f
        E 2 95 46 2f
        E 3 85 46 00
        E 4 85 3e 00
        E 2 95 3e 2f
        E 8 85 46 00
        E 1879 85 46 00
        E 17 85 46 00
        E 7 95 3a 2f
        E 0 95 46 2f
        E 3 85 46 00
        E 3 95 46 2f
        E 7 85 3e 00
        E 1896 95 46 2f
        E 1 85 46 00
        E 10 85 3a 00
        E 3 95 46 2f
        E 14 85 46 00
        E 1908 85 46 00
        E 7 85 46 00
        E 1896 95 46 2f
        E 1 95 3f 2f
        E 2 95 30 2f
        E 19 95 46 2f
        E 4 95 46 2f
        E 1878 85 46 00
        E 10 85 30 00
        E 14 85 46 00
        E 0 95 46 2f
        E 4 85 3f 00
        E 25 85 46 00
        E 1883 95 46 2f
        E 9 85 46 00
        E 3 95 3c 2f
        E 1894 85 46 00
        E 14 95 46 2f
        E 6 95 46 2f
        E 6 85 3c 00
        E 14 95 46 2f
        E 1876 85 46 00
        E 20 95 46 2f
        E 8 85 46 00
        E 29 85 46 00
        E 1893 85 46 00
        E 1 95 30 2f
        E 1918 85 30 00
        E 1 95 3a 33
        E 1 95 3f 2f
        E 3 95 46 2f
        E 1 95 46 2f
        E 3 95 46 2f
        E 1 95 46 2f
        E 3 95 46 2f
        E 1 95 46 2f
        E 1897 85 46 00
        E 0 95 46 2f
        E 4 95 30 2f
        E 4 85 46 00
        E 2 85 3a 00
        E 0 95 3c 35
        E 1 95 46 2f
        E 1 85 3f 00
        E 0 85 46 00
        E 0 95 46 2f
        E 2 95 30 2f
        E 3 95 46 2f
        E 3 95 30 2f
        E 6 85 46 00
        E 3 85 46 00
        E 2 85 46 00
        E 1883 85 30 00
        E 6 85 30 00
        E 2 85 46 00
        E 8 85 3c 00
        E 0 95 3c 36
        E 1 85 46 00
        E 1 95 46 2f
        E 4 85 46 00
        E 2 95 46 2f
        E 0 95 46 2f
        E 1 85 30 00
        E 1 95 46 2f
        E 0 95 46 2f
        E 3 95 46 2f
        E 0 95 46 2f
        E 5 85 46 00
        E 1890 95 30 2f
        E 1 95 41 2f
        E 11 85 3c 00
        E 0 95 3c 36
        E 1 95 46 2f
        E 3 95 46 2f
        E 1 95 41 2f
        E 1 95 46 2f
        E 2 95 46 2f
        E 1 85 46 00
        E 1 85 46 00
        E 1 85 46 00
        E 8 85 46 00
        E 1 85 46 00
        E 3 85 46 00
        E 1 85 46 00
        E 1880 85 30 00
        E 3 95 46 2f
        E 4 85 46 00
        E 3 95 46 2f
        E 5 95 46 2f
        E 1 85 3c 00
        E 0 85 46 00
        E 0 95 3c 36
        E 2 85 41 00
        E 0 85 41 00
        E 2 95 30 2f
        E 2 95 46 2f
        E 1 85 46 00
        E 4 95 46 2f
        E 1 95 41 2f
        E 9 85 46 00
        E 1885 85 46 00
        E 0 95 41 2f
        E 0 95 46 2f
        E 2 85 30 00
        E 1 95 46 2f
        E 6 85 46 00
        E 5 85 3c 00
        E 0 85 41 00
        E 0 95 3a 38
        E 0 95 46 2f
        E 2 95 46 2f
        E 1 85 46 00
        E 0 95 46 2f
        E 5 95 46 2f
        E 3 85 46 00
        E 11 85 46 00
        E 1870 85 46 00
        E 1 85 41 00
        E 5 85 46 00
        E 11 95 46 2f
        E 3 85 46 00
        E 6 95 30 2f
        E 2 85 3a 00
        E 0 95 3a 3a
        E 0 95 30 2f
        E 3 95 46 2f
        E 1 95 46 2f
        E 7 85 46 00
        E 0 85 46 00
        E 0 95 30 2f
        E 2 95 46 2f
        E 8 85 46 00
        E 1874 85 46 00
        E 15 95 46 2f
        E 4 85 46 00
        E 1 85 30 00
        E 1 95 30 2f
        E 2 95 46 2f
        E 2 85 3a 00
        E 0 95 3c 3c
        E 7 95 43 2f
        E 1 95 3f 2f
        E 2 85 30 00
        E 0 95 46 2f
        E 2 95 46 2f
        E 1 85 30 00
        E 6 85 46 00
        E 12 85 46 00
        E 1872 85 46 00
        E 2 85 46 00
        E 5 95 46 2f
        E 8 95 46 2f
        E 1 85 43 00
        E 1 85 3c 00
        E 0 95 43 2f
        E 0 95 3c 3c
        E 1 85 46 00
        E 4 95 46 2f
        E 3 85 30 00
        E 0 95 46 2f
        E 4 95 46 2f
        E 0 95 3f 2f
        E 8 85 3f 00
        E 6 85 46 00
        E 1883 85 43 00
        E 0 95 46 2f
        E 1 85 46 00
        E 4 95 30 2f
        E 3 85 46 00
        E 2 95 30 2f
        E 1 85 3c 00
        E 0 85 46 00
        E 0 95 3c 3c
        E 2 95 46 2f
        E 1 95 46 2f
        E 5 85 46 00
        E 3 95 46 2f
        E 0 95 46 2f
        E 9 85 46 00
        E 5 85 3f 00
        E 1874 85 30 00
        E 7 85 46 00
        E 2 95 46 2f
        E 0 95 30 2f
        E 1 95 41 2f
        E 1 95 46 2f
        E 4 95 46 2f
        E 6 85 3c 00
        E 0 95 3c 3e
        E 0 95 46 2f
        E 5 85 46 00
        E 4 95 30 2f
        E 3 85 46 00
        E 0 85 46 00
        E 5 85 30 00
        E 9 85 46 00
        E 1866 85 30 00
        E 0 85 46 00
        E 6 85 46 00
        E 1 85 41 00
        E 11 95 30 2f
        E 4 85 30 00
        E 1 85 46 00
        E 1 95 41 2f
        E 4 85 3c 00
        E 0 95 3a 3f
        E 0 95 46 2f
        E 3 95 30 2f
        E 1 95 41 2f
        E 8 95 46 2f
        E 1 95 46 2f
        E 3 85 46 00
        E 1882 85 30 00
        E 10 85 41 00
        E 7 95 3e 2f
        E 0 95 46 2f
        E 1 95 41 2f
        E 3 85 46 00
        E 1 85 3a 00
        E 0 95 3a 41
        E 2 95 46 2f
        E 1 95 41 2f
        E 7 95 46 2f
        E 2 85 46 00
        E 1 95 46 2f
        E 7 85 30 00
        E 1 85 41 00
        E 0 85 46 00
        E 1883 85 3e 00
        E 0 85 46 00
        E 4 95 41 2f
        E 1 85 41 00
        E 1 95 46 2f
        E 5 95 30 2f
        E 5 85 3a 00
        E 0 85 46 00
        E 0 95 3a 43
        E 5 95 3e 2f
        E 1 85 41 00
        E 0 95 46 2f
        E 2 85 46 00
        E 1 95 46 2f
        E 2 85 46 00
        E 2 95 30 2f
        E 1891 85 41 00
        E 5 85 46 00
        E 0 95 46 2f
        E 6 85 46 00
        E 3 95 30 2f
        E 1 85 46 00
        E 1 85 3a 00
        E 0 95 3a 43
        E 2 95 41 2f
        E 2 85 30 00
        E 0 95 46 2f
        E 0 95 41 2f
        E 1 85 3e 00
        E 4 95 46 2f
        E 1 85 30 00
        E 1 95 46 2f
        E 1884 85 46 00
        E 11 85 41 00
        E 5 95 46 2f
        E 1 85 41 00
        E 3 95 30 2f
        E 0 95 3f 2f
        E 2 95 46 2f
        E 3 85 3a 00
        E 0 95 3a 43
        E 4 95 43 2f
        E 1 85 46 00
        E 1 85 30 00
        E 2 85 46 00
        E 1 85 46 00
        E 0 95 3f 2f
        E 4 95 46 2f
        E 1882 85 46 00
        E 9 85 3f 00
        E 2 85 30 00
        E 0 95 43 2f
        E 0 95 46 2f
        E 2 95 46 2f
        E 3 95 46 2f
        E 3 85 46 00
        E 2 85 46 00
        E 2 95 30 2f
        E 2 85 3a 00
        E 0 95 3a 43
        E 1 85 43 00
        E 1 95 30 2f
        E 2 85 3f 00
        E 3 95 46 2f
        E 1882 85 43 00
        E 14 85 46 00
        E 8 85 46 00
        E 0 95 46 2f
        E 1 85 30 00
        E 0 95 46 2f
        E 8 85 46 00
        E 0 85 3a 00
        E 0 95 3c 43
        E 2 85 46 00
        E 0 95 3f 2f
        E 3 95 46 2f
        E 2 95 30 2f
        E 3 95 46 2f
        E 3 95 46 2f
        E 2 85 30 00
        E 1896 95 30 2f
        E 1 95 43 2f
        E 1 85 46 00
        E 0 95 46 2f
        E 1 95 46 2f
        E 1 85 46 00
        E 3 85 3f 00
        E 1 95 46 2f
        E 1 85 3c 00
        E 0 95 3c 43
        E 2 85 30 00
        E 0 95 46 2f
        E 6 95 46 2f
        E 5 85 46 00
        E 1 85 46 00
        E 13 85 46 00
        E 1876 85 30 00
        E 0 85 43 00
        E 3 95 46 2f
        E 1 95 41 2f
        E 2 85 46 00
        E 2 95 46 2f
        E 3 95 46 2f
        E 6 85 3c 00
        E 0 95 3c 41
        E 1 85 46 00
        E 1 85 46 00
        E 0 95 46 2f
        E 5 95 46 2f
        E 5 95 46 2f
        E 1 85 46 00
        E 13 85 46 00
        E 1864 85 41 00
        E 8 85 46 00
        E 5 85 46 00
        E 6 95 41 2f
        E 1 95 46 2f
        E 6 95 46 2f
        E 4 85 3c 00
        E 0 95 3c 3f
        E 0 95 45 2f
        E 1 85 46 00
        E 3 95 46 2f
        E 4 95 46 2f
        E 2 85 46 00
        E 3 95 30 2f
        E 7 85 46 00
        E 6 85 46 00
        E 1883 95 46 2f
        E 1 95 46 2f
        E 2 85 46 00
        E 3 95 46 2f
        E 2 95 46 2f
        E 0 95 30 2f
        E 1 85 30 00
        E 2 85 46 00
        E 0 85 3c 00
        E 0 95 3a 3e
        E 1 95 46 2f
        E 1 85 41 00
        E 2 85 46 00
        E 2 95 46 2f
        E 6 85 46 00
        E 7 85 45 00
        E 1878 85 46 00
        E 7 85 46 00
        E 1 85 46 00
        E 2 95 30 2f
        E 1 85 46 00
        E 1 95 46 2f
        E 10 95 41 2f
        E 1 85 3a 00
        E 0 95 3a 3c
        E 0 95 46 2f
        E 1 85 30 00
        E 2 85 46 00
        E 1 95 46 2f
        E 4 85 46 00
        E 4 95 30 2f
        E 2 95 46 2f
        E 1878 85 30 00
        E 17 85 46 00
        E 5 95 46 2f
        E 4 85 46 00
        E 0 95 3f 2f
        E 1 95 46 2f
        E 1 85 46 00
        E 0 85 3a 00
        E 0 95 3a 3c
        E 3 95 46 2f
        E 0 95 46 2f
        E 8 95 46 2f
        E 1 95 46 2f
        E 3 85 41 00
        E 9 85 30 00
        E 7 85 46 00
        E 1875 95 46 2f
        E 1 95 46 2f
        E 3 85 46 00
        E 4 85 46 00
        E 2 95 43 2f
        E 3 95 3f 2f
        E 1 85 3a 00
        E 0 95 3a 3c
        E 1 95 46 2f
        E 2 85 3f 00
        E 2 85 46 00
        E 2 85 46 00
        E 1 95 30 2f
        E 3 95 46 2f
        E 5 85 46 00
        E 1 85 46 00
        E 1876 85 46 00
        E 11 85 46 00
        E 8 85 43 00
        E 0 85 3f 00
        E 1 95 46 2f
        E 3 95 46 2f
        E 2 95 46 2f
        E 2 85 46 00
        E 0 85 3a 00
        E 0 95 3c 3a
        E 0 95 46 2f
        E 2 85 30 00
        E 0 95 46 2f
        E 2 95 46 2f
        E 4 95 46 2f
        E 21 85 46 00
        E 1877 85 46 00
        E 0 95 46 2f
        E 1 85 46 00
        E 2 85 46 00
        E 1 95 3f 2f
        E 10 85 3c 00
        E 0 95 3c 38
        E 1 85 46 00
        E 2 95 46 2f
        E 5 95 46 2f
        E 1 95 46 2f
        E 3 95 30 2f
        E 2 95 43 2f
        E 4 85 46 00
        E 1 85 46 00
        E 1 85 46 00
        E 1876 85 3f 00
        E 11 95 46 2f
        E 2 85 46 00
        E 1 95 46 2f
        E 3 95 30 2f
        E 2 95 46 2f
        E 2 85 46 00
        E 0 85 46 00
        E 3 85 3c 00
        E 0 95 3c 36
        E 1 95 30 2f
        E 0 95 46 2f
        E 8 85 30 00
        E 4 95 46 2f
        E 6 85 43 00
        E 9 85 46 00
        E 1864 85 46 00
        E 4 85 30 00
        E 5 85 46 00
        E 6 95 46 2f
        E 1 95 46 2f
        E 2 95 41 2f
        E 5 85 46 00
        E 1 95 46 2f
        E 2 95 46 2f
        E 2 85 3c 00
        E 0 95 3c 36
        E 3 85 46 00
        E 4 95 46 2f
        E 2 95 46 2f
        E 8 85 46 00
        E 2 85 30 00
        E 1873 85 41 00
        E 12 85 46 00
        E 1 85 46 00
        E 5 95 46 2f
        E 0 95 30 2f
        E 1 85 46 00
        E 0 95 46 2f
        E 3 95 46 2f
        E 1 85 46 00
        E 4 95 46 2f
        E 1 85 3c 00
        E 0 95 3e 36
        E 4 85 46 00
        E 2 95 46 2f
        E 4 95 46 2f
        E 6 85 46 00
        E 1881 85 30 00
        E 10 85 46 00
        E 3 95 46 2f
        E 2 85 46 00
        E 2 85 46 00
        E 0 95 46 2f
        E 1 85 46 00
        E 3 85 46 00
        E 0 95 41 2f
        E 0 95 30 2f
        E 0 95 30 2f
        E 1 95 46 2f
        E 1 85 3e 00
        E 0 95 3e 35
        E 2 95 46 2f
        E 27 85 46 00
        E 1869 85 46 00
        E 4 85 46 00
        E 8 85 30 00
        E 2 95 30 2f
        E 1 95 43 2f
        E 1 95 30 2f
        E 3 85 46 00
        E 3 85 3e 00
        E 0 95 3f 33
        E 0 95 43 2f
        E 2 95 46 2f
        E 2 95 46 2f
        E 2 85 30 00
        E 2 95 46 2f
        E 5 85 46 00
        E 3 85 41 00
        E 1885 85 43 00
        E 2 85 30 00
        E 3 95 30 2f
        E 1 85 30 00
        E 3 95 46 2f
        E 2 85 46 00
        E 8 85 3f 00
        E 0 95 3f 33
        E 1 95 46 2f
        E 0 95 46 2f
        E 2 95 46 2f
        E 1 85 46 00
        E 6 85 46 00
        E 0 95 46 2f
        E 2 95 46 2f
        E 3 85 43 00
        E 1884 85 46 00
        E 5 85 46 00
        E 4 95 46 2f
        E 12 85 3f 00
        E 0 95 41 31
        E 1 85 30 00
        E 0 95 35 2f
        E 0 95 46 2f
        E 9 85 46 00
        E 0 85 46 00
        E 3 85 46 00
        E 10 85 46 00
        E 1879 85 46 00
        E 9 85 46 00
        E 1 85 35 00
        E 6 95 46 2f
        E 2 85 41 00
        E 1921 95 46 2f
        E 14 85 46 00
        E 1898 95 46 2f
        E 10 95 46 2f
        E 11 85 46 00
        E 1893 85 46 00
        E 11 85 46 00
        E 9 95 46 2f
        E 0 95 46 2f
        E 1902 95 46 2f
        E 9 85 46 00
        E 3 85 46 00
        E 7 95 46 2f
        E 1909 85 46 00
        E 3 95 43 2f
        E 1 85 46 00
        E 3 95 46 2f
        E 1913 95 46 2f
        E 2 95 46 2f
        E 1 85 43 00
        E 13 85 46 00
        E 1896 95 46 2f
        E 4 85 46 00
        E 4 95 46 2f
        E 4 95 46 2f
        E 10 95 30 2f
        E 2 85 46 00
        E 1886 85 46 00
        E 4 85 46 00
        E 2 85 46 00
        E 3 95 46 2f
        E 4 95 46 2f
        E 4 85 30 00
        E 0 95 46 2f
        E 4 95 43 2f
        E 1904 85 46 00
        E 11 85 46 00
        E 4 85 46 00
        E 1 85 43 00
        E 0 b5 7b 00
        E 1 ff 2f 00
      >
    >
  >
  <TRACK
    NAME "Choir"
    PEAKCOL 4284506208
    VOLPAN 1.000000 0 1 -1
    MIDIOUT -1
    ISBUS 0 0
    <ITEM
      POSITION 0.009918
      LENGTH 73.702103
      NAME "Choir"
      VOLPAN 1 0 1 -1
      <SOURCE MIDI
        HASDATA 1 960 QN
        E 0 c6 34 00
        E 12 96 3a 4f
        E 3533 86 3a 00
        E 324 96 33 4d
        E 3533 86 33 00
        E 290 96 37 53
        E 3533 86 37 00
        E 300 96 3c 4d
        E 3533 86 3c 00
        E 321 96 32 4f
        E 3533 86 32 00
        E 4143 96 37 4f
        E 12 96 32 4d
        E 3521 86 37 00
        E 12 86 32 00
        E 11806 96 3c 51
        E 5 96 39 4a
        E 1 96 41 4d
        E 19 96 32 4d
        E 3508 86 3c 00
        E 5 86 39 00
        E 1 86 41 00
        E 19 86 32 00
        E 278 96 3e 51
        E 4 96 41 4a
        E 10 96 32 4a
        E 4 96 3a 4c
        E 3515 86 3e 00
        E 4 86 41 00
        E 10 86 32 00
        E 4 86 3a 00
        E 295 96 3e 53
        E 6 96 41 4a
        E 5 96 3a 53
        E 3 96 32 51
        E 3519 86 3e 00
        E 6 86 41 00
        E 5 86 3a 00
        E 3 86 32 00
        E 292 96 3f 51
        E 6 96 37 4d
        E 5 96 33 4f
        E 3 96 3a 4c
        E 3519 86 3f 00
        E 6 86 37 00
        E 5 86 33 00
        E 3 86 3a 00
        E 293 96 3c 4a
        E 2 96 3f 51
        E 8 96 37 53
        E 3 96 32 4f
        E 3520 86 3c 00
        E 2 86 3f 00
        E 8 86 37 00
        E 3 86 32 00
        E 289 96 3c 4c
        E 5 96 41 51
        E 6 96 39 4c
        E 14 96 32 51
        E 3508 86 3c 00
        E 5 86 41 00
        E 6 86 39 00
        E 14 86 32 00
        E 284 96 3e 4d
        E 9 96 41 4c
        E 1 96 3a 4f
        E 8 96 32 51
        E 3515 86 3e 00
        E 9 86 41 00
        E 1 86 3a 00
        E 8 86 32 00
        E 293 96 37 4c
        E 1 96 3f 51
        E 5 96 3a 4a
        E 12 96 33 4c
        E 3515 86 37 00
        E 1 86 3f 00
        E 5 86 3a 00
        E 12 86 33 00
        E 289 96 3c 4c
        E 1 96 3f 53
        E 3 96 37 4a
        E 16 96 32 51
        E 3513 86 3c 00
        E 1 86 3f 00
        E 3 86 37 00
        E 16 86 32 00
        E 280 96 3c 4a
        E 10 96 41 4a
        E 2 96 39 4d
        E 15 96 32 4f
        E 3506 86 3c 00
        E 10 86 41 00
        E 2 86 39 00
        E 15 86 32 00
        E 283 96 3e 4a
        E 1 96 41 4d
        E 7 96 3a 4c
        E 8 96 32 51
        E 3517 86 3e 00
        E 1 86 41 00
        E 7 86 3a 00
        E 8 86 32 00
        E 292 96 3c 53
        E 4 96 3f 51
        E 6 96 37 4a
        E 0 96 32 51
        E 3523 86 3c 00
        E 4 86 3f 00
        E 6 86 37 00
        E 0 86 32 00
        E 297 96 41 51
        E 3533 86 41 00
        E 304 96 3e 4d
        E 13 96 3a 4f
        E 3520 86 3e 00
        E 13 86 3a 00
        E 0 b6 7b 00
        E 1 ff 2f 00
      >
    >
  >
>
