<REAPER_PROJECT 0.1 "7.0" 1700000000
  TEMPO 88.000000 4 4
  SAMPLERATE 48000 0 0
  RENDER_FILE ""
  RENDER_FMT 0 2 0
  RENDER_1X 0
  RENDER_RANGE 1 0 78.909337 0 0
  RENDER_RESAMPLE 3 0 1
  <MASTERTRACK
    VOLPAN 1 0 1 -1
    DEFCHAN 0
  >
  <TRACK
    NAME "Lead"
    PEAKCOL 4284506208
    VOLPAN 1.000000 0 1 -1
    MIDIOUT -1
    ISBUS 0 0
    <ITEM
      POSITION 0.000000
      LENGTH 77.009337
      NAME "Lead"
      VOLPAN 1 0 1 -1
      <SOURCE MIDI
        HASDATA 1 960 QN
        E 0 c0 00 00
        E 0 90 4c 6c
        E 945 90 4e 46
        E 43 80 4c 00
        E 197 80 4e 00
        E 704 90 51 63
        E 174 90 51 4b
        E 680 80 51 00
        E 134 80 51 00
        E 226 90 53 48
        E 898 80 53 00
        E 401 90 55 48
        E 453 80 55 00
        E 354 90 58 4b
        E 453 80 58 00
        E 616 90 55 4b
        E 808 80 55 00
        E 230 90 58 46
        E 808 80 58 00
        E 246 90 55 46
        E 526 90 55 46
        E 462 80 55 00
        E 526 80 55 00
        E 449 90 51 46
        E 227 80 51 00
        E 580 90 53 4c
        E 898 80 53 00
        E 37 90 51 58
        E 453 80 51 00
        E 583 90 53 46
        E 898 80 53 00
        E 161 90 55 46
        E 808 80 55 00
        E 505 90 53 46
        E 403 90 55 46
        E 240 80 55 00
        E 162 90 58 61
        E 3 80 53 00
        E 994 80 58 00
        E 308 90 56 46
        E 791 90 55 49
        E 107 80 56 00
        E 791 80 55 00
        E 172 90 56 46
        E 530 90 53 46
        E 240 80 53 00
        E 128 80 56 00
        E 162 90 51 49
        E 453 80 51 00
        E 575 90 53 4f
        E 808 80 53 00
        E 246 90 51 46
        E 808 80 51 00
        E 495 90 50 46
        E 804 90 51 46
        E 184 80 50 00
        E 714 80 51 00
        E 159 90 51 46
        E 898 80 51 00
        E 164 90 53 54
        E 898 80 53 00
        E 149 90 55 5d
        E 898 80 55 00
        E 151 90 53 46
        E 898 80 53 00
        E 169 90 55 46
        E 408 80 55 00
        E 1891 90 58 51
        E 988 80 58 00
        E 177 90 55 46
        E 453 80 55 00
        E 776 90 56 46
        E 520 90 58 46
        E 240 80 58 00
        E 138 80 56 00
        E 142 90 5d 52
        E 898 80 5d 00
        E 397 90 5c 51
        E 898 80 5c 00
        E 445 90 5d 46
        E 358 90 58 46
        E 240 80 58 00
        E 118 90 58 46
        E 92 80 5d 00
        E 148 80 58 00
        E 118 90 56 46
        E 240 80 56 00
        E 117 90 53 46
        E 240 80 53 00
        E 118 90 51 46
        E 822 90 51 46
        E 166 80 51 00
        E 352 90 53 46
        E 240 80 53 00
        E 140 80 51 00
        E 138 90 58 52
        E 453 80 58 00
        E 65 90 55 46
        E 898 80 55 00
        E 177 90 55 55
        E 453 80 55 00
        E 821 90 56 46
        E 286 90 55 48
        E 326 80 56 00
        E 286 80 55 00
        E 457 90 55 46
        E 988 80 55 00
        E 306 90 53 4b
        E 988 80 53 00
        E 68 90 53 49
        E 406 90 55 46
        E 240 80 55 00
        E 165 90 58 4c
        E 87 80 53 00
        E 593 80 58 00
        E 615 90 58 46
        E 403 90 58 46
        E 240 80 58 00
        E 163 90 5d 54
        E 92 80 58 00
        E 806 80 5d 00
        E 152 90 5c 46
        E 808 80 5c 00
        E 501 90 5d 5a
        E 797 90 5c 54
        E 11 80 5d 00
        E 517 90 58 4c
        E 240 80 58 00
        E 229 80 5c 00
        E 59 90 55 76
        E 898 80 55 00
        E 293 90 56 49
        E 453 80 56 00
        E 15 90 58 46
        E 240 80 58 00
        E 229 90 5d 49
        E 680 80 5d 00
        E 359 90 5c 46
        E 680 80 5c 00
        E 360 90 5d 4b
        E 808 80 5d 00
        E 266 90 5c 46
        E 612 80 5c 00
        E 672 90 69 48
        E 249 80 69 00
        E 283 90 58 46
        E 240 80 58 00
        E 292 90 58 63
        E 644 90 58 46
        E 240 80 58 00
        E 403 90 5d 48
        E 525 80 58 00
        E 284 90 5d 46
        E 89 80 5d 00
        E 364 80 5d 00
        E 596 90 5c 46
        E 898 80 5c 00
        E 415 90 5d 48
        E 453 80 5d 00
        E 587 90 5c 46
        E 808 80 5c 00
        E 9 90 5a 46
        E 988 80 5a 00
        E 71 90 58 48
        E 898 80 58 00
        E 155 90 5c 46
        E 453 80 5c 00
        E 79 90 5a 49
        E 898 80 5a 00
        E 279 90 5a 57
        E 898 80 5a 00
        E 24 90 58 52
        E 898 80 58 00
        E 149 90 56 46
        E 541 90 53 46
        E 267 80 56 00
        E 541 80 53 00
        E 756 90 53 46
        E 988 80 53 00
        E 190 90 53 66
        E 898 80 53 00
        E 147 90 53 4c
        E 898 80 53 00
        E 34 90 55 61
        E 1054 90 55 46
        E 305 80 55 00
        E 593 80 55 00
        E 173 90 53 46
        E 898 80 53 00
        E 165 90 55 46
        E 612 80 55 00
        E 1915 90 51 77
        E 898 80 51 00
        E 287 90 53 46
        E 453 80 53 00
        E 462 90 55 4f
        E 547 90 53 46
        E 351 80 55 00
        E 547 80 53 00
        E 150 90 51 46
        E 898 80 51 00
        E 157 90 53 46
        E 257 90 55 46
        E 240 80 55 00
        E 18 90 58 46
        E 293 80 53 00
        E 515 80 58 00
        E 606 90 55 4b
        E 697 90 58 46
        E 291 80 55 00
        E 389 80 58 00
        E 375 90 55 46
        E 227 80 55 00
        E 838 90 56 46
        E 898 80 56 00
        E 154 90 58 66
        E 898 80 58 00
        E 151 90 55 60
        E 898 80 55 00
        E 140 90 55 46
        E 808 80 55 00
        E 793 90 53 4b
        E 498 80 53 00
        E 543 90 55 5e
        E 1069 90 58 4f
        E 743 80 55 00
        E 163 80 58 00
        E 125 90 56 46
        E 898 80 56 00
        E 154 90 53 51
        E 898 80 53 00
        E 538 90 55 46
        E 676 90 55 46
        E 4 80 55 00
        E 527 90 51 46
        E 81 80 55 00
        E 727 80 51 00
        E 0 b0 7b 00
        E 1 ff 2f 00
      >
    >
  >
  <TRACK
    NAME "Sax"
    PEAKCOL 4282040170
    VOLPAN 1.000000 0 1 -1
    MIDIOUT -1
    ISBUS 0 0
    <ITEM
      POSITION 0.340909
      LENGTH 75.781818
      NAME "Sax"
      VOLPAN 1 0 1 -1
      <SOURCE MIDI
        HASDATA 1 960 QN
        E 0 c1 42 00
        E 480 91 50 65
        E 240 81 50 00
        E 480 91 49 5e
        E 960 81 49 00
        E 1440 91 49 5e
        E 480 81 49 00
        E 960 91 47 61
        E 960 81 47 00
        E 0 91 49 65
        E 960 81 49 00
        E 480 91 4c 5d
        E 960 81 4c 00
        E 240 91 4a 5d
        E 480 81 4a 00
        E 720 91 49 60
        E 960 81 49 00
        E 480 91 4a 5e
        E 480 81 4a 00
        E 1920 91 49 5d
        E 480 81 49 00
        E 1200 91 51 5b
        E 960 81 51 00
        E 0 91 55 5b
        E 240 81 55 00
        E 5040 91 54 5b
        E 240 81 54 00
        E 0 91 56 60
        E 480 81 56 00
        E 0 91 58 61
        E 240 81 58 00
        E 0 91 58 60
        E 960 81 58 00
        E 0 91 5c 63
        E 480 81 5c 00
        E 0 91 5c 60
        E 480 81 5c 00
        E 0 91 5c 5a
        E 960 81 5c 00
        E 0 91 58 63
        E 240 81 58 00
        E 0 91 56 5b
        E 960 81 56 00
        E 0 91 55 5b
        E 480 81 55 00
        E 480 91 58 63
        E 480 81 58 00
        E 0 91 56 60
        E 240 81 56 00
        E 0 91 53 65
        E 480 81 53 00
        E 0 91 53 5d
        E 240 81 53 00
        E 0 91 55 65
        E 480 81 55 00
        E 0 91 55 5e
        E 480 81 55 00
        E 0 91 51 5b
        E 960 81 51 00
        E 0 91 4f 5d
        E 480 81 4f 00
        E 0 91 4d 63
        E 960 81 4d 00
        E 0 91 4c 65
        E 480 81 4c 00
        E 0 91 49 5a
        E 480 81 49 00
        E 0 91 4c 5b
        E 480 81 4c 00
        E 0 91 4c 5e
        E 480 81 4c 00
        E 0 91 49 5a
        E 240 81 49 00
        E 960 91 4c 65
        E 960 81 4c 00
        E 0 91 4c 63
        E 960 81 4c 00
        E 0 91 4c 5d
        E 480 81 4c 00
        E 0 91 4a 5e
        E 480 81 4a 00
        E 0 91 49 65
        E 240 81 49 00
        E 0 91 4a 60
        E 480 81 4a 00
        E 0 91 49 61
        E 480 81 49 00
        E 0 91 4a 61
        E 960 81 4a 00
        E 0 91 47 60
        E 240 81 47 00
        E 0 91 47 63
        E 240 81 47 00
        E 0 91 49 60
        E 480 81 49 00
        E 0 91 47 5e
        E 480 81 47 00
        E 0 91 47 5d
        E 240 81 47 00
        E 0 91 47 5d
        E 960 81 47 00
        E 0 91 49 61
        E 480 81 49 00
        E 0 91 47 60
        E 240 81 47 00
        E 0 91 4a 63
        E 960 81 4a 00
        E 0 91 49 63
        E 240 81 49 00
        E 0 91 47 5e
        E 480 81 47 00
        E 0 91 49 5e
        E 480 81 49 00
        E 0 91 47 60
        E 960 81 47 00
        E 0 91 49 65
        E 480 81 49 00
        E 0 91 49 61
        E 480 81 49 00
        E 0 91 49 63
        E 240 81 49 00
        E 0 91 4c 60
        E 240 81 4c 00
        E 0 91 49 5a
        E 480 81 49 00
        E 0 91 47 5e
        E 480 81 47 00
        E 0 91 4a 5b
        E 960 81 4a 00
        E 0 91 4a 60
        E 240 81 4a 00
        E 0 91 47 5e
        E 480 81 47 00
        E 480 91 47 5d
        E 480 81 47 00
        E 0 91 4a 65
        E 480 81 4a 00
        E 0 91 47 5e
        E 480 81 47 00
        E 0 91 49 63
        E 480 81 49 00
        E 0 91 4a 63
        E 240 81 4a 00
        E 0 91 47 5b
        E 480 81 47 00
        E 0 91 49 5b
        E 480 81 49 00
        E 0 91 4a 5a
        E 480 81 4a 00
        E 0 91 47 5b
        E 240 81 47 00
        E 0 91 47 5b
        E 480 81 47 00
        E 0 91 4a 63
        E 480 81 4a 00
        E 0 91 49 61
        E 480 81 49 00
        E 0 91 4a 5a
        E 480 81 4a 00
        E 480 91 47 61
        E 480 81 47 00
        E 0 91 49 60
        E 480 81 49 00
        E 0 91 47 61
        E 240 81 47 00
        E 0 91 47 5a
        E 480 81 47 00
        E 0 91 4a 65
        E 960 81 4a 00
        E 0 91 4a 5b
        E 960 81 4a 00
        E 0 91 4c 5e
        E 240 81 4c 00
        E 0 91 49 5e
        E 240 81 49 00
        E 0 91 49 5a
        E 240 81 49 00
        E 0 91 47 63
        E 960 81 47 00
        E 0 91 49 5a
        E 240 81 49 00
        E 0 91 49 5d
        E 480 81 49 00
        E 0 91 47 65
        E 960 81 47 00
        E 0 91 4a 65
        E 480 81 4a 00
        E 0 91 49 63
        E 480 81 49 00
        E 0 91 4a 65
        E 480 81 4a 00
        E 0 91 47 63
        E 240 81 47 00
        E 0 91 49 5d
        E 960 81 49 00
        E 0 91 47 60
        E 480 81 47 00
        E 0 91 49 60
        E 480 81 49 00
        E 480 91 49 5e
        E 480 81 49 00
        E 0 91 4c 5e
        E 480 81 4c 00
        E 0 91 4e 61
        E 480 81 4e 00
        E 0 91 4c 5a
        E 480 81 4c 00
        E 0 91 4a 61
        E 480 81 4a 00
        E 0 91 4c 60
        E 480 81 4c 00
        E 0 91 4a 65
        E 480 81 4a 00
        E 0 91 4a 65
        E 480 81 4a 00
        E 0 91 4c 65
        E 240 81 4c 00
        E 0 91 4c 61
        E 960 81 4c 00
        E 480 91 4a 60
        E 240 81 4a 00
        E 0 91 47 5b
        E 240 81 47 00
        E 0 91 47 5a
        E 960 81 47 00
        E 0 91 4a 5b
        E 960 81 4a 00
        E 0 91 4a 5b
        E 240 81 4a 00
        E 0 91 47 5b
        E 960 81 47 00
        E 0 91 47 5a
        E 480 81 47 00
        E 0 91 47 60
        E 240 81 47 00
        E 0 91 49 61
        E 240 81 49 00
        E 0 91 4a 60
        E 960 81 4a 00
        E 0 91 47 60
        E 480 81 47 00
        E 240 91 4a 5a
        E 240 81 4a 00
        E 0 91 4a 63
        E 480 81 4a 00
        E 0 91 47 60
        E 480 81 47 00
        E 0 91 47 60
        E 480 81 47 00
        E 240 91 47 60
        E 480 81 47 00
        E 0 91 47 5a
        E 480 81 47 00
        E 0 91 49 65
        E 480 81 49 00
        E 0 91 4c 5b
        E 960 81 4c 00
        E 0 91 49 63
        E 480 81 49 00
        E 0 91 47 61
        E 960 81 47 00
        E 2880 91 47 5e
        E 480 81 47 00
        E 0 91 47 5e
        E 480 81 47 00
        E 1200 91 49 5e
        E 480 81 49 00
        E 0 91 4a 5d
        E 480 81 4a 00
        E 0 91 49 61
        E 480 81 49 00
        E 1680 91 49 60
        E 480 81 49 00
        E 2400 91 47 60
        E 480 81 47 00
        E 960 91 47 60
        E 480 81 47 00
        E 4560 91 47 5a
        E 480 81 47 00
        E 0 91 47 61
        E 960 81 47 00
        E 1440 91 49 61
        E 240 81 49 00
        E 0 b1 7b 00
        E 1 ff 2f 00
      >
    >
  >
  <TRACK
    NAME "Piano"
    PEAKCOL 4290756410
    VOLPAN 1.000000 0 1 -1
    MIDIOUT -1
    ISBUS 0 0
    <ITEM
      POSITION 0.000000
      LENGTH 75.406818
      NAME "Piano"
      VOLPAN 1 0 1 -1
      <SOURCE MIDI
        HASDATA 1 960 QN
        E 0 c2 00 00
        E 0 92 3d 52
        E 432 82 3d 00
        E 528 92 39 6f
        E 432 82 39 00
        E 1488 92 31 6f
        E 432 82 31 00
        E 528 92 2c 52
        E 432 82 2c 00
        E 528 92 28 6f
        E 432 82 28 00
        E 528 92 28 52
        E 0 92 2c 52
        E 432 82 28 00
        E 0 82 2c 00
        E 1488 92 2a 52
        E 432 82 2a 00
        E 1488 92 2a 52
        E 432 82 2a 00
        E 1488 92 28 52
        E 432 82 28 00
        E 528 92 2c 6f
        E 432 82 2c 00
        E 528 92 28 52
        E 432 82 28 00
        E 6288 92 28 6f
        E 0 92 2c 6f
        E 432 82 28 00
        E 0 82 2c 00
        E 528 92 2c 52
        E 432 82 2c 00
        E 528 92 28 6f
        E 0 92 2c 6f
        E 432 82 28 00
        E 0 82 2c 00
        E 528 92 2a 52
        E 432 82 2a 00
        E 528 92 2a 6f
        E 0 92 2f 6f
        E 432 82 2a 00
        E 0 82 2f 00
        E 528 92 2a 52
        E 0 92 2f 52
        E 432 82 2a 00
        E 0 82 2f 00
        E 528 92 2a 6f
        E 0 92 2f 6f
        E 432 82 2a 00
        E 0 82 2f 00
        E 528 92 28 52
        E 0 92 2c 52
        E 432 82 28 00
        E 0 82 2c 00
        E 528 92 28 6f
        E 0 92 2c 6f
        E 432 82 28 00
        E 0 82 2c 00
        E 528 92 28 52
        E 0 92 2c 52
        E 432 82 28 00
        E 0 82 2c 00
        E 528 92 28 6f
        E 0 92 2c 6f
        E 432 82 28 00
        E 0 82 2c 00
        E 528 92 28 52
        E 0 92 2d 52
        E 432 82 28 00
        E 0 82 2d 00
        E 528 92 28 6f
        E 0 92 2d 6f
        E 432 82 28 00
        E 0 82 2d 00
        E 528 92 28 52
        E 0 92 2d 52
        E 432 82 28 00
        E 0 82 2d 00
        E 528 92 28 6f
        E 0 92 2d 6f
        E 432 82 28 00
        E 0 82 2d 00
        E 528 92 2a 52
        E 432 82 2a 00
        E 528 92 2a 6f
        E 0 92 2f 6f
        E 432 82 2a 00
        E 0 82 2f 00
        E 528 92 2a 52
        E 0 92 2f 52
        E 432 82 2a 00
        E 0 82 2f 00
        E 528 92 2a 6f
        E 0 92 2f 6f
        E 432 82 2a 00
        E 0 82 2f 00
        E 528 92 28 52
        E 0 92 2c 52
        E 432 82 28 00
        E 0 82 2c 00
        E 528 92 28 6f
        E 0 92 2c 6f
        E 432 82 28 00
        E 0 82 2c 00
        E 528 92 28 52
        E 0 92 2c 52
        E 432 82 28 00
        E 0 82 2c 00
        E 528 92 28 6f
        E 0 92 2c 6f
        E 432 82 28 00
        E 0 82 2c 00
        E 528 92 28 52
        E 0 92 2d 52
        E 432 82 28 00
        E 0 82 2d 00
        E 528 92 28 6f
        E 0 92 2d 6f
        E 432 82 28 00
        E 0 82 2d 00
        E 528 92 28 52
        E 0 92 2d 52
        E 432 82 28 00
        E 0 82 2d 00
        E 528 92 28 6f
        E 0 92 2d 6f
        E 432 82 28 00
        E 0 82 2d 00
        E 528 92 28 52
        E 0 92 2d 52
        E 432 82 28 00
        E 0 82 2d 00
        E 528 92 28 6f
        E 0 92 2d 6f
        E 432 82 28 00
        E 0 82 2d 00
        E 528 92 28 52
        E 0 92 2d 52
        E 432 82 28 00
        E 0 82 2d 00
        E 528 92 28 6f
        E 0 92 2d 6f
        E 432 82 28 00
        E 0 82 2d 00
        E 528 92 28 52
        E 0 92 2c 52
        E 432 82 28 00
        E 0 82 2c 00
        E 528 92 28 6f
        E 0 92 2c 6f
        E 432 82 28 00
        E 0 82 2c 00
        E 528 92 28 52
        E 0 92 2c 52
        E 432 82 28 00
        E 0 82 2c 00
        E 528 92 28 6f
        E 0 92 2c 6f
        E 432 82 28 00
        E 0 82 2c 00
        E 528 92 2a 52
        E 432 82 2a 00
        E 528 92 2a 6f
        E 0 92 2f 6f
        E 432 82 2a 00
        E 0 82 2f 00
        E 528 92 2a 52
        E 0 92 2f 52
        E 432 82 2a 00
        E 0 82 2f 00
        E 528 92 2a 6f
        E 0 92 2f 6f
        E 432 82 2a 00
        E 0 82 2f 00
        E 528 92 28 52
        E 0 92 2c 52
        E 432 82 28 00
        E 0 82 2c 00
        E 528 92 28 6f
        E 0 92 2c 6f
        E 432 82 28 00
        E 0 82 2c 00
        E 528 92 28 52
        E 0 92 2c 52
        E 432 82 28 00
        E 0 82 2c 00
        E 528 92 28 6f
        E 0 92 2c 6f
        E 432 82 28 00
        E 0 82 2c 00
        E 528 92 28 52
        E 0 92 2d 52
        E 432 82 28 00
        E 0 82 2d 00
        E 528 92 28 6f
        E 0 92 2d 6f
        E 432 82 28 00
        E 0 82 2d 00
        E 528 92 28 52
        E 0 92 2d 52
        E 432 82 28 00
        E 0 82 2d 00
        E 528 92 28 6f
        E 0 92 2d 6f
        E 432 82 28 00
        E 0 82 2d 00
        E 528 92 28 52
        E 0 92 2c 52
        E 432 82 28 00
        E 0 82 2c 00
        E 528 92 28 6f
        E 0 92 2c 6f
        E 432 82 28 00
        E 0 82 2c 00
        E 528 92 28 52
        E 0 92 2c 52
        E 432 82 28 00
        E 0 82 2c 00
        E 528 92 28 6f
        E 0 92 2c 6f
        E 432 82 28 00
        E 0 82 2c 00
        E 528 92 2a 52
        E 432 82 2a 00
        E 528 92 2a 6f
        E 0 92 2f 6f
        E 432 82 2a 00
        E 0 82 2f 00
        E 528 92 2a 52
        E 0 92 2f 52
        E 432 82 2a 00
        E 0 82 2f 00
        E 528 92 2a 6f
        E 0 92 2f 6f
        E 432 82 2a 00
        E 0 82 2f 00
        E 528 92 28 52
        E 0 92 2c 52
        E 432 82 28 00
        E 0 82 2c 00
        E 528 92 28 6f
        E 0 92 2c 6f
        E 432 82 28 00
        E 0 82 2c 00
        E 528 92 28 52
        E 0 92 2c 52
        E 432 82 28 00
        E 0 82 2c 00
        E 528 92 28 6f
        E 0 92 2c 6f
        E 432 82 28 00
        E 0 82 2c 00
        E 528 92 28 52
        E 0 92 2d 52
        E 432 82 28 00
        E 0 82 2d 00
        E 528 92 28 6f
        E 0 92 2d 6f
        E 432 82 28 00
        E 0 82 2d 00
        E 528 92 28 52
        E 0 92 2d 52
        E 432 82 28 00
        E 0 82 2d 00
        E 528 92 28 6f
        E 0 92 2d 6f
        E 432 82 28 00
        E 0 82 2d 00
        E 528 92 2a 52
        E 432 82 2a 00
        E 528 92 2a 6f
        E 0 92 2f 6f
        E 432 82 2a 00
        E 0 82 2f 00
        E 528 92 2a 52
        E 0 92 2f 52
        E 432 82 2a 00
        E 0 82 2f 00
        E 528 92 2a 6f
        E 0 92 2f 6f
        E 432 82 2a 00
        E 0 82 2f 00
        E 528 92 28 52
        E 0 92 2c 52
        E 432 82 28 00
        E 0 82 2c 00
        E 528 92 28 6f
        E 0 92 2c 6f
        E 432 82 28 00
        E 0 82 2c 00
        E 528 92 28 52
        E 0 92 2c 52
        E 432 82 28 00
        E 0 82 2c 00
        E 2448 92 28 6f
        E 432 82 28 00
        E 1488 92 2d 6f
        E 432 82 2d 00
        E 528 92 2d 52
        E 432 82 2d 00
        E 3408 92 2c 52
        E 432 82 2c 00
        E 528 92 28 6f
        E 432 82 28 00
        E 528 92 2c 52
        E 432 82 2c 00
        E 4368 92 2f 6f
        E 432 82 2f 00
        E 2448 92 2c 52
        E 432 82 2c 00
        E 0 b2 7b 00
        E 1 ff 2f 00
      >
    >
  >
  <TRACK
    NAME "WalkBass"
    PEAKCOL 4286528191
    VOLPAN 1.000000 0 1 -1
    MIDIOUT -1
    ISBUS 0 0
    <ITEM
      POSITION 0.000000
      LENGTH 76.395455
      NAME "WalkBass"
      VOLPAN 1 0 1 -1
      <SOURCE MIDI
        HASDATA 1 960 QN
        E 0 c3 21 00
        E 0 93 21 6f
        E 864 83 21 00
        E 96 93 1c 6f
        E 864 83 1c 00
        E 96 93 1c 6f
        E 864 83 1c 00
        E 96 93 1d 6f
        E 864 83 1d 00
        E 96 93 1c 6f
        E 864 83 1c 00
        E 96 93 1e 6f
        E 864 83 1e 00
        E 96 93 20 6f
        E 864 83 20 00
        E 96 93 24 6f
        E 864 83 24 00
        E 96 93 23 6f
        E 864 83 23 00
        E 96 93 25 6f
        E 864 83 25 00
        E 96 93 23 6f
        E 864 83 23 00
        E 96 93 29 6f
        E 864 83 29 00
        E 96 93 28 6f
        E 864 83 28 00
        E 96 93 2a 6f
        E 864 83 2a 00
        E 96 93 2c 6f
        E 864 83 2c 00
        E 96 93 2e 6f
        E 864 83 2e 00
        E 96 93 2d 6f
        E 864 83 2d 00
        E 96 93 31 6f
        E 864 83 31 00
        E 96 93 32 6f
        E 864 83 32 00
        E 96 93 32 6f
        E 864 83 32 00
        E 96 93 32 6f
        E 864 83 32 00
        E 96 93 32 6f
        E 864 83 32 00
        E 96 93 2f 6f
        E 864 83 2f 00
        E 96 93 30 6f
        E 864 83 30 00
        E 96 93 2f 6f
        E 864 83 2f 00
        E 96 93 2d 6f
        E 864 83 2d 00
        E 96 93 2f 6f
        E 864 83 2f 00
        E 96 93 32 6f
        E 864 83 32 00
        E 96 93 32 6f
        E 864 83 32 00
        E 96 93 32 6f
        E 864 83 32 00
        E 96 93 2f 6f
        E 864 83 2f 00
        E 96 93 2c 6f
        E 864 83 2c 00
        E 96 93 2d 6f
        E 864 83 2d 00
        E 96 93 2f 6f
        E 864 83 2f 00
        E 96 93 2d 6f
        E 864 83 2d 00
        E 96 93 30 6f
        E 864 83 30 00
        E 96 93 2f 6f
        E 864 83 2f 00
        E 96 93 32 6f
        E 864 83 32 00
        E 96 93 2f 6f
        E 864 83 2f 00
        E 96 93 32 6f
        E 864 83 32 00
        E 96 93 32 6f
        E 864 83 32 00
        E 96 93 32 6f
        E 864 83 32 00
        E 96 93 2f 6f
        E 864 83 2f 00
        E 96 93 2c 6f
        E 864 83 2c 00
        E 96 93 2d 6f
        E 864 83 2d 00
        E 96 93 2f 6f
        E 864 83 2f 00
        E 96 93 2d 6f
        E 864 83 2d 00
        E 96 93 2e 6f
        E 864 83 2e 00
        E 96 93 2d 6f
        E 864 83 2d 00
        E 96 93 28 6f
        E 864 83 28 00
        E 96 93 28 6f
        E 864 83 28 00
        E 96 93 29 6f
        E 864 83 29 00
        E 96 93 28 6f
        E 864 83 28 00
        E 96 93 2a 6f
        E 864 83 2a 00
        E 96 93 2c 6f
        E 864 83 2c 00
        E 96 93 30 6f
        E 864 83 30 00
        E 96 93 2f 6f
        E 864 83 2f 00
        E 96 93 2f 6f
        E 864 83 2f 00
        E 96 93 2f 6f
        E 864 83 2f 00
        E 96 93 32 6f
        E 864 83 32 00
        E 96 93 32 6f
        E 864 83 32 00
        E 96 93 32 6f
        E 864 83 32 00
        E 96 93 2f 6f
        E 864 83 2f 00
        E 96 93 2c 6f
        E 864 83 2c 00
        E 96 93 2d 6f
        E 864 83 2d 00
        E 96 93 2c 6f
        E 864 83 2c 00
        E 96 93 2d 6f
        E 864 83 2d 00
        E 96 93 27 6f
        E 864 83 27 00
        E 96 93 28 6f
        E 864 83 28 00
        E 96 93 28 6f
        E 864 83 28 00
        E 96 93 2c 6f
        E 864 83 2c 00
        E 96 93 30 6f
        E 864 83 30 00
        E 96 93 2f 6f
        E 864 83 2f 00
        E 96 93 2a 6f
        E 864 83 2a 00
        E 96 93 2a 6f
        E 864 83 2a 00
        E 96 93 27 6f
        E 864 83 27 00
        E 96 93 28 6f
        E 864 83 28 00
        E 96 93 2c 6f
        E 864 83 2c 00
        E 96 93 2c 6f
        E 864 83 2c 00
        E 96 93 2e 6f
        E 864 83 2e 00
        E 96 93 2d 6f
        E 864 83 2d 00
        E 96 93 2d 6f
        E 864 83 2d 00
        E 96 93 2d 6f
        E 864 83 2d 00
        E 96 93 30 6f
        E 864 83 30 00
        E 96 93 2f 6f
        E 864 83 2f 00
        E 96 93 31 6f
        E 864 83 31 00
        E 96 93 2f 6f
        E 864 83 2f 00
        E 96 93 32 6f
        E 864 83 32 00
        E 96 93 32 6f
        E 864 83 32 00
        E 96 93 32 6f
        E 864 83 32 00
        E 96 93 2f 6f
        E 864 83 2f 00
        E 96 93 2c 6f
        E 864 83 2c 00
        E 96 93 2d 6f
        E 864 83 2d 00
        E 96 93 2c 6f
        E 864 83 2c 00
        E 96 93 2d 6f
        E 864 83 2d 00
        E 96 93 2e 6f
        E 864 83 2e 00
        E 96 93 2d 6f
        E 864 83 2d 00
        E 96 93 2c 6f
        E 864 83 2c 00
        E 96 93 2d 6f
        E 864 83 2d 00
        E 96 93 27 6f
        E 864 83 27 00
        E 96 93 28 6f
        E 864 83 28 00
        E 96 93 2c 6f
        E 864 83 2c 00
        E 96 93 2c 6f
        E 864 83 2c 00
        E 96 93 30 6f
        E 864 83 30 00
        E 96 93 2f 6f
        E 864 83 2f 00
        E 96 93 2f 6f
        E 864 83 2f 00
        E 96 93 2f 6f
        E 864 83 2f 00
        E 96 93 32 6f
        E 864 83 32 00
        E 96 93 32 6f
        E 864 83 32 00
        E 96 93 31 6f
        E 864 83 31 00
        E 96 93 2f 6f
        E 864 83 2f 00
        E 96 93 2c 6f
        E 864 83 2c 00
        E 0 b3 7b 00
        E 1 ff 2f 00
      >
    >
  >
  <TRACK
    NAME "Brass"
    PEAKCOL 4290740026
    VOLPAN 1.000000 0 1 -1
    MIDIOUT -1
    ISBUS 0 0
    <ITEM
      POSITION 0.003518
      LENGTH 69.952448
      NAME "Brass"
      VOLPAN 1 0 1 -1
      <SOURCE MIDI
        HASDATA 1 960 QN
        E 0 c4 3d 00
        E 5 94 39 6c
        E 2 94 45 6c
        E 1150 84 39 00
        E 2 84 45 00
        E 1013 94 39 6c
        E 2 94 39 6c
        E 1150 84 39 00
        E 2 84 39 00
        E 994 94 47 6c
        E 8 94 3b 6c
        E 6 94 3b 6c
        E 1138 84 47 00
        E 8 84 3b 00
        E 6 84 3b 00
        E 1001 94 47 6c
        E 5 94 3b 6c
        E 1147 84 47 00
        E 5 84 3b 00
        E 1007 94 3b 6c
        E 1152 84 3b 00
        E 1005 94 47 6c
        E 0 94 3b 6c
        E 1152 84 47 00
        E 0 84 3b 00
        E 5330 94 45 6c
        E 3 94 39 6c
        E 0 94 39 6c
        E 1149 84 45 00
        E 3 84 39 00
        E 0 84 39 00
        E 995 94 47 6c
        E 13 94 47 6c
        E 1139 84 47 00
        E 13 84 47 00
        E 995 94 47 6c
        E 6 94 3b 6c
        E 1 94 47 6c
        E 2 94 3b 6c
        E 3 94 3b 6c
        E 1140 84 47 00
        E 6 84 3b 00
        E 1 84 47 00
        E 2 84 3b 00
        E 3 84 3b 00
        E 996 94 47 6c
        E 6 94 3b 6c
        E 2 94 47 6c
        E 5 94 3b 6c
        E 1 94 3b 6c
        E 1138 84 47 00
        E 6 84 3b 00
        E 2 84 47 00
        E 5 84 3b 00
        E 1 84 3b 00
        E 994 94 47 6c
        E 8 94 3b 6c
        E 1 94 3b 6c
        E 1 94 47 6c
        E 4 94 3b 6c
        E 1138 84 47 00
        E 8 84 3b 00
        E 1 84 3b 00
        E 1 84 47 00
        E 4 84 3b 00
        E 994 94 47 6c
        E 5 94 3b 6c
        E 4 94 3b 6c
        E 1 94 3b 6c
        E 3 94 47 6c
        E 1139 84 47 00
        E 5 84 3b 00
        E 4 84 3b 00
        E 1 84 3b 00
        E 3 84 47 00
        E 995 94 47 6c
        E 8 94 3b 6c
        E 0 94 3b 6c
        E 1 94 3b 6c
        E 2 94 47 6c
        E 1141 84 47 00
        E 8 84 3b 00
        E 0 84 3b 00
        E 1 84 3b 00
        E 2 84 47 00
        E 997 94 45 6c
        E 6 94 39 6c
        E 2 94 45 6c
        E 1 94 39 6c
        E 5 94 39 6c
        E 1138 84 45 00
        E 6 84 39 00
        E 2 84 45 00
        E 1 84 39 00
        E 5 84 39 00
        E 994 94 47 6c
        E 9 94 3b 6c
        E 2 94 3b 6c
        E 0 94 47 6c
        E 2 94 3b 6c
        E 1139 84 47 00
        E 9 84 3b 00
        E 2 84 3b 00
        E 0 84 47 00
        E 2 84 3b 00
        E 995 94 47 6c
        E 9 94 3b 6c
        E 1 94 3b 6c
        E 2 94 3b 6c
        E 1 94 47 6c
        E 1139 84 47 00
        E 9 84 3b 00
        E 1 84 3b 00
        E 2 84 3b 00
        E 1 84 47 00
        E 995 94 47 6c
        E 5 94 3b 6c
        E 0 94 47 6c
        E 3 94 3b 6c
        E 6 94 3b 6c
        E 1138 84 47 00
        E 5 84 3b 00
        E 0 84 47 00
        E 3 84 3b 00
        E 6 84 3b 00
        E 994 94 47 6c
        E 5 94 3b 6c
        E 2 94 47 6c
        E 0 94 3b 6c
        E 2 94 3b 6c
        E 1143 84 47 00
        E 5 84 3b 00
        E 2 84 47 00
        E 0 84 3b 00
        E 2 84 3b 00
        E 999 94 45 6c
        E 7 94 39 6c
        E 1 94 39 6c
        E 0 94 45 6c
        E 6 94 39 6c
        E 1138 84 45 00
        E 7 84 39 00
        E 1 84 39 00
        E 0 84 45 00
        E 6 84 39 00
        E 994 94 45 6c
        E 6 94 39 6c
        E 4 94 39 6c
        E 2 94 39 6c
        E 2 94 45 6c
        E 1138 84 45 00
        E 6 84 39 00
        E 4 84 39 00
        E 2 84 39 00
        E 2 84 45 00
        E 994 94 45 6c
        E 5 94 39 6c
        E 0 94 39 6c
        E 1 94 45 6c
        E 8 94 39 6c
        E 1138 84 45 00
        E 5 84 39 00
        E 0 84 39 00
        E 1 84 45 00
        E 8 84 39 00
        E 994 94 45 6c
        E 6 94 39 6c
        E 6 94 45 6c
        E 0 94 39 6c
        E 2 94 39 6c
        E 1138 84 45 00
        E 6 84 39 00
        E 6 84 45 00
        E 0 84 39 00
        E 2 84 39 00
        E 994 94 47 6c
        E 6 94 3b 6c
        E 0 94 3b 6c
        E 2 94 47 6c
        E 3 94 3b 6c
        E 1141 84 47 00
        E 6 84 3b 00
        E 0 84 3b 00
        E 2 84 47 00
        E 3 84 3b 00
        E 997 94 47 6c
        E 7 94 3b 6c
        E 1 94 3b 6c
        E 2 94 3b 6c
        E 4 94 47 6c
        E 1138 84 47 00
        E 7 84 3b 00
        E 1 84 3b 00
        E 2 84 3b 00
        E 4 84 47 00
        E 994 94 47 6c
        E 5 94 3b 6c
        E 4 94 47 6c
        E 2 94 3b 6c
        E 2 94 3b 6c
        E 1139 84 47 00
        E 5 84 3b 00
        E 4 84 47 00
        E 2 84 3b 00
        E 2 84 3b 00
        E 995 94 47 6c
        E 5 94 3b 6c
        E 1 94 47 6c
        E 3 94 3b 6c
        E 1 94 3b 6c
        E 1142 84 47 00
        E 5 84 3b 00
        E 1 84 47 00
        E 3 84 3b 00
        E 1 84 3b 00
        E 998 94 47 6c
        E 7 94 3b 6c
        E 3 94 47 6c
        E 2 94 3b 6c
        E 0 94 3b 6c
        E 1140 84 47 00
        E 7 84 3b 00
        E 3 84 47 00
        E 2 84 3b 00
        E 0 84 3b 00
        E 996 94 45 6c
        E 7 94 39 6c
        E 1 94 39 6c
        E 1 94 39 6c
        E 3 94 45 6c
        E 1140 84 45 00
        E 7 84 39 00
        E 1 84 39 00
        E 1 84 39 00
        E 3 84 45 00
        E 996 94 45 6c
        E 9 94 45 6c
        E 0 94 39 6c
        E 2 94 39 6c
        E 2 94 39 6c
        E 1139 84 45 00
        E 9 84 45 00
        E 0 84 39 00
        E 2 84 39 00
        E 2 84 39 00
        E 995 94 47 6c
        E 9 94 47 6c
        E 2 94 3b 6c
        E 0 94 3b 6c
        E 2 94 3b 6c
        E 1139 84 47 00
        E 9 84 47 00
        E 2 84 3b 00
        E 0 84 3b 00
        E 2 84 3b 00
        E 995 94 47 6c
        E 6 94 3b 6c
        E 0 94 3b 6c
        E 0 94 47 6c
        E 1 94 3b 6c
        E 1145 84 47 00
        E 6 84 3b 00
        E 0 84 3b 00
        E 0 84 47 00
        E 1 84 3b 00
        E 1001 94 47 6c
        E 6 94 47 6c
        E 2 94 3b 6c
        E 1 94 3b 6c
        E 1 94 3b 6c
        E 1142 84 47 00
        E 6 84 47 00
        E 2 84 3b 00
        E 1 84 3b 00
        E 1 84 3b 00
        E 998 94 47 6c
        E 5 94 3b 6c
        E 4 94 3b 6c
        E 3 94 47 6c
        E 0 94 3b 6c
        E 1140 84 47 00
        E 5 84 3b 00
        E 4 84 3b 00
        E 3 84 47 00
        E 0 84 3b 00
        E 996 94 47 6c
        E 8 94 3b 6c
        E 1 94 3b 6c
        E 1 94 3b 6c
        E 2 94 47 6c
        E 1140 84 47 00
        E 8 84 3b 00
        E 1 84 3b 00
        E 1 84 3b 00
        E 2 84 47 00
        E 996 94 45 6c
        E 6 94 39 6c
        E 1 94 45 6c
        E 3 94 39 6c
        E 4 94 39 6c
        E 1138 84 45 00
        E 6 84 39 00
        E 1 84 45 00
        E 3 84 39 00
        E 4 84 39 00
        E 994 94 45 6c
        E 10 94 39 6c
        E 1 94 39 6c
        E 1 94 39 6c
        E 2 94 45 6c
        E 1138 84 45 00
        E 10 84 39 00
        E 1 84 39 00
        E 1 84 39 00
        E 2 84 45 00
        E 994 94 47 6c
        E 9 94 3b 6c
        E 1 94 3b 6c
        E 1 94 3b 6c
        E 2 94 47 6c
        E 1139 84 47 00
        E 9 84 3b 00
        E 1 84 3b 00
        E 1 84 3b 00
        E 2 84 47 00
        E 995 94 47 6c
        E 5 94 3b 6c
        E 1 94 47 6c
        E 7 94 3b 6c
        E 1 94 3b 6c
        E 1138 84 47 00
        E 5 84 3b 00
        E 1 84 47 00
        E 7 84 3b 00
        E 1 84 3b 00
        E 1005 94 47 6c
        E 1152 84 47 00
        E 1010 94 45 6c
        E 1 94 39 6c
        E 1151 84 45 00
        E 1 84 39 00
        E 3160 94 45 6c
        E 3 94 39 6c
        E 1149 84 45 00
        E 3 84 39 00
        E 999 94 45 6c
        E 1152 84 45 00
        E 1013 94 3b 6c
        E 1152 84 3b 00
        E 0 b4 7b 00
        E 1 ff 2f 00
      >
    >
  >
  <TRACK
    NAME "Strings"
    PEAKCOL 4284186559
    VOLPAN 1.000000 0 1 -1
    MIDIOUT -1
    ISBUS 0 0
    <ITEM
      POSITION 0.000000
      LENGTH 76.483722
      NAME "Strings"
      VOLPAN 1 0 1 -1
      <SOURCE MIDI
        HASDATA 1 960 QN
        E 0 c5 30 00
        E 0 95 34 32
        E 2 95 45 32
        E 7 95 4c 32
        E 1901 95 45 32
        E 2 85 34 00
        E 3 95 34 32
        E 3 95 45 32
        E 2 95 4c 32
        E 3 85 45 00
        E 19 85 4c 00
        E 1881 85 34 00
        E 8 95 47 32
        E 9 95 40 32
        E 1 85 4c 00
        E 1 85 45 00
        E 0 95 4c 32
        E 2 85 45 00
        E 1903 95 4c 32
        E 13 85 40 00
        E 5 85 47 00
        E 5 95 4c 32
        E 11 85 4c 00
        E 1879 85 4c 00
        E 30 85 4c 00
        E 1897 95 34 32
        E 5 95 4c 32
        E 15 95 36 32
        E 2 95 34 32
        E 4 95 34 32
        E 1886 85 34 00
        E 11 85 4c 00
        E 14 85 34 00
        E 2 95 47 32
        E 3 85 36 00
        E 14 85 34 00
        E 1885 95 47 32
        E 6 85 47 00
        E 6 95 40 32
        E 1911 95 4c 32
        E 2 85 47 00
        E 1 95 49 32
        E 5 95 49 32
        E 1 85 40 00
        E 1906 85 49 00
        E 6 95 4c 32
        E 13 85 4c 00
        E 5 85 49 00
        E 1909 85 4c 00
        E 15 95 34 32
        E 1902 95 4c 32
        E 4 95 40 32
        E 11 95 4c 32
        E 1 95 4c 32
        E 9 85 34 00
        E 1881 85 4c 00
        E 5 95 4c 32
        E 8 95 4c 32
        E 1 85 4c 00
        E 1 95 4c 32
        E 1 95 36 32
        E 1 95 4c 32
        E 0 95 4c 32
        E 1 85 40 00
        E 0 95 42 32
        E 4 95 34 32
        E 9 85 4c 00
        E 1887 85 36 00
        E 4 85 4c 00
        E 2 95 4c 32
        E 4 95 4c 32
        E 1 95 47 32
        E 2 85 4c 00
        E 2 85 4c 00
        E 3 95 4c 32
        E 1 85 4c 00
        E 1 85 42 00
        E 0 95 42 32
        E 3 95 4c 32
        E 2 95 4c 32
        E 7 85 4c 00
        E 1 95 4a 32
        E 3 85 34 00
        E 1871 85 4c 00
        E 6 85 4c 00
        E 11 85 47 00
        E 3 95 4c 32
        E 7 85 4c 00
        E 0 95 4c 32
        E 2 95 4c 32
        E 2 85 4c 00
        E 2 85 42 00
        E 0 95 4c 32
        E 0 95 4c 32
        E 9 95 4c 32
        E 3 95 4c 32
        E 0 95 44 32
        E 6 85 4c 00
        E 9 85 4a 00
        E 1885 85 4c 00
        E 1 95 4c 32
        E 1 95 4c 32
        E 6 85 4c 00
        E 0 95 40 32
        E 1 95 4c 32
        E 0 95 34 32
        E 2 85 4c 00
        E 0 95 34 32
        E 6 85 4c 00
        E 0 95 4c 32
        E 1 85 44 00
        E 1 95 47 32
        E 1 85 4c 00
        E 1 85 4c 00
        E 12 85 4c 00
        E 1877 85 4c 00
        E 6 95 4c 32
        E 1 95 45 32
        E 1 95 4c 32
        E 1 85 4c 00
        E 1 85 4c 00
        E 0 85 34 00
        E 0 95 4c 32
        E 8 85 40 00
        E 0 95 40 32
        E 1 85 4c 00
        E 3 95 4c 32
        E 0 95 34 32
        E 7 85 47 00
        E 0 95 4c 32
        E 1 85 34 00
        E 1892 85 4c 00
        E 7 95 34 32
        E 1 85 4c 00
        E 2 85 45 00
        E 3 95 4c 32
        E 3 85 4c 00
        E 0 85 40 00
        E 0 95 40 32
        E 2 95 4c 32
        E 1 95 34 32
        E 2 85 34 00
        E 4 95 49 32
        E 2 85 4c 00
        E 3 95 4c 32
        E 0 95 34 32
        E 1 85 4c 00
        E 1892 85 4c 00
        E 3 95 4c 32
        E 2 95 4a 32
        E 1 95 4c 32
        E 2 95 47 32
        E 1 85 4c 00
        E 2 85 34 00
        E 2 85 40 00
        E 0 95 4e 32
        E 2 85 34 00
        E 3 95 4c 32
        E 5 85 4c 00
        E 1 95 4c 32
        E 3 95 4c 32
        E 3 85 49 00
        E 7 85 34 00
        E 1867 85 4c 00
        E 12 85 4c 00
        E 7 95 34 32
        E 5 85 4a 00
        E 1 95 4c 32
        E 4 85 4e 00
        E 0 95 42 32
        E 1 85 4c 00
        E 0 95 4c 32
        E 3 85 47 00
        E 0 95 4c 32
        E 1 95 4c 32
        E 4 95 47 32
        E 2 85 4c 00
        E 0 95 4c 32
        E 4 85 4c 00
        E 1891 95 4c 32
        E 4 95 34 32
        E 3 85 4c 00
        E 4 95 4c 32
        E 0 95 4c 32
        E 3 85 42 00
        E 0 95 44 32
        E 2 95 4c 32
        E 1 95 4c 32
        E 1 85 34 00
        E 4 85 4c 00
        E 4 85 47 00
        E 2 95 4c 32
        E 4 85 4c 00
        E 3 85 4c 00
        E 1 85 4c 00
        E 1879 85 4c 00
        E 4 85 34 00
        E 1 85 4c 00
        E 4 85 4c 00
        E 4 95 4c 32
        E 3 95 4c 32
        E 3 85 44 00
        E 0 95 44 32
        E 1 85 4c 00
        E 2 95 38 32
        E 2 95 4c 32
        E 1 95 4c 32
        E 1 95 4c 32
        E 2 95 34 32
        E 7 85 4c 00
        E 10 85 4c 00
        E 1875 85 4c 00
        E 8 85 38 00
        E 6 95 34 32
        E 1 85 34 00
        E 3 95 4c 32
        E 1 85 44 00
        E 0 95 4c 32
        E 0 95 45 32
        E 2 85 4c 00
        E 0 95 34 32
        E 1 95 4c 32
        E 3 85 4c 00
        E 1 95 4c 32
        E 1 85 4c 00
        E 0 95 4c 32
        E 11 85 4c 00
        E 1882 85 4c 00
        E 8 85 34 00
        E 1 85 4c 00
        E 2 85 34 00
        E 1 95 4c 32
        E 1 95 4c 32
        E 5 85 4c 00
        E 0 95 4c 32
        E 1 85 45 00
        E 0 95 45 32
        E 3 85 4c 00
        E 0 95 4c 32
        E 0 95 34 32
        E 1 95 4c 32
        E 9 85 4c 00
        E 0 95 4c 32
        E 1895 85 4c 00
        E 2 85 4c 00
        E 2 85 4c 00
        E 3 95 4c 32
        E 5 85 45 00
        E 0 95 45 32
        E 0 95 34 32
        E 4 85 4c 00
        E 1 95 49 32
        E 2 95 4c 32
        E 2 85 4c 00
        E 1 95 4c 32
        E 3 95 4c 32
        E 0 95 4c 32
        E 1 85 34 00
        E 13 85 4c 00
        E 1876 85 4c 00
        E 7 95 4c 32
        E 5 85 49 00
        E 0 95 4c 32
        E 1 95 4c 32
        E 0 95 34 32
        E 4 85 45 00
        E 0 95 4c 32
        E 0 95 45 32
        E 1 85 34 00
        E 1 85 4c 00
        E 0 95 4c 32
        E 3 95 4c 32
        E 6 85 4c 00
        E 1 85 4c 00
        E 3 85 4c 00
        E 1877 85 4c 00
        E 7 85 4c 00
        E 0 85 4c 00
        E 8 95 4c 32
        E 2 85 4c 00
        E 2 95 4c 32
        E 2 95 4c 32
        E 2 95 4c 32
        E 3 95 4c 32
        E 2 85 4c 00
        E 0 85 45 00
        E 0 95 44 32
        E 3 95 4c 32
        E 2 85 34 00
        E 6 85 4c 00
        E 1 95 34 32
        E 1887 85 4c 00
        E 5 85 4c 00
        E 4 95 47 32
        E 2 85 4c 00
        E 0 85 4c 00
        E 5 95 4c 32
        E 1 85 4c 00
        E 1 95 4c 32
        E 3 85 44 00
        E 0 95 44 32
        E 1 95 4c 32
        E 1 95 4c 32
        E 4 85 34 00
        E 1 95 4c 32
        E 1 85 4c 00
        E 4 95 4c 32
        E 1890 85 4c 00
        E 5 95 4c 32
        E 0 95 34 32
        E 1 95 4c 32
        E 1 95 4c 32
        E 2 85 4c 00
        E 3 95 4c 32
        E 1 85 4c 00
        E 0 95 4a 32
        E 4 85 47 00
        E 1 85 44 00
        E 0 95 42 32
        E 1 95 4c 32
        E 6 85 4c 00
        E 3 85 4c 00
        E 8 85 4c 00
        E 1874 85 4c 00
        E 3 85 4c 00
        E 1 85 34 00
        E 5 85 4c 00
        E 11 85 4c 00
        E 1 95 4a 32
        E 1 95 4c 32
        E 6 85 42 00
        E 0 95 42 32
        E 3 95 4c 32
        E 0 95 34 32
        E 3 85 4c 00
        E 2 95 4c 32
        E 4 85 4a 00
        E 2 95 4a 32
        E 0 95 4c 32
        E 1889 85 4c 00
        E 4 95 4c 32
        E 2 85 4c 00
        E 2 95 4c 32
        E 9 85 42 00
        E 0 95 44 34
        E 2 95 4c 32
        E 2 85 4c 00
        E 1 95 34 32
        E 1 85 4a 00
        E 5 95 4c 32
        E 0 95 4c 32
        E 1 85 34 00
        E 1 85 4a 00
        E 1 95 4c 32
        E 2 85 4c 00
        E 1877 85 4c 00
        E 17 95 4c 32
        E 2 95 47 32
        E 2 85 4c 00
        E 0 95 4c 32
        E 3 85 4c 00
        E 1 95 4c 32
        E 2 85 44 00
        E 0 95 44 34
        E 3 95 4c 32
        E 3 85 4c 00
        E 0 85 4c 00
        E 2 95 4c 32
        E 2 95 4c 32
        E 7 85 34 00
        E 8 85 4c 00
        E 1871 85 4c 00
        E 11 95 4c 32
        E 1 85 4c 00
        E 2 95 4c 32
        E 2 95 4c 32
        E 1 95 4c 32
        E 1 95 4c 32
        E 6 85 44 00
        E 0 85 4c 00
        E 0 95 51 34
        E 1 85 4c 00
        E 0 95 4c 32
        E 4 85 47 00
        E 3 85 4c 00
        E 4 95 4c 32
        E 14 85 4c 00
        E 1879 85 4c 00
        E 2 95 4c 32
        E 6 95 4c 32
        E 1 95 4c 32
        E 1 95 4c 32
        E 4 85 4c 00
        E 1 85 51 00
        E 0 95 45 34
        E 1 85 4c 00
        E 1 95 4c 32
        E 6 85 4c 00
        E 0 95 34 32
        E 2 95 34 32
        E 1 85 4c 00
        E 1 85 4c 00
        E 11 85 4c 00
        E 1883 95 34 32
        E 3 85 4c 00
        E 2 95 4c 32
        E 1 85 34 00
        E 3 85 4c 00
        E 4 85 4c 00
        E 0 95 4c 32
        E 1 85 45 00
        E 0 95 47 34
        E 3 85 4c 00
        E 1 95 34 32
        E 2 95 4c 32
        E 4 95 4c 32
        E 3 95 4c 32
        E 2 85 34 00
        E 2 85 4c 00
        E 1882 85 4c 00
        E 7 85 34 00
        E 0 95 4c 32
        E 1 95 4c 32
        E 2 95 4c 32
        E 0 95 4c 32
        E 2 85 34 00
        E 1 95 4c 32
        E 3 85 4c 00
        E 2 95 4c 32
        E 3 85 47 00
        E 0 95 47 35
        E 8 95 34 32
        E 1 85 4c 00
        E 2 85 4c 00
        E 8 85 4c 00
        E 1877 85 4c 00
        E 14 95 4c 32
        E 3 85 4c 00
        E 1 95 34 32
        E 1 85 4c 00
        E 0 85 4c 00
        E 1 95 4c 32
        E 1 95 4c 32
        E 1 85 4c 00
        E 2 85 47 00
        E 0 95 47 35
        E 3 95 4c 32
        E 2 85 34 00
        E 1 95 4c 32
        E 4 95 4c 32
        E 4 85 4c 00
        E 1886 85 34 00
        E 3 85 4c 00
        E 5 95 34 32
        E 3 85 4c 00
        E 0 95 4c 32
        E 2 85 4c 00
        E 1 95 4c 32
        E 0 95 4a 32
        E 1 85 4c 00
        E 2 85 4c 00
        E 3 85 47 00
        E 0 95 47 35
        E 2 95 34 32
        E 4 85 4c 00
        E 0 95 4c 32
        E 8 95 4c 32
        E 1878 85 34 00
        E 5 85 4c 00
        E 13 95 4c 32
        E 9 95 4c 32
        E 1 85 47 00
        E 0 95 47 37
        E 2 95 4c 32
        E 0 95 4c 32
        E 2 85 4c 00
        E 0 85 34 00
        E 1 85 4c 00
        E 0 95 4c 32
        E 2 85 4c 00
        E 4 85 4a 00
        E 2 95 4c 32
        E 0 95 4c 32
        E 1889 85 4c 00
        E 2 85 4c 00
        E 3 95 34 32
        E 5 85 4c 00
        E 1 95 4c 32
        E 7 85 47 00
        E 0 95 47 37
        E 5 85 4c 00
        E 2 85 4c 00
        E 0 95 4c 32
        E 1 85 4c 00
        E 0 95 4c 32
        E 2 95 4c 32
        E 0 95 4c 32
        E 3 85 4c 00
        E 1 95 4c 32
        E 1900 85 4c 00
        E 1 85 4c 00
        E 5 85 47 00
        E 0 95 45 38
        E 1 85 34 00
        E 1 95 34 32
        E 0 95 4c 32
        E 2 85 4c 00
        E 0 95 34 32
        E 1 95 4c 32
        E 3 95 4c 32
        E 0 95 4c 32
        E 2 85 4c 00
        E 1 85 4c 00
        E 2 95 34 32
        E 2 85 4c 00
        E 1893 85 34 00
        E 5 85 4c 00
        E 1 85 4c 00
        E 1 85 34 00
        E 1 85 4c 00
        E 2 95 4c 32
        E 1 95 49 32
        E 1 85 45 00
        E 0 95 45 38
        E 3 95 4c 32
        E 4 85 4c 00
        E 0 95 4c 32
        E 2 95 4c 32
        E 2 95 4c 32
        E 3 95 4c 32
        E 10 85 34 00
        E 1883 95 4c 32
        E 0 95 4c 32
        E 3 95 4c 32
        E 1 95 34 32
        E 1 95 4c 32
        E 2 85 4c 00
        E 1 85 4c 00
        E 0 95 4c 32
        E 5 85 45 00
        E 0 95 47 38
        E 11 85 4c 00
        E 2 85 4c 00
        E 1 85 49 00
        E 0 95 4c 32
        E 3 85 4c 00
        E 3 85 4c 00
        E 1873 85 4c 00
        E 3 85 4c 00
        E 7 85 4c 00
        E 3 85 4c 00
        E 1 95 3b 32
        E 0 95 4c 32
        E 9 85 4c 00
        E 0 85 34 00
        E 0 95 4c 32
        E 1 95 34 32
        E 3 85 47 00
        E 0 95 47 3a
        E 6 95 4c 32
        E 0 95 4c 32
        E 2 95 4c 32
        E 24 85 4c 00
        E 1867 85 4c 00
        E 4 85 34 00
        E 2 85 4c 00
        E 8 95 4c 32
        E 1 85 4c 00
        E 2 95 4c 32
        E 4 85 47 00
        E 0 95 47 3a
        E 2 95 4c 32
        E 1 85 3b 00
        E 1 95 4c 32
        E 1 95 34 32
        E 1 85 4c 00
        E 5 95 4c 32
        E 1 95 4c 32
        E 1 85 4c 00
        E 1895 85 4c 00
        E 6 85 4c 00
        E 6 85 47 00
        E 1 85 34 00
        E 8 95 4c 32
        E 6 85 4c 00
        E 2 85 4c 00
        E 2 85 4c 00
        E 9 85 4c 00
        E 1882 95 4c 32
        E 34 85 4c 00
        E 1893 95 4c 32
        E 3 95 4c 32
        E 7 85 4c 00
        E 1905 85 4c 00
        E 14 95 4c 32
        E 2 95 4c 32
        E 7 85 4c 00
        E 1895 85 4c 00
        E 4 85 4c 00
        E 13 95 4c 32
        E 6 95 34 32
        E 1896 95 4c 32
        E 6 85 4c 00
        E 5 95 47 3d
        E 22 85 34 00
        E 1878 85 4c 00
        E 20 85 47 00
        E 2 95 4c 32
        E 1 95 3b 32
        E 1908 95 4c 32
        E 14 95 4c 32
        E 2 95 34 32
        E 1 95 4c 32
        E 5 85 3b 00
        E 5 85 4c 00
        E 1882 85 4c 00
        E 7 95 4c 32
        E 8 85 34 00
        E 2 95 4c 32
        E 3 95 47 3e
        E 6 95 4c 32
        E 11 85 4c 00
        E 0 85 4c 00
        E 1880 85 4c 00
        E 10 85 4c 00
        E 6 85 4c 00
        E 4 95 34 32
        E 2 95 3b 32
        E 1 85 47 00
        E 0 95 47 3e
        E 1920 85 47 00
        E 0 95 47 3e
        E 4 85 3b 00
        E 6 95 4c 32
        E 4 85 34 00
        E 1906 85 47 00
        E 29 85 4c 00
        E 0 b5 7b 00
        E 1 ff 2f 00
      >
    >
  >
  <TRACK
    NAME "Violin1"
    PEAKCOL 4284186559
    VOLPAN 1.000000 0 1 -1
    MIDIOUT -1
    ISBUS 0 0
    <ITEM
      POSITION 2.732354
      LENGTH 73.731565
      NAME "Violin1"
      VOLPAN 1 0 1 -1
      <SOURCE MIDI
        HASDATA 1 960 QN
        E 0 c6 28 00
        E 3847 96 4c 55
        E 3840 86 4c 00
        E 3835 96 47 55
        E 3840 86 47 00
        E 7686 96 45 4f
        E 3840 86 45 00
        E 6 96 44 54
        E 3839 96 51 54
        E 1 86 44 00
        E 3828 96 47 54
        E 11 86 51 00
        E 3828 96 4c 55
        E 1 86 47 00
        E 3839 86 4c 00
        E 10 96 4c 55
        E 3833 96 4e 4f
        E 7 86 4c 00
        E 3832 96 4e 55
        E 1 86 4e 00
        E 3839 86 4e 00
        E 10 96 53 55
        E 3840 86 53 00
        E 0 96 50 52
        E 3837 96 51 54
        E 3 86 50 00
        E 3837 86 51 00
        E 0 96 4c 54
        E 3840 86 4c 00
        E 0 96 4a 54
        E 3836 96 4c 55
        E 4 86 4a 00
        E 3832 96 4c 52
        E 4 86 4c 00
        E 3835 96 49 55
        E 1 86 4c 00
        E 3839 86 49 00
        E 2 96 4c 51
        E 3840 86 4c 00
        E 3846 96 53 4f
        E 3840 86 53 00
        E 3838 96 5d 55
        E 3833 96 5f 54
        E 7 86 5d 00
        E 3833 86 5f 00
        E 0 b6 7b 00
        E 1 ff 2f 00
      >
    >
  >
  <TRACK
    NAME "Glock"
    PEAKCOL 4290756410
    VOLPAN 1.000000 0 1 -1
    MIDIOUT -1
    ISBUS 0 0
    <ITEM
      POSITION 0.681818
      LENGTH 75.304545
      NAME "Glock"
      VOLPAN 1 0 1 -1
      <SOURCE MIDI
        HASDATA 1 960 QN
        E 0 c7 09 00
        E 960 97 6c 4c
        E 288 87 6c 00
        E 1632 97 6c 45
        E 288 87 6c 00
        E 3552 97 6c 4e
        E 288 87 6c 00
        E 1632 97 6c 4e
        E 288 87 6c 00
        E 672 97 6c 4e
        E 288 87 6c 00
        E 1632 97 6c 4e
        E 288 87 6c 00
        E 672 97 6c 49
        E 288 87 6c 00
        E 2592 97 6c 4e
        E 288 87 6c 00
        E 2592 97 6c 4c
        E 288 87 6c 00
        E 3552 97 6c 46
        E 288 87 6c 00
        E 672 97 6c 4e
        E 288 87 6c 00
        E 672 97 6c 46
        E 288 87 6c 00
        E 672 97 6c 45
        E 288 87 6c 00
        E 672 97 6c 4e
        E 288 87 6c 00
        E 672 97 6c 4c
        E 288 87 6c 00
        E 672 97 6c 4c
        E 288 87 6c 00
        E 672 97 6c 4e
        E 288 87 6c 00
        E 672 97 6c 4e
        E 288 87 6c 00
        E 672 97 6c 48
        E 288 87 6c 00
        E 672 97 6c 4e
        E 288 87 6c 00
        E 672 97 6c 46
        E 288 87 6c 00
        E 672 97 6c 45
        E 288 87 6c 00
        E 672 97 6c 49
        E 288 87 6c 00
        E 672 97 6c 4c
        E 288 87 6c 00
        E 672 97 6c 4c
        E 288 87 6c 00
        E 672 97 6c 45
        E 288 87 6c 00
        E 672 97 6c 46
        E 288 87 6c 00
        E 672 97 6c 49
        E 288 87 6c 00
        E 672 97 6c 49
        E 288 87 6c 00
        E 672 97 6c 4e
        E 288 87 6c 00
        E 672 97 6c 4e
        E 288 87 6c 00
        E 672 97 6c 4e
        E 288 87 6c 00
        E 672 97 6c 43
        E 288 87 6c 00
        E 672 97 6c 4b
        E 288 87 6c 00
        E 672 97 6c 4b
        E 288 87 6c 00
        E 672 97 6c 4c
        E 288 87 6c 00
        E 672 97 6c 46
        E 288 87 6c 00
        E 672 97 6c 4e
        E 288 87 6c 00
        E 672 97 6c 45
        E 288 87 6c 00
        E 672 97 6c 4e
        E 288 87 6c 00
        E 672 97 6c 4e
        E 288 87 6c 00
        E 672 97 6c 4b
        E 288 87 6c 00
        E 672 97 6c 43
        E 288 87 6c 00
        E 672 97 6c 48
        E 288 87 6c 00
        E 672 97 6c 4e
        E 288 87 6c 00
        E 672 97 6c 4e
        E 288 87 6c 00
        E 672 97 6c 4e
        E 288 87 6c 00
        E 672 97 6c 4e
        E 288 87 6c 00
        E 672 97 6c 4e
        E 288 87 6c 00
        E 672 97 6c 4e
        E 288 87 6c 00
        E 672 97 6c 49
        E 288 87 6c 00
        E 672 97 6c 46
        E 288 87 6c 00
        E 672 97 6c 4e
        E 288 87 6c 00
        E 672 97 6c 48
        E 288 87 6c 00
        E 672 97 6c 43
        E 288 87 6c 00
        E 672 97 6c 4c
        E 288 87 6c 00
        E 672 97 6c 49
        E 288 87 6c 00
        E 672 97 6c 4e
        E 288 87 6c 00
        E 672 97 6c 45
        E 288 87 6c 00
        E 672 97 6c 4e
        E 288 87 6c 00
        E 672 97 6c 43
        E 288 87 6c 00
        E 672 97 6c 49
        E 288 87 6c 00
        E 672 97 6c 48
        E 288 87 6c 00
        E 672 97 6c 48
        E 288 87 6c 00
        E 672 97 6c 46
        E 288 87 6c 00
        E 672 97 6c 4e
        E 288 87 6c 00
        E 672 97 6c 4e
        E 288 87 6c 00
        E 672 97 6c 4e
        E 288 87 6c 00
        E 672 97 6c 49
        E 288 87 6c 00
        E 672 97 6c 4e
        E 288 87 6c 00
        E 672 97 6c 49
        E 288 87 6c 00
        E 672 97 6c 4e
        E 288 87 6c 00
        E 672 97 6c 46
        E 288 87 6c 00
        E 672 97 6c 4e
        E 288 87 6c 00
        E 672 97 6c 4e
        E 288 87 6c 00
        E 672 97 6c 43
        E 288 87 6c 00
        E 672 97 6c 4b
        E 288 87 6c 00
        E 2592 97 6c 4e
        E 288 87 6c 00
        E 672 97 6c 49
        E 288 87 6c 00
        E 13152 97 6c 46
        E 288 87 6c 00
        E 672 97 6c 4c
        E 288 87 6c 00
        E 1632 97 6c 43
        E 288 87 6c 00
        E 0 b7 7b 00
        E 1 ff 2f 00
      >
    >
  >
>
