<REAPER_PROJECT 0.1 "7.0" 1700000000
  TEMPO 72.000000 4 4
  SAMPLERATE 48000 0 0
  RENDER_FILE ""
  RENDER_FMT 0 2 0
  RENDER_1X 0
  RENDER_RANGE 1 0 92.867396 0 0
  RENDER_RESAMPLE 3 0 1
  <MASTERTRACK
    VOLPAN 1 0 1 -1
    DEFCHAN 0
  >
  <TRACK
    NAME "Lead"
    PEAKCOL 4284506208
    VOLPAN 1.000000 0 1 -1
    MIDIOUT -1
    ISBUS 0 0
    <ITEM
      POSITION 0.307578
      LENGTH 90.659818
      NAME "Lead"
      VOLPAN 1 0 1 -1
      <SOURCE MIDI
        HASDATA 1 960 QN
        E 0 c0 00 00
        E 354 90 4c 56
        E 445 90 4d 56
        E 240 80 4d 00
        E 204 90 51 56
        E 269 80 4c 00
        E 889 80 51 00
        E 81 90 4d 6c
        E 1053 80 4d 00
        E 172 90 4d 5a
        E 1053 80 4d 00
        E 172 90 4d 56
        E 1053 80 4d 00
        E 184 90 51 56
        E 948 80 51 00
        E 289 90 51 56
        E 948 80 51 00
        E 539 90 55 56
        E 975 90 55 56
        E 183 80 55 00
        E 348 80 55 00
        E 710 90 56 6a
        E 531 80 56 00
        E 693 90 55 60
        E 1053 80 55 00
        E 187 90 56 5a
        E 531 80 56 00
        E 90 90 55 56
        E 948 80 55 00
        E 280 90 55 78
        E 1158 80 55 00
        E 84 90 56 58
        E 1158 80 56 00
        E 61 90 58 56
        E 1053 80 58 00
        E 543 90 56 5c
        E 796 80 56 00
        E 317 90 55 62
        E 995 90 56 60
        E 58 80 55 00
        E 890 80 56 00
        E 297 90 55 56
        E 948 80 55 00
        E 275 90 56 6e
        E 876 80 56 00
        E 725 90 55 56
        E 873 90 56 66
        E 180 80 55 00
        E 873 80 56 00
        E 177 90 58 78
        E 1053 80 58 00
        E 183 90 56 56
        E 934 90 55 56
        E 119 80 56 00
        E 121 80 55 00
        E 694 90 51 56
        E 584 80 51 00
        E 645 90 52 66
        E 1158 80 52 00
        E 79 90 52 56
        E 1053 80 52 00
        E 186 90 51 7d
        E 1053 80 51 00
        E 163 90 4d 56
        E 796 80 4d 00
        E 434 90 4d 56
        E 948 80 4d 00
        E 290 90 4d 56
        E 948 80 4d 00
        E 407 90 4d 56
        E 292 80 4d 00
        E 830 90 4d 66
        E 1053 80 4d 00
        E 192 90 4f 56
        E 531 80 4f 00
        E 937 90 51 5e
        E 497 90 52 56
        E 556 80 51 00
        E 497 80 52 00
        E 56 90 51 72
        E 948 80 51 00
        E 274 90 4d 56
        E 584 80 4d 00
        E 654 90 4d 62
        E 584 80 4d 00
        E 34 90 4f 56
        E 531 80 4f 00
        E 335 90 51 6e
        E 501 90 52 56
        E 240 80 52 00
        E 261 90 56 7d
        E 51 80 51 00
        E 1010 80 56 00
        E 165 90 55 5c
        E 1053 80 55 00
        E 170 90 56 56
        E 615 90 55 56
        E 101 80 56 00
        E 377 80 55 00
        E 999 90 56 56
        E 1158 80 56 00
        E 327 90 55 58
        E 988 90 58 5c
        E 65 80 55 00
        E 988 80 58 00
        E 197 90 58 56
        E 531 80 58 00
        E 84 90 55 58
        E 240 80 55 00
        E 376 90 51 7d
        E 1053 80 51 00
        E 173 90 51 56
        E 611 90 55 56
        E 240 80 55 00
        E 97 80 51 00
        E 274 90 58 72
        E 584 80 58 00
        E 664 90 56 56
        E 1053 80 56 00
        E 173 90 58 62
        E 1053 80 58 00
        E 440 90 56 62
        E 497 90 55 56
        E 34 80 56 00
        E 206 80 55 00
        E 257 90 51 62
        E 618 90 55 56
        E 240 80 55 00
        E 195 80 51 00
        E 182 90 58 66
        E 1214 90 56 56
        E 219 80 58 00
        E 939 80 56 00
        E 88 90 58 56
        E 608 90 55 56
        E 240 80 55 00
        E 310 80 58 00
        E 58 90 51 60
        E 265 80 51 00
        E 993 90 51 60
        E 1053 80 51 00
        E 174 90 52 75
        E 1053 80 52 00
        E 166 90 51 56
        E 948 80 51 00
        E 427 90 4d 7d
        E 948 80 4d 00
        E 1119 90 4d 5a
        E 1053 80 4d 00
        E 175 90 4d 58
        E 1053 80 4d 00
        E 188 90 4d 60
        E 1053 80 4d 00
        E 179 90 4d 58
        E 612 90 4d 56
        E 441 80 4d 00
        E 275 80 4d 00
        E 261 90 4f 56
        E 380 90 4d 56
        E 568 80 4f 00
        E 539 90 4d 56
        E 51 80 4d 00
        E 1107 80 4d 00
        E 79 90 4d 5e
        E 531 80 4d 00
        E 823 90 4d 7d
        E 531 80 4d 00
        E 587 90 4d 62
        E 1053 80 4d 00
        E 194 90 4d 64
        E 948 80 4d 00
        E 263 90 4a 56
        E 948 80 4a 00
        E 292 90 4c 7a
        E 1158 80 4c 00
        E 96 90 4d 5a
        E 1053 80 4d 00
        E 415 90 4d 56
        E 531 80 4d 00
        E 462 90 4d 56
        E 609 90 4d 6e
        E 187 80 4d 00
        E 866 80 4d 00
        E 173 90 4d 56
        E 239 80 4d 00
        E 1240 90 4a 56
        E 1011 90 4c 6c
        E 1158 80 4c 00
        E 54 90 4c 62
        E 112 80 4a 00
        E 684 80 4c 00
        E 439 90 4a 56
        E 1053 80 4a 00
        E 0 b0 7b 00
        E 1 ff 2f 00
      >
    >
  >
  <TRACK
    NAME "Piano"
    PEAKCOL 4290756410
    VOLPAN 1.000000 0 1 -1
    MIDIOUT -1
    ISBUS 0 0
    <ITEM
      POSITION 0.000000
      LENGTH 88.808333
      NAME "Piano"
      VOLPAN 1 0 1 -1
      <SOURCE MIDI
        HASDATA 1 960 QN
        E 0 c1 00 00
        E 0 91 35 68
        E 432 81 35 00
        E 528 91 35 7d
        E 432 81 35 00
        E 1488 91 35 7d
        E 432 81 35 00
        E 528 91 32 68
        E 432 81 32 00
        E 528 91 2e 7d
        E 432 81 2e 00
        E 528 91 2e 68
        E 0 91 32 68
        E 432 81 2e 00
        E 0 81 32 00
        E 1488 91 2b 68
        E 432 81 2b 00
        E 528 91 2e 7d
        E 432 81 2e 00
        E 1488 91 2e 7d
        E 432 81 2e 00
        E 1488 91 26 7d
        E 0 91 29 7d
        E 432 81 26 00
        E 0 81 29 00
        E 7248 91 26 7d
        E 432 81 26 00
        E 528 91 26 68
        E 432 81 26 00
        E 528 91 26 7d
        E 432 81 26 00
        E 528 91 2b 68
        E 432 81 2b 00
        E 528 91 2b 7d
        E 0 91 2e 7d
        E 432 81 2b 00
        E 0 81 2e 00
        E 528 91 2b 68
        E 0 91 2e 68
        E 432 81 2b 00
        E 0 81 2e 00
        E 528 91 2b 7d
        E 0 91 2e 7d
        E 432 81 2b 00
        E 0 81 2e 00
        E 528 91 26 68
        E 0 91 29 68
        E 432 81 26 00
        E 0 81 29 00
        E 528 91 26 7d
        E 0 91 29 7d
        E 432 81 26 00
        E 0 81 29 00
        E 528 91 26 68
        E 0 91 29 68
        E 432 81 26 00
        E 0 81 29 00
        E 528 91 26 7d
        E 0 91 29 7d
        E 432 81 26 00
        E 0 81 29 00
        E 528 91 26 68
        E 0 91 29 68
        E 432 81 26 00
        E 0 81 29 00
        E 528 91 26 7d
        E 0 91 29 7d
        E 432 81 26 00
        E 0 81 29 00
        E 528 91 26 68
        E 0 91 29 68
        E 432 81 26 00
        E 0 81 29 00
        E 528 91 26 7d
        E 0 91 29 7d
        E 432 81 26 00
        E 0 81 29 00
        E 4368 91 26 68
        E 432 81 26 00
        E 528 91 26 7d
        E 432 81 26 00
        E 528 91 26 68
        E 432 81 26 00
        E 528 91 26 7d
        E 432 81 26 00
        E 528 91 26 68
        E 0 91 29 68
        E 432 81 26 00
        E 0 81 29 00
        E 528 91 26 7d
        E 0 91 29 7d
        E 432 81 26 00
        E 0 81 29 00
        E 528 91 26 68
        E 0 91 29 68
        E 432 81 26 00
        E 0 81 29 00
        E 528 91 26 7d
        E 0 91 29 7d
        E 432 81 26 00
        E 0 81 29 00
        E 528 91 26 68
        E 0 91 29 68
        E 432 81 26 00
        E 0 81 29 00
        E 528 91 26 7d
        E 0 91 29 7d
        E 432 81 26 00
        E 0 81 29 00
        E 528 91 26 68
        E 0 91 29 68
        E 432 81 26 00
        E 0 81 29 00
        E 528 91 26 7d
        E 0 91 29 7d
        E 432 81 26 00
        E 0 81 29 00
        E 528 91 26 68
        E 432 81 26 00
        E 528 91 26 7d
        E 432 81 26 00
        E 528 91 26 68
        E 432 81 26 00
        E 528 91 26 7d
        E 432 81 26 00
        E 528 91 2b 68
        E 432 81 2b 00
        E 528 91 2b 7d
        E 0 91 2e 7d
        E 432 81 2b 00
        E 0 81 2e 00
        E 528 91 2b 68
        E 0 91 2e 68
        E 432 81 2b 00
        E 0 81 2e 00
        E 528 91 2b 7d
        E 0 91 2e 7d
        E 432 81 2b 00
        E 0 81 2e 00
        E 528 91 26 68
        E 0 91 29 68
        E 432 81 26 00
        E 0 81 29 00
        E 528 91 26 7d
        E 0 91 29 7d
        E 432 81 26 00
        E 0 81 29 00
        E 528 91 26 68
        E 0 91 29 68
        E 432 81 26 00
        E 0 81 29 00
        E 528 91 26 7d
        E 0 91 29 7d
        E 432 81 26 00
        E 0 81 29 00
        E 528 91 26 68
        E 0 91 29 68
        E 432 81 26 00
        E 0 81 29 00
        E 528 91 26 7d
        E 0 91 29 7d
        E 432 81 26 00
        E 0 81 29 00
        E 528 91 26 68
        E 0 91 29 68
        E 432 81 26 00
        E 0 81 29 00
        E 528 91 26 7d
        E 0 91 29 7d
        E 432 81 26 00
        E 0 81 29 00
        E 528 91 26 68
        E 432 81 26 00
        E 528 91 26 7d
        E 432 81 26 00
        E 528 91 26 68
        E 432 81 26 00
        E 528 91 26 7d
        E 432 81 26 00
        E 528 91 2b 68
        E 432 81 2b 00
        E 528 91 2b 7d
        E 0 91 2e 7d
        E 432 81 2b 00
        E 0 81 2e 00
        E 528 91 2b 68
        E 0 91 2e 68
        E 432 81 2b 00
        E 0 81 2e 00
        E 528 91 2b 7d
        E 0 91 2e 7d
        E 432 81 2b 00
        E 0 81 2e 00
        E 528 91 26 68
        E 0 91 29 68
        E 432 81 26 00
        E 0 81 29 00
        E 528 91 26 7d
        E 0 91 29 7d
        E 432 81 26 00
        E 0 81 29 00
        E 528 91 26 68
        E 0 91 29 68
        E 432 81 26 00
        E 0 81 29 00
        E 528 91 26 7d
        E 0 91 29 7d
        E 432 81 26 00
        E 0 81 29 00
        E 528 91 26 68
        E 0 91 29 68
        E 432 81 26 00
        E 0 81 29 00
        E 528 91 26 7d
        E 0 91 29 7d
        E 432 81 26 00
        E 0 81 29 00
        E 528 91 26 68
        E 0 91 29 68
        E 432 81 26 00
        E 0 81 29 00
        E 528 91 26 7d
        E 0 91 29 7d
        E 432 81 26 00
        E 0 81 29 00
        E 4368 91 26 68
        E 432 81 26 00
        E 1488 91 26 68
        E 432 81 26 00
        E 528 91 26 7d
        E 432 81 26 00
        E 528 91 26 68
        E 432 81 26 00
        E 1488 91 29 68
        E 432 81 29 00
        E 2448 91 26 7d
        E 432 81 26 00
        E 528 91 26 68
        E 432 81 26 00
        E 5328 91 2b 68
        E 432 81 2b 00
        E 528 91 2b 7d
        E 432 81 2b 00
        E 528 91 2e 68
        E 432 81 2e 00
        E 0 b1 7b 00
        E 1 ff 2f 00
      >
    >
  >
  <TRACK
    NAME "Cello"
    PEAKCOL 4284186559
    VOLPAN 1.000000 0 1 -1
    MIDIOUT -1
    ISBUS 0 0
    <ITEM
      POSITION 3.333877
      LENGTH 86.778241
      NAME "Cello"
      VOLPAN 1 0 1 -1
      <SOURCE MIDI
        HASDATA 1 960 QN
        E 0 c2 2a 00
        E 3841 92 35 66
        E 3840 82 35 00
        E 3839 92 32 68
        E 3840 82 32 00
        E 7681 92 34 68
        E 3840 82 34 00
        E 2 92 35 64
        E 3840 82 35 00
        E 6 92 39 68
        E 3833 92 39 68
        E 7 82 39 00
        E 3833 82 39 00
        E 0 92 3e 64
        E 3840 82 3e 00
        E 3 92 41 6a
        E 3840 82 41 00
        E 7 92 41 64
        E 3839 92 41 66
        E 1 82 41 00
        E 3829 92 41 64
        E 10 82 41 00
        E 3830 82 41 00
        E 7 92 3e 68
        E 3839 92 3e 6a
        E 1 82 3e 00
        E 3839 82 3e 00
        E 7 92 3e 68
        E 3837 92 4f 66
        E 3 82 3e 00
        E 3835 92 4a 68
        E 2 82 4f 00
        E 3838 82 4a 00
        E 1 92 39 68
        E 3831 92 3d 64
        E 9 82 39 00
        E 3831 82 3d 00
        E 3851 92 46 64
        E 3840 82 46 00
        E 3836 92 46 6a
        E 3840 82 46 00
        E 6 92 46 68
        E 3840 82 46 00
        E 0 b2 7b 00
        E 1 ff 2f 00
      >
    >
  >
  <TRACK
    NAME "Strings"
    PEAKCOL 4284186559
    VOLPAN 1.000000 0 1 -1
    MIDIOUT -1
    ISBUS 0 0
    <ITEM
      POSITION 0.000000
      LENGTH 90.116813
      NAME "Strings"
      VOLPAN 1 0 1 -1
      <SOURCE MIDI
        HASDATA 1 960 QN
        E 0 c3 30 00
        E 0 93 41 36
        E 0 93 46 36
        E 12 93 46 36
        E 1895 83 46 00
        E 3 93 46 36
        E 5 93 46 36
        E 3 93 41 36
        E 10 93 46 36
        E 1 83 41 00
        E 10 83 46 00
        E 1889 83 46 00
        E 0 83 41 00
        E 10 93 46 36
        E 2 93 3e 36
        E 0 93 46 36
        E 12 83 46 00
        E 8 83 46 00
        E 1891 83 46 00
        E 2 93 46 36
        E 7 83 3e 00
        E 7 83 46 00
        E 0 93 32 36
        E 1907 83 32 00
        E 12 83 46 00
        E 1900 93 46 36
        E 5 93 46 36
        E 4 93 32 36
        E 1 93 43 36
        E 6 93 32 36
        E 1893 83 46 00
        E 15 83 43 00
        E 8 83 32 00
        E 2 83 46 00
        E 12 93 46 36
        E 2 83 32 00
        E 1906 93 3e 38
        E 9 83 46 00
        E 2 93 32 36
        E 1903 93 46 36
        E 6 83 3e 00
        E 3 93 45 36
        E 2 83 32 00
        E 7 93 46 36
        E 1901 93 46 36
        E 1 83 45 00
        E 15 83 46 00
        E 20 83 46 00
        E 1880 83 46 00
        E 6 93 32 36
        E 1913 93 46 36
        E 9 93 32 36
        E 0 93 46 36
        E 3 93 3e 3c
        E 2 83 32 00
        E 0 93 46 36
        E 3 93 46 36
        E 8 93 46 36
        E 1 93 46 36
        E 1892 93 46 36
        E 4 83 46 00
        E 0 93 46 36
        E 5 83 46 00
        E 1 83 32 00
        E 1 83 46 00
        E 1 93 32 36
        E 2 83 3e 00
        E 0 93 3e 3e
        E 3 93 32 36
        E 2 83 46 00
        E 0 93 46 36
        E 0 93 46 36
        E 5 93 32 36
        E 6 83 46 00
        E 8 83 46 00
        E 1885 83 46 00
        E 2 93 46 36
        E 3 93 46 36
        E 1 83 46 00
        E 1 83 46 00
        E 0 93 46 36
        E 1 83 32 00
        E 2 83 32 00
        E 1 83 3e 00
        E 0 93 3e 3e
        E 1 93 32 36
        E 5 83 32 00
        E 0 93 32 36
        E 1 93 46 36
        E 4 93 32 36
        E 4 83 46 00
        E 1884 83 46 00
        E 9 93 46 36
        E 0 93 46 36
        E 7 83 46 00
        E 0 93 46 36
        E 3 83 32 00
        E 1 93 46 36
        E 1 83 3e 00
        E 0 93 3e 40
        E 1 83 32 00
        E 2 93 46 36
        E 2 83 46 00
        E 0 93 41 36
        E 2 93 32 36
        E 5 83 46 00
        E 6 83 32 00
        E 1882 83 46 00
        E 8 93 32 36
        E 4 93 32 36
        E 1 83 46 00
        E 3 83 46 00
        E 4 83 3e 00
        E 0 83 46 00
        E 0 93 3e 40
        E 4 93 45 36
        E 0 93 46 36
        E 2 93 46 36
        E 0 93 32 36
        E 0 93 32 36
        E 3 83 46 00
        E 0 83 41 00
        E 14 83 32 00
        E 1875 83 32 00
        E 9 93 41 36
        E 0 93 46 36
        E 1 83 45 00
        E 0 83 46 00
        E 7 83 32 00
        E 1 93 46 36
        E 4 83 3e 00
        E 0 93 32 36
        E 0 93 3e 42
        E 3 93 46 36
        E 2 83 32 00
        E 7 93 46 36
        E 2 93 46 36
        E 3 83 46 00
        E 2 83 32 00
        E 1887 83 32 00
        E 2 93 46 36
        E 7 93 32 36
        E 2 83 46 00
        E 0 93 32 36
        E 3 83 3e 00
        E 0 93 3e 44
        E 2 83 41 00
        E 1 83 46 00
        E 2 93 46 36
        E 2 93 41 36
        E 3 83 46 00
        E 0 93 45 36
        E 3 93 32 36
        E 4 83 46 00
        E 6 83 46 00
        E 1879 83 46 00
        E 4 93 46 36
        E 1 93 32 36
        E 6 83 32 00
        E 1 93 46 36
        E 4 83 41 00
        E 2 83 3e 00
        E 0 93 3c 46
        E 2 83 32 00
        E 4 83 46 00
        E 1 93 45 36
        E 5 93 46 36
        E 2 83 32 00
        E 0 93 46 36
        E 0 93 32 36
        E 14 83 45 00
        E 1871 83 46 00
        E 14 83 46 00
        E 1 93 32 36
        E 0 93 46 36
        E 3 93 46 36
        E 3 83 3c 00
        E 0 93 3c 46
        E 1 83 32 00
        E 0 83 46 00
        E 1 93 46 36
        E 1 83 32 00
        E 1 93 32 36
        E 5 93 40 36
        E 1 93 45 36
        E 5 83 45 00
        E 5 83 46 00
        E 1890 93 46 36
        E 1 93 46 36
        E 3 93 46 36
        E 1 83 32 00
        E 0 93 41 36
        E 1 83 40 00
        E 2 93 46 36
        E 1 93 32 36
        E 1 83 3c 00
        E 0 93 3e 46
        E 2 83 46 00
        E 3 83 32 00
        E 1 93 46 36
        E 7 83 46 00
        E 1 83 46 00
        E 1 83 45 00
        E 1881 83 46 00
        E 10 83 46 00
        E 1 93 46 36
        E 0 93 46 36
        E 2 83 46 00
        E 7 93 46 36
        E 1 93 46 36
        E 2 93 46 36
        E 1 83 3e 00
        E 0 93 3e 48
        E 6 83 46 00
        E 0 83 41 00
        E 0 93 32 36
        E 7 83 32 00
        E 1 93 41 36
        E 6 83 46 00
        E 1885 83 46 00
        E 2 83 46 00
        E 3 83 46 00
        E 0 93 46 36
        E 1 83 46 00
        E 2 83 46 00
        E 5 93 46 36
        E 2 83 3e 00
        E 0 93 4a 4a
        E 1 93 46 36
        E 2 83 32 00
        E 6 93 46 36
        E 3 93 41 36
        E 1 93 46 36
        E 0 93 46 36
        E 19 83 41 00
        E 1868 83 46 00
        E 7 93 46 36
        E 5 93 46 36
        E 1 83 41 00
        E 1 83 46 00
        E 0 93 46 36
        E 1 93 45 36
        E 2 83 46 00
        E 3 83 4a 00
        E 0 93 4a 4c
        E 1 93 32 36
        E 1 83 46 00
        E 2 83 46 00
        E 6 93 32 36
        E 4 93 46 36
        E 9 83 46 00
        E 1881 83 46 00
        E 2 93 46 36
        E 3 93 46 36
        E 3 83 46 00
        E 0 83 32 00
        E 5 83 32 00
        E 1 83 46 00
        E 0 93 46 36
        E 2 83 4a 00
        E 0 93 3e 4e
        E 3 83 45 00
        E 3 93 32 36
        E 1 93 41 36
        E 1 93 46 36
        E 3 83 46 00
        E 0 93 46 36
        E 1888 83 46 00
        E 0 83 46 00
        E 10 93 46 36
        E 1 93 46 36
        E 2 93 46 36
        E 5 93 32 36
        E 1 83 46 00
        E 2 83 3e 00
        E 0 93 4a 4e
        E 3 93 41 36
        E 6 93 46 36
        E 2 83 46 00
        E 0 93 46 36
        E 5 83 46 00
        E 1 83 32 00
        E 4 83 41 00
        E 1885 93 41 36
        E 1 83 46 00
        E 2 83 46 00
        E 6 83 46 00
        E 3 83 32 00
        E 1 93 46 36
        E 1 83 4a 00
        E 0 93 4a 4e
        E 0 93 46 36
        E 1 93 46 36
        E 0 93 46 36
        E 1 83 46 00
        E 3 93 46 36
        E 2 83 46 00
        E 5 93 46 36
        E 7 83 41 00
        E 1887 93 32 36
        E 2 93 46 36
        E 3 93 46 36
        E 3 83 41 00
        E 6 83 4a 00
        E 0 93 4a 4e
        E 1 93 46 36
        E 0 93 46 36
        E 3 93 46 36
        E 1 93 46 36
        E 9 83 46 00
        E 1 83 46 00
        E 0 83 46 00
        E 2 83 46 00
        E 2 83 46 00
        E 2 83 46 00
        E 1876 83 46 00
        E 3 83 46 00
        E 5 83 46 00
        E 5 83 32 00
        E 1 93 46 36
        E 5 83 46 00
        E 1 93 46 36
        E 3 83 4a 00
        E 0 93 3e 4e
        E 4 93 32 36
        E 0 93 46 36
        E 0 93 46 36
        E 8 83 46 00
        E 0 93 32 36
        E 1 93 46 36
        E 7 83 46 00
        E 1890 83 46 00
        E 0 93 43 36
        E 1 83 46 00
        E 1 93 46 36
        E 7 93 46 36
        E 1 83 3e 00
        E 0 93 46 36
        E 0 93 3e 4e
        E 2 93 46 36
        E 1 93 32 36
        E 2 93 46 36
        E 5 83 46 00
        E 3 83 32 00
        E 0 83 46 00
        E 4 83 32 00
        E 6 83 46 00
        E 1877 83 46 00
        E 6 83 46 00
        E 11 93 32 36
        E 2 83 46 00
        E 1 83 3e 00
        E 0 93 3e 4c
        E 0 93 32 36
        E 1 83 32 00
        E 1 93 32 36
        E 1 83 46 00
        E 0 93 41 36
        E 2 83 43 00
        E 1 93 46 36
        E 1 93 46 36
        E 1 83 46 00
        E 1 93 46 36
        E 1899 93 45 36
        E 2 93 46 36
        E 10 83 3e 00
        E 0 93 3e 4a
        E 5 83 46 00
        E 3 93 32 36
        E 2 83 32 00
        E 0 93 46 36
        E 0 93 41 36
        E 1 83 32 00
        E 0 83 41 00
        E 0 93 46 36
        E 2 93 32 36
        E 2 83 32 00
        E 1 83 46 00
        E 5 83 46 00
        E 1885 93 46 36
        E 3 93 41 36
        E 1 93 46 36
        E 1 93 46 36
        E 1 83 46 00
        E 2 83 45 00
        E 3 83 46 00
        E 3 83 3e 00
        E 0 93 3e 48
        E 3 93 46 36
        E 1 83 32 00
        E 1 93 46 36
        E 2 93 32 36
        E 6 83 41 00
        E 11 83 46 00
        E 0 83 32 00
        E 1874 83 46 00
        E 2 83 46 00
        E 6 93 32 36
        E 1 83 41 00
        E 2 93 32 36
        E 1 93 32 36
        E 4 83 46 00
        E 0 83 32 00
        E 6 83 3e 00
        E 0 93 3e 46
        E 1 83 46 00
        E 8 93 41 36
        E 3 93 46 36
        E 0 93 46 36
        E 1 93 46 36
        E 6 83 46 00
        E 1873 83 32 00
        E 11 83 32 00
        E 7 93 46 36
        E 1 93 46 36
        E 3 93 46 36
        E 3 93 32 36
        E 3 83 32 00
        E 0 83 3e 00
        E 0 93 3e 46
        E 3 93 41 36
        E 7 93 32 36
        E 2 83 46 00
        E 1 93 46 36
        E 1 83 46 00
        E 10 83 41 00
        E 1 83 46 00
        E 1871 83 46 00
        E 6 83 46 00
        E 8 83 46 00
        E 0 93 41 36
        E 4 93 32 36
        E 1 93 46 36
        E 5 83 3e 00
        E 0 93 3e 46
        E 1 93 46 36
        E 3 83 32 00
        E 2 83 32 00
        E 2 83 41 00
        E 1 93 46 36
        E 1 93 46 36
        E 1 93 46 36
        E 1 83 46 00
        E 1890 83 46 00
        E 2 83 41 00
        E 3 93 46 36
        E 1 93 43 36
        E 2 83 32 00
        E 2 93 46 36
        E 2 83 46 00
        E 1 93 32 36
        E 2 93 46 36
        E 3 83 3e 00
        E 0 93 3e 44
        E 5 93 46 36
        E 1 83 46 00
        E 0 93 46 36
        E 10 83 46 00
        E 13 83 46 00
        E 1867 83 46 00
        E 3 83 43 00
        E 1 83 32 00
        E 6 93 46 36
        E 2 83 46 00
        E 2 83 46 00
        E 5 93 46 36
        E 0 93 46 36
        E 2 93 46 36
        E 2 93 46 36
        E 1 83 3e 00
        E 0 93 3e 42
        E 1 83 46 00
        E 0 93 32 36
        E 3 93 46 36
        E 10 83 46 00
        E 1884 83 46 00
        E 7 83 46 00
        E 1 93 46 36
        E 6 83 46 00
        E 0 93 46 36
        E 0 93 46 36
        E 3 93 46 36
        E 5 83 3e 00
        E 0 93 3e 40
        E 2 93 41 36
        E 2 83 46 00
        E 1 93 46 36
        E 1 93 46 36
        E 4 83 46 00
        E 3 83 32 00
        E 4 83 46 00
        E 1892 93 41 36
        E 0 93 32 36
        E 4 83 46 00
        E 0 83 41 00
        E 1 83 46 00
        E 0 83 46 00
        E 0 83 46 00
        E 2 93 46 36
        E 1 93 46 36
        E 3 83 3e 00
        E 0 93 3e 40
        E 3 83 46 00
        E 1 93 46 36
        E 1 83 46 00
        E 2 93 46 36
        E 5 93 32 36
        E 1894 93 46 36
        E 3 83 46 00
        E 2 83 46 00
        E 1 93 46 36
        E 1 83 46 00
        E 1 83 41 00
        E 1 83 32 00
        E 1 93 46 36
        E 4 83 3e 00
        E 0 93 3e 3e
        E 3 93 32 36
        E 1 93 45 36
        E 1 93 46 36
        E 1 93 32 36
        E 1 83 32 00
        E 9 83 46 00
        E 1878 83 46 00
        E 7 83 46 00
        E 6 83 45 00
        E 0 83 46 00
        E 0 93 46 36
        E 8 83 46 00
        E 2 93 46 36
        E 1 93 46 36
        E 2 83 3e 00
        E 0 93 3e 3e
        E 5 93 46 36
        E 1 93 46 36
        E 2 93 41 36
        E 6 93 32 36
        E 1 83 32 00
        E 3 83 32 00
        E 1886 83 46 00
        E 6 83 46 00
        E 8 93 46 36
        E 2 83 3e 00
        E 0 93 40 3c
        E 1 93 32 36
        E 4 93 46 36
        E 1 93 46 36
        E 2 83 46 00
        E 0 83 41 00
        E 1 93 46 36
        E 4 83 46 00
        E 1 93 46 36
        E 0 93 45 36
        E 1 83 46 00
        E 1 83 32 00
        E 1891 93 46 36
        E 5 93 46 36
        E 1 83 32 00
        E 5 93 46 36
        E 2 83 40 00
        E 0 93 40 3c
        E 2 83 46 00
        E 3 93 46 36
        E 1 83 46 00
        E 1 93 46 36
        E 0 93 32 36
        E 1 83 45 00
        E 4 83 46 00
        E 1 93 46 36
        E 5 83 46 00
        E 3 83 46 00
        E 1872 83 46 00
        E 8 83 46 00
        E 8 93 35 36
        E 6 93 46 36
        E 5 83 40 00
        E 0 93 41 3a
        E 6 83 46 00
        E 0 83 46 00
        E 2 93 46 36
        E 4 83 46 00
        E 1 83 46 00
        E 3 83 32 00
        E 1878 83 35 00
        E 10 83 46 00
        E 16 83 41 00
        E 1 83 46 00
        E 1 93 46 36
        E 1913 93 32 36
        E 11 83 46 00
        E 1918 83 32 00
        E 3 93 46 36
        E 2 93 46 36
        E 1908 93 46 36
        E 14 93 46 36
        E 7 83 46 00
        E 1 83 46 00
        E 1894 93 32 36
        E 3 83 46 00
        E 18 93 46 36
        E 12 83 46 00
        E 1879 83 32 00
        E 10 93 46 36
        E 5 83 46 00
        E 0 93 41 36
        E 1898 83 46 00
        E 15 93 46 36
        E 7 83 41 00
        E 14 93 46 36
        E 1880 83 46 00
        E 12 93 46 36
        E 1 93 46 36
        E 18 93 46 36
        E 8 93 32 36
        E 8 83 46 00
        E 1875 83 46 00
        E 0 83 46 00
        E 13 83 46 00
        E 0 93 46 36
        E 11 83 32 00
        E 0 93 43 36
        E 2 93 46 36
        E 2 93 46 36
        E 1898 83 46 00
        E 18 83 43 00
        E 12 83 46 00
        E 7 83 46 00
        E 0 b3 7b 00
        E 1 ff 2f 00
      >
    >
  >
  <TRACK
    NAME "Violin1"
    PEAKCOL 4284186559
    VOLPAN 1.000000 0 1 -1
    MIDIOUT -1
    ISBUS 0 0
    <ITEM
      POSITION 3.334473
      LENGTH 80.110357
      NAME "Violin1"
      VOLPAN 1 0 1 -1
      <SOURCE MIDI
        HASDATA 1 960 QN
        E 0 c4 28 00
        E 3841 94 4d 62
        E 3840 84 4d 00
        E 19205 94 5d 62
        E 3840 84 5d 00
        E 3839 94 60 60
        E 3840 84 60 00
        E 5 94 60 60
        E 3840 84 60 00
        E 3 94 5d 6a
        E 3828 94 59 68
        E 12 84 5d 00
        E 3828 84 59 00
        E 10 94 59 6a
        E 3836 94 56 66
        E 4 84 59 00
        E 3836 84 56 00
        E 6 94 59 6a
        E 3835 94 5d 68
        E 5 84 59 00
        E 3828 94 60 68
        E 7 84 5d 00
        E 3833 84 60 00
        E 4 94 60 64
        E 3840 84 60 00
        E 6 94 5d 60
        E 3836 94 5e 62
        E 4 84 5d 00
        E 3831 94 5d 66
        E 5 84 5e 00
        E 3835 84 5d 00
        E 7691 94 5d 64
        E 3840 84 5d 00
        E 0 b4 7b 00
        E 1 ff 2f 00
      >
    >
  >
  <TRACK
    NAME "Bass"
    PEAKCOL 4286528191
    VOLPAN 1.000000 0 1 -1
    MIDIOUT -1
    ISBUS 0 0
    <ITEM
      POSITION 0.007466
      LENGTH 90.093455
      NAME "Bass"
      VOLPAN 1 0 1 -1
      <SOURCE MIDI
        HASDATA 1 960 QN
        E 0 c5 2b 00
        E 9 95 26 74
        E 3836 95 26 74
        E 4 85 26 00
        E 3835 95 22 74
        E 1 85 26 00
        E 3839 85 22 00
        E 4 95 26 74
        E 3834 95 26 74
        E 6 85 26 00
        E 3833 95 26 74
        E 1 85 26 00
        E 3839 85 26 00
        E 7 95 26 74
        E 3835 95 21 74
        E 5 85 26 00
        E 3835 85 21 00
        E 5 95 26 74
        E 3837 95 25 74
        E 3 85 26 00
        E 3834 95 26 74
        E 3 85 25 00
        E 3837 85 26 00
        E 6 95 26 74
        E 3839 95 26 74
        E 1 85 26 00
        E 3839 85 26 00
        E 1 95 26 74
        E 3839 95 26 74
        E 1 85 26 00
        E 3839 85 26 00
        E 3 95 21 74
        E 3836 95 26 74
        E 4 85 21 00
        E 3836 85 26 00
        E 0 95 26 74
        E 3835 95 22 74
        E 5 85 26 00
        E 3835 85 22 00
        E 8 95 26 74
        E 3836 95 26 74
        E 4 85 26 00
        E 3832 95 25 74
        E 4 85 26 00
        E 3836 85 25 00
        E 7 95 26 74
        E 3833 95 26 74
        E 7 85 26 00
        E 3833 85 26 00
        E 5 95 26 74
        E 3835 95 26 74
        E 5 85 26 00
        E 3835 85 26 00
        E 0 95 22 74
        E 3840 85 22 00
        E 0 b5 7b 00
        E 1 ff 2f 00
      >
    >
  >
>
