<REAPER_PROJECT 0.1 "7.0" 1700000000
  TEMPO 80.000000 4 4
  SAMPLERATE 48000 0 0
  RENDER_FILE ""
  RENDER_FMT 0 2 0
  RENDER_1X 0
  RENDER_RANGE 1 0 77.437295 0 0
  RENDER_RESAMPLE 3 0 1
  <MASTERTRACK
    VOLPAN 1 0 1 -1
    DEFCHAN 0
  >
  <TRACK
    NAME "Lead"
    PEAKCOL 4284506208
    VOLPAN 1.000000 0 1 -1
    MIDIOUT -1
    ISBUS 0 0
    <ITEM
      POSITION 0.000000
      LENGTH 75.537295
      NAME "Lead"
      VOLPAN 1 0 1 -1
      <SOURCE MIDI
        HASDATA 1 960 QN
        E 0 c0 00 00
        E 0 90 51 73
        E 1099 80 51 00
        E 65 90 4f 57
        E 571 90 51 59
        E 519 80 4f 00
        E 472 80 51 00
        E 418 90 54 5d
        E 991 80 54 00
        E 508 90 52 57
        E 991 80 52 00
        E 182 90 52 7d
        E 991 80 52 00
        E 161 90 51 57
        E 892 80 51 00
        E 47 90 54 57
        E 240 80 54 00
        E 700 90 58 5b
        E 1090 80 58 00
        E 324 90 54 57
        E 927 90 56 59
        E 64 80 54 00
        E 436 80 56 00
        E 654 90 56 57
        E 500 80 56 00
        E 892 90 58 57
        E 928 90 58 57
        E 294 90 56 57
        E 156 80 58 00
        E 84 80 56 00
        E 37 80 58 00
        E 17 90 54 57
        E 240 80 54 00
        E 54 90 51 57
        E 240 80 51 00
        E 54 90 4f 5b
        E 561 90 51 5f
        E 529 80 4f 00
        E 561 80 51 00
        E 80 90 52 57
        E 500 80 52 00
        E 650 90 54 57
        E 991 80 54 00
        E 188 90 58 57
        E 991 80 58 00
        E 527 90 54 57
        E 789 90 54 57
        E 202 80 54 00
        E 690 80 54 00
        E 296 90 54 57
        E 275 80 54 00
        E 300 90 56 57
        E 240 80 56 00
        E 334 90 59 57
        E 275 80 59 00
        E 1134 90 58 7c
        E 250 80 58 00
        E 77 90 59 61
        E 991 80 59 00
        E 418 90 59 61
        E 991 80 59 00
        E 503 90 58 65
        E 892 80 58 00
        E 277 90 59 61
        E 892 80 59 00
        E 860 90 58 76
        E 1090 80 58 00
        E 426 90 59 71
        E 749 80 59 00
        E 62 90 58 63
        E 991 80 58 00
        E 398 90 59 57
        E 932 90 58 57
        E 59 80 59 00
        E 441 80 58 00
        E 660 90 59 5f
        E 892 80 59 00
        E 278 90 58 57
        E 1090 80 58 00
        E 44 90 59 57
        E 991 80 59 00
        E 180 90 59 57
        E 991 80 59 00
        E 168 90 5b 57
        E 749 80 5b 00
        E 768 90 59 57
        E 500 80 59 00
        E 315 90 5b 57
        E 892 80 5b 00
        E 279 90 59 57
        E 290 90 56 57
        E 240 80 56 00
        E 51 90 54 63
        E 311 80 59 00
        E 239 80 54 00
        E 593 90 56 57
        E 500 80 56 00
        E 902 90 59 57
        E 991 80 59 00
        E 67 90 59 57
        E 500 80 59 00
        E 540 90 5b 69
        E 991 80 5b 00
        E 400 90 59 57
        E 167 90 56 57
        E 167 90 54 57
        E 73 80 56 00
        E 43 80 59 00
        E 776 80 54 00
        E 529 90 58 59
        E 1090 80 58 00
        E 58 90 58 57
        E 991 80 58 00
        E 172 90 58 69
        E 991 80 58 00
        E 177 90 5b 57
        E 991 80 5b 00
        E 185 90 59 57
        E 991 80 59 00
        E 167 90 58 57
        E 225 80 58 00
        E 930 90 59 57
        E 892 80 59 00
        E 501 90 58 5b
        E 1090 80 58 00
        E 198 90 59 57
        E 805 90 59 5f
        E 186 80 59 00
        E 805 80 59 00
        E 183 90 58 57
        E 991 80 58 00
        E 164 90 59 7b
        E 642 90 56 57
        E 240 80 56 00
        E 109 80 59 00
        E 293 90 54 57
        E 892 80 54 00
        E 140 90 58 57
        E 144 90 56 57
        E 144 90 54 57
        E 96 80 56 00
        E 48 90 51 57
        E 96 80 54 00
        E 48 90 4f 7b
        E 96 80 51 00
        E 418 80 58 00
        E 576 80 4f 00
        E 78 90 51 5b
        E 500 80 51 00
        E 904 90 4f 57
        E 500 80 4f 00
        E 665 90 51 7a
        E 913 90 52 57
        E 78 80 51 00
        E 671 80 52 00
        E 405 90 51 6d
        E 892 80 51 00
        E 291 90 4f 57
        E 1090 80 4f 00
        E 427 90 52 57
        E 784 90 51 5b
        E 306 80 52 00
        E 685 80 51 00
        E 181 90 52 5d
        E 991 80 52 00
        E 768 90 51 57
        E 749 80 51 00
        E 404 90 54 69
        E 892 80 54 00
        E 265 90 51 57
        E 550 80 51 00
        E 867 90 52 57
        E 917 90 51 61
        E 173 80 52 00
        E 77 80 51 00
        E 901 90 4f 63
        E 581 90 51 71
        E 168 80 4f 00
        E 823 80 51 00
        E 174 90 4f 5f
        E 991 80 4f 00
        E 172 90 4d 57
        E 575 90 4c 57
        E 317 80 4d 00
        E 575 80 4c 00
        E 882 90 4d 57
        E 824 80 4d 00
        E 216 90 4f 57
        E 749 80 4f 00
        E 416 90 4d 57
        E 991 80 4d 00
        E 0 b0 7b 00
        E 1 ff 2f 00
      >
    >
  >
  <TRACK
    NAME "Piano"
    PEAKCOL 4290756410
    VOLPAN 1.000000 0 1 -1
    MIDIOUT -1
    ISBUS 0 0
    <ITEM
      POSITION 0.000000
      LENGTH 74.687500
      NAME "Piano"
      VOLPAN 1 0 1 -1
      <SOURCE MIDI
        HASDATA 1 960 QN
        E 0 c1 00 00
        E 0 91 39 69
        E 432 81 39 00
        E 528 91 35 7d
        E 432 81 35 00
        E 1488 91 2d 7d
        E 432 81 2d 00
        E 528 91 2d 69
        E 432 81 2d 00
        E 528 91 29 7d
        E 432 81 29 00
        E 528 91 29 69
        E 0 91 2d 69
        E 432 81 29 00
        E 0 81 2d 00
        E 1488 91 29 69
        E 432 81 29 00
        E 528 91 2e 7d
        E 432 81 2e 00
        E 1488 91 2e 7d
        E 432 81 2e 00
        E 1488 91 29 7d
        E 0 91 2d 7d
        E 432 81 29 00
        E 0 81 2d 00
        E 6288 91 29 69
        E 0 91 2d 69
        E 432 81 29 00
        E 0 81 2d 00
        E 528 91 29 7d
        E 0 91 2d 7d
        E 432 81 29 00
        E 0 81 2d 00
        E 528 91 29 69
        E 0 91 2d 69
        E 432 81 29 00
        E 0 81 2d 00
        E 528 91 29 7d
        E 0 91 2d 7d
        E 432 81 29 00
        E 0 81 2d 00
        E 528 91 29 69
        E 0 91 2e 69
        E 432 81 29 00
        E 0 81 2e 00
        E 528 91 29 7d
        E 0 91 2e 7d
        E 432 81 29 00
        E 0 81 2e 00
        E 528 91 29 69
        E 0 91 2e 69
        E 432 81 29 00
        E 0 81 2e 00
        E 528 91 29 7d
        E 0 91 2e 7d
        E 432 81 29 00
        E 0 81 2e 00
        E 528 91 29 69
        E 0 91 2d 69
        E 432 81 29 00
        E 0 81 2d 00
        E 528 91 29 7d
        E 0 91 2d 7d
        E 432 81 29 00
        E 0 81 2d 00
        E 528 91 29 69
        E 0 91 2d 69
        E 432 81 29 00
        E 0 81 2d 00
        E 528 91 29 7d
        E 0 91 2d 7d
        E 432 81 29 00
        E 0 81 2d 00
        E 528 91 29 69
        E 0 91 2d 69
        E 432 81 29 00
        E 0 81 2d 00
        E 528 91 29 7d
        E 0 91 2d 7d
        E 432 81 29 00
        E 0 81 2d 00
        E 528 91 29 69
        E 0 91 2d 69
        E 432 81 29 00
        E 0 81 2d 00
        E 528 91 29 7d
        E 0 91 2d 7d
        E 432 81 29 00
        E 0 81 2d 00
        E 528 91 29 69
        E 0 91 2e 69
        E 432 81 29 00
        E 0 81 2e 00
        E 528 91 29 7d
        E 0 91 2e 7d
        E 432 81 29 00
        E 0 81 2e 00
        E 528 91 29 69
        E 0 91 2e 69
        E 432 81 29 00
        E 0 81 2e 00
        E 528 91 29 7d
        E 0 91 2e 7d
        E 432 81 29 00
        E 0 81 2e 00
        E 528 91 28 69
        E 0 91 2b 69
        E 432 81 28 00
        E 0 81 2b 00
        E 528 91 28 7d
        E 0 91 2b 7d
        E 432 81 28 00
        E 0 81 2b 00
        E 528 91 28 69
        E 0 91 2b 69
        E 432 81 28 00
        E 0 81 2b 00
        E 528 91 28 7d
        E 0 91 2b 7d
        E 432 81 28 00
        E 0 81 2b 00
        E 528 91 29 69
        E 0 91 2d 69
        E 432 81 29 00
        E 0 81 2d 00
        E 528 91 29 7d
        E 0 91 2d 7d
        E 432 81 29 00
        E 0 81 2d 00
        E 528 91 29 69
        E 0 91 2d 69
        E 432 81 29 00
        E 0 81 2d 00
        E 528 91 29 7d
        E 0 91 2d 7d
        E 432 81 29 00
        E 0 81 2d 00
        E 528 91 29 69
        E 0 91 2d 69
        E 432 81 29 00
        E 0 81 2d 00
        E 528 91 29 7d
        E 0 91 2d 7d
        E 432 81 29 00
        E 0 81 2d 00
        E 528 91 29 69
        E 0 91 2d 69
        E 432 81 29 00
        E 0 81 2d 00
        E 528 91 29 7d
        E 0 91 2d 7d
        E 432 81 29 00
        E 0 81 2d 00
        E 528 91 29 69
        E 0 91 2d 69
        E 432 81 29 00
        E 0 81 2d 00
        E 528 91 29 7d
        E 0 91 2d 7d
        E 432 81 29 00
        E 0 81 2d 00
        E 528 91 29 69
        E 0 91 2d 69
        E 432 81 29 00
        E 0 81 2d 00
        E 528 91 29 7d
        E 0 91 2d 7d
        E 432 81 29 00
        E 0 81 2d 00
        E 528 91 29 69
        E 0 91 2e 69
        E 432 81 29 00
        E 0 81 2e 00
        E 528 91 29 7d
        E 0 91 2e 7d
        E 432 81 29 00
        E 0 81 2e 00
        E 528 91 29 69
        E 0 91 2e 69
        E 432 81 29 00
        E 0 81 2e 00
        E 528 91 29 7d
        E 0 91 2e 7d
        E 432 81 29 00
        E 0 81 2e 00
        E 528 91 29 69
        E 0 91 2d 69
        E 432 81 29 00
        E 0 81 2d 00
        E 528 91 29 7d
        E 0 91 2d 7d
        E 432 81 29 00
        E 0 81 2d 00
        E 528 91 29 69
        E 0 91 2d 69
        E 432 81 29 00
        E 0 81 2d 00
        E 528 91 29 7d
        E 0 91 2d 7d
        E 432 81 29 00
        E 0 81 2d 00
        E 528 91 29 69
        E 0 91 2d 69
        E 432 81 29 00
        E 0 81 2d 00
        E 528 91 29 7d
        E 0 91 2d 7d
        E 432 81 29 00
        E 0 81 2d 00
        E 528 91 29 69
        E 0 91 2d 69
        E 432 81 29 00
        E 0 81 2d 00
        E 528 91 29 7d
        E 0 91 2d 7d
        E 432 81 29 00
        E 0 81 2d 00
        E 528 91 29 69
        E 0 91 2d 69
        E 432 81 29 00
        E 0 81 2d 00
        E 528 91 29 7d
        E 0 91 2d 7d
        E 432 81 29 00
        E 0 81 2d 00
        E 528 91 29 69
        E 0 91 2d 69
        E 432 81 29 00
        E 0 81 2d 00
        E 528 91 29 7d
        E 0 91 2d 7d
        E 432 81 29 00
        E 0 81 2d 00
        E 528 91 29 69
        E 0 91 2e 69
        E 432 81 29 00
        E 0 81 2e 00
        E 528 91 29 7d
        E 0 91 2e 7d
        E 432 81 29 00
        E 0 81 2e 00
        E 528 91 29 69
        E 0 91 2e 69
        E 432 81 29 00
        E 0 81 2e 00
        E 528 91 29 7d
        E 0 91 2e 7d
        E 432 81 29 00
        E 0 81 2e 00
        E 528 91 29 69
        E 0 91 2d 69
        E 432 81 29 00
        E 0 81 2d 00
        E 528 91 29 7d
        E 0 91 2d 7d
        E 432 81 29 00
        E 0 81 2d 00
        E 528 91 29 69
        E 0 91 2d 69
        E 432 81 29 00
        E 0 81 2d 00
        E 528 91 29 7d
        E 0 91 2d 7d
        E 432 81 29 00
        E 0 81 2d 00
        E 528 91 2d 69
        E 432 81 2d 00
        E 528 91 29 7d
        E 432 81 29 00
        E 528 91 29 69
        E 0 91 2d 69
        E 432 81 29 00
        E 0 81 2d 00
        E 528 91 29 7d
        E 432 81 29 00
        E 1488 91 2e 7d
        E 432 81 2e 00
        E 2448 91 28 69
        E 432 81 28 00
        E 528 91 28 7d
        E 432 81 28 00
        E 3408 91 29 7d
        E 0 91 2d 7d
        E 432 81 29 00
        E 0 81 2d 00
        E 1488 91 29 7d
        E 432 81 29 00
        E 3408 91 2d 7d
        E 432 81 2d 00
        E 0 b1 7b 00
        E 1 ff 2f 00
      >
    >
  >
  <TRACK
    NAME "Harp"
    PEAKCOL 4290756410
    VOLPAN 1.000000 0 1 -1
    MIDIOUT -1
    ISBUS 0 0
    <ITEM
      POSITION 0.092007
      LENGTH 74.972049
      NAME "Harp"
      VOLPAN 1 0 1 -1
      <SOURCE MIDI
        HASDATA 1 960 QN
        E 0 c2 2e 00
        E 118 92 39 61
        E 242 92 41 51
        E 479 92 51 39
        E 243 92 51 39
        E 118 92 4d 39
        E 241 92 45 39
        E 118 92 41 39
        E 361 92 35 39
        E 1870 82 39 00
        E 1 82 51 00
        E 0 82 41 00
        E 1 82 41 00
        E 0 82 4d 00
        E 0 82 35 00
        E 1 82 45 00
        E 1 82 51 00
        E 289 92 39 57
        E 478 92 4a 3d
        E 358 92 4d 39
        E 122 92 4a 39
        E 2590 82 4d 00
        E 2 82 4a 00
        E 0 82 4a 00
        E 2 82 39 00
        E 882 92 4d 3b
        E 123 92 52 39
        E 238 92 4a 39
        E 123 92 46 39
        E 118 92 41 39
        E 2350 82 4d 00
        E 1 82 4a 00
        E 1 82 41 00
        E 1 82 52 00
        E 1 82 46 00
        E 50 92 35 65
        E 595 92 48 47
        E 244 92 51 39
        E 959 92 39 39
        E 120 92 35 39
        E 1869 82 48 00
        E 3 82 39 00
        E 0 82 35 00
        E 1 82 51 00
        E 1 82 35 00
        E 284 92 3c 57
        E 1081 92 48 39
        E 2471 82 3c 00
        E 1 82 48 00
        E 47 92 32 61
        E 119 92 35 61
        E 122 92 39 59
        E 121 92 3e 4b
        E 118 92 41 45
        E 121 92 45 45
        E 117 92 4a 3b
        E 122 92 4d 39
        E 118 92 51 39
        E 126 92 4d 39
        E 115 92 4a 39
        E 125 92 45 39
        E 118 92 41 39
        E 121 92 3e 39
        E 117 92 39 39
        E 122 92 35 39
        E 117 92 32 39
        E 1871 82 4a 00
        E 0 82 51 00
        E 1 82 35 00
        E 0 82 4a 00
        E 0 82 32 00
        E 1 82 32 00
        E 0 82 41 00
        E 0 82 4d 00
        E 0 82 39 00
        E 1 82 39 00
        E 0 82 45 00
        E 1 82 3e 00
        E 0 82 41 00
        E 0 82 35 00
        E 1 82 3e 00
        E 1 82 4d 00
        E 0 82 45 00
        E 44 92 32 67
        E 119 92 35 61
        E 124 92 3a 53
        E 118 92 3e 4b
        E 122 92 41 4d
        E 120 92 46 45
        E 117 92 4a 39
        E 119 92 4d 3b
        E 119 92 52 39
        E 125 92 4d 39
        E 119 92 4a 39
        E 118 92 46 39
        E 119 92 41 39
        E 122 92 3e 39
        E 122 92 3a 39
        E 119 92 35 39
        E 118 92 32 39
        E 1870 82 52 00
        E 1 82 35 00
        E 0 82 4d 00
        E 0 82 41 00
        E 1 82 32 00
        E 0 82 4a 00
        E 0 82 46 00
        E 0 82 32 00
        E 1 82 3e 00
        E 0 82 3e 00
        E 1 82 4a 00
        E 0 82 35 00
        E 1 82 3a 00
        E 0 82 41 00
        E 0 82 46 00
        E 0 82 4d 00
        E 0 82 3a 00
        E 45 92 35 69
        E 123 92 39 61
        E 117 92 3c 59
        E 124 92 41 51
        E 114 92 45 4b
        E 120 92 48 47
        E 124 92 4d 39
        E 122 92 51 39
        E 118 92 54 39
        E 118 92 51 39
        E 119 92 4d 39
        E 125 92 48 39
        E 118 92 45 39
        E 118 92 41 39
        E 119 92 3c 39
        E 124 92 39 39
        E 120 92 35 39
        E 1867 82 45 00
        E 0 82 48 00
        E 1 82 4d 00
        E 0 82 3c 00
        E 1 82 35 00
        E 0 82 3c 00
        E 0 82 51 00
        E 0 82 41 00
        E 2 82 4d 00
        E 0 82 54 00
        E 0 82 45 00
        E 1 82 39 00
        E 0 82 39 00
        E 0 82 35 00
        E 1 82 41 00
        E 0 82 51 00
        E 0 82 48 00
        E 46 92 35 61
        E 118 92 39 5b
        E 123 92 3c 53
        E 117 92 41 4d
        E 123 92 45 4d
        E 120 92 48 41
        E 118 92 4d 39
        E 122 92 51 39
        E 119 92 54 39
        E 121 92 51 39
        E 115 92 4d 39
        E 123 92 48 39
        E 119 92 45 39
        E 124 92 41 39
        E 114 92 3c 39
        E 121 92 39 39
        E 121 92 35 39
        E 1870 82 4d 00
        E 0 82 3c 00
        E 1 82 39 00
        E 1 82 39 00
        E 0 82 41 00
        E 0 82 45 00
        E 0 82 35 00
        E 1 82 4d 00
        E 0 82 48 00
        E 1 82 35 00
        E 0 82 54 00
        E 1 82 3c 00
        E 0 82 45 00
        E 0 82 48 00
        E 0 82 51 00
        E 0 82 51 00
        E 1 82 41 00
        E 42 92 32 69
        E 125 92 35 61
        E 118 92 3a 5b
        E 120 92 3e 53
        E 120 92 41 43
        E 121 92 46 3d
        E 119 92 4a 39
        E 120 92 4d 39
        E 122 92 52 39
        E 121 92 4d 39
        E 120 92 4a 39
        E 118 92 46 39
        E 119 92 41 39
        E 121 92 3e 39
        E 116 92 3a 39
        E 123 92 35 39
        E 119 92 32 39
        E 1870 82 32 00
        E 0 82 3a 00
        E 2 82 32 00
        E 1 82 3a 00
        E 0 82 3e 00
        E 0 82 41 00
        E 0 82 4a 00
        E 0 82 4d 00
        E 0 82 41 00
        E 0 82 35 00
        E 1 82 46 00
        E 0 82 46 00
        E 0 82 3e 00
        E 1 82 35 00
        E 0 82 52 00
        E 1 82 4d 00
        E 0 82 4a 00
        E 45 92 34 69
        E 118 92 37 5b
        E 121 92 3c 59
        E 119 92 40 4d
        E 125 92 43 45
        E 119 92 48 3d
        E 121 92 4c 3d
        E 116 92 4f 3d
        E 123 92 54 39
        E 116 92 4f 39
        E 125 92 4c 39
        E 115 92 48 39
        E 121 92 43 39
        E 121 92 40 39
        E 120 92 3c 39
        E 118 92 37 39
        E 121 92 34 39
        E 1871 82 37 00
        E 0 82 40 00
        E 0 82 4f 00
        E 0 82 48 00
        E 0 82 37 00
        E 1 82 3c 00
        E 0 82 4f 00
        E 0 82 43 00
        E 0 82 34 00
        E 1 82 34 00
        E 0 82 40 00
        E 0 82 3c 00
        E 2 82 48 00
        E 0 82 54 00
        E 1 82 43 00
        E 0 82 4c 00
        E 0 82 4c 00
        E 47 92 35 6b
        E 120 92 39 5b
        E 116 92 3c 51
        E 120 92 41 51
        E 122 92 45 45
        E 119 92 48 41
        E 123 92 4d 3d
        E 120 92 51 39
        E 118 92 54 39
        E 118 92 51 39
        E 123 92 4d 39
        E 121 92 48 39
        E 120 92 45 39
        E 116 92 41 39
        E 121 92 3c 39
        E 120 92 39 39
        E 122 92 35 39
        E 1869 82 3c 00
        E 0 82 41 00
        E 0 82 51 00
        E 0 82 41 00
        E 1 82 48 00
        E 0 82 3c 00
        E 0 82 39 00
        E 1 82 45 00
        E 0 82 54 00
        E 1 82 4d 00
        E 0 82 35 00
        E 1 82 35 00
        E 0 82 39 00
        E 0 82 4d 00
        E 0 82 51 00
        E 0 82 48 00
        E 0 82 45 00
        E 48 92 35 63
        E 119 92 39 5d
        E 117 92 3c 53
        E 123 92 41 4d
        E 116 92 45 49
        E 125 92 48 41
        E 117 92 4d 39
        E 121 92 51 39
        E 122 92 54 39
        E 120 92 51 39
        E 119 92 4d 39
        E 120 92 48 39
        E 121 92 45 39
        E 117 92 41 39
        E 119 92 3c 39
        E 123 92 39 39
        E 118 92 35 39
        E 1870 82 45 00
        E 1 82 3c 00
        E 0 82 3c 00
        E 1 82 4d 00
        E 0 82 41 00
        E 0 82 35 00
        E 1 82 51 00
        E 1 82 39 00
        E 0 82 41 00
        E 0 82 4d 00
        E 0 82 48 00
        E 0 82 39 00
        E 1 82 35 00
        E 0 82 48 00
        E 0 82 54 00
        E 0 82 51 00
        E 0 82 45 00
        E 46 92 32 69
        E 120 92 35 5f
        E 119 92 39 57
        E 121 92 3e 51
        E 120 92 41 43
        E 118 92 45 3f
        E 120 92 4a 3d
        E 119 92 4d 39
        E 121 92 51 39
        E 120 92 4d 39
        E 120 92 4a 39
        E 123 92 45 39
        E 119 92 41 39
        E 119 92 3e 39
        E 122 92 39 39
        E 116 92 35 39
        E 122 92 32 39
        E 1870 82 4d 00
        E 0 82 35 00
        E 1 82 45 00
        E 0 82 4a 00
        E 0 82 51 00
        E 0 82 4d 00
        E 0 82 4a 00
        E 1 82 39 00
        E 0 82 3e 00
        E 0 82 32 00
        E 1 82 32 00
        E 0 82 35 00
        E 0 82 3e 00
        E 0 82 41 00
        E 0 82 41 00
        E 1 82 45 00
        E 0 82 39 00
        E 46 92 32 67
        E 121 92 35 59
        E 121 92 3a 5b
        E 119 92 3e 4f
        E 119 92 41 45
        E 119 92 46 3d
        E 121 92 4a 3d
        E 122 92 4d 39
        E 120 92 52 39
        E 117 92 4d 39
        E 121 92 4a 39
        E 121 92 46 39
        E 118 92 41 39
        E 124 92 3e 39
        E 118 92 3a 39
        E 119 92 35 39
        E 123 92 32 39
        E 1868 82 46 00
        E 0 82 4d 00
        E 0 82 41 00
        E 1 82 32 00
        E 0 82 41 00
        E 0 82 4a 00
        E 0 82 4a 00
        E 0 82 35 00
        E 1 82 35 00
        E 0 82 3e 00
        E 0 82 46 00
        E 0 82 3a 00
        E 1 82 3a 00
        E 0 82 4d 00
        E 0 82 52 00
        E 1 82 3e 00
        E 0 82 32 00
        E 48 92 35 61
        E 117 92 39 5d
        E 121 92 3c 55
        E 120 92 41 51
        E 122 92 45 47
        E 120 92 48 3f
        E 119 92 4d 39
        E 120 92 51 39
        E 122 92 54 39
        E 119 92 51 39
        E 120 92 4d 39
        E 115 92 48 39
        E 125 92 45 39
        E 120 92 41 39
        E 116 92 3c 39
        E 124 92 39 39
        E 116 92 35 39
        E 1871 82 48 00
        E 1 82 3c 00
        E 0 82 35 00
        E 1 82 39 00
        E 1 82 3c 00
        E 0 82 41 00
        E 1 82 4d 00
        E 0 82 51 00
        E 1 82 35 00
        E 0 82 45 00
        E 0 82 48 00
        E 0 82 51 00
        E 0 82 4d 00
        E 0 82 45 00
        E 0 82 41 00
        E 0 82 39 00
        E 1 82 54 00
        E 43 92 35 65
        E 120 92 39 5b
        E 120 92 3c 5b
        E 119 92 41 53
        E 122 92 45 4d
        E 118 92 48 3f
        E 121 92 4d 39
        E 121 92 51 3b
        E 124 92 54 39
        E 119 92 51 39
        E 116 92 4d 39
        E 121 92 48 39
        E 121 92 45 39
        E 121 92 41 39
        E 120 92 3c 39
        E 118 92 39 39
        E 123 92 35 39
        E 1867 82 41 00
        E 0 82 48 00
        E 1 82 35 00
        E 0 82 39 00
        E 0 82 3c 00
        E 0 82 4d 00
        E 0 82 4d 00
        E 1 82 45 00
        E 0 82 51 00
        E 0 82 48 00
        E 0 82 39 00
        E 1 82 45 00
        E 1 82 41 00
        E 0 82 3c 00
        E 1 82 51 00
        E 0 82 35 00
        E 1 82 54 00
        E 45 92 32 69
        E 122 92 35 5d
        E 117 92 39 57
        E 124 92 3e 4d
        E 119 92 41 4b
        E 119 92 45 3d
        E 118 92 4a 41
        E 124 92 4d 39
        E 117 92 51 39
        E 117 92 4d 39
        E 126 92 4a 39
        E 118 92 45 39
        E 118 92 41 39
        E 118 92 3e 39
        E 122 92 39 39
        E 119 92 35 39
        E 123 92 32 39
        E 1868 82 4d 00
        E 0 82 3e 00
        E 1 82 35 00
        E 1 82 39 00
        E 0 82 4a 00
        E 0 82 41 00
        E 0 82 39 00
        E 1 82 32 00
        E 0 82 51 00
        E 1 82 45 00
        E 0 82 45 00
        E 0 82 32 00
        E 1 82 35 00
        E 0 82 41 00
        E 1 82 3e 00
        E 0 82 4d 00
        E 0 82 4a 00
        E 46 92 32 69
        E 119 92 35 61
        E 118 92 3a 57
        E 125 92 3e 4f
        E 116 92 41 45
        E 123 92 46 3f
        E 116 92 4a 39
        E 123 92 4d 39
        E 117 92 52 39
        E 123 92 4d 39
        E 121 92 4a 39
        E 119 92 46 39
        E 122 92 41 39
        E 116 92 3e 39
        E 120 92 3a 39
        E 124 92 35 39
        E 120 92 32 39
        E 1867 82 3a 00
        E 0 82 4a 00
        E 0 82 52 00
        E 1 82 41 00
        E 0 82 3e 00
        E 0 82 3a 00
        E 1 82 35 00
        E 1 82 32 00
        E 0 82 4d 00
        E 0 82 4d 00
        E 0 82 46 00
        E 1 82 46 00
        E 0 82 4a 00
        E 1 82 3e 00
        E 0 82 41 00
        E 0 82 35 00
        E 0 82 32 00
        E 43 92 35 61
        E 120 92 39 5d
        E 119 92 3c 55
        E 124 92 41 53
        E 122 92 45 45
        E 117 92 48 3f
        E 117 92 4d 3d
        E 121 92 51 39
        E 119 92 54 39
        E 121 92 51 39
        E 120 92 4d 39
        E 124 92 48 39
        E 118 92 45 39
        E 119 92 41 39
        E 123 92 3c 39
        E 117 92 39 39
        E 123 92 35 39
        E 1867 82 3c 00
        E 0 82 4d 00
        E 0 82 54 00
        E 1 82 35 00
        E 0 82 39 00
        E 0 82 51 00
        E 0 82 51 00
        E 0 82 4d 00
        E 1 82 41 00
        E 0 82 39 00
        E 1 82 48 00
        E 0 82 45 00
        E 1 82 41 00
        E 1 82 48 00
        E 0 82 3c 00
        E 0 82 35 00
        E 1 82 45 00
        E 43 92 35 69
        E 363 92 41 4d
        E 120 92 45 45
        E 120 92 48 47
        E 481 92 51 39
        E 720 92 39 39
        E 1988 82 35 00
        E 3 82 41 00
        E 0 82 45 00
        E 0 82 48 00
        E 1 82 51 00
        E 0 82 39 00
        E 524 92 41 4d
        E 844 92 46 39
        E 2468 82 41 00
        E 4 82 46 00
        E 44 92 34 63
        E 600 92 48 43
        E 241 92 4f 3d
        E 603 92 43 39
        E 358 92 37 39
        E 1990 82 34 00
        E 0 82 48 00
        E 1 82 4f 00
        E 1 82 37 00
        E 2 82 43 00
        E 44 92 35 6b
        E 365 92 41 4d
        E 715 92 51 39
        E 363 92 45 39
        E 2349 82 35 00
        E 0 82 51 00
        E 3 82 45 00
        E 2 82 41 00
        E 166 92 39 61
        E 120 92 3c 57
        E 356 92 48 45
        E 123 92 4d 3b
        E 121 92 51 3d
        E 240 92 51 39
        E 361 92 45 39
        E 116 92 41 39
        E 239 92 39 39
        E 121 92 35 39
        E 1871 82 48 00
        E 0 82 39 00
        E 1 82 41 00
        E 0 82 35 00
        E 2 82 4d 00
        E 1 82 39 00
        E 0 82 3c 00
        E 0 82 51 00
        E 0 82 51 00
        E 1 82 45 00
        E 0 b2 7b 00
        E 1 ff 2f 00
      >
    >
  >
  <TRACK
    NAME "Strings"
    PEAKCOL 4284186559
    VOLPAN 1.000000 0 1 -1
    MIDIOUT -1
    ISBUS 0 0
    <ITEM
      POSITION 0.000000
      LENGTH 75.112378
      NAME "Strings"
      VOLPAN 1 0 1 -1
      <SOURCE MIDI
        HASDATA 1 960 QN
        E 0 c3 30 00
        E 0 93 48 39
        E 5 93 41 39
        E 9 93 48 39
        E 1906 93 48 39
        E 0 93 48 39
        E 8 83 48 00
        E 5 93 48 39
        E 1 93 34 39
        E 3 83 41 00
        E 1 83 48 00
        E 1884 83 48 00
        E 13 83 48 00
        E 1 83 34 00
        E 4 93 45 39
        E 0 93 3e 39
        E 11 93 48 39
        E 4 83 48 00
        E 1905 83 3e 00
        E 6 93 45 39
        E 4 93 45 39
        E 1 83 45 00
        E 19 83 48 00
        E 1888 83 45 00
        E 18 83 45 00
        E 1895 93 34 39
        E 3 93 48 39
        E 3 93 48 39
        E 14 93 34 39
        E 3 93 41 39
        E 1891 83 48 00
        E 1 83 34 00
        E 7 83 34 00
        E 5 83 41 00
        E 7 93 34 39
        E 3 83 48 00
        E 1912 93 3c 39
        E 12 93 45 39
        E 6 83 34 00
        E 1889 93 48 39
        E 13 83 3c 00
        E 0 93 48 39
        E 1 93 34 39
        E 15 83 45 00
        E 1887 83 48 00
        E 1 83 34 00
        E 21 93 48 39
        E 1 83 48 00
        E 1901 83 48 00
        E 13 93 3e 39
        E 2 93 34 39
        E 1 93 48 39
        E 4 93 34 39
        E 6 93 48 39
        E 1 93 41 39
        E 1900 93 48 39
        E 2 83 48 00
        E 0 93 48 39
        E 1 83 34 00
        E 1 93 34 39
        E 0 93 34 39
        E 2 83 3e 00
        E 0 93 3e 39
        E 5 93 34 39
        E 1 93 48 39
        E 4 83 34 00
        E 1 93 48 39
        E 7 83 41 00
        E 5 83 48 00
        E 1881 83 34 00
        E 2 93 34 39
        E 2 93 34 39
        E 4 83 48 00
        E 0 93 34 39
        E 1 93 46 39
        E 1 83 48 00
        E 2 93 48 39
        E 4 83 3e 00
        E 0 93 3e 39
        E 1 93 34 39
        E 2 83 48 00
        E 1 93 48 39
        E 7 83 48 00
        E 1 83 34 00
        E 3 83 34 00
        E 1876 83 34 00
        E 11 83 34 00
        E 9 93 48 39
        E 5 83 34 00
        E 2 93 48 39
        E 1 93 48 39
        E 1 83 3e 00
        E 0 93 3e 39
        E 1 93 48 39
        E 5 83 46 00
        E 2 83 48 00
        E 0 93 48 39
        E 4 93 41 39
        E 2 93 48 39
        E 3 83 34 00
        E 5 83 48 00
        E 1883 83 48 00
        E 4 83 48 00
        E 4 93 48 39
        E 0 93 48 39
        E 2 83 48 00
        E 0 83 41 00
        E 5 83 3e 00
        E 0 83 48 00
        E 0 93 3c 39
        E 0 93 48 39
        E 1 83 48 00
        E 5 93 41 39
        E 1 93 48 39
        E 1 93 41 39
        E 4 93 48 39
        E 10 83 48 00
        E 1881 83 48 00
        E 3 93 48 39
        E 5 93 48 39
        E 3 93 48 39
        E 1 93 48 39
        E 1 83 48 00
        E 0 93 34 39
        E 4 83 3c 00
        E 0 93 3c 39
        E 2 83 41 00
        E 0 83 48 00
        E 0 93 48 39
        E 7 93 45 39
        E 1 83 41 00
        E 2 83 48 00
        E 4 83 48 00
        E 1879 83 48 00
        E 16 83 34 00
        E 2 93 48 39
        E 1 93 34 39
        E 1 83 45 00
        E 4 83 48 00
        E 1 83 3c 00
        E 0 93 3c 39
        E 3 83 48 00
        E 1 83 48 00
        E 4 93 48 39
        E 1 83 48 00
        E 1 93 34 39
        E 1 93 41 39
        E 1 93 48 39
        E 0 93 48 39
        E 1894 93 48 39
        E 2 93 48 39
        E 3 93 48 39
        E 2 93 45 39
        E 7 83 3c 00
        E 0 93 3c 39
        E 2 93 48 39
        E 2 83 48 00
        E 2 93 48 39
        E 1 83 34 00
        E 3 83 48 00
        E 0 93 48 39
        E 1 83 48 00
        E 2 83 41 00
        E 8 83 34 00
        E 7 83 48 00
        E 1880 83 45 00
        E 4 83 48 00
        E 1 83 48 00
        E 2 93 34 39
        E 2 83 48 00
        E 2 83 48 00
        E 1 83 3c 00
        E 0 93 3a 39
        E 2 83 48 00
        E 1 93 48 39
        E 1 93 48 39
        E 7 93 3e 39
        E 1 93 34 39
        E 2 93 48 39
        E 0 93 41 39
        E 6 83 48 00
        E 1880 83 34 00
        E 6 93 3e 39
        E 3 83 48 00
        E 5 93 48 39
        E 1 83 48 00
        E 1 83 3e 00
        E 0 93 48 39
        E 4 83 3a 00
        E 0 93 3a 3b
        E 2 83 41 00
        E 2 93 48 39
        E 1 93 34 39
        E 2 93 34 39
        E 1 83 48 00
        E 1 83 34 00
        E 2 93 48 39
        E 1876 83 3e 00
        E 21 93 48 39
        E 1 93 48 39
        E 2 83 34 00
        E 0 93 48 39
        E 1 93 34 39
        E 5 93 48 39
        E 2 83 48 00
        E 1 83 48 00
        E 0 83 3a 00
        E 0 93 3c 3b
        E 2 83 34 00
        E 3 83 48 00
        E 5 83 48 00
        E 2 93 48 39
        E 1 93 34 39
        E 1887 83 34 00
        E 7 83 48 00
        E 0 93 48 39
        E 1 93 43 39
        E 2 93 48 39
        E 1 93 48 39
        E 7 83 48 00
        E 2 83 3c 00
        E 0 93 3c 3d
        E 2 93 34 39
        E 2 93 48 39
        E 4 83 34 00
        E 1 93 34 39
        E 1 83 48 00
        E 5 83 48 00
        E 9 83 48 00
        E 1870 83 43 00
        E 7 83 48 00
        E 6 93 41 39
        E 6 93 48 39
        E 1 93 48 39
        E 1 83 34 00
        E 1 83 48 00
        E 4 83 3c 00
        E 0 83 48 00
        E 0 93 48 39
        E 0 93 3c 3d
        E 1 93 41 39
        E 5 83 34 00
        E 3 83 48 00
        E 1 93 34 39
        E 2 93 48 39
        E 1881 83 41 00
        E 8 83 48 00
        E 5 83 48 00
        E 4 93 48 39
        E 0 93 48 39
        E 3 93 34 39
        E 0 93 48 39
        E 2 83 48 00
        E 1 83 41 00
        E 1 83 34 00
        E 2 93 48 39
        E 0 93 48 39
        E 1 83 3c 00
        E 0 93 3c 3d
        E 1 83 48 00
        E 11 93 48 39
        E 1880 83 48 00
        E 3 83 48 00
        E 12 93 48 39
        E 7 83 48 00
        E 0 83 48 00
        E 0 93 48 39
        E 3 93 41 39
        E 3 83 3c 00
        E 0 93 3c 3d
        E 1 93 45 39
        E 1 83 48 00
        E 0 83 48 00
        E 5 83 34 00
        E 0 93 48 39
        E 3 93 48 39
        E 3 93 48 39
        E 1884 83 48 00
        E 5 83 41 00
        E 1 83 45 00
        E 1 83 48 00
        E 6 83 48 00
        E 0 93 48 39
        E 2 93 48 39
        E 4 93 48 39
        E 1 93 48 39
        E 3 83 3c 00
        E 0 93 3c 3d
        E 2 93 48 39
        E 0 93 34 39
        E 2 93 48 39
        E 7 83 48 00
        E 15 83 48 00
        E 1866 83 48 00
        E 19 93 45 39
        E 1 93 34 39
        E 3 93 48 39
        E 1 83 48 00
        E 4 83 3c 00
        E 0 93 3e 3f
        E 2 93 34 39
        E 2 93 45 39
        E 5 83 48 00
        E 0 83 48 00
        E 0 83 34 00
        E 0 93 34 39
        E 1 93 48 39
        E 3 83 48 00
        E 3 83 48 00
        E 1886 83 34 00
        E 11 93 34 39
        E 1 83 45 00
        E 1 93 34 39
        E 1 83 48 00
        E 2 93 41 39
        E 2 83 3e 00
        E 0 93 3e 3f
        E 2 93 48 39
        E 2 93 48 39
        E 1 93 45 39
        E 7 83 48 00
        E 0 93 34 39
        E 2 83 34 00
        E 3 83 45 00
        E 3 83 34 00
        E 1878 83 34 00
        E 1 83 34 00
        E 14 93 48 39
        E 2 83 45 00
        E 0 93 48 39
        E 2 83 41 00
        E 3 83 3e 00
        E 0 93 3e 41
        E 4 93 46 39
        E 5 93 48 39
        E 2 93 48 39
        E 1 93 41 39
        E 1 93 48 39
        E 5 83 48 00
        E 0 83 34 00
        E 2 83 48 00
        E 1889 93 48 39
        E 1 83 48 00
        E 6 83 48 00
        E 1 83 48 00
        E 1 93 48 39
        E 1 83 48 00
        E 0 93 48 39
        E 1 83 3e 00
        E 0 93 3e 41
        E 1 93 48 39
        E 0 93 41 39
        E 1 93 48 39
        E 1 83 48 00
        E 0 93 48 39
        E 7 83 41 00
        E 5 83 46 00
        E 1888 83 48 00
        E 5 83 48 00
        E 2 83 48 00
        E 1 93 41 39
        E 3 93 48 39
        E 3 93 48 39
        E 1 93 48 39
        E 2 83 48 00
        E 0 83 3e 00
        E 0 93 3c 41
        E 2 83 48 00
        E 1 93 48 39
        E 1 93 48 39
        E 1 83 41 00
        E 7 93 34 39
        E 5 83 48 00
        E 1890 83 41 00
        E 5 93 48 39
        E 2 83 48 00
        E 1 83 48 00
        E 0 93 48 39
        E 0 93 45 39
        E 2 83 34 00
        E 3 83 48 00
        E 0 83 3c 00
        E 0 93 3c 43
        E 0 93 48 39
        E 7 83 48 00
        E 2 83 48 00
        E 1 93 48 39
        E 2 93 48 39
        E 0 93 34 39
        E 1896 93 48 39
        E 2 83 48 00
        E 0 93 48 39
        E 1 93 41 39
        E 0 93 48 39
        E 2 93 48 39
        E 7 83 3c 00
        E 0 93 3c 43
        E 2 83 48 00
        E 1 93 48 39
        E 2 93 48 39
        E 6 83 48 00
        E 3 83 45 00
        E 0 83 34 00
        E 2 83 48 00
        E 13 83 48 00
        E 1866 83 48 00
        E 11 83 48 00
        E 0 93 48 39
        E 1 93 34 39
        E 4 83 41 00
        E 0 83 48 00
        E 1 83 48 00
        E 2 93 48 39
        E 2 93 48 39
        E 3 93 41 39
        E 1 83 3c 00
        E 0 93 3c 45
        E 0 93 48 39
        E 1 83 48 00
        E 8 83 48 00
        E 1 93 34 39
        E 1879 83 34 00
        E 13 83 48 00
        E 9 83 48 00
        E 3 93 34 39
        E 1 83 48 00
        E 0 93 48 39
        E 1 83 48 00
        E 4 83 3c 00
        E 0 93 3e 45
        E 0 93 41 39
        E 1 83 41 00
        E 0 93 48 39
        E 4 83 34 00
        E 2 93 34 39
        E 2 93 48 39
        E 0 93 48 39
        E 1892 83 48 00
        E 1 83 34 00
        E 7 93 48 39
        E 5 93 48 39
        E 6 83 3e 00
        E 0 93 3e 45
        E 2 93 48 39
        E 0 93 41 39
        E 4 93 34 39
        E 0 93 48 39
        E 3 93 48 39
        E 1 83 34 00
        E 4 83 48 00
        E 2 83 41 00
        E 1 83 48 00
        E 3 83 48 00
        E 1884 83 48 00
        E 2 93 34 39
        E 2 83 48 00
        E 4 93 48 39
        E 3 93 34 39
        E 5 83 3e 00
        E 0 93 3e 45
        E 3 83 48 00
        E 1 83 48 00
        E 2 93 48 39
        E 1 93 34 39
        E 0 93 48 39
        E 4 83 41 00
        E 0 83 34 00
        E 3 93 48 39
        E 5 83 48 00
        E 1874 83 34 00
        E 13 93 48 39
        E 3 83 48 00
        E 2 93 48 39
        E 0 93 48 39
        E 5 93 34 39
        E 4 83 3e 00
        E 0 83 48 00
        E 0 93 3e 45
        E 3 93 48 39
        E 1 83 34 00
        E 1 83 34 00
        E 3 93 48 39
        E 2 93 34 39
        E 1 83 48 00
        E 5 83 48 00
        E 1873 83 48 00
        E 14 83 48 00
        E 5 93 48 39
        E 1 93 41 39
        E 7 83 34 00
        E 0 93 34 39
        E 1 83 48 00
        E 3 83 3e 00
        E 0 93 3c 47
        E 2 83 48 00
        E 4 83 34 00
        E 0 93 48 39
        E 3 93 48 39
        E 1 93 48 39
        E 1 93 41 39
        E 7 83 48 00
        E 1880 83 34 00
        E 8 93 48 39
        E 1 93 41 39
        E 3 93 48 39
        E 1 83 48 00
        E 1 83 48 00
        E 4 83 48 00
        E 4 83 3c 00
        E 0 93 3c 47
        E 1 83 41 00
        E 1 83 41 00
        E 5 93 48 39
        E 3 93 48 39
        E 0 93 34 39
        E 2 93 48 39
        E 1 83 48 00
        E 1885 83 48 00
        E 9 93 48 39
        E 1 93 48 39
        E 2 83 41 00
        E 1 93 45 39
        E 6 83 48 00
        E 0 93 48 39
        E 0 93 41 39
        E 3 83 3c 00
        E 3 83 34 00
        E 4 83 48 00
        E 8 83 48 00
        E 16 83 48 00
        E 1866 83 45 00
        E 11 93 48 39
        E 0 93 48 39
        E 1 83 48 00
        E 1 83 41 00
        E 10 93 3c 49
        E 2 83 48 00
        E 0 83 48 00
        E 5 93 48 39
        E 1896 83 48 00
        E 14 83 48 00
        E 2 83 48 00
        E 1 83 3c 00
        E 4 93 48 39
        E 6 93 41 39
        E 1896 83 48 00
        E 17 83 41 00
        E 11 93 48 39
        E 1916 93 48 39
        E 13 83 48 00
        E 1889 93 43 39
        E 2 93 48 39
        E 5 83 48 00
        E 1908 93 34 39
        E 7 93 48 39
        E 6 83 43 00
        E 4 83 48 00
        E 1909 83 34 00
        E 1 93 48 39
        E 3 83 48 00
        E 13 93 41 39
        E 3 93 48 39
        E 1895 83 48 00
        E 6 93 34 39
        E 3 83 41 00
        E 7 93 48 39
        E 25 83 48 00
        E 1879 83 34 00
        E 2 83 48 00
        E 17 93 34 39
        E 6 93 48 39
        E 1906 83 48 00
        E 17 83 34 00
        E 0 b3 7b 00
        E 1 ff 2f 00
      >
    >
  >
  <TRACK
    NAME "Violin1"
    PEAKCOL 4284186559
    VOLPAN 1.000000 0 1 -1
    MIDIOUT -1
    ISBUS 0 0
    <ITEM
      POSITION 3.000007
      LENGTH 72.111228
      NAME "Violin1"
      VOLPAN 1 0 1 -1
      <SOURCE MIDI
        HASDATA 1 960 QN
        E 0 c4 28 00
        E 3840 94 51 67
        E 3840 84 51 00
        E 3842 94 54 65
        E 3840 84 54 00
        E 3841 94 56 69
        E 3840 84 56 00
        E 6 94 59 6f
        E 3832 94 54 65
        E 8 84 59 00
        E 3832 84 54 00
        E 11 94 54 65
        E 3839 94 59 69
        E 1 84 54 00
        E 3835 94 58 69
        E 4 84 59 00
        E 3836 84 58 00
        E 2 94 59 67
        E 3833 94 59 69
        E 7 84 59 00
        E 3833 84 59 00
        E 6 94 58 6f
        E 3840 84 58 00
        E 3 94 59 65
        E 3835 94 54 6f
        E 5 84 59 00
        E 3835 84 54 00
        E 4 94 59 67
        E 3840 84 59 00
        E 0 94 56 67
        E 3840 84 56 00
        E 2 94 56 67
        E 3840 84 56 00
        E 2 94 51 65
        E 3840 84 51 00
        E 7678 94 54 65
        E 3840 84 54 00
        E 3842 94 5d 69
        E 3840 84 5d 00
        E 0 b4 7b 00
        E 1 ff 2f 00
      >
    >
  >
  <TRACK
    NAME "Bass"
    PEAKCOL 4286528191
    VOLPAN 1.000000 0 1 -1
    MIDIOUT -1
    ISBUS 0 0
    <ITEM
      POSITION 0.000000
      LENGTH 75.025000
      NAME "Bass"
      VOLPAN 1 0 1 -1
      <SOURCE MIDI
        HASDATA 1 960 QN
        E 0 c5 2b 00
        E 0 95 24 7a
        E 864 85 24 00
        E 96 95 1f 71
        E 864 85 1f 00
        E 96 95 21 7a
        E 864 85 21 00
        E 96 95 1c 71
        E 864 85 1c 00
        E 96 95 1c 7a
        E 864 85 1c 00
        E 96 95 1d 71
        E 864 85 1d 00
        E 96 95 21 7a
        E 864 85 21 00
        E 96 95 21 71
        E 864 85 21 00
        E 96 95 26 7a
        E 864 85 26 00
        E 96 95 26 71
        E 864 85 26 00
        E 96 95 22 7a
        E 864 85 22 00
        E 96 95 21 71
        E 864 85 21 00
        E 96 95 24 7a
        E 864 85 24 00
        E 96 95 28 71
        E 864 85 28 00
        E 96 95 2d 7a
        E 864 85 2d 00
        E 96 95 30 71
        E 864 85 30 00
        E 96 95 30 7a
        E 864 85 30 00
        E 96 95 2d 71
        E 864 85 2d 00
        E 96 95 2d 7a
        E 864 85 2d 00
        E 96 95 2d 71
        E 864 85 2d 00
        E 96 95 32 7a
        E 864 85 32 00
        E 96 95 32 71
        E 864 85 32 00
        E 96 95 2d 7a
        E 864 85 2d 00
        E 96 95 2e 71
        E 864 85 2e 00
        E 96 95 32 7a
        E 864 85 32 00
        E 96 95 2d 71
        E 864 85 2d 00
        E 96 95 2e 7a
        E 864 85 2e 00
        E 96 95 2b 71
        E 864 85 2b 00
        E 96 95 30 7a
        E 864 85 30 00
        E 96 95 2b 71
        E 864 85 2b 00
        E 96 95 2d 7a
        E 864 85 2d 00
        E 96 95 30 71
        E 864 85 30 00
        E 96 95 30 7a
        E 864 85 30 00
        E 96 95 34 71
        E 864 85 34 00
        E 96 95 37 7a
        E 864 85 37 00
        E 96 95 34 71
        E 864 85 34 00
        E 96 95 32 7a
        E 864 85 32 00
        E 96 95 2e 71
        E 864 85 2e 00
        E 96 95 2e 7a
        E 864 85 2e 00
        E 96 95 2d 71
        E 864 85 2d 00
        E 96 95 30 7a
        E 864 85 30 00
        E 96 95 30 71
        E 864 85 30 00
        E 96 95 2b 7a
        E 864 85 2b 00
        E 96 95 2d 71
        E 864 85 2d 00
        E 96 95 30 7a
        E 864 85 30 00
        E 96 95 35 71
        E 864 85 35 00
        E 96 95 37 7a
        E 864 85 37 00
        E 96 95 37 71
        E 864 85 37 00
        E 96 95 37 7a
        E 864 85 37 00
        E 96 95 34 71
        E 864 85 34 00
        E 96 95 37 7a
        E 864 85 37 00
        E 96 95 32 71
        E 864 85 32 00
        E 96 95 32 7a
        E 864 85 32 00
        E 96 95 37 71
        E 864 85 37 00
        E 96 95 37 7a
        E 864 85 37 00
        E 96 95 32 71
        E 864 85 32 00
        E 96 95 32 7a
        E 864 85 32 00
        E 96 95 35 71
        E 864 85 35 00
        E 96 95 37 7a
        E 864 85 37 00
        E 96 95 35 71
        E 864 85 35 00
        E 96 95 30 7a
        E 864 85 30 00
        E 96 95 35 71
        E 864 85 35 00
        E 96 95 37 7a
        E 864 85 37 00
        E 96 95 37 71
        E 864 85 37 00
        E 96 95 37 7a
        E 864 85 37 00
        E 96 95 37 71
        E 864 85 37 00
        E 96 95 37 7a
        E 864 85 37 00
        E 96 95 34 71
        E 864 85 34 00
        E 96 95 32 7a
        E 864 85 32 00
        E 96 95 2e 71
        E 864 85 2e 00
        E 96 95 2d 7a
        E 864 85 2d 00
        E 96 95 32 71
        E 864 85 32 00
        E 96 95 32 7a
        E 864 85 32 00
        E 96 95 2e 71
        E 864 85 2e 00
        E 96 95 2e 7a
        E 864 85 2e 00
        E 96 95 29 71
        E 864 85 29 00
        E 96 95 24 7a
        E 864 85 24 00
        E 96 95 28 71
        E 864 85 28 00
        E 96 95 2d 7a
        E 864 85 2d 00
        E 96 95 32 71
        E 864 85 32 00
        E 96 95 30 7a
        E 864 85 30 00
        E 96 95 35 71
        E 864 85 35 00
        E 96 95 37 7a
        E 864 85 37 00
        E 96 95 37 71
        E 864 85 37 00
        E 96 95 32 7a
        E 864 85 32 00
        E 96 95 32 71
        E 864 85 32 00
        E 96 95 2e 7a
        E 864 85 2e 00
        E 96 95 2d 71
        E 864 85 2d 00
        E 96 95 30 7a
        E 864 85 30 00
        E 96 95 34 71
        E 864 85 34 00
        E 96 95 37 7a
        E 864 85 37 00
        E 96 95 32 71
        E 864 85 32 00
        E 96 95 30 7a
        E 864 85 30 00
        E 96 95 2d 71
        E 864 85 2d 00
        E 96 95 2d 7a
        E 864 85 2d 00
        E 96 95 28 71
        E 864 85 28 00
        E 96 95 24 7a
        E 864 85 24 00
        E 96 95 22 71
        E 864 85 22 00
        E 96 95 21 7a
        E 864 85 21 00
        E 96 95 1f 71
        E 864 85 1f 00
        E 0 b5 7b 00
        E 1 ff 2f 00
      >
    >
  >
>
