<REAPER_PROJECT 0.1 "7.0" 1700000000
  TEMPO 100.000000 4 4
  SAMPLERATE 48000 0 0
  RENDER_FILE ""
  RENDER_FMT 0 2 0
  RENDER_1X 0
  RENDER_RANGE 1 0 59.724933 0 0
  RENDER_RESAMPLE 3 0 1
  <MASTERTRACK
    VOLPAN 1 0 1 -1
    DEFCHAN 0
  >
  <TRACK
    NAME "Lead"
    PEAKCOL 4284506208
    VOLPAN 1.000000 0 1 -1
    MIDIOUT -1
    ISBUS 0 0
    <ITEM
      POSITION 0.003825
      LENGTH 57.821108
      NAME "Lead"
      VOLPAN 1 0 1 -1
      <SOURCE MIDI
        HASDATA 1 960 QN
        E 0 c0 00 00
        E 6 90 51 7d
        E 1002 90 4f 6d
        E 442 80 51 00
        E 191 90 51 53
        E 240 80 51 00
        E 90 80 4f 00
        E 302 90 56 6f
        E 786 90 55 54
        E 81 80 56 00
        E 138 80 55 00
        E 786 90 56 53
        E 867 80 56 00
        E 523 90 5a 58
        E 665 90 58 53
        E 202 80 5a 00
        E 665 80 58 00
        E 139 90 5a 53
        E 780 80 5a 00
        E 236 90 58 53
        E 954 80 58 00
        E 311 90 56 53
        E 481 80 56 00
        E 784 90 58 53
        E 867 80 58 00
        E 521 90 56 54
        E 657 90 58 53
        E 210 80 56 00
        E 657 80 58 00
        E 666 90 58 53
        E 780 80 58 00
        E 244 90 5a 53
        E 780 80 5a 00
        E 226 90 5a 5b
        E 954 80 5a 00
        E 80 90 5d 7a
        E 867 80 5d 00
        E 135 90 5a 6b
        E 867 80 5a 00
        E 159 90 5d 53
        E 656 80 5d 00
        E 348 90 5a 53
        E 219 80 5a 00
        E 799 90 5d 53
        E 438 80 5d 00
        E 69 90 5b 53
        E 240 80 5b 00
        E 268 90 58 53
        E 197 80 58 00
        E 819 90 5a 56
        E 954 80 5a 00
        E 85 90 69 53
        E 954 80 69 00
        E 63 90 66 61
        E 656 80 66 00
        E 714 90 5b 53
        E 656 80 5b 00
        E 11 90 5d 61
        E 219 80 5d 00
        E 1286 90 5b 53
        E 867 80 5b 00
        E 167 90 5a 53
        E 394 80 5a 00
        E 851 90 58 61
        E 788 90 56 53
        E 166 80 58 00
        E 315 80 56 00
        E 525 90 5a 53
        E 867 80 5a 00
        E 668 90 56 7c
        E 867 80 56 00
        E 138 90 58 6b
        E 264 90 5a 53
        E 240 80 5a 00
        E 23 90 5d 5b
        E 340 80 58 00
        E 98 80 5d 00
        E 580 90 5d 53
        E 394 80 5d 00
        E 620 90 5a 53
        E 780 80 5a 00
        E 232 90 5d 53
        E 954 80 5d 00
        E 70 90 5d 53
        E 438 80 5d 00
        E 689 90 5d 5f
        E 875 80 5d 00
        E 273 90 5d 53
        E 774 90 5f 62
        E 93 80 5d 00
        E 774 80 5f 00
        E 137 90 5d 6d
        E 438 80 5d 00
        E 74 90 5a 53
        E 780 80 5a 00
        E 236 90 5a 53
        E 394 80 5a 00
        E 1822 90 56 64
        E 799 90 58 53
        E 68 80 56 00
        E 799 80 58 00
        E 147 90 5a 53
        E 867 80 5a 00
        E 893 90 58 58
        E 770 90 5a 5b
        E 97 80 58 00
        E 683 80 5a 00
        E 238 90 58 53
        E 394 80 58 00
        E 624 90 56 53
        E 571 90 53 53
        E 240 80 53 00
        E 143 80 56 00
        E 188 90 51 53
        E 867 80 51 00
        E 28 90 53 53
        E 656 80 53 00
        E 365 90 51 53
        E 656 80 51 00
        E 376 90 53 71
        E 219 80 53 00
        E 777 90 53 7a
        E 867 80 53 00
        E 150 90 55 61
        E 788 80 55 00
        E 246 90 51 7b
        E 1371 90 53 53
        E 481 80 53 00
        E 73 80 51 00
        E 611 90 56 53
        E 219 80 56 00
        E 801 90 55 53
        E 867 80 55 00
        E 147 90 56 53
        E 867 80 56 00
        E 260 90 5a 75
        E 867 80 5a 00
        E 40 90 5a 56
        E 780 80 5a 00
        E 234 90 5d 7d
        E 304 90 5b 53
        E 240 80 5b 00
        E 64 90 58 53
        E 240 80 58 00
        E 64 90 56 53
        E 240 80 56 00
        E 64 90 53 53
        E 240 80 53 00
        E 64 90 51 56
        E 405 80 5d 00
        E 462 80 51 00
        E 395 90 53 5b
        E 283 90 51 53
        E 373 80 53 00
        E 65 80 51 00
        E 582 90 4e 53
        E 867 80 4e 00
        E 158 90 4f 53
        E 656 80 4f 00
        E 348 90 4e 53
        E 219 80 4e 00
        E 806 90 4c 53
        E 591 80 4c 00
        E 416 90 4e 53
        E 954 80 4e 00
        E 70 90 4c 53
        E 954 80 4c 00
        E 289 90 4e 53
        E 794 90 4f 53
        E 73 80 4e 00
        E 365 80 4f 00
        E 564 90 4f 56
        E 438 80 4f 00
        E 88 90 51 58
        E 867 80 51 00
        E 655 90 51 53
        E 780 80 51 00
        E 985 90 4f 53
        E 954 80 4f 00
        E 65 90 4f 53
        E 438 80 4f 00
        E 1081 90 4f 53
        E 438 80 4f 00
        E 574 90 4e 53
        E 867 80 4e 00
        E 168 90 4f 56
        E 867 80 4f 00
        E 141 90 4f 5d
        E 512 90 4c 53
        E 240 80 4c 00
        E 28 80 4f 00
        E 243 90 4a 53
        E 591 80 4a 00
        E 0 b0 7b 00
        E 1 ff 2f 00
      >
    >
  >
  <TRACK
    NAME "Piano"
    PEAKCOL 4290756410
    VOLPAN 1.000000 0 1 -1
    MIDIOUT -1
    ISBUS 0 0
    <ITEM
      POSITION 0.000000
      LENGTH 55.570000
      NAME "Piano"
      VOLPAN 1 0 1 -1
      <SOURCE MIDI
        HASDATA 1 960 QN
        E 0 c1 00 00
        E 0 91 3e 5f
        E 432 81 3e 00
        E 528 91 39 7b
        E 432 81 39 00
        E 1488 91 32 7b
        E 432 81 32 00
        E 528 91 2d 5f
        E 432 81 2d 00
        E 528 91 28 7b
        E 432 81 28 00
        E 528 91 28 5f
        E 0 91 2d 5f
        E 432 81 28 00
        E 0 81 2d 00
        E 1488 91 2a 5f
        E 432 81 2a 00
        E 1488 91 2a 5f
        E 432 81 2a 00
        E 1488 91 2b 5f
        E 432 81 2b 00
        E 528 91 2f 7b
        E 432 81 2f 00
        E 528 91 2b 5f
        E 432 81 2b 00
        E 5328 91 28 5f
        E 0 91 2d 5f
        E 432 81 28 00
        E 0 81 2d 00
        E 528 91 28 7b
        E 0 91 2d 7b
        E 432 81 28 00
        E 0 81 2d 00
        E 528 91 28 5f
        E 0 91 2d 5f
        E 432 81 28 00
        E 0 81 2d 00
        E 528 91 28 7b
        E 0 91 2d 7b
        E 432 81 28 00
        E 0 81 2d 00
        E 528 91 2a 5f
        E 432 81 2a 00
        E 528 91 2a 7b
        E 0 91 2f 7b
        E 432 81 2a 00
        E 0 81 2f 00
        E 528 91 2a 5f
        E 0 91 2f 5f
        E 432 81 2a 00
        E 0 81 2f 00
        E 528 91 2a 7b
        E 0 91 2f 7b
        E 432 81 2a 00
        E 0 81 2f 00
        E 528 91 2b 5f
        E 0 91 2f 5f
        E 432 81 2b 00
        E 0 81 2f 00
        E 528 91 2b 7b
        E 0 91 2f 7b
        E 432 81 2b 00
        E 0 81 2f 00
        E 528 91 2b 5f
        E 0 91 2f 5f
        E 432 81 2b 00
        E 0 81 2f 00
        E 528 91 2b 7b
        E 0 91 2f 7b
        E 432 81 2b 00
        E 0 81 2f 00
        E 528 91 2a 5f
        E 0 91 2d 5f
        E 432 81 2a 00
        E 0 81 2d 00
        E 528 91 2a 7b
        E 0 91 2d 7b
        E 432 81 2a 00
        E 0 81 2d 00
        E 528 91 2a 5f
        E 0 91 2d 5f
        E 432 81 2a 00
        E 0 81 2d 00
        E 528 91 2a 7b
        E 0 91 2d 7b
        E 432 81 2a 00
        E 0 81 2d 00
        E 528 91 2b 5f
        E 0 91 2f 5f
        E 432 81 2b 00
        E 0 81 2f 00
        E 528 91 2b 7b
        E 0 91 2f 7b
        E 432 81 2b 00
        E 0 81 2f 00
        E 528 91 2b 5f
        E 0 91 2f 5f
        E 432 81 2b 00
        E 0 81 2f 00
        E 528 91 2b 7b
        E 0 91 2f 7b
        E 432 81 2b 00
        E 0 81 2f 00
        E 528 91 28 5f
        E 0 91 2d 5f
        E 432 81 28 00
        E 0 81 2d 00
        E 528 91 28 7b
        E 0 91 2d 7b
        E 432 81 28 00
        E 0 81 2d 00
        E 528 91 28 5f
        E 0 91 2d 5f
        E 432 81 28 00
        E 0 81 2d 00
        E 528 91 28 7b
        E 0 91 2d 7b
        E 432 81 28 00
        E 0 81 2d 00
        E 528 91 2a 5f
        E 0 91 2d 5f
        E 432 81 2a 00
        E 0 81 2d 00
        E 528 91 2a 7b
        E 0 91 2d 7b
        E 432 81 2a 00
        E 0 81 2d 00
        E 528 91 2a 5f
        E 0 91 2d 5f
        E 432 81 2a 00
        E 0 81 2d 00
        E 528 91 2a 7b
        E 0 91 2d 7b
        E 432 81 2a 00
        E 0 81 2d 00
        E 528 91 2a 5f
        E 0 91 2d 5f
        E 432 81 2a 00
        E 0 81 2d 00
        E 528 91 2a 7b
        E 0 91 2d 7b
        E 432 81 2a 00
        E 0 81 2d 00
        E 528 91 2a 5f
        E 0 91 2d 5f
        E 432 81 2a 00
        E 0 81 2d 00
        E 528 91 2a 7b
        E 0 91 2d 7b
        E 432 81 2a 00
        E 0 81 2d 00
        E 528 91 28 5f
        E 0 91 2d 5f
        E 432 81 28 00
        E 0 81 2d 00
        E 528 91 28 7b
        E 0 91 2d 7b
        E 432 81 28 00
        E 0 81 2d 00
        E 528 91 28 5f
        E 0 91 2d 5f
        E 432 81 28 00
        E 0 81 2d 00
        E 528 91 28 7b
        E 0 91 2d 7b
        E 432 81 28 00
        E 0 81 2d 00
        E 528 91 2a 5f
        E 432 81 2a 00
        E 528 91 2a 7b
        E 0 91 2f 7b
        E 432 81 2a 00
        E 0 81 2f 00
        E 528 91 2a 5f
        E 0 91 2f 5f
        E 432 81 2a 00
        E 0 81 2f 00
        E 528 91 2a 7b
        E 0 91 2f 7b
        E 432 81 2a 00
        E 0 81 2f 00
        E 528 91 2b 5f
        E 0 91 2f 5f
        E 432 81 2b 00
        E 0 81 2f 00
        E 528 91 2b 7b
        E 0 91 2f 7b
        E 432 81 2b 00
        E 0 81 2f 00
        E 528 91 2b 5f
        E 0 91 2f 5f
        E 432 81 2b 00
        E 0 81 2f 00
        E 528 91 2b 7b
        E 0 91 2f 7b
        E 432 81 2b 00
        E 0 81 2f 00
        E 528 91 2a 5f
        E 0 91 2d 5f
        E 432 81 2a 00
        E 0 81 2d 00
        E 528 91 2a 7b
        E 0 91 2d 7b
        E 432 81 2a 00
        E 0 81 2d 00
        E 528 91 2a 5f
        E 0 91 2d 5f
        E 432 81 2a 00
        E 0 81 2d 00
        E 528 91 2a 7b
        E 0 91 2d 7b
        E 432 81 2a 00
        E 0 81 2d 00
        E 528 91 28 5f
        E 0 91 2d 5f
        E 432 81 28 00
        E 0 81 2d 00
        E 528 91 28 7b
        E 0 91 2d 7b
        E 432 81 28 00
        E 0 81 2d 00
        E 528 91 28 5f
        E 0 91 2d 5f
        E 432 81 28 00
        E 0 81 2d 00
        E 528 91 28 7b
        E 0 91 2d 7b
        E 432 81 28 00
        E 0 81 2d 00
        E 528 91 2a 5f
        E 432 81 2a 00
        E 528 91 2a 7b
        E 0 91 2f 7b
        E 432 81 2a 00
        E 0 81 2f 00
        E 528 91 2a 5f
        E 0 91 2f 5f
        E 432 81 2a 00
        E 0 81 2f 00
        E 528 91 2a 7b
        E 0 91 2f 7b
        E 432 81 2a 00
        E 0 81 2f 00
        E 528 91 2b 5f
        E 0 91 2f 5f
        E 432 81 2b 00
        E 0 81 2f 00
        E 1488 91 2b 5f
        E 0 91 2f 5f
        E 432 81 2b 00
        E 0 81 2f 00
        E 528 91 2f 7b
        E 432 81 2f 00
        E 528 91 2a 5f
        E 0 91 2d 5f
        E 432 81 2a 00
        E 0 81 2d 00
        E 2448 91 2a 7b
        E 432 81 2a 00
        E 1488 91 2f 7b
        E 432 81 2f 00
        E 528 91 2f 5f
        E 432 81 2f 00
        E 3408 91 2d 5f
        E 432 81 2d 00
        E 528 91 28 7b
        E 432 81 28 00
        E 528 91 2d 5f
        E 432 81 2d 00
        E 0 b1 7b 00
        E 1 ff 2f 00
      >
    >
  >
  <TRACK
    NAME "Violin1"
    PEAKCOL 4284186559
    VOLPAN 1.000000 0 1 -1
    MIDIOUT -1
    ISBUS 0 0
    <ITEM
      POSITION 2.406820
      LENGTH 52.895828
      NAME "Violin1"
      VOLPAN 1 0 1 -1
      <SOURCE MIDI
        HASDATA 1 960 QN
        E 0 c2 28 00
        E 3851 92 4c 68
        E 3840 82 4c 00
        E 3830 92 53 64
        E 3840 82 53 00
        E 3849 92 55 62
        E 3837 92 5a 68
        E 3 82 55 00
        E 3833 92 5f 62
        E 4 82 5a 00
        E 3836 82 5f 00
        E 3 92 5b 5f
        E 3840 82 5b 00
        E 4 92 5b 68
        E 3830 92 58 62
        E 10 82 5b 00
        E 3830 82 58 00
        E 11 92 56 62
        E 3840 82 56 00
        E 0 92 56 68
        E 3831 92 51 61
        E 9 82 56 00
        E 3831 82 51 00
        E 0 92 56 66
        E 3840 82 56 00
        E 8 92 56 64
        E 3832 92 5a 68
        E 8 82 56 00
        E 3832 82 5a 00
        E 12 92 5d 64
        E 3827 92 5a 61
        E 13 82 5d 00
        E 3827 82 5a 00
        E 13 92 56 61
        E 3840 82 56 00
        E 7670 92 51 62
        E 3840 82 51 00
        E 0 b2 7b 00
        E 1 ff 2f 00
      >
    >
  >
  <TRACK
    NAME "Strings"
    PEAKCOL 4284186559
    VOLPAN 1.000000 0 1 -1
    MIDIOUT -1
    ISBUS 0 0
    <ITEM
      POSITION 0.000000
      LENGTH 57.693648
      NAME "Strings"
      VOLPAN 1 0 1 -1
      <SOURCE MIDI
        HASDATA 1 960 QN
        E 0 c3 30 00
        E 0 93 4c 3c
        E 0 93 4c 3c
        E 14 93 45 3c
        E 1895 83 4c 00
        E 7 93 4a 3c
        E 6 93 4c 3c
        E 2 83 4c 00
        E 1 93 34 3c
        E 7 93 4c 3c
        E 3 83 45 00
        E 1889 83 4a 00
        E 3 83 4c 00
        E 1 83 34 00
        E 12 93 40 3c
        E 3 93 4c 3c
        E 2 83 4c 00
        E 9 93 4c 3c
        E 1892 83 4c 00
        E 10 93 4c 3c
        E 4 83 40 00
        E 7 93 34 3c
        E 15 83 4c 00
        E 1889 83 34 00
        E 8 83 4c 00
        E 1912 93 4c 3c
        E 9 93 42 3c
        E 1 93 4c 3c
        E 2 93 4c 3c
        E 9 93 4c 3c
        E 1901 83 4c 00
        E 8 83 42 00
        E 0 83 4c 00
        E 6 83 4c 00
        E 1 83 4c 00
        E 1 93 4c 3c
        E 1899 93 43 3c
        E 12 93 3e 3c
        E 4 83 4c 00
        E 1893 83 43 00
        E 11 93 4c 3c
        E 6 93 4c 3c
        E 6 83 3e 00
        E 7 93 34 3c
        E 1897 83 4c 00
        E 17 83 34 00
        E 10 83 4c 00
        E 3 93 4c 3c
        E 1892 93 45 3c
        E 2 93 4c 3c
        E 5 93 34 3c
        E 3 93 4c 3c
        E 4 93 3d 3c
        E 3 83 4c 00
        E 3 93 4c 3c
        E 4 93 4c 3c
        E 0 93 4c 3c
        E 1894 83 4c 00
        E 4 83 4c 00
        E 3 93 45 3c
        E 1 93 4c 3c
        E 2 83 45 00
        E 0 93 4c 3c
        E 2 93 4c 3c
        E 3 93 40 3c
        E 0 93 4c 3c
        E 1 83 3d 00
        E 0 93 3d 3c
        E 7 83 4c 00
        E 1 93 34 3c
        E 1 83 34 00
        E 2 83 4c 00
        E 5 83 4c 00
        E 1882 83 4c 00
        E 0 83 4c 00
        E 8 93 4c 3c
        E 4 93 4c 3c
        E 4 83 45 00
        E 0 83 40 00
        E 3 83 4c 00
        E 3 83 3d 00
        E 0 93 3e 3c
        E 0 93 47 3c
        E 5 93 4c 3c
        E 1 93 34 3c
        E 4 93 4c 3c
        E 1 93 47 3c
        E 6 83 4c 00
        E 1 83 34 00
        E 1889 83 4c 00
        E 2 93 34 3c
        E 0 93 4c 3c
        E 7 83 34 00
        E 4 83 4c 00
        E 0 83 4c 00
        E 0 83 3e 00
        E 0 93 3e 3c
        E 0 93 4a 3c
        E 1 93 4c 3c
        E 3 93 42 3c
        E 0 93 4c 3c
        E 7 83 47 00
        E 0 83 4c 00
        E 2 93 4c 3c
        E 1 83 47 00
        E 1892 83 4c 00
        E 3 93 43 3c
        E 2 83 34 00
        E 0 93 4c 3c
        E 3 93 4c 3c
        E 3 93 43 3c
        E 3 83 3e 00
        E 0 93 3e 3c
        E 2 83 4a 00
        E 3 93 4c 3c
        E 0 93 4c 3c
        E 1 83 4c 00
        E 2 93 34 3c
        E 8 83 42 00
        E 1 83 4c 00
        E 10 83 4c 00
        E 1873 83 4c 00
        E 2 83 4c 00
        E 5 93 4c 3c
        E 2 93 34 3c
        E 1 83 43 00
        E 3 83 4c 00
        E 0 93 34 3c
        E 1 83 43 00
        E 1 93 34 3c
        E 2 93 4c 3c
        E 3 83 3e 00
        E 0 93 3e 3c
        E 2 93 4c 3c
        E 9 93 4c 3c
        E 6 83 34 00
        E 3 83 4c 00
        E 1872 83 34 00
        E 4 83 34 00
        E 6 83 34 00
        E 4 93 4c 3c
        E 5 93 4a 3c
        E 1 93 4c 3c
        E 3 83 4c 00
        E 1 93 4c 3c
        E 4 83 4c 00
        E 0 83 3e 00
        E 0 93 3e 3c
        E 5 83 4c 00
        E 4 93 4c 3c
        E 3 93 42 3c
        E 2 93 4c 3c
        E 4 83 4c 00
        E 1883 83 4c 00
        E 8 93 4c 3c
        E 1 83 4c 00
        E 0 93 4c 3c
        E 3 83 4c 00
        E 3 93 4a 3c
        E 1 93 45 3c
        E 2 83 42 00
        E 0 93 4c 3c
        E 1 83 3e 00
        E 0 93 4c 3c
        E 0 93 3e 3c
        E 3 83 4c 00
        E 2 83 4a 00
        E 0 93 4c 3c
        E 12 83 4c 00
        E 1889 93 34 3c
        E 5 93 4c 3c
        E 1 83 4c 00
        E 0 83 4a 00
        E 1 83 4c 00
        E 3 83 4c 00
        E 1 93 34 3c
        E 1 93 4c 3c
        E 2 83 3e 00
        E 0 93 3e 3c
        E 0 93 34 3c
        E 1 93 4a 3c
        E 1 83 4c 00
        E 1 93 4c 3c
        E 12 83 45 00
        E 4 83 4c 00
        E 1879 83 34 00
        E 0 83 4c 00
        E 6 83 34 00
        E 4 93 34 3c
        E 0 93 4c 3c
        E 1 83 4c 00
        E 2 93 47 3c
        E 2 93 4c 3c
        E 3 93 4a 3c
        E 4 83 3e 00
        E 0 93 3e 3c
        E 2 83 4a 00
        E 2 93 43 3c
        E 8 93 4c 3c
        E 3 83 34 00
        E 3 83 4c 00
        E 1884 83 4a 00
        E 7 83 43 00
        E 3 93 4c 3c
        E 2 83 4c 00
        E 0 93 4c 3c
        E 6 83 34 00
        E 0 83 3e 00
        E 0 93 49 3c
        E 0 93 4c 3c
        E 0 93 3d 3c
        E 1 93 4c 3c
        E 1 83 4c 00
        E 3 93 4c 3c
        E 1 83 47 00
        E 3 93 4c 3c
        E 4 83 4c 00
        E 1891 83 4c 00
        E 2 93 4c 3c
        E 1 93 4c 3c
        E 1 93 45 3c
        E 3 93 4c 3c
        E 1 83 4c 00
        E 3 83 4c 00
        E 0 83 49 00
        E 5 83 3d 00
        E 0 93 3d 3c
        E 1 93 49 3c
        E 1 93 4c 3c
        E 2 83 4c 00
        E 1 93 4c 3c
        E 2 83 4c 00
        E 5 83 4c 00
        E 1886 83 4c 00
        E 3 83 45 00
        E 6 93 4c 3c
        E 1 83 4c 00
        E 1 93 4a 3c
        E 6 83 4c 00
        E 0 93 4c 3c
        E 4 83 4c 00
        E 1 83 3d 00
        E 0 93 3e 3c
        E 4 93 4c 3c
        E 1 93 45 3c
        E 1 93 4c 3c
        E 5 93 42 3c
        E 4 83 49 00
        E 0 83 4c 00
        E 1881 83 4a 00
        E 8 83 4c 00
        E 2 83 4c 00
        E 2 83 4c 00
        E 9 93 4c 3c
        E 2 93 4c 3c
        E 1 83 3e 00
        E 0 93 3e 3c
        E 4 93 4c 3c
        E 1 83 4c 00
        E 0 83 42 00
        E 0 93 42 3c
        E 5 93 4c 3c
        E 2 93 4c 3c
        E 2 93 4a 3c
        E 4 83 45 00
        E 1888 83 4c 00
        E 8 93 4c 3c
        E 2 83 4a 00
        E 0 93 4c 3c
        E 3 93 4c 3c
        E 0 93 34 3c
        E 0 93 4a 3c
        E 1 83 3e 00
        E 0 93 3e 3c
        E 3 93 34 3c
        E 3 83 4c 00
        E 6 83 4c 00
        E 1 93 4c 3c
        E 4 83 4c 00
        E 5 83 4c 00
        E 2 83 42 00
        E 1877 83 4c 00
        E 3 83 4c 00
        E 5 83 4c 00
        E 2 83 34 00
        E 1 93 4c 3c
        E 0 93 4c 3c
        E 5 93 45 3c
        E 1 93 34 3c
        E 1 83 4a 00
        E 1 83 3e 00
        E 0 93 3e 3c
        E 0 93 4c 3c
        E 1 83 34 00
        E 2 93 4c 3c
        E 5 93 4c 3c
        E 19 83 4c 00
        E 1880 93 34 3c
        E 3 83 4c 00
        E 0 93 4c 3c
        E 1 93 4c 3c
        E 1 93 34 3c
        E 1 93 4c 3c
        E 1 83 4c 00
        E 4 83 4c 00
        E 2 83 3e 00
        E 0 93 40 3e
        E 1 83 4c 00
        E 4 93 4c 3c
        E 1 83 34 00
        E 2 83 4c 00
        E 1 83 45 00
        E 3 93 45 3c
        E 1892 83 4c 00
        E 4 93 34 3c
        E 1 83 4c 00
        E 2 93 34 3c
        E 2 83 34 00
        E 1 93 34 3c
        E 2 93 4c 3c
        E 1 83 34 00
        E 1 83 45 00
        E 1 83 4c 00
        E 1 83 40 00
        E 0 93 40 3e
        E 2 83 4c 00
        E 4 93 4c 3c
        E 0 93 4c 3c
        E 6 93 49 3c
        E 1883 83 34 00
        E 3 83 34 00
        E 10 93 4c 3c
        E 1 93 4a 3c
        E 1 83 34 00
        E 1 93 34 3c
        E 9 83 40 00
        E 0 93 42 3e
        E 0 93 4c 3c
        E 5 93 4c 3c
        E 1 83 4c 00
        E 0 93 4c 3c
        E 4 83 4c 00
        E 0 93 4c 3c
        E 5 83 49 00
        E 6 83 4c 00
        E 1888 83 4a 00
        E 1 93 4c 3c
        E 1 93 4c 3c
        E 3 83 34 00
        E 0 83 4c 00
        E 0 83 4c 00
        E 5 93 47 3c
        E 1 83 42 00
        E 0 93 42 3e
        E 4 93 47 3c
        E 1 93 4c 3c
        E 2 83 4c 00
        E 1 83 4c 00
        E 3 93 34 3c
        E 1 93 34 3c
        E 10 83 4c 00
        E 1887 93 4c 3c
        E 2 93 4c 3c
        E 0 93 34 3c
        E 3 83 34 00
        E 0 93 4c 3c
        E 3 83 4c 00
        E 3 83 42 00
        E 0 93 43 3f
        E 2 83 4c 00
        E 1 93 4c 3c
        E 0 93 47 3c
        E 7 83 47 00
        E 0 83 4c 00
        E 4 93 4c 3c
        E 1 83 47 00
        E 12 83 34 00
        E 1866 83 4c 00
        E 6 83 4c 00
        E 15 83 34 00
        E 3 83 47 00
        E 1 93 4a 3c
        E 2 83 43 00
        E 0 93 43 3f
        E 1 93 34 3c
        E 1 83 4c 00
        E 2 83 4c 00
        E 1 83 4c 00
        E 1 93 47 3c
        E 1 93 4c 3c
        E 1 93 4c 3c
        E 2 93 4c 3c
        E 1 93 4c 3c
        E 1898 93 4c 3c
        E 7 93 4c 3c
        E 2 93 4c 3c
        E 1 83 47 00
        E 1 83 43 00
        E 0 93 42 3f
        E 1 83 4a 00
        E 1 93 4a 3c
        E 1 93 34 3c
        E 0 93 4c 3c
        E 6 93 4a 3c
        E 10 83 4c 00
        E 1 83 34 00
        E 1 83 4c 00
        E 0 83 4c 00
        E 5 83 4c 00
        E 1876 83 4c 00
        E 5 93 4c 3c
        E 1 93 4c 3c
        E 1 83 4c 00
        E 0 83 34 00
        E 0 93 4c 3c
        E 8 83 4c 00
        E 3 83 42 00
        E 0 93 42 41
        E 2 93 4c 3c
        E 0 93 4a 3c
        E 3 83 4a 00
        E 1 83 4a 00
        E 1 93 34 3c
        E 6 93 34 3c
        E 7 83 4c 00
        E 1869 83 4c 00
        E 12 83 4c 00
        E 8 83 4c 00
        E 1 83 34 00
        E 3 93 4c 3c
        E 1 83 4c 00
        E 4 83 4a 00
        E 2 83 42 00
        E 0 93 40 41
        E 1 93 4c 3c
        E 1 93 4c 3c
        E 0 93 4c 3c
        E 1 93 4c 3c
        E 5 93 4c 3c
        E 2 83 34 00
        E 0 93 4c 3c
        E 1901 93 45 3c
        E 0 93 34 3c
        E 1 83 4c 00
        E 0 83 4c 00
        E 1 93 4c 3c
        E 5 93 4c 3c
        E 2 83 40 00
        E 0 93 4c 3c
        E 0 93 40 43
        E 2 83 4c 00
        E 5 83 4c 00
        E 0 93 4c 3c
        E 0 93 45 3c
        E 3 83 4c 00
        E 7 83 4c 00
        E 5 83 4c 00
        E 1884 93 4c 3c
        E 2 83 45 00
        E 0 93 4a 3c
        E 1 93 4c 3c
        E 0 93 34 3c
        E 1 83 4c 00
        E 1 83 4c 00
        E 9 83 40 00
        E 0 93 42 43
        E 2 83 45 00
        E 4 93 47 3c
        E 1 83 34 00
        E 0 93 4c 3c
        E 4 83 4c 00
        E 2 93 34 3c
        E 11 83 4c 00
        E 1876 83 34 00
        E 14 83 4c 00
        E 0 93 4c 3c
        E 2 83 4c 00
        E 4 83 42 00
        E 0 93 42 45
        E 1 83 47 00
        E 3 93 34 3c
        E 0 93 36 3c
        E 1 83 4a 00
        E 1 93 4c 3c
        E 1 93 34 3c
        E 4 83 4c 00
        E 2 93 47 3c
        E 0 93 4c 3c
        E 5 83 34 00
        E 1889 83 36 00
        E 1 93 4c 3c
        E 2 93 4c 3c
        E 1 93 4c 3c
        E 1 83 34 00
        E 6 83 4c 00
        E 2 83 42 00
        E 0 93 43 45
        E 4 93 4c 3c
        E 2 83 4c 00
        E 0 93 4c 3c
        E 1 93 4c 3c
        E 1 93 37 3c
        E 4 83 34 00
        E 0 83 4c 00
        E 2 83 47 00
        E 1884 83 4c 00
        E 7 83 4c 00
        E 1 83 4c 00
        E 6 93 4c 3c
        E 8 83 43 00
        E 1 83 4c 00
        E 7 83 4c 00
        E 10 83 4c 00
        E 3 83 37 00
        E 1881 83 4c 00
        E 6 93 4c 3c
        E 12 93 42 45
        E 4 93 4a 3c
        E 9 93 34 3c
        E 1895 93 4c 3c
        E 12 83 42 00
        E 3 83 4c 00
        E 17 83 4a 00
        E 7 83 34 00
        E 1868 83 4c 00
        E 12 93 34 3c
        E 1927 83 34 00
        E 9 93 4c 3c
        E 8 93 37 3c
        E 1913 93 4c 3c
        E 0 93 4c 3c
        E 15 83 37 00
        E 2 83 4c 00
        E 1900 93 4c 3c
        E 2 83 4c 00
        E 1 83 4c 00
        E 8 93 4c 3c
        E 1904 83 4c 00
        E 4 93 45 4a
        E 4 93 4c 3c
        E 4 83 4c 00
        E 1898 93 39 3c
        E 1 93 4c 3c
        E 13 83 45 00
        E 21 83 4c 00
        E 1874 83 39 00
        E 15 83 4c 00
        E 0 b3 7b 00
        E 1 ff 2f 00
      >
    >
  >
  <TRACK
    NAME "Harp"
    PEAKCOL 4290756410
    VOLPAN 1.000000 0 1 -1
    MIDIOUT -1
    ISBUS 0 0
    <ITEM
      POSITION 0.074729
      LENGTH 57.596473
      NAME "Harp"
      VOLPAN 1 0 1 -1
      <SOURCE MIDI
        HASDATA 1 960 QN
        E 0 c4 2e 00
        E 120 94 36 5a
        E 240 94 3e 48
        E 479 94 4e 38
        E 240 94 4e 38
        E 120 94 4a 38
        E 239 94 42 38
        E 123 94 3e 38
        E 357 94 32 38
        E 1872 84 42 00
        E 0 84 32 00
        E 1 84 4e 00
        E 0 84 4e 00
        E 0 84 4a 00
        E 1 84 36 00
        E 0 84 3e 00
        E 1 84 3e 00
        E 289 94 3d 54
        E 477 94 4c 3e
        E 363 94 51 38
        E 119 94 4c 38
        E 2590 84 4c 00
        E 2 84 4c 00
        E 1 84 3d 00
        E 0 84 51 00
        E 883 94 4e 3a
        E 122 94 53 38
        E 241 94 4a 38
        E 123 94 47 38
        E 117 94 42 38
        E 2349 84 4e 00
        E 2 84 53 00
        E 1 84 4a 00
        E 0 84 42 00
        E 3 84 47 00
        E 42 94 32 5f
        E 604 94 47 45
        E 241 94 4f 38
        E 959 94 37 38
        E 121 94 32 38
        E 1867 84 32 00
        E 4 84 47 00
        E 0 84 37 00
        E 1 84 4f 00
        E 0 84 32 00
        E 283 94 39 54
        E 1084 94 45 38
        E 2468 84 39 00
        E 4 84 45 00
        E 45 94 34 62
        E 121 94 39 5b
        E 121 94 3d 54
        E 121 94 40 4a
        E 120 94 45 4a
        E 119 94 49 3c
        E 117 94 4c 3e
        E 125 94 51 38
        E 115 94 55 38
        E 124 94 51 38
        E 118 94 4c 38
        E 120 94 49 38
        E 119 94 45 38
        E 122 94 40 38
        E 118 94 3d 38
        E 121 94 39 38
        E 119 94 34 38
        E 1871 84 4c 00
        E 0 84 55 00
        E 1 84 34 00
        E 0 84 45 00
        E 0 84 3d 00
        E 0 84 34 00
        E 1 84 39 00
        E 0 84 4c 00
        E 0 84 49 00
        E 0 84 39 00
        E 1 84 3d 00
        E 0 84 49 00
        E 0 84 40 00
        E 1 84 40 00
        E 0 84 45 00
        E 0 84 51 00
        E 1 84 51 00
        E 47 94 32 66
        E 119 94 36 58
        E 120 94 3b 4d
        E 122 94 3e 51
        E 118 94 42 41
        E 122 94 47 3e
        E 119 94 4a 38
        E 117 94 4e 38
        E 121 94 53 38
        E 119 94 4e 38
        E 119 94 4a 38
        E 120 94 47 38
        E 124 94 42 38
        E 118 94 3e 38
        E 119 94 3b 38
        E 120 94 36 38
        E 124 94 32 38
        E 1867 84 4a 00
        E 0 84 47 00
        E 1 84 4e 00
        E 0 84 4e 00
        E 0 84 3b 00
        E 0 84 36 00
        E 1 84 53 00
        E 0 84 3e 00
        E 1 84 36 00
        E 0 84 3b 00
        E 0 84 42 00
        E 1 84 32 00
        E 0 84 4a 00
        E 0 84 42 00
        E 1 84 3e 00
        E 0 84 47 00
        E 0 84 32 00
        E 45 94 32 61
        E 118 94 37 5b
        E 123 94 3b 53
        E 120 94 3e 4a
        E 120 94 43 45
        E 117 94 47 41
        E 125 94 4a 38
        E 120 94 4f 38
        E 115 94 53 38
        E 120 94 4f 38
        E 125 94 4a 38
        E 119 94 47 38
        E 121 94 43 38
        E 118 94 3e 38
        E 121 94 3b 38
        E 116 94 37 38
        E 121 94 32 38
        E 1871 84 37 00
        E 0 84 47 00
        E 0 84 53 00
        E 0 84 4f 00
        E 0 84 37 00
        E 1 84 32 00
        E 1 84 32 00
        E 1 84 3b 00
        E 0 84 3e 00
        E 0 84 43 00
        E 0 84 3e 00
        E 1 84 47 00
        E 0 84 3b 00
        E 1 84 4a 00
        E 0 84 4f 00
        E 0 84 4a 00
        E 0 84 43 00
        E 47 94 32 66
        E 118 94 36 5a
        E 123 94 39 51
        E 119 94 3e 4a
        E 117 94 42 46
        E 121 94 45 3c
        E 122 94 4a 3e
        E 121 94 4e 3a
        E 117 94 51 38
        E 118 94 4e 38
        E 122 94 4a 38
        E 118 94 45 38
        E 121 94 42 38
        E 120 94 3e 38
        E 122 94 39 38
        E 119 94 36 38
        E 120 94 32 38
        E 1870 84 4e 00
        E 0 84 45 00
        E 1 84 42 00
        E 0 84 42 00
        E 0 84 3e 00
        E 1 84 36 00
        E 0 84 45 00
        E 0 84 51 00
        E 0 84 4a 00
        E 0 84 36 00
        E 0 84 32 00
        E 1 84 39 00
        E 1 84 32 00
        E 0 84 3e 00
        E 0 84 4a 00
        E 1 84 39 00
        E 0 84 4e 00
        E 49 94 32 62
        E 119 94 37 56
        E 118 94 3b 51
        E 121 94 3e 51
        E 117 94 43 48
        E 124 94 47 41
        E 119 94 4a 38
        E 118 94 4f 38
        E 122 94 53 38
        E 120 94 4f 38
        E 117 94 4a 38
        E 124 94 47 38
        E 116 94 43 38
        E 123 94 3e 38
        E 117 94 3b 38
        E 119 94 37 38
        E 120 94 32 38
        E 1872 84 37 00
        E 0 84 32 00
        E 1 84 43 00
        E 0 84 4a 00
        E 0 84 43 00
        E 0 84 3b 00
        E 1 84 4f 00
        E 1 84 3b 00
        E 1 84 3e 00
        E 0 84 4a 00
        E 0 84 53 00
        E 0 84 4f 00
        E 0 84 3e 00
        E 1 84 37 00
        E 0 84 47 00
        E 0 84 47 00
        E 1 84 32 00
        E 46 94 34 5f
        E 118 94 39 56
        E 121 94 3d 4f
        E 118 94 40 4a
        E 121 94 45 43
        E 118 94 49 3c
        E 124 94 4c 38
        E 121 94 51 38
        E 117 94 55 38
        E 119 94 51 38
        E 124 94 4c 38
        E 116 94 49 38
        E 123 94 45 38
        E 122 94 40 38
        E 116 94 3d 38
        E 121 94 39 38
        E 122 94 34 38
        E 1867 84 49 00
        E 1 84 40 00
        E 0 84 51 00
        E 0 84 49 00
        E 1 84 39 00
        E 0 84 45 00
        E 0 84 55 00
        E 0 84 3d 00
        E 1 84 3d 00
        E 0 84 39 00
        E 1 84 34 00
        E 0 84 4c 00
        E 0 84 45 00
        E 1 84 51 00
        E 0 84 4c 00
        E 0 84 34 00
        E 1 84 40 00
        E 48 94 32 5d
        E 115 94 36 5a
        E 124 94 39 54
        E 119 94 3e 51
        E 117 94 42 45
        E 120 94 45 3e
        E 119 94 4a 3e
        E 121 94 4e 38
        E 124 94 51 38
        E 118 94 4e 38
        E 120 94 4a 38
        E 122 94 45 38
        E 118 94 42 38
        E 119 94 3e 38
        E 121 94 39 38
        E 120 94 36 38
        E 122 94 32 38
        E 1867 84 4a 00
        E 1 84 36 00
        E 0 84 42 00
        E 0 84 45 00
        E 0 84 4e 00
        E 1 84 3e 00
        E 1 84 4e 00
        E 0 84 4a 00
        E 0 84 42 00
        E 0 84 39 00
        E 0 84 36 00
        E 1 84 3e 00
        E 1 84 39 00
        E 0 84 51 00
        E 0 84 45 00
        E 0 84 32 00
        E 1 84 32 00
        E 46 94 32 66
        E 119 94 36 5a
        E 119 94 39 51
        E 119 94 3e 51
        E 120 94 42 46
        E 120 94 45 45
        E 120 94 4a 3a
        E 125 94 4e 3a
        E 118 94 51 38
        E 118 94 4e 38
        E 124 94 4a 38
        E 117 94 45 38
        E 122 94 42 38
        E 119 94 3e 38
        E 116 94 39 38
        E 122 94 36 38
        E 122 94 32 38
        E 1868 84 39 00
        E 1 84 3e 00
        E 0 84 42 00
        E 0 84 45 00
        E 0 84 4a 00
        E 1 84 39 00
        E 0 84 4e 00
        E 0 84 36 00
        E 1 84 36 00
        E 0 84 45 00
        E 1 84 32 00
        E 0 84 51 00
        E 0 84 3e 00
        E 0 84 32 00
        E 1 84 42 00
        E 1 84 4e 00
        E 0 84 4a 00
        E 44 94 34 61
        E 122 94 39 5d
        E 121 94 3d 51
        E 120 94 40 4a
        E 120 94 45 43
        E 119 94 49 43
        E 117 94 4c 3c
        E 124 94 51 38
        E 119 94 55 38
        E 122 94 51 38
        E 115 94 4c 38
        E 124 94 49 38
        E 118 94 45 38
        E 120 94 40 38
        E 119 94 3d 38
        E 122 94 39 38
        E 119 94 34 38
        E 1870 84 4c 00
        E 0 84 4c 00
        E 1 84 34 00
        E 0 84 3d 00
        E 1 84 45 00
        E 0 84 40 00
        E 0 84 34 00
        E 1 84 39 00
        E 0 84 49 00
        E 0 84 55 00
        E 0 84 39 00
        E 1 84 3d 00
        E 0 84 40 00
        E 0 84 45 00
        E 0 84 51 00
        E 0 84 49 00
        E 1 84 51 00
        E 46 94 32 5f
        E 121 94 36 56
        E 118 94 3b 4d
        E 121 94 3e 48
        E 119 94 42 43
        E 121 94 47 45
        E 120 94 4a 38
        E 118 94 4e 38
        E 119 94 53 38
        E 124 94 4e 38
        E 116 94 4a 38
        E 123 94 47 38
        E 118 94 42 38
        E 122 94 3e 38
        E 119 94 3b 38
        E 120 94 36 38
        E 118 94 32 38
        E 1872 84 53 00
        E 0 84 4a 00
        E 0 84 32 00
        E 1 84 4e 00
        E 0 84 42 00
        E 1 84 3b 00
        E 0 84 42 00
        E 0 84 3b 00
        E 0 84 36 00
        E 1 84 32 00
        E 0 84 3e 00
        E 0 84 47 00
        E 0 84 4a 00
        E 0 84 47 00
        E 0 84 3e 00
        E 1 84 36 00
        E 0 84 4e 00
        E 48 94 32 66
        E 116 94 37 56
        E 123 94 3b 51
        E 120 94 3e 4a
        E 121 94 43 45
        E 121 94 47 3c
        E 116 94 4a 3c
        E 121 94 4f 38
        E 122 94 53 38
        E 116 94 4f 38
        E 125 94 4a 38
        E 117 94 47 38
        E 120 94 43 38
        E 118 94 3e 38
        E 121 94 3b 38
        E 121 94 37 38
        E 117 94 32 38
        E 1872 84 32 00
        E 1 84 37 00
        E 0 84 4f 00
        E 0 84 3e 00
        E 1 84 4a 00
        E 0 84 3b 00
        E 1 84 4f 00
        E 0 84 47 00
        E 0 84 43 00
        E 0 84 37 00
        E 1 84 3b 00
        E 0 84 3e 00
        E 1 84 32 00
        E 0 84 43 00
        E 0 84 53 00
        E 1 84 47 00
        E 0 84 4a 00
        E 43 94 32 64
        E 122 94 36 58
        E 121 94 39 4f
        E 122 94 3e 51
        E 120 94 42 45
        E 119 94 45 3e
        E 119 94 4a 38
        E 119 94 4e 38
        E 122 94 51 38
        E 118 94 4e 38
        E 121 94 4a 38
        E 118 94 45 38
        E 119 94 42 38
        E 124 94 3e 38
        E 118 94 39 38
        E 122 94 36 38
        E 116 94 32 38
        E 1872 84 32 00
        E 0 84 42 00
        E 0 84 32 00
        E 1 84 45 00
        E 1 84 36 00
        E 0 84 4e 00
        E 0 84 4e 00
        E 0 84 39 00
        E 1 84 39 00
        E 0 84 4a 00
        E 0 84 4a 00
        E 1 84 45 00
        E 0 84 51 00
        E 0 84 3e 00
        E 0 84 36 00
        E 1 84 3e 00
        E 0 84 42 00
        E 47 94 34 61
        E 119 94 39 5d
        E 120 94 3d 51
        E 121 94 40 4d
        E 117 94 45 43
        E 120 94 49 41
        E 123 94 4c 3a
        E 119 94 51 38
        E 121 94 55 38
        E 120 94 51 38
        E 120 94 4c 38
        E 117 94 49 38
        E 121 94 45 38
        E 118 94 40 38
        E 119 94 3d 38
        E 124 94 39 38
        E 116 94 34 38
        E 1872 84 3d 00
        E 0 84 34 00
        E 1 84 40 00
        E 1 84 45 00
        E 0 84 49 00
        E 0 84 49 00
        E 1 84 45 00
        E 1 84 39 00
        E 0 84 3d 00
        E 0 84 51 00
        E 0 84 39 00
        E 1 84 34 00
        E 0 84 40 00
        E 0 84 4c 00
        E 0 84 55 00
        E 0 84 51 00
        E 0 84 4c 00
        E 48 94 32 62
        E 120 94 36 56
        E 119 94 3b 4d
        E 120 94 3e 4a
        E 120 94 42 45
        E 120 94 47 3e
        E 120 94 4a 3e
        E 118 94 4e 38
        E 123 94 53 38
        E 117 94 4e 38
        E 124 94 4a 38
        E 118 94 47 38
        E 119 94 42 38
        E 120 94 3e 38
        E 123 94 3b 38
        E 118 94 36 38
        E 121 94 32 38
        E 1869 84 4e 00
        E 0 84 4e 00
        E 1 84 42 00
        E 0 84 3e 00
        E 1 84 3b 00
        E 0 84 3e 00
        E 0 84 42 00
        E 0 84 47 00
        E 0 84 4a 00
        E 0 84 47 00
        E 0 84 36 00
        E 1 84 32 00
        E 0 84 36 00
        E 0 84 53 00
        E 0 84 32 00
        E 1 84 4a 00
        E 0 84 3b 00
        E 46 94 32 61
        E 118 94 37 58
        E 121 94 3b 4f
        E 121 94 3e 51
        E 122 94 43 41
        E 115 94 47 3f
        E 122 94 4a 38
        E 118 94 4f 38
        E 362 94 4a 38
        E 119 94 47 38
        E 120 94 43 38
        E 481 94 32 38
        E 1870 84 47 00
        E 0 84 4f 00
        E 1 84 37 00
        E 0 84 47 00
        E 0 84 43 00
        E 1 84 3b 00
        E 0 84 4a 00
        E 0 84 4a 00
        E 0 84 32 00
        E 1 84 32 00
        E 0 84 3e 00
        E 2 84 43 00
        E 647 94 45 45
        E 718 94 45 38
        E 2472 84 45 00
        E 2 84 45 00
        E 167 94 37 5d
        E 718 94 4f 38
        E 602 94 43 38
        E 239 94 3b 38
        E 2111 84 4f 00
        E 1 84 3b 00
        E 1 84 37 00
        E 0 84 43 00
        E 289 94 3d 4f
        E 358 94 49 45
        E 237 94 51 3a
        E 366 94 4c 38
        E 718 94 34 38
        E 1868 84 51 00
        E 3 84 49 00
        E 1 84 34 00
        E 1 84 3d 00
        E 1 84 4c 00
        E 285 94 39 4f
        E 719 94 51 38
        E 122 94 4e 38
        E 361 94 42 38
        E 117 94 3e 38
        E 120 94 39 38
        E 242 94 32 38
        E 1870 84 51 00
        E 0 84 3e 00
        E 0 84 39 00
        E 1 84 39 00
        E 1 84 4e 00
        E 0 84 32 00
        E 1 84 42 00
        E 0 b4 7b 00
        E 1 ff 2f 00
      >
    >
  >
  <TRACK
    NAME "Arp"
    PEAKCOL 4284506208
    VOLPAN 1.000000 0 1 -1
    MIDIOUT -1
    ISBUS 0 0
    <ITEM
      POSITION 4.950000
      LENGTH 52.592500
      NAME "Arp"
      VOLPAN 1 0 1 -1
      <SOURCE MIDI
        HASDATA 1 960 QN
        E 0 c5 00 00
        E 7920 95 42 64
        E 228 85 42 00
        E 252 95 3e 64
        E 228 85 3e 00
        E 732 95 42 64
        E 228 85 42 00
        E 252 95 3e 64
        E 228 85 3e 00
        E 12 95 42 64
        E 228 85 42 00
        E 252 95 3e 64
        E 228 85 3e 00
        E 12 95 42 64
        E 228 85 42 00
        E 492 95 3d 64
        E 228 85 3d 00
        E 492 95 3d 64
        E 228 85 3d 00
        E 732 95 40 64
        E 228 85 40 00
        E 492 95 40 64
        E 228 85 40 00
        E 12 95 45 64
        E 228 85 45 00
        E 3132 95 3e 64
        E 228 85 3e 00
        E 12 95 42 64
        E 228 85 42 00
        E 252 95 3e 64
        E 228 85 3e 00
        E 12 95 42 64
        E 228 85 42 00
        E 12 95 47 64
        E 228 85 47 00
        E 12 95 3e 64
        E 228 85 3e 00
        E 12 95 3e 64
        E 228 85 3e 00
        E 12 95 43 64
        E 228 85 43 00
        E 12 95 47 64
        E 228 85 47 00
        E 12 95 3e 64
        E 228 85 3e 00
        E 12 95 43 64
        E 228 85 43 00
        E 12 95 47 64
        E 228 85 47 00
        E 12 95 3e 64
        E 228 85 3e 00
        E 12 95 43 64
        E 228 85 43 00
        E 12 95 47 64
        E 228 85 47 00
        E 12 95 3e 64
        E 228 85 3e 00
        E 12 95 43 64
        E 228 85 43 00
        E 12 95 47 64
        E 228 85 47 00
        E 12 95 3e 64
        E 228 85 3e 00
        E 12 95 43 64
        E 228 85 43 00
        E 12 95 47 64
        E 228 85 47 00
        E 12 95 3e 64
        E 228 85 3e 00
        E 12 95 3e 64
        E 228 85 3e 00
        E 12 95 42 64
        E 228 85 42 00
        E 12 95 45 64
        E 228 85 45 00
        E 12 95 3e 64
        E 228 85 3e 00
        E 12 95 42 64
        E 228 85 42 00
        E 12 95 45 64
        E 228 85 45 00
        E 12 95 3e 64
        E 228 85 3e 00
        E 12 95 42 64
        E 228 85 42 00
        E 12 95 45 64
        E 228 85 45 00
        E 12 95 3e 64
        E 228 85 3e 00
        E 12 95 42 64
        E 228 85 42 00
        E 12 95 45 64
        E 228 85 45 00
        E 12 95 3e 64
        E 228 85 3e 00
        E 12 95 42 64
        E 228 85 42 00
        E 12 95 45 64
        E 228 85 45 00
        E 12 95 3e 64
        E 228 85 3e 00
        E 12 95 3d 64
        E 228 85 3d 00
        E 12 95 40 64
        E 228 85 40 00
        E 12 95 45 64
        E 228 85 45 00
        E 12 95 3d 64
        E 228 85 3d 00
        E 12 95 40 64
        E 228 85 40 00
        E 12 95 45 64
        E 228 85 45 00
        E 12 95 3d 64
        E 228 85 3d 00
        E 12 95 40 64
        E 228 85 40 00
        E 12 95 45 64
        E 228 85 45 00
        E 12 95 3d 64
        E 228 85 3d 00
        E 12 95 40 64
        E 228 85 40 00
        E 12 95 45 64
        E 228 85 45 00
        E 12 95 3d 64
        E 228 85 3d 00
        E 12 95 40 64
        E 228 85 40 00
        E 12 95 45 64
        E 228 85 45 00
        E 12 95 3d 64
        E 228 85 3d 00
        E 12 95 3e 64
        E 228 85 3e 00
        E 12 95 42 64
        E 228 85 42 00
        E 12 95 47 64
        E 228 85 47 00
        E 12 95 3e 64
        E 228 85 3e 00
        E 12 95 42 64
        E 228 85 42 00
        E 12 95 47 64
        E 228 85 47 00
        E 12 95 3e 64
        E 228 85 3e 00
        E 12 95 42 64
        E 228 85 42 00
        E 12 95 47 64
        E 228 85 47 00
        E 12 95 3e 64
        E 228 85 3e 00
        E 12 95 42 64
        E 228 85 42 00
        E 12 95 47 64
        E 228 85 47 00
        E 12 95 3e 64
        E 228 85 3e 00
        E 12 95 42 64
        E 228 85 42 00
        E 12 95 47 64
        E 228 85 47 00
        E 12 95 3e 64
        E 228 85 3e 00
        E 12 95 3e 64
        E 228 85 3e 00
        E 12 95 43 64
        E 228 85 43 00
        E 12 95 47 64
        E 228 85 47 00
        E 12 95 3e 64
        E 228 85 3e 00
        E 12 95 43 64
        E 228 85 43 00
        E 12 95 47 64
        E 228 85 47 00
        E 12 95 3e 64
        E 228 85 3e 00
        E 12 95 43 64
        E 228 85 43 00
        E 12 95 47 64
        E 228 85 47 00
        E 12 95 3e 64
        E 228 85 3e 00
        E 12 95 43 64
        E 228 85 43 00
        E 12 95 47 64
        E 228 85 47 00
        E 12 95 3e 64
        E 228 85 3e 00
        E 12 95 43 64
        E 228 85 43 00
        E 12 95 47 64
        E 228 85 47 00
        E 12 95 3e 64
        E 228 85 3e 00
        E 12 95 3e 64
        E 228 85 3e 00
        E 12 95 42 64
        E 228 85 42 00
        E 12 95 45 64
        E 228 85 45 00
        E 12 95 3e 64
        E 228 85 3e 00
        E 12 95 42 64
        E 228 85 42 00
        E 12 95 45 64
        E 228 85 45 00
        E 12 95 3e 64
        E 228 85 3e 00
        E 12 95 42 64
        E 228 85 42 00
        E 12 95 45 64
        E 228 85 45 00
        E 12 95 3e 64
        E 228 85 3e 00
        E 12 95 42 64
        E 228 85 42 00
        E 12 95 45 64
        E 228 85 45 00
        E 12 95 3e 64
        E 228 85 3e 00
        E 12 95 42 64
        E 228 85 42 00
        E 12 95 45 64
        E 228 85 45 00
        E 12 95 3e 64
        E 228 85 3e 00
        E 12 95 3e 64
        E 228 85 3e 00
        E 12 95 43 64
        E 228 85 43 00
        E 12 95 47 64
        E 228 85 47 00
        E 12 95 3e 64
        E 228 85 3e 00
        E 12 95 43 64
        E 228 85 43 00
        E 12 95 47 64
        E 228 85 47 00
        E 12 95 3e 64
        E 228 85 3e 00
        E 12 95 43 64
        E 228 85 43 00
        E 12 95 47 64
        E 228 85 47 00
        E 12 95 3e 64
        E 228 85 3e 00
        E 12 95 43 64
        E 228 85 43 00
        E 12 95 47 64
        E 228 85 47 00
        E 12 95 3e 64
        E 228 85 3e 00
        E 12 95 43 64
        E 228 85 43 00
        E 12 95 47 64
        E 228 85 47 00
        E 12 95 3e 64
        E 228 85 3e 00
        E 12 95 3d 64
        E 228 85 3d 00
        E 12 95 40 64
        E 228 85 40 00
        E 12 95 45 64
        E 228 85 45 00
        E 12 95 3d 64
        E 228 85 3d 00
        E 12 95 40 64
        E 228 85 40 00
        E 12 95 45 64
        E 228 85 45 00
        E 12 95 3d 64
        E 228 85 3d 00
        E 12 95 40 64
        E 228 85 40 00
        E 12 95 45 64
        E 228 85 45 00
        E 12 95 3d 64
        E 228 85 3d 00
        E 12 95 40 64
        E 228 85 40 00
        E 12 95 45 64
        E 228 85 45 00
        E 12 95 3d 64
        E 228 85 3d 00
        E 12 95 40 64
        E 228 85 40 00
        E 12 95 45 64
        E 228 85 45 00
        E 12 95 3d 64
        E 228 85 3d 00
        E 12 95 3e 64
        E 228 85 3e 00
        E 12 95 42 64
        E 228 85 42 00
        E 12 95 45 64
        E 228 85 45 00
        E 12 95 3e 64
        E 228 85 3e 00
        E 12 95 42 64
        E 228 85 42 00
        E 12 95 45 64
        E 228 85 45 00
        E 12 95 3e 64
        E 228 85 3e 00
        E 12 95 42 64
        E 228 85 42 00
        E 12 95 45 64
        E 228 85 45 00
        E 12 95 3e 64
        E 228 85 3e 00
        E 12 95 42 64
        E 228 85 42 00
        E 12 95 45 64
        E 228 85 45 00
        E 12 95 3e 64
        E 228 85 3e 00
        E 12 95 42 64
        E 228 85 42 00
        E 12 95 45 64
        E 228 85 45 00
        E 12 95 3e 64
        E 228 85 3e 00
        E 12 95 3e 64
        E 228 85 3e 00
        E 12 95 42 64
        E 228 85 42 00
        E 12 95 45 64
        E 228 85 45 00
        E 12 95 3e 64
        E 228 85 3e 00
        E 12 95 42 64
        E 228 85 42 00
        E 12 95 45 64
        E 228 85 45 00
        E 12 95 3e 64
        E 228 85 3e 00
        E 12 95 42 64
        E 228 85 42 00
        E 12 95 45 64
        E 228 85 45 00
        E 12 95 3e 64
        E 228 85 3e 00
        E 12 95 42 64
        E 228 85 42 00
        E 12 95 45 64
        E 228 85 45 00
        E 12 95 3e 64
        E 228 85 3e 00
        E 12 95 42 64
        E 228 85 42 00
        E 12 95 45 64
        E 228 85 45 00
        E 12 95 3e 64
        E 228 85 3e 00
        E 12 95 3d 64
        E 228 85 3d 00
        E 12 95 40 64
        E 228 85 40 00
        E 12 95 45 64
        E 228 85 45 00
        E 12 95 3d 64
        E 228 85 3d 00
        E 12 95 40 64
        E 228 85 40 00
        E 12 95 45 64
        E 228 85 45 00
        E 12 95 3d 64
        E 228 85 3d 00
        E 12 95 40 64
        E 228 85 40 00
        E 12 95 45 64
        E 228 85 45 00
        E 12 95 3d 64
        E 228 85 3d 00
        E 12 95 40 64
        E 228 85 40 00
        E 12 95 45 64
        E 228 85 45 00
        E 12 95 3d 64
        E 228 85 3d 00
        E 12 95 40 64
        E 228 85 40 00
        E 12 95 45 64
        E 228 85 45 00
        E 12 95 3d 64
        E 228 85 3d 00
        E 12 95 3e 64
        E 228 85 3e 00
        E 12 95 42 64
        E 228 85 42 00
        E 12 95 47 64
        E 228 85 47 00
        E 12 95 3e 64
        E 228 85 3e 00
        E 12 95 42 64
        E 228 85 42 00
        E 12 95 47 64
        E 228 85 47 00
        E 12 95 3e 64
        E 228 85 3e 00
        E 12 95 42 64
        E 228 85 42 00
        E 12 95 47 64
        E 228 85 47 00
        E 12 95 3e 64
        E 228 85 3e 00
        E 12 95 42 64
        E 228 85 42 00
        E 12 95 47 64
        E 228 85 47 00
        E 12 95 3e 64
        E 228 85 3e 00
        E 12 95 42 64
        E 228 85 42 00
        E 12 95 47 64
        E 228 85 47 00
        E 12 95 3e 64
        E 228 85 3e 00
        E 12 95 3e 64
        E 228 85 3e 00
        E 12 95 43 64
        E 228 85 43 00
        E 12 95 47 64
        E 228 85 47 00
        E 12 95 3e 64
        E 228 85 3e 00
        E 12 95 43 64
        E 228 85 43 00
        E 12 95 47 64
        E 228 85 47 00
        E 12 95 3e 64
        E 228 85 3e 00
        E 12 95 43 64
        E 228 85 43 00
        E 12 95 47 64
        E 228 85 47 00
        E 12 95 3e 64
        E 228 85 3e 00
        E 12 95 43 64
        E 228 85 43 00
        E 12 95 47 64
        E 228 85 47 00
        E 12 95 3e 64
        E 228 85 3e 00
        E 12 95 43 64
        E 228 85 43 00
        E 12 95 47 64
        E 228 85 47 00
        E 12 95 3e 64
        E 228 85 3e 00
        E 12 95 3e 64
        E 228 85 3e 00
        E 12 95 42 64
        E 228 85 42 00
        E 12 95 45 64
        E 228 85 45 00
        E 12 95 3e 64
        E 228 85 3e 00
        E 12 95 42 64
        E 228 85 42 00
        E 12 95 45 64
        E 228 85 45 00
        E 12 95 3e 64
        E 228 85 3e 00
        E 12 95 42 64
        E 228 85 42 00
        E 12 95 45 64
        E 228 85 45 00
        E 12 95 3e 64
        E 228 85 3e 00
        E 12 95 42 64
        E 228 85 42 00
        E 12 95 45 64
        E 228 85 45 00
        E 12 95 3e 64
        E 228 85 3e 00
        E 12 95 42 64
        E 228 85 42 00
        E 12 95 45 64
        E 228 85 45 00
        E 12 95 3e 64
        E 228 85 3e 00
        E 12 95 3d 64
        E 228 85 3d 00
        E 12 95 40 64
        E 228 85 40 00
        E 12 95 45 64
        E 228 85 45 00
        E 12 95 3d 64
        E 228 85 3d 00
        E 12 95 40 64
        E 228 85 40 00
        E 12 95 45 64
        E 228 85 45 00
        E 972 95 40 64
        E 228 85 40 00
        E 972 95 3d 64
        E 228 85 3d 00
        E 252 95 42 64
        E 228 85 42 00
        E 1692 95 3e 64
        E 228 85 3e 00
        E 12 95 42 64
        E 228 85 42 00
        E 492 95 42 64
        E 228 85 42 00
        E 1932 95 3e 64
        E 228 85 3e 00
        E 1212 95 3e 64
        E 228 85 3e 00
        E 492 95 3e 64
        E 228 85 3e 00
        E 12 95 3e 64
        E 228 85 3e 00
        E 12 95 42 64
        E 228 85 42 00
        E 732 95 45 64
        E 228 85 45 00
        E 1212 95 45 64
        E 228 85 45 00
        E 1212 95 43 64
        E 228 85 43 00
        E 1452 95 47 64
        E 228 85 47 00
        E 1212 95 47 64
        E 228 85 47 00
        E 0 b5 7b 00
        E 1 ff 2f 00
      >
    >
  >
  <TRACK
    NAME "Bass"
    PEAKCOL 4286528191
    VOLPAN 1.000000 0 1 -1
    MIDIOUT -1
    ISBUS 0 0
    <ITEM
      POSITION 0.000000
      LENGTH 57.640000
      NAME "Bass"
      VOLPAN 1 0 1 -1
      <SOURCE MIDI
        HASDATA 1 960 QN
        E 0 c6 2b 00
        E 0 96 26 72
        E 864 86 26 00
        E 96 96 23 66
        E 864 86 23 00
        E 96 96 21 72
        E 864 86 21 00
        E 96 96 25 66
        E 864 86 25 00
        E 96 96 25 72
        E 864 86 25 00
        E 96 96 2a 66
        E 864 86 2a 00
        E 96 96 2d 72
        E 864 86 2d 00
        E 96 96 32 66
        E 864 86 32 00
        E 96 96 32 72
        E 864 86 32 00
        E 96 96 31 66
        E 864 86 31 00
        E 96 96 2f 72
        E 864 86 2f 00
        E 96 96 34 66
        E 864 86 34 00
        E 96 96 32 72
        E 864 86 32 00
        E 96 96 2f 66
        E 864 86 2f 00
        E 96 96 2f 72
        E 864 86 2f 00
        E 96 96 32 66
        E 864 86 32 00
        E 96 96 32 72
        E 864 86 32 00
        E 96 96 2d 66
        E 864 86 2d 00
        E 96 96 2d 72
        E 864 86 2d 00
        E 96 96 28 66
        E 864 86 28 00
        E 96 96 25 72
        E 864 86 25 00
        E 96 96 21 66
        E 864 86 21 00
        E 96 96 21 72
        E 864 86 21 00
        E 96 96 1c 66
        E 864 86 1c 00
        E 96 96 1c 72
        E 864 86 1c 00
        E 96 96 1c 66
        E 864 86 1c 00
        E 96 96 1c 72
        E 864 86 1c 00
        E 96 96 1c 66
        E 864 86 1c 00
        E 96 96 1c 72
        E 864 86 1c 00
        E 96 96 1c 66
        E 864 86 1c 00
        E 96 96 1c 72
        E 864 86 1c 00
        E 96 96 1c 66
        E 864 86 1c 00
        E 96 96 1c 72
        E 864 86 1c 00
        E 96 96 1e 66
        E 864 86 1e 00
        E 96 96 21 72
        E 864 86 21 00
        E 96 96 25 66
        E 864 86 25 00
        E 96 96 26 72
        E 864 86 26 00
        E 96 96 26 66
        E 864 86 26 00
        E 96 96 23 72
        E 864 86 23 00
        E 96 96 21 66
        E 864 86 21 00
        E 96 96 25 72
        E 864 86 25 00
        E 96 96 2b 66
        E 864 86 2b 00
        E 96 96 2d 72
        E 864 86 2d 00
        E 96 96 2b 66
        E 864 86 2b 00
        E 96 96 26 72
        E 864 86 26 00
        E 96 96 2b 66
        E 864 86 2b 00
        E 96 96 2d 72
        E 864 86 2d 00
        E 96 96 32 66
        E 864 86 32 00
        E 96 96 32 72
        E 864 86 32 00
        E 96 96 36 66
        E 864 86 36 00
        E 96 96 37 72
        E 864 86 37 00
        E 96 96 36 66
        E 864 86 36 00
        E 96 96 31 72
        E 864 86 31 00
        E 96 96 2f 66
        E 864 86 2f 00
        E 96 96 2d 72
        E 864 86 2d 00
        E 96 96 2f 66
        E 864 86 2f 00
        E 96 96 32 72
        E 864 86 32 00
        E 96 96 34 66
        E 864 86 34 00
        E 96 96 2f 72
        E 864 86 2f 00
        E 96 96 32 66
        E 864 86 32 00
        E 96 96 32 72
        E 864 86 32 00
        E 96 96 31 66
        E 864 86 31 00
        E 96 96 2f 72
        E 864 86 2f 00
        E 96 96 2b 66
        E 864 86 2b 00
        E 96 96 26 72
        E 864 86 26 00
        E 96 96 28 66
        E 864 86 28 00
        E 96 96 2d 72
        E 864 86 2d 00
        E 96 96 2b 66
        E 864 86 2b 00
        E 96 96 31 72
        E 864 86 31 00
        E 96 96 2f 66
        E 864 86 2f 00
        E 96 96 2d 72
        E 864 86 2d 00
        E 96 96 2b 66
        E 864 86 2b 00
        E 96 96 26 72
        E 864 86 26 00
        E 96 96 2a 66
        E 864 86 2a 00
        E 96 96 2f 72
        E 864 86 2f 00
        E 96 96 2d 66
        E 864 86 2d 00
        E 96 96 32 72
        E 864 86 32 00
        E 96 96 37 66
        E 864 86 37 00
        E 96 96 37 72
        E 864 86 37 00
        E 96 96 37 66
        E 864 86 37 00
        E 96 96 32 72
        E 864 86 32 00
        E 96 96 32 66
        E 864 86 32 00
        E 96 96 2d 72
        E 864 86 2d 00
        E 96 96 2f 66
        E 864 86 2f 00
        E 96 96 32 72
        E 864 86 32 00
        E 96 96 37 66
        E 864 86 37 00
        E 96 96 37 72
        E 864 86 37 00
        E 96 96 32 66
        E 864 86 32 00
        E 96 96 31 72
        E 864 86 31 00
        E 96 96 34 66
        E 864 86 34 00
        E 96 96 37 72
        E 864 86 37 00
        E 96 96 37 66
        E 864 86 37 00
        E 96 96 32 72
        E 864 86 32 00
        E 96 96 32 66
        E 864 86 32 00
        E 96 96 2d 72
        E 864 86 2d 00
        E 96 96 32 66
        E 864 86 32 00
        E 0 b6 7b 00
        E 1 ff 2f 00
      >
    >
  >
>
