<REAPER_PROJECT 0.1 "7.0" 1700000000
  TEMPO 88.000000 4 4
  SAMPLERATE 48000 0 0
  RENDER_FILE ""
  RENDER_FMT 0 2 0
  RENDER_1X 0
  RENDER_RANGE 1 0 70.231692 0 0
  RENDER_RESAMPLE 3 0 1
  <MASTERTRACK
    VOLPAN 1 0 1 -1
    DEFCHAN 0
  >
  <TRACK
    NAME "Lead"
    PEAKCOL 4284506208
    VOLPAN 1.000000 0 1 -1
    MIDIOUT -1
    ISBUS 0 0
    <ITEM
      POSITION 0.000000
      LENGTH 68.331692
      NAME "Lead"
      VOLPAN 1 0 1 -1
      <SOURCE MIDI
        HASDATA 1 960 QN
        E 0 c0 00 00
        E 0 90 4c 7d
        E 579 90 4d 5a
        E 240 80 4d 00
        E 339 90 51 5a
        E 491 80 4c 00
        E 599 80 51 00
        E 70 90 4f 5a
        E 991 80 4f 00
        E 170 90 4f 76
        E 991 80 4f 00
        E 289 90 51 6f
        E 250 80 51 00
        E 395 90 4f 5a
        E 240 80 4f 00
        E 405 90 4c 5a
        E 467 90 4d 5a
        E 240 80 4d 00
        E 227 90 51 5a
        E 57 80 4c 00
        E 835 80 51 00
        E 249 90 4f 67
        E 1090 80 4f 00
        E 68 90 51 5a
        E 991 80 51 00
        E 769 90 52 76
        E 991 80 52 00
        E 738 90 52 5a
        E 991 80 52 00
        E 187 90 55 5a
        E 892 80 55 00
        E 263 90 52 5a
        E 450 80 52 00
        E 944 90 52 5a
        E 938 90 52 67
        E 161 80 52 00
        E 89 80 52 00
        E 918 90 52 76
        E 991 80 52 00
        E 148 90 56 6f
        E 991 80 56 00
        E 549 90 55 5a
        E 500 80 55 00
        E 520 90 56 5a
        E 892 80 56 00
        E 294 90 56 5a
        E 338 90 55 5a
        E 486 80 56 00
        E 86 90 52 73
        E 275 80 52 00
        E 243 80 55 00
        E 878 90 52 5a
        E 936 90 52 5a
        E 55 80 52 00
        E 936 80 52 00
        E 300 90 51 6f
        E 991 80 51 00
        E 616 90 52 5a
        E 892 80 52 00
        E 1361 90 52 5a
        E 1021 90 51 67
        E 78 80 52 00
        E 671 80 51 00
        E 657 90 52 5e
        E 500 80 52 00
        E 538 90 51 67
        E 749 80 51 00
        E 651 90 4f 5c
        E 825 90 4c 5a
        E 166 80 4f 00
        E 284 80 4c 00
        E 127 90 4d 5a
        E 240 80 4d 00
        E 337 90 51 5a
        E 1090 80 51 00
        E 307 90 4f 5a
        E 550 80 4f 00
        E 607 90 4f 71
        E 991 80 4f 00
        E 167 90 51 5a
        E 991 80 51 00
        E 309 90 51 5a
        E 205 90 4f 5a
        E 250 80 4f 00
        E 536 80 51 00
        E 979 90 4c 5a
        E 755 90 4d 5a
        E 137 80 4c 00
        E 103 80 4d 00
        E 516 90 51 5a
        E 396 90 4f 6b
        E 240 80 4f 00
        E 156 90 4c 7d
        E 32 80 51 00
        E 552 90 4d 5a
        E 240 80 4d 00
        E 167 80 4c 00
        E 176 90 51 5a
        E 749 80 51 00
        E 1011 90 4f 77
        E 991 80 4f 00
        E 155 90 51 5a
        E 577 90 4f 5a
        E 414 80 51 00
        E 478 80 4f 00
        E 277 90 51 7b
        E 586 90 4f 5a
        E 240 80 4f 00
        E 273 80 51 00
        E 74 90 4c 5a
        E 697 90 4d 5a
        E 240 80 4d 00
        E 153 80 4c 00
        E 304 90 51 5a
        E 932 90 4f 5a
        E 59 80 51 00
        E 191 80 4f 00
        E 1130 90 4f 6f
        E 935 90 4f 5a
        E 56 80 4f 00
        E 935 80 4f 00
        E 179 90 4c 5a
        E 892 80 4c 00
        E 838 90 4c 5a
        E 1090 80 4c 00
        E 63 90 4d 6d
        E 991 80 4d 00
        E 179 90 4c 62
        E 991 80 4c 00
        E 170 90 4a 76
        E 749 80 4a 00
        E 426 90 49 7d
        E 991 80 49 00
        E 154 90 49 5a
        E 892 80 49 00
        E 1223 90 49 6b
        E 797 90 46 67
        E 27 80 49 00
        E 964 80 46 00
        E 171 90 46 71
        E 590 90 45 7d
        E 159 80 46 00
        E 832 80 45 00
        E 399 90 46 69
        E 229 90 49 5a
        E 230 90 4a 5a
        E 10 80 49 00
        E 219 90 4d 5a
        E 11 80 4a 00
        E 218 90 4f 7c
        E 11 80 4d 00
        E 63 80 46 00
        E 376 80 4f 00
        E 146 90 4d 69
        E 1153 90 4c 5a
        E 196 80 4d 00
        E 894 80 4c 00
        E 180 90 4c 5a
        E 1043 90 4f 5a
        E 47 80 4c 00
        E 944 80 4f 00
        E 187 90 4d 5a
        E 500 80 4d 00
        E 669 90 4c 67
        E 991 80 4c 00
        E 737 90 4a 5e
        E 892 80 4a 00
        E 274 90 4a 5a
        E 824 80 4a 00
        E 333 90 4a 5c
        E 1090 80 4a 00
        E 81 90 4c 6d
        E 749 80 4c 00
        E 404 90 4d 5c
        E 749 80 4d 00
        E 432 90 4c 7d
        E 749 80 4c 00
        E 746 90 49 5a
        E 500 80 49 00
        E 317 90 4c 5e
        E 892 80 4c 00
        E 281 90 49 60
        E 1090 80 49 00
        E 64 90 46 5a
        E 749 80 46 00
        E 407 90 45 73
        E 991 80 45 00
        E 0 b0 7b 00
        E 1 ff 2f 00
      >
    >
  >
  <TRACK
    NAME "Piano"
    PEAKCOL 4290756410
    VOLPAN 1.000000 0 1 -1
    MIDIOUT -1
    ISBUS 0 0
    <ITEM
      POSITION 0.000000
      LENGTH 67.225000
      NAME "Piano"
      VOLPAN 1 0 1 -1
      <SOURCE MIDI
        HASDATA 1 960 QN
        E 0 c1 00 00
        E 0 91 39 6b
        E 432 81 39 00
        E 528 91 31 7d
        E 432 81 31 00
        E 1488 91 31 7d
        E 432 81 31 00
        E 528 91 32 6b
        E 432 81 32 00
        E 528 91 2e 7d
        E 432 81 2e 00
        E 528 91 2e 6b
        E 0 91 32 6b
        E 432 81 2e 00
        E 0 81 32 00
        E 1488 91 2d 6b
        E 432 81 2d 00
        E 528 91 31 7d
        E 432 81 31 00
        E 1488 91 31 7d
        E 432 81 31 00
        E 1488 91 26 7d
        E 0 91 29 7d
        E 432 81 26 00
        E 0 81 29 00
        E 6288 91 26 6b
        E 432 81 26 00
        E 528 91 26 7d
        E 432 81 26 00
        E 528 91 26 6b
        E 432 81 26 00
        E 528 91 26 7d
        E 432 81 26 00
        E 528 91 25 6b
        E 432 81 25 00
        E 528 91 25 7d
        E 432 81 25 00
        E 528 91 25 6b
        E 432 81 25 00
        E 528 91 25 7d
        E 432 81 25 00
        E 528 91 26 6b
        E 0 91 29 6b
        E 432 81 26 00
        E 0 81 29 00
        E 528 91 26 7d
        E 0 91 29 7d
        E 432 81 26 00
        E 0 81 29 00
        E 528 91 26 6b
        E 0 91 29 6b
        E 432 81 26 00
        E 0 81 29 00
        E 528 91 26 7d
        E 0 91 29 7d
        E 432 81 26 00
        E 0 81 29 00
        E 528 91 25 6b
        E 432 81 25 00
        E 528 91 25 7d
        E 432 81 25 00
        E 528 91 25 6b
        E 432 81 25 00
        E 528 91 25 7d
        E 432 81 25 00
        E 528 91 29 6b
        E 432 81 29 00
        E 528 91 29 7d
        E 0 91 2d 7d
        E 432 81 29 00
        E 0 81 2d 00
        E 528 91 29 6b
        E 0 91 2d 6b
        E 432 81 29 00
        E 0 81 2d 00
        E 528 91 29 7d
        E 0 91 2d 7d
        E 432 81 29 00
        E 0 81 2d 00
        E 528 91 26 6b
        E 0 91 2e 6b
        E 432 81 26 00
        E 0 81 2e 00
        E 528 91 26 7d
        E 432 81 26 00
        E 528 91 26 6b
        E 432 81 26 00
        E 528 91 26 7d
        E 432 81 26 00
        E 528 91 25 6b
        E 432 81 25 00
        E 528 91 25 7d
        E 432 81 25 00
        E 528 91 25 6b
        E 432 81 25 00
        E 528 91 25 7d
        E 432 81 25 00
        E 528 91 25 6b
        E 432 81 25 00
        E 528 91 25 7d
        E 432 81 25 00
        E 528 91 25 6b
        E 432 81 25 00
        E 528 91 25 7d
        E 432 81 25 00
        E 528 91 26 6b
        E 432 81 26 00
        E 528 91 26 7d
        E 432 81 26 00
        E 528 91 26 6b
        E 432 81 26 00
        E 528 91 26 7d
        E 432 81 26 00
        E 528 91 25 6b
        E 432 81 25 00
        E 528 91 25 7d
        E 432 81 25 00
        E 528 91 25 6b
        E 432 81 25 00
        E 528 91 25 7d
        E 432 81 25 00
        E 528 91 26 6b
        E 0 91 29 6b
        E 432 81 26 00
        E 0 81 29 00
        E 528 91 26 7d
        E 0 91 29 7d
        E 432 81 26 00
        E 0 81 29 00
        E 528 91 26 6b
        E 0 91 29 6b
        E 432 81 26 00
        E 0 81 29 00
        E 528 91 26 7d
        E 0 91 29 7d
        E 432 81 26 00
        E 0 81 29 00
        E 528 91 25 6b
        E 432 81 25 00
        E 528 91 25 7d
        E 432 81 25 00
        E 528 91 25 6b
        E 432 81 25 00
        E 528 91 25 7d
        E 432 81 25 00
        E 528 91 26 6b
        E 432 81 26 00
        E 528 91 26 7d
        E 432 81 26 00
        E 528 91 26 6b
        E 432 81 26 00
        E 528 91 26 7d
        E 432 81 26 00
        E 528 91 25 6b
        E 432 81 25 00
        E 528 91 25 7d
        E 432 81 25 00
        E 528 91 25 6b
        E 432 81 25 00
        E 528 91 25 7d
        E 432 81 25 00
        E 528 91 26 6b
        E 0 91 29 6b
        E 432 81 26 00
        E 0 81 29 00
        E 528 91 26 7d
        E 0 91 29 7d
        E 432 81 26 00
        E 0 81 29 00
        E 528 91 26 6b
        E 0 91 29 6b
        E 432 81 26 00
        E 0 81 29 00
        E 528 91 26 7d
        E 0 91 29 7d
        E 432 81 26 00
        E 0 81 29 00
        E 5328 91 29 7d
        E 0 91 2d 7d
        E 432 81 29 00
        E 0 81 2d 00
        E 528 91 2d 6b
        E 432 81 2d 00
        E 528 91 29 7d
        E 0 91 2d 7d
        E 432 81 29 00
        E 0 81 2d 00
        E 3408 91 26 7d
        E 432 81 26 00
        E 4368 91 25 6b
        E 432 81 25 00
        E 1488 91 25 6b
        E 432 81 25 00
        E 0 b1 7b 00
        E 1 ff 2f 00
      >
    >
  >
  <TRACK
    NAME "Cello"
    PEAKCOL 4284186559
    VOLPAN 1.000000 0 1 -1
    MIDIOUT -1
    ISBUS 0 0
    <ITEM
      POSITION 2.736666
      LENGTH 65.553966
      NAME "Cello"
      VOLPAN 1 0 1 -1
      <SOURCE MIDI
        HASDATA 1 960 QN
        E 0 c2 2a 00
        E 3853 92 35 73
        E 3840 82 35 00
        E 3839 92 32 73
        E 3840 82 32 00
        E 3833 92 2e 73
        E 3840 82 2e 00
        E 7 92 2d 6f
        E 3839 92 29 73
        E 1 82 2d 00
        E 3831 92 29 71
        E 8 82 29 00
        E 3832 82 29 00
        E 5 92 29 6d
        E 3835 92 2e 71
        E 5 82 29 00
        E 3835 82 2e 00
        E 7 92 34 71
        E 3840 82 34 00
        E 2 92 39 71
        E 3835 92 3e 71
        E 5 82 39 00
        E 3829 92 3a 71
        E 6 82 3e 00
        E 3834 82 3a 00
        E 10 92 35 6d
        E 3834 92 32 71
        E 6 82 35 00
        E 3834 82 32 00
        E 0 92 31 6d
        E 3840 82 31 00
        E 8 92 34 71
        E 3829 92 35 71
        E 11 82 34 00
        E 3829 82 35 00
        E 7690 92 2e 6f
        E 3840 82 2e 00
        E 3840 92 31 6f
        E 3840 82 31 00
        E 0 b2 7b 00
        E 1 ff 2f 00
      >
    >
  >
  <TRACK
    NAME "Strings"
    PEAKCOL 4284186559
    VOLPAN 1.000000 0 1 -1
    MIDIOUT -1
    ISBUS 0 0
    <ITEM
      POSITION 0.000000
      LENGTH 68.286422
      NAME "Strings"
      VOLPAN 1 0 1 -1
      <SOURCE MIDI
        HASDATA 1 960 QN
        E 0 c3 30 00
        E 0 93 30 3d
        E 6 93 30 3d
        E 3 93 40 3d
        E 1897 93 45 3d
        E 11 93 46 3d
        E 2 83 30 00
        E 8 93 46 3d
        E 1 93 45 3d
        E 3 83 30 00
        E 1 83 40 00
        E 1895 83 45 00
        E 9 83 45 00
        E 4 93 3a 3d
        E 1 83 46 00
        E 6 93 46 3d
        E 2 83 46 00
        E 2 93 30 3d
        E 1902 93 46 3d
        E 7 83 3a 00
        E 2 83 30 00
        E 12 93 46 3d
        E 5 83 46 00
        E 1908 83 46 00
        E 2 83 46 00
        E 1897 93 46 3d
        E 2 93 46 3d
        E 12 93 45 3d
        E 8 93 46 3d
        E 3 93 46 3d
        E 1892 83 46 00
        E 16 83 46 00
        E 2 93 45 3d
        E 2 83 45 00
        E 1 83 46 00
        E 9 83 46 00
        E 1902 93 41 3d
        E 5 93 39 3d
        E 17 83 45 00
        E 1881 83 41 00
        E 15 93 46 3d
        E 4 93 46 3d
        E 3 83 39 00
        E 8 93 30 3d
        E 1890 83 46 00
        E 12 93 46 3d
        E 4 83 30 00
        E 21 83 46 00
        E 1899 83 46 00
        E 6 93 3a 41
        E 3 93 30 3d
        E 3 93 30 3d
        E 1 93 46 3d
        E 1 93 46 3d
        E 3 93 46 3d
        E 0 93 46 3d
        E 2 93 3e 3d
        E 1900 93 30 3d
        E 1 83 46 00
        E 4 83 30 00
        E 2 83 3a 00
        E 0 93 3a 41
        E 1 83 46 00
        E 2 93 3e 3d
        E 3 83 46 00
        E 0 93 46 3d
        E 1 83 30 00
        E 0 93 46 3d
        E 5 93 41 3d
        E 2 93 46 3d
        E 0 93 46 3d
        E 15 83 46 00
        E 2 83 3e 00
        E 1872 83 30 00
        E 6 83 46 00
        E 4 93 40 3d
        E 1 83 3e 00
        E 5 93 46 3d
        E 1 83 3a 00
        E 0 93 39 43
        E 1 93 46 3d
        E 2 93 30 3d
        E 1 83 46 00
        E 1 93 46 3d
        E 0 93 40 3d
        E 3 83 46 00
        E 1 83 46 00
        E 0 93 46 3d
        E 17 83 41 00
        E 1883 83 30 00
        E 1 83 46 00
        E 2 83 46 00
        E 1 93 30 3d
        E 5 93 40 3d
        E 1 93 45 3d
        E 1 83 39 00
        E 0 93 30 3d
        E 0 93 39 45
        E 1 93 3d 3d
        E 3 83 40 00
        E 0 83 40 00
        E 0 83 46 00
        E 2 93 46 3d
        E 1 93 46 3d
        E 1 83 46 00
        E 1896 83 40 00
        E 0 83 3d 00
        E 7 83 45 00
        E 1 93 46 3d
        E 1 93 46 3d
        E 0 93 3e 3d
        E 2 83 30 00
        E 1 93 45 3d
        E 4 83 39 00
        E 0 93 39 45
        E 1 83 46 00
        E 1 93 46 3d
        E 5 93 46 3d
        E 1 93 45 3d
        E 7 83 30 00
        E 0 83 46 00
        E 1879 83 3e 00
        E 6 83 46 00
        E 8 93 46 3d
        E 1 83 46 00
        E 7 83 46 00
        E 0 93 30 3d
        E 3 93 46 3d
        E 1 83 39 00
        E 0 93 39 47
        E 2 93 3e 3d
        E 1 93 45 3d
        E 3 83 45 00
        E 1 93 46 3d
        E 1 83 45 00
        E 5 93 45 3d
        E 8 83 46 00
        E 1872 83 46 00
        E 13 83 46 00
        E 2 93 46 3d
        E 4 83 45 00
        E 1 83 30 00
        E 0 93 46 3d
        E 2 93 30 3d
        E 4 93 46 3d
        E 1 83 39 00
        E 0 93 39 49
        E 2 83 45 00
        E 5 83 46 00
        E 0 93 46 3d
        E 2 83 3e 00
        E 0 93 30 3d
        E 4 93 46 3d
        E 1887 83 46 00
        E 11 93 30 3d
        E 1 83 30 00
        E 2 83 46 00
        E 1 83 46 00
        E 0 93 46 3d
        E 1 93 46 3d
        E 0 93 45 3d
        E 4 83 39 00
        E 0 93 39 49
        E 1 93 30 3d
        E 3 83 46 00
        E 2 93 46 3d
        E 2 83 30 00
        E 2 93 46 3d
        E 1 83 46 00
        E 1887 83 46 00
        E 7 83 46 00
        E 3 93 46 3d
        E 1 93 46 3d
        E 2 83 45 00
        E 0 93 46 3d
        E 2 83 30 00
        E 5 93 30 3d
        E 2 83 39 00
        E 0 93 39 4b
        E 6 93 30 3d
        E 2 93 41 3d
        E 2 93 46 3d
        E 4 83 30 00
        E 0 83 46 00
        E 5 83 46 00
        E 1876 83 46 00
        E 11 93 30 3d
        E 4 83 46 00
        E 3 83 30 00
        E 0 93 46 3d
        E 2 93 45 3d
        E 1 93 46 3d
        E 1 83 46 00
        E 3 83 39 00
        E 0 93 39 4d
        E 4 93 46 3d
        E 2 93 41 3d
        E 1 93 46 3d
        E 4 83 46 00
        E 9 83 41 00
        E 3 83 30 00
        E 1883 83 30 00
        E 0 83 45 00
        E 4 93 46 3d
        E 1 83 41 00
        E 5 93 46 3d
        E 4 83 39 00
        E 0 93 3a 50
        E 0 93 30 3d
        E 0 93 46 3d
        E 3 83 46 00
        E 2 83 46 00
        E 1 83 46 00
        E 2 93 46 3d
        E 3 93 30 3d
        E 1 93 46 3d
        E 9 83 46 00
        E 1889 83 30 00
        E 2 83 46 00
        E 0 83 30 00
        E 2 93 46 3d
        E 2 83 46 00
        E 0 93 46 3d
        E 4 83 3a 00
        E 0 93 3a 50
        E 2 93 46 3d
        E 1 93 46 3d
        E 1 83 46 00
        E 2 83 46 00
        E 5 93 46 3d
        E 1 93 41 3d
        E 0 93 3e 3d
        E 2 83 46 00
        E 1896 93 40 3d
        E 3 83 3e 00
        E 2 83 41 00
        E 1 93 45 3d
        E 2 83 46 00
        E 0 93 3d 3d
        E 1 83 46 00
        E 1 83 3a 00
        E 0 93 39 52
        E 1 93 46 3d
        E 2 83 46 00
        E 1 93 46 3d
        E 1 93 46 3d
        E 2 83 46 00
        E 7 93 46 3d
        E 5 83 46 00
        E 1886 83 45 00
        E 1 93 46 3d
        E 3 83 46 00
        E 1 83 46 00
        E 0 93 46 3d
        E 2 83 3d 00
        E 1 93 40 3d
        E 1 93 3d 3d
        E 2 83 40 00
        E 4 83 39 00
        E 0 93 39 52
        E 4 83 46 00
        E 0 93 45 3d
        E 7 93 46 3d
        E 3 93 46 3d
        E 17 83 46 00
        E 1871 83 46 00
        E 1 83 3d 00
        E 5 83 46 00
        E 4 93 46 3d
        E 1 83 45 00
        E 0 93 46 3d
        E 3 93 40 3d
        E 4 83 40 00
        E 0 83 39 00
        E 0 93 39 54
        E 3 93 46 3d
        E 3 93 30 3d
        E 2 83 46 00
        E 4 93 30 3d
        E 1 93 45 3d
        E 7 83 46 00
        E 1875 83 46 00
        E 9 83 46 00
        E 3 93 46 3d
        E 2 93 30 3d
        E 2 83 46 00
        E 0 93 46 3d
        E 3 83 45 00
        E 2 83 30 00
        E 4 83 39 00
        E 0 93 39 54
        E 2 93 46 3d
        E 2 83 40 00
        E 2 93 46 3d
        E 0 93 3d 3d
        E 2 93 46 3d
        E 4 83 30 00
        E 1894 93 46 3d
        E 3 93 30 3d
        E 1 83 46 00
        E 5 83 46 00
        E 0 83 46 00
        E 5 83 39 00
        E 0 93 3a 52
        E 3 83 30 00
        E 2 93 3e 3d
        E 3 83 3d 00
        E 0 93 46 3d
        E 3 93 46 3d
        E 0 93 30 3d
        E 2 83 46 00
        E 0 93 46 3d
        E 6 83 46 00
        E 1882 83 30 00
        E 5 83 46 00
        E 2 93 41 3d
        E 7 93 46 3d
        E 2 93 46 3d
        E 3 83 3a 00
        E 0 93 3a 52
        E 2 93 46 3d
        E 9 93 46 3d
        E 2 93 41 3d
        E 1 93 46 3d
        E 2 83 3e 00
        E 0 83 46 00
        E 1 83 46 00
        E 1 83 46 00
        E 3 83 30 00
        E 1891 93 46 3d
        E 3 83 46 00
        E 1 83 46 00
        E 2 93 45 3d
        E 2 83 3a 00
        E 0 93 30 3d
        E 0 93 39 50
        E 1 93 46 3d
        E 2 83 41 00
        E 1 83 41 00
        E 1 93 46 3d
        E 1 83 46 00
        E 5 83 46 00
        E 0 93 45 3d
        E 2 93 30 3d
        E 11 83 46 00
        E 1881 83 45 00
        E 2 83 46 00
        E 4 93 40 3d
        E 2 93 46 3d
        E 2 83 45 00
        E 4 93 46 3d
        E 1 83 39 00
        E 0 93 39 50
        E 3 93 46 3d
        E 4 83 30 00
        E 1 83 30 00
        E 0 93 3d 3d
        E 2 83 46 00
        E 1 93 46 3d
        E 1 93 46 3d
        E 5 83 46 00
        E 1882 83 46 00
        E 8 93 3e 3d
        E 5 93 46 3d
        E 4 83 40 00
        E 1 83 3d 00
        E 2 83 46 00
        E 1 83 39 00
        E 0 93 46 3d
        E 0 93 39 4d
        E 1 93 46 3d
        E 4 83 46 00
        E 0 93 46 3d
        E 4 93 41 3d
        E 1 93 45 3d
        E 1 83 46 00
        E 1 83 46 00
        E 1880 83 3e 00
        E 10 83 46 00
        E 7 93 30 3d
        E 3 93 46 3d
        E 3 93 30 3d
        E 3 93 46 3d
        E 1 83 46 00
        E 0 83 46 00
        E 1 83 39 00
        E 0 93 39 4b
        E 9 83 41 00
        E 0 93 46 3d
        E 0 93 46 3d
        E 3 83 46 00
        E 0 93 30 3d
        E 6 83 45 00
        E 1878 83 30 00
        E 15 83 46 00
        E 2 83 46 00
        E 1 83 46 00
        E 5 93 46 3d
        E 0 93 40 3d
        E 1 83 39 00
        E 0 93 39 49
        E 3 93 46 3d
        E 2 83 30 00
        E 1 83 46 00
        E 0 93 46 3d
        E 1 93 46 3d
        E 0 93 46 3d
        E 6 93 46 3d
        E 7 83 30 00
        E 1886 83 46 00
        E 4 93 46 3d
        E 1 83 46 00
        E 0 93 40 3d
        E 3 83 46 00
        E 4 83 40 00
        E 2 83 39 00
        E 0 93 39 49
        E 6 93 46 3d
        E 2 93 46 3d
        E 2 93 46 3d
        E 1 93 46 3d
        E 2 93 46 3d
        E 3 83 46 00
        E 3 83 46 00
        E 0 83 46 00
        E 1880 83 46 00
        E 8 83 40 00
        E 2 93 46 3d
        E 3 93 46 3d
        E 2 93 3e 3d
        E 1 83 46 00
        E 1 83 46 00
        E 0 93 30 3d
        E 2 93 46 3d
        E 2 83 39 00
        E 0 93 3a 47
        E 3 83 46 00
        E 2 93 30 3d
        E 3 83 46 00
        E 2 93 46 3d
        E 5 83 46 00
        E 1885 83 30 00
        E 5 83 3e 00
        E 4 83 46 00
        E 2 93 46 3d
        E 1 93 46 3d
        E 7 93 46 3d
        E 1 83 3a 00
        E 0 93 3a 45
        E 2 93 46 3d
        E 4 83 46 00
        E 1 83 46 00
        E 0 93 46 3d
        E 1 93 46 3d
        E 1 83 46 00
        E 3 93 46 3d
        E 1 83 30 00
        E 1895 83 46 00
        E 1 83 46 00
        E 0 93 40 3d
        E 4 93 3d 3d
        E 3 83 46 00
        E 1 93 46 3d
        E 1 83 46 00
        E 2 83 3a 00
        E 0 93 39 45
        E 8 93 46 3d
        E 0 93 30 3d
        E 3 93 46 3d
        E 1 83 46 00
        E 2 83 46 00
        E 0 93 46 3d
        E 8 83 46 00
        E 1874 83 40 00
        E 14 83 46 00
        E 2 83 3d 00
        E 1 93 46 3d
        E 2 83 46 00
        E 2 93 46 3d
        E 1 93 40 3d
        E 1 93 46 3d
        E 1 83 39 00
        E 0 93 39 43
        E 1 93 40 3d
        E 6 83 30 00
        E 1 93 3d 3d
        E 2 93 45 3d
        E 1 83 46 00
        E 8 83 46 00
        E 1887 83 46 00
        E 3 93 3e 3d
        E 3 83 3d 00
        E 2 83 46 00
        E 1 93 46 3d
        E 2 83 45 00
        E 0 93 30 3d
        E 1 93 30 3d
        E 0 93 46 3d
        E 1 83 40 00
        E 1 83 39 00
        E 0 93 39 41
        E 6 83 40 00
        E 4 93 41 3d
        E 1 83 46 00
        E 2 93 3e 3d
        E 1889 83 30 00
        E 7 83 46 00
        E 2 93 45 3d
        E 2 83 3e 00
        E 1 83 46 00
        E 2 83 30 00
        E 0 93 46 3d
        E 3 93 30 3d
        E 1 83 39 00
        E 0 93 39 41
        E 4 93 46 3d
        E 3 93 30 3d
        E 3 93 45 3d
        E 1 93 46 3d
        E 5 83 3e 00
        E 2 83 41 00
        E 1885 83 30 00
        E 2 83 46 00
        E 2 83 46 00
        E 2 93 40 3d
        E 1 93 46 3d
        E 1 83 45 00
        E 1 93 46 3d
        E 8 83 39 00
        E 18 83 45 00
        E 4 83 30 00
        E 7 83 46 00
        E 1871 83 46 00
        E 12 83 40 00
        E 0 93 46 3d
        E 4 83 46 00
        E 3 93 40 3d
        E 1 93 39 3d
        E 12 93 45 3d
        E 1899 93 30 3d
        E 6 83 40 00
        E 2 93 46 3d
        E 1 83 39 00
        E 1 83 46 00
        E 15 83 45 00
        E 1897 83 30 00
        E 2 83 46 00
        E 0 93 30 3d
        E 1902 83 30 00
        E 27 93 30 3d
        E 1906 93 46 3d
        E 15 93 46 3d
        E 13 83 30 00
        E 1895 83 46 00
        E 11 93 45 3d
        E 4 83 46 00
        E 0 93 46 3d
        E 1903 93 30 3d
        E 1 83 46 00
        E 1 83 45 00
        E 15 93 30 3d
        E 0 93 46 3d
        E 1889 83 30 00
        E 10 93 46 3d
        E 5 83 46 00
        E 7 93 46 3d
        E 9 83 30 00
        E 1904 93 46 3d
        E 4 93 46 3d
        E 5 83 46 00
        E 7 83 46 00
        E 1910 83 46 00
        E 8 83 46 00
        E 0 b3 7b 00
        E 1 ff 2f 00
      >
    >
  >
  <TRACK
    NAME "Tremolo"
    PEAKCOL 4284186559
    VOLPAN 1.000000 0 1 -1
    MIDIOUT -1
    ISBUS 0 0
    <ITEM
      POSITION 0.204465
      LENGTH 67.799342
      NAME "Tremolo"
      VOLPAN 1 0 1 -1
      <SOURCE MIDI
        HASDATA 1 960 QN
        E 0 c4 2c 00
        E 288 94 39 34
        E 274 84 39 00
        E 209 94 39 3b
        E 182 84 39 00
        E 580 94 39 45
        E 182 84 39 00
        E 208 94 39 49
        E 182 84 39 00
        E 2 94 39 50
        E 182 84 39 00
        E 205 94 39 4b
        E 182 84 39 00
        E 10 94 39 41
        E 182 84 39 00
        E 397 94 39 47
        E 182 84 39 00
        E 395 94 3a 34
        E 274 84 3a 00
        E 680 94 3a 49
        E 182 84 3a 00
        E 395 94 3a 47
        E 182 84 3a 00
        E 14 94 3a 50
        E 182 84 3a 00
        E 2700 94 39 3f
        E 182 84 39 00
        E 9 94 39 47
        E 182 84 39 00
        E 198 94 39 50
        E 182 84 39 00
        E 14 94 39 41
        E 182 84 39 00
        E 8 94 39 52
        E 182 84 39 00
        E 775 94 39 41
        E 182 84 39 00
        E 783 94 39 34
        E 182 84 39 00
        E 291 94 32 34
        E 274 84 32 00
        E 1359 94 32 4d
        E 182 84 32 00
        E 18 94 32 50
        E 182 84 32 00
        E 388 94 32 41
        E 182 84 32 00
        E 1739 94 39 3d
        E 182 84 39 00
        E 972 94 39 47
        E 182 84 39 00
        E 394 94 39 4b
        E 182 84 39 00
        E 9 94 39 41
        E 182 84 39 00
        E 14 94 39 49
        E 182 84 39 00
        E 584 94 39 34
        E 182 84 39 00
        E 294 94 3a 34
        E 274 84 3a 00
        E 14 94 3a 50
        E 182 84 3a 00
        E 14 94 3a 3b
        E 182 84 3a 00
        E 11 94 3a 47
        E 182 84 3a 00
        E 6 94 3a 41
        E 182 84 3a 00
        E 14 94 3a 50
        E 182 84 3a 00
        E 4 94 3a 47
        E 182 84 3a 00
        E 11 94 3a 52
        E 182 84 3a 00
        E 8 94 3a 4d
        E 182 84 3a 00
        E 16 94 3a 52
        E 182 84 3a 00
        E 9 94 3a 41
        E 182 84 3a 00
        E 6 94 3a 49
        E 182 84 3a 00
        E 11 94 3a 3f
        E 182 84 3a 00
        E 9 94 3a 47
        E 182 84 3a 00
        E 16 94 3a 3f
        E 182 84 3a 00
        E 10 94 3a 41
        E 182 84 3a 00
        E 3 94 3a 34
        E 182 84 3a 00
        E 14 94 3a 34
        E 182 84 3a 00
        E 11 94 39 34
        E 274 84 39 00
        E 11 94 39 34
        E 274 84 39 00
        E 18 94 39 50
        E 182 84 39 00
        E 7 94 39 3b
        E 182 84 39 00
        E 11 94 39 47
        E 182 84 39 00
        E 10 94 39 3f
        E 182 84 39 00
        E 6 94 39 4d
        E 182 84 39 00
        E 10 94 39 41
        E 182 84 39 00
        E 13 94 39 54
        E 182 84 39 00
        E 10 94 39 4d
        E 182 84 39 00
        E 12 94 39 54
        E 182 84 39 00
        E 5 94 39 47
        E 182 84 39 00
        E 12 94 39 4d
        E 182 84 39 00
        E 14 94 39 3d
        E 182 84 39 00
        E 7 94 39 4b
        E 182 84 39 00
        E 12 94 39 3b
        E 182 84 39 00
        E 6 94 39 41
        E 182 84 39 00
        E 13 94 39 34
        E 182 84 39 00
        E 6 94 39 34
        E 182 84 39 00
        E 12 94 32 34
        E 274 84 32 00
        E 19 94 32 34
        E 274 84 32 00
        E 12 94 32 54
        E 182 84 32 00
        E 11 94 32 3d
        E 182 84 32 00
        E 9 94 32 47
        E 182 84 32 00
        E 5 94 32 41
        E 182 84 32 00
        E 11 94 32 4d
        E 182 84 32 00
        E 12 94 32 47
        E 182 84 32 00
        E 13 94 32 52
        E 182 84 32 00
        E 8 94 32 4b
        E 182 84 32 00
        E 14 94 32 54
        E 182 84 32 00
        E 10 94 32 45
        E 182 84 32 00
        E 10 94 32 4b
        E 182 84 32 00
        E 3 94 32 3d
        E 182 84 32 00
        E 11 94 32 4b
        E 182 84 32 00
        E 13 94 32 39
        E 182 84 32 00
        E 9 94 32 41
        E 182 84 32 00
        E 9 94 32 34
        E 182 84 32 00
        E 13 94 32 34
        E 182 84 32 00
        E 11 94 39 34
        E 274 84 39 00
        E 7 94 39 34
        E 274 84 39 00
        E 18 94 39 4d
        E 182 84 39 00
        E 8 94 39 3d
        E 182 84 39 00
        E 9 94 39 47
        E 182 84 39 00
        E 16 94 39 41
        E 182 84 39 00
        E 9 94 39 49
        E 182 84 39 00
        E 7 94 39 47
        E 182 84 39 00
        E 10 94 39 52
        E 182 84 39 00
        E 6 94 39 47
        E 182 84 39 00
        E 15 94 39 52
        E 182 84 39 00
        E 10 94 39 45
        E 182 84 39 00
        E 15 94 39 4b
        E 182 84 39 00
        E 9 94 39 3f
        E 182 84 39 00
        E 4 94 39 47
        E 182 84 39 00
        E 14 94 39 3f
        E 182 84 39 00
        E 10 94 39 45
        E 182 84 39 00
        E 12 94 39 34
        E 237 84 39 00
        E 13 94 39 34
        E 128 84 39 00
        E 0 94 35 34
        E 274 84 35 00
        E 17 94 35 34
        E 274 84 35 00
        E 9 94 35 50
        E 182 84 35 00
        E 19 94 35 3d
        E 182 84 35 00
        E 7 94 35 45
        E 182 84 35 00
        E 9 94 35 3d
        E 182 84 35 00
        E 6 94 35 4d
        E 182 84 35 00
        E 14 94 35 43
        E 182 84 35 00
        E 9 94 35 52
        E 182 84 35 00
        E 9 94 35 47
        E 182 84 35 00
        E 7 94 35 50
        E 182 84 35 00
        E 12 94 35 47
        E 182 84 35 00
        E 15 94 35 4d
        E 182 84 35 00
        E 4 94 35 41
        E 182 84 35 00
        E 17 94 35 47
        E 182 84 35 00
        E 8 94 35 39
        E 182 84 35 00
        E 8 94 35 41
        E 182 84 35 00
        E 7 94 35 34
        E 237 84 35 00
        E 18 94 35 34
        E 127 94 3a 34
        E 1 84 35 00
        E 273 84 3a 00
        E 24 94 3a 34
        E 274 84 3a 00
        E 7 94 3a 52
        E 182 84 3a 00
        E 16 94 3a 3b
        E 182 84 3a 00
        E 6 94 3a 47
        E 182 84 3a 00
        E 8 94 3a 41
        E 182 84 3a 00
        E 8 94 3a 49
        E 182 84 3a 00
        E 18 94 3a 47
        E 182 84 3a 00
        E 5 94 3a 54
        E 182 84 3a 00
        E 10 94 3a 4d
        E 182 84 3a 00
        E 8 94 3a 4d
        E 182 84 3a 00
        E 10 94 3a 47
        E 182 84 3a 00
        E 18 94 3a 49
        E 182 84 3a 00
        E 9 94 3a 41
        E 182 84 3a 00
        E 2 94 3a 47
        E 182 84 3a 00
        E 17 94 3a 3d
        E 182 84 3a 00
        E 11 94 3a 43
        E 182 84 3a 00
        E 7 94 3a 34
        E 237 84 3a 00
        E 9 94 3a 34
        E 128 84 3a 00
        E 5 94 39 34
        E 274 84 39 00
        E 21 94 39 34
        E 274 84 39 00
        E 8 94 39 52
        E 182 84 39 00
        E 15 94 39 3f
        E 182 84 39 00
        E 11 94 39 49
        E 182 84 39 00
        E 10 94 39 3d
        E 182 84 39 00
        E 12 94 39 4d
        E 182 84 39 00
        E 5 94 39 47
        E 182 84 39 00
        E 6 94 39 52
        E 182 84 39 00
        E 10 94 39 49
        E 182 84 39 00
        E 14 94 39 4d
        E 182 84 39 00
        E 11 94 39 45
        E 182 84 39 00
        E 8 94 39 4b
        E 182 84 39 00
        E 8 94 39 41
        E 182 84 39 00
        E 13 94 39 47
        E 182 84 39 00
        E 9 94 39 3b
        E 182 84 39 00
        E 15 94 39 41
        E 182 84 39 00
        E 5 94 39 34
        E 237 84 39 00
        E 17 94 39 34
        E 128 84 39 00
        E 0 94 39 34
        E 274 84 39 00
        E 13 94 39 34
        E 274 84 39 00
        E 17 94 39 52
        E 182 84 39 00
        E 15 94 39 3d
        E 182 84 39 00
        E 4 94 39 45
        E 182 84 39 00
        E 13 94 39 43
        E 182 84 39 00
        E 14 94 39 4d
        E 182 84 39 00
        E 0 94 39 47
        E 182 84 39 00
        E 14 94 39 50
        E 182 84 39 00
        E 14 94 39 4d
        E 182 84 39 00
        E 5 94 39 52
        E 182 84 39 00
        E 10 94 39 43
        E 182 84 39 00
        E 9 94 39 4d
        E 182 84 39 00
        E 12 94 39 41
        E 182 84 39 00
        E 15 94 39 45
        E 182 84 39 00
        E 6 94 39 3d
        E 182 84 39 00
        E 5 94 39 45
        E 182 84 39 00
        E 15 94 39 34
        E 237 84 39 00
        E 11 94 39 34
        E 128 84 39 00
        E 9 94 3a 34
        E 274 84 3a 00
        E 15 94 3a 34
        E 274 84 3a 00
        E 11 94 3a 54
        E 182 84 3a 00
        E 7 94 3a 3b
        E 182 84 3a 00
        E 17 94 3a 4b
        E 182 84 3a 00
        E 5 94 3a 3f
        E 182 84 3a 00
        E 8 94 3a 4d
        E 182 84 3a 00
        E 14 94 3a 41
        E 182 84 3a 00
        E 6 94 3a 52
        E 182 84 3a 00
        E 15 94 3a 47
        E 182 84 3a 00
        E 13 94 3a 4d
        E 182 84 3a 00
        E 6 94 3a 43
        E 182 84 3a 00
        E 15 94 3a 4d
        E 182 84 3a 00
        E 6 94 3a 43
        E 182 84 3a 00
        E 9 94 3a 47
        E 182 84 3a 00
        E 13 94 3a 3b
        E 182 84 3a 00
        E 3 94 3a 47
        E 182 84 3a 00
        E 11 94 3a 34
        E 237 84 3a 00
        E 18 94 3a 34
        E 128 84 3a 00
        E 3 94 39 34
        E 274 84 39 00
        E 16 94 39 34
        E 274 84 39 00
        E 15 94 39 52
        E 182 84 39 00
        E 5 94 39 3b
        E 182 84 39 00
        E 11 94 39 47
        E 182 84 39 00
        E 13 94 39 41
        E 182 84 39 00
        E 10 94 39 50
        E 182 84 39 00
        E 12 94 39 41
        E 182 84 39 00
        E 5 94 39 4d
        E 182 84 39 00
        E 12 94 39 4d
        E 182 84 39 00
        E 8 94 39 52
        E 182 84 39 00
        E 17 94 39 45
        E 182 84 39 00
        E 5 94 39 49
        E 182 84 39 00
        E 10 94 39 3d
        E 182 84 39 00
        E 12 94 39 45
        E 182 84 39 00
        E 10 94 39 3d
        E 182 84 39 00
        E 8 94 39 43
        E 182 84 39 00
        E 10 94 39 34
        E 237 84 39 00
        E 11 94 39 34
        E 128 84 39 00
        E 4 94 32 34
        E 274 84 32 00
        E 18 94 32 34
        E 274 84 32 00
        E 17 94 32 4d
        E 182 84 32 00
        E 4 94 32 39
        E 182 84 32 00
        E 15 94 32 47
        E 182 84 32 00
        E 13 94 32 3d
        E 182 84 32 00
        E 5 94 32 4b
        E 182 84 32 00
        E 11 94 32 43
        E 182 84 32 00
        E 9 94 32 4d
        E 182 84 32 00
        E 5 94 32 49
        E 182 84 32 00
        E 19 94 32 4d
        E 182 84 32 00
        E 10 94 32 47
        E 182 84 32 00
        E 6 94 32 4d
        E 182 84 32 00
        E 12 94 32 41
        E 182 84 32 00
        E 4 94 32 47
        E 182 84 32 00
        E 19 94 32 3d
        E 182 84 32 00
        E 7 94 32 41
        E 182 84 32 00
        E 6 94 32 34
        E 237 84 32 00
        E 18 94 32 34
        E 128 84 32 00
        E 7 94 39 34
        E 274 84 39 00
        E 15 94 39 34
        E 274 84 39 00
        E 5 94 39 54
        E 182 84 39 00
        E 17 94 39 3d
        E 182 84 39 00
        E 7 94 39 49
        E 182 84 39 00
        E 7 94 39 41
        E 182 84 39 00
        E 13 94 39 50
        E 182 84 39 00
        E 15 94 39 47
        E 182 84 39 00
        E 4 94 39 50
        E 182 84 39 00
        E 6 94 39 47
        E 182 84 39 00
        E 10 94 39 4d
        E 182 84 39 00
        E 17 94 39 41
        E 182 84 39 00
        E 6 94 39 50
        E 182 84 39 00
        E 13 94 39 3d
        E 182 84 39 00
        E 6 94 39 45
        E 182 84 39 00
        E 13 94 39 3b
        E 182 84 39 00
        E 15 94 39 45
        E 182 84 39 00
        E 7 94 39 34
        E 237 84 39 00
        E 7 94 39 34
        E 128 84 39 00
        E 13 94 3a 34
        E 274 84 3a 00
        E 11 94 3a 34
        E 274 84 3a 00
        E 17 94 3a 54
        E 182 84 3a 00
        E 6 94 3a 3b
        E 182 84 3a 00
        E 15 94 3a 47
        E 182 84 3a 00
        E 9 94 3a 41
        E 182 84 3a 00
        E 5 94 3a 4d
        E 182 84 3a 00
        E 13 94 3a 47
        E 182 84 3a 00
        E 9 94 3a 52
        E 182 84 3a 00
        E 12 94 3a 4d
        E 182 84 3a 00
        E 11 94 3a 4d
        E 182 84 3a 00
        E 4 94 3a 41
        E 182 84 3a 00
        E 11 94 3a 49
        E 182 84 3a 00
        E 15 94 3a 41
        E 182 84 3a 00
        E 5 94 3a 47
        E 182 84 3a 00
        E 14 94 3a 3b
        E 182 84 3a 00
        E 5 94 3a 43
        E 182 84 3a 00
        E 12 94 3a 34
        E 237 84 3a 00
        E 14 94 3a 34
        E 128 84 3a 00
        E 8 94 39 34
        E 274 84 39 00
        E 8 94 39 34
        E 274 84 39 00
        E 15 94 39 52
        E 182 84 39 00
        E 12 94 39 3b
        E 182 84 39 00
        E 9 94 39 45
        E 182 84 39 00
        E 15 94 39 41
        E 182 84 39 00
        E 5 94 39 49
        E 182 84 39 00
        E 13 94 39 41
        E 182 84 39 00
        E 5 94 39 4d
        E 182 84 39 00
        E 16 94 39 4d
        E 182 84 39 00
        E 8 94 39 52
        E 182 84 39 00
        E 11 94 39 47
        E 182 84 39 00
        E 10 94 39 4b
        E 182 84 39 00
        E 12 94 39 41
        E 182 84 39 00
        E 7 94 39 4b
        E 182 84 39 00
        E 12 94 39 3d
        E 182 84 39 00
        E 10 94 39 41
        E 182 84 39 00
        E 8 94 39 34
        E 237 84 39 00
        E 17 94 39 34
        E 125 94 32 34
        E 3 84 39 00
        E 271 84 32 00
        E 19 94 32 34
        E 274 84 32 00
        E 17 94 32 50
        E 182 84 32 00
        E 11 94 32 39
        E 182 84 32 00
        E 10 94 32 49
        E 182 84 32 00
        E 8 94 32 41
        E 182 84 32 00
        E 7 94 32 49
        E 182 84 32 00
        E 7 94 32 43
        E 182 84 32 00
        E 17 94 32 54
        E 182 84 32 00
        E 11 94 32 47
        E 182 84 32 00
        E 5 94 32 4d
        E 182 84 32 00
        E 11 94 32 47
        E 182 84 32 00
        E 7 94 32 4d
        E 182 84 32 00
        E 14 94 32 3f
        E 182 84 32 00
        E 5 94 32 4b
        E 182 84 32 00
        E 18 94 32 3b
        E 182 84 32 00
        E 7 94 32 45
        E 182 84 32 00
        E 10 94 32 34
        E 237 84 32 00
        E 7 94 32 34
        E 128 84 32 00
        E 966 94 39 47
        E 182 84 39 00
        E 973 94 39 52
        E 182 84 39 00
        E 1164 94 39 34
        E 237 84 39 00
        E 1104 94 35 49
        E 182 84 35 00
        E 778 94 35 4b
        E 182 84 35 00
        E 205 94 35 45
        E 182 84 35 00
        E 783 94 35 47
        E 182 84 35 00
        E 384 94 3a 34
        E 274 84 3a 00
        E 311 94 3a 52
        E 182 84 3a 00
        E 389 94 3a 43
        E 182 84 3a 00
        E 970 94 3a 43
        E 182 84 3a 00
        E 392 94 3a 4b
        E 182 84 3a 00
        E 1070 94 39 34
        E 274 84 39 00
        E 17 94 39 52
        E 182 84 39 00
        E 389 94 39 41
        E 182 84 39 00
        E 7 94 39 49
        E 182 84 39 00
        E 15 94 39 45
        E 182 84 39 00
        E 204 94 39 49
        E 182 84 39 00
        E 394 94 39 50
        E 182 84 39 00
        E 10 94 39 43
        E 182 84 39 00
        E 200 94 39 3f
        E 182 84 39 00
        E 11 94 39 47
        E 182 84 39 00
        E 1164 94 39 39
        E 182 84 39 00
        E 1 94 39 47
        E 182 84 39 00
        E 1171 94 39 45
        E 182 84 39 00
        E 584 94 39 3f
        E 182 84 39 00
        E 10 94 39 41
        E 182 84 39 00
        E 0 b4 7b 00
        E 1 ff 2f 00
      >
    >
  >
  <TRACK
    NAME "Horns"
    PEAKCOL 4290740026
    VOLPAN 1.000000 0 1 -1
    MIDIOUT -1
    ISBUS 0 0
    <ITEM
      POSITION 2.731006
      LENGTH 65.555637
      NAME "Horns"
      VOLPAN 1 0 1 -1
      <SOURCE MIDI
        HASDATA 1 960 QN
        E 0 c5 3c 00
        E 3845 95 3a 5e
        E 3840 85 3a 00
        E 26879 95 35 5e
        E 3840 85 35 00
        E 1 95 35 5c
        E 3840 85 35 00
        E 3839 95 34 5c
        E 3840 85 34 00
        E 1 95 35 60
        E 3840 85 35 00
        E 3843 95 35 5c
        E 3836 95 34 62
        E 4 85 35 00
        E 3836 85 34 00
        E 3843 95 31 62
        E 3840 85 31 00
        E 7682 95 35 60
        E 3840 85 35 00
        E 7678 95 39 5c
        E 3840 85 39 00
        E 0 b5 7b 00
        E 1 ff 2f 00
      >
    >
  >
  <TRACK
    NAME "Bass"
    PEAKCOL 4286528191
    VOLPAN 1.000000 0 1 -1
    MIDIOUT -1
    ISBUS 0 0
    <ITEM
      POSITION 0.000000
      LENGTH 68.213636
      NAME "Bass"
      VOLPAN 1 0 1 -1
      <SOURCE MIDI
        HASDATA 1 960 QN
        E 0 c6 2b 00
        E 0 96 25 7c
        E 864 86 25 00
        E 96 96 22 76
        E 864 86 22 00
        E 96 96 21 7c
        E 864 86 21 00
        E 96 96 1c 76
        E 864 86 1c 00
        E 96 96 1c 7c
        E 864 86 1c 00
        E 96 96 1c 76
        E 864 86 1c 00
        E 96 96 22 7c
        E 864 86 22 00
        E 96 96 26 76
        E 864 86 26 00
        E 96 96 25 7c
        E 864 86 25 00
        E 96 96 21 76
        E 864 86 21 00
        E 96 96 21 7c
        E 864 86 21 00
        E 96 96 1c 76
        E 864 86 1c 00
        E 96 96 1c 7c
        E 864 86 1c 00
        E 96 96 1f 76
        E 864 86 1f 00
        E 96 96 21 7c
        E 864 86 21 00
        E 96 96 21 76
        E 864 86 21 00
        E 96 96 25 7c
        E 864 86 25 00
        E 96 96 25 76
        E 864 86 25 00
        E 96 96 21 7c
        E 864 86 21 00
        E 96 96 1c 76
        E 864 86 1c 00
        E 96 96 1c 7c
        E 864 86 1c 00
        E 96 96 1c 76
        E 864 86 1c 00
        E 96 96 22 7c
        E 864 86 22 00
        E 96 96 1d 76
        E 864 86 1d 00
        E 96 96 1c 7c
        E 864 86 1c 00
        E 96 96 21 76
        E 864 86 21 00
        E 96 96 21 7c
        E 864 86 21 00
        E 96 96 22 76
        E 864 86 22 00
        E 96 96 26 7c
        E 864 86 26 00
        E 96 96 28 76
        E 864 86 28 00
        E 96 96 2d 7c
        E 864 86 2d 00
        E 96 96 2d 76
        E 864 86 2d 00
        E 96 96 31 7c
        E 864 86 31 00
        E 96 96 35 76
        E 864 86 35 00
        E 96 96 37 7c
        E 864 86 37 00
        E 96 96 37 76
        E 864 86 37 00
        E 96 96 37 7c
        E 864 86 37 00
        E 96 96 37 76
        E 864 86 37 00
        E 96 96 37 7c
        E 864 86 37 00
        E 96 96 37 76
        E 864 86 37 00
        E 96 96 32 7c
        E 864 86 32 00
        E 96 96 2d 76
        E 864 86 2d 00
        E 96 96 2e 7c
        E 864 86 2e 00
        E 96 96 2b 76
        E 864 86 2b 00
        E 96 96 31 7c
        E 864 86 31 00
        E 96 96 37 76
        E 864 86 37 00
        E 96 96 37 7c
        E 864 86 37 00
        E 96 96 37 76
        E 864 86 37 00
        E 96 96 37 7c
        E 864 86 37 00
        E 96 96 37 76
        E 864 86 37 00
        E 96 96 37 7c
        E 864 86 37 00
        E 96 96 34 76
        E 864 86 34 00
        E 96 96 32 7c
        E 864 86 32 00
        E 96 96 32 76
        E 864 86 32 00
        E 96 96 2e 7c
        E 864 86 2e 00
        E 96 96 29 76
        E 864 86 29 00
        E 96 96 25 7c
        E 864 86 25 00
        E 96 96 2b 76
        E 864 86 2b 00
        E 96 96 2d 7c
        E 864 86 2d 00
        E 96 96 2d 76
        E 864 86 2d 00
        E 96 96 32 7c
        E 864 86 32 00
        E 96 96 31 76
        E 864 86 31 00
        E 96 96 2d 7c
        E 864 86 2d 00
        E 96 96 29 76
        E 864 86 29 00
        E 96 96 25 7c
        E 864 86 25 00
        E 96 96 26 76
        E 864 86 26 00
        E 96 96 21 7c
        E 864 86 21 00
        E 96 96 21 76
        E 864 86 21 00
        E 96 96 26 7c
        E 864 86 26 00
        E 96 96 29 76
        E 864 86 29 00
        E 96 96 2e 7c
        E 864 86 2e 00
        E 96 96 2d 76
        E 864 86 2d 00
        E 96 96 31 7c
        E 864 86 31 00
        E 96 96 31 76
        E 864 86 31 00
        E 96 96 2d 7c
        E 864 86 2d 00
        E 96 96 28 76
        E 864 86 28 00
        E 96 96 26 7c
        E 864 86 26 00
        E 96 96 22 76
        E 864 86 22 00
        E 96 96 21 7c
        E 864 86 21 00
        E 96 96 25 76
        E 864 86 25 00
        E 96 96 25 7c
        E 864 86 25 00
        E 96 96 26 76
        E 864 86 26 00
        E 96 96 21 7c
        E 864 86 21 00
        E 96 96 1c 76
        E 864 86 1c 00
        E 96 96 1c 7c
        E 864 86 1c 00
        E 96 96 1c 76
        E 864 86 1c 00
        E 96 96 21 7c
        E 864 86 21 00
        E 96 96 26 76
        E 864 86 26 00
        E 96 96 26 7c
        E 864 86 26 00
        E 96 96 21 76
        E 864 86 21 00
        E 96 96 22 7c
        E 864 86 22 00
        E 96 96 26 76
        E 864 86 26 00
        E 96 96 25 7c
        E 864 86 25 00
        E 96 96 25 76
        E 864 86 25 00
        E 96 96 21 7c
        E 864 86 21 00
        E 96 96 22 76
        E 864 86 22 00
        E 96 96 25 7c
        E 864 86 25 00
        E 96 96 26 76
        E 864 86 26 00
        E 96 96 21 7c
        E 864 86 21 00
        E 96 96 21 76
        E 864 86 21 00
        E 0 b6 7b 00
        E 1 ff 2f 00
      >
    >
  >
>
