<REAPER_PROJECT 0.1 "7.0" 1700000000
  TEMPO 92.000000 4 4
  SAMPLERATE 48000 0 0
  RENDER_FILE ""
  RENDER_FMT 0 2 0
  RENDER_1X 0
  RENDER_RANGE 1 0 77.661689 0 0
  RENDER_RESAMPLE 3 0 1
  <MASTERTRACK
    VOLPAN 1 0 1 -1
    DEFCHAN 0
  >
  <TRACK
    NAME "Lead"
    PEAKCOL 4284506208
    VOLPAN 1.000000 0 1 -1
    MIDIOUT -1
    ISBUS 0 0
    <ITEM
      POSITION 0.000000
      LENGTH 75.496007
      NAME "Lead"
      VOLPAN 1 0 1 -1
      <SOURCE MIDI
        HASDATA 1 960 QN
        E 0 c0 00 00
        E 0 90 4e 4c
        E 954 80 4e 00
        E 77 90 4c 4e
        E 963 80 4c 00
        E 29 90 4e 44
        E 867 80 4e 00
        E 396 90 4c 44
        E 160 90 4e 44
        E 159 90 51 44
        E 81 80 4e 00
        E 78 90 53 44
        E 81 80 51 00
        E 78 90 56 44
        E 81 80 53 00
        E 78 90 58 56
        E 71 80 4c 00
        E 10 80 56 00
        E 786 80 58 00
        E 133 90 56 44
        E 867 80 56 00
        E 404 90 5a 44
        E 867 80 5a 00
        E 21 90 58 44
        E 780 80 58 00
        E 826 90 5a 44
        E 954 80 5a 00
        E 430 90 5a 44
        E 152 90 58 44
        E 715 80 5a 00
        E 152 80 58 00
        E 143 90 5a 44
        E 867 80 5a 00
        E 162 90 5a 53
        E 867 80 5a 00
        E 2 90 5a 44
        E 656 80 5a 00
        E 7 90 58 44
        E 780 80 58 00
        E 234 90 5a 46
        E 394 80 5a 00
        E 616 90 5d 49
        E 954 80 5d 00
        E 78 90 5b 45
        E 867 80 5b 00
        E 129 90 5b 44
        E 867 80 5b 00
        E 162 90 5a 44
        E 867 80 5a 00
        E 163 90 5a 60
        E 867 80 5a 00
        E 255 90 56 52
        E 875 80 56 00
        E 21 90 58 44
        E 780 80 58 00
        E 484 90 5a 44
        E 1026 90 58 44
        E 241 80 58 00
        E 8 90 56 44
        E 169 80 5a 00
        E 698 80 56 00
        E 149 90 58 44
        E 438 80 58 00
        E 596 90 5a 44
        E 867 80 5a 00
        E 517 90 5a 46
        E 657 90 5d 55
        E 210 80 5a 00
        E 641 90 5d 44
        E 16 80 5d 00
        E 764 80 5d 00
        E 8 90 5b 44
        E 780 80 5b 00
        E 578 90 5d 4f
        E 954 80 5d 00
        E 46 90 5d 4f
        E 867 80 5d 00
        E 152 90 5a 44
        E 867 80 5a 00
        E 147 90 5d 44
        E 867 80 5d 00
        E 169 90 5b 44
        E 570 90 58 44
        E 240 80 58 00
        E 57 80 5b 00
        E 273 90 56 44
        E 867 80 56 00
        E 25 90 58 44
        E 780 80 58 00
        E 229 90 56 51
        E 481 80 56 00
        E 551 90 58 44
        E 954 80 58 00
        E 52 90 58 53
        E 867 80 58 00
        E 145 90 5a 4f
        E 867 80 5a 00
        E 146 90 58 44
        E 867 80 58 00
        E 163 90 5a 44
        E 867 80 5a 00
        E 141 90 5d 44
        E 780 80 5d 00
        E 239 90 5a 44
        E 780 80 5a 00
        E 255 90 5a 62
        E 963 80 5a 00
        E 29 90 5d 59
        E 641 90 5a 44
        E 226 80 5d 00
        E 14 80 5a 00
        E 402 90 56 44
        E 770 90 58 44
        E 97 80 56 00
        E 341 80 58 00
        E 578 90 5a 44
        E 867 80 5a 00
        E 145 90 58 44
        E 219 80 58 00
        E 1157 90 56 44
        E 331 90 53 44
        E 240 80 53 00
        E 20 80 56 00
        E 71 90 51 44
        E 241 80 51 00
        E 788 90 53 44
        E 481 80 53 00
        E 759 90 51 44
        E 260 90 53 65
        E 240 80 53 00
        E 20 90 56 65
        E 240 80 56 00
        E 20 90 58 65
        E 87 80 51 00
        E 153 80 58 00
        E 20 90 5b 65
        E 240 80 5b 00
        E 20 90 5d 79
        E 867 80 5d 00
        E 138 90 5b 44
        E 867 80 5b 00
        E 383 90 5b 46
        E 786 90 5b 44
        E 81 80 5b 00
        E 116 80 5b 00
        E 832 90 5a 44
        E 241 80 5a 00
        E 1281 90 5b 44
        E 219 80 5b 00
        E 539 90 5d 44
        E 776 90 5a 44
        E 91 80 5d 00
        E 347 80 5a 00
        E 1066 90 5b 55
        E 641 90 58 44
        E 226 80 5b 00
        E 14 80 58 00
        E 401 90 56 44
        E 219 80 56 00
        E 558 90 56 44
        E 780 80 56 00
        E 473 90 55 53
        E 759 90 56 44
        E 195 80 55 00
        E 759 80 56 00
        E 82 90 58 4f
        E 505 90 5a 44
        E 240 80 5a 00
        E 122 80 58 00
        E 143 90 5d 51
        E 656 80 5d 00
        E 589 90 5b 44
        E 867 80 5b 00
        E 161 90 5b 44
        E 656 80 5b 00
        E 113 90 5a 48
        E 197 80 5a 00
        E 831 90 5d 44
        E 780 80 5d 00
        E 236 90 5d 44
        E 204 90 5b 44
        E 204 90 58 44
        E 36 80 5b 00
        E 169 90 56 44
        E 35 80 58 00
        E 169 90 53 44
        E 36 80 56 00
        E 101 80 5d 00
        E 67 90 51 49
        E 36 80 53 00
        E 477 90 53 44
        E 240 80 53 00
        E 114 80 51 00
        E 159 90 56 44
        E 867 80 56 00
        E 129 90 56 44
        E 656 80 56 00
        E 370 90 58 5b
        E 1024 90 56 5d
        E 289 80 58 00
        E 578 80 56 00
        E 156 90 5a 4e
        E 780 80 5a 00
        E 596 90 58 44
        E 481 80 58 00
        E 157 90 58 44
        E 954 80 58 00
        E 78 90 56 44
        E 867 80 56 00
        E 379 90 58 44
        E 208 90 56 44
        E 209 90 53 44
        E 31 80 56 00
        E 177 90 51 44
        E 32 80 53 00
        E 176 90 4e 44
        E 32 80 51 00
        E 2 80 58 00
        E 174 90 4c 63
        E 32 80 4e 00
        E 237 90 4e 4f
        E 598 80 4c 00
        E 269 80 4e 00
        E 146 90 45 60
        E 1313 80 45 00
        E 194 90 51 44
        E 394 80 51 00
        E 1142 90 4e 44
        E 954 80 4e 00
        E 61 90 4e 44
        E 438 80 4e 00
        E 575 90 4c 44
        E 867 80 4c 00
        E 659 90 4e 44
        E 203 90 4f 45
        E 203 90 53 45
        E 37 80 4f 00
        E 166 90 55 45
        E 37 80 53 00
        E 167 90 58 45
        E 36 80 55 00
        E 18 80 4e 00
        E 149 90 5a 6a
        E 37 80 58 00
        E 830 80 5a 00
        E 684 90 58 44
        E 780 80 58 00
        E 703 90 58 4b
        E 954 80 58 00
        E 67 90 56 44
        E 438 80 56 00
        E 582 90 56 45
        E 438 80 56 00
        E 567 90 58 44
        E 656 80 58 00
        E 365 90 56 44
        E 867 80 56 00
        E 162 90 55 44
        E 867 80 55 00
        E 143 90 56 44
        E 780 80 56 00
        E 603 90 58 44
        E 954 80 58 00
        E 68 90 58 65
        E 127 90 58 58
        E 827 80 58 00
        E 214 90 58 44
        E 272 80 58 00
        E 166 80 58 00
        E 0 b0 7b 00
        E 1 ff 2f 00
      >
    >
  >
  <TRACK
    NAME "Piano"
    PEAKCOL 4290756410
    VOLPAN 1.000000 0 1 -1
    MIDIOUT -1
    ISBUS 0 0
    <ITEM
      POSITION 0.000000
      LENGTH 75.393478
      NAME "Piano"
      VOLPAN 1 0 1 -1
      <SOURCE MIDI
        HASDATA 1 960 QN
        E 0 c1 00 00
        E 0 91 3e 4e
        E 432 81 3e 00
        E 528 91 39 6f
        E 432 81 39 00
        E 1488 91 32 6f
        E 432 81 32 00
        E 528 91 2d 4e
        E 432 81 2d 00
        E 528 91 28 6f
        E 432 81 28 00
        E 528 91 28 4e
        E 0 91 2d 4e
        E 432 81 28 00
        E 0 81 2d 00
        E 1488 91 2a 4e
        E 432 81 2a 00
        E 1488 91 2a 4e
        E 432 81 2a 00
        E 1488 91 2b 4e
        E 432 81 2b 00
        E 528 91 2f 6f
        E 432 81 2f 00
        E 528 91 2b 4e
        E 432 81 2b 00
        E 6288 91 28 6f
        E 0 91 2d 6f
        E 432 81 28 00
        E 0 81 2d 00
        E 528 91 2d 4e
        E 432 81 2d 00
        E 528 91 28 6f
        E 0 91 2d 6f
        E 432 81 28 00
        E 0 81 2d 00
        E 528 91 2a 4e
        E 432 81 2a 00
        E 528 91 2a 6f
        E 0 91 2f 6f
        E 432 81 2a 00
        E 0 81 2f 00
        E 528 91 2a 4e
        E 0 91 2f 4e
        E 432 81 2a 00
        E 0 81 2f 00
        E 528 91 2a 6f
        E 0 91 2f 6f
        E 432 81 2a 00
        E 0 81 2f 00
        E 528 91 2b 4e
        E 0 91 2f 4e
        E 432 81 2b 00
        E 0 81 2f 00
        E 528 91 2b 6f
        E 0 91 2f 6f
        E 432 81 2b 00
        E 0 81 2f 00
        E 528 91 2b 4e
        E 0 91 2f 4e
        E 432 81 2b 00
        E 0 81 2f 00
        E 528 91 2b 6f
        E 0 91 2f 6f
        E 432 81 2b 00
        E 0 81 2f 00
        E 528 91 2a 4e
        E 0 91 2d 4e
        E 432 81 2a 00
        E 0 81 2d 00
        E 528 91 2a 6f
        E 0 91 2d 6f
        E 432 81 2a 00
        E 0 81 2d 00
        E 528 91 2a 4e
        E 0 91 2d 4e
        E 432 81 2a 00
        E 0 81 2d 00
        E 528 91 2a 6f
        E 0 91 2d 6f
        E 432 81 2a 00
        E 0 81 2d 00
        E 528 91 2b 4e
        E 0 91 2f 4e
        E 432 81 2b 00
        E 0 81 2f 00
        E 528 91 2b 6f
        E 0 91 2f 6f
        E 432 81 2b 00
        E 0 81 2f 00
        E 528 91 2b 4e
        E 0 91 2f 4e
        E 432 81 2b 00
        E 0 81 2f 00
        E 528 91 2b 6f
        E 0 91 2f 6f
        E 432 81 2b 00
        E 0 81 2f 00
        E 528 91 28 4e
        E 0 91 2d 4e
        E 432 81 28 00
        E 0 81 2d 00
        E 528 91 28 6f
        E 0 91 2d 6f
        E 432 81 28 00
        E 0 81 2d 00
        E 528 91 28 4e
        E 0 91 2d 4e
        E 432 81 28 00
        E 0 81 2d 00
        E 528 91 28 6f
        E 0 91 2d 6f
        E 432 81 28 00
        E 0 81 2d 00
        E 528 91 2a 4e
        E 0 91 2d 4e
        E 432 81 2a 00
        E 0 81 2d 00
        E 528 91 2a 6f
        E 0 91 2d 6f
        E 432 81 2a 00
        E 0 81 2d 00
        E 528 91 2a 4e
        E 0 91 2d 4e
        E 432 81 2a 00
        E 0 81 2d 00
        E 528 91 2a 6f
        E 0 91 2d 6f
        E 432 81 2a 00
        E 0 81 2d 00
        E 528 91 2a 4e
        E 0 91 2d 4e
        E 432 81 2a 00
        E 0 81 2d 00
        E 528 91 2a 6f
        E 0 91 2d 6f
        E 432 81 2a 00
        E 0 81 2d 00
        E 528 91 2a 4e
        E 0 91 2d 4e
        E 432 81 2a 00
        E 0 81 2d 00
        E 528 91 2a 6f
        E 0 91 2d 6f
        E 432 81 2a 00
        E 0 81 2d 00
        E 528 91 28 4e
        E 0 91 2d 4e
        E 432 81 28 00
        E 0 81 2d 00
        E 528 91 28 6f
        E 0 91 2d 6f
        E 432 81 28 00
        E 0 81 2d 00
        E 528 91 28 4e
        E 0 91 2d 4e
        E 432 81 28 00
        E 0 81 2d 00
        E 528 91 28 6f
        E 0 91 2d 6f
        E 432 81 28 00
        E 0 81 2d 00
        E 528 91 2a 4e
        E 432 81 2a 00
        E 528 91 2a 6f
        E 0 91 2f 6f
        E 432 81 2a 00
        E 0 81 2f 00
        E 528 91 2a 4e
        E 0 91 2f 4e
        E 432 81 2a 00
        E 0 81 2f 00
        E 528 91 2a 6f
        E 0 91 2f 6f
        E 432 81 2a 00
        E 0 81 2f 00
        E 528 91 2b 4e
        E 0 91 2f 4e
        E 432 81 2b 00
        E 0 81 2f 00
        E 528 91 2b 6f
        E 0 91 2f 6f
        E 432 81 2b 00
        E 0 81 2f 00
        E 528 91 2b 4e
        E 0 91 2f 4e
        E 432 81 2b 00
        E 0 81 2f 00
        E 528 91 2b 6f
        E 0 91 2f 6f
        E 432 81 2b 00
        E 0 81 2f 00
        E 528 91 2a 4e
        E 0 91 2d 4e
        E 432 81 2a 00
        E 0 81 2d 00
        E 528 91 2a 6f
        E 0 91 2d 6f
        E 432 81 2a 00
        E 0 81 2d 00
        E 528 91 2a 4e
        E 0 91 2d 4e
        E 432 81 2a 00
        E 0 81 2d 00
        E 528 91 2a 6f
        E 0 91 2d 6f
        E 432 81 2a 00
        E 0 81 2d 00
        E 528 91 28 4e
        E 0 91 2d 4e
        E 432 81 28 00
        E 0 81 2d 00
        E 528 91 28 6f
        E 0 91 2d 6f
        E 432 81 28 00
        E 0 81 2d 00
        E 528 91 28 4e
        E 0 91 2d 4e
        E 432 81 28 00
        E 0 81 2d 00
        E 528 91 28 6f
        E 0 91 2d 6f
        E 432 81 28 00
        E 0 81 2d 00
        E 528 91 2a 4e
        E 432 81 2a 00
        E 528 91 2a 6f
        E 0 91 2f 6f
        E 432 81 2a 00
        E 0 81 2f 00
        E 528 91 2a 4e
        E 0 91 2f 4e
        E 432 81 2a 00
        E 0 81 2f 00
        E 528 91 2a 6f
        E 0 91 2f 6f
        E 432 81 2a 00
        E 0 81 2f 00
        E 528 91 2b 4e
        E 0 91 2f 4e
        E 432 81 2b 00
        E 0 81 2f 00
        E 528 91 2b 6f
        E 0 91 2f 6f
        E 432 81 2b 00
        E 0 81 2f 00
        E 528 91 2b 4e
        E 0 91 2f 4e
        E 432 81 2b 00
        E 0 81 2f 00
        E 528 91 2b 6f
        E 0 91 2f 6f
        E 432 81 2b 00
        E 0 81 2f 00
        E 528 91 2a 4e
        E 0 91 2d 4e
        E 432 81 2a 00
        E 0 81 2d 00
        E 528 91 2a 6f
        E 0 91 2d 6f
        E 432 81 2a 00
        E 0 81 2d 00
        E 528 91 2a 4e
        E 0 91 2d 4e
        E 432 81 2a 00
        E 0 81 2d 00
        E 528 91 2a 6f
        E 0 91 2d 6f
        E 432 81 2a 00
        E 0 81 2d 00
        E 528 91 2b 4e
        E 0 91 2f 4e
        E 432 81 2b 00
        E 0 81 2f 00
        E 528 91 2b 6f
        E 0 91 2f 6f
        E 432 81 2b 00
        E 0 81 2f 00
        E 528 91 2b 4e
        E 0 91 2f 4e
        E 432 81 2b 00
        E 0 81 2f 00
        E 528 91 2b 6f
        E 0 91 2f 6f
        E 432 81 2b 00
        E 0 81 2f 00
        E 528 91 28 4e
        E 0 91 2d 4e
        E 432 81 28 00
        E 0 81 2d 00
        E 528 91 28 6f
        E 0 91 2d 6f
        E 432 81 28 00
        E 0 81 2d 00
        E 528 91 28 4e
        E 0 91 2d 4e
        E 432 81 28 00
        E 0 81 2d 00
        E 528 91 28 6f
        E 0 91 2d 6f
        E 432 81 28 00
        E 0 81 2d 00
        E 528 91 2a 4e
        E 0 91 2d 4e
        E 432 81 2a 00
        E 0 81 2d 00
        E 2448 91 2a 6f
        E 432 81 2a 00
        E 1488 91 2d 6f
        E 432 81 2d 00
        E 528 91 2d 4e
        E 432 81 2d 00
        E 3408 91 2d 4e
        E 432 81 2d 00
        E 528 91 28 6f
        E 432 81 28 00
        E 1488 91 2a 6f
        E 432 81 2a 00
        E 3408 91 2f 6f
        E 432 81 2f 00
        E 2448 91 2d 4e
        E 432 81 2d 00
        E 1488 91 2a 4e
        E 0 91 2d 4e
        E 432 81 2a 00
        E 0 81 2d 00
        E 528 91 2a 6f
        E 432 81 2a 00
        E 0 b1 7b 00
        E 1 ff 2f 00
      >
    >
  >
  <TRACK
    NAME "Brass"
    PEAKCOL 4290740026
    VOLPAN 1.000000 0 1 -1
    MIDIOUT -1
    ISBUS 0 0
    <ITEM
      POSITION 0.005018
      LENGTH 71.321427
      NAME "Brass"
      VOLPAN 1 0 1 -1
      <SOURCE MIDI
        HASDATA 1 960 QN
        E 0 c2 3d 00
        E 7 92 39 6d
        E 4 92 45 6d
        E 1148 82 39 00
        E 4 82 45 00
        E 1002 92 39 6d
        E 6 92 39 6d
        E 1146 82 39 00
        E 6 82 39 00
        E 997 92 45 6d
        E 9 92 39 6d
        E 2 92 39 6d
        E 1141 82 45 00
        E 9 82 39 00
        E 2 82 39 00
        E 1002 92 45 6d
        E 1 92 39 6d
        E 1151 82 45 00
        E 1 82 39 00
        E 1015 92 3b 6d
        E 1152 82 3b 00
        E 1004 92 3b 6d
        E 5 92 47 6d
        E 1147 82 3b 00
        E 5 82 47 00
        E 5320 92 39 6d
        E 3 92 45 6d
        E 2 92 39 6d
        E 1147 82 39 00
        E 3 82 45 00
        E 2 82 39 00
        E 997 92 45 6d
        E 11 92 45 6d
        E 1141 82 45 00
        E 11 82 45 00
        E 1010 92 45 6d
        E 1152 82 45 00
        E 995 92 47 6d
        E 8 92 3b 6d
        E 1 92 47 6d
        E 2 92 3b 6d
        E 0 92 3b 6d
        E 1141 82 47 00
        E 8 82 3b 00
        E 1 82 47 00
        E 2 82 3b 00
        E 0 82 3b 00
        E 997 92 47 6d
        E 7 92 3b 6d
        E 4 92 3b 6d
        E 1 92 47 6d
        E 1 92 3b 6d
        E 1139 82 47 00
        E 7 82 3b 00
        E 4 82 3b 00
        E 1 82 47 00
        E 1 82 3b 00
        E 995 92 47 6d
        E 7 92 3b 6d
        E 0 92 3b 6d
        E 2 92 47 6d
        E 2 92 3b 6d
        E 1141 82 47 00
        E 7 82 3b 00
        E 0 82 3b 00
        E 2 82 47 00
        E 2 82 3b 00
        E 997 92 47 6d
        E 9 92 47 6d
        E 0 92 3b 6d
        E 1 92 3b 6d
        E 3 92 3b 6d
        E 1139 82 47 00
        E 9 82 47 00
        E 0 82 3b 00
        E 1 82 3b 00
        E 3 82 3b 00
        E 995 92 45 6d
        E 8 92 45 6d
        E 2 92 39 6d
        E 2 92 39 6d
        E 1 92 39 6d
        E 1139 82 45 00
        E 8 82 45 00
        E 2 82 39 00
        E 2 82 39 00
        E 1 82 39 00
        E 995 92 47 6d
        E 7 92 3b 6d
        E 5 92 3b 6d
        E 1 92 3b 6d
        E 1 92 47 6d
        E 1138 82 47 00
        E 7 82 3b 00
        E 5 82 3b 00
        E 1 82 3b 00
        E 1 82 47 00
        E 994 92 47 6d
        E 6 92 3b 6d
        E 4 92 3b 6d
        E 1 92 47 6d
        E 2 92 3b 6d
        E 1139 82 47 00
        E 6 82 3b 00
        E 4 82 3b 00
        E 1 82 47 00
        E 2 82 3b 00
        E 995 92 45 6d
        E 7 92 39 6d
        E 0 92 45 6d
        E 2 92 39 6d
        E 2 92 39 6d
        E 1141 82 45 00
        E 7 82 39 00
        E 0 82 45 00
        E 2 82 39 00
        E 2 82 39 00
        E 997 92 45 6d
        E 9 92 45 6d
        E 0 92 39 6d
        E 1 92 39 6d
        E 2 92 39 6d
        E 1140 82 45 00
        E 9 82 45 00
        E 0 82 39 00
        E 1 82 39 00
        E 2 82 39 00
        E 996 92 45 6d
        E 6 92 39 6d
        E 1 92 39 6d
        E 4 92 45 6d
        E 1 92 39 6d
        E 1140 82 45 00
        E 6 82 39 00
        E 1 82 39 00
        E 4 82 45 00
        E 1 82 39 00
        E 996 92 45 6d
        E 5 92 39 6d
        E 5 92 45 6d
        E 0 92 39 6d
        E 0 92 39 6d
        E 1142 82 45 00
        E 5 82 39 00
        E 5 82 45 00
        E 0 82 39 00
        E 0 82 39 00
        E 998 92 45 6d
        E 7 92 39 6d
        E 1 92 45 6d
        E 0 92 39 6d
        E 0 92 39 6d
        E 1144 82 45 00
        E 7 82 39 00
        E 1 82 45 00
        E 0 82 39 00
        E 0 82 39 00
        E 1000 92 45 6d
        E 6 92 45 6d
        E 2 92 39 6d
        E 2 92 39 6d
        E 1 92 39 6d
        E 1141 82 45 00
        E 6 82 45 00
        E 2 82 39 00
        E 2 82 39 00
        E 1 82 39 00
        E 997 92 45 6d
        E 6 92 39 6d
        E 4 92 39 6d
        E 1 92 45 6d
        E 2 92 39 6d
        E 1139 82 45 00
        E 6 82 39 00
        E 4 82 39 00
        E 1 82 45 00
        E 2 82 39 00
        E 995 92 47 6d
        E 10 92 3b 6d
        E 1 92 3b 6d
        E 1 92 47 6d
        E 1 92 3b 6d
        E 1139 82 47 00
        E 10 82 3b 00
        E 1 82 3b 00
        E 1 82 47 00
        E 1 82 3b 00
        E 995 92 47 6d
        E 5 92 47 6d
        E 1 92 3b 6d
        E 1 92 3b 6d
        E 3 92 3b 6d
        E 1142 82 47 00
        E 5 82 47 00
        E 1 82 3b 00
        E 1 82 3b 00
        E 3 82 3b 00
        E 998 92 47 6d
        E 10 92 3b 6d
        E 1 92 3b 6d
        E 0 92 47 6d
        E 3 92 3b 6d
        E 1138 82 47 00
        E 10 82 3b 00
        E 1 82 3b 00
        E 0 82 47 00
        E 3 82 3b 00
        E 994 92 47 6d
        E 8 92 3b 6d
        E 3 92 47 6d
        E 0 92 3b 6d
        E 1 92 3b 6d
        E 1140 82 47 00
        E 8 82 3b 00
        E 3 82 47 00
        E 0 82 3b 00
        E 1 82 3b 00
        E 996 92 45 6d
        E 5 92 45 6d
        E 1 92 39 6d
        E 2 92 39 6d
        E 1 92 39 6d
        E 1143 82 45 00
        E 5 82 45 00
        E 1 82 39 00
        E 2 82 39 00
        E 1 82 39 00
        E 999 92 45 6d
        E 7 92 39 6d
        E 3 92 39 6d
        E 2 92 45 6d
        E 0 92 39 6d
        E 1140 82 45 00
        E 7 82 39 00
        E 3 82 39 00
        E 2 82 45 00
        E 0 82 39 00
        E 996 92 45 6d
        E 6 92 39 6d
        E 0 92 39 6d
        E 3 92 39 6d
        E 0 92 45 6d
        E 1143 82 45 00
        E 6 82 39 00
        E 0 82 39 00
        E 3 82 39 00
        E 0 82 45 00
        E 999 92 47 6d
        E 6 92 47 6d
        E 1 92 3b 6d
        E 2 92 3b 6d
        E 5 92 3b 6d
        E 1138 82 47 00
        E 6 82 47 00
        E 1 82 3b 00
        E 2 82 3b 00
        E 5 82 3b 00
        E 994 92 47 6d
        E 8 92 3b 6d
        E 1 92 47 6d
        E 0 92 3b 6d
        E 2 92 3b 6d
        E 1141 82 47 00
        E 8 82 3b 00
        E 1 82 47 00
        E 0 82 3b 00
        E 2 82 3b 00
        E 997 92 47 6d
        E 5 92 3b 6d
        E 2 92 3b 6d
        E 1 92 3b 6d
        E 6 92 47 6d
        E 1138 82 47 00
        E 5 82 3b 00
        E 2 82 3b 00
        E 1 82 3b 00
        E 6 82 47 00
        E 994 92 47 6d
        E 5 92 47 6d
        E 0 92 3b 6d
        E 2 92 3b 6d
        E 2 92 3b 6d
        E 1143 82 47 00
        E 5 82 47 00
        E 0 82 3b 00
        E 2 82 3b 00
        E 2 82 3b 00
        E 999 92 45 6d
        E 6 92 45 6d
        E 2 92 39 6d
        E 1 92 39 6d
        E 0 92 39 6d
        E 1143 82 45 00
        E 6 82 45 00
        E 2 82 39 00
        E 1 82 39 00
        E 0 82 39 00
        E 999 92 45 6d
        E 5 92 39 6d
        E 1 92 39 6d
        E 1 92 39 6d
        E 7 92 45 6d
        E 1138 82 45 00
        E 5 82 39 00
        E 1 82 39 00
        E 1 82 39 00
        E 7 82 45 00
        E 994 92 47 6d
        E 8 92 47 6d
        E 2 92 3b 6d
        E 0 92 3b 6d
        E 1 92 3b 6d
        E 1141 82 47 00
        E 8 82 47 00
        E 2 82 3b 00
        E 0 82 3b 00
        E 1 82 3b 00
        E 997 92 47 6d
        E 6 92 47 6d
        E 1 92 3b 6d
        E 2 92 3b 6d
        E 1 92 3b 6d
        E 1142 82 47 00
        E 6 82 47 00
        E 1 82 3b 00
        E 2 82 3b 00
        E 1 82 3b 00
        E 998 92 45 6d
        E 5 92 45 6d
        E 3 92 39 6d
        E 2 92 39 6d
        E 3 92 39 6d
        E 1139 82 45 00
        E 5 82 45 00
        E 3 82 39 00
        E 2 82 39 00
        E 3 82 39 00
        E 995 92 45 6d
        E 12 92 45 6d
        E 1 92 39 6d
        E 0 92 39 6d
        E 0 92 39 6d
        E 1139 82 45 00
        E 12 82 45 00
        E 1 82 39 00
        E 0 82 39 00
        E 0 82 39 00
        E 1000 92 39 6d
        E 8 92 45 6d
        E 1144 82 39 00
        E 8 82 45 00
        E 3166 92 45 6d
        E 2 92 39 6d
        E 1150 82 45 00
        E 2 82 39 00
        E 995 92 45 6d
        E 1152 82 45 00
        E 1021 92 39 6d
        E 1152 82 39 00
        E 3155 92 47 6d
        E 12 92 3b 6d
        E 1 92 3b 6d
        E 1139 82 47 00
        E 12 82 3b 00
        E 1 82 3b 00
        E 0 b2 7b 00
        E 1 ff 2f 00
      >
    >
  >
  <TRACK
    NAME "Violin1"
    PEAKCOL 4284186559
    VOLPAN 1.000000 0 1 -1
    MIDIOUT -1
    ISBUS 0 0
    <ITEM
      POSITION 2.614029
      LENGTH 73.147660
      NAME "Violin1"
      VOLPAN 1 0 1 -1
      <SOURCE MIDI
        HASDATA 1 960 QN
        E 0 c3 28 00
        E 3848 93 49 4f
        E 3840 83 49 00
        E 3838 93 4e 51
        E 3840 83 4e 00
        E 7686 93 53 53
        E 3832 93 4f 51
        E 8 83 53 00
        E 3830 93 4e 51
        E 2 83 4f 00
        E 3838 83 4e 00
        E 10 93 53 51
        E 3837 93 53 51
        E 3 83 53 00
        E 3833 93 51 51
        E 4 83 53 00
        E 3835 93 4e 53
        E 1 83 51 00
        E 3837 93 4a 4f
        E 2 83 4e 00
        E 3837 93 47 4f
        E 1 83 4a 00
        E 3838 93 47 51
        E 1 83 47 00
        E 3839 83 47 00
        E 10 93 45 55
        E 3840 83 45 00
        E 1 93 42 51
        E 3840 83 42 00
        E 3 93 3d 55
        E 3827 93 43 53
        E 13 83 3d 00
        E 3827 83 43 00
        E 1 93 3e 4e
        E 3840 83 3e 00
        E 12 93 3b 53
        E 3835 93 49 52
        E 5 83 3b 00
        E 3835 83 49 00
        E 5 93 3e 55
        E 3840 83 3e 00
        E 3836 93 39 51
        E 3840 83 39 00
        E 3836 93 43 52
        E 3840 83 43 00
        E 8 93 39 55
        E 3840 83 39 00
        E 0 b3 7b 00
        E 1 ff 2f 00
      >
    >
  >
  <TRACK
    NAME "Strings"
    PEAKCOL 4284186559
    VOLPAN 1.000000 0 1 -1
    MIDIOUT -1
    ISBUS 0 0
    <ITEM
      POSITION 0.000000
      LENGTH 75.758698
      NAME "Strings"
      VOLPAN 1 0 1 -1
      <SOURCE MIDI
        HASDATA 1 960 QN
        E 0 c4 30 00
        E 0 94 4a 31
        E 10 94 4a 31
        E 4 94 42 31
        E 1899 94 4a 31
        E 10 94 32 31
        E 5 84 4a 00
        E 0 94 4a 31
        E 3 84 42 00
        E 0 94 42 31
        E 7 84 4a 00
        E 1895 84 4a 00
        E 5 94 4a 31
        E 2 94 3d 31
        E 2 84 42 00
        E 6 94 4a 31
        E 11 84 4a 00
        E 3 84 32 00
        E 1898 84 3d 00
        E 2 94 4a 31
        E 1 84 4a 00
        E 1 84 4a 00
        E 1 94 4a 31
        E 1915 84 4a 00
        E 6 84 4a 00
        E 1907 94 47 31
        E 6 94 3e 31
        E 2 94 4a 31
        E 5 94 42 31
        E 2 94 32 31
        E 1905 94 32 31
        E 2 84 47 00
        E 5 84 4a 00
        E 1 84 32 00
        E 11 84 3e 00
        E 2 84 42 00
        E 1898 84 32 00
        E 8 94 3b 31
        E 12 94 4a 31
        E 1899 94 32 31
        E 9 84 3b 00
        E 1 94 42 31
        E 1 84 4a 00
        E 4 94 3e 31
        E 1918 94 4a 31
        E 3 84 32 00
        E 5 84 42 00
        E 11 84 3e 00
        E 1909 94 4a 31
        E 3 84 4a 00
        E 1892 94 40 31
        E 6 94 4a 31
        E 7 94 39 31
        E 2 94 40 31
        E 21 84 4a 00
        E 1872 84 40 00
        E 15 94 4a 31
        E 6 94 32 31
        E 2 94 4a 31
        E 1 94 47 31
        E 1 84 39 00
        E 0 94 3b 31
        E 1 94 3e 31
        E 5 84 4a 00
        E 0 94 4a 31
        E 1 94 4a 31
        E 8 84 40 00
        E 1891 94 4a 31
        E 0 94 4a 31
        E 1 84 3e 00
        E 1 84 32 00
        E 0 84 4a 00
        E 2 94 4a 31
        E 0 94 4a 31
        E 4 84 4a 00
        E 1 84 4a 00
        E 5 84 3b 00
        E 0 94 3b 31
        E 10 94 32 31
        E 1 94 4a 31
        E 0 94 4a 31
        E 2 84 47 00
        E 3 84 4a 00
        E 1887 84 4a 00
        E 8 94 32 31
        E 3 84 4a 00
        E 4 84 4a 00
        E 0 94 47 31
        E 2 84 3b 00
        E 0 94 3b 31
        E 3 94 4a 31
        E 1 84 4a 00
        E 0 94 4a 31
        E 0 94 4a 31
        E 1 94 4a 31
        E 1 94 4a 31
        E 1 84 4a 00
        E 13 84 32 00
        E 2 84 4a 00
        E 1882 84 47 00
        E 3 94 4a 31
        E 5 84 4a 00
        E 6 94 4a 31
        E 1 84 4a 00
        E 1 84 3b 00
        E 0 94 3b 31
        E 2 84 4a 00
        E 0 94 4a 31
        E 4 84 32 00
        E 1 94 4a 31
        E 1 94 4a 31
        E 3 94 4a 31
        E 1 94 3e 31
        E 7 84 4a 00
        E 2 84 4a 00
        E 1885 94 4a 31
        E 5 94 3e 31
        E 2 94 4a 31
        E 1 84 4a 00
        E 5 84 4a 00
        E 1 84 3b 00
        E 0 84 4a 00
        E 0 84 3e 00
        E 0 94 39 31
        E 2 84 4a 00
        E 4 94 4a 31
        E 1 94 32 31
        E 1 84 4a 00
        E 2 94 45 31
        E 3 94 4a 31
        E 2 84 4a 00
        E 1881 84 4a 00
        E 10 94 4a 31
        E 2 84 4a 00
        E 1 94 4a 31
        E 0 94 3e 31
        E 2 94 4a 31
        E 1 84 4a 00
        E 1 94 4a 31
        E 6 84 32 00
        E 1 84 39 00
        E 0 94 42 31
        E 0 94 39 31
        E 2 94 4a 31
        E 1 84 3e 00
        E 6 84 4a 00
        E 14 84 45 00
        E 1872 84 4a 00
        E 0 84 4a 00
        E 8 84 4a 00
        E 2 84 3e 00
        E 2 94 32 31
        E 3 94 32 31
        E 1 84 4a 00
        E 5 94 4a 31
        E 1 84 4a 00
        E 2 94 3e 31
        E 1 84 39 00
        E 0 94 37 31
        E 1 94 4a 31
        E 0 94 32 31
        E 5 94 4a 31
        E 7 84 42 00
        E 1896 84 32 00
        E 0 94 3e 31
        E 1 84 4a 00
        E 3 84 4a 00
        E 1 84 32 00
        E 3 94 4a 31
        E 1 94 4a 31
        E 0 94 32 31
        E 2 84 37 00
        E 0 94 37 31
        E 3 94 4a 31
        E 1 84 32 00
        E 1 94 43 31
        E 3 84 4a 00
        E 5 94 4a 31
        E 2 84 3e 00
        E 1876 84 3e 00
        E 18 84 32 00
        E 3 84 4a 00
        E 0 94 4a 31
        E 0 94 4a 31
        E 5 94 32 31
        E 3 84 37 00
        E 0 94 39 31
        E 2 94 32 31
        E 2 84 4a 00
        E 2 84 43 00
        E 6 84 4a 00
        E 1 94 32 31
        E 0 94 40 31
        E 1 94 4a 31
        E 5 84 4a 00
        E 1885 84 32 00
        E 4 94 40 31
        E 0 94 4a 31
        E 1 94 4a 31
        E 1 94 3d 31
        E 1 84 4a 00
        E 9 84 39 00
        E 0 94 39 31
        E 2 84 4a 00
        E 4 84 32 00
        E 0 94 4a 31
        E 5 94 4a 31
        E 3 94 49 31
        E 9 84 4a 00
        E 1 84 32 00
        E 1 84 40 00
        E 1872 84 4a 00
        E 5 84 40 00
        E 7 84 4a 00
        E 0 94 32 31
        E 1 94 3e 31
        E 1 84 4a 00
        E 1 94 32 31
        E 2 84 3d 00
        E 1 94 4a 31
        E 5 84 39 00
        E 0 94 32 31
        E 0 94 39 31
        E 3 84 49 00
        E 5 94 4a 31
        E 4 94 32 31
        E 9 84 4a 00
        E 1871 84 32 00
        E 13 84 4a 00
        E 3 84 32 00
        E 1 94 32 31
        E 2 94 4a 31
        E 4 94 4a 31
        E 2 94 45 31
        E 1 84 3e 00
        E 0 94 4a 31
        E 2 84 39 00
        E 0 94 39 31
        E 3 84 32 00
        E 0 94 3e 31
        E 4 94 4a 31
        E 10 84 32 00
        E 1 84 4a 00
        E 1891 94 32 31
        E 1 84 4a 00
        E 1 84 4a 00
        E 1 84 3e 00
        E 0 94 4a 31
        E 5 94 4a 31
        E 2 94 32 31
        E 1 84 39 00
        E 0 94 39 31
        E 1 84 32 00
        E 6 84 45 00
        E 1 94 4a 31
        E 1 84 4a 00
        E 2 94 4a 31
        E 1 94 4a 31
        E 1 84 4a 00
        E 1885 84 32 00
        E 1 84 4a 00
        E 7 94 32 31
        E 1 94 3e 31
        E 4 94 4a 31
        E 1 94 4a 31
        E 4 94 4a 31
        E 4 84 39 00
        E 0 94 39 31
        E 1 84 4a 00
        E 5 84 32 00
        E 0 84 4a 00
        E 2 84 4a 00
        E 1 94 45 31
        E 2 94 32 31
        E 9 84 4a 00
        E 1872 84 3e 00
        E 11 84 32 00
        E 0 84 4a 00
        E 5 84 4a 00
        E 3 94 40 31
        E 0 94 3d 31
        E 4 94 49 31
        E 1 84 45 00
        E 4 84 4a 00
        E 0 84 39 00
        E 0 94 39 31
        E 0 94 32 31
        E 4 94 4a 31
        E 0 94 4a 31
        E 1 94 49 31
        E 7 84 32 00
        E 1889 84 49 00
        E 2 84 40 00
        E 9 94 4a 31
        E 5 94 49 31
        E 1 94 4a 31
        E 2 84 39 00
        E 0 94 39 31
        E 1 94 49 31
        E 1 84 32 00
        E 1 94 4a 31
        E 4 84 4a 00
        E 2 84 49 00
        E 0 94 3d 31
        E 1 84 3d 00
        E 3 94 4a 31
        E 10 84 4a 00
        E 1882 84 4a 00
        E 4 94 4a 31
        E 0 94 47 31
        E 1 84 4a 00
        E 0 84 49 00
        E 1 94 3e 31
        E 9 84 39 00
        E 0 94 3b 31
        E 2 84 4a 00
        E 0 84 3d 00
        E 0 94 4a 31
        E 2 84 49 00
        E 1 94 4a 31
        E 0 94 4a 31
        E 6 94 4a 31
        E 19 84 4a 00
        E 1878 94 32 31
        E 1 84 4a 00
        E 0 94 4a 31
        E 2 84 4a 00
        E 0 84 4a 00
        E 0 94 4a 31
        E 3 84 47 00
        E 0 94 32 31
        E 1 84 4a 00
        E 2 94 32 31
        E 3 84 3b 00
        E 0 94 3b 31
        E 2 84 3e 00
        E 5 84 4a 00
        E 0 94 4a 31
        E 3 94 4a 31
        E 1884 84 4a 00
        E 7 84 4a 00
        E 7 94 4a 31
        E 5 84 4a 00
        E 1 94 47 31
        E 2 94 47 31
        E 1 84 4a 00
        E 1 84 32 00
        E 1 94 4a 31
        E 1 84 3b 00
        E 0 94 3b 31
        E 1 84 32 00
        E 0 94 4a 31
        E 6 94 32 31
        E 4 84 32 00
        E 2 94 4a 31
        E 1893 94 4a 31
        E 3 94 4a 31
        E 2 84 47 00
        E 2 94 4a 31
        E 4 84 4a 00
        E 3 84 3b 00
        E 0 94 4a 31
        E 0 94 3e 31
        E 0 94 3b 31
        E 2 84 4a 00
        E 1 84 47 00
        E 5 94 4a 31
        E 2 94 32 31
        E 1 84 4a 00
        E 12 84 4a 00
        E 3 84 32 00
        E 1886 84 4a 00
        E 0 84 4a 00
        E 5 84 4a 00
        E 0 84 32 00
        E 2 84 4a 00
        E 0 94 4a 31
        E 1 84 3b 00
        E 0 94 39 32
        E 1 94 4a 31
        E 0 94 45 31
        E 1 94 3e 31
        E 1 94 4a 31
        E 1 84 4a 00
        E 4 84 3e 00
        E 2 94 4a 31
        E 4 94 32 31
        E 1889 84 4a 00
        E 11 94 42 31
        E 3 84 4a 00
        E 2 84 3e 00
        E 1 84 39 00
        E 0 94 39 32
        E 1 94 4a 31
        E 2 94 3e 31
        E 3 84 45 00
        E 1 94 32 31
        E 1 84 4a 00
        E 2 94 3e 31
        E 2 84 4a 00
        E 1 84 32 00
        E 0 94 4a 31
        E 1 94 4a 31
        E 1892 94 4a 31
        E 3 84 32 00
        E 4 84 3e 00
        E 1 94 40 31
        E 4 94 4a 31
        E 0 94 45 31
        E 2 84 39 00
        E 0 94 39 32
        E 2 94 49 31
        E 1 84 42 00
        E 0 84 4a 00
        E 7 94 40 31
        E 1 94 32 31
        E 1 84 4a 00
        E 7 84 3e 00
        E 4 84 4a 00
        E 1868 84 4a 00
        E 9 84 4a 00
        E 7 94 3d 31
        E 0 94 4a 31
        E 5 94 4a 31
        E 6 84 32 00
        E 2 84 39 00
        E 0 94 39 32
        E 3 94 4a 31
        E 2 94 4a 31
        E 1 84 40 00
        E 1 94 49 31
        E 2 84 40 00
        E 0 84 49 00
        E 2 94 49 31
        E 5 84 45 00
        E 1889 84 3d 00
        E 1 84 4a 00
        E 1 84 4a 00
        E 6 94 32 31
        E 5 94 4a 31
        E 1 94 4a 31
        E 1 84 39 00
        E 0 94 3b 32
        E 3 94 4a 31
        E 3 84 4a 00
        E 0 94 4a 31
        E 1 94 32 31
        E 3 84 4a 00
        E 0 94 32 31
        E 4 84 49 00
        E 9 84 49 00
        E 1878 84 4a 00
        E 10 94 4a 31
        E 1 84 32 00
        E 4 94 4a 31
        E 1 94 4a 31
        E 2 84 32 00
        E 1 84 3b 00
        E 0 94 3b 34
        E 3 94 47 31
        E 0 94 42 31
        E 2 84 4a 00
        E 0 94 4a 31
        E 1 84 4a 00
        E 7 84 4a 00
        E 1 94 4a 31
        E 5 84 32 00
        E 1881 84 4a 00
        E 9 84 42 00
        E 3 84 4a 00
        E 2 84 4a 00
        E 0 94 4a 31
        E 2 94 3e 31
        E 2 84 4a 00
        E 2 84 3b 00
        E 0 94 3b 34
        E 2 94 4a 31
        E 2 94 4a 31
        E 0 94 47 31
        E 3 94 4a 31
        E 4 94 4a 31
        E 5 84 47 00
        E 16 84 4a 00
        E 1874 94 3e 31
        E 2 84 47 00
        E 1 94 4a 31
        E 1 94 4a 31
        E 6 94 4a 31
        E 4 84 3b 00
        E 0 94 3b 35
        E 1 94 4a 31
        E 1 84 4a 00
        E 1 84 4a 00
        E 0 94 4a 31
        E 2 84 3e 00
        E 4 84 4a 00
        E 1 94 47 31
        E 7 84 4a 00
        E 2 84 4a 00
        E 1890 94 4a 31
        E 3 84 4a 00
        E 3 94 4a 31
        E 1 94 4a 31
        E 1 94 32 31
        E 1 84 4a 00
        E 0 94 4a 31
        E 1 94 4a 31
        E 1 84 4a 00
        E 0 84 3b 00
        E 0 94 39 35
        E 2 84 3e 00
        E 5 84 4a 00
        E 4 84 4a 00
        E 1 94 3e 31
        E 3 84 47 00
        E 1883 84 4a 00
        E 12 94 32 31
        E 1 94 4a 31
        E 2 94 45 31
        E 1 94 4a 31
        E 6 84 39 00
        E 0 94 39 35
        E 1 84 4a 00
        E 2 94 4a 31
        E 1 84 4a 00
        E 2 84 32 00
        E 0 94 4a 31
        E 4 94 42 31
        E 1 84 4a 00
        E 1 84 4a 00
        E 10 84 3e 00
        E 1873 84 32 00
        E 10 84 4a 00
        E 1 84 4a 00
        E 3 94 4a 31
        E 1 94 32 31
        E 2 84 45 00
        E 4 94 4a 31
        E 1 94 4a 31
        E 3 84 39 00
        E 0 94 3b 37
        E 3 94 43 31
        E 2 94 4a 31
        E 2 84 4a 00
        E 4 94 4a 31
        E 1 84 42 00
        E 11 84 4a 00
        E 1876 84 4a 00
        E 7 84 4a 00
        E 1 84 32 00
        E 0 84 43 00
        E 0 84 4a 00
        E 9 94 32 31
        E 4 84 3b 00
        E 0 94 3b 37
        E 1 94 4a 31
        E 3 94 4a 31
        E 2 94 32 31
        E 2 84 4a 00
        E 2 94 32 31
        E 3 94 43 31
        E 1 94 4a 31
        E 1 84 4a 00
        E 1892 84 32 00
        E 4 94 45 31
        E 2 94 32 31
        E 3 84 32 00
        E 2 94 4a 31
        E 0 94 4a 31
        E 2 84 3b 00
        E 0 94 4a 31
        E 0 94 3d 37
        E 3 84 43 00
        E 1 94 4a 31
        E 2 94 40 31
        E 1 84 4a 00
        E 2 84 32 00
        E 7 84 4a 00
        E 6 84 4a 00
        E 1880 84 45 00
        E 11 84 4a 00
        E 0 94 45 31
        E 5 94 32 31
        E 2 84 3d 00
        E 0 94 4a 31
        E 0 94 3d 38
        E 1 84 4a 00
        E 0 84 40 00
        E 0 94 45 31
        E 1 94 4a 31
        E 2 84 32 00
        E 2 84 4a 00
        E 3 84 4a 00
        E 2 94 4a 31
        E 1 94 4a 31
        E 1890 84 4a 00
        E 6 84 32 00
        E 6 94 42 31
        E 1 84 4a 00
        E 1 94 45 31
        E 1 94 4a 31
        E 3 84 3d 00
        E 0 94 3e 38
        E 2 84 45 00
        E 1 94 4a 31
        E 1 84 45 00
        E 0 94 32 31
        E 4 84 4a 00
        E 2 94 4a 31
        E 0 94 4a 31
        E 4 84 4a 00
        E 1887 84 45 00
        E 11 84 4a 00
        E 3 84 4a 00
        E 2 84 32 00
        E 3 84 3e 00
        E 3 94 4a 31
        E 9 84 42 00
        E 6 84 4a 00
        E 10 84 4a 00
        E 1886 94 4a 31
        E 24 84 4a 00
        E 1888 94 42 31
        E 17 84 4a 00
        E 5 94 32 31
        E 1901 94 4a 31
        E 2 94 32 31
        E 2 84 42 00
        E 5 84 32 00
        E 1912 94 4a 31
        E 1 84 4a 00
        E 3 84 32 00
        E 18 94 4a 31
        E 1901 84 4a 00
        E 4 94 4a 31
        E 3 94 3e 3b
        E 22 84 4a 00
        E 1878 84 4a 00
        E 6 94 32 31
        E 2 94 47 31
        E 12 84 3e 00
        E 1897 84 47 00
        E 10 84 32 00
        E 7 94 4a 31
        E 1 94 32 31
        E 9 94 4a 31
        E 2 94 4a 31
        E 1899 84 4a 00
        E 2 84 32 00
        E 8 84 4a 00
        E 3 94 47 31
        E 2 94 4a 3c
        E 10 84 4a 00
        E 0 94 4a 31
        E 2 94 4a 3c
        E 1894 94 32 31
        E 6 84 47 00
        E 0 94 32 31
        E 8 84 4a 00
        E 0 94 3e 3c
        E 2 84 4a 00
        E 24 84 4a 00
        E 1864 84 32 00
        E 20 84 32 00
        E 10 84 3e 00
        E 0 94 3e 3c
        E 9 94 32 31
        E 1911 84 3e 00
        E 9 84 32 00
        E 0 b4 7b 00
        E 1 ff 2f 00
      >
    >
  >
  <TRACK
    NAME "Choir"
    PEAKCOL 4284506208
    VOLPAN 1.000000 0 1 -1
    MIDIOUT -1
    ISBUS 0 0
    <ITEM
      POSITION 0.006600
      LENGTH 75.543701
      NAME "Choir"
      VOLPAN 1 0 1 -1
      <SOURCE MIDI
        HASDATA 1 960 QN
        E 0 c5 34 00
        E 10 95 42 5f
        E 15 95 34 5f
        E 3518 85 42 00
        E 15 85 34 00
        E 301 95 34 5c
        E 3533 85 34 00
        E 302 95 42 5c
        E 2 95 34 5b
        E 3531 85 42 00
        E 2 85 34 00
        E 292 95 3e 59
        E 4 95 43 5f
        E 3529 85 3e 00
        E 4 85 43 00
        E 309 95 3e 5c
        E 21 95 34 5f
        E 3512 85 3e 00
        E 21 85 34 00
        E 307 95 34 5f
        E 3533 85 34 00
        E 285 95 3e 5c
        E 1 95 42 5b
        E 11 95 34 5f
        E 0 95 3b 5c
        E 3521 85 3e 00
        E 1 85 42 00
        E 11 85 34 00
        E 0 85 3b 00
        E 290 95 3e 58
        E 13 95 43 5b
        E 5 95 3b 5f
        E 10 95 34 5c
        E 3505 85 3e 00
        E 13 85 43 00
        E 5 85 3b 00
        E 10 85 34 00
        E 284 95 3e 5c
        E 4 95 39 5b
        E 1 95 42 5c
        E 19 95 34 5c
        E 3509 85 3e 00
        E 4 85 39 00
        E 1 85 42 00
        E 19 85 34 00
        E 285 95 3e 58
        E 2 95 43 5c
        E 11 95 3b 5f
        E 9 95 34 5f
        E 3511 85 3e 00
        E 2 85 43 00
        E 11 85 3b 00
        E 9 85 34 00
        E 281 95 3d 5c
        E 5 95 40 5b
        E 2 95 39 5c
        E 3 95 34 5d
        E 3523 85 3d 00
        E 5 85 40 00
        E 2 85 39 00
        E 3 85 34 00
        E 299 95 42 59
        E 3 95 3e 59
        E 2 95 39 5c
        E 15 95 34 5f
        E 3513 85 42 00
        E 3 85 3e 00
        E 2 85 39 00
        E 15 85 34 00
        E 285 95 3e 5c
        E 2 95 42 58
        E 6 95 39 5c
        E 7 95 34 5c
        E 3518 85 3e 00
        E 2 85 42 00
        E 6 85 39 00
        E 7 85 34 00
        E 290 95 3d 5b
        E 6 95 40 5f
        E 7 95 39 59
        E 15 95 34 58
        E 3505 85 3d 00
        E 6 85 40 00
        E 7 85 39 00
        E 15 85 34 00
        E 284 95 42 59
        E 0 95 3e 5c
        E 6 95 3b 5c
        E 6 95 34 5c
        E 3521 85 42 00
        E 0 85 3e 00
        E 6 85 3b 00
        E 6 85 34 00
        E 294 95 3e 5c
        E 5 95 3b 5b
        E 1 95 43 5f
        E 15 95 34 5d
        E 3512 85 3e 00
        E 5 85 3b 00
        E 1 85 43 00
        E 15 85 34 00
        E 283 95 3e 58
        E 9 95 39 5c
        E 0 95 42 5b
        E 8 95 34 5d
        E 3516 85 3e 00
        E 9 85 39 00
        E 0 85 42 00
        E 8 85 34 00
        E 288 95 3d 58
        E 7 95 40 59
        E 6 95 39 5b
        E 1 95 34 5f
        E 3519 85 3d 00
        E 7 85 40 00
        E 6 85 39 00
        E 1 85 34 00
        E 295 95 3e 5d
        E 3 95 42 5c
        E 8 95 3b 5f
        E 11 95 34 5d
        E 3511 85 3e 00
        E 3 85 42 00
        E 8 85 3b 00
        E 11 85 34 00
        E 287 95 43 5d
        E 1 95 3e 5c
        E 7 95 3b 5c
        E 2 95 34 5c
        E 3523 85 43 00
        E 1 85 3e 00
        E 7 85 3b 00
        E 2 85 34 00
        E 299 95 3e 5f
        E 2 95 42 5f
        E 10 95 39 58
        E 4 95 34 5d
        E 3517 85 3e 00
        E 2 85 42 00
        E 10 85 39 00
        E 4 85 34 00
        E 286 95 3e 5b
        E 5 95 43 5c
        E 11 95 34 5f
        E 3 95 3b 5c
        E 3514 85 3e 00
        E 5 85 43 00
        E 11 85 34 00
        E 3 85 3b 00
        E 295 95 3d 59
        E 2 95 40 5b
        E 3 95 39 5f
        E 4 95 34 5f
        E 3524 85 3d 00
        E 2 85 40 00
        E 3 85 39 00
        E 4 85 34 00
        E 295 95 3e 5c
        E 4 95 39 5b
        E 4 95 42 5c
        E 9 95 34 5c
        E 3516 85 3e 00
        E 4 85 39 00
        E 4 85 42 00
        E 9 85 34 00
        E 305 95 39 5f
        E 7 95 34 5d
        E 3526 85 39 00
        E 7 85 34 00
        E 11809 95 42 59
        E 0 95 39 5c
        E 3533 85 42 00
        E 0 85 39 00
        E 0 b5 7b 00
        E 1 ff 2f 00
      >
    >
  >
  <TRACK
    NAME "Harp"
    PEAKCOL 4290756410
    VOLPAN 1.000000 0 1 -1
    MIDIOUT -1
    ISBUS 0 0
    <ITEM
      POSITION 0.083128
      LENGTH 75.636474
      NAME "Harp"
      VOLPAN 1 0 1 -1
      <SOURCE MIDI
        HASDATA 1 960 QN
        E 0 c6 2e 00
        E 122 96 36 4c
        E 241 96 3e 3b
        E 478 96 4e 2e
        E 241 96 4e 2e
        E 118 96 4a 2e
        E 242 96 42 2e
        E 116 96 3e 2e
        E 363 96 32 2e
        E 1869 86 3e 00
        E 2 86 4a 00
        E 1 86 4e 00
        E 0 86 32 00
        E 1 86 36 00
        E 0 86 4e 00
        E 0 86 42 00
        E 1 86 3e 00
        E 284 96 3d 42
        E 484 96 4c 32
        E 356 96 51 2e
        E 120 96 4c 2e
        E 2592 86 3d 00
        E 0 86 51 00
        E 0 86 4c 00
        E 4 86 4c 00
        E 886 96 4e 2e
        E 122 96 53 2e
        E 238 96 4a 2e
        E 120 96 47 2e
        E 121 96 42 2e
        E 2351 86 4e 00
        E 0 86 4a 00
        E 0 86 47 00
        E 1 86 42 00
        E 1 86 53 00
        E 43 96 32 4f
        E 604 96 47 32
        E 239 96 4f 2e
        E 961 96 37 2e
        E 116 96 32 2e
        E 1872 86 32 00
        E 0 86 32 00
        E 3 86 4f 00
        E 1 86 47 00
        E 0 86 37 00
        E 288 96 39 41
        E 1076 96 45 2e
        E 2472 86 45 00
        E 4 86 39 00
        E 43 96 34 52
        E 363 96 40 3b
        E 117 96 45 38
        E 125 96 49 34
        E 476 96 51 2e
        E 725 96 39 2e
        E 1986 86 34 00
        E 0 86 45 00
        E 1 86 51 00
        E 2 86 40 00
        E 2 86 49 00
        E 1 86 39 00
        E 48 96 32 51
        E 117 96 36 4b
        E 117 96 3b 46
        E 121 96 3e 3c
        E 119 96 42 3c
        E 121 96 47 34
        E 125 96 4a 2e
        E 119 96 4e 2e
        E 118 96 53 2e
        E 121 96 4e 2e
        E 120 96 4a 2e
        E 118 96 47 2e
        E 121 96 42 2e
        E 120 96 3e 2e
        E 120 96 3b 2e
        E 121 96 36 2e
        E 118 96 32 2e
        E 1870 86 3b 00
        E 0 86 42 00
        E 1 86 3e 00
        E 0 86 47 00
        E 1 86 47 00
        E 0 86 32 00
        E 1 86 36 00
        E 0 86 53 00
        E 0 86 42 00
        E 0 86 3e 00
        E 0 86 3b 00
        E 1 86 4e 00
        E 0 86 4a 00
        E 0 86 36 00
        E 1 86 4e 00
        E 1 86 32 00
        E 0 86 4a 00
        E 44 96 32 51
        E 118 96 37 4c
        E 125 96 3b 45
        E 118 96 3e 3c
        E 120 96 43 37
        E 117 96 47 32
        E 121 96 4a 32
        E 122 96 4f 2e
        E 120 96 53 2e
        E 121 96 4f 2e
        E 118 96 4a 2e
        E 123 96 47 2e
        E 117 96 43 2e
        E 123 96 3e 2e
        E 118 96 3b 2e
        E 122 96 37 2e
        E 118 96 32 2e
        E 1869 86 37 00
        E 0 86 47 00
        E 1 86 4a 00
        E 1 86 32 00
        E 0 86 4a 00
        E 0 86 43 00
        E 1 86 3e 00
        E 0 86 43 00
        E 0 86 4f 00
        E 0 86 53 00
        E 0 86 3b 00
        E 0 86 32 00
        E 1 86 4f 00
        E 1 86 3b 00
        E 0 86 47 00
        E 0 86 3e 00
        E 0 86 37 00
        E 44 96 32 4e
        E 122 96 36 4b
        E 119 96 39 44
        E 120 96 3e 3c
        E 118 96 42 3c
        E 125 96 45 38
        E 115 96 4a 32
        E 124 96 4e 2e
        E 122 96 51 2e
        E 120 96 4e 2e
        E 116 96 4a 2e
        E 119 96 45 2e
        E 120 96 42 2e
        E 123 96 3e 2e
        E 122 96 39 2e
        E 115 96 36 2e
        E 125 96 32 2e
        E 1866 86 42 00
        E 0 86 4a 00
        E 1 86 32 00
        E 0 86 45 00
        E 0 86 42 00
        E 0 86 36 00
        E 1 86 39 00
        E 0 86 3e 00
        E 0 86 4a 00
        E 1 86 36 00
        E 1 86 4e 00
        E 0 86 3e 00
        E 1 86 45 00
        E 1 86 51 00
        E 0 86 4e 00
        E 0 86 39 00
        E 0 86 32 00
        E 43 96 32 4f
        E 123 96 37 48
        E 117 96 3b 46
        E 122 96 3e 42
        E 117 96 43 3b
        E 125 96 47 35
        E 116 96 4a 2f
        E 119 96 4f 2e
        E 123 96 53 2e
        E 120 96 4f 2e
        E 120 96 4a 2e
        E 119 96 47 2e
        E 119 96 43 2e
        E 121 96 3e 2e
        E 124 96 3b 2e
        E 116 96 37 2e
        E 123 96 32 2e
        E 1867 86 43 00
        E 0 86 4f 00
        E 1 86 32 00
        E 0 86 3b 00
        E 0 86 4a 00
        E 0 86 43 00
        E 1 86 47 00
        E 0 86 3e 00
        E 0 86 37 00
        E 1 86 3e 00
        E 0 86 53 00
        E 0 86 4f 00
        E 0 86 4a 00
        E 1 86 37 00
        E 1 86 47 00
        E 0 86 32 00
        E 1 86 3b 00
        E 46 96 34 4f
        E 121 96 39 4b
        E 119 96 3d 42
        E 120 96 40 3b
        E 121 96 45 38
        E 118 96 49 37
        E 118 96 4c 32
        E 120 96 51 2e
        E 123 96 55 2e
        E 117 96 51 2e
        E 122 96 4c 2e
        E 122 96 49 2e
        E 119 96 45 2e
        E 116 96 40 2e
        E 122 96 3d 2e
        E 121 96 39 2e
        E 121 96 34 2e
        E 1868 86 40 00
        E 1 86 4c 00
        E 0 86 51 00
        E 0 86 51 00
        E 1 86 3d 00
        E 1 86 49 00
        E 0 86 4c 00
        E 0 86 39 00
        E 1 86 34 00
        E 0 86 3d 00
        E 0 86 40 00
        E 0 86 55 00
        E 0 86 45 00
        E 0 86 34 00
        E 1 86 39 00
        E 0 86 45 00
        E 0 86 49 00
        E 45 96 32 51
        E 120 96 36 46
        E 124 96 39 42
        E 119 96 3e 42
        E 118 96 42 37
        E 119 96 45 35
        E 120 96 4a 32
        E 122 96 4e 2e
        E 118 96 51 2e
        E 121 96 4e 2e
        E 117 96 4a 2e
        E 123 96 45 2e
        E 118 96 42 2e
        E 121 96 3e 2e
        E 119 96 39 2e
        E 124 96 36 2e
        E 119 96 32 2e
        E 1868 86 4a 00
        E 1 86 42 00
        E 0 86 39 00
        E 1 86 32 00
        E 0 86 36 00
        E 0 86 45 00
        E 0 86 4a 00
        E 0 86 51 00
        E 0 86 3e 00
        E 1 86 42 00
        E 0 86 4e 00
        E 0 86 45 00
        E 1 86 4e 00
        E 0 86 32 00
        E 1 86 3e 00
        E 0 86 36 00
        E 1 86 39 00
        E 43 96 32 4e
        E 121 96 36 46
        E 120 96 39 42
        E 120 96 3e 42
        E 120 96 42 38
        E 120 96 45 38
        E 121 96 4a 31
        E 121 96 4e 2e
        E 120 96 51 2e
        E 121 96 4e 2e
        E 117 96 4a 2e
        E 123 96 45 2e
        E 117 96 42 2e
        E 120 96 3e 2e
        E 122 96 39 2e
        E 119 96 36 2e
        E 121 96 32 2e
        E 1869 86 32 00
        E 1 86 36 00
        E 0 86 39 00
        E 0 86 3e 00
        E 0 86 42 00
        E 0 86 45 00
        E 0 86 4a 00
        E 0 86 42 00
        E 0 86 3e 00
        E 1 86 4a 00
        E 0 86 36 00
        E 1 86 4e 00
        E 0 86 51 00
        E 0 86 39 00
        E 0 86 32 00
        E 1 86 4e 00
        E 0 86 45 00
        E 43 96 34 4e
        E 126 96 39 4c
        E 115 96 3d 44
        E 123 96 40 3c
        E 117 96 45 3a
        E 124 96 49 35
        E 118 96 4c 2e
        E 118 96 51 2f
        E 121 96 55 2e
        E 120 96 51 2e
        E 121 96 4c 2e
        E 121 96 49 2e
        E 120 96 45 2e
        E 119 96 40 2e
        E 118 96 3d 2e
        E 123 96 39 2e
        E 119 96 34 2e
        E 1869 86 34 00
        E 1 86 3d 00
        E 0 86 45 00
        E 0 86 51 00
        E 0 86 3d 00
        E 1 86 55 00
        E 0 86 51 00
        E 1 86 4c 00
        E 0 86 4c 00
        E 0 86 40 00
        E 0 86 34 00
        E 1 86 40 00
        E 0 86 49 00
        E 0 86 45 00
        E 0 86 39 00
        E 1 86 49 00
        E 1 86 39 00
        E 43 96 32 4e
        E 122 96 36 49
        E 120 96 3b 41
        E 123 96 3e 3c
        E 119 96 42 38
        E 117 96 47 38
        E 119 96 4a 32
        E 124 96 4e 2e
        E 120 96 53 2e
        E 116 96 4e 2e
        E 124 96 4a 2e
        E 117 96 47 2e
        E 123 96 42 2e
        E 120 96 3e 2e
        E 119 96 3b 2e
        E 120 96 36 2e
        E 118 96 32 2e
        E 1871 86 32 00
        E 0 86 4a 00
        E 0 86 4e 00
        E 1 86 47 00
        E 0 86 47 00
        E 0 86 32 00
        E 1 86 36 00
        E 0 86 3b 00
        E 1 86 3b 00
        E 0 86 36 00
        E 1 86 42 00
        E 0 86 4e 00
        E 0 86 53 00
        E 0 86 4a 00
        E 0 86 42 00
        E 0 86 3e 00
        E 1 86 3e 00
        E 47 96 32 51
        E 119 96 37 49
        E 120 96 3b 46
        E 117 96 3e 3c
        E 121 96 43 3a
        E 119 96 47 35
        E 123 96 4a 2f
        E 122 96 4f 2e
        E 116 96 53 2e
        E 119 96 4f 2e
        E 121 96 4a 2e
        E 119 96 47 2e
        E 123 96 43 2e
        E 117 96 3e 2e
        E 119 96 3b 2e
        E 124 96 37 2e
        E 122 96 32 2e
        E 1866 86 3b 00
        E 1 86 3e 00
        E 0 86 47 00
        E 0 86 4f 00
        E 0 86 47 00
        E 0 86 3e 00
        E 1 86 43 00
        E 0 86 53 00
        E 0 86 4a 00
        E 2 86 37 00
        E 0 86 3b 00
        E 0 86 4a 00
        E 0 86 43 00
        E 0 86 37 00
        E 1 86 32 00
        E 1 86 4f 00
        E 0 86 32 00
        E 43 96 32 52
        E 120 96 36 46
        E 124 96 39 46
        E 118 96 3e 3f
        E 121 96 42 38
        E 116 96 45 35
        E 126 96 4a 32
        E 119 96 4e 2f
        E 121 96 51 2e
        E 114 96 4e 2e
        E 121 96 4a 2e
        E 122 96 45 2e
        E 119 96 42 2e
        E 123 96 3e 2e
        E 116 96 39 2e
        E 120 96 36 2e
        E 124 96 32 2e
        E 1867 86 45 00
        E 0 86 4e 00
        E 1 86 32 00
        E 0 86 36 00
        E 0 86 4a 00
        E 0 86 39 00
        E 0 86 36 00
        E 1 86 42 00
        E 1 86 3e 00
        E 0 86 45 00
        E 1 86 42 00
        E 1 86 39 00
        E 0 86 4e 00
        E 0 86 3e 00
        E 0 86 32 00
        E 1 86 4a 00
        E 0 86 51 00
        E 46 96 34 53
        E 122 96 39 4b
        E 117 96 3d 42
        E 118 96 40 3f
        E 121 96 45 3a
        E 122 96 49 37
        E 120 96 4c 2f
        E 118 96 51 2e
        E 119 96 55 2e
        E 123 96 51 2e
        E 117 96 4c 2e
        E 123 96 49 2e
        E 120 96 45 2e
        E 117 96 40 2e
        E 122 96 3d 2e
        E 121 96 39 2e
        E 117 96 34 2e
        E 1872 86 40 00
        E 0 86 55 00
        E 0 86 4c 00
        E 0 86 40 00
        E 0 86 34 00
        E 1 86 45 00
        E 0 86 51 00
        E 1 86 3d 00
        E 0 86 3d 00
        E 1 86 34 00
        E 0 86 49 00
        E 0 86 4c 00
        E 0 86 51 00
        E 0 86 49 00
        E 0 86 45 00
        E 0 86 39 00
        E 2 86 39 00
        E 46 96 32 4e
        E 120 96 36 4c
        E 121 96 3b 46
        E 121 96 3e 3f
        E 118 96 42 3c
        E 116 96 47 38
        E 121 96 4a 2f
        E 123 96 4e 2e
        E 116 96 53 2e
        E 123 96 4e 2e
        E 123 96 4a 2e
        E 118 96 47 2e
        E 122 96 42 2e
        E 115 96 3e 2e
        E 125 96 3b 2e
        E 117 96 36 2e
        E 118 96 32 2e
        E 1871 86 47 00
        E 0 86 53 00
        E 1 86 4a 00
        E 0 86 3e 00
        E 0 86 32 00
        E 2 86 4e 00
        E 0 86 36 00
        E 1 86 32 00
        E 0 86 36 00
        E 0 86 42 00
        E 0 86 4e 00
        E 0 86 47 00
        E 1 86 3b 00
        E 1 86 3e 00
        E 0 86 4a 00
        E 0 86 42 00
        E 0 86 3b 00
        E 46 96 32 55
        E 120 96 37 4c
        E 119 96 3b 46
        E 122 96 3e 42
        E 116 96 43 3a
        E 121 96 47 34
        E 120 96 4a 34
        E 120 96 4f 2e
        E 124 96 53 2e
        E 119 96 4f 2e
        E 119 96 4a 2e
        E 121 96 47 2e
        E 119 96 43 2e
        E 118 96 3e 2e
        E 123 96 3b 2e
        E 119 96 37 2e
        E 119 96 32 2e
        E 1870 86 43 00
        E 1 86 47 00
        E 0 86 4a 00
        E 0 86 4f 00
        E 0 86 3e 00
        E 1 86 3b 00
        E 0 86 32 00
        E 1 86 32 00
        E 0 86 37 00
        E 0 86 4a 00
        E 0 86 43 00
        E 0 86 37 00
        E 1 86 3e 00
        E 0 86 4f 00
        E 0 86 47 00
        E 0 86 3b 00
        E 1 86 53 00
        E 43 96 32 4f
        E 123 96 36 4e
        E 117 96 39 45
        E 121 96 3e 3f
        E 121 96 42 3b
        E 118 96 45 35
        E 123 96 4a 2e
        E 119 96 4e 2e
        E 119 96 51 2e
        E 118 96 4e 2e
        E 121 96 4a 2e
        E 122 96 45 2e
        E 121 96 42 2e
        E 120 96 3e 2e
        E 120 96 39 2e
        E 121 96 36 2e
        E 120 96 32 2e
        E 1867 86 4e 00
        E 1 86 32 00
        E 0 86 39 00
        E 0 86 45 00
        E 0 86 4a 00
        E 1 86 3e 00
        E 0 86 51 00
        E 1 86 42 00
        E 0 86 4e 00
        E 0 86 45 00
        E 1 86 36 00
        E 0 86 4a 00
        E 0 86 42 00
        E 0 86 3e 00
        E 0 86 39 00
        E 1 86 36 00
        E 0 86 32 00
        E 47 96 32 51
        E 121 96 37 4b
        E 120 96 3b 41
        E 119 96 3e 3f
        E 118 96 43 3a
        E 119 96 47 32
        E 122 96 4a 2e
        E 119 96 4f 2e
        E 123 96 53 2e
        E 120 96 4f 2e
        E 120 96 4a 2e
        E 117 96 47 2e
        E 120 96 43 2e
        E 118 96 3e 2e
        E 123 96 3b 2e
        E 120 96 37 2e
        E 117 96 32 2e
        E 1872 86 3e 00
        E 0 86 32 00
        E 1 86 47 00
        E 1 86 43 00
        E 0 86 4f 00
        E 0 86 47 00
        E 0 86 43 00
        E 1 86 4a 00
        E 0 86 3b 00
        E 0 86 37 00
        E 1 86 32 00
        E 0 86 3e 00
        E 1 86 37 00
        E 0 86 3b 00
        E 0 86 53 00
        E 0 86 4f 00
        E 0 86 4a 00
        E 46 96 34 51
        E 118 96 39 48
        E 124 96 3d 45
        E 116 96 40 42
        E 122 96 45 3b
        E 122 96 49 38
        E 121 96 4c 31
        E 119 96 51 2f
        E 121 96 55 2e
        E 116 96 51 2e
        E 123 96 4c 2e
        E 121 96 49 2e
        E 116 96 45 2e
        E 118 96 40 2e
        E 123 96 3d 2e
        E 119 96 39 2e
        E 122 96 34 2e
        E 1868 86 40 00
        E 1 86 39 00
        E 0 86 40 00
        E 1 86 51 00
        E 0 86 45 00
        E 0 86 39 00
        E 1 86 34 00
        E 0 86 45 00
        E 0 86 3d 00
        E 1 86 34 00
        E 1 86 3d 00
        E 0 86 49 00
        E 0 86 51 00
        E 0 86 4c 00
        E 1 86 4c 00
        E 0 86 55 00
        E 0 86 49 00
        E 45 96 32 4f
        E 118 96 36 46
        E 122 96 39 42
        E 120 96 3e 3c
        E 118 96 42 3b
        E 123 96 45 32
        E 117 96 4a 2f
        E 602 96 45 2e
        E 2470 86 36 00
        E 0 86 42 00
        E 0 86 4a 00
        E 2 86 32 00
        E 0 86 39 00
        E 0 86 3e 00
        E 0 86 45 00
        E 1 86 45 00
        E 169 96 36 4c
        E 718 96 4e 2e
        E 600 96 42 2e
        E 238 96 39 2e
        E 2112 86 39 00
        E 2 86 4e 00
        E 0 86 42 00
        E 2 86 36 00
        E 283 96 3d 46
        E 362 96 49 38
        E 242 96 51 2e
        E 356 96 4c 2e
        E 725 96 34 2e
        E 1867 86 3d 00
        E 0 86 4c 00
        E 2 86 49 00
        E 2 86 51 00
        E 1 86 34 00
        E 285 96 3b 44
        E 720 96 53 2e
        E 121 96 4e 2e
        E 358 96 42 2e
        E 123 96 3e 2e
        E 116 96 3b 2e
        E 240 96 32 2e
        E 1872 86 3b 00
        E 0 86 32 00
        E 1 86 42 00
        E 1 86 3b 00
        E 0 86 53 00
        E 1 86 4e 00
        E 1 86 3e 00
        E 284 96 3b 42
        E 124 96 3e 42
        E 237 96 47 34
        E 124 96 4a 32
        E 717 96 43 2e
        E 119 96 3e 2e
        E 2231 86 3b 00
        E 1 86 47 00
        E 0 86 3e 00
        E 1 86 43 00
        E 2 86 3e 00
        E 1 86 4a 00
        E 405 96 4a 3e
        E 481 96 4e 2e
        E 117 96 51 2e
        E 481 96 42 2e
        E 2351 86 51 00
        E 1 86 42 00
        E 1 86 4a 00
        E 1 86 4e 00
        E 0 b6 7b 00
        E 1 ff 2f 00
      >
    >
  >
  <TRACK
    NAME "Glock"
    PEAKCOL 4290756410
    VOLPAN 1.000000 0 1 -1
    MIDIOUT -1
    ISBUS 0 0
    <ITEM
      POSITION 0.652174
      LENGTH 74.643478
      NAME "Glock"
      VOLPAN 1 0 1 -1
      <SOURCE MIDI
        HASDATA 1 960 QN
        E 0 c7 09 00
        E 960 97 6c 4f
        E 288 87 6c 00
        E 1632 97 6c 49
        E 288 87 6c 00
        E 3552 97 6c 49
        E 288 87 6c 00
        E 1632 97 6c 51
        E 288 87 6c 00
        E 672 97 6c 51
        E 288 87 6c 00
        E 1632 97 6c 46
        E 288 87 6c 00
        E 672 97 6c 48
        E 288 87 6c 00
        E 2592 97 6c 4e
        E 288 87 6c 00
        E 2592 97 6c 44
        E 288 87 6c 00
        E 3552 97 6c 49
        E 288 87 6c 00
        E 672 97 6c 46
        E 288 87 6c 00
        E 672 97 6c 45
        E 288 87 6c 00
        E 672 97 6c 4e
        E 288 87 6c 00
        E 672 97 6c 46
        E 288 87 6c 00
        E 672 97 6c 52
        E 288 87 6c 00
        E 672 97 6c 45
        E 288 87 6c 00
        E 672 97 6c 45
        E 288 87 6c 00
        E 672 97 6c 46
        E 288 87 6c 00
        E 672 97 6c 51
        E 288 87 6c 00
        E 672 97 6c 51
        E 288 87 6c 00
        E 672 97 6c 44
        E 288 87 6c 00
        E 672 97 6c 4f
        E 288 87 6c 00
        E 672 97 6c 51
        E 288 87 6c 00
        E 672 97 6c 49
        E 288 87 6c 00
        E 672 97 6c 4f
        E 288 87 6c 00
        E 672 97 6c 4e
        E 288 87 6c 00
        E 672 97 6c 45
        E 288 87 6c 00
        E 672 97 6c 46
        E 288 87 6c 00
        E 672 97 6c 46
        E 288 87 6c 00
        E 672 97 6c 52
        E 288 87 6c 00
        E 672 97 6c 46
        E 288 87 6c 00
        E 672 97 6c 49
        E 288 87 6c 00
        E 672 97 6c 4b
        E 288 87 6c 00
        E 672 97 6c 46
        E 288 87 6c 00
        E 672 97 6c 51
        E 288 87 6c 00
        E 672 97 6c 51
        E 288 87 6c 00
        E 672 97 6c 49
        E 288 87 6c 00
        E 672 97 6c 4b
        E 288 87 6c 00
        E 672 97 6c 51
        E 288 87 6c 00
        E 672 97 6c 4c
        E 288 87 6c 00
        E 672 97 6c 4b
        E 288 87 6c 00
        E 672 97 6c 49
        E 288 87 6c 00
        E 672 97 6c 53
        E 288 87 6c 00
        E 672 97 6c 51
        E 288 87 6c 00
        E 672 97 6c 49
        E 288 87 6c 00
        E 672 97 6c 46
        E 288 87 6c 00
        E 672 97 6c 46
        E 288 87 6c 00
        E 672 97 6c 46
        E 288 87 6c 00
        E 672 97 6c 4b
        E 288 87 6c 00
        E 672 97 6c 4b
        E 288 87 6c 00
        E 672 97 6c 4b
        E 288 87 6c 00
        E 672 97 6c 4e
        E 288 87 6c 00
        E 672 97 6c 51
        E 288 87 6c 00
        E 672 97 6c 4c
        E 288 87 6c 00
        E 672 97 6c 53
        E 288 87 6c 00
        E 672 97 6c 44
        E 288 87 6c 00
        E 672 97 6c 48
        E 288 87 6c 00
        E 672 97 6c 52
        E 288 87 6c 00
        E 672 97 6c 49
        E 288 87 6c 00
        E 672 97 6c 51
        E 288 87 6c 00
        E 672 97 6c 4f
        E 288 87 6c 00
        E 672 97 6c 49
        E 288 87 6c 00
        E 672 97 6c 49
        E 288 87 6c 00
        E 672 97 6c 4c
        E 288 87 6c 00
        E 672 97 6c 53
        E 288 87 6c 00
        E 672 97 6c 49
        E 288 87 6c 00
        E 672 97 6c 4e
        E 288 87 6c 00
        E 672 97 6c 4f
        E 288 87 6c 00
        E 672 97 6c 4c
        E 288 87 6c 00
        E 672 97 6c 52
        E 288 87 6c 00
        E 672 97 6c 49
        E 288 87 6c 00
        E 672 97 6c 53
        E 288 87 6c 00
        E 672 97 6c 4b
        E 288 87 6c 00
        E 672 97 6c 4f
        E 288 87 6c 00
        E 672 97 6c 53
        E 288 87 6c 00
        E 672 97 6c 4f
        E 288 87 6c 00
        E 672 97 6c 4c
        E 288 87 6c 00
        E 672 97 6c 49
        E 288 87 6c 00
        E 672 97 6c 45
        E 288 87 6c 00
        E 2592 97 6c 4e
        E 288 87 6c 00
        E 672 97 6c 4c
        E 288 87 6c 00
        E 13152 97 6c 4e
        E 288 87 6c 00
        E 672 97 6c 51
        E 288 87 6c 00
        E 1632 97 6c 45
        E 288 87 6c 00
        E 672 97 6c 4e
        E 288 87 6c 00
        E 672 97 6c 4c
        E 288 87 6c 00
        E 0 b7 7b 00
        E 1 ff 2f 00
      >
    >
  >
  <TRACK
    NAME "Bass"
    PEAKCOL 4286528191
    VOLPAN 1.000000 0 1 -1
    MIDIOUT -1
    ISBUS 0 0
    <ITEM
      POSITION 0.000000
      LENGTH 75.686957
      NAME "Bass"
      VOLPAN 1 0 1 -1
      <SOURCE MIDI
        HASDATA 1 960 QN
        E 0 c8 2b 00
        E 0 98 26 5f
        E 864 88 26 00
        E 96 98 23 55
        E 864 88 23 00
        E 96 98 21 5f
        E 864 88 21 00
        E 96 98 25 55
        E 864 88 25 00
        E 96 98 25 5f
        E 864 88 25 00
        E 96 98 21 55
        E 864 88 21 00
        E 96 98 21 5f
        E 864 88 21 00
        E 96 98 1c 55
        E 864 88 1c 00
        E 96 98 1c 5f
        E 864 88 1c 00
        E 96 98 1f 55
        E 864 88 1f 00
        E 96 98 23 5f
        E 864 88 23 00
        E 96 98 28 55
        E 864 88 28 00
        E 96 98 26 5f
        E 864 88 26 00
        E 96 98 26 55
        E 864 88 26 00
        E 96 98 23 5f
        E 864 88 23 00
        E 96 98 26 55
        E 864 88 26 00
        E 96 98 26 5f
        E 864 88 26 00
        E 96 98 25 55
        E 864 88 25 00
        E 96 98 21 5f
        E 864 88 21 00
        E 96 98 26 55
        E 864 88 26 00
        E 96 98 25 5f
        E 864 88 25 00
        E 96 98 21 55
        E 864 88 21 00
        E 96 98 21 5f
        E 864 88 21 00
        E 96 98 23 55
        E 864 88 23 00
        E 96 98 26 5f
        E 864 88 26 00
        E 96 98 23 55
        E 864 88 23 00
        E 96 98 23 5f
        E 864 88 23 00
        E 96 98 1f 55
        E 864 88 1f 00
        E 96 98 1c 5f
        E 864 88 1c 00
        E 96 98 1c 55
        E 864 88 1c 00
        E 96 98 1c 5f
        E 864 88 1c 00
        E 96 98 1f 55
        E 864 88 1f 00
        E 96 98 1c 5f
        E 864 88 1c 00
        E 96 98 21 55
        E 864 88 21 00
        E 96 98 21 5f
        E 864 88 21 00
        E 96 98 25 55
        E 864 88 25 00
        E 96 98 26 5f
        E 864 88 26 00
        E 96 98 26 55
        E 864 88 26 00
        E 96 98 23 5f
        E 864 88 23 00
        E 96 98 23 55
        E 864 88 23 00
        E 96 98 25 5f
        E 864 88 25 00
        E 96 98 23 55
        E 864 88 23 00
        E 96 98 21 5f
        E 864 88 21 00
        E 96 98 23 55
        E 864 88 23 00
        E 96 98 26 5f
        E 864 88 26 00
        E 96 98 28 55
        E 864 88 28 00
        E 96 98 2d 5f
        E 864 88 2d 00
        E 96 98 31 55
        E 864 88 31 00
        E 96 98 32 5f
        E 864 88 32 00
        E 96 98 31 55
        E 864 88 31 00
        E 96 98 2d 5f
        E 864 88 2d 00
        E 96 98 31 55
        E 864 88 31 00
        E 96 98 31 5f
        E 864 88 31 00
        E 96 98 2f 55
        E 864 88 2f 00
        E 96 98 2d 5f
        E 864 88 2d 00
        E 96 98 2a 55
        E 864 88 2a 00
        E 96 98 26 5f
        E 864 88 26 00
        E 96 98 26 55
        E 864 88 26 00
        E 96 98 23 5f
        E 864 88 23 00
        E 96 98 26 55
        E 864 88 26 00
        E 96 98 26 5f
        E 864 88 26 00
        E 96 98 28 55
        E 864 88 28 00
        E 96 98 23 5f
        E 864 88 23 00
        E 96 98 21 55
        E 864 88 21 00
        E 96 98 26 5f
        E 864 88 26 00
        E 96 98 25 55
        E 864 88 25 00
        E 96 98 21 5f
        E 864 88 21 00
        E 96 98 1c 55
        E 864 88 1c 00
        E 96 98 1c 5f
        E 864 88 1c 00
        E 96 98 1c 55
        E 864 88 1c 00
        E 96 98 21 5f
        E 864 88 21 00
        E 96 98 1c 55
        E 864 88 1c 00
        E 96 98 1c 5f
        E 864 88 1c 00
        E 96 98 1c 55
        E 864 88 1c 00
        E 96 98 1c 5f
        E 864 88 1c 00
        E 96 98 21 55
        E 864 88 21 00
        E 96 98 26 5f
        E 864 88 26 00
        E 96 98 26 55
        E 864 88 26 00
        E 96 98 23 5f
        E 864 88 23 00
        E 96 98 1f 55
        E 864 88 1f 00
        E 96 98 1c 5f
        E 864 88 1c 00
        E 96 98 1c 55
        E 864 88 1c 00
        E 96 98 21 5f
        E 864 88 21 00
        E 96 98 23 55
        E 864 88 23 00
        E 96 98 26 5f
        E 864 88 26 00
        E 96 98 26 55
        E 864 88 26 00
        E 96 98 23 5f
        E 864 88 23 00
        E 96 98 23 55
        E 864 88 23 00
        E 96 98 25 5f
        E 864 88 25 00
        E 96 98 26 55
        E 864 88 26 00
        E 96 98 21 5f
        E 864 88 21 00
        E 96 98 23 55
        E 864 88 23 00
        E 96 98 26 5f
        E 864 88 26 00
        E 96 98 2b 55
        E 864 88 2b 00
        E 96 98 2d 5f
        E 864 88 2d 00
        E 96 98 2a 55
        E 864 88 2a 00
        E 96 98 26 5f
        E 864 88 26 00
        E 96 98 25 55
        E 864 88 25 00
        E 96 98 21 5f
        E 864 88 21 00
        E 96 98 25 55
        E 864 88 25 00
        E 96 98 25 5f
        E 864 88 25 00
        E 96 98 26 55
        E 864 88 26 00
        E 96 98 21 5f
        E 864 88 21 00
        E 96 98 1f 55
        E 864 88 1f 00
        E 96 98 1c 5f
        E 864 88 1c 00
        E 96 98 1c 55
        E 864 88 1c 00
        E 96 98 1c 5f
        E 864 88 1c 00
        E 96 98 1f 55
        E 864 88 1f 00
        E 96 98 1c 5f
        E 864 88 1c 00
        E 96 98 21 55
        E 864 88 21 00
        E 96 98 23 5f
        E 864 88 23 00
        E 96 98 23 55
        E 864 88 23 00
        E 96 98 26 5f
        E 864 88 26 00
        E 96 98 2a 55
        E 864 88 2a 00
        E 96 98 2d 5f
        E 864 88 2d 00
        E 96 98 2b 55
        E 864 88 2b 00
        E 0 b8 7b 00
        E 1 ff 2f 00
      >
    >
  >
  <TRACK
    NAME "Timpani"
    PEAKCOL 4290722362
    VOLPAN 1.000000 0 1 -1
    MIDIOUT -1
    ISBUS 0 0
    <ITEM
      POSITION 0.081522
      LENGTH 75.491304
      NAME "Timpani"
      VOLPAN 1 0 1 -1
      <SOURCE MIDI
        HASDATA 1 960 QN
        E 0 ca 2f 00
        E 120 9a 26 5d
        E 96 8a 26 00
        E 144 9a 26 5d
        E 96 8a 26 00
        E 384 9a 26 68
        E 96 8a 26 00
        E 144 9a 26 6a
        E 96 8a 26 00
        E 24 9a 26 6d
        E 96 8a 26 00
        E 144 9a 26 70
        E 96 8a 26 00
        E 24 9a 26 70
        E 96 8a 26 00
        E 264 9a 26 6f
        E 96 8a 26 00
        E 264 9a 26 70
        E 96 8a 26 00
        E 384 9a 26 70
        E 96 8a 26 00
        E 264 9a 26 68
        E 96 8a 26 00
        E 24 9a 26 60
        E 96 8a 26 00
        E 1584 9a 25 6a
        E 96 8a 25 00
        E 24 9a 25 6d
        E 96 8a 25 00
        E 144 9a 25 70
        E 96 8a 25 00
        E 24 9a 25 70
        E 96 8a 25 00
        E 24 9a 25 70
        E 96 8a 25 00
        E 504 9a 25 6f
        E 96 8a 25 00
        E 504 9a 25 69
        E 96 8a 25 00
        E 144 9a 25 62
        E 96 8a 25 00
        E 864 9a 26 5b
        E 96 8a 26 00
        E 24 9a 26 5d
        E 96 8a 26 00
        E 264 9a 26 6a
        E 96 8a 26 00
        E 984 9a 26 70
        E 96 8a 26 00
        E 624 9a 26 70
        E 96 8a 26 00
        E 264 9a 26 6c
        E 96 8a 26 00
        E 24 9a 26 70
        E 96 8a 26 00
        E 24 9a 26 68
        E 96 8a 26 00
        E 384 9a 26 62
        E 96 8a 26 00
        E 624 9a 26 65
        E 96 8a 26 00
        E 624 9a 26 6c
        E 96 8a 26 00
        E 744 9a 26 6d
        E 96 8a 26 00
        E 624 9a 26 68
        E 96 8a 26 00
        E 504 9a 26 62
        E 96 8a 26 00
        E 144 9a 26 5f
        E 96 8a 26 00
        E 504 9a 26 60
        E 96 8a 26 00
        E 264 9a 26 6d
        E 96 8a 26 00
        E 144 9a 26 6d
        E 96 8a 26 00
        E 264 9a 26 6f
        E 96 8a 26 00
        E 624 9a 26 70
        E 96 8a 26 00
        E 264 9a 26 6a
        E 96 8a 26 00
        E 624 9a 26 68
        E 96 8a 26 00
        E 24 9a 26 6d
        E 96 8a 26 00
        E 264 9a 26 5f
        E 96 8a 26 00
        E 24 9a 26 59
        E 96 8a 26 00
        E 24 9a 25 5c
        E 96 8a 25 00
        E 144 9a 25 58
        E 96 8a 25 00
        E 264 9a 25 68
        E 96 8a 25 00
        E 24 9a 25 6a
        E 96 8a 25 00
        E 144 9a 25 65
        E 96 8a 25 00
        E 24 9a 25 68
        E 96 8a 25 00
        E 624 9a 25 70
        E 96 8a 25 00
        E 24 9a 25 70
        E 96 8a 25 00
        E 744 9a 25 70
        E 96 8a 25 00
        E 264 9a 25 66
        E 96 8a 25 00
        E 24 9a 25 5f
        E 96 8a 25 00
        E 24 9a 25 69
        E 96 8a 25 00
        E 24 9a 25 5b
        E 96 8a 25 00
        E 24 9a 25 62
        E 96 8a 25 00
        E 24 9a 25 5c
        E 96 8a 25 00
        E 24 9a 26 56
        E 96 8a 26 00
        E 24 9a 26 62
        E 96 8a 26 00
        E 24 9a 26 5d
        E 96 8a 26 00
        E 24 9a 26 66
        E 96 8a 26 00
        E 24 9a 26 5f
        E 96 8a 26 00
        E 24 9a 26 68
        E 96 8a 26 00
        E 24 9a 26 69
        E 96 8a 26 00
        E 24 9a 26 6c
        E 96 8a 26 00
        E 24 9a 26 68
        E 96 8a 26 00
        E 24 9a 26 69
        E 96 8a 26 00
        E 24 9a 26 6f
        E 96 8a 26 00
        E 24 9a 26 70
        E 96 8a 26 00
        E 24 9a 26 70
        E 96 8a 26 00
        E 24 9a 26 70
        E 96 8a 26 00
        E 24 9a 26 70
        E 96 8a 26 00
        E 24 9a 26 70
        E 96 8a 26 00
        E 24 9a 26 70
        E 96 8a 26 00
        E 24 9a 26 6d
        E 96 8a 26 00
        E 24 9a 26 70
        E 96 8a 26 00
        E 24 9a 26 70
        E 96 8a 26 00
        E 24 9a 26 70
        E 96 8a 26 00
        E 24 9a 26 6f
        E 96 8a 26 00
        E 24 9a 26 70
        E 96 8a 26 00
        E 24 9a 26 70
        E 96 8a 26 00
        E 24 9a 26 6a
        E 96 8a 26 00
        E 24 9a 26 69
        E 96 8a 26 00
        E 24 9a 26 63
        E 96 8a 26 00
        E 24 9a 26 68
        E 96 8a 26 00
        E 24 9a 26 68
        E 96 8a 26 00
        E 24 9a 26 5f
        E 96 8a 26 00
        E 24 9a 26 5d
        E 96 8a 26 00
        E 24 9a 26 5c
        E 96 8a 26 00
        E 24 9a 26 56
        E 96 8a 26 00
        E 24 9a 26 5b
        E 96 8a 26 00
        E 24 9a 26 62
        E 96 8a 26 00
        E 24 9a 26 63
        E 96 8a 26 00
        E 24 9a 26 65
        E 96 8a 26 00
        E 24 9a 26 68
        E 96 8a 26 00
        E 24 9a 26 68
        E 96 8a 26 00
        E 24 9a 26 68
        E 96 8a 26 00
        E 24 9a 26 66
        E 96 8a 26 00
        E 24 9a 26 6a
        E 96 8a 26 00
        E 24 9a 26 70
        E 96 8a 26 00
        E 24 9a 26 70
        E 96 8a 26 00
        E 24 9a 26 6f
        E 96 8a 26 00
        E 24 9a 26 70
        E 96 8a 26 00
        E 24 9a 26 70
        E 96 8a 26 00
        E 24 9a 26 70
        E 96 8a 26 00
        E 24 9a 26 6d
        E 96 8a 26 00
        E 24 9a 26 70
        E 96 8a 26 00
        E 24 9a 26 70
        E 96 8a 26 00
        E 24 9a 26 70
        E 96 8a 26 00
        E 24 9a 26 70
        E 96 8a 26 00
        E 24 9a 26 70
        E 96 8a 26 00
        E 24 9a 26 6d
        E 96 8a 26 00
        E 24 9a 26 70
        E 96 8a 26 00
        E 24 9a 26 66
        E 96 8a 26 00
        E 24 9a 26 68
        E 96 8a 26 00
        E 24 9a 26 6d
        E 96 8a 26 00
        E 24 9a 26 66
        E 96 8a 26 00
        E 24 9a 26 65
        E 96 8a 26 00
        E 24 9a 26 66
        E 96 8a 26 00
        E 24 9a 26 62
        E 96 8a 26 00
        E 24 9a 26 5f
        E 96 8a 26 00
        E 24 9a 26 59
        E 96 8a 26 00
        E 24 9a 26 5f
        E 96 8a 26 00
        E 24 9a 26 60
        E 96 8a 26 00
        E 24 9a 26 59
        E 96 8a 26 00
        E 24 9a 26 62
        E 96 8a 26 00
        E 24 9a 26 62
        E 96 8a 26 00
        E 24 9a 26 66
        E 96 8a 26 00
        E 24 9a 26 63
        E 96 8a 26 00
        E 24 9a 26 6c
        E 96 8a 26 00
        E 24 9a 26 6d
        E 96 8a 26 00
        E 24 9a 26 6d
        E 96 8a 26 00
        E 24 9a 26 6f
        E 96 8a 26 00
        E 24 9a 26 69
        E 96 8a 26 00
        E 24 9a 26 69
        E 96 8a 26 00
        E 24 9a 26 70
        E 96 8a 26 00
        E 24 9a 26 70
        E 96 8a 26 00
        E 24 9a 26 70
        E 96 8a 26 00
        E 24 9a 26 6f
        E 96 8a 26 00
        E 24 9a 26 70
        E 96 8a 26 00
        E 24 9a 26 70
        E 96 8a 26 00
        E 24 9a 26 70
        E 96 8a 26 00
        E 24 9a 26 6f
        E 96 8a 26 00
        E 24 9a 26 68
        E 96 8a 26 00
        E 24 9a 26 69
        E 96 8a 26 00
        E 24 9a 26 6d
        E 96 8a 26 00
        E 24 9a 26 68
        E 96 8a 26 00
        E 24 9a 26 68
        E 96 8a 26 00
        E 24 9a 26 65
        E 96 8a 26 00
        E 24 9a 26 68
        E 96 8a 26 00
        E 24 9a 26 62
        E 96 8a 26 00
        E 24 9a 26 62
        E 96 8a 26 00
        E 24 9a 26 5f
        E 96 8a 26 00
        E 24 9a 26 5c
        E 96 8a 26 00
        E 24 9a 26 5d
        E 96 8a 26 00
        E 24 9a 26 5b
        E 96 8a 26 00
        E 24 9a 26 65
        E 96 8a 26 00
        E 24 9a 26 63
        E 96 8a 26 00
        E 24 9a 26 6d
        E 96 8a 26 00
        E 24 9a 26 63
        E 96 8a 26 00
        E 24 9a 26 6a
        E 96 8a 26 00
        E 24 9a 26 69
        E 96 8a 26 00
        E 24 9a 26 6f
        E 96 8a 26 00
        E 24 9a 26 69
        E 96 8a 26 00
        E 24 9a 26 6d
        E 96 8a 26 00
        E 24 9a 26 6f
        E 96 8a 26 00
        E 24 9a 26 6d
        E 96 8a 26 00
        E 24 9a 26 6f
        E 96 8a 26 00
        E 24 9a 26 6c
        E 96 8a 26 00
        E 24 9a 26 70
        E 96 8a 26 00
        E 24 9a 26 70
        E 96 8a 26 00
        E 24 9a 26 70
        E 96 8a 26 00
        E 24 9a 26 6d
        E 96 8a 26 00
        E 24 9a 26 70
        E 96 8a 26 00
        E 24 9a 26 6a
        E 96 8a 26 00
        E 24 9a 26 68
        E 96 8a 26 00
        E 24 9a 26 70
        E 96 8a 26 00
        E 24 9a 26 69
        E 96 8a 26 00
        E 24 9a 26 69
        E 96 8a 26 00
        E 24 9a 26 6f
        E 96 8a 26 00
        E 24 9a 26 63
        E 96 8a 26 00
        E 24 9a 26 62
        E 96 8a 26 00
        E 24 9a 26 5b
        E 96 8a 26 00
        E 24 9a 26 5c
        E 96 8a 26 00
        E 24 9a 26 56
        E 96 8a 26 00
        E 24 9a 25 56
        E 96 8a 25 00
        E 24 9a 25 5c
        E 96 8a 25 00
        E 24 9a 25 62
        E 96 8a 25 00
        E 24 9a 25 5c
        E 96 8a 25 00
        E 24 9a 25 63
        E 96 8a 25 00
        E 24 9a 25 65
        E 96 8a 25 00
        E 24 9a 25 69
        E 96 8a 25 00
        E 24 9a 25 68
        E 96 8a 25 00
        E 24 9a 25 6c
        E 96 8a 25 00
        E 24 9a 25 6c
        E 96 8a 25 00
        E 24 9a 25 6d
        E 96 8a 25 00
        E 24 9a 25 70
        E 96 8a 25 00
        E 24 9a 25 6a
        E 96 8a 25 00
        E 24 9a 25 6d
        E 96 8a 25 00
        E 24 9a 25 70
        E 96 8a 25 00
        E 24 9a 25 70
        E 96 8a 25 00
        E 24 9a 25 70
        E 96 8a 25 00
        E 24 9a 25 6f
        E 96 8a 25 00
        E 24 9a 25 6d
        E 96 8a 25 00
        E 24 9a 25 6a
        E 96 8a 25 00
        E 24 9a 25 69
        E 96 8a 25 00
        E 24 9a 25 6d
        E 96 8a 25 00
        E 24 9a 25 70
        E 96 8a 25 00
        E 24 9a 25 6d
        E 96 8a 25 00
        E 24 9a 25 68
        E 96 8a 25 00
        E 24 9a 25 68
        E 96 8a 25 00
        E 24 9a 25 66
        E 96 8a 25 00
        E 24 9a 25 66
        E 96 8a 25 00
        E 24 9a 25 5c
        E 96 8a 25 00
        E 24 9a 25 5c
        E 96 8a 25 00
        E 24 9a 25 59
        E 96 8a 25 00
        E 24 9a 25 5f
        E 96 8a 25 00
        E 24 9a 26 59
        E 96 8a 26 00
        E 24 9a 26 60
        E 96 8a 26 00
        E 24 9a 26 5b
        E 96 8a 26 00
        E 24 9a 26 62
        E 96 8a 26 00
        E 24 9a 26 65
        E 96 8a 26 00
        E 24 9a 26 5f
        E 96 8a 26 00
        E 24 9a 26 6a
        E 96 8a 26 00
        E 24 9a 26 6f
        E 96 8a 26 00
        E 24 9a 26 6c
        E 96 8a 26 00
        E 24 9a 26 6c
        E 96 8a 26 00
        E 24 9a 26 70
        E 96 8a 26 00
        E 24 9a 26 69
        E 96 8a 26 00
        E 24 9a 26 70
        E 96 8a 26 00
        E 24 9a 26 70
        E 96 8a 26 00
        E 24 9a 26 70
        E 96 8a 26 00
        E 24 9a 26 70
        E 96 8a 26 00
        E 24 9a 26 70
        E 96 8a 26 00
        E 24 9a 26 70
        E 96 8a 26 00
        E 24 9a 26 6c
        E 96 8a 26 00
        E 24 9a 26 70
        E 96 8a 26 00
        E 24 9a 26 6d
        E 96 8a 26 00
        E 24 9a 26 6d
        E 96 8a 26 00
        E 24 9a 26 6a
        E 96 8a 26 00
        E 24 9a 26 70
        E 96 8a 26 00
        E 24 9a 26 6a
        E 96 8a 26 00
        E 24 9a 26 65
        E 96 8a 26 00
        E 24 9a 26 69
        E 96 8a 26 00
        E 24 9a 26 68
        E 96 8a 26 00
        E 24 9a 26 62
        E 96 8a 26 00
        E 24 9a 26 65
        E 96 8a 26 00
        E 24 9a 26 5b
        E 96 8a 26 00
        E 24 9a 26 5c
        E 96 8a 26 00
        E 24 9a 26 5c
        E 96 8a 26 00
        E 24 9a 26 5c
        E 96 8a 26 00
        E 24 9a 26 65
        E 96 8a 26 00
        E 24 9a 26 62
        E 96 8a 26 00
        E 24 9a 26 69
        E 96 8a 26 00
        E 24 9a 26 60
        E 96 8a 26 00
        E 24 9a 26 6a
        E 96 8a 26 00
        E 24 9a 26 69
        E 96 8a 26 00
        E 24 9a 26 6d
        E 96 8a 26 00
        E 24 9a 26 70
        E 96 8a 26 00
        E 24 9a 26 70
        E 96 8a 26 00
        E 24 9a 26 70
        E 96 8a 26 00
        E 24 9a 26 6a
        E 96 8a 26 00
        E 24 9a 26 70
        E 96 8a 26 00
        E 24 9a 26 70
        E 96 8a 26 00
        E 24 9a 26 70
        E 96 8a 26 00
        E 24 9a 26 6f
        E 96 8a 26 00
        E 24 9a 26 70
        E 96 8a 26 00
        E 24 9a 26 70
        E 96 8a 26 00
        E 24 9a 26 70
        E 96 8a 26 00
        E 24 9a 26 6d
        E 96 8a 26 00
        E 24 9a 26 70
        E 96 8a 26 00
        E 24 9a 26 70
        E 96 8a 26 00
        E 24 9a 26 6d
        E 96 8a 26 00
        E 24 9a 26 6f
        E 96 8a 26 00
        E 24 9a 26 62
        E 96 8a 26 00
        E 24 9a 26 68
        E 96 8a 26 00
        E 24 9a 26 68
        E 96 8a 26 00
        E 24 9a 26 65
        E 96 8a 26 00
        E 24 9a 26 68
        E 96 8a 26 00
        E 24 9a 26 5f
        E 96 8a 26 00
        E 24 9a 26 5c
        E 96 8a 26 00
        E 24 9a 25 59
        E 96 8a 25 00
        E 24 9a 25 5c
        E 96 8a 25 00
        E 24 9a 25 5c
        E 96 8a 25 00
        E 24 9a 25 5c
        E 96 8a 25 00
        E 24 9a 25 5d
        E 96 8a 25 00
        E 24 9a 25 6d
        E 96 8a 25 00
        E 24 9a 25 68
        E 96 8a 25 00
        E 24 9a 25 69
        E 96 8a 25 00
        E 24 9a 25 6d
        E 96 8a 25 00
        E 24 9a 25 70
        E 96 8a 25 00
        E 24 9a 25 6d
        E 96 8a 25 00
        E 24 9a 25 6d
        E 96 8a 25 00
        E 24 9a 25 70
        E 96 8a 25 00
        E 24 9a 25 70
        E 96 8a 25 00
        E 24 9a 25 70
        E 96 8a 25 00
        E 24 9a 25 6a
        E 96 8a 25 00
        E 24 9a 25 70
        E 96 8a 25 00
        E 24 9a 25 70
        E 96 8a 25 00
        E 24 9a 25 6a
        E 96 8a 25 00
        E 24 9a 25 70
        E 96 8a 25 00
        E 24 9a 25 70
        E 96 8a 25 00
        E 24 9a 25 70
        E 96 8a 25 00
        E 24 9a 25 6f
        E 96 8a 25 00
        E 24 9a 25 69
        E 96 8a 25 00
        E 24 9a 25 6d
        E 96 8a 25 00
        E 24 9a 25 69
        E 96 8a 25 00
        E 24 9a 25 6d
        E 96 8a 25 00
        E 24 9a 25 6c
        E 96 8a 25 00
        E 24 9a 25 60
        E 96 8a 25 00
        E 24 9a 25 60
        E 96 8a 25 00
        E 24 9a 25 60
        E 96 8a 25 00
        E 24 9a 25 5d
        E 96 8a 25 00
        E 24 9a 26 5b
        E 96 8a 26 00
        E 24 9a 26 5c
        E 96 8a 26 00
        E 24 9a 26 65
        E 96 8a 26 00
        E 24 9a 26 66
        E 96 8a 26 00
        E 24 9a 26 68
        E 96 8a 26 00
        E 24 9a 26 65
        E 96 8a 26 00
        E 24 9a 26 62
        E 96 8a 26 00
        E 24 9a 26 6d
        E 96 8a 26 00
        E 24 9a 26 6d
        E 96 8a 26 00
        E 24 9a 26 70
        E 96 8a 26 00
        E 24 9a 26 6c
        E 96 8a 26 00
        E 24 9a 26 6f
        E 96 8a 26 00
        E 24 9a 26 70
        E 96 8a 26 00
        E 24 9a 26 70
        E 96 8a 26 00
        E 24 9a 26 70
        E 96 8a 26 00
        E 24 9a 26 70
        E 96 8a 26 00
        E 24 9a 26 70
        E 96 8a 26 00
        E 24 9a 26 70
        E 96 8a 26 00
        E 24 9a 26 70
        E 96 8a 26 00
        E 24 9a 26 70
        E 96 8a 26 00
        E 24 9a 26 6d
        E 96 8a 26 00
        E 24 9a 26 6d
        E 96 8a 26 00
        E 24 9a 26 6d
        E 96 8a 26 00
        E 24 9a 26 6c
        E 96 8a 26 00
        E 24 9a 26 6c
        E 96 8a 26 00
        E 24 9a 26 69
        E 96 8a 26 00
        E 24 9a 26 6a
        E 96 8a 26 00
        E 24 9a 26 63
        E 96 8a 26 00
        E 24 9a 26 66
        E 96 8a 26 00
        E 24 9a 26 65
        E 96 8a 26 00
        E 24 9a 26 63
        E 96 8a 26 00
        E 24 9a 26 56
        E 96 8a 26 00
        E 24 9a 26 5b
        E 96 8a 26 00
        E 24 9a 26 5c
        E 96 8a 26 00
        E 24 9a 26 5c
        E 96 8a 26 00
        E 24 9a 26 63
        E 96 8a 26 00
        E 24 9a 26 62
        E 96 8a 26 00
        E 24 9a 26 6c
        E 96 8a 26 00
        E 24 9a 26 6a
        E 96 8a 26 00
        E 24 9a 26 6c
        E 96 8a 26 00
        E 24 9a 26 6d
        E 96 8a 26 00
        E 24 9a 26 68
        E 96 8a 26 00
        E 24 9a 26 70
        E 96 8a 26 00
        E 24 9a 26 70
        E 96 8a 26 00
        E 24 9a 26 70
        E 96 8a 26 00
        E 24 9a 26 6f
        E 96 8a 26 00
        E 24 9a 26 70
        E 96 8a 26 00
        E 24 9a 26 70
        E 96 8a 26 00
        E 24 9a 26 70
        E 96 8a 26 00
        E 24 9a 26 6f
        E 96 8a 26 00
        E 24 9a 26 6f
        E 96 8a 26 00
        E 24 9a 26 70
        E 96 8a 26 00
        E 24 9a 26 6a
        E 96 8a 26 00
        E 24 9a 26 70
        E 96 8a 26 00
        E 24 9a 26 70
        E 96 8a 26 00
        E 24 9a 26 69
        E 96 8a 26 00
        E 24 9a 26 65
        E 96 8a 26 00
        E 24 9a 26 62
        E 96 8a 26 00
        E 24 9a 26 70
        E 96 8a 26 00
        E 24 9a 26 68
        E 96 8a 26 00
        E 24 9a 26 66
        E 96 8a 26 00
        E 24 9a 26 65
        E 96 8a 26 00
        E 24 9a 26 5d
        E 96 8a 26 00
        E 24 9a 26 60
        E 96 8a 26 00
        E 24 9a 26 62
        E 96 8a 26 00
        E 24 9a 26 60
        E 96 8a 26 00
        E 24 9a 26 62
        E 96 8a 26 00
        E 24 9a 26 5f
        E 96 8a 26 00
        E 24 9a 26 5c
        E 96 8a 26 00
        E 24 9a 26 62
        E 96 8a 26 00
        E 24 9a 26 68
        E 96 8a 26 00
        E 24 9a 26 6a
        E 96 8a 26 00
        E 24 9a 26 70
        E 96 8a 26 00
        E 24 9a 26 6f
        E 96 8a 26 00
        E 24 9a 26 70
        E 96 8a 26 00
        E 24 9a 26 6d
        E 96 8a 26 00
        E 24 9a 26 6d
        E 96 8a 26 00
        E 24 9a 26 70
        E 96 8a 26 00
        E 24 9a 26 70
        E 96 8a 26 00
        E 24 9a 26 70
        E 96 8a 26 00
        E 24 9a 26 70
        E 96 8a 26 00
        E 24 9a 26 6d
        E 96 8a 26 00
        E 24 9a 26 70
        E 96 8a 26 00
        E 24 9a 26 70
        E 96 8a 26 00
        E 24 9a 26 6d
        E 96 8a 26 00
        E 24 9a 26 6f
        E 96 8a 26 00
        E 24 9a 26 69
        E 96 8a 26 00
        E 24 9a 26 69
        E 96 8a 26 00
        E 24 9a 26 68
        E 96 8a 26 00
        E 24 9a 26 65
        E 96 8a 26 00
        E 24 9a 26 68
        E 96 8a 26 00
        E 24 9a 26 68
        E 96 8a 26 00
        E 24 9a 26 65
        E 96 8a 26 00
        E 24 9a 26 5c
        E 96 8a 26 00
        E 24 9a 26 5c
        E 96 8a 26 00
        E 24 9a 26 65
        E 96 8a 26 00
        E 24 9a 25 59
        E 96 8a 25 00
        E 24 9a 25 5d
        E 96 8a 25 00
        E 24 9a 25 5c
        E 96 8a 25 00
        E 24 9a 25 5b
        E 96 8a 25 00
        E 24 9a 25 68
        E 96 8a 25 00
        E 24 9a 25 68
        E 96 8a 25 00
        E 24 9a 25 6d
        E 96 8a 25 00
        E 24 9a 25 68
        E 96 8a 25 00
        E 24 9a 25 65
        E 96 8a 25 00
        E 24 9a 25 6f
        E 96 8a 25 00
        E 24 9a 25 6a
        E 96 8a 25 00
        E 24 9a 25 68
        E 96 8a 25 00
        E 24 9a 25 6f
        E 96 8a 25 00
        E 24 9a 25 70
        E 96 8a 25 00
        E 24 9a 25 70
        E 96 8a 25 00
        E 24 9a 25 70
        E 96 8a 25 00
        E 24 9a 25 70
        E 96 8a 25 00
        E 24 9a 25 6d
        E 96 8a 25 00
        E 24 9a 25 70
        E 96 8a 25 00
        E 24 9a 25 70
        E 96 8a 25 00
        E 24 9a 25 6f
        E 96 8a 25 00
        E 24 9a 25 6d
        E 96 8a 25 00
        E 24 9a 25 70
        E 96 8a 25 00
        E 24 9a 25 70
        E 96 8a 25 00
        E 24 9a 25 69
        E 96 8a 25 00
        E 24 9a 25 6d
        E 96 8a 25 00
        E 24 9a 25 68
        E 96 8a 25 00
        E 24 9a 25 5f
        E 96 8a 25 00
        E 24 9a 25 60
        E 96 8a 25 00
        E 24 9a 25 68
        E 96 8a 25 00
        E 24 9a 25 63
        E 96 8a 25 00
        E 24 9a 25 62
        E 96 8a 25 00
        E 24 9a 26 56
        E 96 8a 26 00
        E 24 9a 26 59
        E 96 8a 26 00
        E 24 9a 26 56
        E 96 8a 26 00
        E 24 9a 26 5c
        E 96 8a 26 00
        E 24 9a 26 63
        E 96 8a 26 00
        E 24 9a 26 6d
        E 96 8a 26 00
        E 24 9a 26 69
        E 96 8a 26 00
        E 24 9a 26 63
        E 96 8a 26 00
        E 24 9a 26 66
        E 96 8a 26 00
        E 24 9a 26 70
        E 96 8a 26 00
        E 24 9a 26 70
        E 96 8a 26 00
        E 24 9a 26 6f
        E 96 8a 26 00
        E 24 9a 26 6a
        E 96 8a 26 00
        E 24 9a 26 70
        E 96 8a 26 00
        E 24 9a 26 70
        E 96 8a 26 00
        E 24 9a 26 70
        E 96 8a 26 00
        E 24 9a 26 70
        E 96 8a 26 00
        E 24 9a 26 70
        E 96 8a 26 00
        E 24 9a 26 6a
        E 96 8a 26 00
        E 24 9a 26 6a
        E 96 8a 26 00
        E 24 9a 26 70
        E 96 8a 26 00
        E 24 9a 26 6d
        E 96 8a 26 00
        E 24 9a 26 70
        E 96 8a 26 00
        E 24 9a 26 6d
        E 96 8a 26 00
        E 24 9a 26 6c
        E 96 8a 26 00
        E 24 9a 26 68
        E 96 8a 26 00
        E 24 9a 26 6d
        E 96 8a 26 00
        E 24 9a 26 5f
        E 96 8a 26 00
        E 24 9a 26 68
        E 96 8a 26 00
        E 24 9a 26 5c
        E 96 8a 26 00
        E 24 9a 26 5b
        E 96 8a 26 00
        E 24 9a 26 59
        E 96 8a 26 00
        E 24 9a 26 60
        E 96 8a 26 00
        E 24 9a 26 58
        E 96 8a 26 00
        E 24 9a 26 5c
        E 96 8a 26 00
        E 24 9a 26 59
        E 96 8a 26 00
        E 24 9a 26 63
        E 96 8a 26 00
        E 24 9a 26 66
        E 96 8a 26 00
        E 24 9a 26 63
        E 96 8a 26 00
        E 24 9a 26 6f
        E 96 8a 26 00
        E 24 9a 26 6d
        E 96 8a 26 00
        E 24 9a 26 6d
        E 96 8a 26 00
        E 24 9a 26 6a
        E 96 8a 26 00
        E 24 9a 26 6d
        E 96 8a 26 00
        E 24 9a 26 6d
        E 96 8a 26 00
        E 24 9a 26 6d
        E 96 8a 26 00
        E 24 9a 26 70
        E 96 8a 26 00
        E 24 9a 26 70
        E 96 8a 26 00
        E 24 9a 26 70
        E 96 8a 26 00
        E 24 9a 26 70
        E 96 8a 26 00
        E 24 9a 26 69
        E 96 8a 26 00
        E 24 9a 26 6d
        E 96 8a 26 00
        E 24 9a 26 70
        E 96 8a 26 00
        E 24 9a 26 70
        E 96 8a 26 00
        E 24 9a 26 6c
        E 96 8a 26 00
        E 24 9a 26 6d
        E 96 8a 26 00
        E 24 9a 26 6a
        E 96 8a 26 00
        E 24 9a 26 69
        E 96 8a 26 00
        E 24 9a 26 6a
        E 96 8a 26 00
        E 24 9a 26 65
        E 96 8a 26 00
        E 24 9a 26 63
        E 96 8a 26 00
        E 24 9a 26 66
        E 96 8a 26 00
        E 24 9a 26 5d
        E 96 8a 26 00
        E 24 9a 26 62
        E 96 8a 26 00
        E 24 9a 26 5d
        E 96 8a 26 00
        E 24 9a 26 60
        E 96 8a 26 00
        E 24 9a 26 63
        E 96 8a 26 00
        E 24 9a 26 5b
        E 96 8a 26 00
        E 24 9a 26 62
        E 96 8a 26 00
        E 24 9a 26 68
        E 96 8a 26 00
        E 24 9a 26 68
        E 96 8a 26 00
        E 24 9a 26 6d
        E 96 8a 26 00
        E 24 9a 26 68
        E 96 8a 26 00
        E 24 9a 26 70
        E 96 8a 26 00
        E 24 9a 26 70
        E 96 8a 26 00
        E 24 9a 26 70
        E 96 8a 26 00
        E 24 9a 26 70
        E 96 8a 26 00
        E 24 9a 26 70
        E 96 8a 26 00
        E 24 9a 26 70
        E 96 8a 26 00
        E 24 9a 26 70
        E 96 8a 26 00
        E 24 9a 26 70
        E 96 8a 26 00
        E 24 9a 26 70
        E 96 8a 26 00
        E 24 9a 26 70
        E 96 8a 26 00
        E 24 9a 26 70
        E 96 8a 26 00
        E 24 9a 26 70
        E 96 8a 26 00
        E 24 9a 26 70
        E 96 8a 26 00
        E 24 9a 26 69
        E 96 8a 26 00
        E 24 9a 26 6f
        E 96 8a 26 00
        E 24 9a 26 6c
        E 96 8a 26 00
        E 24 9a 26 62
        E 96 8a 26 00
        E 24 9a 26 68
        E 96 8a 26 00
        E 24 9a 26 62
        E 96 8a 26 00
        E 24 9a 26 66
        E 96 8a 26 00
        E 24 9a 26 5c
        E 96 8a 26 00
        E 24 9a 26 5c
        E 96 8a 26 00
        E 24 9a 26 5b
        E 96 8a 26 00
        E 24 9a 26 5b
        E 96 8a 26 00
        E 24 9a 26 56
        E 96 8a 26 00
        E 24 9a 26 5b
        E 96 8a 26 00
        E 24 9a 26 62
        E 96 8a 26 00
        E 24 9a 26 5f
        E 96 8a 26 00
        E 24 9a 26 6d
        E 96 8a 26 00
        E 24 9a 26 62
        E 96 8a 26 00
        E 24 9a 26 6f
        E 96 8a 26 00
        E 24 9a 26 6d
        E 96 8a 26 00
        E 24 9a 26 6d
        E 96 8a 26 00
        E 24 9a 26 66
        E 96 8a 26 00
        E 24 9a 26 6a
        E 96 8a 26 00
        E 24 9a 26 6d
        E 96 8a 26 00
        E 24 9a 26 70
        E 96 8a 26 00
        E 24 9a 26 70
        E 96 8a 26 00
        E 24 9a 26 70
        E 96 8a 26 00
        E 24 9a 26 70
        E 96 8a 26 00
        E 24 9a 26 6d
        E 96 8a 26 00
        E 24 9a 26 6d
        E 96 8a 26 00
        E 24 9a 26 70
        E 96 8a 26 00
        E 24 9a 26 70
        E 96 8a 26 00
        E 24 9a 26 70
        E 96 8a 26 00
        E 24 9a 26 6d
        E 96 8a 26 00
        E 24 9a 26 6d
        E 96 8a 26 00
        E 24 9a 26 6a
        E 96 8a 26 00
        E 24 9a 26 69
        E 96 8a 26 00
        E 24 9a 26 6f
        E 96 8a 26 00
        E 24 9a 26 63
        E 96 8a 26 00
        E 24 9a 26 69
        E 96 8a 26 00
        E 24 9a 26 60
        E 96 8a 26 00
        E 24 9a 26 5b
        E 96 8a 26 00
        E 24 9a 26 60
        E 96 8a 26 00
        E 24 9a 25 60
        E 96 8a 25 00
        E 24 9a 25 56
        E 96 8a 25 00
        E 24 9a 25 63
        E 96 8a 25 00
        E 24 9a 25 62
        E 96 8a 25 00
        E 24 9a 25 60
        E 96 8a 25 00
        E 24 9a 25 68
        E 96 8a 25 00
        E 24 9a 25 6d
        E 96 8a 25 00
        E 24 9a 25 6d
        E 96 8a 25 00
        E 24 9a 25 6a
        E 96 8a 25 00
        E 24 9a 25 70
        E 96 8a 25 00
        E 24 9a 25 70
        E 96 8a 25 00
        E 24 9a 25 70
        E 96 8a 25 00
        E 24 9a 25 70
        E 96 8a 25 00
        E 24 9a 25 70
        E 96 8a 25 00
        E 24 9a 25 6f
        E 96 8a 25 00
        E 24 9a 25 70
        E 96 8a 25 00
        E 24 9a 25 70
        E 96 8a 25 00
        E 24 9a 25 6c
        E 96 8a 25 00
        E 24 9a 25 70
        E 96 8a 25 00
        E 24 9a 25 70
        E 96 8a 25 00
        E 24 9a 25 6d
        E 96 8a 25 00
        E 24 9a 25 68
        E 96 8a 25 00
        E 24 9a 25 70
        E 96 8a 25 00
        E 24 9a 25 66
        E 96 8a 25 00
        E 24 9a 25 63
        E 96 8a 25 00
        E 24 9a 25 66
        E 96 8a 25 00
        E 24 9a 25 6a
        E 96 8a 25 00
        E 24 9a 25 62
        E 96 8a 25 00
        E 24 9a 25 66
        E 96 8a 25 00
        E 24 9a 25 63
        E 96 8a 25 00
        E 24 9a 25 5c
        E 96 8a 25 00
        E 24 9a 25 5c
        E 96 8a 25 00
        E 24 9a 26 5f
        E 96 8a 26 00
        E 24 9a 26 62
        E 96 8a 26 00
        E 24 9a 26 5b
        E 96 8a 26 00
        E 24 9a 26 66
        E 96 8a 26 00
        E 24 9a 26 6c
        E 96 8a 26 00
        E 24 9a 26 65
        E 96 8a 26 00
        E 24 9a 26 68
        E 96 8a 26 00
        E 144 9a 26 6c
        E 96 8a 26 00
        E 24 9a 26 6c
        E 96 8a 26 00
        E 384 9a 26 70
        E 96 8a 26 00
        E 504 9a 26 70
        E 96 8a 26 00
        E 624 9a 26 6d
        E 96 8a 26 00
        E 144 9a 26 6f
        E 96 8a 26 00
        E 144 9a 26 68
        E 96 8a 26 00
        E 1224 9a 26 69
        E 96 8a 26 00
        E 624 9a 26 6c
        E 96 8a 26 00
        E 384 9a 26 6d
        E 96 8a 26 00
        E 144 9a 26 70
        E 96 8a 26 00
        E 24 9a 26 6d
        E 96 8a 26 00
        E 264 9a 26 70
        E 96 8a 26 00
        E 24 9a 26 69
        E 96 8a 26 00
        E 144 9a 26 69
        E 96 8a 26 00
        E 744 9a 25 5f
        E 96 8a 25 00
        E 144 9a 25 5c
        E 96 8a 25 00
        E 624 9a 25 69
        E 96 8a 25 00
        E 384 9a 25 6c
        E 96 8a 25 00
        E 24 9a 25 70
        E 96 8a 25 00
        E 624 9a 25 70
        E 96 8a 25 00
        E 624 9a 25 6a
        E 96 8a 25 00
        E 504 9a 25 5b
        E 96 8a 25 00
        E 24 9a 26 5b
        E 96 8a 26 00
        E 24 9a 26 58
        E 96 8a 26 00
        E 504 9a 26 62
        E 96 8a 26 00
        E 624 9a 26 70
        E 96 8a 26 00
        E 264 9a 26 70
        E 96 8a 26 00
        E 744 9a 26 70
        E 96 8a 26 00
        E 24 9a 26 70
        E 96 8a 26 00
        E 624 9a 26 65
        E 96 8a 26 00
        E 24 9a 26 65
        E 96 8a 26 00
        E 624 9a 26 69
        E 96 8a 26 00
        E 24 9a 26 68
        E 96 8a 26 00
        E 24 9a 26 6c
        E 96 8a 26 00
        E 504 9a 26 70
        E 96 8a 26 00
        E 624 9a 26 70
        E 96 8a 26 00
        E 984 9a 26 6a
        E 96 8a 26 00
        E 264 9a 26 65
        E 96 8a 26 00
        E 504 9a 26 62
        E 96 8a 26 00
        E 24 9a 26 5d
        E 96 8a 26 00
        E 24 9a 26 63
        E 96 8a 26 00
        E 1104 9a 26 70
        E 96 8a 26 00
        E 144 9a 26 70
        E 96 8a 26 00
        E 264 9a 26 70
        E 96 8a 26 00
        E 1104 9a 26 68
        E 96 8a 26 00
        E 0 ba 7b 00
        E 1 ff 2f 00
      >
    >
  >
>
