<REAPER_PROJECT 0.1 "7.0" 1700000000
  TEMPO 72.000000 4 4
  SAMPLERATE 48000 0 0
  RENDER_FILE ""
  RENDER_FMT 0 2 0
  RENDER_1X 0
  RENDER_RANGE 1 0 113.670492 0 0
  RENDER_RESAMPLE 3 0 1
  <MASTERTRACK
    VOLPAN 1 0 1 -1
    DEFCHAN 0
  >
  <TRACK
    NAME "Lead"
    PEAKCOL 4284506208
    VOLPAN 1.000000 0 1 -1
    MIDIOUT -1
    ISBUS 0 0
    <ITEM
      POSITION 1.193826
      LENGTH 109.740486
      NAME "Lead"
      VOLPAN 1 0 1 -1
      <SOURCE MIDI
        HASDATA 1 960 QN
        E 0 c0 44 00
        E 1375 90 40 2a
        E 287 80 40 00
        E 793 90 44 4e
        E 301 90 4b 32
        E 168 90 4d 32
        E 70 80 4b 00
        E 167 80 4d 00
        E 370 80 44 00
        E 2134 90 4e 50
        E 1041 80 4e 00
        E 4637 90 4d 49
        E 1043 80 4d 00
        E 748 90 45 18
        E 238 80 45 00
        E 4130 90 44 38
        E 1061 80 44 00
        E 321 90 4b 3b
        E 525 80 4b 00
        E 340 90 4b 41
        E 1018 80 4b 00
        E 2686 90 4b 3b
        E 585 80 4b 00
        E 633 90 4c 3c
        E 1041 80 4c 00
        E 3547 90 57 3f
        E 1047 80 57 00
        E 1178 90 4b 3e
        E 532 80 4b 00
        E 6853 90 4c 4f
        E 629 90 4b 31
        E 458 80 4c 00
        E 137 80 4b 00
        E 625 90 4b 3c
        E 1099 80 4b 00
        E 2608 90 50 48
        E 982 80 50 00
        E 481 90 42 2f
        E 246 80 42 00
        E 2001 90 4d 31
        E 607 90 4b 53
        E 434 80 4d 00
        E 626 80 4b 00
        E 2034 90 4c 4f
        E 1026 80 4c 00
        E 5150 90 47 49
        E 610 90 47 4e
        E 239 80 47 00
        E 230 80 47 00
        E 140 90 4c 5a
        E 1066 80 4c 00
        E 1403 90 48 58
        E 1092 80 48 00
        E 1630 90 4b 43
        E 264 80 4b 00
        E 737 90 4a 31
        E 1087 80 4a 00
        E 126 90 4e 53
        E 543 80 4e 00
        E 809 90 43 50
        E 944 80 43 00
        E 2671 90 49 66
        E 1055 80 49 00
        E 2006 90 44 34
        E 261 80 44 00
        E 1599 90 4a 50
        E 675 80 4a 00
        E 562 90 4a 56
        E 1203 80 4a 00
        E 2482 90 48 63
        E 1031 80 48 00
        E 233 90 4a 56
        E 778 80 4a 00
        E 424 90 48 69
        E 1004 80 48 00
        E 718 90 47 62
        E 1202 80 47 00
        E 25 90 47 66
        E 1039 80 47 00
        E 214 90 54 5a
        E 1058 80 54 00
        E 170 90 4b 77
        E 1084 80 4b 00
        E 146 90 47 41
        E 259 80 47 00
        E 1000 90 48 48
        E 936 80 48 00
        E 534 90 49 5f
        E 987 90 49 3c
        E 134 80 49 00
        E 928 80 49 00
        E 390 90 4a 62
        E 1080 80 4a 00
        E 175 90 49 67
        E 1039 80 49 00
        E 563 90 46 4e
        E 221 80 46 00
        E 1022 90 4a 59
        E 600 90 48 5d
        E 344 80 4a 00
        E 818 80 48 00
        E 90 90 48 6f
        E 1073 80 48 00
        E 508 90 4c 6c
        E 253 90 47 5f
        E 27 80 4c 00
        E 994 80 47 00
        E 223 90 4c 52
        E 557 80 4c 00
        E 674 90 4a 5f
        E 997 80 4a 00
        E 13963 90 39 55
        E 480 90 3d 4e
        E 480 90 40 4b
        E 480 80 39 00
        E 0 80 3d 00
        E 480 80 40 00
        E 1920 90 32 5d
        E 0 90 39 59
        E 2880 80 32 00
        E 0 80 39 00
        E 0 b0 7b 00
        E 1 ff 2f 00
      >
    >
  >
  <TRACK
    NAME "Oboe"
    PEAKCOL 4282040170
    VOLPAN 1.000000 0 1 -1
    MIDIOUT -1
    ISBUS 0 0
    <ITEM
      POSITION 9.989494
      LENGTH 81.754955
      NAME "Oboe"
      VOLPAN 1 0 1 -1
      <SOURCE MIDI
        HASDATA 1 960 QN
        E 0 c1 44 00
        E 11508 91 4a 3b
        E 1877 81 4a 00
        E 1965 91 4b 39
        E 1916 81 4b 00
        E 5763 91 4b 38
        E 1924 91 4a 3f
        E 35 81 4b 00
        E 1894 91 49 39
        E 23 81 4a 00
        E 1902 81 49 00
        E 3815 91 43 4c
        E 1943 91 47 2b
        E 11 81 43 00
        E 1882 81 47 00
        E 1940 91 49 3f
        E 1914 81 49 00
        E 1936 91 49 3b
        E 1859 81 49 00
        E 1976 91 3f 28
        E 1877 81 3f 00
        E 1964 91 42 2e
        E 1881 81 42 00
        E 1964 91 48 32
        E 1870 81 48 00
        E 31 91 49 52
        E 1980 81 49 00
        E 3799 91 4a 32
        E 1911 81 4a 00
        E 6 91 3e 3e
        E 1900 91 49 50
        E 42 81 3e 00
        E 1878 81 49 00
        E 3865 91 3c 2d
        E 1806 81 3c 00
        E 94 91 3f 41
        E 1829 81 3f 00
        E 2030 91 3d 32
        E 1852 81 3d 00
        E 74 91 3f 38
        E 1906 91 48 3b
        E 49 81 3f 00
        E 1894 81 48 00
        E 1900 91 42 32
        E 1930 91 49 3f
        E 13 81 42 00
        E 1910 91 50 4b
        E 27 81 49 00
        E 1908 81 50 00
        E 1891 91 55 3e
        E 1871 81 55 00
        E 54 91 57 39
        E 1907 91 4a 58
        E 87 81 57 00
        E 1833 81 4a 00
        E 1918 91 56 59
        E 1946 91 53 59
        E 44 81 56 00
        E 1867 91 54 5c
        E 94 81 53 00
        E 1789 81 54 00
        E 0 b1 7b 00
        E 1 ff 2f 00
      >
    >
  >
  <TRACK
    NAME "Bassoon"
    PEAKCOL 4286528191
    VOLPAN 1.000000 0 1 -1
    MIDIOUT -1
    ISBUS 0 0
    <ITEM
      POSITION 0.007503
      LENGTH 91.747443
      NAME "Bassoon"
      VOLPAN 1 0 1 -1
      <SOURCE MIDI
        HASDATA 1 960 QN
        E 0 c2 46 00
        E 9 92 30 1b
        E 1914 92 30 32
        E 38 82 30 00
        E 1870 82 30 00
        E 21 92 33 31
        E 1899 82 33 00
        E 1942 92 31 2f
        E 1918 82 31 00
        E 4 92 24 34
        E 1925 92 2d 37
        E 18 82 24 00
        E 1949 82 2d 00
        E 1875 92 2d 32
        E 1893 92 27 34
        E 79 82 2d 00
        E 1850 82 27 00
        E 7 92 33 24
        E 1814 82 33 00
        E 2035 92 32 27
        E 1907 92 32 31
        E 102 82 32 00
        E 1827 92 35 38
        E 14 82 32 00
        E 1894 82 35 00
        E 1917 92 3d 22
        E 1934 82 3d 00
        E 0 92 36 28
        E 1827 82 36 00
        E 85 92 40 27
        E 1900 82 40 00
        E 1948 92 3f 24
        E 1892 82 3f 00
        E 21 92 3f 34
        E 1854 82 3f 00
        E 57 92 47 2d
        E 1932 82 47 00
        E 1912 92 44 24
        E 1876 82 44 00
        E 51 92 55 2a
        E 1914 92 45 24
        E 39 82 55 00
        E 1914 82 45 00
        E 1896 92 3d 2d
        E 1928 92 31 2d
        E 11 82 3d 00
        E 1897 92 46 31
        E 73 82 31 00
        E 1843 82 46 00
        E 1919 92 3f 32
        E 1911 92 49 3f
        E 11 82 3f 00
        E 1911 82 49 00
        E 9 92 3c 2e
        E 1977 82 3c 00
        E 1870 92 48 31
        E 1925 92 40 2d
        E 6 82 48 00
        E 1859 82 40 00
        E 44 92 4c 34
        E 1891 82 4c 00
        E 1953 92 3b 2b
        E 1920 92 3d 35
        E 6 82 3b 00
        E 1872 82 3d 00
        E 40 92 3b 3c
        E 1885 82 3b 00
        E 1962 92 42 2d
        E 1855 82 42 00
        E 41 92 48 58
        E 1934 82 48 00
        E 3 92 49 42
        E 1979 82 49 00
        E 1884 92 3e 3f
        E 1905 92 3c 3f
        E 14 82 3e 00
        E 1888 82 3c 00
        E 16 92 3d 3f
        E 1839 82 3d 00
        E 1990 92 3e 53
        E 1897 82 3e 00
        E 20 92 48 59
        E 1918 82 48 00
        E 22 92 37 50
        E 1885 82 37 00
        E 0 b2 7b 00
        E 1 ff 2f 00
      >
    >
  >
  <TRACK
    NAME "Horror"
    PEAKCOL 4284506208
    VOLPAN 1.000000 0 1 -1
    MIDIOUT -1
    ISBUS 0 0
    <ITEM
      POSITION 3.329102
      LENGTH 79.987760
      NAME "Horror"
      VOLPAN 1 0 1 -1
      <SOURCE MIDI
        HASDATA 1 960 QN
        E 0 c3 31 00
        E 3835 93 2d 28
        E 3623 83 2d 00
        E 11737 93 34 22
        E 3713 83 34 00
        E 11658 93 27 20
        E 2625 93 32 22
        E 469 83 32 00
        E 540 83 27 00
        E 18105 93 36 2a
        E 475 83 36 00
        E 16173 93 2e 2f
        E 3590 83 2e 00
        E 252 93 3e 39
        E 3 93 26 39
        E 3539 83 26 00
        E 206 83 3e 00
        E 3930 93 30 3c
        E 13 93 27 22
        E 3685 83 30 00
        E 41 83 27 00
        E 3948 93 25 38
        E 3175 93 3d 38
        E 506 83 3d 00
        E 25 83 25 00
        E 0 b3 7b 00
        E 1 ff 2f 00
      >
    >
  >
  <TRACK
    NAME "Nebula"
    PEAKCOL 4284506208
    VOLPAN 1.000000 0 1 -1
    MIDIOUT -1
    ISBUS 0 0
    <ITEM
      POSITION 0.000000
      LENGTH 94.192175
      NAME "Nebula"
      VOLPAN 1 0 1 -1
      <SOURCE MIDI
        HASDATA 1 960 QN
        E 0 c4 59 00
        E 0 94 00 13
        E 108394 84 00 00
        E 0 b4 7b 00
        E 1 ff 2f 00
      >
    >
  >
  <TRACK
    NAME "Strings"
    PEAKCOL 4284186559
    VOLPAN 1.000000 0 1 -1
    MIDIOUT -1
    ISBUS 0 0
    <ITEM
      POSITION 0.000000
      LENGTH 93.531194
      NAME "Strings"
      VOLPAN 1 0 1 -1
      <SOURCE MIDI
        HASDATA 1 960 QN
        E 0 c5 30 00
        E 0 95 41 16
        E 2 95 41 14
        E 0 95 42 10
        E 12 95 40 16
        E 1829 85 41 00
        E 78 95 42 38
        E 2 95 35 2d
        E 6 95 30 20
        E 14 85 41 00
        E 28 85 42 00
        E 79 85 40 00
        E 1645 85 35 00
        E 158 95 1c 2a
        E 6 85 30 00
        E 32 85 42 00
        E 1872 95 35 32
        E 171 85 1c 00
        E 1747 95 32 32
        E 3 95 3f 31
        E 156 85 35 00
        E 1688 85 32 00
        E 70 95 4a 31
        E 8 95 36 2b
        E 6 95 36 2b
        E 2 95 3e 3e
        E 67 85 3f 00
        E 1769 85 4a 00
        E 66 95 3f 41
        E 51 85 36 00
        E 14 85 36 00
        E 8 85 3e 00
        E 1828 85 3f 00
        E 35 95 3c 3c
        E 4 95 3d 31
        E 1870 85 3d 00
        E 40 95 37 2d
        E 4 95 37 22
        E 30 85 3c 00
        E 1873 95 35 32
        E 13 95 3c 2e
        E 20 85 37 00
        E 23 85 37 00
        E 1861 95 40 31
        E 12 85 35 00
        E 1 95 32 24
        E 177 85 3c 00
        E 1742 95 3d 31
        E 9 95 3d 2d
        E 2 95 3d 2d
        E 44 85 40 00
        E 8 85 32 00
        E 1843 85 3d 00
        E 7 95 32 2d
        E 3 95 3f 38
        E 3 95 33 1b
        E 8 95 3f 18
        E 72 85 3d 00
        E 2 85 3d 00
        E 1770 85 33 00
        E 78 95 3f 3b
        E 11 85 32 00
        E 60 85 3f 00
        E 8 85 3f 00
        E 1672 85 3f 00
        E 159 95 35 3b
        E 5 95 2f 35
        E 1 95 3c 25
        E 1903 95 36 3c
        E 2 95 36 45
        E 1 95 42 2f
        E 8 95 36 45
        E 101 85 3c 00
        E 41 85 35 00
        E 11 85 2f 00
        E 1705 85 36 00
        E 51 95 2e 2d
        E 8 95 35 2b
        E 7 95 35 2b
        E 11 95 3d 1b
        E 9 85 42 00
        E 42 85 36 00
        E 6 85 36 00
        E 1635 85 3d 00
        E 115 85 35 00
        E 30 85 35 00
        E 26 85 2e 00
        E 32 95 3e 31
        E 12 95 35 28
        E 6 95 35 1b
        E 0 95 37 21
        E 5 95 30 2d
        E 1848 85 37 00
        E 36 85 3e 00
        E 18 95 3c 35
        E 0 95 3c 35
        E 7 95 37 24
        E 5 85 30 00
        E 7 95 34 28
        E 35 85 35 00
        E 45 85 35 00
        E 1731 85 3c 00
        E 94 95 2d 31
        E 2 95 3b 20
        E 3 95 30 28
        E 5 85 3c 00
        E 0 95 3f 1d
        E 0 95 3e 28
        E 35 85 34 00
        E 40 85 37 00
        E 1810 85 2d 00
        E 29 95 3f 1b
        E 2 85 3e 00
        E 62 85 3f 00
        E 36 85 30 00
        E 67 85 3b 00
        E 1738 95 3d 31
        E 6 95 33 2d
        E 10 95 3e 24
        E 88 85 3f 00
        E 1718 85 33 00
        E 97 85 3d 00
        E 0 95 3e 35
        E 9 95 3e 35
        E 1 95 30 2e
        E 2 95 3d 1d
        E 9 85 3e 00
        E 1767 85 3e 00
        E 82 85 3e 00
        E 11 85 3d 00
        E 52 95 30 28
        E 4 95 3d 2d
        E 0 95 2a 1b
        E 1 95 3c 27
        E 1 95 3b 24
        E 25 85 30 00
        E 1815 85 30 00
        E 65 95 28 28
        E 1 95 3a 2f
        E 2 95 28 28
        E 4 85 3d 00
        E 1 95 3c 37
        E 6 95 3e 1b
        E 9 95 2d 18
        E 25 85 2a 00
        E 39 85 3b 00
        E 149 85 3c 00
        E 1630 85 28 00
        E 0 85 2d 00
        E 52 95 39 3b
        E 5 85 28 00
        E 4 95 2d 2f
        E 0 95 39 2a
        E 1 95 39 39
        E 1 95 22 20
        E 30 85 3a 00
        E 15 85 3c 00
        E 16 85 3e 00
        E 1798 85 2d 00
        E 13 85 39 00
        E 14 85 39 00
        E 17 85 39 00
        E 5 95 3c 45
        E 4 95 3d 2f
        E 1 95 29 43
        E 9 95 1e 2f
        E 8 95 3c 1e
        E 0 95 24 22
        E 29 85 22 00
        E 1798 85 29 00
        E 37 85 24 00
        E 30 95 34 39
        E 3 85 3d 00
        E 4 95 2e 2d
        E 3 95 35 38
        E 2 95 38 35
        E 13 95 29 35
        E 35 85 3c 00
        E 57 85 1e 00
        E 30 85 3c 00
        E 1665 85 38 00
        E 97 85 35 00
        E 29 85 34 00
        E 0 95 31 31
        E 6 85 2e 00
        E 1 95 3d 31
        E 36 85 29 00
        E 1860 95 37 3c
        E 11 95 3c 4e
        E 0 95 39 41
        E 4 95 32 31
        E 9 95 37 22
        E 2 95 33 25
        E 1 95 33 28
        E 17 85 31 00
        E 62 85 3d 00
        E 1653 85 3c 00
        E 33 85 33 00
        E 28 85 33 00
        E 49 85 37 00
        E 43 85 37 00
        E 8 95 3c 46
        E 0 95 3c 3f
        E 4 95 3b 41
        E 4 85 32 00
        E 0 95 3c 45
        E 8 95 30 2b
        E 4 95 3c 24
        E 1 95 3e 2d
        E 7 95 3c 31
        E 48 85 39 00
        E 1729 85 3b 00
        E 55 85 3c 00
        E 23 85 3c 00
        E 9 85 3e 00
        E 35 95 3d 56
        E 4 95 2d 4c
        E 3 85 3c 00
        E 3 95 35 3b
        E 58 85 3c 00
        E 7 85 30 00
        E 7 85 3c 00
        E 1773 85 3d 00
        E 62 95 3e 49
        E 9 95 34 56
        E 9 95 2c 37
        E 7 95 3f 28
        E 1 95 3e 31
        E 71 85 35 00
        E 80 85 2d 00
        E 1565 85 3f 00
        E 118 85 2c 00
        E 12 85 3e 00
        E 48 95 2a 37
        E 0 95 29 2b
        E 6 95 3e 2d
        E 1 95 30 41
        E 12 95 3d 39
        E 3 85 34 00
        E 1 95 3d 39
        E 54 85 3e 00
        E 1733 85 3e 00
        E 77 85 2a 00
        E 36 95 35 4c
        E 2 95 35 48
        E 1 85 3d 00
        E 4 95 34 22
        E 0 95 38 2d
        E 7 95 27 21
        E 4 95 30 28
        E 1 95 30 24
        E 26 85 3d 00
        E 51 85 29 00
        E 13 85 30 00
        E 1743 85 27 00
        E 57 85 38 00
        E 17 95 32 58
        E 5 95 37 2d
        E 0 95 3d 3e
        E 1 95 35 31
        E 4 95 36 38
        E 0 95 32 38
        E 13 85 35 00
        E 12 85 34 00
        E 22 85 30 00
        E 90 85 30 00
        E 10 85 35 00
        E 1626 85 37 00
        E 123 95 27 52
        E 3 95 3c 50
        E 15 95 3b 37
        E 3 95 3f 31
        E 7 95 3d 2f
        E 6 85 36 00
        E 1 85 35 00
        E 32 85 3d 00
        E 87 85 32 00
        E 72 85 32 00
        E 1606 85 3f 00
        E 75 85 27 00
        E 8 85 3d 00
        E 14 95 3e 37
        E 6 95 2b 4b
        E 2 95 3d 24
        E 4 95 3f 20
        E 53 85 3c 00
        E 246 85 3b 00
        E 1558 85 3d 00
        E 47 95 3e 32
        E 3 95 38 43
        E 8 95 37 37
        E 3 95 3e 32
        E 1 95 3e 2d
        E 3 95 3d 39
        E 6 95 3d 31
        E 19 85 3e 00
        E 6 85 3f 00
        E 205 85 2b 00
        E 1448 85 3e 00
        E 154 85 3d 00
        E 12 85 38 00
        E 5 85 3d 00
        E 44 85 37 00
        E 1 95 36 46
        E 4 95 36 46
        E 7 95 36 45
        E 0 95 3c 42
        E 5 95 3e 3b
        E 3 95 3d 39
        E 7 95 41 41
        E 37 85 3e 00
        E 57 85 3e 00
        E 1748 85 3e 00
        E 12 85 36 00
        E 14 85 3c 00
        E 2 85 36 00
        E 24 95 3f 48
        E 3 95 3e 55
        E 1 85 36 00
        E 1 95 3d 3f
        E 6 95 43 48
        E 3 95 34 2e
        E 0 95 3c 2f
        E 4 95 3d 3f
        E 4 85 41 00
        E 6 95 3f 28
        E 75 85 3d 00
        E 1640 85 3f 00
        E 59 85 3f 00
        E 59 85 3d 00
        E 45 85 43 00
        E 7 85 3d 00
        E 3 95 3f 31
        E 1 95 3e 41
        E 3 95 3e 41
        E 0 95 31 3b
        E 2 95 37 41
        E 11 95 33 2a
        E 5 95 31 2d
        E 1 95 34 20
        E 49 85 34 00
        E 24 85 3c 00
        E 35 85 3e 00
        E 1667 85 3e 00
        E 28 85 37 00
        E 65 85 3e 00
        E 35 85 31 00
        E 19 95 3c 49
        E 0 95 3d 38
        E 1 95 3c 31
        E 3 95 3c 3b
        E 35 85 33 00
        E 12 85 31 00
        E 70 85 34 00
        E 10 85 3f 00
        E 1659 85 3d 00
        E 74 85 3c 00
        E 20 85 3c 00
        E 18 95 32 4c
        E 0 95 32 50
        E 6 95 32 50
        E 0 95 30 45
        E 2 95 37 49
        E 1 95 3e 56
        E 8 95 3e 56
        E 0 95 3f 4c
        E 58 85 3c 00
        E 1677 85 37 00
        E 143 85 3e 00
        E 8 85 32 00
        E 9 85 32 00
        E 11 95 37 52
        E 1 85 32 00
        E 0 95 3c 5d
        E 5 95 43 2d
        E 1 95 36 3b
        E 4 95 27 32
        E 0 95 30 35
        E 7 85 3e 00
        E 1 95 30 35
        E 3 95 36 34
        E 66 85 30 00
        E 7 85 3f 00
        E 1742 85 30 00
        E 8 85 36 00
        E 26 85 3c 00
        E 41 85 36 00
        E 4 95 36 3b
        E 9 85 37 00
        E 2 95 30 38
        E 0 95 37 2b
        E 1 95 2f 2d
        E 11 95 30 28
        E 24 85 43 00
        E 4 85 27 00
        E 141 85 30 00
        E 1602 85 2f 00
        E 124 95 3a 52
        E 0 95 3a 52
        E 15 85 30 00
        E 0 95 3a 3b
        E 40 85 37 00
        E 69 85 36 00
        E 1 85 30 00
        E 1792 85 3a 00
        E 3 95 42 59
        E 1 95 34 43
        E 1 95 42 59
        E 9 95 3f 5d
        E 5 95 3f 52
        E 1 95 36 48
        E 4 95 3f 5d
        E 36 85 3a 00
        E 27 85 3a 00
        E 1622 85 42 00
        E 39 85 42 00
        E 87 85 34 00
        E 2 85 3f 00
        E 49 85 3f 00
        E 29 85 3f 00
        E 7 95 31 4b
        E 4 95 39 48
        E 4 95 3b 4c
        E 2 95 3c 4f
        E 1 95 3c 4f
        E 3 95 3d 48
        E 7 95 3c 41
        E 1 95 41 49
        E 79 85 36 00
        E 1702 85 3c 00
        E 63 85 3b 00
        E 33 85 3c 00
        E 0 85 41 00
        E 10 85 31 00
        E 7 85 39 00
        E 6 95 40 3f
        E 12 95 3d 2b
        E 0 95 30 2d
        E 5 95 42 31
        E 4 95 33 31
        E 3 95 32 24
        E 1 85 3d 00
        E 211 85 3c 00
        E 1476 85 3d 00
        E 80 85 42 00
        E 119 85 33 00
        E 10 95 3e 5a
        E 1 95 3c 43
        E 0 95 42 5d
        E 13 95 32 3f
        E 1 95 3c 3c
        E 6 95 3d 3f
        E 3 95 3c 38
        E 10 85 30 00
        E 17 85 40 00
        E 181 85 32 00
        E 1594 85 3c 00
        E 35 85 42 00
        E 45 85 32 00
        E 3 85 3c 00
        E 9 95 40 59
        E 1 95 3e 58
        E 4 95 2e 55
        E 1 95 42 5d
        E 8 95 3c 55
        E 1 95 3e 4f
        E 3 95 3e 58
        E 61 85 3e 00
        E 0 85 3d 00
        E 81 85 3c 00
        E 1635 85 40 00
        E 52 85 3e 00
        E 22 85 2e 00
        E 17 85 3c 00
        E 9 85 3e 00
        E 27 95 3c 50
        E 12 95 43 5c
        E 0 95 42 46
        E 10 95 3e 59
        E 46 85 42 00
        E 2 85 3e 00
        E 1781 85 3e 00
        E 15 85 43 00
        E 50 85 42 00
        E 3 95 3c 4e
        E 5 95 3c 4e
        E 4 95 3d 48
        E 2 95 3d 32
        E 3 95 3d 3f
        E 6 95 3e 3f
        E 65 85 3c 00
        E 1740 85 3c 00
        E 44 85 3d 00
        E 22 85 3d 00
        E 13 85 3c 00
        E 15 95 3d 56
        E 5 95 3e 4e
        E 0 95 3e 56
        E 10 95 3d 56
        E 83 85 3d 00
        E 34 85 3e 00
        E 1713 85 3e 00
        E 18 85 3e 00
        E 54 95 29 4f
        E 14 95 3c 56
        E 1 95 3d 3b
        E 1 95 3c 56
        E 7 95 3c 48
        E 2 95 3c 37
        E 0 95 3c 3c
        E 2 85 3d 00
        E 35 85 3d 00
        E 1780 85 3d 00
        E 108 85 3c 00
        E 0 85 3c 00
        E 30 85 3c 00
        E 4 85 29 00
        E 37 85 3c 00
        E 27 85 3c 00
        E 0 b5 7b 00
        E 1 ff 2f 00
      >
    >
  >
  <TRACK
    NAME "Choir"
    PEAKCOL 4284506208
    VOLPAN 1.000000 0 1 -1
    MIDIOUT -1
    ISBUS 0 0
    <ITEM
      POSITION 13.343868
      LENGTH 93.234920
      NAME "Choir"
      VOLPAN 1 0 1 -1
      <SOURCE MIDI
        HASDATA 1 960 QN
        E 0 c6 34 00
        E 15372 96 38 41
        E 11 96 33 5a
        E 1731 86 38 00
        E 21 86 33 00
        E 150 96 41 5c
        E 1712 86 41 00
        E 204 96 3e 45
        E 13 96 41 39
        E 12 96 39 3b
        E 1595 86 41 00
        E 233 86 39 00
        E 17 86 3e 00
        E 61 96 37 4e
        E 5 96 3f 42
        E 1702 86 37 00
        E 44 86 3f 00
        E 170 96 3e 3e
        E 1808 86 3e 00
        E 105 96 3b 48
        E 1574 86 3b 00
        E 2266 96 3c 48
        E 18 96 34 6d
        E 1625 86 3c 00
        E 24 86 34 00
        E 254 96 3d 34
        E 19 96 36 41
        E 1647 86 3d 00
        E 69 86 36 00
        E 182 96 3c 4b
        E 4 96 3c 4b
        E 1790 86 3c 00
        E 59 86 3c 00
        E 72 96 35 45
        E 4 96 3e 41
        E 12 96 34 49
        E 1726 86 3e 00
        E 44 86 35 00
        E 69 86 34 00
        E 71 96 36 3f
        E 5 96 32 3f
        E 1596 86 32 00
        E 130 86 36 00
        E 181 96 41 48
        E 4 96 34 37
        E 1783 86 41 00
        E 105 86 34 00
        E 30 96 3e 46
        E 18 96 37 48
        E 1688 86 3e 00
        E 95 86 37 00
        E 142 96 30 50
        E 1819 86 30 00
        E 79 96 36 55
        E 4 96 3c 4b
        E 10 96 34 4b
        E 1797 86 36 00
        E 11 86 3c 00
        E 27 86 34 00
        E 64 96 3b 38
        E 14 96 3e 42
        E 11 96 35 3b
        E 1705 86 3b 00
        E 49 86 3e 00
        E 147 96 3c 4f
        E 8 96 34 3e
        E 3 96 36 4b
        E 45 86 35 00
        E 1594 86 3c 00
        E 188 86 36 00
        E 5 86 34 00
        E 74 96 3c 4e
        E 19 96 36 48
        E 1684 86 36 00
        E 75 86 3c 00
        E 148 96 40 50
        E 13 96 38 56
        E 8 96 34 56
        E 1677 86 34 00
        E 157 86 38 00
        E 17 86 40 00
        E 67 96 37 5d
        E 1870 86 37 00
        E 38 96 38 3b
        E 10 96 34 43
        E 1713 86 34 00
        E 88 86 38 00
        E 104 96 3d 4f
        E 2 96 3d 4f
        E 4 96 34 45
        E 3 96 36 5c
        E 1671 86 3d 00
        E 4 86 36 00
        E 15 86 3d 00
        E 87 86 34 00
        E 127 96 37 5a
        E 1824 86 37 00
        E 97 96 3b 48
        E 7 96 40 46
        E 2 96 34 4b
        E 3 96 33 43
        E 1715 86 40 00
        E 56 86 34 00
        E 41 86 33 00
        E 5 86 3b 00
        E 91 96 3f 50
        E 3 96 3e 4c
        E 2 96 37 50
        E 26 96 32 56
        E 1623 86 3e 00
        E 97 86 32 00
        E 3 86 3f 00
        E 162 96 3f 3f
        E 2 96 40 45
        E 15 96 37 41
        E 3 96 32 46
        E 33 86 37 00
        E 1484 86 32 00
        E 127 86 40 00
        E 65 86 37 00
        E 84 86 3f 00
        E 121 96 40 5a
        E 15 96 33 41
        E 1579 86 40 00
        E 246 86 33 00
        E 75 96 3e 46
        E 14 96 37 45
        E 1683 86 37 00
        E 213 96 3c 3c
        E 5 96 3f 2f
        E 13 96 32 43
        E 1 96 31 35
        E 39 86 3e 00
        E 1595 86 32 00
        E 182 86 3f 00
        E 3 86 31 00
        E 50 86 3c 00
        E 42 96 3f 4b
        E 11 96 3c 56
        E 7 96 3e 46
        E 1707 86 3e 00
        E 9 86 3c 00
        E 1 86 3f 00
        E 180 96 3f 69
        E 9 96 3e 6d
        E 8 96 37 73
        E 3 96 33 63
        E 1581 86 3e 00
        E 107 86 3f 00
        E 74 86 33 00
        E 50 86 37 00
        E 91 96 32 48
        E 1 96 3c 42
        E 3 96 3e 56
        E 21 96 31 46
        E 1601 86 3c 00
        E 91 86 32 00
        E 140 86 31 00
        E 20 86 3e 00
        E 20 96 3c 66
        E 34 96 3e 42
        E 1 96 33 49
        E 1 96 34 4b
        E 1687 86 3e 00
        E 32 86 3c 00
        E 37 86 34 00
        E 151 96 31 4f
        E 2 96 37 43
        E 16 96 32 5a
        E 8 86 33 00
        E 1659 86 32 00
        E 94 86 37 00
        E 82 86 31 00
        E 62 96 3f 6d
        E 1 96 3c 6d
        E 4 96 34 67
        E 9 96 33 6d
        E 1710 86 33 00
        E 25 86 3f 00
        E 39 86 3c 00
        E 34 86 34 00
        E 92 96 3b 49
        E 9 96 3c 52
        E 1 96 35 4b
        E 15 96 36 4f
        E 1696 86 3c 00
        E 10 86 36 00
        E 136 86 3b 00
        E 18 86 35 00
        E 32 96 3d 58
        E 1 96 3e 5c
        E 6 96 31 4b
        E 11 96 34 5a
        E 1653 86 3e 00
        E 50 86 34 00
        E 17 86 31 00
        E 120 86 3d 00
        E 61 96 3b 62
        E 9 96 3e 6a
        E 9 96 34 6d
        E 2 96 34 6d
        E 1598 86 34 00
        E 148 86 3e 00
        E 70 86 3b 00
        E 52 86 34 00
        E 46 96 3c 6f
        E 13 96 35 73
        E 1762 86 3c 00
        E 137 96 3f 62
        E 3 96 36 63
        E 6 86 35 00
        E 8 96 36 50
        E 1500 86 36 00
        E 149 86 3f 00
        E 113 86 36 00
        E 135 96 3f 55
        E 5 96 41 46
        E 1681 86 3f 00
        E 211 86 41 00
        E 30 96 3e 5c
        E 10 96 31 5a
        E 5 96 35 4b
        E 1699 86 31 00
        E 57 86 3e 00
        E 116 86 35 00
        E 36 96 38 76
        E 2 96 33 7d
        E 1677 86 38 00
        E 111 86 33 00
        E 122 96 42 7d
        E 9 96 40 70
        E 17 96 34 7c
        E 1484 86 40 00
        E 125 86 34 00
        E 174 86 42 00
        E 132 96 36 73
        E 1650 86 36 00
        E 280 96 36 7c
        E 1900 96 36 5c
        E 1 96 3e 66
        E 41 86 36 00
        E 1702 86 36 00
        E 159 86 3e 00
        E 8 96 3c 7d
        E 13 96 3e 7a
        E 3 96 32 75
        E 1708 86 32 00
        E 27 86 3c 00
        E 46 86 3e 00
        E 150 96 36 75
        E 1758 86 36 00
        E 147 96 36 75
        E 1 96 3f 73
        E 11 96 36 6d
        E 1594 86 3f 00
        E 96 86 36 00
        E 106 86 36 00
        E 98 96 40 77
        E 14 96 32 63
        E 1648 86 40 00
        E 96 86 32 00
        E 166 96 3f 7c
        E 10 96 42 7a
        E 1785 86 3f 00
        E 9 86 42 00
        E 109 96 3f 7c
        E 11 96 3a 77
        E 1 96 42 7a
        E 1717 86 3a 00
        E 35 86 42 00
        E 158 96 42 7d
        E 115 86 3f 00
        E 1651 86 42 00
        E 153 96 3e 67
        E 28 96 34 69
        E 1670 86 3e 00
        E 1 86 34 00
        E 0 b6 7b 00
        E 1 ff 2f 00
      >
    >
  >
  <TRACK
    NAME "Horns"
    PEAKCOL 4290740026
    VOLPAN 1.000000 0 1 -1
    MIDIOUT -1
    ISBUS 0 0
    <ITEM
      POSITION 26.665802
      LENGTH 85.104690
      NAME "Horns"
      VOLPAN 1 0 1 -1
      <SOURCE MIDI
        HASDATA 1 960 QN
        E 0 c7 3c 00
        E 30719 97 29 43
        E 1952 87 29 00
        E 5719 97 32 3c
        E 1973 87 32 00
        E 1873 97 24 2d
        E 1830 87 24 00
        E 3956 97 26 2e
        E 1999 87 26 00
        E 3765 97 25 38
        E 1960 87 25 00
        E 1870 97 21 39
        E 1904 87 21 00
        E 3846 97 19 3e
        E 1861 87 19 00
        E 72 97 18 2e
        E 1936 87 18 00
        E 3811 97 26 2d
        E 1885 87 26 00
        E 21 97 18 39
        E 1902 87 18 00
        E 1949 97 31 32
        E 1880 87 31 00
        E 50 97 27 3c
        E 1835 87 27 00
        E 81 97 13 43
        E 1916 87 13 00
        E 1919 97 27 35
        E 1888 87 27 00
        E 63 97 30 46
        E 1892 97 2e 46
        E 88 87 30 00
        E 1880 87 2e 00
        E 1859 97 25 50
        E 1861 87 25 00
        E 75 97 26 39
        E 1949 87 26 00
        E 7631 97 24 50
        E 1867 87 24 00
        E 5820 97 30 55
        E 1848 87 30 00
        E 1997 97 3a 50
        E 1888 87 3a 00
        E 1981 97 39 60
        E 1868 87 39 00
        E 1966 97 3a 4c
        E 1935 87 3a 00
        E 1899 97 36 5f
        E 1906 87 36 00
        E 0 b7 7b 00
        E 1 ff 2f 00
      >
    >
  >
  <TRACK
    NAME "Tuba"
    PEAKCOL 4290740026
    VOLPAN 1.000000 0 1 -1
    MIDIOUT -1
    ISBUS 0 0
    <ITEM
      POSITION 0.003069
      LENGTH 93.177601
      NAME "Tuba"
      VOLPAN 1 0 1 -1
      <SOURCE MIDI
        HASDATA 1 960 QN
        E 0 c8 3a 00
        E 4 98 26 2a
        E 1649 88 26 00
        E 272 98 28 46
        E 1604 88 28 00
        E 318 98 29 48
        E 1649 88 29 00
        E 261 98 27 48
        E 1629 88 27 00
        E 290 98 23 38
        E 1622 88 23 00
        E 302 98 24 48
        E 1619 88 24 00
        E 301 98 25 4b
        E 1670 88 25 00
        E 246 98 24 46
        E 1679 88 24 00
        E 244 98 24 3b
        E 1667 88 24 00
        E 257 98 23 4b
        E 1649 88 23 00
        E 274 98 27 2f
        E 1615 88 27 00
        E 307 98 27 41
        E 1613 88 27 00
        E 301 98 26 3f
        E 1614 88 26 00
        E 307 98 18 2f
        E 1601 88 18 00
        E 314 98 27 49
        E 1666 88 27 00
        E 263 98 24 4b
        E 1628 88 24 00
        E 286 98 24 2e
        E 1619 88 24 00
        E 305 98 24 28
        E 1673 88 24 00
        E 245 98 24 34
        E 1636 88 24 00
        E 280 98 26 4b
        E 1670 88 26 00
        E 249 98 26 55
        E 1623 88 26 00
        E 291 98 27 46
        E 1627 88 27 00
        E 309 98 24 45
        E 1654 88 24 00
        E 269 98 25 37
        E 1619 88 25 00
        E 288 98 23 52
        E 1618 88 23 00
        E 299 98 25 56
        E 1618 88 25 00
        E 308 98 1c 27
        E 1595 88 1c 00
        E 328 98 24 45
        E 1616 88 24 00
        E 298 98 26 52
        E 1647 88 26 00
        E 281 98 24 3c
        E 1628 88 24 00
        E 286 98 1c 38
        E 1635 88 1c 00
        E 290 98 25 4b
        E 1654 88 25 00
        E 263 98 28 3c
        E 1608 88 28 00
        E 317 98 25 50
        E 1658 88 25 00
        E 257 98 1d 39
        E 1602 88 1d 00
        E 319 98 1c 3b
        E 1607 88 1c 00
        E 314 98 25 3f
        E 1669 88 25 00
        E 248 98 29 34
        E 1624 88 29 00
        E 294 98 23 4c
        E 1630 88 23 00
        E 298 98 24 60
        E 1651 88 24 00
        E 262 98 27 31
        E 1660 88 27 00
        E 263 98 27 3f
        E 1580 88 27 00
        E 341 98 26 4e
        E 1646 88 26 00
        E 271 98 26 67
        E 1632 88 26 00
        E 286 98 24 76
        E 1633 88 24 00
        E 287 98 1c 62
        E 1630 88 1c 00
        E 296 98 25 58
        E 1653 88 25 00
        E 263 98 1d 69
        E 1625 88 1d 00
        E 306 98 25 4e
        E 1618 88 25 00
        E 288 98 24 69
        E 1665 88 24 00
        E 260 98 1f 42
        E 1649 88 1f 00
        E 266 98 28 6c
        E 1617 88 28 00
        E 304 98 26 64
        E 1663 88 26 00
        E 264 98 24 69
        E 1647 88 24 00
        E 269 98 23 5d
        E 1617 88 23 00
        E 305 98 24 4b
        E 1625 88 24 00
        E 0 b8 7b 00
        E 1 ff 2f 00
      >
    >
  >
  <TRACK
    NAME "Ostinato"
    PEAKCOL 4284506208
    VOLPAN 1.000000 0 1 -1
    MIDIOUT -1
    ISBUS 0 0
    <ITEM
      POSITION 0.000000
      LENGTH 92.345578
      NAME "Ostinato"
      VOLPAN 1 0 1 -1
      <SOURCE MIDI
        HASDATA 1 960 QN
        E 0 ca 2c 00
        E 0 9a 1a 28
        E 198 8a 1a 00
        E 42 9a 1a 3f
        E 196 8a 1a 00
        E 45 9a 19 3b
        E 189 8a 19 00
        E 50 9a 1a 45
        E 194 8a 1a 00
        E 45 9a 1a 3f
        E 189 8a 1a 00
        E 53 9a 1a 45
        E 193 8a 1a 00
        E 47 9a 1a 3b
        E 193 8a 1a 00
        E 47 9a 19 39
        E 193 8a 19 00
        E 47 9a 19 3f
        E 195 8a 19 00
        E 44 9a 19 42
        E 187 8a 19 00
        E 53 9a 19 3b
        E 198 8a 19 00
        E 42 9a 19 3e
        E 193 8a 19 00
        E 47 9a 1a 49
        E 194 8a 1a 00
        E 46 9a 1a 4c
        E 191 8a 1a 00
        E 49 9a 18 3e
        E 194 8a 18 00
        E 46 9a 19 42
        E 196 8a 19 00
        E 44 9a 1a 50
        E 174 8a 1a 00
        E 67 9a 1a 49
        E 197 8a 1a 00
        E 42 9a 19 43
        E 185 8a 19 00
        E 55 9a 1a 4e
        E 190 8a 1a 00
        E 50 9a 1a 45
        E 195 8a 1a 00
        E 45 9a 1a 48
        E 183 8a 1a 00
        E 57 9a 19 42
        E 189 8a 19 00
        E 51 9a 19 35
        E 186 8a 19 00
        E 54 9a 1b 32
        E 183 8a 1b 00
        E 57 9a 19 3b
        E 190 8a 19 00
        E 50 9a 18 42
        E 189 8a 18 00
        E 51 9a 18 3f
        E 188 8a 18 00
        E 52 9a 19 37
        E 179 8a 19 00
        E 62 9a 18 2d
        E 195 8a 18 00
        E 43 9a 15 3b
        E 189 8a 15 00
        E 51 9a 15 35
        E 194 8a 15 00
        E 47 9a 15 20
        E 189 8a 15 00
        E 50 9a 1a 3c
        E 200 8a 1a 00
        E 41 9a 1a 45
        E 190 8a 1a 00
        E 50 9a 19 3b
        E 198 8a 19 00
        E 42 9a 18 34
        E 197 8a 18 00
        E 43 9a 19 3f
        E 195 8a 19 00
        E 45 9a 19 41
        E 192 8a 19 00
        E 47 9a 1a 31
        E 189 8a 1a 00
        E 51 9a 19 43
        E 195 8a 19 00
        E 46 9a 19 48
        E 190 8a 19 00
        E 50 9a 19 45
        E 188 8a 19 00
        E 51 9a 19 3c
        E 193 8a 19 00
        E 49 9a 18 43
        E 193 8a 18 00
        E 46 9a 18 3c
        E 191 8a 18 00
        E 49 9a 1a 3b
        E 202 8a 1a 00
        E 38 9a 1a 38
        E 186 8a 1a 00
        E 54 9a 1a 48
        E 196 8a 1a 00
        E 44 9a 18 45
        E 195 8a 18 00
        E 46 9a 19 3f
        E 198 8a 19 00
        E 41 9a 1a 52
        E 195 8a 1a 00
        E 43 9a 19 48
        E 187 8a 19 00
        E 55 9a 18 3c
        E 201 8a 18 00
        E 39 9a 17 3e
        E 196 8a 17 00
        E 44 9a 16 41
        E 187 8a 16 00
        E 54 9a 19 48
        E 197 8a 19 00
        E 42 9a 19 34
        E 198 8a 19 00
        E 43 9a 1d 3c
        E 194 8a 1d 00
        E 44 9a 18 35
        E 192 8a 18 00
        E 49 9a 18 3f
        E 189 8a 18 00
        E 51 9a 1c 3c
        E 192 8a 1c 00
        E 48 9a 19 2b
        E 187 8a 19 00
        E 53 9a 18 2b
        E 190 8a 18 00
        E 48 9a 1a 25
        E 195 8a 1a 00
        E 46 9a 1c 32
        E 192 8a 1c 00
        E 50 9a 1d 37
        E 194 8a 1d 00
        E 45 9a 1a 3e
        E 188 8a 1a 00
        E 52 9a 1a 45
        E 186 8a 1a 00
        E 54 9a 17 38
        E 189 8a 17 00
        E 51 9a 16 41
        E 197 8a 16 00
        E 42 9a 1a 32
        E 188 8a 1a 00
        E 52 9a 1b 35
        E 199 8a 1b 00
        E 41 9a 19 49
        E 199 8a 19 00
        E 41 9a 1a 43
        E 198 8a 1a 00
        E 43 9a 1c 41
        E 200 8a 1c 00
        E 39 9a 1a 3c
        E 195 8a 1a 00
        E 45 9a 1b 46
        E 201 8a 1b 00
        E 41 9a 1b 3c
        E 195 8a 1b 00
        E 45 9a 19 3f
        E 191 8a 19 00
        E 49 9a 18 31
        E 198 8a 18 00
        E 40 9a 18 31
        E 194 8a 18 00
        E 47 9a 16 45
        E 189 8a 16 00
        E 50 9a 1a 46
        E 194 8a 1a 00
        E 46 9a 19 48
        E 197 8a 19 00
        E 44 9a 19 49
        E 193 8a 19 00
        E 48 9a 19 3e
        E 188 8a 19 00
        E 49 9a 19 43
        E 190 8a 19 00
        E 52 9a 18 35
        E 184 8a 18 00
        E 56 9a 19 35
        E 191 8a 19 00
        E 47 9a 1a 37
        E 184 8a 1a 00
        E 58 9a 1b 39
        E 196 8a 1b 00
        E 43 9a 1b 32
        E 199 8a 1b 00
        E 41 9a 1b 31
        E 193 8a 1b 00
        E 48 9a 1a 41
        E 196 8a 1a 00
        E 44 9a 18 2b
        E 192 8a 18 00
        E 49 9a 18 1b
        E 192 8a 18 00
        E 47 9a 1b 38
        E 195 8a 1b 00
        E 45 9a 1a 3e
        E 190 8a 1a 00
        E 50 9a 1b 41
        E 198 8a 1b 00
        E 42 9a 1a 3f
        E 191 8a 1a 00
        E 49 9a 1a 3f
        E 180 8a 1a 00
        E 61 9a 18 48
        E 195 8a 18 00
        E 44 9a 1a 3c
        E 195 8a 1a 00
        E 46 9a 13 34
        E 192 8a 13 00
        E 47 9a 1c 3c
        E 197 8a 1c 00
        E 43 9a 1c 34
        E 192 8a 1c 00
        E 1488 9a 1b 48
        E 193 8a 1b 00
        E 47 9a 1b 52
        E 188 8a 1b 00
        E 51 9a 1a 50
        E 198 8a 1a 00
        E 43 9a 1b 41
        E 196 8a 1b 00
        E 45 9a 1b 4b
        E 185 8a 1b 00
        E 54 9a 1b 4e
        E 201 8a 1b 00
        E 39 9a 1a 4c
        E 184 8a 1a 00
        E 55 9a 1a 48
        E 185 8a 1a 00
        E 57 9a 19 4b
        E 195 8a 19 00
        E 44 9a 19 46
        E 195 8a 19 00
        E 45 9a 19 4e
        E 191 8a 19 00
        E 50 9a 18 3f
        E 194 8a 18 00
        E 44 9a 19 3c
        E 191 8a 19 00
        E 50 9a 19 38
        E 196 8a 19 00
        E 44 9a 1a 3e
        E 188 8a 1a 00
        E 52 9a 18 24
        E 193 8a 18 00
        E 46 9a 11 1d
        E 185 8a 11 00
        E 57 9a 18 48
        E 194 8a 18 00
        E 46 9a 17 42
        E 193 8a 17 00
        E 47 9a 17 3e
        E 186 8a 17 00
        E 53 9a 17 49
        E 202 8a 17 00
        E 38 9a 18 45
        E 191 8a 18 00
        E 49 9a 18 53
        E 192 8a 18 00
        E 49 9a 18 2f
        E 188 8a 18 00
        E 51 9a 1d 45
        E 189 8a 1d 00
        E 51 9a 15 41
        E 191 8a 15 00
        E 49 9a 18 4e
        E 194 8a 18 00
        E 46 9a 17 4f
        E 193 8a 17 00
        E 47 9a 15 49
        E 185 8a 15 00
        E 54 9a 15 3c
        E 193 8a 15 00
        E 48 9a 19 49
        E 192 8a 19 00
        E 48 9a 1a 46
        E 189 8a 1a 00
        E 49 9a 19 37
        E 185 8a 19 00
        E 56 9a 19 4b
        E 187 8a 19 00
        E 54 9a 19 52
        E 186 8a 19 00
        E 54 9a 19 46
        E 192 8a 19 00
        E 47 9a 18 49
        E 196 8a 18 00
        E 45 9a 19 4f
        E 193 8a 19 00
        E 49 9a 19 4e
        E 194 8a 19 00
        E 44 9a 19 35
        E 186 8a 19 00
        E 53 9a 19 2e
        E 197 8a 19 00
        E 43 9a 1a 41
        E 189 8a 1a 00
        E 52 9a 19 48
        E 189 8a 19 00
        E 51 9a 19 49
        E 197 8a 19 00
        E 44 9a 1a 3c
        E 194 8a 1a 00
        E 45 9a 16 4e
        E 194 8a 16 00
        E 47 9a 18 39
        E 188 8a 18 00
        E 50 9a 1b 38
        E 194 8a 1b 00
        E 47 9a 11 27
        E 194 8a 11 00
        E 46 9a 15 2a
        E 188 8a 15 00
        E 51 9a 1b 4f
        E 189 8a 1b 00
        E 51 9a 1c 4f
        E 197 8a 1c 00
        E 44 9a 14 48
        E 197 8a 14 00
        E 42 9a 14 3f
        E 192 8a 14 00
        E 49 9a 19 49
        E 194 8a 19 00
        E 46 9a 1a 4f
        E 203 8a 1a 00
        E 38 9a 1b 52
        E 206 8a 1b 00
        E 34 9a 1a 49
        E 186 8a 1a 00
        E 52 9a 1a 4b
        E 198 8a 1a 00
        E 44 9a 1a 43
        E 198 8a 1a 00
        E 40 9a 1a 55
        E 196 8a 1a 00
        E 46 9a 1b 49
        E 188 8a 1b 00
        E 52 9a 14 35
        E 191 8a 14 00
        E 48 9a 19 4e
        E 189 8a 19 00
        E 52 9a 1b 4c
        E 184 8a 1b 00
        E 56 9a 1b 49
        E 195 8a 1b 00
        E 44 9a 1a 4f
        E 195 8a 1a 00
        E 46 9a 15 49
        E 186 8a 15 00
        E 53 9a 17 52
        E 187 8a 17 00
        E 53 9a 15 50
        E 186 8a 15 00
        E 55 9a 14 4f
        E 202 8a 14 00
        E 38 9a 1a 39
        E 192 8a 1a 00
        E 47 9a 1a 52
        E 187 8a 1a 00
        E 52 9a 1a 45
        E 192 8a 1a 00
        E 48 9a 18 45
        E 196 8a 18 00
        E 46 9a 19 49
        E 189 8a 19 00
        E 50 9a 1b 4e
        E 188 8a 1b 00
        E 52 9a 1a 3c
        E 192 8a 1a 00
        E 47 9a 1a 35
        E 192 8a 1a 00
        E 49 9a 19 3c
        E 199 8a 19 00
        E 40 9a 19 1d
        E 187 8a 19 00
        E 55 9a 19 32
        E 199 8a 19 00
        E 41 9a 19 46
        E 189 8a 19 00
        E 51 9a 19 41
        E 195 8a 19 00
        E 43 9a 18 4b
        E 194 8a 18 00
        E 47 9a 18 41
        E 188 8a 18 00
        E 52 9a 1a 4f
        E 196 8a 1a 00
        E 45 9a 1a 32
        E 191 8a 1a 00
        E 49 9a 1a 46
        E 187 8a 1a 00
        E 52 9a 18 3f
        E 183 8a 18 00
        E 56 9a 19 45
        E 192 8a 19 00
        E 49 9a 18 4c
        E 192 8a 18 00
        E 48 9a 1a 59
        E 195 8a 1a 00
        E 43 9a 1a 56
        E 198 8a 1a 00
        E 45 9a 19 42
        E 187 8a 19 00
        E 53 9a 1b 37
        E 183 8a 1b 00
        E 55 9a 17 32
        E 198 8a 17 00
        E 43 9a 1b 56
        E 191 8a 1b 00
        E 49 9a 1c 49
        E 198 8a 1c 00
        E 41 9a 1c 4b
        E 197 8a 1c 00
        E 44 9a 1b 49
        E 190 8a 1b 00
        E 50 9a 15 41
        E 196 8a 15 00
        E 44 9a 19 49
        E 196 8a 19 00
        E 44 9a 18 46
        E 194 8a 18 00
        E 45 9a 19 46
        E 201 8a 19 00
        E 1719 9a 1b 37
        E 199 8a 1b 00
        E 41 9a 14 45
        E 191 8a 14 00
        E 50 9a 0f 43
        E 187 8a 0f 00
        E 53 9a 1b 59
        E 191 8a 1b 00
        E 49 9a 1b 4f
        E 193 8a 1b 00
        E 48 9a 1a 58
        E 196 8a 1a 00
        E 44 9a 19 4f
        E 194 8a 19 00
        E 45 9a 19 31
        E 193 8a 19 00
        E 47 9a 19 2e
        E 193 8a 19 00
        E 48 9a 18 66
        E 190 8a 18 00
        E 49 9a 19 59
        E 198 8a 19 00
        E 42 9a 19 59
        E 195 8a 19 00
        E 46 9a 19 5a
        E 192 8a 19 00
        E 48 9a 19 59
        E 193 8a 19 00
        E 46 9a 1a 59
        E 198 8a 1a 00
        E 43 9a 19 3c
        E 196 8a 19 00
        E 44 9a 18 58
        E 195 8a 18 00
        E 45 9a 1c 62
        E 192 8a 1c 00
        E 47 9a 17 5d
        E 195 8a 17 00
        E 44 9a 18 58
        E 188 8a 18 00
        E 54 9a 19 60
        E 195 8a 19 00
        E 43 9a 19 60
        E 193 8a 19 00
        E 49 9a 18 66
        E 186 8a 18 00
        E 54 9a 18 49
        E 196 8a 18 00
        E 43 9a 18 38
        E 197 8a 18 00
        E 43 9a 18 5d
        E 190 8a 18 00
        E 51 9a 18 5c
        E 187 8a 18 00
        E 51 9a 18 50
        E 191 8a 18 00
        E 50 9a 18 50
        E 199 8a 18 00
        E 41 9a 17 48
        E 197 8a 17 00
        E 43 9a 19 4e
        E 186 8a 19 00
        E 53 9a 10 52
        E 191 8a 10 00
        E 51 9a 1a 49
        E 198 8a 1a 00
        E 42 9a 18 3f
        E 191 8a 18 00
        E 47 9a 19 48
        E 196 8a 19 00
        E 46 9a 18 56
        E 192 8a 18 00
        E 47 9a 18 55
        E 188 8a 18 00
        E 53 9a 18 4e
        E 191 8a 18 00
        E 48 9a 19 49
        E 197 8a 19 00
        E 42 9a 14 4c
        E 193 8a 14 00
        E 48 9a 1b 4e
        E 190 8a 1b 00
        E 50 9a 1c 5a
        E 194 8a 1c 00
        E 46 9a 19 5c
        E 194 8a 19 00
        E 46 9a 1b 53
        E 192 8a 1b 00
        E 47 9a 14 5c
        E 190 8a 14 00
        E 51 9a 1b 59
        E 193 8a 1b 00
        E 47 9a 19 5d
        E 202 8a 19 00
        E 38 9a 18 5d
        E 187 8a 18 00
        E 53 9a 1b 35
        E 199 8a 1b 00
        E 42 9a 1b 58
        E 179 8a 1b 00
        E 60 9a 1b 5f
        E 196 8a 1b 00
        E 43 9a 1b 56
        E 183 8a 1b 00
        E 58 9a 1a 59
        E 194 8a 1a 00
        E 45 9a 19 5d
        E 191 8a 19 00
        E 51 9a 19 53
        E 195 8a 19 00
        E 44 9a 1a 62
        E 194 8a 1a 00
        E 47 9a 19 64
        E 184 8a 19 00
        E 55 9a 19 5d
        E 185 8a 19 00
        E 53 9a 19 58
        E 198 8a 19 00
        E 44 9a 19 5c
        E 187 8a 19 00
        E 54 9a 18 52
        E 193 8a 18 00
        E 46 9a 18 55
        E 189 8a 18 00
        E 51 9a 18 55
        E 201 8a 18 00
        E 38 9a 1a 55
        E 191 8a 1a 00
        E 49 9a 1b 32
        E 184 8a 1b 00
        E 57 9a 14 49
        E 190 8a 14 00
        E 50 9a 09 38
        E 182 8a 09 00
        E 57 9a 1c 31
        E 190 8a 1c 00
        E 51 9a 1c 59
        E 186 8a 1c 00
        E 54 9a 14 55
        E 195 8a 14 00
        E 45 9a 18 59
        E 194 8a 18 00
        E 47 9a 1a 2f
        E 194 8a 1a 00
        E 44 9a 1b 31
        E 188 8a 1b 00
        E 54 9a 1c 5d
        E 194 8a 1c 00
        E 45 9a 14 59
        E 192 8a 14 00
        E 48 9a 1a 56
        E 200 8a 1a 00
        E 41 9a 19 4c
        E 199 8a 19 00
        E 39 9a 1c 62
        E 195 8a 1c 00
        E 47 9a 1b 4e
        E 194 8a 1b 00
        E 46 9a 1a 42
        E 197 8a 1a 00
        E 41 9a 1a 45
        E 195 8a 1a 00
        E 47 9a 1b 60
        E 194 8a 1b 00
        E 45 9a 1b 60
        E 192 8a 1b 00
        E 48 9a 1b 4c
        E 189 8a 1b 00
        E 52 9a 1a 5d
        E 195 8a 1a 00
        E 45 9a 1a 59
        E 194 8a 1a 00
        E 44 9a 18 5c
        E 201 8a 18 00
        E 39 9a 1a 58
        E 187 8a 1a 00
        E 55 9a 1b 5d
        E 196 8a 1b 00
        E 44 9a 1b 64
        E 185 8a 1b 00
        E 54 9a 19 59
        E 193 8a 19 00
        E 46 9a 1b 60
        E 188 8a 1b 00
        E 54 9a 1b 4e
        E 196 8a 1b 00
        E 44 9a 1a 50
        E 197 8a 1a 00
        E 43 9a 13 4e
        E 186 8a 13 00
        E 53 9a 1b 35
        E 191 8a 1b 00
        E 50 9a 1c 4e
        E 192 8a 1c 00
        E 47 9a 19 46
        E 195 8a 19 00
        E 45 9a 1a 50
        E 197 8a 1a 00
        E 42 9a 1a 49
        E 179 8a 1a 00
        E 62 9a 1a 4e
        E 192 8a 1a 00
        E 48 9a 19 50
        E 189 8a 19 00
        E 50 9a 13 55
        E 191 8a 13 00
        E 51 9a 1a 38
        E 199 8a 1a 00
        E 40 9a 1a 38
        E 191 8a 1a 00
        E 1728 9a 1b 4e
        E 199 8a 1b 00
        E 42 9a 1b 69
        E 196 8a 1b 00
        E 43 9a 1b 66
        E 192 8a 1b 00
        E 47 9a 1a 69
        E 195 8a 1a 00
        E 46 9a 1b 62
        E 193 8a 1b 00
        E 48 9a 1a 5c
        E 184 8a 1a 00
        E 57 9a 19 63
        E 192 8a 19 00
        E 47 9a 1f 64
        E 191 8a 1f 00
        E 49 9a 1b 71
        E 189 8a 1b 00
        E 50 9a 1b 64
        E 186 8a 1b 00
        E 56 9a 1b 62
        E 199 8a 1b 00
        E 41 9a 13 63
        E 191 8a 13 00
        E 48 9a 13 62
        E 185 8a 13 00
        E 55 9a 1b 63
        E 203 8a 1b 00
        E 37 9a 1a 5c
        E 191 8a 1a 00
        E 50 9a 19 38
        E 188 8a 19 00
        E 52 9a 14 5c
        E 194 8a 14 00
        E 45 9a 1a 58
        E 198 8a 1a 00
        E 43 9a 1a 5d
        E 189 8a 1a 00
        E 51 9a 19 55
        E 194 8a 19 00
        E 46 9a 18 56
        E 192 8a 18 00
        E 47 9a 19 4e
        E 188 8a 19 00
        E 52 9a 18 59
        E 197 8a 18 00
        E 41 9a 19 62
        E 192 8a 19 00
        E 51 9a 1b 58
        E 188 8a 1b 00
        E 51 9a 16 5a
        E 192 8a 16 00
        E 49 9a 19 62
        E 190 8a 19 00
        E 47 9a 19 5f
        E 191 8a 19 00
        E 51 9a 1a 63
        E 193 8a 1a 00
        E 46 9a 19 63
        E 196 8a 19 00
        E 45 9a 19 5d
        E 196 8a 19 00
        E 44 9a 19 55
        E 188 8a 19 00
        E 52 9a 1a 58
        E 187 8a 1a 00
        E 52 9a 1b 63
        E 190 8a 1b 00
        E 52 9a 1c 66
        E 194 8a 1c 00
        E 45 9a 1a 66
        E 189 8a 1a 00
        E 51 9a 1a 5d
        E 192 8a 1a 00
        E 49 9a 1a 60
        E 195 8a 1a 00
        E 45 9a 1b 6a
        E 196 8a 1b 00
        E 44 9a 19 73
        E 200 8a 19 00
        E 39 9a 18 64
        E 195 8a 18 00
        E 45 9a 19 75
        E 198 8a 19 00
        E 43 9a 19 62
        E 192 8a 19 00
        E 48 9a 19 64
        E 192 8a 19 00
        E 47 9a 18 66
        E 193 8a 18 00
        E 48 9a 17 59
        E 187 8a 17 00
        E 52 9a 14 62
        E 199 8a 14 00
        E 41 9a 19 41
        E 190 8a 19 00
        E 49 9a 17 43
        E 189 8a 17 00
        E 52 9a 17 49
        E 189 8a 17 00
        E 51 9a 11 46
        E 190 8a 11 00
        E 51 9a 1c 55
        E 189 8a 1c 00
        E 50 9a 18 55
        E 197 8a 18 00
        E 43 9a 19 45
        E 191 8a 19 00
        E 49 9a 1a 5a
        E 186 8a 1a 00
        E 54 9a 18 3f
        E 194 8a 18 00
        E 46 9a 19 3f
        E 197 8a 19 00
        E 43 9a 18 62
        E 187 8a 18 00
        E 51 9a 19 62
        E 193 8a 19 00
        E 50 9a 19 71
        E 196 8a 19 00
        E 44 9a 18 5a
        E 194 8a 18 00
        E 44 9a 19 59
        E 187 8a 19 00
        E 53 9a 19 62
        E 197 8a 19 00
        E 43 9a 1a 60
        E 198 8a 1a 00
        E 41 9a 1a 50
        E 186 8a 1a 00
        E 56 9a 1b 64
        E 195 8a 1b 00
        E 45 9a 1b 6d
        E 185 8a 1b 00
        E 55 9a 1a 66
        E 191 8a 1a 00
        E 49 9a 1a 67
        E 190 8a 1a 00
        E 50 9a 19 69
        E 205 8a 19 00
        E 35 9a 19 6f
        E 186 8a 19 00
        E 53 9a 18 6f
        E 197 8a 18 00
        E 43 9a 16 67
        E 185 8a 16 00
        E 56 9a 14 66
        E 188 8a 14 00
        E 52 9a 1c 63
        E 200 8a 1c 00
        E 39 9a 1c 6d
        E 188 8a 1c 00
        E 53 9a 1b 62
        E 189 8a 1b 00
        E 52 9a 1b 6a
        E 202 8a 1b 00
        E 38 9a 18 6f
        E 192 8a 18 00
        E 47 9a 1a 59
        E 197 8a 1a 00
        E 44 9a 1b 5a
        E 188 8a 1b 00
        E 51 9a 0f 55
        E 193 8a 0f 00
        E 47 9a 1b 5c
        E 190 8a 1b 00
        E 49 9a 1c 5d
        E 188 8a 1c 00
        E 53 9a 1c 48
        E 183 8a 1c 00
        E 58 9a 1a 50
        E 184 8a 1a 00
        E 54 9a 09 42
        E 197 8a 09 00
        E 44 9a 19 66
        E 185 8a 19 00
        E 55 9a 19 5f
        E 195 8a 19 00
        E 45 9a 18 62
        E 194 8a 18 00
        E 46 9a 18 5a
        E 193 8a 18 00
        E 48 9a 19 66
        E 196 8a 19 00
        E 42 9a 18 62
        E 204 8a 18 00
        E 37 9a 19 64
        E 193 8a 19 00
        E 48 9a 18 66
        E 196 8a 18 00
        E 43 9a 18 69
        E 198 8a 18 00
        E 44 9a 18 66
        E 200 8a 18 00
        E 38 9a 19 71
        E 196 8a 19 00
        E 45 9a 18 71
        E 190 8a 18 00
        E 49 9a 17 66
        E 189 8a 17 00
        E 51 9a 17 67
        E 190 8a 17 00
        E 50 9a 19 6c
        E 198 8a 19 00
        E 42 9a 19 69
        E 195 8a 19 00
        E 46 9a 19 53
        E 191 8a 19 00
        E 47 9a 19 55
        E 179 8a 19 00
        E 61 9a 18 5d
        E 188 8a 18 00
        E 0 ba 7b 00
        E 1 ff 2f 00
      >
    >
  >
  <TRACK
    NAME "Timpani"
    PEAKCOL 4290722362
    VOLPAN 1.000000 0 1 -1
    MIDIOUT -1
    ISBUS 0 0
    <ITEM
      POSITION 6.666533
      LENGTH 93.307626
      NAME "Timpani"
      VOLPAN 1 0 1 -1
      <SOURCE MIDI
        HASDATA 1 960 QN
        E 0 cb 2f 00
        E 7680 9b 24 41
        E 96 8b 24 00
        E 384 9b 26 4f
        E 97 8b 26 00
        E 383 9b 26 56
        E 97 8b 26 00
        E 143 9b 25 4b
        E 97 8b 25 00
        E 143 9b 26 63
        E 94 8b 26 00
        E 26 9b 26 6a
        E 97 8b 26 00
        E 143 9b 26 4f
        E 96 8b 26 00
        E 624 9b 27 60
        E 97 8b 27 00
        E 143 9b 27 52
        E 96 8b 27 00
        E 24 9b 27 4b
        E 96 8b 27 00
        E 24 9b 24 3c
        E 93 8b 24 00
        E 28 9b 27 56
        E 96 8b 27 00
        E 263 9b 26 43
        E 97 8b 26 00
        E 22 9b 27 5a
        E 96 8b 27 00
        E 505 9b 23 48
        E 96 8b 23 00
        E 24 9b 27 55
        E 96 8b 27 00
        E 384 9b 28 4b
        E 96 8b 28 00
        E 384 9b 27 52
        E 95 8b 27 00
        E 505 9b 28 41
        E 97 8b 28 00
        E 23 9b 27 69
        E 97 8b 27 00
        E 743 9b 27 59
        E 96 8b 27 00
        E 24 9b 27 63
        E 95 8b 27 00
        E 25 9b 26 48
        E 97 8b 26 00
        E 23 9b 26 46
        E 95 8b 26 00
        E 25 9b 27 42
        E 97 8b 27 00
        E 504 9b 24 3c
        E 96 8b 24 00
        E 23 9b 25 5a
        E 96 8b 25 00
        E 504 9b 24 64
        E 96 8b 24 00
        E 984 9b 27 3e
        E 96 8b 27 00
        E 384 9b 28 3c
        E 96 8b 28 00
        E 144 9b 25 53
        E 97 8b 25 00
        E 1103 9b 26 32
        E 96 8b 26 00
        E 23 9b 26 2d
        E 96 8b 26 00
        E 25 9b 26 52
        E 95 8b 26 00
        E 266 9b 24 6d
        E 96 8b 24 00
        E 144 9b 22 4e
        E 97 8b 22 00
        E 262 9b 23 52
        E 97 8b 23 00
        E 23 9b 21 43
        E 95 8b 21 00
        E 985 9b 24 67
        E 96 8b 24 00
        E 265 9b 24 56
        E 96 8b 24 00
        E 263 9b 24 5f
        E 95 8b 24 00
        E 1105 9b 24 62
        E 96 8b 24 00
        E 264 9b 24 5c
        E 96 8b 24 00
        E 144 9b 24 75
        E 97 8b 24 00
        E 143 9b 26 4b
        E 97 8b 26 00
        E 263 9b 25 63
        E 96 8b 25 00
        E 144 9b 25 3c
        E 95 8b 25 00
        E 385 9b 25 59
        E 95 8b 25 00
        E 746 9b 23 52
        E 97 8b 23 00
        E 22 9b 27 52
        E 97 8b 27 00
        E 143 9b 24 43
        E 96 8b 24 00
        E 384 9b 24 5d
        E 96 8b 24 00
        E 24 9b 1f 43
        E 96 8b 1f 00
        E 25 9b 24 5f
        E 96 8b 24 00
        E 383 9b 23 4f
        E 97 8b 23 00
        E 23 9b 22 4e
        E 95 8b 22 00
        E 25 9b 24 5d
        E 96 8b 24 00
        E 144 9b 23 52
        E 96 8b 23 00
        E 504 9b 24 4c
        E 97 8b 24 00
        E 143 9b 25 5c
        E 96 8b 25 00
        E 24 9b 25 5d
        E 96 8b 25 00
        E 24 9b 25 71
        E 96 8b 25 00
        E 144 9b 25 63
        E 97 8b 25 00
        E 23 9b 25 6f
        E 96 8b 25 00
        E 24 9b 25 55
        E 95 8b 25 00
        E 26 9b 25 69
        E 95 8b 25 00
        E 24 9b 25 62
        E 95 8b 25 00
        E 25 9b 25 66
        E 96 8b 25 00
        E 24 9b 26 4f
        E 96 8b 26 00
        E 624 9b 26 5f
        E 96 8b 26 00
        E 24 9b 26 6f
        E 97 8b 26 00
        E 23 9b 26 6d
        E 96 8b 26 00
        E 144 9b 26 5f
        E 96 8b 26 00
        E 24 9b 27 78
        E 96 8b 27 00
        E 25 9b 27 4b
        E 95 8b 27 00
        E 144 9b 26 6a
        E 96 8b 26 00
        E 144 9b 26 75
        E 97 8b 26 00
        E 143 9b 24 41
        E 97 8b 24 00
        E 143 9b 25 4e
        E 96 8b 25 00
        E 24 9b 26 69
        E 97 8b 26 00
        E 504 9b 26 69
        E 96 8b 26 00
        E 23 9b 26 6d
        E 96 8b 26 00
        E 24 9b 25 4b
        E 96 8b 25 00
        E 144 9b 25 59
        E 95 8b 25 00
        E 145 9b 24 45
        E 95 8b 24 00
        E 145 9b 25 32
        E 97 8b 25 00
        E 143 9b 26 35
        E 97 8b 26 00
        E 23 9b 25 69
        E 96 8b 25 00
        E 24 9b 25 74
        E 96 8b 25 00
        E 144 9b 25 58
        E 96 8b 25 00
        E 265 9b 25 67
        E 95 8b 25 00
        E 144 9b 25 6d
        E 95 8b 25 00
        E 986 9b 23 74
        E 95 8b 23 00
        E 264 9b 24 5a
        E 98 8b 24 00
        E 142 9b 23 70
        E 96 8b 23 00
        E 25 9b 23 59
        E 95 8b 23 00
        E 24 9b 26 48
        E 96 8b 26 00
        E 144 9b 20 4c
        E 96 8b 20 00
        E 24 9b 20 52
        E 95 8b 20 00
        E 25 9b 21 5c
        E 96 8b 21 00
        E 24 9b 1f 56
        E 97 8b 1f 00
        E 23 9b 25 45
        E 95 8b 25 00
        E 24 9b 24 4e
        E 97 8b 24 00
        E 24 9b 25 6d
        E 96 8b 25 00
        E 24 9b 25 71
        E 95 8b 25 00
        E 25 9b 24 59
        E 96 8b 24 00
        E 384 9b 25 60
        E 96 8b 25 00
        E 384 9b 25 62
        E 96 8b 25 00
        E 504 9b 24 3f
        E 95 8b 24 00
        E 25 9b 24 70
        E 95 8b 24 00
        E 264 9b 23 4b
        E 96 8b 23 00
        E 145 9b 24 5d
        E 95 8b 24 00
        E 385 9b 24 56
        E 97 8b 24 00
        E 143 9b 25 4e
        E 98 8b 25 00
        E 381 9b 24 4e
        E 96 8b 24 00
        E 25 9b 23 60
        E 97 8b 23 00
        E 503 9b 24 70
        E 95 8b 24 00
        E 265 9b 26 5a
        E 95 8b 26 00
        E 25 9b 25 53
        E 96 8b 25 00
        E 24 9b 25 5d
        E 96 8b 25 00
        E 23 9b 24 69
        E 95 8b 24 00
        E 146 9b 26 43
        E 96 8b 26 00
        E 24 9b 26 48
        E 97 8b 26 00
        E 23 9b 26 5a
        E 97 8b 26 00
        E 22 9b 26 5f
        E 95 8b 26 00
        E 26 9b 25 45
        E 96 8b 25 00
        E 24 9b 26 5d
        E 96 8b 26 00
        E 144 9b 26 74
        E 95 8b 26 00
        E 145 9b 26 59
        E 96 8b 26 00
        E 24 9b 27 4e
        E 95 8b 27 00
        E 145 9b 26 3c
        E 96 8b 26 00
        E 144 9b 26 64
        E 98 8b 26 00
        E 22 9b 25 58
        E 96 8b 25 00
        E 264 9b 25 39
        E 97 8b 25 00
        E 23 9b 25 5a
        E 96 8b 25 00
        E 144 9b 25 5c
        E 96 8b 25 00
        E 24 9b 26 6f
        E 97 8b 26 00
        E 23 9b 25 5a
        E 96 8b 25 00
        E 24 9b 25 4b
        E 96 8b 25 00
        E 504 9b 26 69
        E 97 8b 26 00
        E 143 9b 25 48
        E 95 8b 25 00
        E 25 9b 25 4e
        E 96 8b 25 00
        E 145 9b 26 5c
        E 95 8b 26 00
        E 144 9b 26 5d
        E 97 8b 26 00
        E 384 9b 25 3f
        E 96 8b 25 00
        E 23 9b 25 5a
        E 96 8b 25 00
        E 145 9b 24 53
        E 96 8b 24 00
        E 24 9b 25 4f
        E 96 8b 25 00
        E 24 9b 25 4b
        E 97 8b 25 00
        E 502 9b 26 50
        E 97 8b 26 00
        E 23 9b 27 4f
        E 96 8b 27 00
        E 264 9b 25 6d
        E 97 8b 25 00
        E 143 9b 25 4f
        E 97 8b 25 00
        E 143 9b 25 5a
        E 96 8b 25 00
        E 144 9b 25 48
        E 96 8b 25 00
        E 264 9b 1e 55
        E 95 8b 1e 00
        E 145 9b 26 5d
        E 96 8b 26 00
        E 144 9b 25 60
        E 95 8b 25 00
        E 265 9b 26 6a
        E 96 8b 26 00
        E 23 9b 25 56
        E 95 8b 25 00
        E 386 9b 24 59
        E 95 8b 24 00
        E 265 9b 26 60
        E 95 8b 26 00
        E 25 9b 24 52
        E 95 8b 24 00
        E 265 9b 25 7a
        E 96 8b 25 00
        E 24 9b 25 71
        E 96 8b 25 00
        E 23 9b 24 64
        E 96 8b 24 00
        E 146 9b 25 77
        E 95 8b 25 00
        E 23 9b 25 70
        E 96 8b 25 00
        E 25 9b 25 76
        E 96 8b 25 00
        E 24 9b 25 7b
        E 97 8b 25 00
        E 23 9b 25 74
        E 96 8b 25 00
        E 25 9b 25 73
        E 95 8b 25 00
        E 264 9b 24 64
        E 96 8b 24 00
        E 23 9b 25 70
        E 97 8b 25 00
        E 144 9b 25 37
        E 96 8b 25 00
        E 24 9b 25 6c
        E 95 8b 25 00
        E 25 9b 24 71
        E 97 8b 24 00
        E 23 9b 25 6a
        E 96 8b 25 00
        E 24 9b 24 75
        E 96 8b 24 00
        E 24 9b 25 6a
        E 96 8b 25 00
        E 24 9b 24 5f
        E 96 8b 24 00
        E 144 9b 25 69
        E 98 8b 25 00
        E 21 9b 24 70
        E 95 8b 24 00
        E 26 9b 25 79
        E 97 8b 25 00
        E 23 9b 24 55
        E 96 8b 24 00
        E 23 9b 25 67
        E 96 8b 25 00
        E 266 9b 26 34
        E 97 8b 26 00
        E 142 9b 27 4b
        E 95 8b 27 00
        E 25 9b 25 77
        E 97 8b 25 00
        E 142 9b 27 64
        E 97 8b 27 00
        E 144 9b 27 70
        E 97 8b 27 00
        E 143 9b 27 70
        E 96 8b 27 00
        E 264 9b 27 70
        E 95 8b 27 00
        E 25 9b 29 64
        E 97 8b 29 00
        E 143 9b 24 5d
        E 95 8b 24 00
        E 25 9b 24 77
        E 96 8b 24 00
        E 24 9b 24 52
        E 95 8b 24 00
        E 145 9b 25 7c
        E 96 8b 25 00
        E 145 9b 26 7d
        E 97 8b 26 00
        E 23 9b 24 5c
        E 95 8b 24 00
        E 24 9b 24 67
        E 96 8b 24 00
        E 24 9b 25 55
        E 97 8b 25 00
        E 23 9b 24 70
        E 95 8b 24 00
        E 25 9b 24 77
        E 96 8b 24 00
        E 24 9b 24 77
        E 95 8b 24 00
        E 25 9b 24 74
        E 96 8b 24 00
        E 24 9b 24 6a
        E 96 8b 24 00
        E 24 9b 25 60
        E 97 8b 25 00
        E 23 9b 26 56
        E 96 8b 26 00
        E 24 9b 20 3c
        E 96 8b 20 00
        E 264 9b 26 7d
        E 97 8b 26 00
        E 22 9b 26 7d
        E 94 8b 26 00
        E 27 9b 24 70
        E 96 8b 24 00
        E 23 9b 24 70
        E 95 8b 24 00
        E 26 9b 24 70
        E 95 8b 24 00
        E 145 9b 25 66
        E 97 8b 25 00
        E 23 9b 25 73
        E 96 8b 25 00
        E 24 9b 25 66
        E 97 8b 25 00
        E 22 9b 25 58
        E 97 8b 25 00
        E 24 9b 25 78
        E 97 8b 25 00
        E 23 9b 25 6c
        E 97 8b 25 00
        E 22 9b 26 46
        E 95 8b 26 00
        E 26 9b 25 45
        E 95 8b 25 00
        E 25 9b 24 5d
        E 96 8b 24 00
        E 24 9b 24 46
        E 95 8b 24 00
        E 25 9b 26 5a
        E 96 8b 26 00
        E 24 9b 25 73
        E 96 8b 25 00
        E 144 9b 24 53
        E 95 8b 24 00
        E 146 9b 24 7b
        E 96 8b 24 00
        E 23 9b 24 7d
        E 96 8b 24 00
        E 24 9b 25 5c
        E 95 8b 25 00
        E 25 9b 23 71
        E 96 8b 23 00
        E 24 9b 24 7c
        E 95 8b 24 00
        E 25 9b 24 5a
        E 95 8b 24 00
        E 145 9b 21 74
        E 97 8b 21 00
        E 24 9b 26 34
        E 96 8b 26 00
        E 22 9b 23 38
        E 96 8b 23 00
        E 25 9b 23 59
        E 95 8b 23 00
        E 25 9b 24 73
        E 97 8b 24 00
        E 24 9b 24 62
        E 96 8b 24 00
        E 23 9b 24 71
        E 95 8b 24 00
        E 24 9b 24 77
        E 97 8b 24 00
        E 264 9b 24 7c
        E 95 8b 24 00
        E 25 9b 24 73
        E 96 8b 24 00
        E 23 9b 26 62
        E 96 8b 26 00
        E 25 9b 24 74
        E 96 8b 24 00
        E 24 9b 23 6a
        E 97 8b 23 00
        E 23 9b 21 56
        E 97 8b 21 00
        E 144 9b 25 42
        E 97 8b 25 00
        E 22 9b 25 50
        E 96 8b 25 00
        E 25 9b 24 5c
        E 95 8b 24 00
        E 144 9b 25 58
        E 97 8b 25 00
        E 143 9b 25 6f
        E 97 8b 25 00
        E 23 9b 25 70
        E 96 8b 25 00
        E 144 9b 25 74
        E 95 8b 25 00
        E 25 9b 25 70
        E 96 8b 25 00
        E 24 9b 25 59
        E 95 8b 25 00
        E 146 9b 25 77
        E 95 8b 25 00
        E 23 9b 26 7d
        E 96 8b 26 00
        E 25 9b 24 69
        E 96 8b 24 00
        E 24 9b 25 43
        E 96 8b 25 00
        E 24 9b 19 2f
        E 96 8b 19 00
        E 24 9b 25 3f
        E 95 8b 25 00
        E 25 9b 25 6a
        E 97 8b 25 00
        E 23 9b 25 60
        E 96 8b 25 00
        E 24 9b 24 58
        E 96 8b 24 00
        E 24 9b 25 77
        E 95 8b 25 00
        E 25 9b 25 6c
        E 96 8b 25 00
        E 25 9b 25 77
        E 95 8b 25 00
        E 23 9b 24 7a
        E 96 8b 24 00
        E 26 9b 25 77
        E 96 8b 25 00
        E 23 9b 25 7b
        E 97 8b 25 00
        E 23 9b 25 70
        E 96 8b 25 00
        E 24 9b 25 7b
        E 96 8b 25 00
        E 24 9b 25 62
        E 96 8b 25 00
        E 24 9b 25 62
        E 95 8b 25 00
        E 25 9b 24 64
        E 96 8b 24 00
        E 144 9b 24 4c
        E 96 8b 24 00
        E 144 9b 25 6f
        E 96 8b 25 00
        E 24 9b 1c 4f
        E 96 8b 1c 00
        E 24 9b 25 70
        E 95 8b 25 00
        E 25 9b 25 67
        E 94 8b 25 00
        E 26 9b 24 69
        E 95 8b 24 00
        E 25 9b 24 7d
        E 95 8b 24 00
        E 25 9b 23 69
        E 96 8b 23 00
        E 24 9b 24 60
        E 95 8b 24 00
        E 26 9b 24 66
        E 96 8b 24 00
        E 22 9b 24 69
        E 95 8b 24 00
        E 26 9b 24 6f
        E 97 8b 24 00
        E 23 9b 23 5a
        E 95 8b 23 00
        E 24 9b 25 50
        E 96 8b 25 00
        E 25 9b 23 4f
        E 97 8b 23 00
        E 23 9b 23 60
        E 95 8b 23 00
        E 145 9b 25 58
        E 96 8b 25 00
        E 144 9b 24 70
        E 96 8b 24 00
        E 24 9b 27 4e
        E 96 8b 27 00
        E 24 9b 24 5f
        E 96 8b 24 00
        E 23 9b 24 77
        E 97 8b 24 00
        E 24 9b 24 70
        E 94 8b 24 00
        E 25 9b 23 6c
        E 97 8b 23 00
        E 24 9b 22 52
        E 95 8b 22 00
        E 24 9b 23 6a
        E 95 8b 23 00
        E 146 9b 24 7c
        E 95 8b 24 00
        E 25 9b 24 66
        E 96 8b 24 00
        E 25 9b 23 59
        E 97 8b 23 00
        E 22 9b 25 62
        E 97 8b 25 00
        E 22 9b 24 77
        E 96 8b 24 00
        E 24 9b 24 7d
        E 96 8b 24 00
        E 25 9b 24 7d
        E 94 8b 24 00
        E 26 9b 24 75
        E 95 8b 24 00
        E 24 9b 24 7d
        E 96 8b 24 00
        E 145 9b 23 70
        E 96 8b 23 00
        E 24 9b 24 63
        E 96 8b 24 00
        E 24 9b 23 6f
        E 97 8b 23 00
        E 23 9b 24 7d
        E 95 8b 24 00
        E 25 9b 25 7a
        E 97 8b 25 00
        E 23 9b 24 7b
        E 97 8b 24 00
        E 23 9b 25 6a
        E 97 8b 25 00
        E 24 9b 25 45
        E 97 8b 25 00
        E 21 9b 25 3f
        E 95 8b 25 00
        E 26 9b 25 70
        E 96 8b 25 00
        E 24 9b 24 77
        E 96 8b 24 00
        E 24 9b 25 69
        E 96 8b 25 00
        E 24 9b 23 7b
        E 96 8b 23 00
        E 24 9b 23 70
        E 97 8b 23 00
        E 24 9b 23 69
        E 97 8b 23 00
        E 22 9b 23 7d
        E 96 8b 23 00
        E 23 9b 23 6a
        E 96 8b 23 00
        E 25 9b 23 7d
        E 96 8b 23 00
        E 24 9b 23 75
        E 96 8b 23 00
        E 24 9b 23 7d
        E 94 8b 23 00
        E 26 9b 22 63
        E 96 8b 22 00
        E 144 9b 25 69
        E 96 8b 25 00
        E 24 9b 20 6c
        E 95 8b 20 00
        E 25 9b 24 48
        E 96 8b 24 00
        E 24 9b 24 3c
        E 97 8b 24 00
        E 24 9b 25 67
        E 97 8b 25 00
        E 22 9b 24 6d
        E 95 8b 24 00
        E 25 9b 27 66
        E 97 8b 27 00
        E 23 9b 1c 5a
        E 95 8b 1c 00
        E 25 9b 24 6f
        E 96 8b 24 00
        E 144 9b 24 6d
        E 96 8b 24 00
        E 25 9b 25 64
        E 96 8b 25 00
        E 23 9b 24 6f
        E 95 8b 24 00
        E 25 9b 24 6a
        E 96 8b 24 00
        E 24 9b 24 70
        E 96 8b 24 00
        E 24 9b 24 6f
        E 95 8b 24 00
        E 25 9b 25 70
        E 96 8b 25 00
        E 24 9b 25 76
        E 96 8b 25 00
        E 24 9b 25 5c
        E 96 8b 25 00
        E 24 9b 24 6f
        E 95 8b 24 00
        E 25 9b 27 5c
        E 94 8b 27 00
        E 146 9b 25 7c
        E 95 8b 25 00
        E 25 9b 24 6d
        E 97 8b 24 00
        E 23 9b 25 78
        E 96 8b 25 00
        E 23 9b 24 7d
        E 96 8b 24 00
        E 25 9b 25 7d
        E 95 8b 25 00
        E 25 9b 24 7d
        E 95 8b 24 00
        E 25 9b 25 7b
        E 96 8b 25 00
        E 24 9b 24 7d
        E 96 8b 24 00
        E 25 9b 24 63
        E 96 8b 24 00
        E 23 9b 24 7d
        E 96 8b 24 00
        E 24 9b 24 64
        E 96 8b 24 00
        E 24 9b 24 6f
        E 98 8b 24 00
        E 22 9b 24 62
        E 96 8b 24 00
        E 25 9b 1f 64
        E 95 8b 1f 00
        E 24 9b 24 7c
        E 96 8b 24 00
        E 23 9b 25 79
        E 96 8b 25 00
        E 24 9b 24 74
        E 97 8b 24 00
        E 24 9b 24 71
        E 97 8b 24 00
        E 23 9b 24 7d
        E 96 8b 24 00
        E 24 9b 24 7a
        E 96 8b 24 00
        E 24 9b 24 74
        E 95 8b 24 00
        E 25 9b 24 71
        E 95 8b 24 00
        E 25 9b 24 76
        E 95 8b 24 00
        E 25 9b 24 7d
        E 95 8b 24 00
        E 25 9b 25 69
        E 95 8b 25 00
        E 25 9b 24 64
        E 96 8b 24 00
        E 25 9b 21 6d
        E 96 8b 21 00
        E 23 9b 25 3c
        E 95 8b 25 00
        E 25 9b 1a 39
        E 96 8b 1a 00
        E 24 9b 21 71
        E 96 8b 21 00
        E 24 9b 26 7d
        E 97 8b 26 00
        E 23 9b 26 7b
        E 97 8b 26 00
        E 23 9b 25 77
        E 97 8b 25 00
        E 22 9b 25 5f
        E 97 8b 25 00
        E 24 9b 25 75
        E 95 8b 25 00
        E 25 9b 25 71
        E 96 8b 25 00
        E 24 9b 25 78
        E 95 8b 25 00
        E 25 9b 25 7a
        E 96 8b 25 00
        E 24 9b 25 77
        E 96 8b 25 00
        E 24 9b 25 78
        E 96 8b 25 00
        E 25 9b 26 7b
        E 96 8b 26 00
        E 23 9b 25 5a
        E 96 8b 25 00
        E 24 9b 26 73
        E 96 8b 26 00
        E 24 9b 20 3c
        E 96 8b 20 00
        E 25 9b 24 43
        E 96 8b 24 00
        E 23 9b 26 48
        E 95 8b 26 00
        E 25 9b 25 6d
        E 96 8b 25 00
        E 23 9b 25 7a
        E 97 8b 25 00
        E 24 9b 25 78
        E 95 8b 25 00
        E 25 9b 26 7c
        E 96 8b 26 00
        E 24 9b 2a 73
        E 96 8b 2a 00
        E 24 9b 2a 74
        E 95 8b 2a 00
        E 25 9b 2a 75
        E 95 8b 2a 00
        E 145 9b 2a 74
        E 96 8b 2a 00
        E 24 9b 29 6f
        E 97 8b 29 00
        E 143 9b 29 71
        E 96 8b 29 00
        E 264 9b 23 62
        E 97 8b 23 00
        E 264 9b 24 7a
        E 96 8b 24 00
        E 143 9b 25 71
        E 97 8b 25 00
        E 264 9b 24 79
        E 98 8b 24 00
        E 381 9b 25 75
        E 96 8b 25 00
        E 24 9b 24 62
        E 96 8b 24 00
        E 24 9b 27 78
        E 96 8b 27 00
        E 384 9b 27 7d
        E 95 8b 27 00
        E 145 9b 27 70
        E 96 8b 27 00
        E 24 9b 28 7b
        E 96 8b 28 00
        E 24 9b 25 73
        E 96 8b 25 00
        E 23 9b 27 7d
        E 96 8b 27 00
        E 25 9b 27 7d
        E 97 8b 27 00
        E 23 9b 27 7d
        E 95 8b 27 00
        E 265 9b 27 70
        E 97 8b 27 00
        E 23 9b 26 6d
        E 94 8b 26 00
        E 26 9b 26 62
        E 96 8b 26 00
        E 24 9b 26 43
        E 96 8b 26 00
        E 24 9b 26 58
        E 95 8b 26 00
        E 25 9b 26 5a
        E 96 8b 26 00
        E 24 9b 26 77
        E 94 8b 26 00
        E 146 9b 26 7d
        E 96 8b 26 00
        E 264 9b 26 7d
        E 96 8b 26 00
        E 24 9b 25 73
        E 97 8b 25 00
        E 23 9b 26 7d
        E 94 8b 26 00
        E 26 9b 26 7d
        E 96 8b 26 00
        E 24 9b 26 7d
        E 97 8b 26 00
        E 24 9b 26 7d
        E 95 8b 26 00
        E 24 9b 27 7c
        E 95 8b 27 00
        E 145 9b 27 59
        E 95 8b 27 00
        E 25 9b 27 45
        E 96 8b 27 00
        E 264 9b 26 62
        E 97 8b 26 00
        E 23 9b 27 7a
        E 95 8b 27 00
        E 25 9b 27 7a
        E 97 8b 27 00
        E 23 9b 27 69
        E 95 8b 27 00
        E 145 9b 28 78
        E 97 8b 28 00
        E 143 9b 27 7a
        E 96 8b 27 00
        E 24 9b 26 66
        E 97 8b 26 00
        E 143 9b 27 7a
        E 95 8b 27 00
        E 145 9b 24 62
        E 96 8b 24 00
        E 23 9b 26 4b
        E 96 8b 26 00
        E 25 9b 24 64
        E 96 8b 24 00
        E 25 9b 26 5d
        E 97 8b 26 00
        E 22 9b 22 6a
        E 98 8b 22 00
        E 22 9b 24 7d
        E 95 8b 24 00
        E 25 9b 24 7d
        E 95 8b 24 00
        E 25 9b 25 74
        E 95 8b 25 00
        E 25 9b 25 73
        E 97 8b 25 00
        E 23 9b 23 7b
        E 96 8b 23 00
        E 144 9b 23 7b
        E 96 8b 23 00
        E 143 9b 20 69
        E 96 8b 20 00
        E 144 9b 24 62
        E 96 8b 24 00
        E 385 9b 25 7c
        E 97 8b 25 00
        E 23 9b 24 7a
        E 94 8b 24 00
        E 26 9b 25 7c
        E 97 8b 25 00
        E 23 9b 25 7b
        E 97 8b 25 00
        E 22 9b 23 75
        E 95 8b 23 00
        E 26 9b 25 7d
        E 95 8b 25 00
        E 146 9b 25 7c
        E 95 8b 25 00
        E 264 9b 24 7d
        E 97 8b 24 00
        E 23 9b 24 75
        E 96 8b 24 00
        E 24 9b 1f 5a
        E 97 8b 1f 00
        E 23 9b 24 5c
        E 98 8b 24 00
        E 142 9b 24 7c
        E 96 8b 24 00
        E 24 9b 25 75
        E 97 8b 25 00
        E 142 9b 24 7a
        E 96 8b 24 00
        E 25 9b 20 6f
        E 96 8b 20 00
        E 25 9b 24 7d
        E 96 8b 24 00
        E 23 9b 24 7d
        E 96 8b 24 00
        E 24 9b 20 70
        E 97 8b 20 00
        E 503 9b 24 7b
        E 95 8b 24 00
        E 25 9b 26 6d
        E 95 8b 26 00
        E 145 9b 26 74
        E 96 8b 26 00
        E 24 9b 25 6a
        E 96 8b 25 00
        E 24 9b 26 70
        E 96 8b 26 00
        E 24 9b 27 7b
        E 95 8b 27 00
        E 26 9b 26 76
        E 97 8b 26 00
        E 142 9b 27 7c
        E 96 8b 27 00
        E 24 9b 27 7d
        E 96 8b 27 00
        E 24 9b 27 7c
        E 96 8b 27 00
        E 144 9b 27 7d
        E 96 8b 27 00
        E 24 9b 27 7d
        E 96 8b 27 00
        E 23 9b 27 7c
        E 96 8b 27 00
        E 25 9b 27 7a
        E 95 8b 27 00
        E 145 9b 26 6f
        E 96 8b 26 00
        E 144 9b 26 7c
        E 96 8b 26 00
        E 24 9b 27 7d
        E 96 8b 27 00
        E 24 9b 27 7d
        E 96 8b 27 00
        E 144 9b 28 67
        E 96 8b 28 00
        E 24 9b 26 7c
        E 96 8b 26 00
        E 24 9b 27 75
        E 97 8b 27 00
        E 23 9b 26 76
        E 96 8b 26 00
        E 145 9b 27 6f
        E 96 8b 27 00
        E 143 9b 28 70
        E 95 8b 28 00
        E 25 9b 28 71
        E 95 8b 28 00
        E 25 9b 24 7d
        E 96 8b 24 00
        E 25 9b 24 53
        E 96 8b 24 00
        E 22 9b 23 5d
        E 97 8b 23 00
        E 264 9b 24 69
        E 96 8b 24 00
        E 25 9b 28 7c
        E 96 8b 28 00
        E 23 9b 28 7d
        E 97 8b 28 00
        E 23 9b 28 7c
        E 96 8b 28 00
        E 24 9b 24 79
        E 95 8b 24 00
        E 25 9b 28 7b
        E 97 8b 28 00
        E 22 9b 28 7d
        E 96 8b 28 00
        E 25 9b 24 70
        E 96 8b 24 00
        E 144 9b 24 56
        E 97 8b 24 00
        E 143 9b 25 67
        E 96 8b 25 00
        E 24 9b 26 6a
        E 96 8b 26 00
        E 24 9b 25 76
        E 96 8b 25 00
        E 24 9b 25 73
        E 95 8b 25 00
        E 25 9b 25 6d
        E 96 8b 25 00
        E 24 9b 24 7d
        E 96 8b 24 00
        E 23 9b 25 70
        E 96 8b 25 00
        E 25 9b 25 77
        E 96 8b 25 00
        E 24 9b 24 7a
        E 95 8b 24 00
        E 25 9b 23 73
        E 95 8b 23 00
        E 25 9b 23 76
        E 97 8b 23 00
        E 263 9b 23 69
        E 97 8b 23 00
        E 23 9b 23 6c
        E 96 8b 23 00
        E 384 9b 26 6a
        E 95 8b 26 00
        E 25 9b 26 79
        E 96 8b 26 00
        E 264 9b 27 7b
        E 96 8b 27 00
        E 24 9b 26 53
        E 96 8b 26 00
        E 24 9b 27 7b
        E 95 8b 27 00
        E 25 9b 26 70
        E 96 8b 26 00
        E 24 9b 27 7a
        E 96 8b 27 00
        E 24 9b 27 7a
        E 97 8b 27 00
        E 382 9b 26 70
        E 96 8b 26 00
        E 25 9b 27 77
        E 97 8b 27 00
        E 23 9b 25 71
        E 96 8b 25 00
        E 144 9b 27 7d
        E 96 8b 27 00
        E 24 9b 27 7d
        E 96 8b 27 00
        E 24 9b 27 7b
        E 96 8b 27 00
        E 24 9b 25 6c
        E 95 8b 25 00
        E 145 9b 27 7d
        E 96 8b 27 00
        E 24 9b 27 7b
        E 97 8b 27 00
        E 23 9b 27 7c
        E 96 8b 27 00
        E 24 9b 26 77
        E 97 8b 26 00
        E 22 9b 25 67
        E 97 8b 25 00
        E 144 9b 26 79
        E 95 8b 26 00
        E 25 9b 27 7a
        E 96 8b 27 00
        E 264 9b 25 7a
        E 95 8b 25 00
        E 265 9b 24 7b
        E 97 8b 24 00
        E 23 9b 25 7a
        E 94 8b 25 00
        E 26 9b 25 77
        E 95 8b 25 00
        E 145 9b 25 79
        E 96 8b 25 00
        E 24 9b 25 78
        E 95 8b 25 00
        E 25 9b 25 7a
        E 97 8b 25 00
        E 23 9b 24 7d
        E 95 8b 24 00
        E 25 9b 24 66
        E 96 8b 24 00
        E 24 9b 24 52
        E 95 8b 24 00
        E 25 9b 24 62
        E 95 8b 24 00
        E 0 bb 7b 00
        E 1 ff 2f 00
      >
    >
  >
  <TRACK
    NAME "Bass"
    PEAKCOL 4286528191
    VOLPAN 1.000000 0 1 -1
    MIDIOUT -1
    ISBUS 0 0
    <ITEM
      POSITION 0.003020
      LENGTH 93.333992
      NAME "Bass"
      VOLPAN 1 0 1 -1
      <SOURCE MIDI
        HASDATA 1 960 QN
        E 0 cc 2b 00
        E 3 9c 25 27
        E 878 8c 25 00
        E 77 9c 25 43
        E 863 8c 25 00
        E 105 9c 29 4e
        E 852 8c 29 00
        E 105 9c 25 43
        E 877 8c 25 00
        E 83 9c 24 46
        E 839 8c 24 00
        E 121 9c 25 50
        E 858 8c 25 00
        E 102 9c 27 42
        E 873 8c 27 00
        E 80 9c 25 43
        E 845 8c 25 00
        E 117 9c 24 43
        E 867 8c 24 00
        E 98 9c 20 4c
        E 864 8c 20 00
        E 89 9c 23 49
        E 852 8c 23 00
        E 117 9c 27 41
        E 871 8c 27 00
        E 87 9c 25 49
        E 856 8c 25 00
        E 103 9c 1e 4c
        E 882 8c 1e 00
        E 78 9c 24 4c
        E 842 8c 24 00
        E 116 9c 25 48
        E 865 8c 25 00
        E 99 9c 22 3e
        E 858 8c 22 00
        E 96 9c 1b 43
        E 876 8c 1b 00
        E 86 9c 24 4e
        E 857 8c 24 00
        E 104 9c 25 45
        E 879 8c 25 00
        E 80 9c 24 2b
        E 874 8c 24 00
        E 82 9c 27 49
        E 859 8c 27 00
        E 111 9c 27 46
        E 871 8c 27 00
        E 84 9c 2a 50
        E 853 8c 2a 00
        E 104 9c 27 48
        E 893 8c 27 00
        E 70 9c 26 41
        E 883 8c 26 00
        E 77 9c 1c 3e
        E 865 8c 1c 00
        E 93 9c 1e 48
        E 872 8c 1e 00
        E 91 9c 26 42
        E 882 8c 26 00
        E 78 9c 29 58
        E 862 8c 29 00
        E 98 9c 34 50
        E 852 8c 34 00
        E 102 9c 2a 4f
        E 845 8c 2a 00
        E 120 9c 31 35
        E 879 8c 31 00
        E 86 9c 34 49
        E 882 8c 34 00
        E 76 9c 30 31
        E 873 8c 30 00
        E 88 9c 31 56
        E 868 8c 31 00
        E 87 9c 2f 49
        E 851 8c 2f 00
        E 115 9c 31 50
        E 855 8c 31 00
        E 97 9c 32 58
        E 885 8c 32 00
        E 81 9c 2c 4f
        E 879 8c 2c 00
        E 79 9c 32 39
        E 865 8c 32 00
        E 98 9c 34 4e
        E 857 8c 34 00
        E 97 9c 33 42
        E 881 8c 33 00
        E 80 9c 32 4f
        E 883 8c 32 00
        E 77 9c 2f 3c
        E 851 8c 2f 00
        E 110 9c 35 50
        E 846 8c 35 00
        E 113 9c 31 5d
        E 863 8c 31 00
        E 99 9c 30 58
        E 882 8c 30 00
        E 83 9c 2c 34
        E 872 8c 2c 00
        E 83 9c 2c 56
        E 863 8c 2c 00
        E 102 9c 31 37
        E 850 8c 31 00
        E 101 9c 25 41
        E 884 8c 25 00
        E 76 9c 30 53
        E 861 8c 30 00
        E 100 9c 30 4b
        E 868 8c 30 00
        E 91 9c 30 49
        E 856 8c 30 00
        E 113 9c 26 49
        E 860 8c 26 00
        E 93 9c 33 3f
        E 875 8c 33 00
        E 91 9c 32 6c
        E 861 8c 32 00
        E 96 9c 30 38
        E 850 8c 30 00
        E 107 9c 33 5a
        E 843 8c 33 00
        E 112 9c 35 5c
        E 851 8c 35 00
        E 118 9c 31 69
        E 871 8c 31 00
        E 88 9c 31 50
        E 878 8c 31 00
        E 82 9c 34 5c
        E 875 8c 34 00
        E 88 9c 34 3c
        E 880 8c 34 00
        E 70 9c 2f 64
        E 879 8c 2f 00
        E 85 9c 30 4f
        E 854 8c 30 00
        E 108 9c 31 69
        E 882 8c 31 00
        E 76 9c 2c 5f
        E 873 8c 2c 00
        E 93 9c 32 60
        E 868 8c 32 00
        E 91 9c 28 41
        E 874 8c 28 00
        E 83 9c 2a 62
        E 874 8c 2a 00
        E 88 9c 2f 3e
        E 872 8c 2f 00
        E 84 9c 27 66
        E 855 8c 27 00
        E 106 9c 2f 38
        E 870 8c 2f 00
        E 94 9c 32 62
        E 861 8c 32 00
        E 96 9c 37 48
        E 855 8c 37 00
        E 107 9c 38 55
        E 891 8c 38 00
        E 71 9c 38 60
        E 865 8c 38 00
        E 97 9c 38 5d
        E 865 8c 38 00
        E 89 9c 33 38
        E 852 8c 33 00
        E 103 9c 25 5c
        E 865 8c 25 00
        E 101 9c 33 3f
        E 866 8c 33 00
        E 93 9c 30 6a
        E 860 8c 30 00
        E 103 9c 32 49
        E 870 8c 32 00
        E 86 9c 30 6c
        E 861 8c 30 00
        E 101 9c 34 58
        E 855 8c 34 00
        E 104 9c 34 71
        E 864 8c 34 00
        E 94 9c 33 66
        E 885 8c 33 00
        E 76 9c 34 71
        E 886 8c 34 00
        E 73 9c 2f 4b
        E 862 8c 2f 00
        E 102 9c 32 73
        E 843 8c 32 00
        E 112 9c 35 75
        E 858 8c 35 00
        E 107 9c 2b 70
        E 861 8c 2b 00
        E 101 9c 35 67
        E 876 8c 35 00
        E 80 9c 34 6d
        E 864 8c 34 00
        E 92 9c 31 69
        E 856 8c 31 00
        E 111 9c 35 70
        E 869 8c 35 00
        E 84 9c 30 67
        E 857 8c 30 00
        E 106 9c 2b 71
        E 868 8c 2b 00
        E 89 9c 33 73
        E 866 8c 33 00
        E 97 9c 2b 74
        E 866 8c 2b 00
        E 96 9c 32 69
        E 868 8c 32 00
        E 92 9c 35 66
        E 867 8c 35 00
        E 92 9c 32 69
        E 864 8c 32 00
        E 100 9c 3a 6f
        E 848 8c 3a 00
        E 106 9c 30 6d
        E 863 8c 30 00
        E 96 9c 35 71
        E 870 8c 35 00
        E 90 9c 34 71
        E 862 8c 34 00
        E 97 9c 32 75
        E 884 8c 32 00
        E 78 9c 36 53
        E 859 8c 36 00
        E 104 9c 32 66
        E 846 8c 32 00
        E 0 bc 7b 00
        E 1 ff 2f 00
      >
    >
  >
  <TRACK
    NAME "Pedal"
    PEAKCOL 4284506208
    VOLPAN 1.000000 0 1 -1
    MIDIOUT -1
    ISBUS 0 0
    <ITEM
      POSITION 0.003341
      LENGTH 93.443840
      NAME "Pedal"
      VOLPAN 1 0 1 -1
      <SOURCE MIDI
        HASDATA 1 960 QN
        E 0 cd 2b 00
        E 4 9d 1a 18
        E 3829 9d 1b 2d
        E 5 8d 1a 00
        E 3825 8d 1b 00
        E 14 9d 0e 31
        E 3817 8d 0e 00
        E 24 9d 0e 31
        E 3846 9d 1a 34
        E 17 8d 0e 00
        E 3820 9d 0d 22
        E 36 8d 1a 00
        E 3806 9d 0c 25
        E 2 8d 0d 00
        E 3770 8d 0c 00
        E 62 9d 1a 32
        E 3801 8d 1a 00
        E 43 9d 1a 22
        E 3806 8d 1a 00
        E 26 9d 14 2d
        E 3848 9d 18 21
        E 32 8d 14 00
        E 3783 8d 18 00
        E 22 9d 19 28
        E 3831 8d 19 00
        E 11 9d 19 1e
        E 3823 8d 19 00
        E 22 9d 1a 2a
        E 3838 9d 18 32
        E 9 8d 1a 00
        E 3830 9d 19 32
        E 57 8d 18 00
        E 3766 8d 19 00
        E 13 9d 0d 48
        E 3839 9d 19 4b
        E 1 8d 0d 00
        E 3837 9d 1a 4f
        E 24 8d 19 00
        E 3819 9d 1a 3c
        E 18 8d 1a 00
        E 3796 8d 1a 00
        E 23 9d 1a 45
        E 3830 8d 1a 00
        E 14 9d 19 50
        E 3840 9d 18 53
        E 21 8d 19 00
        E 3815 9d 19 4f
        E 40 8d 18 00
        E 3804 9d 0d 48
        E 13 8d 19 00
        E 3807 8d 0d 00
        E 22 9d 18 46
        E 3838 9d 19 56
        E 46 8d 18 00
        E 3767 8d 19 00
        E 32 9d 11 50
        E 3852 8d 11 00
        E 0 bd 7b 00
        E 1 ff 2f 00
      >
    >
  >
>
