<REAPER_PROJECT 0.1 "7.0" 1700000000
  TEMPO 88.000000 4 4
  SAMPLERATE 48000 0 0
  RENDER_FILE ""
  RENDER_FMT 0 2 0
  RENDER_1X 0
  RENDER_RANGE 1 0 80.993572 0 0
  RENDER_RESAMPLE 3 0 1
  <MASTERTRACK
    VOLPAN 1 0 1 -1
    DEFCHAN 0
  >
  <TRACK
    NAME "Lead"
    PEAKCOL 4284506208
    VOLPAN 1.000000 0 1 -1
    MIDIOUT -1
    ISBUS 0 0
    <ITEM
      POSITION 0.723183
      LENGTH 77.684326
      NAME "Lead"
      VOLPAN 1 0 1 -1
      <SOURCE MIDI
        HASDATA 1 960 QN
        E 0 c0 28 00
        E 1018 90 48 66
        E 938 80 48 00
        E 84 90 4a 75
        E 886 80 4a 00
        E 1141 90 48 6c
        E 859 80 48 00
        E 165 90 4a 79
        E 857 80 4a 00
        E 2421 90 46 5f
        E 943 80 46 00
        E 1881 90 4e 7b
        E 859 80 4e 00
        E 1168 90 4f 55
        E 652 80 4f 00
        E 3420 90 4a 7d
        E 1020 90 49 7b
        E 302 80 4a 00
        E 555 80 49 00
        E 166 90 48 44
        E 838 80 48 00
        E 2218 90 4e 68
        E 781 80 4e 00
        E 211 90 48 66
        E 549 90 4a 7b
        E 394 80 48 00
        E 517 80 4a 00
        E 93 90 4a 7d
        E 1770 80 4a 00
        E 768 90 48 70
        E 862 80 48 00
        E 1676 90 47 55
        E 711 80 47 00
        E 2358 90 54 7b
        E 814 80 54 00
        E 204 90 51 74
        E 883 80 51 00
        E 2688 90 4e 40
        E 728 80 4e 00
        E 504 90 55 46
        E 497 80 55 00
        E 777 90 4f 37
        E 857 80 4f 00
        E 536 90 51 59
        E 872 80 51 00
        E 808 90 57 61
        E 844 80 57 00
        E 3471 90 54 52
        E 785 90 55 44
        E 192 80 54 00
        E 460 80 55 00
        E 602 90 4b 53
        E 758 90 56 57
        E 119 80 4b 00
        E 698 80 56 00
        E 723 90 56 4e
        E 864 80 56 00
        E 394 90 56 50
        E 805 80 56 00
        E 199 90 50 22
        E 246 80 50 00
        E 787 90 56 4e
        E 950 80 56 00
        E 853 90 51 52
        E 868 80 51 00
        E 2170 90 54 44
        E 581 80 54 00
        E 1658 90 53 53
        E 404 90 52 3d
        E 249 80 52 00
        E 245 80 53 00
        E 1922 90 49 7c
        E 848 80 49 00
        E 182 90 49 46
        E 214 80 49 00
        E 799 90 4a 7d
        E 918 80 4a 00
        E 103 90 49 7d
        E 810 80 49 00
        E 190 90 4a 44
        E 941 80 4a 00
        E 100 90 49 7b
        E 489 90 4c 7b
        E 247 80 4c 00
        E 222 80 49 00
        E 44 90 4d 46
        E 427 80 4d 00
        E 91 90 4e 7d
        E 856 80 4e 00
        E 415 90 4b 44
        E 839 80 4b 00
        E 427 90 4b 40
        E 221 80 4b 00
        E 903 90 52 7b
        E 800 80 52 00
        E 93 90 4d 76
        E 767 90 50 48
        E 2 80 4d 00
        E 220 80 50 00
        E 556 90 55 66
        E 949 80 55 00
        E 572 90 4f 68
        E 869 80 4f 00
        E 156 90 4f 72
        E 497 90 53 7d
        E 379 80 4f 00
        E 537 80 53 00
        E 107 90 57 76
        E 841 80 57 00
        E 191 90 55 7d
        E 909 80 55 00
        E 100 90 57 76
        E 821 80 57 00
        E 179 90 54 6a
        E 960 80 54 00
        E 306 90 57 48
        E 243 80 57 00
        E 532 90 50 76
        E 639 80 50 00
        E 378 90 57 79
        E 825 80 57 00
        E 194 90 52 52
        E 450 80 52 00
        E 924 90 55 5f
        E 835 80 55 00
        E 12324 90 36 70
        E 480 90 3a 66
        E 480 90 3d 63
        E 480 80 36 00
        E 0 80 3a 00
        E 480 80 3d 00
        E 1920 90 3b 79
        E 0 90 42 75
        E 2880 80 3b 00
        E 0 80 42 00
        E 0 b0 7b 00
        E 1 ff 2f 00
      >
    >
  >
  <TRACK
    NAME "Violin"
    PEAKCOL 4284186559
    VOLPAN 1.000000 0 1 -1
    MIDIOUT -1
    ISBUS 0 0
    <ITEM
      POSITION 2.747557
      LENGTH 62.789631
      NAME "Violin"
      VOLPAN 1 0 1 -1
      <SOURCE MIDI
        HASDATA 1 960 QN
        E 0 c1 28 00
        E 3869 91 4a 7b
        E 1898 91 4a 5f
        E 84 81 4a 00
        E 1850 91 41 63
        E 56 81 4a 00
        E 1748 81 41 00
        E 2019 91 49 7d
        E 1857 81 49 00
        E 57 91 4c 5d
        E 1789 81 4c 00
        E 162 91 53 72
        E 1807 81 53 00
        E 2021 91 52 55
        E 1871 81 52 00
        E 47 91 57 4a
        E 2067 81 57 00
        E 1775 91 58 42
        E 1831 81 58 00
        E 105 91 56 72
        E 1911 91 55 6c
        E 3 81 56 00
        E 1793 81 55 00
        E 2021 91 56 2e
        E 1876 81 56 00
        E 9648 91 62 3f
        E 1940 91 62 3d
        E 33 81 62 00
        E 1799 81 62 00
        E 2019 91 54 39
        E 1877 81 54 00
        E 32 91 5b 39
        E 1891 81 5b 00
        E 39 91 62 37
        E 1897 81 62 00
        E 18 91 61 42
        E 1776 81 61 00
        E 143 91 5c 48
        E 1909 91 55 35
        E 82 81 5c 00
        E 1843 91 55 33
        E 188 81 55 00
        E 1736 81 55 00
        E 1919 91 53 66
        E 1896 91 54 50
        E 87 81 53 00
        E 1613 81 54 00
        E 231 91 57 37
        E 1906 91 54 79
        E 44 81 57 00
        E 1908 91 53 3d
        E 22 81 54 00
        E 1873 81 53 00
        E 6 91 52 7d
        E 1915 91 4a 55
        E 18 81 52 00
        E 1877 81 4a 00
        E 36 91 4a 7d
        E 1921 91 4c 76
        E 23 81 4a 00
        E 1900 91 44 61
        E 265 81 4c 00
        E 1611 81 44 00
        E 26 91 42 74
        E 1929 91 47 50
        E 151 81 42 00
        E 1762 81 47 00
        E 4 91 44 64
        E 1919 91 44 70
        E 13 81 44 00
        E 1873 81 44 00
        E 0 b1 7b 00
        E 1 ff 2f 00
      >
    >
  >
  <TRACK
    NAME "Viola"
    PEAKCOL 4284186559
    VOLPAN 1.000000 0 1 -1
    MIDIOUT -1
    ISBUS 0 0
    <ITEM
      POSITION 4.102929
      LENGTH 60.259648
      NAME "Viola"
      VOLPAN 1 0 1 -1
      <SOURCE MIDI
        HASDATA 1 960 QN
        E 0 c2 29 00
        E 5777 92 4a 5d
        E 221 82 4a 00
        E 3610 92 48 66
        E 209 82 48 00
        E 1711 92 44 5b
        E 223 82 44 00
        E 1707 92 42 6a
        E 223 82 42 00
        E 5528 92 3f 4c
        E 240 82 3f 00
        E 3596 92 3c 53
        E 224 82 3c 00
        E 1695 92 3b 4a
        E 222 82 3b 00
        E 7488 92 34 33
        E 219 82 34 00
        E 11277 92 31 46
        E 230 82 31 00
        E 5537 92 2f 40
        E 240 82 2f 00
        E 1656 92 2f 5d
        E 224 82 2f 00
        E 1704 92 35 3f
        E 204 82 35 00
        E 3656 92 38 31
        E 232 82 38 00
        E 1671 92 3d 35
        E 229 82 3d 00
        E 1713 92 3c 2a
        E 222 82 3c 00
        E 3609 92 42 53
        E 208 82 42 00
        E 1715 92 44 48
        E 225 82 44 00
        E 1688 92 47 35
        E 220 82 47 00
        E 1701 92 42 40
        E 237 82 42 00
        E 1699 92 48 33
        E 226 82 48 00
        E 1667 92 49 6c
        E 217 82 49 00
        E 1694 92 41 70
        E 247 82 41 00
        E 1705 92 3d 6a
        E 226 82 3d 00
        E 1682 92 3e 70
        E 225 82 3e 00
        E 1678 92 40 75
        E 246 82 40 00
        E 1686 92 3e 6e
        E 210 82 3e 00
        E 1723 92 43 4a
        E 223 82 43 00
        E 1683 92 45 4e
        E 225 82 45 00
        E 1697 92 47 63
        E 232 82 47 00
        E 0 b2 7b 00
        E 1 ff 2f 00
      >
    >
  >
  <TRACK
    NAME "Cello"
    PEAKCOL 4284186559
    VOLPAN 1.000000 0 1 -1
    MIDIOUT -1
    ISBUS 0 0
    <ITEM
      POSITION 0.010424
      LENGTH 65.532030
      NAME "Cello"
      VOLPAN 1 0 1 -1
      <SOURCE MIDI
        HASDATA 1 960 QN
        E 0 c3 2a 00
        E 15 93 32 48
        E 2033 83 32 00
        E 1801 93 30 74
        E 1917 83 30 00
        E 7691 93 2e 75
        E 1917 93 27 52
        E 55 83 2e 00
        E 1731 83 27 00
        E 7814 93 30 3f
        E 1849 83 30 00
        E 64 93 32 64
        E 1856 83 32 00
        E 1983 93 28 40
        E 1762 83 28 00
        E 5911 93 32 64
        E 1989 83 32 00
        E 1868 93 28 33
        E 1920 93 25 3b
        E 41 83 28 00
        E 1850 83 25 00
        E 20 93 2c 40
        E 1977 83 2c 00
        E 1870 93 26 31
        E 1996 83 26 00
        E 1842 93 26 39
        E 1931 93 33 46
        E 3 83 26 00
        E 1879 83 33 00
        E 3865 93 32 2f
        E 2002 83 32 00
        E 1839 93 3c 63
        E 1915 83 3c 00
        E 27 93 37 3d
        E 1848 83 37 00
        E 62 93 3c 3b
        E 1915 83 3c 00
        E 2 93 3c 4a
        E 1912 93 3f 3d
        E 78 83 3c 00
        E 1841 93 3d 70
        E 94 83 3f 00
        E 1723 83 3d 00
        E 112 93 3e 4e
        E 1907 93 47 66
        E 140 83 3e 00
        E 1715 83 47 00
        E 62 93 46 70
        E 1809 83 46 00
        E 111 93 4b 61
        E 1872 83 4b 00
        E 61 93 47 72
        E 1858 83 47 00
        E 63 93 4a 53
        E 1878 83 4a 00
        E 29 93 42 64
        E 1863 83 42 00
        E 84 93 3d 61
        E 1871 83 3d 00
        E 0 b3 7b 00
        E 1 ff 2f 00
      >
    >
  >
  <TRACK
    NAME "Strings"
    PEAKCOL 4284186559
    VOLPAN 1.000000 0 1 -1
    MIDIOUT -1
    ISBUS 0 0
    <ITEM
      POSITION 1.358707
      LENGTH 64.291976
      NAME "Strings"
      VOLPAN 1 0 1 -1
      <SOURCE MIDI
        HASDATA 1 960 QN
        E 0 c4 30 00
        E 1913 94 3f 52
        E 10 94 3f 44
        E 9 94 41 57
        E 1776 84 41 00
        E 61 84 3f 00
        E 58 94 42 59
        E 2 84 3f 00
        E 13 94 3d 40
        E 10 94 3d 50
        E 2 94 3d 50
        E 1816 84 3d 00
        E 77 84 42 00
        E 14 94 3e 59
        E 5 84 3d 00
        E 174 84 3d 00
        E 1729 94 42 46
        E 3 94 42 4a
        E 9 94 35 55
        E 59 84 3e 00
        E 1828 84 42 00
        E 28 94 3f 4e
        E 15 94 41 5d
        E 28 84 35 00
        E 38 84 42 00
        E 1759 84 3f 00
        E 74 94 32 59
        E 4 94 41 6a
        E 6 94 3f 5b
        E 2 94 3d 6e
        E 32 84 41 00
        E 1786 84 32 00
        E 56 84 41 00
        E 36 84 3f 00
        E 13 94 43 59
        E 1 94 43 59
        E 1 94 36 5d
        E 147 84 3d 00
        E 1756 94 34 44
        E 11 84 36 00
        E 12 94 42 68
        E 39 84 43 00
        E 13 84 43 00
        E 1634 84 34 00
        E 218 94 3f 61
        E 6 94 37 40
        E 4 94 3e 46
        E 3 94 3f 50
        E 84 84 42 00
        E 1724 84 3f 00
        E 39 84 3e 00
        E 35 84 37 00
        E 44 94 33 33
        E 153 84 3f 00
        E 1744 94 40 55
        E 13 94 45 31
        E 3 94 40 39
        E 148 84 33 00
        E 1640 84 45 00
        E 110 94 3e 39
        E 5 84 40 00
        E 2 94 3f 3f
        E 5 94 3f 59
        E 2 94 3c 46
        E 52 84 40 00
        E 1718 84 3f 00
        E 84 84 3c 00
        E 31 84 3e 00
        E 36 94 33 35
        E 5 94 2c 33
        E 2 94 3c 28
        E 1 94 3b 35
        E 2 94 3b 35
        E 24 84 3f 00
        E 1856 84 3b 00
        E 18 94 3e 48
        E 2 94 3e 48
        E 1 94 3f 48
        E 5 94 3e 46
        E 2 94 3c 59
        E 14 94 3d 4c
        E 56 84 33 00
        E 84 84 3b 00
        E 11 84 3c 00
        E 1 84 2c 00
        E 1633 84 3f 00
        E 47 84 3e 00
        E 31 84 3c 00
        E 30 94 3f 53
        E 6 84 3e 00
        E 2 94 40 53
        E 1 94 40 53
        E 4 94 41 52
        E 65 84 3d 00
        E 63 84 3e 00
        E 1661 84 40 00
        E 31 84 41 00
        E 8 84 40 00
        E 84 94 40 74
        E 1 84 3f 00
        E 5 94 40 74
        E 2 94 28 50
        E 2 94 39 5b
        E 4 94 40 5d
        E 3 94 40 57
        E 1683 84 39 00
        E 197 84 40 00
        E 9 84 40 00
        E 23 84 40 00
        E 11 94 3d 1e
        E 35 84 28 00
        E 61 84 40 00
        E 1804 94 3e 48
        E 18 94 3e 3d
        E 4 94 40 3b
        E 53 84 3d 00
        E 1741 84 40 00
        E 109 84 3e 00
        E 0 84 3e 00
        E 1909 94 43 52
        E 4 94 31 3d
        E 1 94 32 3f
        E 10 94 34 35
        E 0 94 3b 31
        E 1 94 3b 31
        E 1 94 42 3b
        E 11 94 3f 31
        E 1761 84 43 00
        E 56 84 3f 00
        E 1 84 42 00
        E 57 84 32 00
        E 24 84 34 00
        E 1 84 3b 00
        E 2 94 3c 2a
        E 4 94 2b 3b
        E 11 94 3d 35
        E 35 84 3b 00
        E 49 84 31 00
        E 1637 84 3c 00
        E 120 84 2b 00
        E 57 94 3c 33
        E 2 84 3d 00
        E 5 94 3e 40
        E 13 94 45 1c
        E 0 94 3e 24
        E 1854 84 45 00
        E 48 94 3f 39
        E 10 94 32 39
        E 3 94 3d 2f
        E 6 94 3a 2f
        E 3 84 3c 00
        E 3 94 3a 24
        E 7 84 3e 00
        E 218 84 3e 00
        E 1608 84 3a 00
        E 66 94 3e 50
        E 1 94 3e 3d
        E 4 94 3e 44
        E 4 94 3e 35
        E 1 94 2c 33
        E 6 84 3f 00
        E 1 94 3d 2f
        E 35 84 3a 00
        E 8 84 3d 00
        E 19 84 32 00
        E 1767 84 3e 00
        E 23 84 3e 00
        E 20 84 3e 00
        E 34 94 3e 35
        E 2 94 3e 26
        E 1 94 3e 24
        E 6 94 3e 17
        E 3 94 3e 1b
        E 0 94 3e 15
        E 32 84 3e 00
        E 18 84 3d 00
        E 112 84 2c 00
        E 1674 84 3e 00
        E 56 84 3e 00
        E 8 94 34 46
        E 1 94 43 2a
        E 8 94 33 2a
        E 10 94 3c 2a
        E 3 94 3c 2a
        E 24 84 3e 00
        E 42 84 3e 00
        E 5 84 3e 00
        E 31 84 3e 00
        E 1669 84 33 00
        E 131 94 32 4e
        E 4 94 3e 40
        E 14 84 3c 00
        E 13 84 3c 00
        E 50 84 34 00
        E 78 84 43 00
        E 1753 94 32 48
        E 3 94 43 46
        E 1 94 3c 48
        E 10 94 38 40
        E 4 94 3e 37
        E 0 94 43 35
        E 7 84 3e 00
        E 1 94 3e 37
        E 51 84 32 00
        E 1673 84 38 00
        E 23 84 32 00
        E 127 84 43 00
        E 18 84 43 00
        E 5 94 3f 3d
        E 2 94 3f 3b
        E 3 94 3e 3b
        E 0 94 3c 2a
        E 7 94 36 48
        E 3 94 32 2a
        E 0 94 3d 24
        E 10 84 3e 00
        E 36 84 3c 00
        E 65 84 3e 00
        E 1661 84 36 00
        E 6 84 32 00
        E 21 84 3e 00
        E 39 84 3f 00
        E 17 84 3c 00
        E 5 84 3f 00
        E 53 94 3c 40
        E 1 94 40 31
        E 1 94 3f 44
        E 9 94 3d 2e
        E 1 94 3c 22
        E 2 94 3b 26
        E 3 94 2b 24
        E 48 84 3d 00
        E 1790 84 3b 00
        E 58 94 40 48
        E 11 94 33 2f
        E 3 94 2d 26
        E 6 84 3f 00
        E 1 94 43 2e
        E 34 84 3d 00
        E 43 84 40 00
        E 11 84 2b 00
        E 5 84 3c 00
        E 44 84 3c 00
        E 1642 84 43 00
        E 27 84 40 00
        E 65 84 2d 00
        E 24 94 3e 39
        E 6 94 3e 40
        E 4 94 3e 40
        E 3 94 3f 40
        E 2 94 3e 1c
        E 0 94 3a 33
        E 4 94 3e 2a
        E 9 94 44 2e
        E 3 84 33 00
        E 1782 84 3f 00
        E 85 84 3e 00
        E 31 84 44 00
        E 9 84 3e 00
        E 3 84 3e 00
        E 7 84 3e 00
        E 16 84 3a 00
        E 87 84 3e 00
        E 1795 94 41 57
        E 4 94 41 57
        E 1 94 41 48
        E 3 94 40 50
        E 2 94 36 4e
        E 3 94 33 48
        E 7 94 3f 48
        E 0 94 40 40
        E 1773 84 41 00
        E 61 84 40 00
        E 61 94 3f 61
        E 1 94 40 57
        E 1 94 41 57
        E 5 94 34 74
        E 7 94 41 40
        E 1 94 3b 48
        E 3 94 41 3f
        E 0 94 40 3b
        E 23 84 3f 00
        E 61 84 41 00
        E 16 84 40 00
        E 22 84 36 00
        E 22 84 41 00
        E 40 84 33 00
        E 1583 84 41 00
        E 17 84 41 00
        E 75 84 40 00
        E 52 94 40 64
        E 1 94 41 61
        E 5 94 37 39
        E 2 84 34 00
        E 4 94 41 2f
        E 1 94 40 35
        E 1 94 41 61
        E 2 94 41 2f
        E 4 84 3f 00
        E 8 84 40 00
        E 25 84 3b 00
        E 266 84 41 00
        E 1556 84 40 00
        E 24 84 41 00
        E 17 94 3f 72
        E 6 94 41 68
        E 0 94 43 6c
        E 2 94 3f 77
        E 0 94 3c 44
        E 10 94 3d 44
        E 1 94 3d 44
        E 1 94 3c 44
        E 12 84 41 00
        E 29 84 41 00
        E 41 84 41 00
        E 150 84 40 00
        E 64 84 37 00
        E 1358 84 43 00
        E 149 84 41 00
        E 30 84 3f 00
        E 61 84 3f 00
        E 13 84 3c 00
        E 1 94 3d 63
        E 1 94 3f 2a
        E 2 94 3f 24
        E 3 94 3f 24
        E 0 94 3f 2f
        E 1 94 3f 2f
        E 3 94 3f 2a
        E 5 94 3f 2e
        E 1 84 3c 00
        E 49 84 3d 00
        E 6 84 3d 00
        E 1749 84 3d 00
        E 34 84 3f 00
        E 21 84 3f 00
        E 21 84 3f 00
        E 15 94 2f 4e
        E 2 94 32 5b
        E 2 94 3e 53
        E 0 94 3e 5d
        E 1 94 2b 40
        E 1 94 3e 5d
        E 6 84 3f 00
        E 19 84 3f 00
        E 45 84 3f 00
        E 53 84 3f 00
        E 1749 84 3e 00
        E 15 84 3e 00
        E 21 84 2b 00
        E 5 94 32 5f
        E 6 94 3c 5f
        E 1 94 3e 66
        E 5 94 3d 4e
        E 7 94 3e 4e
        E 31 84 32 00
        E 13 84 2f 00
        E 53 84 3e 00
        E 1596 84 3e 00
        E 102 84 3c 00
        E 39 84 3d 00
        E 65 94 3e 5f
        E 0 94 39 66
        E 8 94 3e 59
        E 2 94 33 57
        E 2 94 3b 7d
        E 35 84 32 00
        E 83 84 3e 00
        E 1678 84 3e 00
        E 27 84 3b 00
        E 35 84 39 00
        E 47 94 3e 5b
        E 6 94 3e 50
        E 8 94 3e 46
        E 1 94 41 48
        E 13 94 3e 5b
        E 100 84 33 00
        E 67 84 3e 00
        E 1578 84 41 00
        E 92 84 3e 00
        E 2 84 3e 00
        E 45 84 3e 00
        E 17 94 33 68
        E 6 94 40 5f
        E 1 94 33 4c
        E 0 94 34 55
        E 2 94 3e 4c
        E 2 94 3f 3d
        E 77 84 3e 00
        E 1686 84 34 00
        E 22 84 3e 00
        E 73 84 33 00
        E 19 84 3f 00
        E 25 94 3c 59
        E 9 94 3c 57
        E 3 84 33 00
        E 2 94 39 5b
        E 13 94 3c 55
        E 69 84 40 00
        E 1640 84 3c 00
        E 176 84 39 00
        E 11 94 34 68
        E 0 94 3b 6c
        E 2 94 42 72
        E 1 84 3c 00
        E 6 94 42 72
        E 0 94 36 5d
        E 2 94 31 4a
        E 11 94 42 37
        E 2 84 3c 00
        E 0 94 42 44
        E 1813 84 42 00
        E 37 84 3b 00
        E 3 84 42 00
        E 28 84 31 00
        E 17 94 41 3b
        E 2 94 34 57
        E 2 84 42 00
        E 7 94 3d 50
        E 1 94 40 48
        E 7 94 42 33
        E 41 84 42 00
        E 10 84 34 00
        E 27 84 36 00
        E 1714 84 42 00
        E 32 84 40 00
        E 72 94 41 68
        E 4 94 41 4a
        E 1 94 34 50
        E 2 94 41 48
        E 7 94 35 59
        E 1 94 41 44
        E 3 84 34 00
        E 6 94 3c 3b
        E 3 84 41 00
        E 147 84 3d 00
        E 1736 84 41 00
        E 15 84 34 00
        E 45 84 41 00
        E 48 84 41 00
        E 19 84 41 00
        E 2 84 35 00
        E 29 84 3c 00
        E 0 b4 7b 00
        E 1 ff 2f 00
      >
    >
  >
  <TRACK
    NAME "Harp"
    PEAKCOL 4290756410
    VOLPAN 1.000000 0 1 -1
    MIDIOUT -1
    ISBUS 0 0
    <ITEM
      POSITION 0.083682
      LENGTH 65.197513
      NAME "Harp"
      VOLPAN 1 0 1 -1
      <SOURCE MIDI
        HASDATA 1 960 QN
        E 0 c5 2e 00
        E 118 95 2e 40
        E 119 95 2f 44
        E 123 95 32 5d
        E 238 95 37 59
        E 285 85 2f 00
        E 83 85 32 00
        E 135 85 37 00
        E 97 95 44 4c
        E 121 95 4a 59
        E 143 85 44 00
        E 77 85 4a 00
        E 124 85 2e 00
        E 856 95 3f 4e
        E 240 95 3f 46
        E 279 85 3f 00
        E 79 95 46 53
        E 58 85 3f 00
        E 187 95 47 53
        E 29 85 46 00
        E 144 85 47 00
        E 65 95 4e 4c
        E 78 85 4e 00
        E 162 95 2d 7b
        E 241 95 30 6a
        E 116 95 31 53
        E 365 95 37 5f
        E 117 95 3c 53
        E 72 85 30 00
        E 48 95 3d 4c
        E 18 85 31 00
        E 193 85 37 00
        E 88 85 3c 00
        E 66 85 3d 00
        E 197 85 2d 00
        E 39 95 4a 57
        E 127 85 4a 00
        E 234 95 2b 72
        E 237 95 32 70
        E 124 95 33 6a
        E 515 85 32 00
        E 97 85 33 00
        E 523 85 2b 00
        E 186 95 4e 52
        E 75 85 4e 00
        E 520 95 33 63
        E 482 95 3d 52
        E 121 85 33 00
        E 241 95 48 48
        E 54 85 3d 00
        E 217 85 48 00
        E 89 95 4d 4c
        E 124 85 4d 00
        E 476 95 30 5d
        E 659 85 30 00
        E 59 95 3e 4c
        E 239 95 43 63
        E 123 95 4a 55
        E 6 85 3e 00
        E 138 85 43 00
        E 75 85 4a 00
        E 140 95 4e 52
        E 75 85 4e 00
        E 403 95 32 53
        E 119 95 32 63
        E 123 95 34 61
        E 241 95 38 52
        E 159 85 32 00
        E 70 85 32 00
        E 71 85 34 00
        E 156 85 38 00
        E 380 95 4b 5b
        E 126 85 4b 00
        E 597 95 32 5f
        E 598 95 3e 59
        E 2 85 32 00
        E 116 95 3e 53
        E 227 85 3e 00
        E 93 85 3e 00
        E 165 95 48 4e
        E 116 95 4a 4c
        E 8 85 48 00
        E 70 85 4a 00
        E 524 95 31 5b
        E 122 95 36 57
        E 359 95 3d 50
        E 121 95 3a 4a
        E 16 85 31 00
        E 61 85 36 00
        E 162 95 42 42
        E 49 85 3d 00
        E 73 95 47 53
        E 10 85 3a 00
        E 135 85 42 00
        E 79 85 47 00
        E 13 95 47 52
        E 126 85 47 00
        E 235 95 29 66
        E 239 95 30 63
        E 243 95 35 53
        E 356 95 3d 4a
        E 61 85 30 00
        E 133 85 35 00
        E 217 85 3d 00
        E 287 85 29 00
        E 142 95 4e 55
        E 76 85 4e 00
        E 286 95 33 44
        E 237 95 2e 5b
        E 243 95 3d 55
        E 227 85 33 00
        E 121 85 2e 00
        E 130 95 3d 4c
        E 29 85 3d 00
        E 213 95 4c 55
        E 77 85 3d 00
        E 148 85 4c 00
        E 495 95 2f 4e
        E 121 95 2e 72
        E 239 95 36 68
        E 119 95 38 66
        E 122 95 39 4c
        E 116 95 39 57
        E 53 85 2e 00
        E 69 95 3f 50
        E 67 85 36 00
        E 52 95 42 46
        E 33 85 38 00
        E 70 85 39 00
        E 59 85 39 00
        E 75 85 3f 00
        E 5 95 45 52
        E 79 85 42 00
        E 144 85 45 00
        E 16 95 4b 4a
        E 93 85 2f 00
        E 24 95 4e 4a
        E 7 85 4b 00
        E 68 85 4e 00
        E 168 95 2c 53
        E 120 95 30 63
        E 120 95 34 5b
        E 240 95 35 59
        E 123 95 38 4e
        E 115 95 37 4a
        E 119 95 3c 53
        E 45 85 34 00
        E 78 95 3d 48
        E 69 85 35 00
        E 84 85 38 00
        E 78 85 37 00
        E 10 95 44 53
        E 56 85 3c 00
        E 80 85 3d 00
        E 144 85 44 00
        E 68 85 2c 00
        E 81 85 30 00
        E 51 95 4e 4e
        E 78 85 4e 00
        E 159 95 30 72
        E 244 95 32 70
        E 118 95 34 66
        E 122 95 32 52
        E 120 95 3b 64
        E 115 95 3e 59
        E 124 95 3e 53
        E 64 85 32 00
        E 52 85 34 00
        E 4 95 3f 55
        E 86 85 32 00
        E 44 85 3b 00
        E 85 85 3e 00
        E 24 95 47 5b
        E 58 85 3e 00
        E 66 85 3f 00
        E 146 85 47 00
        E 81 85 30 00
        E 10 95 4c 53
        E 122 85 4c 00
        E 237 95 2d 72
        E 241 95 30 6a
        E 478 95 3f 55
        E 119 95 3d 55
        E 66 85 30 00
        E 57 95 3f 5d
        E 121 95 41 3d
        E 99 85 3f 00
        E 16 95 44 4e
        E 55 85 3d 00
        E 71 85 3f 00
        E 78 85 41 00
        E 40 95 4a 55
        E 19 85 44 00
        E 71 85 2d 00
        E 31 95 4b 52
        E 53 85 4a 00
        E 67 95 4c 4a
        E 5 85 4b 00
        E 71 85 4c 00
        E 161 95 30 72
        E 123 95 30 66
        E 480 95 41 57
        E 236 85 30 00
        E 2 95 48 53
        E 270 85 41 00
        E 110 85 48 00
        E 318 85 30 00
        E 381 95 26 66
        E 120 95 31 53
        E 240 95 37 52
        E 118 95 3f 4a
        E 244 95 44 46
        E 94 85 31 00
        E 142 95 4a 4c
        E 15 85 37 00
        E 57 85 3f 00
        E 137 85 44 00
        E 163 85 4a 00
        E 234 85 26 00
        E 355 95 2d 7b
        E 241 95 33 33
        E 239 95 40 5b
        E 123 95 40 5b
        E 120 95 45 50
        E 150 85 33 00
        E 152 85 40 00
        E 96 85 40 00
        E 63 85 45 00
        E 391 85 2d 00
        E 344 95 2d 72
        E 123 95 2f 4e
        E 119 95 30 4e
        E 243 95 35 66
        E 408 85 30 00
        E 148 85 35 00
        E 503 85 2d 00
        E 56 85 2f 00
        E 805 95 33 4a
        E 115 95 3c 4c
        E 123 95 3f 46
        E 303 85 33 00
        E 91 85 3c 00
        E 56 85 3f 00
        E 753 95 24 39
        E 121 95 2f 35
        E 114 95 2f 33
        E 243 95 35 35
        E 121 95 40 2c
        E 119 95 3f 3f
        E 97 85 2f 00
        E 75 85 2f 00
        E 68 95 41 3f
        E 79 85 35 00
        E 52 85 40 00
        E 93 85 3f 00
        E 13 95 4b 2f
        E 122 85 41 00
        E 143 85 4b 00
        E 78 85 24 00
        E 378 95 25 53
        E 244 95 30 55
        E 120 95 34 44
        E 355 95 3a 4c
        E 123 95 41 39
        E 39 85 30 00
        E 79 95 3f 42
        E 12 85 34 00
        E 112 95 40 3f
        E 82 85 3a 00
        E 37 95 43 3b
        E 50 85 41 00
        E 77 85 3f 00
        E 69 85 40 00
        E 42 95 49 3d
        E 33 85 43 00
        E 68 85 25 00
        E 74 85 49 00
        E 65 95 4e 4c
        E 76 85 4e 00
        E 284 95 2d 44
        E 241 95 33 5b
        E 123 95 35 4c
        E 115 95 37 3f
        E 117 95 37 35
        E 126 95 40 35
        E 120 85 33 00
        E 77 85 35 00
        E 47 85 37 00
        E 90 85 37 00
        E 28 95 43 3f
        E 53 85 40 00
        E 180 95 48 3d
        E 45 85 43 00
        E 76 95 4b 3d
        E 49 85 48 00
        E 27 85 2d 00
        E 46 85 4b 00
        E 841 95 3e 44
        E 117 95 48 39
        E 395 85 3e 00
        E 64 85 48 00
        E 740 95 30 5d
        E 241 95 34 35
        E 119 95 30 4c
        E 124 95 3c 44
        E 237 95 3f 1c
        E 124 95 3c 40
        E 58 85 34 00
        E 57 85 30 00
        E 5 95 48 2c
        E 77 85 3c 00
        E 43 95 48 2f
        E 100 85 3f 00
        E 16 95 4b 3d
        E 52 85 3c 00
        E 69 95 49 3f
        E 3 85 48 00
        E 72 85 48 00
        E 72 85 4b 00
        E 16 85 30 00
        E 53 85 49 00
        E 387 95 28 2e
        E 120 95 30 31
        E 119 95 31 52
        E 478 95 3d 44
        E 164 85 31 00
        E 287 85 3d 00
        E 30 95 4b 44
        E 123 95 4c 42
        E 150 85 4b 00
        E 46 85 28 00
        E 21 85 4c 00
        E 145 85 30 00
        E 233 95 27 4c
        E 364 95 37 50
        E 121 95 3a 4a
        E 115 95 3e 39
        E 242 95 44 33
        E 115 85 37 00
        E 84 85 3a 00
        E 43 95 46 3d
        E 23 85 3e 00
        E 92 95 4a 3b
        E 51 85 44 00
        E 152 85 46 00
        E 59 85 4a 00
        E 66 85 27 00
        E 517 95 30 2f
        E 119 95 31 44
        E 119 95 33 50
        E 121 95 34 42
        E 359 95 3f 3d
        E 40 85 31 00
        E 80 95 3d 3b
        E 6 85 33 00
        E 66 85 34 00
        E 221 85 3f 00
        E 87 85 3d 00
        E 218 95 49 3d
        E 77 85 30 00
        E 44 95 4f 3d
        E 5 85 49 00
        E 72 85 4f 00
        E 286 95 26 35
        E 121 95 32 4c
        E 115 95 30 35
        E 119 95 33 42
        E 124 95 3c 37
        E 117 95 39 37
        E 124 95 3e 1c
        E 30 85 32 00
        E 78 85 30 00
        E 9 95 42 3f
        E 89 85 33 00
        E 33 95 40 2f
        E 29 85 3c 00
        E 59 85 39 00
        E 28 95 3f 2a
        E 48 85 3e 00
        E 77 95 45 4c
        E 6 85 42 00
        E 73 85 40 00
        E 38 95 48 39
        E 28 85 3f 00
        E 72 85 45 00
        E 23 95 4c 26
        E 48 85 48 00
        E 56 85 26 00
        E 16 95 4c 46
        E 3 85 4c 00
        E 74 85 4c 00
        E 160 95 2c 57
        E 121 95 30 52
        E 240 95 30 35
        E 121 95 35 4a
        E 119 95 35 3d
        E 122 95 39 53
        E 116 95 40 3f
        E 124 85 30 00
        E 74 85 35 00
        E 44 95 41 4c
        E 51 85 35 00
        E 60 85 39 00
        E 7 95 45 33
        E 55 85 40 00
        E 140 85 41 00
        E 47 95 45 2e
        E 33 85 45 00
        E 64 85 2c 00
        E 23 95 4b 3f
        E 55 85 45 00
        E 66 95 4e 3f
        E 7 85 4b 00
        E 4 85 30 00
        E 64 85 4e 00
        E 162 95 2f 5f
        E 123 95 31 3d
        E 239 95 30 55
        E 121 95 33 4a
        E 120 95 3a 42
        E 227 85 31 00
        E 11 95 3e 3f
        E 120 95 3d 39
        E 12 85 30 00
        E 77 85 33 00
        E 32 95 3d 3d
        E 32 85 3a 00
        E 87 95 48 2c
        E 54 85 3e 00
        E 72 85 3d 00
        E 67 85 3d 00
        E 49 95 4b 44
        E 19 85 48 00
        E 66 85 2f 00
        E 89 85 4b 00
        E 65 95 4b 2f
        E 75 85 4b 00
        E 287 95 30 3d
        E 121 95 2f 5b
        E 120 95 34 48
        E 116 95 36 48
        E 120 95 35 37
        E 118 95 38 3d
        E 123 95 3c 44
        E 34 85 2f 00
        E 88 95 40 39
        E 13 85 34 00
        E 55 85 36 00
        E 82 85 35 00
        E 72 85 38 00
        E 19 95 43 3d
        E 53 85 3c 00
        E 65 95 45 28
        E 7 85 40 00
        E 111 95 4b 37
        E 35 85 43 00
        E 69 85 45 00
        E 65 85 4b 00
        E 68 85 30 00
        E 3 95 4e 2e
        E 77 85 4e 00
        E 164 95 2d 53
        E 118 95 2f 2f
        E 119 95 32 2a
        E 124 95 36 40
        E 119 95 39 2e
        E 121 95 3b 2f
        E 121 95 3f 33
        E 91 85 2f 00
        E 68 85 32 00
        E 70 85 36 00
        E 82 85 39 00
        E 46 95 48 2e
        E 47 85 3b 00
        E 59 85 3f 00
        E 13 95 4c 33
        E 122 95 4d 39
        E 75 85 48 00
        E 71 85 4c 00
        E 74 85 2d 00
        E 0 85 4d 00
        E 2297 95 30 7b
        E 121 95 32 5b
        E 122 95 34 7c
        E 123 95 35 7b
        E 117 95 32 61
        E 119 95 3b 6a
        E 123 95 3d 6e
        E 99 85 32 00
        E 22 95 3e 64
        E 50 85 34 00
        E 68 95 41 5b
        E 6 85 35 00
        E 56 85 32 00
        E 57 95 3e 5d
        E 38 85 3b 00
        E 73 85 3d 00
        E 56 85 3e 00
        E 69 85 41 00
        E 3 95 4a 61
        E 85 85 3e 00
        E 37 95 4b 59
        E 64 85 30 00
        E 41 85 4a 00
        E 12 95 4d 64
        E 55 85 4b 00
        E 70 95 51 75
        E 2 85 4d 00
        E 75 85 51 00
        E 157 95 28 79
        E 125 95 33 4e
        E 120 95 2f 70
        E 120 95 34 77
        E 118 95 36 66
        E 121 95 37 6c
        E 120 95 3a 5d
        E 120 95 3e 61
        E 46 85 2f 00
        E 73 95 40 6a
        E 12 85 34 00
        E 72 85 36 00
        E 37 95 42 72
        E 33 85 37 00
        E 76 85 3a 00
        E 11 95 42 63
        E 49 85 3e 00
        E 69 95 46 5f
        E 8 85 40 00
        E 68 85 42 00
        E 43 95 4a 63
        E 24 85 42 00
        E 56 85 28 00
        E 18 85 46 00
        E 26 95 4b 59
        E 49 85 4a 00
        E 66 95 4e 5b
        E 6 85 33 00
        E 5 85 4b 00
        E 66 85 4e 00
        E 168 95 27 35
        E 118 95 31 2f
        E 121 95 30 72
        E 117 95 31 61
        E 124 95 35 6a
        E 120 95 38 5b
        E 119 95 3f 46
        E 119 95 3c 50
        E 52 85 30 00
        E 64 85 31 00
        E 4 95 3f 44
        E 83 85 35 00
        E 39 95 41 5b
        E 24 85 38 00
        E 73 85 3f 00
        E 21 95 45 68
        E 59 85 3c 00
        E 60 95 45 5f
        E 19 85 3f 00
        E 59 85 41 00
        E 46 95 49 5d
        E 27 85 45 00
        E 66 85 45 00
        E 25 95 4b 5b
        E 17 85 27 00
        E 37 85 49 00
        E 68 95 4e 5b
        E 5 85 4b 00
        E 2 85 31 00
        E 69 85 4e 00
        E 162 95 26 48
        E 118 95 31 44
        E 120 95 35 42
        E 122 95 37 66
        E 117 95 3c 70
        E 123 95 41 61
        E 117 95 46 5f
        E 109 85 31 00
        E 16 95 47 5b
        E 47 85 35 00
        E 71 95 4d 59
        E 1 85 37 00
        E 71 85 3c 00
        E 58 85 41 00
        E 83 85 46 00
        E 53 85 47 00
        E 95 85 4d 00
        E 188 85 26 00
        E 412 95 2c 3d
        E 115 95 2c 3f
        E 125 95 30 79
        E 115 95 32 72
        E 121 95 33 6a
        E 123 95 39 63
        E 120 95 38 5b
        E 118 95 3c 6c
        E 56 85 30 00
        E 71 85 32 00
        E 46 85 33 00
        E 65 95 3f 5b
        E 34 85 39 00
        E 74 85 38 00
        E 14 95 44 53
        E 60 85 3c 00
        E 58 95 43 52
        E 83 85 3f 00
        E 40 95 47 59
        E 34 85 44 00
        E 56 85 2c 00
        E 8 85 43 00
        E 25 95 4b 4c
        E 47 85 47 00
        E 28 85 2c 00
        E 49 85 4b 00
        E 834 95 36 68
        E 360 95 46 6a
        E 121 95 48 57
        E 37 85 36 00
        E 199 85 46 00
        E 4 95 4e 57
        E 69 85 48 00
        E 150 85 4e 00
        E 380 95 30 75
        E 118 95 32 63
        E 241 95 3a 66
        E 118 95 3c 5f
        E 243 95 40 72
        E 91 85 32 00
        E 26 95 46 6a
        E 121 85 3a 00
        E 2 95 45 52
        E 67 85 3c 00
        E 53 95 48 5b
        E 101 85 40 00
        E 16 95 4d 72
        E 63 85 46 00
        E 58 95 4b 59
        E 23 85 45 00
        E 65 85 48 00
        E 53 85 4d 00
        E 81 85 4b 00
        E 26 85 30 00
        E 354 95 2d 7d
        E 121 95 30 77
        E 120 95 34 77
        E 119 95 35 72
        E 118 95 38 6a
        E 120 95 3b 61
        E 121 95 40 6a
        E 119 95 41 6a
        E 49 85 34 00
        E 64 85 35 00
        E 97 85 38 00
        E 58 85 3b 00
        E 70 85 40 00
        E 23 95 48 5b
        E 46 85 41 00
        E 73 95 4e 63
        E 142 85 48 00
        E 47 85 2d 00
        E 30 85 4e 00
        E 98 85 30 00
        E 286 95 2d 74
        E 240 95 36 7b
        E 117 95 39 63
        E 361 95 46 72
        E 119 95 4b 64
        E 59 85 36 00
        E 62 95 4d 6e
        E 6 85 39 00
        E 207 85 46 00
        E 53 85 4b 00
        E 93 85 4d 00
        E 205 85 2d 00
        E 395 95 2c 6e
        E 119 95 33 5d
        E 121 95 31 50
        E 120 95 2f 61
        E 121 95 35 63
        E 119 95 36 4a
        E 122 95 3f 5b
        E 162 85 31 00
        E 82 85 2f 00
        E 77 85 35 00
        E 37 95 41 57
        E 20 85 36 00
        E 87 85 3f 00
        E 15 95 41 59
        E 118 95 4b 68
        E 85 85 41 00
        E 35 95 47 59
        E 31 85 41 00
        E 65 85 2c 00
        E 11 85 4b 00
        E 67 85 47 00
        E 51 85 33 00
        E 377 95 33 75
        E 240 95 33 5d
        E 118 95 36 76
        E 118 95 3c 63
        E 124 95 3f 72
        E 119 85 33 00
        E 0 95 3c 64
        E 109 85 33 00
        E 13 95 3e 5b
        E 76 85 36 00
        E 50 85 3c 00
        E 100 85 3f 00
        E 10 95 48 63
        E 78 85 3c 00
        E 46 95 4b 46
        E 4 85 3e 00
        E 111 95 48 6a
        E 27 85 48 00
        E 78 85 4b 00
        E 19 95 4a 5f
        E 50 85 48 00
        E 68 95 4e 64
        E 6 85 4a 00
        E 69 85 4e 00
        E 165 95 2e 7d
        E 125 95 2e 57
        E 114 95 33 55
        E 121 95 36 6e
        E 122 95 39 6c
        E 239 95 3f 63
        E 161 85 33 00
        E 80 95 43 6a
        E 4 85 36 00
        E 86 85 39 00
        E 31 95 47 5f
        E 98 85 3f 00
        E 19 95 4b 6a
        E 122 95 4e 5d
        E 12 85 43 00
        E 70 85 47 00
        E 62 85 4b 00
        E 80 85 2e 00
        E 2 85 4e 00
        E 68 85 2e 00
        E 426 95 30 6a
        E 117 95 36 6e
        E 240 95 3c 74
        E 123 95 42 74
        E 118 95 4a 5f
        E 114 85 30 00
        E 9 95 47 52
        E 78 85 36 00
        E 41 95 4e 59
        E 67 85 3c 00
        E 75 85 42 00
        E 69 85 4a 00
        E 49 85 47 00
        E 102 85 4e 00
        E 594 95 2d 70
        E 243 95 35 50
        E 656 85 35 00
        E 639 85 2d 00
        E 0 b5 7b 00
        E 1 ff 2f 00
      >
    >
  >
  <TRACK
    NAME "Flute"
    PEAKCOL 4282040170
    VOLPAN 1.000000 0 1 -1
    MIDIOUT -1
    ISBUS 0 0
    <ITEM
      POSITION 14.998160
      LENGTH 46.823128
      NAME "Flute"
      VOLPAN 1 0 1 -1
      <SOURCE MIDI
        HASDATA 1 960 QN
        E 0 c6 49 00
        E 21117 96 56 4e
        E 496 86 56 00
        E 5267 96 57 52
        E 476 86 57 00
        E 1450 96 5a 52
        E 463 86 5a 00
        E 3386 96 5c 2f
        E 495 86 5c 00
        E 7162 96 5d 44
        E 454 86 5d 00
        E 5304 96 5e 50
        E 510 86 5e 00
        E 3331 96 56 40
        E 473 86 56 00
        E 1448 96 55 44
        E 501 86 55 00
        E 7196 96 5c 2c
        E 488 86 5c 00
        E 1424 96 56 2c
        E 461 86 56 00
        E 3380 96 56 52
        E 474 86 56 00
        E 1447 96 54 3d
        E 469 86 54 00
        E 1460 96 55 31
        E 471 86 55 00
        E 1450 96 59 37
        E 484 86 59 00
        E 3354 96 53 6a
        E 477 86 53 00
        E 11042 96 55 4c
        E 494 86 55 00
        E 0 b6 7b 00
        E 1 ff 2f 00
      >
    >
  >
  <TRACK
    NAME "Horror"
    PEAKCOL 4284506208
    VOLPAN 1.000000 0 1 -1
    MIDIOUT -1
    ISBUS 0 0
    <ITEM
      POSITION 2.721200
      LENGTH 54.434419
      NAME "Horror"
      VOLPAN 1 0 1 -1
      <SOURCE MIDI
        HASDATA 1 960 QN
        E 0 c7 31 00
        E 3831 97 3a 35
        E 477 87 3a 00
        E 8070 97 3a 46
        E 489 87 3a 00
        E 8011 97 3f 33
        E 469 87 3f 00
        E 5526 97 21 31
        E 3573 87 21 00
        E 2999 97 36 3b
        E 475 87 36 00
        E 633 97 2d 46
        E 2 97 38 2c
        E 493 87 38 00
        E 3095 87 2d 00
        E 4674 97 3d 2a
        E 487 87 3d 00
        E 7854 97 3d 31
        E 506 87 3d 00
        E 7329 97 3d 26
        E 463 87 3d 00
        E 5087 97 39 4a
        E 499 87 39 00
        E 2235 97 3e 2a
        E 489 87 3e 00
        E 1355 97 2f 1e
        E 3722 87 2f 00
        E 3961 97 19 3b
        E 3531 87 19 00
        E 0 b7 7b 00
        E 1 ff 2f 00
      >
    >
  >
  <TRACK
    NAME "Choir"
    PEAKCOL 4284506208
    VOLPAN 1.000000 0 1 -1
    MIDIOUT -1
    ISBUS 0 0
    <ITEM
      POSITION 13.647087
      LENGTH 65.446485
      NAME "Choir"
      VOLPAN 1 0 1 -1
      <SOURCE MIDI
        HASDATA 1 960 QN
        E 0 c8 34 00
        E 19215 98 35 52
        E 8 98 3e 4c
        E 1780 88 35 00
        E 125 98 3c 44
        E 5 98 36 57
        E 4 98 36 53
        E 24 88 3e 00
        E 1688 88 36 00
        E 21 88 3c 00
        E 133 88 36 00
        E 1969 98 3e 52
        E 1538 88 3e 00
        E 4232 98 36 6a
        E 6 98 36 6a
        E 1573 88 36 00
        E 164 88 36 00
        E 163 98 3e 31
        E 1643 88 3e 00
        E 272 98 3e 4c
        E 9 98 3e 55
        E 10 98 33 48
        E 1647 88 3e 00
        E 59 88 3e 00
        E 84 88 33 00
        E 2036 98 35 4c
        E 11 98 3b 39
        E 1828 88 35 00
        E 16 88 3b 00
        E 58 98 3e 53
        E 28 98 36 72
        E 2 98 36 72
        E 1566 88 3e 00
        E 134 88 36 00
        E 85 88 36 00
        E 100 98 3d 61
        E 6 98 3a 3d
        E 1785 88 3a 00
        E 97 88 3d 00
        E 46 98 37 3d
        E 3 98 3f 3b
        E 1660 88 3f 00
        E 120 88 37 00
        E 125 98 3d 53
        E 8 98 36 4e
        E 10 98 3c 3b
        E 1 98 36 4e
        E 1775 88 36 00
        E 25 88 3d 00
        E 18 88 3c 00
        E 0 88 36 00
        E 93 98 3d 44
        E 3 98 3c 33
        E 11 98 36 3d
        E 1719 88 3c 00
        E 46 88 36 00
        E 32 88 3d 00
        E 112 98 3a 57
        E 7 98 36 4c
        E 1643 88 3a 00
        E 158 88 36 00
        E 110 98 3e 44
        E 13 98 3a 44
        E 4 98 34 39
        E 1661 88 34 00
        E 113 88 3a 00
        E 36 88 3e 00
        E 81 98 3f 53
        E 20 98 32 33
        E 6 98 37 44
        E 1809 88 3f 00
        E 25 88 37 00
        E 32 88 32 00
        E 39 98 3e 4c
        E 10 98 40 44
        E 6 98 3a 53
        E 6 98 37 53
        E 1665 88 40 00
        E 133 88 37 00
        E 22 88 3e 00
        E 31 88 3a 00
        E 47 98 36 52
        E 5 98 3d 52
        E 5 98 36 52
        E 1842 88 36 00
        E 23 88 3d 00
        E 33 88 36 00
        E 18 98 3e 42
        E 3 98 36 44
        E 20 98 35 2f
        E 1678 88 35 00
        E 1 88 36 00
        E 11 88 3e 00
        E 206 98 36 46
        E 6 98 3e 4c
        E 11 98 36 3d
        E 1630 88 36 00
        E 34 88 3e 00
        E 35 88 36 00
        E 2119 98 3e 6e
        E 5 98 42 64
        E 8 98 37 76
        E 13 98 37 5f
        E 1651 88 37 00
        E 90 88 37 00
        E 7 88 3e 00
        E 43 88 42 00
        E 102 98 40 50
        E 10 98 39 55
        E 10 98 42 55
        E 1720 88 42 00
        E 83 88 39 00
        E 91 98 3b 3d
        E 6 98 3f 3b
        E 9 98 36 48
        E 17 98 36 48
        E 18 88 40 00
        E 1473 88 3f 00
        E 103 88 36 00
        E 86 88 3b 00
        E 205 88 36 00
        E 20 98 36 50
        E 0 98 36 50
        E 3 98 40 44
        E 1 98 3d 44
        E 1803 88 3d 00
        E 21 88 40 00
        E 87 98 37 46
        E 3 98 41 46
        E 3 98 3d 40
        E 9 98 36 3f
        E 31 88 36 00
        E 7 88 36 00
        E 1587 88 41 00
        E 49 88 3d 00
        E 156 88 36 00
        E 43 88 37 00
        E 25 98 3e 7d
        E 1 98 3e 7d
        E 16 98 36 7c
        E 11 98 36 7d
        E 1607 88 3e 00
        E 116 88 36 00
        E 1 88 36 00
        E 68 88 3e 00
        E 92 98 3e 5d
        E 19 98 38 68
        E 2 98 3d 53
        E 9 98 36 6a
        E 1592 88 36 00
        E 17 88 3e 00
        E 88 88 38 00
        E 1 88 3d 00
        E 228 98 36 7d
        E 6 98 35 7b
        E 1762 88 35 00
        E 47 88 36 00
        E 87 98 3c 77
        E 1625 88 3c 00
        E 285 98 3a 6a
        E 7 98 42 77
        E 1710 88 3a 00
        E 163 88 42 00
        E 25 98 3f 6a
        E 34 98 3c 7c
        E 2 98 34 64
        E 8 98 37 7d
        E 1681 88 34 00
        E 30 88 3f 00
        E 45 88 37 00
        E 66 88 3c 00
        E 55 98 3d 76
        E 20 98 3c 5d
        E 9 98 36 53
        E 2 98 36 46
        E 1777 88 36 00
        E 37 88 3d 00
        E 45 88 36 00
        E 50 98 3e 74
        E 10 98 36 6c
        E 4 88 3c 00
        E 0 98 35 64
        E 1653 88 3e 00
        E 130 88 36 00
        E 34 88 35 00
        E 87 98 42 79
        E 1749 88 42 00
        E 170 98 3c 75
        E 8 98 3f 6e
        E 22 98 36 7d
        E 1688 88 3f 00
        E 24 88 36 00
        E 125 88 3c 00
        E 62 98 3a 7d
        E 1875 88 3a 00
        E 37 98 3e 7d
        E 10 98 37 7d
        E 1696 88 3e 00
        E 162 88 37 00
        E 47 98 3e 7d
        E 25 98 36 7d
        E 1645 88 3e 00
        E 86 88 36 00
        E 168 98 42 77
        E 8 98 3b 77
        E 1695 88 42 00
        E 141 88 3b 00
        E 74 98 3e 7d
        E 1757 88 3e 00
        E 161 98 36 7d
        E 5 98 3e 7b
        E 1593 88 36 00
        E 277 88 3e 00
        E 64 98 42 72
        E 13 98 36 7d
        E 1762 88 42 00
        E 128 98 3d 7b
        E 18 88 36 00
        E 1648 88 3d 00
        E 256 98 42 7d
        E 12 98 3b 5d
        E 1502 88 42 00
        E 260 88 3b 00
        E 0 b8 7b 00
        E 1 ff 2f 00
      >
    >
  >
  <TRACK
    NAME "Bass"
    PEAKCOL 4286528191
    VOLPAN 1.000000 0 1 -1
    MIDIOUT -1
    ISBUS 0 0
    <ITEM
      POSITION 0.002484
      LENGTH 64.945220
      NAME "Bass"
      VOLPAN 1 0 1 -1
      <SOURCE MIDI
        HASDATA 1 960 QN
        E 0 ca 2b 00
        E 3 9a 23 4a
        E 105 8a 23 00
        E 850 9a 27 66
        E 104 8a 27 00
        E 864 9a 23 68
        E 102 8a 23 00
        E 855 9a 20 66
        E 105 8a 20 00
        E 855 9a 23 6a
        E 101 8a 23 00
        E 859 9a 27 70
        E 103 8a 27 00
        E 857 9a 25 66
        E 105 8a 25 00
        E 848 9a 25 68
        E 101 8a 25 00
        E 861 9a 2e 6e
        E 104 8a 2e 00
        E 861 9a 2f 66
        E 104 8a 2f 00
        E 849 9a 30 75
        E 102 8a 30 00
        E 867 9a 32 61
        E 105 8a 32 00
        E 853 9a 30 74
        E 103 8a 30 00
        E 856 9a 36 72
        E 106 8a 36 00
        E 854 9a 36 75
        E 101 8a 36 00
        E 857 9a 36 75
        E 104 8a 36 00
        E 860 9a 31 5f
        E 103 8a 31 00
        E 851 9a 30 6c
        E 105 8a 30 00
        E 857 9a 30 72
        E 103 8a 30 00
        E 858 9a 34 63
        E 105 8a 34 00
        E 854 9a 37 50
        E 105 8a 37 00
        E 851 9a 37 64
        E 103 8a 37 00
        E 867 9a 38 46
        E 105 8a 38 00
        E 850 9a 32 66
        E 102 8a 32 00
        E 855 9a 32 6a
        E 107 8a 32 00
        E 856 9a 33 68
        E 106 8a 33 00
        E 854 9a 31 4a
        E 104 8a 31 00
        E 854 9a 2a 5b
        E 105 8a 2a 00
        E 858 9a 30 6a
        E 106 8a 30 00
        E 854 9a 33 68
        E 103 8a 33 00
        E 857 9a 32 55
        E 102 8a 32 00
        E 852 9a 32 68
        E 101 8a 32 00
        E 864 9a 2f 5d
        E 106 8a 2f 00
        E 859 9a 30 6e
        E 106 8a 30 00
        E 852 9a 31 3b
        E 105 8a 31 00
        E 856 9a 31 64
        E 104 8a 31 00
        E 851 9a 2e 66
        E 102 8a 2e 00
        E 864 9a 26 6a
        E 103 8a 26 00
        E 849 9a 31 6a
        E 106 8a 31 00
        E 860 9a 2b 57
        E 105 8a 2b 00
        E 853 9a 2f 40
        E 104 8a 2f 00
        E 859 9a 33 52
        E 103 8a 33 00
        E 851 9a 38 55
        E 106 8a 38 00
        E 855 9a 30 4c
        E 106 8a 30 00
        E 854 9a 30 59
        E 102 8a 30 00
        E 859 9a 2f 5d
        E 102 8a 2f 00
        E 857 9a 31 64
        E 104 8a 31 00
        E 858 9a 34 59
        E 106 8a 34 00
        E 859 9a 34 3b
        E 105 8a 34 00
        E 850 9a 33 5b
        E 104 8a 33 00
        E 861 9a 33 2f
        E 102 8a 33 00
        E 849 9a 33 53
        E 106 8a 33 00
        E 854 9a 31 53
        E 103 8a 31 00
        E 858 9a 30 59
        E 104 8a 30 00
        E 855 9a 30 52
        E 103 8a 30 00
        E 866 9a 29 55
        E 103 8a 29 00
        E 850 9a 2b 3b
        E 105 8a 2b 00
        E 861 9a 34 55
        E 103 8a 34 00
        E 854 9a 31 48
        E 102 8a 31 00
        E 855 9a 2b 5b
        E 101 8a 2b 00
        E 854 9a 28 59
        E 102 8a 28 00
        E 867 9a 36 55
        E 104 8a 36 00
        E 855 9a 32 35
        E 105 8a 32 00
        E 855 9a 32 4e
        E 105 8a 32 00
        E 858 9a 30 37
        E 106 8a 30 00
        E 844 9a 2f 55
        E 105 8a 2f 00
        E 859 9a 33 5d
        E 102 8a 33 00
        E 860 9a 37 59
        E 106 8a 37 00
        E 852 9a 33 7b
        E 105 8a 33 00
        E 861 9a 2f 77
        E 104 8a 2f 00
        E 855 9a 2f 4a
        E 105 8a 2f 00
        E 852 9a 37 75
        E 105 8a 37 00
        E 857 9a 30 3d
        E 105 8a 30 00
        E 851 9a 2d 7b
        E 103 8a 2d 00
        E 858 9a 30 44
        E 104 8a 30 00
        E 860 9a 26 75
        E 103 8a 26 00
        E 854 9a 30 40
        E 103 8a 30 00
        E 859 9a 30 7b
        E 107 8a 30 00
        E 855 9a 32 74
        E 104 8a 32 00
        E 858 9a 33 7a
        E 104 8a 33 00
        E 850 9a 32 61
        E 102 8a 32 00
        E 853 9a 32 77
        E 104 8a 32 00
        E 862 9a 32 7a
        E 104 8a 32 00
        E 855 9a 2b 7b
        E 103 8a 2b 00
        E 860 9a 32 75
        E 104 8a 32 00
        E 852 9a 38 7b
        E 103 8a 38 00
        E 859 9a 33 5b
        E 103 8a 33 00
        E 856 9a 36 74
        E 104 8a 36 00
        E 854 9a 37 75
        E 106 8a 37 00
        E 855 9a 37 7c
        E 106 8a 37 00
        E 853 9a 31 52
        E 103 8a 31 00
        E 861 9a 35 7b
        E 101 8a 35 00
        E 854 9a 35 79
        E 103 8a 35 00
        E 862 9a 30 7d
        E 103 8a 30 00
        E 859 9a 32 70
        E 105 8a 32 00
        E 851 9a 31 79
        E 104 8a 31 00
        E 0 ba 7b 00
        E 1 ff 2f 00
      >
    >
  >
  <TRACK
    NAME "Pedal"
    PEAKCOL 4284506208
    VOLPAN 1.000000 0 1 -1
    MIDIOUT -1
    ISBUS 0 0
    <ITEM
      POSITION 0.002455
      LENGTH 65.533520
      NAME "Pedal"
      VOLPAN 1 0 1 -1
      <SOURCE MIDI
        HASDATA 1 960 QN
        E 0 cb 2b 00
        E 3 9b 1c 31
        E 1911 9b 1c 48
        E 6 8b 1c 00
        E 1909 8b 1c 00
        E 9 9b 0f 50
        E 1909 8b 0f 00
        E 11 9b 14 48
        E 1925 9b 0e 44
        E 7 8b 14 00
        E 1911 9b 0f 53
        E 18 8b 0e 00
        E 1904 8b 0f 00
        E 0 9b 1c 46
        E 1886 8b 1c 00
        E 28 9b 18 4c
        E 1900 8b 18 00
        E 24 9b 11 50
        E 1903 8b 11 00
        E 10 9b 1a 46
        E 1927 9b 18 35
        E 13 8b 1a 00
        E 1894 8b 18 00
        E 10 9b 0f 50
        E 1915 8b 0f 00
        E 7 9b 10 3f
        E 1911 8b 10 00
        E 14 9b 10 2a
        E 1918 9b 09 4a
        E 6 8b 10 00
        E 1913 9b 0f 4a
        E 29 8b 09 00
        E 1882 8b 0f 00
        E 5 9b 17 55
        E 1920 8b 17 00
        E 0 9b 1b 52
        E 1918 9b 1c 4e
        E 13 8b 1b 00
        E 1910 9b 11 4e
        E 7 8b 1c 00
        E 1900 8b 11 00
        E 9 9b 03 3d
        E 1915 8b 03 00
        E 9 9b 0c 40
        E 1920 9b 1c 2f
        E 11 8b 0c 00
        E 1906 9b 07 39
        E 21 8b 1c 00
        E 1903 9b 0c 2e
        E 4 8b 07 00
        E 1906 8b 0c 00
        E 11 9b 0f 1c
        E 1918 9b 0c 33
        E 24 8b 0f 00
        E 1883 8b 0c 00
        E 17 9b 0f 20
        E 1913 9b 1a 39
        E 13 8b 0f 00
        E 1890 8b 1a 00
        E 17 9b 1a 33
        E 1923 9b 10 35
        E 14 8b 1a 00
        E 1887 8b 10 00
        E 20 9b 0f 20
        E 1922 9b 0e 20
        E 4 8b 0f 00
        E 1912 8b 0e 00
        E 4 9b 18 2f
        E 1917 9b 0e 57
        E 8 8b 18 00
        E 1899 8b 0e 00
        E 16 9b 17 3b
        E 1919 9b 14 2a
        E 9 8b 17 00
        E 1908 9b 1b 57
        E 2 8b 14 00
        E 1909 8b 1b 00
        E 12 9b 0f 31
        E 1918 8b 0f 00
        E 7 9b 18 5d
        E 1914 9b 0b 50
        E 18 8b 18 00
        E 1900 9b 15 50
        E 5 8b 0b 00
        E 1915 8b 15 00
        E 4 9b 1a 5b
        E 1916 8b 1a 00
        E 7 9b 10 44
        E 1915 9b 16 63
        E 12 8b 10 00
        E 1893 8b 16 00
        E 15 9b 0b 37
        E 1926 9b 0f 46
        E 4 8b 0b 00
        E 1913 9b 1d 4a
        E 7 8b 0f 00
        E 1883 8b 1d 00
        E 0 bb 7b 00
        E 1 ff 2f 00
      >
    >
  >
>
