<REAPER_PROJECT 0.1 "7.0" 1700000000
  TEMPO 58.000000 4 4
  SAMPLERATE 48000 0 0
  RENDER_FILE ""
  RENDER_FMT 0 2 0
  RENDER_1X 0
  RENDER_RANGE 1 0 115.880559 0 0
  RENDER_RESAMPLE 3 0 1
  <MASTERTRACK
    VOLPAN 1 0 1 -1
    DEFCHAN 0
  >
  <TRACK
    NAME "Lead"
    PEAKCOL 4284506208
    VOLPAN 1.000000 0 1 -1
    MIDIOUT -1
    ISBUS 0 0
    <ITEM
      POSITION 2.310727
      LENGTH 110.557730
      NAME "Lead"
      VOLPAN 1 0 1 -1
      <SOURCE MIDI
        HASDATA 1 960 QN
        E 0 c0 47 00
        E 2144 90 41 42
        E 599 80 41 00
        E 905 90 44 5b
        E 1234 80 44 00
        E 756 90 3e 48
        E 299 90 42 4c
        E 237 80 42 00
        E 608 90 47 3e
        E 54 80 3e 00
        E 183 80 47 00
        E 4299 90 4f 4f
        E 1197 80 4f 00
        E 1863 90 4b 4f
        E 1080 80 4b 00
        E 5053 90 4f 61
        E 717 90 50 3e
        E 500 80 4f 00
        E 433 90 51 53
        E 262 80 50 00
        E 531 80 51 00
        E 3196 90 51 76
        E 711 90 47 57
        E 499 80 51 00
        E 696 80 47 00
        E 235 90 4e 5d
        E 872 80 4e 00
        E 1235 90 4d 34
        E 830 80 4d 00
        E 2139 90 4d 69
        E 302 80 4d 00
        E 210 90 49 51
        E 219 80 49 00
        E 4796 90 44 6f
        E 843 90 46 36
        E 244 80 46 00
        E 160 80 44 00
        E 417 90 4b 53
        E 1575 90 40 4d
        E 231 80 40 00
        E 99 80 4b 00
        E 96 90 48 59
        E 224 80 48 00
        E 170 90 4d 4a
        E 248 80 4d 00
        E 1350 90 50 73
        E 1075 80 50 00
        E 341 90 4c 4d
        E 1094 80 4c 00
        E 1744 90 4c 65
        E 296 80 4c 00
        E 3934 90 44 6b
        E 1101 80 44 00
        E 1745 90 4c 40
        E 935 80 4c 00
        E 851 90 51 63
        E 1201 80 51 00
        E 78 90 4f 7d
        E 1156 90 49 40
        E 67 80 4f 00
        E 476 80 49 00
        E 891 90 51 71
        E 1375 80 51 00
        E 38 90 48 63
        E 315 80 48 00
        E 2501 90 4b 77
        E 1204 80 4b 00
        E 230 90 51 7d
        E 1247 80 51 00
        E 147 90 50 7c
        E 1112 80 50 00
        E 315 90 4d 7c
        E 1324 80 4d 00
        E 2232 90 4b 7d
        E 1211 80 4b 00
        E 201 90 4c 67
        E 906 80 4c 00
        E 497 90 48 75
        E 560 80 48 00
        E 859 90 4e 7d
        E 1315 80 4e 00
        E 98 90 52 7b
        E 573 80 52 00
        E 839 90 4b 73
        E 1255 80 4b 00
        E 166 90 4e 7d
        E 902 80 4e 00
        E 495 90 51 7d
        E 1149 80 51 00
        E 281 90 4f 7b
        E 1301 80 4f 00
        E 123 90 4e 7d
        E 1181 80 4e 00
        E 211 90 49 7d
        E 1280 80 49 00
        E 865 90 4e 7d
        E 1254 80 4e 00
        E 395 90 4b 7b
        E 1073 80 4b 00
        E 118 90 4c 7d
        E 1336 80 4c 00
        E 53 90 4f 7d
        E 1244 80 4f 00
        E 2612 90 31 75
        E 480 90 35 6b
        E 480 90 38 67
        E 480 80 31 00
        E 0 80 35 00
        E 480 80 38 00
        E 1920 90 36 7b
        E 0 90 3d 79
        E 2880 80 36 00
        E 0 80 3d 00
        E 0 b0 7b 00
        E 1 ff 2f 00
      >
    >
  >
  <TRACK
    NAME "Clarinet"
    PEAKCOL 4282040170
    VOLPAN 1.000000 0 1 -1
    MIDIOUT -1
    ISBUS 0 0
    <ITEM
      POSITION 0.000000
      LENGTH 97.372269
      NAME "Clarinet"
      VOLPAN 1 0 1 -1
      <SOURCE MIDI
        HASDATA 1 960 QN
        E 0 c1 47 00
        E 0 91 47 2c
        E 1920 81 47 00
        E 7653 91 4a 59
        E 1994 81 4a 00
        E 9541 91 54 4d
        E 1900 81 54 00
        E 5793 91 55 51
        E 1924 91 55 3c
        E 35 81 55 00
        E 1878 91 5a 63
        E 41 81 55 00
        E 1762 81 5a 00
        E 9720 91 57 3c
        E 1980 81 57 00
        E 1871 91 59 5f
        E 1910 91 59 61
        E 33 81 59 00
        E 1895 81 59 00
        E 1925 91 53 5b
        E 1908 81 53 00
        E 1929 91 54 4c
        E 1910 91 58 5b
        E 137 81 54 00
        E 1762 81 58 00
        E 17 91 54 6b
        E 1982 81 54 00
        E 3784 91 54 67
        E 1929 91 54 55
        E 62 81 54 00
        E 1780 81 54 00
        E 1978 91 55 65
        E 1966 81 55 00
        E 3788 91 4d 73
        E 1981 81 4d 00
        E 1872 91 49 5f
        E 1866 81 49 00
        E 1984 91 4e 7c
        E 1907 91 54 75
        E 65 81 4e 00
        E 1887 81 54 00
        E 0 b1 7b 00
        E 1 ff 2f 00
      >
    >
  >
  <TRACK
    NAME "Horror"
    PEAKCOL 4284506208
    VOLPAN 1.000000 0 1 -1
    MIDIOUT -1
    ISBUS 0 0
    <ITEM
      POSITION 0.000000
      LENGTH 103.434075
      NAME "Horror"
      VOLPAN 1 0 1 -1
      <SOURCE MIDI
        HASDATA 1 960 QN
        E 0 c2 31 00
        E 0 92 33 1e
        E 0 92 26 1c
        E 3623 82 33 00
        E 46 82 26 00
        E 176 92 34 2c
        E 3634 82 34 00
        E 4045 92 35 30
        E 3568 82 35 00
        E 1544 92 3e 26
        E 475 82 3e 00
        E 271 92 3e 1c
        E 472 82 3e 00
        E 12871 92 24 28
        E 3726 82 24 00
        E 103 92 30 34
        E 6 92 30 2e
        E 3692 82 30 00
        E 14 82 30 00
        E 11655 92 25 46
        E 3727 82 25 00
        E 111 92 2c 3e
        E 3520 82 2c 00
        E 5830 92 33 4d
        E 499 82 33 00
        E 1665 92 26 53
        E 8 92 09 40
        E 3711 82 26 00
        E 11 82 09 00
        E 115 92 20 5b
        E 5 92 25 44
        E 3051 92 3f 42
        E 480 82 25 00
        E 0 82 3f 00
        E 170 82 20 00
        E 143 92 25 42
        E 3834 82 25 00
        E 2 92 24 53
        E 2 92 23 57
        E 576 92 32 46
        E 479 82 32 00
        E 2716 82 23 00
        E 1 82 24 00
        E 52 92 24 5f
        E 12 92 1c 53
        E 843 92 3d 57
        E 487 82 3d 00
        E 2242 82 24 00
        E 144 82 1c 00
        E 120 92 24 57
        E 3843 82 24 00
        E 3843 92 25 63
        E 3731 82 25 00
        E 0 b2 7b 00
        E 1 ff 2f 00
      >
    >
  >
  <TRACK
    NAME "Nebula"
    PEAKCOL 4284506208
    VOLPAN 1.000000 0 1 -1
    MIDIOUT -1
    ISBUS 0 0
    <ITEM
      POSITION 0.000000
      LENGTH 105.013806
      NAME "Nebula"
      VOLPAN 1 0 1 -1
      <SOURCE MIDI
        HASDATA 1 960 QN
        E 0 c3 59 00
        E 0 93 19 14
        E 384 93 25 1e
        E 2 93 2d 30
        E 382 93 21 18
        E 0 93 31 18
        E 386 93 0f 22
        E 382 93 1b 1c
        E 0 93 18 24
        E 384 93 22 14
        E 768 93 19 2c
        E 215 83 19 00
        E 170 93 34 26
        E 169 83 25 00
        E 4 83 2d 00
        E 209 93 0f 22
        E 2 93 22 26
        E 249 83 31 00
        E 4 83 21 00
        E 210 83 0f 00
        E 303 93 2b 2a
        E 196 83 1b 00
        E 47 83 18 00
        E 141 93 24 24
        E 0 93 25 2e
        E 194 83 22 00
        E 576 93 34 30
        E 75 83 19 00
        E 615 83 34 00
        E 196 83 0f 00
        E 170 83 22 00
        E 95 93 31 36
        E 550 83 2b 00
        E 414 83 25 00
        E 102 83 24 00
        E 86 93 30 30
        E 384 93 24 1e
        E 216 83 34 00
        E 552 93 23 28
        E 2 93 23 28
        E 382 93 25 1e
        E 137 83 31 00
        E 246 93 33 2c
        E 385 93 21 32
        E 572 83 30 00
        E 196 93 1f 2a
        E 227 83 24 00
        E 157 93 19 2c
        E 593 83 23 00
        E 69 83 23 00
        E 399 83 25 00
        E 90 93 23 34
        E 0 93 1c 20
        E 276 83 33 00
        E 110 93 23 26
        E 113 83 21 00
        E 654 93 2f 38
        E 252 83 1f 00
        E 133 93 12 22
        E 151 83 19 00
        E 231 93 30 2c
        E 386 93 2d 38
        E 384 93 30 26
        E 129 83 23 00
        E 92 83 1c 00
        E 161 93 24 12
        E 186 83 23 00
        E 583 93 2d 24
        E 0 93 26 26
        E 259 83 2f 00
        E 124 93 24 1e
        E 32 83 12 00
        E 352 93 23 2c
        E 70 83 30 00
        E 395 83 2d 00
        E 410 83 30 00
        E 448 83 24 00
        E 215 93 0c 2a
        E 482 83 26 00
        E 38 83 2d 00
        E 246 93 2e 36
        E 173 83 24 00
        E 212 93 15 26
        E 0 93 27 3e
        E 268 83 23 00
        E 500 93 31 30
        E 0 93 0e 2a
        E 384 93 1c 2c
        E 385 93 18 1c
        E 287 83 0c 00
        E 479 93 24 30
        E 180 83 2e 00
        E 205 93 31 2c
        E 172 83 15 00
        E 54 83 27 00
        E 640 83 31 00
        E 123 83 0e 00
        E 455 83 1c 00
        E 312 83 18 00
        E 164 93 28 2c
        E 0 93 25 38
        E 382 93 26 26
        E 2 93 24 32
        E 192 83 24 00
        E 391 83 31 00
        E 187 93 23 30
        E 382 93 30 28
        E 0 93 23 34
        E 384 93 24 3c
        E 385 93 19 2c
        E 382 93 2a 3a
        E 1 93 17 32
        E 120 83 28 00
        E 125 83 25 00
        E 137 93 1c 34
        E 1 93 30 42
        E 192 83 26 00
        E 77 83 24 00
        E 636 83 23 00
        E 407 83 23 00
        E 1 83 30 00
        E 484 83 24 00
        E 124 93 25 34
        E 155 83 19 00
        E 229 93 25 42
        E 190 83 17 00
        E 92 83 2a 00
        E 102 93 16 32
        E 242 83 1c 00
        E 6 83 30 00
        E 136 93 26 42
        E 768 93 25 2a
        E 384 93 25 38
        E 383 93 30 2e
        E 1 93 2f 32
        E 244 83 25 00
        E 419 83 25 00
        E 401 83 16 00
        E 88 93 2f 30
        E 0 93 26 36
        E 384 93 24 36
        E 15 83 26 00
        E 368 93 20 2e
        E 1 93 30 42
        E 203 83 25 00
        E 181 93 27 34
        E 1 93 27 34
        E 100 83 25 00
        E 282 93 26 30
        E 80 83 30 00
        E 148 83 2f 00
        E 157 93 31 38
        E 384 93 19 36
        E 1 93 22 32
        E 384 93 18 30
        E 171 83 2f 00
        E 107 83 26 00
        E 104 93 27 3e
        E 180 83 24 00
        E 204 93 1a 3a
        E 1 93 24 40
        E 187 83 20 00
        E 19 83 30 00
        E 178 93 26 32
        E 4 83 27 00
        E 173 83 27 00
        E 208 93 18 32
        E 179 83 26 00
        E 328 83 31 00
        E 260 93 24 38
        E 0 93 22 42
        E 118 83 22 00
        E 64 83 19 00
        E 201 93 30 36
        E 245 83 18 00
        E 139 93 1a 34
        E 0 93 29 2a
        E 141 83 27 00
        E 243 93 27 38
        E 209 83 24 00
        E 77 83 1a 00
        E 100 93 24 36
        E 1 93 18 2e
        E 212 83 26 00
        E 326 83 18 00
        E 228 93 16 3a
        E 384 93 33 3a
        E 237 83 24 00
        E 58 83 22 00
        E 90 93 18 26
        E 123 83 30 00
        E 421 83 1a 00
        E 18 83 29 00
        E 205 93 26 34
        E 244 83 27 00
        E 139 93 15 3a
        E 0 93 26 30
        E 208 83 18 00
        E 51 83 24 00
        E 126 93 24 48
        E 0 93 18 3e
        E 612 83 16 00
        E 156 93 24 44
        E 1 93 25 3a
        E 46 83 33 00
        E 336 93 25 34
        E 2 93 24 30
        E 259 83 18 00
        E 124 93 34 48
        E 0 93 22 38
        E 383 93 0d 32
        E 2 93 25 32
        E 116 83 26 00
        E 268 93 27 42
        E 116 83 15 00
        E 33 83 26 00
        E 233 93 25 3e
        E 1 93 1a 48
        E 132 83 18 00
        E 30 83 24 00
        E 606 93 19 38
        E 86 83 25 00
        E 161 83 24 00
        E 138 93 25 3e
        E 180 83 24 00
        E 37 83 25 00
        E 300 83 22 00
        E 175 83 34 00
        E 288 83 25 00
        E 55 83 0d 00
        E 298 83 27 00
        E 335 83 1a 00
        E 65 83 25 00
        E 186 93 26 4a
        E 1 93 2f 4a
        E 381 93 1c 42
        E 205 83 19 00
        E 182 93 31 48
        E 218 83 25 00
        E 163 93 25 4d
        E 385 93 24 4c
        E 1 93 23 4d
        E 384 93 31 4a
        E 382 93 24 51
        E 1 93 25 42
        E 384 93 30 5b
        E 230 83 2f 00
        E 70 83 26 00
        E 85 93 24 4d
        E 0 93 24 4d
        E 139 83 1c 00
        E 246 93 25 4a
        E 71 83 31 00
        E 313 93 19 4d
        E 206 83 25 00
        E 176 93 24 4f
        E 2 93 2a 5f
        E 278 83 24 00
        E 48 83 23 00
        E 58 93 20 46
        E 159 83 31 00
        E 223 93 27 59
        E 1 93 27 55
        E 258 83 24 00
        E 5 83 25 00
        E 121 93 24 5f
        E 213 83 30 00
        E 172 93 30 55
        E 138 83 24 00
        E 104 83 24 00
        E 141 93 1b 4a
        E 145 83 25 00
        E 238 93 28 46
        E 2 93 24 48
        E 123 83 19 00
        E 259 93 26 4a
        E 153 83 24 00
        E 88 83 2a 00
        E 142 93 24 51
        E 261 83 20 00
        E 125 93 31 46
        E 140 83 27 00
        E 111 83 27 00
        E 133 93 1d 4f
        E 167 83 24 00
        E 216 93 24 5b
        E 207 83 30 00
        E 177 93 25 44
        E 1 93 1d 59
        E 341 83 1b 00
        E 43 93 0c 32
        E 0 93 1c 32
        E 172 83 24 00
        E 96 83 28 00
        E 116 93 33 3e
        E 1 93 22 46
        E 296 83 26 00
        E 87 93 1d 4a
        E 1 93 26 4f
        E 220 83 24 00
        E 162 93 29 53
        E 168 83 31 00
        E 217 93 24 53
        E 1 93 24 53
        E 198 83 1d 00
        E 185 93 25 46
        E 1 93 34 48
        E 253 83 24 00
        E 130 93 35 4f
        E 1 93 23 55
        E 118 83 25 00
        E 73 83 1d 00
        E 192 93 23 51
        E 0 93 29 5b
        E 178 83 0c 00
        E 22 83 1c 00
        E 184 93 2a 4a
        E 2 93 2c 4a
        E 148 83 33 00
        E 91 83 22 00
        E 143 93 2c 48
        E 108 83 1d 00
        E 74 83 26 00
        E 202 93 27 40
        E 1 93 1b 3e
        E 118 83 29 00
        E 266 93 27 55
        E 215 83 24 00
        E 133 83 24 00
        E 34 93 1d 3a
        E 1 93 15 3a
        E 181 83 34 00
        E 56 83 25 00
        E 147 93 17 44
        E 0 93 2b 3c
        E 157 83 23 00
        E 27 83 35 00
        E 199 93 1b 4a
        E 1 93 21 3e
        E 173 83 29 00
        E 26 83 23 00
        E 184 93 1c 4c
        E 2 93 2e 42
        E 182 83 2c 00
        E 32 83 2a 00
        E 170 93 24 48
        E 0 93 32 40
        E 211 83 2c 00
        E 172 93 1b 4d
        E 1 93 21 48
        E 134 83 27 00
        E 187 83 1b 00
        E 62 93 28 53
        E 0 93 23 4c
        E 336 83 27 00
        E 46 93 25 55
        E 2 93 27 4a
        E 244 83 1d 00
        E 72 83 15 00
        E 67 93 20 4d
        E 2 93 0c 40
        E 141 83 17 00
        E 43 83 2b 00
        E 200 93 25 42
        E 1 93 24 42
        E 202 83 21 00
        E 103 83 1b 00
        E 77 93 27 4f
        E 176 83 1c 00
        E 121 83 2e 00
        E 87 93 28 4a
        E 0 93 26 4a
        E 162 83 24 00
        E 52 83 32 00
        E 170 93 28 53
        E 164 83 21 00
        E 79 83 1b 00
        E 141 93 26 4f
        E 0 93 26 44
        E 150 83 23 00
        E 116 83 28 00
        E 117 93 33 48
        E 0 93 26 55
        E 155 83 25 00
        E 87 83 27 00
        E 143 93 25 44
        E 1 93 21 4f
        E 215 83 20 00
        E 18 83 0c 00
        E 151 93 31 4d
        E 0 93 25 51
        E 135 83 25 00
        E 164 83 24 00
        E 84 93 19 4d
        E 0 93 18 42
        E 216 83 27 00
        E 168 93 25 4a
        E 1 93 25 4a
        E 186 83 26 00
        E 99 83 28 00
        E 98 93 25 4f
        E 1 93 25 44
        E 179 83 28 00
        E 203 93 18 48
        E 1 93 25 34
        E 143 83 26 00
        E 64 83 26 00
        E 177 93 30 42
        E 1 93 1b 38
        E 166 83 33 00
        E 33 83 26 00
        E 300 83 21 00
        E 46 83 25 00
        E 377 83 31 00
        E 19 83 25 00
        E 281 83 19 00
        E 98 83 18 00
        E 403 83 25 00
        E 75 83 25 00
        E 121 93 30 42
        E 1 93 19 53
        E 138 83 25 00
        E 109 83 25 00
        E 136 93 25 53
        E 0 93 20 59
        E 90 83 25 00
        E 258 83 18 00
        E 35 93 0e 42
        E 2 93 28 42
        E 48 83 30 00
        E 203 83 1b 00
        E 131 93 33 59
        E 1 93 33 59
        E 384 93 26 59
        E 1 93 24 59
        E 384 93 31 53
        E 1 93 24 53
        E 381 93 2d 5d
        E 1 93 32 61
        E 384 93 31 4f
        E 0 93 20 3e
        E 82 83 19 00
        E 87 83 30 00
        E 214 93 25 59
        E 2 93 25 59
        E 202 83 20 00
        E 73 83 25 00
        E 108 93 26 51
        E 0 93 18 4a
        E 189 83 28 00
        E 79 83 0e 00
        E 116 93 19 51
        E 1 93 2a 67
        E 79 83 33 00
        E 1 83 33 00
        E 303 93 31 55
        E 1 93 24 55
        E 159 83 26 00
        E 23 83 24 00
        E 200 93 30 59
        E 1 93 30 59
        E 92 83 24 00
        E 179 83 31 00
        E 112 93 25 4f
        E 1 93 24 4f
        E 176 83 32 00
        E 58 83 2d 00
        E 149 93 23 4d
        E 0 93 24 51
        E 110 83 31 00
        E 245 83 20 00
        E 30 93 27 48
        E 1 93 23 51
        E 222 83 25 00
        E 31 83 25 00
        E 130 93 1c 48
        E 1 93 23 4f
        E 216 83 26 00
        E 80 83 18 00
        E 87 93 24 53
        E 1 93 24 53
        E 219 83 2a 00
        E 86 83 19 00
        E 75 83 31 00
        E 3 93 26 4d
        E 1 93 26 4d
        E 155 83 24 00
        E 228 93 25 4f
        E 92 83 30 00
        E 23 83 30 00
        E 269 93 26 40
        E 1 93 27 59
        E 87 83 25 00
        E 18 83 24 00
        E 276 93 28 48
        E 2 93 1b 5d
        E 38 83 24 00
        E 62 83 23 00
        E 284 93 25 53
        E 0 93 25 53
        E 173 83 27 00
        E 45 83 23 00
        E 165 93 26 51
        E 199 83 23 00
        E 111 83 1c 00
        E 75 93 31 59
        E 0 93 24 4a
        E 199 83 24 00
        E 58 83 24 00
        E 126 93 24 55
        E 1 93 24 59
        E 165 83 26 00
        E 87 83 26 00
        E 131 83 25 00
        E 0 93 23 59
        E 0 93 32 57
        E 385 93 2f 4f
        E 1 93 24 55
        E 121 83 26 00
        E 98 83 27 00
        E 163 93 26 4d
        E 1 93 24 4c
        E 131 83 1b 00
        E 25 83 28 00
        E 227 93 1e 48
        E 1 93 26 4d
        E 155 83 25 00
        E 39 83 25 00
        E 189 93 1a 4c
        E 2 93 25 4f
        E 205 83 26 00
        E 177 93 26 61
        E 188 83 31 00
        E 17 83 24 00
        E 179 93 25 48
        E 1 93 24 4d
        E 119 83 24 00
        E 70 83 24 00
        E 194 93 30 57
        E 0 93 24 48
        E 274 83 23 00
        E 3 83 32 00
        E 107 93 2a 55
        E 1 93 31 48
        E 145 83 2f 00
        E 86 83 24 00
        E 153 93 30 55
        E 0 93 32 53
        E 137 83 26 00
        E 63 83 24 00
        E 183 93 26 53
        E 2 93 27 44
        E 28 83 1e 00
        E 126 83 26 00
        E 229 93 29 38
        E 1 93 2f 42
        E 73 83 25 00
        E 67 83 1a 00
        E 242 93 30 42
        E 1 93 1a 4f
        E 313 83 26 00
        E 70 93 26 4f
        E 3 93 24 4c
        E 171 83 24 00
        E 22 83 25 00
        E 188 93 27 42
        E 1 93 37 55
        E 207 83 24 00
        E 57 83 30 00
        E 119 93 25 4c
        E 1 93 24 4d
        E 156 83 2a 00
        E 40 83 31 00
        E 188 93 20 57
        E 1 93 1c 3e
        E 139 83 30 00
        E 153 83 32 00
        E 90 93 24 4a
        E 2 93 15 4c
        E 76 83 26 00
        E 130 83 27 00
        E 176 93 20 4f
        E 1 93 1f 42
        E 101 83 29 00
        E 56 83 2f 00
        E 228 93 24 48
        E 1 93 24 48
        E 49 83 30 00
        E 57 83 1a 00
        E 275 93 25 5b
        E 2 93 31 55
        E 52 83 26 00
        E 220 83 24 00
        E 111 93 2f 4f
        E 0 93 24 44
        E 17 83 37 00
        E 171 83 27 00
        E 195 93 29 4a
        E 1 93 24 51
        E 131 83 25 00
        E 34 83 24 00
        E 218 93 25 48
        E 1 93 30 57
        E 178 83 20 00
        E 50 83 1c 00
        E 155 93 26 59
        E 2 93 18 4a
        E 244 83 15 00
        E 60 83 24 00
        E 79 93 21 42
        E 1 93 1f 4c
        E 249 83 1f 00
        E 33 83 20 00
        E 100 93 24 59
        E 1 93 28 4a
        E 142 83 24 00
        E 8 83 24 00
        E 233 93 31 55
        E 1 93 25 53
        E 168 83 25 00
        E 24 83 31 00
        E 191 93 2b 4f
        E 1 93 25 55
        E 151 83 2f 00
        E 55 83 24 00
        E 177 93 1e 48
        E 1 93 30 42
        E 230 83 24 00
        E 25 83 29 00
        E 129 93 25 4f
        E 1 93 31 3c
        E 220 83 25 00
        E 98 83 30 00
        E 65 93 25 46
        E 1 93 1a 4f
        E 183 83 18 00
        E 51 83 26 00
        E 149 93 27 44
        E 0 93 33 55
        E 179 83 21 00
        E 83 83 1f 00
        E 250 83 28 00
        E 32 83 24 00
        E 472 83 31 00
        E 25 83 25 00
        E 309 83 2b 00
        E 29 83 25 00
        E 335 83 1e 00
        E 108 83 30 00
        E 267 83 25 00
        E 52 83 31 00
        E 321 83 1a 00
        E 142 83 25 00
        E 284 83 27 00
        E 8 83 33 00
        E 0 b3 7b 00
        E 1 ff 2f 00
      >
    >
  >
  <TRACK
    NAME "Strings"
    PEAKCOL 4284186559
    VOLPAN 1.000000 0 1 -1
    MIDIOUT -1
    ISBUS 0 0
    <ITEM
      POSITION 0.000672
      LENGTH 103.679269
      NAME "Strings"
      VOLPAN 1 0 1 -1
      <SOURCE MIDI
        HASDATA 1 960 QN
        E 0 c4 30 00
        E 1 94 33 1e
        E 1924 94 3e 36
        E 54 84 33 00
        E 1855 94 3e 44
        E 6 94 30 38
        E 43 84 3e 00
        E 1800 84 30 00
        E 64 94 3e 32
        E 3 94 3e 36
        E 16 94 3c 44
        E 34 84 3e 00
        E 1746 84 3c 00
        E 127 84 3e 00
        E 17 94 3d 2e
        E 29 84 3e 00
        E 1856 84 3d 00
        E 25 94 33 34
        E 17 94 37 34
        E 1687 84 33 00
        E 208 84 37 00
        E 1919 94 23 34
        E 6 94 17 28
        E 3 94 35 44
        E 7 94 30 32
        E 1890 84 35 00
        E 54 84 30 00
        E 25 84 17 00
        E 8 84 23 00
        E 3777 94 30 32
        E 0 94 3b 36
        E 1909 84 3b 00
        E 6 94 26 38
        E 7 94 33 26
        E 1 94 3e 38
        E 5 94 40 26
        E 3 94 3e 2c
        E 0 94 3f 2e
        E 5 84 30 00
        E 1845 84 3e 00
        E 46 84 26 00
        E 67 84 40 00
        E 12 84 33 00
        E 0 84 3e 00
        E 87 84 3f 00
        E 1758 94 31 38
        E 0 94 30 34
        E 8 94 2d 4d
        E 3 94 38 38
        E 1697 84 30 00
        E 103 84 38 00
        E 73 84 31 00
        E 45 94 3f 46
        E 12 94 33 44
        E 85 84 2d 00
        E 1808 94 3e 44
        E 4 94 3e 61
        E 4 94 18 48
        E 12 94 3c 3c
        E 11 84 3f 00
        E 67 84 33 00
        E 1719 84 3e 00
        E 98 84 18 00
        E 9 94 2f 4f
        E 2 94 3e 69
        E 7 94 3e 69
        E 5 94 3e 2c
        E 5 94 3c 32
        E 1 94 3d 40
        E 57 84 3e 00
        E 37 84 3c 00
        E 1659 84 3e 00
        E 0 84 3e 00
        E 134 84 3d 00
        E 12 94 3e 4a
        E 1 94 3e 3e
        E 15 94 3e 4a
        E 21 84 3e 00
        E 31 84 3c 00
        E 149 84 2f 00
        E 1706 94 32 24
        E 11 94 3e 3c
        E 7 94 3e 3c
        E 5 94 3f 34
        E 120 84 3e 00
        E 2 84 3e 00
        E 7 84 3e 00
        E 1666 84 3e 00
        E 32 84 32 00
        E 64 94 36 3a
        E 5 94 31 51
        E 9 94 3d 53
        E 1 94 32 63
        E 8 94 31 3e
        E 6 94 3f 3a
        E 9 84 3e 00
        E 139 84 3f 00
        E 1640 84 3d 00
        E 17 84 3f 00
        E 8 84 36 00
        E 36 84 31 00
        E 44 94 29 4a
        E 0 94 3c 55
        E 1 94 31 53
        E 14 94 40 44
        E 0 94 3e 57
        E 5 94 2f 59
        E 38 84 31 00
        E 35 84 32 00
        E 1755 84 3c 00
        E 24 84 31 00
        E 32 84 3e 00
        E 23 94 3e 48
        E 4 94 3e 48
        E 7 84 40 00
        E 0 94 20 2c
        E 8 94 3d 2c
        E 17 84 29 00
        E 83 84 2f 00
        E 1728 84 3d 00
        E 74 94 3e 46
        E 4 94 38 4c
        E 3 94 32 38
        E 4 94 3e 30
        E 3 94 3e 40
        E 28 84 3e 00
        E 2 84 3e 00
        E 16 84 20 00
        E 1767 84 3e 00
        E 4 84 38 00
        E 87 84 32 00
        E 7 94 2c 2c
        E 2 94 3c 3c
        E 2 94 3c 3c
        E 21 84 3e 00
        E 178 84 3e 00
        E 1680 84 3c 00
        E 25 94 3c 53
        E 1 94 2d 4c
        E 6 94 30 44
        E 4 94 3d 63
        E 1 94 31 51
        E 6 94 3c 53
        E 1 94 3d 5b
        E 58 84 2c 00
        E 1 84 3c 00
        E 1734 84 3c 00
        E 46 84 3d 00
        E 50 84 3c 00
        E 16 84 31 00
        E 10 94 25 18
        E 4 94 3d 4a
        E 0 94 30 4f
        E 5 94 37 44
        E 16 84 3d 00
        E 22 84 2d 00
        E 48 84 30 00
        E 1752 84 25 00
        E 28 84 30 00
        E 26 84 37 00
        E 5 94 3e 4c
        E 0 94 3c 63
        E 6 94 30 4d
        E 2 94 3d 4f
        E 4 94 30 4d
        E 4 94 3f 51
        E 4 94 25 53
        E 50 84 3d 00
        E 1719 84 30 00
        E 65 84 30 00
        E 69 94 38 69
        E 2 84 3f 00
        E 2 94 17 51
        E 5 94 35 4c
        E 0 94 31 59
        E 2 94 3c 63
        E 8 94 23 57
        E 3 94 2d 71
        E 0 94 2e 67
        E 5 84 25 00
        E 15 84 3e 00
        E 83 84 3c 00
        E 121 84 3d 00
        E 1552 84 2e 00
        E 63 84 23 00
        E 57 94 3e 57
        E 2 94 32 51
        E 0 94 3e 51
        E 0 94 3d 63
        E 5 94 3e 57
        E 3 94 32 51
        E 5 94 3c 6b
        E 1 94 3c 6b
        E 17 84 17 00
        E 10 84 38 00
        E 28 84 35 00
        E 9 84 2d 00
        E 4 84 31 00
        E 6 84 3c 00
        E 1775 84 3d 00
        E 15 84 3c 00
        E 14 84 32 00
        E 23 94 3d 5f
        E 3 94 3d 5f
        E 10 94 31 32
        E 1 94 2e 4d
        E 0 94 31 32
        E 1 84 32 00
        E 6 94 3f 44
        E 3 94 3e 48
        E 26 84 3e 00
        E 22 84 3c 00
        E 98 84 3e 00
        E 6 84 3e 00
        E 1658 84 31 00
        E 41 84 3f 00
        E 40 84 2e 00
        E 14 94 2d 5d
        E 3 94 1b 51
        E 4 94 36 59
        E 0 94 3c 4c
        E 3 94 3b 3c
        E 3 94 3c 38
        E 3 94 3b 3e
        E 14 84 31 00
        E 57 84 3e 00
        E 19 84 3d 00
        E 5 84 3d 00
        E 1701 84 3c 00
        E 48 84 36 00
        E 56 94 3f 61
        E 4 94 2b 75
        E 2 94 35 69
        E 0 94 3e 61
        E 0 94 3d 57
        E 8 94 3d 57
        E 1 94 40 51
        E 2 94 39 55
        E 7 84 3c 00
        E 7 84 1b 00
        E 42 84 2d 00
        E 29 84 3b 00
        E 106 84 3b 00
        E 1569 84 35 00
        E 138 94 3f 63
        E 0 94 1f 53
        E 8 94 3e 63
        E 5 94 3e 63
        E 0 94 31 59
        E 3 94 3f 63
        E 7 84 3f 00
        E 7 94 3d 57
        E 2 84 40 00
        E 15 84 3e 00
        E 20 84 3d 00
        E 11 84 39 00
        E 65 84 3d 00
        E 153 84 2b 00
        E 1453 84 31 00
        E 18 84 3e 00
        E 112 84 3f 00
        E 5 84 3e 00
        E 31 84 3f 00
        E 13 94 3d 59
        E 2 94 3d 44
        E 2 94 3d 59
        E 2 94 32 51
        E 1 94 3e 2c
        E 0 94 24 3e
        E 7 94 3d 4f
        E 3 94 31 46
        E 69 84 1f 00
        E 87 84 3d 00
        E 1608 84 32 00
        E 26 84 24 00
        E 6 84 31 00
        E 48 84 3d 00
        E 10 84 3d 00
        E 9 84 3e 00
        E 34 94 40 61
        E 4 94 3a 44
        E 2 94 26 5f
        E 4 94 34 63
        E 5 94 2a 4c
        E 3 94 3e 67
        E 2 94 3e 53
        E 0 94 3e 53
        E 37 84 3d 00
        E 26 84 3d 00
        E 1659 84 3a 00
        E 117 84 3e 00
        E 62 94 35 6f
        E 5 94 34 71
        E 4 94 26 5f
        E 2 94 32 57
        E 6 94 3f 61
        E 3 84 34 00
        E 0 94 3c 55
        E 4 94 3f 4c
        E 0 94 3c 55
        E 8 84 3e 00
        E 44 84 40 00
        E 14 84 2a 00
        E 12 84 26 00
        E 68 84 3e 00
        E 1596 84 3f 00
        E 17 84 34 00
        E 45 84 3f 00
        E 34 84 35 00
        E 26 84 26 00
        E 31 94 3f 63
        E 3 94 31 63
        E 0 94 3c 76
        E 4 94 3d 65
        E 5 94 3c 44
        E 0 94 32 57
        E 2 94 3c 44
        E 1 94 34 4f
        E 13 84 32 00
        E 28 84 3c 00
        E 8 84 3c 00
        E 1722 84 3f 00
        E 109 84 3c 00
        E 7 84 3c 00
        E 38 84 34 00
        E 2 84 31 00
        E 2 84 3d 00
        E 17 84 32 00
        E 109 84 3c 00
        E 1774 94 3c 71
        E 2 94 3c 71
        E 4 94 3c 57
        E 3 94 32 5f
        E 4 94 40 55
        E 1 94 25 5b
        E 8 94 3d 53
        E 1 94 26 57
        E 1801 84 26 00
        E 23 84 3c 00
        E 69 94 3d 67
        E 6 94 3c 69
        E 6 94 3d 5d
        E 1 94 32 61
        E 5 94 3d 4c
        E 3 94 38 57
        E 2 94 39 5d
        E 2 94 3c 59
        E 2 84 3c 00
        E 82 84 3d 00
        E 17 84 3c 00
        E 12 84 32 00
        E 17 84 25 00
        E 55 84 40 00
        E 1570 84 3d 00
        E 18 84 3c 00
        E 90 84 3d 00
        E 27 94 3c 75
        E 5 94 3c 7b
        E 8 94 3c 6b
        E 3 94 3c 7b
        E 15 84 39 00
        E 13 84 38 00
        E 8 84 3d 00
        E 13 84 32 00
        E 270 84 3c 00
        E 1608 94 31 57
        E 4 94 24 6d
        E 1 94 23 5d
        E 29 84 3c 00
        E 9 84 3c 00
        E 157 84 3c 00
        E 78 84 3c 00
        E 1586 84 24 00
        E 36 84 23 00
        E 9 94 3f 55
        E 9 94 3f 5f
        E 102 84 31 00
        E 1800 94 3c 71
        E 13 94 2d 71
        E 12 94 39 65
        E 3 84 3f 00
        E 21 84 3f 00
        E 1795 84 39 00
        E 69 84 3c 00
        E 8 94 26 63
        E 1 94 3e 7b
        E 24 94 3d 75
        E 48 84 2d 00
        E 1778 84 3e 00
        E 70 94 36 4f
        E 9 94 3d 63
        E 8 84 3d 00
        E 8 94 3f 69
        E 18 84 26 00
        E 1641 84 3f 00
        E 152 84 3d 00
        E 87 94 3c 65
        E 1 94 3c 65
        E 6 94 31 51
        E 115 84 36 00
        E 1768 84 31 00
        E 16 84 3c 00
        E 9 94 3d 5f
        E 67 84 3c 00
        E 1820 84 3d 00
        E 33 94 3d 63
        E 7 94 3c 67
        E 6 94 30 75
        E 1868 84 3c 00
        E 10 84 3d 00
        E 50 84 30 00
        E 3 94 31 67
        E 3 94 3c 3e
        E 1987 84 3c 00
        E 41 84 31 00
        E 0 b4 7b 00
        E 1 ff 2f 00
      >
    >
  >
  <TRACK
    NAME "Trombone"
    PEAKCOL 4290740026
    VOLPAN 1.000000 0 1 -1
    MIDIOUT -1
    ISBUS 0 0
    <ITEM
      POSITION 18.627577
      LENGTH 95.352982
      NAME "Trombone"
      VOLPAN 1 0 1 -1
      <SOURCE MIDI
        HASDATA 1 960 QN
        E 0 c5 39 00
        E 17286 95 35 4c
        E 1917 85 35 00
        E 7 95 33 51
        E 1937 85 33 00
        E 3811 95 30 55
        E 1946 85 30 00
        E 7661 95 26 40
        E 1910 85 26 00
        E 1961 95 29 51
        E 1900 95 27 4d
        E 37 85 29 00
        E 1796 85 27 00
        E 74 95 28 3e
        E 1914 85 28 00
        E 1950 95 16 44
        E 1900 95 26 5f
        E 43 85 16 00
        E 1846 85 26 00
        E 46 95 26 63
        E 1984 85 26 00
        E 1831 95 26 55
        E 1903 85 26 00
        E 24 95 28 55
        E 1821 85 28 00
        E 3942 95 2d 55
        E 1940 95 2f 51
        E 49 85 2d 00
        E 1864 95 30 5f
        E 15 85 2f 00
        E 1925 85 30 00
        E 1919 95 31 57
        E 1907 85 31 00
        E 1916 95 2a 5b
        E 1936 85 2a 00
        E 1894 95 27 71
        E 1881 85 27 00
        E 40 95 26 79
        E 2003 85 26 00
        E 3765 95 29 7d
        E 1920 95 2a 7d
        E 29 85 29 00
        E 1882 95 26 6d
        E 93 85 2a 00
        E 1882 85 26 00
        E 3791 95 26 6b
        E 1868 85 26 00
        E 3877 95 28 75
        E 1901 85 28 00
        E 29 95 28 7a
        E 1873 85 28 00
        E 64 95 28 7b
        E 1971 85 28 00
        E 0 b5 7b 00
        E 1 ff 2f 00
      >
    >
  >
  <TRACK
    NAME "Pad"
    PEAKCOL 4284506208
    VOLPAN 1.000000 0 1 -1
    MIDIOUT -1
    ISBUS 0 0
    <ITEM
      POSITION 0.000000
      LENGTH 103.748569
      NAME "Pad"
      VOLPAN 1 0 1 -1
      <SOURCE MIDI
        HASDATA 1 960 QN
        E 0 c6 58 00
        E 0 96 35 22
        E 1 96 24 1c
        E 1919 96 2f 34
        E 2 96 25 34
        E 46 86 35 00
        E 29 86 24 00
        E 1841 96 29 2c
        E 54 86 2f 00
        E 157 86 25 00
        E 1711 96 28 34
        E 17 86 29 00
        E 1902 96 31 36
        E 67 86 28 00
        E 1862 96 38 38
        E 166 86 31 00
        E 1824 86 38 00
        E 1842 96 30 36
        E 1 96 37 40
        E 1970 86 37 00
        E 82 86 30 00
        E 1788 96 37 36
        E 0 96 37 34
        E 1916 96 36 40
        E 3 96 30 40
        E 63 86 37 00
        E 37 86 37 00
        E 1820 96 35 2a
        E 4 96 28 22
        E 69 86 36 00
        E 109 86 30 00
        E 1864 86 28 00
        E 24 86 35 00
        E 1771 96 24 2e
        E 4 96 2f 30
        E 1914 96 2d 44
        E 104 86 24 00
        E 0 86 2f 00
        E 1978 86 2d 00
        E 1756 96 25 3c
        E 8 96 26 26
        E 1915 96 1b 3a
        E 1 96 32 3c
        E 5 96 30 38
        E 119 86 25 00
        E 37 86 26 00
        E 1756 96 26 34
        E 1 96 37 34
        E 2 96 2e 3e
        E 0 96 2f 36
        E 68 86 32 00
        E 27 86 30 00
        E 71 86 1b 00
        E 1749 96 30 48
        E 3 96 25 4d
        E 0 96 31 3e
        E 1 96 30 48
        E 1 96 25 40
        E 30 86 26 00
        E 24 86 37 00
        E 19 86 2e 00
        E 103 86 2f 00
        E 1726 86 25 00
        E 20 96 29 40
        E 36 86 30 00
        E 13 86 30 00
        E 50 86 31 00
        E 58 86 25 00
        E 1815 86 29 00
        E 1862 96 30 40
        E 3 96 1d 34
        E 1 96 32 34
        E 1919 96 25 2e
        E 0 96 31 32
        E 2 96 24 36
        E 44 86 1d 00
        E 113 86 30 00
        E 14 86 32 00
        E 1745 96 33 2c
        E 1 96 2e 40
        E 66 86 24 00
        E 6 86 25 00
        E 3 86 31 00
        E 1846 96 2d 3e
        E 1 96 25 34
        E 103 86 33 00
        E 12 86 2e 00
        E 1802 96 31 4a
        E 4 96 34 4a
        E 77 86 2d 00
        E 94 86 25 00
        E 1743 96 33 53
        E 137 86 31 00
        E 28 86 34 00
        E 1757 96 2e 4c
        E 1 96 32 40
        E 3 96 20 5d
        E 0 96 31 57
        E 156 86 33 00
        E 1760 96 31 55
        E 1 96 30 4c
        E 1 96 2c 57
        E 4 96 32 3a
        E 88 86 20 00
        E 8 86 32 00
        E 5 86 31 00
        E 34 86 2e 00
        E 1779 96 30 55
        E 1 96 30 55
        E 1 96 31 57
        E 1 96 34 36
        E 1 96 32 36
        E 48 86 2c 00
        E 13 86 32 00
        E 27 86 31 00
        E 39 86 30 00
        E 1789 96 2f 4d
        E 3 96 35 4d
        E 0 96 30 46
        E 2 96 33 44
        E 2 96 30 46
        E 47 86 31 00
        E 39 86 30 00
        E 18 86 34 00
        E 34 86 30 00
        E 28 86 32 00
        E 1747 96 34 4d
        E 1 96 30 4c
        E 1 96 30 4c
        E 1 96 32 40
        E 57 86 35 00
        E 21 86 33 00
        E 50 86 30 00
        E 3 86 30 00
        E 8 86 2f 00
        E 1777 96 25 4d
        E 1 96 30 55
        E 1 96 33 59
        E 3 86 34 00
        E 69 86 32 00
        E 14 86 30 00
        E 68 86 30 00
        E 1765 96 21 4c
        E 2 96 34 55
        E 3 96 28 4f
        E 3 96 32 48
        E 31 86 30 00
        E 43 86 25 00
        E 33 86 33 00
        E 1804 96 33 4c
        E 1 96 26 53
        E 1 96 26 53
        E 2 96 30 51
        E 0 96 30 40
        E 72 86 21 00
        E 80 86 34 00
        E 18 86 28 00
        E 1 86 32 00
        E 1745 96 25 59
        E 3 96 19 55
        E 2 96 25 3a
        E 0 96 24 40
        E 35 86 33 00
        E 87 86 26 00
        E 15 86 26 00
        E 11 86 30 00
        E 20 86 30 00
        E 1787 86 19 00
        E 8 86 25 00
        E 42 86 25 00
        E 9 86 24 00
        E 1821 96 30 5f
        E 3 96 24 40
        E 4 96 30 5f
        E 1915 96 30 59
        E 2 96 32 40
        E 1 96 2d 4a
        E 0 96 18 44
        E 20 86 30 00
        E 34 86 30 00
        E 32 86 24 00
        E 1829 96 31 59
        E 4 96 38 69
        E 30 86 2d 00
        E 55 86 32 00
        E 47 86 18 00
        E 2 86 30 00
        E 1788 96 36 67
        E 0 96 30 67
        E 40 86 38 00
        E 9 86 31 00
        E 1866 96 33 63
        E 2 96 31 48
        E 6 96 33 63
        E 65 86 36 00
        E 76 86 30 00
        E 1773 96 32 5d
        E 0 96 32 5d
        E 3 96 2d 59
        E 134 86 31 00
        E 8 86 33 00
        E 7 86 33 00
        E 1767 96 37 61
        E 1 96 32 57
        E 49 86 32 00
        E 57 86 2d 00
        E 21 86 32 00
        E 1880 86 37 00
        E 2 86 32 00
        E 1829 96 2d 59
        E 6 96 37 61
        E 1914 96 30 53
        E 3 96 32 63
        E 35 86 2d 00
        E 75 86 37 00
        E 1806 96 31 59
        E 11 96 30 57
        E 67 86 30 00
        E 76 86 32 00
        E 1772 96 38 59
        E 0 96 26 51
        E 98 86 30 00
        E 36 86 31 00
        E 1911 86 26 00
        E 58 86 38 00
        E 0 b6 7b 00
        E 1 ff 2f 00
      >
    >
  >
  <TRACK
    NAME "Harp"
    PEAKCOL 4290756410
    VOLPAN 1.000000 0 1 -1
    MIDIOUT -1
    ISBUS 0 0
    <ITEM
      POSITION 0.648597
      LENGTH 102.783816
      NAME "Harp"
      VOLPAN 1 0 1 -1
      <SOURCE MIDI
        HASDATA 1 960 QN
        E 0 c7 2e 00
        E 602 97 37 4a
        E 504 87 37 00
        E 812 97 29 4f
        E 122 97 2b 4c
        E 958 97 3f 3a
        E 307 87 3f 00
        E 131 87 29 00
        E 121 87 2b 00
        E 766 97 2d 48
        E 555 87 2d 00
        E 1244 97 30 44
        E 594 87 30 00
        E 363 97 49 1c
        E 225 87 49 00
        E 1215 97 46 36
        E 416 87 46 00
        E 786 97 30 59
        E 1538 87 30 00
        E 4218 97 29 4c
        E 484 97 2c 30
        E 521 87 2c 00
        E 316 97 3f 38
        E 173 87 3f 00
        E 82 87 29 00
        E 1307 97 3f 3e
        E 321 87 3f 00
        E 39 97 48 48
        E 168 87 48 00
        E 309 97 2b 5b
        E 361 97 37 5b
        E 241 97 3d 40
        E 238 97 48 3c
        E 122 87 37 00
        E 147 87 3d 00
        E 147 87 48 00
        E 249 87 2b 00
        E 540 97 2b 48
        E 960 97 40 2a
        E 118 97 4b 38
        E 202 87 40 00
        E 67 87 4b 00
        E 148 87 2b 00
        E 1383 97 42 40
        E 122 97 49 4a
        E 187 87 42 00
        E 87 87 49 00
        E 561 97 25 3e
        E 362 97 31 55
        E 120 97 30 48
        E 119 97 31 40
        E 245 97 3f 4f
        E 87 87 31 00
        E 58 87 30 00
        E 85 87 31 00
        E 9 97 3f 48
        E 129 87 3f 00
        E 139 87 3f 00
        E 88 97 4b 40
        E 127 87 25 00
        E 1 87 4b 00
        E 234 97 29 73
        E 120 97 2a 67
        E 721 97 35 4a
        E 240 97 3d 4c
        E 179 87 35 00
        E 141 87 3d 00
        E 120 87 29 00
        E 38 97 41 40
        E 121 87 2a 00
        E 7 87 41 00
        E 351 97 2d 57
        E 124 97 2f 67
        E 241 97 2b 44
        E 116 97 37 48
        E 300 87 2f 00
        E 63 97 3b 3a
        E 76 87 2b 00
        E 71 87 37 00
        E 91 97 3f 46
        E 118 97 4b 48
        E 1 87 3b 00
        E 149 87 3f 00
        E 75 87 4b 00
        E 15 97 47 3e
        E 119 97 4b 48
        E 7 87 47 00
        E 4 87 2d 00
        E 66 87 4b 00
        E 282 97 2c 40
        E 243 97 35 57
        E 242 97 38 40
        E 119 97 3f 4d
        E 246 87 35 00
        E 152 87 38 00
        E 62 87 3f 00
        E 18 97 4b 59
        E 118 97 4b 3e
        E 153 87 4b 00
        E 67 87 4b 00
        E 148 87 2c 00
        E 359 97 2c 5f
        E 234 97 34 59
        E 242 97 32 44
        E 238 97 40 4d
        E 121 87 34 00
        E 0 97 3f 53
        E 119 97 44 5b
        E 27 87 32 00
        E 95 97 4a 40
        E 41 87 40 00
        E 82 97 4b 42
        E 4 87 3f 00
        E 62 87 44 00
        E 75 87 4a 00
        E 80 87 4b 00
        E 77 87 2c 00
        E 303 97 2a 5f
        E 239 97 33 5f
        E 239 97 36 55
        E 237 97 33 48
        E 240 97 3c 4f
        E 98 87 36 00
        E 143 87 33 00
        E 3 97 40 3a
        E 112 87 3c 00
        E 7 97 44 4f
        E 154 87 40 00
        E 41 87 2a 00
        E 28 87 44 00
        E 17 97 4a 4f
        E 117 97 4b 38
        E 10 87 4a 00
        E 66 87 4b 00
        E 64 87 33 00
        E 104 97 27 51
        E 359 97 31 4a
        E 612 87 31 00
        E 229 97 3d 48
        E 118 97 3f 4d
        E 119 97 47 38
        E 31 87 3d 00
        E 70 87 3f 00
        E 19 87 27 00
        E 49 87 47 00
        E 433 97 2a 55
        E 120 97 31 59
        E 238 97 34 5f
        E 364 97 3f 4d
        E 189 87 34 00
        E 169 97 3d 3a
        E 55 87 3f 00
        E 64 97 4c 4c
        E 147 87 3d 00
        E 74 87 4c 00
        E 136 87 2a 00
        E 103 87 31 00
        E 259 97 30 57
        E 246 97 36 44
        E 115 97 3e 57
        E 121 97 3e 40
        E 118 97 3e 40
        E 94 87 30 00
        E 148 97 4b 4c
        E 17 87 36 00
        E 58 87 3e 00
        E 87 87 3e 00
        E 52 87 3e 00
        E 158 87 4b 00
        E 586 97 2a 67
        E 120 97 30 51
        E 362 97 3e 53
        E 117 97 3c 57
        E 122 97 43 44
        E 116 87 30 00
        E 3 97 43 48
        E 123 97 49 57
        E 81 87 3e 00
        E 47 87 3c 00
        E 96 87 43 00
        E 44 87 43 00
        E 106 87 49 00
        E 188 87 2a 00
        E 394 97 29 76
        E 243 97 29 5b
        E 239 97 33 4f
        E 238 97 32 48
        E 121 97 33 4c
        E 208 87 33 00
        E 32 97 3c 40
        E 102 87 32 00
        E 20 97 42 44
        E 56 87 33 00
        E 63 97 42 3c
        E 64 87 3c 00
        E 85 87 42 00
        E 68 87 42 00
        E 10 87 29 00
        E 226 87 29 00
        E 148 97 26 4d
        E 116 97 2b 57
        E 125 97 2d 5f
        E 120 97 32 5b
        E 114 97 30 4a
        E 561 87 30 00
        E 478 87 26 00
        E 131 87 2b 00
        E 120 87 2d 00
        E 153 87 32 00
        E 118 97 2b 6f
        E 243 97 30 76
        E 120 97 31 67
        E 243 97 2f 5d
        E 117 97 3a 6f
        E 118 87 30 00
        E 2 97 39 53
        E 80 87 31 00
        E 37 97 3e 5d
        E 102 87 2f 00
        E 19 97 40 6b
        E 56 87 3a 00
        E 65 97 3f 5f
        E 4 87 39 00
        E 72 87 3e 00
        E 62 87 40 00
        E 84 87 3f 00
        E 140 87 2b 00
        E 1 97 4a 57
        E 78 87 4a 00
        E 161 97 25 6b
        E 118 97 2c 6f
        E 119 97 29 5b
        E 245 97 32 71
        E 120 97 30 5f
        E 116 97 34 5f
        E 118 97 3b 6d
        E 125 97 3b 5f
        E 64 87 32 00
        E 52 97 3c 57
        E 37 87 30 00
        E 67 87 34 00
        E 21 97 4b 53
        E 57 87 3b 00
        E 56 87 3b 00
        E 7 97 4b 5f
        E 70 87 3c 00
        E 82 87 4b 00
        E 43 87 25 00
        E 24 87 4b 00
        E 165 87 2c 00
        E 73 87 29 00
        E 261 97 25 5f
        E 118 97 34 5b
        E 123 97 34 5d
        E 117 97 30 57
        E 123 97 3d 55
        E 118 97 3c 5b
        E 181 87 34 00
        E 60 87 34 00
        E 1 97 49 65
        E 69 87 30 00
        E 71 87 3d 00
        E 72 87 3c 00
        E 150 87 49 00
        E 317 87 25 00
        E 397 97 2c 6d
        E 122 97 33 67
        E 120 97 32 5b
        E 121 97 32 63
        E 119 97 34 5f
        E 123 97 3e 5f
        E 118 97 3c 67
        E 50 87 33 00
        E 78 87 32 00
        E 57 87 32 00
        E 51 97 3f 5b
        E 28 87 34 00
        E 95 87 3e 00
        E 3 97 4b 5b
        E 51 87 3c 00
        E 65 97 48 67
        E 67 87 3f 00
        E 87 87 4b 00
        E 61 87 48 00
        E 55 87 2c 00
        E 328 97 2a 7d
        E 125 97 24 51
        E 116 97 2b 5f
        E 121 97 30 77
        E 123 97 31 6f
        E 120 97 30 5f
        E 116 97 30 63
        E 271 87 30 00
        E 53 87 31 00
        E 41 97 41 67
        E 26 87 30 00
        E 71 87 30 00
        E 141 97 3d 61
        E 72 87 41 00
        E 45 97 43 5d
        E 91 87 2a 00
        E 11 87 3d 00
        E 21 97 49 5f
        E 50 87 43 00
        E 43 87 24 00
        E 26 97 49 61
        E 11 87 49 00
        E 66 87 49 00
        E 16 87 2b 00
        E 149 97 27 57
        E 121 97 2a 57
        E 119 97 2d 7a
        E 118 97 29 79
        E 240 97 31 65
        E 118 97 34 6b
        E 124 97 32 6f
        E 119 97 3d 67
        E 117 97 3d 6f
        E 24 87 31 00
        E 85 87 34 00
        E 10 97 3e 61
        E 51 87 32 00
        E 72 97 40 57
        E 2 87 3d 00
        E 66 87 3d 00
        E 54 97 41 5b
        E 14 87 3e 00
        E 65 87 27 00
        E 15 87 40 00
        E 24 97 4a 4f
        E 51 87 41 00
        E 26 87 2a 00
        E 46 87 4a 00
        E 0 97 4a 5b
        E 71 87 2d 00
        E 5 87 4a 00
        E 133 87 29 00
        E 147 97 25 55
        E 122 97 25 5f
        E 118 97 32 57
        E 118 97 37 59
        E 124 97 30 57
        E 121 97 38 67
        E 118 97 37 57
        E 116 87 32 00
        E 2 97 3f 4f
        E 81 87 37 00
        E 41 97 3c 57
        E 20 87 30 00
        E 82 87 38 00
        E 17 97 42 55
        E 52 87 37 00
        E 71 87 3f 00
        E 0 97 3c 5b
        E 71 87 3c 00
        E 49 97 49 57
        E 24 87 42 00
        E 78 87 3c 00
        E 16 97 48 5f
        E 50 87 49 00
        E 22 87 25 00
        E 49 97 49 57
        E 6 87 48 00
        E 70 87 49 00
        E 11 87 25 00
        E 152 97 24 57
        E 122 97 24 57
        E 120 97 25 6f
        E 117 97 32 61
        E 118 97 31 67
        E 121 97 33 61
        E 121 97 31 61
        E 120 97 3d 61
        E 57 87 25 00
        E 61 87 32 00
        E 3 97 3f 5f
        E 65 87 31 00
        E 58 97 3c 5f
        E 27 87 33 00
        E 70 87 31 00
        E 23 97 3e 57
        E 66 87 3d 00
        E 50 97 40 5f
        E 5 87 3f 00
        E 77 87 3c 00
        E 42 97 54 61
        E 32 87 3e 00
        E 38 87 24 00
        E 24 87 40 00
        E 22 97 49 65
        E 59 87 54 00
        E 7 87 24 00
        E 55 97 49 5f
        E 5 87 49 00
        E 70 87 49 00
        E 166 97 2a 67
        E 121 97 30 65
        E 116 97 33 63
        E 119 97 36 75
        E 123 97 3d 5d
        E 122 97 35 5f
        E 116 97 3f 6b
        E 79 87 30 00
        E 43 97 48 63
        E 37 87 33 00
        E 83 97 49 57
        E 17 87 36 00
        E 59 87 3d 00
        E 64 87 35 00
        E 67 87 3f 00
        E 62 87 48 00
        E 100 87 49 00
        E 216 87 2a 00
        E 372 97 2a 7c
        E 120 97 2b 7b
        E 125 97 2d 7a
        E 121 97 28 61
        E 118 97 34 71
        E 119 97 34 6f
        E 118 97 37 76
        E 124 97 30 61
        E 116 97 32 57
        E 80 87 34 00
        E 44 97 3c 5d
        E 28 87 34 00
        E 80 87 37 00
        E 7 97 3b 59
        E 57 87 30 00
        E 66 97 41 67
        E 1 87 32 00
        E 77 87 3c 00
        E 43 97 49 57
        E 37 87 3b 00
        E 61 87 2a 00
        E 6 87 41 00
        E 18 97 49 5b
        E 52 87 49 00
        E 13 87 2b 00
        E 52 97 49 5f
        E 10 87 49 00
        E 66 87 49 00
        E 7 87 2d 00
        E 114 87 28 00
        E 44 97 26 5f
        E 118 97 2e 5d
        E 120 97 2a 4f
        E 122 97 34 69
        E 117 97 2d 5d
        E 124 97 33 59
        E 118 97 34 48
        E 118 97 37 61
        E 124 97 3a 5d
        E 17 87 34 00
        E 44 87 2d 00
        E 55 97 41 5b
        E 30 87 33 00
        E 77 87 34 00
        E 17 97 3d 4f
        E 50 87 37 00
        E 69 97 3d 4f
        E 9 87 3a 00
        E 71 87 41 00
        E 39 97 40 51
        E 32 87 3d 00
        E 73 87 3d 00
        E 15 97 47 57
        E 11 87 26 00
        E 42 87 40 00
        E 59 87 2e 00
        E 5 97 47 61
        E 8 87 47 00
        E 68 87 47 00
        E 39 87 2a 00
        E 128 97 29 53
        E 119 97 2c 5f
        E 124 97 30 6f
        E 118 97 31 7a
        E 119 97 30 67
        E 119 97 31 6b
        E 119 97 31 59
        E 125 97 3d 65
        E 120 87 31 00
        E 0 97 3d 57
        E 58 87 30 00
        E 60 97 3d 55
        E 17 87 31 00
        E 86 87 31 00
        E 13 97 4a 4f
        E 45 87 3d 00
        E 79 97 49 63
        E 11 87 3d 00
        E 62 87 3d 00
        E 74 87 4a 00
        E 22 87 29 00
        E 55 87 49 00
        E 131 87 2c 00
        E 114 87 30 00
        E 2048 97 2b 7d
        E 123 97 32 6f
        E 120 97 34 7d
        E 119 97 38 6f
        E 123 97 3f 73
        E 117 97 3f 77
        E 119 97 44 6f
        E 94 87 32 00
        E 25 97 4a 75
        E 40 87 34 00
        E 81 97 45 73
        E 2 87 38 00
        E 96 87 3f 00
        E 54 87 3f 00
        E 67 87 44 00
        E 50 87 4a 00
        E 94 87 45 00
        E 199 87 2b 00
        E 398 97 28 7d
        E 124 97 27 5f
        E 118 97 34 75
        E 120 97 27 65
        E 120 97 31 63
        E 117 97 3e 75
        E 125 97 3e 5d
        E 115 97 3e 4c
        E 51 87 34 00
        E 71 97 3e 5f
        E 7 87 27 00
        E 88 87 31 00
        E 26 97 48 67
        E 23 87 3e 00
        E 83 87 3e 00
        E 13 97 3f 67
        E 58 87 3e 00
        E 60 97 4a 71
        E 16 87 3e 00
        E 64 87 48 00
        E 65 87 3f 00
        E 69 87 28 00
        E 3 87 4a 00
        E 120 87 27 00
        E 263 97 25 7d
        E 484 97 31 7d
        E 236 97 34 79
        E 321 87 31 00
        E 139 87 34 00
        E 361 87 25 00
        E 144 97 43 48
        E 75 87 43 00
        E 1243 97 3e 6f
        E 238 97 40 75
        E 85 87 3e 00
        E 140 87 40 00
        E 135 97 4a 5f
        E 75 87 4a 00
        E 1126 97 35 67
        E 239 97 38 65
        E 116 87 35 00
        E 159 87 38 00
        E 448 97 29 7d
        E 1196 97 3e 69
        E 240 97 44 69
        E 36 87 3e 00
        E 69 87 29 00
        E 67 87 44 00
        E 71 97 4a 67
        E 78 87 4a 00
        E 159 97 29 7d
        E 122 97 2b 7d
        E 1320 97 3e 69
        E 105 87 29 00
        E 12 97 40 69
        E 59 87 3e 00
        E 25 87 2b 00
        E 39 87 40 00
        E 0 97 4a 79
        E 77 87 4a 00
        E 162 97 2a 7d
        E 119 97 2f 7d
        E 1437 87 2a 00
        E 113 87 2f 00
        E 373 97 2d 6f
        E 239 97 33 76
        E 118 97 3f 6b
        E 481 87 33 00
        E 79 87 3f 00
        E 646 87 2d 00
        E 1198 97 41 7a
        E 359 97 48 63
        E 2 87 41 00
        E 213 87 48 00
        E 743 97 34 79
        E 482 97 3f 71
        E 113 87 34 00
        E 8 97 45 73
        E 118 97 43 67
        E 175 87 3f 00
        E 74 87 45 00
        E 68 87 43 00
        E 645 97 2c 7b
        E 120 97 2f 7c
        E 117 97 32 76
        E 119 97 36 69
        E 484 87 32 00
        E 66 87 36 00
        E 670 87 2c 00
        E 114 87 2f 00
        E 0 b7 7b 00
        E 1 ff 2f 00
      >
    >
  >
  <TRACK
    NAME "Bass"
    PEAKCOL 4286528191
    VOLPAN 1.000000 0 1 -1
    MIDIOUT -1
    ISBUS 0 0
    <ITEM
      POSITION 0.003551
      LENGTH 103.447064
      NAME "Bass"
      VOLPAN 1 0 1 -1
      <SOURCE MIDI
        HASDATA 1 960 QN
        E 0 c8 2b 00
        E 3 98 24 3e
        E 878 88 24 00
        E 77 98 29 55
        E 863 88 29 00
        E 105 98 26 5f
        E 852 88 26 00
        E 105 98 28 4a
        E 877 88 28 00
        E 83 98 26 5f
        E 839 88 26 00
        E 121 98 2a 65
        E 858 88 2a 00
        E 102 98 26 61
        E 873 88 26 00
        E 81 98 25 53
        E 845 88 25 00
        E 116 98 27 4f
        E 867 88 27 00
        E 98 98 24 55
        E 864 88 24 00
        E 89 98 29 55
        E 852 88 29 00
        E 116 98 25 4d
        E 871 88 25 00
        E 88 98 29 61
        E 856 88 29 00
        E 103 98 2a 65
        E 882 88 2a 00
        E 78 98 23 59
        E 842 88 23 00
        E 116 98 1f 59
        E 865 88 1f 00
        E 99 98 1a 4d
        E 858 88 1a 00
        E 96 98 19 44
        E 876 88 19 00
        E 86 98 1b 51
        E 857 88 1b 00
        E 104 98 19 4f
        E 879 88 19 00
        E 80 98 15 57
        E 874 88 15 00
        E 82 98 17 57
        E 859 88 17 00
        E 111 98 18 3e
        E 871 88 18 00
        E 84 98 1b 57
        E 853 88 1b 00
        E 104 98 1b 36
        E 893 88 1b 00
        E 70 98 20 57
        E 883 88 20 00
        E 77 98 24 44
        E 865 88 24 00
        E 93 98 21 5d
        E 872 88 21 00
        E 91 98 25 6b
        E 882 88 25 00
        E 78 98 25 69
        E 862 88 25 00
        E 98 98 23 6d
        E 852 88 23 00
        E 102 98 25 5b
        E 845 88 25 00
        E 120 98 26 4a
        E 879 88 26 00
        E 86 98 25 5f
        E 882 88 25 00
        E 76 98 26 59
        E 873 88 26 00
        E 88 98 26 67
        E 868 88 26 00
        E 87 98 26 53
        E 851 88 26 00
        E 114 98 25 65
        E 855 88 25 00
        E 98 98 24 76
        E 885 88 24 00
        E 81 98 29 61
        E 879 88 29 00
        E 79 98 25 65
        E 865 88 25 00
        E 97 98 24 61
        E 857 88 24 00
        E 98 98 24 5f
        E 881 88 24 00
        E 80 98 22 5f
        E 883 88 22 00
        E 77 98 23 6d
        E 851 88 23 00
        E 110 98 25 5b
        E 846 88 25 00
        E 113 98 25 67
        E 863 88 25 00
        E 99 98 25 69
        E 882 88 25 00
        E 82 98 26 61
        E 872 88 26 00
        E 84 98 22 63
        E 863 88 22 00
        E 101 98 25 6d
        E 850 88 25 00
        E 103 98 19 71
        E 884 88 19 00
        E 75 98 25 76
        E 861 88 25 00
        E 100 98 25 79
        E 868 88 25 00
        E 91 98 27 7b
        E 856 88 27 00
        E 112 98 27 7b
        E 860 88 27 00
        E 94 98 22 7a
        E 875 88 22 00
        E 91 98 20 7d
        E 861 88 20 00
        E 96 98 23 61
        E 850 88 23 00
        E 107 98 26 79
        E 843 88 26 00
        E 112 98 24 75
        E 851 88 24 00
        E 118 98 27 7d
        E 871 88 27 00
        E 88 98 25 63
        E 878 88 25 00
        E 82 98 26 7b
        E 875 88 26 00
        E 87 98 25 6d
        E 880 88 25 00
        E 71 98 27 7d
        E 879 88 27 00
        E 85 98 25 69
        E 854 88 25 00
        E 108 98 20 7d
        E 882 88 20 00
        E 76 98 25 79
        E 873 88 25 00
        E 93 98 25 7c
        E 868 88 25 00
        E 91 98 23 63
        E 874 88 23 00
        E 83 98 26 7b
        E 874 88 26 00
        E 88 98 26 65
        E 872 88 26 00
        E 84 98 25 7d
        E 855 88 25 00
        E 105 98 24 65
        E 870 88 24 00
        E 94 98 27 7d
        E 861 88 27 00
        E 97 98 24 73
        E 855 88 24 00
        E 107 98 28 79
        E 891 88 28 00
        E 70 98 24 65
        E 865 88 24 00
        E 98 98 26 7d
        E 865 88 26 00
        E 89 98 22 7b
        E 852 88 22 00
        E 103 98 27 7d
        E 865 88 27 00
        E 101 98 24 7d
        E 866 88 24 00
        E 93 98 28 7d
        E 860 88 28 00
        E 103 98 24 7d
        E 870 88 24 00
        E 86 98 21 7d
        E 861 88 21 00
        E 101 98 25 7d
        E 855 88 25 00
        E 104 98 24 7d
        E 864 88 24 00
        E 94 98 25 7d
        E 885 88 25 00
        E 76 98 20 7d
        E 886 88 20 00
        E 73 98 19 7d
        E 862 88 19 00
        E 102 98 19 7d
        E 843 88 19 00
        E 112 98 1a 7d
        E 858 88 1a 00
        E 107 98 20 7d
        E 861 88 20 00
        E 101 98 1b 7d
        E 876 88 1b 00
        E 80 98 20 7d
        E 864 88 20 00
        E 92 98 25 7d
        E 856 88 25 00
        E 111 98 25 7d
        E 869 88 25 00
        E 84 98 25 7d
        E 857 88 25 00
        E 106 98 24 7d
        E 868 88 24 00
        E 0 b8 7b 00
        E 1 ff 2f 00
      >
    >
  >
  <TRACK
    NAME "Pedal"
    PEAKCOL 4284506208
    VOLPAN 1.000000 0 1 -1
    MIDIOUT -1
    ISBUS 0 0
    <ITEM
      POSITION 0.004335
      LENGTH 107.644932
      NAME "Pedal"
      VOLPAN 1 0 1 -1
      <SOURCE MIDI
        HASDATA 1 960 QN
        E 0 ca 2b 00
        E 4 9a 10 22
        E 7669 8a 10 00
        E 0 9a 0b 36
        E 7660 8a 0b 00
        E 24 9a 0e 30
        E 7634 8a 0e 00
        E 47 9a 04 28
        E 7686 9a 05 2a
        E 41 8a 04 00
        E 7636 9a 0b 38
        E 69 8a 05 00
        E 7613 9a 0b 3e
        E 6 8a 0b 00
        E 7539 8a 0b 00
        E 129 9a 00 4a
        E 7602 8a 00 00
        E 82 9a 03 4f
        E 7612 8a 03 00
        E 60 9a 01 61
        E 7688 9a 04 67
        E 71 8a 01 00
        E 7559 8a 04 00
        E 47 9a 06 69
        E 7662 8a 06 00
        E 20 9a 0d 6f
        E 7645 8a 0d 00
        E 0 ba 7b 00
        E 1 ff 2f 00
      >
    >
  >
>
