<REAPER_PROJECT 0.1 "7.0" 1700000000
  TEMPO 66.000000 4 4
  SAMPLERATE 48000 0 0
  RENDER_FILE ""
  RENDER_FMT 0 2 0
  RENDER_1X 0
  RENDER_RANGE 1 0 129.203417 0 0
  RENDER_RESAMPLE 3 0 1
  <MASTERTRACK
    VOLPAN 1 0 1 -1
    DEFCHAN 0
  >
  <TRACK
    NAME "Lead"
    PEAKCOL 4284506208
    VOLPAN 1.000000 0 1 -1
    MIDIOUT -1
    ISBUS 0 0
    <ITEM
      POSITION 1.069071
      LENGTH 125.399785
      NAME "Lead"
      VOLPAN 1 0 1 -1
      <SOURCE MIDI
        HASDATA 1 960 QN
        E 0 c0 2a 00
        E 1129 90 48 3f
        E 1022 80 48 00
        E 67 90 48 44
        E 965 80 48 00
        E 2041 90 48 42
        E 472 80 48 00
        E 411 90 4c 4f
        E 706 80 4c 00
        E 5389 90 50 52
        E 936 80 50 00
        E 704 90 53 57
        E 844 80 53 00
        E 2475 90 4e 57
        E 951 80 4e 00
        E 165 90 4d 49
        E 1113 90 4f 67
        E 301 80 4d 00
        E 612 80 4f 00
        E 1855 90 51 57
        E 851 80 51 00
        E 789 90 4c 42
        E 1027 80 4c 00
        E 93 90 4f 6b
        E 903 80 4f 00
        E 771 90 48 44
        E 482 80 48 00
        E 1187 90 50 5d
        E 239 80 50 00
        E 1417 90 49 49
        E 775 80 49 00
        E 5862 90 53 48
        E 569 90 51 57
        E 244 80 51 00
        E 304 90 4a 48
        E 671 80 53 00
        E 0 80 4a 00
        E 1548 90 42 64
        E 733 80 42 00
        E 3495 90 4c 7d
        E 950 80 4c 00
        E 353 90 54 60
        E 828 80 54 00
        E 3605 90 3c 33
        E 244 80 3c 00
        E 873 90 4f 76
        E 939 80 4f 00
        E 727 90 4a 57
        E 434 80 4a 00
        E 2307 90 40 59
        E 224 80 40 00
        E 2007 90 47 48
        E 350 90 4a 65
        E 248 80 4a 00
        E 62 90 4c 5e
        E 245 80 4c 00
        E 36 80 47 00
        E 63 90 4d 6e
        E 239 80 4d 00
        E 1337 90 47 5e
        E 716 80 47 00
        E 1738 90 4f 73
        E 236 80 4f 00
        E 391 90 4c 7d
        E 777 90 4a 33
        E 112 80 4c 00
        E 137 80 4a 00
        E 525 90 52 77
        E 538 90 51 64
        E 396 80 52 00
        E 602 80 51 00
        E 118 90 4e 6c
        E 924 80 4e 00
        E 752 90 54 5e
        E 831 80 54 00
        E 4688 90 4a 36
        E 465 80 4a 00
        E 641 90 4c 3b
        E 933 80 4c 00
        E 742 90 4b 54
        E 823 80 4b 00
        E 275 90 49 49
        E 264 80 49 00
        E 1396 90 4b 62
        E 541 90 47 6c
        E 428 80 4b 00
        E 503 80 47 00
        E 185 90 4a 4f
        E 875 80 4a 00
        E 260 90 48 42
        E 474 80 48 00
        E 844 90 46 4b
        E 563 90 49 50
        E 243 80 49 00
        E 46 80 46 00
        E 269 90 4a 5e
        E 867 90 49 57
        E 31 80 4a 00
        E 976 80 49 00
        E 90 90 48 64
        E 1343 90 41 4f
        E 501 80 41 00
        E 155 80 48 00
        E 597 90 46 64
        E 951 80 46 00
        E 39 90 46 69
        E 848 90 43 44
        E 107 80 46 00
        E 311 80 43 00
        E 516 90 40 48
        E 809 80 40 00
        E 1014 90 44 7a
        E 290 90 48 7c
        E 240 80 48 00
        E 37 90 4c 7d
        E 433 80 44 00
        E 457 80 4c 00
        E 224 90 4b 65
        E 717 80 4b 00
        E 507 90 48 7d
        E 761 80 48 00
        E 234 90 49 7d
        E 928 80 49 00
        E 187 90 4a 76
        E 668 80 4a 00
        E 421 90 4c 48
        E 404 80 4c 00
        E 711 90 47 77
        E 1044 80 47 00
        E 24868 90 34 67
        E 480 90 38 5e
        E 480 90 3b 5b
        E 480 80 34 00
        E 0 80 38 00
        E 480 80 3b 00
        E 1920 90 39 72
        E 0 90 40 6c
        E 2880 80 39 00
        E 0 80 40 00
        E 0 b0 7b 00
        E 1 ff 2f 00
      >
    >
  >
  <TRACK
    NAME "Cello"
    PEAKCOL 4284186559
    VOLPAN 1.000000 0 1 -1
    MIDIOUT -1
    ISBUS 0 0
    <ITEM
      POSITION 0.004825
      LENGTH 98.130427
      NAME "Cello"
      VOLPAN 1 0 1 -1
      <SOURCE MIDI
        HASDATA 1 960 QN
        E 0 c1 2a 00
        E 5 91 39 3d
        E 2033 81 39 00
        E 1824 91 39 50
        E 1903 91 30 38
        E 14 81 39 00
        E 1831 81 30 00
        E 85 91 2f 48
        E 1822 81 2f 00
        E 2025 91 35 62
        E 1979 81 35 00
        E 1848 91 38 46
        E 1786 81 38 00
        E 5898 91 36 4d
        E 1928 91 36 3b
        E 136 81 36 00
        E 1713 81 36 00
        E 1988 91 26 50
        E 1951 81 26 00
        E 1894 91 31 3a
        E 1907 91 34 4d
        E 92 81 31 00
        E 1829 91 33 42
        E 46 81 34 00
        E 1854 91 37 64
        E 127 81 33 00
        E 1862 81 37 00
        E 1875 91 3c 3f
        E 1916 91 34 52
        E 45 81 3c 00
        E 1846 81 34 00
        E 28 91 3c 5d
        E 1932 91 38 4b
        E 45 81 3c 00
        E 1879 81 38 00
        E 1918 91 35 4f
        E 1869 81 35 00
        E 3881 91 3f 36
        E 1946 81 3f 00
        E 1887 91 48 52
        E 1914 91 47 57
        E 88 81 48 00
        E 1844 91 46 48
        E 38 81 47 00
        E 1877 81 46 00
        E 16 91 47 48
        E 1848 81 47 00
        E 68 91 48 41
        E 1915 81 48 00
        E 17 91 48 49
        E 1902 91 43 3d
        E 88 81 48 00
        E 1840 91 44 41
        E 85 81 43 00
        E 1732 81 44 00
        E 100 91 48 4d
        E 1898 91 48 56
        E 149 81 48 00
        E 1706 81 48 00
        E 81 91 48 48
        E 1809 81 48 00
        E 104 91 49 4f
        E 1872 81 49 00
        E 64 91 42 64
        E 1858 81 42 00
        E 47 91 48 56
        E 1878 81 48 00
        E 42 91 49 60
        E 1863 81 49 00
        E 73 91 48 6e
        E 1871 81 48 00
        E 1973 91 48 7b
        E 1837 81 48 00
        E 82 91 47 73
        E 1805 81 47 00
        E 85 91 48 7c
        E 1898 81 48 00
        E 45 91 48 77
        E 1764 81 48 00
        E 149 91 45 65
        E 1753 81 45 00
        E 0 b1 7b 00
        E 1 ff 2f 00
      >
    >
  >
  <TRACK
    NAME "Violin"
    PEAKCOL 4284186559
    VOLPAN 1.000000 0 1 -1
    MIDIOUT -1
    ISBUS 0 0
    <ITEM
      POSITION 20.023061
      LENGTH 85.534037
      NAME "Violin"
      VOLPAN 1 0 1 -1
      <SOURCE MIDI
        HASDATA 1 960 QN
        E 0 c2 28 00
        E 21144 92 54 48
        E 1804 82 54 00
        E 9698 92 55 2f
        E 1859 82 55 00
        E 1980 92 55 3a
        E 2067 82 55 00
        E 5637 92 55 56
        E 1796 82 55 00
        E 114 92 59 54
        E 1989 82 59 00
        E 1859 92 55 41
        E 1908 82 55 00
        E 0 92 56 4b
        E 1915 82 56 00
        E 1943 92 5b 4b
        E 1911 82 5b 00
        E 1893 92 54 57
        E 1938 92 54 4d
        E 35 82 54 00
        E 1797 82 54 00
        E 99 92 58 50
        E 1918 82 58 00
        E 13 92 57 56
        E 1877 82 57 00
        E 22 92 55 38
        E 1891 82 55 00
        E 41 92 60 38
        E 1897 82 60 00
        E 26 92 5f 41
        E 1776 82 5f 00
        E 147 92 60 3a
        E 1895 92 60 60
        E 96 82 60 00
        E 1836 92 60 44
        E 181 82 60 00
        E 1721 92 5f 3b
        E 22 82 60 00
        E 1994 82 5f 00
        E 1829 92 60 4d
        E 1700 82 60 00
        E 223 92 60 75
        E 1910 92 54 42
        E 40 82 60 00
        E 1905 92 55 5d
        E 29 82 54 00
        E 1866 82 55 00
        E 10 92 58 64
        E 1933 82 58 00
        E 5758 92 47 79
        E 1944 82 47 00
        E 3808 92 56 6b
        E 1931 92 50 7b
        E 257 82 56 00
        E 1619 82 50 00
        E 23 92 56 76
        E 1926 92 56 70
        E 154 82 56 00
        E 1759 82 56 00
        E 0 b2 7b 00
        E 1 ff 2f 00
      >
    >
  >
  <TRACK
    NAME "Strings"
    PEAKCOL 4284186559
    VOLPAN 1.000000 0 1 -1
    MIDIOUT -1
    ISBUS 0 0
    <ITEM
      POSITION 0.000000
      LENGTH 98.359077
      NAME "Strings"
      VOLPAN 1 0 1 -1
      <SOURCE MIDI
        HASDATA 1 960 QN
        E 0 c3 30 00
        E 0 93 3b 1e
        E 7 93 31 21
        E 7 93 30 1c
        E 1756 83 30 00
        E 92 83 3b 00
        E 47 93 3f 1a
        E 13 93 3e 31
        E 5 93 3e 1e
        E 127 83 31 00
        E 1691 83 3f 00
        E 89 93 3e 21
        E 1 93 3e 2f
        E 5 93 3c 26
        E 23 83 3e 00
        E 54 83 3e 00
        E 1707 83 3e 00
        E 128 83 3c 00
        E 1 93 3e 2d
        E 165 83 3e 00
        E 1729 83 3e 00
        E 34 93 3d 15
        E 1944 83 3d 00
        E 1884 93 40 4b
        E 2 93 3e 4d
        E 10 93 40 52
        E 1890 83 40 00
        E 5 83 40 00
        E 16 93 3d 52
        E 9 93 3d 52
        E 3 93 3c 42
        E 142 83 3e 00
        E 1727 83 3d 00
        E 31 83 3c 00
        E 6 93 43 3d
        E 11 83 3d 00
        E 0 93 3c 3f
        E 14 93 49 3d
        E 1809 83 49 00
        E 92 93 3d 52
        E 0 93 3d 49
        E 3 83 43 00
        E 0 93 3d 52
        E 2 93 3d 44
        E 8 83 3c 00
        E 1841 83 3d 00
        E 60 93 3d 4d
        E 1 93 3e 42
        E 1 83 3d 00
        E 0 93 31 3b
        E 7 93 3c 41
        E 3 93 3e 42
        E 49 83 3d 00
        E 47 83 3d 00
        E 1736 83 3e 00
        E 25 83 31 00
        E 48 93 3d 54
        E 2 93 39 3f
        E 4 93 3d 54
        E 2 93 3e 3b
        E 47 83 3d 00
        E 45 83 3c 00
        E 45 83 3e 00
        E 1748 83 3d 00
        E 10 83 39 00
        E 30 93 3c 31
        E 14 93 31 23
        E 35 83 3d 00
        E 45 83 3e 00
        E 1649 83 3c 00
        E 177 83 31 00
        E 1 93 3b 26
        E 1 93 3d 2d
        E 8 93 36 33
        E 1876 83 3d 00
        E 25 93 40 57
        E 11 93 40 57
        E 1 93 3e 21
        E 81 83 3b 00
        E 69 83 36 00
        E 1643 83 40 00
        E 112 93 3d 4b
        E 1 93 3d 49
        E 3 93 3e 52
        E 6 93 26 4d
        E 3 93 41 42
        E 10 93 3e 52
        E 6 93 2a 36
        E 37 83 3e 00
        E 33 83 40 00
        E 1598 83 3d 00
        E 99 83 3d 00
        E 33 83 2a 00
        E 16 83 41 00
        E 42 83 3e 00
        E 8 83 26 00
        E 30 93 3e 31
        E 5 93 30 31
        E 4 93 40 3d
        E 2 93 3e 2a
        E 2 93 3e 31
        E 26 83 3e 00
        E 1701 83 30 00
        E 91 83 3e 00
        E 64 83 3e 00
        E 16 83 3e 00
        E 11 93 3c 33
        E 3 93 3c 42
        E 2 93 31 2a
        E 3 93 3d 2a
        E 107 83 40 00
        E 1709 83 3d 00
        E 27 83 3c 00
        E 34 83 3c 00
        E 27 93 25 4b
        E 1 93 3c 33
        E 0 93 25 4b
        E 5 93 40 49
        E 1 93 3e 4b
        E 23 83 31 00
        E 1771 83 40 00
        E 117 83 25 00
        E 11 83 25 00
        E 6 93 3e 34
        E 56 83 3c 00
        E 3 83 3e 00
        E 1741 83 3e 00
        E 105 93 3f 3f
        E 18 93 3f 1c
        E 5 93 3f 1e
        E 3 93 30 1f
        E 1774 83 3f 00
        E 109 83 30 00
        E 35 83 3f 00
        E 40 83 3f 00
        E 1866 93 3c 3f
        E 1 93 31 48
        E 4 93 3d 36
        E 4 93 3d 36
        E 2 93 3c 3f
        E 3 93 3c 34
        E 1905 93 3c 57
        E 2 83 3d 00
        E 1 93 30 52
        E 7 93 3d 50
        E 3 93 3d 50
        E 13 83 31 00
        E 1 83 3c 00
        E 53 83 3c 00
        E 1 83 3c 00
        E 150 83 3d 00
        E 1566 83 3d 00
        E 63 83 30 00
        E 46 83 3d 00
        E 19 83 3c 00
        E 0 93 41 52
        E 5 93 2a 3f
        E 2 93 2a 3f
        E 1855 83 41 00
        E 47 93 3c 57
        E 0 93 31 41
        E 2 93 36 59
        E 7 93 40 5b
        E 10 93 31 3b
        E 43 83 2a 00
        E 66 83 2a 00
        E 1723 83 3c 00
        E 12 83 31 00
        E 6 83 40 00
        E 48 83 36 00
        E 1 93 3c 5e
        E 5 93 3c 5e
        E 5 93 31 5d
        E 3 93 3d 59
        E 5 93 3d 42
        E 3 83 31 00
        E 1748 83 3c 00
        E 154 83 3d 00
        E 3 93 43 5d
        E 1 93 38 60
        E 4 93 3c 72
        E 4 93 42 4f
        E 7 93 2e 42
        E 2 93 38 49
        E 0 93 43 4f
        E 41 83 3c 00
        E 148 83 3d 00
        E 91 83 31 00
        E 1468 83 2e 00
        E 22 83 42 00
        E 132 93 30 46
        E 6 93 3e 65
        E 1 93 3e 3f
        E 5 93 3e 3f
        E 7 83 43 00
        E 3 83 38 00
        E 7 83 3c 00
        E 27 83 38 00
        E 83 83 43 00
        E 1627 83 3e 00
        E 125 83 3e 00
        E 4 83 3e 00
        E 20 93 3d 59
        E 21 93 3d 34
        E 62 83 30 00
        E 1846 93 3c 60
        E 1 93 3d 56
        E 1 93 3a 44
        E 10 93 3f 2d
        E 1 93 3c 26
        E 0 93 2b 2d
        E 49 83 3d 00
        E 24 83 3d 00
        E 1658 83 3c 00
        E 103 83 3c 00
        E 20 83 2b 00
        E 44 93 3c 6b
        E 7 93 3d 5d
        E 3 93 3d 5d
        E 3 93 34 54
        E 4 93 43 4f
        E 19 83 3a 00
        E 6 83 3f 00
        E 5 83 3d 00
        E 1830 83 34 00
        E 28 83 3c 00
        E 20 93 3c 54
        E 6 93 3c 54
        E 8 93 3c 33
        E 5 83 3d 00
        E 0 93 3d 3b
        E 4 83 3d 00
        E 3 83 43 00
        E 1774 83 3d 00
        E 94 83 3c 00
        E 30 93 3d 3b
        E 0 93 3f 54
        E 9 93 3c 3a
        E 4 93 3d 3b
        E 1 93 3d 3b
        E 30 83 3c 00
        E 24 83 3c 00
        E 1776 83 3d 00
        E 63 83 3f 00
        E 8 93 3c 5b
        E 6 93 3d 4b
        E 0 93 3e 50
        E 1 93 3d 3d
        E 0 93 33 3f
        E 3 93 31 44
        E 2 93 3c 48
        E 6 93 3c 3d
        E 62 83 3c 00
        E 51 83 3d 00
        E 21 83 3d 00
        E 1632 83 3e 00
        E 28 83 3c 00
        E 97 83 31 00
        E 7 93 3c 64
        E 0 93 25 56
        E 13 93 26 34
        E 3 93 3d 38
        E 4 93 3f 34
        E 22 83 3d 00
        E 7 83 3c 00
        E 87 83 3d 00
        E 66 83 33 00
        E 112 83 3c 00
        E 1507 83 3f 00
        E 40 83 3d 00
        E 63 93 3b 59
        E 3 93 3e 57
        E 5 93 38 36
        E 3 93 31 2c
        E 2 93 31 31
        E 3 93 3e 2c
        E 0 93 31 36
        E 3 93 3e 3a
        E 2 83 26 00
        E 11 83 25 00
        E 15 83 3c 00
        E 1807 83 31 00
        E 35 83 38 00
        E 27 93 3e 36
        E 1 93 3f 62
        E 11 93 3e 33
        E 3 93 3d 26
        E 6 93 3e 26
        E 1 93 41 28
        E 6 83 3e 00
        E 14 83 31 00
        E 4 83 3e 00
        E 25 83 31 00
        E 7 83 3e 00
        E 20 83 3b 00
        E 1594 83 41 00
        E 113 83 3f 00
        E 86 83 3e 00
        E 24 83 3e 00
        E 4 93 3c 52
        E 4 83 3e 00
        E 9 93 3a 28
        E 2 93 30 26
        E 2 93 3d 2c
        E 1 93 30 26
        E 2 93 31 2d
        E 5 93 3d 26
        E 132 83 3d 00
        E 1726 83 3a 00
        E 4 83 30 00
        E 34 93 36 48
        E 1 93 3e 59
        E 1 83 30 00
        E 3 93 3a 4d
        E 6 93 3f 48
        E 1 83 3d 00
        E 4 93 3e 3b
        E 0 93 3e 41
        E 12 83 3c 00
        E 85 83 31 00
        E 2 83 3d 00
        E 1602 83 36 00
        E 95 83 3a 00
        E 32 83 3f 00
        E 23 83 3e 00
        E 6 83 3e 00
        E 46 93 3d 41
        E 4 93 3c 36
        E 2 93 3e 4d
        E 0 93 3d 36
        E 0 93 31 3b
        E 11 93 3d 2d
        E 10 93 3c 31
        E 56 83 3e 00
        E 1661 83 3e 00
        E 59 83 3d 00
        E 67 83 31 00
        E 8 83 3d 00
        E 37 83 3c 00
        E 16 93 3f 3d
        E 2 93 38 2d
        E 4 93 3e 25
        E 5 93 3f 3d
        E 2 93 3e 2a
        E 2 93 40 34
        E 1 93 3c 2c
        E 53 83 3d 00
        E 17 83 3c 00
        E 1661 83 3f 00
        E 22 83 38 00
        E 31 83 3c 00
        E 68 83 3e 00
        E 31 83 3f 00
        E 10 83 3e 00
        E 2 93 3b 41
        E 3 93 3e 50
        E 3 93 3c 36
        E 1 93 42 5d
        E 4 93 36 31
        E 6 93 3c 2a
        E 1 93 3c 31
        E 4 93 3c 31
        E 91 83 40 00
        E 1698 83 42 00
        E 62 83 3e 00
        E 24 83 3c 00
        E 6 83 3b 00
        E 9 83 36 00
        E 9 93 38 56
        E 5 93 36 48
        E 0 93 33 57
        E 4 93 38 4d
        E 0 93 3e 49
        E 3 93 3e 49
        E 8 93 3f 3b
        E 6 93 3f 3b
        E 20 83 3c 00
        E 48 83 3c 00
        E 6 83 3c 00
        E 1722 83 38 00
        E 4 83 3f 00
        E 81 83 36 00
        E 12 93 3f 57
        E 1 83 38 00
        E 6 93 3e 50
        E 5 93 32 56
        E 0 93 3f 57
        E 7 93 32 56
        E 1 83 33 00
        E 30 83 3e 00
        E 60 83 3f 00
        E 55 83 3e 00
        E 1757 83 3e 00
        E 2 93 42 31
        E 5 93 3d 2f
        E 2 93 35 36
        E 7 93 3d 3b
        E 3 83 32 00
        E 5 93 3d 34
        E 16 83 3f 00
        E 33 83 3f 00
        E 46 83 32 00
        E 1583 83 42 00
        E 58 83 3d 00
        E 127 83 3d 00
        E 19 83 3d 00
        E 14 93 3e 3b
        E 5 93 3d 56
        E 2 93 3d 52
        E 77 83 35 00
        E 1747 83 3e 00
        E 12 83 3d 00
        E 79 93 3e 56
        E 2 93 2a 48
        E 2 93 3e 56
        E 4 93 3d 50
        E 8 83 3d 00
        E 1858 83 3e 00
        E 10 83 2a 00
        E 25 83 3d 00
        E 248 83 3e 00
        E 1678 93 32 5d
        E 8 93 33 49
        E 4 93 3e 5d
        E 8 93 3d 5b
        E 4 93 3f 49
        E 1769 83 3f 00
        E 92 83 3e 00
        E 37 93 43 76
        E 3 93 43 76
        E 1 93 3d 6e
        E 1 93 43 69
        E 9 83 32 00
        E 5 93 31 60
        E 1 93 3d 6e
        E 31 83 33 00
        E 123 83 3d 00
        E 1675 83 43 00
        E 4 83 43 00
        E 46 83 31 00
        E 16 83 3d 00
        E 4 93 3e 6b
        E 7 93 43 64
        E 0 93 3e 67
        E 4 93 3c 69
        E 66 83 43 00
        E 1 83 3d 00
        E 1725 83 3e 00
        E 73 83 3c 00
        E 44 93 3e 5e
        E 0 93 3d 6b
        E 1 83 3e 00
        E 1 93 3d 6b
        E 2 93 3d 54
        E 6 93 3c 59
        E 3 93 3e 5e
        E 53 83 43 00
        E 1776 83 3c 00
        E 11 83 3e 00
        E 1 83 3d 00
        E 8 83 3e 00
        E 57 83 3d 00
        E 13 93 3b 57
        E 3 93 3e 4f
        E 6 93 3d 64
        E 1 93 31 56
        E 1 93 3e 4f
        E 48 83 3d 00
        E 1815 83 31 00
        E 12 83 3e 00
        E 35 83 3d 00
        E 73 83 3e 00
        E 6 83 3b 00
        E 0 b3 7b 00
        E 1 ff 2f 00
      >
    >
  >
  <TRACK
    NAME "Choir"
    PEAKCOL 4284506208
    VOLPAN 1.000000 0 1 -1
    MIDIOUT -1
    ISBUS 0 0
    <ITEM
      POSITION 7.286695
      LENGTH 98.114371
      NAME "Choir"
      VOLPAN 1 0 1 -1
      <SOURCE MIDI
        HASDATA 1 960 QN
        E 0 c4 34 00
        E 7695 94 3c 5e
        E 0 94 38 62
        E 1788 84 38 00
        E 150 84 3c 00
        E 3817 94 3e 7b
        E 1538 84 3e 00
        E 380 94 3f 6c
        E 4 94 3c 6c
        E 11 94 34 76
        E 1692 84 3f 00
        E 43 84 3c 00
        E 73 84 34 00
        E 100 94 3f 6b
        E 1574 84 3f 00
        E 352 94 40 7d
        E 18 94 34 7d
        E 1561 84 40 00
        E 176 84 34 00
        E 150 94 40 5d
        E 11 94 3c 7b
        E 1632 84 40 00
        E 215 84 3c 00
        E 2000 94 39 5e
        E 1716 84 39 00
        E 209 94 34 5b
        E 1797 84 34 00
        E 112 94 38 7a
        E 11 94 3c 7a
        E 1770 84 3c 00
        E 58 84 38 00
        E 75 94 40 54
        E 8 94 38 4f
        E 1731 84 38 00
        E 153 84 40 00
        E 30 94 41 62
        E 3 94 3f 49
        E 2 94 38 4b
        E 0 94 34 4f
        E 1698 84 3f 00
        E 84 84 41 00
        E 3 84 34 00
        E 103 84 38 00
        E 23 94 3c 6b
        E 11 94 38 72
        E 1695 84 3c 00
        E 88 84 38 00
        E 125 94 40 59
        E 18 94 3c 57
        E 3 94 38 5b
        E 1567 84 3c 00
        E 191 84 40 00
        E 61 84 38 00
        E 73 94 3c 7d
        E 12 94 40 54
        E 1774 84 3c 00
        E 44 84 40 00
        E 2022 94 40 50
        E 17 94 34 59
        E 1784 84 40 00
        E 51 84 34 00
        E 69 94 3c 6c
        E 11 94 38 73
        E 1650 84 3c 00
        E 34 84 38 00
        E 234 94 3e 6b
        E 6 94 34 67
        E 1677 84 34 00
        E 151 84 3e 00
        E 82 94 34 76
        E 1852 84 34 00
        E 68 94 35 76
        E 13 94 34 7b
        E 1713 84 34 00
        E 85 84 35 00
        E 110 94 35 6b
        E 0 94 40 64
        E 18 94 34 7d
        E 1660 84 40 00
        E 15 84 34 00
        E 87 84 35 00
        E 127 94 3c 70
        E 10 94 38 6b
        E 4 94 40 70
        E 4 94 34 6b
        E 1626 84 40 00
        E 72 84 3c 00
        E 118 84 38 00
        E 89 94 3c 54
        E 15 94 34 64
        E 4 94 38 5b
        E 55 84 34 00
        E 1715 84 34 00
        E 40 84 3c 00
        E 2 84 38 00
        E 95 94 34 4b
        E 1 94 3e 4d
        E 1 94 3c 5d
        E 19 94 35 56
        E 1631 84 3e 00
        E 89 84 35 00
        E 15 84 3c 00
        E 153 94 3e 7d
        E 0 94 3c 7d
        E 15 94 34 79
        E 0 94 35 7d
        E 40 84 34 00
        E 1477 84 35 00
        E 130 84 3e 00
        E 65 84 34 00
        E 86 84 3c 00
        E 101 94 3c 7d
        E 37 94 34 5d
        E 7 94 34 5d
        E 1796 84 34 00
        E 29 84 34 00
        E 33 84 3c 00
        E 30 94 3d 62
        E 2 94 40 62
        E 13 94 38 70
        E 7 94 34 5d
        E 1630 84 38 00
        E 53 84 34 00
        E 211 94 3c 6e
        E 5 94 39 5d
        E 7 94 40 64
        E 10 94 34 64
        E 25 84 40 00
        E 5 84 3d 00
        E 1605 84 34 00
        E 174 84 40 00
        E 4 84 39 00
        E 53 84 3c 00
        E 34 94 38 54
        E 2 94 40 5b
        E 20 94 3c 62
        E 7 94 34 50
        E 1610 84 38 00
        E 97 84 34 00
        E 1 84 40 00
        E 8 84 3c 00
        E 173 94 3c 59
        E 13 94 40 5b
        E 15 94 35 52
        E 0 94 34 59
        E 1577 84 40 00
        E 103 84 3c 00
        E 82 84 35 00
        E 53 84 34 00
        E 82 94 35 57
        E 2 94 3c 5d
        E 9 94 40 4d
        E 16 94 34 56
        E 1609 84 40 00
        E 81 84 35 00
        E 142 84 34 00
        E 16 84 3c 00
        E 27 94 3b 77
        E 34 94 38 54
        E 1 94 3f 3f
        E 1689 84 3f 00
        E 31 84 3b 00
        E 35 84 38 00
        E 123 94 3c 7a
        E 26 94 35 69
        E 6 94 40 59
        E 12 94 34 70
        E 1667 84 34 00
        E 98 84 40 00
        E 36 84 3c 00
        E 42 84 35 00
        E 60 94 40 70
        E 6 94 39 6c
        E 22 94 34 67
        E 1710 84 34 00
        E 11 84 40 00
        E 74 84 39 00
        E 92 94 3c 41
        E 14 94 3e 42
        E 2 94 34 4d
        E 9 94 35 42
        E 1703 84 34 00
        E 3 84 35 00
        E 136 84 3c 00
        E 22 84 3e 00
        E 30 94 3e 69
        E 0 94 3c 62
        E 11 94 34 56
        E 0 94 35 57
        E 1659 84 3e 00
        E 44 84 35 00
        E 28 84 34 00
        E 116 84 3c 00
        E 68 94 3c 6e
        E 1 94 3e 73
        E 1 94 38 78
        E 7 94 34 6e
        E 1591 84 38 00
        E 158 84 3e 00
        E 78 84 3c 00
        E 43 84 34 00
        E 57 94 38 79
        E 1902 94 3c 6b
        E 6 84 38 00
        E 0 94 39 6b
        E 1514 84 39 00
        E 146 84 3c 00
        E 266 94 33 69
        E 1762 84 33 00
        E 145 94 40 7d
        E 10 94 38 7d
        E 11 94 34 7d
        E 1665 84 40 00
        E 106 84 34 00
        E 110 84 38 00
        E 1942 94 40 7d
        E 18 94 38 7b
        E 1501 84 38 00
        E 269 84 40 00
        E 2050 94 40 7d
        E 16 94 34 7d
        E 1609 84 34 00
        E 184 84 40 00
        E 111 94 3c 7d
        E 23 94 38 7d
        E 3 94 34 7d
        E 1624 84 3c 00
        E 268 94 3c 7d
        E 10 84 34 00
        E 1 94 34 7d
        E 36 84 38 00
        E 1697 84 3c 00
        E 18 84 34 00
        E 166 94 3c 7d
        E 7 94 34 7d
        E 1701 84 3c 00
        E 83 84 34 00
        E 129 94 3c 7d
        E 1758 84 3c 00
        E 161 94 3c 7d
        E 5 94 40 7d
        E 18 94 34 7d
        E 1582 84 3c 00
        E 102 84 40 00
        E 112 84 34 00
        E 86 94 3c 7d
        E 14 94 39 7b
        E 1648 84 3c 00
        E 96 84 39 00
        E 0 b4 7b 00
        E 1 ff 2f 00
      >
    >
  >
  <TRACK
    NAME "Harp"
    PEAKCOL 4290756410
    VOLPAN 1.000000 0 1 -1
    MIDIOUT -1
    ISBUS 0 0
    <ITEM
      POSITION 0.000050
      LENGTH 97.369110
      NAME "Harp"
      VOLPAN 1 0 1 -1
      <SOURCE MIDI
        HASDATA 1 960 QN
        E 0 c5 2e 00
        E 0 95 2b 38
        E 837 95 3e 36
        E 122 95 41 21
        E 238 95 49 21
        E 49 85 3e 00
        E 78 85 41 00
        E 139 85 49 00
        E 92 85 2b 00
        E 3 95 4d 21
        E 121 85 4d 00
        E 3 95 51 2f
        E 75 85 51 00
        E 165 95 2f 46
        E 719 95 3c 1f
        E 119 95 40 34
        E 121 95 40 2d
        E 219 85 3c 00
        E 65 85 40 00
        E 88 85 40 00
        E 199 85 2f 00
        E 25 95 4c 1c
        E 126 85 4c 00
        E 719 95 38 2a
        E 358 95 3f 1f
        E 119 95 3f 2a
        E 84 85 38 00
        E 39 95 45 3a
        E 181 85 3f 00
        E 70 85 3f 00
        E 57 85 45 00
        E 53 95 4b 23
        E 117 95 4b 23
        E 56 85 4b 00
        E 66 85 4b 00
        E 1 95 51 2a
        E 78 85 51 00
        E 277 95 30 3b
        E 123 95 30 38
        E 361 95 3d 21
        E 117 95 3a 21
        E 111 85 30 00
        E 47 85 30 00
        E 232 85 3d 00
        E 61 85 3a 00
        E 990 95 30 3b
        E 117 95 34 36
        E 121 95 35 2d
        E 239 95 3e 42
        E 189 85 30 00
        E 52 95 3e 2f
        E 8 85 34 00
        E 59 85 35 00
        E 52 95 45 21
        E 89 85 3e 00
        E 156 85 3e 00
        E 74 85 45 00
        E 1604 95 45 33
        E 118 95 4b 3b
        E 121 95 48 46
        E 72 85 45 00
        E 70 85 4b 00
        E 73 85 48 00
        E 26 95 4e 44
        E 122 85 4e 00
        E 599 95 38 49
        E 241 95 3d 44
        E 238 95 43 41
        E 123 95 46 46
        E 1 85 38 00
        E 157 85 3d 00
        E 129 85 43 00
        E 87 85 46 00
        E 584 95 32 5b
        E 361 95 3a 4d
        E 388 85 32 00
        E 185 85 3a 00
        E 265 95 4a 41
        E 268 85 4a 00
        E 809 95 39 4f
        E 591 85 39 00
        E 1454 95 3c 48
        E 561 85 3c 00
        E 1116 95 35 62
        E 240 95 3f 50
        E 123 95 3f 4d
        E 121 95 44 48
        E 176 85 35 00
        E 148 85 3f 00
        E 62 85 3f 00
        E 87 85 44 00
        E 5 95 4e 57
        E 263 85 4e 00
        E 455 95 32 5b
        E 120 95 35 5b
        E 119 95 37 54
        E 124 95 36 4f
        E 118 95 3e 50
        E 120 95 40 44
        E 123 95 3c 3b
        E 41 85 32 00
        E 60 85 35 00
        E 13 95 42 3d
        E 47 85 37 00
        E 80 85 36 00
        E 74 85 3e 00
        E 75 85 40 00
        E 72 85 3c 00
        E 56 85 42 00
        E 78 95 4f 3b
        E 222 85 4f 00
        E 741 95 38 4f
        E 599 95 44 36
        E 19 85 38 00
        E 98 95 4a 46
        E 247 85 44 00
        E 68 85 4a 00
        E 525 95 30 69
        E 241 95 30 38
        E 482 95 35 42
        E 156 85 30 00
        E 82 95 40 3f
        E 227 85 35 00
        E 135 85 40 00
        E 122 95 48 36
        E 102 85 30 00
        E 17 95 4d 38
        E 51 85 48 00
        E 74 85 4d 00
        E 593 95 39 4b
        E 362 95 3d 42
        E 116 95 3e 4b
        E 121 95 45 44
        E 25 85 39 00
        E 95 95 47 41
        E 91 85 3d 00
        E 70 85 3e 00
        E 79 95 49 38
        E 3 85 45 00
        E 79 85 47 00
        E 41 95 4b 59
        E 98 85 49 00
        E 19 95 51 48
        E 58 85 4b 00
        E 61 95 53 38
        E 4 85 51 00
        E 74 85 53 00
        E 163 95 2e 73
        E 121 95 32 54
        E 240 95 37 4d
        E 240 95 3f 4d
        E 218 85 32 00
        E 144 85 37 00
        E 1 95 43 41
        E 148 85 3f 00
        E 88 95 4b 3d
        E 120 95 4a 33
        E 1 85 43 00
        E 147 85 4b 00
        E 9 85 2e 00
        E 59 85 4a 00
        E 147 95 52 3b
        E 78 85 52 00
        E 159 95 2f 52
        E 241 95 30 52
        E 118 95 3a 41
        E 121 95 40 3f
        E 119 95 3f 3f
        E 159 85 2f 00
        E 137 85 30 00
        E 64 85 3a 00
        E 81 85 40 00
        E 57 85 3f 00
        E 106 95 48 44
        E 269 85 48 00
        E 447 95 31 57
        E 123 95 32 34
        E 240 95 3f 49
        E 236 95 42 3d
        E 143 85 31 00
        E 82 85 32 00
        E 143 85 3f 00
        E 135 85 42 00
        E 819 95 32 56
        E 120 95 34 54
        E 242 95 3c 52
        E 240 95 3f 48
        E 164 85 32 00
        E 64 85 34 00
        E 142 85 3c 00
        E 144 85 3f 00
        E 925 95 33 3a
        E 119 95 39 38
        E 360 95 40 4b
        E 220 85 33 00
        E 19 95 47 46
        E 40 85 39 00
        E 203 95 4c 48
        E 30 85 40 00
        E 142 85 47 00
        E 69 95 52 3f
        E 75 85 4c 00
        E 146 85 52 00
        E 615 95 33 26
        E 241 95 36 33
        E 241 95 3f 38
        E 161 85 33 00
        E 151 85 36 00
        E 49 95 48 3a
        E 103 85 3f 00
        E 214 85 48 00
        E 1843 95 48 50
        E 219 85 48 00
        E 20 95 4d 56
        E 119 95 4e 4d
        E 5 85 4d 00
        E 72 85 4e 00
        E 164 95 2d 46
        E 120 95 32 46
        E 118 95 35 3b
        E 120 95 32 65
        E 361 95 3e 54
        E 107 85 32 00
        E 76 85 35 00
        E 51 85 32 00
        E 129 95 3f 56
        E 113 85 3e 00
        E 3 95 4a 54
        E 118 95 4a 54
        E 75 85 3f 00
        E 77 85 4a 00
        E 10 85 2d 00
        E 60 85 4a 00
        E 20 95 4a 62
        E 121 85 4a 00
        E 239 95 30 78
        E 363 95 33 60
        E 238 95 40 5b
        E 122 95 3e 67
        E 36 85 30 00
        E 202 85 33 00
        E 144 85 40 00
        E 75 85 3e 00
        E 261 95 54 4b
        E 165 85 54 00
        E 74 95 52 49
        E 77 85 52 00
        E 286 95 35 4d
        E 237 95 39 5e
        E 365 95 42 56
        E 94 85 35 00
        E 21 95 45 54
        E 125 85 39 00
        E 117 95 4c 4d
        E 106 85 42 00
        E 12 95 49 52
        E 42 85 45 00
        E 156 85 4c 00
        E 71 85 49 00
        E 574 95 34 4d
        E 238 95 39 69
        E 121 95 3e 60
        E 238 95 47 62
        E 101 85 34 00
        E 23 95 43 52
        E 115 85 39 00
        E 61 85 3e 00
        E 64 95 48 54
        E 103 85 47 00
        E 67 85 43 00
        E 69 95 4f 54
        E 91 85 48 00
        E 127 85 4f 00
        E 501 95 31 59
        E 118 95 32 5d
        E 481 95 3c 64
        E 91 85 31 00
        E 30 95 3f 56
        E 49 85 32 00
        E 191 95 44 62
        E 92 85 3c 00
        E 76 85 3f 00
        E 73 95 48 5b
        E 64 85 44 00
        E 55 95 4b 5b
        E 97 85 48 00
        E 23 95 48 5d
        E 50 85 4b 00
        E 70 95 50 62
        E 4 85 48 00
        E 74 85 50 00
        E 162 95 30 5b
        E 121 95 31 49
        E 117 95 32 46
        E 121 95 32 69
        E 121 95 3a 62
        E 122 95 3f 69
        E 136 85 30 00
        E 80 85 31 00
        E 22 95 3e 57
        E 43 85 32 00
        E 86 85 32 00
        E 57 85 3a 00
        E 53 95 46 54
        E 31 85 3f 00
        E 142 85 3e 00
        E 65 95 48 50
        E 76 85 46 00
        E 50 95 4a 50
        E 89 85 48 00
        E 27 95 48 57
        E 60 85 4a 00
        E 64 85 48 00
        E 236 95 33 64
        E 121 95 2f 4d
        E 241 95 33 54
        E 117 95 33 54
        E 120 95 39 50
        E 224 85 2f 00
        E 18 95 3d 4d
        E 116 85 33 00
        E 4 95 3d 4f
        E 79 85 33 00
        E 68 85 39 00
        E 91 95 42 5d
        E 54 85 3d 00
        E 74 85 3d 00
        E 137 85 42 00
        E 39 85 33 00
        E 59 95 48 4d
        E 122 85 48 00
        E 236 95 33 69
        E 122 95 30 48
        E 118 95 33 46
        E 122 95 33 57
        E 362 95 3e 5b
        E 84 85 30 00
        E 31 95 3e 4b
        E 70 85 33 00
        E 57 85 33 00
        E 117 95 49 69
        E 108 85 3e 00
        E 65 85 3e 00
        E 139 85 49 00
        E 85 85 33 00
        E 443 95 2f 46
        E 237 95 39 4b
        E 118 95 3c 69
        E 120 95 41 60
        E 240 95 45 4d
        E 34 85 2f 00
        E 156 85 39 00
        E 51 95 4f 5b
        E 2 85 3c 00
        E 71 85 41 00
        E 87 85 45 00
        E 207 85 4f 00
        E 593 95 33 73
        E 123 95 33 72
        E 119 95 37 69
        E 241 95 36 54
        E 122 95 3f 5e
        E 118 95 41 62
        E 38 85 33 00
        E 54 85 33 00
        E 94 85 37 00
        E 137 85 36 00
        E 35 95 45 5b
        E 44 85 3f 00
        E 49 85 41 00
        E 27 95 48 59
        E 119 95 4f 5d
        E 79 85 45 00
        E 74 85 48 00
        E 72 85 4f 00
        E 377 95 30 5d
        E 119 95 30 49
        E 122 95 30 5b
        E 237 95 3a 56
        E 242 95 38 48
        E 33 85 30 00
        E 77 85 30 00
        E 66 85 30 00
        E 66 95 42 5b
        E 65 85 3a 00
        E 54 95 45 49
        E 106 85 38 00
        E 133 95 4b 52
        E 5 85 42 00
        E 64 85 45 00
        E 53 95 4b 4f
        E 101 85 4b 00
        E 17 95 53 46
        E 49 85 4b 00
        E 77 85 53 00
        E 234 95 33 62
        E 120 95 33 4f
        E 122 95 35 67
        E 119 95 3a 69
        E 119 95 3e 5d
        E 123 95 3f 5e
        E 115 95 3e 4f
        E 37 85 33 00
        E 75 85 33 00
        E 13 95 46 4d
        E 56 85 35 00
        E 68 85 3a 00
        E 59 85 3e 00
        E 55 95 4a 50
        E 36 85 3f 00
        E 64 85 3e 00
        E 65 85 46 00
        E 74 95 4d 56
        E 80 85 4a 00
        E 139 85 4d 00
        E 378 95 32 6c
        E 125 95 32 4d
        E 240 95 38 64
        E 120 95 3d 62
        E 120 95 3e 5d
        E 118 95 40 64
        E 16 85 32 00
        E 70 85 32 00
        E 154 95 49 5d
        E 26 85 38 00
        E 55 85 3d 00
        E 37 95 4a 5d
        E 31 85 3e 00
        E 79 85 40 00
        E 133 95 51 50
        E 3 85 49 00
        E 70 85 4a 00
        E 148 85 51 00
        E 379 95 33 4b
        E 120 95 34 4d
        E 118 95 33 3d
        E 121 95 37 64
        E 121 95 3b 5b
        E 292 85 33 00
        E 45 85 34 00
        E 18 95 3e 5d
        E 60 85 33 00
        E 62 95 3f 54
        E 17 85 37 00
        E 77 85 3b 00
        E 29 95 46 69
        E 121 95 4b 62
        E 39 85 3e 00
        E 76 95 4c 4f
        E 7 85 3f 00
        E 74 85 46 00
        E 42 95 4f 5b
        E 31 85 4b 00
        E 61 85 4c 00
        E 25 95 4a 59
        E 59 85 4f 00
        E 63 95 50 49
        E 5 85 4a 00
        E 70 85 50 00
        E 165 95 30 72
        E 120 95 2c 33
        E 123 95 38 60
        E 118 95 40 59
        E 123 95 3b 4d
        E 116 95 44 4f
        E 124 95 4b 5b
        E 5 85 30 00
        E 108 85 2c 00
        E 4 95 4a 3d
        E 57 85 38 00
        E 61 95 50 52
        E 23 85 40 00
        E 56 85 3b 00
        E 73 85 4b 00
        E 5 85 44 00
        E 105 85 4a 00
        E 109 85 50 00
        E 589 95 30 70
        E 740 85 30 00
        E 944 95 50 46
        E 78 85 50 00
        E 162 95 30 3f
        E 116 95 30 3a
        E 121 95 33 41
        E 124 95 35 62
        E 114 95 3b 4d
        E 122 95 3f 52
        E 121 95 3b 4f
        E 28 85 30 00
        E 63 85 30 00
        E 30 95 3f 46
        E 56 85 33 00
        E 65 85 35 00
        E 1 95 41 56
        E 68 85 3b 00
        E 85 85 3f 00
        E 82 85 3b 00
        E 54 85 3f 00
        E 65 95 47 4f
        E 13 85 41 00
        E 112 95 4b 49
        E 99 85 47 00
        E 22 95 49 41
        E 49 85 4b 00
        E 66 95 53 4d
        E 8 85 49 00
        E 70 85 53 00
        E 162 95 30 67
        E 122 95 30 59
        E 120 95 38 56
        E 120 95 3f 56
        E 122 95 3b 46
        E 120 95 44 56
        E 143 85 30 00
        E 71 85 30 00
        E 24 95 47 49
        E 51 85 38 00
        E 51 85 3f 00
        E 16 95 50 46
        E 76 85 3b 00
        E 77 85 44 00
        E 111 85 47 00
        E 97 85 50 00
        E 604 95 33 46
        E 115 95 32 46
        E 123 95 34 54
        E 120 95 3d 56
        E 119 95 3d 50
        E 117 95 43 46
        E 124 95 49 3f
        E 31 85 33 00
        E 71 85 32 00
        E 16 95 4a 3b
        E 28 85 34 00
        E 101 85 3d 00
        E 72 85 3d 00
        E 72 85 49 00
        E 3 85 43 00
        E 117 85 4a 00
        E 689 95 2f 3f
        E 119 95 33 2f
        E 123 95 38 5b
        E 116 95 3b 62
        E 119 95 3f 4b
        E 120 95 44 4b
        E 122 95 47 5b
        E 18 85 2f 00
        E 80 85 33 00
        E 21 95 4b 46
        E 68 85 38 00
        E 44 85 3b 00
        E 11 95 50 3a
        E 58 85 3f 00
        E 84 85 44 00
        E 7 85 47 00
        E 107 85 4b 00
        E 105 85 50 00
        E 597 95 30 60
        E 122 95 32 4f
        E 116 95 35 3a
        E 124 95 32 50
        E 117 95 39 4d
        E 120 95 3b 5b
        E 125 95 3e 3d
        E 15 85 30 00
        E 84 85 32 00
        E 18 95 3f 50
        E 66 85 35 00
        E 56 95 3e 49
        E 31 85 32 00
        E 58 85 39 00
        E 28 95 45 54
        E 15 85 3b 00
        E 92 85 3e 00
        E 14 95 4c 3f
        E 45 85 3f 00
        E 71 95 4a 42
        E 6 85 3e 00
        E 71 85 45 00
        E 47 95 4b 44
        E 23 85 4c 00
        E 79 85 4a 00
        E 19 95 4a 46
        E 52 85 4b 00
        E 68 95 51 50
        E 4 85 4a 00
        E 72 85 51 00
        E 164 95 29 52
        E 118 95 30 49
        E 123 95 34 5b
        E 117 95 36 5e
        E 243 95 3c 41
        E 213 85 30 00
        E 22 95 40 54
        E 52 85 34 00
        E 69 95 4b 46
        E 9 85 36 00
        E 113 95 48 49
        E 33 85 3c 00
        E 85 95 4c 41
        E 45 85 40 00
        E 82 85 4b 00
        E 67 85 48 00
        E 75 85 4c 00
        E 24 85 29 00
        E 428 95 2e 76
        E 121 95 30 70
        E 120 95 34 69
        E 356 95 37 54
        E 216 85 30 00
        E 24 95 41 49
        E 58 85 34 00
        E 66 95 40 46
        E 116 95 40 41
        E 34 85 37 00
        E 131 85 41 00
        E 80 95 4a 4f
        E 7 85 40 00
        E 73 85 40 00
        E 141 85 4a 00
        E 3 85 2e 00
        E 133 95 4c 4b
        E 79 85 4c 00
        E 161 95 31 62
        E 121 95 30 46
        E 120 95 35 49
        E 119 95 34 59
        E 239 95 3b 4d
        E 241 85 30 00
        E 35 85 35 00
        E 87 95 3f 50
        E 5 85 34 00
        E 117 95 44 46
        E 6 85 3b 00
        E 108 95 40 49
        E 134 85 3f 00
        E 86 85 44 00
        E 25 95 4b 46
        E 23 85 40 00
        E 79 85 31 00
        E 69 85 4b 00
        E 428 95 31 54
        E 117 95 36 6b
        E 123 95 36 56
        E 356 95 3d 50
        E 101 85 31 00
        E 21 95 3d 4d
        E 56 85 36 00
        E 67 95 42 4f
        E 1 85 36 00
        E 115 95 43 4d
        E 91 85 3d 00
        E 33 95 42 44
        E 53 85 3d 00
        E 61 85 42 00
        E 3 95 49 49
        E 71 85 43 00
        E 81 85 42 00
        E 74 85 49 00
        E 17 95 49 3f
        E 116 95 4f 4f
        E 9 85 49 00
        E 69 85 4f 00
        E 165 95 2d 5b
        E 238 95 34 5b
        E 601 95 3f 56
        E 45 85 34 00
        E 74 95 3f 49
        E 119 95 46 5b
        E 120 95 44 52
        E 64 85 3f 00
        E 56 95 49 52
        E 12 85 3f 00
        E 79 85 46 00
        E 31 95 49 42
        E 24 85 44 00
        E 72 85 49 00
        E 21 85 2d 00
        E 53 85 49 00
        E 1512 95 42 50
        E 117 95 4a 4d
        E 153 85 42 00
        E 67 85 4a 00
        E 23 95 4c 52
        E 119 95 55 38
        E 6 85 4c 00
        E 69 85 55 00
        E 284 95 30 7c
        E 123 95 32 72
        E 118 95 33 69
        E 121 95 36 79
        E 118 95 39 64
        E 203 85 30 00
        E 37 95 3e 64
        E 47 85 32 00
        E 96 85 33 00
        E 72 85 36 00
        E 27 95 41 60
        E 26 85 39 00
        E 151 85 3e 00
        E 61 95 4b 5b
        E 79 85 41 00
        E 144 85 4b 00
        E 17 95 4b 59
        E 120 95 4e 54
        E 4 85 4b 00
        E 73 85 4e 00
        E 162 95 30 7d
        E 120 95 33 7a
        E 119 95 34 6b
        E 121 95 31 65
        E 381 85 30 00
        E 80 85 33 00
        E 21 95 3c 5e
        E 37 85 34 00
        E 81 95 3c 6e
        E 5 85 31 00
        E 115 95 45 5d
        E 188 85 3c 00
        E 48 85 3c 00
        E 4 95 4b 5b
        E 72 85 45 00
        E 151 85 4b 00
        E 19 95 4b 60
        E 118 95 51 60
        E 8 85 4b 00
        E 69 85 51 00
        E 164 95 31 7d
        E 119 95 30 7a
        E 118 95 33 62
        E 120 95 37 78
        E 123 95 39 7a
        E 118 95 38 69
        E 125 95 3c 67
        E 30 85 31 00
        E 64 85 30 00
        E 21 95 40 56
        E 71 85 33 00
        E 48 95 43 5b
        E 21 85 37 00
        E 58 85 39 00
        E 42 95 45 70
        E 27 85 38 00
        E 74 85 3c 00
        E 69 85 40 00
        E 78 85 43 00
        E 66 85 45 00
        E 46 95 58 62
        E 124 95 4f 62
        E 49 85 58 00
        E 76 85 4f 00
        E 471 95 34 65
        E 119 95 39 70
        E 360 95 3f 70
        E 120 95 45 69
        E 39 85 34 00
        E 83 95 47 67
        E 1 85 39 00
        E 119 95 4b 62
        E 87 85 3f 00
        E 79 85 45 00
        E 76 95 51 5e
        E 5 85 47 00
        E 68 85 4b 00
        E 148 85 51 00
        E 381 95 30 7b
        E 115 95 33 69
        E 242 95 3b 75
        E 415 85 30 00
        E 32 85 33 00
        E 149 85 3b 00
        E 0 b5 7b 00
        E 1 ff 2f 00
      >
    >
  >
  <TRACK
    NAME "Oboe"
    PEAKCOL 4282040170
    VOLPAN 1.000000 0 1 -1
    MIDIOUT -1
    ISBUS 0 0
    <ITEM
      POSITION 30.911095
      LENGTH 83.633044
      NAME "Oboe"
      VOLPAN 1 0 1 -1
      <SOURCE MIDI
        HASDATA 1 960 QN
        E 0 c6 44 00
        E 32642 96 55 34
        E 1874 86 55 00
        E 3891 96 55 2c
        E 1947 86 55 00
        E 1878 96 59 6b
        E 1916 86 59 00
        E 13 96 59 3d
        E 1873 86 59 00
        E 1962 96 49 59
        E 1931 86 49 00
        E 3838 96 4d 3f
        E 1925 86 4d 00
        E 1910 96 49 38
        E 1902 96 4f 57
        E 84 86 49 00
        E 1863 96 4e 48
        E 7 86 4f 00
        E 1886 86 4e 00
        E 3867 96 53 3d
        E 1916 96 51 38
        E 11 86 53 00
        E 1848 86 51 00
        E 59 96 4c 3d
        E 1877 86 4c 00
        E 52 96 49 31
        E 1906 86 49 00
        E 1917 96 48 50
        E 1881 86 48 00
        E 48 96 40 31
        E 1870 86 40 00
        E 39 96 47 65
        E 1916 96 4c 56
        E 64 86 47 00
        E 1892 86 4c 00
        E 1910 96 51 41
        E 1911 86 51 00
        E 9605 96 4b 60
        E 1942 86 4b 00
        E 5716 96 51 65
        E 1920 86 51 00
        E 3855 96 5c 5d
        E 1872 86 5c 00
        E 1976 96 56 62
        E 1806 86 56 00
        E 2006 96 58 5d
        E 1829 86 58 00
        E 0 b6 7b 00
        E 1 ff 2f 00
      >
    >
  >
  <TRACK
    NAME "Horns"
    PEAKCOL 4290740026
    VOLPAN 1.000000 0 1 -1
    MIDIOUT -1
    ISBUS 0 0
    <ITEM
      POSITION 43.625823
      LENGTH 83.677594
      NAME "Horns"
      VOLPAN 1 0 1 -1
      <SOURCE MIDI
        HASDATA 1 960 QN
        E 0 c7 3c 00
        E 46069 97 34 5e
        E 1948 97 31 5e
        E 25 87 34 00
        E 1848 87 31 00
        E 5813 97 31 4f
        E 1999 87 31 00
        E 5678 97 36 50
        E 1914 97 31 46
        E 20 87 36 00
        E 1884 87 31 00
        E 1939 97 35 3a
        E 1916 97 3c 3a
        E 50 87 35 00
        E 1811 87 3c 00
        E 66 97 30 2f
        E 1936 87 30 00
        E 1887 97 34 49
        E 1848 87 34 00
        E 72 97 38 31
        E 1885 87 38 00
        E 30 97 36 4f
        E 1902 87 36 00
        E 1936 97 31 54
        E 1880 87 31 00
        E 51 97 37 49
        E 1835 87 37 00
        E 90 97 31 50
        E 1916 87 31 00
        E 5792 97 30 69
        E 1980 87 30 00
        E 11434 97 30 65
        E 1900 97 35 75
        E 68 87 30 00
        E 1793 87 35 00
        E 11589 97 3b 65
        E 1913 97 3e 6e
        E 36 87 3b 00
        E 1831 87 3e 00
        E 3895 97 3c 62
        E 1848 87 3c 00
        E 0 b7 7b 00
        E 1 ff 2f 00
      >
    >
  >
  <TRACK
    NAME "Bass"
    PEAKCOL 4286528191
    VOLPAN 1.000000 0 1 -1
    MIDIOUT -1
    ISBUS 0 0
    <ITEM
      POSITION 0.003448
      LENGTH 98.192404
      NAME "Bass"
      VOLPAN 1 0 1 -1
      <SOURCE MIDI
        HASDATA 1 960 QN
        E 0 c8 2b 00
        E 4 98 25 44
        E 878 88 25 00
        E 76 98 28 41
        E 863 88 28 00
        E 105 98 25 3d
        E 852 88 25 00
        E 106 98 24 3b
        E 877 88 24 00
        E 82 98 25 42
        E 839 88 25 00
        E 121 98 20 52
        E 858 88 20 00
        E 102 98 24 4d
        E 873 88 24 00
        E 80 98 1d 46
        E 845 88 1d 00
        E 117 98 24 3f
        E 867 88 24 00
        E 99 98 19 41
        E 864 88 19 00
        E 88 98 31 4f
        E 852 88 31 00
        E 117 98 25 52
        E 871 88 25 00
        E 87 98 25 62
        E 856 88 25 00
        E 103 98 25 60
        E 882 88 25 00
        E 78 98 25 59
        E 842 88 25 00
        E 116 98 1f 5e
        E 865 88 1f 00
        E 99 98 24 57
        E 858 88 24 00
        E 96 98 25 49
        E 876 88 25 00
        E 86 98 25 57
        E 857 88 25 00
        E 105 98 25 60
        E 879 88 25 00
        E 79 98 25 59
        E 874 88 25 00
        E 82 98 24 59
        E 859 88 24 00
        E 112 98 24 5e
        E 871 88 24 00
        E 83 98 26 59
        E 853 88 26 00
        E 103 98 25 59
        E 893 88 25 00
        E 71 98 24 4f
        E 883 88 24 00
        E 77 98 26 42
        E 865 88 26 00
        E 93 98 24 4f
        E 872 88 24 00
        E 91 98 33 3b
        E 882 88 33 00
        E 78 98 29 62
        E 862 88 29 00
        E 98 98 33 50
        E 852 88 33 00
        E 102 98 31 52
        E 845 88 31 00
        E 120 98 2f 44
        E 879 88 2f 00
        E 87 98 2f 54
        E 882 88 2f 00
        E 76 98 31 3d
        E 873 88 31 00
        E 88 98 31 5d
        E 868 88 31 00
        E 86 98 32 5d
        E 851 88 32 00
        E 115 98 31 57
        E 855 88 31 00
        E 97 98 30 67
        E 885 88 30 00
        E 81 98 30 67
        E 879 88 30 00
        E 79 98 30 44
        E 865 88 30 00
        E 98 98 2d 54
        E 857 88 2d 00
        E 97 98 34 48
        E 881 88 34 00
        E 80 98 32 5d
        E 883 88 32 00
        E 77 98 32 76
        E 851 88 32 00
        E 110 98 30 6b
        E 846 88 30 00
        E 113 98 30 79
        E 863 88 30 00
        E 99 98 30 6e
        E 882 88 30 00
        E 83 98 30 56
        E 872 88 30 00
        E 83 98 34 6c
        E 863 88 34 00
        E 102 98 2f 62
        E 850 88 2f 00
        E 101 98 31 67
        E 884 88 31 00
        E 76 98 35 6b
        E 861 88 35 00
        E 100 98 26 73
        E 868 88 26 00
        E 90 98 2f 72
        E 856 88 2f 00
        E 114 98 31 69
        E 860 88 31 00
        E 93 98 32 4d
        E 875 88 32 00
        E 92 98 2a 6e
        E 861 88 2a 00
        E 95 98 30 52
        E 850 88 30 00
        E 107 98 31 65
        E 843 88 31 00
        E 112 98 33 62
        E 851 88 33 00
        E 118 98 2b 70
        E 871 88 2b 00
        E 88 98 2f 67
        E 878 88 2f 00
        E 82 98 2f 73
        E 875 88 2f 00
        E 88 98 2f 50
        E 880 88 2f 00
        E 70 98 24 70
        E 879 88 24 00
        E 85 98 2f 5b
        E 854 88 2f 00
        E 108 98 30 70
        E 882 88 30 00
        E 76 98 32 6c
        E 873 88 32 00
        E 93 98 34 6b
        E 868 88 34 00
        E 91 98 30 42
        E 874 88 30 00
        E 83 98 30 75
        E 874 88 30 00
        E 88 98 31 3d
        E 872 88 31 00
        E 84 98 36 76
        E 855 88 36 00
        E 106 98 30 44
        E 870 88 30 00
        E 94 98 26 73
        E 861 88 26 00
        E 96 98 2f 3d
        E 855 88 2f 00
        E 107 98 30 59
        E 891 88 30 00
        E 71 98 31 54
        E 865 88 31 00
        E 98 98 31 62
        E 865 88 31 00
        E 88 98 33 4f
        E 852 88 33 00
        E 103 98 2b 6c
        E 865 88 2b 00
        E 101 98 2f 38
        E 866 88 2f 00
        E 94 98 2f 67
        E 860 88 2f 00
        E 102 98 31 49
        E 870 88 31 00
        E 86 98 2b 59
        E 861 88 2b 00
        E 101 98 2f 46
        E 855 88 2f 00
        E 104 98 33 5b
        E 864 88 33 00
        E 94 98 30 64
        E 885 88 30 00
        E 76 98 34 6c
        E 886 88 34 00
        E 73 98 2f 5b
        E 862 88 2f 00
        E 103 98 2b 62
        E 843 88 2b 00
        E 110 98 32 64
        E 858 88 32 00
        E 109 98 29 69
        E 861 88 29 00
        E 100 98 30 62
        E 876 88 30 00
        E 80 98 30 5d
        E 864 88 30 00
        E 92 98 30 67
        E 856 88 30 00
        E 111 98 2b 67
        E 869 88 2b 00
        E 84 98 30 7d
        E 857 88 30 00
        E 106 98 33 7b
        E 868 88 33 00
        E 89 98 30 7b
        E 866 88 30 00
        E 97 98 2b 79
        E 866 88 2b 00
        E 97 98 31 76
        E 868 88 31 00
        E 91 98 26 6c
        E 867 88 26 00
        E 92 98 30 78
        E 864 88 30 00
        E 100 98 2b 7d
        E 848 88 2b 00
        E 106 98 30 7b
        E 863 88 30 00
        E 96 98 31 7b
        E 870 88 31 00
        E 0 b8 7b 00
        E 1 ff 2f 00
      >
    >
  >
  <TRACK
    NAME "Pedal"
    PEAKCOL 4284506208
    VOLPAN 1.000000 0 1 -1
    MIDIOUT -1
    ISBUS 0 0
    <ITEM
      POSITION 0.003674
      LENGTH 98.251248
      NAME "Pedal"
      VOLPAN 1 0 1 -1
      <SOURCE MIDI
        HASDATA 1 960 QN
        E 0 ca 2b 00
        E 4 9a 0f 26
        E 3829 9a 0f 28
        E 5 8a 0f 00
        E 3825 8a 0f 00
        E 14 9a 0d 21
        E 3817 8a 0d 00
        E 24 9a 0c 3a
        E 3846 9a 0d 41
        E 17 8a 0c 00
        E 3820 9a 0e 3b
        E 36 8a 0d 00
        E 3806 9a 0d 3f
        E 2 8a 0e 00
        E 3770 8a 0d 00
        E 62 9a 0f 3b
        E 3801 8a 0f 00
        E 43 9a 0f 31
        E 3806 8a 0f 00
        E 26 9a 0d 3b
        E 3848 9a 1a 25
        E 32 8a 0d 00
        E 3783 8a 1a 00
        E 22 9a 0d 59
        E 3831 8a 0d 00
        E 11 9a 0c 41
        E 3823 8a 0c 00
        E 22 9a 0e 44
        E 3838 9a 0d 41
        E 9 8a 0e 00
        E 3830 9a 19 2f
        E 57 8a 0d 00
        E 3766 8a 19 00
        E 13 9a 0d 50
        E 3839 9a 0e 56
        E 1 8a 0d 00
        E 3837 9a 0e 57
        E 24 8a 0e 00
        E 3819 9a 0f 49
        E 18 8a 0e 00
        E 3796 8a 0f 00
        E 23 9a 0e 42
        E 3830 8a 0e 00
        E 14 9a 0e 48
        E 3840 9a 0c 41
        E 21 8a 0e 00
        E 3815 9a 0e 49
        E 40 8a 0c 00
        E 3804 9a 0e 4b
        E 13 8a 0e 00
        E 3807 8a 0e 00
        E 22 9a 0d 60
        E 3838 9a 0e 65
        E 46 8a 0d 00
        E 3767 8a 0e 00
        E 0 ba 7b 00
        E 1 ff 2f 00
      >
    >
  >
>
