<REAPER_PROJECT 0.1 "7.0" 1700000000
  TEMPO 96.000000 4 4
  SAMPLERATE 48000 0 0
  RENDER_FILE ""
  RENDER_FMT 0 2 0
  RENDER_1X 0
  RENDER_RANGE 1 0 85.767248 0 0
  RENDER_RESAMPLE 3 0 1
  <MASTERTRACK
    VOLPAN 1 0 1 -1
    DEFCHAN 0
  >
  <TRACK
    NAME "Lead"
    PEAKCOL 4284506208
    VOLPAN 1.000000 0 1 -1
    MIDIOUT -1
    ISBUS 0 0
    <ITEM
      POSITION 0.399868
      LENGTH 82.828902
      NAME "Lead"
      VOLPAN 1 0 1 -1
      <SOURCE MIDI
        HASDATA 1 960 QN
        E 0 c0 28 00
        E 614 90 4a 51
        E 236 80 4a 00
        E 132 90 48 71
        E 939 80 48 00
        E 1006 90 4c 71
        E 829 80 4c 00
        E 176 90 4b 75
        E 826 80 4b 00
        E 2092 90 4b 4f
        E 744 80 4b 00
        E 3434 90 4d 70
        E 418 80 4d 00
        E 1311 90 4c 66
        E 830 80 4c 00
        E 2837 90 4a 37
        E 468 80 4a 00
        E 271 90 47 5c
        E 827 80 47 00
        E 171 90 48 6b
        E 808 80 48 00
        E 2117 90 47 75
        E 837 80 47 00
        E 144 90 4b 66
        E 744 80 4b 00
        E 392 90 44 2c
        E 841 90 4b 39
        E 38 80 44 00
        E 901 80 4b 00
        E 1045 90 4a 59
        E 839 80 4a 00
        E 651 90 49 4c
        E 219 80 49 00
        E 2079 90 57 54
        E 225 80 57 00
        E 407 90 4c 63
        E 599 90 51 49
        E 167 80 4c 00
        E 84 80 51 00
        E 2074 90 54 59
        E 780 80 54 00
        E 181 90 4b 42
        E 863 80 4b 00
        E 1366 90 50 49
        E 425 80 50 00
        E 1279 90 55 24
        E 555 80 55 00
        E 10252 90 4c 24
        E 597 80 4c 00
        E 1367 90 58 42
        E 833 80 58 00
        E 390 90 56 49
        E 653 80 56 00
        E 318 90 50 4e
        E 762 90 50 2f
        E 7 80 50 00
        E 687 80 50 00
        E 1754 90 57 34
        E 634 80 57 00
        E 2903 90 51 4f
        E 380 90 55 42
        E 442 80 51 00
        E 266 80 55 00
        E 781 90 57 34
        E 955 80 57 00
        E 20 90 4b 3f
        E 481 90 54 34
        E 254 80 54 00
        E 174 80 4b 00
        E 68 90 4d 4e
        E 818 80 4d 00
        E 174 90 56 54
        E 817 80 56 00
        E 3115 90 55 3a
        E 221 90 49 3c
        E 243 90 48 25
        E 4 80 49 00
        E 288 80 55 00
        E 1064 90 4a 32
        E 3 80 48 00
        E 56 90 58 20
        E 50 90 56 17
        E 182 80 58 00
        E 168 80 4a 00
        E 76 80 56 00
        E 555 90 55 49
        E 857 80 55 00
        E 130 90 56 49
        E 370 90 4e 22
        E 222 80 4e 00
        E 232 80 56 00
        E 280 90 4a 3f
        E 241 80 4a 00
        E 136 90 4b 42
        E 426 80 4b 00
        E 72 90 4b 46
        E 253 80 4b 00
        E 229 90 56 1f
        E 619 90 4a 32
        E 192 80 56 00
        E 60 80 4a 00
        E 348 90 4d 2c
        E 200 80 4d 00
        E 558 90 4b 3c
        E 247 90 4d 3e
        E 237 90 3e 42
        E 6 80 4d 00
        E 436 80 4b 00
        E 454 80 3e 00
        E 339 90 4a 22
        E 201 80 4a 00
        E 2007 90 4c 7a
        E 788 80 4c 00
        E 1181 90 48 47
        E 674 80 48 00
        E 778 90 4b 42
        E 373 80 4b 00
        E 146 90 4b 60
        E 241 80 4b 00
        E 235 90 49 5c
        E 219 80 49 00
        E 266 90 4b 73
        E 916 80 4b 00
        E 183 90 4a 56
        E 429 80 4a 00
        E 779 90 43 65
        E 628 90 3f 59
        E 190 80 43 00
        E 652 80 3f 00
        E 156 90 48 46
        E 204 80 48 00
        E 758 90 4b 6b
        E 746 80 4b 00
        E 351 90 47 65
        E 710 80 47 00
        E 159 90 45 7c
        E 898 80 45 00
        E 95 90 4b 78
        E 788 80 4b 00
        E 186 90 49 53
        E 844 80 49 00
        E 132 90 4a 2d
        E 220 80 4a 00
        E 767 90 49 63
        E 831 80 49 00
        E 156 90 47 53
        E 216 80 47 00
        E 767 90 4a 5b
        E 371 80 4a 00
        E 111 90 48 4f
        E 381 80 48 00
        E 616 90 4f 58
        E 909 80 4f 00
        E 542 90 4a 5e
        E 825 80 4a 00
        E 176 90 41 58
        E 414 80 41 00
        E 1059 90 4a 73
        E 853 80 4a 00
        E 119 90 4a 60
        E 858 80 4a 00
        E 135 90 4b 69
        E 770 80 4b 00
        E 196 90 4c 66
        E 741 90 40 34
        E 14 80 4c 00
        E 716 90 40 7a
        E 19 80 40 00
        E 231 90 43 70
        E 244 80 43 00
        E 5 90 47 71
        E 234 80 47 00
        E 6 90 4b 60
        E 195 80 40 00
        E 50 80 4b 00
        E 9 90 4e 41
        E 817 80 4e 00
        E 164 90 48 78
        E 494 90 4d 75
        E 239 80 4d 00
        E 134 80 48 00
        E 116 90 4c 65
        E 888 80 4c 00
        E 324 90 4c 61
        E 853 80 4c 00
        E 13 90 4a 3a
        E 1660 80 4a 00
        E 5818 90 38 60
        E 480 90 3c 58
        E 480 90 3f 54
        E 480 80 38 00
        E 0 80 3c 00
        E 480 80 3f 00
        E 1920 90 31 69
        E 0 90 38 65
        E 2880 80 31 00
        E 0 80 38 00
        E 0 b0 7b 00
        E 1 ff 2f 00
      >
    >
  >
  <TRACK
    NAME "Violin"
    PEAKCOL 4284186559
    VOLPAN 1.000000 0 1 -1
    MIDIOUT -1
    ISBUS 0 0
    <ITEM
      POSITION 1.245865
      LENGTH 73.822901
      NAME "Violin"
      VOLPAN 1 0 1 -1
      <SOURCE MIDI
        HASDATA 1 960 QN
        E 0 c1 28 00
        E 1914 91 4c 56
        E 1913 81 4c 00
        E 36 91 4e 6d
        E 1982 81 4e 00
        E 1860 91 58 54
        E 1804 81 58 00
        E 2019 91 57 42
        E 1857 81 57 00
        E 58 91 58 4e
        E 1789 81 58 00
        E 153 91 57 27
        E 1807 81 57 00
        E 98 91 58 4f
        E 1859 81 58 00
        E 1983 91 58 42
        E 1920 91 4e 24
        E 147 81 58 00
        E 1772 91 55 27
        E 57 81 4e 00
        E 1774 81 55 00
        E 109 91 5d 4b
        E 1914 81 5d 00
        E 7677 91 56 2d
        E 1915 81 56 00
        E 1933 91 64 2f
        E 1910 91 57 25
        E 1 81 64 00
        E 1893 91 56 5b
        E 93 81 57 00
        E 1880 81 56 00
        E 3834 91 56 24
        E 1877 81 56 00
        E 1951 91 64 32
        E 1897 81 64 00
        E 15 91 56 27
        E 1776 81 56 00
        E 5888 91 57 37
        E 2016 81 57 00
        E 1830 91 5f 2f
        E 1700 81 5f 00
        E 2127 91 53 47
        E 1974 81 53 00
        E 1878 91 65 20
        E 1917 91 63 1f
        E 16 81 65 00
        E 1879 81 63 00
        E 41 91 60 1f
        E 1915 91 4c 39
        E 29 81 60 00
        E 1892 91 57 47
        E 267 81 4c 00
        E 1609 81 57 00
        E 36 91 58 4f
        E 1930 91 56 37
        E 150 81 58 00
        E 1760 91 51 42
        E 3 81 56 00
        E 1926 91 64 44
        E 3 81 51 00
        E 1883 81 64 00
        E 16 91 58 31
        E 1920 91 57 3c
        E 54 81 58 00
        E 1881 91 58 46
        E 26 81 57 00
        E 1807 81 58 00
        E 55 91 5a 4b
        E 1831 81 5a 00
        E 111 91 5b 49
        E 1825 81 5b 00
        E 116 91 55 37
        E 1751 81 55 00
        E 159 91 56 34
        E 1909 91 60 37
        E 123 81 56 00
        E 1809 91 59 32
        E 129 81 60 00
        E 1704 81 59 00
        E 76 91 5c 32
        E 1780 81 5c 00
        E 140 91 56 3c
        E 1809 81 56 00
        E 109 91 57 39
        E 1866 81 57 00
        E 0 b1 7b 00
        E 1 ff 2f 00
      >
    >
  >
  <TRACK
    NAME "Strings"
    PEAKCOL 4284186559
    VOLPAN 1.000000 0 1 -1
    MIDIOUT -1
    ISBUS 0 0
    <ITEM
      POSITION 0.000000
      LENGTH 75.215591
      NAME "Strings"
      VOLPAN 1 0 1 -1
      <SOURCE MIDI
        HASDATA 1 960 QN
        E 0 c2 30 00
        E 0 92 35 2c
        E 0 92 3c 27
        E 1845 82 3c 00
        E 65 92 3b 42
        E 11 92 3b 34
        E 67 82 35 00
        E 1764 82 3b 00
        E 41 82 3b 00
        E 45 92 3f 4e
        E 2 92 34 51
        E 12 92 3f 3c
        E 1743 82 3f 00
        E 173 92 3e 3e
        E 1 92 42 49
        E 13 82 3f 00
        E 39 82 34 00
        E 1644 82 3e 00
        E 215 92 3b 3c
        E 5 82 42 00
        E 7 92 32 35
        E 1906 92 3e 4c
        E 56 82 3b 00
        E 22 82 32 00
        E 1812 82 3e 00
        E 27 92 3b 44
        E 1 92 32 51
        E 1 92 3f 5b
        E 17 92 41 32
        E 1841 82 32 00
        E 56 92 3e 47
        E 1 92 3f 5b
        E 13 82 3b 00
        E 2 92 31 37
        E 2 92 3d 3c
        E 24 82 3f 00
        E 119 82 41 00
        E 1691 82 31 00
        E 35 82 3f 00
        E 35 82 3e 00
        E 0 92 3c 39
        E 7 92 3b 2a
        E 12 82 3d 00
        E 1894 82 3c 00
        E 53 82 3b 00
        E 1871 92 32 4b
        E 13 92 3b 2d
        E 11 92 3b 2d
        E 1896 92 3d 47
        E 6 92 3d 3e
        E 1 92 3d 47
        E 2 92 3d 41
        E 10 82 3b 00
        E 38 82 32 00
        E 65 82 3b 00
        E 1738 82 3d 00
        E 34 82 3d 00
        E 25 92 3d 3a
        E 7 92 3c 4c
        E 5 92 35 1d
        E 53 82 3d 00
        E 6 82 3d 00
        E 1773 82 3d 00
        E 63 82 3c 00
        E 13 92 26 41
        E 8 92 3c 49
        E 4 92 3f 27
        E 14 82 35 00
        E 118 82 3f 00
        E 11 92 40 1a
        E 1612 82 40 00
        E 136 82 3c 00
        E 15 92 36 2d
        E 3 92 28 3f
        E 4 92 35 34
        E 7 92 33 35
        E 8 92 3f 41
        E 28 82 26 00
        E 1817 82 36 00
        E 17 82 3f 00
        E 47 92 32 59
        E 4 92 3f 2a
        E 2 92 31 2c
        E 4 92 37 27
        E 1 92 3f 29
        E 6 92 35 24
        E 22 82 33 00
        E 91 82 28 00
        E 40 82 35 00
        E 1628 82 3f 00
        E 80 82 31 00
        E 18 82 3f 00
        E 18 92 3c 53
        E 28 82 37 00
        E 60 82 32 00
        E 78 82 35 00
        E 1742 82 3c 00
        E 11 92 3c 3e
        E 20 92 39 29
        E 2 92 35 1f
        E 1746 82 39 00
        E 128 82 3c 00
        E 22 92 32 2f
        E 10 92 3e 3e
        E 10 92 3e 3e
        E 2 92 3c 2a
        E 64 82 35 00
        E 1756 82 3c 00
        E 3 82 32 00
        E 81 92 37 56
        E 7 82 3e 00
        E 6 92 25 20
        E 3 92 3d 2a
        E 3 92 3c 29
        E 6 82 3e 00
        E 1776 82 3d 00
        E 111 82 37 00
        E 5 92 33 20
        E 2 92 3d 2a
        E 3 92 32 18
        E 2 92 33 25
        E 2 92 32 29
        E 11 82 3c 00
        E 1 92 3e 2c
        E 64 82 25 00
        E 1700 82 33 00
        E 145 92 3c 29
        E 3 92 3c 24
        E 1 82 33 00
        E 0 92 3c 29
        E 7 92 42 20
        E 0 92 3d 1f
        E 31 82 32 00
        E 56 82 3e 00
        E 6 82 32 00
        E 56 82 3d 00
        E 1560 82 42 00
        E 86 82 3c 00
        E 24 82 3c 00
        E 44 82 3c 00
        E 32 92 3d 49
        E 15 92 40 25
        E 2 92 3e 24
        E 6 92 3d 29
        E 1 92 3c 1c
        E 16 82 3d 00
        E 1835 82 3c 00
        E 3 82 40 00
        E 47 82 3d 00
        E 2 82 3e 00
        E 3 92 3f 4c
        E 4 92 37 31
        E 3 92 19 29
        E 2 92 32 3c
        E 87 82 3d 00
        E 1827 82 19 00
        E 0 92 3d 18
        E 48 82 32 00
        E 29 82 3f 00
        E 149 82 37 00
        E 1681 92 3d 29
        E 6 92 3d 29
        E 0 92 33 24
        E 2 92 3d 2d
        E 5 92 3a 20
        E 43 82 3d 00
        E 1819 82 3a 00
        E 42 92 34 2a
        E 4 92 38 3a
        E 4 82 3d 00
        E 1 92 38 2f
        E 5 92 3e 3e
        E 1 92 32 2c
        E 1 82 33 00
        E 1 82 3d 00
        E 5 92 36 29
        E 4 92 3d 25
        E 1 92 2f 20
        E 89 82 3d 00
        E 1684 82 34 00
        E 34 82 38 00
        E 29 82 3d 00
        E 11 82 3e 00
        E 51 92 3f 32
        E 4 92 33 3c
        E 1 92 33 3c
        E 12 82 2f 00
        E 0 92 3f 22
        E 3 92 3e 29
        E 18 82 32 00
        E 44 82 38 00
        E 9 82 36 00
        E 1829 92 32 25
        E 3 92 32 2d
        E 6 92 32 24
        E 15 82 33 00
        E 0 92 37 18
        E 34 82 33 00
        E 2 82 3f 00
        E 20 82 3f 00
        E 231 82 3e 00
        E 1433 82 32 00
        E 160 82 32 00
        E 25 92 3d 1c
        E 1 92 40 2c
        E 1 92 3d 1c
        E 7 92 27 18
        E 2 92 3d 12
        E 27 82 32 00
        E 1 82 37 00
        E 1725 82 3d 00
        E 39 82 3d 00
        E 67 82 27 00
        E 16 82 40 00
        E 29 92 3e 1f
        E 1 92 3f 2f
        E 10 92 32 1a
        E 5 92 3c 18
        E 0 92 3d 17
        E 3 92 3c 18
        E 51 82 3d 00
        E 1737 82 3f 00
        E 51 82 3c 00
        E 59 92 3f 32
        E 3 92 3e 46
        E 0 92 3e 46
        E 6 92 3f 31
        E 0 92 40 34
        E 7 82 3c 00
        E 6 92 3e 2a
        E 57 82 3d 00
        E 19 82 3e 00
        E 81 82 32 00
        E 1542 82 3e 00
        E 48 82 3e 00
        E 59 82 3f 00
        E 18 82 3e 00
        E 74 92 3e 47
        E 11 92 3d 27
        E 1 92 3d 1c
        E 2 92 3d 27
        E 10 92 3e 20
        E 10 82 40 00
        E 8 82 3f 00
        E 1795 82 3e 00
        E 38 82 3d 00
        E 44 92 27 1f
        E 3 92 3c 1f
        E 1 92 40 37
        E 6 92 38 32
        E 9 82 3d 00
        E 18 82 3d 00
        E 16 82 3e 00
        E 1722 82 3c 00
        E 123 82 38 00
        E 20 92 3e 2d
        E 5 92 3f 39
        E 3 92 3f 39
        E 5 92 31 13
        E 14 92 24 22
        E 106 82 27 00
        E 48 82 40 00
        E 1698 82 31 00
        E 42 92 3f 42
        E 0 92 3f 34
        E 1 92 3f 37
        E 10 92 3d 47
        E 0 92 2f 1f
        E 0 92 3f 2d
        E 7 92 39 2a
        E 28 82 24 00
        E 11 82 3f 00
        E 30 82 3e 00
        E 42 82 3f 00
        E 1655 82 3f 00
        E 18 82 3f 00
        E 116 92 3f 41
        E 2 92 3c 3a
        E 3 82 3d 00
        E 0 92 3d 3a
        E 8 92 3d 44
        E 1 92 3d 1f
        E 4 92 3d 1f
        E 2 92 2a 1f
        E 9 92 3c 1a
        E 13 82 2f 00
        E 21 82 39 00
        E 49 82 3f 00
        E 92 82 3f 00
        E 1619 82 3f 00
        E 46 82 3d 00
        E 25 82 3d 00
        E 27 92 32 35
        E 1 92 33 29
        E 6 92 32 35
        E 6 92 40 1c
        E 2 92 3d 13
        E 8 92 3e 15
        E 5 82 2a 00
        E 35 82 3c 00
        E 12 82 3d 00
        E 168 82 3d 00
        E 85 82 3c 00
        E 1507 82 3d 00
        E 59 82 40 00
        E 23 82 33 00
        E 12 92 2b 2f
        E 1 92 3f 15
        E 1 92 3e 25
        E 1 92 3e 34
        E 0 92 31 15
        E 5 92 3e 13
        E 6 92 32 12
        E 8 82 32 00
        E 8 82 32 00
        E 3 82 3e 00
        E 1652 82 3e 00
        E 181 82 3e 00
        E 26 82 2b 00
        E 1 82 32 00
        E 22 92 32 34
        E 1 92 3e 32
        E 5 82 31 00
        E 3 92 3e 18
        E 2 92 3d 13
        E 1 92 3d 13
        E 0 92 3e 32
        E 6 92 3e 18
        E 0 92 3c 13
        E 70 82 3f 00
        E 29 82 3e 00
        E 1755 82 3d 00
        E 7 82 3e 00
        E 5 82 3d 00
        E 23 82 3c 00
        E 21 92 3e 2d
        E 4 92 3e 1f
        E 1 92 27 1c
        E 5 92 3f 22
        E 0 92 3f 22
        E 3 92 3f 1d
        E 3 92 3e 2d
        E 0 92 33 1d
        E 3 82 3e 00
        E 49 82 3e 00
        E 18 82 32 00
        E 6 82 3e 00
        E 1625 82 3e 00
        E 110 82 3e 00
        E 22 82 3f 00
        E 13 82 33 00
        E 20 82 3f 00
        E 13 82 3e 00
        E 19 92 3c 17
        E 4 92 3d 31
        E 7 92 2b 12
        E 1 92 3c 17
        E 1 92 3d 12
        E 6 92 27 13
        E 1 92 3c 17
        E 1 92 3e 17
        E 32 82 27 00
        E 83 82 3f 00
        E 1634 82 3e 00
        E 28 82 3c 00
        E 64 82 3d 00
        E 11 82 2b 00
        E 54 92 3b 35
        E 2 92 3c 32
        E 8 92 3c 32
        E 2 82 3c 00
        E 2 92 25 35
        E 0 92 3b 2d
        E 91 82 27 00
        E 2 82 3c 00
        E 64 82 3d 00
        E 1584 82 3c 00
        E 12 82 3b 00
        E 51 82 25 00
        E 94 92 31 51
        E 0 92 3c 65
        E 5 92 3d 49
        E 0 92 3c 41
        E 3 92 3c 65
        E 4 92 2f 39
        E 3 82 3b 00
        E 3 92 3d 37
        E 1 92 3f 39
        E 19 82 3c 00
        E 1771 82 3c 00
        E 79 82 2f 00
        E 21 82 3c 00
        E 6 92 34 32
        E 4 92 3f 46
        E 1 82 3d 00
        E 3 92 40 44
        E 4 92 31 3e
        E 0 92 3a 4c
        E 3 82 31 00
        E 0 92 3d 44
        E 5 92 3b 47
        E 0 92 3f 3a
        E 39 82 3c 00
        E 27 82 3f 00
        E 17 82 3d 00
        E 1720 82 3f 00
        E 17 82 3a 00
        E 56 82 3d 00
        E 24 92 30 42
        E 3 82 31 00
        E 3 92 26 47
        E 2 92 30 47
        E 1 92 24 2c
        E 2 92 26 44
        E 3 92 3d 31
        E 3 92 3d 31
        E 2 92 3e 29
        E 4 82 3f 00
        E 19 82 34 00
        E 64 82 3b 00
        E 56 82 40 00
        E 1582 82 3e 00
        E 169 82 26 00
        E 7 92 3e 58
        E 0 92 2b 56
        E 10 92 3d 56
        E 1 92 3e 4f
        E 3 92 3c 2f
        E 2 92 2a 37
        E 1 92 3d 56
        E 4 82 24 00
        E 0 92 3d 25
        E 4 82 30 00
        E 30 82 3d 00
        E 37 82 30 00
        E 10 82 26 00
        E 21 82 3d 00
        E 1647 82 3c 00
        E 64 82 3e 00
        E 6 82 3d 00
        E 13 82 2b 00
        E 25 82 3d 00
        E 9 82 3e 00
        E 35 92 32 39
        E 0 92 3c 35
        E 2 92 3d 37
        E 5 92 3f 47
        E 2 92 3c 35
        E 2 92 3d 37
        E 2 82 2a 00
        E 6 92 40 35
        E 6 92 3d 32
        E 183 82 3d 00
        E 1485 82 3d 00
        E 82 82 3c 00
        E 35 82 40 00
        E 62 82 3f 00
        E 19 82 32 00
        E 14 82 3d 00
        E 4 82 3d 00
        E 8 92 33 51
        E 3 92 3c 61
        E 2 92 3c 58
        E 8 92 3c 59
        E 0 92 3c 24
        E 7 92 3c 24
        E 6 92 36 2a
        E 219 82 3c 00
        E 1578 82 33 00
        E 30 82 3c 00
        E 34 82 3c 00
        E 13 82 3c 00
        E 31 92 3c 46
        E 0 92 3c 44
        E 1 92 48 60
        E 1 92 49 53
        E 5 92 27 31
        E 3 92 3d 2d
        E 3 92 3d 2f
        E 31 82 3c 00
        E 5 82 36 00
        E 99 82 3c 00
        E 1669 82 27 00
        E 25 82 3d 00
        E 50 82 3d 00
        E 19 92 3c 4c
        E 0 92 3d 56
        E 1 92 3c 5c
        E 2 92 31 49
        E 4 92 3c 5c
        E 1 82 49 00
        E 6 92 3c 42
        E 56 82 48 00
        E 10 82 3c 00
        E 5 82 3c 00
        E 1752 82 3d 00
        E 43 82 3c 00
        E 3 82 3c 00
        E 23 82 31 00
        E 12 92 3f 3f
        E 2 92 3d 3a
        E 6 92 3e 2f
        E 1 92 31 32
        E 2 92 3e 3f
        E 5 92 37 51
        E 2 92 3d 4c
        E 56 82 3c 00
        E 12 82 3c 00
        E 1718 82 3f 00
        E 73 82 3d 00
        E 30 82 31 00
        E 10 82 3d 00
        E 5 92 3e 5c
        E 6 92 32 5e
        E 3 92 3c 5c
        E 3 92 3d 37
        E 0 92 3d 3a
        E 1 92 42 31
        E 67 82 3e 00
        E 17 82 37 00
        E 7 82 3e 00
        E 1737 82 32 00
        E 37 82 3d 00
        E 52 92 3c 47
        E 0 92 37 42
        E 6 92 3d 2f
        E 3 92 35 2d
        E 6 82 3e 00
        E 0 92 3e 35
        E 1 82 3d 00
        E 1 82 42 00
        E 108 82 3c 00
        E 1631 82 3d 00
        E 94 82 35 00
        E 65 92 3d 46
        E 2 92 3c 47
        E 5 92 3f 2d
        E 5 92 44 32
        E 3 92 3c 2c
        E 4 92 38 32
        E 1 92 38 32
        E 1 92 38 2d
        E 11 82 3e 00
        E 19 82 3c 00
        E 26 82 37 00
        E 1626 82 3f 00
        E 88 82 3c 00
        E 43 82 38 00
        E 55 82 38 00
        E 19 82 38 00
        E 14 92 39 47
        E 2 92 39 5c
        E 3 92 35 32
        E 2 92 39 31
        E 15 82 3d 00
        E 59 82 44 00
        E 48 82 3c 00
        E 1763 82 39 00
        E 20 92 2a 4b
        E 3 82 39 00
        E 0 92 34 5c
        E 1 92 40 65
        E 9 92 2c 29
        E 1 92 3b 2c
        E 12 82 39 00
        E 0 92 37 2d
        E 122 82 35 00
        E 1693 82 2a 00
        E 6 82 2c 00
        E 72 92 3e 3e
        E 4 92 3c 47
        E 5 92 3e 3e
        E 1 92 3d 5c
        E 2 92 3c 47
        E 2 92 3e 18
        E 58 82 34 00
        E 2 82 40 00
        E 17 82 37 00
        E 11 82 3b 00
        E 1551 82 3c 00
        E 182 82 3c 00
        E 23 82 3d 00
        E 33 82 3e 00
        E 39 92 3e 4f
        E 6 92 3d 37
        E 11 92 3e 4f
        E 1 92 3e 34
        E 8 82 3e 00
        E 21 82 3e 00
        E 1781 82 3d 00
        E 45 82 3e 00
        E 36 92 33 49
        E 4 92 3e 61
        E 13 92 3f 37
        E 1 92 3f 37
        E 4 92 28 2f
        E 4 92 38 2d
        E 21 82 3e 00
        E 13 82 3e 00
        E 1814 82 3e 00
        E 15 82 3f 00
        E 5 82 38 00
        E 3 82 28 00
        E 152 82 33 00
        E 63 82 3f 00
        E 0 b2 7b 00
        E 1 ff 2f 00
      >
    >
  >
  <TRACK
    NAME "Choir"
    PEAKCOL 4284506208
    VOLPAN 1.000000 0 1 -1
    MIDIOUT -1
    ISBUS 0 0
    <ITEM
      POSITION 7.507709
      LENGTH 75.132341
      NAME "Choir"
      VOLPAN 1 0 1 -1
      <SOURCE MIDI
        HASDATA 1 960 QN
        E 0 c3 34 00
        E 11532 93 3f 39
        E 1788 83 3f 00
        E 123 93 3f 4c
        E 0 93 3f 44
        E 13 93 34 3e
        E 8 93 31 3c
        E 1599 83 34 00
        E 92 83 3f 00
        E 137 83 31 00
        E 21 83 3f 00
        E 80 93 27 35
        E 1808 83 27 00
        E 82 93 3e 47
        E 1732 83 3e 00
        E 197 93 3f 35
        E 16 93 31 27
        E 1828 83 31 00
        E 3 83 3f 00
        E 70 93 3f 3c
        E 1 93 36 41
        E 8 93 34 46
        E 9 93 33 54
        E 1632 83 36 00
        E 16 83 3f 00
        E 59 83 34 00
        E 146 83 33 00
        E 57 93 40 35
        E 2 93 33 2d
        E 1713 83 33 00
        E 82 83 40 00
        E 113 93 40 2d
        E 2 93 40 2d
        E 1 93 33 34
        E 1735 83 40 00
        E 50 83 40 00
        E 54 83 33 00
        E 79 93 3a 3a
        E 4 93 2c 39
        E 1596 83 2c 00
        E 131 83 3a 00
        E 188 93 3d 2d
        E 0 93 3c 3e
        E 1787 83 3c 00
        E 101 83 3d 00
        E 1949 93 33 29
        E 19 93 2e 34
        E 1800 83 33 00
        E 18 83 2e 00
        E 77 93 40 56
        E 15 93 3d 41
        E 17 93 32 34
        E 1730 83 32 00
        E 24 83 40 00
        E 40 83 3d 00
        E 114 93 37 3f
        E 1650 83 37 00
        E 255 93 3e 3a
        E 6 93 40 49
        E 6 93 34 41
        E 1789 83 3e 00
        E 32 83 40 00
        E 14 83 34 00
        E 73 93 40 32
        E 8 93 3c 35
        E 12 93 33 2d
        E 1641 83 40 00
        E 31 83 3c 00
        E 162 83 33 00
        E 68 93 26 24
        E 5 93 3f 2c
        E 1842 83 3f 00
        E 25 83 26 00
        E 56 93 31 3a
        E 10 93 24 24
        E 1757 83 24 00
        E 85 83 31 00
        E 60 93 3e 2d
        E 1898 83 3e 00
        E 25 93 3e 25
        E 7 93 3b 24
        E 11 93 32 34
        E 1660 83 3e 00
        E 56 83 32 00
        E 53 83 3b 00
        E 128 93 40 34
        E 9 93 33 2c
        E 8 93 31 1f
        E 1613 83 40 00
        E 216 83 31 00
        E 78 93 37 2a
        E 4 93 3c 34
        E 12 93 34 34
        E 48 83 33 00
        E 1656 83 37 00
        E 50 83 34 00
        E 8 83 3c 00
        E 139 93 3f 2f
        E 1 93 40 31
        E 17 93 33 39
        E 1633 83 3f 00
        E 180 83 33 00
        E 84 93 38 3e
        E 9 93 32 22
        E 9 93 33 29
        E 32 83 40 00
        E 1485 83 33 00
        E 127 83 38 00
        E 59 83 32 00
        E 211 93 38 2a
        E 8 93 25 1a
        E 1586 83 38 00
        E 239 83 25 00
        E 90 93 32 32
        E 2 93 33 20
        E 1683 83 33 00
        E 203 83 32 00
        E 31 93 3f 27
        E 2 93 2b 29
        E 20 93 33 2d
        E 1615 83 2b 00
        E 108 83 33 00
        E 74 83 3f 00
        E 96 93 34 34
        E 10 93 3c 27
        E 11 93 35 39
        E 1592 83 35 00
        E 104 83 3c 00
        E 18 83 34 00
        E 186 93 3e 27
        E 7 93 3b 2f
        E 1 93 32 27
        E 13 93 32 20
        E 1625 83 32 00
        E 62 83 3e 00
        E 62 83 32 00
        E 52 83 3b 00
        E 91 93 3e 37
        E 12 93 32 24
        E 12 93 27 27
        E 1743 83 32 00
        E 89 83 27 00
        E 17 83 3e 00
        E 53 93 3f 1c
        E 4 93 2d 1c
        E 9 93 32 20
        E 1676 83 3f 00
        E 160 83 2d 00
        E 69 93 3e 20
        E 3 93 3e 20
        E 2 93 32 27
        E 19 93 30 27
        E 5 83 32 00
        E 1643 83 32 00
        E 108 83 3e 00
        E 31 83 30 00
        E 50 83 3e 00
        E 65 93 41 24
        E 2 93 33 29
        E 7 93 34 29
        E 1742 83 33 00
        E 66 83 41 00
        E 59 83 34 00
        E 43 93 3f 22
        E 0 93 3f 18
        E 7 93 34 1c
        E 2 93 32 20
        E 1703 83 3f 00
        E 1 83 34 00
        E 154 83 32 00
        E 8 83 3f 00
        E 35 93 3b 2d
        E 5 93 3e 24
        E 7 93 33 27
        E 16 93 34 27
        E 1642 83 3b 00
        E 45 83 33 00
        E 21 83 3e 00
        E 128 83 34 00
        E 61 93 3b 20
        E 3 93 3d 1d
        E 9 93 33 2a
        E 16 93 27 18
        E 1582 83 33 00
        E 147 83 3b 00
        E 46 83 27 00
        E 70 83 3d 00
        E 51 93 3b 47
        E 3 93 3c 3a
        E 0 93 34 49
        E 14 93 35 2d
        E 1500 83 34 00
        E 149 83 3b 00
        E 113 83 35 00
        E 132 83 3c 00
        E 5 93 3e 47
        E 7 93 3a 3c
        E 12 93 33 41
        E 8 93 31 31
        E 1659 83 3e 00
        E 104 83 33 00
        E 109 83 3a 00
        E 0 83 31 00
        E 18 93 3e 49
        E 6 93 36 4c
        E 11 93 38 61
        E 8 93 28 42
        E 1501 83 28 00
        E 159 83 36 00
        E 19 83 3e 00
        E 101 83 38 00
        E 117 93 3e 4b
        E 9 93 3d 41
        E 8 93 31 41
        E 4 93 32 41
        E 1597 83 3d 00
        E 49 83 31 00
        E 142 83 3e 00
        E 113 93 3b 3f
        E 5 93 3f 4c
        E 4 93 33 46
        E 7 93 32 41
        E 25 83 32 00
        E 1683 83 32 00
        E 20 83 3b 00
        E 16 83 33 00
        E 147 83 3f 00
        E 15 93 3c 3c
        E 2 93 3f 34
        E 9 93 33 41
        E 0 93 32 34
        E 1605 83 32 00
        E 97 83 33 00
        E 47 83 3f 00
        E 24 83 3c 00
        E 132 93 3c 2a
        E 1 93 3f 29
        E 6 93 2d 27
        E 23 93 33 34
        E 1632 83 3c 00
        E 89 83 2d 00
        E 46 83 3f 00
        E 27 83 33 00
        E 93 93 3d 46
        E 9 93 30 41
        E 4 93 40 46
        E 1 93 33 47
        E 1718 83 33 00
        E 33 83 40 00
        E 30 83 3d 00
        E 125 93 3f 54
        E 11 93 40 4e
        E 4 93 3d 4c
        E 2 93 33 47
        E 109 83 30 00
        E 1509 83 33 00
        E 51 83 3d 00
        E 23 83 40 00
        E 57 83 3f 00
        E 157 93 3f 59
        E 2 93 3d 61
        E 3 93 38 68
        E 19 93 33 6d
        E 1703 83 3d 00
        E 139 83 3f 00
        E 22 83 33 00
        E 28 93 41 42
        E 6 93 3e 42
        E 4 93 32 34
        E 1 83 38 00
        E 11 93 33 42
        E 1681 83 3e 00
        E 42 83 32 00
        E 34 83 33 00
        E 153 93 3b 46
        E 0 93 3f 41
        E 2 93 33 46
        E 2 93 36 54
        E 1 83 41 00
        E 1668 83 3f 00
        E 47 83 33 00
        E 72 83 3b 00
        E 63 83 36 00
        E 58 93 3f 41
        E 13 93 3e 3c
        E 0 93 33 3e
        E 2 93 33 34
        E 1590 83 33 00
        E 15 83 3f 00
        E 155 83 3e 00
        E 150 93 3d 42
        E 2 93 3c 35
        E 8 93 34 3c
        E 3 93 33 34
        E 105 83 33 00
        E 1517 83 3c 00
        E 21 83 3d 00
        E 31 83 34 00
        E 124 83 33 00
        E 104 93 3d 29
        E 7 93 40 3a
        E 2 93 25 22
        E 12 93 32 2c
        E 1595 83 25 00
        E 262 83 32 00
        E 43 93 3c 32
        E 3 83 3d 00
        E 3 93 36 2f
        E 3 93 30 2a
        E 4 83 40 00
        E 8 93 25 27
        E 1658 83 3c 00
        E 111 83 25 00
        E 60 83 30 00
        E 12 83 36 00
        E 55 93 34 51
        E 3 93 3f 5b
        E 10 93 32 58
        E 0 93 33 4c
        E 1625 83 32 00
        E 63 83 33 00
        E 10 83 3f 00
        E 201 83 34 00
        E 9 93 3e 3a
        E 9 93 40 41
        E 4 93 35 41
        E 5 93 33 35
        E 1654 83 35 00
        E 93 83 33 00
        E 11 83 40 00
        E 99 83 3e 00
        E 46 93 3b 6e
        E 7 93 3f 54
        E 0 93 2f 4f
        E 15 93 2c 59
        E 1594 83 2f 00
        E 26 83 3b 00
        E 134 83 2c 00
        E 22 83 3f 00
        E 122 93 3d 71
        E 5 93 3f 5b
        E 4 93 37 60
        E 6 93 34 63
        E 1532 83 3d 00
        E 270 83 34 00
        E 2 83 3f 00
        E 102 93 39 66
        E 9 93 3d 6e
        E 3 93 34 6e
        E 11 93 34 6e
        E 61 83 37 00
        E 1593 83 34 00
        E 58 83 3d 00
        E 37 83 34 00
        E 18 83 39 00
        E 134 93 3d 61
        E 1 93 36 65
        E 8 93 40 68
        E 1 93 32 61
        E 1614 83 40 00
        E 112 83 3d 00
        E 56 83 36 00
        E 126 93 40 51
        E 3 93 3d 65
        E 3 93 37 61
        E 4 93 32 56
        E 30 83 32 00
        E 1544 83 40 00
        E 34 83 3d 00
        E 96 83 32 00
        E 146 83 37 00
        E 58 93 3d 73
        E 4 93 3e 68
        E 1 93 36 6d
        E 9 93 32 59
        E 1606 83 3e 00
        E 99 83 36 00
        E 26 83 3d 00
        E 230 83 32 00
        E 0 b3 7b 00
        E 1 ff 2f 00
      >
    >
  >
  <TRACK
    NAME "Brass"
    PEAKCOL 4290740026
    VOLPAN 1.000000 0 1 -1
    MIDIOUT -1
    ISBUS 0 0
    <ITEM
      POSITION 14.999841
      LENGTH 58.546332
      NAME "Brass"
      VOLPAN 1 0 1 -1
      <SOURCE MIDI
        HASDATA 1 960 QN
        E 0 c4 3d 00
        E 23040 94 49 6d
        E 5 94 41 2f
        E 1 94 41 2d
        E 9 94 35 2f
        E 1099 84 49 00
        E 34 84 41 00
        E 29 84 41 00
        E 18 84 35 00
        E 964 94 4c 31
        E 12 94 39 69
        E 7 94 3e 49
        E 1111 84 4c 00
        E 13 84 3e 00
        E 21 84 39 00
        E 1011 94 38 5e
        E 1145 84 38 00
        E 1013 94 41 6e
        E 1150 84 41 00
        E 1000 94 4a 69
        E 1156 84 4a 00
        E 1006 94 45 60
        E 3 94 35 56
        E 1108 84 35 00
        E 6 84 45 00
        E 1040 94 4a 60
        E 8 94 3e 4c
        E 2 94 47 66
        E 1119 84 4a 00
        E 7 84 3e 00
        E 33 84 47 00
        E 990 94 4a 37
        E 10 94 32 31
        E 2 94 44 35
        E 2 94 33 34
        E 7 94 3d 2a
        E 1131 84 4a 00
        E 3 84 3d 00
        E 9 84 32 00
        E 25 84 44 00
        E 12 84 33 00
        E 3126 94 44 5c
        E 4 94 2e 5c
        E 1168 84 2e 00
        E 2 84 44 00
        E 3152 94 3c 51
        E 3 94 3c 51
        E 3 94 3d 3c
        E 1123 84 3c 00
        E 40 84 3d 00
        E 18 84 3c 00
        E 967 94 38 42
        E 9 94 44 47
        E 3 94 3b 31
        E 1149 84 44 00
        E 10 84 3b 00
        E 20 84 38 00
        E 963 94 44 4f
        E 5 94 37 4f
        E 11 94 37 4f
        E 1104 84 44 00
        E 20 84 37 00
        E 18 84 37 00
        E 1000 94 3e 5b
        E 14 94 3e 5b
        E 1107 84 3e 00
        E 41 84 3e 00
        E 1009 94 40 37
        E 6 94 44 2f
        E 1126 84 44 00
        E 1 84 40 00
        E 1019 94 4a 29
        E 3 94 3d 24
        E 8 94 30 24
        E 2 94 30 24
        E 1104 84 30 00
        E 24 84 4a 00
        E 10 84 3d 00
        E 29 84 30 00
        E 979 94 4a 49
        E 7 94 34 4f
        E 6 94 40 4e
        E 1 94 37 56
        E 4 94 3f 3e
        E 1113 84 34 00
        E 10 84 40 00
        E 18 84 4a 00
        E 10 84 37 00
        E 17 84 3f 00
        E 975 94 44 47
        E 4 94 4a 4e
        E 6 94 36 49
        E 3 94 31 41
        E 1111 84 31 00
        E 41 84 44 00
        E 13 84 36 00
        E 10 84 4a 00
        E 973 94 4b 41
        E 1 94 41 4e
        E 3 94 35 4e
        E 3 94 41 4f
        E 11 94 2f 3a
        E 1088 84 35 00
        E 36 84 41 00
        E 8 84 4b 00
        E 20 84 41 00
        E 17 84 2f 00
        E 968 94 4c 56
        E 13 94 42 56
        E 10 94 3d 47
        E 3 94 36 53
        E 1131 84 3d 00
        E 12 84 4c 00
        E 2 84 36 00
        E 18 84 42 00
        E 976 94 49 5b
        E 7 94 42 58
        E 0 94 3c 3c
        E 4 94 36 4b
        E 1 94 30 34
        E 1133 84 42 00
        E 5 84 3c 00
        E 3 84 49 00
        E 30 84 36 00
        E 4 84 30 00
        E 974 94 4b 53
        E 6 94 3f 47
        E 2 94 38 53
        E 4 94 32 3f
        E 1147 84 3f 00
        E 15 84 32 00
        E 20 84 4b 00
        E 24 84 38 00
        E 943 94 4b 39
        E 1 94 38 3f
        E 6 94 44 42
        E 2 94 34 39
        E 4 94 40 32
        E 1086 84 44 00
        E 56 84 4b 00
        E 13 84 34 00
        E 1 84 38 00
        E 5 84 40 00
        E 982 94 4a 1f
        E 7 94 3f 1f
        E 2 94 3f 1f
        E 0 94 38 20
        E 1135 84 3f 00
        E 6 84 4a 00
        E 8 84 38 00
        E 33 84 3f 00
        E 973 94 4a 51
        E 4 94 3e 37
        E 2 94 44 51
        E 6 94 33 35
        E 1 94 34 3a
        E 1080 84 4a 00
        E 42 84 44 00
        E 22 84 34 00
        E 22 84 3e 00
        E 4 84 33 00
        E 3137 94 4a 6b
        E 2 94 2a 56
        E 1 94 3f 66
        E 5 94 3f 65
        E 0 94 28 56
        E 1114 84 4a 00
        E 8 84 28 00
        E 32 84 3f 00
        E 4 84 3f 00
        E 4 84 2a 00
        E 983 94 4b 75
        E 12 94 39 71
        E 1 94 42 75
        E 3 94 2f 6d
        E 0 94 3b 5c
        E 1077 84 4b 00
        E 75 84 39 00
        E 1 84 42 00
        E 12 84 3b 00
        E 15 84 2f 00
        E 963 94 4a 77
        E 12 94 33 71
        E 1 94 41 79
        E 1 94 40 69
        E 8 94 34 6b
        E 1115 84 41 00
        E 2 84 34 00
        E 4 84 33 00
        E 10 84 40 00
        E 21 84 4a 00
        E 995 94 4c 6d
        E 2 94 40 70
        E 1 94 42 75
        E 2 94 36 77
        E 2 94 32 5e
        E 1074 84 32 00
        E 41 84 4c 00
        E 14 84 40 00
        E 10 84 36 00
        E 46 84 42 00
        E 964 94 4b 49
        E 3 94 3f 3f
        E 9 94 38 49
        E 1 94 44 49
        E 4 94 38 3c
        E 1110 84 4b 00
        E 32 84 38 00
        E 17 84 44 00
        E 15 84 3f 00
        E 0 84 38 00
        E 967 94 4a 60
        E 13 94 41 34
        E 3 94 44 37
        E 1 94 34 2d
        E 0 94 33 2a
        E 1128 84 34 00
        E 9 84 44 00
        E 15 84 4a 00
        E 3 84 33 00
        E 16 84 41 00
        E 974 94 4c 6d
        E 9 94 34 65
        E 1 94 45 69
        E 4 94 44 73
        E 3 94 34 65
        E 1121 84 34 00
        E 5 84 4c 00
        E 5 84 45 00
        E 31 84 34 00
        E 14 84 44 00
        E 967 94 44 79
        E 2 94 4a 66
        E 5 94 37 66
        E 2 94 44 79
        E 6 94 36 63
        E 1112 84 44 00
        E 31 84 44 00
        E 12 84 4a 00
        E 3 84 36 00
        E 6 84 37 00
        E 980 94 4a 7b
        E 9 94 3e 66
        E 2 94 38 75
        E 1 94 3d 66
        E 6 94 38 75
        E 1084 84 38 00
        E 13 84 38 00
        E 61 84 3d 00
        E 6 84 4a 00
        E 13 84 3e 00
        E 973 94 36 66
        E 10 94 42 73
        E 1123 84 42 00
        E 39 84 36 00
        E 980 94 49 7a
        E 12 94 41 6d
        E 3 94 35 6b
        E 2 94 30 61
        E 1044 84 49 00
        E 71 84 30 00
        E 27 84 35 00
        E 17 84 41 00
        E 977 94 4b 73
        E 19 94 3f 69
        E 3 94 34 66
        E 1119 84 3f 00
        E 8 84 34 00
        E 89 84 4b 00
        E 934 94 3f 60
        E 1173 84 3f 00
        E 988 94 4a 35
        E 3 94 39 37
        E 1 94 3e 2d
        E 1125 84 4a 00
        E 20 84 3e 00
        E 38 84 39 00
        E 968 94 4b 75
        E 6 94 3d 70
        E 0 94 48 65
        E 2 94 3e 73
        E 1124 84 48 00
        E 9 84 4b 00
        E 19 84 3e 00
        E 52 84 3d 00
        E 0 b4 7b 00
        E 1 ff 2f 00
      >
    >
  >
  <TRACK
    NAME "Horns"
    PEAKCOL 4290740026
    VOLPAN 1.000000 0 1 -1
    MIDIOUT -1
    ISBUS 0 0
    <ITEM
      POSITION 11.248980
      LENGTH 72.618268
      NAME "Horns"
      VOLPAN 1 0 1 -1
      <SOURCE MIDI
        HASDATA 1 960 QN
        E 0 c5 3c 00
        E 17278 95 2e 56
        E 1952 85 2e 00
        E 3803 95 2c 53
        E 1941 95 2e 32
        E 32 85 2c 00
        E 1841 85 2e 00
        E 29 95 2c 39
        E 1830 85 2c 00
        E 3957 95 28 32
        E 1893 95 33 44
        E 106 85 28 00
        E 1874 85 33 00
        E 1896 95 34 3a
        E 1904 95 33 2c
        E 56 85 34 00
        E 1866 95 28 2d
        E 12 85 33 00
        E 1892 85 28 00
        E 1930 95 25 22
        E 1919 95 33 27
        E 47 85 25 00
        E 1814 85 33 00
        E 69 95 32 25
        E 1936 85 32 00
        E 1879 95 36 2d
        E 1848 85 36 00
        E 5837 95 31 25
        E 1880 85 31 00
        E 45 95 33 2d
        E 1835 85 33 00
        E 7767 95 32 1c
        E 1968 85 32 00
        E 1858 95 3f 4b
        E 1861 85 3f 00
        E 74 95 40 1d
        E 1949 85 40 00
        E 3799 95 35 3f
        E 1848 85 35 00
        E 76 95 3d 3f
        E 1888 85 3d 00
        E 57 95 3e 39
        E 1868 85 3e 00
        E 1974 95 39 27
        E 1916 95 42 46
        E 19 85 39 00
        E 1887 85 42 00
        E 14 95 3e 39
        E 1827 85 3e 00
        E 2003 95 3f 44
        E 1918 95 3e 44
        E 113 85 3f 00
        E 1781 85 3e 00
        E 48 95 3e 37
        E 1804 85 3e 00
        E 2004 95 3c 34
        E 1934 85 3c 00
        E 4 95 3d 29
        E 1849 85 3d 00
        E 57 95 40 49
        E 1942 85 40 00
        E 1896 95 45 5e
        E 1933 85 45 00
        E 8 95 3e 5b
        E 1854 85 3e 00
        E 44 95 3f 5b
        E 1998 85 3f 00
        E 1851 95 46 60
        E 1907 95 44 61
        E 36 85 46 00
        E 1862 85 44 00
        E 30 95 41 5c
        E 1939 85 41 00
        E 0 b5 7b 00
        E 1 ff 2f 00
      >
    >
  >
  <TRACK
    NAME "Tuba"
    PEAKCOL 4290740026
    VOLPAN 1.000000 0 1 -1
    MIDIOUT -1
    ISBUS 0 0
    <ITEM
      POSITION 0.002264
      LENGTH 74.914827
      NAME "Tuba"
      VOLPAN 1 0 1 -1
      <SOURCE MIDI
        HASDATA 1 960 QN
        E 0 c6 3a 00
        E 3 96 24 41
        E 1649 86 24 00
        E 273 96 25 61
        E 1604 86 25 00
        E 318 96 25 68
        E 1649 86 25 00
        E 261 96 26 68
        E 1629 86 26 00
        E 291 96 1b 4e
        E 1622 86 1b 00
        E 301 96 26 69
        E 1619 86 26 00
        E 301 96 27 60
        E 1670 86 27 00
        E 246 96 25 66
        E 1679 86 25 00
        E 244 96 22 5e
        E 1667 86 22 00
        E 257 96 25 54
        E 1649 86 25 00
        E 274 96 24 32
        E 1615 86 24 00
        E 307 96 21 4c
        E 1613 86 21 00
        E 301 96 25 37
        E 1614 86 25 00
        E 307 96 1b 25
        E 1601 86 1b 00
        E 314 96 26 4e
        E 1666 86 26 00
        E 263 96 27 34
        E 1628 86 27 00
        E 286 96 23 37
        E 1619 86 23 00
        E 305 96 27 2f
        E 1673 86 27 00
        E 245 96 1d 3e
        E 1636 86 1d 00
        E 280 96 25 60
        E 1670 86 25 00
        E 249 96 24 3a
        E 1623 86 24 00
        E 291 96 28 4f
        E 1627 86 28 00
        E 309 96 25 2f
        E 1654 86 25 00
        E 269 96 25 39
        E 1619 86 25 00
        E 288 96 18 4b
        E 1618 86 18 00
        E 299 96 24 54
        E 1618 86 24 00
        E 308 96 28 22
        E 1595 86 28 00
        E 328 96 24 32
        E 1616 86 24 00
        E 298 96 28 35
        E 1647 86 28 00
        E 281 96 27 2d
        E 1628 86 27 00
        E 286 96 25 20
        E 1635 86 25 00
        E 290 96 1c 34
        E 1654 86 1c 00
        E 263 96 24 2d
        E 1608 86 24 00
        E 316 96 23 3c
        E 1658 86 23 00
        E 258 96 1c 2f
        E 1602 86 1c 00
        E 319 96 26 27
        E 1607 86 26 00
        E 314 96 24 24
        E 1669 86 24 00
        E 248 96 24 29
        E 1624 86 24 00
        E 294 96 19 3a
        E 1630 86 19 00
        E 297 96 25 24
        E 1651 86 25 00
        E 263 96 1b 1f
        E 1660 86 1b 00
        E 263 96 27 1d
        E 1580 86 27 00
        E 341 96 24 42
        E 1646 86 24 00
        E 271 96 26 51
        E 1632 86 26 00
        E 286 96 27 5b
        E 1633 86 27 00
        E 287 96 19 5e
        E 1630 86 19 00
        E 295 96 24 47
        E 1653 86 24 00
        E 264 96 24 47
        E 1625 86 24 00
        E 305 96 28 2f
        E 1618 86 28 00
        E 289 96 25 75
        E 1665 86 25 00
        E 260 96 24 44
        E 1649 86 24 00
        E 266 96 24 4e
        E 1617 86 24 00
        E 304 96 26 70
        E 1663 86 26 00
        E 264 96 27 4c
        E 1647 86 27 00
        E 269 96 1b 3a
        E 1617 86 1b 00
        E 305 96 25 3c
        E 1625 86 25 00
        E 295 96 25 37
        E 1637 86 25 00
        E 287 96 25 37
        E 1643 86 25 00
        E 267 96 26 73
        E 1660 86 26 00
        E 263 96 25 37
        E 1638 86 25 00
        E 0 b6 7b 00
        E 1 ff 2f 00
      >
    >
  >
  <TRACK
    NAME "Ostinato"
    PEAKCOL 4284506208
    VOLPAN 1.000000 0 1 -1
    MIDIOUT -1
    ISBUS 0 0
    <ITEM
      POSITION 0.000000
      LENGTH 74.131857
      NAME "Ostinato"
      VOLPAN 1 0 1 -1
      <SOURCE MIDI
        HASDATA 1 960 QN
        E 0 c7 2c 00
        E 0 97 1d 3f
        E 198 87 1d 00
        E 42 97 1f 5e
        E 196 87 1f 00
        E 45 97 24 56
        E 189 87 24 00
        E 50 97 27 61
        E 194 87 27 00
        E 45 97 26 4e
        E 189 87 26 00
        E 53 97 1f 5b
        E 193 87 1f 00
        E 47 97 24 56
        E 193 87 24 00
        E 47 97 29 53
        E 193 87 29 00
        E 47 97 25 66
        E 195 87 25 00
        E 44 97 20 69
        E 187 87 20 00
        E 53 97 24 58
        E 198 87 24 00
        E 42 97 29 58
        E 193 87 29 00
        E 47 97 25 69
        E 194 87 25 00
        E 46 97 1e 68
        E 191 87 1e 00
        E 49 97 25 5c
        E 194 87 25 00
        E 46 97 27 61
        E 196 87 27 00
        E 44 97 25 70
        E 174 87 25 00
        E 67 97 1f 63
        E 197 87 1f 00
        E 42 97 25 60
        E 185 87 25 00
        E 55 97 25 61
        E 190 87 25 00
        E 50 97 28 5b
        E 195 87 28 00
        E 45 97 1e 59
        E 183 87 1e 00
        E 57 97 28 5c
        E 189 87 28 00
        E 51 97 24 44
        E 186 87 24 00
        E 54 97 23 49
        E 183 87 23 00
        E 57 97 1f 47
        E 190 87 1f 00
        E 50 97 25 53
        E 189 87 25 00
        E 51 97 24 4f
        E 188 87 24 00
        E 52 97 24 4f
        E 179 87 24 00
        E 62 97 1e 4f
        E 195 87 1e 00
        E 43 97 24 58
        E 189 87 24 00
        E 51 97 27 53
        E 194 87 27 00
        E 47 97 27 3f
        E 189 87 27 00
        E 50 97 20 60
        E 200 87 20 00
        E 41 97 25 58
        E 190 87 25 00
        E 50 97 27 51
        E 198 87 27 00
        E 42 97 24 4e
        E 197 87 24 00
        E 43 97 20 51
        E 195 87 20 00
        E 45 97 25 54
        E 192 87 25 00
        E 47 97 26 4f
        E 189 87 26 00
        E 51 97 24 61
        E 195 87 24 00
        E 46 97 1e 65
        E 190 87 1e 00
        E 50 97 23 65
        E 188 87 23 00
        E 51 97 27 58
        E 193 87 27 00
        E 49 97 24 61
        E 193 87 24 00
        E 46 97 1c 60
        E 191 87 1c 00
        E 49 97 22 53
        E 202 87 22 00
        E 38 97 23 5b
        E 186 87 23 00
        E 54 97 23 65
        E 196 87 23 00
        E 44 97 20 69
        E 195 87 20 00
        E 46 97 21 60
        E 198 87 21 00
        E 41 97 28 66
        E 195 87 28 00
        E 43 97 21 65
        E 187 87 21 00
        E 55 97 20 5b
        E 201 87 20 00
        E 39 97 27 4e
        E 196 87 27 00
        E 44 97 28 65
        E 187 87 28 00
        E 54 97 24 46
        E 197 87 24 00
        E 42 97 1d 56
        E 198 87 1d 00
        E 43 97 22 4f
        E 194 87 22 00
        E 44 97 27 58
        E 192 87 27 00
        E 49 97 21 56
        E 189 87 21 00
        E 51 97 1c 60
        E 192 87 1c 00
        E 48 97 28 4c
        E 187 87 28 00
        E 53 97 27 3f
        E 190 87 27 00
        E 48 97 23 46
        E 195 87 23 00
        E 46 97 1c 31
        E 192 87 1c 00
        E 50 97 24 5b
        E 194 87 24 00
        E 45 97 29 60
        E 188 87 29 00
        E 52 97 22 5c
        E 186 87 22 00
        E 54 97 21 53
        E 189 87 21 00
        E 51 97 22 5c
        E 197 87 22 00
        E 42 97 26 4b
        E 188 87 26 00
        E 52 97 24 4f
        E 199 87 24 00
        E 41 97 1e 51
        E 199 87 1e 00
        E 41 97 24 58
        E 198 87 24 00
        E 43 97 26 54
        E 200 87 26 00
        E 39 97 23 5c
        E 195 87 23 00
        E 45 97 1c 65
        E 201 87 1c 00
        E 41 97 22 5b
        E 195 87 22 00
        E 45 97 28 5b
        E 191 87 28 00
        E 49 97 22 37
        E 198 87 22 00
        E 40 97 1b 32
        E 194 87 1b 00
        E 47 97 22 6e
        E 189 87 22 00
        E 50 97 28 6d
        E 194 87 28 00
        E 46 97 27 5e
        E 197 87 27 00
        E 44 97 1c 5e
        E 193 87 1c 00
        E 48 97 23 5c
        E 188 87 23 00
        E 49 97 25 60
        E 190 87 25 00
        E 52 97 23 39
        E 184 87 23 00
        E 56 97 1b 3c
        E 191 87 1b 00
        E 47 97 23 59
        E 184 87 23 00
        E 58 97 27 56
        E 196 87 27 00
        E 43 97 21 4b
        E 199 87 21 00
        E 41 97 1b 4e
        E 193 87 1b 00
        E 48 97 20 54
        E 196 87 20 00
        E 44 97 25 49
        E 192 87 25 00
        E 49 97 24 1f
        E 192 87 24 00
        E 47 97 1d 2f
        E 195 87 1d 00
        E 45 97 28 58
        E 190 87 28 00
        E 50 97 21 56
        E 198 87 21 00
        E 42 97 24 51
        E 191 87 24 00
        E 49 97 1d 53
        E 180 87 1d 00
        E 61 97 24 59
        E 195 87 24 00
        E 44 97 27 53
        E 195 87 27 00
        E 46 97 25 29
        E 192 87 25 00
        E 47 97 1e 63
        E 197 87 1e 00
        E 43 97 24 53
        E 192 87 24 00
        E 47 97 28 5b
        E 194 87 28 00
        E 46 97 24 5b
        E 185 87 24 00
        E 57 97 1e 69
        E 187 87 1e 00
        E 52 97 24 65
        E 193 87 24 00
        E 49 97 29 4c
        E 189 87 29 00
        E 48 97 23 44
        E 185 87 23 00
        E 56 97 1c 5b
        E 193 87 1c 00
        E 47 97 24 63
        E 188 87 24 00
        E 51 97 28 5b
        E 198 87 28 00
        E 43 97 28 53
        E 196 87 28 00
        E 45 97 1c 61
        E 185 87 1c 00
        E 54 97 24 60
        E 201 87 24 00
        E 39 97 25 59
        E 184 87 25 00
        E 55 97 23 5b
        E 185 87 23 00
        E 57 97 1e 5b
        E 195 87 1e 00
        E 44 97 25 59
        E 195 87 25 00
        E 45 97 27 58
        E 191 87 27 00
        E 50 97 24 4e
        E 194 87 24 00
        E 44 97 1c 58
        E 191 87 1c 00
        E 50 97 25 3f
        E 196 87 25 00
        E 44 97 25 46
        E 188 87 25 00
        E 52 97 24 25
        E 193 87 24 00
        E 46 97 18 24
        E 185 87 18 00
        E 57 97 23 54
        E 194 87 23 00
        E 46 97 28 59
        E 193 87 28 00
        E 47 97 23 4e
        E 186 87 23 00
        E 53 97 1d 5b
        E 202 87 1d 00
        E 38 97 23 56
        E 191 87 23 00
        E 49 97 25 5b
        E 192 87 25 00
        E 49 97 23 32
        E 188 87 23 00
        E 51 97 18 58
        E 189 87 18 00
        E 51 97 22 54
        E 191 87 22 00
        E 49 97 22 5b
        E 194 87 22 00
        E 46 97 23 63
        E 193 87 23 00
        E 47 97 1c 61
        E 185 87 1c 00
        E 54 97 24 54
        E 193 87 24 00
        E 48 97 27 56
        E 192 87 27 00
        E 48 97 23 4b
        E 189 87 23 00
        E 49 97 1f 44
        E 185 87 1f 00
        E 56 97 24 68
        E 187 87 24 00
        E 54 97 29 60
        E 186 87 29 00
        E 54 97 25 5c
        E 192 87 25 00
        E 47 97 1d 5e
        E 196 87 1d 00
        E 45 97 25 5b
        E 193 87 25 00
        E 49 97 2a 58
        E 194 87 2a 00
        E 44 97 25 32
        E 186 87 25 00
        E 53 97 21 32
        E 197 87 21 00
        E 43 97 20 54
        E 189 87 20 00
        E 52 97 27 58
        E 189 87 27 00
        E 51 97 26 59
        E 197 87 26 00
        E 44 97 19 53
        E 194 87 19 00
        E 45 97 24 5e
        E 194 87 24 00
        E 47 97 25 2a
        E 188 87 25 00
        E 50 97 25 29
        E 194 87 25 00
        E 47 97 21 37
        E 194 87 21 00
        E 46 97 1e 37
        E 188 87 1e 00
        E 51 97 25 59
        E 189 87 25 00
        E 51 97 1d 61
        E 197 87 1d 00
        E 44 97 21 5e
        E 197 87 21 00
        E 42 97 27 51
        E 192 87 27 00
        E 49 97 26 53
        E 194 87 26 00
        E 46 97 24 61
        E 203 87 24 00
        E 38 97 20 61
        E 206 87 20 00
        E 34 97 25 60
        E 186 87 25 00
        E 52 97 28 65
        E 198 87 28 00
        E 44 97 25 56
        E 198 87 25 00
        E 40 97 20 69
        E 196 87 20 00
        E 46 97 25 59
        E 188 87 25 00
        E 52 97 27 51
        E 191 87 27 00
        E 48 97 25 34
        E 189 87 25 00
        E 52 97 1c 60
        E 184 87 1c 00
        E 56 97 25 65
        E 195 87 25 00
        E 44 97 26 60
        E 195 87 26 00
        E 46 97 23 54
        E 186 87 23 00
        E 53 97 1c 63
        E 187 87 1c 00
        E 53 97 26 60
        E 186 87 26 00
        E 55 97 28 5c
        E 202 87 28 00
        E 38 97 24 3c
        E 192 87 24 00
        E 47 97 1b 60
        E 187 87 1b 00
        E 52 97 24 60
        E 192 87 24 00
        E 1488 97 20 1c
        E 187 87 20 00
        E 55 97 25 31
        E 199 87 25 00
        E 41 97 2a 3c
        E 189 87 2a 00
        E 51 97 26 42
        E 195 87 26 00
        E 43 97 1b 4f
        E 194 87 1b 00
        E 47 97 25 44
        E 188 87 25 00
        E 52 97 26 4f
        E 196 87 26 00
        E 45 97 2b 24
        E 191 87 2b 00
        E 49 97 1b 49
        E 187 87 1b 00
        E 52 97 27 44
        E 183 87 27 00
        E 56 97 25 4b
        E 192 87 25 00
        E 49 97 26 3c
        E 192 87 26 00
        E 48 97 1b 47
        E 195 87 1b 00
        E 43 97 27 56
        E 198 87 27 00
        E 45 97 25 44
        E 187 87 25 00
        E 53 97 27 2d
        E 183 87 27 00
        E 55 97 1d 2f
        E 198 87 1d 00
        E 43 97 25 58
        E 191 87 25 00
        E 49 97 28 47
        E 198 87 28 00
        E 41 97 25 49
        E 197 87 25 00
        E 44 97 1d 4e
        E 190 87 1d 00
        E 50 97 25 44
        E 196 87 25 00
        E 44 97 25 4b
        E 196 87 25 00
        E 44 97 21 4c
        E 194 87 21 00
        E 45 97 1a 32
        E 201 87 1a 00
        E 41 97 1f 4b
        E 191 87 1f 00
        E 49 97 24 49
        E 195 87 24 00
        E 43 97 26 41
        E 193 87 26 00
        E 48 97 1c 3f
        E 199 87 1c 00
        E 39 97 28 3a
        E 191 87 28 00
        E 52 97 27 2a
        E 191 87 27 00
        E 48 97 23 34
        E 188 87 23 00
        E 51 97 1f 32
        E 199 87 1f 00
        E 41 97 26 35
        E 191 87 26 00
        E 50 97 25 32
        E 187 87 25 00
        E 53 97 26 42
        E 191 87 26 00
        E 49 97 1a 3c
        E 193 87 1a 00
        E 48 97 27 4e
        E 196 87 27 00
        E 44 97 26 32
        E 194 87 26 00
        E 45 97 27 24
        E 193 87 27 00
        E 47 97 1a 24
        E 193 87 1a 00
        E 48 97 26 59
        E 190 87 26 00
        E 49 97 29 46
        E 198 87 29 00
        E 42 97 20 4e
        E 195 87 20 00
        E 46 97 1a 44
        E 192 87 1a 00
        E 48 97 24 54
        E 193 87 24 00
        E 46 97 27 4e
        E 198 87 27 00
        E 43 97 25 22
        E 196 87 25 00
        E 44 97 18 51
        E 195 87 18 00
        E 45 97 25 54
        E 192 87 25 00
        E 47 97 27 58
        E 195 87 27 00
        E 44 97 25 47
        E 188 87 25 00
        E 54 97 19 4e
        E 195 87 19 00
        E 43 97 24 4f
        E 193 87 24 00
        E 49 97 26 5b
        E 186 87 26 00
        E 54 97 24 35
        E 196 87 24 00
        E 43 97 19 29
        E 197 87 19 00
        E 43 97 26 4b
        E 190 87 26 00
        E 51 97 25 4e
        E 187 87 25 00
        E 51 97 25 44
        E 191 87 25 00
        E 50 97 1a 49
        E 199 87 1a 00
        E 41 97 26 3e
        E 197 87 26 00
        E 43 97 24 34
        E 186 87 24 00
        E 53 97 27 46
        E 191 87 27 00
        E 51 97 1c 39
        E 198 87 1c 00
        E 42 97 26 2a
        E 191 87 26 00
        E 47 97 21 39
        E 196 87 21 00
        E 46 97 26 46
        E 192 87 26 00
        E 47 97 1a 49
        E 188 87 1a 00
        E 53 97 20 3a
        E 191 87 20 00
        E 48 97 26 34
        E 197 87 26 00
        E 42 97 24 3a
        E 193 87 24 00
        E 48 97 1e 4c
        E 190 87 1e 00
        E 50 97 25 53
        E 194 87 25 00
        E 46 97 28 46
        E 194 87 28 00
        E 46 97 23 4b
        E 192 87 23 00
        E 47 97 21 53
        E 190 87 21 00
        E 51 97 29 4e
        E 193 87 29 00
        E 47 97 21 4c
        E 202 87 21 00
        E 38 97 25 58
        E 187 87 25 00
        E 53 97 1d 29
        E 199 87 1d 00
        E 42 97 24 49
        E 179 87 24 00
        E 60 97 24 51
        E 196 87 24 00
        E 43 97 25 4c
        E 183 87 25 00
        E 58 97 1c 54
        E 194 87 1c 00
        E 45 97 25 51
        E 191 87 25 00
        E 51 97 24 44
        E 195 87 24 00
        E 44 97 23 53
        E 194 87 23 00
        E 47 97 1b 4e
        E 184 87 1b 00
        E 55 97 27 49
        E 185 87 27 00
        E 53 97 28 44
        E 198 87 28 00
        E 44 97 1e 4c
        E 187 87 1e 00
        E 54 97 1a 3c
        E 193 87 1a 00
        E 46 97 25 41
        E 189 87 25 00
        E 51 97 24 4c
        E 201 87 24 00
        E 38 97 26 44
        E 191 87 26 00
        E 49 97 18 1d
        E 184 87 18 00
        E 57 97 26 3f
        E 190 87 26 00
        E 50 97 23 2d
        E 182 87 23 00
        E 57 97 26 27
        E 190 87 26 00
        E 51 97 18 44
        E 186 87 18 00
        E 54 97 1b 3a
        E 195 87 1b 00
        E 45 97 26 3f
        E 194 87 26 00
        E 47 97 25 29
        E 194 87 25 00
        E 44 97 1c 24
        E 188 87 1c 00
        E 54 97 25 49
        E 194 87 25 00
        E 45 97 28 4e
        E 192 87 28 00
        E 48 97 24 51
        E 200 87 24 00
        E 41 97 1c 3f
        E 199 87 1c 00
        E 39 97 24 58
        E 195 87 24 00
        E 47 97 29 44
        E 194 87 29 00
        E 46 97 26 29
        E 197 87 26 00
        E 41 97 20 2a
        E 195 87 20 00
        E 47 97 26 51
        E 194 87 26 00
        E 45 97 27 51
        E 192 87 27 00
        E 48 97 26 3f
        E 189 87 26 00
        E 52 97 20 54
        E 195 87 20 00
        E 45 97 20 49
        E 194 87 20 00
        E 44 97 2a 4c
        E 201 87 2a 00
        E 39 97 27 53
        E 187 87 27 00
        E 55 97 20 58
        E 196 87 20 00
        E 44 97 26 56
        E 185 87 26 00
        E 54 97 28 42
        E 193 87 28 00
        E 46 97 27 4f
        E 188 87 27 00
        E 54 97 1b 3a
        E 196 87 1b 00
        E 44 97 26 47
        E 197 87 26 00
        E 43 97 24 3f
        E 186 87 24 00
        E 53 97 1f 27
        E 191 87 1f 00
        E 50 97 1b 3f
        E 192 87 1b 00
        E 47 97 28 31
        E 195 87 28 00
        E 45 97 29 3f
        E 197 87 29 00
        E 42 97 1e 35
        E 179 87 1e 00
        E 62 97 1c 42
        E 192 87 1c 00
        E 48 97 27 3c
        E 189 87 27 00
        E 50 97 28 44
        E 191 87 28 00
        E 51 97 24 1f
        E 199 87 24 00
        E 40 97 1c 1a
        E 191 87 1c 00
        E 1728 97 1c 41
        E 199 87 1c 00
        E 42 97 21 69
        E 196 87 21 00
        E 43 97 28 73
        E 192 87 28 00
        E 47 97 23 58
        E 195 87 23 00
        E 46 97 1b 65
        E 193 87 1b 00
        E 48 97 20 63
        E 184 87 20 00
        E 57 97 26 65
        E 192 87 26 00
        E 47 97 25 6b
        E 191 87 25 00
        E 49 97 20 79
        E 189 87 20 00
        E 50 97 27 6b
        E 186 87 27 00
        E 56 97 28 71
        E 199 87 28 00
        E 41 97 24 65
        E 191 87 24 00
        E 48 97 1c 66
        E 185 87 1c 00
        E 55 97 26 68
        E 203 87 26 00
        E 37 97 1c 41
        E 191 87 1c 00
        E 50 97 24 56
        E 188 87 24 00
        E 52 97 1e 65
        E 194 87 1e 00
        E 45 97 24 65
        E 198 87 24 00
        E 43 97 29 5c
        E 189 87 29 00
        E 51 97 25 58
        E 194 87 25 00
        E 46 97 18 61
        E 192 87 18 00
        E 47 97 25 46
        E 188 87 25 00
        E 52 97 27 65
        E 197 87 27 00
        E 41 97 23 69
        E 192 87 23 00
        E 51 97 1a 61
        E 188 87 1a 00
        E 51 97 1e 61
        E 192 87 1e 00
        E 49 97 29 68
        E 190 87 29 00
        E 47 97 1e 65
        E 191 87 1e 00
        E 51 97 1d 6e
        E 193 87 1d 00
        E 46 97 25 60
        E 196 87 25 00
        E 45 97 24 5b
        E 196 87 24 00
        E 44 97 25 44
        E 188 87 25 00
        E 52 97 22 49
        E 187 87 22 00
        E 52 97 25 68
        E 190 87 25 00
        E 52 97 29 63
        E 194 87 29 00
        E 45 97 24 69
        E 189 87 24 00
        E 51 97 1d 61
        E 192 87 1d 00
        E 49 97 24 5c
        E 195 87 24 00
        E 45 97 26 44
        E 196 87 26 00
        E 44 97 25 47
        E 200 87 25 00
        E 39 97 1f 69
        E 195 87 1f 00
        E 45 97 25 70
        E 198 87 25 00
        E 43 97 28 63
        E 192 87 28 00
        E 48 97 25 69
        E 192 87 25 00
        E 47 97 20 66
        E 193 87 20 00
        E 48 97 24 60
        E 187 87 24 00
        E 52 97 24 65
        E 199 87 24 00
        E 41 97 21 2c
        E 190 87 21 00
        E 49 97 1a 29
        E 189 87 1a 00
        E 52 97 26 51
        E 189 87 26 00
        E 51 97 27 49
        E 190 87 27 00
        E 51 97 28 53
        E 189 87 28 00
        E 50 97 16 4e
        E 197 87 16 00
        E 43 97 22 41
        E 191 87 22 00
        E 49 97 22 60
        E 186 87 22 00
        E 54 97 24 42
        E 194 87 24 00
        E 46 97 1c 41
        E 197 87 1c 00
        E 43 97 25 6e
        E 187 87 25 00
        E 51 97 21 5b
        E 193 87 21 00
        E 50 97 24 6e
        E 196 87 24 00
        E 44 97 1d 61
        E 194 87 1d 00
        E 44 97 24 65
        E 187 87 24 00
        E 53 97 28 69
        E 197 87 28 00
        E 43 97 24 61
        E 198 87 24 00
        E 41 97 20 4f
        E 186 87 20 00
        E 56 97 25 70
        E 195 87 25 00
        E 45 97 28 6b
        E 185 87 28 00
        E 55 97 24 68
        E 191 87 24 00
        E 49 97 1d 66
        E 190 87 1d 00
        E 50 97 24 61
        E 205 87 24 00
        E 35 97 26 4e
        E 186 87 26 00
        E 53 97 25 4e
        E 197 87 25 00
        E 43 97 20 5e
        E 185 87 20 00
        E 56 97 25 69
        E 188 87 25 00
        E 52 97 28 6e
        E 200 87 28 00
        E 39 97 23 71
        E 188 87 23 00
        E 53 97 1d 69
        E 189 87 1d 00
        E 52 97 23 73
        E 202 87 23 00
        E 38 97 26 69
        E 192 87 26 00
        E 47 97 27 3f
        E 197 87 27 00
        E 44 97 1a 68
        E 188 87 1a 00
        E 51 97 26 56
        E 193 87 26 00
        E 47 97 25 59
        E 190 87 25 00
        E 49 97 26 54
        E 188 87 26 00
        E 53 97 1a 44
        E 183 87 1a 00
        E 58 97 26 58
        E 184 87 26 00
        E 54 97 26 41
        E 197 87 26 00
        E 44 97 23 46
        E 185 87 23 00
        E 55 97 1c 65
        E 195 87 1c 00
        E 45 97 25 66
        E 194 87 25 00
        E 46 97 2c 65
        E 193 87 2c 00
        E 48 97 23 6b
        E 196 87 23 00
        E 42 97 1e 60
        E 204 87 1e 00
        E 37 97 27 68
        E 193 87 27 00
        E 48 97 24 71
        E 196 87 24 00
        E 43 97 28 39
        E 198 87 28 00
        E 44 97 21 6b
        E 200 87 21 00
        E 38 97 23 70
        E 196 87 23 00
        E 45 97 28 68
        E 190 87 28 00
        E 49 97 24 61
        E 189 87 24 00
        E 51 97 1d 69
        E 190 87 1d 00
        E 50 97 25 63
        E 198 87 25 00
        E 42 97 27 68
        E 195 87 27 00
        E 46 97 24 3e
        E 191 87 24 00
        E 47 97 1f 49
        E 179 87 1f 00
        E 61 97 23 6e
        E 188 87 23 00
        E 51 97 26 61
        E 186 87 26 00
        E 56 97 24 73
        E 197 87 24 00
        E 44 97 1f 6e
        E 195 87 1f 00
        E 44 97 25 60
        E 197 87 25 00
        E 43 97 28 5e
        E 203 87 28 00
        E 38 97 25 2d
        E 188 87 25 00
        E 52 97 18 60
        E 190 87 18 00
        E 48 97 24 68
        E 192 87 24 00
        E 49 97 24 60
        E 194 87 24 00
        E 47 97 1d 53
        E 190 87 1d 00
        E 48 97 1d 4f
        E 193 87 1d 00
        E 49 97 23 4f
        E 194 87 23 00
        E 46 97 1b 46
        E 190 87 1b 00
        E 49 97 24 32
        E 188 87 24 00
        E 51 97 1e 2f
        E 196 87 1e 00
        E 45 97 25 69
        E 187 87 25 00
        E 52 97 26 60
        E 190 87 26 00
        E 52 97 25 6e
        E 198 87 25 00
        E 41 97 1d 6d
        E 195 87 1d 00
        E 45 97 23 60
        E 195 87 23 00
        E 45 97 25 5b
        E 191 87 25 00
        E 47 97 20 58
        E 197 87 20 00
        E 45 97 20 53
        E 189 87 20 00
        E 50 97 26 73
        E 194 87 26 00
        E 47 97 24 60
        E 183 87 24 00
        E 58 97 1c 66
        E 195 87 1c 00
        E 43 97 1c 6b
        E 200 87 1c 00
        E 40 97 1f 65
        E 195 87 1f 00
        E 46 97 27 5b
        E 190 87 27 00
        E 49 97 25 63
        E 192 87 25 00
        E 49 97 20 41
        E 193 87 20 00
        E 0 b7 7b 00
        E 1 ff 2f 00
      >
    >
  >
  <TRACK
    NAME "Horror"
    PEAKCOL 4284506208
    VOLPAN 1.000000 0 1 -1
    MIDIOUT -1
    ISBUS 0 0
    <ITEM
      POSITION 2.496829
      LENGTH 71.016074
      NAME "Horror"
      VOLPAN 1 0 1 -1
      <SOURCE MIDI
        HASDATA 1 960 QN
        E 0 c8 31 00
        E 3835 98 3d 73
        E 4 98 2c 6e
        E 485 88 3d 00
        E 3184 88 2c 00
        E 5752 98 3c 60
        E 470 88 3c 00
        E 8853 98 40 56
        E 472 88 40 00
        E 15339 98 3e 32
        E 487 88 3e 00
        E 3355 98 2d 65
        E 4 98 2b 5b
        E 3706 88 2b 00
        E 139 88 2d 00
        E 7114 98 3a 60
        E 489 88 3a 00
        E 73 98 32 3e
        E 3722 88 32 00
        E 7800 98 3b 2f
        E 2 98 33 2f
        E 2 98 33 2f
        E 493 88 3b 00
        E 3276 88 33 00
        E 65 88 33 00
        E 12709 98 37 6e
        E 489 88 37 00
        E 808 98 41 68
        E 487 88 41 00
        E 863 98 32 4b
        E 3843 88 32 00
        E 14565 98 40 75
        E 491 88 40 00
        E 315 98 34 42
        E 3783 88 34 00
        E 43 98 3e 7a
        E 1 98 31 7a
        E 12 98 32 3c
        E 471 88 3e 00
        E 3098 88 32 00
        E 159 88 31 00
        E 100 98 37 63
        E 484 88 37 00
        E 438 98 3f 60
        E 482 88 3f 00
        E 0 b8 7b 00
        E 1 ff 2f 00
      >
    >
  >
  <TRACK
    NAME "Timpani"
    PEAKCOL 4290722362
    VOLPAN 1.000000 0 1 -1
    MIDIOUT -1
    ISBUS 0 0
    <ITEM
      POSITION 4.999900
      LENGTH 75.084440
      NAME "Timpani"
      VOLPAN 1 0 1 -1
      <SOURCE MIDI
        HASDATA 1 960 QN
        E 0 ca 2f 00
        E 7680 9a 25 6e
        E 96 8a 25 00
        E 144 9a 25 6d
        E 97 8a 25 00
        E 23 9a 25 75
        E 97 8a 25 00
        E 23 9a 25 75
        E 94 8a 25 00
        E 26 9a 25 7d
        E 97 8a 25 00
        E 23 9a 25 79
        E 97 8a 25 00
        E 23 9a 25 6e
        E 96 8a 25 00
        E 144 9a 25 7d
        E 97 8a 25 00
        E 143 9a 25 6d
        E 96 8a 25 00
        E 264 9a 25 6d
        E 96 8a 25 00
        E 143 9a 26 7a
        E 96 8a 26 00
        E 25 9a 25 54
        E 96 8a 25 00
        E 264 9a 26 7d
        E 96 8a 26 00
        E 24 9a 26 75
        E 95 8a 26 00
        E 145 9a 26 77
        E 95 8a 26 00
        E 25 9a 26 75
        E 95 8a 26 00
        E 25 9a 26 71
        E 97 8a 26 00
        E 23 9a 26 7a
        E 97 8a 26 00
        E 503 9a 29 66
        E 95 8a 29 00
        E 146 9a 25 37
        E 96 8a 25 00
        E 23 9a 25 4f
        E 96 8a 25 00
        E 144 9a 25 75
        E 96 8a 25 00
        E 143 9a 25 75
        E 96 8a 25 00
        E 385 9a 25 79
        E 96 8a 25 00
        E 24 9a 24 65
        E 97 8a 24 00
        E 144 9a 27 77
        E 96 8a 27 00
        E 143 9a 27 79
        E 96 8a 27 00
        E 504 9a 24 6e
        E 98 8a 24 00
        E 22 9a 23 5b
        E 97 8a 23 00
        E 264 9a 25 7a
        E 96 8a 25 00
        E 143 9a 25 7a
        E 97 8a 25 00
        E 143 9a 25 66
        E 95 8a 25 00
        E 145 9a 25 63
        E 96 8a 25 00
        E 264 9a 32 53
        E 97 8a 32 00
        E 143 9a 26 7a
        E 97 8a 26 00
        E 143 9a 26 75
        E 95 8a 26 00
        E 265 9a 26 77
        E 96 8a 26 00
        E 865 9a 25 58
        E 96 8a 25 00
        E 23 9a 26 70
        E 96 8a 26 00
        E 264 9a 27 54
        E 95 8a 27 00
        E 145 9a 26 7a
        E 95 8a 26 00
        E 145 9a 25 65
        E 96 8a 25 00
        E 24 9a 26 79
        E 96 8a 26 00
        E 24 9a 26 78
        E 96 8a 26 00
        E 25 9a 26 7d
        E 96 8a 26 00
        E 23 9a 25 6d
        E 97 8a 25 00
        E 23 9a 26 68
        E 95 8a 26 00
        E 265 9a 25 41
        E 96 8a 25 00
        E 264 9a 25 7c
        E 96 8a 25 00
        E 24 9a 26 78
        E 95 8a 26 00
        E 26 9a 25 6e
        E 95 8a 25 00
        E 144 9a 26 7d
        E 96 8a 26 00
        E 143 9a 25 79
        E 96 8a 25 00
        E 265 9a 26 7d
        E 95 8a 26 00
        E 145 9a 26 60
        E 96 8a 26 00
        E 24 9a 25 66
        E 97 8a 25 00
        E 624 9a 26 6d
        E 97 8a 26 00
        E 142 9a 25 75
        E 94 8a 25 00
        E 386 9a 27 63
        E 96 8a 27 00
        E 264 9a 24 4b
        E 96 8a 24 00
        E 24 9a 25 5b
        E 96 8a 25 00
        E 144 9a 26 3f
        E 97 8a 26 00
        E 24 9a 26 79
        E 96 8a 26 00
        E 263 9a 24 65
        E 97 8a 24 00
        E 143 9a 26 71
        E 96 8a 26 00
        E 24 9a 26 7c
        E 95 8a 26 00
        E 145 9a 26 75
        E 97 8a 26 00
        E 23 9a 26 73
        E 96 8a 26 00
        E 144 9a 26 77
        E 96 8a 26 00
        E 144 9a 26 7b
        E 96 8a 26 00
        E 144 9a 25 32
        E 96 8a 25 00
        E 23 9a 28 2c
        E 97 8a 28 00
        E 384 9a 24 70
        E 96 8a 24 00
        E 24 9a 25 65
        E 97 8a 25 00
        E 144 9a 24 6b
        E 97 8a 24 00
        E 142 9a 25 4e
        E 96 8a 25 00
        E 144 9a 25 7b
        E 96 8a 25 00
        E 144 9a 24 5c
        E 98 8a 24 00
        E 22 9a 26 35
        E 96 8a 26 00
        E 24 9a 26 4c
        E 98 8a 26 00
        E 22 9a 26 77
        E 97 8a 26 00
        E 23 9a 26 7d
        E 96 8a 26 00
        E 25 9a 26 75
        E 95 8a 26 00
        E 144 9a 26 73
        E 97 8a 26 00
        E 143 9a 26 79
        E 95 8a 26 00
        E 145 9a 26 79
        E 97 8a 26 00
        E 142 9a 26 7b
        E 97 8a 26 00
        E 144 9a 26 7c
        E 95 8a 26 00
        E 25 9a 25 56
        E 96 8a 25 00
        E 144 9a 21 31
        E 97 8a 21 00
        E 23 9a 23 66
        E 96 8a 23 00
        E 24 9a 24 77
        E 96 8a 24 00
        E 264 9a 24 7a
        E 96 8a 24 00
        E 744 9a 25 77
        E 95 8a 25 00
        E 26 9a 25 79
        E 96 8a 25 00
        E 23 9a 22 6e
        E 96 8a 22 00
        E 384 9a 26 73
        E 96 8a 26 00
        E 24 9a 26 75
        E 96 8a 26 00
        E 144 9a 24 63
        E 97 8a 24 00
        E 263 9a 26 7d
        E 96 8a 26 00
        E 263 9a 27 6e
        E 96 8a 27 00
        E 25 9a 27 6e
        E 97 8a 27 00
        E 143 9a 24 4e
        E 96 8a 24 00
        E 144 9a 26 3e
        E 95 8a 26 00
        E 145 9a 25 63
        E 96 8a 25 00
        E 24 9a 26 7a
        E 96 8a 26 00
        E 264 9a 26 79
        E 96 8a 26 00
        E 23 9a 26 7d
        E 95 8a 26 00
        E 266 9a 26 7d
        E 97 8a 26 00
        E 23 9a 26 7b
        E 97 8a 26 00
        E 143 9a 25 4c
        E 96 8a 25 00
        E 24 9a 27 51
        E 96 8a 27 00
        E 24 9a 26 3e
        E 96 8a 26 00
        E 144 9a 27 53
        E 96 8a 27 00
        E 144 9a 28 6e
        E 95 8a 28 00
        E 145 9a 20 58
        E 96 8a 20 00
        E 24 9a 27 77
        E 97 8a 27 00
        E 143 9a 27 7d
        E 96 8a 27 00
        E 24 9a 27 78
        E 95 8a 27 00
        E 25 9a 27 7d
        E 96 8a 27 00
        E 504 9a 24 66
        E 97 8a 24 00
        E 23 9a 24 32
        E 96 8a 24 00
        E 24 9a 1b 31
        E 96 8a 1b 00
        E 24 9a 25 66
        E 96 8a 25 00
        E 504 9a 23 7b
        E 96 8a 23 00
        E 144 9a 23 6e
        E 96 8a 23 00
        E 145 9a 22 66
        E 95 8a 22 00
        E 144 9a 25 6e
        E 97 8a 25 00
        E 23 9a 1e 37
        E 97 8a 1e 00
        E 142 9a 25 3a
        E 96 8a 25 00
        E 26 9a 25 44
        E 96 8a 25 00
        E 143 9a 25 71
        E 96 8a 25 00
        E 25 9a 24 71
        E 96 8a 24 00
        E 24 9a 24 78
        E 96 8a 24 00
        E 142 9a 24 77
        E 98 8a 24 00
        E 23 9a 23 75
        E 97 8a 23 00
        E 263 9a 25 66
        E 97 8a 25 00
        E 143 9a 25 6b
        E 95 8a 25 00
        E 265 9a 25 3a
        E 94 8a 25 00
        E 146 9a 25 70
        E 96 8a 25 00
        E 24 9a 25 73
        E 96 8a 25 00
        E 24 9a 25 78
        E 97 8a 25 00
        E 23 9a 25 63
        E 96 8a 25 00
        E 144 9a 24 68
        E 97 8a 24 00
        E 383 9a 25 7d
        E 97 8a 25 00
        E 144 9a 25 5c
        E 97 8a 25 00
        E 622 9a 25 66
        E 96 8a 25 00
        E 24 9a 25 77
        E 95 8a 25 00
        E 145 9a 24 77
        E 97 8a 24 00
        E 23 9a 24 7d
        E 95 8a 24 00
        E 25 9a 25 7c
        E 95 8a 25 00
        E 265 9a 25 7d
        E 96 8a 25 00
        E 24 9a 25 7c
        E 96 8a 25 00
        E 23 9a 24 5c
        E 96 8a 24 00
        E 25 9a 24 54
        E 95 8a 24 00
        E 144 9a 24 41
        E 96 8a 24 00
        E 25 9a 25 49
        E 96 8a 25 00
        E 24 9a 23 77
        E 97 8a 23 00
        E 23 9a 24 70
        E 96 8a 24 00
        E 264 9a 25 61
        E 96 8a 25 00
        E 143 9a 25 7a
        E 97 8a 25 00
        E 24 9a 24 7d
        E 97 8a 24 00
        E 143 9a 23 7b
        E 95 8a 23 00
        E 265 9a 1f 5b
        E 96 8a 1f 00
        E 24 9a 26 31
        E 96 8a 26 00
        E 264 9a 23 4c
        E 98 8a 23 00
        E 21 9a 24 69
        E 95 8a 24 00
        E 26 9a 24 66
        E 97 8a 24 00
        E 263 9a 24 63
        E 96 8a 24 00
        E 145 9a 24 61
        E 97 8a 24 00
        E 22 9a 24 65
        E 95 8a 24 00
        E 145 9a 24 65
        E 97 8a 24 00
        E 23 9a 23 6e
        E 96 8a 23 00
        E 144 9a 25 31
        E 97 8a 25 00
        E 23 9a 26 2c
        E 97 8a 26 00
        E 143 9a 24 58
        E 96 8a 24 00
        E 24 9a 24 71
        E 98 8a 24 00
        E 22 9a 24 5c
        E 95 8a 24 00
        E 145 9a 25 58
        E 97 8a 25 00
        E 23 9a 24 34
        E 96 8a 24 00
        E 24 9a 26 4c
        E 95 8a 26 00
        E 25 9a 24 5e
        E 96 8a 24 00
        E 264 9a 24 70
        E 96 8a 24 00
        E 24 9a 25 66
        E 97 8a 25 00
        E 263 9a 23 35
        E 96 8a 23 00
        E 264 9a 25 66
        E 96 8a 25 00
        E 144 9a 25 75
        E 96 8a 25 00
        E 24 9a 25 5c
        E 96 8a 25 00
        E 505 9a 25 60
        E 95 8a 25 00
        E 24 9a 25 78
        E 97 8a 25 00
        E 143 9a 23 4c
        E 96 8a 23 00
        E 23 9a 25 5c
        E 95 8a 25 00
        E 26 9a 25 31
        E 95 8a 25 00
        E 24 9a 25 32
        E 96 8a 25 00
        E 25 9a 24 68
        E 97 8a 24 00
        E 23 9a 23 6e
        E 96 8a 23 00
        E 24 9a 23 69
        E 97 8a 23 00
        E 22 9a 23 56
        E 97 8a 23 00
        E 144 9a 23 75
        E 97 8a 23 00
        E 22 9a 23 4e
        E 95 8a 23 00
        E 146 9a 24 7a
        E 96 8a 24 00
        E 24 9a 25 54
        E 95 8a 25 00
        E 265 9a 1b 32
        E 97 8a 1b 00
        E 23 9a 26 29
        E 95 8a 26 00
        E 25 9a 28 44
        E 96 8a 28 00
        E 25 9a 28 68
        E 96 8a 28 00
        E 23 9a 24 73
        E 96 8a 24 00
        E 24 9a 24 5b
        E 95 8a 24 00
        E 25 9a 24 75
        E 96 8a 24 00
        E 264 9a 24 73
        E 97 8a 24 00
        E 23 9a 24 69
        E 97 8a 24 00
        E 24 9a 23 54
        E 96 8a 23 00
        E 22 9a 23 58
        E 96 8a 23 00
        E 145 9a 24 66
        E 97 8a 24 00
        E 24 9a 24 34
        E 96 8a 24 00
        E 23 9a 24 47
        E 95 8a 24 00
        E 24 9a 23 44
        E 97 8a 23 00
        E 24 9a 24 3a
        E 96 8a 24 00
        E 24 9a 24 35
        E 96 8a 24 00
        E 24 9a 24 6d
        E 95 8a 24 00
        E 25 9a 24 75
        E 96 8a 24 00
        E 23 9a 24 54
        E 96 8a 24 00
        E 265 9a 24 5b
        E 97 8a 24 00
        E 24 9a 24 6e
        E 94 8a 24 00
        E 26 9a 24 66
        E 97 8a 24 00
        E 262 9a 26 5c
        E 97 8a 26 00
        E 23 9a 28 3c
        E 97 8a 28 00
        E 263 9a 20 31
        E 96 8a 20 00
        E 24 9a 21 2c
        E 95 8a 21 00
        E 25 9a 21 69
        E 95 8a 21 00
        E 25 9a 20 68
        E 96 8a 20 00
        E 24 9a 1a 54
        E 95 8a 1a 00
        E 25 9a 23 7c
        E 96 8a 23 00
        E 25 9a 23 7a
        E 95 8a 23 00
        E 23 9a 23 7b
        E 96 8a 23 00
        E 145 9a 20 63
        E 96 8a 20 00
        E 24 9a 21 4e
        E 96 8a 21 00
        E 144 9a 20 58
        E 97 8a 20 00
        E 23 9a 1f 53
        E 96 8a 1f 00
        E 24 9a 17 37
        E 96 8a 17 00
        E 24 9a 20 3a
        E 95 8a 20 00
        E 25 9a 17 25
        E 96 8a 17 00
        E 25 9a 23 5c
        E 95 8a 23 00
        E 23 9a 25 54
        E 96 8a 25 00
        E 26 9a 25 5e
        E 96 8a 25 00
        E 383 9a 1e 56
        E 96 8a 1e 00
        E 144 9a 1e 63
        E 96 8a 1e 00
        E 24 9a 1c 4f
        E 97 8a 1c 00
        E 23 9a 24 7d
        E 96 8a 24 00
        E 24 9a 23 4f
        E 96 8a 23 00
        E 24 9a 24 60
        E 96 8a 24 00
        E 24 9a 24 3e
        E 96 8a 24 00
        E 144 9a 24 32
        E 94 8a 24 00
        E 26 9a 25 58
        E 95 8a 25 00
        E 25 9a 24 68
        E 95 8a 24 00
        E 25 9a 24 59
        E 96 8a 24 00
        E 24 9a 23 58
        E 95 8a 23 00
        E 26 9a 24 66
        E 96 8a 24 00
        E 22 9a 24 6e
        E 95 8a 24 00
        E 26 9a 24 68
        E 97 8a 24 00
        E 23 9a 24 79
        E 95 8a 24 00
        E 24 9a 24 6d
        E 96 8a 24 00
        E 25 9a 24 7d
        E 97 8a 24 00
        E 23 9a 23 4e
        E 95 8a 23 00
        E 25 9a 23 61
        E 97 8a 23 00
        E 23 9a 23 3a
        E 96 8a 23 00
        E 24 9a 24 6b
        E 97 8a 24 00
        E 23 9a 25 32
        E 96 8a 25 00
        E 24 9a 24 29
        E 96 8a 24 00
        E 143 9a 26 65
        E 97 8a 26 00
        E 24 9a 27 60
        E 94 8a 27 00
        E 25 9a 27 5b
        E 97 8a 27 00
        E 24 9a 25 4c
        E 95 8a 25 00
        E 24 9a 26 75
        E 95 8a 26 00
        E 26 9a 26 66
        E 95 8a 26 00
        E 25 9a 26 79
        E 95 8a 26 00
        E 146 9a 24 5c
        E 97 8a 24 00
        E 261 9a 26 73
        E 96 8a 26 00
        E 25 9a 26 7a
        E 94 8a 26 00
        E 26 9a 24 2d
        E 95 8a 24 00
        E 145 9a 25 5e
        E 97 8a 25 00
        E 23 9a 24 5b
        E 96 8a 24 00
        E 24 9a 25 65
        E 96 8a 25 00
        E 144 9a 25 7a
        E 95 8a 25 00
        E 25 9a 24 71
        E 97 8a 24 00
        E 143 9a 25 5c
        E 97 8a 25 00
        E 24 9a 25 7b
        E 97 8a 25 00
        E 21 9a 24 75
        E 95 8a 24 00
        E 26 9a 25 59
        E 96 8a 25 00
        E 24 9a 25 60
        E 96 8a 25 00
        E 24 9a 25 60
        E 96 8a 25 00
        E 144 9a 24 2c
        E 97 8a 24 00
        E 24 9a 20 35
        E 97 8a 20 00
        E 262 9a 24 7c
        E 96 8a 24 00
        E 24 9a 24 70
        E 96 8a 24 00
        E 24 9a 24 75
        E 94 8a 24 00
        E 26 9a 23 5b
        E 96 8a 23 00
        E 24 9a 24 79
        E 97 8a 24 00
        E 143 9a 24 66
        E 95 8a 24 00
        E 25 9a 24 5b
        E 96 8a 24 00
        E 24 9a 1d 3e
        E 97 8a 1d 00
        E 24 9a 22 5b
        E 97 8a 22 00
        E 22 9a 21 54
        E 95 8a 21 00
        E 25 9a 21 5b
        E 97 8a 21 00
        E 23 9a 20 20
        E 95 8a 20 00
        E 25 9a 21 24
        E 96 8a 21 00
        E 24 9a 22 59
        E 96 8a 22 00
        E 24 9a 21 63
        E 96 8a 21 00
        E 25 9a 21 4c
        E 96 8a 21 00
        E 23 9a 23 6e
        E 95 8a 23 00
        E 25 9a 23 5c
        E 96 8a 23 00
        E 24 9a 23 70
        E 96 8a 23 00
        E 24 9a 23 70
        E 95 8a 23 00
        E 25 9a 23 6b
        E 96 8a 23 00
        E 24 9a 23 75
        E 96 8a 23 00
        E 24 9a 23 78
        E 96 8a 23 00
        E 24 9a 23 56
        E 95 8a 23 00
        E 25 9a 25 4e
        E 94 8a 25 00
        E 26 9a 25 4e
        E 97 8a 25 00
        E 23 9a 21 51
        E 95 8a 21 00
        E 25 9a 24 29
        E 97 8a 24 00
        E 23 9a 24 32
        E 96 8a 24 00
        E 23 9a 24 3a
        E 96 8a 24 00
        E 25 9a 24 75
        E 95 8a 24 00
        E 25 9a 24 66
        E 95 8a 24 00
        E 25 9a 24 66
        E 96 8a 24 00
        E 145 9a 25 49
        E 96 8a 25 00
        E 23 9a 25 7d
        E 96 8a 25 00
        E 24 9a 24 63
        E 96 8a 24 00
        E 24 9a 24 61
        E 98 8a 24 00
        E 143 9a 24 4b
        E 95 8a 24 00
        E 24 9a 24 6e
        E 96 8a 24 00
        E 23 9a 25 5e
        E 96 8a 25 00
        E 24 9a 25 47
        E 97 8a 25 00
        E 24 9a 25 27
        E 97 8a 25 00
        E 23 9a 25 2a
        E 96 8a 25 00
        E 24 9a 24 32
        E 96 8a 24 00
        E 24 9a 23 4f
        E 95 8a 23 00
        E 25 9a 24 6e
        E 95 8a 24 00
        E 25 9a 24 60
        E 95 8a 24 00
        E 25 9a 24 70
        E 95 8a 24 00
        E 25 9a 24 5c
        E 95 8a 24 00
        E 25 9a 24 59
        E 96 8a 24 00
        E 25 9a 24 68
        E 96 8a 24 00
        E 23 9a 24 6e
        E 95 8a 24 00
        E 25 9a 25 59
        E 96 8a 25 00
        E 24 9a 25 5c
        E 96 8a 25 00
        E 24 9a 24 73
        E 97 8a 24 00
        E 23 9a 23 4f
        E 97 8a 23 00
        E 142 9a 27 47
        E 97 8a 27 00
        E 24 9a 24 29
        E 95 8a 24 00
        E 25 9a 24 25
        E 96 8a 24 00
        E 24 9a 25 59
        E 95 8a 25 00
        E 145 9a 29 51
        E 96 8a 29 00
        E 24 9a 29 53
        E 96 8a 29 00
        E 25 9a 24 68
        E 96 8a 24 00
        E 23 9a 23 3f
        E 96 8a 23 00
        E 24 9a 24 70
        E 96 8a 24 00
        E 24 9a 24 54
        E 96 8a 24 00
        E 25 9a 24 61
        E 96 8a 24 00
        E 23 9a 25 59
        E 95 8a 25 00
        E 144 9a 24 5e
        E 97 8a 24 00
        E 24 9a 25 5c
        E 95 8a 25 00
        E 25 9a 24 66
        E 96 8a 24 00
        E 24 9a 24 2f
        E 96 8a 24 00
        E 24 9a 24 4b
        E 95 8a 24 00
        E 25 9a 24 59
        E 95 8a 24 00
        E 25 9a 24 4f
        E 96 8a 24 00
        E 24 9a 25 54
        E 97 8a 25 00
        E 23 9a 25 56
        E 96 8a 25 00
        E 24 9a 24 63
        E 97 8a 24 00
        E 24 9a 24 7a
        E 96 8a 24 00
        E 144 9a 24 6d
        E 98 8a 24 00
        E 21 9a 24 5b
        E 96 8a 24 00
        E 24 9a 25 4f
        E 96 8a 25 00
        E 24 9a 24 6e
        E 96 8a 24 00
        E 144 9a 24 56
        E 96 8a 24 00
        E 24 9a 24 29
        E 96 8a 24 00
        E 24 9a 24 29
        E 96 8a 24 00
        E 23 9a 24 29
        E 96 8a 24 00
        E 25 9a 24 6b
        E 97 8a 24 00
        E 23 9a 25 7d
        E 95 8a 25 00
        E 25 9a 23 3c
        E 97 8a 23 00
        E 143 9a 26 4f
        E 96 8a 26 00
        E 24 9a 26 54
        E 96 8a 26 00
        E 24 9a 26 6e
        E 95 8a 26 00
        E 25 9a 25 77
        E 96 8a 25 00
        E 24 9a 25 66
        E 94 8a 25 00
        E 26 9a 25 79
        E 96 8a 25 00
        E 24 9a 25 7b
        E 96 8a 25 00
        E 24 9a 25 53
        E 97 8a 25 00
        E 23 9a 25 6b
        E 94 8a 25 00
        E 26 9a 26 51
        E 96 8a 26 00
        E 24 9a 26 51
        E 97 8a 26 00
        E 24 9a 26 7d
        E 95 8a 26 00
        E 24 9a 26 7d
        E 95 8a 26 00
        E 25 9a 26 7d
        E 95 8a 26 00
        E 25 9a 24 79
        E 96 8a 24 00
        E 24 9a 24 6b
        E 97 8a 24 00
        E 23 9a 24 70
        E 95 8a 24 00
        E 25 9a 24 70
        E 97 8a 24 00
        E 23 9a 25 6d
        E 95 8a 25 00
        E 25 9a 26 7d
        E 97 8a 26 00
        E 23 9a 26 7d
        E 96 8a 26 00
        E 24 9a 24 79
        E 97 8a 24 00
        E 23 9a 26 7d
        E 95 8a 26 00
        E 25 9a 25 70
        E 96 8a 25 00
        E 23 9a 26 75
        E 96 8a 26 00
        E 25 9a 23 7d
        E 96 8a 23 00
        E 25 9a 28 3a
        E 97 8a 28 00
        E 22 9a 23 77
        E 98 8a 23 00
        E 22 9a 24 7d
        E 95 8a 24 00
        E 25 9a 24 7d
        E 95 8a 24 00
        E 25 9a 24 73
        E 95 8a 24 00
        E 25 9a 24 7c
        E 97 8a 24 00
        E 23 9a 23 7d
        E 96 8a 23 00
        E 24 9a 24 7c
        E 96 8a 24 00
        E 23 9a 20 78
        E 96 8a 20 00
        E 24 9a 20 6d
        E 96 8a 20 00
        E 25 9a 24 7d
        E 97 8a 24 00
        E 23 9a 24 7c
        E 94 8a 24 00
        E 26 9a 25 6e
        E 97 8a 25 00
        E 23 9a 24 5b
        E 97 8a 24 00
        E 22 9a 1c 44
        E 95 8a 1c 00
        E 26 9a 24 5e
        E 95 8a 24 00
        E 26 9a 24 51
        E 95 8a 24 00
        E 24 9a 25 7d
        E 97 8a 25 00
        E 23 9a 25 6e
        E 96 8a 25 00
        E 24 9a 25 56
        E 97 8a 25 00
        E 23 9a 24 60
        E 98 8a 24 00
        E 22 9a 25 7d
        E 96 8a 25 00
        E 24 9a 25 7b
        E 97 8a 25 00
        E 22 9a 25 7d
        E 96 8a 25 00
        E 25 9a 24 78
        E 96 8a 24 00
        E 25 9a 25 7d
        E 96 8a 25 00
        E 23 9a 25 7d
        E 96 8a 25 00
        E 24 9a 24 79
        E 97 8a 24 00
        E 23 9a 24 7d
        E 95 8a 24 00
        E 25 9a 24 7c
        E 95 8a 24 00
        E 25 9a 23 77
        E 96 8a 23 00
        E 24 9a 24 65
        E 96 8a 24 00
        E 24 9a 26 46
        E 96 8a 26 00
        E 24 9a 27 47
        E 95 8a 27 00
        E 26 9a 26 75
        E 97 8a 26 00
        E 22 9a 24 7d
        E 96 8a 24 00
        E 24 9a 23 7c
        E 96 8a 23 00
        E 24 9a 23 7d
        E 96 8a 23 00
        E 24 9a 24 7d
        E 96 8a 24 00
        E 24 9a 24 7d
        E 96 8a 24 00
        E 23 9a 23 7c
        E 96 8a 23 00
        E 25 9a 23 7d
        E 95 8a 23 00
        E 25 9a 24 7d
        E 96 8a 24 00
        E 24 9a 24 7a
        E 96 8a 24 00
        E 24 9a 24 7d
        E 96 8a 24 00
        E 24 9a 24 7a
        E 96 8a 24 00
        E 24 9a 24 5c
        E 96 8a 24 00
        E 24 9a 20 79
        E 96 8a 20 00
        E 24 9a 25 4b
        E 97 8a 25 00
        E 23 9a 26 73
        E 96 8a 26 00
        E 25 9a 25 75
        E 96 8a 25 00
        E 23 9a 25 77
        E 95 8a 25 00
        E 25 9a 22 7c
        E 95 8a 22 00
        E 25 9a 25 7d
        E 96 8a 25 00
        E 25 9a 24 7a
        E 96 8a 24 00
        E 22 9a 25 7d
        E 97 8a 25 00
        E 24 9a 23 75
        E 96 8a 23 00
        E 25 9a 25 7d
        E 96 8a 25 00
        E 23 9a 25 7d
        E 97 8a 25 00
        E 23 9a 25 7d
        E 96 8a 25 00
        E 24 9a 24 73
        E 95 8a 24 00
        E 25 9a 25 7d
        E 97 8a 25 00
        E 22 9a 25 53
        E 96 8a 25 00
        E 25 9a 25 44
        E 96 8a 25 00
        E 24 9a 24 3c
        E 97 8a 24 00
        E 23 9a 24 3e
        E 96 8a 24 00
        E 24 9a 25 75
        E 96 8a 25 00
        E 24 9a 25 7c
        E 96 8a 25 00
        E 24 9a 25 7b
        E 95 8a 25 00
        E 25 9a 25 73
        E 96 8a 25 00
        E 24 9a 25 7d
        E 96 8a 25 00
        E 23 9a 25 7d
        E 96 8a 25 00
        E 25 9a 25 7c
        E 96 8a 25 00
        E 24 9a 25 7b
        E 95 8a 25 00
        E 25 9a 25 66
        E 95 8a 25 00
        E 25 9a 24 73
        E 97 8a 24 00
        E 23 9a 25 65
        E 97 8a 25 00
        E 23 9a 25 66
        E 96 8a 25 00
        E 24 9a 24 75
        E 95 8a 24 00
        E 25 9a 24 3a
        E 96 8a 24 00
        E 24 9a 24 34
        E 96 8a 24 00
        E 24 9a 25 22
        E 96 8a 25 00
        E 24 9a 24 7b
        E 95 8a 24 00
        E 25 9a 26 68
        E 96 8a 26 00
        E 24 9a 26 7d
        E 96 8a 26 00
        E 24 9a 26 7c
        E 97 8a 26 00
        E 22 9a 26 79
        E 96 8a 26 00
        E 25 9a 25 7d
        E 97 8a 25 00
        E 23 9a 25 7d
        E 96 8a 25 00
        E 24 9a 25 7d
        E 96 8a 25 00
        E 24 9a 26 7d
        E 96 8a 26 00
        E 24 9a 26 7d
        E 96 8a 26 00
        E 24 9a 24 71
        E 95 8a 24 00
        E 25 9a 26 7d
        E 96 8a 26 00
        E 24 9a 26 75
        E 97 8a 26 00
        E 23 9a 25 7d
        E 96 8a 25 00
        E 24 9a 24 4b
        E 97 8a 24 00
        E 22 9a 24 4b
        E 97 8a 24 00
        E 24 9a 24 7c
        E 95 8a 24 00
        E 25 9a 24 7b
        E 96 8a 24 00
        E 24 9a 25 7d
        E 95 8a 25 00
        E 25 9a 25 7d
        E 97 8a 25 00
        E 23 9a 25 7d
        E 94 8a 25 00
        E 26 9a 24 7b
        E 95 8a 24 00
        E 25 9a 25 7d
        E 96 8a 25 00
        E 24 9a 25 7d
        E 95 8a 25 00
        E 25 9a 25 7d
        E 97 8a 25 00
        E 23 9a 25 7d
        E 95 8a 25 00
        E 25 9a 24 6d
        E 96 8a 24 00
        E 24 9a 25 5e
        E 95 8a 25 00
        E 25 9a 24 75
        E 95 8a 24 00
        E 25 9a 25 77
        E 97 8a 25 00
        E 22 9a 24 54
        E 95 8a 24 00
        E 25 9a 24 51
        E 95 8a 24 00
        E 27 9a 25 7c
        E 95 8a 25 00
        E 24 9a 25 7d
        E 97 8a 25 00
        E 23 9a 25 7a
        E 95 8a 25 00
        E 25 9a 25 7d
        E 97 8a 25 00
        E 23 9a 24 77
        E 95 8a 24 00
        E 25 9a 25 7d
        E 95 8a 25 00
        E 25 9a 25 7d
        E 95 8a 25 00
        E 25 9a 25 7d
        E 96 8a 25 00
        E 24 9a 25 79
        E 97 8a 25 00
        E 23 9a 25 7d
        E 95 8a 25 00
        E 25 9a 25 7b
        E 97 8a 25 00
        E 23 9a 25 5b
        E 96 8a 25 00
        E 23 9a 25 4b
        E 95 8a 25 00
        E 26 9a 24 49
        E 97 8a 24 00
        E 23 9a 24 6d
        E 96 8a 24 00
        E 24 9a 24 71
        E 97 8a 24 00
        E 23 9a 24 77
        E 96 8a 24 00
        E 24 9a 25 7d
        E 96 8a 25 00
        E 24 9a 24 7d
        E 96 8a 24 00
        E 23 9a 24 7d
        E 96 8a 24 00
        E 25 9a 23 7a
        E 97 8a 23 00
        E 23 9a 23 7a
        E 96 8a 23 00
        E 25 9a 24 7d
        E 96 8a 24 00
        E 23 9a 24 6b
        E 97 8a 24 00
        E 23 9a 24 7d
        E 97 8a 24 00
        E 24 9a 23 7b
        E 95 8a 23 00
        E 24 9a 24 7d
        E 95 8a 24 00
        E 25 9a 24 4e
        E 97 8a 24 00
        E 23 9a 26 5c
        E 97 8a 26 00
        E 23 9a 26 46
        E 96 8a 26 00
        E 24 9a 24 69
        E 96 8a 24 00
        E 25 9a 24 7b
        E 96 8a 24 00
        E 23 9a 23 79
        E 96 8a 23 00
        E 24 9a 24 71
        E 96 8a 24 00
        E 24 9a 23 75
        E 97 8a 23 00
        E 23 9a 24 7c
        E 95 8a 24 00
        E 25 9a 24 69
        E 97 8a 24 00
        E 23 9a 24 6d
        E 97 8a 24 00
        E 23 9a 25 7c
        E 96 8a 25 00
        E 24 9a 24 7d
        E 96 8a 24 00
        E 24 9a 26 61
        E 97 8a 26 00
        E 23 9a 24 7d
        E 96 8a 24 00
        E 24 9a 24 7d
        E 96 8a 24 00
        E 24 9a 24 7d
        E 96 8a 24 00
        E 24 9a 27 68
        E 94 8a 27 00
        E 26 9a 21 42
        E 96 8a 21 00
        E 23 9a 22 3a
        E 97 8a 22 00
        E 24 9a 25 6d
        E 95 8a 25 00
        E 25 9a 25 6e
        E 97 8a 25 00
        E 23 9a 25 7d
        E 96 8a 25 00
        E 24 9a 25 7a
        E 96 8a 25 00
        E 24 9a 25 7d
        E 97 8a 25 00
        E 23 9a 25 7d
        E 95 8a 25 00
        E 25 9a 25 7d
        E 97 8a 25 00
        E 23 9a 23 7d
        E 97 8a 23 00
        E 23 9a 23 7a
        E 95 8a 23 00
        E 25 9a 23 7d
        E 96 8a 23 00
        E 25 9a 23 7d
        E 96 8a 23 00
        E 23 9a 23 7d
        E 96 8a 23 00
        E 24 9a 28 75
        E 96 8a 28 00
        E 23 9a 28 73
        E 95 8a 28 00
        E 26 9a 28 79
        E 96 8a 28 00
        E 24 9a 22 3a
        E 96 8a 22 00
        E 25 9a 27 68
        E 95 8a 27 00
        E 24 9a 28 7d
        E 96 8a 28 00
        E 24 9a 21 69
        E 96 8a 21 00
        E 24 9a 24 7d
        E 96 8a 24 00
        E 24 9a 24 68
        E 96 8a 24 00
        E 24 9a 25 75
        E 96 8a 25 00
        E 24 9a 25 75
        E 96 8a 25 00
        E 25 9a 24 7a
        E 97 8a 24 00
        E 23 9a 24 7d
        E 95 8a 24 00
        E 24 9a 24 78
        E 95 8a 24 00
        E 25 9a 25 7d
        E 97 8a 25 00
        E 23 9a 24 7d
        E 97 8a 24 00
        E 23 9a 24 78
        E 98 8a 24 00
        E 22 9a 24 7a
        E 96 8a 24 00
        E 24 9a 24 54
        E 97 8a 24 00
        E 23 9a 25 35
        E 95 8a 25 00
        E 25 9a 23 49
        E 96 8a 23 00
        E 24 9a 23 78
        E 97 8a 23 00
        E 23 9a 24 7d
        E 95 8a 24 00
        E 25 9a 25 59
        E 94 8a 25 00
        E 27 9a 25 7d
        E 95 8a 25 00
        E 23 9a 24 7d
        E 97 8a 24 00
        E 24 9a 24 70
        E 96 8a 24 00
        E 24 9a 24 7d
        E 97 8a 24 00
        E 23 9a 24 7d
        E 95 8a 24 00
        E 24 9a 24 78
        E 96 8a 24 00
        E 25 9a 24 75
        E 96 8a 24 00
        E 24 9a 24 75
        E 95 8a 24 00
        E 25 9a 24 78
        E 97 8a 24 00
        E 23 9a 21 66
        E 95 8a 21 00
        E 25 9a 24 37
        E 96 8a 24 00
        E 24 9a 25 31
        E 97 8a 25 00
        E 23 9a 26 3a
        E 96 8a 26 00
        E 24 9a 26 6e
        E 97 8a 26 00
        E 23 9a 27 7a
        E 95 8a 27 00
        E 24 9a 27 6d
        E 95 8a 27 00
        E 27 9a 27 7d
        E 97 8a 27 00
        E 22 9a 26 7a
        E 96 8a 26 00
        E 24 9a 27 7d
        E 95 8a 27 00
        E 25 9a 27 7d
        E 96 8a 27 00
        E 25 9a 27 7d
        E 96 8a 27 00
        E 22 9a 26 7a
        E 95 8a 26 00
        E 26 9a 26 7c
        E 96 8a 26 00
        E 24 9a 26 69
        E 97 8a 26 00
        E 23 9a 26 66
        E 96 8a 26 00
        E 24 9a 27 66
        E 96 8a 27 00
        E 24 9a 26 35
        E 96 8a 26 00
        E 24 9a 27 39
        E 95 8a 27 00
        E 25 9a 26 58
        E 95 8a 26 00
        E 25 9a 27 7d
        E 95 8a 27 00
        E 25 9a 28 69
        E 96 8a 28 00
        E 24 9a 28 75
        E 96 8a 28 00
        E 23 9a 28 66
        E 97 8a 28 00
        E 24 9a 26 69
        E 95 8a 26 00
        E 25 9a 25 78
        E 96 8a 25 00
        E 24 9a 27 7d
        E 96 8a 27 00
        E 24 9a 26 75
        E 97 8a 26 00
        E 23 9a 25 78
        E 96 8a 25 00
        E 24 9a 26 7a
        E 97 8a 26 00
        E 24 9a 25 77
        E 96 8a 25 00
        E 23 9a 26 6e
        E 96 8a 26 00
        E 24 9a 27 79
        E 98 8a 27 00
        E 22 9a 20 63
        E 97 8a 20 00
        E 23 9a 23 66
        E 95 8a 23 00
        E 25 9a 23 61
        E 96 8a 23 00
        E 24 9a 26 77
        E 96 8a 26 00
        E 24 9a 24 7d
        E 97 8a 24 00
        E 23 9a 24 75
        E 97 8a 24 00
        E 23 9a 23 7a
        E 96 8a 23 00
        E 23 9a 23 7a
        E 95 8a 23 00
        E 26 9a 23 79
        E 96 8a 23 00
        E 24 9a 24 7d
        E 94 8a 24 00
        E 26 9a 24 77
        E 95 8a 24 00
        E 25 9a 24 71
        E 95 8a 24 00
        E 25 9a 24 73
        E 96 8a 24 00
        E 24 9a 24 7d
        E 96 8a 24 00
        E 24 9a 24 5e
        E 96 8a 24 00
        E 25 9a 21 6e
        E 96 8a 21 00
        E 23 9a 25 7c
        E 96 8a 25 00
        E 24 9a 25 4c
        E 96 8a 25 00
        E 24 9a 25 51
        E 95 8a 25 00
        E 25 9a 25 7d
        E 96 8a 25 00
        E 24 9a 25 6d
        E 98 8a 25 00
        E 23 9a 25 7d
        E 95 8a 25 00
        E 24 9a 25 75
        E 96 8a 25 00
        E 24 9a 25 7d
        E 97 8a 25 00
        E 23 9a 24 71
        E 95 8a 24 00
        E 25 9a 25 7d
        E 97 8a 25 00
        E 24 9a 25 7d
        E 97 8a 25 00
        E 22 9a 25 7d
        E 97 8a 25 00
        E 23 9a 25 7a
        E 97 8a 25 00
        E 23 9a 25 66
        E 96 8a 25 00
        E 24 9a 25 7a
        E 95 8a 25 00
        E 25 9a 25 7d
        E 96 8a 25 00
        E 24 9a 24 75
        E 96 8a 24 00
        E 24 9a 24 7a
        E 97 8a 24 00
        E 23 9a 24 7a
        E 97 8a 24 00
        E 23 9a 24 75
        E 97 8a 24 00
        E 24 9a 24 6e
        E 94 8a 24 00
        E 25 9a 24 7d
        E 97 8a 24 00
        E 23 9a 24 6e
        E 95 8a 24 00
        E 25 9a 24 7d
        E 97 8a 24 00
        E 23 9a 24 7c
        E 96 8a 24 00
        E 24 9a 24 7d
        E 96 8a 24 00
        E 24 9a 24 71
        E 96 8a 24 00
        E 24 9a 24 7d
        E 95 8a 24 00
        E 25 9a 24 7d
        E 96 8a 24 00
        E 24 9a 24 7d
        E 97 8a 24 00
        E 23 9a 24 7a
        E 96 8a 24 00
        E 23 9a 23 70
        E 96 8a 23 00
        E 24 9a 25 75
        E 95 8a 25 00
        E 26 9a 25 7c
        E 96 8a 25 00
        E 24 9a 25 7d
        E 95 8a 25 00
        E 25 9a 25 7b
        E 95 8a 25 00
        E 25 9a 25 73
        E 95 8a 25 00
        E 25 9a 25 75
        E 97 8a 25 00
        E 23 9a 25 75
        E 93 8a 25 00
        E 27 9a 25 7d
        E 97 8a 25 00
        E 24 9a 25 7d
        E 94 8a 25 00
        E 25 9a 25 7d
        E 96 8a 25 00
        E 24 9a 25 7c
        E 96 8a 25 00
        E 24 9a 25 7d
        E 96 8a 25 00
        E 24 9a 25 7a
        E 96 8a 25 00
        E 24 9a 25 79
        E 96 8a 25 00
        E 25 9a 25 7c
        E 96 8a 25 00
        E 23 9a 24 6e
        E 96 8a 24 00
        E 24 9a 25 7a
        E 97 8a 25 00
        E 23 9a 24 65
        E 96 8a 24 00
        E 24 9a 25 77
        E 97 8a 25 00
        E 23 9a 25 7b
        E 97 8a 25 00
        E 23 9a 25 7d
        E 97 8a 25 00
        E 24 9a 25 7d
        E 97 8a 25 00
        E 22 9a 25 5c
        E 95 8a 25 00
        E 24 9a 25 7d
        E 97 8a 25 00
        E 24 9a 25 7d
        E 97 8a 25 00
        E 23 9a 25 7d
        E 96 8a 25 00
        E 23 9a 25 7b
        E 97 8a 25 00
        E 24 9a 25 7d
        E 96 8a 25 00
        E 24 9a 25 7d
        E 97 8a 25 00
        E 23 9a 25 7d
        E 96 8a 25 00
        E 24 9a 25 7a
        E 95 8a 25 00
        E 24 9a 25 7d
        E 96 8a 25 00
        E 24 9a 25 75
        E 96 8a 25 00
        E 25 9a 25 6e
        E 97 8a 25 00
        E 23 9a 25 7c
        E 96 8a 25 00
        E 23 9a 25 7c
        E 97 8a 25 00
        E 24 9a 25 77
        E 95 8a 25 00
        E 25 9a 25 7a
        E 97 8a 25 00
        E 23 9a 25 75
        E 98 8a 25 00
        E 22 9a 25 7a
        E 96 8a 25 00
        E 24 9a 25 7d
        E 97 8a 25 00
        E 23 9a 25 7d
        E 97 8a 25 00
        E 23 9a 25 7d
        E 96 8a 25 00
        E 24 9a 25 71
        E 96 8a 25 00
        E 24 9a 25 7a
        E 95 8a 25 00
        E 26 9a 25 78
        E 97 8a 25 00
        E 22 9a 25 65
        E 95 8a 25 00
        E 24 9a 25 60
        E 96 8a 25 00
        E 0 ba 7b 00
        E 1 ff 2f 00
      >
    >
  >
  <TRACK
    NAME "Harp"
    PEAKCOL 4290756410
    VOLPAN 1.000000 0 1 -1
    MIDIOUT -1
    ISBUS 0 0
    <ITEM
      POSITION 0.156061
      LENGTH 74.699390
      NAME "Harp"
      VOLPAN 1 0 1 -1
      <SOURCE MIDI
        HASDATA 1 960 QN
        E 0 cb 2e 00
        E 240 9b 37 35
        E 657 8b 37 00
        E 1383 9b 34 46
        E 598 8b 34 00
        E 1562 9b 3a 53
        E 499 8b 3a 00
        E 100 9b 43 44
        E 266 8b 43 00
        E 456 9b 2d 5b
        E 598 9b 3d 4e
        E 242 9b 4b 54
        E 277 8b 3d 00
        E 108 8b 4b 00
        E 283 8b 2d 00
        E 652 9b 32 53
        E 240 9b 3f 58
        E 117 9b 3f 47
        E 124 9b 3f 47
        E 115 9b 4b 46
        E 63 8b 32 00
        E 132 8b 3f 00
        E 78 8b 3f 00
        E 85 8b 3f 00
        E 36 8b 4b 00
        E 809 9b 22 59
        E 361 9b 35 44
        E 359 9b 3f 3e
        E 122 9b 41 49
        E 64 8b 35 00
        E 233 8b 3f 00
        E 58 8b 41 00
        E 121 9b 48 41
        E 174 8b 22 00
        E 1 8b 48 00
        E 547 9b 34 5e
        E 601 9b 49 53
        E 55 8b 34 00
        E 337 8b 49 00
        E 1289 9b 39 63
        E 119 9b 32 54
        E 117 9b 3f 46
        E 259 8b 39 00
        E 84 8b 32 00
        E 20 9b 40 3c
        E 53 8b 3f 00
        E 186 9b 48 3c
        E 32 8b 40 00
        E 139 8b 48 00
        E 430 9b 28 34
        E 117 9b 32 34
        E 120 9b 2c 56
        E 125 9b 32 47
        E 239 9b 34 44
        E 174 8b 32 00
        E 63 8b 2c 00
        E 77 8b 32 00
        E 43 9b 3f 2d
        E 92 8b 34 00
        E 148 9b 40 2d
        E 71 8b 3f 00
        E 49 9b 4b 35
        E 96 8b 40 00
        E 72 8b 4b 00
        E 53 8b 28 00
        E 623 9b 3a 4c
        E 119 9b 3a 41
        E 115 9b 41 3c
        E 356 8b 3a 00
        E 96 8b 3a 00
        E 56 8b 41 00
        E 813 9b 2c 58
        E 366 9b 32 53
        E 116 9b 3f 46
        E 477 9b 4b 3a
        E 7 8b 32 00
        E 87 8b 3f 00
        E 271 8b 4b 00
        E 244 8b 2c 00
        E 354 9b 27 41
        E 118 9b 28 3f
        E 243 9b 33 59
        E 237 9b 39 54
        E 126 9b 3e 44
        E 57 8b 28 00
        E 191 8b 33 00
        E 128 8b 39 00
        E 83 8b 3e 00
        E 400 8b 27 00
        E 340 9b 2d 34
        E 238 9b 32 59
        E 120 9b 35 54
        E 526 8b 32 00
        E 74 9b 4c 4e
        E 14 8b 35 00
        E 354 8b 4c 00
        E 244 8b 2d 00
        E 466 9b 32 20
        E 119 9b 33 25
        E 124 9b 3e 3a
        E 458 8b 32 00
        E 78 8b 33 00
        E 62 8b 3e 00
        E 962 9b 2c 47
        E 119 9b 33 4e
        E 120 9b 34 51
        E 118 9b 39 46
        E 361 9b 3f 39
        E 106 8b 33 00
        E 14 9b 49 41
        E 47 8b 34 00
        E 74 8b 39 00
        E 1 9b 4b 4e
        E 220 8b 3f 00
        E 34 8b 49 00
        E 106 8b 4b 00
        E 250 8b 2c 00
        E 704 9b 31 4e
        E 611 8b 31 00
        E 111 9b 48 3c
        E 243 9b 4a 47
        E 73 8b 48 00
        E 147 8b 4a 00
        E 378 9b 2f 6b
        E 120 9b 30 2d
        E 118 9b 32 2d
        E 360 9b 47 47
        E 122 9b 3d 47
        E 25 8b 2f 00
        E 77 8b 30 00
        E 21 9b 3c 3e
        E 35 8b 32 00
        E 84 9b 42 41
        E 121 9b 4e 47
        E 12 8b 47 00
        E 74 8b 3d 00
        E 30 9b 48 42
        E 62 8b 3c 00
        E 60 9b 49 47
        E 4 8b 42 00
        E 78 8b 4e 00
        E 63 8b 48 00
        E 74 8b 49 00
        E 379 9b 2d 61
        E 364 9b 34 37
        E 237 9b 3d 41
        E 121 9b 40 37
        E 237 8b 34 00
        E 4 9b 45 3a
        E 139 8b 3d 00
        E 82 8b 40 00
        E 150 8b 45 00
        E 167 8b 2d 00
        E 421 9b 26 31
        E 240 9b 30 4c
        E 121 9b 31 4b
        E 240 9b 3d 4e
        E 237 9b 48 49
        E 83 8b 30 00
        E 28 8b 31 00
        E 158 8b 3d 00
        E 119 8b 48 00
        E 359 8b 26 00
        E 334 9b 26 65
        E 121 9b 31 2f
        E 238 9b 32 60
        E 243 9b 35 4e
        E 211 8b 31 00
        E 28 9b 3e 49
        E 100 8b 32 00
        E 20 9b 3e 4e
        E 155 8b 35 00
        E 83 9b 3f 44
        E 50 8b 3e 00
        E 78 8b 3e 00
        E 144 8b 3f 00
        E 88 8b 26 00
        E 481 9b 33 3f
        E 242 9b 31 54
        E 456 8b 33 00
        E 25 9b 40 4c
        E 133 8b 31 00
        E 281 8b 40 00
        E 61 9b 4a 47
        E 216 8b 4a 00
        E 390 9b 33 2f
        E 478 9b 3e 41
        E 271 8b 33 00
        E 208 9b 4b 31
        E 79 8b 3e 00
        E 39 9b 49 3a
        E 240 9b 4e 39
        E 12 8b 4b 00
        E 64 8b 49 00
        E 142 8b 4e 00
        E 384 9b 27 53
        E 239 9b 32 29
        E 122 9b 34 3f
        E 117 9b 3b 47
        E 361 9b 49 47
        E 48 8b 32 00
        E 73 9b 46 41
        E 20 8b 34 00
        E 62 8b 3b 00
        E 168 8b 49 00
        E 119 8b 46 00
        E 210 8b 27 00
        E 380 9b 2b 56
        E 362 9b 31 47
        E 401 8b 2b 00
        E 185 8b 31 00
        E 1094 9b 30 1f
        E 118 9b 33 2c
        E 118 9b 30 4c
        E 241 9b 3c 3a
        E 124 9b 3e 32
        E 88 8b 30 00
        E 33 9b 40 2d
        E 48 8b 33 00
        E 69 9b 3f 3e
        E 5 8b 30 00
        E 134 8b 3c 00
        E 82 8b 3e 00
        E 72 8b 40 00
        E 77 8b 3f 00
        E 592 9b 31 22
        E 117 9b 32 27
        E 119 9b 31 22
        E 121 9b 34 32
        E 122 9b 34 27
        E 120 9b 3e 32
        E 150 8b 31 00
        E 56 8b 32 00
        E 34 9b 3e 32
        E 67 8b 31 00
        E 52 8b 34 00
        E 0 9b 44 2c
        E 77 8b 34 00
        E 44 9b 4a 25
        E 14 8b 3e 00
        E 149 8b 3e 00
        E 89 8b 44 00
        E 71 8b 4a 00
        E 518 9b 34 24
        E 118 9b 32 29
        E 241 9b 39 46
        E 120 9b 40 2c
        E 274 8b 34 00
        E 67 8b 32 00
        E 20 9b 4c 3a
        E 120 9b 47 39
        E 6 8b 39 00
        E 67 8b 40 00
        E 194 8b 4c 00
        E 104 8b 47 00
        E 707 9b 33 2f
        E 116 9b 30 27
        E 125 9b 38 3f
        E 121 9b 37 34
        E 346 8b 33 00
        E 12 9b 3f 35
        E 41 8b 30 00
        E 77 9b 43 31
        E 28 8b 38 00
        E 55 8b 37 00
        E 39 9b 4c 42
        E 121 9b 57 39
        E 54 8b 3f 00
        E 64 9b 4c 3a
        E 6 8b 43 00
        E 80 8b 4c 00
        E 57 8b 57 00
        E 77 8b 4c 00
        E 501 9b 32 37
        E 120 9b 31 42
        E 240 9b 3e 35
        E 120 9b 3e 2c
        E 121 9b 3f 42
        E 95 8b 32 00
        E 25 9b 3e 2d
        E 58 8b 31 00
        E 62 9b 4a 34
        E 84 8b 3e 00
        E 59 8b 3e 00
        E 74 8b 3f 00
        E 69 8b 3e 00
        E 73 8b 4a 00
        E 1 9b 56 31
        E 220 8b 56 00
        E 380 9b 27 20
        E 119 9b 31 20
        E 119 9b 33 1c
        E 120 9b 3d 35
        E 118 9b 3f 2d
        E 124 9b 3e 2a
        E 119 9b 42 2c
        E 99 8b 31 00
        E 77 8b 33 00
        E 55 8b 3d 00
        E 9 9b 4b 2f
        E 70 8b 3f 00
        E 98 8b 3e 00
        E 53 8b 42 00
        E 134 8b 4b 00
        E 157 8b 27 00
        E 569 9b 32 20
        E 240 9b 3f 32
        E 122 9b 3d 35
        E 321 8b 32 00
        E 35 9b 49 31
        E 125 8b 3f 00
        E 76 8b 3d 00
        E 182 8b 49 00
        E 698 9b 2c 34
        E 118 9b 30 2d
        E 124 9b 31 3f
        E 119 9b 32 44
        E 119 9b 35 35
        E 120 9b 3f 3f
        E 141 8b 2c 00
        E 54 8b 30 00
        E 86 8b 31 00
        E 79 9b 3f 3a
        E 14 8b 32 00
        E 58 8b 35 00
        E 48 9b 4a 34
        E 30 8b 3f 00
        E 211 8b 3f 00
        E 2 9b 49 37
        E 69 8b 4a 00
        E 151 8b 49 00
        E 375 9b 2f 53
        E 119 9b 31 24
        E 240 9b 3b 51
        E 126 9b 3e 3a
        E 248 8b 2f 00
        E 78 8b 31 00
        E 28 9b 4b 3f
        E 114 8b 3b 00
        E 82 8b 3e 00
        E 180 8b 4b 00
        E 707 9b 27 41
        E 119 9b 30 2c
        E 123 9b 34 3e
        E 237 9b 2f 2c
        E 118 9b 3c 18
        E 123 9b 41 34
        E 93 8b 30 00
        E 28 9b 3b 31
        E 64 8b 34 00
        E 56 9b 3f 2d
        E 72 8b 2f 00
        E 44 9b 46 25
        E 22 8b 3c 00
        E 86 8b 41 00
        E 16 9b 46 29
        E 45 8b 3b 00
        E 77 9b 4c 20
        E 2 8b 3f 00
        E 68 8b 46 00
        E 76 8b 46 00
        E 44 8b 27 00
        E 28 8b 4c 00
        E 380 9b 28 24
        E 117 9b 31 27
        E 122 9b 33 1d
        E 120 9b 31 35
        E 121 9b 32 3c
        E 119 9b 3e 2c
        E 119 9b 3e 32
        E 25 8b 28 00
        E 77 8b 31 00
        E 20 9b 3c 31
        E 35 8b 33 00
        E 99 8b 31 00
        E 57 8b 32 00
        E 48 9b 49 34
        E 21 8b 3e 00
        E 69 8b 3e 00
        E 31 9b 4b 2d
        E 53 8b 3c 00
        E 138 8b 49 00
        E 80 8b 4b 00
        E 446 9b 26 46
        E 120 9b 2f 2a
        E 121 9b 29 2a
        E 122 9b 31 42
        E 116 9b 32 3c
        E 244 9b 3b 34
        E 96 8b 2f 00
        E 25 9b 33 34
        E 52 8b 29 00
        E 64 9b 3f 31
        E 15 8b 31 00
        E 53 8b 32 00
        E 57 9b 3f 3a
        E 102 8b 3b 00
        E 61 8b 33 00
        E 75 9b 46 31
        E 4 8b 3f 00
        E 63 8b 3f 00
        E 51 9b 41 27
        E 108 8b 46 00
        E 13 9b 4d 39
        E 39 8b 26 00
        E 13 8b 41 00
        E 70 8b 4d 00
        E 238 9b 2d 27
        E 120 9b 31 20
        E 119 9b 32 1d
        E 123 9b 3d 51
        E 119 9b 32 35
        E 120 9b 3d 2c
        E 118 9b 3d 3f
        E 39 8b 2d 00
        E 70 8b 31 00
        E 66 8b 32 00
        E 63 8b 3d 00
        E 0 9b 48 47
        E 75 8b 32 00
        E 50 9b 48 32
        E 21 8b 3d 00
        E 77 8b 3d 00
        E 19 9b 4b 2a
        E 123 9b 4a 32
        E 8 8b 48 00
        E 68 8b 48 00
        E 69 8b 4b 00
        E 75 8b 4a 00
        E 375 9b 2f 39
        E 122 9b 30 24
        E 121 9b 33 1d
        E 118 9b 31 32
        E 243 9b 3d 27
        E 117 9b 3e 25
        E 114 8b 30 00
        E 9 9b 3f 24
        E 56 8b 33 00
        E 76 8b 31 00
        E 107 9b 48 2c
        E 41 8b 3d 00
        E 63 8b 3e 00
        E 16 9b 4b 37
        E 58 8b 3f 00
        E 61 9b 4f 27
        E 71 8b 48 00
        E 77 8b 4b 00
        E 75 8b 4f 00
        E 59 8b 2f 00
        E 319 9b 26 25
        E 121 9b 34 24
        E 120 9b 34 3f
        E 238 9b 40 34
        E 121 9b 4a 2a
        E 152 8b 26 00
        E 77 8b 34 00
        E 10 9b 4c 37
        E 67 8b 34 00
        E 53 9b 4b 29
        E 85 8b 40 00
        E 67 8b 4a 00
        E 106 8b 4c 00
        E 96 8b 4b 00
        E 608 9b 27 22
        E 119 9b 30 1c
        E 119 9b 34 20
        E 120 9b 38 37
        E 120 9b 3e 41
        E 121 9b 3e 3e
        E 123 9b 3d 32
        E 103 8b 30 00
        E 13 9b 42 2d
        E 50 8b 34 00
        E 58 8b 38 00
        E 15 9b 4d 2d
        E 63 8b 3e 00
        E 90 8b 3e 00
        E 54 8b 3d 00
        E 58 8b 42 00
        E 96 8b 4d 00
        E 235 8b 27 00
        E 359 9b 27 47
        E 121 9b 33 2c
        E 242 9b 32 39
        E 121 9b 33 34
        E 122 9b 3f 3c
        E 118 9b 3c 31
        E 107 8b 33 00
        E 11 9b 44 2a
        E 121 9b 4a 3a
        E 6 8b 32 00
        E 61 8b 33 00
        E 90 8b 3f 00
        E 67 8b 3c 00
        E 15 9b 4d 3a
        E 43 8b 44 00
        E 77 9b 4a 35
        E 1 8b 4a 00
        E 148 8b 4d 00
        E 70 8b 4a 00
        E 7 8b 27 00
        E 375 9b 29 1d
        E 122 9b 32 1a
        E 117 9b 26 13
        E 122 9b 33 31
        E 378 8b 29 00
        E 67 8b 32 00
        E 82 8b 26 00
        E 97 8b 33 00
        E 1054 9b 35 2d
        E 122 9b 2e 51
        E 118 9b 2d 54
        E 120 9b 32 56
        E 120 9b 3c 54
        E 118 9b 3c 65
        E 121 8b 35 00
        E 4 9b 39 47
        E 53 8b 2e 00
        E 56 8b 2d 00
        E 7 9b 3b 41
        E 68 8b 32 00
        E 51 9b 43 54
        E 33 8b 3c 00
        E 68 8b 3c 00
        E 21 9b 3a 56
        E 56 8b 39 00
        E 59 8b 3b 00
        E 6 9b 45 47
        E 80 8b 43 00
        E 42 9b 48 51
        E 31 8b 3a 00
        E 63 8b 45 00
        E 23 9b 44 4f
        E 51 8b 48 00
        E 73 9b 4a 58
        E 4 8b 44 00
        E 73 8b 4a 00
        E 162 9b 26 4c
        E 119 9b 33 39
        E 122 9b 31 61
        E 116 9b 33 71
        E 118 9b 32 5c
        E 126 9b 31 58
        E 119 9b 35 59
        E 96 8b 33 00
        E 23 9b 40 54
        E 64 8b 31 00
        E 56 9b 3f 54
        E 7 8b 33 00
        E 60 8b 32 00
        E 51 9b 3f 49
        E 41 8b 31 00
        E 57 8b 35 00
        E 24 9b 3e 44
        E 56 8b 40 00
        E 62 9b 4b 53
        E 12 8b 3f 00
        E 68 8b 3f 00
        E 42 9b 4f 5b
        E 33 8b 3e 00
        E 64 8b 4b 00
        E 22 9b 4b 61
        E 19 8b 26 00
        E 36 8b 4f 00
        E 62 9b 4a 4b
        E 7 8b 4b 00
        E 68 8b 4a 00
        E 170 9b 34 4f
        E 117 9b 33 54
        E 121 9b 31 65
        E 119 9b 40 5b
        E 123 9b 40 53
        E 120 9b 3d 56
        E 120 9b 4a 53
        E 17 8b 34 00
        E 82 8b 33 00
        E 17 9b 47 4f
        E 59 8b 31 00
        E 64 9b 4b 5c
        E 3 8b 40 00
        E 89 8b 40 00
        E 52 8b 4a 00
        E 17 8b 3d 00
        E 96 8b 47 00
        E 111 8b 4b 00
        E 593 9b 27 3e
        E 120 9b 2c 37
        E 118 9b 31 34
        E 122 9b 31 51
        E 119 9b 3d 4b
        E 118 9b 36 54
        E 121 9b 3e 4b
        E 99 8b 2c 00
        E 25 9b 3f 37
        E 59 8b 31 00
        E 55 9b 4b 4b
        E 31 8b 31 00
        E 46 8b 3d 00
        E 44 9b 44 49
        E 31 8b 36 00
        E 63 8b 3e 00
        E 30 9b 4a 47
        E 53 8b 3f 00
        E 64 9b 4a 44
        E 8 8b 4b 00
        E 63 8b 44 00
        E 76 8b 4a 00
        E 56 8b 27 00
        E 20 8b 4a 00
        E 376 9b 28 61
        E 121 9b 26 3a
        E 122 9b 31 60
        E 121 9b 29 5e
        E 119 9b 34 44
        E 120 9b 33 59
        E 116 9b 3f 54
        E 121 9b 3c 4f
        E 54 8b 31 00
        E 52 8b 29 00
        E 17 9b 3e 46
        E 72 8b 34 00
        E 45 9b 43 47
        E 32 8b 33 00
        E 63 8b 3f 00
        E 23 9b 3e 4c
        E 53 8b 3c 00
        E 67 9b 3e 51
        E 6 8b 3e 00
        E 73 8b 43 00
        E 45 9b 47 51
        E 26 8b 3e 00
        E 62 8b 3e 00
        E 2 8b 28 00
        E 27 9b 4a 51
        E 56 8b 47 00
        E 32 8b 26 00
        E 35 9b 4b 3c
        E 3 8b 4a 00
        E 75 8b 4b 00
        E 158 9b 26 47
        E 126 9b 31 3f
        E 115 9b 32 3e
        E 121 9b 34 65
        E 122 9b 33 56
        E 120 9b 3c 59
        E 119 9b 3f 61
        E 120 8b 31 00
        E 1 9b 3d 54
        E 50 8b 32 00
        E 63 8b 34 00
        E 6 9b 3e 54
        E 76 8b 33 00
        E 43 9b 47 5e
        E 40 8b 3c 00
        E 52 8b 3f 00
        E 30 9b 4a 58
        E 42 8b 3d 00
        E 79 8b 3e 00
        E 1 9b 4c 49
        E 79 8b 47 00
        E 65 8b 4a 00
        E 75 8b 4c 00
        E 20 8b 26 00
        E 358 9b 2f 2d
        E 120 9b 32 34
        E 122 9b 34 60
        E 479 9b 45 56
        E 18 8b 2f 00
        E 82 8b 32 00
        E 19 9b 45 56
        E 71 8b 34 00
        E 47 9b 4b 63
        E 164 8b 45 00
        E 113 8b 45 00
        E 79 8b 4b 00
        E 608 9b 28 39
        E 115 9b 33 3e
        E 123 9b 33 56
        E 121 9b 34 5b
        E 120 9b 36 4b
        E 119 9b 3e 4c
        E 205 8b 33 00
        E 32 9b 3f 34
        E 46 8b 33 00
        E 76 9b 3f 49
        E 1 8b 34 00
        E 66 8b 36 00
        E 55 9b 48 51
        E 40 8b 3e 00
        E 128 8b 3f 00
        E 72 8b 3f 00
        E 72 8b 48 00
        E 152 8b 28 00
        E 374 9b 28 5b
        E 240 9b 33 41
        E 242 9b 34 4b
        E 122 9b 3d 58
        E 119 9b 3f 44
        E 115 9b 3f 4c
        E 50 8b 33 00
        E 146 8b 34 00
        E 81 8b 3d 00
        E 71 8b 3f 00
        E 12 9b 4b 4e
        E 46 8b 3f 00
        E 81 9b 44 5b
        E 144 8b 4b 00
        E 21 8b 28 00
        E 52 8b 44 00
        E 377 9b 28 4e
        E 122 9b 30 63
        E 122 9b 33 69
        E 119 9b 33 68
        E 117 9b 34 53
        E 120 9b 3a 4e
        E 227 8b 30 00
        E 61 8b 33 00
        E 81 8b 33 00
        E 73 8b 34 00
        E 58 8b 3a 00
        E 219 9b 4b 4b
        E 217 8b 28 00
        E 6 8b 4b 00
        E 378 9b 27 63
        E 240 9b 37 3a
        E 123 9b 33 65
        E 356 9b 44 5b
        E 175 8b 37 00
        E 90 8b 33 00
        E 198 8b 44 00
        E 394 8b 27 00
        E 344 9b 26 60
        E 244 9b 2d 54
        E 118 9b 33 5b
        E 360 9b 36 44
        E 156 8b 2d 00
        E 85 9b 3f 5b
        E 6 8b 33 00
        E 111 9b 40 4b
        E 87 8b 36 00
        E 32 9b 3f 54
        E 124 9b 3d 54
        E 10 8b 3f 00
        E 81 8b 40 00
        E 53 8b 3f 00
        E 75 8b 3d 00
        E 35 8b 26 00
        E 345 9b 29 59
        E 121 9b 32 3e
        E 120 9b 33 58
        E 476 9b 3e 58
        E 28 8b 29 00
        E 81 8b 32 00
        E 13 9b 42 59
        E 51 8b 33 00
        E 70 9b 43 53
        E 122 9b 47 54
        E 87 8b 3e 00
        E 32 9b 4b 47
        E 54 8b 42 00
        E 59 8b 43 00
        E 80 8b 47 00
        E 76 8b 4b 00
        E 570 9b 30 37
        E 120 9b 32 37
        E 119 9b 34 5c
        E 123 9b 33 54
        E 119 9b 3d 61
        E 121 9b 3f 53
        E 115 8b 30 00
        E 4 9b 3f 58
        E 51 8b 32 00
        E 70 9b 44 5e
        E 14 8b 34 00
        E 70 8b 33 00
        E 32 9b 48 59
        E 27 8b 3d 00
        E 88 8b 3f 00
        E 67 8b 3f 00
        E 59 9b 4c 5b
        E 24 8b 44 00
        E 48 8b 48 00
        E 146 8b 4c 00
        E 385 9b 30 32
        E 118 9b 30 31
        E 242 9b 31 53
        E 120 9b 34 51
        E 116 9b 3c 44
        E 122 9b 3e 51
        E 18 8b 30 00
        E 73 8b 30 00
        E 31 9b 41 5b
        E 119 8b 31 00
        E 0 9b 3c 4e
        E 79 8b 34 00
        E 69 8b 3c 00
        E 77 8b 3e 00
        E 70 8b 41 00
        E 58 8b 3c 00
        E 606 9b 30 2c
        E 121 9b 31 2f
        E 117 9b 32 27
        E 125 9b 2f 4c
        E 116 9b 35 51
        E 240 9b 3d 41
        E 99 8b 31 00
        E 23 9b 3c 41
        E 50 8b 32 00
        E 67 8b 2f 00
        E 64 8b 35 00
        E 151 8b 3d 00
        E 29 9b 4d 60
        E 64 8b 3c 00
        E 52 9b 4d 51
        E 161 8b 4d 00
        E 59 8b 4d 00
        E 4 8b 30 00
        E 377 9b 2b 65
        E 243 9b 30 54
        E 238 9b 3e 5b
        E 278 8b 2b 00
        E 137 8b 30 00
        E 65 9b 56 49
        E 83 8b 3e 00
        E 278 8b 56 00
        E 598 9b 28 5b
        E 122 9b 30 3f
        E 121 9b 32 61
        E 121 9b 36 5e
        E 452 8b 30 00
        E 80 8b 32 00
        E 61 8b 36 00
        E 588 8b 28 00
        E 0 bb 7b 00
        E 1 ff 2f 00
      >
    >
  >
  <TRACK
    NAME "Bass"
    PEAKCOL 4286528191
    VOLPAN 1.000000 0 1 -1
    MIDIOUT -1
    ISBUS 0 0
    <ITEM
      POSITION 0.002168
      LENGTH 75.021534
      NAME "Bass"
      VOLPAN 1 0 1 -1
      <SOURCE MIDI
        HASDATA 1 960 QN
        E 0 cc 2b 00
        E 3 9c 24 47
        E 878 8c 24 00
        E 77 9c 25 6d
        E 863 8c 25 00
        E 105 9c 22 65
        E 852 8c 22 00
        E 105 9c 24 65
        E 877 8c 24 00
        E 83 9c 25 71
        E 839 8c 25 00
        E 121 9c 20 75
        E 858 8c 20 00
        E 102 9c 26 65
        E 873 8c 26 00
        E 81 9c 27 69
        E 845 8c 27 00
        E 116 9c 28 63
        E 867 8c 28 00
        E 98 9c 28 63
        E 864 8c 28 00
        E 89 9c 27 6b
        E 852 8c 27 00
        E 116 9c 29 69
        E 871 8c 29 00
        E 88 9c 33 41
        E 856 8c 33 00
        E 103 9c 2d 71
        E 882 8c 2d 00
        E 78 9c 2f 53
        E 842 8c 2f 00
        E 116 9c 2b 71
        E 865 8c 2b 00
        E 99 9c 33 3e
        E 858 8c 33 00
        E 96 9c 3a 63
        E 876 8c 3a 00
        E 86 9c 34 68
        E 857 8c 34 00
        E 104 9c 32 65
        E 879 8c 32 00
        E 80 9c 32 34
        E 874 8c 32 00
        E 82 9c 36 68
        E 859 8c 36 00
        E 111 9c 34 4c
        E 871 8c 34 00
        E 84 9c 34 6e
        E 853 8c 34 00
        E 104 9c 30 68
        E 893 8c 30 00
        E 70 9c 34 5b
        E 883 8c 34 00
        E 77 9c 33 2f
        E 865 8c 33 00
        E 93 9c 32 5e
        E 872 8c 32 00
        E 91 9c 33 53
        E 882 8c 33 00
        E 78 9c 2b 6d
        E 862 8c 2b 00
        E 98 9c 32 37
        E 852 8c 32 00
        E 102 9c 2e 65
        E 845 8c 2e 00
        E 120 9c 30 37
        E 879 8c 30 00
        E 86 9c 25 61
        E 882 8c 25 00
        E 76 9c 2f 3e
        E 873 8c 2f 00
        E 88 9c 27 61
        E 868 8c 27 00
        E 87 9c 30 5c
        E 851 8c 30 00
        E 114 9c 30 65
        E 855 8c 30 00
        E 98 9c 32 6e
        E 885 8c 32 00
        E 81 9c 31 70
        E 879 8c 31 00
        E 79 9c 2f 4c
        E 865 8c 2f 00
        E 98 9c 1a 63
        E 857 8c 1a 00
        E 97 9c 34 61
        E 881 8c 34 00
        E 80 9c 27 61
        E 883 8c 27 00
        E 77 9c 31 65
        E 851 8c 31 00
        E 110 9c 2d 65
        E 846 8c 2d 00
        E 113 9c 2d 71
        E 863 8c 2d 00
        E 99 9c 26 71
        E 882 8c 26 00
        E 82 9c 30 2f
        E 872 8c 30 00
        E 84 9c 31 58
        E 863 8c 31 00
        E 101 9c 3c 2d
        E 850 8c 3c 00
        E 102 9c 32 46
        E 884 8c 32 00
        E 76 9c 34 53
        E 861 8c 34 00
        E 100 9c 29 53
        E 868 8c 29 00
        E 91 9c 35 5b
        E 856 8c 35 00
        E 112 9c 34 59
        E 860 8c 34 00
        E 94 9c 34 3f
        E 875 8c 34 00
        E 91 9c 35 59
        E 861 8c 35 00
        E 96 9c 32 2f
        E 850 8c 32 00
        E 107 9c 30 4e
        E 843 8c 30 00
        E 112 9c 30 3e
        E 851 8c 30 00
        E 118 9c 31 54
        E 871 8c 31 00
        E 88 9c 2b 34
        E 878 8c 2b 00
        E 82 9c 35 54
        E 875 8c 35 00
        E 87 9c 2f 2f
        E 880 8c 2f 00
        E 71 9c 37 53
        E 879 8c 37 00
        E 85 9c 30 3f
        E 854 8c 30 00
        E 108 9c 28 51
        E 882 8c 28 00
        E 76 9c 34 4f
        E 873 8c 34 00
        E 93 9c 32 53
        E 868 8c 32 00
        E 91 9c 30 37
        E 874 8c 30 00
        E 83 9c 30 4e
        E 874 8c 30 00
        E 88 9c 2d 2c
        E 872 8c 2d 00
        E 84 9c 29 58
        E 855 8c 29 00
        E 105 9c 31 2a
        E 870 8c 31 00
        E 95 9c 38 51
        E 861 8c 38 00
        E 96 9c 33 2d
        E 855 8c 33 00
        E 107 9c 31 4f
        E 891 8c 31 00
        E 71 9c 2d 20
        E 865 8c 2d 00
        E 97 9c 30 58
        E 865 8c 30 00
        E 89 9c 2c 29
        E 852 8c 2c 00
        E 103 9c 2e 54
        E 865 8c 2e 00
        E 101 9c 33 22
        E 866 8c 33 00
        E 93 9c 33 5e
        E 860 8c 33 00
        E 103 9c 2f 3f
        E 870 8c 2f 00
        E 86 9c 32 75
        E 861 8c 32 00
        E 101 9c 33 41
        E 855 8c 33 00
        E 104 9c 23 75
        E 864 8c 23 00
        E 94 9c 34 54
        E 885 8c 34 00
        E 76 9c 34 78
        E 886 8c 34 00
        E 73 9c 32 4b
        E 862 8c 32 00
        E 102 9c 2b 77
        E 843 8c 2b 00
        E 112 9c 2e 79
        E 858 8c 2e 00
        E 107 9c 32 77
        E 861 8c 32 00
        E 101 9c 31 46
        E 876 8c 31 00
        E 80 9c 29 71
        E 864 8c 29 00
        E 92 9c 2f 75
        E 856 8c 2f 00
        E 111 9c 33 77
        E 869 8c 33 00
        E 84 9c 30 71
        E 857 8c 30 00
        E 106 9c 2a 7c
        E 868 8c 2a 00
        E 89 9c 31 70
        E 866 8c 31 00
        E 97 9c 33 78
        E 866 8c 33 00
        E 96 9c 30 63
        E 868 8c 30 00
        E 92 9c 34 65
        E 867 8c 34 00
        E 92 9c 33 4f
        E 864 8c 33 00
        E 99 9c 34 6e
        E 848 8c 34 00
        E 107 9c 34 7a
        E 863 8c 34 00
        E 96 9c 32 70
        E 870 8c 32 00
        E 90 9c 36 7d
        E 862 8c 36 00
        E 97 9c 32 7a
        E 884 8c 32 00
        E 78 9c 2f 47
        E 859 8c 2f 00
        E 104 9c 28 70
        E 846 8c 28 00
        E 113 9c 2a 37
        E 865 8c 2a 00
        E 97 9c 30 75
        E 849 8c 30 00
        E 113 9c 31 37
        E 844 8c 31 00
        E 115 9c 30 7b
        E 884 8c 30 00
        E 68 9c 2c 71
        E 848 8c 2c 00
        E 117 9c 32 78
        E 863 8c 32 00
        E 101 9c 31 49
        E 884 8c 31 00
        E 67 9c 26 6d
        E 846 8c 26 00
        E 0 bc 7b 00
        E 1 ff 2f 00
      >
    >
  >
  <TRACK
    NAME "Pedal"
    PEAKCOL 4284506208
    VOLPAN 1.000000 0 1 -1
    MIDIOUT -1
    ISBUS 0 0
    <ITEM
      POSITION 0.002209
      LENGTH 75.119998
      NAME "Pedal"
      VOLPAN 1 0 1 -1
      <SOURCE MIDI
        HASDATA 1 960 QN
        E 0 cd 2b 00
        E 3 9d 19 32
        E 1911 9d 18 49
        E 6 8d 19 00
        E 1909 8d 18 00
        E 9 9d 18 4c
        E 1909 8d 18 00
        E 11 9d 17 51
        E 1925 9d 17 44
        E 7 8d 17 00
        E 1911 9d 17 49
        E 18 8d 17 00
        E 1904 8d 17 00
        E 0 9d 18 2d
        E 1886 8d 18 00
        E 28 9d 0d 4b
        E 1900 8d 0d 00
        E 24 9d 0e 2c
        E 1903 8d 0e 00
        E 10 9d 0b 46
        E 1927 9d 18 22
        E 13 8d 0b 00
        E 1894 8d 18 00
        E 10 9d 12 46
        E 1915 8d 12 00
        E 7 9d 0c 27
        E 1911 8d 0c 00
        E 14 9d 0b 1f
        E 1918 9d 0e 35
        E 6 8d 0b 00
        E 1913 9d 14 2c
        E 29 8d 0e 00
        E 1882 8d 14 00
        E 5 9d 18 4f
        E 1920 8d 18 00
        E 0 9d 12 4e
        E 1918 9d 0e 41
        E 13 8d 12 00
        E 1910 9d 0c 49
        E 7 8d 0e 00
        E 1900 8d 0c 00
        E 9 9d 1a 27
        E 1915 8d 1a 00
        E 9 9d 19 4b
        E 1920 9d 15 4b
        E 11 8d 19 00
        E 1906 9d 0a 41
        E 21 8d 15 00
        E 1903 9d 19 32
        E 4 8d 0a 00
        E 1906 8d 19 00
        E 11 9d 18 20
        E 1918 9d 13 37
        E 24 8d 18 00
        E 1883 8d 13 00
        E 17 9d 1b 25
        E 1913 9d 0d 27
        E 13 8d 1b 00
        E 1890 8d 0d 00
        E 17 9d 19 2a
        E 1923 9d 18 34
        E 14 8d 19 00
        E 1887 8d 18 00
        E 20 9d 10 27
        E 1922 9d 19 1c
        E 4 8d 10 00
        E 1912 8d 19 00
        E 4 9d 1a 27
        E 1917 9d 1a 3c
        E 8 8d 1a 00
        E 1899 8d 1a 00
        E 16 9d 0b 25
        E 1919 9d 19 17
        E 9 8d 0b 00
        E 1908 9d 1b 2d
        E 2 8d 19 00
        E 1909 8d 1b 00
        E 12 9d 19 1f
        E 1918 8d 19 00
        E 7 9d 1a 17
        E 1914 9d 1a 1f
        E 18 8d 1a 00
        E 1900 9d 19 32
        E 5 8d 1a 00
        E 1915 8d 19 00
        E 4 9d 19 35
        E 1916 8d 19 00
        E 7 9d 18 35
        E 1915 9d 19 3a
        E 12 8d 18 00
        E 1893 8d 19 00
        E 15 9d 0e 37
        E 1926 9d 1a 39
        E 4 8d 0e 00
        E 1913 9d 19 31
        E 7 8d 1a 00
        E 1883 8d 19 00
        E 28 9d 0c 25
        E 1897 8d 0c 00
        E 19 9d 18 51
        E 1923 9d 19 3f
        E 8 8d 18 00
        E 1912 9d 19 3a
        E 9 8d 19 00
        E 1910 8d 19 00
        E 2 9d 1e 3c
        E 1921 9d 10 3c
        E 19 8d 1e 00
        E 1897 9d 19 54
        E 21 8d 10 00
        E 1894 8d 19 00
        E 10 9d 1b 31
        E 1886 8d 1b 00
        E 32 9d 19 29
        E 1920 9d 1a 2a
        E 7 8d 19 00
        E 1912 9d 0e 4b
        E 1 8d 1a 00
        E 1898 8d 0e 00
        E 20 9d 10 5b
        E 1956 8d 10 00
        E 0 bd 7b 00
        E 1 ff 2f 00
      >
    >
  >
>
