<REAPER_PROJECT 0.1 "7.0" 1700000000
  TEMPO 160.000000 4 4
  SAMPLERATE 48000 0 0
  RENDER_FILE ""
  RENDER_FMT 0 2 0
  RENDER_1X 0
  RENDER_RANGE 1 0 38.010169 0 0
  RENDER_RESAMPLE 3 0 1
  <MASTERTRACK
    VOLPAN 1 0 1 -1
    DEFCHAN 0
  >
  <TRACK
    NAME "drums"
    PEAKCOL 4290722362
    VOLPAN 1.000000 0 1 -1
    MIDIOUT -1
    ISBUS 0 0
    <ITEM
      POSITION 0.000000
      LENGTH 36.005834
      NAME "drums"
      VOLPAN 1 0 1 -1
      <SOURCE MIDI
        HASDATA 1 960 QN
        E 0 c9 00 00
        E 0 99 24 3c
        E 0 99 2a 3e
        E 144 89 2a 00
        E 99 89 24 00
        E 237 99 29 34
        E 143 89 29 00
        E 337 99 2a 3f
        E 0 99 26 43
        E 143 89 2a 00
        E 97 99 26 2e
        E 1 89 26 00
        E 76 89 26 00
        E 163 99 29 2e
        E 145 89 29 00
        E 336 99 2a 40
        E 0 99 24 56
        E 145 89 2a 00
        E 97 89 24 00
        E 237 99 26 52
        E 240 89 26 00
        E 0 99 2a 3d
        E 144 89 2a 00
        E 96 99 26 5b
        E 1 99 2a 41
        E 143 89 2a 00
        E 99 89 26 00
        E 237 99 24 5d
        E 236 89 24 00
        E 244 99 29 3b
        E 1 99 24 44
        E 143 89 29 00
        E 96 89 24 00
        E 240 99 29 31
        E 145 89 29 00
        E 335 99 26 53
        E 0 99 2a 43
        E 143 89 2a 00
        E 96 89 26 00
        E 241 99 29 34
        E 146 89 29 00
        E 65 99 26 2a
        E 76 89 26 00
        E 192 99 29 3e
        E 1 99 23 41
        E 134 99 29 2b
        E 10 89 29 00
        E 66 89 29 00
        E 33 89 23 00
        E 161 99 2a 2d
        E 75 99 26 46
        E 2 89 2a 00
        E 236 89 26 00
        E 3 99 2a 2e
        E 144 89 2a 00
        E 96 99 26 48
        E 0 99 2a 34
        E 143 89 2a 00
        E 98 89 26 00
        E 238 99 24 41
        E 239 89 24 00
        E 241 99 24 4c
        E 1 99 29 32
        E 143 89 29 00
        E 94 89 24 00
        E 176 99 26 22
        E 66 99 29 2f
        E 10 89 26 00
        E 135 89 29 00
        E 335 99 26 41
        E 2 99 2a 45
        E 145 89 2a 00
        E 96 89 26 00
        E 238 99 29 2d
        E 143 89 29 00
        E 337 99 29 42
        E 0 99 24 56
        E 145 89 29 00
        E 96 89 24 00
        E 239 99 26 53
        E 239 89 26 00
        E 1 99 2a 2e
        E 144 89 2a 00
        E 96 99 26 3b
        E 0 99 2a 30
        E 146 89 2a 00
        E 97 89 26 00
        E 236 99 24 53
        E 240 89 24 00
        E 241 99 24 51
        E 1 99 2a 43
        E 144 89 2a 00
        E 96 89 24 00
        E 239 99 2a 39
        E 143 89 2a 00
        E 337 99 26 56
        E 0 99 2a 3e
        E 143 89 2a 00
        E 95 89 26 00
        E 242 99 2a 35
        E 144 89 2a 00
        E 336 99 24 61
        E 0 99 2a 45
        E 145 89 2a 00
        E 95 89 24 00
        E 239 99 26 50
        E 241 99 2a 33
        E 1 89 26 00
        E 144 89 2a 00
        E 95 99 2a 2c
        E 0 99 26 51
        E 144 89 2a 00
        E 28 99 2a 29
        E 71 89 26 00
        E 6 89 2a 00
        E 231 99 24 4a
        E 239 89 24 00
        E 241 99 24 33
        E 0 99 29 2d
        E 144 89 29 00
        E 95 89 24 00
        E 241 99 2a 39
        E 146 89 2a 00
        E 333 99 2a 42
        E 1 99 26 44
        E 144 89 2a 00
        E 93 89 26 00
        E 243 99 29 28
        E 48 99 29 23
        E 78 89 29 00
        E 19 89 29 00
        E 335 99 29 36
        E 1 99 24 39
        E 141 89 29 00
        E 97 89 24 00
        E 242 99 26 4f
        E 239 99 2a 44
        E 1 89 26 00
        E 143 89 2a 00
        E 96 99 26 4a
        E 0 99 2a 30
        E 142 89 2a 00
        E 101 89 26 00
        E 237 99 24 51
        E 243 89 24 00
        E 237 99 2a 3d
        E 0 99 24 79
        E 143 89 2a 00
        E 101 89 24 00
        E 92 99 2a 3d
        E 76 89 2a 00
        E 67 99 2a 45
        E 142 89 2a 00
        E 339 99 26 4b
        E 0 99 2a 44
        E 142 89 2a 00
        E 95 89 26 00
        E 242 99 2a 3b
        E 145 89 2a 00
        E 336 99 24 3e
        E 0 99 2a 49
        E 142 89 2a 00
        E 100 89 24 00
        E 238 99 26 4d
        E 240 99 2a 31
        E 4 89 26 00
        E 139 89 2a 00
        E 97 99 2a 4d
        E 0 99 26 48
        E 143 89 2a 00
        E 99 89 26 00
        E 239 99 24 54
        E 239 89 24 00
        E 144 99 22 0e
        E 77 89 22 00
        E 19 99 29 2d
        E 0 99 24 3d
        E 142 89 29 00
        E 100 89 24 00
        E 238 99 29 2b
        E 48 99 28 05
        E 77 89 28 00
        E 18 89 29 00
        E 337 99 29 3b
        E 0 99 26 5c
        E 145 89 29 00
        E 97 89 26 00
        E 238 99 2b 36
        E 142 89 2b 00
        E 338 99 24 65
        E 0 99 2a 4b
        E 144 89 2a 00
        E 96 89 24 00
        E 240 99 26 56
        E 237 89 26 00
        E 3 99 2a 48
        E 145 89 2a 00
        E 94 99 2a 2f
        E 1 99 26 51
        E 143 89 2a 00
        E 95 89 26 00
        E 59 99 2a 3a
        E 76 89 2a 00
        E 107 99 24 44
        E 236 89 24 00
        E 244 99 29 39
        E 0 99 24 52
        E 145 89 29 00
        E 94 89 24 00
        E 242 99 29 36
        E 143 89 29 00
        E 336 99 26 56
        E 0 99 2a 50
        E 145 89 2a 00
        E 94 89 26 00
        E 242 99 29 2d
        E 143 89 29 00
        E 0 99 2a 46
        E 77 89 2a 00
        E 259 99 24 57
        E 0 99 2a 44
        E 146 89 2a 00
        E 8 99 25 12
        E 77 89 25 00
        E 9 89 24 00
        E 241 99 26 50
        E 239 99 2a 30
        E 1 89 26 00
        E 142 89 2a 00
        E 96 99 26 5f
        E 2 99 2a 47
        E 144 89 2a 00
        E 94 89 26 00
        E 241 99 24 39
        E 242 89 24 00
        E 238 99 29 1c
        E 1 99 24 4d
        E 141 89 29 00
        E 96 89 24 00
        E 242 99 29 23
        E 145 89 29 00
        E 335 99 29 37
        E 0 99 26 44
        E 143 89 29 00
        E 97 89 26 00
        E 239 99 2a 3d
        E 143 89 2a 00
        E 338 99 25 2d
        E 0 99 2a 47
        E 143 89 2a 00
        E 49 99 29 31
        E 49 89 25 00
        E 28 89 29 00
        E 211 99 26 57
        E 239 89 26 00
        E 1 99 2a 42
        E 145 89 2a 00
        E 95 99 26 50
        E 1 99 2a 3f
        E 124 99 2a 22
        E 22 89 2a 00
        E 54 89 2a 00
        E 40 89 26 00
        E 239 99 24 51
        E 77 99 2a 2b
        E 76 89 2a 00
        E 88 89 24 00
        E 239 99 24 4b
        E 0 99 2a 42
        E 144 89 2a 00
        E 96 89 24 00
        E 239 99 29 3a
        E 143 89 29 00
        E 338 99 26 55
        E 1 99 29 3a
        E 145 89 29 00
        E 97 89 26 00
        E 237 99 29 27
        E 145 89 29 00
        E 19 99 26 28
        E 77 89 26 00
        E 239 99 29 3c
        E 1 99 24 5a
        E 143 89 29 00
        E 101 89 24 00
        E 235 99 26 42
        E 238 89 26 00
        E 1 99 2a 2d
        E 142 89 2a 00
        E 99 99 26 38
        E 0 99 2a 42
        E 134 99 26 17
        E 9 89 2a 00
        E 39 99 26 30
        E 29 89 26 00
        E 28 89 26 00
        E 20 89 26 00
        E 221 99 24 40
        E 239 89 24 00
        E 241 99 24 38
        E 0 99 29 32
        E 144 89 29 00
        E 95 89 24 00
        E 242 99 26 0c
        E 146 89 26 00
        E 333 99 29 3a
        E 0 99 26 43
        E 146 89 29 00
        E 94 89 26 00
        E 240 99 29 36
        E 142 89 29 00
        E 337 99 2a 4c
        E 1 99 24 50
        E 144 89 2a 00
        E 96 89 24 00
        E 240 99 26 54
        E 238 89 26 00
        E 1 99 2a 29
        E 145 89 2a 00
        E 96 99 26 5c
        E 0 99 2a 2d
        E 147 89 2a 00
        E 92 89 26 00
        E 59 99 26 3e
        E 77 89 26 00
        E 105 99 24 41
        E 240 89 24 00
        E 240 99 24 44
        E 0 99 2a 3d
        E 143 89 2a 00
        E 98 89 24 00
        E 239 99 29 37
        E 145 89 29 00
        E 315 99 29 3b
        E 20 99 26 56
        E 0 99 29 3b
        E 57 89 29 00
        E 89 89 29 00
        E 91 89 26 00
        E 243 99 29 36
        E 143 89 29 00
        E 126 99 29 1e
        E 76 89 29 00
        E 134 99 2a 46
        E 0 99 24 5b
        E 136 99 29 26
        E 8 89 2a 00
        E 68 89 29 00
        E 27 89 24 00
        E 242 99 26 3a
        E 240 99 2a 30
        E 1 89 26 00
        E 143 89 2a 00
        E 96 99 2a 38
        E 0 99 26 50
        E 144 89 2a 00
        E 96 89 26 00
        E 241 99 24 40
        E 240 89 24 00
        E 238 99 2b 2d
        E 1 99 24 3c
        E 125 99 2b 0f
        E 17 89 2b 00
        E 59 89 2b 00
        E 42 89 24 00
        E 237 99 29 1d
        E 143 89 29 00
        E 135 99 29 23
        E 77 89 29 00
        E 125 99 25 37
        E 1 99 29 31
        E 144 89 29 00
        E 96 89 25 00
        E 239 99 29 2c
        E 145 89 29 00
        E 335 99 29 2d
        E 0 99 24 43
        E 142 89 29 00
        E 97 89 24 00
        E 241 99 26 4c
        E 240 99 2a 22
        E 1 89 26 00
        E 143 89 2a 00
        E 96 99 2a 3b
        E 0 99 26 52
        E 146 89 2a 00
        E 94 89 26 00
        E 240 99 24 61
        E 240 89 24 00
        E 240 99 24 54
        E 0 99 2a 2d
        E 144 89 2a 00
        E 97 89 24 00
        E 239 99 29 36
        E 144 89 29 00
        E 336 99 29 24
        E 0 99 26 61
        E 145 89 29 00
        E 97 89 26 00
        E 142 99 26 1e
        E 76 89 26 00
        E 19 99 29 25
        E 143 89 29 00
        E 337 99 2a 30
        E 2 99 24 57
        E 142 89 2a 00
        E 96 89 24 00
        E 241 99 26 46
        E 192 99 2a 2e
        E 46 89 26 00
        E 2 99 2a 2a
        E 29 89 2a 00
        E 116 89 2a 00
        E 95 99 2a 3c
        E 1 99 26 55
        E 145 89 2a 00
        E 99 89 26 00
        E 235 99 24 5a
        E 240 89 24 00
        E 240 99 24 5c
        E 0 99 29 37
        E 144 89 29 00
        E 94 89 24 00
        E 242 99 28 19
        E 144 89 28 00
        E 336 99 29 37
        E 0 99 26 3f
        E 145 89 29 00
        E 75 99 26 22
        E 21 89 26 00
        E 56 89 26 00
        E 184 99 29 30
        E 145 89 29 00
        E 334 99 24 4d
        E 0 99 29 40
        E 143 89 29 00
        E 99 89 24 00
        E 238 99 26 4e
        E 240 89 26 00
        E 0 99 2a 2e
        E 145 89 2a 00
        E 95 99 2a 38
        E 0 99 26 47
        E 144 89 2a 00
        E 0 99 26 3a
        E 77 89 26 00
        E 14 89 26 00
        E 245 99 24 45
        E 241 89 24 00
        E 239 99 24 6d
        E 0 99 2a 43
        E 143 89 2a 00
        E 94 89 24 00
        E 243 99 2a 3c
        E 143 89 2a 00
        E 337 99 26 50
        E 0 99 2a 37
        E 145 89 2a 00
        E 96 89 26 00
        E 239 99 2a 35
        E 143 89 2a 00
        E 337 99 24 3f
        E 0 99 2a 43
        E 144 89 2a 00
        E 95 89 24 00
        E 241 99 26 4a
        E 240 99 2a 3b
        E 1 89 26 00
        E 38 99 2a 32
        E 77 89 2a 00
        E 27 89 2a 00
        E 97 99 2a 35
        E 0 99 26 45
        E 143 89 2a 00
        E 98 89 26 00
        E 38 99 2a 1f
        E 77 89 2a 00
        E 124 99 24 48
        E 97 99 26 30
        E 77 89 26 00
        E 67 89 24 00
        E 239 99 24 54
        E 1 99 29 35
        E 144 89 29 00
        E 94 89 24 00
        E 126 99 29 22
        E 76 89 29 00
        E 39 99 29 2c
        E 144 89 29 00
        E 336 99 29 2d
        E 0 99 26 43
        E 39 99 29 26
        E 77 89 29 00
        E 26 89 29 00
        E 94 89 26 00
        E 244 99 29 2b
        E 147 89 29 00
        E 93 99 26 29
        E 77 89 26 00
        E 163 99 24 50
        E 0 99 29 32
        E 144 89 29 00
        E 96 89 24 00
        E 240 99 26 4c
        E 239 99 2a 1e
        E 3 89 26 00
        E 140 89 2a 00
        E 99 99 2a 43
        E 0 99 26 47
        E 144 89 2a 00
        E 96 89 26 00
        E 239 99 24 59
        E 242 89 24 00
        E 237 99 2a 3c
        E 0 99 24 61
        E 143 89 2a 00
        E 96 89 24 00
        E 242 99 2a 45
        E 146 89 2a 00
        E 334 99 2a 3e
        E 0 99 26 5f
        E 145 89 2a 00
        E 94 89 26 00
        E 241 99 2a 39
        E 143 89 2a 00
        E 107 99 26 34
        E 77 89 26 00
        E 153 99 2a 3f
        E 1 99 24 4e
        E 143 89 2a 00
        E 98 89 24 00
        E 238 99 26 54
        E 238 89 26 00
        E 2 99 2a 40
        E 144 89 2a 00
        E 96 99 26 49
        E 0 99 2a 2b
        E 142 89 2a 00
        E 99 89 26 00
        E 239 99 24 51
        E 239 89 24 00
        E 241 99 24 45
        E 0 99 29 2d
        E 144 89 29 00
        E 93 89 24 00
        E 243 99 29 32
        E 143 89 29 00
        E 308 99 26 47
        E 29 99 29 2d
        E 0 99 26 47
        E 47 89 26 00
        E 99 89 29 00
        E 93 89 26 00
        E 241 99 29 32
        E 143 89 29 00
        E 337 99 29 39
        E 0 99 24 53
        E 143 89 29 00
        E 98 89 24 00
        E 239 99 26 3e
        E 237 89 26 00
        E 3 99 2a 2e
        E 144 89 2a 00
        E 96 99 26 57
        E 0 99 2a 46
        E 145 89 2a 00
        E 95 89 26 00
        E 240 99 24 5c
        E 239 89 24 00
        E 241 99 24 4d
        E 0 99 29 39
        E 19 99 29 39
        E 76 89 29 00
        E 49 89 29 00
        E 93 89 24 00
        E 243 99 29 2c
        E 144 89 29 00
        E 336 99 26 50
        E 0 99 2a 4e
        E 144 89 2a 00
        E 98 89 26 00
        E 239 99 2a 49
        E 146 89 2a 00
        E 333 99 29 35
        E 0 99 24 68
        E 144 89 29 00
        E 96 89 24 00
        E 240 99 26 4e
        E 105 99 2a 24
        E 77 89 2a 00
        E 57 99 2a 33
        E 3 89 26 00
        E 140 89 2a 00
        E 97 99 2a 36
        E 1 99 26 59
        E 140 89 2a 00
        E 99 89 26 00
        E 241 99 24 4b
        E 240 89 24 00
        E 240 99 29 38
        E 0 99 24 2e
        E 144 89 29 00
        E 99 89 24 00
        E 237 99 29 23
        E 145 89 29 00
        E 210 99 26 22
        E 77 89 26 00
        E 48 99 26 42
        E 1 99 2a 3e
        E 143 89 2a 00
        E 96 89 26 00
        E 241 99 29 2f
        E 124 99 24 1b
        E 21 89 29 00
        E 55 89 24 00
        E 278 99 2a 30
        E 2 99 24 65
        E 141 89 2a 00
        E 97 89 24 00
        E 241 99 26 47
        E 240 99 2a 3d
        E 2 89 26 00
        E 142 89 2a 00
        E 96 99 26 55
        E 0 99 2a 42
        E 145 89 2a 00
        E 96 89 26 00
        E 161 99 2a 15
        E 77 89 2a 00
        E 1 99 24 4c
        E 238 89 24 00
        E 242 99 24 3b
        E 0 99 29 31
        E 58 99 26 23
        E 78 89 26 00
        E 7 89 29 00
        E 95 89 24 00
        E 242 99 2a 18
        E 143 89 2a 00
        E 337 99 29 42
        E 0 99 26 4c
        E 144 89 29 00
        E 38 99 29 31
        E 58 89 26 00
        E 18 89 29 00
        E 222 99 2a 45
        E 143 89 2a 00
        E 337 99 24 50
        E 0 99 29 31
        E 145 89 29 00
        E 96 89 24 00
        E 239 99 26 52
        E 239 89 26 00
        E 1 99 2a 3b
        E 142 89 2a 00
        E 98 99 26 4c
        E 0 99 2a 3c
        E 143 89 2a 00
        E 1 99 26 29
        E 75 89 26 00
        E 23 89 26 00
        E 238 99 24 48
        E 242 89 24 00
        E 238 99 2a 3d
        E 0 99 24 4d
        E 144 89 2a 00
        E 48 99 29 32
        E 50 89 24 00
        E 28 89 29 00
        E 210 99 29 2f
        E 142 89 29 00
        E 337 99 26 3c
        E 1 99 29 1f
        E 146 89 29 00
        E 93 89 26 00
        E 241 99 29 1a
        E 143 89 29 00
        E 337 99 29 32
        E 0 99 24 50
        E 143 89 29 00
        E 94 89 24 00
        E 243 99 26 52
        E 239 89 26 00
        E 1 99 2a 30
        E 144 89 2a 00
        E 96 99 26 4a
        E 0 99 2a 27
        E 145 89 2a 00
        E 92 89 26 00
        E 243 99 24 47
        E 239 89 24 00
        E 240 99 2a 42
        E 1 99 24 4c
        E 144 89 2a 00
        E 95 89 24 00
        E 241 99 29 30
        E 142 89 29 00
        E 338 99 26 69
        E 0 99 2a 3e
        E 143 89 2a 00
        E 96 89 26 00
        E 241 99 2a 4f
        E 143 89 2a 00
        E 328 99 29 2c
        E 9 99 2a 42
        E 0 99 24 4c
        E 68 89 29 00
        E 75 89 2a 00
        E 98 89 24 00
        E 239 99 26 45
        E 240 99 2a 37
        E 1 89 26 00
        E 143 89 2a 00
        E 96 99 2a 30
        E 0 99 26 3e
        E 143 89 2a 00
        E 98 89 26 00
        E 240 99 24 37
        E 133 99 26 18
        E 75 89 26 00
        E 30 89 24 00
        E 0 b9 7b 00
        E 1 ff 2f 00
      >
    >
  >
  <TRACK
    NAME "synth_bass"
    PEAKCOL 4286528191
    VOLPAN 1.000000 0 1 -1
    MIDIOUT -1
    ISBUS 0 0
    <ITEM
      POSITION 0.000000
      LENGTH 36.062176
      NAME "synth_bass"
      VOLPAN 1 0 1 -1
      <SOURCE MIDI
        HASDATA 1 960 QN
        E 0 c0 26 00
        E 0 90 39 2d
        E 855 80 39 00
        E 106 90 37 1a
        E 877 80 37 00
        E 88 90 39 17
        E 857 80 39 00
        E 102 90 38 27
        E 841 80 38 00
        E 115 90 39 1a
        E 859 80 39 00
        E 101 90 37 19
        E 866 80 37 00
        E 92 90 39 2d
        E 875 80 39 00
        E 88 90 39 17
        E 885 80 39 00
        E 71 90 31 2d
        E 873 80 31 00
        E 92 90 32 2d
        E 865 80 32 00
        E 92 90 32 2d
        E 870 80 32 00
        E 93 90 31 2d
        E 866 80 31 00
        E 96 90 39 21
        E 866 80 39 00
        E 87 90 39 2d
        E 867 80 39 00
        E 97 90 39 19
        E 867 80 39 00
        E 86 90 39 2d
        E 876 80 39 00
        E 90 90 30 2d
        E 866 80 30 00
        E 94 90 32 2d
        E 867 80 32 00
        E 99 90 31 2d
        E 847 80 31 00
        E 110 90 32 2d
        E 858 80 32 00
        E 97 90 31 2d
        E 219 90 31 2d
        E 39 80 31 00
        E 571 80 31 00
        E 133 90 32 2d
        E 863 80 32 00
        E 97 90 32 2d
        E 882 80 32 00
        E 80 90 32 2d
        E 879 80 32 00
        E 83 90 39 2d
        E 873 80 39 00
        E 78 90 39 2d
        E 866 80 39 00
        E 99 90 39 12
        E 841 80 39 00
        E 119 90 38 2d
        E 865 80 38 00
        E 93 90 39 2d
        E 846 80 39 00
        E 119 90 38 1e
        E 863 80 38 00
        E 94 90 39 17
        E 864 80 39 00
        E 97 90 38 1a
        E 866 80 38 00
        E 91 90 39 2d
        E 853 80 39 00
        E 115 90 39 18
        E 860 80 39 00
        E 93 90 38 2d
        E 863 80 38 00
        E 94 90 38 2d
        E 875 80 38 00
        E 89 90 37 1a
        E 864 80 37 00
        E 98 90 37 19
        E 858 80 37 00
        E 98 90 39 2d
        E 872 80 39 00
        E 91 90 39 25
        E 877 80 39 00
        E 82 90 31 2d
        E 844 80 31 00
        E 111 90 32 2d
        E 861 80 32 00
        E 105 90 32 2d
        E 844 80 32 00
        E 115 90 31 2d
        E 857 80 31 00
        E 103 90 39 2d
        E 865 80 39 00
        E 96 90 38 18
        E 852 80 38 00
        E 108 90 38 1b
        E 869 80 38 00
        E 90 90 38 1f
        E 878 80 38 00
        E 88 90 31 2d
        E 877 80 31 00
        E 76 90 32 2d
        E 870 80 32 00
        E 95 90 30 2d
        E 853 80 30 00
        E 101 90 31 2d
        E 878 80 31 00
        E 83 90 31 2d
        E 852 80 31 00
        E 108 90 32 2d
        E 856 80 32 00
        E 104 90 31 2d
        E 859 80 31 00
        E 104 90 31 2d
        E 844 80 31 00
        E 111 90 32 2d
        E 222 90 38 23
        E 40 80 32 00
        E 584 80 38 00
        E 120 90 37 23
        E 871 80 37 00
        E 85 90 39 2d
        E 866 80 39 00
        E 95 90 39 11
        E 859 80 39 00
        E 104 90 39 0e
        E 854 80 39 00
        E 104 90 39 1b
        E 862 80 39 00
        E 101 90 38 1a
        E 861 80 38 00
        E 97 90 39 19
        E 849 80 39 00
        E 108 90 38 2d
        E 853 80 38 00
        E 110 90 38 1c
        E 859 80 38 00
        E 102 90 39 1d
        E 879 80 39 00
        E 78 90 38 19
        E 867 80 38 00
        E 93 90 39 11
        E 847 80 39 00
        E 114 90 37 23
        E 876 80 37 00
        E 88 90 38 11
        E 861 80 38 00
        E 96 90 38 17
        E 861 80 38 00
        E 102 90 30 2d
        E 868 80 30 00
        E 90 90 32 2d
        E 863 80 32 00
        E 98 90 32 2d
        E 865 80 32 00
        E 89 90 32 2d
        E 868 80 32 00
        E 92 90 31 2d
        E 221 90 31 2d
        E 38 80 31 00
        E 570 80 31 00
        E 135 90 37 18
        E 869 80 37 00
        E 86 90 38 2d
        E 861 80 38 00
        E 99 90 38 2d
        E 862 80 38 00
        E 101 90 37 2d
        E 222 90 30 2d
        E 33 80 37 00
        E 564 80 30 00
        E 142 90 32 2d
        E 873 80 32 00
        E 87 90 31 2d
        E 864 80 31 00
        E 91 90 30 2d
        E 889 80 30 00
        E 76 90 30 2d
        E 214 90 32 2d
        E 43 80 30 00
        E 564 80 32 00
        E 137 90 32 2d
        E 856 80 32 00
        E 105 90 32 2d
        E 867 80 32 00
        E 94 90 32 2d
        E 862 80 32 00
        E 98 90 38 1b
        E 862 80 38 00
        E 97 90 38 13
        E 845 80 38 00
        E 112 90 38 2d
        E 843 80 38 00
        E 121 90 38 18
        E 852 80 38 00
        E 109 90 39 17
        E 872 80 39 00
        E 87 90 38 18
        E 874 80 38 00
        E 82 90 39 2d
        E 859 80 39 00
        E 104 90 38 19
        E 862 80 38 00
        E 0 b0 7b 00
        E 1 ff 2f 00
      >
    >
  >
  <TRACK
    NAME "dark_pad"
    PEAKCOL 4284506208
    VOLPAN 1.000000 0 1 -1
    MIDIOUT -1
    ISBUS 0 0
    <ITEM
      POSITION 0.000388
      LENGTH 36.106391
      NAME "dark_pad"
      VOLPAN 1 0 1 -1
      <SOURCE MIDI
        HASDATA 1 960 QN
        E 0 c1 58 00
        E 1 91 1c 2d
        E 17 91 29 2d
        E 10 91 2c 2d
        E 15 91 29 2d
        E 12 91 37 2d
        E 15 91 3d 2d
        E 6851 81 3d 00
        E 163 81 37 00
        E 598 91 18 0d
        E 19 91 1a 2d
        E 4 91 24 2d
        E 7 91 24 2d
        E 6 91 1a 2d
        E 8 91 31 2d
        E 1 91 28 2d
        E 2238 81 29 00
        E 36 81 29 00
        E 47 81 2c 00
        E 225 81 1c 00
        E 4076 81 24 00
        E 253 81 28 00
        E 184 81 31 00
        E 569 91 26 2d
        E 17 91 21 2d
        E 20 91 26 2d
        E 9 91 39 2d
        E 7 91 2e 2d
        E 6 91 33 2d
        E 11 91 3e 2d
        E 2045 81 18 00
        E 84 81 1a 00
        E 9 81 1a 00
        E 263 81 24 00
        E 4413 81 39 00
        E 246 81 33 00
        E 32 81 3e 00
        E 526 91 25 2d
        E 4 91 1a 2d
        E 18 91 26 2d
        E 9 91 19 2d
        E 30 91 38 2d
        E 1729 81 21 00
        E 619 81 2e 00
        E 202 81 26 00
        E 5 81 26 00
        E 4565 81 38 00
        E 487 91 18 2d
        E 19 91 10 2d
        E 16 91 25 2d
        E 8 91 2d 2d
        E 8 91 1b 2d
        E 23 91 30 2d
        E 1 91 3b 2d
        E 1805 81 19 00
        E 122 81 1a 00
        E 210 81 25 00
        E 14 81 26 00
        E 4362 81 2d 00
        E 506 81 3b 00
        E 91 81 30 00
        E 507 91 25 2d
        E 14 91 24 2d
        E 15 91 30 2d
        E 1 91 24 2d
        E 5 91 24 2d
        E 8 91 31 2d
        E 14 91 31 2d
        E 7 91 3c 0f
        E 1862 81 18 00
        E 195 81 1b 00
        E 210 81 25 00
        E 50 81 10 00
        E 4493 81 31 00
        E 83 81 30 00
        E 16 81 31 00
        E 204 81 3c 00
        E 491 91 26 2d
        E 24 91 18 12
        E 17 91 2c 2d
        E 5 91 1b 2d
        E 5 91 2f 2d
        E 1891 81 25 00
        E 313 81 24 00
        E 205 81 24 00
        E 64 81 24 00
        E 4322 81 2f 00
        E 846 91 23 2d
        E 16 91 2b 2d
        E 1 91 17 05
        E 21 91 24 2d
        E 0 91 2b 2d
        E 11 91 38 2d
        E 23 91 38 2d
        E 2146 81 1b 00
        E 84 81 2c 00
        E 132 81 26 00
        E 392 81 18 00
        E 4077 81 38 00
        E 419 81 38 00
        E 69 81 2b 00
        E 296 91 1c 2d
        E 3 91 13 0b
        E 24 91 1e 2d
        E 11 91 30 2d
        E 4 91 30 2d
        E 26 91 38 2d
        E 1927 81 2b 00
        E 256 81 24 00
        E 74 81 23 00
        E 173 81 17 00
        E 4193 81 38 00
        E 144 81 30 00
        E 77 81 30 00
        E 762 91 18 2d
        E 2 91 12 0f
        E 20 91 2e 2d
        E 10 91 25 2d
        E 8 91 1d 2d
        E 0 91 30 2d
        E 26 91 37 2d
        E 1 91 38 2d
        E 1927 81 13 00
        E 361 81 1e 00
        E 316 81 1c 00
        E 4004 81 2e 00
        E 203 81 37 00
        E 90 81 30 00
        E 207 81 38 00
        E 503 91 1a 2d
        E 13 91 0d 0f
        E 21 91 26 2d
        E 6 91 19 2d
        E 13 91 38 2d
        E 20 91 45 2d
        E 2149 81 12 00
        E 53 81 18 00
        E 54 81 25 00
        E 175 81 1d 00
        E 4374 81 45 00
        E 316 81 38 00
        E 482 91 24 2d
        E 12 91 24 2d
        E 21 91 25 2d
        E 1 91 2c 2d
        E 12 91 24 2d
        E 1 91 31 2d
        E 23 91 3e 2d
        E 2114 81 0d 00
        E 56 81 19 00
        E 99 81 1a 00
        E 132 81 26 00
        E 2793 81 31 00
        E 46 81 3e 00
        E 141 81 2c 00
        E 1811 81 24 00
        E 279 81 25 00
        E 70 81 24 00
        E 88 81 24 00
        E 0 b1 7b 00
        E 1 ff 2f 00
      >
    >
  >
  <TRACK
    NAME "tension_fx"
    PEAKCOL 4284506208
    VOLPAN 1.000000 0 1 -1
    MIDIOUT -1
    ISBUS 0 0
    <ITEM
      POSITION 0.000307
      LENGTH 36.109863
      NAME "tension_fx"
      VOLPAN 1 0 1 -1
      <SOURCE MIDI
        HASDATA 1 960 QN
        E 0 c2 50 00
        E 1 92 39 2d
        E 24 92 3e 0f
        E 3816 82 39 00
        E 24 82 3e 00
        E 3817 92 34 2d
        E 3840 82 34 00
        E 3839 92 3e 15
        E 3837 92 3a 2d
        E 3 82 3e 00
        E 26 92 44 0f
        E 3811 82 3a 00
        E 29 82 44 00
        E 3811 92 38 2d
        E 25 92 3d 0f
        E 3815 82 38 00
        E 25 82 3d 00
        E 15340 92 3a 2d
        E 18 92 3f 2d
        E 3822 82 3a 00
        E 18 82 3f 00
        E 7660 92 3a 2d
        E 3840 82 3a 00
        E 3836 92 3c 2d
        E 3840 82 3c 00
        E 7680 92 36 2d
        E 3840 82 36 00
        E 7684 92 3b 2d
        E 25 92 3c 07
        E 3815 82 3b 00
        E 25 82 3c 00
        E 0 b2 7b 00
        E 1 ff 2f 00
      >
    >
  >
  <TRACK
    NAME "lead_synth"
    PEAKCOL 4284506208
    VOLPAN 1.000000 0 1 -1
    MIDIOUT -1
    ISBUS 0 0
    <ITEM
      POSITION 0.008619
      LENGTH 35.442859
      NAME "lead_synth"
      VOLPAN 1 0 1 -1
      <SOURCE MIDI
        HASDATA 1 960 QN
        E 0 c3 50 00
        E 22 93 44 2d
        E 2077 83 44 00
        E 1719 93 4a 41
        E 2132 83 4a 00
        E 1721 93 50 35
        E 2196 83 50 00
        E 1661 93 50 34
        E 1979 83 50 00
        E 1854 93 4f 37
        E 2188 83 4f 00
        E 1649 93 55 2d
        E 2100 83 55 00
        E 1762 93 52 44
        E 2144 83 52 00
        E 1665 93 50 2e
        E 2193 83 50 00
        E 1677 93 50 2d
        E 2053 83 50 00
        E 1758 93 50 30
        E 2048 83 50 00
        E 1815 93 50 37
        E 2213 83 50 00
        E 1622 93 4f 3d
        E 2011 83 4f 00
        E 1834 93 4a 39
        E 2062 83 4a 00
        E 1758 93 4a 2d
        E 2238 83 4a 00
        E 1597 93 4a 33
        E 2259 83 4a 00
        E 1584 93 44 2d
        E 2045 83 44 00
        E 1793 93 4a 46
        E 2101 83 4a 00
        E 1731 93 44 2d
        E 1964 83 44 00
        E 1888 93 4a 3c
        E 2165 83 4a 00
        E 1676 93 43 34
        E 2126 83 43 00
        E 1728 93 43 34
        E 2119 83 43 00
        E 1714 93 4b 43
        E 2159 83 4b 00
        E 1679 93 44 30
        E 2020 83 44 00
        E 1824 93 43 33
        E 2177 83 43 00
        E 0 b3 7b 00
        E 1 ff 2f 00
      >
    >
  >
>
