<REAPER_PROJECT 0.1 "7.0" 1700000000
  TEMPO 140.000000 4 4
  SAMPLERATE 48000 0 0
  RENDER_FILE ""
  RENDER_FMT 0 2 0
  RENDER_1X 0
  RENDER_RANGE 1 0 43.157411 0 0
  RENDER_RESAMPLE 3 0 1
  <MASTERTRACK
    VOLPAN 1 0 1 -1
    DEFCHAN 0
  >
  <TRACK
    NAME "drums"
    PEAKCOL 4290722362
    VOLPAN 1.000000 0 1 -1
    MIDIOUT -1
    ISBUS 0 0
    <ITEM
      POSITION 0.000000
      LENGTH 41.136413
      NAME "drums"
      VOLPAN 1 0 1 -1
      <SOURCE MIDI
        HASDATA 1 960 QN
        E 0 c9 00 00
        E 0 99 24 6e
        E 0 99 2a 4c
        E 144 89 2a 00
        E 99 89 24 00
        E 237 99 2a 42
        E 143 89 2a 00
        E 337 99 26 63
        E 241 89 26 00
        E 162 99 2a 36
        E 76 89 2a 00
        E 1 99 2a 3d
        E 0 99 24 78
        E 145 89 2a 00
        E 96 89 24 00
        E 240 99 2a 55
        E 0 99 24 7c
        E 145 89 2a 00
        E 75 99 26 3e
        E 22 89 24 00
        E 55 89 26 00
        E 182 99 2a 4c
        E 144 89 2a 00
        E 336 99 26 7d
        E 243 89 26 00
        E 237 99 2a 63
        E 1 99 24 77
        E 140 89 2a 00
        E 99 89 24 00
        E 240 99 2a 59
        E 1 99 24 6e
        E 143 89 2a 00
        E 96 89 24 00
        E 240 99 2a 48
        E 145 89 2a 00
        E 134 99 29 31
        E 76 89 29 00
        E 125 99 26 7a
        E 29 99 26 39
        E 78 89 26 00
        E 131 89 26 00
        E 241 99 24 69
        E 1 99 2a 46
        E 146 89 2a 00
        E 92 89 24 00
        E 241 99 24 7c
        E 0 99 2a 49
        E 143 89 2a 00
        E 99 89 24 00
        E 239 99 28 40
        E 144 89 28 00
        E 335 99 26 6f
        E 238 89 26 00
        E 243 99 29 4f
        E 0 99 24 65
        E 145 89 29 00
        E 96 89 24 00
        E 238 99 2a 40
        E 1 99 24 48
        E 143 89 2a 00
        E 96 89 24 00
        E 240 99 2a 6a
        E 143 89 2a 00
        E 338 99 26 7d
        E 239 89 26 00
        E 240 99 2a 49
        E 1 99 24 5f
        E 19 99 29 35
        E 78 89 29 00
        E 47 89 2a 00
        E 94 89 24 00
        E 242 99 2a 52
        E 1 99 24 7d
        E 142 89 2a 00
        E 100 89 24 00
        E 237 99 2a 4a
        E 145 89 2a 00
        E 335 99 26 7c
        E 242 89 26 00
        E 238 99 24 76
        E 0 99 2a 4d
        E 144 89 2a 00
        E 95 89 24 00
        E 241 99 24 5a
        E 0 99 2a 5e
        E 38 99 2a 3a
        E 77 89 2a 00
        E 31 89 2a 00
        E 97 89 24 00
        E 237 99 2a 46
        E 145 89 2a 00
        E 336 99 26 7d
        E 239 89 26 00
        E 240 99 2a 4a
        E 0 99 24 73
        E 143 89 2a 00
        E 95 89 24 00
        E 242 99 24 7a
        E 0 99 2a 41
        E 144 89 2a 00
        E 95 89 24 00
        E 241 99 29 4d
        E 144 89 29 00
        E 336 99 26 75
        E 241 89 26 00
        E 238 99 24 67
        E 1 99 2a 42
        E 145 89 2a 00
        E 96 89 24 00
        E 239 99 2a 3c
        E 0 99 24 5e
        E 144 89 2a 00
        E 99 89 24 00
        E 236 99 2a 59
        E 144 89 2a 00
        E 337 99 26 7d
        E 115 99 29 28
        E 76 89 29 00
        E 48 89 26 00
        E 241 99 2a 5e
        E 0 99 24 73
        E 146 89 2a 00
        E 94 89 24 00
        E 239 99 2a 5b
        E 1 99 24 78
        E 144 89 2a 00
        E 93 89 24 00
        E 243 99 2a 36
        E 145 89 2a 00
        E 335 99 26 7a
        E 244 89 26 00
        E 160 99 28 14
        E 76 89 28 00
        E 0 99 24 69
        E 1 99 2a 53
        E 144 89 2a 00
        E 92 89 24 00
        E 243 99 24 7d
        E 0 99 2a 6a
        E 146 89 2a 00
        E 94 89 24 00
        E 240 99 29 42
        E 142 89 29 00
        E 338 99 26 7c
        E 211 99 26 73
        E 32 89 26 00
        E 46 89 26 00
        E 191 99 24 69
        E 0 99 2a 77
        E 142 89 2a 00
        E 96 89 24 00
        E 241 99 24 7c
        E 1 99 2a 5a
        E 142 89 2a 00
        E 94 89 24 00
        E 244 99 29 46
        E 142 89 29 00
        E 337 99 26 7c
        E 242 89 26 00
        E 239 99 24 45
        E 0 99 29 40
        E 142 89 29 00
        E 100 89 24 00
        E 238 99 29 46
        E 0 99 24 61
        E 143 89 29 00
        E 101 89 24 00
        E 236 99 2a 5f
        E 145 89 2a 00
        E 335 99 26 7d
        E 239 89 26 00
        E 69 99 29 45
        E 77 89 29 00
        E 95 99 24 63
        E 0 99 2a 51
        E 19 99 26 32
        E 76 89 26 00
        E 50 89 2a 00
        E 96 89 24 00
        E 239 99 24 5a
        E 0 99 29 3c
        E 145 89 29 00
        E 94 89 24 00
        E 241 99 2a 4a
        E 145 89 2a 00
        E 335 99 26 7d
        E 241 89 26 00
        E 239 99 2a 67
        E 0 99 24 7c
        E 144 89 2a 00
        E 93 89 24 00
        E 243 99 2a 53
        E 0 99 24 7d
        E 142 89 2a 00
        E 98 89 24 00
        E 240 99 2a 7a
        E 145 89 2a 00
        E 335 99 26 7c
        E 238 89 26 00
        E 241 99 24 65
        E 0 99 2a 63
        E 97 99 29 2a
        E 45 89 2a 00
        E 31 89 29 00
        E 68 89 24 00
        E 240 99 2a 5a
        E 0 99 24 75
        E 145 89 2a 00
        E 94 89 24 00
        E 242 99 2a 48
        E 143 89 2a 00
        E 336 99 26 6b
        E 239 89 26 00
        E 241 99 24 75
        E 1 99 29 2e
        E 143 89 29 00
        E 98 89 24 00
        E 238 99 29 42
        E 0 99 24 66
        E 144 89 29 00
        E 97 89 24 00
        E 239 99 29 35
        E 146 89 29 00
        E 334 99 26 52
        E 242 89 26 00
        E 238 99 29 4f
        E 1 99 24 6d
        E 142 89 29 00
        E 98 89 24 00
        E 190 99 26 39
        E 49 99 2a 4c
        E 1 99 24 7d
        E 27 89 26 00
        E 117 89 2a 00
        E 96 89 24 00
        E 240 99 2a 3c
        E 142 89 2a 00
        E 337 99 26 69
        E 237 89 26 00
        E 243 99 24 7a
        E 0 99 2a 4e
        E 144 89 2a 00
        E 97 89 24 00
        E 238 99 2a 57
        E 1 99 24 7d
        E 142 89 2a 00
        E 96 89 24 00
        E 242 99 2a 2e
        E 145 89 2a 00
        E 335 99 26 7d
        E 238 89 26 00
        E 242 99 2a 5d
        E 0 99 24 6e
        E 143 89 2a 00
        E 30 99 26 44
        E 66 89 24 00
        E 12 89 26 00
        E 229 99 24 5d
        E 1 99 2a 5f
        E 146 89 2a 00
        E 94 89 24 00
        E 9 99 28 2e
        E 76 89 28 00
        E 154 99 29 3d
        E 145 89 29 00
        E 335 99 26 75
        E 239 89 26 00
        E 241 99 24 67
        E 0 99 2a 44
        E 144 89 2a 00
        E 38 99 25 2e
        E 58 89 24 00
        E 18 89 25 00
        E 222 99 24 4f
        E 1 99 2a 45
        E 145 89 2a 00
        E 97 89 24 00
        E 179 99 26 15
        E 58 99 29 21
        E 19 89 26 00
        E 125 89 29 00
        E 337 99 26 7b
        E 244 89 26 00
        E 43 99 29 17
        E 77 89 29 00
        E 114 99 2a 42
        E 1 99 24 5a
        E 141 89 2a 00
        E 97 89 24 00
        E 242 99 24 4c
        E 0 99 2a 66
        E 19 99 2a 30
        E 77 89 2a 00
        E 47 89 2a 00
        E 96 89 24 00
        E 241 99 2a 4a
        E 145 89 2a 00
        E 335 99 26 78
        E 239 89 26 00
        E 241 99 24 7d
        E 0 99 2a 59
        E 144 89 2a 00
        E 95 89 24 00
        E 241 99 2a 46
        E 1 99 24 71
        E 85 99 26 40
        E 58 89 2a 00
        E 20 89 26 00
        E 80 89 24 00
        E 236 99 2a 5e
        E 142 89 2a 00
        E 338 99 26 7d
        E 240 89 26 00
        E 239 99 24 7c
        E 1 99 2a 59
        E 143 89 2a 00
        E 97 89 24 00
        E 239 99 24 75
        E 1 99 2a 5d
        E 143 89 2a 00
        E 98 89 24 00
        E 239 99 2a 3e
        E 147 89 2a 00
        E 333 99 26 7d
        E 163 99 26 17
        E 77 89 26 00
        E 1 89 26 00
        E 76 99 27 1c
        E 77 89 27 00
        E 86 99 2a 48
        E 0 99 24 62
        E 145 89 2a 00
        E 94 89 24 00
        E 241 99 24 42
        E 0 99 2a 3c
        E 142 89 2a 00
        E 97 89 24 00
        E 241 99 2a 41
        E 57 99 29 20
        E 76 89 29 00
        E 13 89 2a 00
        E 75 99 27 0b
        E 76 89 27 00
        E 182 99 26 66
        E 239 89 26 00
        E 241 99 24 6a
        E 1 99 2a 3a
        E 142 89 2a 00
        E 98 89 24 00
        E 240 99 2a 53
        E 0 99 24 62
        E 144 89 2a 00
        E 97 89 24 00
        E 239 99 29 40
        E 144 89 29 00
        E 336 99 26 79
        E 240 89 26 00
        E 240 99 2a 42
        E 1 99 24 6a
        E 85 99 2a 38
        E 60 89 2a 00
        E 16 89 2a 00
        E 79 89 24 00
        E 239 99 2a 45
        E 0 99 24 6f
        E 143 89 2a 00
        E 49 99 29 45
        E 46 89 24 00
        E 31 89 29 00
        E 211 99 29 44
        E 144 89 29 00
        E 337 99 26 79
        E 240 89 26 00
        E 239 99 24 65
        E 0 99 2a 56
        E 144 89 2a 00
        E 97 89 24 00
        E 239 99 24 6f
        E 0 99 2a 53
        E 145 89 2a 00
        E 91 89 24 00
        E 244 99 29 3e
        E 144 89 29 00
        E 336 99 26 71
        E 240 89 26 00
        E 240 99 24 6f
        E 0 99 2a 4f
        E 144 89 2a 00
        E 99 89 24 00
        E 237 99 24 6e
        E 0 99 2a 3c
        E 144 89 2a 00
        E 97 89 24 00
        E 239 99 29 35
        E 144 89 29 00
        E 336 99 26 67
        E 242 89 26 00
        E 238 99 29 35
        E 0 99 23 45
        E 143 89 29 00
        E 99 89 23 00
        E 237 99 24 5f
        E 2 99 2a 56
        E 143 89 2a 00
        E 93 89 24 00
        E 242 99 29 3e
        E 144 89 29 00
        E 337 99 26 72
        E 238 89 26 00
        E 59 99 2a 2d
        E 20 99 27 1a
        E 57 89 2a 00
        E 20 89 27 00
        E 86 99 2a 57
        E 1 99 24 73
        E 145 89 2a 00
        E 99 89 24 00
        E 235 99 24 7d
        E 0 99 2a 6f
        E 143 89 2a 00
        E 97 89 24 00
        E 240 99 2a 4f
        E 144 89 2a 00
        E 163 99 24 1e
        E 77 89 24 00
        E 96 99 26 7b
        E 241 89 26 00
        E 239 99 2a 45
        E 0 99 24 7b
        E 144 89 2a 00
        E 98 89 24 00
        E 238 99 2a 4f
        E 1 99 24 75
        E 144 89 2a 00
        E 97 89 24 00
        E 238 99 2a 56
        E 143 89 2a 00
        E 337 99 26 7d
        E 240 89 26 00
        E 240 99 2a 4c
        E 0 99 24 71
        E 141 89 2a 00
        E 3 99 2a 3c
        E 77 89 2a 00
        E 21 89 24 00
        E 238 99 24 7d
        E 0 99 2a 40
        E 145 89 2a 00
        E 95 89 24 00
        E 240 99 2a 57
        E 142 89 2a 00
        E 338 99 26 6e
        E 238 89 26 00
        E 242 99 2a 4d
        E 0 99 24 49
        E 144 89 2a 00
        E 94 89 24 00
        E 242 99 2a 5a
        E 0 99 24 73
        E 143 89 2a 00
        E 98 89 24 00
        E 75 99 26 11
        E 76 89 26 00
        E 88 99 28 3a
        E 144 89 28 00
        E 76 99 29 2d
        E 77 89 29 00
        E 183 99 26 7d
        E 238 89 26 00
        E 242 99 24 79
        E 0 99 29 4a
        E 145 89 29 00
        E 97 89 24 00
        E 238 99 24 77
        E 0 99 2a 49
        E 145 89 2a 00
        E 93 89 24 00
        E 242 99 2a 4a
        E 145 89 2a 00
        E 336 99 26 7d
        E 240 89 26 00
        E 239 99 24 78
        E 1 99 2a 57
        E 144 89 2a 00
        E 94 89 24 00
        E 241 99 24 7d
        E 0 99 2a 6b
        E 144 89 2a 00
        E 95 89 24 00
        E 241 99 29 42
        E 142 89 29 00
        E 78 99 26 3a
        E 76 89 26 00
        E 184 99 26 7d
        E 241 89 26 00
        E 239 99 24 72
        E 0 99 2a 59
        E 145 89 2a 00
        E 100 89 24 00
        E 235 99 24 5e
        E 0 99 2a 49
        E 144 89 2a 00
        E 96 89 24 00
        E 240 99 29 44
        E 18 99 28 1a
        E 76 89 28 00
        E 51 89 29 00
        E 336 99 26 6a
        E 240 89 26 00
        E 239 99 2a 4d
        E 1 99 24 66
        E 144 89 2a 00
        E 66 99 2a 26
        E 29 89 24 00
        E 48 89 2a 00
        E 191 99 24 56
        E 1 99 2a 63
        E 146 89 2a 00
        E 91 89 24 00
        E 243 99 2a 48
        E 143 89 2a 00
        E 337 99 26 7c
        E 241 89 26 00
        E 239 99 24 77
        E 0 99 29 41
        E 144 89 29 00
        E 95 89 24 00
        E 241 99 2a 46
        E 1 99 24 75
        E 143 89 2a 00
        E 98 89 24 00
        E 238 99 2a 51
        E 143 89 2a 00
        E 337 99 26 7d
        E 240 89 26 00
        E 240 99 24 65
        E 0 99 29 42
        E 142 89 29 00
        E 99 89 24 00
        E 239 99 24 7d
        E 0 99 2a 69
        E 67 99 26 31
        E 75 89 2a 00
        E 2 89 26 00
        E 95 89 24 00
        E 241 99 2a 5b
        E 143 89 2a 00
        E 337 99 26 7d
        E 237 89 26 00
        E 243 99 2a 4d
        E 0 99 24 7d
        E 146 89 2a 00
        E 93 89 24 00
        E 241 99 24 72
        E 0 99 2a 52
        E 144 89 2a 00
        E 94 89 24 00
        E 242 99 2a 46
        E 143 89 2a 00
        E 11 99 25 20
        E 76 89 25 00
        E 250 99 26 7a
        E 240 89 26 00
        E 240 99 24 52
        E 0 99 2a 49
        E 145 89 2a 00
        E 95 89 24 00
        E 240 99 24 76
        E 0 99 28 3c
        E 142 89 28 00
        E 97 89 24 00
        E 241 99 29 38
        E 144 89 29 00
        E 336 99 26 75
        E 237 89 26 00
        E 243 99 2a 35
        E 0 99 24 5f
        E 145 89 2a 00
        E 96 89 24 00
        E 239 99 24 75
        E 1 99 2a 56
        E 146 89 2a 00
        E 93 89 24 00
        E 240 99 2a 5e
        E 105 99 26 28
        E 39 89 2a 00
        E 38 89 26 00
        E 298 99 26 75
        E 242 89 26 00
        E 237 99 29 4c
        E 1 99 24 5a
        E 38 99 29 4d
        E 76 89 29 00
        E 28 89 29 00
        E 98 89 24 00
        E 239 99 24 78
        E 1 99 2a 57
        E 144 89 2a 00
        E 89 89 24 00
        E 247 99 2a 41
        E 146 89 2a 00
        E 334 99 26 7d
        E 240 89 26 00
        E 9 99 26 44
        E 77 89 26 00
        E 154 99 24 7c
        E 0 99 2a 62
        E 144 89 2a 00
        E 96 89 24 00
        E 241 99 24 7d
        E 0 99 2a 5f
        E 145 89 2a 00
        E 93 89 24 00
        E 241 99 2a 45
        E 143 89 2a 00
        E 338 99 26 7d
        E 238 89 26 00
        E 240 99 24 53
        E 1 99 2a 4a
        E 145 89 2a 00
        E 92 89 24 00
        E 243 99 24 76
        E 0 99 2a 41
        E 144 89 2a 00
        E 96 89 24 00
        E 240 99 28 25
        E 145 89 28 00
        E 334 99 26 63
        E 240 89 26 00
        E 241 99 29 40
        E 0 99 24 69
        E 143 89 29 00
        E 95 89 24 00
        E 2 99 26 2d
        E 76 89 26 00
        E 164 99 28 24
        E 0 99 24 78
        E 143 89 28 00
        E 100 89 24 00
        E 237 99 29 40
        E 144 89 29 00
        E 336 99 26 7d
        E 67 99 29 34
        E 76 89 29 00
        E 97 89 26 00
        E 192 99 26 49
        E 48 99 24 71
        E 0 99 29 48
        E 28 89 26 00
        E 117 89 29 00
        E 96 89 24 00
        E 239 99 2a 5e
        E 0 99 24 78
        E 142 89 2a 00
        E 97 89 24 00
        E 232 99 29 32
        E 9 99 2a 45
        E 69 89 29 00
        E 74 89 2a 00
        E 337 99 26 6d
        E 236 89 26 00
        E 244 99 24 4e
        E 0 99 2a 42
        E 145 89 2a 00
        E 97 89 24 00
        E 0 b9 7b 00
        E 1 ff 2f 00
      >
    >
  >
  <TRACK
    NAME "synth_bass"
    PEAKCOL 4286528191
    VOLPAN 1.000000 0 1 -1
    MIDIOUT -1
    ISBUS 0 0
    <ITEM
      POSITION 0.000000
      LENGTH 41.046719
      NAME "synth_bass"
      VOLPAN 1 0 1 -1
      <SOURCE MIDI
        HASDATA 1 960 QN
        E 0 c0 26 00
        E 0 90 3e 3c
        E 3608 80 3e 00
        E 234 90 3e 24
        E 3705 80 3e 00
        E 143 90 3e 3c
        E 3619 80 3e 00
        E 219 90 38 3c
        E 3551 80 38 00
        E 282 90 3d 3c
        E 3627 80 3d 00
        E 214 90 3e 3c
        E 3658 80 3e 00
        E 179 90 3e 3c
        E 3693 80 3e 00
        E 152 90 3d 14
        E 905 90 38 22
        E 216 80 3d 00
        E 2365 80 38 00
        E 354 90 3d 3c
        E 3653 80 3d 00
        E 183 90 3d 3c
        E 3672 80 3d 00
        E 173 90 3e 3c
        E 3658 80 3e 00
        E 185 90 3e 1a
        E 902 90 38 25
        E 195 80 3e 00
        E 2367 80 38 00
        E 371 90 3d 3c
        E 3662 80 3d 00
        E 168 90 3d 3c
        E 3698 80 3d 00
        E 150 90 3f 3c
        E 3656 80 3f 00
        E 184 90 39 29
        E 3662 80 39 00
        E 188 90 38 13
        E 908 90 3d 3c
        E 165 80 38 00
        E 2371 80 3d 00
        E 383 90 3e 3c
        E 3634 80 3e 00
        E 211 90 3e 2a
        E 3682 80 3e 00
        E 157 90 38 22
        E 3644 80 38 00
        E 196 90 3e 3c
        E 3726 80 3e 00
        E 117 90 3d 20
        E 3712 80 3d 00
        E 132 90 3f 3c
        E 3687 80 3f 00
        E 137 90 3c 3c
        E 921 90 32 3c
        E 175 80 3c 00
        E 2312 80 32 00
        E 0 b0 7b 00
        E 1 ff 2f 00
      >
    >
  >
  <TRACK
    NAME "dark_pad"
    PEAKCOL 4284506208
    VOLPAN 1.000000 0 1 -1
    MIDIOUT -1
    ISBUS 0 0
    <ITEM
      POSITION 0.001049
      LENGTH 41.256362
      NAME "dark_pad"
      VOLPAN 1 0 1 -1
      <SOURCE MIDI
        HASDATA 1 960 QN
        E 0 c1 58 00
        E 2 91 25 3c
        E 15 91 23 3c
        E 26 91 3e 3c
        E 3507 81 3e 00
        E 288 91 27 3c
        E 16 91 28 3c
        E 18 91 32 3c
        E 1119 81 23 00
        E 147 81 25 00
        E 2219 81 32 00
        E 326 91 25 3c
        E 14 91 24 3c
        E 8 91 32 3c
        E 1043 81 28 00
        E 111 81 27 00
        E 2168 81 32 00
        E 497 91 14 3c
        E 10 91 20 3c
        E 1043 81 25 00
        E 51 81 24 00
        E 2715 91 27 3c
        E 29 91 21 3c
        E 6 91 31 3c
        E 1057 81 14 00
        E 156 81 20 00
        E 2230 81 31 00
        E 378 91 26 3c
        E 16 91 22 3c
        E 1171 81 27 00
        E 136 81 21 00
        E 2522 91 26 3c
        E 17 91 18 11
        E 5 91 33 3c
        E 863 81 26 00
        E 170 81 22 00
        E 2503 81 33 00
        E 274 91 1c 3c
        E 11 91 28 3c
        E 23 91 2d 3c
        E 1173 81 18 00
        E 94 81 26 00
        E 2191 81 2d 00
        E 350 91 26 3c
        E 13 91 24 3c
        E 12 91 31 3c
        E 15 91 39 3c
        E 962 81 28 00
        E 222 81 1c 00
        E 2132 81 31 00
        E 50 81 39 00
        E 442 91 27 3c
        E 8 91 1c 3c
        E 7 91 2d 3c
        E 1073 81 26 00
        E 163 81 24 00
        E 2283 81 2d 00
        E 310 91 26 3c
        E 3 91 24 3c
        E 16 91 32 3c
        E 17 91 3d 3c
        E 795 81 27 00
        E 327 81 1c 00
        E 2241 81 3d 00
        E 37 81 32 00
        E 394 91 24 3c
        E 14 91 21 3c
        E 15 91 33 3c
        E 1158 81 24 00
        E 62 81 26 00
        E 2320 81 33 00
        E 276 91 25 3c
        E 0 91 24 3c
        E 28 91 31 3c
        E 1 91 3e 3c
        E 1075 81 24 00
        E 15 81 21 00
        E 2317 81 31 00
        E 149 81 3e 00
        E 242 91 26 3c
        E 22 91 26 3c
        E 27 91 3d 3c
        E 1070 81 25 00
        E 132 81 24 00
        E 2195 81 3d 00
        E 402 91 27 3c
        E 4 91 23 3c
        E 41 91 3e 0c
        E 1170 81 26 00
        E 206 81 26 00
        E 2128 81 3e 00
        E 284 91 22 3c
        E 28 91 28 3c
        E 34 91 3e 1c
        E 1041 81 23 00
        E 40 81 27 00
        E 2294 81 3e 00
        E 403 91 26 3c
        E 19 91 22 3c
        E 35 91 38 3c
        E 1218 81 28 00
        E 156 81 22 00
        E 2041 81 38 00
        E 387 91 27 3c
        E 12 91 22 3c
        E 7 91 32 3c
        E 1094 81 22 00
        E 226 81 26 00
        E 2063 81 32 00
        E 427 91 26 3c
        E 10 91 24 3c
        E 16 91 32 3c
        E 25 91 33 3c
        E 987 81 22 00
        E 306 81 27 00
        E 2018 81 33 00
        E 99 81 32 00
        E 383 91 17 17
        E 5 91 22 3c
        E 25 91 3f 3c
        E 1073 81 26 00
        E 64 81 24 00
        E 2327 81 3f 00
        E 347 91 25 3c
        E 15 91 28 3c
        E 35 91 3e 3c
        E 866 81 22 00
        E 219 81 17 00
        E 2469 81 3e 00
        E 232 91 26 3c
        E 14 91 24 3c
        E 33 91 38 10
        E 1065 81 25 00
        E 54 81 28 00
        E 2386 81 38 00
        E 292 91 21 3c
        E 7 91 1c 3c
        E 25 91 2b 3c
        E 8 91 3a 10
        E 996 81 24 00
        E 191 81 26 00
        E 2270 81 3a 00
        E 74 81 2b 00
        E 271 91 25 3c
        E 11 91 22 3c
        E 13 91 31 3c
        E 1057 81 21 00
        E 184 81 1c 00
        E 1453 81 31 00
        E 1020 81 25 00
        E 130 81 22 00
        E 0 b1 7b 00
        E 1 ff 2f 00
      >
    >
  >
  <TRACK
    NAME "tension_fx"
    PEAKCOL 4284506208
    VOLPAN 1.000000 0 1 -1
    MIDIOUT -1
    ISBUS 0 0
    <ITEM
      POSITION 0.858006
      LENGTH 39.537864
      NAME "tension_fx"
      VOLPAN 1 0 1 -1
      <SOURCE MIDI
        HASDATA 1 960 QN
        E 0 c2 50 00
        E 1922 92 2d 3c
        E 22 92 2f 3c
        E 1898 82 2d 00
        E 0 92 2e 3c
        E 19 92 2e 3c
        E 3 82 2f 00
        E 1898 82 2e 00
        E 0 92 28 3c
        E 19 82 2e 00
        E 3 92 32 3c
        E 1896 92 2c 3c
        E 2 82 28 00
        E 19 92 32 3c
        E 3 82 32 00
        E 1896 82 2c 00
        E 0 92 2c 3c
        E 21 82 32 00
        E 3 92 33 3c
        E 1896 82 2c 00
        E 3 92 32 3c
        E 21 82 33 00
        E 2 92 31 3c
        E 1894 92 2d 3c
        E 3 82 32 00
        E 23 82 31 00
        E 0 92 33 3c
        E 1894 82 2d 00
        E 0 92 31 3c
        E 23 92 32 3c
        E 3 82 33 00
        E 1893 92 2e 3c
        E 1 82 31 00
        E 23 82 32 00
        E 3 92 2b 3c
        E 1893 82 2e 00
        E 3 92 27 3c
        E 23 92 33 3c
        E 1 82 2b 00
        E 1896 82 27 00
        E 0 92 2d 3c
        E 23 82 33 00
        E 0 92 32 3c
        E 1892 92 2d 3c
        E 5 82 2d 00
        E 22 92 2c 3c
        E 1 82 32 00
        E 1892 82 2d 00
        E 1 92 28 3c
        E 25 92 2e 3c
        E 1 82 2c 00
        E 1894 82 28 00
        E 4 92 2e 3c
        E 21 82 2e 00
        E 1 92 34 3c
        E 1896 92 2d 3c
        E 2 82 2e 00
        E 22 82 34 00
        E 2 92 35 3c
        E 1891 92 2b 3c
        E 3 82 2d 00
        E 22 92 30 3c
        E 4 82 35 00
        E 1891 82 2b 00
        E 1 92 2c 3c
        E 24 82 30 00
        E 0 92 33 3c
        E 1896 82 2c 00
        E 0 92 31 3c
        E 24 82 33 00
        E 1 92 2d 3c
        E 1895 82 31 00
        E 2 92 30 3c
        E 23 82 2d 00
        E 1 92 35 3c
        E 1896 82 30 00
        E 3 92 2d 3c
        E 21 82 35 00
        E 2 92 2c 3c
        E 1894 92 30 3c
        E 3 82 2d 00
        E 19 92 2b 3c
        E 4 82 2c 00
        E 1894 82 30 00
        E 0 92 2c 3c
        E 22 82 2b 00
        E 2 92 2d 3c
        E 1896 82 2c 00
        E 24 82 2d 00
        E 1894 92 32 3c
        E 26 92 33 3c
        E 1894 82 32 00
        E 26 82 33 00
        E 3819 92 2f 3c
        E 20 92 35 3c
        E 1895 92 2c 3c
        E 5 82 2f 00
        E 20 82 35 00
        E 1 92 33 3c
        E 1894 82 2c 00
        E 2 92 2d 3c
        E 23 92 2d 3c
        E 1 82 33 00
        E 1896 82 2d 00
        E 0 92 33 3c
        E 23 82 2d 00
        E 0 92 33 3c
        E 1895 92 30 3c
        E 2 82 33 00
        E 22 92 35 3c
        E 1 82 33 00
        E 1895 82 30 00
        E 24 82 35 00
        E 1900 92 2c 3c
        E 22 92 2e 3c
        E 1897 92 32 3c
        E 1 82 2c 00
        E 21 92 32 3c
        E 1 82 2e 00
        E 1897 82 32 00
        E 22 82 32 00
        E 3817 92 2d 3c
        E 24 92 2e 3c
        E 1895 92 30 3c
        E 1 82 2d 00
        E 24 82 2e 00
        E 2 92 34 3c
        E 1893 82 30 00
        E 27 82 34 00
        E 7652 92 2c 3c
        E 28 92 27 3c
        E 1892 82 2c 00
        E 28 82 27 00
        E 1892 92 31 3c
        E 25 92 32 3c
        E 1895 82 31 00
        E 4 92 32 3c
        E 21 82 32 00
        E 0 92 2e 3c
        E 1899 82 32 00
        E 21 82 2e 00
        E 0 b2 7b 00
        E 1 ff 2f 00
      >
    >
  >
  <TRACK
    NAME "lead_guitar"
    PEAKCOL 4284506208
    VOLPAN 1.000000 0 1 -1
    MIDIOUT -1
    ISBUS 0 0
    <ITEM
      POSITION 0.000000
      LENGTH 41.162721
      NAME "lead_guitar"
      VOLPAN 1 0 1 -1
      <SOURCE MIDI
        HASDATA 1 960 QN
        E 0 c3 1b 00
        E 0 93 3f 49
        E 1646 83 3f 00
        E 265 93 3c 3c
        E 188 83 3c 00
        E 47 93 3d 40
        E 198 83 3d 00
        E 51 93 38 3c
        E 1235 83 38 00
        E 206 93 38 3c
        E 1755 83 38 00
        E 177 93 33 3d
        E 183 83 33 00
        E 57 93 33 3c
        E 195 83 33 00
        E 32 93 33 3c
        E 1261 83 33 00
        E 183 93 33 3c
        E 1788 83 33 00
        E 115 93 32 3c
        E 185 83 32 00
        E 70 93 35 3c
        E 192 83 35 00
        E 54 93 34 3c
        E 1314 83 34 00
        E 144 93 3f 45
        E 1798 83 3f 00
        E 114 93 3d 4f
        E 203 83 3d 00
        E 38 93 44 3c
        E 188 83 44 00
        E 42 93 4a 48
        E 1213 83 4a 00
        E 213 93 44 3c
        E 1740 83 44 00
        E 203 93 44 3d
        E 198 83 44 00
        E 41 93 3d 3c
        E 186 83 3d 00
        E 49 93 38 3c
        E 1247 83 38 00
        E 170 93 3e 3c
        E 1722 83 3e 00
        E 235 93 39 3c
        E 195 83 39 00
        E 6 93 38 3c
        E 195 83 38 00
        E 66 93 37 3c
        E 1218 83 37 00
        E 203 93 32 3c
        E 1714 83 32 00
        E 232 93 30 3c
        E 197 83 30 00
        E 24 93 32 3c
        E 203 83 32 00
        E 64 93 33 3c
        E 1258 83 33 00
        E 166 93 31 3c
        E 1775 83 31 00
        E 137 93 32 3c
        E 196 83 32 00
        E 40 93 31 3c
        E 189 83 31 00
        E 78 93 32 3c
        E 1242 83 32 00
        E 192 93 32 3d
        E 1716 83 32 00
        E 195 93 34 3c
        E 183 83 34 00
        E 62 93 31 3c
        E 195 83 31 00
        E 43 93 31 3c
        E 1287 83 31 00
        E 161 93 33 3c
        E 1787 83 33 00
        E 109 93 38 3c
        E 194 83 38 00
        E 55 93 32 3c
        E 188 83 32 00
        E 53 93 34 3c
        E 1270 83 34 00
        E 171 93 39 3c
        E 1800 83 39 00
        E 115 93 3f 3c
        E 189 83 3f 00
        E 60 93 3c 3c
        E 200 83 3c 00
        E 27 93 3d 3c
        E 1188 83 3d 00
        E 264 93 3e 3c
        E 1749 83 3e 00
        E 165 93 3e 3c
        E 193 83 3e 00
        E 37 93 3e 38
        E 193 83 3e 00
        E 76 93 3f 44
        E 1314 83 3f 00
        E 97 93 3f 4c
        E 1693 83 3f 00
        E 230 93 3e 46
        E 185 83 3e 00
        E 76 93 3e 44
        E 207 83 3e 00
        E 7 93 39 3c
        E 1273 83 39 00
        E 201 93 39 45
        E 1721 83 39 00
        E 188 93 3e 49
        E 195 83 3e 00
        E 31 93 41 4a
        E 181 83 41 00
        E 71 93 44 42
        E 1218 83 44 00
        E 212 93 3e 4a
        E 1630 83 3e 00
        E 298 93 3e 4f
        E 194 83 3e 00
        E 53 93 3e 51
        E 199 83 3e 00
        E 15 93 3e 4e
        E 1276 83 3e 00
        E 197 93 3e 20
        E 1867 83 3e 00
        E 37 93 3e 3e
        E 171 83 3e 00
        E 63 93 3e 41
        E 192 83 3e 00
        E 48 93 44 39
        E 1288 83 44 00
        E 161 93 3f 3c
        E 1742 83 3f 00
        E 168 93 3e 3c
        E 187 83 3e 00
        E 50 93 3e 40
        E 208 83 3e 00
        E 33 93 3f 4c
        E 1318 83 3f 00
        E 124 93 3d 3c
        E 1783 83 3d 00
        E 128 93 44 3c
        E 198 83 44 00
        E 66 93 3e 3c
        E 199 83 3e 00
        E 18 93 3f 31
        E 1309 83 3f 00
        E 131 93 3e 3c
        E 1648 83 3e 00
        E 299 93 44 41
        E 196 83 44 00
        E 16 93 3d 3c
        E 203 83 3d 00
        E 45 93 37 3c
        E 1248 83 37 00
        E 190 93 3e 3c
        E 1716 83 3e 00
        E 206 93 3c 3c
        E 181 83 3c 00
        E 56 93 3d 3c
        E 184 83 3d 00
        E 78 93 44 3d
        E 1271 83 44 00
        E 154 93 3f 4f
        E 1657 83 3f 00
        E 276 93 41 5a
        E 189 83 41 00
        E 36 93 44 57
        E 196 83 44 00
        E 47 93 4a 4f
        E 1254 83 4a 00
        E 173 93 4a 45
        E 1778 83 4a 00
        E 149 93 4a 3c
        E 195 83 4a 00
        E 57 93 49 3c
        E 191 83 49 00
        E 37 93 49 3c
        E 1247 83 49 00
        E 197 93 4a 3c
        E 1789 83 4a 00
        E 124 93 4b 3c
        E 200 83 4b 00
        E 57 93 4b 3c
        E 195 83 4b 00
        E 45 93 44 44
        E 1223 83 44 00
        E 199 93 43 3d
        E 1737 83 43 00
        E 185 93 3f 3c
        E 196 83 3f 00
        E 64 93 3e 3c
        E 186 83 3e 00
        E 59 93 44 31
        E 1245 83 44 00
        E 0 b3 7b 00
        E 1 ff 2f 00
      >
    >
  >
>
