<REAPER_PROJECT 0.1 "7.0" 1700000000
  TEMPO 170.000000 4 4
  SAMPLERATE 48000 0 0
  RENDER_FILE ""
  RENDER_FMT 0 2 0
  RENDER_1X 0
  RENDER_RANGE 1 0 35.908764 0 0
  RENDER_RESAMPLE 3 0 1
  <MASTERTRACK
    VOLPAN 1 0 1 -1
    DEFCHAN 0
  >
  <TRACK
    NAME "drums"
    PEAKCOL 4290722362
    VOLPAN 1.000000 0 1 -1
    MIDIOUT -1
    ISBUS 0 0
    <ITEM
      POSITION 0.084410
      LENGTH 33.923661
      NAME "drums"
      VOLPAN 1 0 1 -1
      <SOURCE MIDI
        HASDATA 1 960 QN
        E 0 c9 00 00
        E 230 99 32 5a
        E 202 99 2a 7d
        E 41 89 32 00
        E 59 99 2a 7c
        E 44 89 2a 00
        E 24 99 26 65
        E 53 99 2a 7d
        E 0 99 24 7d
        E 22 89 2a 00
        E 59 99 32 7b
        E 62 89 2a 00
        E 26 99 26 7c
        E 19 89 26 00
        E 53 89 24 00
        E 81 89 32 00
        E 72 99 24 75
        E 17 89 26 00
        E 21 99 26 60
        E 77 89 26 00
        E 126 89 24 00
        E 109 99 25 7d
        E 197 99 26 7d
        E 43 89 25 00
        E 131 99 2a 7d
        E 69 89 26 00
        E 74 89 2a 00
        E 14 99 26 7a
        E 92 99 25 64
        E 23 99 26 7b
        E 121 89 26 00
        E 95 89 25 00
        E 24 89 26 00
        E 292 99 26 64
        E 77 89 26 00
        E 54 99 2a 5d
        E 143 89 2a 00
        E 385 99 2a 7d
        E 115 99 24 7d
        E 4 99 26 68
        E 24 89 2a 00
        E 52 89 26 00
        E 45 99 26 5c
        E 47 99 32 7c
        E 72 89 24 00
        E 77 99 24 6a
        E 47 89 26 00
        E 30 99 26 7d
        E 16 89 32 00
        E 17 99 2a 7d
        E 129 89 24 00
        E 1 99 25 7d
        E 13 89 2a 00
        E 65 89 26 00
        E 18 99 25 7d
        E 145 89 25 00
        E 14 99 24 7d
        E 82 89 25 00
        E 143 99 26 7a
        E 14 89 24 00
        E 63 89 26 00
        E 143 99 2a 7d
        E 76 89 2a 00
        E 184 99 26 7d
        E 77 99 32 7a
        E 158 99 2a 7d
        E 4 89 26 00
        E 76 89 32 00
        E 21 99 26 7d
        E 44 89 2a 00
        E 77 99 32 7d
        E 122 89 26 00
        E 2 99 25 7a
        E 62 99 25 7d
        E 56 89 32 00
        E 45 99 24 7c
        E 34 99 26 73
        E 9 99 26 73
        E 32 89 25 00
        E 35 89 26 00
        E 30 89 25 00
        E 102 89 24 00
        E 42 89 26 00
        E 38 99 26 51
        E 101 99 32 6d
        E 33 99 25 6d
        E 109 89 26 00
        E 2 99 25 67
        E 53 99 26 7d
        E 46 89 32 00
        E 30 89 25 00
        E 77 99 25 68
        E 35 89 25 00
        E 51 89 26 00
        E 152 89 25 00
        E 347 99 2a 44
        E 15 99 25 62
        E 48 99 32 52
        E 13 89 2a 00
        E 64 99 24 6c
        E 58 99 32 72
        E 56 89 25 00
        E 49 89 32 00
        E 77 89 24 00
        E 59 89 32 00
        E 60 99 26 60
        E 92 99 26 64
        E 14 99 32 5f
        E 39 99 2a 42
        E 77 89 2a 00
        E 20 89 26 00
        E 91 89 26 00
        E 16 89 32 00
        E 342 99 25 7a
        E 240 89 25 00
        E 78 99 2a 78
        E 76 89 2a 00
        E 149 99 2a 70
        E 125 99 26 76
        E 18 89 2a 00
        E 222 89 26 00
        E 43 99 32 7b
        E 154 99 26 7d
        E 71 99 2a 7d
        E 6 99 26 5f
        E 12 89 32 00
        E 65 89 26 00
        E 0 99 24 6c
        E 62 89 2a 00
        E 21 89 26 00
        E 47 99 24 4d
        E 114 89 24 00
        E 39 99 2a 68
        E 85 89 24 00
        E 57 89 2a 00
        E 103 99 25 7d
        E 81 99 26 7d
        E 134 99 25 7d
        E 25 89 25 00
        E 81 89 26 00
        E 137 89 25 00
        E 7 99 26 62
        E 236 99 24 7d
        E 1 89 26 00
        E 234 99 25 7d
        E 8 89 24 00
        E 236 89 25 00
        E 20 99 26 68
        E 62 99 26 7d
        E 14 89 26 00
        E 91 99 25 7d
        E 106 99 24 78
        E 25 89 26 00
        E 99 99 25 7c
        E 1 99 32 54
        E 6 89 25 00
        E 90 99 25 47
        E 16 89 24 00
        E 124 89 32 00
        E 5 89 25 00
        E 97 89 25 00
        E 3 99 26 7b
        E 76 89 26 00
        E 1 99 24 7d
        E 24 99 26 7d
        E 158 99 25 7d
        E 29 99 2a 7d
        E 33 89 24 00
        E 18 89 26 00
        E 79 99 25 7d
        E 13 89 2a 00
        E 70 89 25 00
        E 55 99 25 7d
        E 15 99 25 7d
        E 86 89 25 00
        E 140 89 25 00
        E 16 89 25 00
        E 60 99 32 76
        E 24 99 32 76
        E 213 89 32 00
        E 13 99 25 68
        E 13 89 32 00
        E 193 99 24 7d
        E 35 89 25 00
        E 75 99 32 7d
        E 132 89 24 00
        E 109 89 32 00
        E 153 99 2a 7d
        E 76 89 2a 00
        E 1 99 25 7d
        E 106 99 24 7d
        E 134 89 25 00
        E 106 89 24 00
        E 81 99 26 7d
        E 44 99 26 7d
        E 86 99 32 5f
        E 107 89 26 00
        E 48 89 26 00
        E 70 99 26 60
        E 13 89 32 00
        E 228 89 26 00
        E 201 99 25 7d
        E 77 99 2a 5f
        E 142 89 2a 00
        E 17 89 25 00
        E 144 99 26 3b
        E 76 89 26 00
        E 63 99 2a 72
        E 101 99 2a 7a
        E 44 89 2a 00
        E 80 99 2a 55
        E 19 89 2a 00
        E 10 99 26 79
        E 82 99 24 72
        E 32 89 2a 00
        E 6 99 26 7d
        E 14 99 2a 64
        E 77 89 2a 00
        E 29 99 24 7d
        E 2 89 26 00
        E 78 89 24 00
        E 41 89 26 00
        E 122 89 24 00
        E 31 99 26 7d
        E 15 99 26 7d
        E 220 99 25 76
        E 7 89 26 00
        E 13 89 26 00
        E 218 89 25 00
        E 683 99 26 7d
        E 6 99 32 7d
        E 33 99 25 6d
        E 5 99 24 7d
        E 196 89 26 00
        E 6 89 32 00
        E 35 89 25 00
        E 0 89 24 00
        E 142 99 28 41
        E 19 99 25 72
        E 43 99 32 77
        E 14 89 28 00
        E 184 89 25 00
        E 42 89 32 00
        E 130 99 26 7d
        E 32 99 26 7d
        E 44 89 26 00
        E 195 89 26 00
        E 93 99 24 59
        E 10 99 2a 78
        E 53 99 2a 67
        E 23 89 2a 00
        E 34 99 2a 7c
        E 86 89 2a 00
        E 35 89 24 00
        E 22 89 2a 00
        E 2 99 32 7d
        E 90 99 24 79
        E 152 89 32 00
        E 89 89 24 00
        E 197 99 32 7a
        E 201 99 26 7d
        E 15 99 24 7c
        E 27 89 32 00
        E 6 99 25 7b
        E 101 99 26 7c
        E 34 99 25 7d
        E 28 99 32 6a
        E 27 89 26 00
        E 18 89 24 00
        E 31 89 25 00
        E 102 89 26 00
        E 20 99 25 77
        E 13 89 25 00
        E 27 89 32 00
        E 203 89 25 00
        E 112 99 26 65
        E 33 99 26 77
        E 5 99 25 75
        E 24 99 32 78
        E 15 89 26 00
        E 197 89 26 00
        E 5 89 25 00
        E 27 89 32 00
        E 155 99 2a 79
        E 143 99 2a 73
        E 1 89 2a 00
        E 142 89 2a 00
        E 264 99 26 7c
        E 78 99 26 75
        E 43 99 26 7d
        E 96 99 26 62
        E 20 89 26 00
        E 52 99 25 78
        E 5 89 26 00
        E 19 99 2a 68
        E 4 89 26 00
        E 6 99 26 7d
        E 36 89 26 00
        E 31 89 2a 00
        E 140 89 25 00
        E 32 89 26 00
        E 92 99 32 6f
        E 87 99 32 7c
        E 153 89 32 00
        E 90 89 32 00
        E 376 99 2a 5c
        E 28 99 25 7c
        E 49 89 2a 00
        E 194 89 25 00
        E 117 99 32 7b
        E 0 99 2a 67
        E 38 99 32 7b
        E 106 89 2a 00
        E 93 89 32 00
        E 42 89 32 00
        E 375 99 32 5f
        E 191 99 2a 73
        E 47 89 32 00
        E 35 99 32 6f
        E 29 99 26 5a
        E 34 89 2a 00
        E 33 99 26 70
        E 11 89 26 00
        E 66 89 26 00
        E 48 99 32 6a
        E 18 89 32 00
        E 34 99 24 5c
        E 149 99 26 68
        E 38 99 24 6d
        E 1 89 32 00
        E 28 99 24 4a
        E 10 99 25 5f
        E 15 89 24 00
        E 14 99 24 6c
        E 133 89 26 00
        E 41 89 24 00
        E 26 89 24 00
        E 8 89 25 00
        E 35 89 24 00
        E 6 99 26 60
        E 76 89 26 00
        E 30 99 26 79
        E 43 99 32 7c
        E 57 99 26 79
        E 54 99 25 62
        E 84 89 26 00
        E 44 89 32 00
        E 16 99 26 4c
        E 43 89 26 00
        E 14 99 2a 72
        E 36 89 25 00
        E 108 89 2a 00
        E 40 89 26 00
        E 37 99 29 49
        E 62 99 32 54
        E 15 89 29 00
        E 225 89 32 00
        E 524 99 24 65
        E 120 99 2a 72
        E 120 89 24 00
        E 26 89 2a 00
        E 232 99 2a 4c
        E 126 99 24 4f
        E 17 89 2a 00
        E 40 99 24 44
        E 159 99 25 7d
        E 22 89 24 00
        E 58 89 24 00
        E 59 99 2a 6f
        E 101 89 25 00
        E 43 89 2a 00
        E 5 99 32 6f
        E 129 99 26 5d
        E 44 99 32 75
        E 33 89 26 00
        E 34 89 32 00
        E 9 99 25 5d
        E 10 99 2a 78
        E 48 99 25 73
        E 0 99 2a 6c
        E 97 89 2a 00
        E 8 89 32 00
        E 29 99 26 78
        E 10 89 2a 00
        E 34 89 25 00
        E 63 89 25 00
        E 136 89 26 00
        E 36 99 24 7d
        E 33 99 26 5f
        E 77 89 26 00
        E 96 99 26 77
        E 19 99 32 7d
        E 15 89 24 00
        E 130 99 24 7c
        E 76 89 26 00
        E 19 89 32 00
        E 140 99 25 62
        E 7 89 24 00
        E 7 99 32 65
        E 38 99 2a 5c
        E 76 89 2a 00
        E 114 89 25 00
        E 11 89 32 00
        E 6 99 32 7a
        E 153 99 26 7c
        E 85 89 32 00
        E 154 89 26 00
        E 169 99 2a 6f
        E 19 99 25 7a
        E 124 89 2a 00
        E 118 89 25 00
        E 171 99 26 60
        E 25 99 2a 7d
        E 52 89 26 00
        E 94 89 2a 00
        E 146 99 2a 7d
        E 43 99 26 7d
        E 35 89 2a 00
        E 37 99 32 7d
        E 168 89 26 00
        E 34 99 24 7d
        E 36 89 32 00
        E 103 99 24 72
        E 100 89 24 00
        E 111 99 2a 7c
        E 24 99 2a 7d
        E 6 89 24 00
        E 32 99 25 72
        E 83 89 2a 00
        E 24 89 2a 00
        E 132 89 25 00
        E 137 99 2a 64
        E 37 99 32 7d
        E 39 99 26 7b
        E 1 89 2a 00
        E 47 99 25 7b
        E 154 99 26 77
        E 1 89 32 00
        E 36 89 26 00
        E 49 89 25 00
        E 9 99 32 77
        E 147 89 26 00
        E 88 89 32 00
        E 87 99 2a 6f
        E 24 99 26 7d
        E 77 89 26 00
        E 10 99 26 77
        E 33 89 2a 00
        E 129 99 26 6f
        E 76 89 26 00
        E 3 89 26 00
        E 310 99 24 78
        E 24 99 32 75
        E 214 89 24 00
        E 24 89 32 00
        E 367 99 2a 6f
        E 77 89 2a 00
        E 0 99 32 5d
        E 135 99 25 75
        E 106 89 32 00
        E 133 89 25 00
        E 43 99 25 41
        E 63 99 24 65
        E 72 99 2a 65
        E 104 89 25 00
        E 40 89 2a 00
        E 24 89 24 00
        E 81 99 26 73
        E 227 99 24 7d
        E 11 89 26 00
        E 214 99 25 7a
        E 17 89 24 00
        E 31 99 2a 67
        E 143 89 2a 00
        E 20 99 24 62
        E 30 89 25 00
        E 81 99 26 6f
        E 77 89 26 00
        E 54 89 24 00
        E 42 99 32 7d
        E 4 99 32 7d
        E 226 99 2a 73
        E 10 89 32 00
        E 3 89 32 00
        E 64 89 2a 00
        E 148 99 26 7d
        E 216 99 32 7d
        E 23 89 26 00
        E 73 99 26 76
        E 144 89 32 00
        E 92 89 26 00
        E 57 99 2a 7d
        E 87 99 24 7d
        E 55 89 2a 00
        E 35 99 26 6a
        E 140 99 25 76
        E 11 89 24 00
        E 61 99 32 7c
        E 33 89 26 00
        E 136 89 25 00
        E 71 89 32 00
        E 72 99 2a 7a
        E 144 89 2a 00
        E 134 99 32 76
        E 134 99 2a 60
        E 108 89 32 00
        E 35 89 2a 00
        E 94 99 24 57
        E 14 99 2a 7d
        E 110 99 26 72
        E 34 89 2a 00
        E 43 89 26 00
        E 39 89 24 00
        E 27 99 24 78
        E 19 99 24 78
        E 40 99 32 7c
        E 61 99 32 7a
        E 119 89 24 00
        E 18 89 24 00
        E 45 89 32 00
        E 57 89 32 00
        E 59 99 26 47
        E 5 99 26 47
        E 19 99 2a 46
        E 25 99 25 3f
        E 32 89 26 00
        E 87 89 2a 00
        E 73 89 26 00
        E 49 89 25 00
        E 99 99 26 3e
        E 77 89 26 00
        E 504 99 2a 7d
        E 143 89 2a 00
        E 15 99 32 7d
        E 144 99 26 76
        E 68 99 32 6f
        E 28 89 32 00
        E 62 99 24 7d
        E 83 89 26 00
        E 63 89 32 00
        E 93 89 24 00
        E 45 99 25 6a
        E 237 89 25 00
        E 17 99 25 7d
        E 34 99 25 7d
        E 168 99 2a 7d
        E 38 89 25 00
        E 10 99 32 7d
        E 23 89 25 00
        E 29 99 32 7a
        E 42 89 2a 00
        E 21 99 25 6d
        E 124 89 32 00
        E 56 89 32 00
        E 58 89 25 00
        E 151 99 25 7a
        E 43 99 24 75
        E 77 99 32 76
        E 57 99 32 76
        E 64 89 25 00
        E 41 89 24 00
        E 75 89 32 00
        E 60 89 32 00
        E 192 99 24 7d
        E 240 89 24 00
        E 116 99 32 7d
        E 43 99 2a 7d
        E 77 89 2a 00
        E 19 99 24 55
        E 58 99 26 54
        E 45 89 32 00
        E 32 89 26 00
        E 86 99 25 7a
        E 16 89 24 00
        E 3 99 2a 7c
        E 144 89 2a 00
        E 74 89 25 00
        E 204 99 24 5f
        E 78 89 24 00
        E 33 99 24 7d
        E 48 99 32 7d
        E 81 99 2a 7d
        E 111 89 24 00
        E 33 89 2a 00
        E 19 89 32 00
        E 29 99 24 70
        E 72 99 32 78
        E 5 99 24 75
        E 124 99 2a 64
        E 38 89 24 00
        E 1 99 25 7d
        E 37 89 2a 00
        E 25 99 2a 7d
        E 12 89 32 00
        E 3 89 24 00
        E 126 89 2a 00
        E 36 89 25 00
        E 232 99 25 7d
        E 240 89 25 00
        E 38 99 25 7d
        E 62 99 24 7d
        E 72 99 26 7c
        E 109 89 25 00
        E 59 89 24 00
        E 63 99 2a 6c
        E 10 89 26 00
        E 67 89 2a 00
        E 129 99 2a 7d
        E 144 89 2a 00
        E 366 99 32 76
        E 67 99 24 7c
        E 13 99 25 6c
        E 158 89 32 00
        E 71 89 24 00
        E 9 89 25 00
        E 37 99 24 7d
        E 128 99 2a 54
        E 76 89 2a 00
        E 11 99 2a 68
        E 23 89 24 00
        E 54 89 2a 00
        E 101 99 26 60
        E 43 99 26 49
        E 77 89 26 00
        E 0 99 26 60
        E 66 99 32 47
        E 54 89 26 00
        E 121 89 26 00
        E 65 89 32 00
        E 289 99 32 6f
        E 238 89 32 00
        E 122 99 32 60
        E 15 99 2a 6a
        E 9 99 2a 5f
        E 78 89 2a 00
        E 56 89 2a 00
        E 19 99 26 42
        E 61 89 32 00
        E 141 99 32 62
        E 37 89 26 00
        E 97 99 26 72
        E 63 99 32 7d
        E 43 89 32 00
        E 53 99 2a 7d
        E 81 89 26 00
        E 62 89 32 00
        E 0 89 2a 00
        E 39 99 26 6f
        E 97 99 24 67
        E 144 89 26 00
        E 97 89 24 00
        E 51 99 2a 70
        E 67 99 32 6d
        E 10 89 2a 00
        E 63 99 26 6c
        E 164 89 32 00
        E 13 99 25 7a
        E 62 99 25 70
        E 3 89 26 00
        E 59 99 2a 5a
        E 77 89 2a 00
        E 37 89 25 00
        E 60 89 25 00
        E 95 99 32 7d
        E 5 99 32 7d
        E 38 99 26 7d
        E 20 99 32 62
        E 23 99 2a 5f
        E 39 99 26 73
        E 105 89 2a 00
        E 12 89 32 00
        E 2 89 32 00
        E 42 89 26 00
        E 14 89 32 00
        E 68 89 26 00
        E 98 99 24 7b
        E 239 89 24 00
        E 107 99 32 65
        E 33 99 24 6a
        E 53 99 24 6a
        E 34 99 25 76
        E 77 99 25 76
        E 40 89 32 00
        E 35 89 24 00
        E 35 99 25 73
        E 18 89 24 00
        E 35 89 25 00
        E 74 89 25 00
        E 114 89 25 00
        E 100 99 26 7d
        E 29 99 32 7d
        E 210 89 26 00
        E 29 89 32 00
        E 0 99 26 79
        E 10 99 2a 5d
        E 67 89 26 00
        E 9 89 2a 00
        E 111 99 25 7c
        E 111 99 24 7c
        E 72 99 25 7d
        E 56 89 25 00
        E 59 99 2a 7d
        E 51 89 24 00
        E 73 89 25 00
        E 20 89 2a 00
        E 360 99 26 73
        E 77 89 26 00
        E 77 99 2a 6c
        E 52 99 25 7d
        E 24 89 2a 00
        E 217 89 25 00
        E 52 99 2a 7d
        E 67 99 32 77
        E 10 89 2a 00
        E 231 89 32 00
        E 52 99 2a 78
        E 92 99 32 73
        E 51 89 2a 00
        E 112 99 2a 7d
        E 24 99 24 5d
        E 51 89 32 00
        E 67 89 2a 00
        E 123 89 24 00
        E 124 99 24 7b
        E 28 99 26 72
        E 215 89 24 00
        E 26 89 26 00
        E 124 99 24 4f
        E 33 99 26 47
        E 44 99 26 47
        E 34 89 26 00
        E 5 99 24 49
        E 18 99 32 46
        E 104 89 24 00
        E 59 99 32 75
        E 20 89 26 00
        E 37 89 24 00
        E 19 89 32 00
        E 164 89 32 00
        E 62 99 26 6d
        E 11 99 32 65
        E 125 99 26 55
        E 103 89 26 00
        E 15 89 32 00
        E 125 89 26 00
        E 131 99 26 60
        E 10 99 2a 6d
        E 67 89 26 00
        E 77 89 2a 00
        E 33 99 2a 77
        E 48 99 26 7c
        E 96 89 2a 00
        E 143 89 26 00
        E 188 99 32 64
        E 77 99 25 7d
        E 4 99 2a 68
        E 44 99 26 75
        E 77 89 26 00
        E 22 89 2a 00
        E 17 89 32 00
        E 47 99 2a 75
        E 29 89 25 00
        E 47 89 2a 00
        E 159 99 2a 75
        E 39 99 26 7d
        E 5 99 32 7d
        E 101 89 2a 00
        E 4 99 2a 7d
        E 10 99 24 75
        E 48 99 2a 7d
        E 76 89 26 00
        E 0 99 24 57
        E 3 89 32 00
        E 6 89 2a 00
        E 59 89 2a 00
        E 47 89 24 00
        E 40 99 26 7d
        E 84 89 24 00
        E 2 99 2a 73
        E 77 89 2a 00
        E 80 89 26 00
        E 184 99 26 7a
        E 243 89 26 00
        E 299 99 2a 7d
        E 81 99 26 70
        E 63 89 2a 00
        E 33 99 2a 7d
        E 39 99 26 77
        E 106 89 2a 00
        E 5 89 26 00
        E 129 89 26 00
        E 43 99 24 79
        E 211 99 32 77
        E 14 99 32 7d
        E 15 89 24 00
        E 206 99 2a 7c
        E 2 89 32 00
        E 13 89 32 00
        E 5 99 2a 75
        E 62 99 26 4a
        E 65 89 2a 00
        E 12 89 26 00
        E 5 89 2a 00
        E 316 99 2a 6f
        E 34 99 24 7d
        E 111 89 2a 00
        E 9 99 25 76
        E 101 99 24 7d
        E 19 89 24 00
        E 121 89 25 00
        E 42 99 2a 7d
        E 60 89 24 00
        E 17 89 2a 00
        E 87 99 2a 65
        E 4 99 24 75
        E 63 99 25 7d
        E 10 89 2a 00
        E 48 99 2a 7c
        E 77 89 2a 00
        E 3 99 24 7c
        E 39 89 24 00
        E 44 99 26 5a
        E 20 89 25 00
        E 57 89 26 00
        E 79 89 24 00
        E 185 99 26 7d
        E 242 89 26 00
        E 391 99 25 7c
        E 57 99 26 7a
        E 106 99 32 65
        E 73 89 25 00
        E 28 99 24 7d
        E 33 89 26 00
        E 97 99 2a 7d
        E 8 89 32 00
        E 44 99 24 55
        E 60 89 24 00
        E 34 89 2a 00
        E 123 99 24 6d
        E 23 89 24 00
        E 34 99 24 5c
        E 182 89 24 00
        E 58 89 24 00
        E 158 99 26 7d
        E 78 99 2a 57
        E 74 89 2a 00
        E 88 89 26 00
        E 144 99 2a 6c
        E 24 99 25 46
        E 91 99 32 70
        E 10 99 25 4d
        E 17 89 2a 00
        E 88 99 32 49
        E 32 89 25 00
        E 70 99 24 7c
        E 24 89 32 00
        E 9 89 25 00
        E 104 89 32 00
        E 77 99 26 55
        E 24 89 24 00
        E 26 99 26 7a
        E 28 89 26 00
        E 216 89 26 00
        E 67 99 32 65
        E 1 99 25 79
        E 157 99 25 6a
        E 83 89 32 00
        E 0 89 25 00
        E 62 99 25 77
        E 94 89 25 00
        E 146 89 25 00
        E 72 99 2a 70
        E 62 99 26 55
        E 77 89 26 00
        E 7 89 2a 00
        E 79 99 25 6a
        E 53 99 32 7d
        E 29 99 2a 57
        E 39 99 25 7d
        E 3 99 25 7d
        E 102 89 2a 00
        E 14 89 25 00
        E 55 89 32 00
        E 67 89 25 00
        E 2 89 25 00
        E 59 99 32 7d
        E 221 99 2a 79
        E 20 89 32 00
        E 57 89 2a 00
        E 278 99 2a 7d
        E 72 99 26 7d
        E 33 99 26 76
        E 40 89 2a 00
        E 36 89 26 00
        E 44 99 2a 6f
        E 84 89 26 00
        E 58 89 2a 00
        E 179 99 32 68
        E 34 99 25 7d
        E 35 99 25 7d
        E 167 99 26 76
        E 5 89 32 00
        E 32 89 25 00
        E 25 99 26 7d
        E 10 89 25 00
        E 168 89 26 00
        E 24 99 26 78
        E 38 89 26 00
        E 200 89 26 00
        E 22 99 25 65
        E 5 99 24 79
        E 47 99 25 7d
        E 53 99 2a 7c
        E 77 89 2a 00
        E 23 99 24 7c
        E 32 89 25 00
        E 9 89 24 00
        E 46 89 25 00
        E 24 99 24 6a
        E 133 89 24 00
        E 5 99 32 79
        E 101 89 24 00
        E 121 99 25 7d
        E 4 99 2a 6f
        E 9 89 32 00
        E 10 99 2a 7d
        E 124 89 2a 00
        E 20 89 2a 00
        E 11 99 24 7d
        E 9 99 26 78
        E 54 89 25 00
        E 22 89 26 00
        E 11 99 2a 6f
        E 76 89 2a 00
        E 20 99 25 7d
        E 47 89 24 00
        E 78 99 24 7a
        E 113 89 25 00
        E 40 99 24 7d
        E 10 99 24 7d
        E 39 99 24 7a
        E 40 89 24 00
        E 132 99 32 7d
        E 18 89 24 00
        E 10 89 24 00
        E 41 89 24 00
        E 65 99 26 6c
        E 73 99 24 68
        E 29 89 32 00
        E 47 99 2a 6d
        E 20 99 2a 51
        E 70 89 26 00
        E 55 89 2a 00
        E 18 89 2a 00
        E 2 89 24 00
        E 61 99 2a 72
        E 77 89 2a 00
        E 100 99 25 79
        E 164 99 32 6d
        E 76 89 25 00
        E 44 99 32 59
        E 121 89 32 00
        E 33 99 24 6d
        E 85 89 32 00
        E 82 99 24 49
        E 71 89 24 00
        E 169 89 24 00
        E 15 99 2a 7b
        E 145 89 2a 00
        E 147 99 25 7b
        E 239 89 25 00
        E 496 99 26 62
        E 66 99 2a 64
        E 10 89 26 00
        E 34 99 32 5a
        E 101 89 2a 00
        E 14 99 24 6c
        E 101 99 26 7d
        E 22 89 32 00
        E 45 99 2b 36
        E 34 99 25 7d
        E 37 89 24 00
        E 6 89 2b 00
        E 94 89 26 00
        E 41 99 26 76
        E 60 89 25 00
        E 2 99 2a 7c
        E 120 99 2a 77
        E 25 89 2a 00
        E 31 89 26 00
        E 20 89 2a 00
        E 394 99 32 7d
        E 101 99 24 62
        E 38 99 26 7c
        E 99 89 32 00
        E 75 99 2a 5d
        E 28 89 24 00
        E 38 89 26 00
        E 79 89 2a 00
        E 205 99 24 7c
        E 144 99 24 7d
        E 4 99 32 7d
        E 29 99 26 7d
        E 34 99 24 7d
        E 30 89 24 00
        E 18 99 24 7d
        E 48 99 25 73
        E 5 99 26 7d
        E 71 89 24 00
        E 7 89 32 00
        E 23 89 26 00
        E 19 99 26 76
        E 17 89 24 00
        E 49 89 24 00
        E 49 89 25 00
        E 6 89 26 00
        E 119 89 26 00
        E 105 99 25 7b
        E 11 99 25 6d
        E 227 89 25 00
        E 13 89 25 00
        E 100 99 26 7d
        E 72 99 24 7d
        E 168 89 26 00
        E 74 89 24 00
        E 112 99 2a 72
        E 59 99 2a 72
        E 17 89 2a 00
        E 84 99 25 7d
        E 43 89 2a 00
        E 194 89 25 00
        E 276 99 24 7d
        E 173 99 26 7d
        E 68 89 24 00
        E 61 99 32 7b
        E 15 99 26 7d
        E 20 99 2a 67
        E 56 89 26 00
        E 20 89 26 00
        E 2 89 2a 00
        E 83 99 2a 7c
        E 40 99 26 6a
        E 1 89 32 00
        E 101 89 2a 00
        E 60 99 25 79
        E 5 99 26 7d
        E 73 89 26 00
        E 162 89 25 00
        E 6 89 26 00
        E 119 99 2a 7d
        E 146 89 2a 00
        E 200 99 26 6f
        E 75 89 26 00
        E 55 99 25 7a
        E 201 99 24 67
        E 36 89 25 00
        E 7 99 25 67
        E 121 99 26 77
        E 76 89 24 00
        E 44 89 25 00
        E 119 89 26 00
        E 438 99 26 78
        E 76 89 26 00
        E 10 99 2a 65
        E 76 89 2a 00
        E 92 99 32 6d
        E 77 99 2a 5d
        E 144 89 2a 00
        E 18 89 32 00
        E 77 99 26 70
        E 135 99 32 64
        E 5 99 26 73
        E 33 99 25 7d
        E 63 89 26 00
        E 139 89 32 00
        E 3 89 26 00
        E 36 89 25 00
        E 114 99 25 7c
        E 140 99 24 7a
        E 99 89 25 00
        E 144 89 24 00
        E 250 99 2a 77
        E 39 99 25 79
        E 44 99 24 64
        E 59 89 2a 00
        E 32 99 31 4d
        E 103 89 25 00
        E 46 89 24 00
        E 92 89 31 00
        E 81 99 26 76
        E 71 99 24 68
        E 5 89 26 00
        E 58 99 24 79
        E 180 89 24 00
        E 41 99 26 70
        E 17 89 24 00
        E 55 99 26 7d
        E 5 89 26 00
        E 239 89 26 00
        E 284 99 25 7d
        E 239 89 25 00
        E 179 99 26 72
        E 43 99 32 7d
        E 34 89 26 00
        E 204 89 32 00
        E 1 99 25 7d
        E 125 99 2a 7d
        E 0 99 26 7a
        E 34 99 26 6f
        E 34 99 2a 7d
        E 46 89 25 00
        E 31 89 2a 00
        E 9 99 32 7d
        E 24 99 24 62
        E 28 99 2a 7d
        E 7 89 2a 00
        E 27 89 26 00
        E 33 89 26 00
        E 78 89 2a 00
        E 43 89 32 00
        E 20 89 24 00
        E 76 99 2a 7d
        E 143 89 2a 00
        E 5 99 24 7d
        E 239 89 24 00
        E 170 99 25 78
        E 62 99 24 76
        E 39 99 25 7a
        E 28 99 26 7c
        E 77 89 26 00
        E 36 89 25 00
        E 62 89 24 00
        E 34 89 25 00
        E 50 99 32 7d
        E 29 99 26 7a
        E 63 99 26 7d
        E 28 99 26 5f
        E 5 99 32 7c
        E 97 99 2a 7d
        E 16 89 32 00
        E 30 89 26 00
        E 59 99 2a 7d
        E 4 89 26 00
        E 32 89 26 00
        E 3 89 2a 00
        E 1 89 32 00
        E 105 89 2a 00
        E 47 99 2a 5f
        E 67 99 32 7d
        E 10 89 2a 00
        E 115 99 24 7d
        E 115 89 32 00
        E 123 89 24 00
        E 314 99 26 7d
        E 15 99 24 68
        E 225 89 26 00
        E 15 89 24 00
        E 239 99 25 7d
        E 106 99 26 6d
        E 77 89 26 00
        E 61 89 25 00
        E 179 99 24 78
        E 177 99 24 67
        E 63 89 24 00
        E 149 99 32 73
        E 5 99 2a 62
        E 24 89 24 00
        E 77 99 32 68
        E 42 89 2a 00
        E 0 99 2a 68
        E 82 99 26 6c
        E 8 89 32 00
        E 55 89 2a 00
        E 51 89 32 00
        E 126 89 26 00
        E 14 99 2a 5a
        E 48 99 26 60
        E 96 89 2a 00
        E 67 99 2a 73
        E 0 99 25 6d
        E 53 99 32 79
        E 23 89 2a 00
        E 2 89 26 00
        E 161 89 25 00
        E 53 89 32 00
        E 841 99 25 5a
        E 5 99 2a 73
        E 145 89 2a 00
        E 91 89 25 00
        E 231 99 32 7d
        E 52 99 32 68
        E 177 99 24 7d
        E 10 89 32 00
        E 38 99 2a 6a
        E 14 99 32 6f
        E 2 89 32 00
        E 61 89 2a 00
        E 52 99 32 7a
        E 63 89 24 00
        E 60 89 32 00
        E 117 89 32 00
        E 83 99 25 7d
        E 77 99 26 65
        E 164 89 25 00
        E 37 99 2a 4c
        E 40 89 26 00
        E 85 99 25 7d
        E 8 99 2a 6f
        E 13 89 2a 00
        E 65 89 2a 00
        E 139 99 26 7a
        E 16 89 25 00
        E 85 99 26 7d
        E 135 89 26 00
        E 76 99 26 7d
        E 24 99 25 54
        E 4 89 26 00
        E 48 89 26 00
        E 24 99 25 7d
        E 165 89 25 00
        E 78 89 25 00
        E 55 99 24 75
        E 16 99 25 7d
        E 18 99 32 7c
        E 207 89 24 00
        E 15 89 25 00
        E 17 89 32 00
        E 96 99 2a 7d
        E 50 99 24 7d
        E 95 89 2a 00
        E 30 99 26 73
        E 116 89 24 00
        E 37 99 25 7d
        E 87 89 26 00
        E 90 99 2a 7d
        E 5 99 26 70
        E 48 99 2a 7d
        E 12 89 25 00
        E 3 99 24 7d
        E 14 89 26 00
        E 63 89 2a 00
        E 13 99 2a 7a
        E 39 89 2a 00
        E 37 89 2a 00
        E 2 99 25 7d
        E 73 89 24 00
        E 105 99 26 7d
        E 64 89 25 00
        E 12 99 24 7d
        E 29 99 2a 70
        E 24 99 26 57
        E 77 89 26 00
        E 32 89 26 00
        E 9 89 2a 00
        E 35 99 2a 6d
        E 33 89 24 00
        E 105 99 24 7a
        E 5 89 2a 00
        E 102 99 24 73
        E 133 89 24 00
        E 108 89 24 00
        E 143 99 26 64
        E 5 99 32 70
        E 187 99 24 77
        E 49 89 26 00
        E 7 89 32 00
        E 182 89 24 00
        E 0 b9 7b 00
        E 1 ff 2f 00
      >
    >
  >
  <TRACK
    NAME "synth_bass"
    PEAKCOL 4286528191
    VOLPAN 1.000000 0 1 -1
    MIDIOUT -1
    ISBUS 0 0
    <ITEM
      POSITION 0.000000
      LENGTH 33.955467
      NAME "synth_bass"
      VOLPAN 1 0 1 -1
      <SOURCE MIDI
        HASDATA 1 960 QN
        E 0 c0 26 00
        E 0 90 3c 20
        E 145 90 32 47
        E 26 80 3c 00
        E 383 80 32 00
        E 92 90 32 47
        E 571 80 32 00
        E 62 90 33 37
        E 561 80 33 00
        E 80 90 36 47
        E 573 80 36 00
        E 71 90 32 47
        E 578 80 32 00
        E 54 90 39 47
        E 583 80 39 00
        E 62 90 34 47
        E 590 80 34 00
        E 51 90 30 47
        E 146 90 33 47
        E 29 80 30 00
        E 375 80 33 00
        E 85 90 2c 47
        E 580 80 2c 00
        E 64 90 2c 47
        E 578 80 2c 00
        E 67 90 35 1b
        E 140 90 33 47
        E 33 80 35 00
        E 372 80 33 00
        E 87 90 34 47
        E 578 80 34 00
        E 62 90 33 47
        E 584 80 33 00
        E 62 90 30 47
        E 577 80 30 00
        E 56 90 2f 47
        E 578 80 2f 00
        E 68 90 33 47
        E 565 80 33 00
        E 77 90 2f 47
        E 572 80 2f 00
        E 59 90 2b 47
        E 574 80 2b 00
        E 71 90 33 47
        E 581 80 33 00
        E 62 90 34 47
        E 575 80 34 00
        E 58 90 34 47
        E 588 80 34 00
        E 57 90 34 47
        E 586 80 34 00
        E 58 90 33 47
        E 582 80 33 00
        E 47 90 32 1e
        E 577 80 32 00
        E 69 90 31 47
        E 561 80 31 00
        E 82 90 36 47
        E 577 80 36 00
        E 56 90 34 47
        E 564 80 34 00
        E 81 90 38 47
        E 575 80 38 00
        E 67 90 36 47
        E 576 80 36 00
        E 58 90 32 24
        E 577 80 32 00
        E 64 90 34 47
        E 569 80 34 00
        E 79 90 2d 47
        E 574 80 2d 00
        E 56 90 2b 47
        E 576 80 2b 00
        E 66 90 2d 47
        E 584 80 2d 00
        E 61 90 2e 47
        E 576 80 2e 00
        E 58 90 30 47
        E 142 90 33 28
        E 30 80 30 00
        E 377 80 33 00
        E 94 90 32 47
        E 584 80 32 00
        E 59 90 39 47
        E 562 80 39 00
        E 69 90 36 47
        E 574 80 36 00
        E 72 90 38 47
        E 143 90 3e 47
        E 26 80 38 00
        E 374 80 3e 00
        E 100 90 3c 29
        E 576 80 3c 00
        E 58 90 3d 2b
        E 568 80 3d 00
        E 75 90 38 47
        E 579 80 38 00
        E 64 90 3e 47
        E 585 80 3e 00
        E 51 90 3f 47
        E 141 90 36 47
        E 34 80 3f 00
        E 372 80 36 00
        E 95 90 3f 47
        E 569 80 3f 00
        E 72 90 40 47
        E 586 80 40 00
        E 48 90 3e 47
        E 568 80 3e 00
        E 75 90 3f 47
        E 571 80 3f 00
        E 72 90 3e 47
        E 573 80 3e 00
        E 62 90 43 47
        E 563 80 43 00
        E 78 90 43 47
        E 583 80 43 00
        E 63 90 42 2b
        E 594 80 42 00
        E 40 90 41 47
        E 581 80 41 00
        E 60 90 42 47
        E 577 80 42 00
        E 67 90 41 47
        E 145 90 43 47
        E 27 80 41 00
        E 372 80 43 00
        E 90 90 48 47
        E 575 80 48 00
        E 69 90 45 47
        E 143 90 40 47
        E 29 80 45 00
        E 367 80 40 00
        E 102 90 45 47
        E 569 80 45 00
        E 66 90 47 47
        E 573 80 47 00
        E 71 90 45 47
        E 586 80 45 00
        E 56 90 43 37
        E 144 90 48 47
        E 29 80 43 00
        E 366 80 48 00
        E 95 90 4a 47
        E 584 80 4a 00
        E 61 90 4c 20
        E 574 80 4c 00
        E 68 90 42 47
        E 574 80 42 00
        E 61 90 3e 47
        E 578 80 3e 00
        E 64 90 3e 47
        E 575 80 3e 00
        E 68 90 3e 47
        E 577 80 3e 00
        E 54 90 3d 21
        E 579 80 3d 00
        E 65 90 3d 29
        E 576 80 3d 00
        E 69 90 3e 47
        E 144 90 37 29
        E 30 80 3e 00
        E 376 80 37 00
        E 81 90 39 47
        E 574 80 39 00
        E 69 90 3e 47
        E 574 80 3e 00
        E 71 90 3e 20
        E 566 80 3e 00
        E 70 90 3e 47
        E 142 90 45 47
        E 29 80 3e 00
        E 378 80 45 00
        E 92 90 3e 47
        E 576 80 3e 00
        E 65 90 3e 47
        E 593 80 3e 00
        E 43 90 3e 47
        E 572 80 3e 00
        E 70 90 41 47
        E 144 90 34 47
        E 29 80 41 00
        E 371 80 34 00
        E 99 90 33 47
        E 578 80 33 00
        E 57 90 3d 47
        E 575 80 3d 00
        E 68 90 40 47
        E 574 80 40 00
        E 69 90 37 47
        E 563 80 37 00
        E 69 90 3e 16
        E 146 90 3c 47
        E 23 80 3e 00
        E 375 80 3c 00
        E 101 90 43 47
        E 581 80 43 00
        E 62 90 46 47
        E 582 80 46 00
        E 50 90 44 47
        E 573 80 44 00
        E 72 90 3f 47
        E 575 80 3f 00
        E 68 90 45 47
        E 586 80 45 00
        E 46 90 42 47
        E 146 90 47 47
        E 30 80 42 00
        E 372 80 47 00
        E 97 90 44 47
        E 573 80 44 00
        E 70 90 3e 47
        E 587 80 3e 00
        E 45 90 42 21
        E 145 90 45 29
        E 29 80 42 00
        E 367 80 45 00
        E 104 90 41 47
        E 566 80 41 00
        E 76 90 46 47
        E 577 80 46 00
        E 56 90 49 47
        E 577 80 49 00
        E 68 90 45 47
        E 577 80 45 00
        E 66 90 45 24
        E 568 80 45 00
        E 66 90 3f 47
        E 571 80 3f 00
        E 69 90 3d 47
        E 567 80 3d 00
        E 80 90 45 47
        E 576 80 45 00
        E 56 90 44 24
        E 577 80 44 00
        E 66 90 35 47
        E 582 80 35 00
        E 63 90 33 47
        E 582 80 33 00
        E 49 90 38 47
        E 146 90 3c 47
        E 28 80 38 00
        E 377 80 3c 00
        E 94 90 33 47
        E 573 80 33 00
        E 71 90 3e 47
        E 574 80 3e 00
        E 58 90 3e 2e
        E 568 80 3e 00
        E 76 90 3d 1c
        E 145 90 45 2b
        E 30 80 3d 00
        E 369 80 45 00
        E 99 90 48 28
        E 576 80 48 00
        E 59 90 43 2f
        E 575 80 43 00
        E 67 90 39 47
        E 581 80 39 00
        E 63 90 4a 26
        E 564 80 4a 00
        E 69 90 40 15
        E 579 80 40 00
        E 63 90 3f 47
        E 582 80 3f 00
        E 63 90 38 47
        E 566 80 38 00
        E 65 90 3c 47
        E 580 80 3c 00
        E 66 90 3e 47
        E 576 80 3e 00
        E 65 90 39 2b
        E 574 80 39 00
        E 59 90 38 47
        E 574 80 38 00
        E 71 90 38 47
        E 574 80 38 00
        E 69 90 2f 47
        E 576 80 2f 00
        E 57 90 2f 47
        E 575 80 2f 00
        E 70 90 39 47
        E 577 80 39 00
        E 65 90 33 47
        E 556 80 33 00
        E 79 90 36 28
        E 574 80 36 00
        E 68 90 33 47
        E 568 80 33 00
        E 76 90 3e 47
        E 577 80 3e 00
        E 56 90 40 47
        E 578 80 40 00
        E 64 90 3d 47
        E 563 80 3d 00
        E 80 90 3d 47
        E 586 80 3d 00
        E 47 90 39 33
        E 568 80 39 00
        E 75 90 3c 28
        E 576 80 3c 00
        E 68 90 37 47
        E 580 80 37 00
        E 55 90 3e 47
        E 580 80 3e 00
        E 63 90 3e 19
        E 587 80 3e 00
        E 55 90 40 47
        E 577 80 40 00
        E 58 90 32 47
        E 576 80 32 00
        E 66 90 33 47
        E 573 80 33 00
        E 72 90 33 47
        E 581 80 33 00
        E 52 90 32 47
        E 570 80 32 00
        E 72 90 33 37
        E 577 80 33 00
        E 68 90 33 47
        E 573 80 33 00
        E 60 90 2f 47
        E 569 80 2f 00
        E 0 b0 7b 00
        E 1 ff 2f 00
      >
    >
  >
  <TRACK
    NAME "dark_pad"
    PEAKCOL 4284506208
    VOLPAN 1.000000 0 1 -1
    MIDIOUT -1
    ISBUS 0 0
    <ITEM
      POSITION 0.000560
      LENGTH 34.008204
      NAME "dark_pad"
      VOLPAN 1 0 1 -1
      <SOURCE MIDI
        HASDATA 1 960 QN
        E 0 c1 58 00
        E 2 91 32 47
        E 11 91 27 47
        E 12 91 1b 18
        E 16 91 40 18
        E 0 91 28 47
        E 15 91 2f 47
        E 3485 81 2f 00
        E 7 81 40 00
        E 295 91 30 47
        E 10 91 26 47
        E 14 91 31 47
        E 15 91 30 47
        E 4 91 4e 47
        E 1049 81 28 00
        E 52 81 27 00
        E 59 81 1b 00
        E 92 81 32 00
        E 2200 81 4e 00
        E 338 91 24 47
        E 61 91 37 47
        E 16 91 43 47
        E 846 81 26 00
        E 138 81 30 00
        E 41 81 31 00
        E 161 81 30 00
        E 2109 81 37 00
        E 298 81 43 00
        E 169 91 27 47
        E 14 91 1c 47
        E 20 91 32 47
        E 1 91 2d 47
        E 14 91 33 47
        E 12 91 3c 47
        E 1143 81 24 00
        E 2240 81 3c 00
        E 105 81 32 00
        E 295 91 31 47
        E 29 91 3f 16
        E 2 91 19 13
        E 1100 81 2d 00
        E 10 81 33 00
        E 66 81 27 00
        E 29 81 1c 00
        E 2353 81 3f 00
        E 255 91 1b 47
        E 23 91 25 47
        E 19 91 2f 47
        E 10 91 33 47
        E 810 81 19 00
        E 53 81 31 00
        E 2601 81 33 00
        E 321 91 30 47
        E 16 91 30 47
        E 12 91 33 47
        E 2 91 3e 18
        E 9 91 33 47
        E 18 91 3e 47
        E 934 81 25 00
        E 251 81 1b 00
        E 20 81 2f 00
        E 2230 81 3e 00
        E 121 81 3e 00
        E 229 91 15 47
        E 13 91 1e 47
        E 14 91 34 47
        E 1016 81 30 00
        E 65 81 30 00
        E 152 81 33 00
        E 4 81 33 00
        E 2160 81 34 00
        E 416 91 33 47
        E 9 91 2a 47
        E 18 91 21 47
        E 4 91 3d 47
        E 43 91 41 47
        E 1075 81 1e 00
        E 258 81 15 00
        E 1999 81 3d 00
        E 289 81 41 00
        E 168 91 32 47
        E 6 91 40 47
        E 14 91 3c 47
        E 25 91 4a 47
        E 1069 81 21 00
        E 107 81 33 00
        E 120 81 2a 00
        E 2031 81 4a 00
        E 32 81 40 00
        E 428 91 1c 47
        E 11 91 1a 47
        E 0 91 34 47
        E 15 91 32 47
        E 6 91 3e 47
        E 6 91 2c 47
        E 16 91 4a 47
        E 1110 81 3c 00
        E 5 81 32 00
        E 2275 81 2c 00
        E 31 81 34 00
        E 25 81 4a 00
        E 86 81 3e 00
        E 241 91 26 47
        E 12 91 1a 47
        E 10 91 30 47
        E 2 91 32 47
        E 1136 81 1c 00
        E 47 81 32 00
        E 48 81 1a 00
        E 2339 81 32 00
        E 245 91 32 47
        E 10 91 27 47
        E 11 91 25 47
        E 16 91 33 47
        E 1 91 3d 47
        E 17 91 33 47
        E 1056 81 1a 00
        E 76 81 30 00
        E 30 81 26 00
        E 2283 81 3d 00
        E 69 81 33 00
        E 284 91 23 47
        E 8 91 30 47
        E 4 91 2b 47
        E 16 91 25 47
        E 973 81 32 00
        E 55 81 27 00
        E 6 81 25 00
        E 38 81 33 00
        E 2443 81 2b 00
        E 282 91 1d 47
        E 16 91 23 47
        E 11 91 1e 47
        E 4 91 2f 47
        E 11 91 32 47
        E 1149 81 30 00
        E 15 81 25 00
        E 20 81 23 00
        E 2418 81 2f 00
        E 199 91 0c 47
        E 21 91 31 47
        E 17 91 3f 1e
        E 7 91 32 47
        E 925 81 1d 00
        E 169 81 23 00
        E 1 81 1e 00
        E 161 81 32 00
        E 2183 81 3f 00
        E 351 91 33 47
        E 10 91 21 47
        E 17 91 3e 47
        E 18 91 32 20
        E 4 91 39 1b
        E 958 81 0c 00
        E 118 81 32 00
        E 217 81 31 00
        E 2152 81 3e 00
        E 84 81 39 00
        E 280 91 32 47
        E 9 91 35 47
        E 3 91 25 47
        E 12 91 31 47
        E 1132 81 33 00
        E 43 81 21 00
        E 88 81 32 00
        E 2192 81 35 00
        E 356 91 33 47
        E 29 91 33 47
        E 1 91 41 47
        E 17 91 35 47
        E 1011 81 25 00
        E 35 81 31 00
        E 54 81 32 00
        E 2465 81 41 00
        E 67 81 35 00
        E 149 91 27 47
        E 15 91 18 47
        E 13 91 33 47
        E 4 91 2f 47
        E 10 91 41 47
        E 3 91 27 47
        E 14 91 3c 47
        E 1054 81 33 00
        E 178 81 33 00
        E 2070 81 33 00
        E 152 81 41 00
        E 54 81 3c 00
        E 272 91 27 47
        E 19 91 30 47
        E 13 91 2c 47
        E 13 91 33 47
        E 30 91 49 47
        E 988 81 27 00
        E 59 81 27 00
        E 25 81 2f 00
        E 12 81 18 00
        E 2256 81 49 00
        E 467 91 33 47
        E 1110 81 27 00
        E 18 81 2c 00
        E 115 81 30 00
        E 111 81 33 00
        E 2468 91 27 47
        E 11 91 3b 47
        E 11 91 27 47
        E 29 91 45 47
        E 1256 81 33 00
        E 2258 81 45 00
        E 46 81 3b 00
        E 207 91 29 47
        E 13 91 16 47
        E 15 91 33 47
        E 8 91 3f 18
        E 8 91 32 47
        E 1010 81 27 00
        E 256 81 27 00
        E 1399 81 3f 00
        E 987 81 33 00
        E 99 81 16 00
        E 30 81 32 00
        E 86 81 29 00
        E 0 b1 7b 00
        E 1 ff 2f 00
      >
    >
  >
  <TRACK
    NAME "tension_fx"
    PEAKCOL 4284506208
    VOLPAN 1.000000 0 1 -1
    MIDIOUT -1
    ISBUS 0 0
    <ITEM
      POSITION 0.352761
      LENGTH 33.638964
      NAME "tension_fx"
      VOLPAN 1 0 1 -1
      <SOURCE MIDI
        HASDATA 1 960 QN
        E 0 c2 50 00
        E 960 92 3f 47
        E 23 92 48 47
        E 937 82 3f 00
        E 0 92 39 47
        E 23 82 48 00
        E 3 92 43 47
        E 931 92 36 47
        E 3 82 39 00
        E 26 82 43 00
        E 931 82 36 00
        E 987 92 41 47
        E 934 92 3a 47
        E 26 82 41 00
        E 3 92 3f 47
        E 931 82 3a 00
        E 2 92 40 2e
        E 27 82 3f 00
        E 933 82 40 00
        E 960 92 46 47
        E 25 92 44 47
        E 935 82 46 00
        E 25 82 44 00
        E 2879 92 4b 47
        E 938 92 3e 2c
        E 22 82 4b 00
        E 933 92 3e 47
        E 5 82 3e 00
        E 20 92 45 31
        E 935 82 3e 00
        E 25 82 45 00
        E 1898 92 41 2b
        E 25 92 41 23
        E 935 82 41 00
        E 2 92 3d 47
        E 23 82 41 00
        E 0 92 48 47
        E 937 82 3d 00
        E 23 82 48 00
        E 956 92 44 47
        E 939 92 40 47
        E 21 82 44 00
        E 2 92 3d 31
        E 936 92 3e 47
        E 1 82 40 00
        E 23 82 3d 00
        E 2 92 45 47
        E 934 82 3e 00
        E 26 82 45 00
        E 5735 92 44 47
        E 23 92 4c 47
        E 937 82 44 00
        E 1 92 3e 34
        E 22 82 4c 00
        E 0 92 3f 2e
        E 938 82 3e 00
        E 22 82 3f 00
        E 1899 92 43 47
        E 21 92 4e 47
        E 939 82 43 00
        E 21 82 4e 00
        E 1923 92 4a 47
        E 937 92 40 47
        E 19 92 3e 1c
        E 4 82 4a 00
        E 937 82 40 00
        E 19 82 3e 00
        E 1897 92 40 24
        E 27 92 40 47
        E 933 82 40 00
        E 27 82 40 00
        E 0 92 3b 47
        E 932 92 34 47
        E 28 82 3b 00
        E 932 82 34 00
        E 984 92 49 47
        E 937 92 39 47
        E 23 82 49 00
        E 0 92 4b 47
        E 937 82 39 00
        E 23 82 4b 00
        E 0 92 46 47
        E 960 82 46 00
        E 941 92 41 13
        E 960 82 41 00
        E 3834 92 4a 29
        E 26 92 40 47
        E 934 82 4a 00
        E 26 82 40 00
        E 1895 92 3a 47
        E 29 92 51 47
        E 931 82 3a 00
        E 27 92 4b 47
        E 2 82 51 00
        E 958 82 4b 00
        E 1920 92 4a 47
        E 934 92 4a 47
        E 23 92 48 47
        E 3 82 4a 00
        E 934 82 4a 00
        E 0 92 40 47
        E 23 82 48 00
        E 937 82 40 00
        E 984 92 47 47
        E 936 92 3e 47
        E 24 82 47 00
        E 0 92 40 47
        E 936 82 3e 00
        E 24 82 40 00
        E 1897 92 3c 47
        E 960 82 3c 00
        E 2882 92 3c 47
        E 21 92 4c 2b
        E 939 82 3c 00
        E 21 82 4c 00
        E 1 92 3e 47
        E 960 82 3e 00
        E 3815 92 41 29
        E 23 92 4b 47
        E 937 82 41 00
        E 23 82 4b 00
        E 2 92 41 47
        E 960 82 41 00
        E 938 92 3c 47
        E 22 92 48 47
        E 938 82 3c 00
        E 0 92 3d 1e
        E 22 82 48 00
        E 938 82 3d 00
        E 959 92 43 47
        E 22 92 47 47
        E 937 92 3f 47
        E 1 82 43 00
        E 22 82 47 00
        E 2 92 49 47
        E 935 82 3f 00
        E 0 92 40 47
        E 23 92 41 47
        E 2 82 49 00
        E 935 82 40 00
        E 23 82 41 00
        E 940 92 41 47
        E 19 92 45 47
        E 939 92 44 33
        E 2 82 41 00
        E 19 82 45 00
        E 0 92 44 2c
        E 939 82 44 00
        E 21 82 44 00
        E 1924 92 47 47
        E 933 92 3e 20
        E 26 92 41 47
        E 1 82 47 00
        E 933 82 3e 00
        E 0 92 45 47
        E 26 82 41 00
        E 0 92 45 47
        E 934 82 45 00
        E 26 82 45 00
        E 0 b2 7b 00
        E 1 ff 2f 00
      >
    >
  >
  <TRACK
    NAME "lead_synth"
    PEAKCOL 4284506208
    VOLPAN 1.000000 0 1 -1
    MIDIOUT -1
    ISBUS 0 0
    <ITEM
      POSITION 0.000665
      LENGTH 33.870533
      NAME "lead_synth"
      VOLPAN 1 0 1 -1
      <SOURCE MIDI
        HASDATA 1 960 QN
        E 0 c3 50 00
        E 2 93 52 47
        E 189 83 52 00
        E 57 93 50 2f
        E 194 83 50 00
        E 42 93 50 44
        E 200 83 50 00
        E 49 93 51 47
        E 78 93 50 47
        E 70 83 50 00
        E 7 93 4e 47
        E 25 83 51 00
        E 42 83 4e 00
        E 12 93 52 47
        E 195 83 52 00
        E 282 93 4e 49
        E 199 83 4e 00
        E 129 93 4d 37
        E 65 83 4d 00
        E 11 93 4c 47
        E 65 83 4c 00
        E 13 93 4e 47
        E 201 83 4e 00
        E 266 93 52 54
        E 183 83 52 00
        E 141 93 4d 4d
        E 66 83 4d 00
        E 8 93 4e 3e
        E 71 83 4e 00
        E 8 93 50 4a
        E 205 83 50 00
        E 292 93 50 34
        E 186 83 50 00
        E 143 93 46 3e
        E 67 83 46 00
        E 9 93 4c 47
        E 62 83 4c 00
        E 15 93 4a 47
        E 197 83 4a 00
        E 46 93 4c 47
        E 193 83 4c 00
        E 44 93 4b 4a
        E 193 83 4b 00
        E 38 93 4c 4a
        E 99 93 49 5d
        E 64 83 49 00
        E 13 93 49 47
        E 20 83 4c 00
        E 49 83 49 00
        E 6 93 4c 4f
        E 200 83 4c 00
        E 256 93 4b 47
        E 189 83 4b 00
        E 164 93 41 47
        E 70 83 41 00
        E 7 93 43 47
        E 66 83 43 00
        E 10 93 3f 47
        E 196 83 3f 00
        E 275 93 4b 4f
        E 197 83 4b 00
        E 132 93 46 37
        E 67 83 46 00
        E 10 93 4b 47
        E 69 83 4b 00
        E 8 93 4d 3e
        E 196 83 4d 00
        E 284 93 4c 28
        E 184 83 4c 00
        E 128 93 43 47
        E 66 83 43 00
        E 13 93 45 28
        E 70 83 45 00
        E 6 93 49 20
        E 191 83 49 00
        E 59 93 46 4d
        E 194 83 46 00
        E 30 93 47 47
        E 192 83 47 00
        E 52 93 45 3f
        E 97 93 44 47
        E 70 83 44 00
        E 4 93 44 47
        E 30 83 45 00
        E 40 83 44 00
        E 7 93 48 47
        E 196 83 48 00
        E 274 93 44 47
        E 188 83 44 00
        E 156 93 45 33
        E 65 83 45 00
        E 14 93 45 49
        E 67 83 45 00
        E 9 93 45 49
        E 183 83 45 00
        E 295 93 41 4a
        E 193 83 41 00
        E 125 93 46 47
        E 71 83 46 00
        E 6 93 45 47
        E 68 83 45 00
        E 8 93 47 46
        E 190 83 47 00
        E 292 93 46 3c
        E 187 83 46 00
        E 131 93 46 47
        E 67 83 46 00
        E 10 93 46 4f
        E 69 83 46 00
        E 10 93 4b 47
        E 196 83 4b 00
        E 50 93 4d 3f
        E 185 83 4d 00
        E 53 93 4c 47
        E 188 83 4c 00
        E 49 93 4c 47
        E 96 93 44 47
        E 70 83 44 00
        E 6 93 45 47
        E 15 83 4c 00
        E 51 83 45 00
        E 12 93 4c 3c
        E 199 83 4c 00
        E 262 93 4d 47
        E 183 83 4d 00
        E 151 93 48 47
        E 66 83 48 00
        E 9 93 48 4f
        E 67 83 48 00
        E 10 93 48 42
        E 189 83 48 00
        E 295 93 4a 3e
        E 190 83 4a 00
        E 155 93 47 47
        E 68 83 47 00
        E 8 93 47 39
        E 69 83 47 00
        E 6 93 4a 3e
        E 188 83 4a 00
        E 288 93 4a 36
        E 185 83 4a 00
        E 121 93 4a 13
        E 67 83 4a 00
        E 9 93 4e 47
        E 65 83 4e 00
        E 11 93 4a 47
        E 196 83 4a 00
        E 62 93 51 47
        E 187 83 51 00
        E 44 93 50 47
        E 196 83 50 00
        E 61 93 4d 51
        E 78 93 4f 47
        E 65 83 4f 00
        E 11 93 4f 47
        E 35 83 4d 00
        E 35 83 4f 00
        E 6 93 50 47
        E 193 83 50 00
        E 288 93 4e 47
        E 196 83 4e 00
        E 116 93 4e 4d
        E 69 83 4e 00
        E 8 93 4e 4a
        E 65 83 4e 00
        E 9 93 4d 47
        E 202 83 4d 00
        E 299 93 4d 47
        E 191 83 4d 00
        E 139 93 4e 55
        E 67 83 4e 00
        E 9 93 50 47
        E 66 83 50 00
        E 10 93 51 4f
        E 199 83 51 00
        E 284 93 4f 55
        E 201 83 4f 00
        E 110 93 50 54
        E 66 83 50 00
        E 11 93 50 41
        E 63 83 50 00
        E 14 93 51 47
        E 183 83 51 00
        E 60 93 57 47
        E 191 83 57 00
        E 41 93 58 47
        E 196 83 58 00
        E 58 93 58 47
        E 90 93 4c 47
        E 63 83 4c 00
        E 15 93 51 47
        E 25 83 58 00
        E 41 83 51 00
        E 7 93 50 47
        E 192 83 50 00
        E 277 93 58 52
        E 192 83 58 00
        E 126 93 56 4c
        E 64 83 56 00
        E 15 93 56 47
        E 68 83 56 00
        E 7 93 55 6a
        E 185 83 55 00
        E 311 93 58 31
        E 193 83 58 00
        E 132 93 4c 3f
        E 65 83 4c 00
        E 11 93 50 47
        E 69 83 50 00
        E 10 93 4f 47
        E 189 83 4f 00
        E 301 93 50 2c
        E 191 83 50 00
        E 125 93 50 47
        E 67 83 50 00
        E 13 93 50 47
        E 68 83 50 00
        E 7 93 52 19
        E 194 83 52 00
        E 53 93 51 09
        E 191 83 51 00
        E 41 93 54 47
        E 199 83 54 00
        E 42 93 52 3f
        E 91 93 51 33
        E 66 83 51 00
        E 10 93 51 3c
        E 28 83 52 00
        E 38 83 51 00
        E 12 93 51 47
        E 196 83 51 00
        E 260 93 52 52
        E 201 83 52 00
        E 154 93 4d 3f
        E 69 83 4d 00
        E 7 93 4d 47
        E 66 83 4d 00
        E 9 93 52 3e
        E 198 83 52 00
        E 276 93 4f 4a
        E 189 83 4f 00
        E 131 93 51 37
        E 67 83 51 00
        E 9 93 52 47
        E 64 83 52 00
        E 13 93 53 3f
        E 190 83 53 00
        E 285 93 50 47
        E 190 83 50 00
        E 146 93 4a 52
        E 65 83 4a 00
        E 11 93 4e 3b
        E 69 83 4e 00
        E 7 93 4c 39
        E 194 83 4c 00
        E 36 93 4c 39
        E 189 83 4c 00
        E 67 93 4a 49
        E 194 83 4a 00
        E 29 93 4a 5c
        E 105 93 4a 49
        E 66 83 4a 00
        E 10 93 4d 47
        E 18 83 4a 00
        E 53 83 4d 00
        E 5 93 4c 47
        E 186 83 4c 00
        E 291 93 4a 44
        E 196 83 4a 00
        E 119 93 4a 3e
        E 64 83 4a 00
        E 13 93 48 4a
        E 64 83 48 00
        E 13 93 4b 47
        E 185 83 4b 00
        E 293 93 4d 47
        E 195 83 4d 00
        E 149 93 46 2b
        E 66 83 46 00
        E 11 93 4c 47
        E 70 83 4c 00
        E 6 93 49 20
        E 178 83 49 00
        E 292 93 4a 47
        E 192 83 4a 00
        E 125 93 44 47
        E 68 83 44 00
        E 9 93 44 2f
        E 69 83 44 00
        E 8 93 43 47
        E 201 83 43 00
        E 52 93 4b 0d
        E 182 83 4b 00
        E 67 93 44 47
        E 200 83 44 00
        E 19 93 3f 47
        E 104 93 41 47
        E 63 83 41 00
        E 16 93 41 47
        E 11 83 3f 00
        E 56 83 41 00
        E 9 93 45 47
        E 205 83 45 00
        E 273 93 42 47
        E 209 83 42 00
        E 114 93 40 47
        E 69 83 40 00
        E 8 93 40 49
        E 70 83 40 00
        E 5 93 43 47
        E 196 83 43 00
        E 278 93 43 44
        E 183 83 43 00
        E 158 93 44 49
        E 67 83 44 00
        E 11 93 44 49
        E 67 83 44 00
        E 8 93 44 47
        E 190 83 44 00
        E 279 93 45 4f
        E 190 83 45 00
        E 149 93 43 4f
        E 65 83 43 00
        E 11 93 44 57
        E 69 83 44 00
        E 7 93 45 47
        E 190 83 45 00
        E 51 93 4b 47
        E 196 83 4b 00
        E 31 93 42 44
        E 207 83 42 00
        E 30 93 49 47
        E 94 93 43 3e
        E 67 83 43 00
        E 9 93 44 36
        E 30 83 49 00
        E 37 83 44 00
        E 10 93 46 4d
        E 175 83 46 00
        E 304 93 4c 47
        E 197 83 4c 00
        E 139 93 49 47
        E 67 83 49 00
        E 10 93 48 4a
        E 68 83 48 00
        E 8 93 4b 47
        E 180 83 4b 00
        E 296 93 44 47
        E 199 83 44 00
        E 131 93 48 47
        E 64 83 48 00
        E 12 93 49 47
        E 66 83 49 00
        E 13 93 4a 39
        E 197 83 4a 00
        E 274 93 43 47
        E 192 83 43 00
        E 135 93 44 34
        E 64 83 44 00
        E 11 93 40 47
        E 69 83 40 00
        E 10 93 4b 47
        E 194 83 4b 00
        E 27 93 3f 18
        E 184 83 3f 00
        E 73 93 48 47
        E 192 83 48 00
        E 47 93 49 3c
        E 79 93 47 2c
        E 67 83 47 00
        E 8 93 45 46
        E 32 83 49 00
        E 35 83 45 00
        E 12 93 45 28
        E 196 83 45 00
        E 301 93 46 47
        E 189 83 46 00
        E 133 93 44 47
        E 71 83 44 00
        E 7 93 45 2c
        E 66 83 45 00
        E 8 93 44 41
        E 188 83 44 00
        E 286 93 3f 47
        E 182 83 3f 00
        E 144 93 43 47
        E 66 83 43 00
        E 10 93 44 47
        E 69 83 44 00
        E 9 93 47 4c
        E 189 83 47 00
        E 291 93 48 47
        E 195 83 48 00
        E 130 93 46 47
        E 72 83 46 00
        E 3 93 45 47
        E 70 83 45 00
        E 6 93 48 46
        E 202 83 48 00
        E 54 93 4c 47
        E 194 83 4c 00
        E 36 93 4a 60
        E 191 83 4a 00
        E 41 93 4a 47
        E 83 93 4a 47
        E 67 83 4a 00
        E 10 93 49 3b
        E 36 83 4a 00
        E 30 83 49 00
        E 11 93 48 51
        E 187 83 48 00
        E 298 93 4c 51
        E 203 83 4c 00
        E 128 93 4c 4a
        E 68 83 4c 00
        E 8 93 4e 47
        E 63 83 4e 00
        E 14 93 4d 4c
        E 189 83 4d 00
        E 300 93 4a 59
        E 191 83 4a 00
        E 139 93 49 4c
        E 68 83 49 00
        E 11 93 49 42
        E 67 83 49 00
        E 12 93 48 47
        E 197 83 48 00
        E 255 93 4b 39
        E 195 83 4b 00
        E 146 93 4d 36
        E 64 83 4d 00
        E 14 93 4c 3b
        E 66 83 4c 00
        E 10 93 51 47
        E 177 83 51 00
        E 71 93 4f 20
        E 195 83 4f 00
        E 21 93 52 47
        E 188 83 52 00
        E 60 93 50 13
        E 85 93 4f 41
        E 68 83 4f 00
        E 6 93 51 28
        E 33 83 50 00
        E 38 83 51 00
        E 8 93 50 4c
        E 187 83 50 00
        E 301 93 50 47
        E 178 83 50 00
        E 146 93 4d 42
        E 66 83 4d 00
        E 9 93 4d 47
        E 69 83 4d 00
        E 8 93 50 51
        E 199 83 50 00
        E 279 93 50 44
        E 186 83 50 00
        E 138 93 4c 47
        E 68 83 4c 00
        E 9 93 50 47
        E 66 83 50 00
        E 10 93 4f 47
        E 186 83 4f 00
        E 299 93 50 3b
        E 193 83 50 00
        E 138 93 4f 46
        E 70 83 4f 00
        E 9 93 4f 52
        E 63 83 4f 00
        E 11 93 4d 47
        E 187 83 4d 00
        E 53 93 57 4c
        E 206 83 57 00
        E 45 93 58 42
        E 192 83 58 00
        E 33 93 51 47
        E 88 93 54 47
        E 67 83 54 00
        E 8 93 55 4c
        E 25 83 51 00
        E 42 83 55 00
        E 9 93 58 46
        E 183 83 58 00
        E 294 93 57 3b
        E 195 83 57 00
        E 133 93 50 49
        E 68 83 50 00
        E 8 93 51 54
        E 68 83 51 00
        E 10 93 51 47
        E 204 83 51 00
        E 274 93 58 47
        E 200 83 58 00
        E 127 93 52 33
        E 65 83 52 00
        E 12 93 55 3b
        E 67 83 55 00
        E 9 93 56 47
        E 187 83 56 00
        E 299 93 54 47
        E 198 83 54 00
        E 129 93 56 47
        E 64 83 56 00
        E 11 93 54 34
        E 65 83 54 00
        E 12 93 59 47
        E 187 83 59 00
        E 53 93 59 18
        E 190 83 59 00
        E 58 93 53 23
        E 190 83 53 00
        E 56 93 53 1c
        E 77 93 52 49
        E 66 83 52 00
        E 11 93 52 2b
        E 42 83 53 00
        E 26 83 52 00
        E 9 93 55 47
        E 184 83 55 00
        E 307 93 54 33
        E 185 83 54 00
        E 134 93 51 34
        E 66 83 51 00
        E 9 93 4f 41
        E 65 83 4f 00
        E 12 93 51 47
        E 197 83 51 00
        E 274 93 51 47
        E 201 83 51 00
        E 136 93 4c 47
        E 68 83 4c 00
        E 6 93 4c 47
        E 65 83 4c 00
        E 14 93 52 47
        E 193 83 52 00
        E 269 93 53 5c
        E 185 83 53 00
        E 144 93 54 47
        E 65 83 54 00
        E 12 93 54 47
        E 68 83 54 00
        E 7 93 56 47
        E 204 83 56 00
        E 61 93 56 46
        E 183 83 56 00
        E 46 93 57 4c
        E 197 83 57 00
        E 29 93 55 54
        E 102 93 54 4a
        E 69 83 54 00
        E 6 93 54 47
        E 17 83 55 00
        E 50 83 54 00
        E 8 93 56 47
        E 184 83 56 00
        E 292 93 56 4c
        E 188 83 56 00
        E 140 93 52 47
        E 67 83 52 00
        E 11 93 50 4d
        E 68 83 50 00
        E 8 93 57 47
        E 188 83 57 00
        E 294 93 57 41
        E 186 83 57 00
        E 139 93 56 3e
        E 69 83 56 00
        E 8 93 58 47
        E 65 83 58 00
        E 11 93 59 47
        E 180 83 59 00
        E 310 93 56 47
        E 197 83 56 00
        E 108 93 57 47
        E 67 83 57 00
        E 12 93 57 47
        E 66 83 57 00
        E 11 93 57 47
        E 198 83 57 00
        E 64 93 54 29
        E 187 83 54 00
        E 51 93 57 47
        E 195 83 57 00
        E 49 93 57 47
        E 69 93 57 47
        E 62 83 57 00
        E 13 93 57 47
        E 44 83 57 00
        E 21 83 57 00
        E 14 93 58 47
        E 188 83 58 00
        E 285 93 58 31
        E 185 83 58 00
        E 152 93 58 47
        E 66 83 58 00
        E 9 93 57 4a
        E 66 83 57 00
        E 11 93 58 51
        E 201 83 58 00
        E 279 93 54 47
        E 190 83 54 00
        E 137 93 58 47
        E 66 83 58 00
        E 9 93 58 4c
        E 67 83 58 00
        E 13 93 58 4c
        E 188 83 58 00
        E 289 93 57 47
        E 194 83 57 00
        E 141 93 52 47
        E 68 83 52 00
        E 9 93 56 3f
        E 65 83 56 00
        E 12 93 52 47
        E 198 83 52 00
        E 33 93 51 47
        E 193 83 51 00
        E 51 93 58 52
        E 200 83 58 00
        E 23 93 4d 47
        E 103 93 54 47
        E 71 83 54 00
        E 6 93 56 47
        E 13 83 4d 00
        E 52 83 56 00
        E 10 93 57 47
        E 194 83 57 00
        E 298 93 54 47
        E 183 83 54 00
        E 124 93 50 47
        E 66 83 50 00
        E 10 93 54 47
        E 66 83 54 00
        E 12 93 58 47
        E 200 83 58 00
        E 294 93 54 47
        E 198 83 54 00
        E 132 93 55 47
        E 67 83 55 00
        E 10 93 56 3b
        E 63 83 56 00
        E 15 93 55 47
        E 201 83 55 00
        E 257 93 58 21
        E 209 83 58 00
        E 121 93 56 47
        E 67 83 56 00
        E 9 93 57 47
        E 63 83 57 00
        E 14 93 56 36
        E 190 83 56 00
        E 53 93 55 47
        E 182 83 55 00
        E 50 93 51 20
        E 190 83 51 00
        E 63 93 56 0b
        E 97 93 55 09
        E 67 83 55 00
        E 10 93 51 47
        E 20 83 56 00
        E 50 83 51 00
        E 8 93 53 47
        E 188 83 53 00
        E 292 93 50 44
        E 196 83 50 00
        E 119 93 50 47
        E 68 83 50 00
        E 8 93 52 3e
        E 66 83 52 00
        E 13 93 51 47
        E 196 83 51 00
        E 280 93 53 55
        E 190 83 53 00
        E 129 93 52 3f
        E 65 83 52 00
        E 13 93 51 44
        E 64 83 51 00
        E 13 93 55 47
        E 194 83 55 00
        E 298 93 54 46
        E 186 83 54 00
        E 145 93 58 47
        E 65 83 58 00
        E 14 93 4e 47
        E 70 83 4e 00
        E 7 93 57 47
        E 193 83 57 00
        E 49 93 58 39
        E 184 83 58 00
        E 35 93 57 54
        E 187 83 57 00
        E 56 93 56 47
        E 97 93 52 33
        E 68 83 52 00
        E 9 93 51 47
        E 23 83 56 00
        E 44 83 51 00
        E 8 93 57 47
        E 194 83 57 00
        E 279 93 56 47
        E 190 83 56 00
        E 149 93 57 51
        E 69 83 57 00
        E 9 93 55 47
        E 64 83 55 00
        E 12 93 54 47
        E 201 83 54 00
        E 277 93 58 47
        E 182 83 58 00
        E 144 93 56 47
        E 62 83 56 00
        E 15 93 56 41
        E 65 83 56 00
        E 12 93 58 46
        E 190 83 58 00
        E 287 93 58 46
        E 202 83 58 00
        E 127 93 57 47
        E 71 83 57 00
        E 8 93 58 47
        E 69 83 58 00
        E 5 93 57 47
        E 191 83 57 00
        E 54 93 58 2b
        E 187 83 58 00
        E 42 93 58 47
        E 194 83 58 00
        E 47 93 4f 47
        E 89 93 54 11
        E 67 83 54 00
        E 13 93 53 18
        E 34 83 4f 00
        E 34 83 53 00
        E 8 93 58 47
        E 189 83 58 00
        E 274 93 57 47
        E 202 83 57 00
        E 125 93 56 36
        E 66 83 56 00
        E 9 93 57 47
        E 70 83 57 00
        E 7 93 58 47
        E 191 83 58 00
        E 290 93 58 4f
        E 195 83 58 00
        E 127 93 56 54
        E 63 83 56 00
        E 12 93 56 4c
        E 69 83 56 00
        E 11 93 53 47
        E 199 83 53 00
        E 303 93 58 47
        E 187 83 58 00
        E 140 93 57 44
        E 64 83 57 00
        E 12 93 58 42
        E 67 83 58 00
        E 13 93 59 47
        E 194 83 59 00
        E 43 93 57 44
        E 198 83 57 00
        E 38 93 51 47
        E 204 83 51 00
        E 18 93 57 47
        E 111 93 51 47
        E 65 83 51 00
        E 13 83 57 00
        E 0 93 56 47
        E 67 83 56 00
        E 7 93 57 47
        E 184 83 57 00
        E 277 93 57 4d
        E 194 83 57 00
        E 131 93 4d 47
        E 68 83 4d 00
        E 9 93 4e 4c
        E 69 83 4e 00
        E 8 93 51 47
        E 192 83 51 00
        E 294 93 54 47
        E 200 83 54 00
        E 133 93 50 47
        E 70 83 50 00
        E 7 93 50 46
        E 64 83 50 00
        E 13 93 51 47
        E 193 83 51 00
        E 279 93 57 2e
        E 193 83 57 00
        E 136 93 50 16
        E 69 83 50 00
        E 6 93 4c 47
        E 70 83 4c 00
        E 7 93 58 2b
        E 185 83 58 00
        E 59 93 54 47
        E 196 83 54 00
        E 38 93 50 29
        E 192 83 50 00
        E 51 93 4f 47
        E 100 93 4c 47
        E 72 83 4c 00
        E 5 93 48 47
        E 17 83 4f 00
        E 48 83 48 00
        E 13 93 50 49
        E 188 83 50 00
        E 271 93 58 47
        E 184 83 58 00
        E 164 93 4e 47
        E 64 83 4e 00
        E 13 93 4e 34
        E 65 83 4e 00
        E 13 93 4f 33
        E 187 83 4f 00
        E 275 93 52 59
        E 191 83 52 00
        E 131 93 50 42
        E 67 83 50 00
        E 11 93 50 47
        E 67 83 50 00
        E 9 93 53 4c
        E 193 83 53 00
        E 308 93 53 47
        E 197 83 53 00
        E 120 93 54 5c
        E 67 83 54 00
        E 10 93 51 47
        E 65 83 51 00
        E 12 93 56 47
        E 190 83 56 00
        E 45 93 56 47
        E 203 83 56 00
        E 31 93 56 46
        E 198 83 56 00
        E 41 93 57 4d
        E 92 93 53 3c
        E 67 83 53 00
        E 11 93 52 5d
        E 8 83 57 00
        E 60 83 52 00
        E 8 93 57 47
        E 196 83 57 00
        E 278 93 57 4c
        E 200 83 57 00
        E 140 93 54 46
        E 71 83 54 00
        E 4 93 53 47
        E 66 83 53 00
        E 11 93 58 37
        E 197 83 58 00
        E 291 93 54 47
        E 198 83 54 00
        E 121 93 55 47
        E 68 83 55 00
        E 10 93 55 47
        E 64 83 55 00
        E 12 93 57 47
        E 196 83 57 00
        E 265 93 58 47
        E 191 83 58 00
        E 0 b3 7b 00
        E 1 ff 2f 00
      >
    >
  >
>
